<svg xmlns="http://www.w3.org/2000/svg" viewBox="0 0 512 512"><path fill="none" d="M0 0h512v512H0z"/><path fill="#9aa0a6" d="M180.63 347.41c-4.09 0-8.19-1.56-11.31-4.68-6.25-6.25-6.25-16.38 0-22.63l138.65-138.68c6.25-6.25 16.38-6.25 22.63 0s6.25 16.38 0 22.63L191.95 342.73a15.97 15.97 0 0 1-11.32 4.69z"/><path fill="#4285f4" d="M134.65 458.35c-44.66 0-81-36.34-81-81s36.34-81 81-81 81 36.34 81 81-36.34 81-81 81m0-130c-27.02 0-49 21.98-49 49s21.98 49 49 49 49-21.98 49-49-21.98-49-49-49m246.16-94.13c-27.52 0-53.39-10.72-72.85-30.18s-30.18-45.33-30.18-72.85 10.72-53.39 30.18-72.85c6.25-6.25 16.38-6.25 22.63 0s6.25 16.38 0 22.63c-27.69 27.7-27.69 72.76 0 100.45 27.7 27.7 72.76 27.69 100.45 0 6.25-6.25 16.38-6.25 22.63 0s6.25 16.38 0 22.63c-19.46 19.46-45.33 30.18-72.85 30.18z"/><path fill="#9aa0a6" d="M106.92 234.73c-4.1 0-8.19-1.56-11.31-4.69-6.25-6.25-6.25-16.38 0-22.63l63.23-63.23-63.23-63.23c-6.25-6.25-6.25-16.38 0-22.63s16.38-6.25 22.63 0l74.54 74.54c3 3 4.69 7.07 4.69 11.31s-1.69 8.31-4.69 11.31l-74.54 74.54a15.96 15.96 0 0 1-11.31 4.69zm298.16 223.62c-4.1 0-8.19-1.56-11.31-4.69l-74.54-74.54c-3-3-4.69-7.07-4.69-11.31s1.69-8.31 4.69-11.31l74.54-74.54c6.25-6.25 16.38-6.25 22.63 0s6.25 16.38 0 22.63l-63.23 63.23 63.23 63.23c6.25 6.25 6.25 16.38 0 22.63a15.96 15.96 0 0 1-11.31 4.69z"/><path fill="#4285f4" d="m192.77 132.88-11.31-11.31-85.85 85.85c-6.25 6.25-6.25 16.38 0 22.63 3.12 3.12 7.22 4.69 11.31 4.69s8.19-1.56 11.31-4.69l74.54-74.54c6.25-6.25 6.25-16.38 0-22.63m126.46 246.24 11.31 11.31 85.85-85.85c6.25-6.25 6.25-16.38 0-22.63-3.12-3.12-7.22-4.69-11.31-4.69s-8.19 1.56-11.31 4.69l-74.54 74.54c-6.25 6.25-6.25 16.38 0 22.63"/></svg>