<svg xmlns="http://www.w3.org/2000/svg" xml:space="preserve" width="56.712" height="45.355" style="font-size:12px;overflow:visible;color-interpolation-filters:sRGB;fill-rule:evenodd;stroke-linecap:square;stroke-miterlimit:3" viewBox="0 0 56.712 45.355"><defs><linearGradient id="a" x1="-.02" x2="43.734" y1="65.614" y2="65.614" gradientTransform="scale(.9647 1.03659)" gradientUnits="userSpaceOnUse"><stop offset="0" stop-color="#32d4f5"/><stop offset=".21" stop-color="#30cff0"/><stop offset=".465" stop-color="#2bc0e3"/><stop offset=".75" stop-color="#23a7cd"/><stop offset="1" stop-color="#198ab3"/></linearGradient></defs><g transform="translate(-34 -33.999)"><title>Page-1</title><g transform="translate(34.02 -34.016)"><title>1ES CloudTest Account.18724</title><title>Sheet.18725</title><g transform="translate(28.422 -7.468)"><title>Sheet.18726</title><path d="M25.74 113.37a2.53 2.469-180 0 0 2.53-2.45 2.444 2.385-180 0 0-.02-.31c-.98-7.71-5.5-13.99-14.1-13.99C5.4 96.62.87 101.94 0 110.64a2.53 2.469-180 0 0 2.25 2.71h.26z" style="fill:#0078d4;stroke:none;stroke-width:34;stroke-linecap:butt"/></g><g transform="translate(38.274 -12.772)"><title>Sheet.18727</title><path d="M4.29 103.76A7.875 7.687 0 0 1 0 102.53l4.25 10.84 4.22-10.77a7.904 7.715 0 0 1-4.18 1.16" style="fill:#fff;fill-opacity:.8;stroke:none;stroke-width:34;stroke-linecap:butt"/></g><g transform="translate(34.635 -22.378)"><title>Sheet.18728</title><ellipse cx="7.932" cy="105.628" rx="7.932" ry="7.742" style="fill:#0078d4;stroke:none;stroke-width:34;stroke-linecap:butt"/></g><title>Sheet.18729</title><path d="M42.17 109.28c-1.21-9.43-5.95-17.42-14.67-20.01a11.824 11.54-180 1 0-12.94-.11C5.77 91.48 1.07 98.71 0 109.31a3.775 3.684-180 0 0 3.37 4.04c.12.01.25.02.38.02h34.68a3.753 3.663-180 0 0 3.76-3.65 3.579 3.493-180 0 0-.02-.44" style="fill:url(#a);stroke:none;stroke-width:34;stroke-linecap:butt"/><g transform="translate(14.714 -7.915)"><title>Sheet.18730</title><path d="M6.41 99.03A11.774 11.492 0 0 1 0 97.18l6.34 16.19 6.3-16.07a11.77 11.488 0 0 1-6.23 1.73" style="fill:#fff;fill-opacity:.8;stroke:none;stroke-width:34;stroke-linecap:butt"/></g></g></g></svg>