<svg xmlns="http://www.w3.org/2000/svg" xml:space="preserve" width="56.69" height="56.693" style="font-size:12px;overflow:visible;color-interpolation-filters:sRGB;fill-rule:evenodd;stroke-linecap:square;stroke-miterlimit:3" viewBox="0 0 56.69 56.693"><defs><linearGradient id="a" x1="0" x2="23.977" y1="128.506" y2="128.506" gradientTransform="scale(1.2227 .81786)" gradientUnits="userSpaceOnUse"><stop offset="0" stop-color="#0078d4"/><stop offset=".82" stop-color="#5ea0ef"/></linearGradient><linearGradient id="b" x1="0" x2="10.538" y1="163.069" y2="163.069" gradientTransform="scale(1.39209 .71834)" gradientUnits="userSpaceOnUse"><stop offset=".15" stop-color="#ccc"/><stop offset="1" stop-color="#707070"/></linearGradient></defs><g transform="translate(-34 -34)"><title>Page-1</title><g transform="translate(34 -34.016)"><title>1ES Hosted Pool.18703</title><title>Sheet.18704</title><title>Sheet.18705</title><path d="M5.4 68.02h6.57v1.9H5.4Zm48.39 1.9h1.07v1.03h1.83v-2.93h-2.9zM3.03 122.67H2.1v-1.06H0v3.1h3.03zm51.83-.96v.96h-1.07v2.04h2.9v-3zM2.1 70.88v-.96h.93v-1.9H0v2.86z" style="fill:#0078d4;stroke:none;stroke-width:34;stroke-linecap:butt"/><g transform="translate(9.571 -26.913)"><title>Sheet.18706</title><path d="M0 123.74a.967.967-180 0 0 .967.967l27.383.003a.967.967-180 0 0 .967-.967l-.007-17.673a.967.967-180 0 0-.967-.967L.97 105.1a.967.967-180 0 0-.967.967z" style="fill:#0078d4;stroke:none;stroke-width:34;stroke-linecap:butt"/></g><g transform="translate(24.245 -30.981)"><title>Sheet.18707</title><path d="M4.87 116.14v5.7L0 124.71v-5.74z" style="fill:#50e6ff;stroke:none;stroke-width:34;stroke-linecap:butt"/></g><g transform="translate(19.342 -36.684)"><title>Sheet.18708</title><path d="m9.77 121.84-4.87 2.87-4.9-2.87 4.9-2.87Z" style="fill:#c3f1ff;stroke:none;stroke-width:34;stroke-linecap:butt"/></g><g transform="translate(19.342 -30.981)"><title>Sheet.18709</title><path d="M4.9 119.01v5.7L0 121.84v-5.7z" style="fill:#9cebff;stroke:none;stroke-width:34;stroke-linecap:butt"/></g><g transform="translate(18.042 -15.974)"><title>Sheet.18710</title><path d="M0 123.74a.967.967-180 0 0 .967.967l27.383.003a.967.967-180 0 0 .967-.967l-.007-17.673a.967.967-180 0 0-.967-.967L.97 105.1a.967.967-180 0 0-.967.967z" style="fill:url(#a);stroke:none;stroke-width:34;stroke-linecap:butt"/></g><g transform="translate(32.715 -20.076)"><title>Sheet.18711</title><path d="M4.87 116.14v5.7L0 124.71v-5.7z" style="fill:#50e6ff;stroke:none;stroke-width:34;stroke-linecap:butt"/></g><g transform="translate(27.813 -25.779)"><title>Sheet.18712</title><path d="m9.77 121.84-4.87 2.87-4.9-2.87 4.9-2.87Z" style="fill:#c3f1ff;stroke:none;stroke-width:34;stroke-linecap:butt"/></g><g transform="translate(27.813 -20.076)"><title>Sheet.18713</title><path d="M4.9 119.01v5.7L0 121.84v-5.7z" style="fill:#9cebff;stroke:none;stroke-width:34;stroke-linecap:butt"/></g><g transform="translate(27.813 -20.076)"><title>Sheet.18714</title><path d="m0 121.84 4.9-2.83v5.7z" style="fill:#c3f1ff;stroke:none;stroke-width:34;stroke-linecap:butt"/></g><g transform="translate(32.715 -20.076)"><title>Sheet.18715</title><path d="M4.87 121.84 0 119.01v5.7z" style="fill:#9cebff;stroke:none;stroke-width:34;stroke-linecap:butt"/></g><g transform="translate(25.378 -8.437)"><title>Sheet.18716</title><path d="M13.21 123.07c-2.91-.46-3.01-2.56-3.01-5.93H4.44c0 3.33 0 5.47-3.01 5.93A1.7 1.7-180 0 0 0 124.71h14.67a1.7 1.7-180 0 0-1.46-1.64" style="fill:url(#b);stroke:none;stroke-width:34;stroke-linecap:butt"/></g><g transform="translate(0 -.133)"><title>Sheet.18717</title><path d="M15.24 68.15h6.57v1.9h-6.57zm9.8 0h6.57v1.9h-6.57zm9.84 0h6.57v1.9h-6.57zm9.84 0h6.57v1.9h-6.57ZM5.47 122.81h6.57v1.9H5.47Zm9.8 0h6.57v1.9h-6.57zm9.84 0h6.57v1.9h-6.57zm9.84 0h6.57v1.9h-6.57zm9.8 0h6.57v1.9h-6.57Zm10.04-49.49h1.9v6.57h-1.9zm0 9.8h1.9v6.57h-1.9zm0 9.84h1.9v6.57h-1.9zm0 9.81h1.9v6.56h-1.9zm0 9.83h1.9v6.57h-1.9zM0 73.25h1.9v6.57H0Zm0 9.84h1.9v6.57H0Zm0 9.8h1.9v6.57H0Zm0 9.84h1.9v6.57H0Zm0 9.81h1.9v6.57H0Z" style="fill:#0078d4;stroke:none;stroke-width:34;stroke-linecap:butt"/></g></g></g></svg>