<svg xmlns="http://www.w3.org/2000/svg" xml:space="preserve" width="56.69" height="55.808" style="font-size:12px;overflow:visible;color-interpolation-filters:sRGB;fill-rule:evenodd;stroke-linecap:square;stroke-miterlimit:3" viewBox="0 0 56.69 55.808"><g transform="translate(-5.67 -6.111)"><title>Page-1</title><g transform="translate(5.67 -34.016)"><title>1ES.18695</title><title>Sheet.18696</title><title>Sheet.18697</title><path d="M0 71.28a2.231 2.196-180 0 0 1.33 2.01l52.26 22.46c1.47.63 3.1-.43 3.1-2.02v-6.49a2.232 2.197-180 0 0-1.33-2.01L3.1 62.77c-1.46-.63-3.1.44-3.1 2.02Z" style="fill:#971400;stroke:none;stroke-width:4.78125;stroke-linecap:butt"/><g transform="translate(0 -14.304)"><title>Sheet.18698</title><path d="M0 85.58v-6.49c0-1.58 1.64-2.64 3.1-2.01l26.55 11.41c1.68.72 1.81 3.03.22 3.92l-6.54 3.68a2.205 2.17 0 0 1-1.98.11L1.33 87.6A2.231 2.196 0 0 1 0 85.58" style="fill:#d83b01;stroke:none;stroke-width:4.78125;stroke-linecap:butt"/></g><g transform="translate(0 -22.46)"><title>Sheet.18699</title><path d="M56.69 87.24a2.231 2.196-180 0 0-1.33-2.01L3.1 62.77c-1.46-.63-3.1.44-3.1 2.02v6.49a2.231 2.196-180 0 0 1.33 2.01l52.26 22.46c1.47.63 3.1-.43 3.1-2.02z" style="fill:#f08b66;stroke:none;stroke-width:4.78125;stroke-linecap:butt"/></g><g transform="translate(24.09 -22.46)"><title>Sheet.18700</title><path d="M32.6 87.24v6.49c0 1.59-1.63 2.65-3.1 2.02L1.78 83.84C0 83.07 0 80.57 1.79 79.81l7.57-3.24a2.204 2.17 0 0 1 1.76 0l20.15 8.66a2.231 2.196 0 0 1 1.33 2.01" style="fill:#d83b01;stroke:none;stroke-width:4.78125;stroke-linecap:butt"/></g><title>Sheet.18701</title><path d="M0 87.24a2.231 2.196 0 0 1 1.33-2.01l52.26-22.46c1.47-.63 3.1.44 3.1 2.02v6.49a2.231 2.196 0 0 1-1.33 2.01L3.1 95.75c-1.46.63-3.1-.43-3.1-2.02Z" style="fill:#b92701;stroke:none;stroke-width:4.78125;stroke-linecap:butt"/><g transform="translate(0 -22.46)"><title>Sheet.18702</title><path d="M56.69 71.28a2.231 2.196 0 0 1-1.33 2.01L3.1 95.75c-1.46.63-3.1-.43-3.1-2.02v-6.49a2.231 2.196 0 0 1 1.33-2.01l52.26-22.46c1.47-.63 3.1.44 3.1 2.02z" style="fill:#e56334;stroke:none;stroke-width:4.78125;stroke-linecap:butt"/></g></g></g></svg>