<svg xmlns="http://www.w3.org/2000/svg" xml:space="preserve" width="56.693" height="56.693" style="font-size:12px;overflow:visible;color-interpolation-filters:sRGB;fill-rule:evenodd;stroke-linecap:square;stroke-miterlimit:3" viewBox="0 0 56.693 56.693"><g transform="translate(-5.67 -5.67)"><title>Page-1</title><g transform="translate(5.67 -34.016)"><title>Ansible.18685</title><title>Page-1</title><title>ansible</title><title>canvas_background</title><title>Sheet.18689</title><path d="M0 39.685h56.693v56.693H0z" style="fill:none;stroke:none;stroke-width:.75;stroke-linecap:butt"/><g transform="translate(3.178 -1.374)"><title>Sheet.18690</title><title>svg_23</title><title>Sheet.18692</title><path d="M50.85 70.09c0 14.52-11.39 26.29-25.42 26.29C11.39 96.38 0 84.61 0 70.09s11.39-26.28 25.43-26.28c14.03 0 25.42 11.76 25.42 26.28" style="fill:#c00;stroke:none;stroke-width:.75;stroke-linecap:butt"/><g transform="translate(10.566 -12.713)"><title>svg_24</title><title>Sheet.18694</title><path d="m27.8 93.39-11.53-28.4c-.33-.82-.99-1.26-1.8-1.26-.8 0-1.51.44-1.84 1.26L0 96.14h4.31l5.01-12.85 14.95 12.36c.6.51 1.04.73 1.6.73 1.14 0 2.13-.87 2.13-2.13 0-.19-.06-.5-.2-.86m-13.3-23.3 7.48 18.93-11.3-9.13z" style="fill:#fff;stroke:none;stroke-width:.75;stroke-linecap:butt"/></g></g></g></g></svg>