<svg xmlns="http://www.w3.org/2000/svg" xml:space="preserve" width="51.02" height="56.69" style="font-size:12px;overflow:visible;color-interpolation-filters:sRGB;fill-rule:evenodd;stroke-linecap:square;stroke-miterlimit:3" viewBox="0 0 51.02 56.69"><g transform="translate(-5.102 -5.674)"><title>Page-1</title><g transform="translate(5.102 -34.016)"><title>ARM Template.18680</title><title>g10</title><title>path4</title><path d="m48.7 47.4-5.56-5.45-2.32-2.26H0v56.69h51.02V49.66Z" style="fill:#59b4d9;stroke:none;stroke-width:.90576297;stroke-linecap:butt"/><g transform="translate(2.32 -2.268)"><title>path6</title><path d="M38.27 44.22H0v52.16h46.39V52.16h-8.12z" style="fill:#fff;fill-opacity:.8;stroke:none;stroke-width:.90576297;stroke-linecap:butt"/></g><g transform="translate(7.288 -22.57)"><title>path8</title><path d="M4.59 92.5c0 1.23-.31 2.18-.93 2.86s-1.44 1.02-2.47 1.02c-.49 0-.88-.06-1.19-.17V94.6c.28.18.64.28 1.08.28 1.17 0 1.76-.89 1.76-2.65v-6.36h1.75zm2.03 3.29v-1.76c.16.14.35.27.58.39a5 5 0 0 0 1.46.47c.25.05.48.07.69.07q1.11 0 1.65-.36t.54-1.05q0-.36-.18-.63a1.898 1.856-180 0 0-.51-.5 5.305 5.187-180 0 0-.76-.43c-.29-.13-.61-.28-.94-.43-.36-.18-.69-.37-1-.57a4.264 4.17 0 0 1-.81-.63 2.738 2.677 0 0 1-.54-.79 2.64 2.58 0 0 1-.19-1.03c0-.49.11-.91.33-1.27.23-.35.52-.65.89-.88a4.038 3.948 0 0 1 1.25-.52 5.956 5.824 0 0 1 1.43-.17c1.1 0 1.91.12 2.41.37v1.69q-.9-.63-2.31-.63c-.26 0-.52.02-.78.07a2.313 2.262-180 0 0-.69.24 1.51 1.476-180 0 0-.5.42 1.067 1.043-180 0 0-.19.63q0 .345.15.6c.09.16.24.32.43.46s.42.27.69.4c.27.14.59.28.95.43.37.19.71.39 1.04.59.33.21.61.44.86.69s.45.52.59.83c.15.3.22.65.22 1.04 0 .52-.11.97-.32 1.33-.22.36-.51.65-.88.88a4.3 4.3 0 0 1-1.26.49 6.573 6.427 0 0 1-2.17.11 9.158 8.954 0 0 1-.79-.12 8 8 0 0 1-.76-.18c-.25-.07-.44-.15-.58-.25m13.06.59c-1.53 0-2.75-.49-3.66-1.45-.92-.97-1.38-2.22-1.38-3.77 0-1.66.47-2.99 1.4-3.98.94-.99 2.2-1.48 3.8-1.48 1.49 0 2.68.48 3.59 1.44s1.36 2.22 1.36 3.77c0 1.69-.46 3.02-1.39 4q-1.395 1.47-3.72 1.47m.07-9.17c-.96 0-1.75.35-2.36 1.05-.6.71-.91 1.64-.91 2.79s.3 2.07.89 2.78q.885 1.05 2.31 1.05c1.01 0 1.81-.34 2.4-1 .58-.67.87-1.61.87-2.81 0-1.23-.28-2.18-.85-2.86-.57-.67-1.35-1-2.35-1m15.94 8.99h-1.92l-5.05-7.59a3.446 3.37 0 0 1-.31-.6h-.05c.04.22.06.7.06 1.42v6.77h-1.69V85.87h2.04l4.88 7.42c.2.3.34.52.4.63h.03c-.05-.27-.08-.74-.08-1.39v-6.66h1.69z" style="fill:#59b4d9;stroke:none;stroke-width:.90576297;stroke-linecap:butt"/></g></g></g></svg>