<svg xmlns="http://www.w3.org/2000/svg" xml:space="preserve" width="56.698" height="56.696" style="font-size:12px;overflow:visible;color-interpolation-filters:sRGB;fill-rule:evenodd;stroke-linecap:square;stroke-miterlimit:3" viewBox="0 0 56.698 56.696"><g transform="translate(-5.67 -5.669)"><title>Page-1</title><g transform="translate(5.67 -34.016)"><title>Azure Board.18646</title><title>Page-1</title><title>Azure Board</title><g transform="translate(0 -13.996)"><title>path2</title><title>Sheet.18650</title><path d="M40.18 77.41c4.24 0 8.08 1.59 11 4.18V56.02c0-1.29-1.04-2.34-2.34-2.34H2.34C1.05 53.68 0 54.73 0 56.02v38.02c0 1.29 1.05 2.34 2.34 2.34h21.53q-.18-1.215-.18-2.49c-.01-9.1 7.38-16.48 16.49-16.48" style="fill:#00947d;stroke:none;stroke-width:.97540402;stroke-linecap:butt"/></g><g transform="translate(4.212 -45.212)"><title>path4</title><title>Sheet.18652</title><path d="M0 89.181h11.386v7.197H0z" style="fill:#1fc1a7;stroke:none;stroke-width:.97540402;stroke-linecap:butt"/></g><g transform="translate(19.865 -45.212)"><title>path6</title><title>Sheet.18654</title><path d="M0 89.181h11.386v7.197H0z" style="fill:#61ddc9;stroke:none;stroke-width:.97540402;stroke-linecap:butt"/></g><g transform="translate(4.212 -33.81)"><title>path8</title><title>Sheet.18656</title><path d="M0 89.181h11.386v7.197H0z" style="fill:#9bfdec;stroke:none;stroke-width:.97540402;stroke-linecap:butt"/></g><g transform="translate(4.212 -22.511)"><title>path10</title><title>Sheet.18658</title><path d="M0 89.286h11.386v7.092H0z" style="fill:#00b99d;stroke:none;stroke-width:.97540402;stroke-linecap:butt"/></g><g transform="translate(19.865 -33.81)"><title>path12</title><title>Sheet.18660</title><path d="M0 89.181h11.386v7.197H0z" style="fill:#04bca1;stroke:none;stroke-width:.97540402;stroke-linecap:butt"/></g><g transform="translate(35.55 -45.212)"><title>path14</title><title>Sheet.18662</title><path d="M0 89.181h11.386v7.197H0z" style="fill:#1dc0a7;stroke:none;stroke-width:.97540402;stroke-linecap:butt"/></g><g transform="translate(23.677 -13.99)"><title>path16</title><title>Sheet.18664</title><path d="M27.5 94.03V81.59a16.5 16.5 0 0 0-10.99-4.18C7.4 77.41 0 84.78 0 93.89c0 .85.06 1.67.19 2.49h24.97c1.3-.01 2.34-1.06 2.34-2.35" style="fill:#00ba9d;stroke:none;stroke-width:.97540402;stroke-linecap:butt"/></g><g transform="translate(23.868)"><title>path18</title><title>Sheet.18666</title><path d="M27.31 67.61v12.44c0 1.29-1.04 2.34-2.33 2.34H0c1.2 7.92 8.05 13.99 16.32 13.99 9.12-.01 16.51-7.39 16.51-16.49 0-4.88-2.14-9.27-5.52-12.28" style="fill:#27cfb2;stroke:none;stroke-width:.97540402;stroke-linecap:butt"/></g><g transform="translate(29.835 -7.729)"><title>path20</title><title>Sheet.18668</title><path d="M18.83 79.51 8.49 89.83l-5.32-5.3L0 87.7l5.32 5.31 3.37 3.37 3.18-3.18L22.2 82.88Z" style="fill:#c5fdf4;stroke:none;stroke-width:.97540402;stroke-linecap:butt"/></g></g></g></svg>