<svg xmlns="http://www.w3.org/2000/svg" xml:space="preserve" width="48.19" height="56.691" style="font-size:12px;overflow:visible;color-interpolation-filters:sRGB;fill-rule:evenodd;stroke-linecap:square;stroke-miterlimit:3" viewBox="0 0 48.19 56.691"><g transform="translate(-4.819 -5.673)"><title>Page-1</title><g transform="translate(4.819 -34.016)"><title>Azure Repo.18621</title><g transform="translate(8.19 -47.891)"><title>path2</title><path d="M29.86 87.58H1.94c-1.07 0-1.94.91-1.94 2.06v6.74h31.8v-6.74c0-1.15-.86-2.06-1.94-2.06" style="fill:#bc3200;stroke:none;stroke-width:.75;stroke-linecap:butt"/></g><g transform="translate(4.04 -47.256)"><title>path4</title><path d="M37.3 91.06H2.81C1.25 91.06 0 92.39 0 94.04v2.34h40.11v-2.34c0-1.65-1.26-2.98-2.81-2.98" style="fill:#d13600;stroke:none;stroke-width:.75;stroke-linecap:butt"/></g><title>path6</title><path d="M45.38 48.03H2.81C1.25 48.03 0 49.36 0 51.01v42.38c0 1.65 1.27 2.99 2.82 2.99h42.55c1.55 0 2.82-1.34 2.82-2.99V51.01c0-1.65-1.26-2.98-2.81-2.98" style="fill:#e15815;stroke:none;stroke-width:.75;stroke-linecap:butt"/><g transform="translate(8.87 -32.642)"><title>path8</title><path d="M5.35 85.03C2.4 85.03 0 87.58 0 90.71s2.4 5.67 5.35 5.67 5.35-2.54 5.35-5.67-2.4-5.68-5.35-5.68m0 9.35c-1.92 0-3.47-1.65-3.47-3.69 0-2.03 1.55-3.68 3.47-3.68s3.48 1.65 3.48 3.68c0 2.04-1.56 3.69-3.48 3.69" style="fill:#ffb290;stroke:none;stroke-width:.75;stroke-linecap:butt"/></g><g transform="translate(12.266 -21.757)"><title>path10</title><path d="M3.96 84.88H0v11.5h3.96z" style="fill:#ffb290;stroke:none;stroke-width:.75;stroke-linecap:butt"/></g><g transform="translate(8.882 -3.86)"><title>path12</title><path d="M30.75 62.01c0-3.13-2.4-5.67-5.35-5.67s-5.35 2.54-5.35 5.67c0 2.41 1.42 4.47 3.43 5.29v3.9L3.39 78.23h-.04v7.22C1.39 86.28 0 88.33 0 90.71c0 3.13 2.4 5.67 5.35 5.67s5.35-2.54 5.35-5.67c0-2.36-1.35-4.38-3.27-5.24V81l19.98-7-.05-.08h.05v-6.66c1.95-.84 3.34-2.88 3.34-5.25M8.81 90.72c0 2.03-1.55 3.68-3.47 3.68s-3.47-1.65-3.47-3.68c0-2.04 1.55-3.68 3.47-3.68s3.47 1.64 3.47 3.68M25.4 65.68c-1.92 0-3.48-1.65-3.48-3.68 0-2.04 1.56-3.69 3.48-3.69s3.47 1.65 3.47 3.69c0 2.03-1.56 3.68-3.47 3.68" style="fill:#ffdbca;stroke:none;stroke-width:.75;stroke-linecap:butt"/></g></g></g></svg>