<svg xmlns="http://www.w3.org/2000/svg" xml:space="preserve" width="56.69" height="53.861" style="font-size:12px;overflow:visible;color-interpolation-filters:sRGB;fill-rule:evenodd;stroke-linecap:square;stroke-miterlimit:3" viewBox="0 0 56.69 53.861"><defs><linearGradient id="a" x1="0" x2="44.623" y1="75.899" y2="75.899" gradientTransform="scale(1.1922 .83878)" gradientUnits="userSpaceOnUse"><stop offset="0" stop-color="#0078d4"/><stop offset=".16" stop-color="#1380da"/><stop offset=".53" stop-color="#3c91e5"/><stop offset=".82" stop-color="#559cec"/><stop offset="1" stop-color="#5ea0ef"/></linearGradient></defs><g transform="translate(-13.202 -13.203)"><title>Page-1</title><g transform="translate(13.202 -34.016)"><title>Azure Deployment Environment.18640</title><title>layer1</title><g transform="translate(0 -3.105)"><title>path8751</title><path d="M56.69 101.08H0l10.49-9.81a1.84 1.82 0 0 1 1.26-.5h34.49a1.852 1.833 0 0 1 1.38.62z" style="fill:#4fc2b1;stroke:none;stroke-width:13.20189953;stroke-linecap:butt"/></g><title>path8753</title><path d="M0 97.98h56.69v1.28a1.846 1.827 0 0 1-1.84 1.82h-53A1.846 1.827 0 0 1 0 99.26Z" style="fill:#5fe8c9;stroke:none;stroke-width:13.20189953;stroke-linecap:butt"/><g transform="translate(1.7 -16.444)"><title>path8755</title><path d="M53.2 89.27a11.906 11.786-180 0 0-10.37-11.35 15.024 14.872-180 0 0-15.49-14.25 15.465 15.309-180 0 0-14.74 9.95A14.236 14.093-180 0 0 0 87.18a14.488 14.342-180 0 0 15.06 13.9h26.17A12.095 11.973-180 0 0 53.2 89.27" style="fill:url(#a);stroke:none;stroke-width:13.20189953;stroke-linecap:butt"/></g><g transform="translate(19.911 -16.406)"><title>path8757</title><path d="m.12 83.77 8.32-8.07a.945.935 0 0 1 1.354 0l8.086 8.07a.41.405 0 0 1-.315.717l-5.095.003a.472.468-180 0 0-.44.437l-.07 15.813a.346.343 0 0 1-.346.343l-5.474-.003a.346.343 0 0 1-.346-.343L5.85 84.93a.44.437-180 0 0-.41-.437L.4 84.49a.41.405 0 0 1-.283-.717Z" style="fill:#f2f2f2;stroke:none;stroke-width:13.20189953;stroke-linecap:butt"/></g></g></g></svg>