<svg xmlns="http://www.w3.org/2000/svg" xml:space="preserve" width="56.691" height="56.697" style="font-size:12px;overflow:visible;color-interpolation-filters:sRGB;fill-rule:evenodd;stroke-linecap:square;stroke-miterlimit:3" viewBox="0 0 56.691 56.697"><g transform="translate(-5.67 -5.667)"><title>Page-1</title><g transform="translate(5.67 -34.016)"><title>Azure Pipelines.18628</title><g transform="translate(19.28 -.06)"><title>path2</title><path d="m.27 88.69 7.68 7.69h12.47c1.52 0 2.74-1.24 2.74-2.75V64.8L.27 87.73a.67.67 0 0 0 0 .96" style="fill:#235dc1;stroke:none;stroke-width:.75;stroke-linecap:butt"/></g><g transform="translate(0 -19.365)"><title>path4</title><path d="M0 75.93v12.49l7.68 7.69c.27.27.7.27.95 0l22.9-22.94H2.74c-1.5 0-2.74 1.24-2.74 2.76" style="fill:#3b6ec6;stroke:none;stroke-width:.75;stroke-linecap:butt"/></g><g transform="translate(9.711 -9.627)"><title>path6</title><path d="M19.11 52.21.62 80.54c-.62.96-.49 2.23.32 3.04l11.84 11.86c.81.81 2.09.94 3.04.31L44.1 77.22a6.38 6.38 0 0 0 2.88-5.34V52.13c0-1.55-1.26-2.82-2.81-2.82H24.46c-2.15 0-4.16 1.1-5.35 2.9" style="fill:#5d8de4;stroke:none;stroke-width:.75;stroke-linecap:butt"/></g><title>path8</title><path d="M4.16 92.42V82.41H0v13.97h14.16v-3.96z" style="fill:#9fbbf0;stroke:none;stroke-width:.75;stroke-linecap:butt"/><g transform="translate(35.463 -35.707)"><title>path10</title><path d="M7.04 96.38c3.89 0 7.04-3.16 7.04-7.05 0-3.9-3.15-7.06-7.04-7.06S0 85.43 0 89.33c0 3.89 3.15 7.05 7.04 7.05" style="fill:#adc5f2;stroke:none;stroke-width:.75;stroke-linecap:butt"/></g><g transform="translate(14.84 -14.75)"><title>path12</title><path d="M15.06 77.82 0 92.9l3.47 3.48L18.53 81.3Z" style="fill:#6c9aee;stroke:none;stroke-width:.75;stroke-linecap:butt"/></g><g transform="translate(11.841 -11.75)"><title>path14</title><path d="m3.47 96.38 3-3-3.48-3.48-2.99 3Z" style="fill:#88acef;stroke:none;stroke-width:.75;stroke-linecap:butt"/></g></g></g></svg>