<svg xmlns="http://www.w3.org/2000/svg" xml:space="preserve" width="56.689" height="56.696" style="font-size:12px;overflow:visible;color-interpolation-filters:sRGB;fill-rule:evenodd;stroke-linecap:square;stroke-miterlimit:3" viewBox="0 0 56.689 56.697"><g transform="translate(-5.67 -5.668)"><title>Page-1</title><g transform="translate(5.67 -34.016)"><title>Azure Artifact.18669</title><title>path2</title><path d="M21.44 96.38H2.47C1.11 96.38 0 95.26 0 93.89V70.5c0-1.37 1.11-2.47 2.47-2.47h18.97z" style="fill:#b41055;stroke:none;stroke-width:.97881299;stroke-linecap:butt"/><g transform="translate(46.229)"><title>path4</title><path d="M8.04 96.38H0V68.03h8.04a2.43 2.43 0 0 1 2.42 2.43v23.49a2.43 2.43 0 0 1-2.42 2.43" style="fill:#e86299;stroke:none;stroke-width:.97881299;stroke-linecap:butt"/></g><g transform="translate(18.994)"><title>path6</title><path d="M2.62 96.38h25.71V68.03H0v25.72c0 1.44 1.17 2.63 2.62 2.63" style="fill:#f173a7;stroke:none;stroke-width:.97881299;stroke-linecap:butt"/></g><g transform="translate(9.68 -28.346)"><title>path8</title><path d="M35.07 68.03H2.54c-1.4 0-2.54 1.14-2.54 2.55v25.8h37.62v-25.8c0-1.41-1.14-2.55-2.55-2.55" style="fill:#c12664;stroke:none;stroke-width:.97881299;stroke-linecap:butt"/></g><g transform="translate(9.68 -28.346)"><title>path10</title><path d="M28.18 68.03H2.54c-1.4 0-2.54 1.14-2.54 2.55v25.8h28.18z" style="fill:#cf3071;stroke:none;stroke-width:.97881299;stroke-linecap:butt"/></g><g transform="translate(18.971 -47.314)"><title>path12</title><path d="M7.27 96.38H2.34C1.05 96.38 0 95.32 0 94.03s1.05-2.34 2.34-2.34h4.93a2.345 2.345 0 0 1 0 4.69" style="fill:#b5205c;stroke:none;stroke-width:.97881299;stroke-linecap:butt"/></g><g transform="translate(23.774 -9.426)"><title>path14</title><path d="M0 93.975h14.027v2.403H0z" style="fill:#fe90be;stroke:none;stroke-width:.97881299;stroke-linecap:butt"/></g><g transform="translate(23.774 -4.653)"><title>path16</title><path d="M0 93.975h7.98v2.403H0z" style="fill:#fe90be;stroke:none;stroke-width:.97881299;stroke-linecap:butt"/></g><g transform="translate(28.406 -18.828)"><title>path18</title><path d="M7.11 96.38H2.44C1.09 96.38 0 95.29 0 93.94s1.09-2.44 2.44-2.44h4.67c1.35 0 2.44 1.09 2.44 2.44s-1.09 2.44-2.44 2.44" style="fill:#cb2e6f;stroke:none;stroke-width:.97881299;stroke-linecap:butt"/></g><g transform="translate(9.384 -18.828)"><title>path20</title><path d="M7.11 96.38H2.44C1.09 96.38 0 95.29 0 93.94s1.09-2.44 2.44-2.44h4.67c1.35 0 2.44 1.09 2.44 2.44s-1.09 2.44-2.44 2.44" style="fill:#900740;stroke:none;stroke-width:.97881299;stroke-linecap:butt"/></g></g></g></svg>