<svg xmlns="http://www.w3.org/2000/svg" xmlns:xlink="http://www.w3.org/1999/xlink" xml:space="preserve" width="56.688" height="45.354" style="font-size:12px;overflow:visible;color-interpolation-filters:sRGB;fill-rule:evenodd;stroke-linecap:square;stroke-miterlimit:3" viewBox="0 0 56.688 45.354"><defs><linearGradient id="a" x1="0" x2="1" y1="0" y2="0" gradientTransform="rotate(-90 .5 .5)"><stop offset=".2" stop-color="#0078d4"/><stop offset=".285" stop-color="#1380da"/><stop offset=".76" stop-color="#5ea0ef"/></linearGradient><linearGradient xlink:href="#a" id="b" x1=".005" x2="17.102" y1="83.387" y2="83.387" gradientTransform="scale(1.19752 .83506)" gradientUnits="userSpaceOnUse"/><linearGradient xlink:href="#a" id="c" x1="0" x2="17.099" y1="83.398" y2="83.398" gradientTransform="scale(1.19768 .83495)" gradientUnits="userSpaceOnUse"/><linearGradient xlink:href="#a" id="d" x1="0" x2="17.097" y1="83.383" y2="83.383" gradientTransform="scale(1.19752 .83506)" gradientUnits="userSpaceOnUse"/></defs><g transform="translate(-5.67 -4.537)"><title>Page-1</title><g transform="translate(5.67 -34.016)"><title>Backlog.18613</title><title>Sheet.18614</title><g transform="translate(0 -31.08)"><title>Sheet.18615</title><path d="m20 70.94-.95-.87a1.628 1.495-180 0 0-2.3 0l-9.22 8.46-3.8-3.48a1.628 1.495-180 0 0-2.3 0l-.95.88a1.628 1.495-180 0 0 0 2.11l5.9 5.43a1.628 1.495-180 0 0 1.15.44 1.628 1.495-180 0 0 1.15-.44L20 73.06a1.628 1.495-180 0 0 0-2.12" style="fill:url(#b);stroke:none;stroke-width:.75;stroke-linecap:butt"/></g><g transform="translate(22.938 -35.106)"><title>Sheet.18616</title><path d="M0 81.14a3.006 2.76-180 0 0 3.01 2.77h27.74a3.006 2.76-180 0 0 3-2.77V81a3.006 2.76-180 0 0-3-2.76H3.01A3.006 2.76-180 0 0 0 81Z" style="fill:#a3a3a3;stroke:none;stroke-width:.75;stroke-linecap:butt"/></g><g transform="translate(22.938 -19.78)"><title>Sheet.18617</title><path d="M0 81.14a3.006 2.76-180 0 0 3.01 2.77h27.74a3.006 2.76-180 0 0 3-2.77V81a3.006 2.76-180 0 0-3-2.76H3.01A3.006 2.76-180 0 0 0 81Z" style="fill:#a3a3a3;stroke:none;stroke-width:.75;stroke-linecap:butt"/></g><g transform="translate(22.938 -4.458)"><title>Sheet.18618</title><path d="M0 81.14a3.006 2.76-180 0 0 3.01 2.77h27.74a3.006 2.76-180 0 0 3-2.77V81a3.006 2.76-180 0 0-3-2.76H3.01A3.006 2.76-180 0 0 0 81Z" style="fill:#a3a3a3;stroke:none;stroke-width:.75;stroke-linecap:butt"/></g><g transform="translate(0 -15.536)"><title>Sheet.18619</title><path d="m20 70.94-.95-.87a1.628 1.495-180 0 0-2.3 0l-9.22 8.45-3.8-3.47a1.628 1.495-180 0 0-2.3 0l-.95.87a1.628 1.495-180 0 0 0 2.12l5.9 5.43a1.628 1.495-180 0 0 1.15.44 1.628 1.495-180 0 0 1.15-.44L20 73.06a1.628 1.495-180 0 0 0-2.12" style="fill:url(#c);stroke:none;stroke-width:.75;stroke-linecap:butt"/></g><title>Sheet.18620</title><path d="m20 70.95-.95-.88a1.628 1.495-180 0 0-1.15-.44 1.609 1.478-180 0 0-1.15.44l-9.22 8.46-3.8-3.48a1.628 1.495-180 0 0-2.3 0l-.95.87a1.628 1.495-180 0 0 0 2.12l5.9 5.43a1.628 1.495-180 0 0 2.3 0L20 73.06a1.628 1.495-180 0 0 0-2.11" style="fill:url(#d);stroke:none;stroke-width:.75;stroke-linecap:butt"/></g></g></svg>