<svg xmlns="http://www.w3.org/2000/svg" xml:space="preserve" width="48.192" height="56.694" style="font-size:12px;overflow:visible;color-interpolation-filters:sRGB;fill-rule:evenodd;stroke-linecap:square;stroke-miterlimit:3" viewBox="0 0 48.192 56.694"><defs><linearGradient id="a" x1="0" x2="19.97" y1="140.158" y2="140.158" gradientTransform="scale(1.18377 .84476)" gradientUnits="userSpaceOnUse"><stop offset="0" stop-color="#ffd70f"/><stop offset=".34" stop-color="#eeb309"/><stop offset=".77" stop-color="#dc8c03"/><stop offset="1" stop-color="#d57d01"/></linearGradient><linearGradient id="b" x1="0" x2="13.066" y1="123.538" y2="123.538" gradientTransform="scale(1.00987 .99023)" gradientUnits="userSpaceOnUse"><stop offset="0" stop-color="#ffd70f"/><stop offset=".34" stop-color="#eeb309"/><stop offset=".77" stop-color="#dc8c03"/><stop offset="1" stop-color="#d57d01"/></linearGradient><linearGradient id="c" x1="0" x2="11.251" y1="100.082" y2="100.082" gradientTransform="scale(.82304 1.215)" gradientUnits="userSpaceOnUse"><stop offset="0" stop-color="#ffd70f"/><stop offset=".34" stop-color="#eeb309"/><stop offset=".77" stop-color="#dc8c03"/><stop offset="1" stop-color="#d57d01"/></linearGradient><linearGradient id="d" x1="0" x2="8.054" y1="128.551" y2="128.551" gradientTransform="scale(1.00987 .99023)" gradientUnits="userSpaceOnUse"><stop offset="0" stop-color="#ffd70f"/><stop offset=".34" stop-color="#eeb309"/><stop offset=".77" stop-color="#dc8c03"/><stop offset="1" stop-color="#d57d01"/></linearGradient></defs><g transform="translate(-39.288 -39.287)"><title>Page-1</title><g transform="translate(39.288 -39.288)"><title>Bicep.18586</title><title>Page-1</title><title>g22</title><g transform="translate(24.072)"><title>path12</title><path d="M24.12 92.8v28.25L0 135.27v-28.3z" style="fill:#32bedd;stroke:none;stroke-width:39.28820038"/></g><g transform="translate(0 -28.254)"><title>path14</title><path d="m48.19 121.05-24.07 14.22L0 121.05l24.12-14.22Z" style="fill:#9cebff;stroke:none;stroke-width:39.28820038"/></g><title>path16</title><path d="M24.07 107.01v28.26L0 121.05V92.8Z" style="fill:#50e6ff;stroke:none;stroke-width:39.28820038"/><title>path18-3</title><path d="m0 121.05 24.07-14.08v28.3z" style="fill:#9cebff;stroke:none;stroke-width:39.28820038"/><g transform="translate(24.072)"><title>path20</title><path d="M24.12 121.05 0 106.97v28.3z" style="fill:#50e6ff;stroke:none;stroke-width:39.28820038"/></g><g transform="translate(7.521 -13.2)"><title>path1428-6</title><path d="M27.98 119.83 3.27 115.3 0 124.66l23.2 10.61Z" style="fill:gray;stroke:none;stroke-width:.75655103;stroke-linecap:butt"/></g><g transform="translate(10.62 -14.669)"><title>path1428-5-0</title><path d="M23.64 122.23 2.76 118.4 0 126.31l19.6 8.96z" style="fill:url(#a);stroke:none;stroke-width:.63907897;stroke-linecap:butt"/></g><g transform="translate(25.518 -12.608)"><title>g23677</title><title>path19531</title><title>ellipse35-6</title><ellipse cx="8.338" cy="127.176" rx="8.338" ry="8.093" style="fill:#666;stroke:none;stroke-width:.99634802;stroke-linecap:butt"/><g transform="translate(1.728 -1.593)"><title>path19531-0</title><title>ellipse40-7</title><ellipse cx="6.598" cy="128.8" rx="6.598" ry="6.469" style="fill:url(#b);stroke:none;stroke-width:.79243797;stroke-linecap:butt"/></g><g transform="translate(4.279 -4.241)"><title>path17198-8-5</title><title>path45-9</title><path d="M2.07 127.8h3.94l2.12 3.71-2.14 3.76H2.12L0 131.54Z" style="fill:#666;stroke:none;stroke-width:1.07088006;stroke-linecap:butt"/></g></g><g transform="rotate(17.6 93.749 138.833)"><title>path26623-1</title><title>path56-3</title><path d="m8.96 135.27 3.78-14.44 4.14-1.1 2.15-2.35v-1.25l-.62-.45-2.61 2.74-2.53.77-1.72-1.4.45-2.84 2.52-2.76-.59-.57-.98.05-2.42 2.56-.59 3.99L0 131.06Z" style="fill:gray;stroke:none;stroke-width:.572685;stroke-linecap:butt"/></g><g transform="rotate(17.6 99.407 147.68)"><title>path27387</title><title>path61-5</title><path d="m0 132.71 8.31-11.11.95.81-3.9 12.86z" style="fill:url(#c);stroke:none;stroke-width:.75655103;stroke-linecap:butt"/></g><g transform="translate(4.73 -23.271)"><title>path19531-6</title><title>ellipse66-8</title><ellipse cx="5.139" cy="130.281" rx="5.139" ry="4.988" style="fill:#666;stroke:none;stroke-width:.61410397;stroke-linecap:butt"/></g><g transform="translate(5.796 -24.253)"><title>path19531-0-6</title><title>ellipse71-8</title><ellipse cx="4.067" cy="131.282" rx="4.067" ry="3.987" style="fill:url(#d);stroke:none;stroke-width:.488424;stroke-linecap:butt"/></g><g transform="translate(7.368 -25.885)"><title>path17198-8-5-0</title><title>path76-8</title><path d="M1.27 130.66h2.44l1.3 2.29-1.32 2.32H1.31L0 132.97Z" style="fill:#666;stroke:none;stroke-width:.66004503;stroke-linecap:butt"/></g></g></g></svg>