<svg xmlns="http://www.w3.org/2000/svg" xml:space="preserve" width="56.004" height="54.298" style="font-size:12px;overflow:visible;color-interpolation-filters:sRGB;fill-rule:evenodd;stroke-linecap:square;stroke-miterlimit:3" viewBox="0 0 56.004 54.298"><defs><linearGradient id="a" x1="0" x2="49.964" y1="86.964" y2="86.964" gradientTransform="scale(1.11951 .89325)" gradientUnits="userSpaceOnUse"><stop offset="0" stop-color="#198ab3"/><stop offset="0" stop-color="#198ab3"/><stop offset=".11" stop-color="#22a5cb"/><stop offset=".23" stop-color="#29bade"/><stop offset=".37" stop-color="#2ec9eb"/><stop offset=".53" stop-color="#31d1f3"/><stop offset=".78" stop-color="#32d4f5"/></linearGradient></defs><g transform="translate(-34.001 -34.011)"><title>Page-1</title><g transform="translate(34 -34.455)"><title>Blueprint.18580</title><title>Icon-manage-304</title><g transform="translate(44.849)"><title>Sheet.18582</title><path d="M3.42 110.1a6.843 6.747 0 0 1 7.5 7.26 6.218 6.13 0 0 1-10.06 4.06 2.204 2.173 0 0 1-.86-1.75v-9.6z" style="fill:#198ab3;stroke:none;stroke-width:34;stroke-linecap:butt"/></g><g transform="translate(.07 -4.171)"><title>Sheet.18583</title><path d="M55.87 114.24v-29.2a7.534 7.428-180 0 0-7.54-7.36H0v29.19a7.534 7.428-180 0 0 7.53 7.43h32.64a84.752 83.557 0 0 1 9.87 0c6.58 1.04 5.4 8.01 5.4 8.01a36.619 36.102-180 0 0 .43-8.07" style="fill:url(#a);stroke:none;stroke-width:34;stroke-linecap:butt"/></g><g transform="translate(0 -18.995)"><title>Sheet.18584</title><path d="M.04 122.31v-.22a6.054 5.968 0 0 1 10.66-2.92.757.746-180 0 0 1.316-.487L12.01 93.32a4.475 4.411-180 0 0 0-.95 6.087 6-180 0 0-11.97 0 3.027 2.984-180 0 0 0 .95z" style="fill:#198ab3;stroke:none;stroke-width:34;stroke-linecap:butt"/></g><g transform="translate(21.884 -18.557)"><title>Sheet.18585</title><path d="M17.11 112.34a.921.908-180 0 0-.921-.908l-3.289-.002c-.2-.45-.36-.94-.56-1.39-.73-1.85-1.52-3.7-2.27-5.52l-.27-.61a4.54 4.476-180 1 0-2.3 0l-.29.64c-.83 1.82-1.62 3.67-2.41 5.52l-.59 1.43H.92a.921.908-180 0 0-.921.908.888.876-180 0 0 .921.908l2.63-.006a170.87 168.46-180 0 0-2.99 8.01.758.748-180 0 0 1.382.617C2.96 120.19 3.92 118.4 4.84 116.65c.59-1.1 1.15-2.2 1.71-3.24h4.14l1.58 3.24a223 223 0 0 0 2.8 5.32.757.746-180 0 0 1.382-.584c-.592-1.906-1.252-3.796-1.912-5.676l-.89-2.37h2.44a.888.876-180 0 0 1.02-1.006zM6.12 99.56a2.665 2.627 0 0 1 5.33 0 2.665 2.627 0 0 1-5.33 0m1.41 11.87v-.23l1.09-2.33 1.05 2.3v.26z" style="fill:#fff;stroke:none;stroke-width:34;stroke-linecap:butt"/></g></g></g></svg>