<svg xmlns="http://www.w3.org/2000/svg" xml:space="preserve" width="56.695" height="56.69" style="font-size:12px;overflow:visible;color-interpolation-filters:sRGB;fill-rule:evenodd;stroke-linecap:square;stroke-miterlimit:3" viewBox="0 0 56.695 56.69"><g transform="translate(-5.67 -5.674)"><title>Page-1</title><g transform="translate(5.67 -34.016)"><title>Chef.18558</title><title>Page-1</title><title>chef-2</title><g transform="translate(9.206 -10.783)"><title>Sheet.18561</title><title>Sheet.18562</title><path d="M18.25 91.58c-7.31 0-13.26-5.73-13.26-12.76 0-7.05 5.95-12.77 13.26-12.77 6.05 0 11.15 3.89 12.74 9.22h5.13c-1.7-8-9.07-14.03-17.87-14.03C8.19 61.24 0 69.12 0 78.82c0 9.68 8.19 17.56 18.25 17.56 8.8 0 16.17-6.03 17.87-14.03h-5.13c-1.59 5.33-6.69 9.23-12.74 9.23" style="fill:#435363;stroke:none;stroke-width:.75;stroke-linecap:butt"/></g><g transform="translate(18.514 -16.169)"><title>Sheet.18563</title><title>Sheet.18564</title><path d="M0 92.8c2.3 2.21 5.45 3.58 8.94 3.58v-5.09c-2.03 0-3.87-.81-5.21-2.08z" style="fill:#435363;stroke:none;stroke-width:.75;stroke-linecap:butt"/></g><g transform="translate(30.128 -31.889)"><title>Sheet.18565</title><title>Sheet.18566</title><path d="M1.92 88.58 0 93.32c1.57.59 2.88 1.66 3.7 3.06h5.73c-1.13-3.58-3.92-6.46-7.51-7.8" style="fill:#435363;stroke:none;stroke-width:.75;stroke-linecap:butt"/></g><title>Sheet.18567</title><title>Sheet.18568</title><path d="M27.46 91.56c-6.75 0-12.86-2.64-17.29-6.89l-3.54 3.39c5.34 5.14 12.69 8.32 20.83 8.32 15.03 0 27.42-10.82 29.23-24.8h-5.04c-1.78 11.3-11.95 19.98-24.19 19.98m0-47.07c5.48 0 10.54 1.74 14.62 4.68l3-3.86c-4.91-3.53-11.02-5.62-17.62-5.62-12.5 0-23.18 7.48-27.46 18.05l4.66 1.75c3.56-8.78 12.44-15 22.8-15" style="fill:#f38b00;stroke:none;stroke-width:.75;stroke-linecap:butt"/><g transform="translate(48.205 -31.887)"><title>Sheet.18569</title><title>Sheet.18570</title><path d="M3.45 96.38h5.04c-.55-4.18-2.03-8.06-4.24-11.47L0 87.45c1.73 2.67 2.93 5.69 3.45 8.93" style="fill:#435363;stroke:none;stroke-width:.75;stroke-linecap:butt"/></g><g transform="translate(34.298 -31.887)"><title>Sheet.18571</title><title>Sheet.18572</title><path d="M11.67 96.38h5.05C15.4 88.21 9.59 81.45 1.81 78.53L0 83c5.92 2.23 10.41 7.24 11.67 13.38" style="fill:#f38b00;stroke:none;stroke-width:.99999899"/><title>Sheet.18573</title><path d="M11.67 96.38h5.05C15.4 88.21 9.59 81.45 1.81 78.53L0 83c5.92 2.23 10.41 7.24 11.67 13.38" style="fill:none;stroke:none;stroke-width:.75;stroke-linecap:butt"/></g><g transform="translate(5.233 -34.926)"><title>Sheet.18574</title><title>Sheet.18575</title><path d="M22.22 84.8v-4.78C12.13 80.02 3.46 86.08 0 94.64l4.65 1.74c2.74-6.77 9.59-11.58 17.57-11.58" style="fill:#435363;stroke:none;stroke-width:.75;stroke-linecap:butt"/></g><g transform="translate(3.61 -7.045)"><title>Sheet.18576</title><title>Sheet.18577</title><path d="M4.98 75.08H0c0 9.63 6.22 17.9 14.99 21.3l1.86-4.46C9.9 89.24 4.98 82.7 4.98 75.08" style="fill:#f38b00;stroke:none;stroke-width:.75;stroke-linecap:butt"/></g><g transform="translate(27.459 -5.399)"><title>Sheet.18578</title><title>Sheet.18579</title><path d="M0 91.58v4.8c11.9 0 21.79-8.44 23.57-19.41H18.5C16.79 85.29 9.15 91.58 0 91.58" style="fill:#435363;stroke:none;stroke-width:.75;stroke-linecap:butt"/></g></g></g></svg>