<svg xmlns="http://www.w3.org/2000/svg" xml:space="preserve" width="56.69" height="56.7" style="font-size:12px;overflow:visible;color-interpolation-filters:sRGB;fill-rule:evenodd;stroke-linecap:square;stroke-miterlimit:3" viewBox="0 0 56.69 56.7"><defs><linearGradient id="a" x1="-.049" x2="27.138" y1="61.239" y2="61.239" gradientTransform="scale(.91747 1.08996)" gradientUnits="userSpaceOnUse"><stop offset="0" stop-color="#773adc"/><stop offset=".23" stop-color="#8952e5"/><stop offset=".55" stop-color="#9e6ff0"/><stop offset=".735" stop-color="#a67af4"/></linearGradient><linearGradient id="b" x1="0" x2="33.095" y1="132.001" y2="132.001" gradientTransform="scale(1.71297 .58378)" gradientUnits="userSpaceOnUse"><stop offset="0" stop-color="#773adc"/><stop offset=".735" stop-color="#a67af4"/></linearGradient></defs><g transform="translate(-5.67 -5.664)"><title>Page-1</title><g transform="translate(5.67 -34.016)"><title>Commit.18551</title><title>Sheet.18552</title><g transform="translate(15.93 -27.068)"><title>Sheet.18553</title><path d="m.13 79.16 11.34-11.99a1.354 1.432 0 0 1 1.92 0l11.33 11.99a.605.64 0 0 1-.425 1.092l-6.985-.002a.602.636-180 0 0-.605.636l.005 14.984a.485.513 0 0 1-.482.51H8.6a.485.513 0 0 1-.482-.51l.002-14.98a.602.636-180 0 0-.605-.636L.54 80.25a.605.64 0 0 1-.41-1.089Z" style="fill:url(#a);stroke:none;stroke-width:.75;stroke-linecap:butt"/></g><title>Sheet.18554</title><path d="M0 94.44a1.83 1.934-180 0 0 1.83 1.94h53.03a1.83 1.934-180 0 0 1.83-1.94V79a1.83 1.934-180 0 0-1.83-1.94H1.83A1.83 1.934-180 0 0 0 79Z" style="fill:url(#b);stroke:none;stroke-width:.75;stroke-linecap:butt"/><g transform="translate(9.433 -4.395)"><title>Sheet.18555</title><path d="M0 95.56a.772.816-180 0 0 .772.816l7.938.004a.772.816-180 0 0 .772-.816l.008-8.394a.772.816-180 0 0-.772-.816L.77 86.35a.772.816-180 0 0-.772.816z" style="fill:#fff;stroke:none;stroke-width:.75;stroke-linecap:butt"/></g><g transform="translate(23.603 -4.395)"><title>Sheet.18556</title><path d="M0 95.56a.772.816-180 0 0 .772.816l7.938.004a.772.816-180 0 0 .772-.816l.008-8.394a.772.816-180 0 0-.772-.816L.77 86.35a.772.816-180 0 0-.772.816z" style="fill:#b4ec36;stroke:none;stroke-width:.75;stroke-linecap:butt"/></g><g transform="translate(37.773 -4.395)"><title>Sheet.18557</title><path d="M0 95.56a.772.816-180 0 0 .772.816l7.938.004a.772.816-180 0 0 .772-.816l.008-8.394a.772.816-180 0 0-.772-.816L.77 86.35a.772.816-180 0 0-.772.816z" style="fill:#b4ec36;stroke:none;stroke-width:.75;stroke-linecap:butt"/></g></g></g></svg>