<svg xmlns="http://www.w3.org/2000/svg" xml:space="preserve" width="56.693" height="56.693" style="font-size:12px;overflow:visible;color-interpolation-filters:sRGB;fill-rule:evenodd;stroke-linecap:square;stroke-miterlimit:3" viewBox="0 0 56.693 56.693"><g transform="translate(-5.67 -5.67)"><title>Page-1</title><g transform="translate(5.67 -34.016)"><title>Confluent Organisation.18546</title><title>g10</title><title>path4</title><path d="M0 39.685h56.693v56.693H0z" style="fill:#b4e1e4;stroke:none;stroke-width:2.52516007"/><g transform="translate(7.772 -7.63)"><title>path6</title><path d="M20.3 96.38A20.303 20.303-180 1 0 0 76.07a20.303 20.303-180 0 0 20.3 20.31" style="fill:#0074a3;stroke:none;stroke-width:2.52516007"/></g><g transform="translate(15.645 -21.992)"><title>path8</title><path d="M12.43 83.69a2.36 2.36-180 0 0-2.36 2.37v7.96a2.362 2.362-180 1 0 4.72 0v-7.98a2.36 2.36-180 0 0-2.36-2.35m3.02 2.97a2.365 2.365 0 1 1 4.73 0v5.97a2.365 2.365 0 1 1-4.73 0zm5.39 5.3a2.362 2.362 0 1 1 2.36 2.36 2.36 2.36 0 0 1-2.36-2.36M4.69 90.02a2.365 2.365 0 1 1 4.73 0v2.65a2.365 2.365 0 1 1-4.73 0zm-3.02-.3a2.362 2.362-180 1 0 2.36 2.36 2.36 2.36-180 0 0-2.36-2.4z" style="fill:#fff;stroke:none;stroke-width:2.52516007"/></g></g></g></svg>