<svg xmlns="http://www.w3.org/2000/svg" xml:space="preserve" width="56.69" height="56.69" style="font-size:12px;overflow:visible;color-interpolation-filters:sRGB;fill-rule:evenodd;stroke-linecap:square;stroke-miterlimit:3" viewBox="0 0 56.69 56.69"><g transform="translate(-9.563 -9.564)"><title>Page-1</title><g transform="translate(9.563 -34.016)"><title>Confluent Organization.18542</title><title>Sheet.18543</title><g transform="translate(10.931 -10.94)"><title>Sheet.18544</title><path d="M30.47 83.65c1.46-.08 2.91-.12 4.35-.23v-1.11c-1.45-.11-2.9-.15-4.35-.23l-4.35-.14c-2.55-.08-5.11-.09-7.66-.11-.01-2.56-.02-5.11-.09-7.67l-.12-4.35c-.07-1.46-.12-2.91-.22-4.35H16.8c-.11 1.45-.15 2.9-.23 4.35l-.12 4.35c-.04 1.19-.04 2.4-.06 3.59q-.705-1.65-1.44-3.3l-1.78-3.98c-.62-1.31-1.22-2.64-1.87-3.94l-1.13.47c.46 1.38.97 2.74 1.46 4.1l1.55 4.07c.43 1.11.88 2.23 1.32 3.35-.86-.85-1.72-1.68-2.59-2.5l-3.16-3c-1.08-.97-2.13-1.96-3.23-2.92l-.87.87c.96 1.1 1.95 2.15 2.92 3.23l3 3.16c.82.87 1.66 1.73 2.5 2.59-1.12-.44-2.23-.89-3.35-1.32l-4.07-1.55c-1.37-.49-2.73-1-4.1-1.46l-.47 1.13c1.3.65 2.62 1.25 3.93 1.87l3.98 1.78c1.1.49 2.2.97 3.31 1.44-1.2.01-2.41.02-3.6.06l-4.35.12c-1.45.07-2.91.12-4.35.22v1.24c1.45.1 2.91.14 4.35.22l4.35.12c2.56.07 5.11.08 7.67.09.02 2.55.04 5.11.12 7.66l.13 4.35c.08 1.45.12 2.91.23 4.35h1.11c.11-1.45.16-2.9.23-4.35l.14-4.35c.03-1.23.06-2.45.07-3.68.49 1.12.97 2.26 1.48 3.37l1.79 3.97c.63 1.31 1.22 2.63 1.88 3.93l1.02-.42c-.46-1.38-.96-2.74-1.45-4.11l-1.54-4.08c-.44-1.15-.89-2.29-1.34-3.43.88.86 1.76 1.71 2.66 2.55l3.17 2.98c1.08.98 2.14 1.97 3.24 2.92l.79-.79c-.95-1.1-1.94-2.16-2.91-3.24l-2.99-3.17c-.84-.9-1.69-1.78-2.55-2.66 1.14.45 2.29.9 3.44 1.34l4.07 1.54c1.37.48 2.73.99 4.11 1.45l.43-1.03c-1.31-.65-2.63-1.25-3.94-1.88l-3.96-1.79c-1.12-.5-2.25-.99-3.38-1.47 1.23-.02 2.45-.04 3.69-.08z" style="fill:#142b52;stroke:none;stroke-width:9.5625;stroke-linecap:butt"/></g><title>Sheet.18545</title><path d="M28.35 45.94c-14.33 0-25.98 11.66-25.98 25.98 0 14.33 11.65 25.99 25.98 25.99 14.32 0 25.98-11.66 25.98-25.99 0-14.32-11.66-25.98-25.98-25.98m0 54.33C12.72 100.27 0 87.56 0 71.92 0 56.3 12.71 43.58 28.35 43.58c15.62 0 28.34 12.71 28.34 28.34-.01 15.63-12.72 28.35-28.34 28.35" style="fill:#142b52;stroke:none;stroke-width:9.5625;stroke-linecap:butt"/></g></g></svg>