<svg xmlns="http://www.w3.org/2000/svg" xml:space="preserve" width="56.697" height="51.029" style="font-size:12px;overflow:visible;color-interpolation-filters:sRGB;fill-rule:evenodd;stroke-linecap:square;stroke-miterlimit:3" viewBox="0 0 56.697 51.029"><g transform="translate(-12.24 -12.235)"><title>Page-1</title><g transform="translate(12.24 -34.016)"><title>Controller.18527</title><g transform="translate(14.4 -29.19)"><title>polygon4</title><path d="m.11 97.28 13.61-5.52V75.44L0 81.08Z" style="fill:#a0a1a2;stroke:none;stroke-width:12.23999977;stroke-linecap:butt"/></g><g transform="translate(28.12 -23.558)"><title>polygon6</title><path d="M13.49 74.76 0 69.81v27.47l13.49-5.63z" style="fill:#7a7a7a;stroke:none;stroke-width:12.23999977;stroke-linecap:butt"/></g><g transform="translate(14.513 -23.558)"><title>polygon8</title><path d="m27.1 91.65-13.49 5.63L0 91.65l13.61-5.4Z" style="fill:#3e3e3e;stroke:none;stroke-width:12.23999977;stroke-linecap:butt"/></g><g transform="translate(0 -5.631)"><title>polygon10</title><path d="m0 97.28 13.72-5.4V75.44L0 82.45Z" style="fill:#a0a1a2;stroke:none;stroke-width:12.23999977;stroke-linecap:butt"/></g><g transform="translate(13.606)"><title>polygon12</title><path d="M13.61 76.02.11 69.81v.23L0 97.28l13.61-5.63Z" style="fill:#7a7a7a;stroke:none;stroke-width:12.23999977;stroke-linecap:butt"/></g><title>polygon14</title><path d="m27.21 91.65-13.49 5.63L0 91.65l13.72-5.4Z" style="fill:#3e3e3e;stroke:none;stroke-width:12.23999977;stroke-linecap:butt"/><g transform="translate(29.48 -5.631)"><title>polygon16</title><path d="m0 97.28 13.72-5.4V75.44L0 81.77Z" style="fill:#e5e5e5;stroke:none;stroke-width:12.23999977;stroke-linecap:butt"/></g><g transform="translate(43.087)"><title>polygon18</title><path d="M13.61 76.02.11 69.81v.23L0 97.28l13.61-5.63Z" style="fill:#a0a1a2;stroke:none;stroke-width:12.23999977;stroke-linecap:butt"/></g><g transform="translate(29.48)"><title>polygon20</title><path d="m27.21 91.65-13.49 5.63L0 91.65l13.72-5.4Z" style="fill:#0070c9;stroke:none;stroke-width:12.23999977;stroke-linecap:butt"/></g><g transform="translate(34.016 -7.7)"><title>path22</title><path d="M16.78 97.28H1.47c-.79 0-1.47-.69-1.47-1.49v-10c0-.81.57-1.38 1.36-1.38h15.31c.79 0 1.47.69 1.47 1.49v9.89c.12.8-.57 1.49-1.36 1.49" style="fill:#000e92;stroke:none;stroke-width:12.23999977;stroke-linecap:butt"/></g><g transform="translate(35.49 -8.849)"><title>polygon24</title><path d="M5.1 97.28 0 92.11l5.22-5.06 1.02 1.04-4.31 4.02 4.08 4.25z" style="fill:#fff;stroke:none;stroke-width:12.23999977;stroke-linecap:butt"/></g><g transform="translate(44.447 -8.849)"><title>polygon26</title><path d="m1.02 97.28 5.1-5.17-5.21-5.06L0 88.09l4.2 4.02-4.09 4.25Z" style="fill:#fff;stroke:none;stroke-width:12.23999977;stroke-linecap:butt"/></g><g transform="translate(34.13 -7.7)"><title>path28</title><path d="M11.91 84.41H1.25c-.8 0-1.25.8-1.25 1.38V95.9c0 .57.57 1.38 1.36 1.38h4.08z" style="fill:#fff;fill-opacity:.25;stroke:none;stroke-width:12.23999977;stroke-linecap:butt"/></g><g transform="translate(35.263 -20.57)"><title>polygon30</title><path d="m0 97.28 7.48-1.84 7.94 1.84z" style="fill:#3e3e3e;fill-opacity:.2;stroke:none;stroke-width:12.23999977;stroke-linecap:butt"/></g></g></g></svg>