<svg xmlns="http://www.w3.org/2000/svg" xml:space="preserve" width="56.744" height="56.694" style="font-size:12px;overflow:visible;color-interpolation-filters:sRGB;fill-rule:evenodd;stroke-linecap:square;stroke-miterlimit:3" viewBox="0 0 56.744 56.694"><defs><linearGradient id="a" x1="-.026" x2="52.891" y1="63.485" y2="63.485" gradientTransform="scale(.93338 1.07137)" gradientUnits="userSpaceOnUse"><stop offset="0" stop-color="#5ea0ef"/><stop offset=".2" stop-color="#5a9eee"/><stop offset=".41" stop-color="#4d99ea"/><stop offset=".62" stop-color="#3990e4"/><stop offset=".835" stop-color="#1c84dc"/><stop offset="1" stop-color="#0078d4"/></linearGradient></defs><g transform="translate(-34 -34)"><title>Page-1</title><g transform="translate(34.027 -34.016)"><title>Deployment Script.18511</title><title>deployment-script</title><title>Sheet.18513</title><path d="M46.79 85.5h8.9a1.028 1.027-180 0 0 1-1.26l-3.53-15.42a1.028 1.027-180 0 0-1.01-.8h-8.9a1.028 1.027-180 0 0-1 1.26l3.53 15.42a1.028 1.027-180 0 0 1 .8zM4.54 124.71h8.9a1.028 1.027-180 0 0 1-1.26l-3.53-15.42a1.028 1.027-180 0 0-1-.8h-8.9A1.028 1.027-180 0 0 0 108.49l3.53 15.42a1.028 1.027-180 0 0 1.01.8" style="fill:#0078d4;stroke:none;stroke-width:34;stroke-linecap:butt"/><g transform="translate(3.786)"><title>Sheet.18514</title><path d="M35.87 124.71H.92a.946.945 0 0 1-.92-1.156L12.55 68.75a.946.945 0 0 1 .927-.734l34.943.004a.946.945 0 0 1 .924 1.156L36.79 123.97a.946.945 0 0 1-.924.734z" style="fill:url(#a);stroke:none;stroke-width:34;stroke-linecap:butt"/></g><g transform="translate(19.52 -14.684)"><title>Sheet.18515</title><path d="m18.91 111.11-13.6-15.5-3.88 3.4 10.21 11.63L0 120.83l3.4 3.88z" style="fill:#c3f1ff;stroke:none;stroke-width:34;stroke-linecap:butt"/></g></g></g></svg>