<svg xmlns="http://www.w3.org/2000/svg" xml:space="preserve" width="56.69" height="53.85" style="font-size:12px;overflow:visible;color-interpolation-filters:sRGB;fill-rule:evenodd;stroke-linecap:square;stroke-miterlimit:3" viewBox="0 0 56.69 53.85"><g transform="translate(-12.24 -12.244)"><title>Page-1</title><g transform="translate(12.24 -34.016)"><title>Deployment.18507</title><title>g8</title><title>path4</title><path d="m26.73 52.85-7.83 7.51v-4.08l9.44-10.02 9.46 9.99v4.06l-7.79-7.46v13.29h-3.28ZM54.6 71.47H2.1c-1.16 0-2.1.95-2.1 2.12v24.4c0 1.17.95 2.12 2.1 2.12h52.49c1.16 0 2.1-.95 2.1-2.12v-24.4a2.107 2.13-180 0 0-2.09-2.12m-2.18 24.07H4.23V76.05h48.19z" style="fill:#000;stroke:none;stroke-width:12.23999977;stroke-linecap:butt"/><g transform="translate(9.331 -9.167)"><title>path6</title><path d="M14.08 90.58h9.44v9.53h-9.44zm14.08 0h9.44v9.53h-9.44ZM0 90.58h9.44v9.53H0Z" style="fill:#000;stroke:none;stroke-width:12.23999977;stroke-linecap:butt"/></g></g></g></svg>