<svg xmlns="http://www.w3.org/2000/svg" xml:space="preserve" width="55.151" height="51.016" style="font-size:12px;overflow:visible;color-interpolation-filters:sRGB;fill-rule:evenodd;stroke-linecap:square;stroke-miterlimit:3" viewBox="0 0 55.151 51.016"><defs><linearGradient id="a" x1=".594" x2="46.361" y1="64.385" y2="64.385" gradientTransform="scale(1.20504 .82985)" gradientUnits="userSpaceOnUse"><stop offset="0" stop-color="#2889e0"/><stop offset="1" stop-color="#50e6ff"/></linearGradient><linearGradient id="b" x1="0" x2="33.664" y1="58.359" y2="58.359" gradientTransform="scale(1.0067 .99334)" gradientUnits="userSpaceOnUse"><stop offset="0" stop-color="#c398e9"/><stop offset="1" stop-color="#704cb3"/></linearGradient></defs><g transform="translate(-6.385 -6.378)"><title>Page-1</title><g transform="translate(5.67 -34.016)"><title>DevOps Starter.18487</title><title>Sheet.18488</title><g transform="translate(0 -13.036)"><title>Sheet.18489</title><path d="M55.79 81.12c-1.69 6.07-5.8 8.07-10.23 9.93-.31.13-1.03.36-2.16.36H24.3c-3.6 0-9.09-.05-11.64-.08-1.41-.02-2.3-.41-2.72-.62-5.36-2.63-8.53-6.9-9.14-12.29-.25-2.25-.8-11.37 12.7-14.88 4.5-8.36 9.45-9.67 15.75-10.11 8.1 0 14.84 5.71 15.74 14.5 4.5.88 11.7 5.27 10.8 13.19" style="fill:url(#a);stroke:none;stroke-width:6.375;stroke-linecap:butt"/></g><g transform="translate(18.526)"><title>Sheet.18490</title><path d="M33.89 74.69c0 9.24-7.58 16.72-16.94 16.72S0 83.93 0 74.69s7.59-16.72 16.95-16.72c9.35 0 16.94 7.48 16.94 16.72" style="fill:#fff;stroke:none;stroke-width:6.375;stroke-linecap:butt"/></g><g transform="translate(18.526)"><title>Sheet.18491</title><path d="M16.95 89.21c8.12 0 14.71-6.5 14.71-14.52s-6.59-14.52-14.71-14.52c-8.13 0-14.72 6.5-14.72 14.52s6.59 14.52 14.72 14.52m0 2.2c9.35 0 16.94-7.48 16.94-16.72s-7.58-16.72-16.94-16.72S0 65.45 0 74.69s7.59 16.72 16.95 16.72" style="fill:url(#b);stroke:none;stroke-width:6.375;stroke-linecap:butt"/></g><g transform="translate(23.41 -8.863)"><title>Sheet.18492</title><path d="M18.34 80.59c-1.93 0-3.49 1.55-3.49 3.47 0 1.11-.25 2.17-.7 3.12a7.43 7.43 0 0 1-6.73 4.23c-4.1 0-7.42-3.29-7.42-7.35a7.446 7.348 0 0 1 2.17-5.2 7.391 7.294 0 0 1 4.36-2.11v1.75a5.664 5.59-180 0 0-3.4 1.88 5.693 5.618-180 0 0-1.38 3.68 5.694 5.62-180 0 0 1.58 3.89 5.65 5.576-180 0 0 4.09 1.73 5.635 5.56-180 0 0 2.65-.65 5.703 5.628-180 0 0 3.03-4.97c0-1.17.39-2.25 1.05-3.12a5.226 5.157 0 0 1 4.19-2.08c2.75 0 5 2.1 5.23 4.76h-1.76c-.21-1.7-1.68-3.03-3.47-3.03" style="fill:#417be9;stroke:none;stroke-width:6.375;stroke-linecap:butt"/></g><g transform="translate(23.123 -8.579)"><title>Sheet.18493</title><path d="M14.42 86.93a7.42 7.42 0 0 1-6.71 4.2c-4.1 0-7.42-3.29-7.42-7.36a7.446 7.348 0 0 1 2.16-5.19 7.396 7.299 0 0 1 4.37-2.11v1.75a5.664 5.59-180 0 0-3.4 1.87 5.692 5.618-180 0 0-1.39 3.68 5.695 5.62-180 0 0 1.59 3.9 5.65 5.576-180 0 0 4.09 1.73 5.635 5.56-180 0 0 2.65-.65 5.703 5.628-180 0 0 3.03-4.98 5.257 5.188 0 0 1 1.05-3.12 5.226 5.157 0 0 1 4.19-2.07c2.65 0 4.84 1.95 5.19 4.48.02.09.03.18.03.28H22.1a3.49 3.49 0 0 0-3.47-3.03c-1.93 0-3.49 1.55-3.49 3.46a7.452 7.354 0 0 1-.72 3.16M7.01 76.26a.287.283 0 0 1 .097.213l.003 1.747a.287.283 0 0 1-.242.28 5.376 5.306-180 0 0-3.238 1.78 5.405 5.334-180 0 0-1.31 3.49 5.406 5.335-180 0 0 1.5 3.7 5.363 5.293-180 0 0 3.89 1.65 5.347 5.277-180 0 0 2.52-.62 5.416 5.345-180 0 0 2.87-4.73c0-1.23.41-2.37 1.11-3.29a5.514 5.441 0 0 1 4.42-2.18c2.9 0 5.28 2.21 5.51 5.02a.287.283 0 0 1-.287.307L22.1 83.62a.287.283 0 0 1-.285-.249c-.195-1.561-1.545-2.781-3.185-2.781-1.77 0-3.21 1.43-3.21 3.18 0 1.16-.26 2.26-.72 3.24-1.23 2.6-3.9 4.4-6.99 4.4-4.26 0-7.71-3.42-7.71-7.64 0-2.1.86-4.01 2.25-5.39a7.678 7.578 0 0 1 4.54-2.19.287.283 0 0 1 .225.07z" style="fill:#417be9;stroke:none;stroke-width:6.375;stroke-linecap:butt"/></g><g transform="translate(39.292 -10.885)"><title>Sheet.18494</title><path d="M2.42 91.41A5.171 5.103 0 0 1 0 90.82l.89-1.57a3.447 3.402-180 0 0 1.53.34c1.66 0 3.05-1.16 3.45-2.73h1.81c-.42 2.59-2.62 4.55-5.26 4.55" style="fill:#1453c8;stroke:none;stroke-width:6.375;stroke-linecap:butt"/></g><g transform="translate(39.006 -10.601)"><title>Sheet.18495</title><path d="M.01 90.62a.287.283 0 0 1 .024-.22l.896-1.58a.287.283 0 0 1 .378-.117 3.159 3.117-180 0 0 1.392.327c1.52 0 2.81-1.07 3.17-2.52a.287.283 0 0 1 .28-.215l1.82.005a.287.283 0 0 1 .284.329C7.81 89.34 5.5 91.41 2.7 91.41a5.46 5.387 0 0 1-2.55-.62.287.283 0 0 1-.141-.17Zm7.91-3.76c-.54 2.45-2.67 4.27-5.22 4.27a5.168 5.1 0 0 1-2.41-.59l.89-1.58a3.447 3.402-180 0 0 1.52.35c1.66 0 3.06-1.16 3.45-2.73h1.82a5.691 5.616 0 0 1-.05.28" style="fill:#1453c8;stroke:none;stroke-width:6.375;stroke-linecap:butt"/></g><g transform="translate(31.095 -19.48)"><title>Sheet.18496</title><path d="M4.33 91.41a5.84 5.763-180 0 0-1.1-1.1A5.983 5.904-180 0 0 0 89.11v-1.74c1.31.07 2.54.45 3.6 1.07.78.46 1.47 1.05 2.04 1.74z" style="fill:#88aef1;stroke:none;stroke-width:6.375;stroke-linecap:butt"/></g><g transform="translate(30.807 -19.197)"><title>Sheet.18497</title><path d="M4.6 91.41a.287.283 0 0 1-.207-.112A5.549 5.476-180 0 0 3.34 90.26a5.696 5.621-180 0 0-3.07-1.15.287.283 0 0 1-.267-.283L0 87.09a.287.283 0 0 1 .303-.283A8.2 8.2 0 0 1 4.03 87.92c.81.47 1.53 1.08 2.12 1.8a.287.283 0 0 1-.024.384L4.82 91.34a.287.283 0 0 1-.222.079zm-.16-.5c.06.07.12.15.18.22l1.3-1.23a7.684 7.583-180 0 0-2.04-1.74 7.84 7.736-180 0 0-3.59-1.07v1.74c1.21.08 2.33.52 3.23 1.2.34.26.65.55.92.88" style="fill:#88aef1;stroke:none;stroke-width:6.375;stroke-linecap:butt"/></g></g></g></svg>