<svg xmlns="http://www.w3.org/2000/svg" xml:space="preserve" width="34.021" height="56.701" style="font-size:12px;overflow:visible;color-interpolation-filters:sRGB;fill-rule:evenodd;stroke-linecap:square;stroke-miterlimit:3" viewBox="0 0 34.021 56.701"><defs><linearGradient id="a" x1="-.001" x2="43.92" y1="43.277" y2="43.277" gradientTransform="scale(.7746 1.29098)" gradientUnits="userSpaceOnUse"><stop offset="0" stop-color="#5ea0ef"/><stop offset=".18" stop-color="#559cec"/><stop offset=".47" stop-color="#3c91e5"/><stop offset=".84" stop-color="#1380da"/><stop offset="1" stop-color="#0078d4"/></linearGradient></defs><g transform="translate(-21.857 -21.854)"><title>Page-1</title><g transform="translate(21.858 -34.016)"><title>Fidalgo.18470</title><title>Sheet.18471</title><title>Sheet.18472</title><path d="M34.02 57.77v52.89a1.902 1.865 0 0 1-1.91 1.91H1.94A1.907 1.87 0 0 1 0 110.66V57.78a1.905 1.867 0 0 1 1.94-1.91h30.13a1.902 1.865 0 0 1 1.94 1.9z" style="fill:url(#a);stroke:none;stroke-width:21.85709953;stroke-linecap:butt"/><g transform="translate(4.013 -1.2)"><title>Sheet.18473</title><path d="M.51 62.98h5.68a.477.467 0 0 1 .477.467l.003 7.003a.477.467 0 0 1-.477.467L.51 70.91a.51.5 0 0 1-.51-.467V63.45a.51.5 0 0 1 .51-.467zm9.73 0h5.51a.477.467 0 0 1 .477.467l.003 7.003a.477.467 0 0 1-.477.467l-5.513-.007a.475.465 0 0 1-.477-.467L9.76 63.45a.475.465 0 0 1 .477-.467zm9.73 0h5.51a.51.5 0 0 1 .51.467v7.003a.51.5 0 0 1-.51.467l-5.51-.007a.477.467 0 0 1-.477-.467l-.003-6.993a.477.467 0 0 1 .477-.467zM.51 75.68h5.68a.477.467 0 0 1 .477.465l.003 7.005a.51.5 0 0 1-.477.5H.51a.512.502 0 0 1-.51-.5v-7a.51.5 0 0 1 .51-.465zm9.73 0h5.51a.477.467 0 0 1 .477.465l.003 7.005a.51.5 0 0 1-.477.5H10.24a.51.5 0 0 1-.477-.5l-.003-7a.475.465 0 0 1 .477-.465zm9.73 0h5.51a.51.5 0 0 1 .51.465v7.005a.51.5 0 0 1-.51.5h-5.51a.51.5 0 0 1-.477-.5l-.003-7a.477.467 0 0 1 .477-.465zM.51 88.42h5.68a.477.467 0 0 1 .477.467l.003 7.003a.479.47 0 0 1-.477.467L.51 96.36a.51.5 0 0 1-.51-.467V88.75a.51.5 0 0 1 .51-.332zm9.73 0h5.51a.477.467 0 0 1 .647.332l.003 7.008a.477.467 0 0 1-.477.467l-5.683.003a.472.463 0 0 1-.44-.287.475.465 0 0 1-.037-.18L9.76 88.76a.477.467 0 0 1 .477-.334zm0 12.71h5.51a.477.467 0 0 1 .477.465l.003 10.505a.477.467 0 0 1-.477.467l-5.513.003a.475.465 0 0 1-.477-.467L9.76 101.59a.477.467 0 0 1 .477-.465zm9.73-12.71h5.51a.51.5 0 0 1 .51.467v7.003a.51.5 0 0 1-.51.467l-5.51.003a.475.465 0 0 1-.477-.467l-.003-7.143a.477.467 0 0 1 .477-.332z" style="fill:#f2f2f2;stroke:none;stroke-width:21.85709953;stroke-linecap:butt"/></g></g></g></svg>