<svg xmlns="http://www.w3.org/2000/svg" xml:space="preserve" width="56.69" height="50.81" style="font-size:12px;overflow:visible;color-interpolation-filters:sRGB;fill-rule:evenodd;stroke-linecap:square;stroke-miterlimit:3" viewBox="0 0 56.69 50.81"><g transform="translate(-5.67 -5.104)"><title>Page-1</title><g transform="translate(5.67 -34.016)"><title>GitHub.18465</title><title>Page-1</title><title>github-2</title><title>Sheet.18468</title><title>Sheet.18469</title><path d="M28.35 39.12C12.68 39.12 0 50.78 0 65.17 0 76.7 8.11 86.42 19.39 89.88c1.41.23 1.93-.55 1.93-1.24 0-.61-.03-2.67-.03-4.85-7.12 1.2-8.96-1.59-9.53-3.05-.31-.76-1.7-3.07-2.91-3.69-.99-.48-2.41-1.7-.03-1.73 2.24-.03 3.83 1.9 4.36 2.68 2.55 3.94 6.63 2.82 8.25 2.14.26-1.69 1-2.83 1.81-3.48-6.31-.66-12.89-2.9-12.89-12.85 0-2.84 1.1-5.19 2.91-7.01-.3-.65-1.29-3.33.27-6.9 0 0 2.38-.68 7.79 2.66 2.27-.58 4.68-.87 7.09-.87s4.82.29 7.09.87c5.43-3.38 7.79-2.66 7.79-2.66 1.56 3.57.57 6.25.28 6.9 1.82 1.82 2.92 4.14 2.92 7.01 0 9.98-6.63 12.19-12.93 12.85 1.02.82 1.9 2.38 1.9 4.81 0 3.49-.03 6.3-.03 7.17 0 .69.54 1.5 1.96 1.24 11.19-3.46 19.3-13.22 19.3-24.71 0-14.39-12.69-26.05-28.34-26.05" style="fill:#1b1f23;stroke:none;stroke-width:.75;stroke-linecap:butt"/></g></g></svg>