<svg xmlns="http://www.w3.org/2000/svg" xml:space="preserve" width="56.693" height="56.694" style="font-size:12px;overflow:visible;color-interpolation-filters:sRGB;fill-rule:evenodd;stroke-linecap:square;stroke-miterlimit:3" viewBox="0 0 56.693 56.694"><g transform="translate(-12.24 -12.24)"><title>Page-1</title><g transform="translate(12.24 -34.016)"><title>Integration Account.18455</title><title>Sheet.18456</title><title>Sheet.18457</title><path d="M0 46.256h56.693v56.693H0z" style="fill:#fff;stroke:none;stroke-width:12.23999977;stroke-linecap:butt"/><title>Sheet.18458</title><path d="M0 46.26v56.69h56.69V46.26Zm51.59 51.59H5.1V51.36h46.49z" style="fill:#3999c6;stroke:none;stroke-width:12.23999977;stroke-linecap:butt"/><g transform="translate(9.07 -37.417)"><title>Sheet.18459</title><path d="M0 92.744h10.205v10.205H0z" style="fill:#fcd116;stroke:none;stroke-width:12.23999977;stroke-linecap:butt"/></g><g transform="translate(9.07 -23.244)"><title>Sheet.18460</title><path d="M0 92.744h10.205v10.205H0z" style="fill:#dd5900;stroke:none;stroke-width:12.23999977;stroke-linecap:butt"/></g><g transform="translate(23.244 -23.244)"><title>Sheet.18461</title><path d="M0 92.744h10.205v10.205H0z" style="fill:#3999c6;stroke:none;stroke-width:12.23999977;stroke-linecap:butt"/></g><g transform="translate(9.07 -9.07)"><title>Sheet.18462</title><path d="M0 92.744h10.205v10.205H0z" style="fill:#804998;stroke:none;stroke-width:12.23999977;stroke-linecap:butt"/></g><g transform="translate(23.244 -9.07)"><title>Sheet.18463</title><path d="M0 92.744h10.205v10.205H0z" style="fill:#dd5900;stroke:none;stroke-width:12.23999977;stroke-linecap:butt"/></g><g transform="translate(37.417 -9.07)"><title>Sheet.18464</title><path d="M0 92.744h10.205v10.205H0z" style="fill:#804998;stroke:none;stroke-width:12.23999977;stroke-linecap:butt"/></g></g></g></svg>