<svg xmlns="http://www.w3.org/2000/svg" xml:space="preserve" width="40.65" height="56.221" style="font-size:12px;overflow:visible;color-interpolation-filters:sRGB;fill-rule:evenodd;stroke-linecap:square;stroke-miterlimit:3" viewBox="0 0 40.65 56.221"><g transform="translate(-12.388 -12.39)"><title>Page-1</title><g transform="translate(7.059 -34.016)"><title>Java.18448</title><title>layer1</title><g transform="translate(7.755 -5.817)"><title>path6</title><path d="M10.66 95.7s-2.11 1.25 1.5 1.67a31.56 32.167-180 0 0 11.42-.5 19.87 20.253-180 0 0 3.04 1.51c-10.8 4.72-24.44-.27-15.96-2.71Zm-1.32-6.15s-2.36 1.8 1.25 2.16a44.554 45.41-180 0 0 14.74-.72 6.54 6.667-180 0 0 2.26 1.45C14.54 96.29 0 92.71 9.34 89.55" style="fill:#5382a1"/><path d="M10.66 95.7s-2.11 1.25 1.5 1.67a31.56 32.167-180 0 0 11.42-.5 19.87 20.253-180 0 0 3.04 1.51c-10.8 4.72-24.44-.27-15.96-2.71m-1.32-6.12s-2.36 1.8 1.25 2.16a44.554 45.41-180 0 0 14.74-.72 6.54 6.667-180 0 0 2.26 1.45C14.54 96.29 0 92.71 9.34 89.55" style="stroke:none;stroke-width:12.38770008;stroke-linecap:butt"/></g><g transform="translate(19.197 -23.875)"><title>path8</title><path d="M9.02 97.16c2.66 3.13-.7 5.94-.7 5.94s6.76-3.55 3.65-8.01c-2.89-4.15-5.12-6.21 6.92-13.32 0 0-18.89 4.8-9.87 15.36z" style="fill:#e76f00"/><path d="M9.02 97.16c2.66 3.13-.7 5.94-.7 5.94s6.76-3.55 3.65-8.01c-2.89-4.15-5.12-6.21 6.92-13.32 0 0-18.89 4.8-9.87 15.36" style="stroke:none;stroke-width:12.38770008;stroke-linecap:butt"/></g><g transform="translate(0 -.795)"><title>path10</title><path d="M42.5 95.23s1.56 1.31-1.69 2.32c-6.2 1.92-25.94 2.5-31.42.07-1.96-.9 1.72-2.08 2.89-2.34a7.49 7.633 0 0 1 1.9-.21C11.99 93.49 0 98.16 8.11 99.48c22.01 3.62 40.13-1.63 34.42-4.26ZM19.43 78.15s-10.03 2.43-3.55 3.3a75.335 76.783-180 0 0 13.3-.14c4.14-.35 8.31-1.11 8.31-1.11a17.602 17.94-180 0 0-2.52 1.37c-10.18 2.71-29.84 1.46-24.18-1.33a18.967 19.331 0 0 1 8.67-2.09zm17.98 10.24c10.35-5.49 5.57-10.75 2.22-10.01a7.746 7.895-180 0 0-1.18.33 1.888 1.924 0 0 1 .88-.7c6.61-2.37 11.69 6.98-2.13 10.69a.886.903-180 0 0 .204-.28z" style="fill:#5382a1"/><path d="M42.5 95.23s1.56 1.31-1.69 2.32c-6.2 1.92-25.94 2.5-31.42.07-1.96-.9 1.72-2.08 2.89-2.34a7.49 7.633 0 0 1 1.9-.21C11.99 93.49 0 98.16 8.11 99.48c22.01 3.62 40.13-1.63 34.42-4.26m-23.1-17.07s-10.03 2.43-3.55 3.3a75.335 76.783-180 0 0 13.3-.14c4.14-.35 8.31-1.11 8.31-1.11a17.602 17.94-180 0 0-2.52 1.37c-10.18 2.71-29.84 1.46-24.18-1.33a18.967 19.331 0 0 1 8.67-2.09m17.95 10.24c10.35-5.49 5.57-10.75 2.22-10.01a7.746 7.895-180 0 0-1.18.33 1.888 1.924 0 0 1 .88-.7c6.61-2.37 11.69 6.98-2.13 10.69a.886.903-180 0 0 .204-.28" style="stroke:none;stroke-width:12.38770008;stroke-linecap:butt"/></g><g transform="translate(16.68 -25.844)"><title>path12</title><path d="M14.49 72.25s5.74 5.89-5.42 14.83c-8.95 7.23-2.04 11.32 0 16.02C3.84 98.29 0 94.06 2.58 90.12c3.77-5.78 14.24-8.58 11.93-17.86Z" style="fill:#e76f00"/><path d="M14.49 72.25s5.74 5.89-5.42 14.83c-8.95 7.23-2.04 11.32 0 16.02C3.84 98.29 0 94.06 2.58 90.12c3.77-5.78 14.24-8.58 11.93-17.86" style="stroke:none;stroke-width:12.38770008;stroke-linecap:butt"/></g><g transform="translate(12.639)"><title>path14</title><path d="M7.79 102.45c9.94.65 25.19-.37 25.55-5.15 0 0-.69 1.8-8.2 3.26a81.672 83.242 0 0 1-25.14.4s1.28 1.02 7.79 1.49" style="fill:#5382a1;stroke:none;stroke-width:12.38770008;stroke-linecap:butt"/></g></g></g></svg>