<svg xmlns="http://www.w3.org/2000/svg" xml:space="preserve" width="36.422" height="55.302" style="font-size:12px;overflow:visible;color-interpolation-filters:sRGB;fill-rule:evenodd;stroke-linecap:square;stroke-miterlimit:3" viewBox="0 0 36.422 55.302"><g transform="translate(-3.873 -6.842)"><title>Page-1</title><g transform="translate(3.685 -34.016)"><title>Jenkins.18359</title><title>Page-1</title><title>jenkins</title><g transform="translate(3.454 -27.798)"><title>Sheet.18362</title><title>Sheet.18363</title><path d="m21.5 95.42-3.05.44-4.12.44-2.67.08-2.59-.08-1.99-.59-1.75-1.85-1.37-3.76-.31-.82-1.82-.59-1.07-1.7L0 84.55l.84-2.14 1.97-.67 1.61.74.76 1.63.92-.15.3-.36-.3-1.71-.08-2.14.46-2.95-.02-1.7 1.39-2.15 2.44-1.7 4.27-1.78 4.73.67 4.11 2.89 1.9 2.95 1.22 2.15.31 5.32-.92 4.57-1.67 4.07-1.61 2.14z" style="fill:#f0d6b7;stroke:none;stroke-width:1"/><title>Sheet.18364</title><path d="m21.5 95.42-3.05.44-4.12.44-2.67.08-2.59-.08-1.99-.59-1.75-1.85-1.37-3.76-.31-.82-1.82-.59-1.07-1.7L0 84.55l.84-2.14 1.97-.67 1.61.74.76 1.63.92-.15.3-.36-.3-1.71-.08-2.14.46-2.95-.02-1.7 1.39-2.15 2.44-1.7 4.27-1.78 4.73.67 4.11 2.89 1.9 2.95 1.22 2.15.31 5.32-.92 4.57-1.67 4.07-1.61 2.14z" style="fill:none"/><path d="m21.5 95.42-3.05.44-4.12.44-2.67.08-2.59-.08-1.99-.59-1.75-1.85-1.37-3.76-.31-.82-1.82-.59-1.07-1.7L0 84.55l.84-2.14 1.97-.67 1.61.74.76 1.63.92-.15.3-.36-.3-1.71-.08-2.14.46-2.95-.02-1.7 1.39-2.15 2.44-1.7 4.27-1.78 4.73.67 4.11 2.89 1.9 2.95 1.22 2.15.31 5.32-.92 4.57-1.67 4.07-1.61 2.14" style="stroke:none;stroke-width:.75;stroke-linecap:butt"/></g><g transform="translate(.862 -7.035)"><title>Sheet.18365</title><title>Sheet.18366</title><path d="m21.5 87.44-10.91.43v1.78l.92 6.21-.45.52-7.63-2.52-.53-.89-.77-8.34L.38 79.6 0 78.42l6.1-4.06 1.9-.75 1.68 2 1.45 1.26 1.68.51.75.22.92 3.85.69.82 1.75-.6-1.22 2.29 6.64 3.03z" style="fill:#335061;stroke:none;stroke-width:.75;stroke-linecap:butt"/></g><g transform="translate(3.987 -40.064)"><title>Sheet.18367</title><title>Sheet.18368</title><path d="m.31 94.67 1.97-.66 1.61.74.76 1.63.92-.15.22-.89-.46-1.7.46-4.06-.38-2.22 1.38-1.55 2.97-2.29-.84-1.11-4.19 1.99-1.76 1.33-.98 2.07-1.53 2L0 92.16Z" style="fill:#6d6b6d;stroke:none;stroke-width:1"/><title>Sheet.18369</title><path d="m.31 94.67 1.97-.66 1.61.74.76 1.63.92-.15.22-.89-.46-1.7.46-4.06-.38-2.22 1.38-1.55 2.97-2.29-.84-1.11-4.19 1.99-1.76 1.33-.98 2.07-1.53 2L0 92.16Z" style="fill:none;stroke:none;stroke-width:.75;stroke-linecap:butt"/></g><g transform="translate(3.53 -41.763)"><title>Sheet.18370</title><title>Sheet.18371</title><path d="M3.89 89.43s1.14-2.74 5.71-4.07c4.58-1.33.23-.96.23-.96l-4.95 1.86-1.91 1.84-.84 1.48ZM1.6 95.86S0 90.68 6.1 89.95l-.23-.89-4.19.96-1.22 3.84.3 2.52z" style="fill:#dcd9d8;stroke:none;stroke-width:.75;stroke-linecap:butt"/></g><g transform="translate(3.378 -27.864)"><title>Sheet.18372</title><title>Sheet.18373</title><path d="m4.19 88.83 1-.94s.45.05.52.57c.08.51.31 5.17 3.58 7.69.31.23-2.43-.38-2.43-.38l-2.44-3.69Zm14.03-1.4s.17-2.25.8-2.07c.61.17.61.78.61.78s-1.5.94-1.41 1.29m6.32-8.21s-1.25.26-1.38 1.34c-.11 1.07 1.38.22 1.61.14zm-9.22.08s-1.68.22-1.68 1.25c0 1.04 1.91.96 2.44.53zM4.95 84.1s-2.89-1.69-3.2-.08c-.31 1.63-.99 2.81.46 4.52l-.99-.3-.91-2.29L0 83.73l1.75-1.77 1.99.15 1.14.88zm1.38-4.65s1.3-6.5 7.85-7.76c5.39-1.03 8.23.22 9.29 1.41 0 0-4.8-5.55-9.37-3.85s-7.93 4.8-7.85 6.79c.13 3.41.08 3.41.08 3.41M24 73.83s-2.21-.08-2.28 1.85c0 0 0 .29.15.59 0 0 1.76-1.92 2.82-.89z" style="fill:#f7e4cd;stroke:none;stroke-width:1"/><title>Sheet.18374</title><path d="m4.19 88.83 1-.94s.45.05.52.57c.08.51.31 5.17 3.58 7.69.31.23-2.43-.38-2.43-.38l-2.44-3.69Zm14.03-1.4s.17-2.25.8-2.07c.61.17.61.78.61.78s-1.5.94-1.41 1.29m6.32-8.21s-1.25.26-1.38 1.34c-.11 1.07 1.38.22 1.61.14zm-9.22.08s-1.68.22-1.68 1.25c0 1.04 1.91.96 2.44.53zM4.95 84.1s-2.89-1.69-3.2-.08c-.31 1.63-.99 2.81.46 4.52l-.99-.3-.91-2.29L0 83.73l1.75-1.77 1.99.15 1.14.88zm1.38-4.65s1.3-6.5 7.85-7.76c5.39-1.03 8.23.22 9.29 1.41 0 0-4.8-5.55-9.37-3.85s-7.93 4.8-7.85 6.79c.13 3.41.08 3.41.08 3.41M24 73.83s-2.21-.08-2.28 1.85c0 0 0 .29.15.59 0 0 1.76-1.92 2.82-.89z" style="fill:none"/><path d="m4.19 88.83 1-.94s.45.05.52.57c.08.51.31 5.17 3.58 7.69.31.23-2.43-.38-2.43-.38l-2.44-3.69m13.8-4.65s.17-2.25.8-2.07c.61.17.61.78.61.78s-1.5.94-1.41 1.29m6.32-8.21s-1.25.26-1.38 1.34c-.11 1.07 1.38.22 1.61.14m-9.45-1.4s-1.68.22-1.68 1.25c0 1.04 1.91.96 2.44.53M4.95 84.1s-2.89-1.69-3.2-.08c-.31 1.63-.99 2.81.46 4.52l-.99-.3-.91-2.29L0 83.73l1.75-1.77 1.99.15 1.14.88zm1.38-4.65s1.3-6.5 7.85-7.76c5.39-1.03 8.23.22 9.29 1.41 0 0-4.8-5.55-9.37-3.85s-7.93 4.8-7.85 6.79c.13 3.41.08 3.41.08 3.41M24 73.83s-2.21-.08-2.28 1.85c0 0 0 .29.15.59 0 0 1.76-1.92 2.82-.89" style="stroke:none;stroke-width:.75;stroke-linecap:butt"/></g><g transform="translate(13.057 -45.158)"><title>Sheet.18375</title><title>Sheet.18376</title><path d="M4.65 93.76s-.38-2.95-2.97-1.23C0 93.64.15 95.19.46 95.48c.3.3.22.9.45.48.24-.41.15-1.74.99-2.1.84-.37 2.21-.79 2.75-.1" style="fill:#f7e4cd;stroke:none;stroke-width:.75;stroke-linecap:butt"/></g><g transform="translate(.863 -9.695)"><title>Sheet.18377</title><title>Sheet.18378</title><path d="m9.68 78.27-7.16 3.1s2.97 11.46 1.44 15.01L2.9 96l-.09-4.36-1.97-8.27L0 81.08l7.47-4.88Zm.74 6.34 1.01 1.2v4.43h-1.21s-.16-3.1-.16-3.47c0-.38.16-1.71.16-1.71zm.02 6.3-3.43.15.99.66 2.44.37z" style="fill:#49728b;stroke:none;stroke-width:1"/><title>Sheet.18379</title><path d="m9.68 78.27-7.16 3.1s2.97 11.46 1.44 15.01L2.9 96l-.09-4.36-1.97-8.27L0 81.08l7.47-4.88Zm.74 6.34 1.01 1.2v4.43h-1.21s-.16-3.1-.16-3.47c0-.38.16-1.71.16-1.71zm.02 6.3-3.43.15.99.66 2.44.37z" style="fill:none"/><path d="m9.68 78.27-7.16 3.1s2.97 11.46 1.44 15.01L2.9 96l-.09-4.36-1.97-8.27L0 81.08l7.47-4.88zm.74 6.34 1.01 1.2v4.43h-1.21s-.16-3.1-.16-3.47c0-.38.16-1.71.16-1.71m.22 5.85-3.43.15.99.66 2.44.37" style="stroke:none;stroke-width:.75;stroke-linecap:butt"/></g><g transform="translate(23.041 -8.808)"><title>Sheet.18380</title><title>Sheet.18381</title><path d="m0 89.28 2.81-.08.69 6.8-2.89.38Z" style="fill:#335061;stroke:none;stroke-width:.75;stroke-linecap:butt"/></g><g transform="translate(23.803 -15.902)"><title>Sheet.18382</title><title>Sheet.18383</title><path d="m0 96.38 4.27-.23s1.75-4.29 1.75-4.51c0-.21 1.52-6.2 1.52-6.2l-3.43-3.47-.68-.6-1.83 1.78v6.87z" style="fill:#335061;stroke:none;stroke-width:1"/><title>Sheet.18384</title><path d="m0 96.38 4.27-.23s1.75-4.29 1.75-4.51c0-.21 1.52-6.2 1.52-6.2l-3.43-3.47-.68-.6-1.83 1.78v6.87z" style="fill:none;stroke:none;stroke-width:.75;stroke-linecap:butt"/></g><g transform="translate(23.041 -13.39)"><title>Sheet.18385</title><title>Sheet.18386</title><path d="M2.67 93.34 0 93.86l.38 2.07c.99.45 2.67-.74 2.67-.74zm.07-12.93 5.34 3.85.15-1.78-4.03-3.62Z" style="fill:#49728b;stroke:none;stroke-width:1"/><title>Sheet.18387</title><path d="M2.67 93.34 0 93.86l.38 2.07c.99.45 2.67-.74 2.67-.74zm.07-12.93 5.34 3.85.15-1.78-4.03-3.62Z" style="fill:none"/><path d="M2.67 93.34 0 93.86l.38 2.07c.99.45 2.67-.74 2.67-.74m-.31-14.78 5.34 3.85.15-1.78-4.03-3.62z" style="stroke:none;stroke-width:.75;stroke-linecap:butt"/></g><g transform="translate(11.456 -.606)"><title>Sheet.18388</title><title>Sheet.18389</title><path d="m2.5 95.63-1.59-6.2-.78-4.58-.13-3.4 7.14-.37h4.45l-.41 7.76.68 5.98-.07 1.11-5.79.45-3.51-.75Z" style="fill:#fff;stroke:none;stroke-width:1"/><title>Sheet.18390</title><path d="m2.5 95.63-1.59-6.2-.78-4.58-.13-3.4 7.14-.37h4.45l-.41 7.76.68 5.98-.07 1.11-5.79.45-3.51-.75Z" style="fill:none"/><path d="m2.5 95.63-1.59-6.2-.78-4.58-.13-3.4 7.14-.37h4.45l-.41 7.76.68 5.98-.07 1.11-5.79.45-3.51-.75" style="stroke:none;stroke-width:.75;stroke-linecap:butt"/></g><g transform="translate(17.172 -1.05)"><title>Sheet.18391</title><title>Sheet.18392</title><path d="M4.88 81.45s-.39 7.68.76 13.15c0 0-2.28 1.4-5.64 1.78l6.4-.23.77-.44-.92-12.11-.23-2.59Z" style="fill:#dcd9d8;stroke:none;stroke-width:1"/><title>Sheet.18393</title><path d="M4.88 81.45s-.39 7.68.76 13.15c0 0-2.28 1.4-5.64 1.78l6.4-.23.77-.44-.92-12.11-.23-2.59Z" style="fill:none"/><path d="M4.88 81.45s-.39 7.68.76 13.15c0 0-2.28 1.4-5.64 1.78l6.4-.23.77-.44-.92-12.11-.23-2.59" style="stroke:none;stroke-width:.75;stroke-linecap:butt"/></g><g transform="translate(25.86 -9.768)"><title>Sheet.18394</title><title>Sheet.18395</title><path d="m.82 96.38 2.97-.82 5.64-.29.84-2.51-1.53-4.36-1.75-.23-2.43.75-2.35 1.1-1.24-.22-.97.37Z" style="fill:#fff;stroke:none;stroke-width:1"/><title>Sheet.18396</title><path d="m.82 96.38 2.97-.82 5.64-.29.84-2.51-1.53-4.36-1.75-.23-2.43.75-2.35 1.1-1.24-.22-.97.37Z" style="fill:none"/><path d="m.82 96.38 2.97-.82 5.64-.29.84-2.51-1.53-4.36-1.75-.23-2.43.75-2.35 1.1-1.24-.22-.97.37" style="stroke:none;stroke-width:.75;stroke-linecap:butt"/></g><g transform="translate(26.623 -9.695)"><title>Sheet.18397</title><title>Sheet.18398</title><path d="M0 94.82s1.99-.88 2.28-.81l-.84-4.06 1-.37s.68 3.84.68 4.28c0 0 4.27.23 4.65.23 0 0 .92-1.7.69-3.48l.83 2.36.09 1.33-1.22 1.78-1.37.3-2.3-.08-.75-.96-2.68.37-.83.29Z" style="fill:#dcd9d8;stroke:none;stroke-width:1"/><title>Sheet.18399</title><path d="M0 94.82s1.99-.88 2.28-.81l-.84-4.06 1-.37s.68 3.84.68 4.28c0 0 4.27.23 4.65.23 0 0 .92-1.7.69-3.48l.83 2.36.09 1.33-1.22 1.78-1.37.3-2.3-.08-.75-.96-2.68.37-.83.29Z" style="fill:none"/><path d="M0 94.82s1.99-.88 2.28-.81l-.84-4.06 1-.37s.68 3.84.68 4.28c0 0 4.27.23 4.65.23 0 0 .92-1.7.69-3.48l.83 2.36.09 1.33-1.22 1.78-1.37.3-2.3-.08-.75-.96-2.68.37-.83.29" style="stroke:none;stroke-width:.75;stroke-linecap:butt"/></g><g transform="translate(20.198 -16.492)"><title>Sheet.18400</title><title>Sheet.18401</title><path d="m3.43 96.38-1.68-4.14L0 89.8s.38-1.03.91-1.03h1.76l1.67.58-.14 2.74z" style="fill:#fff;stroke:none;stroke-width:.75;stroke-linecap:butt"/></g><g transform="translate(20.069 -17.158)"><title>Sheet.18402</title><title>Sheet.18403</title><path d="M3.89 95.63s-2.14-3.99-2.14-4.57c0 0 .38-.89.92-.67.53.22 1.67.81 1.67.81v-1.4l-2.59-.52L0 89.5l2.97 6.8.61.08z" style="fill:#dcd9d8;stroke:none;stroke-width:1"/><title>Sheet.18404</title><path d="M3.89 95.63s-2.14-3.99-2.14-4.57c0 0 .38-.89.92-.67.53.22 1.67.81 1.67.81v-1.4l-2.59-.52L0 89.5l2.97 6.8.61.08z" style="fill:none"/><path d="M3.89 95.63s-2.14-3.99-2.14-4.57c0 0 .38-.89.92-.67.53.22 1.67.81 1.67.81v-1.4l-2.59-.52L0 89.5l2.97 6.8.61.08" style="stroke:none;stroke-width:.75;stroke-linecap:butt"/></g><g transform="translate(10.542 -25.433)"><title>Sheet.18405</title><title>Sheet.18406</title><path d="m4.09 94.15-2.1-.21-1.99-.6v.67l.97 1.04 3.04 1.33z" style="fill:#fff;stroke:none;stroke-width:1"/><title>Sheet.18407</title><path d="m4.09 94.15-2.1-.21-1.99-.6v.67l.97 1.04 3.04 1.33z" style="fill:none"/><path d="m4.09 94.15-2.1-.21-1.99-.6v.67l.97 1.04 3.04 1.33" style="stroke:none;stroke-width:.75;stroke-linecap:butt"/></g><g transform="translate(11 -25.803)"><title>Sheet.18408</title><title>Sheet.18409</title><path d="M.23 94.75s2.36.96 3.13.73l.07.9-2.13-.45-1.3-.88Z" style="fill:#dcd9d8;stroke:none;stroke-width:.75;stroke-linecap:butt"/></g><g transform="translate(22.876 -23.851)"><title>Sheet.18410</title><title>Sheet.18411</title><path d="M3.8 96.38c-1.3-.04-2.47-.19-3.49-.47.07-.41-.06-.8.04-1.1.28-.2.77-.2 1.2-.24a2.18 2.18 0 0 0-1.34-.15c-.01-.27-.13-.45-.21-.67.73-.26 2.45-1.91 3.41-1.36.46.26.65 1.75.69 2.47.03.6-.06 1.2-.3 1.52" style="fill:#d33833;stroke:none;stroke-width:.75;stroke-linecap:butt"/></g><g transform="translate(22.876 -23.851)"><title>Sheet.18412</title><title>Sheet.18413</title><path d="M3.8 96.38c-1.3-.04-2.47-.19-3.49-.47.07-.41-.06-.8.04-1.1.28-.2.77-.2 1.2-.24a2.18 2.18 0 0 0-1.34-.15c-.01-.27-.13-.45-.21-.67.73-.26 2.45-1.91 3.41-1.36.46.26.65 1.75.69 2.47.03.6-.06 1.2-.3 1.52z" style="fill:none;stroke:#d33833;stroke-width:1.875;stroke-linecap:butt"/></g><g transform="translate(14.691 -21.57)"><title>Sheet.18414</title><title>Sheet.18415</title><path d="M5.79 92.04c0 .1-.01.2-.01.29-.41.26-1.05.26-1.5.48.65.02 1.17.17 1.62.38l-.03.73c-.74.48-1.42 1.22-2.29 1.67-.42.22-1.86.79-2.3.69-.25-.06-.27-.36-.37-.64-.2-.6-.7-1.56-.74-2.47-.05-1.14-.17-3.06 1.1-2.83 1.03.19 2.22.65 3.02 1.08.48.25.77.57 1.5.62" style="fill:#d33833;stroke:none;stroke-width:.75;stroke-linecap:butt"/></g><g transform="translate(14.691 -21.57)"><title>Sheet.18416</title><title>Sheet.18417</title><path d="M5.79 92.04c0 .1-.01.2-.01.29-.41.26-1.05.26-1.5.48.65.02 1.17.17 1.62.38l-.03.73c-.74.48-1.42 1.22-2.29 1.67-.42.22-1.86.79-2.3.69-.25-.06-.27-.36-.37-.64-.2-.6-.7-1.56-.74-2.47-.05-1.14-.17-3.06 1.1-2.83 1.03.19 2.22.65 3.02 1.08.48.25.77.57 1.5.62z" style="fill:none;stroke:#d33833;stroke-width:1.875;stroke-linecap:butt"/></g><g transform="translate(20.976 -23.975)"><title>Sheet.18418</title><title>Sheet.18419</title><path d="M.25 95.81c-.12-.62-.25-.79-.2-1.34 1.72-1.11 2.04 1.91.2 1.34" style="fill:#d33833;stroke:none;stroke-width:.75;stroke-linecap:butt"/></g><g transform="translate(20.976 -23.975)"><title>Sheet.18420</title><title>Sheet.18421</title><path d="M.25 95.81c-.12-.62-.25-.79-.2-1.34 1.72-1.11 2.04 1.91.2 1.34z" style="fill:none;stroke:#d33833;stroke-width:1.875;stroke-linecap:butt"/></g><g transform="translate(13.068 -21.59)"><title>Sheet.18422</title><title>Sheet.18423</title><path d="M10.64 93.94s-.54-.75-.16-.97c.38-.21.77 0 .99-.36.23-.37 0-.6.08-1.04s.46-.51.84-.59c.37-.07 1.45-.22 1.6.15l-.46-1.33-.91-.3-2.9 1.63-.15.81v1.63zm-8.01 2.44c-.09-1.16-.18-2.31-.3-3.47-.15-1.71.43-1.41 1.97-1.41.23 0 1.44.27 1.53.44.42.83-.69.64.49 1.26.99.53 2.74-.32 2.33-1.48-.22-.25-1.17-.09-1.51-.25l-1.78-.9c-.75-.38-2.5-.94-3.31-.4-2.05 1.35.13 4.72.86 6.13Z" style="fill:#ef3d3a;stroke:none;stroke-width:1"/><title>Sheet.18424</title><path d="M10.64 93.94s-.54-.75-.16-.97c.38-.21.77 0 .99-.36.23-.37 0-.6.08-1.04s.46-.51.84-.59c.37-.07 1.45-.22 1.6.15l-.46-1.33-.91-.3-2.9 1.63-.15.81v1.63zm-8.01 2.44c-.09-1.16-.18-2.31-.3-3.47-.15-1.71.43-1.41 1.97-1.41.23 0 1.44.27 1.53.44.42.83-.69.64.49 1.26.99.53 2.74-.32 2.33-1.48-.22-.25-1.17-.09-1.51-.25l-1.78-.9c-.75-.38-2.5-.94-3.31-.4-2.05 1.35.13 4.72.86 6.13Z" style="fill:none"/><path d="M10.64 93.94s-.54-.75-.16-.97c.38-.21.77 0 .99-.36.23-.37 0-.6.08-1.04s.46-.51.84-.59c.37-.07 1.45-.22 1.6.15l-.46-1.33-.91-.3-2.9 1.63-.15.81v1.63m-6.94 2.81c-.09-1.16-.18-2.31-.3-3.47-.15-1.71.43-1.41 1.97-1.41.23 0 1.44.27 1.53.44.42.83-.69.64.49 1.26.99.53 2.74-.32 2.33-1.48-.22-.25-1.17-.09-1.51-.25l-1.78-.9c-.75-.38-2.5-.94-3.31-.4-2.05 1.35.13 4.72.86 6.13" style="stroke:none;stroke-width:.75;stroke-linecap:butt"/></g><g transform="translate(4.904 -31.206)"><title>Sheet.18425</title><title>Sheet.18426</title><path d="M12.81 79.81c-2.08-.47-3.12.84-3.74 2.21-.56-.14-.35-.88-.21-1.25.38-.99 1.88-2.31 3.11-2.14.52.07 1.23.54.84 1.18m10.12 2.3h.09c.47.94.88 1.94 1.48 2.78-.4.9-3.01 1.68-2.97.08.56-.24 1.53-.05 2.03-.35-.28-.78-.7-1.43-.63-2.51m-9.06.02c.44.79.58 1.62 1.22 2.22.28.27.84.6.56 1.35-.06.17-.53.57-.8.64-.99.29-3.29.06-2.52-1.14.82.04 1.93.52 2.53-.06-.47-.72-1.3-2.16-.99-3.01m8.68 8.05c-1.48.92-3.15 1.93-5.59 1.69-.52-.43-.73-1.41-.21-2.06.26.44.09 1.25.83 1.37 1.39.24 2.99-.82 4-1.18.61-1.02-.06-1.39-.62-2.04-1.13-1.33-2.67-2.98-2.61-4.98.46-.32.51.5.57.65.59 1.35 2.09 3.07 3.18 4.23.28.28.72.56.76.75.14.54-.37 1.2-.31 1.57m-19.64-.99c-.47-.25-.59-1.39-1.13-1.43-.79-.04-.64 1.48-.63 2.38C.6 89.66.51 88.2.9 87.45c-.45-.22-.65.23-.9.39.32-2.26 3.42-1.05 2.91 1.35m20.59 1.93c-.69 1.28-1.68 2.69-3.71 2.73-.04-.42-.08-1.04.01-1.29 1.55-.15 2.51-.92 3.7-1.44m-9.75.83c1.3.66 3.68.73 5.45.68.1.37.1.84.1 1.3-2.28.11-4.96-.44-5.55-1.98m-.25 1.23c.9 2.19 3.98 1.94 6.58 1.88-.11.28-.35.61-.66.73-.84.33-3.13.59-4.29-.01-.74-.38-1.21-1.24-1.61-1.73-.19-.25-1.16-.87-.02-.87" style="fill:#231f20;stroke:none;stroke-width:1"/><title>Sheet.18427</title><path d="M12.81 79.81c-2.08-.47-3.12.84-3.74 2.21-.56-.14-.35-.88-.21-1.25.38-.99 1.88-2.31 3.11-2.14.52.07 1.23.54.84 1.18m10.12 2.3h.09c.47.94.88 1.94 1.48 2.78-.4.9-3.01 1.68-2.97.08.56-.24 1.53-.05 2.03-.35-.28-.78-.7-1.43-.63-2.51m-9.06.02c.44.79.58 1.62 1.22 2.22.28.27.84.6.56 1.35-.06.17-.53.57-.8.64-.99.29-3.29.06-2.52-1.14.82.04 1.93.52 2.53-.06-.47-.72-1.3-2.16-.99-3.01m8.68 8.05c-1.48.92-3.15 1.93-5.59 1.69-.52-.43-.73-1.41-.21-2.06.26.44.09 1.25.83 1.37 1.39.24 2.99-.82 4-1.18.61-1.02-.06-1.39-.62-2.04-1.13-1.33-2.67-2.98-2.61-4.98.46-.32.51.5.57.65.59 1.35 2.09 3.07 3.18 4.23.28.28.72.56.76.75.14.54-.37 1.2-.31 1.57m-19.64-.99c-.47-.25-.59-1.39-1.13-1.43-.79-.04-.64 1.48-.63 2.38C.6 89.66.51 88.2.9 87.45c-.45-.22-.65.23-.9.39.32-2.26 3.42-1.05 2.91 1.35m20.59 1.93c-.69 1.28-1.68 2.69-3.71 2.73-.04-.42-.08-1.04.01-1.29 1.55-.15 2.51-.92 3.7-1.44m-9.75.83c1.3.66 3.68.73 5.45.68.1.37.1.84.1 1.3-2.28.11-4.96-.44-5.55-1.98m-.25 1.23c.9 2.19 3.98 1.94 6.58 1.88-.11.28-.35.61-.66.73-.84.33-3.13.59-4.29-.01-.74-.38-1.21-1.24-1.61-1.73-.19-.25-1.16-.87-.02-.87" style="fill:none;stroke:none;stroke-width:.75;stroke-linecap:butt"/></g><g transform="translate(24.037 -17.254)"><title>Sheet.18428</title><title>Sheet.18429</title><path d="M3.32 91.29C2.26 93.03 1.25 94.83 0 96.38c.52-1.5.75-4 .83-5.91 1.09-.49 2.04.11 2.49.82" style="fill:#81b0c4;stroke:none;stroke-width:1"/><title>Sheet.18430</title><path d="M3.32 91.29C2.26 93.03 1.25 94.83 0 96.38c.52-1.5.75-4 .83-5.91 1.09-.49 2.04.11 2.49.82" style="fill:none;stroke:none;stroke-width:.75;stroke-linecap:butt"/></g><g transform="translate(29.858 -12.7)"><title>Sheet.18431</title><title>Sheet.18432</title><path d="M3.16 93.02c-1.18.23-2.01 1.34-3.16 1.26.63-.86 1.74-1.22 3.16-1.26m.51 1.79c-.95.1-2.08.25-3.06.17.46-.69 2.25-.45 3.06-.17m.34 1.54c-1.08.03-2.42.01-3.45-.08.61-.64 2.76-.24 3.45.08" style="fill:#231f20;stroke:none;stroke-width:1"/><title>Sheet.18433</title><path d="M3.16 93.02c-1.18.23-2.01 1.34-3.16 1.26.63-.86 1.74-1.22 3.16-1.26m.51 1.79c-.95.1-2.08.25-3.06.17.46-.69 2.25-.45 3.06-.17m.34 1.54c-1.08.03-2.42.01-3.45-.08.61-.64 2.76-.24 3.45.08" style="fill:none;stroke:none;stroke-width:.75;stroke-linecap:butt"/></g><g transform="translate(23.974 -4.045)"><title>Sheet.18434</title><title>Sheet.18435</title><path d="M1.34 91.92c.15 1.31.7 2.65.63 4.09-.6.19-.95.37-1.74.37-.07-1.23-.23-3.1-.18-4.27.39.02.97-.28 1.29-.19" style="fill:#dcd9d8;stroke:none;stroke-width:1"/><title>Sheet.18436</title><path d="M1.34 91.92c.15 1.31.7 2.65.63 4.09-.6.19-.95.37-1.74.37-.07-1.23-.23-3.1-.18-4.27.39.02.97-.28 1.29-.19" style="fill:none;stroke:none;stroke-width:.75;stroke-linecap:butt"/></g><g transform="translate(19.412 -26.696)"><title>Sheet.18437</title><title>Sheet.18438</title><path d="M4.17 95.18c-.56.34-1.02.77-1.54 1.14-1.15.06-1.78-.08-2.63-.73.01-.05.1-.02.1-.09 1.24.54 2.82-.21 4.06-.32Z" style="fill:#f0d6b7;stroke:none;stroke-width:1"/><title>Sheet.18439</title><path d="M4.17 95.18c-.56.34-1.02.77-1.54 1.14-1.15.06-1.78-.08-2.63-.73.01-.05.1-.02.1-.09 1.24.54 2.82-.21 4.06-.32Z" style="fill:none"/><path d="M4.17 95.18c-.56.34-1.02.77-1.54 1.14-1.15.06-1.78-.08-2.63-.73.01-.05.1-.02.1-.09 1.24.54 2.82-.21 4.06-.32" style="stroke:none;stroke-width:.75;stroke-linecap:butt"/></g><g transform="translate(17.08 -17.252)"><title>Sheet.18440</title><title>Sheet.18441</title><path d="M0 93.91c.34-1.42 1.67-2.17 2.88-2.95 1.25 1.54 2 3.51 2.84 5.42-1.97-.59-3.99-1.52-5.72-2.47" style="fill:#81b0c4;stroke:none;stroke-width:.75;stroke-linecap:butt"/></g><title>Sheet.18442</title><title>Sheet.18443</title><path d="M24.02 88.06c-.05 1.17.13 3.05.18 4.27.8 0 1.14-.17 1.74-.37.07-1.44-.47-2.77-.63-4.09-.31-.08-.9.22-1.29.19m-12.46-6.64c.53 4.71 1.3 8.67 2.7 12.83 3.11.92 6.86 1 9.61.17-.5-2.35-.29-5.22-.58-7.72-.22-1.88-.1-3.79-.41-5.71-3.34-.67-8.05-.15-11.32.43m12.11-.4c-.03 2.02.09 4.01.24 6.04.81-.12 1.35-.2 2.09-.36-.24-1.94-.2-4.14-.7-5.85-.57 0-1.07-.01-1.63.17m4.05-.32c-.38-.09-.82-.01-1.18 0 .17 1.65.59 3.46.73 5.19.57.02.88-.24 1.34-.33.03-1.52-.13-3.61-.89-4.86m6.15 5.44c1.19-.28 1.94-1.69 1.61-3.15-.23-.97-.63-2.81-1.06-3.43-.3-.46-1.16-1.06-1.84-.65-1.1.7-3.06.9-3.87 1.73.41 1.31.53 3.1.7 4.76 1.38.08 3.09-.37 4.24.11-.8.25-1.85.25-2.54.62.56.26 1.89.21 2.76.01m-11.06-7.02c-.84-1.91-1.6-3.88-2.85-5.42-1.21.8-2.54 1.53-2.88 2.96 1.73.95 3.75 1.88 5.73 2.46m2.05-5.89c-.08 1.9-.3 4.4-.83 5.89 1.25-1.54 2.27-3.33 3.32-5.09-.45-.7-1.39-1.31-2.49-.8m-2.33-.82c-.47-.05-.88.54-1.49.28-.15.16-.27.32-.41.47 1.36 1.58 1.97 3.84 3.03 5.71.56-1.79.49-3.76.62-5.72-.78.05-1.21-.68-1.75-.74m-1.5-1.91c-.06.54.08.72.19 1.34 1.84.56 1.52-2.46-.19-1.34m-2.05-.66c-.79-.42-1.99-.88-3.01-1.07-1.28-.23-1.16 1.69-1.11 2.83.04.91.54 1.86.74 2.47.1.28.12.57.37.63.44.1 1.89-.45 2.3-.67.87-.47 1.55-1.2 2.28-1.69l.04-.71c-.45-.22-.97-.37-1.61-.4.44-.22 1.09-.22 1.49-.47 0-.09.01-.19.01-.28-.73-.06-1.01-.38-1.5-.64m-7.6-1.34c-.65.66 1.86 1.54 2.65 1.59 0-.42.25-.8.2-1.09-.95-.17-2.2-.06-2.85-.5m8.13.31c0 .06-.08.04-.1.09.85.64 1.48.78 2.64.72.52-.36.98-.79 1.52-1.14-1.24.11-2.82.87-4.06.33M26.97 71c-.03-.72-.22-2.2-.68-2.46-.97-.54-2.69 1.1-3.41 1.35.08.23.2.4.21.69.43-.11.95-.04 1.33.13-.43.05-.91.05-1.19.25-.11.29.03.69-.04 1.09 1.02.29 2.19.44 3.48.47.25-.32.33-.92.3-1.52m-16.69-1.86c-.21-.15-1.61-1.92-1.8-1.85-2.54.97-4.92 2.65-7.04 4.24 2.03 4.21 2.84 9.36 2.99 14.32 2.32 1.05 4.34 2.56 7.48 2.72-.35-2.49-.69-4.72-.9-7.07-.78-.33-1.92.01-2.66-.1 0-.86 1.13-.37 1.23-.96.07-.44-.62-.47-.4-1.16.58.21.88.65 1.5.82.56-1.19-.01-3.3.07-4.3.02-.18.1-1.04.53-.89.38.13-.02 2.27.02 3.21.04.87-.11 1.7.26 2.25 3.03-.4 6.12-.65 9.39-.74-.71-.3-1.57-.59-2.51-1.11-.52-.27-2.12-.85-2.27-1.32-.23-.75.62-1.15.76-1.79-1.53.81-1.83-.78-2.19-1.9-.33-1.02-.52-1.78-.59-2.37-1.32-.6-2.74-1.22-3.87-2m15.35-1.63c2.12-.99 2.5 3.71 1.67 5.23.13.46.57.62.75 1.03-1.18 2.05-2.49 3.96-3.7 5.99.9-.55 2.18-.1 3.24-.51.38-.14.66-1 .95-1.68.8-1.88 1.65-4.26 2.02-6.05.09-.41.31-1.3.26-1.66-.09-.65-1-1.14-1.46-1.54-.86-.74-1.4-1.4-2.3-2.1-.35.53-1.13.87-1.43 1.29M5.45 49.34c-1.02 1.07-.8 3.08-.68 4.51 1.82-1.1 4.24.09 4.21 1.99.87-.03.32-1.05.17-1.72-.51-2.17.86-4.52.06-6.51-1.55.12-2.84.74-3.76 1.73m7.2-6.23c-2.28.62-5.21 2.23-6.14 4.21.73-.1 1.23-.45 1.95-.5.26-.01.62.11.93.04.62-.15 1.14-1.5 1.6-2 .46-.49 1.01-.7 1.39-1.15.24-.11.59-.1.61-.44-.1-.11-.22-.2-.34-.16m11.87.58c-2.37-1.29-6.38-2.26-8.89-1.05-2.04.98-4.78 2.61-5.71 4.66.87 1.99-.27 3.82-.34 5.83-.04 1.07.52 2.01.56 3.18-.29.48-1.2.53-1.84.5-.21-1.03-.58-2.19-1.69-2.31-1.54-.16-2.68 1.08-2.75 2.38-.08 1.54 1.21 4.08 3.05 3.9.71-.07.88-.76 1.66-.75.42.81-.65 1.07-.76 1.64-.03.15.09.74.15 1.02.34 1.34 1.09 3.06 1.82 4.08.93 1.3 2.76 1.48 4.72 1.61.35-.73 1.64-.67 2.48-.47-1-.4-1.94-1.33-2.72-2.17-.89-.95-1.8-1.97-1.84-3.22 1.69 2.27 3.08 4.25 6.15 5.25 2.32.75 5.03-.35 6.83-1.56.73-.51 1.17-1.31 1.71-2.05 1.96-2.74 2.88-6.66 2.68-10.46-.08-1.57-.08-3.13-.63-4.18-.56-1.11-2.47-2.1-3.6-1.09-.2-1.09.93-1.74 2.27-1.35-.95-1.2-1.95-2.64-3.31-3.39m4.41 35.37c1.84-.88 5.3-2.39 6.46.01.43.88.93 2.38 1.14 3.3.32 1.29-.33 3.99-1.7 4.43-1.2.38-2.62.36-4.07.07a2.2 2.2 0 0 1-.49-.62c-1.05-.04-2.02.05-2.84.46.08.75-.44.87-.93 1.01-.36 1.39.73 3.21.47 4.47-.19.9-1.33 1.04-2.17 1.21-.03.51.03.92.09 1.35-.19.69-1.05 1.07-1.87 1.17-2.69.31-6.78.46-9.35-.45-.73-1.71-1.29-3.8-1.9-5.76-2.52.26-4.56-1.05-6.49-1.92-.66-.29-1.58-.46-1.83-.98-.24-.49-.14-1.45-.21-2.35-.15-2.29-.27-4.52-.9-6.87-.28-1.06-.77-1.99-1.11-3-.32-.96-.87-2.12-1.02-3.06-.21-1.39 1.14-1.47 2.01-2.08 1.34-.93 2.4-1.44 3.84-2.29.43-.26 1.73-.88 1.87-1.18.3-.57-.5-1.39-.71-1.84-.34-.72-.52-1.32-.57-2.03-1.2-.19-2.13-.89-2.69-1.68-.92-1.31-1.55-3.74-.76-5.57.07-.15.37-.44.42-.66.09-.45-.17-1.02-.19-1.49-.08-2.4.42-4.46 2.09-5.19.67-2.61 3.09-3.47 5.36-4.77.86-.49 1.79-.79 2.76-1.14 3.49-1.24 8.82-1 11.7 1.11 1.22.9 3.18 2.79 3.88 4.17 1.85 3.62 1.72 9.66.42 14.07-.17.59-.42 1.47-.77 2.17-.25.5-1.01 1.49-.91 1.93.09.45 1.74 1.67 2.08 1.99.64.6 1.85 1.38 1.94 2.14.11.79-.36 1.88-.6 2.65-.78 2.57-1.56 4.94-2.45 7.22" style="fill:#231f20;stroke:none;stroke-width:1"/><title>Sheet.18444</title><path d="M24.02 88.06c-.05 1.17.13 3.05.18 4.27.8 0 1.14-.17 1.74-.37.07-1.44-.47-2.77-.63-4.09-.31-.08-.9.22-1.29.19m-12.46-6.64c.53 4.71 1.3 8.67 2.7 12.83 3.11.92 6.86 1 9.61.17-.5-2.35-.29-5.22-.58-7.72-.22-1.88-.1-3.79-.41-5.71-3.34-.67-8.05-.15-11.32.43m12.11-.4c-.03 2.02.09 4.01.24 6.04.81-.12 1.35-.2 2.09-.36-.24-1.94-.2-4.14-.7-5.85-.57 0-1.07-.01-1.63.17m4.05-.32c-.38-.09-.82-.01-1.18 0 .17 1.65.59 3.46.73 5.19.57.02.88-.24 1.34-.33.03-1.52-.13-3.61-.89-4.86m6.15 5.44c1.19-.28 1.94-1.69 1.61-3.15-.23-.97-.63-2.81-1.06-3.43-.3-.46-1.16-1.06-1.84-.65-1.1.7-3.06.9-3.87 1.73.41 1.31.53 3.1.7 4.76 1.38.08 3.09-.37 4.24.11-.8.25-1.85.25-2.54.62.56.26 1.89.21 2.76.01m-11.06-7.02c-.84-1.91-1.6-3.88-2.85-5.42-1.21.8-2.54 1.53-2.88 2.96 1.73.95 3.75 1.88 5.73 2.46m2.05-5.89c-.08 1.9-.3 4.4-.83 5.89 1.25-1.54 2.27-3.33 3.32-5.09-.45-.7-1.39-1.31-2.49-.8m-2.33-.82c-.47-.05-.88.54-1.49.28-.15.16-.27.32-.41.47 1.36 1.58 1.97 3.84 3.03 5.71.56-1.79.49-3.76.62-5.72-.78.05-1.21-.68-1.75-.74m-1.5-1.91c-.06.54.08.72.19 1.34 1.84.56 1.52-2.46-.19-1.34m-2.05-.66c-.79-.42-1.99-.88-3.01-1.07-1.28-.23-1.16 1.69-1.11 2.83.04.91.54 1.86.74 2.47.1.28.12.57.37.63.44.1 1.89-.45 2.3-.67.87-.47 1.55-1.2 2.28-1.69l.04-.71c-.45-.22-.97-.37-1.61-.4.44-.22 1.09-.22 1.49-.47 0-.09.01-.19.01-.28-.73-.06-1.01-.38-1.5-.64m-7.6-1.34c-.65.66 1.86 1.54 2.65 1.59 0-.42.25-.8.2-1.09-.95-.17-2.2-.06-2.85-.5m8.13.31c0 .06-.08.04-.1.09.85.64 1.48.78 2.64.72.52-.36.98-.79 1.52-1.14-1.24.11-2.82.87-4.06.33M26.97 71c-.03-.72-.22-2.2-.68-2.46-.97-.54-2.69 1.1-3.41 1.35.08.23.2.4.21.69.43-.11.95-.04 1.33.13-.43.05-.91.05-1.19.25-.11.29.03.69-.04 1.09 1.02.29 2.19.44 3.48.47.25-.32.33-.92.3-1.52m-16.69-1.86c-.21-.15-1.61-1.92-1.8-1.85-2.54.97-4.92 2.65-7.04 4.24 2.03 4.21 2.84 9.36 2.99 14.32 2.32 1.05 4.34 2.56 7.48 2.72-.35-2.49-.69-4.72-.9-7.07-.78-.33-1.92.01-2.66-.1 0-.86 1.13-.37 1.23-.96.07-.44-.62-.47-.4-1.16.58.21.88.65 1.5.82.56-1.19-.01-3.3.07-4.3.02-.18.1-1.04.53-.89.38.13-.02 2.27.02 3.21.04.87-.11 1.7.26 2.25 3.03-.4 6.12-.65 9.39-.74-.71-.3-1.57-.59-2.51-1.11-.52-.27-2.12-.85-2.27-1.32-.23-.75.62-1.15.76-1.79-1.53.81-1.83-.78-2.19-1.9-.33-1.02-.52-1.78-.59-2.37-1.32-.6-2.74-1.22-3.87-2m15.35-1.63c2.12-.99 2.5 3.71 1.67 5.23.13.46.57.62.75 1.03-1.18 2.05-2.49 3.96-3.7 5.99.9-.55 2.18-.1 3.24-.51.38-.14.66-1 .95-1.68.8-1.88 1.65-4.26 2.02-6.05.09-.41.31-1.3.26-1.66-.09-.65-1-1.14-1.46-1.54-.86-.74-1.4-1.4-2.3-2.1-.35.53-1.13.87-1.43 1.29M5.45 49.34c-1.02 1.07-.8 3.08-.68 4.51 1.82-1.1 4.24.09 4.21 1.99.87-.03.32-1.05.17-1.72-.51-2.17.86-4.52.06-6.51-1.55.12-2.84.74-3.76 1.73m7.2-6.23c-2.28.62-5.21 2.23-6.14 4.21.73-.1 1.23-.45 1.95-.5.26-.01.62.11.93.04.62-.15 1.14-1.5 1.6-2 .46-.49 1.01-.7 1.39-1.15.24-.11.59-.1.61-.44-.1-.11-.22-.2-.34-.16m11.87.58c-2.37-1.29-6.38-2.26-8.89-1.05-2.04.98-4.78 2.61-5.71 4.66.87 1.99-.27 3.82-.34 5.83-.04 1.07.52 2.01.56 3.18-.29.48-1.2.53-1.84.5-.21-1.03-.58-2.19-1.69-2.31-1.54-.16-2.68 1.08-2.75 2.38-.08 1.54 1.21 4.08 3.05 3.9.71-.07.88-.76 1.66-.75.42.81-.65 1.07-.76 1.64-.03.15.09.74.15 1.02.34 1.34 1.09 3.06 1.82 4.08.93 1.3 2.76 1.48 4.72 1.61.35-.73 1.64-.67 2.48-.47-1-.4-1.94-1.33-2.72-2.17-.89-.95-1.8-1.97-1.84-3.22 1.69 2.27 3.08 4.25 6.15 5.25 2.32.75 5.03-.35 6.83-1.56.73-.51 1.17-1.31 1.71-2.05 1.96-2.74 2.88-6.66 2.68-10.46-.08-1.57-.08-3.13-.63-4.18-.56-1.11-2.47-2.1-3.6-1.09-.2-1.09.93-1.74 2.27-1.35-.95-1.2-1.95-2.64-3.31-3.39m4.41 35.37c1.84-.88 5.3-2.39 6.46.01.43.88.93 2.38 1.14 3.3.32 1.29-.33 3.99-1.7 4.43-1.2.38-2.62.36-4.07.07a2.2 2.2 0 0 1-.49-.62c-1.05-.04-2.02.05-2.84.46.08.75-.44.87-.93 1.01-.36 1.39.73 3.21.47 4.47-.19.9-1.33 1.04-2.17 1.21-.03.51.03.92.09 1.35-.19.69-1.05 1.07-1.87 1.17-2.69.31-6.78.46-9.35-.45-.73-1.71-1.29-3.8-1.9-5.76-2.52.26-4.56-1.05-6.49-1.92-.66-.29-1.58-.46-1.83-.98-.24-.49-.14-1.45-.21-2.35-.15-2.29-.27-4.52-.9-6.87-.28-1.06-.77-1.99-1.11-3-.32-.96-.87-2.12-1.02-3.06-.21-1.39 1.14-1.47 2.01-2.08 1.34-.93 2.4-1.44 3.84-2.29.43-.26 1.73-.88 1.87-1.18.3-.57-.5-1.39-.71-1.84-.34-.72-.52-1.32-.57-2.03-1.2-.19-2.13-.89-2.69-1.68-.92-1.31-1.55-3.74-.76-5.57.07-.15.37-.44.42-.66.09-.45-.17-1.02-.19-1.49-.08-2.4.42-4.46 2.09-5.19.67-2.61 3.09-3.47 5.36-4.77.86-.49 1.79-.79 2.76-1.14 3.49-1.24 8.82-1 11.7 1.11 1.22.9 3.18 2.79 3.88 4.17 1.85 3.62 1.72 9.66.42 14.07-.17.59-.42 1.47-.77 2.17-.25.5-1.01 1.49-.91 1.93.09.45 1.74 1.67 2.08 1.99.64.6 1.85 1.38 1.94 2.14.11.79-.36 1.88-.6 2.65-.78 2.57-1.56 4.94-2.45 7.22" style="fill:none;stroke:none;stroke-width:.75;stroke-linecap:butt"/><g transform="translate(16.397 -33.413)"><title>Sheet.18445</title><title>Sheet.18446</title><path d="M.19 94.71c.1-.13.65-.33 1.43.04 0 0-.92.15-.84 1.63l-.39-.08S0 94.96.19 94.71" style="fill:#f7e4cd;stroke:none;stroke-width:1"/><title>Sheet.18447</title><path d="M.19 94.71c.1-.13.65-.33 1.43.04 0 0-.92.15-.84 1.63l-.39-.08S0 94.96.19 94.71" style="fill:none;stroke:none;stroke-width:.75;stroke-linecap:butt"/></g></g></g></svg>