<svg xmlns="http://www.w3.org/2000/svg" xml:space="preserve" width="56.695" height="25.51" style="font-size:12px;overflow:visible;color-interpolation-filters:sRGB;fill-rule:evenodd;stroke-linecap:square;stroke-miterlimit:3" viewBox="0 0 56.695 25.51"><g transform="translate(-5.67 -2.554)"><title>Page-1</title><g transform="translate(5.67 -34.016)"><title>Kafka.18352</title><title>Sheet.18353</title><path d="M5.51 38.88c-.29-.29-.69-.51-1.1-.51-.46 0-.81.17-1.1.45s-.47.68-.47 1.13.18.84.47 1.12.69.45 1.1.45c.46 0 .81-.17 1.1-.45s.47-.67.47-1.12c0-.4-.18-.79-.47-1.07m-1.1 21.45c.46 0 .81-.17 1.1-.45s.47-.67.47-1.12-.18-.85-.47-1.13-.69-.45-1.1-.45c-.46 0-.81.17-1.1.45s-.47.68-.47 1.13.18.84.47 1.12c.23.28.64.45 1.1.45m8.65-4.78c.4-.12.75-.34.98-.74l.06-.05c.17-.34.23-.79.12-1.13a1.6 1.6 0 0 0-.76-.96c-.35-.22-.81-.22-1.16-.11-.4.11-.75.34-.98.73-.24.4-.29.79-.18 1.19.12.39.35.73.76.95.29.23.75.23 1.16.12m-7.03-7.78c-.4-.39-.98-.67-1.62-.67s-1.22.28-1.62.67c-.41.4-.7.96-.7 1.58s.23 1.18.7 1.63c.4.4.98.68 1.62.68s1.22-.28 1.62-.68c.41-.39.7-.95.7-1.63-.06-.62-.29-1.18-.7-1.58m-.92-2.7c.92.17 1.74.56 2.38 1.24.11.11.17.23.29.34l1.56-.9c-.23-.62-.23-1.3-.06-1.92.24-.84.76-1.58 1.63-2.03.81-.45 1.74-.56 2.55-.33.87.22 1.63.78 2.09 1.57.47.79.58 1.75.35 2.59-.23.85-.75 1.58-1.63 2.03l-.17.06c-.75.34-1.57.39-2.38.22-.64-.17-1.22-.5-1.68-1.01l-1.57.9c.18.45.29 1.01.29 1.52 0 .56-.11 1.07-.29 1.52l1.57.9c.46-.5 1.04-.84 1.68-1.01.87-.23 1.8-.11 2.61.34h.06a3.26 3.26 0 0 1 1.57 2.02c.23.85.11 1.75-.35 2.54v.05c-.46.79-1.22 1.3-2.03 1.53-.87.22-1.8.11-2.61-.34a3.48 3.48 0 0 1-1.63-2.03c-.17-.62-.17-1.3.06-1.91l-1.57-.91c-.11.12-.17.23-.29.34-.63.62-1.45 1.07-2.38 1.24v1.8c.64.12 1.28.45 1.69.9.64.62.98 1.47.98 2.37s-.4 1.75-.98 2.37c-.64.61-1.45 1.01-2.44 1.01-.93 0-1.8-.4-2.44-1.01-.64-.62-.98-1.47-.98-2.37 0-.96.4-1.8.98-2.37.47-.45 1.05-.78 1.69-.9v-1.8c-.93-.17-1.75-.56-2.38-1.24A4.17 4.17 0 0 1 0 49.35c0-1.18.52-2.25 1.28-3.04.63-.62 1.45-1.07 2.38-1.24v-1.8c-.64-.11-1.22-.45-1.69-.9-.64-.62-.98-1.47-.98-2.42 0-.91.4-1.81.98-2.37.64-.62 1.45-1.01 2.44-1.01.93 0 1.8.39 2.44 1.01s.98 1.46.98 2.37c0 .95-.4 1.8-.98 2.36-.47.45-1.05.79-1.69.9-.05.06-.05 1.86-.05 1.86m8.87-1.18c-.23-.4-.58-.62-.98-.73-.41-.12-.81-.06-1.22.17-.41.22-.64.56-.75.95-.12.4-.06.85.17 1.19.23.39.58.61.99.73.4.11.81.05 1.21-.17.35-.23.64-.56.7-.96.17-.39.12-.84-.12-1.18" style="fill:#231f20;stroke:none;stroke-width:.75;stroke-linecap:butt"/><g transform="translate(21.064 -7.772)"><title>Sheet.18354</title><path d="M0 52.17h1.74v5.35l2.55-2.76h2.15l-3.13 3.21 3.07 4.11H4.35l-2.61-3.72v3.66H0Z" style="fill:#231f20;stroke:none;stroke-width:.75;stroke-linecap:butt"/></g><g transform="translate(27.737 -7.603)"><title>Sheet.18355</title><path d="M1.8 58.25c0 .9.64 2.25 2.26 2.25.99 0 1.63-.51 1.97-1.18.18-.34.24-.68.29-1.01 0-.34-.05-.74-.23-1.02C5.8 56.62 5.11 56 4 56c-1.39-.06-2.2 1.12-2.2 2.25m6.27 3.6h-1.8v-1.07c-.47.85-1.45 1.3-2.5 1.3-2.38 0-3.77-1.8-3.77-3.89 0-2.31 1.68-3.88 3.77-3.88 1.34 0 2.15.73 2.5 1.29v-1.07h1.8z" style="fill:#231f20;stroke:none;stroke-width:.75;stroke-linecap:butt"/></g><g transform="translate(36.848 -7.828)"><title>Sheet.18356</title><path d="M.93 56.11H0v-1.35h.93v-.4c0-2.19 1.68-2.31 2.96-2.31v1.36c-.47 0-1.16 0-1.16 1.01v.34h1.16v1.35H2.73v5.97H.93z" style="fill:#231f20;stroke:none;stroke-width:.75;stroke-linecap:butt"/></g><g transform="translate(41.954 -7.772)"><title>Sheet.18357</title><path d="M0 52.17h1.74v5.35l2.55-2.76h2.15l-3.07 3.21 3.07 4.11H4.41l-2.67-3.72v3.66H0Z" style="fill:#231f20;stroke:none;stroke-width:.75;stroke-linecap:butt"/></g><g transform="translate(48.685 -7.603)"><title>Sheet.18358</title><path d="M1.74 58.25c0 .9.64 2.25 2.26 2.25.99 0 1.63-.51 1.98-1.18.17-.34.23-.68.29-1.01 0-.34-.06-.74-.24-1.02-.29-.67-.98-1.29-2.08-1.29-1.4-.06-2.21 1.12-2.21 2.25m6.27 3.6H6.27v-1.07c-.47.85-1.45 1.3-2.5 1.3-2.38 0-3.77-1.8-3.77-3.89 0-2.31 1.68-3.88 3.77-3.88 1.34 0 2.15.73 2.5 1.29v-1.07h1.74z" style="fill:#231f20;stroke:none;stroke-width:.75;stroke-linecap:butt"/></g></g></g></svg>