<svg xmlns="http://www.w3.org/2000/svg" xml:space="preserve" width="56.697" height="34.015" style="font-size:12px;overflow:visible;color-interpolation-filters:sRGB;fill-rule:evenodd;stroke-linecap:square;stroke-miterlimit:3" viewBox="0 0 56.697 34.015"><defs><linearGradient id="a" x1="0" x2="12.905" y1="60.324" y2="60.324" gradientTransform="scale(.95083 1.05172)" gradientUnits="userSpaceOnUse"><stop offset="0" stop-color="#41873f"/><stop offset=".33" stop-color="#418b3d"/><stop offset=".64" stop-color="#409637"/><stop offset=".93" stop-color="#3fa92d"/><stop offset="1" stop-color="#3fae2a"/></linearGradient></defs><g transform="translate(-8.98 -8.98)"><title>Page-1</title><g transform="translate(8.98 -34.016)"><title>Node JS.18343</title><title>layer1</title><g transform="translate(21.646)"><title>path41</title><path d="M6.31 77.01a1.093 1.055 0 0 1-.54-.14l-1.74-.99c-.27-.14-.14-.2-.05-.22a3.48 3.358-180 0 0 .79-.35.137.132 0 0 1 .127 0l1.363.78a.173.167-180 0 0 .164 0l5.216-2.91a.164.158-180 0 0 .082-.14l-.002-5.82a.173.167-180 0 0-.082-.14L6.4 64.13a.164.158-180 0 0-.137 0L1.04 67.04a.164.158-180 0 0-.082.14L.96 73a.164.158-180 0 0 .082.132l1.428.798c.77.38 1.25-.07 1.25-.51v-5.7a.155.15 0 0 1 .155-.15h.665a.155.15 0 0 1 .155.15l-.005 5.74a1.449 1.398 0 0 1-1.55 1.57 2.232 2.154 0 0 1-1.23-.35l-1.36-.76a1.102 1.064 0 0 1-.55-.88v-5.82a1.102 1.064 0 0 1 .55-.88l5.22-2.91a1.148 1.108 0 0 1 1.1 0l5.22 2.91a1.102 1.064 0 0 1 .55.88v5.82a1.102 1.064 0 0 1-.55.88l-5.22 2.91a1.093 1.055 0 0 1-.56.18" style="fill:#000;stroke:none;stroke-width:8.97978973;stroke-linecap:butt"/></g><g transform="translate(26.684 -3.798)"><title>path43</title><path d="M2.73 77.01C.45 77.01 0 76 0 75.15A.146.14 0 0 1 .155 75H.83a.155.15 0 0 1 .146.123c.094.657.404.997 1.824.997 1.1 0 1.56-.23 1.56-.8 0-.32-.13-.56-1.82-.73-1.43-.14-2.31-.44-2.31-1.54 0-1.11.91-1.63 2.38-1.63 1.67 0 2.5.56 2.6 1.76a.155.15 0 0 1-.155.158l-.675.002a.155.15 0 0 1-.146-.114c-.164-.696-.554-.886-1.624-.886-1.08 0-1.34.41-1.34.71s.16.47 1.82.67c1.66.21 2.37.5 2.37 1.59s-1.08 1.7-2.73 1.7m7.53-6.1a1.011.976 0 1 1-1.011-.976 1.011.976 0 0 1 1.011.976m-1.82 0a.847.817-180 1 0 .838-.809.847.817-180 0 0-.865.809Zm.46-.54h.39c.14 0 .39 0 .39.29a.255.246 0 0 1-.21.264c.16-.004.17.106.19.246a1.111 1.072-180 0 0 .05.29h-.29v-.35c0-.01 0-.09-.12-.09h-.2v.43h-.23Zm.21.47h.17a.155.15-180 0 0 .173-.158c.007-.152-.103-.152-.163-.152h-.18Z" style="fill:#000;stroke:none;stroke-width:8.97978973;stroke-linecap:butt"/></g><g transform="translate(0 -12.513)"><title>path45</title><path d="M12.42 67.18a.665.642-180 0 0-.337-.563L6.54 63.55a.656.633-180 0 0-.3-.088l-.05-.002a.665.642-180 0 0-.31.088L.34 66.63a.674.65-180 0 0-.337.563L0 75.47a.328.316-180 0 0 .164.281.319.308-180 0 0 .328 0L3.81 73.92a.674.65-180 0 0 .337-.563L4.14 69.49a.665.642 0 0 1 .337-.563l1.403-.777a.665.642 0 0 1 .337-.088.656.633 0 0 1 .337.088l1.406.78a.665.642 0 0 1 .337.563L8.3 73.36a.674.65-180 0 0 .337.563l3.273 1.847a.328.316-180 0 0 .337 0 .337.325-180 0 0 .164-.281zm25.85-11.63a.21.202-180 0 0-.255 0c-.095.06-.085.17-.085.28v8.25c0 .08-.12.15-.2.19a.31.299 0 0 1-.273 0l-1.397-.81a.683.66-180 0 0-.674 0l-5.466 3.09c-.21.11-.22.32-.22.56v6.15c0 .23 0 .44.22.56l5.46 3.09a.62.598-180 0 0 .638 0l5.362-3.09c.21-.11.14-.32.14-.56V57.93c0-.23 0-.45-.17-.56zm-.34 15.73c0 .07-.12.12-.17.15l-1.94 1.05a.21.202 0 0 1-.191 0l-2.039-1.05c-.06-.06-.22-.06-.22-.15v-2.11c0-.07.16-.12.21-.14l1.97-1.07a.228.22 0 0 1 .2 0l2 1.07c.06 0 .19.07.19.14zm18.43-2.03a.665.642-180 0 0 .337-.563l-.007-1.497a.665.642-180 0 0-.337-.563L50.89 63.54a.665.642-180 0 0-.674 0l-5.536 3.09a.665.642-180 0 0-.337.563l-.003 6.147a.665.642-180 0 0 .337.563l5.463 3.027a.665.642-180 0 0 .656 0l3.324-1.76a.337.325-180 0 0 0-.563l-5.57-3.087a.337.325 0 0 1-.164-.281l-.006-1.929a.337.325 0 0 1 .164-.281l1.736-.969a.337.325 0 0 1 .337 0l1.743.97a.337.325 0 0 1 .164.281l-.004 1.519a.337.325-180 0 0 .501.281z" style="fill:#333;stroke:none;stroke-width:8.97978973;stroke-linecap:butt"/></g><g transform="translate(49.305 -17.977)"><title>path47</title><path d="M1.13 74.42a.128.123 0 0 1 .127 0l1.063.59a.128.123 0 0 1 .064.106L2.39 76.3a.128.123 0 0 1-.064.106l-1.066.584a.128.123 0 0 1-.127 0L.06 76.41a.128.123 0 0 1-.064-.106L0 75.08a.128.123 0 0 1 .064-.105z" style="fill:#699f63;stroke:none;stroke-width:8.97978973;stroke-linecap:butt"/></g><g transform="translate(14.422 -12.58)"><title>_Clipping_Path_2</title><path d="M6.47 63.53a.665.642-180 0 0-.665 0L.34 66.6a.665.642-180 0 0-.337.554L0 73.3a.665.642-180 0 0 .337.554L5.8 76.93a.665.642-180 0 0 .665 0l5.465-3.07a.665.642-180 0 0 .337-.554l.003-6.156a.665.642-180 0 0-.337-.554z" style="fill:url(#a);stroke:none;stroke-width:8.97978973;stroke-linecap:butt"/></g><g transform="translate(14.422 -12.58)"><title>clip-path</title><title>_Clipping_Path_</title><path d="M6.47 63.53a.665.642-180 0 0-.665 0L.34 66.6a.665.642-180 0 0-.337.554L0 73.3a.665.642-180 0 0 .337.554L5.8 76.93a.665.642-180 0 0 .665 0l5.465-3.07a.665.642-180 0 0 .337-.554l.003-6.156a.665.642-180 0 0-.337-.554z" style="fill:#000;stroke:none;stroke-width:.75;stroke-linecap:butt"/></g></g></g></svg>