<svg xmlns="http://www.w3.org/2000/svg" xml:space="preserve" width="53.859" height="49.766" style="font-size:12px;overflow:visible;color-interpolation-filters:sRGB;fill-rule:evenodd;stroke-linecap:square;stroke-miterlimit:3" viewBox="0 0 53.859 49.766"><g transform="translate(-5.386 -9.133)"><title>Page-1</title><g transform="translate(5.386 -34.016)"><title>OpenShift cluster.18334</title><title>Sheet.18335</title><g transform="translate(6.979 -23.558)"><title>Sheet.18336</title><path d="M8.65 89.05 0 92.23c.11 1.42.33 2.8.71 4.15l8.2-2.99c-.26-1.5-.37-2.92-.26-4.34m38.23-9.65c-.59-1.24-1.3-2.47-2.08-3.59l-8.65 3.17c1 1.05 1.86 2.21 2.56 3.44-.03-.03 8.17-3.02 8.17-3.02" style="fill:#c32034;stroke:none;stroke-width:3.05999994;stroke-linecap:butt"/></g><g transform="translate(3.1 -26.414)"><title>Sheet.18337</title><path d="M31.74 79.78c1.78.82 3.34 2.02 4.68 3.36l8.64-3.17c-2.37-3.37-5.68-6.21-9.65-8.08-12.36-5.79-27.09-.41-32.85 12.04C.71 87.97 0 92.23.33 96.38l8.65-3.18c.15-1.91.6-3.78 1.45-5.61 3.71-8.07 13.25-11.55 21.31-7.81" style="fill:#db212f;stroke:none;stroke-width:3.05999994;stroke-linecap:butt"/></g><g transform="translate(0 -12.373)"><title>Sheet.18338</title><path d="M8.2 84.94 0 87.93c.74 2.99 2.08 5.87 3.86 8.45l8.61-3.18a16.45 16.45 0 0 1-4.27-8.26" style="fill:#ea2227;stroke:none;stroke-width:3.05999994;stroke-linecap:butt"/></g><g transform="translate(7.98)"><title>Sheet.18339</title><path d="M36.08 69.28c-.15 1.9-.63 3.77-1.45 5.6-3.75 8.08-13.32 11.63-21.34 7.82-1.78-.83-3.34-2.02-4.68-3.37L0 82.51c2.38 3.36 5.64 6.2 9.65 8.07 12.36 5.8 27.1.42 32.85-12.03 1.86-4.04 2.56-8.3 2.23-12.45z" style="fill:#db212f;stroke:none;stroke-width:3.05999994;stroke-linecap:butt"/></g><g transform="translate(37.986 -25.633)"><title>Sheet.18340</title><path d="M8.2 84.27 0 87.26c1.52 2.76 2.26 5.94 2 9.12l8.62-3.18c-.23-3.06-1.08-6.09-2.42-8.93" style="fill:#ea2227;stroke:none;stroke-width:3.05999994;stroke-linecap:butt"/></g><g transform="translate(7 -26.051)"><title>Sheet.18341</title><path d="m0 94.7 8.61-3.14-.04 1.72-8.31 3.1zm36.12-13.27 8.76-3 .93 1.35-8.5 2.99c-.04.04-1.19-1.34-1.19-1.34" style="fill:#ad213a;stroke:none;stroke-width:3.05999994;stroke-linecap:butt"/></g><g transform="translate(7.936 -11.192)"><title>Sheet.18342</title><path d="m0 93.69 8.61-3.11 2.6 2.43-9.06 3.37c.04 0-2.15-2.69-2.15-2.69m44.89-16.33-8.76 3.14-.63 3.47 9.36-3.28c-.04-.04.03-3.33.03-3.33" style="fill:#ba2034;stroke:none;stroke-width:3.05999994;stroke-linecap:butt"/></g></g></g></svg>