<svg xmlns="http://www.w3.org/2000/svg" xml:space="preserve" width="56.481" height="45.269" style="font-size:12px;overflow:visible;color-interpolation-filters:sRGB;fill-rule:evenodd;stroke-linecap:square;stroke-miterlimit:3" viewBox="0 0 56.481 45.269"><g transform="translate(-8.939 -8.937)"><title>Page-1</title><g transform="translate(8.718 -34.016)"><title>PowerShell.18329</title><title>layer1</title><title>path6</title><path d="m56.68 46.2-6.37 38.78a4.156 4.285 0 0 1-4.14 3.24H3.33c-1.97 0-3.33-1.45-3.08-3.24L6.62 46.2a3.52 3.63 0 0 1 1.16-2.03 4.478 4.618 0 0 1 2.98-1.21h42.83a2.91 3.001 0 0 1 3 2.15 2.445 2.521 0 0 1 .09 1.09" style="fill:#0078d7;stroke:none;stroke-width:8.93937016;stroke-linecap:butt"/><g transform="translate(7.783 -2.226)"><title>path10</title><path d="m48.81 47.33-6.32 39.04c-.11.68-.41 1.33-.85 1.85C31.66 78.1 10.85 57.09 0 46.4c.81-.77 1.87-1.2 2.97-1.21h42.84c1.37-.1 2.61.79 3 2.14" style="fill:#000;fill-opacity:.25;stroke:none;stroke-width:8.93937016;stroke-linecap:butt"/></g><g transform="translate(13.035 -5.291)"><title>path8-6</title><path d="M2.07 87.85a2.176 2.244 0 0 1-1.3-4.05l18.39-13.95L5.9 56.98a2.167 2.235 0 0 1-.09-3.17 2.194 2.263 0 0 1 3.09-.09l15.23 14.7a2.167 2.235 0 0 1-.2 3.44L3.36 87.41a2.185 2.253 0 0 1-1.29.44m24.06.37H16.12a2.24 2.31 0 1 1 0-4.62h10.01a2.24 2.31 0 0 1 0 4.62" style="fill:#fff;stroke:none;stroke-width:8.93937016;stroke-linecap:butt"/></g></g></g></svg>