<svg xmlns="http://www.w3.org/2000/svg" xml:space="preserve" width="56.696" height="56.726" style="font-size:12px;overflow:visible;color-interpolation-filters:sRGB;fill-rule:evenodd;stroke-linecap:square;stroke-miterlimit:3" viewBox="0 0 56.696 56.726"><g transform="translate(-8.981 -8.983)"><title>Page-1</title><g transform="translate(8.981 -34.016)"><title>Python.18323</title><title>layer1</title><g transform="translate(0 -14.498)"><title>path6</title><path d="M0 85.41c0-.08.05-.16.05-.24.05-.83.06-1.66.15-2.48a14.182 14.19 0 0 1 2.56-7.46 7.469 7.474 0 0 1 5.12-2.99 7.001 7.005 0 0 1 .9-.05H27.9c.37 0 .37 0 .37-.38v-1.32c0-.27-.08-.33-.34-.33H14.9c-.22 0-1.4-.07-1.4-.3v-6.5c0-.98 1.56-1.8 2.19-2.5a7.892 7.897 0 0 1 3.21-2.06 19.68 19.693 0 0 1 4.61-1.05 38.776 38.8 0 0 1 6.47-.2 21.111 21.124 0 0 1 6.83 1.27 8.387 8.392 0 0 1 3.82 2.7 5.4 5.403 0 0 1 1.12 3.6c-.06 1.1 0 2.22 0 3.32v6.14c0 1.2 0 2.41-.06 3.6a6.407 6.411 0 0 1-4.16 5.96 9.494 9.5 0 0 1-3.7.71h-13.5a7.721 7.726-180 0 0-4.13 1.09 7.127 7.131-180 0 0-3.12 4.37 10.232 10.238-180 0 0-.38 2.81v6.14c0 .4 0 .4-.42.4-1.46 0-2.94.05-4.41 0a6.155 6.159 0 0 1-3.91-1.64 9.782 9.788 0 0 1-2.7-4.21 17.899 17.91 0 0 1-1.02-4.52c-.09-.99-.12-1.98-.19-2.97 0-.11-.05-.22-.05-.33Z" style="fill:#3772a4;stroke:none;stroke-width:8.98110008;stroke-linecap:butt"/></g><g transform="translate(17.998 -47.705)"><title>path8</title><path d="M0 97.01a2.7 2.702 0 0 1 5.4 0 2.7 2.702 0 1 1-5.4 0" style="fill:#000;stroke:none;stroke-width:8.98110008;stroke-linecap:butt"/></g><g transform="translate(14.956)"><title>path10</title><path d="M41.74 71.81a1.5 1.5-180 0 0-.06.24c-.04.83-.05 1.66-.14 2.48a14.182 14.19 0 0 1-2.57 7.43 7.469 7.474 0 0 1-5.12 2.99 7.001 7.005 0 0 1-.9.05H13.84c-.38 0-.38 0-.38.38v1.32c0 .28.08.34.34.34h13.03c.23 0 .3.06.3.3v6.5a3.8 3.8 0 0 1-1.1 2.49 7.892 7.897 0 0 1-3.19 2.09 19.68 19.693 0 0 1-4.6 1.05 38.776 38.8 0 0 1-6.48.2 21.111 21.124 0 0 1-6.82-1.27 8.387 8.392 0 0 1-3.82-2.7A5.4 5.403 0 0 1 0 92.1c.05-1.1 0-2.22 0-3.32v-6.14c0-1.2 0-2.41.05-3.6a6.407 6.411 0 0 1 4.16-5.96 9.494 9.5 0 0 1 3.71-.71h13.5a7.721 7.726-180 0 0 4.12-1.09 7.127 7.131-180 0 0 3.12-4.37 10.232 10.238-180 0 0 .38-2.81v-6.14c0-.4 0-.4.41-.4 1.47 0 2.95-.05 4.41 0a6.155 6.159 0 0 1 3.92 1.65 9.782 9.788 0 0 1 2.7 4.2 17.899 17.91 0 0 1 1 4.57c.09.99.12 1.98.18 2.97a2.925 2.926-180 0 0 .06.32c.01.18.02.36.02.54" style="fill:#ffda4b;stroke:none;stroke-width:8.98110008;stroke-linecap:butt"/></g><g transform="translate(33.755 -4.557)"><title>path12</title><path d="M5.4 97.01a2.7 2.702 0 1 1-5.4 0 2.7 2.702 0 0 1 5.4 0" style="fill:#000;stroke:none;stroke-width:8.98110008;stroke-linecap:butt"/></g></g></g></svg>