<svg xmlns="http://www.w3.org/2000/svg" xmlns:xlink="http://www.w3.org/1999/xlink" xml:space="preserve" width="56.693" height="45.354" style="font-size:12px;overflow:visible;color-interpolation-filters:sRGB;fill-rule:evenodd;stroke-linecap:square;stroke-miterlimit:3" viewBox="0 0 56.693 45.354"><defs><linearGradient id="a" x1="0" x2="1" y1="0" y2="0" gradientTransform="rotate(-90 .5 .5)"><stop offset="0" stop-color="#a67af4"/><stop offset=".775" stop-color="#b796f9"/></linearGradient><linearGradient id="e" x1="0" x2="27.455" y1="66.297" y2="66.297" gradientTransform="scale(1.11734 .89498)" gradientUnits="userSpaceOnUse"><stop offset="0" stop-color="#a67af4"/><stop offset=".485" stop-color="#ae87f6"/><stop offset=".9" stop-color="#b796f9"/></linearGradient><linearGradient id="f" x1="0" x2="18.84" y1="74.912" y2="74.912" gradientTransform="scale(1.11734 .89498)" gradientUnits="userSpaceOnUse"><stop offset="0" stop-color="#e6e6e6"/><stop offset=".9" stop-color="#f2f2f2"/></linearGradient><linearGradient xlink:href="#a" id="b" x1="0" x2="11.793" y1="81.959" y2="81.959" gradientTransform="scale(1.11734 .89498)" gradientUnits="userSpaceOnUse"/><linearGradient xlink:href="#a" id="c" x1="0" x2="11.793" y1="81.959" y2="81.959" gradientTransform="scale(1.11734 .89498)" gradientUnits="userSpaceOnUse"/><linearGradient xlink:href="#a" id="d" x1="0" x2="11.793" y1="81.959" y2="81.959" gradientTransform="scale(1.11734 .89498)" gradientUnits="userSpaceOnUse"/></defs><g transform="translate(-5.67 -4.535)"><title>Page-1</title><g transform="translate(5.67 -34.016)"><title>Repository.18308</title><title>Sheet.18309</title><g transform="translate(12.917 -7.66)"><title>Sheet.18310</title><path d="M0 67.663h4.846v16.242H0z" style="fill:#773adc;stroke:none;stroke-width:.75;stroke-linecap:butt"/></g><g transform="rotate(-90 9.772 48.772)"><title>Sheet.18311</title><path d="M0 67.663h4.846v16.242H0z" style="fill:#773adc;stroke:none;stroke-width:.75;stroke-linecap:butt"/></g><g transform="rotate(-45 3.678 38.341)"><title>Sheet.18312</title><path d="M0 67.663h4.846v16.242H0z" style="fill:#773adc;stroke:none;stroke-width:.75;stroke-linecap:butt"/></g><g transform="translate(9.223)"><title>Sheet.18313</title><ellipse cx="6.588" cy="78.628" rx="6.588" ry="5.277" style="fill:url(#b);stroke:none;stroke-width:.75;stroke-linecap:butt"/></g><g transform="translate(43.516 -22.51)"><title>Sheet.18314</title><ellipse cx="6.588" cy="78.628" rx="6.588" ry="5.277" style="fill:url(#c);stroke:none;stroke-width:.75;stroke-linecap:butt"/></g><g transform="translate(32.615 -5.226)"><title>Sheet.18315</title><ellipse cx="6.588" cy="78.628" rx="6.588" ry="5.277" style="fill:url(#d);stroke:none;stroke-width:.75;stroke-linecap:butt"/></g><g transform="translate(0 -20.783)"><title>Sheet.18316</title><ellipse cx="15.338" cy="71.62" rx="15.338" ry="12.286" style="fill:url(#e);stroke:none;stroke-width:.75;stroke-linecap:butt"/></g><g transform="translate(4.813 -24.638)"><title>Sheet.18317</title><ellipse cx="10.525" cy="75.475" rx="10.525" ry="8.431" style="fill:url(#f);stroke:none;stroke-width:.75;stroke-linecap:butt"/></g></g></g></svg>