<svg xmlns="http://www.w3.org/2000/svg" xml:space="preserve" width="40.09" height="40.091" style="font-size:12px;overflow:visible;color-interpolation-filters:sRGB;fill-rule:evenodd;stroke-linecap:square;stroke-miterlimit:3" viewBox="0 0 40.09 40.091"><g transform="translate(-13.972 -13.969)"><title>Page-1</title><g transform="translate(5.67 -34.016)"><title>REST.18303</title><title>layer1</title><g transform="rotate(-45 14.173 62.16)"><title>circle2</title><circle cx="20.044" cy="76.334" r="20.044" style="fill:#004b1c;stroke:none;stroke-width:8.97581005;stroke-linecap:butt"/></g><g transform="translate(14.17 -14.173)"><title>path4</title><path d="M28.35 68.03a20.044 20.044 0 0 1 0 28.35L0 68.03a20.044 20.044 0 0 1 28.35 0" style="fill:#006020;stroke:none;stroke-width:8.97581005;stroke-linecap:butt"/></g><g transform="translate(13.058 -22.98)"><title>path6</title><path d="m6.41 96.18-1.77-3.37a7 7-180 0 0-.51-.84 2.6 2.6-180 0 0-.51-.53 1.7 1.7-180 0 0-.56-.29 2.4 2.4-180 0 0-.65-.08H1.06v5.11H0V84.41h3.39a4.2 4.2 0 0 1 1.29.19 3.4 3.4 0 0 1 1.11.59 2.85 2.85 0 0 1 .77.97 3 3 0 0 1 .29 1.35 3.4 3.4 0 0 1-.18 1.15 3 3 0 0 1-.54.93 3.2 3.2 0 0 1-.85.69 4 4 0 0 1-1.12.42v.03a1.8 1.8 0 0 1 .44.26 2.6 2.6 0 0 1 .38.37 5 5 0 0 1 .36.51c.12.19.25.41.38.65l1.97 3.66zM1.06 85.41v4.66H3a3.2 3.2-180 0 0 1.09-.18 2.4 2.4-180 0 0 .84-.49 2.2 2.2-180 0 0 .54-.77 2.6 2.6-180 0 0 .19-1.01A2.04 2.04-180 0 0 5.02 86a2.8 2.8-180 0 0-1.94-.59Zm8.21 10.77V84.41h5.74v1h-4.65v4.31h4.28v.98h-4.28v4.48h4.93v1zm7.58-1.72a4 4-180 0 0 .65.4 5.3 5.3-180 0 0 1.48.48 4.4 4.4-180 0 0 .72.06 3.23 3.23-180 0 0 2.01-.52 1.77 1.77-180 0 0 .64-1.48 2 2-180 0 0-.15-.82 2 2-180 0 0-.49-.64 5 5-180 0 0-.83-.61c-.33-.19-.73-.41-1.18-.64q-.675-.345-1.29-.78a4.7 4.7 0 0 1-.88-.75 2.5 2.5 0 0 1-.5-.83 3 3 0 0 1-.16-1 2.66 2.66 0 0 1 .3-1.3 3 3 0 0 1 .82-.96 3.8 3.8 0 0 1 1.21-.62 5 5 0 0 1 1.48-.21 6.1 6.1 0 0 1 2.33.39v1.21a4.8 4.8-180 0 0-2.42-.65 3.7 3.7-180 0 0-.99.13 2.6 2.6-180 0 0-.82.38 1.8 1.8-180 0 0-.55.61 1.74 1.74-180 0 0-.2.85 2.1 2.1-180 0 0 .14.79 1.9 1.9-180 0 0 .43.64 4 4-180 0 0 .79.59c.32.2.72.41 1.2.65a14 14 0 0 1 1.29.77 5 5 0 0 1 .92.78 2.9 2.9 0 0 1 .54.86 2.7 2.7 0 0 1 .18 1.01 3.1 3.1 0 0 1-.28 1.36 2.65 2.65 0 0 1-.84.99 3.7 3.7 0 0 1-1.23.58 6 6 0 0 1-1.57.2 6 6 0 0 1-.64-.05 8 8 0 0 1-.78-.13 7 7 0 0 1-.75-.2 2.7 2.7 0 0 1-.58-.26Zm12.05-9.05v10.77h-1.09V85.41h-3.4v-1h7.89v1z" style="fill:#fff;stroke:none;stroke-width:8.97581005;stroke-linecap:butt"/></g></g></g></svg>