<svg xmlns="http://www.w3.org/2000/svg" xml:space="preserve" width="55.561" height="55.556" style="font-size:12px;overflow:visible;color-interpolation-filters:sRGB;fill-rule:evenodd;stroke-linecap:square;stroke-miterlimit:3" viewBox="0 0 55.561 55.556"><g transform="translate(-7.322 -7.326)"><title>Page-1</title><g transform="translate(6.793 -34.016)"><title>Slack.18274</title><title>Page-1</title><title>slack</title><g transform="translate(26.302 -6.443)"><title>Sheet.18277</title><title>Sheet.18278</title><path d="M10.25 51.21c-.83-2.6-3.64-4.03-6.23-3.18-2.6.85-4.02 3.64-3.17 6.23l12.79 39.37c.88 2.44 3.51 3.8 6.03 3.07 2.61-.75 4.22-3.54 3.38-6.12z" style="fill:#dfa22f;stroke:none;stroke-width:7.32422018;stroke-linecap:butt"/></g><g transform="translate(6.473)"><title>Sheet.18279</title><title>Sheet.18280</title><path d="M10.25 51.21a4.93 4.93 0 0 0-6.23-3.18c-2.6.85-4.02 3.64-3.17 6.23l12.79 39.37c.88 2.44 3.51 3.8 6.03 3.07 2.61-.75 4.22-3.54 3.38-6.12z" style="fill:#3cb187;stroke:none;stroke-width:7.32422018;stroke-linecap:butt"/></g><g transform="translate(6.443 -6.428)"><title>Sheet.18281</title><title>Sheet.18282</title><path d="M46.22 83.81a4.944 4.944 0 0 0 3.18-6.24 4.95 4.95 0 0 0-6.24-3.18L3.8 87.18a4.97 4.97 0 0 0-3.08 6.03c.76 2.63 3.55 4.22 6.13 3.38z" style="fill:#ce1e5b;stroke:none;stroke-width:.99999899"/><title>Sheet.18283</title><path d="M46.22 83.81a4.944 4.944 0 0 0 3.18-6.24 4.95 4.95 0 0 0-6.24-3.18L3.8 87.18a4.97 4.97 0 0 0-3.08 6.03c.76 2.63 3.55 4.22 6.13 3.38z" style="fill:none;stroke:none;stroke-width:7.32422018;stroke-linecap:butt"/></g><g transform="translate(15.384 -8.939)"><title>Sheet.18284</title><title>Sheet.18285</title><path d="m3.05 97.43 9.42-3.06-3.05-9.41L0 88.03Z" style="fill:#392538;stroke:none;stroke-width:.99999899"/><title>Sheet.18286</title><path d="m3.05 97.43 9.42-3.06-3.05-9.41L0 88.03Z" style="fill:none;stroke:none;stroke-width:7.32422018;stroke-linecap:butt"/></g><g transform="translate(35.213 -15.382)"><title>Sheet.18287</title><title>Sheet.18288</title><path d="M3.05 97.43c3.56-1.15 6.87-2.22 9.42-3.06l-3.05-9.41L0 88.03Z" style="fill:#bb242a;stroke:none;stroke-width:7.32422018;stroke-linecap:butt"/></g><g transform="translate(0 -26.257)"><title>Sheet.18289</title><title>Sheet.18290</title><path d="M46.22 83.81a4.944 4.944 0 0 0 3.18-6.24 4.95 4.95 0 0 0-6.24-3.18L3.8 87.19c-2.43.87-3.8 3.5-3.08 6.02.76 2.63 3.55 4.22 6.13 3.38z" style="fill:#72c5cd;stroke:none;stroke-width:.99999899"/><title>Sheet.18291</title><path d="M46.22 83.81a4.944 4.944 0 0 0 3.18-6.24 4.95 4.95 0 0 0-6.24-3.18L3.8 87.19c-2.43.87-3.8 3.5-3.08 6.02.76 2.63 3.55 4.22 6.13 3.38z" style="fill:none;stroke:none;stroke-width:7.32422018;stroke-linecap:butt"/></g><g transform="translate(8.94 -28.767)"><title>Sheet.18292</title><title>Sheet.18293</title><path d="M3.05 97.43c2.57-.84 5.88-1.91 9.42-3.06-1.15-3.56-2.23-6.86-3.05-9.41L0 88.03Z" style="fill:#248c73;stroke:none;stroke-width:7.32422018;stroke-linecap:butt"/></g></g></g></svg>