<svg xmlns="http://www.w3.org/2000/svg" xml:space="preserve" width="48.19" height="56.69" style="font-size:12px;overflow:visible;color-interpolation-filters:sRGB;fill-rule:evenodd;stroke-linecap:square;stroke-miterlimit:3" viewBox="0 0 48.19 56.69"><defs><linearGradient id="a" x1="0" x2="43.414" y1="69.593" y2="69.593" gradientTransform="scale(.90616 1.10356)" gradientUnits="userSpaceOnUse"><stop offset="0" stop-color="#198ab3"/><stop offset=".62" stop-color="#31d0f1"/><stop offset="1" stop-color="#32d4f5"/></linearGradient></defs><g transform="translate(-34 -34.004)"><title>Page-1</title><g transform="translate(34 -34.016)"><title>Template Spec.18266</title><title>Sheet.18267</title><title>Sheet.18268</title><path d="M14.75 68.02H3.44A3.443 3.422-180 0 0 0 71.44v11.25h6.89v-7.83h7.86zm30 0H33.44v6.84h7.86v7.83h6.89V71.44a3.443 3.422-180 0 0-3.44-3.42m-3.45 42.02v7.82h-7.86v6.85h11.31a3.443 3.422-180 0 0 3.44-3.42v-11.25zm-34.41 7.83v-7.83H0v11.24a3.443 3.422-180 0 0 3.44 3.43h11.31v-6.84z" style="fill:#32bedd;stroke:none;stroke-width:34;stroke-linecap:butt"/><g transform="translate(4.426 -4.399)"><title>Sheet.18269</title><path d="M1.97 124.71h35.4a1.973 1.96-180 0 0 1.97-1.96v-44a1.973 1.96-180 0 0-1.97-1.95H1.97A1.973 1.96-180 0 0 0 78.75v44.02a1.973 1.96-180 0 0 1.97 1.94" style="fill:url(#a);stroke:none;stroke-width:34;stroke-linecap:butt"/></g><g transform="translate(8.348 -8.307)"><title>Sheet.18270</title><path d="M.98 124.71h29.53a.986.98-180 0 0 .983-.977L31.49 85.61a.986.98-180 0 0-.983-.98H.98a.986.98-180 0 0-.983.98L0 123.73a.986.98-180 0 0 .983.977z" style="fill:#fff;stroke:none;stroke-width:34;stroke-linecap:butt"/></g><g transform="translate(15.243 -14.173)"><title>Sheet.18271</title><path d="M.98 124.71h15.74a.986.98-180 0 0 .983-.977l-.003-4.403a.986.98-180 0 0-.983-.977L.98 118.36a.986.98-180 0 0-.983.977L0 123.73a.986.98-180 0 0 .983.977z" style="fill:#5e9624;stroke:none;stroke-width:34;stroke-linecap:butt"/></g><g transform="translate(15.243 -25.168)"><title>Sheet.18272</title><path d="M.98 124.71h15.74a.986.98-180 0 0 .983-.977l-.003-4.403a.986.98-180 0 0-.983-.98H.98a.986.98-180 0 0-.983.98l.003 4.4a.986.98-180 0 0 .983.977z" style="fill:#76bc2d;stroke:none;stroke-width:34;stroke-linecap:butt"/></g><g transform="translate(15.243 -36.167)"><title>Sheet.18273</title><path d="M.98 124.71h15.74a.986.98-180 0 0 .983-.977l-.003-4.403a.986.98-180 0 0-.983-.977L.98 118.36a.986.98-180 0 0-.983.977L0 123.73a.986.98-180 0 0 .983.977z" style="fill:#86d633;stroke:none;stroke-width:34;stroke-linecap:butt"/></g></g></g></svg>