<svg xmlns="http://www.w3.org/2000/svg" xml:space="preserve" width="56.69" height="56.69" style="font-size:12px;overflow:visible;color-interpolation-filters:sRGB;fill-rule:evenodd;stroke-linecap:square;stroke-miterlimit:3" viewBox="0 0 56.69 56.69"><defs><linearGradient id="a" x1="0" x2="56.69" y1="41.34" y2="41.34" gradientUnits="userSpaceOnUse"><stop offset="0" stop-color="#0091e6"/><stop offset="1" stop-color="#0079bf"/></linearGradient></defs><g transform="translate(-7.324 -7.324)"><title>Page-1</title><g transform="translate(7.324 -34.016)"><title>Trello.18246</title><title>Page-1</title><title>trello</title><title>Sheet.18249</title><title>Sheet.18250</title><path d="M0 92.51a5.537 5.537-180 0 0 5.54 5.52h45.61a5.537 5.537-180 0 0 5.54-5.52V46.88a5.537 5.537-180 0 0-5.54-5.54H5.54A5.537 5.537-180 0 0 0 46.88Z" style="fill:url(#a);stroke:none;stroke-width:7.32422018;stroke-linecap:butt"/><g transform="translate(32.031 -24.52)"><title>Sheet.18251</title><title>Sheet.18252</title><path d="M0 95.39a2.66 2.66-180 0 0 2.66 2.64h11.97a2.66 2.66-180 0 0 2.66-2.64v-19.5a2.66 2.66-180 0 0-2.66-2.66H2.66A2.66 2.66-180 0 0 0 75.89Z" style="fill:#fff;stroke:none;stroke-width:7.32422018;stroke-linecap:butt"/></g><g transform="translate(7.37 -10.347)"><title>Sheet.18253</title><title>Sheet.18254</title><path d="M0 95.39a2.66 2.66-180 0 0 2.66 2.64h11.97a2.66 2.66-180 0 0 2.66-2.64V61.72a2.66 2.66-180 0 0-2.66-2.66H2.66A2.66 2.66-180 0 0 0 61.72Z" style="fill:#fff;stroke:none;stroke-width:7.32422018;stroke-linecap:butt"/></g></g></g></svg>