<svg xmlns="http://www.w3.org/2000/svg" xml:space="preserve" width="56.47" height="55.505" style="font-size:12px;overflow:visible;color-interpolation-filters:sRGB;fill-rule:evenodd;stroke-linecap:square;stroke-miterlimit:3" viewBox="0 0 56.47 55.505"><defs><linearGradient id="a" x1="0" x2="43.272" y1="51.456" y2="51.456" gradientTransform="scale(.98331 1.01697)" gradientUnits="userSpaceOnUse"><stop offset="0" stop-color="#803dbd"/><stop offset=".17" stop-color="#7235b3"/><stop offset=".33" stop-color="#6930a7"/><stop offset=".57" stop-color="#6c32ab"/><stop offset=".78" stop-color="#803dbd"/><stop offset="1" stop-color="#7235b3"/></linearGradient><linearGradient id="b" x1="0" x2="14.115" y1="34.715" y2="34.715" gradientTransform="scale(.50939 1.96315)" gradientUnits="userSpaceOnUse"><stop offset="0" stop-color="#5d249a"/><stop offset="1" stop-color="#5d249a"/></linearGradient><linearGradient id="c" x1="0" x2="43.311" y1="51.221" y2="51.221" gradientTransform="scale(.9844 1.01585)" gradientUnits="userSpaceOnUse"><stop offset=".09" stop-color="#9d5bd2"/><stop offset=".94" stop-color="#783cbb"/><stop offset="1" stop-color="#783cbb"/></linearGradient><linearGradient id="d" x1="0" x2="30.97" y1="22.653" y2="22.653" gradientTransform="scale(.55797 1.7922)" gradientUnits="userSpaceOnUse"><stop offset="0" stop-color="#c396f4"/><stop offset="1" stop-color="#b27bf1"/></linearGradient></defs><g transform="translate(-5.67 -6.577)"><title>Page-1</title><g transform="translate(5.67 -34.016)"><title>Visual Studio.18231</title><title>Page-1</title><g transform="translate(.014 -11.324)"><title>path863.30</title><title>Sheet.18234</title><path d="M40.61 52.33c-.79-.02-1.35.39-1.51.56L2.58 92.85c-.62.57-.95.53-1.29.52C.63 93.35 0 92.5 0 92.5c.14.74.52 1.18.89 1.47.87.7 4.62 2.03 4.97 2.14.28.1.55.19.89.22.58.05 1.03-.24 1.35-.47.17-.13 34.41-27.88 34.41-27.88l.04-13.9c-.01-.41-.23-.8-.59-1.15-.64-.58-1.09-.58-1.35-.6" style="fill:url(#a);stroke:none;stroke-width:.75000203;stroke-linecap:butt"/></g><g transform="translate(0 -13.607)"><title>path882.31</title><title>Sheet.18236</title><path d="m0 69.59.01 25.19c.53 1.6 2.02.99 2.21.85.66-.61 4.87-5.35 4.87-5.35l.1-16.39-5.1-5.41c-.13-.26-.92-.97-2.09 1.11" style="fill:url(#b);stroke:none;stroke-width:.75000203;stroke-linecap:butt"/></g><title>path880-0.32</title><title>Sheet.18238</title><path d="M42 95.9c-1.4.48-2.31-.52-2.31-.52L2.75 55.84c-.94-.97-1.23-.85-1.47-.89-.7.01-1.05.69-1.28 1.03.31-1.38 1.07-1.74 1.27-1.85l4.51-1.92c.88-.35 1.72-.11 1.96.1l34.78 28.12.03 13.96c-.03.39.44 1.16-.55 1.51" style="fill:url(#c);stroke:none;stroke-width:.75000203;stroke-linecap:butt"/><g transform="translate(39.19 -.005)"><title>path8-2.33</title><title>Sheet.18240</title><path d="M.5 95.39c.98.99 2.16.66 2.16.66l13.16-6.4c1.68-1.13 1.45-2.54 1.45-2.54V48.9c0-1.68-1.74-2.26-1.74-2.26L4.12 41.21c-2.49-1.52-4.12.27-4.12.27s2.1-1.49 3.13 1.34v50.53c0 .35-.08.69-.23 1-.3.59-.95 1.15-2.51.92z" style="fill:url(#d);stroke:none;stroke-width:1.84939003;stroke-linecap:butt"/></g></g></g></svg>