<svg xmlns="http://www.w3.org/2000/svg" xml:space="preserve" width="55.646" height="55.505" style="font-size:12px;overflow:visible;color-interpolation-filters:sRGB;fill-rule:evenodd;stroke-linecap:square;stroke-miterlimit:3" viewBox="0 0 55.646 55.505"><g transform="translate(-6.498 -6.582)"><title>Page-1</title><g transform="translate(5.67 -34.016)"><title>Visual Studio Code.18241</title><g transform="translate(0 -.786)"><title>path2</title><path d="M1.36 60.74s-1.36-.99.27-2.3l3.79-3.42s1.08-1.15 2.23-.15l34.96 26.7v12.8s-.01 2.01-2.57 1.79z" style="fill:#2489ca;stroke:none;stroke-width:1.84939003;stroke-linecap:butt"/></g><g transform="translate(.43 -13.063)"><title>path4</title><path d="M9.94 81.27.93 89.53s-.93.69 0 1.93l4.18 3.84s.99 1.08 2.46-.15l9.56-7.3z" style="fill:#1070b3;stroke:none;stroke-width:1.84939003;stroke-linecap:butt"/></g><g transform="translate(17.557 -28.107)"><title>path6</title><path d="m8.63 96.38 16.53-12.73-.1-12.73s-.71-2.78-3.06-1.33L0 89.77Z" style="fill:#0877b9;stroke:none;stroke-width:1.84939003;stroke-linecap:butt"/></g><g transform="translate(39.553)"><title>path8</title><path d="M.49 95.39c.96.99 2.12.66 2.12.66l12.88-6.4c1.65-1.13 1.42-2.54 1.42-2.54V48.89c0-1.68-1.71-2.26-1.71-2.26L4.04 41.21C1.6 39.69 0 41.48 0 41.48s2.06-1.49 3.06 1.33v50.54c0 .35-.07.69-.22 1-.29.59-.93 1.15-2.46.92z" style="fill:#3c99d4;stroke:none;stroke-width:1.84939003;stroke-linecap:butt"/></g></g></g></svg>