<svg xmlns="http://www.w3.org/2000/svg" width="80" height="80" viewBox="0 0 80 80"><title>Icon-Architecture/64/Arch_Amazon-GameLift_64</title><defs><linearGradient id="a" x1="0%" x2="100%" y1="100%" y2="0%"><stop offset="0%" stop-color="#4d27a8"/><stop offset="100%" stop-color="#a166ff"/></linearGradient></defs><g fill="none" fill-rule="evenodd"><path fill="url(#a)" d="M0 0h80v80H0z"/><path fill="#fff" d="M38 51h-2v-2h2v-2h2v2h2v2h-2v2h-2zm20-1a2 2 0 1 1 4 0 2 2 0 0 1-4 0m7.18 15.365c-.418.427-.994.635-1.759.635-2.179 0-3.745-4.087-5.003-7.371l-.335-.871a8 8 0 0 0 1.916.242 7.98 7.98 0 0 0 6-2.726v7.727c.001.015.023 1.503-.819 2.364M35.579 66c-.765 0-1.341-.208-1.759-.635-.842-.861-.82-2.349-.819-2.39v-7.7A7.98 7.98 0 0 0 39 58c.662 0 1.302-.09 1.918-.242q-.166.427-.336.871C39.324 61.913 37.758 66 35.579 66m7.88-20A5.97 5.97 0 0 1 45 50c0 3.309-2.691 6-6 6s-6-2.691-6-6 2.691-6 6-6c1.537 0 2.938.586 4 1.541zm9.623 0a7.95 7.95 0 0 0 .682 9h-8.529a7.95 7.95 0 0 0 .683-9zm6.917-2c3.309 0 6 2.691 6 6s-2.691 6-6 6-6-2.691-6-6 2.691-6 6-6m8 18.975L67.995 51c0-.071.014-.288 0-.354.021-.26 0-.376 0-.646 0-4.411-3.585-8-7.996-8-2.02 0-3.864.759-5.273 2H44.273A7.95 7.95 0 0 0 39 42c-4.411 0-7.988 3.589-7.988 8 0 .457-.022.781 0 1.238-.011.166 0 .387 0 .553l-.01 11.152c-.004.095-.057 2.329 1.375 3.807.805.83 1.882 1.25 3.202 1.25 3.554 0 5.317-4.598 6.871-8.655.322-.842.631-1.647.933-2.345h12.234c.302.698.611 1.503.933 2.345C58.104 63.402 59.867 68 63.421 68c1.32 0 2.397-.42 3.202-1.25 1.432-1.478 1.379-3.712 1.376-3.775M18.201 47.549A20.86 20.86 0 0 1 14.051 36h8.962c.07 3.301.487 6.401 1.184 9.175-2.224.609-4.249 1.406-5.996 2.374m0-25.097c1.748.968 3.772 1.766 5.996 2.375-.698 2.774-1.114 5.873-1.184 9.173h-8.962a20.85 20.85 0 0 1 4.15-11.548m10.93-7.601c-1.811 1.907-3.322 4.683-4.391 8.056-1.934-.528-3.704-1.204-5.244-2.021a21 21 0 0 1 9.635-6.035M35 14c3.394 0 6.457 3.771 8.273 9.383a40.7 40.7 0 0 1-8.273.839c-2.901 0-5.695-.3-8.274-.838C28.543 17.771 31.605 14 35 14m15.502 6.883c-1.54.817-3.308 1.494-5.242 2.023-1.07-3.373-2.58-6.148-4.391-8.055a21 21 0 0 1 9.633 6.032m1.296 1.568A20.85 20.85 0 0 1 55.949 34h-8.962c-.07-3.301-.487-6.401-1.184-9.175 2.225-.609 4.249-1.406 5.995-2.374M25.025 34c.074-3.104.477-6.056 1.151-8.693 2.758.588 5.738.915 8.824.915 3.081 0 6.064-.327 8.824-.915.673 2.636 1.077 5.589 1.151 8.693zm-8.267-12.985A22.87 22.87 0 0 0 12 35c0 10.606 7.219 19.555 17 22.201v-2.095a21 21 0 0 1-9.502-5.989c1.54-.817 3.308-1.494 5.242-2.023 1.043 3.29 2.509 6.005 4.26 7.906v-3.345c-.879-1.413-1.651-3.114-2.274-5.038A39 39 0 0 1 29 46.22v-2.012a42 42 0 0 0-2.824.486c-.673-2.637-1.077-5.59-1.151-8.694h19.95a42 42 0 0 1-.295 4h2.031a45 45 0 0 0 .276-4h8.962a21 21 0 0 1-.593 4h2.09a22.89 22.89 0 0 0-4.497-19.358l-.007-.017c-.012-.021-.032-.031-.046-.05C48.677 15.35 42.224 12 35 12c-6.987 0-13.253 3.136-17.475 8.07z"/></g></svg>