<svg xmlns="http://www.w3.org/2000/svg" width="80" height="80" viewBox="0 0 80 80"><title>Icon-Architecture/64/Arch_Open-3D-Engine_64</title><defs><linearGradient id="a" x1="0%" x2="100%" y1="100%" y2="0%"><stop offset="0%" stop-color="#4d27a8"/><stop offset="100%" stop-color="#a166ff"/></linearGradient></defs><g fill="none" fill-rule="evenodd"><path fill="url(#a)" d="M0 0h80v80H0z"/><path fill="#fff" d="M59 52h3v-3h-3zm-19.111.94 2 .009.008-1.949H44v-2h-2.095l.008-1.822-2-.008-.008 1.83H38v2h1.897zm25.999 3.38a7.97 7.97 0 0 1-5.908 2.625 8 8 0 0 1-3.379-.759c3.407 6.249 5.603 7.304 6.68 7.304.769 0 1.349-.21 1.772-.642.859-.879.837-2.404.836-2.42zm-21.38 1.249a7.9 7.9 0 0 1-3.619.876 7.98 7.98 0 0 1-6-2.726l.001 6.683c-.001.042-.024 1.567.836 2.446.422.432 1.002.642 1.77.642 1.112 0 3.415-1.117 7.012-7.921m-9.619-7.125c0 3.309 2.691 6 6 6 3.308 0 6-2.692 6-6 0-3.309-2.692-6-6-6-3.309 0-6 2.691-6 5.999m17.091.501a7.96 7.96 0 0 1 1.765-5h-6.247a7.96 7.96 0 0 1 1.391 4.5 7.9 7.9 0 0 1-.862 3.59h4.576a8 8 0 0 1-.623-3.09m8-6c-3.308 0-6 2.691-6 6 0 3.308 2.692 6 6 6 2.962 0 5.423-2.159 5.908-4.984v-.016h.002c.055-.326.09-.659.09-1 0-3.309-2.691-6-6-6m8 6c0 .392-.037.775-.092 1.152l.001 10.305c.003.065.055 2.337-1.394 3.831-.808.834-1.89 1.257-3.214 1.257-3.09 0-6.282-3.644-10.024-11.455h-5.736c-3.743 7.811-6.935 11.455-10.025 11.455-1.324 0-2.405-.423-3.213-1.257-1.449-1.494-1.396-3.766-1.393-3.862l-.001-11.926v-.5h.025c.26-4.178 3.732-7.5 7.975-7.5 1.733 0 3.334.559 4.646 1.5h10.581a7.94 7.94 0 0 1 3.864-1c4.412 0 8 3.588 8 8M39.673 25.763c7.19 0 13.04 5.849 13.04 13.039h2c0-8.292-6.747-15.039-15.04-15.039S24.634 30.51 24.634 38.802c0 4.182 1.676 8.066 4.718 10.938l1.373-1.455a12.92 12.92 0 0 1-4.091-9.483c0-7.19 5.849-13.039 13.039-13.039M68 34.475V42h-2v-6.471l-3.793.199c-.513.037-.921-.303-1.028-.778a21.8 21.8 0 0 0-2.832-6.83 1 1 0 0 1 .179-1.28l2.538-2.265-6.036-6.035-2.271 2.545a1 1 0 0 1-1.279.18 21.8 21.8 0 0 0-6.824-2.828 1 1 0 0 1-.777-1.032L44.07 14h-8.536l.194 3.402a1 1 0 0 1-.778 1.032 21.8 21.8 0 0 0-6.828 2.827 1 1 0 0 1-1.279-.181l-2.268-2.54-6.036 6.035 2.543 2.269c.364.326.44.867.18 1.281a21.7 21.7 0 0 0-2.834 6.825c-.109.477-.588.796-1.032.778L14 35.534v8.537l3.387-.194c.453-.034.924.301 1.032.779a21.7 21.7 0 0 0 2.829 6.838 1 1 0 0 1-.18 1.28L18.54 55.03l6.065 6.065 3.677-3.791 1.436 1.393-4.384 4.52a1 1 0 0 1-.71.304h-.008c-.265 0-.519-.106-.707-.293l-7.532-7.533a1 1 0 0 1 .041-1.453l2.698-2.407a23.7 23.7 0 0 1-2.447-5.914l-3.612.207A1 1 0 0 1 12 45.129V34.475a1 1 0 0 1 1.057-.998l3.623.206a23.7 23.7 0 0 1 2.45-5.9l-2.712-2.42a1 1 0 0 1-.041-1.453l7.532-7.533a.96.96 0 0 1 .736-.292 1 1 0 0 1 .717.333l2.419 2.711a23.8 23.8 0 0 1 5.903-2.444l-.206-3.628A1 1 0 0 1 34.476 12h10.653c.275 0 .538.114.726.314.19.199.288.468.272.743l-.206 3.632a23.7 23.7 0 0 1 5.897 2.444l2.423-2.715c.184-.205.443-.325.718-.333a.96.96 0 0 1 .735.292l7.534 7.533a1 1 0 0 1-.041 1.453l-2.708 2.416a23.8 23.8 0 0 1 2.45 5.908l4.018-.21a.996.996 0 0 1 1.053.998"/></g></svg>