<svg xmlns="http://www.w3.org/2000/svg" width="80" height="80" viewBox="0 0 80 80"><title>Icon-Architecture/64/Arch_Amazon-WorkDocs-SDK_64</title><defs><linearGradient id="a" x1="0%" x2="100%" y1="100%" y2="0%"><stop offset="0%" stop-color="#bd0816"/><stop offset="100%" stop-color="#ff5252"/></linearGradient></defs><g fill="none" fill-rule="evenodd"><path fill="url(#a)" d="M0 0h80v80H0z"/><path fill="#fff" d="M33 41h3v-2h-3zm6 20h2v-3h-2zm0-5h2v-3h-2zm0-10h2v-3h-2zm0 5h2v-3h-2zM28 41h3v-2h-3zm-5 0h3v-2h-3zm-5 0h3v-2h-3zm23 25v-3h-2v3H14V41h2v-2h-2V14h25v25h-1v2h28v25zm0-50.586L64.586 39H41zM68 40a1 1 0 0 0-.293-.707l-27-27A1 1 0 0 0 40 12H13a1 1 0 0 0-1 1v54a1 1 0 0 0 1 1h54a1 1 0 0 0 1-1z"/></g></svg>