<svg xmlns="http://www.w3.org/2000/svg" xml:space="preserve" width="68.036" height="74.293" style="font-size:12px;overflow:visible;color-interpolation-filters:sRGB;fill-rule:evenodd;stroke-linecap:square;stroke-miterlimit:3" viewBox="0 0 51.027 55.72"><defs><radialGradient id="a" cx="36.25" cy="76.44" r="50.75" fx="36.25" fy="76.44" gradientTransform="scale(.77407 1.29187)" gradientUnits="userSpaceOnUse"><stop offset=".065" stop-color="#ae7fe2"/><stop offset="1" stop-color="#0078d4"/></radialGradient><radialGradient id="c" cx="39.55" cy="74.114" r="55.37" fx="39.55" fy="74.114" gradientTransform="scale(1.15677 .86448)" gradientUnits="userSpaceOnUse"><stop offset=".135" stop-color="#d59dff"/><stop offset="1" stop-color="#5e438f"/></radialGradient><radialGradient id="e" cx="36.219" cy="97.391" r="50.706" fx="36.219" fy="97.391" gradientTransform="scale(.98624 1.01396)" gradientUnits="userSpaceOnUse"><stop offset=".06" stop-color="#50e6ff"/><stop offset="1" stop-color="#223b7e"/></radialGradient><linearGradient id="b" x1="0" x2="36.25" y1="40.19" y2="40.19" gradientTransform="scale(.77407 1.29187)" gradientUnits="userSpaceOnUse"><stop offset="0" stop-color="#0f3c6f"/><stop offset="1" stop-color="#a27ee1"/></linearGradient><linearGradient id="d" x1="0" x2="39.55" y1="74.114" y2="74.114" gradientTransform="scale(1.15677 .86448)" gradientUnits="userSpaceOnUse"><stop offset="0" stop-color="#3a2a5d"/><stop offset="1" stop-color="#cf99fa"/></linearGradient></defs><g transform="translate(-8.523 -8.524)"><title>Page-1</title><g transform="translate(8.523 -34.016)"><title>Microsoft 365.22394</title><title>layer1</title><g transform="translate(0 -8.087)"><title>path2</title><path d="m20.52 51.92-.29.17c-.46.28-.89.58-1.29.92l.83-.58h7.02l1.27 9.59-6.38 6.33-6.37 4.4v5.08c0 3.54 1.86 6.83 4.92 8.67l6.71 4.03-14.18 8.22h-2.74l-5.1-3.07A10.12 10.12 0 0 1 0 87.01V69.95c0-3.55 1.87-6.83 4.92-8.67l15.31-9.19c.09-.06.19-.11.29-.17" style="fill:url(#a);stroke:none;stroke-width:8.52307034;stroke-linecap:butt"/></g><g transform="translate(0 -8.087)"><title>path4</title><path d="m20.52 51.92-.29.17c-.46.28-.89.58-1.29.92l.83-.58h7.02l1.27 9.59-6.38 6.33-6.37 4.4v5.08c0 3.54 1.86 6.83 4.92 8.67l6.71 4.03-14.18 8.22h-2.74l-5.1-3.07A10.12 10.12 0 0 1 0 87.01V69.95c0-3.55 1.87-6.83 4.92-8.67l15.31-9.19c.09-.06.19-.11.29-.17" style="fill:url(#b);stroke:none;stroke-width:8.52307034;stroke-linecap:butt"/></g><g transform="translate(5.275)"><title>path6</title><path d="M30.44 64.07v5.67c0 3.54-1.87 6.83-4.92 8.67L10.21 87.6A10.26 10.26 0 0 1 0 87.81l14.95 8.98c3.25 1.96 7.32 1.96 10.57 0l15.31-9.19c3.05-1.84 4.92-5.13 4.92-8.67v-4.1l-1.28-1.9z" style="fill:url(#c);stroke:none;stroke-width:8.52307034;stroke-linecap:butt"/></g><g transform="translate(5.275)"><title>path8</title><path d="M30.44 64.07v5.67c0 3.54-1.87 6.83-4.92 8.67L10.21 87.6A10.26 10.26 0 0 1 0 87.81l14.95 8.98c3.25 1.96 7.32 1.96 10.57 0l15.31-9.19c3.05-1.84 4.92-5.13 4.92-8.67v-4.1l-1.28-1.9z" style="fill:url(#d);stroke:none;stroke-width:8.52307034;stroke-linecap:butt"/></g><g transform="translate(15.307 -19.486)"><title>path10</title><path d="m30.79 72.68-15.3-9.19a10.28 10.28 0 0 0-10.26-.18l-.31.18C1.87 65.33 0 68.62 0 72.16v12.01l4.92-2.95a10.28 10.28 0 0 1 10.57 0l15.3 9.19c2.96 1.78 4.81 4.92 4.92 8.34 0-.11.01-.23.01-.34V81.35c0-3.55-1.87-6.84-4.93-8.67" style="fill:url(#e);stroke:none;stroke-width:8.52307034;stroke-linecap:butt"/></g><title>path14</title><title>path16</title></g></g></svg>