<svg xmlns="http://www.w3.org/2000/svg" xml:space="preserve" width="75.59" height="75.59" style="font-size:12px;overflow:visible;color-interpolation-filters:sRGB;fill-rule:evenodd;stroke-linecap:square;stroke-miterlimit:3" viewBox="0 0 56.693 56.693"><g transform="translate(-5.67 -5.67)"><title>Page-1</title><g transform="translate(5.67 -34.016)"><title>O365 - API Yammer.22287</title><desc>This package will provide stencils to visually represent Power Platform: Power Bi, Power Apps, Power Virtual Agents and/or Power Automate devices, architectures or solutions diagrams. It will provide stencils to visually represent features, systems, processes and architectures that use these technologies.</desc><title>Page-1</title><title>Power Automate API: Yammer</title><title>rect5099.2962</title><title>Sheet.22291</title><path d="M0 39.685h56.693v56.693H0z" style="fill:#0092bd;stroke:none;stroke-width:.75"/><g transform="translate(12.428 -13.737)"><title>path5115.2963</title><title>Sheet.22293</title><path d="M33.37 80.53h-.28c-1.4 0-10.89 1.12-10.46 2.08.41.98 6.42 1.39 10.6 1.39a1.815 1.807-180 0 0 .14-3.47m-3.21 10.14c-3.77-2.07-9.08-4.44-10.05-3.89-.98.56 6.98 6.13 8.23 6.82h.15a1.815 1.807-180 0 0 1.53-3.06zm-.14-16.82a1.815 1.807-180 0 0-1.53-3.05h-.15c-1.11.7-9.07 6.12-8.23 6.81.84.7 6.28-1.52 9.91-3.61zM7.82 88.6c-1.12 3.05-2.09 4.59-4.47 4.59H2.23a1.676 1.668-180 0 0-.55 3.19H3.5c4.32 0 5.71-2.5 7.11-6.12L19 69.41a1.815 1.807-180 0 0-3.37-1.12L9.92 84h-.15L3.5 68.29A1.955 1.946-180 0 0 0 69.68Z" style="fill:#fff;stroke:none;stroke-width:1"/><title>Sheet.22294</title><path d="M33.37 80.53h-.28c-1.4 0-10.89 1.12-10.46 2.08.41.98 6.42 1.39 10.6 1.39a1.815 1.807-180 0 0 .14-3.47m-3.21 10.14c-3.77-2.07-9.08-4.44-10.05-3.89-.98.56 6.98 6.13 8.23 6.82h.15a1.815 1.807-180 0 0 1.53-3.06zm-.14-16.82a1.815 1.807-180 0 0-1.53-3.05h-.15c-1.11.7-9.07 6.12-8.23 6.81.84.7 6.28-1.52 9.91-3.61zM7.82 88.6c-1.12 3.05-2.09 4.59-4.47 4.59H2.23a1.676 1.668-180 0 0-.55 3.19H3.5c4.32 0 5.71-2.5 7.11-6.12L19 69.41a1.815 1.807-180 0 0-3.37-1.12L9.92 84h-.15L3.5 68.29A1.955 1.946-180 0 0 0 69.68Z" style="fill:none"/><path d="M33.37 80.53h-.28c-1.4 0-10.89 1.12-10.46 2.08.41.98 6.42 1.39 10.6 1.39a1.815 1.807-180 0 0 .14-3.47m-3.21 10.14c-3.77-2.07-9.08-4.44-10.05-3.89-.98.56 6.98 6.13 8.23 6.82h.15a1.815 1.807-180 0 0 1.53-3.06m0-16.69a1.815 1.807-180 0 0-1.53-3.05h-.15c-1.11.7-9.07 6.12-8.23 6.81.84.7 6.28-1.52 9.91-3.61zM7.82 88.6c-1.12 3.05-2.09 4.59-4.47 4.59H2.23a1.676 1.668-180 0 0-.55 3.19H3.5c4.32 0 5.71-2.5 7.11-6.12L19 69.41a1.815 1.807-180 0 0-3.37-1.12L9.92 84h-.15L3.5 68.29A1.955 1.946-180 0 0 0 69.68z" style="stroke:none;stroke-width:.75"/></g></g></g></svg>