<svg xmlns="http://www.w3.org/2000/svg" xml:space="preserve" width="75.596" height="68.026" style="font-size:12px;overflow:visible;color-interpolation-filters:sRGB;fill-rule:evenodd;stroke-linecap:square;stroke-miterlimit:3" viewBox="0 0 56.697 51.02"><defs><linearGradient id="a" x1="0" x2="48.266" y1="37.434" y2="37.434" gradientTransform="scale(.94601 1.05707)" gradientUnits="userSpaceOnUse"><stop offset="0" stop-color="#742774"/><stop offset="1" stop-color="#bb35a4"/></linearGradient><linearGradient id="b" x1="-.006" x2="42.315" y1="32.823" y2="32.823" gradientTransform="scale(.8295 1.20556)" gradientUnits="userSpaceOnUse"><stop offset="0" stop-color="#e48cc7"/><stop offset="1" stop-color="#d467b9"/></linearGradient><linearGradient id="c" x1=".003" x2="23.115" y1="66.087" y2="66.087" gradientTransform="scale(.98464 1.0156)" gradientUnits="userSpaceOnUse"><stop offset="0" stop-color="#e9a1cb"/><stop offset="1" stop-color="#e48cc7"/></linearGradient></defs><g transform="translate(-5.67 -5.554)"><title>Page-1</title><g transform="translate(5.67 -34.016)"><title>O365 - Power App.22138</title><title>layer1</title><title>path5</title><path d="M22.83 90.59 0 65.08l22.83-25.51 22.83 25.51Z" style="fill:url(#a);stroke:none;stroke-width:5.55496979;stroke-linecap:butt"/><g transform="translate(21.59)"><title>path15</title><path d="M11.18 39.57 35.1 65.08 11.18 90.59.57 79.28a2.175 2.126 0 0 1 0-2.88l9.27-9.88a2.175 2.126-180 0 0 0-2.87L.57 53.76a2.175 2.126 0 0 1 0-2.87z" style="fill:url(#b);stroke:none;stroke-width:5.55496979;stroke-linecap:butt"/></g><g transform="translate(33.937 -13.776)"><title>path17</title><path d="M9.19 67.81a2.175 2.126 0 0 1 3.21 0l10.36 11.05L12.4 89.9a2.175 2.126 0 0 1-3.21 0L.86 81.01a3.262 3.189 0 0 1 0-4.31z" style="fill:url(#c);stroke:none;stroke-width:5.55496979;stroke-linecap:butt"/></g></g></g></svg>