<svg xmlns="http://www.w3.org/2000/svg" xml:space="preserve" width="75.59" height="75.59" style="font-size:12px;overflow:visible;color-interpolation-filters:sRGB;fill-rule:evenodd;stroke-linecap:square;stroke-miterlimit:3" viewBox="0 0 56.693 56.693"><defs><linearGradient id="a" x1="0" x2="31.947" y1="34.257" y2="34.257" gradientTransform="scale(.60163 1.66215)" gradientUnits="userSpaceOnUse"><stop offset="0" stop-color="#ffce00"/><stop offset=".05" stop-color="#fabb00"/><stop offset=".2" stop-color="#eb8401"/><stop offset=".335" stop-color="#e15c01"/><stop offset=".435" stop-color="#da4401"/><stop offset=".5" stop-color="#d83b01"/></linearGradient><linearGradient id="b" x1="0" x2="33.683" y1="53.12" y2="53.12" gradientTransform="scale(.78883 1.2677)" gradientUnits="userSpaceOnUse"><stop offset="0" stop-color="#8c0700"/><stop offset=".6" stop-color="#c72127"/><stop offset=".645" stop-color="#ca2b3d"/><stop offset=".765" stop-color="#d04374"/><stop offset=".87" stop-color="#d5559c"/><stop offset=".95" stop-color="#d860b4"/><stop offset="1" stop-color="#d964bd"/></linearGradient><linearGradient id="c" x1="-.059" x2="14.24" y1="130.824" y2="130.824" gradientTransform="scale(1.31879 .75827)" gradientUnits="userSpaceOnUse"><stop offset="0" stop-color="#fa2c46"/><stop offset=".6" stop-color="#b0080b"/></linearGradient></defs><g transform="translate(-19.33 -19.33)"><title>Page-1</title><g transform="translate(19.33 -34.016)"><title>O365.22009</title><title>_32</title><g transform="translate(30.384 -1.719)"><title>path49</title><path d="m0 56.94 15.36 4.24a5.315 5.315-180 0 1 3.86 5.1v34.26a5.294 5.294-180 0 1-3.86 5.11L0 110.04l3.28-10.68v-32.9z" style="fill:url(#a);stroke:none;stroke-width:19.33049965;stroke-linecap:butt"/></g><title>rect51</title><path d="M0 53.346h56.693v56.693H0z" style="fill:none;stroke:none;stroke-width:19.33049965;stroke-linecap:butt"/><title>rect61</title><path d="M0 53.346h56.693v56.693H0z" style="fill:none;stroke:none;stroke-width:19.33049965;stroke-linecap:butt"/><g transform="translate(7.087 -12.402)"><title>path53-8</title><path d="M21.63 67.34a4.95 4.95-90 0 0-2.44.65l-16.5 9.4A5.38 5.38 0 0 0 0 81.99v25.39a2.657 2.657 0 0 0 2.66 2.66 2.6 2.6-90 0 0 1.27-.34l4.63-2.51a3.96 3.96-90 0 0 2.07-3.49V85.68a3.98 3.98-180 0 1 2.64-3.76l13.3-4.78v-4.86a4.94 4.94 0 0 0-4.94-4.94" style="fill:url(#b);stroke:none;stroke-width:19.33049965;stroke-linecap:butt"/></g><g transform="translate(14.876 -1.564)"><title>path55-4</title><path d="M18.78 105.31V99.2H2.22a2.293 2.293-90 0 0-1.13 4.29l10.05 5.69.29.17a5.64 5.64 0 0 0 2.88.69 5.5 5.5 0 0 0 1.2-.15 4.835 4.835 0 0 0 3.27-4.58" style="fill:url(#c);stroke:none;stroke-width:19.33049965;stroke-linecap:butt"/></g></g></g></svg>