<svg xmlns="http://www.w3.org/2000/svg" xml:space="preserve" width="69.796" height="52.363" style="font-size:12px;overflow:visible;color-interpolation-filters:sRGB;fill-rule:evenodd;stroke-linecap:square;stroke-miterlimit:3" viewBox="0 0 52.347 39.272"><defs><linearGradient id="a" x1="2.127" x2="41.807" y1="41.887" y2="41.887" gradientTransform="scale(1.02366 .97689)" gradientUnits="userSpaceOnUse"><stop offset="0" stop-color="#096738"/><stop offset="1" stop-color="#0a4c2d"/></linearGradient><linearGradient id="b" x1="1.616" x2="41.296" y1="41.428" y2="41.428" gradientTransform="scale(1.02358 .97697)" gradientUnits="userSpaceOnUse"><stop offset="0" stop-color="#4ed062"/><stop offset="1" stop-color="#209b4e"/></linearGradient><linearGradient id="c" x1="1.293" x2="19.499" y1="62.25" y2="62.25" gradientTransform="scale(1.01096 .98916)" gradientUnits="userSpaceOnUse"><stop offset="0" stop-color="#66eb6e"/><stop offset="1" stop-color="#9fe0a2"/></linearGradient></defs><g transform="translate(-7.847 -5.952)"><title>Page-1</title><g transform="translate(5.67 -34.016)"><title>O365 - Dataverse.22275</title><title>Page-1</title><title>g65.57</title><title>g63</title><g transform="translate(0 -.952)"><title>path45</title><title>Sheet.22280</title><path d="M23.75 68.35c7.1 4.01 13.48 2.47 17.09-3.65 3.61-6.11 2.25-14.45-4.31-19.66-7.19-5.72-18.44-5.74-26.74 1.55C2.33 53.15 0 64.7 4.38 74.71a8.4 8.4 0 0 0 3.54 3.86c4.05 2.29 9.25.93 11.59-3.04h.01z" style="fill:url(#a);stroke:none;stroke-width:5.95137978;stroke-linecap:butt"/></g><g transform="translate(12.255)"><title>path47</title><title>Sheet.22282</title><path d="M40.08 45.49h.01c4.35 10 2.01 21.53-5.43 28.07-8.3 7.3-19.55 7.28-26.75 1.56C1.36 69.91 0 61.57 3.61 55.46c3.6-6.12 9.98-7.67 17.08-3.65l4.24-7.18c2.35-3.97 7.54-5.34 11.6-3.04 1.65.93 2.85 2.32 3.55 3.9" style="fill:url(#b);stroke:none;stroke-width:5.95137978;stroke-linecap:butt"/></g><g transform="translate(12.379 -6.286)"><title>path49</title><title>Sheet.22284</title><path d="M20.57 58.09c-7.1-4.01-13.48-2.46-17.08 3.65C0 67.65 1.15 75.63 7.14 80.86l4.23-7.17c7.1 4.01 13.48 2.46 17.09-3.65 3.49-5.91 2.34-13.89-3.65-19.12z" style="fill:#088142;stroke:none;stroke-width:5.95137978;stroke-linecap:butt"/></g><g transform="translate(17.843 -10.976)"><title>path61</title><title>Sheet.22286</title><path d="M18.48 75.08c-2.54 4.31-8.17 5.78-12.57 3.3-4.4-2.49-5.91-8-3.37-12.3 2.54-4.31 8.17-5.78 12.57-3.3 4.4 2.49 5.91 7.99 3.37 12.3" style="fill:url(#c);stroke:none;stroke-width:5.95137978;stroke-linecap:butt"/></g></g></g></svg>