<svg xmlns="http://www.w3.org/2000/svg" xml:space="preserve" width="75.593" height="75.591" style="font-size:12px;overflow:visible;color-interpolation-filters:sRGB;fill-rule:evenodd;stroke-linecap:square;stroke-miterlimit:3" viewBox="0 0 56.695 56.693"><g transform="translate(-18.116 -18.117)"><title>Page-1</title><g transform="translate(18.116 -34.016)"><title>O365 - Outlook.22159</title><title>g46</title><g transform="translate(17.716 -42.52)"><title>path2</title><path d="M32.95 98.2H2.49A2.487 2.487-180 0 0 0 100.68v2.83l17.17 5.32 18.26-5.32v-2.83a2.487 2.487-180 0 0-2.48-2.48" style="fill:#0364b8;stroke:none;stroke-width:18.11650085;stroke-linecap:butt"/></g><g transform="translate(14.173 -10.966)"><title>path4</title><path d="M41.9 93.93a20 20-180 0 0 .62-2.48 1.18 1.18-180 0 0-.59-1.03l-.02-.01h-.01L22.7 79.47a3 3-180 0 0-.26-.15 2.66 2.66-180 0 0-2.36 0 3 3-180 0 0-.26.15L.62 90.41H.61l-.02.01A1.18 1.18-180 0 0 0 91.45a20 20-180 0 0 .62 2.48l20.36 14.9z" style="fill:#0a2767;stroke:none;stroke-width:18.11650085;stroke-linecap:butt"/></g><g transform="translate(26.538 -26.575)"><title>path6</title><path d="M15.98 87.57H3.58L0 92.88l3.58 5.32 12.4 10.63h10.63V98.2Z" style="fill:#28a8ea;stroke:none;stroke-width:18.11650085;stroke-linecap:butt"/></g><g transform="translate(17.716 -37.205)"><title>path8</title><path d="M0 98.195h12.402v10.63H0z" style="fill:#0078d4;stroke:none;stroke-width:18.11650085;stroke-linecap:butt"/></g><g transform="translate(42.52 -37.205)"><title>path10</title><path d="M0 98.195h10.63v10.63H0z" style="fill:#50d9ff;stroke:none;stroke-width:18.11650085;stroke-linecap:butt"/></g><g transform="translate(17.716 -12.813)"><title>path12</title><path d="M24.8 95.06 12.4 84.43H0v10.63l12.4 10.63 19.19 3.14z" style="fill:#0364b8;stroke:none;stroke-width:18.11650085;stroke-linecap:butt"/></g><g transform="translate(17.771 -47.835)"><title>path14</title><path d="M0 108.83h35.38Z" style="fill:none"/><path d="M0 108.83h35.38" style="stroke:none;stroke-width:18.11650085;stroke-linecap:butt"/></g><g transform="translate(30.118 -26.575)"><title>path16</title><path d="M0 98.195h12.402v10.63H0z" style="fill:#0078d4;stroke:none;stroke-width:18.11650085;stroke-linecap:butt"/></g><g transform="translate(17.716 -15.945)"><title>path18</title><path d="M0 98.195h12.402v10.63H0z" style="fill:#064a8c;stroke:none;stroke-width:18.11650085;stroke-linecap:butt"/></g><g transform="translate(42.52 -15.945)"><title>path20</title><path d="M0 98.195h10.63v10.63H0z" style="fill:#0078d4;stroke:none;stroke-width:18.11650085;stroke-linecap:butt"/></g><g transform="translate(14.877 -12.015)"><title>path22</title><path d="M20.89 108.83 0 93.59l.88-1.54s19.03 10.84 19.32 11a.94.94-180 0 0 .744-.021L40.32 91.99l.88 1.54Z" style="fill:#0a2767;fill-opacity:.5;stroke:none;stroke-width:18.11650085;stroke-linecap:butt"/></g><g transform="translate(34.285 -4.05)"><title>path24</title><path d="m21.82 85.55-.03.02-19.2 10.94a2.65 2.65 0 0 1-2.59.16l6.69 8.96 14.62 3.19v.01a2.65 2.65-180 0 0 1.1-2.16V84.53a1.18 1.18 0 0 1-.59 1.02" style="fill:#1490df;stroke:none;stroke-width:18.11650085;stroke-linecap:butt"/></g><g transform="translate(34.285 -4.05)"><title>path26</title><path d="M22.41 106.67v-1.3L4.72 95.29l-2.13 1.22a2.65 2.65 0 0 1-2.59.16l6.69 8.96 14.62 3.19v.01a2.65 2.65-180 0 0 1.1-2.16" style="fill:#000;fill-opacity:.047;stroke:none;stroke-width:18.11650085;stroke-linecap:butt"/></g><g transform="translate(34.285 -4.05)"><title>path28</title><path d="M22.32 107.35 2.93 96.31l-.34.2a2.65 2.65 0 0 1-2.59.16l6.69 8.96 14.62 3.19v.01a2.66 2.66-180 0 0 1.01-1.48" style="fill:#000;fill-opacity:.09800002;stroke:none;stroke-width:18.11650085;stroke-linecap:butt"/></g><g transform="translate(14.173 -3.543)"><title>path30</title><path d="M.62 85.07v-.02H.6l-.05-.04a1.15 1.15 0 0 1-.55-.99v22.15a2.654 2.654-180 0 0 2.66 2.66h37.2a2.7 2.7-180 0 0 .66-.09 1.1 1.1-180 0 0 .32-.11.25.25-180 0 0 .106-.035 2 2-180 0 0 .404-.235c.04-.01.05-.01.07-.05z" style="fill:#28a8ea;stroke:none;stroke-width:18.11650085;stroke-linecap:butt"/></g><g transform="translate(14.173 -10.63)"><title>path32</title><path d="M17.72 106.46V77.53a2.37 2.37-180 0 0-2.37-2.37H3.6v13.21l-2.98 1.7H.61l-.02.02A1.18 1.18-180 0 0 0 91.11v.01-.01 17.72h15.35a2.37 2.37-180 0 0 2.37-2.37" style="fill:#000;fill-opacity:.09800002;stroke:none;stroke-width:18.11650085;stroke-linecap:butt"/></g><g transform="translate(14.173 -8.858)"><title>path34</title><path d="M15.94 106.46V77.53a2.37 2.37-180 0 0-2.36-2.37H3.6V86.6L.62 88.3H.61l-.02.01A1.18 1.18-180 0 0 0 89.34v.01-.01 19.49h13.58a2.37 2.37-180 0 0 2.36-2.37" style="fill:#000;fill-opacity:.2;stroke:none;stroke-width:18.11650085;stroke-linecap:butt"/></g><g transform="translate(14.173 -12.402)"><title>path36</title><path d="M15.94 106.46V81.07a2.37 2.37-180 0 0-2.36-2.36H3.6v11.43l-2.98 1.7-.01.01-.02.01A1.18 1.18-180 0 0 0 92.88v.01-.01 15.95h13.58a2.37 2.37-180 0 0 2.36-2.37" style="fill:#000;fill-opacity:.2;stroke:none;stroke-width:18.11650085;stroke-linecap:butt"/></g><g transform="translate(14.173 -12.402)"><title>path38</title><path d="M14.17 106.46V81.07a2.37 2.37-180 0 0-2.36-2.36H3.6v11.43l-2.98 1.7-.01.01-.02.01A1.18 1.18-180 0 0 0 92.88v.01-.01 15.95h11.81a2.37 2.37-180 0 0 2.36-2.37" style="fill:#000;fill-opacity:.2;stroke:none;stroke-width:18.11650085;stroke-linecap:butt"/></g><g transform="translate(0 -14.173)"><title>path40</title><path d="M2.36 80.48h23.62a2.36 2.36 0 0 1 2.37 2.36v23.62a2.36 2.36 0 0 1-2.37 2.37H2.36A2.36 2.36 0 0 1 0 106.46V82.84a2.36 2.36 0 0 1 2.36-2.36" style="fill:#0078d4;stroke:none;stroke-width:18.11650085;stroke-linecap:butt"/></g><g transform="translate(5.864 -19.488)"><title>path42</title><path d="M.99 95.48a7.4 7.4 0 0 1 2.91-3.21 8.8 8.8 0 0 1 4.62-1.16 8.2 8.2 0 0 1 4.27 1.1 7.34 7.34 0 0 1 2.84 3.07 9.9 9.9 0 0 1 .99 4.52 10.46 10.46 0 0 1-1.02 4.72 7.5 7.5 0 0 1-2.92 3.18 8.5 8.5 0 0 1-4.44 1.13 8.4 8.4 0 0 1-4.37-1.12A7.45 7.45 0 0 1 1 104.64a9.7 9.7 0 0 1-1-4.46 10.7 10.7 0 0 1 .99-4.7m3.1 7.54a4.8 4.8-180 0 0 1.63 2.12 4.27 4.27-180 0 0 2.56.77 4.5 4.5-180 0 0 2.73-.79 4.6 4.6-180 0 0 1.59-2.13 8.2 8.2-180 0 0 .5-2.95 9 9-180 0 0-.47-2.98 4.73 4.73-180 0 0-1.54-2.2 4.23 4.23-180 0 0-2.7-.84 4.4 4.4-180 0 0-2.62.78 4.86 4.86-180 0 0-1.67 2.13 8.46 8.46-180 0 0-.01 6.1z" style="fill:#fff;stroke:none;stroke-width:18.11650085;stroke-linecap:butt"/></g><title>path44</title><path d="M0 52.132h56.693v56.693H0z" style="fill:none;stroke:none;stroke-width:18.11650085;stroke-linecap:butt"/></g></g></svg>