<svg xmlns="http://www.w3.org/2000/svg" xml:space="preserve" width="75.596" height="75.591" style="font-size:12px;overflow:visible;color-interpolation-filters:sRGB;fill-rule:evenodd;stroke-linecap:square;stroke-miterlimit:3" viewBox="0 0 56.697 56.693"><g transform="translate(-18.116 -18.117)"><title>Page-1</title><g transform="translate(18.116 -34.016)"><title>O365 - PowerPoint.22124</title><title>g22</title><g transform="translate(7.087 -21.726)"><title>path2</title><path d="M24.8 77.4A24.876 24.876-180 0 0 0 102.2l31.42 6.63z" style="fill:#ed6c47;stroke:none;stroke-width:18.11650085;stroke-linecap:butt"/></g><g transform="translate(31.89 -19.917)"><title>path4</title><path d="M0 75.59a24.876 24.876 0 0 1 24.8 24.81l-12.4 8.43L0 100.4Z" style="fill:#ff8f6b;stroke:none;stroke-width:18.11650085;stroke-linecap:butt"/></g><g transform="translate(7.087 -3.543)"><title>path6</title><path d="M24.8 108.83a24.876 24.876-180 0 0 24.81-24.81H0a24.876 24.876-180 0 0 24.8 24.81" style="fill:#d35230;stroke:none;stroke-width:18.11650085;stroke-linecap:butt"/></g><g transform="translate(7.117 -10.63)"><title>path8</title><path d="M22.41 75.16H5.83a24.65 24.65-180 0 0 1.64 33.67h14.94a2.37 2.37-180 0 0 2.36-2.37V77.53a2.37 2.37-180 0 0-2.36-2.37" style="fill:#000;fill-opacity:.09800002;stroke:none;stroke-width:18.11650085;stroke-linecap:butt"/></g><g transform="translate(7.36 -8.858)"><title>path10</title><path d="M20.4 75.16H4.23a24.637 24.637-180 0 0 5.04 33.67H20.4a2.37 2.37-180 0 0 2.36-2.37V77.53a2.37 2.37-180 0 0-2.36-2.37" style="fill:#000;fill-opacity:.2;stroke:none;stroke-width:18.11650085;stroke-linecap:butt"/></g><g transform="translate(7.113 -12.402)"><title>path12</title><path d="M20.64 78.71H4.47a24.61 24.61-180 0 0 1.36 30.12h14.81a2.37 2.37-180 0 0 2.37-2.37V81.07a2.37 2.37-180 0 0-2.37-2.36" style="fill:#000;fill-opacity:.2;stroke:none;stroke-width:18.11650085;stroke-linecap:butt"/></g><g transform="translate(7.113 -12.402)"><title>path14</title><path d="M18.87 78.71H4.47a24.61 24.61-180 0 0 1.36 30.12h13.04a2.37 2.37-180 0 0 2.36-2.37V81.07a2.37 2.37-180 0 0-2.36-2.36" style="fill:#000;fill-opacity:.2;stroke:none;stroke-width:18.11650085;stroke-linecap:butt"/></g><g transform="translate(0 -14.173)"><title>path16</title><path d="M2.36 80.48h23.62a2.36 2.36 0 0 1 2.37 2.36v23.62a2.36 2.36 0 0 1-2.37 2.37H2.36A2.36 2.36 0 0 1 0 106.46V82.84a2.36 2.36 0 0 1 2.36-2.36" style="fill:#c43e1c;stroke:none;stroke-width:18.11650085;stroke-linecap:butt"/></g><g transform="translate(7.087 -19.488)"><title>path18</title><path d="M7.08 91.11a7.38 7.38 0 0 1 4.88 1.42 5.1 5.1 0 0 1 1.7 4.13 4.83 4.83 0 0 1-.84 2.82 5.6 5.6 0 0 1-2.38 2.1 8.1 8.1 0 0 1-3.58.75H3.47v6.5H0V91.11Zm-3.61 8.3h2.99a3.9 3.9-180 0 0 2.64-.79 1.96 1.96-180 0 0 .9-1.82c0-1.96-1.14-2.94-3.43-2.94h-3.1z" style="fill:#f9f7f7;stroke:none;stroke-width:18.11650085;stroke-linecap:butt"/></g><title>path20</title><path d="M0 52.132h56.693v56.693H0z" style="fill:none;stroke:none;stroke-width:18.11650085;stroke-linecap:butt"/></g></g></svg>