<svg xmlns="http://www.w3.org/2000/svg" xml:space="preserve" width="75.59" height="75.59" style="font-size:12px;overflow:visible;color-interpolation-filters:sRGB;fill-rule:evenodd;stroke-linecap:square;stroke-miterlimit:3" viewBox="0 0 56.693 56.693"><g transform="translate(-5.67 -5.67)"><title>Page-1</title><g transform="translate(5.67 -34.016)"><title>O365 - API Facebook.22347</title><title>Page-1</title><title>Power Automate API: Facebook</title><title>rect5918</title><title>Sheet.22351</title><path d="M0 39.685h56.693v56.693H0z" style="fill:#3b5998;stroke:none;stroke-width:.75"/><g transform="translate(9.791 -9.43)"><title>path5920</title><title>Sheet.22353</title><path d="M34.45 59.75H2.05A2.055 2.055-180 0 0 0 61.8v32.53a2.055 2.055-180 0 0 2.05 2.05h17.53V82.11h-4.71v-5.56h4.71v-3.99c0-4.71 2.9-7.25 7.14-7.25l4.22.25v4.95h-2.9c-2.29 0-2.78 1.09-2.78 2.66v3.51h5.44l-.73 5.56h-4.71v14.14h9.31a2.055 2.055-180 0 0 2.05-2.05V61.68a2.055 2.055-180 0 0-2.17-1.93" style="fill:#fff;stroke:none;stroke-width:.75"/></g><g transform="translate(5.198 -5.016)"><title>rect5922</title><title>Sheet.22355</title><path d="M0 50.745h45.693v45.632H0z" style="fill:none;stroke:none;stroke-width:.75"/></g></g></g></svg>