<svg xmlns="http://www.w3.org/2000/svg" xml:space="preserve" width="75.591" height="75.591" style="font-size:12px;overflow:visible;color-interpolation-filters:sRGB;fill-rule:evenodd;stroke-linecap:square;stroke-miterlimit:3" viewBox="0 0 56.693 56.693"><g transform="translate(-18.198 -18.198)"><title>Page-1</title><g transform="translate(18.198 -34.016)"><title>O365 - SharePoint.22086</title><title>g22</title><g transform="translate(9.744 -23.032)"><title>circle2</title><circle cx="16.831" cy="92.076" r="16.831" style="fill:#036c70;stroke:none;stroke-width:18.19759941;stroke-linecap:butt"/></g><g transform="translate(27.904 -10.63)"><title>circle4</title><circle cx="14.395" cy="94.511" r="14.395" style="fill:#1a9ba1;stroke:none;stroke-width:18.19759941;stroke-linecap:butt"/></g><g transform="translate(16.83)"><title>circle6</title><circle cx="11.516" cy="97.391" r="11.516" style="fill:#37c6d0;stroke:none;stroke-width:18.19759941;stroke-linecap:butt"/></g><g transform="translate(10.334 -10.63)"><title>path8</title><path d="M19.19 75.24H0A16.84 16.84-180 0 0 16.24 96.5c.49 0 .98-.02 1.46-.06l.01.07A11.516 11.516-180 0 0 6.5 108.02c0 .3.01.59.03.89h12.66a2.37 2.37-180 0 0 2.37-2.37V77.61a2.37 2.37-180 0 0-2.37-2.37" style="fill:#000;fill-opacity:.09800002;stroke:none;stroke-width:18.19759941;stroke-linecap:butt"/></g><g transform="translate(9.951 -8.858)"><title>path10</title><path d="M17.81 75.24H0a16.84 16.84-180 0 0 16.62 19.49c.49 0 .98-.02 1.46-.06l.01.07a11.525 11.525-180 0 0-10.9 14.17h10.62a2.37 2.37-180 0 0 2.36-2.37V77.61a2.37 2.37-180 0 0-2.36-2.37" style="fill:#000;fill-opacity:.2;stroke:none;stroke-width:18.19759941;stroke-linecap:butt"/></g><g transform="translate(9.951 -12.402)"><title>path12</title><path d="M17.81 78.79H0a16.84 16.84-180 0 0 16.62 19.49c.49 0 .98-.03 1.46-.07l.01.07a11.516 11.516-180 0 0-11.18 10.63h10.9a2.37 2.37-180 0 0 2.36-2.37V81.15a2.37 2.37-180 0 0-2.36-2.36" style="fill:#000;fill-opacity:.2;stroke:none;stroke-width:18.19759941;stroke-linecap:butt"/></g><g transform="translate(9.951 -12.402)"><title>path14</title><path d="M16.03 78.79H0a16.84 16.84-180 0 0 16.62 19.49c.49 0 .98-.03 1.46-.07l.01.07a11.516 11.516-180 0 0-11.18 10.63h9.12a2.37 2.37-180 0 0 2.37-2.37V81.15a2.37 2.37-180 0 0-2.37-2.36" style="fill:#000;fill-opacity:.2;stroke:none;stroke-width:18.19759941;stroke-linecap:butt"/></g><g transform="translate(0 -14.173)"><title>path16</title><path d="M2.36 80.56h23.62a2.36 2.36 0 0 1 2.37 2.36v23.62a2.36 2.36 0 0 1-2.37 2.37H2.36A2.36 2.36 0 0 1 0 106.54V82.92a2.36 2.36 0 0 1 2.36-2.36" style="fill:#03787c;stroke:none;stroke-width:18.19759941;stroke-linecap:butt"/></g><g transform="translate(8.08 -19.488)"><title>path18</title><path d="M1.96 99.74A4.7 4.7 0 0 1 .51 98.2 4.2 4.2 0 0 1 0 96.09a4.06 4.06 0 0 1 .94-2.73 5.57 5.57 0 0 1 2.51-1.64 10.6 10.6 0 0 1 3.43-.53 13 13 0 0 1 4.52.63v3.19a7 7-180 0 0-2.05-.83 10 10-180 0 0-2.39-.29 5.2 5.2-180 0 0-2.45.52 1.61 1.61-180 0 0-.97 1.47 1.5 1.5-180 0 0 .41 1.05 3.8 3.8-180 0 0 1.11.79c.47.24 1.16.54 2.08.92a2 2 0 0 1 .3.12 17 17 0 0 1 2.63 1.3 4.7 4.7 0 0 1 1.55 1.56 4.53 4.53 0 0 1 .57 2.36 4.4 4.4 0 0 1-.89 2.85 4.94 4.94 0 0 1-2.36 1.59 10.7 10.7 0 0 1-3.37.49 18 18 0 0 1-3.05-.26 10.5 10.5 0 0 1-2.48-.71v-3.37a8 8-180 0 0 2.5 1.2 9.8 9.8-180 0 0 2.76.44 4.75 4.75-180 0 0 2.51-.53 1.68 1.68-180 0 0 .84-1.5 1.6 1.6-180 0 0-.47-1.15 4.8 4.8-180 0 0-1.3-.91c-.56-.28-1.38-.64-2.46-1.1a14 14 0 0 1-2.46-1.28" style="fill:#fff;stroke:none;stroke-width:18.19759941;stroke-linecap:butt"/></g><title>path20</title><path d="M0 52.213h56.693v56.693H0z" style="fill:none;stroke:none;stroke-width:18.19759941;stroke-linecap:butt"/></g></g></svg>