<svg xmlns="http://www.w3.org/2000/svg" xml:space="preserve" width="75.591" height="75.591" style="font-size:12px;overflow:visible;color-interpolation-filters:sRGB;fill-rule:evenodd;stroke-linecap:square;stroke-miterlimit:3" viewBox="0 0 56.693 56.693"><g transform="translate(-20.386 -20.386)"><title>Page-1</title><g transform="translate(20.386 -34.016)"><title>O365 - Stream.22080</title><title>_32</title><g transform="translate(12.402 -23.563)"><title>path2</title><path d="M40.38 107.69a2.285 2.285 0 0 0-.71-3.17L4.52 82.16A2.888 2.888 0 0 0 0 84.52v23.03l19.49 3.54z" style="fill:#e8467c;stroke:none;stroke-width:20.38559914;stroke-linecap:butt"/></g><g transform="translate(12.402 -4.234)"><title>path4</title><path d="M0 86.98v21.26a3.065 3.065 0 0 0 4.39 2.85l35.26-22.18a2.32 2.32 0 0 0 1.1-1.93z" style="fill:#bc1948;stroke:none;stroke-width:20.38559914;stroke-linecap:butt"/></g><g transform="translate(3.543 -14.71)"><title>path6</title><path d="m2.36 83.55 18.21 12.4a1.665 1.665-180 0 1 0 2.69L2.36 111.05A1.524 1.524-180 0 1 0 109.7V84.9a1.524 1.524-180 0 1 2.36-1.35" style="fill:#8c193f;stroke:none;stroke-width:20.38559914;stroke-linecap:butt"/></g><title>path8</title><path d="M0 54.401h56.693v56.693H0z" style="fill:none;stroke:none;stroke-width:20.38559914;stroke-linecap:butt"/></g></g></svg>