<svg xmlns="http://www.w3.org/2000/svg" xml:space="preserve" width="75.591" height="75.591" style="font-size:12px;overflow:visible;color-interpolation-filters:sRGB;fill-rule:evenodd;stroke-linecap:square;stroke-miterlimit:3" viewBox="0 0 56.693 56.693"><g transform="translate(-18.116 -18.117)"><title>Page-1</title><g transform="translate(18.116 -34.016)"><title>O365 - Yammer.22016</title><title>g22</title><g transform="translate(20.267 -28.346)"><title>path2</title><path d="M.2 97.69a.74.74 0 0 1-.101-.875.7.7 0 0 1 .113-.147L15.32 81.54a1.48 1.48 0 0 1 2.13.04 40.1 40.1 0 0 1 9.3 16.91l-9.14 10.34-13.6-4.26A16.4 16.4-180 0 0 .2 97.69" style="fill:#28a8ea;stroke:none;stroke-width:18.11650085;stroke-linecap:butt"/></g><g transform="translate(24.272 -12.332)"><title>path4</title><path d="M29.99 82.11a1.474 1.474-180 0 0-1.82-1.08L0 88.55a16.6 16.6 0 0 1 .01 8.57l9.39 11.71 13.37-5.59 5.39 1.45a1.474 1.474-180 0 0 1.82-1.08 47.6 47.6-180 0 0 .01-21.5" style="fill:#0078d4;stroke:none;stroke-width:18.11650085;stroke-linecap:butt"/></g><g transform="translate(20.297 -.628)"><title>path6</title><path d="M3.98 85.42a16.4 16.4 0 0 1-3.77 6.86.74.74-180 0 0 .01 1.035l15.1 15.075a1.48 1.48-180 0 0 2.13-.04 39.95 39.95-180 0 0 9.3-16.81z" style="fill:#0358a7;stroke:none;stroke-width:18.11650085;stroke-linecap:butt"/></g><g transform="translate(20.267 -10.63)"><title>path8</title><path d="M11.62 106.46V77.53a2.37 2.37-180 0 0-2.36-2.37h-5.3L.21 78.92a.7.7-180 0 0-.113.145.74.74-180 0 0 .1.875 16.4 16.4 0 0 1 3.813 6.87H4a16.6 16.6 0 0 1 .01 8.57 16 16 0 0 1-.74 2.14 16.4 16.4 0 0 1-3.03 4.72.74.74-180 0 0 .01 1.035l5.55 5.555h3.46a2.37 2.37-180 0 0 2.36-2.37" style="fill:#000;fill-opacity:.09800002;stroke:none;stroke-width:18.11650085;stroke-linecap:butt"/></g><g transform="translate(20.267 -8.86)"><title>path10</title><path d="M9.85 106.47V77.53a2.37 2.37-180 0 0-2.36-2.36h-5.3L.21 77.15a.7.7-180 0 0-.113.145.74.74-180 0 0 .1.875 16.4 16.4 0 0 1 3.813 6.87H4a16.6 16.6 0 0 1 .01 8.57 16 16 0 0 1-.74 2.14 16.4 16.4 0 0 1-3.03 4.72.74.74-180 0 0 .01 1.035l7.33 7.325a2.37 2.37-180 0 0 2.27-2.36" style="fill:#000;fill-opacity:.2;stroke:none;stroke-width:18.11650085;stroke-linecap:butt"/></g><g transform="translate(20.267 -12.402)"><title>path12</title><path d="M9.85 106.46V81.07a2.37 2.37-180 0 0-2.36-2.36h-5.3L.21 80.69a.7.7-180 0 0-.113.145.74.74-180 0 0 .1.875 16.4 16.4 0 0 1 3.813 6.87l-.01.01a16.6 16.6 0 0 1 .01 8.56 16 16 0 0 1-.74 2.14 16.4 16.4 0 0 1-3.03 4.73.74.74-180 0 0 .01 1.035l3.78 3.775h3.46a2.37 2.37-180 0 0 2.36-2.37" style="fill:#000;fill-opacity:.2;stroke:none;stroke-width:18.11650085;stroke-linecap:butt"/></g><g transform="translate(20.267 -12.402)"><title>path14</title><path d="M8.08 106.46V81.07a2.37 2.37-180 0 0-2.36-2.36H2.19L.21 80.69a.7.7-180 0 0-.113.145.74.74-180 0 0 .1.875 16.4 16.4 0 0 1 3.813 6.87l-.01.01a16.6 16.6 0 0 1 .01 8.56 16 16 0 0 1-.74 2.14 16.4 16.4 0 0 1-3.03 4.73.74.74-180 0 0 .01 1.035l3.78 3.775h1.69a2.37 2.37-180 0 0 2.36-2.37" style="fill:#000;fill-opacity:.2;stroke:none;stroke-width:18.11650085;stroke-linecap:butt"/></g><g transform="translate(0 -14.173)"><title>path16</title><path d="M2.36 80.48h23.62a2.36 2.36 0 0 1 2.37 2.36v23.62a2.36 2.36 0 0 1-2.37 2.37H2.36A2.36 2.36 0 0 1 0 106.46V82.84a2.36 2.36 0 0 1 2.36-2.36" style="fill:#0078d4;stroke:none;stroke-width:18.11650085;stroke-linecap:butt"/></g><g transform="translate(7.317 -19.488)"><title>path18</title><path d="M6.55 98.67a6 6 0 0 1 .39 1.06h.04a5 5 0 0 1 .38-1.04l3.59-6.75a1.58 1.58 0 0 1 1.39-.83 1.577 1.577 0 0 1 1.36 2.36l-4.95 8.63a1.6 1.6-180 0 0-.21.78v4.37a1.577 1.577 0 0 1-1.58 1.58h-.32a1.577 1.577 0 0 1-1.57-1.58v-4.32a1.6 1.6-180 0 0-.21-.76L0 93.45a1.577 1.577 0 0 1 1.37-2.34h.31a1.58 1.58 0 0 1 1.4.85z" style="fill:#fff;stroke:none;stroke-width:18.11650085;stroke-linecap:butt"/></g><title>path20</title><path d="M0 52.132h56.693v56.693H0z" style="fill:none;stroke:none;stroke-width:18.11650085;stroke-linecap:butt"/></g></g></svg>