<svg xmlns="http://www.w3.org/2000/svg" xml:space="preserve" width="75.591" height="75.59" style="font-size:12px;overflow:visible;color-interpolation-filters:sRGB;fill-rule:evenodd;stroke-linecap:square;stroke-miterlimit:3" viewBox="0 0 56.693 56.693"><g transform="translate(-17.63 -17.63)"><title>Page-1</title><g transform="translate(17.63 -34.016)"><title>O365 - Excel.22242</title><title>g26</title><g transform="translate(14.173 -23.86)"><title>path2</title><path d="M21.26 79.05H2.36A2.36 2.36-180 0 0 0 81.41v10.04l21.26 12.4 10.63 4.49 10.63-4.49v-12.4z" style="fill:#21a366;stroke:none;stroke-width:17.63030052;stroke-linecap:butt"/></g><g transform="translate(14.173 -28.346)"><title>path4</title><path d="M0 95.937h21.26v12.402H0z" style="fill:#107c41;stroke:none;stroke-width:17.63030052;stroke-linecap:butt"/></g><g transform="translate(35.433 -40.748)"><title>path6</title><path d="M18.9 95.94H0v12.4h21.26V98.3a2.36 2.36-180 0 0-2.36-2.36" style="fill:#33c481;stroke:none;stroke-width:17.63030052;stroke-linecap:butt"/></g><g transform="translate(14.173 -3.543)"><title>path8</title><path d="M21.26 83.54H0v22.44a2.36 2.36-180 0 0 2.36 2.36h37.8a2.36 2.36-180 0 0 2.36-2.36V95.94Z" style="fill:#185c37;stroke:none;stroke-width:17.63030052;stroke-linecap:butt"/></g><g transform="translate(35.433 -15.945)"><title>path10</title><path d="M0 95.937h21.26v12.402H0z" style="fill:#107c41;stroke:none;stroke-width:17.63030052;stroke-linecap:butt"/></g><g transform="translate(14.173 -10.63)"><title>path12</title><path d="M15.35 74.68H0v33.66h15.35a2.37 2.37-180 0 0 2.37-2.36V77.04a2.37 2.37-180 0 0-2.37-2.36" style="fill:#000;fill-opacity:.09800002;stroke:none;stroke-width:17.63030052;stroke-linecap:butt"/></g><g transform="translate(14.173 -8.858)"><title>path14</title><path d="M13.58 74.68H0v33.66h13.58a2.37 2.37-180 0 0 2.36-2.36V77.04a2.37 2.37-180 0 0-2.36-2.36" style="fill:#000;fill-opacity:.2;stroke:none;stroke-width:17.63030052;stroke-linecap:butt"/></g><g transform="translate(14.173 -12.402)"><title>path16</title><path d="M13.58 78.22H0v30.12h13.58a2.37 2.37-180 0 0 2.36-2.36v-25.4a2.37 2.37-180 0 0-2.36-2.36" style="fill:#000;fill-opacity:.2;stroke:none;stroke-width:17.63030052;stroke-linecap:butt"/></g><g transform="translate(14.173 -12.402)"><title>path18</title><path d="M11.81 78.22H0v30.12h11.81a2.37 2.37-180 0 0 2.36-2.36v-25.4a2.37 2.37-180 0 0-2.36-2.36" style="fill:#000;fill-opacity:.2;stroke:none;stroke-width:17.63030052;stroke-linecap:butt"/></g><g transform="translate(0 -14.173)"><title>path20</title><path d="M2.36 79.99h23.62a2.36 2.36 0 0 1 2.37 2.36v23.63a2.36 2.36 0 0 1-2.37 2.36H2.36A2.36 2.36 0 0 1 0 105.98V82.35a2.36 2.36 0 0 1 2.36-2.36" style="fill:#107c41;stroke:none;stroke-width:17.63030052;stroke-linecap:butt"/></g><g transform="translate(6.26 -19.488)"><title>path22</title><path d="m0 108.34 5.73-8.88-5.25-8.84h4.23l2.86 5.65c.27.53.45.93.55 1.2h.03c.19-.43.39-.85.6-1.25l3.06-5.6h3.88l-5.39 8.79 5.53 8.93H11.7l-3.31-6.2a5 5 0 0 1-.4-.83h-.05a4 4 0 0 1-.38.8l-3.41 6.23z" style="fill:#fff;stroke:none;stroke-width:17.63030052;stroke-linecap:butt"/></g><title>path24</title><path d="M0 51.646h56.693v56.693H0z" style="fill:none;stroke:none;stroke-width:17.63030052;stroke-linecap:butt"/></g></g></svg>