<svg xmlns="http://www.w3.org/2000/svg" xml:space="preserve" width="75.591" height="75.59" style="font-size:12px;overflow:visible;color-interpolation-filters:sRGB;fill-rule:evenodd;stroke-linecap:square;stroke-miterlimit:3" viewBox="0 0 56.693 56.693"><g transform="translate(-17.711 -17.711)"><title>Page-1</title><g transform="translate(17.711 -34.016)"><title>O365 - OneNote.22183</title><title>g26</title><g transform="translate(14.173 -3.543)"><title>path2</title><path d="M2.36 58.81h37.8a2.36 2.36 0 0 1 2.36 2.37v44.88a2.36 2.36 0 0 1-2.36 2.36H2.36A2.36 2.36 0 0 1 0 106.06V61.18a2.36 2.36 0 0 1 2.36-2.37" style="fill:#ca64ea;stroke:none;stroke-width:17.7112999;stroke-linecap:butt"/></g><g transform="translate(14.173 -3.543)"><title>path4</title><path d="M42.52 61.18a2.36 2.36-180 0 0-2.36-2.37H2.36A2.36 2.36-180 0 0 0 61.18v44.88a2.36 2.36-180 0 0 2.36 2.36h27.76l12.4-37.2z" style="fill:#ca64ea;stroke:none;stroke-width:17.7112999;stroke-linecap:butt"/></g><g transform="translate(44.291 -22.686)"><title>path6</title><path d="M12.4 90.36H0v12.4l6.2 5.66 6.2-5.66z" style="fill:#ae4bd5;stroke:none;stroke-width:17.7112999;stroke-linecap:butt"/></g><g transform="translate(44.291 -9.93)"><title>path8</title><path d="M12.4 90H0v12.41l6.2 6.01 6.2-6.01z" style="fill:#9332bf;stroke:none;stroke-width:17.7112999;stroke-linecap:butt"/></g><g transform="translate(44.291 -3.543)"><title>path10</title><path d="M0 96.02h12.4v10.04a2.36 2.36 0 0 1-2.36 2.36H0Z" style="fill:#7719aa;stroke:none;stroke-width:17.7112999;stroke-linecap:butt"/></g><g transform="translate(14.173 -10.63)"><title>path12</title><path d="M15.35 74.76H0v33.66h15.35a2.37 2.37-180 0 0 2.37-2.36V77.12a2.37 2.37-180 0 0-2.37-2.36" style="fill:#000;fill-opacity:.09800002;stroke:none;stroke-width:17.7112999;stroke-linecap:butt"/></g><g transform="translate(14.173 -8.858)"><title>path14</title><path d="M13.58 74.76H0v33.66h13.58a2.37 2.37-180 0 0 2.36-2.36V77.12a2.37 2.37-180 0 0-2.36-2.36" style="fill:#000;fill-opacity:.2;stroke:none;stroke-width:17.7112999;stroke-linecap:butt"/></g><g transform="translate(14.173 -12.402)"><title>path16</title><path d="M13.58 78.3H0v30.12h13.58a2.37 2.37-180 0 0 2.36-2.36v-25.4a2.37 2.37-180 0 0-2.36-2.36" style="fill:#000;fill-opacity:.3;stroke:none;stroke-width:17.7112999;stroke-linecap:butt"/></g><g transform="translate(14.173 -12.402)"><title>path18</title><path d="M11.81 78.3H0v30.12h11.81a2.37 2.37-180 0 0 2.36-2.36v-25.4a2.37 2.37-180 0 0-2.36-2.36" style="fill:#000;fill-opacity:.2;stroke:none;stroke-width:17.7112999;stroke-linecap:butt"/></g><g transform="translate(0 -14.173)"><title>path20</title><path d="M2.36 80.07h23.62a2.36 2.36 0 0 1 2.37 2.37v23.62a2.36 2.36 0 0 1-2.37 2.36H2.36A2.36 2.36 0 0 1 0 106.06V82.44a2.36 2.36 0 0 1 2.36-2.37" style="fill:#7719aa;stroke:none;stroke-width:17.7112999;stroke-linecap:butt"/></g><g transform="translate(7.087 -19.488)"><title>path22</title><path d="M0 90.7h3.78l6.47 11.93c.34.51.59.93.76 1.24h.05a17 17 0 0 1-.11-2.35V90.7h3.22v17.72h-3.53L3.88 96.67a9 9 0 0 1-.68-1.21h-.06a24 24 0 0 1 .09 2.58v10.38H0Z" style="fill:#fff;stroke:none;stroke-width:17.7112999;stroke-linecap:butt"/></g><title>path24</title><path d="M0 51.727h56.693v56.693H0z" style="fill:none;stroke:none;stroke-width:17.7112999;stroke-linecap:butt"/></g></g></svg>