<svg xmlns="http://www.w3.org/2000/svg" xml:space="preserve" width="75.59" height="75.59" style="font-size:12px;overflow:visible;color-interpolation-filters:sRGB;fill-rule:evenodd;stroke-linecap:square;stroke-miterlimit:3" viewBox="0 0 56.693 56.693"><g transform="translate(-5.67 -5.67)"><title>Page-1</title><g transform="translate(5.67 -34.016)"><title>O365 - API SharePoint.22312</title><desc>This package will provide stencils to visually represent Power Platform: Power Bi, Power Apps, Power Virtual Agents and/or Power Automate devices, architectures or solutions diagrams. It will provide stencils to visually represent features, systems, processes and architectures that use these technologies.</desc><title>Page-1</title><title>Sheet.22314</title><title>rect5890</title><title>Sheet.22316</title><path d="M0 39.685h56.693v56.693H0z" style="fill:#1b75bc;stroke:none;stroke-width:.75"/><g transform="translate(33.242 -15.227)"><title>path5892</title><title>Sheet.22318</title><path d="M14.63 83.2A4.11 4.11-180 0 0 11 79.09a9.3 9.3-180 0 0-5.44-4.71 4.11 4.11-180 0 0-4.11-4.11 2.66 2.66-180 0 0-1.45.36V78a2.66 2.66-180 0 0 1.45.36 4.11 4.11-180 0 0 3.39-1.82 7.13 7.13 0 0 1 3.86 3.03 4.11 4.11-180 0 0 0 7.49 7.13 7.13 0 0 1-3.86 3.03 4.11 4.11-180 0 0-3.39-1.82 2.66 2.66-180 0 0-1.45.37v7.37a2.66 2.66-180 0 0 1.45.37 4.11 4.11-180 0 0 4.11-4.11A9.3 9.3-180 0 0 11 87.43a4.11 4.11-180 0 0 3.63-4.23" style="fill:#fff;stroke:none;stroke-width:.75"/></g><g transform="translate(8.952 -9.4)"><title>Sheet.22319</title><desc>S</desc><title>Sheet.22320</title><path d="M0 91.74V62.85l23.16-4.24v37.77z" style="fill:#fff;stroke:none;stroke-width:.75;stroke-linecap:round;stroke-linejoin:round"/><g transform="translate(6.19 -6.825)"><title>Sheet.22321</title><path d="M0 72.257h10.784v24.121H0z" style="fill:#fff;stroke:none;stroke-width:7.19999981;stroke-linecap:butt"/></g><g transform="translate(6.187 -6.823)"><title>Sheet.22322</title><desc>S</desc><path d="M0 72.256h20.101v24.122H0z" style="fill:none;stroke:none;stroke-width:.75;stroke-linecap:butt"/><text y="89.72" style="font-weight:700;font-size:18px;font-family:Calibri;fill:#1b75bc">S</text></g></g></g></g></svg>