<svg xmlns="http://www.w3.org/2000/svg" xml:space="preserve" width="75.593" height="75.59" style="font-size:12px;overflow:visible;color-interpolation-filters:sRGB;fill-rule:evenodd;stroke-linecap:square;stroke-miterlimit:3" viewBox="0 0 56.695 56.693"><g transform="translate(-18.36 -18.36)"><title>Page-1</title><g transform="translate(18.36 -34.016)"><title>O365 - Teams.22051</title><title>g30</title><g transform="translate(21.85 -37.795)"><title>circle2</title><circle cx="8.268" cy="100.8" r="8.268" style="fill:#7b83eb;stroke:none;stroke-width:18.35960007;stroke-linecap:butt"/></g><g transform="translate(22.04 -37.986)"><title>path4</title><path d="M7.49 102.76H0l.04.17v.01l.04.15a8.275 8.275-180 0 0 9.77 5.98v-3.95a2.37 2.37-180 0 0-2.36-2.36" style="fill:#000;fill-opacity:.09800002;stroke:none;stroke-width:18.35960007;stroke-linecap:butt"/></g><g transform="translate(22.647 -37.795)"><title>path6</title><path d="M5.11 104.34H0a8.27 8.27-180 0 0 7.47 4.73v-2.37a2.37 2.37-180 0 0-2.36-2.36" style="fill:#000;fill-opacity:.2;stroke:none;stroke-width:18.35960007;stroke-linecap:butt"/></g><g transform="translate(42.52 -37.205)"><title>circle8</title><circle cx="6.201" cy="102.868" r="6.201" style="fill:#5059c9;stroke:none;stroke-width:18.35960007;stroke-linecap:butt"/></g><g transform="translate(38.975 -10.924)"><title>path10</title><path d="M15.06 84.56H1.13A1.134 1.134-180 0 0 0 85.69v14.37a9.07 9.07-180 0 0 7.03 9.01 8.87 8.87-180 0 0 10.69-8.68V87.22a2.657 2.657-180 0 0-2.66-2.66" style="fill:#5059c9;stroke:none;stroke-width:18.35960007;stroke-linecap:butt"/></g><g transform="translate(15.945 -2.256)"><title>path12</title><path d="M28.35 78.55v16.83a14.164 14.164 0 0 1-26.44 7.09 13 13 0 0 1-.88-1.78 15 15 0 0 1-.59-1.77A14.6 14.6 0 0 1 0 95.38V78.55a2.654 2.654 0 0 1 2.66-2.66h23.03a2.654 2.654 0 0 1 2.66 2.66" style="fill:#7b83eb;stroke:none;stroke-width:18.35960007;stroke-linecap:butt"/></g><g transform="translate(22.647 -37.795)"><title>path14</title><path d="M5.11 104.34H0a8.27 8.27-180 0 0 7.47 4.73v-2.37a2.37 2.37-180 0 0-2.36-2.36" style="fill:#000;fill-opacity:.2;stroke:none;stroke-width:18.35960007;stroke-linecap:butt"/></g><g transform="translate(15.945 -10.63)"><title>path16</title><path d="M15.94 84.27v22.44A2.34 2.34 0 0 1 14.1 109a1.7 1.7 0 0 1-.51.07H1.03a15 15 0 0 1-.59-1.77 14.6 14.6 0 0 1-.44-3.55V86.92a2.654 2.654 0 0 1 2.66-2.65z" style="fill:#000;fill-opacity:.09800002;stroke:none;stroke-width:18.35960007;stroke-linecap:butt"/></g><g transform="translate(15.945 -8.858)"><title>path18</title><path d="M14.17 82.49v24.22a1.7 1.7 0 0 1-.07.52 2.34 2.34 0 0 1-2.28 1.84H1.91a13 13 0 0 1-.88-1.77 15 15 0 0 1-.59-1.78 14.6 14.6 0 0 1-.44-3.54V85.15a2.654 2.654 0 0 1 2.66-2.66z" style="fill:#000;fill-opacity:.2;stroke:none;stroke-width:18.35960007;stroke-linecap:butt"/></g><g transform="translate(15.945 -12.402)"><title>path20</title><path d="M14.17 86.04v20.67a2.367 2.367 0 0 1-2.35 2.36H.44a14.6 14.6 0 0 1-.44-3.55V88.69a2.654 2.654 0 0 1 2.66-2.65z" style="fill:#000;fill-opacity:.2;stroke:none;stroke-width:18.35960007;stroke-linecap:butt"/></g><g transform="translate(15.945 -12.402)"><title>path22</title><path d="M2.66 86.04A2.654 2.654-180 0 0 0 88.69v16.83a14.6 14.6-180 0 0 .44 3.55h9.61a2.367 2.367-180 0 0 2.35-2.36V86.04Z" style="fill:#000;fill-opacity:.2;stroke:none;stroke-width:18.35960007;stroke-linecap:butt"/></g><g transform="translate(0 -14.173)"><title>path24</title><path d="M2.36 80.72h23.62a2.36 2.36 0 0 1 2.37 2.36v23.63a2.36 2.36 0 0 1-2.37 2.36H2.36A2.36 2.36 0 0 1 0 106.71V83.08a2.36 2.36 0 0 1 2.36-2.36" style="fill:#4b53bc;stroke:none;stroke-width:18.35960007;stroke-linecap:butt"/></g><g transform="translate(7.122 -19.497)"><title>path26</title><path d="M14.1 94.86H8.81v14.21H5.33V94.86H0v-3.49h14.1z" style="fill:#fff;stroke:none;stroke-width:18.35960007;stroke-linecap:butt"/></g><title>path28</title><path d="M0 52.375h56.693v56.693H0z" style="fill:none;stroke:none;stroke-width:18.35960007;stroke-linecap:butt"/></g></g></svg>