<svg xmlns="http://www.w3.org/2000/svg" xml:space="preserve" width="75.59" height="75.59" style="font-size:12px;overflow:visible;color-interpolation-filters:sRGB;fill-rule:evenodd;stroke-linecap:square;stroke-miterlimit:3" viewBox="0 0 56.693 56.693"><g transform="translate(-5.67 -5.67)"><title>Page-1</title><g transform="translate(5.67 -34.016)"><title>O365 - API Dropbox.22367</title><title>Page-1</title><title>Power Automate API: Dropbox</title><title>rect5928</title><title>Sheet.22371</title><path d="M0 39.685h56.693v56.693H0z" style="fill:#007ee5;stroke:none;stroke-width:.75"/><g transform="translate(7.615 -31.793)"><title>polygon5930</title><title>Sheet.22373</title><path d="m21.16 88.64-8.71-7.25L0 89.49l8.58 6.89Z" style="fill:#fff;stroke:none;stroke-width:.75"/></g><g transform="translate(7.615 -16.804)"><title>polygon5932</title><title>Sheet.22375</title><path d="M8.58 81.39 0 88.28l12.45 8.1 8.71-7.25z" style="fill:#fff;stroke:none;stroke-width:.75"/></g><g transform="translate(28.77 -16.804)"><title>polygon5934</title><title>Sheet.22377</title><path d="M12.58 81.39 0 89.13l8.7 7.25 12.46-8.1z" style="fill:#fff;stroke:none;stroke-width:.75"/></g><g transform="translate(28.77 -31.793)"><title>polygon5936</title><title>Sheet.22379</title><path d="m12.58 96.38 8.58-6.89-12.46-8.1L0 88.64Z" style="fill:#fff;stroke:none;stroke-width:.75"/></g><g transform="translate(16.319 -7.496)"><title>polygon5938</title><title>Sheet.22381</title><path d="m0 88.89 12.45 7.49 12.45-7.49v-2.66l-3.62 2.41-8.83-7.25-8.7 7.25L0 86.23Z" style="fill:#fff;stroke:none;stroke-width:.75"/></g></g></g></svg>