<svg xmlns="http://www.w3.org/2000/svg" xml:space="preserve" width="75.59" height="75.59" style="font-size:12px;overflow:visible;color-interpolation-filters:sRGB;fill-rule:evenodd;stroke-linecap:square;stroke-miterlimit:3" viewBox="0 0 56.693 56.693"><g transform="translate(-20.79 -20.791)"><title>Page-1</title><g transform="translate(20.79 -34.016)"><title>O365 - Planner.22152</title><title>_32</title><g transform="translate(7.087 -3.543)"><title>path2</title><path d="M14.17 109.2V83.15H0v26.05c0 1.24 1.24 2.3 2.66 2.3h8.86c1.41 0 2.65-1.06 2.65-2.3" style="fill:#185c37;stroke:none;stroke-width:20.79080009;stroke-linecap:butt"/></g><g transform="translate(28.524 -24.803)"><title>path4</title><path d="M18.43 111.5H6.91L0 98.03l6.91-14.88h11.52c1.41 0 2.65 1.07 2.65 2.31v23.56c0 1.42-1.24 2.48-2.65 2.48" style="fill:#33c481;stroke:none;stroke-width:20.79080009;stroke-linecap:butt"/></g><g transform="translate(7.087 -14.173)"><title>path6</title><path d="M28.35 72.52H2.3c-1.24 0-2.3 1.07-2.3 2.31v20.72h14.17v15.95h11.87c1.24 0 2.31-1.06 2.31-2.3z" style="fill:#107c41;stroke:none;stroke-width:20.79080009;stroke-linecap:butt"/></g><g transform="translate(21.26 -35.433)"><title>path8</title><path d="M0 93.783h14.173v17.716H0z" style="fill:#21a366;stroke:none;stroke-width:20.79080009;stroke-linecap:butt"/></g><title>path10</title><path d="M0 54.806h56.693v56.693H0z" style="fill:none;stroke:none;stroke-width:20.79080009;stroke-linecap:butt"/></g></g></svg>