<svg xmlns="http://www.w3.org/2000/svg" xml:space="preserve" width="75.595" height="64.253" style="font-size:12px;overflow:visible;color-interpolation-filters:sRGB;fill-rule:evenodd;stroke-linecap:square;stroke-miterlimit:3" viewBox="0 0 56.697 48.19"><g transform="translate(-16.105 -16.104)"><title>Page-1</title><g transform="translate(16.105 -34.016)"><title>O365 - Exchange.22224</title><title>Sheet.22225</title><g transform="translate(7.217)"><title>Sheet.22226</title><path d="M45.86 50.12H33.28c-.95 0-1.87.37-2.55 1.03L1.05 80.06C.38 80.73 0 81.61 0 82.55V94.8c0 1.94 1.61 3.51 3.6 3.51h12.58c.95 0 1.87-.37 2.55-1.03l29.69-28.93c.68-.66 1.06-1.54 1.06-2.48V53.61c-.02-1.93-1.63-3.49-3.62-3.49" style="fill:#28a8ea;stroke:none;stroke-width:16.1053009;stroke-linecap:butt"/></g><g transform="translate(31.94)"><title>Sheet.22227</title><path d="M21.14 98.31H8.56c-.95 0-1.87-.37-2.55-1.03L0 91.43V80.48c0-3.47 2.88-6.27 6.43-6.27h11.24l6.01 5.85c.68.67 1.06 1.55 1.06 2.49V94.8c0 1.94-1.61 3.51-3.6 3.51" style="fill:#0078d4;stroke:none;stroke-width:16.1053009;stroke-linecap:butt"/></g><g transform="translate(7.217 -24.087)"><title>Sheet.22228</title><path d="M3.6 74.21h12.58c.95 0 1.87.37 2.55 1.03l6.01 5.85v10.95c0 3.47-2.88 6.27-6.43 6.27H7.07l-6.02-5.86A3.47 3.47 0 0 1 0 89.97V77.7c0-1.94 1.61-3.49 3.6-3.49" style="fill:#50d9ff;stroke:none;stroke-width:16.1053009;stroke-linecap:butt"/></g><g transform="translate(7.217 -7.03)"><title>Sheet.22229</title><path d="M0 89.58v8.73h20.28c1.16 0 2.15-.82 2.35-1.94-.62.57-1.45.93-2.37.94H0Z" style="fill:#2086bb;stroke:none;stroke-width:16.1053009;stroke-linecap:butt"/></g><g transform="translate(29.846 -8.983)"><title>Sheet.22230</title><path d="M1.07 80.33c-.29.44-.63.84-1.02 1.19v16.39c0 .14-.02.27-.05.4.65-.6 1.07-1.47 1.07-2.41z" style="fill:#2497d2;stroke:none;stroke-width:16.1053009;stroke-linecap:butt"/></g><g transform="translate(7.217 -25.76)"><title>Sheet.22231</title><path d="M20.26 84.91H0v1h20.26c1.33 0 2.4 1.04 2.4 2.33v10.07c.39-.35.74-.75 1.02-1.19v-8.86c.02-1.85-1.52-3.34-3.42-3.35" style="fill:#48c3e5;stroke:none;stroke-width:16.1053009;stroke-linecap:butt"/></g><g transform="translate(7.217 -8.044)"><title>Sheet.22232</title><path d="M0 90.59v7.72h20.26a3.55 3.55 0 0 0 2.37-.94c.03-.13.04-.26.04-.4v-1.99c0 1.28-1.07 2.32-2.39 2.33H0Z" style="fill:#1d78a8;stroke:none;stroke-width:16.1053009;stroke-linecap:butt"/></g><g transform="translate(29.89 -11.376)"><title>Sheet.22233</title><path d="M0 83.91v14.4z" style="fill:#1d79a8;stroke:none;stroke-width:16.1053009;stroke-linecap:butt"/></g><g transform="translate(7.217 -9.042)"><title>Sheet.22234</title><path d="M22.67 81.58c-.31.28-.66.54-1.02.76v13.64c0 1.29-1.07 2.33-2.4 2.33H0v-6.72 6.72h20.28c1.32 0 2.39-1.04 2.39-2.33z" style="fill:#176086;stroke:none;stroke-width:16.1053009;stroke-linecap:butt"/></g><g transform="translate(26.456 -25.012)"><title>Sheet.22235</title><path d="M1.02 85.16H0c1.33 0 2.4 1.04 2.4 2.33v10.82c.37-.22.7-.47 1.02-.76V87.49c0-1.27-1.07-2.33-2.4-2.33" style="fill:#2e7d92;stroke:none;stroke-width:16.1053009;stroke-linecap:butt"/></g><g transform="translate(7.217 -38.164)"><title>Sheet.22236</title><path d="M19.24 98.31H0Z" style="fill:#41afce;stroke:none;stroke-width:16.1053009;stroke-linecap:butt"/></g><g transform="translate(7.217 -15.764)"><title>Sheet.22237</title><path d="M0 81.64v16.67c0-.92.38-1.82 1.05-2.48l6.02-5.86-6.02-5.85A3.5 3.5 0 0 1 0 81.64" style="fill:#838383;stroke:none;stroke-width:16.1053009;stroke-linecap:butt"/></g><g transform="translate(7.217 -9.042)"><title>Sheet.22238</title><path d="M21.63 82.34c-.97.57-2.1.91-3.34.91H7.07l-6.02 5.86C.38 89.77 0 90.65 0 91.59v6.72h19.25c1.33 0 2.4-1.04 2.4-2.33V82.34Z" style="fill:#155678"/><path d="M21.63 82.34c-.97.57-2.1.91-3.34.91H7.07l-6.02 5.86C.38 89.77 0 90.65 0 91.59v6.72h19.25c1.33 0 2.4-1.04 2.4-2.33V82.34" style="stroke:none;stroke-width:16.1053009;stroke-linecap:butt"/></g><g transform="translate(7.217 -24.102)"><title>Sheet.22239</title><path d="M19.24 84.25H0v5.72c0 .93.38 1.82 1.05 2.48l6.02 5.86h11.24c1.22 0 2.36-.34 3.34-.91V86.58c-.02-1.28-1.09-2.32-2.41-2.33" style="fill:#297083;stroke:none;stroke-width:16.1053009;stroke-linecap:butt"/></g><g transform="translate(0 -10.04)"><title>Sheet.22240</title><path d="M2.41 70.19h24.05c1.32 0 2.41 1.04 2.41 2.34v23.43c0 1.29-1.07 2.35-2.41 2.35H2.41C1.08 98.31 0 97.27 0 95.96V72.53c0-1.29 1.08-2.34 2.41-2.34" style="fill:#0078d4;stroke:none;stroke-width:16.1053009;stroke-linecap:butt"/></g><g transform="translate(9.34 -16.484)"><title>Sheet.22241</title><path d="M9.81 85.55H3.06v3.85H9.4v2.47H3.06v3.99h7.11v2.45H0V83.07h9.81z" style="fill:#fff;stroke:none;stroke-width:16.1053009;stroke-linecap:butt"/></g></g></g></svg>