<svg xmlns="http://www.w3.org/2000/svg" xml:space="preserve" width="71.811" height="75.591" style="font-size:12px;overflow:visible;color-interpolation-filters:sRGB;fill-rule:evenodd;stroke-linecap:square;stroke-miterlimit:3" viewBox="0 0 53.858 56.693"><g transform="translate(-18.81 -18.81)"><title>Page-1</title><g transform="translate(18.81 -34.016)"><title>O365 - Forms.22210</title><title>_32</title><g transform="translate(13.465 -5.315)"><title>path6</title><path d="M40.39 84.72 21.88 74.09 0 84.72v22.44a2.255 2.374-180 0 0 2.24 2.36h35.92a2.255 2.374-180 0 0 2.23-2.36z" style="fill:#036c70;stroke:none;stroke-width:18.80960083;stroke-linecap:butt"/></g><g transform="translate(13.465 -28.346)"><title>path8</title><path d="M38.16 84.72H2.24A2.255 2.374-180 0 0 0 87.07v22.45h40.39V87.07a2.255 2.374-180 0 0-2.23-2.35" style="fill:#37c6d0;stroke:none;stroke-width:18.80960083;stroke-linecap:butt"/></g><g transform="translate(13.465 -10.63)"><title>path10</title><path d="M14.59 75.86H0v33.66h14.59a2.255 2.374-180 0 0 2.24-2.36V78.21a2.255 2.374-180 0 0-2.24-2.35" style="fill:#000;fill-opacity:.09800002;stroke:none;stroke-width:18.80960083;stroke-linecap:butt"/></g><g transform="translate(13.465 -8.858)"><title>path12</title><path d="M12.91 75.86H0v33.66h12.91a2.255 2.374-180 0 0 2.24-2.36V78.21a2.255 2.374-180 0 0-2.24-2.35" style="fill:#000;fill-opacity:.2;stroke:none;stroke-width:18.80960083;stroke-linecap:butt"/></g><g transform="translate(13.465 -12.402)"><title>path14</title><path d="M12.91 79.4H0v30.12h12.91a2.255 2.374-180 0 0 2.24-2.36v-25.4a2.255 2.374-180 0 0-2.24-2.36" style="fill:#000;fill-opacity:.2;stroke:none;stroke-width:18.80960083;stroke-linecap:butt"/></g><g transform="translate(13.465 -12.402)"><title>path16</title><path d="M11.23 79.4H0v30.12h11.23a2.255 2.374-180 0 0 2.23-2.36v-25.4a2.255 2.374-180 0 0-2.23-2.36" style="fill:#000;fill-opacity:.2;stroke:none;stroke-width:18.80960083;stroke-linecap:butt"/></g><g transform="translate(0 -14.173)"><title>Back_Plate</title><path d="M0 107.16a2.239 2.356-180 0 0 2.24 2.36h22.45a2.239 2.356-180 0 0 2.24-2.36V83.53a2.239 2.356-180 0 0-2.24-2.36H2.24A2.239 2.356-180 0 0 0 83.53Z" style="fill:#038387;stroke:none;stroke-width:18.80960083;stroke-linecap:butt"/></g><title>path19</title><path d="M0 52.825h53.858v56.693H0z" style="fill:none;stroke:none;stroke-width:18.80960083;stroke-linecap:butt"/><g transform="translate(35.344 -8.858)"><title>path22</title><path d="M0 95.35h13.46v14.17H0Z" style="fill:#1a9ba1;stroke:none;stroke-width:18.80960083;stroke-linecap:butt"/></g><g transform="translate(33.661 -31.89)"><title>circle24</title><ellipse cx="8.415" cy="100.66" rx="8.415" ry="8.858" style="fill:#1a9ba1;stroke:none;stroke-width:18.80960083;stroke-linecap:butt"/></g><g transform="translate(37.028 -35.433)"><title>circle26</title><ellipse cx="5.049" cy="104.203" rx="5.049" ry="5.315" style="fill:#036c70;stroke:none;stroke-width:18.80960083;stroke-linecap:butt"/></g><g transform="translate(8.415 -19.488)"><title>path28</title><path d="M10.59 94.67H3.37v4.84h6.73v2.92H3.37v7.09H0V91.8h10.59z" style="fill:#fff;stroke:none;stroke-width:18.80960083;stroke-linecap:butt"/></g></g></g></svg>