<svg xmlns="http://www.w3.org/2000/svg" xml:space="preserve" width="79.726" height="49.456" style="font-size:12px;overflow:visible;color-interpolation-filters:sRGB;fill-rule:evenodd;stroke-linecap:square;stroke-miterlimit:3" viewBox="0 0 59.795 37.092"><g transform="translate(-18.682 -18.683)"><title>Page-1</title><g transform="translate(20.332 -34.016)"><title>O365 - OneDrive.22197</title><title>STYLE_COLOR</title><g transform="translate(13.106 -19.516)"><title>path4</title><path d="m8.04 82.51 12.56 7.28 7.48-3.05v.01a12.103 11.72 0 0 1 4.81-.97c.28 0 .55.02.82.03A18.688 18.098-180 0 0 0 80.36c.06 0 .13-.01.19-.01a14.876 14.406 0 0 1 7.85 2.16" style="fill:#0364b8;stroke:none;stroke-width:18.67980003;stroke-linecap:butt"/></g><g transform="translate(0 -6.202)"><title>path6</title><path d="M21.15 69.2a14.876 14.406-180 0 0-7.85-2.16c-.07 0-.13.01-.19.01A14.944 14.471-180 0 0 1.03 89.79l11.07-4.51 4.92-2 10.96-4.47 5.72-2.33z" style="fill:#0078d4;stroke:none;stroke-width:18.67980003;stroke-linecap:butt"/></g><g transform="translate(33.704 -6.18)"><title>path8</title><path d="M13.12 72.48c-.28-.02-.55-.03-.82-.03a12.103 11.72-180 0 0-4.82.96L0 76.46l2.17 1.26 7.11 4.12 3.1 1.8 10.61 6.15a12.147 11.763-180 0 0-9.87-17.31" style="fill:#1490df;stroke:none;stroke-width:18.67980003;stroke-linecap:butt"/></g><g transform="translate(1.033)"><title>path10</title><path d="m45.05 77.46-3.1-1.8-7.11-4.12-2.17-1.26-5.72 2.33-10.96 4.46-4.92 2.01L0 83.59a14.929 14.457-180 0 0 12.26 6.2h32.71a12.144 11.76-180 0 0 10.69-6.18z" style="fill:#28a8ea;stroke:none;stroke-width:18.67980003;stroke-linecap:butt"/></g></g></g></svg>