<svg xmlns="http://www.w3.org/2000/svg" xml:space="preserve" width="75.59" height="75.59" style="font-size:12px;overflow:visible;color-interpolation-filters:sRGB;fill-rule:evenodd;stroke-linecap:square;stroke-miterlimit:3" viewBox="0 0 56.693 56.693"><defs><linearGradient id="a" x1="0" x2="24.805" y1="77.014" y2="77.014" gradientTransform="scale(.9998 1.0002)" gradientUnits="userSpaceOnUse"><stop offset="0" stop-color="#058f92"/><stop offset=".5" stop-color="#038489"/><stop offset="1" stop-color="#026d71"/></linearGradient></defs><g transform="translate(-11.127 -11.127)"><title>Page-1</title><g transform="translate(11.127 -34.016)"><title>O365 - Sway.22067</title><g transform="translate(15.06 -15.945)"><title>Sheet.22068</title><path d="M37.2 70.24v29.82l-16.83 1.78L0 100.06V70.24a2.06 2.06 0 0 1 2.06-2.07h33.08a2.06 2.06 0 0 1 2.06 2.07" style="fill:#37c6d0;stroke:none;stroke-width:11.12730026;stroke-linecap:butt"/></g><g transform="translate(31.89 -22.27)"><title>Sheet.22069</title><path d="M20.37 93.86v7.08l-.62.9H0l12.45-12.45a2.44 2.44 0 0 1 3.45 0z" style="fill:#1a9ba1;stroke:none;stroke-width:11.12730026;stroke-linecap:butt"/></g><g transform="translate(15.06 -15.945)"><title>Sheet.22070</title><path d="M37.2 94.62v5.44l-16.83 1.78L0 100.06v-.12l2.03-2.03 17.5-17.5a2.44 2.44 0 0 1 3.46 0l4.91 4.91z" style="fill:#038387;stroke:none;stroke-width:11.12730026;stroke-linecap:butt"/></g><g transform="translate(43.406 -40.748)"><title>Sheet.22071</title><circle cx="2.657" cy="99.178" r="2.657" style="fill:#86f2f2;stroke:none;stroke-width:11.12730026;stroke-linecap:butt"/></g><g transform="translate(15.06 -7.087)"><title>Sheet.22072</title><path d="M2.07 101.84h33.07a2.07 2.07-180 0 0 2.06-2.07v-8.56H0v8.56a2.07 2.07-180 0 0 2.07 2.07" style="fill:#036c70;stroke:none;stroke-width:11.12730026;stroke-linecap:butt"/></g><title>Sheet.22073</title><path d="M0 45.143h56.693v56.693H0z" style="fill:none;stroke:none;stroke-width:11.12730026;stroke-linecap:butt"/><g transform="translate(15.06 -13.287)"><title>Sheet.22074</title><path d="M14.17 76.44v23.33a1.6 1.6 0 0 1-.03.36 2.05 2.05 0 0 1-2.03 1.71H0V74.38h12.11a2.06 2.06 0 0 1 2.06 2.06" style="fill:#000;fill-opacity:.2;stroke:none;stroke-width:11.12730026;stroke-linecap:butt"/></g><g transform="translate(15.06 -14.173)"><title>Sheet.22075</title><path d="M15.06 77.33v21.56a2.977 2.977 0 0 1-2.95 2.95H0V74.38h12.11a2.96 2.96 0 0 1 2.95 2.95" style="fill:#000;fill-opacity:.09800002;stroke:none;stroke-width:11.12730026;stroke-linecap:butt"/></g><g transform="translate(15.06 -15.06)"><title>Sheet.22076</title><path d="M14.17 78.21v21.56a2.06 2.06 0 0 1-2.06 2.07H0V76.15h12.11a2.06 2.06 0 0 1 2.06 2.06" style="fill:#000;fill-opacity:.2;stroke:none;stroke-width:11.12730026;stroke-linecap:butt"/></g><g transform="translate(15.06 -15.06)"><title>Sheet.22077</title><path d="M13.29 78.21v21.56a2.06 2.06 0 0 1-2.07 2.07H0V76.15h11.22a2.06 2.06 0 0 1 2.07 2.06" style="fill:#000;fill-opacity:.09800002;stroke:none;stroke-width:11.12730026;stroke-linecap:butt"/></g><g transform="translate(3.543 -15.945)"><title>Sheet.22078</title><path d="M0 99.77a2.067 2.067-180 0 0 2.07 2.07h20.67a2.067 2.067-180 0 0 2.06-2.07V79.1a2.067 2.067-180 0 0-2.06-2.07H2.07A2.067 2.067-180 0 0 0 79.1Z" style="fill:url(#a);stroke:none;stroke-width:11.12730026;stroke-linecap:butt"/></g><g transform="translate(11.001 -21.159)"><title>Sheet.22079</title><path d="M1.59 94.4a3.8 3.8 0 0 1-1.18-1.26A3.4 3.4 0 0 1 0 91.43a3.3 3.3 0 0 1 .77-2.21 4.5 4.5 0 0 1 2.03-1.33 8.6 8.6 0 0 1 2.79-.43 10.6 10.6 0 0 1 3.66.51v2.59a5.7 5.7-180 0 0-1.66-.68 8 8-180 0 0-1.94-.23 4.2 4.2-180 0 0-1.99.42 1.31 1.31-180 0 0-.79 1.2 1.2 1.2-180 0 0 .34.84 3.1 3.1-180 0 0 .9.65c.37.19.94.43 1.69.74a2 2 0 0 1 .24.1 14 14 0 0 1 2.13 1.05 3.8 3.8 0 0 1 1.26 1.27 3.7 3.7 0 0 1 .46 1.92 3.57 3.57 0 0 1-.72 2.3 4 4 0 0 1-1.92 1.3 8.7 8.7 0 0 1-2.74.4 14.4 14.4 0 0 1-2.48-.21 8.5 8.5 0 0 1-2.01-.58v-2.73a6.5 6.5-180 0 0 2.04.97 8 8-180 0 0 2.24.36 3.85 3.85-180 0 0 2.03-.44A1.36 1.36-180 0 0 7.01 98a1.3 1.3-180 0 0-.38-.93 3.9 3.9-180 0 0-1.06-.74c-.45-.23-1.11-.52-1.99-.89a11.3 11.3 0 0 1-1.99-1.04" style="fill:#fff;stroke:none;stroke-width:11.12730026;stroke-linecap:butt"/></g></g></g></svg>