<svg xmlns="http://www.w3.org/2000/svg" xml:space="preserve" width="75.595" height="75.591" style="font-size:12px;overflow:visible;color-interpolation-filters:sRGB;fill-rule:evenodd;stroke-linecap:square;stroke-miterlimit:3" viewBox="0 0 56.696 56.693"><g transform="translate(-18.198 -18.198)"><title>Page-1</title><g transform="translate(18.198 -34.016)"><title>O365 - Publisher.22098</title><title>_32</title><g transform="translate(38.976 -7.087)"><title>rect4</title><path d="M0 106.58a2.218 2.328-180 0 0 2.22 2.33H15.5a2.218 2.328-180 0 0 2.22-2.33V68.71a2.218 2.328-180 0 0-2.22-2.32H2.22A2.218 2.328-180 0 0 0 68.71Z" style="fill:#038387;stroke:none;stroke-width:18.19759941;stroke-linecap:butt"/></g><g transform="translate(14.173 -3.543)"><title>path6</title><path d="M0 95.62v10.63a2.49 2.49-90 0 0 2.28 2.66h30.87a2.49 2.49-90 0 0 2.28-2.66V95.62a2.49 2.49-90 0 0-2.28-2.66H2.28A2.49 2.49-90 0 0 0 95.62" style="fill:#038387;stroke:none;stroke-width:18.19759941;stroke-linecap:butt"/></g><g transform="translate(14.173 -28.346)"><title>path8</title><path d="M33.15 84.1H2.28A2.27 2.27-90 0 0 0 86.36v22.55h35.43V86.36a2.27 2.27-90 0 0-2.28-2.26" style="fill:#37c6d0;stroke:none;stroke-width:18.19759941;stroke-linecap:butt"/></g><g transform="translate(14.173 -15.945)"><title>rect10</title><path d="M0 96.505h35.433v12.402H0z" style="fill:#1a9ba1;stroke:none;stroke-width:18.19759941;stroke-linecap:butt"/></g><g transform="translate(14.173 -10.63)"><title>path12</title><path d="M15.35 75.24H0v33.67h15.35a2.37 2.37-90 0 0 2.37-2.37V77.61a2.37 2.37-90 0 0-2.37-2.37" style="fill:#000;fill-opacity:.09800002;stroke:none;stroke-width:18.19759941;stroke-linecap:butt"/></g><g transform="translate(14.173 -8.858)"><title>path14</title><path d="M13.58 75.24H0v33.67h13.58a2.37 2.37-90 0 0 2.36-2.37V77.61a2.37 2.37-90 0 0-2.36-2.37" style="fill:#000;fill-opacity:.2;stroke:none;stroke-width:18.19759941;stroke-linecap:butt"/></g><g transform="translate(14.173 -12.402)"><title>path16</title><path d="M13.58 78.79H0v30.12h13.58a2.37 2.37-90 0 0 2.36-2.37V81.15a2.37 2.37-90 0 0-2.36-2.36" style="fill:#000;fill-opacity:.2;stroke:none;stroke-width:18.19759941;stroke-linecap:butt"/></g><g transform="translate(14.173 -12.402)"><title>path18</title><path d="M11.81 78.79H0v30.12h11.81a2.37 2.37-90 0 0 2.36-2.37V81.15a2.37 2.37-90 0 0-2.36-2.36" style="fill:#000;fill-opacity:.2;stroke:none;stroke-width:18.19759941;stroke-linecap:butt"/></g><g transform="translate(0 -14.173)"><title>path20</title><path d="M25.98 108.91H2.36A2.37 2.37 90 0 1 0 106.54V82.92a2.37 2.37 90 0 1 2.36-2.36h23.62a2.37 2.37 90 0 1 2.37 2.36v23.62a2.37 2.37 90 0 1-2.37 2.37" style="fill:#038387;stroke:none;stroke-width:18.19759941;stroke-linecap:butt"/></g><g transform="translate(7.161 -19.515)"><title>path22</title><path d="M7.07 91.22a7.38 7.38 90 0 1 4.88 1.41 5.09 5.09 90 0 1 1.69 4.13 4.83 4.83 90 0 1-.83 2.81 5.6 5.6 90 0 1-2.38 2.1 8.1 8.1 90 0 1-3.58.75H3.47v6.49H0V91.22Zm-3.6 8.28h2.99a3.88 3.88-90 0 0 2.63-.78 1.95 1.95-90 0 0 .89-1.82c0-1.95-1.14-2.93-3.42-2.93H3.47Z" style="fill:#f9f7f7;stroke:none;stroke-width:18.19759941;stroke-linecap:butt"/></g><title>rect24</title><path d="M0 52.213h56.693v56.693H0z" style="fill:none;stroke:none;stroke-width:18.19759941;stroke-linecap:butt"/><g transform="translate(49.606 -7.087)"><title>rect26</title><path d="M0 66.386h1.772v42.52H0z" style="fill:#000;fill-opacity:.2;stroke:none;stroke-width:18.19759941;stroke-linecap:butt"/></g></g></g></svg>