<svg xmlns="http://www.w3.org/2000/svg" xml:space="preserve" width="75.591" height="75.591" style="font-size:12px;overflow:visible;color-interpolation-filters:sRGB;fill-rule:evenodd;stroke-linecap:square;stroke-miterlimit:3" viewBox="0 0 56.693 56.693"><g transform="translate(-18.684 -18.684)"><title>Page-1</title><g transform="translate(18.684 -34.016)"><title>O365 - Visio.22039</title><title>_32</title><g transform="translate(28.346 -15.945)"><title>rect6</title><path d="M0 106.92a2.356 2.473-180 0 0 2.36 2.47h21.86a2.356 2.473-180 0 0 2.35-2.47V85.29a2.356 2.473-180 0 0-2.35-2.47H2.36A2.356 2.473-180 0 0 0 85.29Z" style="fill:#2b7cd3;stroke:none;stroke-width:18.68379974;stroke-linecap:butt"/></g><g transform="translate(14.22 -30.118)"><title>path8</title><path d="M25.84 97.77 14.91 108.7a2.4 2.4 90 0 1-1.67.69 2.36 2.36 90 0 1-1.66-.69L.64 97.77a2.34 2.34-180 0 1-.51-2.55 2.2 2.2 90 0 1 .51-.78l10.94-10.93a2.356 2.356 90 0 1 3.33 0l10.93 10.93a2.356 2.356 90 0 1 0 3.33" style="fill:#41a5ee;stroke:none;stroke-width:18.68379974;stroke-linecap:butt"/></g><g transform="translate(14.173 -4.238)"><title>path10</title><path d="M26.57 96.8a13.27 13.27-180 0 1-23.88 7.97A10.4 10.4 90 0 1 1.56 103a9.3 9.3 90 0 1-.78-1.77A12.7 12.7 90 0 1 0 96.8a13.287 13.287 90 0 1 13.29-13.29 7 7 90 0 1 .88 0 10 10 90 0 1 1.77.21 10 10 90 0 1 1.78.52 13.27 13.27-180 0 1 8.85 12.56" style="fill:#103f91;stroke:none;stroke-width:18.68379974;stroke-linecap:butt"/></g><title>path12</title><path d="M0 52.7h56.693v56.693H0z" style="fill:none;stroke:none;stroke-width:18.68379974;stroke-linecap:butt"/><g transform="translate(14.173 -10.611)"><title>path14</title><path d="M17.72 78.07v28.95a2.34 2.34-180 0 1-1.78 2.35 1.8 1.8 90 0 1-.51 0H1.56a9.3 9.3 90 0 1-.78-1.77 12.7 12.7 90 0 1-.78-4.43V76.6a2.2 2.2 90 0 1 .18-.89h15.18a2.374 2.374 90 0 1 2.36 2.36" style="fill:#000;fill-opacity:.09800002;stroke:none;stroke-width:18.68379974;stroke-linecap:butt"/></g><g transform="translate(14.173 -8.858)"><title>path16</title><path d="M15.94 78.09v28.95a1.8 1.8 90 0 1 0 .58 2.34 2.34-180 0 1-2.28 1.77H2.69a10.4 10.4 90 0 1-1.13-1.77 9.3 9.3 90 0 1-.78-1.77 12.7 12.7 90 0 1-.78-4.43V75.73h13.59a2.374 2.374 90 0 1 2.35 2.36" style="fill:#000;stroke:none;stroke-width:18.68379974;stroke-linecap:butt"/></g><g transform="translate(14.173 -12.402)"><title>path18</title><path d="M15.94 81.63v25.41a2.374 2.374 90 0 1-2.35 2.35H.78a12.7 12.7 90 0 1-.78-4.43V79.27h13.59a2.374 2.374 90 0 1 2.35 2.36" style="fill:#000;stroke:none;stroke-width:18.68379974;stroke-linecap:butt"/></g><g transform="translate(14.173 -12.402)"><title>path20</title><path d="M14.17 81.63v25.41a2.374 2.374 90 0 1-2.35 2.35H.78a12.7 12.7 90 0 1-.78-4.43V79.27h11.82a2.374 2.374 90 0 1 2.35 2.36" style="fill:#000;stroke:none;stroke-width:18.68379974;stroke-linecap:butt"/></g><g transform="translate(0 -14.173)"><title>Back_Plate</title><path d="M0 106.92a2.356 2.473-180 0 0 2.36 2.47h23.63a2.356 2.473-180 0 0 2.36-2.47v-23.4a2.356 2.473-180 0 0-2.36-2.47H2.36A2.356 2.473-180 0 0 0 83.52Z" style="fill:#185abd;stroke:none;stroke-width:18.68379974;stroke-linecap:butt"/></g><g transform="translate(5.545 -19.488)"><title>path23</title><path d="M7.72 103.4c.52 1.47.82 2.4.91 2.79.09-.39.41-1.39.95-3l4.03-11.51h3.65l-6.72 17.71H6.63L0 91.68h3.76z" style="fill:#fff;stroke:none;stroke-width:18.68379974;stroke-linecap:butt"/></g></g></g></svg>