<svg xmlns="http://www.w3.org/2000/svg" xml:space="preserve" width="75.593" height="71.815" style="font-size:12px;overflow:visible;color-interpolation-filters:sRGB;fill-rule:evenodd;stroke-linecap:square;stroke-miterlimit:3" viewBox="0 0 56.694 53.861"><defs><linearGradient id="a" x1="0" x2="29.313" y1="62.981" y2="62.981" gradientTransform="scale(.98965 1.01046)" gradientUnits="userSpaceOnUse"><stop offset="0" stop-color="#2368c4"/><stop offset=".5" stop-color="#1a5dbe"/><stop offset="1" stop-color="#1146ac"/></linearGradient></defs><g transform="translate(-5.67 -5.383)"><title>Page-1</title><g transform="translate(5.67 -34.016)"><title>O365 - Word.22028</title><g transform="translate(13.184 -33.661)"><title>Sheet.22029</title><path d="M41.09 73.06H2.42C1.08 73.06 0 74.17 0 75.53v11l22.41 6.73 21.1-6.73v-11c0-1.36-1.08-2.47-2.42-2.47" style="fill:#41a5ee;stroke:none;stroke-width:.32531601;stroke-linecap:butt"/></g><g transform="translate(13.184 -22.89)"><title>Sheet.22030</title><path d="M43.51 75.76H0v13.46l22.41 4.04 21.1-4.04z" style="fill:#2b7cd3;stroke:none;stroke-width:.32531601;stroke-linecap:butt"/></g><g transform="translate(13.184 -10.772)"><title>Sheet.22031</title><path d="M0 77.1v13.47l21.1 2.69 22.41-2.69V77.1Z" style="fill:#185abd;stroke:none;stroke-width:.32531601;stroke-linecap:butt"/></g><g transform="translate(13.184)"><title>Sheet.22032</title><path d="M2.42 93.26h38.67c1.34 0 2.42-1.11 2.42-2.47V79.8H0v10.99c0 1.36 1.08 2.47 2.42 2.47" style="fill:#103f91;stroke:none;stroke-width:.32531601;stroke-linecap:butt"/></g><g transform="translate(13.184 -9.425)"><title>Sheet.22033</title><path d="M16.04 59.6H0v33.66h16.04c1.33 0 2.41-1.11 2.42-2.47V62.07c-.01-1.36-1.09-2.47-2.42-2.47" style="fill:#000;fill-opacity:.09800002;stroke:none;stroke-width:.32531601;stroke-linecap:butt"/></g><g transform="translate(13.184 -8.079)"><title>Sheet.22034</title><path d="M14.72 59.6H0v33.66h14.72c1.34 0 2.42-1.11 2.42-2.47V62.07c0-1.36-1.08-2.47-2.42-2.47" style="fill:#000;fill-opacity:.2;stroke:none;stroke-width:.32531601;stroke-linecap:butt"/></g><g transform="translate(13.184 -10.772)"><title>Sheet.22035</title><path d="M14.72 62.29H0v30.97h14.72c1.34 0 2.42-1.11 2.42-2.47V64.76c0-1.36-1.08-2.46-2.42-2.47" style="fill:#000;fill-opacity:.2;stroke:none;stroke-width:.32531601;stroke-linecap:butt"/></g><g transform="translate(13.184 -10.772)"><title>Sheet.22036</title><path d="M13.4 62.29H0v30.97h13.4c1.34 0 2.42-1.11 2.42-2.47V64.76c0-1.36-1.08-2.46-2.42-2.47" style="fill:#000;fill-opacity:.2;stroke:none;stroke-width:.32531601;stroke-linecap:butt"/></g><g transform="translate(0 -12.118)"><title>Sheet.22037</title><path d="M2.42 63.64h24.17c1.33 0 2.42 1.1 2.42 2.47v24.68c0 1.36-1.09 2.47-2.42 2.47H2.42C1.08 93.26 0 92.15 0 90.79V66.11c0-1.37 1.08-2.47 2.42-2.47" style="fill:url(#a);stroke:none;stroke-width:.32531601;stroke-linecap:butt"/></g><g transform="translate(4.434 -18.907)"><title>Sheet.22038</title><path d="M5.48 89.36c.05.38.08.71.1.99h.05c.02-.27.07-.59.13-.97q.105-.57.18-.96l2.55-11.2h3.28l2.64 11.03c.15.68.26 1.38.33 2.08h.04c.05-.68.14-1.35.28-2.02l2.1-11.1h2.99l-3.69 16.05h-3.5l-2.5-10.63c-.08-.3-.16-.7-.25-1.2-.09-.49-.15-.85-.17-1.07H10c-.03.26-.09.65-.17 1.16-.09.51-.16.9-.21 1.14l-2.35 10.6H3.71L0 77.22h3.05l2.29 11.22c.05.23.1.54.14.92" style="fill:#fff;stroke:none;stroke-width:.32531601;stroke-linecap:butt"/></g></g></g></svg>