<svg xmlns="http://www.w3.org/2000/svg" xml:space="preserve" width="75.59" height="75.59" style="font-size:12px;overflow:visible;color-interpolation-filters:sRGB;fill-rule:evenodd;stroke-linecap:square;stroke-miterlimit:3" viewBox="0 0 56.693 56.693"><g transform="translate(-5.67 -5.67)"><title>Page-1</title><g transform="translate(5.67 -34.016)"><title>O365 - API Twitter.22295</title><desc>This package will provide stencils to visually represent Power Platform: Power Bi, Power Apps, Power Virtual Agents and/or Power Automate devices, architectures or solutions diagrams. It will provide stencils to visually represent features, systems, processes and architectures that use these technologies.</desc><title>Page-1</title><title>Power Automate API: Twitter</title><title>rect5924</title><title>Sheet.22299</title><path d="M0 39.685h56.693v56.693H0z" style="fill:#5da7dc;stroke:none;stroke-width:.74999702"/><g transform="translate(11.363 -12.452)"><title>path5926</title><title>Sheet.22301</title><path d="M38.32 68.82a15.7 15.7 0 0 1-4.48 1.2 7.86 7.86-180 0 0 3.51-4.34 15.7 15.7 0 0 1-4.95 1.93 7.857 7.857-180 0 0-13.43 7.13 22.24 22.24 0 0 1-16.19-8.21A7.857 7.857-180 0 0 5.2 77.04a7.86 7.86 0 0 1-3.51-.97 7.86 7.86-180 0 0 6.29 7.74l-2.06.23H4.47a7.86 7.86-180 0 0 7.38 5.45 15.7 15.7 0 0 1-9.8 3.38H0a22.24 22.24-180 0 0 12.09 3.51c14.51 0 22.36-11.97 22.36-22.36v-.97a16 16-180 0 0 3.87-4.23" style="fill:#fff;stroke:none;stroke-width:.74999702"/></g></g></g></svg>