<svg xmlns="http://www.w3.org/2000/svg" xml:space="preserve" width="75.591" height="75.591" style="font-size:12px;overflow:visible;color-interpolation-filters:sRGB;fill-rule:evenodd;stroke-linecap:square;stroke-miterlimit:3" viewBox="0 0 56.693 56.693"><defs><linearGradient id="a" x1="0" x2="19.198" y1="81.206" y2="81.206" gradientTransform="scale(.91417 1.09388)" gradientUnits="userSpaceOnUse"><stop offset="0" stop-color="#e25a01"/><stop offset=".61" stop-color="#e15801"/><stop offset=".88" stop-color="#e05101"/><stop offset="1" stop-color="#de4a01"/></linearGradient><linearGradient id="b" x1="0" x2="27.642" y1="141.302" y2="141.302" gradientTransform="scale(1.53823 .6501)" gradientUnits="userSpaceOnUse"><stop offset="0" stop-color="#f18c0a"/><stop offset=".435" stop-color="#f0880a"/><stop offset=".87" stop-color="#ec7c0a"/><stop offset="1" stop-color="#eb770a"/></linearGradient><linearGradient id="c" x1="0" x2="27.748" y1="152.901" y2="152.901" gradientTransform="scale(1.6448 .60797)" gradientUnits="userSpaceOnUse"><stop offset="0" stop-color="#d83b01"/><stop offset=".47" stop-color="#d63701"/><stop offset=".935" stop-color="#ce2b01"/><stop offset="1" stop-color="#cd2901"/></linearGradient><linearGradient id="d" x1="0" x2="16.361" y1="78.763" y2="78.763" gradientTransform="scale(.8661 1.1546)" gradientUnits="userSpaceOnUse"><stop offset="0" stop-color="#bf3207"/><stop offset=".47" stop-color="#bb3207"/><stop offset=".935" stop-color="#af3007"/><stop offset="1" stop-color="#ad3007"/></linearGradient><linearGradient id="e" x1="0" x2="25.17" y1="169.921" y2="169.921" gradientTransform="scale(1.7763 .56297)" gradientUnits="userSpaceOnUse"><stop offset="0" stop-color="#854a81"/><stop offset=".48" stop-color="#82497e"/><stop offset=".81" stop-color="#794475"/><stop offset="1" stop-color="#703f6c"/></linearGradient></defs><g transform="translate(-19.125 -19.121)"><title>Page-1</title><g transform="translate(19.125 -34.016)"><title>O365 - List.22203</title><g transform="translate(0 -36.023)"><title>Sheet.22204</title><path d="m0 103.34 14.17-14.18h40.27a2.25 2.25 0 0 1 2.25 2.26v11.92l-28.34 6.49z" style="fill:#fee200;stroke:none;stroke-width:19.125;stroke-linecap:butt"/></g><g transform="translate(0 -21.513)"><title>Sheet.22205</title><path d="M17.55 102.58 0 109.83v-21h14.17z" style="fill:url(#a);stroke:none;stroke-width:19.125;stroke-linecap:butt"/></g><g transform="translate(14.173 -24.55)"><title>Sheet.22206</title><path d="M42.52 106.21V91.86H0v14.51l19.32 3.46z" style="fill:url(#b);stroke:none;stroke-width:19.125;stroke-linecap:butt"/></g><g transform="translate(11.052 -11.473)"><title>Sheet.22207</title><path d="M45.64 107.13V92.96H0v14.26l28.09 2.61z" style="fill:url(#c);stroke:none;stroke-width:19.125;stroke-linecap:butt"/></g><g transform="translate(0 -9.448)"><title>Sheet.22208</title><path d="M14.17 105.11 0 109.83V90.94h14.17z" style="fill:url(#d);stroke:none;stroke-width:19.125;stroke-linecap:butt"/></g><g transform="translate(11.98)"><title>Sheet.22209</title><path d="M2.19 95.66 0 102.41l2.19 7.42h28.35l14.17-14.17Z" style="fill:url(#e);stroke:none;stroke-width:19.125;stroke-linecap:butt"/></g></g></g></svg>