<svg xmlns="http://www.w3.org/2000/svg" xml:space="preserve" width="75.59" height="75.59" style="font-size:12px;overflow:visible;color-interpolation-filters:sRGB;fill-rule:evenodd;stroke-linecap:square;stroke-miterlimit:3" viewBox="0 0 56.693 56.693"><g transform="translate(-18.36 -18.36)"><title>Page-1</title><g transform="translate(18.36 -34.016)"><title>O365 - Delve.22264</title><g transform="translate(10.63 -28.346)"><title>path2</title><path d="M42.52 86.62a2.356 2.356-180 0 0-2.36-2.35H2.36A2.356 2.356-180 0 0 0 86.62v22.45h42.52z" style="fill:#d23062;stroke:none;stroke-width:18.35960007;stroke-linecap:butt"/></g><g transform="translate(10.63 -3.543)"><title>path4</title><path d="M0 84.27v22.44a2.356 2.356-180 0 0 2.36 2.36h37.8a2.356 2.356-180 0 0 2.36-2.36V84.27Z" style="fill:#8c193f;stroke:none;stroke-width:18.35960007;stroke-linecap:butt"/></g><title>path6</title><path d="M0 52.375h56.693v56.693H0z" style="fill:none;stroke:none;stroke-width:18.35960007;stroke-linecap:butt"/><g transform="translate(10.63 -10.63)"><title>path8</title><path d="M43.74 109.07H0V91.35h42.52l3.47 14.88a2.316 2.316 0 0 1-2.25 2.84" style="fill:#e8467c;stroke:none;stroke-width:18.35960007;stroke-linecap:butt"/></g><g transform="translate(10.63 -28.346)"><title>path10</title><path d="M43.74 91.35H0v17.72h42.52l3.47-14.88a2.316 2.316-180 0 0-2.25-2.84" style="fill:#bc1948;stroke:none;stroke-width:18.35960007;stroke-linecap:butt"/></g><g transform="translate(10.63 -10.63)"><title>path12</title><path d="M18.9 75.41H0v33.66h18.9a2.37 2.37-180 0 0 2.36-2.36V77.77a2.37 2.37-180 0 0-2.36-2.36" style="fill:#000;fill-opacity:.09800002;stroke:none;stroke-width:18.35960007;stroke-linecap:butt"/></g><g transform="translate(10.63 -12.402)"><title>path14</title><path d="M17.13 78.95H0v30.12h17.13a2.37 2.37-180 0 0 2.36-2.36v-25.4a2.37 2.37-180 0 0-2.36-2.36" style="fill:#000;fill-opacity:.2;stroke:none;stroke-width:18.35960007;stroke-linecap:butt"/></g><g transform="translate(10.63 -12.402)"><title>path16</title><path d="M15.35 78.95H0v30.12h15.35a2.37 2.37-180 0 0 2.37-2.36v-25.4a2.37 2.37-180 0 0-2.37-2.36" style="fill:#000;fill-opacity:.2;stroke:none;stroke-width:18.35960007;stroke-linecap:butt"/></g><g transform="translate(0 -14.173)"><title>rect18</title><path d="M0 106.71a2.36 2.36-180 0 0 2.36 2.36h23.62a2.36 2.36-180 0 0 2.37-2.36V83.08a2.36 2.36-180 0 0-2.37-2.36H2.36A2.36 2.36-180 0 0 0 83.08Z" style="fill:#bc1948;stroke:none;stroke-width:18.35960007;stroke-linecap:butt"/></g><g transform="translate(6.513 -19.488)"><title>path20</title><path d="M0 91.35h5.7a10.38 10.38 0 0 1 7.19 2.21 8.24 8.24 0 0 1 2.43 6.43 9.3 9.3 0 0 1-1.2 4.77 8.13 8.13 0 0 1-3.41 3.19 11.1 11.1 0 0 1-5.11 1.12H0Zm5.62 14.86a6.75 6.75-180 0 0 3.24-.73 4.95 4.95-180 0 0 2.09-2.13 7.1 7.1-180 0 0 .73-3.3 5.75 5.75-180 0 0-1.55-4.31 6.13 6.13-180 0 0-4.46-1.51H3.46v11.98z" style="fill:#fff;stroke:none;stroke-width:18.35960007;stroke-linecap:butt"/></g></g></g></svg>