<svg xmlns="http://www.w3.org/2000/svg" xml:space="preserve" width="75.59" height="75.59" style="font-size:12px;overflow:visible;color-interpolation-filters:sRGB;fill-rule:evenodd;stroke-linecap:square;stroke-miterlimit:3" viewBox="0 0 56.693 56.693"><g transform="translate(-18.44 -18.44)"><title>Page-1</title><g transform="translate(18.44 -34.016)"><title>O365 - Project.22112</title><title>_32</title><g transform="translate(7.087 -37.205)"><title>path2</title><path d="M2.24 93.2h25.64a2.236 2.236 90 0 1 2.24 2.24v13.71H0V95.44a2.236 2.236 90 0 1 2.24-2.24" style="fill:#33c481;stroke:none;stroke-width:18.44070053;stroke-linecap:butt"/></g><g transform="translate(19.488 -3.543)"><title>path4</title><path d="M0 93.2h34.97a2.236 2.236 90 0 1 2.23 2.24v11.48a2.236 2.236 90 0 1-2.23 2.23H2.24A2.236 2.236 90 0 1 0 106.91Z" style="fill:#185c37;stroke:none;stroke-width:18.44070053;stroke-linecap:butt"/></g><g transform="translate(7.087 -19.488)"><title>path6</title><path d="M0 91.43h36.5a2.48 2.48 90 0 1 2.48 2.48v15.24H2.48A2.48 2.48 90 0 1 0 106.67Z" style="fill:#21a366;stroke:none;stroke-width:18.44070053;stroke-linecap:butt"/></g><g transform="translate(7.087 -10.63)"><title>path8</title><path d="M12.4 98.52v10.63h10.04a2.37 2.37-90 0 0 2.36-2.36V77.85a2.37 2.37-90 0 0-2.36-2.36H0v20.77a2.255 2.255 0 0 0 2.26 2.26z" style="fill:#000;fill-opacity:.09800002;stroke:none;stroke-width:18.44070053;stroke-linecap:butt"/></g><g transform="translate(7.087 -8.858)"><title>path10</title><path d="M12.4 96.75v12.4h8.27a2.37 2.37-90 0 0 2.36-2.36V77.85a2.37 2.37-90 0 0-2.36-2.36H0v19a2.255 2.255 0 0 0 2.26 2.26z" style="fill:#000;fill-opacity:.2;stroke:none;stroke-width:18.44070053;stroke-linecap:butt"/></g><g transform="translate(7.087 -12.402)"><title>path12</title><path d="M12.4 100.29v8.86h8.27a2.37 2.37-90 0 0 2.36-2.36v-25.4a2.37 2.37-90 0 0-2.36-2.36H0v19.01a2.255 2.255 0 0 0 2.26 2.25z" style="fill:#000;fill-opacity:.2;stroke:none;stroke-width:18.44070053;stroke-linecap:butt"/></g><g transform="translate(7.087 -12.402)"><title>path14</title><path d="M12.4 100.29v8.86h6.5a2.37 2.37-90 0 0 2.36-2.36v-25.4a2.37 2.37-90 0 0-2.36-2.36H0v19.01a2.255 2.255 0 0 0 2.26 2.25z" style="fill:#000;fill-opacity:.2;stroke:none;stroke-width:18.44070053;stroke-linecap:butt"/></g><g transform="translate(0 -14.173)"><title>rect16</title><path d="M0 106.67a2.362 2.479-180 0 0 2.36 2.48h23.62a2.362 2.479-180 0 0 2.37-2.48V83.28a2.362 2.479-180 0 0-2.37-2.48H2.36A2.362 2.479-180 0 0 0 83.28Z" style="fill:#107c41;stroke:none;stroke-width:18.44070053;stroke-linecap:butt"/></g><g transform="translate(7.161 -19.506)"><title>path18</title><path d="M7.07 91.45a7.38 7.38 90 0 1 4.88 1.42 5.1 5.1 90 0 1 1.69 4.12 4.84 4.84 90 0 1-.83 2.81 5.6 5.6 90 0 1-2.38 2.1 8.1 8.1 90 0 1-3.58.75H3.47v6.5H0v-17.7zm-3.6 8.29h2.98a3.88 3.88-90 0 0 2.64-.79 1.95 1.95-90 0 0 .89-1.81q0-2.94-3.42-2.94H3.47Z" style="fill:#f9f7f7;stroke:none;stroke-width:18.44070053;stroke-linecap:butt"/></g><title>path20</title><path d="M0 52.456h56.693v56.693H0z" style="fill:none;stroke:none;stroke-width:18.44070053;stroke-linecap:butt"/></g></g></svg>