<svg xmlns="http://www.w3.org/2000/svg" xml:space="preserve" width="75.591" height="75.59" style="font-size:12px;overflow:visible;color-interpolation-filters:sRGB;fill-rule:evenodd;stroke-linecap:square;stroke-miterlimit:3" viewBox="0 0 56.693 56.693"><g transform="translate(-17.711 -17.711)"><title>Page-1</title><g transform="translate(17.711 -34.016)"><title>O365 - Access.22382</title><g transform="translate(14.173 -1.772)"><title>path4-1</title><path d="M0 88.05v14.17c0 3.42 9.52 6.2 21.26 6.2s21.26-2.78 21.26-6.2V88.05Z" style="fill:#881421;stroke:none;stroke-width:17.7112999;stroke-linecap:butt"/></g><g transform="translate(14.173 -14.173)"><title>path6-5</title><path d="M0 88.05v14.17c0 3.42 9.52 6.2 21.26 6.2s21.26-2.78 21.26-6.2V88.05Z" style="fill:#af2031;stroke:none;stroke-width:17.7112999;stroke-linecap:butt"/></g><g transform="translate(14.173 -28.346)"><title>path8</title><path d="M0 88.05v14.17c0 3.42 9.52 6.2 21.26 6.2s21.26-2.78 21.26-6.2V88.05Z" style="fill:#c94f60;stroke:none;stroke-width:17.7112999;stroke-linecap:butt"/></g><g transform="translate(14.173 -42.52)"><title>ellipse10</title><ellipse cx="21.26" cy="102.219" rx="21.26" ry="6.201" style="fill:#e08095;stroke:none;stroke-width:17.7112999;stroke-linecap:butt"/></g><title>rect12</title><path d="M0 51.727h56.693v56.693H0z" style="fill:none;stroke:none;stroke-width:17.7112999;stroke-linecap:butt"/><g transform="translate(14.173 -10.63)"><title>path14</title><path d="M15.35 74.76H0v33.66h15.35a2.37 2.37-180 0 0 2.37-2.36V77.12a2.37 2.37-180 0 0-2.37-2.36" style="fill:#000;fill-opacity:.09800002;stroke:none;stroke-width:17.7112999;stroke-linecap:butt"/></g><g transform="translate(14.173 -8.858)"><title>path16</title><path d="M13.58 74.76H0v33.66h13.58a2.37 2.37-180 0 0 2.36-2.36V77.12a2.37 2.37-180 0 0-2.36-2.36" style="fill:#000;fill-opacity:.2;stroke:none;stroke-width:17.7112999;stroke-linecap:butt"/></g><g transform="translate(14.173 -12.402)"><title>path18</title><path d="M13.58 78.3H0v30.12h13.58a2.37 2.37-180 0 0 2.36-2.36v-25.4a2.37 2.37-180 0 0-2.36-2.36" style="fill:#000;fill-opacity:.2;stroke:none;stroke-width:17.7112999;stroke-linecap:butt"/></g><g transform="translate(14.173 -12.402)"><title>path20</title><path d="M11.81 78.3H0v30.12h11.81a2.37 2.37-180 0 0 2.36-2.36v-25.4a2.37 2.37-180 0 0-2.36-2.36" style="fill:#000;fill-opacity:.2;stroke:none;stroke-width:17.7112999;stroke-linecap:butt"/></g><g transform="translate(0 -14.173)"><title>rect22</title><path d="M0 106.06a2.36 2.36-180 0 0 2.36 2.36h23.62a2.36 2.36-180 0 0 2.37-2.36V82.44a2.36 2.36-180 0 0-2.37-2.37H2.36A2.36 2.36-180 0 0 0 82.44Z" style="fill:#af2031;stroke:none;stroke-width:17.7112999;stroke-linecap:butt"/></g><g transform="translate(5.67 -19.488)"><title>path24</title><path d="M6.56 90.7h4l6.45 17.72h-3.79l-1.42-4.23H5.16l-1.39 4.23H0Zm4.39 10.76-2.07-6.41a8 8 0 0 1-.38-1.44h-.08a8.3 8.3 0 0 1-.37 1.48l-2.08 6.38z" style="fill:#fff;stroke:none;stroke-width:17.7112999;stroke-linecap:butt"/></g></g></g></svg>