<svg xmlns="http://www.w3.org/2000/svg" width="80" height="80" viewBox="0 0 80 80"><title>Icon-Architecture/64/Arch_AWS-Command-Line-Interface_64</title><defs><linearGradient id="a" x1="0%" x2="100%" y1="100%" y2="0%"><stop offset="0%" stop-color="#2e27ad"/><stop offset="100%" stop-color="#527fff"/></linearGradient></defs><g fill="none" fill-rule="evenodd"><path fill="url(#a)" d="M0 0h80v80H0z"/><path fill="#fff" d="M12 13v54h34v-2H14V23h52v42h-7v2h9V13zm2 8h52v-6H14zm11-2h2.001v-2.001H25zm-4 0h2v-2.001h-2zm-4 0h2v-2.001h-2zm6.326 14.432 10.08 10.082-10.08 10.08 1.414 1.414 11.494-11.494L24.74 32.018zM38 51h17v-2H38z"/></g></svg>