<svg xmlns="http://www.w3.org/2000/svg" viewBox="0 0 512 512"><path fill="none" d="M0 0h512v512H0z"/><path fill="#9aa0a6" d="M144.1 181.44c-8.837 0-16-7.16-16-15.993V85.654c0-17.637 14.355-31.987 32-31.987h266.4c17.645 0 32 14.35 32 31.987v21.291c0 8.833-7.163 15.993-16 15.993s-16-7.16-16-15.993V85.654H160.1v79.793c0 8.833-7.163 15.993-16 15.993M69.5 458.5a15.95 15.95 0 0 1-11.313-4.685c-6.249-6.245-6.249-16.372 0-22.618l165.794-165.726c6.248-6.245 16.379-6.245 22.627 0 6.249 6.245 6.249 16.372 0 22.618L80.814 453.815a15.95 15.95 0 0 1-11.313 4.685Z"/><path fill="#4285f4" d="M239.956 383.874c-8.837 0-16-7.16-16-15.993v-79.767h-79.8c-8.837 0-16-7.16-16-15.993s7.163-15.993 16-15.993h95.8c8.837 0 16 7.16 16 15.993v95.76c0 8.833-7.163 15.993-16 15.993m186.557.057h-79.501c-8.616 0-16.032-6.621-16.434-15.227-.429-9.182 6.891-16.76 15.982-16.76h79.939V53.665c17.673 0 32 14.327 32 32v266.279c0 17.666-14.321 31.987-31.987 31.987z"/></svg>