<svg xmlns="http://www.w3.org/2000/svg" xml:space="preserve" width="45.35" height="56.688" style="font-size:12px;overflow:visible;color-interpolation-filters:sRGB;fill-rule:evenodd;stroke-linecap:square;stroke-miterlimit:3" viewBox="0 0 45.35 56.688"><defs><linearGradient id="a" x1="0" x2="50.703" y1="35.5" y2="35.5" gradientTransform="scale(.89443 1.11804)" gradientUnits="userSpaceOnUse"><stop offset="0" stop-color="#5e9624"/><stop offset=".315" stop-color="#619a25"/><stop offset=".66" stop-color="#69a728"/><stop offset="1" stop-color="#76bc2d"/></linearGradient><linearGradient id="b" x1="0" x2="46.495" y1="39.698" y2="39.698" gradientTransform="scale(.8943 1.1182)" gradientUnits="userSpaceOnUse"><stop offset="0" stop-color="#5e9624"/><stop offset=".545" stop-color="#6dad2a"/><stop offset="1" stop-color="#76bc2d"/></linearGradient></defs><g transform="translate(-4.535 -5.674)"><title>Page-1</title><g transform="translate(4.535 -34.016)"><title>Azure Attestation.21300</title><title>Sheet.21301</title><title>Sheet.21302</title><path d="M45.35 66.16c0 15.24-18.01 27.51-21.93 30a1.41 1.443 0 0 1-1.49 0C18.01 93.67 0 81.4 0 66.16V47.82a1.426 1.459 0 0 1 1.39-1.46c14.01-.39 10.79-6.67 21.29-6.67s7.27 6.28 21.28 6.67a1.426 1.459 0 0 1 1.39 1.46z" style="fill:url(#a);stroke:none;stroke-width:.75;stroke-linecap:butt"/><g transform="translate(1.888 -2.352)"><title>Sheet.21303</title><path d="M41.58 68.66c0 13.98-16.52 25.24-20.1 27.52a1.298 1.327 0 0 1-1.37 0C16.52 93.9 0 82.64 0 68.66V51.84a1.3 1.33 0 0 1 1.28-1.33c12.84-.35 9.88-6.12 19.51-6.12s6.67 5.78 19.52 6.12a1.3 1.33 0 0 1 1.27 1.33z" style="fill:url(#b);stroke:none;stroke-width:.75;stroke-linecap:butt"/></g><g transform="translate(10.405 -13.44)"><title>Sheet.21304</title><g transform="translate(0 -5.916)"><title>Sheet.21305</title><path d="M22.39 91.09H2.15A2.149 2.198-180 0 0 0 93.29v2.72a.358.366-180 0 0 .358.366l23.832.004a.358.366-180 0 0 .358-.366l-.008-2.724a2.149 2.198-180 0 0-2.15-2.2" style="fill:#fff;stroke:none;stroke-width:.75;stroke-linecap:butt"/></g><g transform="translate(1.982)"><title>Sheet.21306</title><path d="M20.32 93.18H.25a.254.26-180 0 0-.254.26L0 94.81a1.53 1.565-180 0 0 1.53 1.57h17.52a1.53 1.565-180 0 0 1.53-1.57v-1.37a.254.26-180 0 0-.254-.26z" style="fill:#fff;stroke:none;stroke-width:.75;stroke-linecap:butt"/></g><g transform="translate(4.892 -14.05)"><title>Sheet.21307</title><path d="M12.04 87.25c1.42-2.1 2.41-1.7 1.6-6.56-.8-4.87-6.09-4.82-6.41-4.82-.33 0-5.62-.06-6.42 4.82-.81 4.87.18 4.46 1.6 6.56a27.789 28.423 0 0 1 1.29 9.13h7.05a27.858 28.494 0 0 1 1.29-9.13" style="fill:#fff;stroke:none;stroke-width:.75;stroke-linecap:butt"/></g></g></g></g></svg>