<svg xmlns="http://www.w3.org/2000/svg" xml:space="preserve" width="56.69" height="56.69" style="font-size:12px;overflow:visible;color-interpolation-filters:sRGB;fill-rule:evenodd;stroke-linecap:square;stroke-miterlimit:3" viewBox="0 0 56.69 56.69"><defs><linearGradient id="a" x1="0" x2="44.606" y1="68.483" y2="68.483" gradientTransform="scale(.90682 1.10276)" gradientUnits="userSpaceOnUse"><stop offset=".18" stop-color="#5ea0ef"/><stop offset="1" stop-color="#0078d4"/></linearGradient></defs><g transform="translate(-34 -34.004)"><title>Page-1</title><g transform="translate(34 -34.016)"><title>Endpoint Security.21293</title><title>Sheet.21294</title><g transform="translate(0 -2.9)"><title>Sheet.21295</title><path d="M44.27 96.14c0 14.44-17.58 26.05-21.39 28.38a1.494 1.482 0 0 1-1.46 0C17.57 122.15 0 110.55 0 96.14v-17.4a1.398 1.387 0 0 1 1.37-1.36c13.66-.38 10.48-6.46 20.65-6.46s7.09 5.99 20.79 6.3a1.398 1.387 0 0 1 1.33 1.36z" style="fill:#5ea0ef;stroke:none;stroke-width:34;stroke-linecap:butt"/></g><g transform="translate(1.843 -5.236)"><title>Sheet.21296</title><path d="M40.58 98.48c0 13.24-16.14 23.87-19.64 26.04a1.271 1.261 0 0 1-1.33 0C16.11 122.44 0 111.81 0 98.48V82.71a1.24 1.23 0 0 1 1.11-1.29c12.71-.35 9.76-5.8 19.07-5.8s6.51 5.45 19.07 5.8a1.271 1.261 0 0 1 1.27 1.26z" style="fill:#60b0ef;stroke:none;stroke-width:34;stroke-linecap:butt"/></g><g transform="translate(1.907 -5.14)"><title>Sheet.21297</title><path d="M20.12 100.11V75.52c9.53 0 6.51 5.46 19.06 5.8a1.303 1.293 0 0 1 1.27 1.26v17.38zm0 0H0c1.27 12.62 16.21 22.39 19.54 24.44a1.08 1.072-180 0 0 .54.16h.04z" style="fill:url(#a);stroke:none;stroke-width:34;stroke-linecap:butt"/></g><g transform="translate(1.907 -5.14)"><title>Sheet.21298</title><path d="M1.05 81.35c12.71-.37 9.75-5.83 19.07-5.83v24.59H0v-17.5a1.271 1.261 0 0 1 1.05-1.29zm39.4 18.76H20.12v24.6a1.08 1.072-180 0 0 .54-.16c3.59-2.08 18.52-11.98 19.76-24.44z" style="fill:#0078d4;stroke:none;stroke-width:34;stroke-linecap:butt"/></g><g transform="translate(28.41)"><title>Sheet.21299</title><path d="m16.27 124.14 1.05-3.4 2-1.17 3.5 1.51 2.22-2.27v-.34l-1.59-3.16.96-2.14 3.49-1.26.38-.16v-3.15h-.44l-3.43-1.04-1.15-1.99 1.5-3.47-2.29-2.21h-.26l-3.17 1.58-2.23-.95-1.4-3.84h-3.18l-.15.44-1.05 3.4-2.23.95-3.75-1.7-2.22 2.27.22.41 1.65 3.15-.89 2.21L0 109.23v3.15l.44.16 3.44 1.04.95 2.21-1.68 3.62 2.32 2.21.41-.22 3.18-1.67 2.22.88 1.65 4.1h3.18zm-5.18-10.18a4.608 4.572 0 1 1 6.36 0 4.576 4.54 0 0 1-6.36 0" style="fill:#949494;stroke:none;stroke-width:34;stroke-linecap:butt"/></g></g></g></svg>