<svg xmlns="http://www.w3.org/2000/svg" xml:space="preserve" width="75.627" height="75.593" style="font-size:12px;overflow:visible;color-interpolation-filters:sRGB;fill-rule:evenodd;stroke-linecap:square;stroke-miterlimit:3" viewBox="0 0 56.72 56.695"><defs><linearGradient id="a" x1="-.017" x2="38.262" y1="89.289" y2="89.289" gradientTransform="scale(1.32359 .75552)" gradientUnits="userSpaceOnUse"><stop offset=".22" stop-color="#32d4f5"/><stop offset="1" stop-color="#198ab3"/></linearGradient><linearGradient id="b" x1="0" x2="27.601" y1="71.626" y2="71.626" gradientTransform="scale(1.02956 .97128)" gradientUnits="userSpaceOnUse"><stop offset=".22" stop-color="#32d4f5"/><stop offset="1" stop-color="#198ab3"/></linearGradient></defs><g transform="translate(-5.647 -5.67)"><title>Page-1</title><g transform="translate(5.67 -34.016)"><title>Intune Tenant Status.21194</title><g transform="translate(0 -4.045)"><title>Sheet.21195</title><path d="M46.06 96.38a4.5 4.245-180 0 0 4.57-4.18 2.693 2.54-180 0 0 0-.5c-1.77-13.37-9.85-24.24-25.26-24.24S1.56 76.59 0 91.66a4.535 4.279-180 0 0 4.04 4.68h42.02z" style="fill:url(#a);stroke:none;stroke-width:.75;stroke-linecap:butt"/></g><g transform="translate(17.716 -13.237)"><title>Sheet.21196</title><path d="M7.62 79.73A13.89 13.104 0 0 1 0 77.59l7.55 18.79 7.54-18.65a14.173 13.371 0 0 1-7.47 2" style="fill:#fff;fill-opacity:.8;stroke:none;stroke-width:.75;stroke-linecap:butt"/></g><g transform="translate(11.126 -29.884)"><title>Sheet.21197</title><ellipse cx="14.209" cy="82.974" rx="14.209" ry="13.404" style="fill:url(#b);stroke:none;stroke-width:.75;stroke-linecap:butt"/></g><g transform="translate(31.89)"><title>Sheet.21198</title><path d="M18.81 74.18a6.272 5.917-180 0 0-6.41 3.95 6.236 5.883-180 0 0-6.41-3.95C.18 74.78 0 80.03 0 82.1c0 1.48.35 6.16 12.33 14.28C24.48 88.15 24.8 83.58 24.8 82.1c0-2.07 0-7.32-5.99-7.92" style="fill:#b31b1b;stroke:none;stroke-width:.75;stroke-linecap:butt"/></g><g transform="translate(33.768 -5.449)"><title>Sheet.21199</title><path d="M22.93 86.92h-5.67a.39.368-180 0 0-.39.2l-1.78 2.77a.248.234 0 0 1-.39 0l-2.4-4.71a.46.435-180 0 0-.85 0l-2.41 6.69a.213.2 0 0 1-.425 0L6.52 87.32a.46.435-180 0 0-.815 0L2.94 92.07a.39.368 0 0 1-.39.2H0a16.3 15.377-180 0 0 1.31 1.7h2.3a.39.368-180 0 0 .39-.234l1.95-3.346 2.62 5.72a.46.435-180 0 0 .85 0l2.73-7.62 2.38 4.28a.496.468-180 0 0 .815 0l2.615-4.21a.531.501 0 0 1 .39-.234l4.58-.006Z" style="fill:#f2f2f2"/><path d="M22.93 86.92h-5.67a.39.368-180 0 0-.39.2l-1.78 2.77a.248.234 0 0 1-.39 0l-2.4-4.71a.46.435-180 0 0-.85 0l-2.41 6.69a.213.2 0 0 1-.425 0L6.52 87.32a.46.435-180 0 0-.815 0L2.94 92.07a.39.368 0 0 1-.39.2H0a16.3 15.377-180 0 0 1.31 1.7h2.3a.39.368-180 0 0 .39-.234l1.95-3.346 2.62 5.72a.46.435-180 0 0 .85 0l2.73-7.62 2.38 4.28a.496.468-180 0 0 .815 0l2.615-4.21a.531.501 0 0 1 .39-.234l4.58-.006" style="stroke:none;stroke-width:.75;stroke-linecap:butt"/></g></g></g></svg>