<svg xmlns="http://www.w3.org/2000/svg" xml:space="preserve" width="64.893" height="60.943" style="font-size:12px;overflow:visible;color-interpolation-filters:sRGB;fill-rule:evenodd;stroke-linecap:square;stroke-miterlimit:3" viewBox="0 0 48.67 45.708"><defs><linearGradient id="a" x1="0" x2="40.064" y1="65.648" y2="65.648" gradientTransform="scale(1.2148 .82318)" gradientUnits="userSpaceOnUse"><stop offset="0" stop-color="#0078d4"/><stop offset=".82" stop-color="#5ea0ef"/></linearGradient><linearGradient id="b" x1="0" x2="17.596" y1="102.779" y2="102.779" gradientTransform="scale(1.3833 .7229)" gradientUnits="userSpaceOnUse"><stop offset="0" stop-color="#1490df"/><stop offset=".98" stop-color="#1f56a3"/></linearGradient></defs><g transform="translate(-5.67 -4.823)"><title>Page-1</title><g transform="translate(5.67 -34.016)"><title>Intune Managed Desktop.21218</title><g transform="translate(0 -15.202)"><title>Sheet.21219</title><path d="M0 85.37a1.622 1.65-180 0 0 1.62 1.65h45.43a1.622 1.65-180 0 0 1.62-1.65V55.69a1.622 1.65-180 0 0-1.62-1.65H1.62A1.622 1.65-180 0 0 0 55.69Z" style="fill:url(#a);stroke:none;stroke-width:.75;stroke-linecap:butt"/></g><g transform="translate(2.704 -17.95)"><title>Sheet.21220</title><path d="M0 86.12a.892.907-180 0 0 .892.907l41.478-.007a.892.907-180 0 0 .892-.907L43.26 60.44a.892.907-180 0 0-.892-.907L.89 59.53a.892.907-180 0 0-.892.907z" style="fill:#fff;stroke:none;stroke-width:.75;stroke-linecap:butt"/></g><g transform="translate(12.168 -2.474)"><title>Sheet.21221</title><path d="M21.93 84.27c-4.81-.77-5-4.28-4.98-9.97H7.38c0 5.69-.16 9.2-4.97 9.97A2.84 2.886-180 0 0 0 87.02h24.34a2.84 2.886-180 0 0-2.41-2.75" style="fill:url(#b);stroke:none;stroke-width:.75;stroke-linecap:butt"/></g><g transform="rotate(135 22.454 69.897)"><title>Sheet.21222</title><path d="M16.22 75.09h2.57a.784.797 0 0 1 .784.797l.006 10.343a.784.797 0 0 1-.784.797l-1.786-.007a.784.797 0 0 1-.784-.797L16.22 75.23Z" style="fill:#86d633;stroke:none;stroke-width:.75;stroke-linecap:butt"/></g><g transform="rotate(-135 24.048 64.662)"><title>Sheet.21223</title><path d="M27.34 62.5h2.57v23.73a.784.797 0 0 1-.784.797l-1.766-.007a.784.797 0 0 1-.784-.797L26.58 63.3a.784.797 0 0 1 .784-.797z" style="fill:#5e9624;stroke:none;stroke-width:.75;stroke-linecap:butt"/></g></g></g></svg>