<svg xmlns="http://www.w3.org/2000/svg" xmlns:xlink="http://www.w3.org/1999/xlink" xml:space="preserve" width="75.595" height="68.038" style="font-size:12px;overflow:visible;color-interpolation-filters:sRGB;fill-rule:evenodd;stroke-linecap:square;stroke-miterlimit:3" viewBox="0 0 56.696 51.028"><defs><linearGradient id="a" x1="0" x2="1" y1="0" y2="0" gradientTransform="rotate(-90 .5 .5)"><stop offset="0" stop-color="#d2ebff"/><stop offset="1" stop-color="#f0fffd"/></linearGradient><linearGradient id="c" x1="-.006" x2="31.586" y1="57.6" y2="57.6" gradientTransform="scale(.7679 1.30224)" gradientUnits="userSpaceOnUse"><stop offset="0" stop-color="#0078d4"/><stop offset=".17" stop-color="#1c84dc"/><stop offset=".38" stop-color="#3990e4"/><stop offset=".59" stop-color="#4d99ea"/><stop offset=".8" stop-color="#5a9eee"/><stop offset="1" stop-color="#5ea0ef"/></linearGradient><linearGradient xlink:href="#a" id="b" x1="-.004" x2="38.742" y1="100.453" y2="100.453" gradientTransform="scale(1.19844 .83442)" gradientUnits="userSpaceOnUse"/><linearGradient xlink:href="#a" id="d" x1="-.001" x2="25.416" y1="64.206" y2="64.206" gradientTransform="scale(.77162 1.29598)" gradientUnits="userSpaceOnUse"/></defs><g transform="translate(-31.107 -31.106)"><title>Page-1</title><g transform="translate(31.107 -34.016)"><title>Intune Device Enrolment.21256</title><title>layer1</title><g transform="translate(0 -13.028)"><title>rect25</title><path d="M0 114.23a1.89 1.92-180 0 0 1.89 1.92h48.76a1.89 1.92-180 0 0 1.89-1.92V80.07a1.89 1.92-180 0 0-1.89-1.92H1.89A1.89 1.92-180 0 0 0 80.07Z" style="fill:#0078d4;stroke:none;stroke-width:31.10709953;stroke-linecap:butt"/></g><g transform="translate(3.055 -16.037)"><title>rect27</title><path d="M0 115.19a.945.96-180 0 0 .945.96H45.48a.945.96-180 0 0 .945-.96l.005-30.41a.945.96-180 0 0-.945-.96H.94a.945.96-180 0 0-.945.96z" style="fill:url(#b);stroke:none;stroke-width:31.10709953;stroke-linecap:butt"/></g><g transform="translate(32.441)"><title>rect29</title><path d="M0 115.19a.945.96-180 0 0 .945.96H23.31a.945.96-180 0 0 .945-.96l-.005-39.22a.945.96-180 0 0-.945-.96H.94a.945.96-180 0 0-.945.96z" style="fill:url(#c);stroke:none;stroke-width:31.10709953;stroke-linecap:butt"/></g><g transform="translate(41.795 -38.988)"><title>rect31</title><path d="M0 115.79a.346.352-180 0 0 .346.352l4.884.008a.346.352-180 0 0 .346-.352l-.006-.068a.346.352-180 0 0-.346-.352l-4.874.002a.346.352-180 0 0-.346.352z" style="fill:#f2f2f2;stroke:none;stroke-width:31.10709953;stroke-linecap:butt"/></g><g transform="translate(34.74 -4.61)"><title>rect33</title><path d="M0 115.7a.441.448-180 0 0 .44.448l18.8.002a.441.448-180 0 0 .44-.448V83.53a.441.448-180 0 0-.44-.448L.44 83.08a.441.448-180 0 0-.44.448z" style="fill:none;stroke:none;stroke-width:31.10709953;stroke-linecap:butt"/></g><g transform="translate(23.56 -49.071)"><title>rect35</title><path d="M0 115.79a.346.352-180 0 0 .346.352l4.884.008a.346.352-180 0 0 .346-.352l-.006-.068a.346.352-180 0 0-.346-.352l-4.874.002a.346.352-180 0 0-.346.352z" style="fill:#f2f2f2;stroke:none;stroke-width:31.10709953;stroke-linecap:butt"/></g><g transform="translate(43.213 -.896)"><title>rect41</title><path d="M0 115.51a.63.64-180 0 0 .63.64h1.45a.63.64-180 0 0 .63-.64v-1.06a.63.64-180 0 0-.63-.64H.63a.63.64-180 0 0-.63.64Z" style="fill:#f2f2f2;stroke:none;stroke-width:31.10709953;stroke-linecap:butt"/></g><g transform="translate(34.74 -4.61)"><title>rect30</title><path d="M0 115.69a.451.459-180 0 0 .451.459l18.709.001a.451.459-180 0 0 .451-.458L19.61 83.67a.451.459-180 0 0-.451-.459L.45 83.21a.451.459-180 0 0-.451.459z" style="fill:url(#d);stroke:none;stroke-width:23.45100021;stroke-linecap:butt"/></g><g transform="translate(10.639 -.108)"><title>rect37</title><path d="M0 102.73a13.197 13.413-180 0 0 13.2 13.42h.12a13.197 13.413-180 0 0 13.2-13.42v-.12a13.197 13.413-180 0 0-13.2-13.42h-.12A13.197 13.413-180 0 0 0 102.61Z" style="fill:#76bc2d;stroke:none;stroke-width:31.10709953;stroke-linecap:butt"/></g><g transform="translate(14.419 -4.077)"><title>path39</title><path d="M17.45 104.88h-6.3v-6.4a1.48 1.504-180 0 0-1.42-1.32h-.5a1.48 1.504-180 0 0-1.48 1.51v6.4h-6.3A1.48 1.504-180 0 0 0 106.58v.19a1.48 1.504-180 0 0 1.45 1.5h6.3v6.4a1.48 1.504-180 0 0 1.48 1.48h.5a1.48 1.504-180 0 0 1.48-1.48v-6.4h6.3a1.48 1.504-180 0 0 1.48-1.5v-.51a1.48 1.504-180 0 0-1.54-1.38" style="fill:#fff;stroke:none;stroke-width:31.10709953;stroke-linecap:butt"/></g></g></g></svg>