<svg xmlns="http://www.w3.org/2000/svg" xml:space="preserve" width="75.589" height="75.598" style="font-size:12px;overflow:visible;color-interpolation-filters:sRGB;fill-rule:evenodd;stroke-linecap:square;stroke-miterlimit:3" viewBox="0 0 56.692 56.698"><defs><linearGradient id="a" x1="0" x2="39.737" y1="48.571" y2="48.571" gradientTransform="scale(.91627 1.09138)" gradientUnits="userSpaceOnUse"><stop offset="0" stop-color="#5e9624"/><stop offset=".26" stop-color="#70a828"/><stop offset=".79" stop-color="#9fd732"/><stop offset="1" stop-color="#b4ec36"/></linearGradient></defs><g transform="translate(-5.67 -5.668)"><title>Page-1</title><g transform="translate(5.67 -34.016)"><title>Intune Security Baseline.21207</title><g transform="translate(0 -9.407)"><title>Sheet.21208</title><path d="M39.7 71.17c0 12.7-15.79 22.94-19.21 25.01a1.176 1.167 0 0 1-1.31 0C15.75 94.11 0 83.87 0 71.17V55.86a1.243 1.234 0 0 1 1.21-1.2c12.26-.33 9.44-5.57 18.64-5.57s6.35 5.24 18.57 5.57a1.276 1.267 0 0 1 1.24 1.2z" style="fill:#86d633;stroke:none;stroke-width:.75;stroke-linecap:butt"/></g><g transform="translate(1.646 -11.36)"><title>Sheet.21209</title><path d="M36.41 73.26c0 11.67-14.48 21.04-17.6 22.94a1.108 1.1 0 0 1-1.21 0C14.44 94.3 0 84.93 0 73.26V59.38a1.108 1.1 0 0 1 1.11-1.1c11.25-.46 8.8-5.27 17.09-5.27 8.3 0 5.85 4.81 17.07 5.11a1.142 1.134 0 0 1 1.14 1.1z" style="fill:url(#a);stroke:none;stroke-width:.75;stroke-linecap:butt"/></g><g transform="translate(18.002)"><title>Sheet.21210</title><path d="M1.24 66.86h36.21a1.176 1.167 0 0 1 1.24 1.1v27.32a1.176 1.167 0 0 1-1.24 1.1H1.24A1.21 1.2 0 0 1 0 95.28V68.03a1.21 1.2 0 0 1 1.24-1.17" style="fill:#9cebff;stroke:none;stroke-width:.75;stroke-linecap:butt"/></g><g transform="translate(18.002 -24.345)"><title>Sheet.21211</title><path d="M1.18 91.21h36.34a1.108 1.1 0 0 1 1.17 1.03v4.14H0v-4a1.108 1.1 0 0 1 1.18-1.04z" style="fill:#0078d4;stroke:none;stroke-width:.75;stroke-linecap:butt"/></g><g transform="translate(26.6 -11.139)"><title>Sheet.21212</title><path d="M24.82 93.88H.94c-.54 0-.94.26-.94.53v1.43c0 .3.4.54.94.54h23.88c.54 0 .97-.24.97-.54v-1.33c0-.37-.53-.63-.97-.63" style="fill:#0078d4;stroke:none;stroke-width:.75;stroke-linecap:butt"/></g><g transform="translate(26.6 -17.275)"><title>Sheet.21213</title><path d="M24.82 94.01H.94c-.54 0-.94.23-.94.53v1.3c0 .3.4.54.94.54h23.88c.54 0 .97-.24.97-.54v-1.3c0-.3-.53-.53-.97-.53" style="fill:#0078d4;stroke:none;stroke-width:.75;stroke-linecap:butt"/></g><g transform="translate(26.6 -4.469)"><title>Sheet.21214</title><path d="M24.82 93.98H.94c-.54 0-.94.23-.94.53v1.33c0 .3.4.54.94.54h23.88c.54 0 .97-.24.97-.54v-1.33c0-.3-.53-.53-.97-.53" style="fill:#0078d4;stroke:none;stroke-width:.75;stroke-linecap:butt"/></g><g transform="translate(21.058 -16.908)"><title>Sheet.21215</title><ellipse cx="1.579" cy="94.811" rx="1.579" ry="1.567" style="fill:#0078d4;stroke:none;stroke-width:.75;stroke-linecap:butt"/></g><g transform="translate(21.058 -10.872)"><title>Sheet.21216</title><ellipse cx="1.579" cy="94.811" rx="1.579" ry="1.567" style="fill:#0078d4;stroke:none;stroke-width:.75;stroke-linecap:butt"/></g><g transform="translate(21.058 -4.102)"><title>Sheet.21217</title><ellipse cx="1.579" cy="94.811" rx="1.579" ry="1.567" style="fill:#0078d4;stroke:none;stroke-width:.75;stroke-linecap:butt"/></g></g></g></svg>