<svg xmlns="http://www.w3.org/2000/svg" xml:space="preserve" width="75.585" height="75.586" style="font-size:12px;overflow:visible;color-interpolation-filters:sRGB;fill-rule:evenodd;stroke-linecap:square;stroke-miterlimit:3" viewBox="0 0 56.689 56.69"><defs><linearGradient id="a" x1="0" x2="45.935" y1="32.16" y2="32.16" gradientTransform="scale(.81028 1.23414)" gradientUnits="userSpaceOnUse"><stop offset="0" stop-color="#0078d4"/><stop offset=".17" stop-color="#1c84dc"/><stop offset=".38" stop-color="#3990e4"/><stop offset=".59" stop-color="#4d99ea"/><stop offset=".8" stop-color="#5a9eee"/><stop offset="1" stop-color="#5ea0ef"/></linearGradient><linearGradient id="b" x1="0" x2="37.113" y1="41.408" y2="41.408" gradientTransform="scale(.8147 1.22745)" gradientUnits="userSpaceOnUse"><stop offset="0" stop-color="#d2ebff"/><stop offset="1" stop-color="#f0fffd"/></linearGradient></defs><g transform="translate(-5.67 -5.674)"><title>Page-1</title><g transform="translate(5.67 -34.016)"><title>Intune Device Configuration.21268</title><title>Sheet.21269</title><path d="M0 94.68a1.867 1.702-180 0 0 1.87 1.7h33.49a1.867 1.702-180 0 0 1.86-1.7V41.39a1.867 1.702-180 0 0-1.86-1.7H1.87A1.867 1.702-180 0 0 0 41.39Z" style="fill:url(#a);stroke:none;stroke-width:.75;stroke-linecap:butt"/><g transform="translate(16.506 -1.201)"><title>Sheet.21270</title><path d="M0 95.48a.988.901-180 0 0 .988.9H3.18a.988.901-180 0 0 .988-.9l.002-1.44a.988.901-180 0 0-.988-.9H.99a.988.901-180 0 0-.988.9z" style="fill:#f2f2f2;stroke:none;stroke-width:.75;stroke-linecap:butt"/></g><g transform="translate(14.31 -53.757)"><title>Sheet.21271</title><path d="M0 95.91a.512.467-180 0 0 .512.467l7.538.003a.512.467-180 0 0 .512-.467l-.002-.103a.512.467-180 0 0-.512-.467L.51 95.34a.512.467-180 0 0-.512.467z" style="fill:#f2f2f2;stroke:none;stroke-width:.75;stroke-linecap:butt"/></g><g transform="translate(3.477 -6.34)"><title>Sheet.21272</title><path d="M0 95.74a.695.634-180 0 0 .695.634l28.845.006a.695.634-180 0 0 .695-.634L30.23 51.46a.695.634-180 0 0-.695-.634L.7 50.83a.695.634-180 0 0-.695.634z" style="fill:url(#b);stroke:none;stroke-width:.75;stroke-linecap:butt"/></g><g transform="translate(24.229 -.267)"><title>Sheet.21273</title><path d="m29.32 90.71-1.8-3.34a.512.467 0 0 1 0-.367l.63-1.973a.549.5 0 0 1 .33-.334l3.65-1.196a.622.567-180 0 0 .33-.467V79.93l-.22-.17-3.66-1.13a.476.434 0 0 1-.33-.3l-.8-1.94a.622.567 0 0 1 0-.4l1.54-2.87a.512.467-180 0 0 0-.567l-2.42-2.233a.549.5-180 0 0-.622 0l-3.078 1.4a.512.467 0 0 1-.549-.067l-2.081-.573a.44.4 0 0 1-.366-.3l-1.394-3.33a.549.5-180 0 0-.512-.334l-3.328-.006h-.18l-1.25 3.34a.586.534 0 0 1-.33.3l-2.16.74a.622.567 0 0 1-.44 0l-3.66-1.67a.549.5-180 0 0-.622 0l-2.118 1.9a.622.567-180 0 0 0 .567l1.79 3.333a.622.567 0 0 1 0 .4l-1.02 2.31a.586.534 0 0 1-.33.3l-3.95 1.1a.549.5-180 0 0-.366.467L0 82.9a.476.434-180 0 0 .366.467L4.03 84.5a.586.534 0 0 1 .33.3l.87 1.93a.476.434 0 0 1 0 .4L3.4 90.47a.586.534-180 0 0 0 .534l2.09 1.966a.549.5-180 0 0 .659 0l3.661-1.63a.476.434 0 0 1 .44 0l2.12.8a.732.667 0 0 1 .33.3l1.39 3.6a.549.5-180 0 0 .512.334l2.968.006a.549.5-180 0 0 .512-.367l1.238-3.343a.732.667 0 0 1 .33-.3l2.68-.7a.586.534 0 0 1 .44 0l3.84 1.64a.512.467-180 0 0 .622 0l2.088-1.9a.512.467-180 0 0 0-.7m-14.94-4.58a5.16 4.705 0 1 1 6.74-2.5 5.16 4.705 0 0 1-6.74 2.5" style="fill:#949494;stroke:none;stroke-width:.75;stroke-linecap:butt"/></g><g transform="rotate(-67.17 15.195 59.907)"><title>Sheet.21274</title><ellipse cx="5.124" cy="91.706" rx="5.124" ry="4.672" style="fill:#fff;stroke:none;stroke-width:.75;stroke-linecap:butt"/></g></g></g></svg>