<svg xmlns="http://www.w3.org/2000/svg" xml:space="preserve" width="64.253" height="75.591" style="font-size:12px;overflow:visible;color-interpolation-filters:sRGB;fill-rule:evenodd;stroke-linecap:square;stroke-miterlimit:3" viewBox="0 0 48.19 56.694"><defs><linearGradient id="a" x1="-.022" x2="47.924" y1="78.595" y2="78.595" gradientTransform="scale(.92313 1.08327)" gradientUnits="userSpaceOnUse"><stop offset="0" stop-color="#0078d4"/><stop offset=".06" stop-color="#0a7cd7"/><stop offset=".34" stop-color="#2e8ce1"/><stop offset=".59" stop-color="#4897e9"/><stop offset=".82" stop-color="#589eed"/><stop offset="1" stop-color="#5ea0ef"/></linearGradient></defs><g transform="translate(-40.192 -40.188)"><title>Page-1</title><g transform="translate(40.192 -40.192)"><title>Intune Exchange Access.21227</title><title>layer1</title><title>path19</title><path d="M48.19 106.85c0 15.24-19.13 27.5-23.31 30a1.463 1.433 0 0 1-1.57 0C19.13 134.39 0 122.12 0 106.85V88.52a1.497 1.467 0 0 1 1.46-1.47c14.91-.37 11.47-6.67 22.63-6.67 11.17 0 7.73 6.3 22.64 6.67a1.497 1.467 0 0 1 1.46 1.47z" style="fill:#0078d4;stroke:none;stroke-width:40.1916008;stroke-linecap:butt"/><g transform="translate(1.974 -2.39)"><title>path21</title><path d="M44.24 109.38c0 14-17.56 25.23-21.4 27.5a1.361 1.333 0 0 1-1.43 0C17.56 134.61 0 123.38 0 109.38V92.71a1.395 1.367 0 0 1 1.36-1.6c13.68-.24 10.55-5.97 20.76-5.97s7.08 5.73 20.76 5.97a1.395 1.367 0 0 1 1.36 1.33z" style="fill:url(#a);stroke:none;stroke-width:40.1916008;stroke-linecap:butt"/></g><g transform="translate(13.272 -18.356)"><title>path23</title><path d="M20.52 122.61h-1.36v-4.74a8.916 8.734-180 0 0-2.38-6.03 8.066 7.9-180 0 0-11.85 0 8.882 8.7-180 0 0-2.38 6.03v4.74H1.19A1.089 1.067-180 0 0 0 123.74v12.27a1.089 1.067-180 0 0 1.12 1.07h19.4a1.089 1.067-180 0 0 1.12-1.07v-12.27a1.089 1.067-180 0 0-1.12-1.13m-5.27 0H6.4v-4.8a4.867 4.767 0 0 1 1.39-3.34 4.05 3.967 0 0 1 6.06 0 5.309 5.2 0 0 1 .55.67 4.764 4.667 0 0 1 .85 2.63z" style="fill:#ffbd02;stroke:none;stroke-width:40.1916008;stroke-linecap:butt"/></g><g transform="translate(13.272 -18.69)"><title>path25</title><path d="M1.12 122.94h19.4a1.089 1.067 0 0 1 .72.27L.41 137.08a1.123 1.1 0 0 1-.41-.8v-12.2a1.089 1.067 0 0 1 1.12-1.14" style="fill:#ffe452;stroke:none;stroke-width:40.1916008;stroke-linecap:butt"/></g><g transform="translate(13.68 -18.69)"><title>path27</title><path d="M20.11 122.94H.71a1.089 1.067-180 0 0-.71.27l20.83 13.87a1.021 1-180 0 0 .41-.8v-12.2a1.089 1.067-180 0 0-1.13-1.14" style="fill:#ffd400;fill-opacity:.5;stroke:none;stroke-width:40.1916008;stroke-linecap:butt"/></g></g></g></svg>