<svg xmlns="http://www.w3.org/2000/svg" xml:space="preserve" width="56.694" height="75.587" style="font-size:12px;overflow:visible;color-interpolation-filters:sRGB;fill-rule:evenodd;stroke-linecap:square;stroke-miterlimit:3" viewBox="0 0 42.521 56.691"><defs><linearGradient id="a" x1="0" x2="49.097" y1="34.373" y2="34.373" gradientTransform="scale(.86605 1.15466)" gradientUnits="userSpaceOnUse"><stop offset="0" stop-color="#5ea0ef"/><stop offset=".18" stop-color="#559cec"/><stop offset=".47" stop-color="#3c91e5"/><stop offset=".84" stop-color="#1380da"/><stop offset="1" stop-color="#0078d4"/></linearGradient></defs><g transform="translate(-4.252 -5.674)"><title>Page-1</title><g transform="translate(4.252 -34.016)"><title>Intune Exchange On-Premises Access.21224</title><title>Sheet.21225</title><path d="M42.52 41.59v52.89a2.381 1.868 0 0 1-2.38 1.9H2.42A2.381 1.868 0 0 1 0 94.48V41.59a2.381 1.868 0 0 1 2.42-1.9H40.1a2.381 1.868 0 0 1 2.42 1.9" style="fill:url(#a);stroke:none;stroke-width:.75;stroke-linecap:butt"/><g transform="translate(5.017 -1.2)"><title>a1bc77ea-5288-41a0-8f9a-2d282cf</title><path d="M.64 46.79h7.1a.595.467 0 0 1 .595.467L8.33 54.26a.595.467 0 0 1-.595.467L.64 54.73a.638.5 0 0 1-.638-.467L0 47.26a.638.5 0 0 1 .638-.467zm12.16 0h6.89a.595.467 0 0 1 .595.467l-.005 7.003a.595.467 0 0 1-.595.467l-6.885.003a.595.467 0 0 1-.595-.467L12.2 47.26a.595.467 0 0 1 .595-.467zm12.16 0h6.89a.638.5 0 0 1 .638.467l.002 7.003a.638.5 0 0 1-.638.467l-6.892.003a.595.467 0 0 1-.595-.467l-.005-7.003a.595.467 0 0 1 .595-.467zM.64 59.49h7.1a.595.467 0 0 1 .595.467L8.33 66.96a.638.5 0 0 1-.595.5H.64a.638.5 0 0 1-.638-.5l-.002-7a.638.5 0 0 1 .638-.467zm12.16 0h6.89a.595.467 0 0 1 .595.467l-.005 7.003a.638.5 0 0 1-.595.5H12.8a.638.5 0 0 1-.595-.5l-.005-7a.595.467 0 0 1 .595-.467zm12.16 0h6.89a.638.5 0 0 1 .638.467l.002 7.003a.638.5 0 0 1-.638.5H24.96a.638.5 0 0 1-.595-.5l-.005-7a.595.467 0 0 1 .595-.467zM.64 72.23h7.1a.595.467 0 0 1 .595.467L8.33 79.7a.595.467 0 0 1-.595.467L.64 80.17a.638.5 0 0 1-.638-.467L0 72.57a.638.5 0 0 1 .638-.333zm12.16 0h6.89a.595.467 0 0 1 .808.333l-.008 7.007a.595.467 0 0 1-.595.467l-7.095.003a.595.467 0 0 1-.595-.467L12.2 72.57a.595.467 0 0 1 .595-.333zm0 12.71h6.89a.595.467 0 0 1 .595.467L20.28 95.91a.595.467 0 0 1-.595.467l-6.885.003a.595.467 0 0 1-.595-.467L12.2 85.41a.595.467 0 0 1 .595-.467zm12.16-12.71h6.89a.638.5 0 0 1 .638.467l.002 7.003a.638.5 0 0 1-.638.467l-6.892.003a.595.467 0 0 1-.595-.467l-.005-7.133a.595.467 0 0 1 .595-.333z" style="fill:#f2f2f2;stroke:none;stroke-width:.75;stroke-linecap:butt"/></g></g></g></svg>