<svg xmlns="http://www.w3.org/2000/svg" xmlns:xlink="http://www.w3.org/1999/xlink" xml:space="preserve" width="75.594" height="68.038" style="font-size:12px;overflow:visible;color-interpolation-filters:sRGB;fill-rule:evenodd;stroke-linecap:square;stroke-miterlimit:3" viewBox="0 0 56.696 51.028"><defs><linearGradient id="a" x1="0" x2="1" y1="0" y2="0" gradientTransform="rotate(-90 .5 .5)"><stop offset="0" stop-color="#d2ebff"/><stop offset="1" stop-color="#f0fffd"/></linearGradient><linearGradient id="c" x1="-.006" x2="31.586" y1="57.509" y2="57.509" gradientTransform="scale(.7679 1.30224)" gradientUnits="userSpaceOnUse"><stop offset="0" stop-color="#0078d4"/><stop offset=".17" stop-color="#1c84dc"/><stop offset=".38" stop-color="#3990e4"/><stop offset=".59" stop-color="#4d99ea"/><stop offset=".8" stop-color="#5a9eee"/><stop offset="1" stop-color="#5ea0ef"/></linearGradient><linearGradient xlink:href="#a" id="b" x1="-.004" x2="38.742" y1="100.309" y2="100.309" gradientTransform="scale(1.19844 .83442)" gradientUnits="userSpaceOnUse"/><linearGradient xlink:href="#a" id="d" x1="-.004" x2="25.518" y1="64.023" y2="64.023" gradientTransform="scale(.77173 1.29579)" gradientUnits="userSpaceOnUse"/></defs><g transform="translate(-30.988 -30.986)"><title>Page-1</title><g transform="translate(30.988 -34.016)"><title>Intune Device.21234</title><title>layer1</title><g transform="translate(0 -13.028)"><title>rect25</title><path d="M0 114.11a1.89 1.92-180 0 0 1.89 1.92h48.76a1.89 1.92-180 0 0 1.89-1.92V79.95a1.89 1.92-180 0 0-1.89-1.92H1.89A1.89 1.92-180 0 0 0 79.95Z" style="fill:#0078d4;stroke:none;stroke-width:30.98800087;stroke-linecap:butt"/></g><g transform="translate(3.055 -16.037)"><title>rect27</title><path d="M0 115.07a.945.96-180 0 0 .945.96H45.48a.945.96-180 0 0 .945-.96l.005-30.41a.945.96-180 0 0-.945-.96H.94a.945.96-180 0 0-.945.96z" style="fill:url(#b);stroke:none;stroke-width:30.98800087;stroke-linecap:butt"/></g><g transform="translate(32.441)"><title>rect29</title><path d="M0 115.07a.945.96-180 0 0 .945.96H23.31a.945.96-180 0 0 .945-.96l-.005-39.21a.945.96-180 0 0-.945-.96L.94 74.89a.945.96-180 0 0-.945.96z" style="fill:url(#c);stroke:none;stroke-width:30.98800087;stroke-linecap:butt"/></g><g transform="translate(41.795 -38.988)"><title>rect31</title><path d="M0 115.68a.346.352-180 0 0 .346.352l4.884-.002a.346.352-180 0 0 .346-.352l-.006-.068a.346.352-180 0 0-.346-.352l-4.874.002a.346.352-180 0 0-.346.352z" style="fill:#f2f2f2;stroke:none;stroke-width:30.98800087;stroke-linecap:butt"/></g><g transform="translate(34.74 -4.61)"><title>rect33</title><path d="M0 115.58a.441.448-180 0 0 .44.448l18.8.002a.441.448-180 0 0 .44-.448V83.41a.441.448-180 0 0-.44-.448L.44 82.96a.441.448-180 0 0-.44.448z" style="fill:none;stroke:none;stroke-width:30.98800087;stroke-linecap:butt"/></g><g transform="translate(23.56 -49.071)"><title>rect35</title><path d="M0 115.68a.346.352-180 0 0 .346.352l4.884-.002a.346.352-180 0 0 .346-.352l-.006-.068a.346.352-180 0 0-.346-.352l-4.874.002a.346.352-180 0 0-.346.352z" style="fill:#f2f2f2;stroke:none;stroke-width:30.98800087;stroke-linecap:butt"/></g><g transform="translate(43.213 -.896)"><title>rect37</title><path d="M0 115.39a.63.64-180 0 0 .63.64h1.45a.63.64-180 0 0 .63-.64v-1.06a.63.64-180 0 0-.63-.64H.63a.63.64-180 0 0-.63.64Z" style="fill:#f2f2f2;stroke:none;stroke-width:30.98800087;stroke-linecap:butt"/></g><g transform="translate(34.74 -4.61)"><title>rect30</title><path d="M0 115.57a.453.46-180 0 0 .453.46H19.24a.453.46-180 0 0 .453-.46l-.003-32.15a.453.46-180 0 0-.453-.46H.45a.453.46-180 0 0-.453.46z" style="fill:url(#d);stroke:none;stroke-width:23.45100021;stroke-linecap:butt"/></g></g></g></svg>