<svg xmlns="http://www.w3.org/2000/svg" xml:space="preserve" width="68.037" height="75.596" style="font-size:12px;overflow:visible;color-interpolation-filters:sRGB;fill-rule:evenodd;stroke-linecap:square;stroke-miterlimit:3" viewBox="0 0 51.028 56.697"><defs><linearGradient id="a" x1="0" x2="43.639" y1="57.91" y2="57.91" gradientTransform="scale(.77019 1.29839)" gradientUnits="userSpaceOnUse"><stop offset="0" stop-color="#0078d4"/><stop offset=".17" stop-color="#1c84dc"/><stop offset=".38" stop-color="#3990e4"/><stop offset=".59" stop-color="#4d99ea"/><stop offset=".8" stop-color="#5a9eee"/><stop offset="1" stop-color="#5ea0ef"/></linearGradient><linearGradient id="b" x1="0" x2="35.255" y1="66.848" y2="66.848" gradientTransform="scale(.77436 1.29138)" gradientUnits="userSpaceOnUse"><stop offset="0" stop-color="#d2ebff"/><stop offset="1" stop-color="#f0fffd"/></linearGradient></defs><g transform="translate(-37.58 -37.578)"><title>Page-1</title><g transform="translate(37.579 -37.579)"><title>Intune Device Compliance.21275</title><title>layer1</title><g transform="translate(0 -.033)"><title>rect24</title><path d="M0 130.15a1.685 1.7-180 0 0 1.69 1.7h30.23a1.685 1.7-180 0 0 1.69-1.7V76.89a1.685 1.7-180 0 0-1.69-1.7H1.69A1.685 1.7-180 0 0 0 76.89Z" style="fill:url(#a);stroke:none;stroke-width:37.57889938;stroke-linecap:butt"/></g><g transform="translate(14.904 -1.2)"><title>rect26</title><path d="M0 130.95a.892.9-180 0 0 .892.9H2.88a.892.9-180 0 0 .892-.9l-.002-1.43a.892.9-180 0 0-.892-.9H.89a.892.9-180 0 0-.892.9z" style="fill:#f2f2f2;stroke:none;stroke-width:37.57889938;stroke-linecap:butt"/></g><g transform="translate(12.921 -53.758)"><title>rect28</title><path d="M0 131.35a.496.5-180 0 0 .496.5H7.24a.496.5-180 0 0 .496-.5l-.006-.03a.496.5-180 0 0-.496-.5H.5a.496.5-180 0 0-.496.5z" style="fill:#f2f2f2;stroke:none;stroke-width:37.57889938;stroke-linecap:butt"/></g><g transform="translate(3.14 -6.37)"><title>rect30</title><path d="M0 131.22a.628.634-180 0 0 .628.634l26.042-.004a.628.634-180 0 0 .628-.634L27.3 86.96a.628.634-180 0 0-.628-.634L.63 86.33a.628.634-180 0 0-.628.634z" style="fill:url(#b);stroke:none;stroke-width:37.57889938;stroke-linecap:butt"/></g><g transform="translate(26.173)"><title>rect32</title><path d="M0 130.92a.925.934-180 0 0 .925.934l23.005-.004a.925.934-180 0 0 .925-.934l-.005-23.206a.925.934-180 0 0-.925-.934L.93 106.77a.925.934-180 0 0-.925.934z" style="fill:#76bc2d;stroke:none;stroke-width:37.57889938;stroke-linecap:butt"/></g><g transform="translate(29.125 -5.58)"><title>path34</title><path d="m8.2 130.23-1.43 1.44a.628.634 0 0 1-.888 0L.18 125.91a.628.634 0 0 1 0-.896L1.19 124a.628.634 0 0 1 .888 0l6.142 6.2Z" style="fill:#fff;stroke:none;stroke-width:37.57889938;stroke-linecap:butt"/></g><g transform="translate(33.716 -5.598)"><title>path36</title><path d="M1.43 131.64 0 130.2 13.09 117a.628.634 0 0 1 .888 0l1.002 1.01a.628.634 0 0 1 0 .896L2.34 131.67a.628.634 0 0 1-.888 0z" style="fill:#fff;stroke:none;stroke-width:37.57889938;stroke-linecap:butt"/></g></g></g></svg>