<svg xmlns="http://www.w3.org/2000/svg" xml:space="preserve" width="75.594" height="68.033" style="font-size:12px;overflow:visible;color-interpolation-filters:sRGB;fill-rule:evenodd;stroke-linecap:square;stroke-miterlimit:3" viewBox="0 0 56.696 51.025"><defs><linearGradient id="a" x1="0" x2="40.877" y1="101.909" y2="101.909" gradientTransform="scale(1.23272 .81121)" gradientUnits="userSpaceOnUse"><stop offset="0" stop-color="#0078d4"/><stop offset=".82" stop-color="#5ea0ef"/></linearGradient><linearGradient id="b" x1="0" x2="17.847" y1="145.443" y2="145.443" gradientTransform="scale(1.40974 .70935)" gradientUnits="userSpaceOnUse"><stop offset="0" stop-color="#1490df"/><stop offset=".98" stop-color="#1f56a3"/></linearGradient><linearGradient id="c" x1="0" x2="9.684" y1="106.858" y2="106.858" gradientTransform="scale(1.00616 .99387)" gradientUnits="userSpaceOnUse"><stop offset="0" stop-color="#d2ebff"/><stop offset="1" stop-color="#f0fffd"/></linearGradient></defs><g transform="translate(-30.789 -30.79)"><title>Page-1</title><g transform="translate(30.789 -34.016)"><title>Intune App Protection.21284</title><title>layer1</title><g transform="translate(0 -17.865)"><title>rect21</title><path d="M0 114.18a1.668 1.648-180 0 0 1.67 1.65h47.05a1.668 1.648-180 0 0 1.67-1.65V84.32a1.668 1.648-180 0 0-1.67-1.65H1.67A1.668 1.648-180 0 0 0 84.32Z" style="fill:url(#a);stroke:none;stroke-width:30.78879929;stroke-linecap:butt"/></g><g transform="translate(2.803 -20.6)"><title>rect23</title><path d="M0 114.91a.934.923-180 0 0 .934.923l42.916-.003a.934.923-180 0 0 .934-.923L44.78 89.1a.934.923-180 0 0-.934-.923L.93 88.17a.934.923-180 0 0-.934.923z" style="fill:#fff;stroke:none;stroke-width:30.78879929;stroke-linecap:butt"/></g><g transform="translate(12.48 -5.043)"><title>path25</title><path d="M22.82 113.06c-5-.76-5.2-4.32-5.17-9.89H7.64c0 5.74-.2 9.3-5.17 9.89A2.903 2.868-180 0 0 0 115.83h25.16a2.936 2.9-180 0 0-2.34-2.77" style="fill:url(#b);stroke:none;stroke-width:30.78879929;stroke-linecap:butt"/></g><g transform="translate(17.406)"><title>path27</title><path d="M38.22 80.13H15.26a7.708 7.614-180 1 0 0 3.03h2.37v31.58a1.101 1.088-180 0 0 1.1 1.09h19.46a1.101 1.088-180 0 0 1.1-1.09V81.22a1.101 1.088-180 0 0-1.07-1.09" style="fill:#32bedd;stroke:none;stroke-width:30.78879929;stroke-linecap:butt"/></g><g transform="translate(37.106 -4.021)"><title>rect29</title><path d="M0 115.43a.4.396-180 0 0 .4.396l16.78.004a.4.396-180 0 0 .4-.396l.01-27.884a.4.396-180 0 0-.4-.396L.4 87.15a.4.396-180 0 0-.4.396z" style="fill:#fff;stroke:none;stroke-width:30.78879929;stroke-linecap:butt"/></g><g transform="translate(20.322 -29.236)"><title>circle31</title><ellipse cx="4.872" cy="111.016" rx="4.872" ry="4.812" style="fill:url(#c);stroke:none;stroke-width:30.78879929;stroke-linecap:butt"/></g><g transform="translate(35.037 -15.305)"><title>path33</title><path d="m12.95 111.62-3.74-3.69a.2.198-180 0 0-.333.164l.003 2.236a.2.198 0 0 1-.2.198L0 110.53v2.74h8.68a.2.198 0 0 1 .2.198v2.272a.2.198-180 0 0 .333 0l3.737-3.53a.4.396-180 0 0 0-.593z" style="fill:#0078d4;stroke:none;stroke-width:30.78879929;stroke-linecap:butt"/></g></g></g></svg>