<svg xmlns="http://www.w3.org/2000/svg" xml:space="preserve" width="75.586" height="60.477" style="font-size:12px;overflow:visible;color-interpolation-filters:sRGB;fill-rule:evenodd;stroke-linecap:square;stroke-miterlimit:3" viewBox="0 0 56.69 45.358"><defs><linearGradient id="a" x1="0" x2="39.674" y1="66.309" y2="66.309" gradientTransform="scale(1.26305 .79173)" gradientUnits="userSpaceOnUse"><stop offset="0" stop-color="#d2ebff"/><stop offset="1" stop-color="#f0fffd"/></linearGradient></defs><g transform="translate(-5.67 -4.532)"><title>Page-1</title><g transform="translate(5.67 -34.016)"><title>Intune Software Update.21200</title><g transform="translate(0 -8.443)"><title>Sheet.21201</title><path d="M0 82.18a1.89 1.729-180 0 0 1.89 1.73H54.8a1.89 1.729-180 0 0 1.89-1.73V48.72a1.89 1.729-180 0 0-1.89-1.73H1.89A1.89 1.729-180 0 0 0 48.72Z" style="fill:#0078d4;stroke:none;stroke-width:.75;stroke-linecap:butt"/></g><g transform="translate(3.307 -11.353)"><title>Sheet.21202</title><path d="M0 82.95a1.04.95-180 0 0 1.04.95l48.03.01a1.04.95-180 0 0 1.04-.95V53.45a1.04.95-180 0 0-1.04-.95H1.04a1.04.95-180 0 0-1.04.95Z" style="fill:url(#a);stroke:none;stroke-width:.75;stroke-linecap:butt"/></g><g transform="translate(25.417 -43.453)"><title>Sheet.21203</title><path d="M0 83.56a.378.346-180 0 0 .378.346l5.262.004a.378.346-180 0 0 .378-.346l.002-.064a.378.346-180 0 0-.378-.346L.38 83.16a.378.346-180 0 0-.378.346z" style="fill:#f2f2f2;stroke:none;stroke-width:.75;stroke-linecap:butt"/></g><g transform="translate(27.244)"><title>Sheet.21204</title><ellipse cx="13.291" cy="71.746" rx="13.291" ry="12.16" style="fill:#76bc2d;stroke:none;stroke-width:.75;stroke-linecap:butt"/></g><g transform="translate(29.757 -4.506)"><title>Sheet.21205</title><path d="M2.84 74.38a8.693 7.953-180 0 0-.25 2.88 8.346 7.636-180 0 0 1.13 2.88 7.969 7.29-180 0 0 1.51 1.73 9.197 8.414-180 0 0 1.93 1.24 11.37 10.402-180 0 0 2.26.72 8.661 7.924-180 0 0 2.4 0l-.22-2.1a.44.403-180 0 0-.44-.403l-1.23-.007a6.3 5.763 0 0 1-1.51-.49 7.622 6.973 0 0 1-1.33-.69 4.787 4.38 0 0 1-1-1.15 5.323 4.87 0 0 1-.76-1.93 5.921 5.417 0 0 1 0-2.05l.79 1.21a.472.432-180 0 0 .63.144l.97-.514a.472.432-180 0 0 .157-.576L5.23 71.18a.504.461-180 0 0-.661-.144L.13 73.46a.44.403-180 0 0 0 .576l.54.864a.472.432-180 0 0 .661.173z" style="fill:#fff;stroke:none;stroke-width:.75;stroke-linecap:butt"/></g><g transform="translate(40.063 -6.767)"><title>Sheet.21206</title><path d="M1.83 73.41a7.811 7.146 0 0 1 1.51.49 6.3 5.763 0 0 1 1.32.87 5.04 4.61 0 0 1 1.04 1.15 5.606 5.129 0 0 1 .73 1.93 5.953 5.446 0 0 1 0 2.05l-.79-1.21a.472.432-180 0 0-.63-.173l-.95.513a.472.432-180 0 0-.157.605L6.52 83.7a.504.461-180 0 0 .661.173l4.439-2.423a.472.432-180 0 0 .189-.605l-.569-.865a.504.461-180 0 0-.661-.144l-1.539.834a8.252 7.55-180 0 0 .25-3.11 9.07 8.299-180 0 0-1.1-2.88 9.732 8.904-180 0 0-1.51-1.7 8.787 8.04-180 0 0-4.35-2.1 7.78 7.117-180 0 0-1.92 0 .44.403-180 0 0-.41.461v1.669a.472.432-180 0 0 .44.375 8.063 7.377 0 0 1 1.39.025" style="fill:#fff;stroke:none;stroke-width:.75;stroke-linecap:butt"/></g></g></g></svg>