<svg xmlns="http://www.w3.org/2000/svg" xml:space="preserve" width="75.595" height="68.033" style="font-size:12px;overflow:visible;color-interpolation-filters:sRGB;fill-rule:evenodd;stroke-linecap:square;stroke-miterlimit:3" viewBox="0 0 56.696 51.025"><defs><linearGradient id="a" x1="0" x2="40.877" y1="105.755" y2="105.755" gradientTransform="scale(1.23272 .81121)" gradientUnits="userSpaceOnUse"><stop offset="0" stop-color="#0078d4"/><stop offset=".82" stop-color="#5ea0ef"/></linearGradient><linearGradient id="b" x1="0" x2="17.84" y1="149.914" y2="149.914" gradientTransform="scale(1.4103 .70907)" gradientUnits="userSpaceOnUse"><stop offset="0" stop-color="#1490df"/><stop offset=".98" stop-color="#1f56a3"/></linearGradient><linearGradient id="c" x1="0" x2="9.684" y1="110.002" y2="110.002" gradientTransform="scale(1.00616 .99388)" gradientUnits="userSpaceOnUse"><stop offset="0" stop-color="#d2ebff"/><stop offset="1" stop-color="#f0fffd"/></linearGradient></defs><g transform="translate(-33.914 -33.91)"><title>Page-1</title><g transform="translate(33.914 -34.016)"><title>Intune.21186</title><g transform="translate(0 -17.865)"><title>rect21</title><path d="M0 117.31a1.668 1.648-180 0 0 1.67 1.64h47.05a1.668 1.648-180 0 0 1.67-1.64V87.44a1.668 1.648-180 0 0-1.67-1.65H1.67A1.668 1.648-180 0 0 0 87.44Z" style="fill:url(#a);stroke:none;stroke-width:33.91379929;stroke-linecap:butt"/></g><g transform="translate(2.803 -20.6)"><title>rect23</title><path d="M0 118.03a.934.923-180 0 0 .934.923l42.916-.003a.934.923-180 0 0 .934-.923L44.78 92.22a.934.923-180 0 0-.934-.923L.93 91.3a.934.923-180 0 0-.934.923z" style="fill:#fff;stroke:none;stroke-width:33.91379929;stroke-linecap:butt"/></g><g transform="translate(12.48 -5.043)"><title>path25</title><path d="M22.82 116.18c-5-.75-5.2-4.31-5.17-9.88H7.64c0 5.73-.2 9.29-5.17 9.88A2.903 2.868-180 0 0 0 118.95h25.16a2.936 2.9-180 0 0-2.34-2.77" style="fill:url(#b);stroke:none;stroke-width:33.91379929;stroke-linecap:butt"/></g><g transform="translate(17.406)"><title>path27</title><path d="M38.22 83.26H15.26a7.708 7.614-180 1 0 0 3.03h2.37v31.58a1.101 1.088-180 0 0 1.1 1.08h19.46a1.101 1.088-180 0 0 1.1-1.08V84.34a1.101 1.088-180 0 0-1.07-1.08" style="fill:#32bedd;stroke:none;stroke-width:33.91379929;stroke-linecap:butt"/></g><g transform="translate(37.106 -4.021)"><title>rect29</title><path d="M0 118.56a.4.396-180 0 0 .4.396l16.78-.006a.4.396-180 0 0 .4-.396l.01-27.884a.4.396-180 0 0-.4-.396L.4 90.28a.4.396-180 0 0-.4.396z" style="fill:#fff;stroke:none;stroke-width:33.91379929;stroke-linecap:butt"/></g><g transform="translate(20.321 -29.236)"><title>circle31</title><ellipse cx="4.872" cy="114.141" rx="4.872" ry="4.812" style="fill:url(#c);stroke:none;stroke-width:33.91379929;stroke-linecap:butt"/></g><g transform="translate(35.037 -15.304)"><title>path33</title><path d="m12.95 114.74-3.74-3.69a.2.198-180 0 0-.334.165l.004 2.245a.2.198 0 0 1-.2.198L0 113.66v2.73h8.68a.2.198 0 0 1 .2.198v2.272a.2.198-180 0 0 .334 0l3.736-3.52a.4.396-180 0 0 0-.593z" style="fill:#0078d4;stroke:none;stroke-width:33.91379929;stroke-linecap:butt"/></g></g></g></svg>