<svg xmlns="http://www.w3.org/2000/svg" xml:space="preserve" width="75.588" height="75.589" style="font-size:12px;overflow:visible;color-interpolation-filters:sRGB;fill-rule:evenodd;stroke-linecap:square;stroke-miterlimit:3" viewBox="0 0 56.691 56.692"><defs><linearGradient id="a" x1="0" x2="39.721" y1="48.574" y2="48.574" gradientTransform="scale(.91615 1.09152)" gradientUnits="userSpaceOnUse"><stop offset="0" stop-color="#0078d4"/><stop offset="1" stop-color="#83b9f9"/></linearGradient></defs><g transform="translate(-5.67 -5.674)"><title>Page-1</title><g transform="translate(5.67 -34.016)"><title>Intune Device Security.21244</title><title>bac6293a-af63-4cea-ac41-34ab61f</title><g transform="translate(0 -9.41)"><title>Sheet.21246</title><path d="M39.68 71.17c0 12.72-15.76 22.95-19.18 25.03a1.269 1.26 0 0 1-1.31 0C15.76 94.14 0 83.89 0 71.17V55.88a1.237 1.228 0 0 1 1.22-1.22c12.26-.32 9.44-5.56 18.62-5.56 9.19 0 6.37 5.24 18.63 5.56a1.237 1.228 0 0 1 1.21 1.22z" style="fill:#5ea0ef;stroke:none;stroke-width:.75;stroke-linecap:butt"/></g><g transform="translate(1.646 -11.371)"><title>Sheet.21247</title><path d="M36.39 73.26c0 11.66-14.45 21.05-17.59 22.95a1.161 1.153 0 0 1-1.2 0C14.45 94.32 0 84.92 0 73.26V59.25a1.132 1.124 0 0 1 1.12-1.12c11.24-.3 8.65-5.11 17.08-5.11 8.42 0 5.83 4.81 17.06 5.1a1.132 1.124 0 0 1 1.12 1.12z" style="fill:url(#a);stroke:none;stroke-width:.75;stroke-linecap:butt"/></g><g transform="translate(18.012)"><title>Sheet.21248</title><path d="M1.23 66.87h36.22a1.17 1.162 0 0 1 1.23 1.09v27.33a1.17 1.162 0 0 1-1.23 1.09H1.23A1.17 1.162 0 0 1 0 95.29V67.96a1.174 1.165 0 0 1 1.23-1.09" style="fill:#83b9f9;stroke:none;stroke-width:.75;stroke-linecap:butt"/></g><g transform="translate(18.012 -24.362)"><title>Sheet.21249</title><path d="M1.16 91.23h36.36a1.104 1.096 0 0 1 1.16 1.03v4.12H0v-4.12a1.107 1.1 0 0 1 1.16-1.03" style="fill:#fff;fill-opacity:.7;stroke:none;stroke-width:.75;stroke-linecap:butt"/></g><g transform="translate(26.599 -11.235)"><title>Sheet.21250</title><path d="M24.83 93.98H.95c-.53 0-.95.24-.95.54v1.32c0 .3.43.54.95.54h23.88c.53 0 .95-.24.95-.54v-1.32c.01-.3-.42-.54-.95-.54" style="fill:#fff;fill-opacity:.7;stroke:none;stroke-width:.75;stroke-linecap:butt"/></g><g transform="translate(26.599 -17.263)"><title>Sheet.21251</title><path d="M24.83 93.98H.95c-.53 0-.95.24-.95.54v1.32c0 .3.43.54.95.54h23.88c.53 0 .95-.24.95-.54v-1.32c.01-.3-.42-.54-.95-.54" style="fill:#fff;fill-opacity:.7;stroke:none;stroke-width:.75;stroke-linecap:butt"/></g><g transform="translate(26.472 -2.894)"><title>Sheet.21252</title><path d="M26.49 93.83H1.03c-.57 0-1.03.26-1.03.57v1.41c0 .31.46.57 1.03.57h25.46c.57 0 1.03-.26 1.03-.57V94.4c0-.31-.46-.57-1.03-.57" style="fill:#fff;fill-opacity:.7;stroke:none;stroke-width:.75;stroke-linecap:butt"/></g><g transform="translate(21.05 -16.891)"><title>Sheet.21253</title><ellipse cx="1.58" cy="94.809" rx="1.58" ry="1.569" style="fill:#fff;fill-opacity:.7;stroke:none;stroke-width:.75;stroke-linecap:butt"/></g><g transform="translate(21.05 -10.863)"><title>Sheet.21254</title><ellipse cx="1.58" cy="94.809" rx="1.58" ry="1.569" style="fill:#fff;fill-opacity:.7;stroke:none;stroke-width:.75;stroke-linecap:butt"/></g><g transform="translate(20.565 -2.491)"><title>Sheet.21255</title><ellipse cx="1.684" cy="94.705" rx="1.684" ry="1.672" style="fill:#fff;fill-opacity:.7;stroke:none;stroke-width:.75;stroke-linecap:butt"/></g></g></g></svg>