<svg xmlns="http://www.w3.org/2000/svg" xml:space="preserve" width="52.92" height="75.587" style="font-size:12px;overflow:visible;color-interpolation-filters:sRGB;fill-rule:evenodd;stroke-linecap:square;stroke-miterlimit:3" viewBox="0 0 39.69 56.69"><g transform="translate(-15.964 -15.964)"><title>Page-1</title><g transform="translate(15.964 -34.016)"><title>Mobile Application.21175</title><title>layer1</title><title>path2</title><path d="M39.69 103.27a3.456 3.402 0 0 1-3.46 3.4H3.46a3.456 3.402 0 0 1-3.46-3.4V53.38a3.456 3.402 0 0 1 3.46-3.4h32.77a3.456 3.402 0 0 1 3.46 3.4z" style="fill:#3e3e3e;stroke:none;stroke-width:15.96430016;stroke-linecap:butt"/><g transform="translate(2.562 -11.087)"><title>path4</title><path d="M0 66.736h34.564v39.937H0z" style="fill:#59b4d9;stroke:none;stroke-width:15.96430016;stroke-linecap:butt"/></g><g transform="translate(16.514 -2.206)"><title>path6</title><path d="M6.66 103.33a3.33 3.277 0 1 1-6.66 0 3.33 3.277 0 0 1 6.66 0" style="fill:#fff;stroke:none;stroke-width:15.96430016;stroke-linecap:butt"/></g><g transform="translate(17.659 -3.394)"><title>path8</title><path d="M4.37 104.52a2.185 2.15 0 1 1-4.37 0 2.185 2.15 0 0 1 4.37 0" style="fill:#b8d432;stroke:none;stroke-width:15.96430016;stroke-linecap:butt"/></g><title>path10</title><path d="M2.56 95.59V55.65h26.23l2.34-5.67H3.46A3.456 3.402-180 0 0 0 53.38v49.89a3.456 3.402-180 0 0 3.46 3.4h4.25l4.58-11.08z" style="fill:#fff;fill-opacity:.15;stroke:none;stroke-width:15.96430016;stroke-linecap:butt"/><g transform="translate(13.925 -52.662)"><title>path12</title><path d="M11.81 105.84c0 .46-.38.83-.85.83H.88a.851.838 0 1 1 0-1.675l10.08.005c.47 0 .85.37.85.84" style="fill:#1e1e1e;stroke:none;stroke-width:15.96430016;stroke-linecap:butt"/></g><g transform="translate(9.425 -32.529)"><title>path14</title><path d="M16.31 85.7c0 .47-.38.84-.85.84H5.38a.851.838 0 1 1 0-1.675l10.08.005c.47 0 .85.37.85.83m-5.86 20.97a.32.315 0 0 1-.155-.043L.15 100.87a.308.303 0 0 1 0-.523l10.08-5.727a.309.304 0 0 1 .303 0l10.147 5.76a.304.3 0 0 1 .151.261.302.297 0 0 1-.151.261l-10.07 5.728a.311.306 0 0 1-.155.043z" style="fill:#fff"/><path d="M16.31 85.7c0 .47-.38.84-.85.84H5.38a.851.838 0 1 1 0-1.675l10.08.005c.47 0 .85.37.85.83m-5.86 20.97a.32.315 0 0 1-.155-.043L.15 100.87a.308.303 0 0 1 0-.523l10.08-5.727a.309.304 0 0 1 .303 0l10.147 5.76a.304.3 0 0 1 .151.261.302.297 0 0 1-.151.261l-10.07 5.728a.311.306 0 0 1-.155.043" style="stroke:none;stroke-width:15.96430016;stroke-linecap:butt"/></g><g transform="translate(7.994 -18.524)"><title>path16</title><path d="M10.42 106.67a.29.285 0 0 1-.155-.043L.16 100.89a.3.295 0 0 1-.157-.262L0 89.1c0-.11.06-.21.16-.26a.303.298 0 0 1 .309 0l10.111 5.74a.323.317 0 0 1 .15.264v11.526a.313.308 0 0 1-.15.262.323.317 0 0 1-.153.043z" style="fill:#fff;fill-opacity:.7"/><path d="M10.42 106.67a.29.285 0 0 1-.155-.043L.16 100.89a.3.295 0 0 1-.157-.262L0 89.1c0-.11.06-.21.16-.26a.303.298 0 0 1 .309 0l10.111 5.74a.323.317 0 0 1 .15.264v11.526a.313.308 0 0 1-.15.262.323.317 0 0 1-.153.043" style="stroke:none;stroke-width:15.96430016;stroke-linecap:butt"/></g><g transform="translate(20.974 -18.524)"><title>path18</title><path d="M.31 106.67a.33.325 0 0 1-.159-.043.311.306 0 0 1-.148-.262L0 94.91c0-.1.06-.2.15-.26l10.11-5.74a.3.295 0 0 1 .304 0 .303.298 0 0 1 .155.26l.001 11.45a.3.296 0 0 1-.155.262L.46 106.63a.272.268 0 0 1-.148.043z" style="fill:#fff;fill-opacity:.4"/><path d="M.31 106.67a.33.325 0 0 1-.159-.043.311.306 0 0 1-.148-.262L0 94.91c0-.1.06-.2.15-.26l10.11-5.74a.3.295 0 0 1 .304 0 .303.298 0 0 1 .155.26l.001 11.45a.3.296 0 0 1-.155.262L.46 106.63a.272.268 0 0 1-.148.043" style="stroke:none;stroke-width:15.96430016;stroke-linecap:butt"/></g></g></g></svg>