<svg xmlns="http://www.w3.org/2000/svg" xml:space="preserve" width="71.809" height="75.588" style="font-size:12px;overflow:visible;color-interpolation-filters:sRGB;fill-rule:evenodd;stroke-linecap:square;stroke-miterlimit:3" viewBox="0 0 53.857 56.691"><g transform="translate(-61.2 -61.199)"><title>Page-1</title><g transform="translate(61.2 -61.2)"><title>Mobility (MDM And MAM).21167</title><title>g16</title><g transform="translate(21.543 -39.572)"><title>circle4</title><ellipse cx="4.584" cy="174.557" rx="4.584" ry="4.535" style="fill:#57a300;stroke:none;stroke-width:61.20000076;stroke-linecap:butt"/></g><g transform="translate(21.887 -8.05)"><title>circle6</title><ellipse cx="4.584" cy="174.557" rx="4.584" ry="4.535" style="fill:#57a300;stroke:none;stroke-width:61.20000076;stroke-linecap:butt"/></g><g transform="translate(0 -10.318)"><title>path8</title><path d="M14.9 179.09h-2.18C5.73 179.09 0 173.42 0 166.51v-11c.11-6.58 5.73-12.25 12.61-12.59h3.43c1.15 0 2.07.91 2.07 2.04 0 1.14-.92 2.04-2.07 2.04h-3.32c-4.58.23-8.48 3.97-8.48 8.4v10.99c0 4.65 3.78 8.39 8.48 8.39h2.18c1.14 0 2.06.91 2.06 2.05 0 1.36-.92 2.26-2.06 2.26" style="fill:#59b4d9;stroke:none;stroke-width:61.20000076;stroke-linecap:butt"/></g><g transform="translate(34.607 -10.318)"><title>path10</title><path d="M6.53 179.09H2.06A2.056 2.034 0 0 1 0 177.05c0-1.13.92-2.04 2.06-2.04h4.47c4.7 0 8.48-3.74 8.48-8.39v-11c0-4.65-3.78-8.39-8.48-8.39H3.21a2.056 2.034 0 0 1-2.06-2.04c0-1.13.91-2.04 2.06-2.04h3.32c6.99 0 12.72 5.67 12.72 12.59v10.99c0 6.81-5.73 12.36-12.72 12.36" style="fill:#804998;stroke:none;stroke-width:61.20000076;stroke-linecap:butt"/></g><g transform="translate(16.36 -31.521)"><title>path12</title><path d="M9.54 179.09c-3.21 0-6.53-1.24-8.94-3.63a2.149 2.126 0 0 1 0-2.94 2.149 2.126 0 0 1 2.98 0 8.372 8.284-180 0 0 11.92 0 8.372 8.284-180 0 0 0-11.8 8.523 8.433-180 0 0-5.96-2.49c-2.29 0-4.36.91-5.96 2.49a2.149 2.126 0 0 1-2.98 0 2.149 2.126 0 0 1 0-2.94 12.34 12.21 0 0 1 8.94-3.86c3.44 0 6.53 1.36 8.94 3.63a12.799 12.664 0 0 1 0 17.8 12.218 12.09 0 0 1-8.94 3.74" style="fill:#68217a;stroke:none;stroke-width:61.20000076;stroke-linecap:butt"/></g><g transform="translate(13.723)"><title>path14</title><path d="M12.63 179.09c-3.44 0-6.53-1.36-8.94-3.63a12.799 12.664 0 0 1 0-17.8 12.57 12.437 0 0 1 8.94-3.63c3.44 0 6.53 1.37 8.94 3.63a2.149 2.126 0 0 1 0 2.95 2.149 2.126 0 0 1-2.98 0 8.523 8.433-180 0 0-5.96-2.49c-2.29 0-4.35.9-5.96 2.49a8.372 8.284-180 0 0 0 11.79 8.322 8.235-180 0 0 11.92 0 2.149 2.126 0 0 1 2.98 0 2.149 2.126 0 0 1 0 2.95c-2.29 2.38-5.5 3.74-8.94 3.74" style="fill:#0072c6;stroke:none;stroke-width:61.20000076;stroke-linecap:butt"/></g></g></g></svg>