<svg xmlns="http://www.w3.org/2000/svg" xml:space="preserve" width="75.593" height="64.27" style="font-size:12px;overflow:visible;color-interpolation-filters:sRGB;fill-rule:evenodd;stroke-linecap:square;stroke-miterlimit:3" viewBox="0 0 56.695 48.202"><defs><linearGradient id="a" x1="0" x2="47.74" y1="88.701" y2="88.701" gradientTransform="scale(1.18644 .84286)" gradientUnits="userSpaceOnUse"><stop offset="0" stop-color="#773adc"/><stop offset=".815" stop-color="#a67af4"/></linearGradient><linearGradient id="b" x1="-.004" x2="20.161" y1="112.186" y2="112.186" gradientTransform="scale(1.15098 .86882)" gradientUnits="userSpaceOnUse"><stop offset="0" stop-color="#c3f1ff"/><stop offset="1" stop-color="#9cebff"/></linearGradient><linearGradient id="c" x1="-.004" x2="17.382" y1="136.16" y2="136.16" gradientTransform="scale(1.3353 .7489)" gradientUnits="userSpaceOnUse"><stop offset="0" stop-color="#c3f1ff"/><stop offset="1" stop-color="#9cebff"/></linearGradient></defs><g transform="translate(-32.774 -32.772)"><title>Page-1</title><g transform="translate(32.774 -34.016)"><title>Universal Print Service.21157</title><title>afb37d11-6e90-4ac0-b9c9-249fa60</title><g transform="translate(0 -7.975)"><title>path19</title><path d="M56.64 102.39c0-2.58-3.76-3.43-5.21-5.41-1.99-2.74-2.2-6.24-5.84-6.84a16.035 16.066-180 0 0-16.52-15.37A16.457 16.489-180 0 0 13.35 85.5 15.187 15.217-180 0 0 0 100.15a15.411 15.441-180 0 0 15.95 14.84c.47 0 .94-.03 1.4-.06h25.83a2.554 2.56-180 0 0 .68-.1 12.879 12.904-180 0 0 12.78-12.44" style="fill:url(#a);stroke:none;stroke-width:32.7737999;stroke-linecap:butt"/></g><g transform="translate(24.139 -20.207)"><title>rect21</title><path d="M0 114.04a.945.947-180 0 0 .945.947l27.015.003a.945.947-180 0 0 .945-.947l.005-9.723a.945.947-180 0 0-.945-.947L.94 103.38a.945.947-180 0 0-.945.947z" style="fill:#005ba1;stroke:none;stroke-width:32.7737999;stroke-linecap:butt"/></g><g transform="translate(26.992 -21.582)"><title>rect23</title><path d="M0 114.04a.945.947-180 0 0 .945.947l21.315.003a.945.947-180 0 0 .945-.947L23.2 98.42a.945.947-180 0 0-.945-.947L.94 97.47a.945.947-180 0 0-.945.947z" style="fill:url(#b);stroke:none;stroke-width:32.7737999;stroke-linecap:butt"/></g><g transform="translate(20.494 -5.538)"><title>path25</title><path d="M1.89 93.84h32.42a1.89 1.893 0 0 1 1.89 1.9v19.25H0V95.74a1.89 1.893 0 0 1 1.89-1.9" style="fill:#5ea0ef;stroke:none;stroke-width:32.7737999;stroke-linecap:butt"/></g><g transform="translate(20.494 -4.803)"><title>rect27</title><path d="M0 111.767h36.198v3.219H0z" style="fill:#0078d4;stroke:none;stroke-width:32.7737999;stroke-linecap:butt"/></g><g transform="translate(25.187 -9.903)"><title>rect29</title><path d="M0 114.04a.945.947-180 0 0 .945.947l24.915.003a.945.947-180 0 0 .945-.947l-.005-1.873a.945.947-180 0 0-.945-.947L.94 111.22a.945.947-180 0 0-.945.947z" style="fill:#83b9f9;stroke:none;stroke-width:32.7737999;stroke-linecap:butt"/></g><g transform="translate(49.638 -19.78)"><title>circle31</title><ellipse cx=".898" cy="114.087" rx=".898" ry=".899" style="fill:#c3f1ff;stroke:none;stroke-width:32.7737999;stroke-linecap:butt"/></g><g transform="translate(26.989)"><title>path33</title><path d="M0 101.97h23.21v12.07a.945.947 0 0 1-.945.947L.94 114.99a.945.947 0 0 1-.945-.947z" style="fill:url(#c);stroke:none;stroke-width:32.7737999;stroke-linecap:butt"/></g></g></g></svg>