<svg xmlns="http://www.w3.org/2000/svg" viewBox="0 0 512 512"><path fill="none" d="M0 0h512v512H0z"/><path fill="#9aa0a6" d="M337.11 242.61a24 24 0 0 0-3.25-2.23q-1.05-.6-2.19-1.11l-116.14-67.92-.12-.06c-.71-.41-1.46-.77-2.23-1.06-10.06-3.86-17-.7-20.24 1.53-5.32 3.66-8.38 9.81-8.38 16.87v136.88c0 9.39 4.45 14.42 8.18 16.98 2.43 1.68 5.95 3.24 10.6 3.24 2.66 0 5.69-.51 9.1-1.82.77-.29 1.52-.65 2.23-1.06l116.3-66.74 2.17-1.25c3.958-2.365 7.42-4.98 9.36-8.65 1.36-2.57 2.1-5.45 2.1-8.5 0-5.89-2.75-11.26-7.49-15.1m-120.55 62.26v-95.84l82.71 48.37-.11.06z"/><path fill="#9aa0a6" d="M421.46 90.54C377.27 46.34 318.5 22 256 22S134.73 46.34 90.54 90.54C46.34 134.73 22 193.5 22 256s24.34 121.27 68.54 165.46C134.73 465.66 193.5 490 256 490s121.27-24.34 165.46-68.54C465.66 377.27 490 318.5 490 256s-24.34-121.27-68.54-165.46M256 458c-111.38 0-202-90.62-202-202S144.62 54 256 54s202 90.62 202 202-90.62 202-202 202"/><path fill="#4285f4" d="M490 256h-32c0-111.383-90.617-202-202-202V22c62.504 0 121.267 24.34 165.463 68.537C465.66 134.733 490 193.496 490 256M256 490c-62.504 0-121.267-24.34-165.463-68.537C46.34 377.267 22 318.504 22 256h32c0 111.383 90.617 202 202 202zm88.6-232.29c0 3.05-.74 5.93-2.1 8.5-1.94 3.67-5.304 6.262-9.36 8.65l-2.17 1.25-31.81-18.65-82.6-48.41-32-18.76v-1.66c0-7.06 3.06-13.21 8.38-16.87 3.24-2.23 10.18-5.39 20.24-1.53.77.29 1.52.65 2.23 1.06l.12.06 118.33 69.03c1.17.67 2.26 1.42 3.25 2.23 4.74 3.84 7.49 9.21 7.49 15.1"/></svg>