<svg xmlns="http://www.w3.org/2000/svg" xml:space="preserve" width="56.69" height="56.69" style="font-size:12px;overflow:visible;color-interpolation-filters:sRGB;fill-rule:evenodd;stroke-linecap:square;stroke-miterlimit:3" viewBox="0 0 56.69 56.69"><defs><linearGradient id="a" x1="0" x2="56.69" y1="39.69" y2="39.69" gradientUnits="userSpaceOnUse"><stop offset="0" stop-color="#0078d4"/><stop offset="1" stop-color="#2064ae"/></linearGradient><linearGradient id="b" x1="0" x2="47.91" y1="33.543" y2="33.543" gradientTransform="scale(.84512 1.18326)" gradientUnits="userSpaceOnUse"><stop offset="0" stop-color="#7cecff"/><stop offset="1" stop-color="#50e6ff"/></linearGradient><linearGradient id="c" x1="0" x2="24.297" y1="72.081" y2="72.081" gradientUnits="userSpaceOnUse"><stop offset="0" stop-color="#40c4f5"/><stop offset="1" stop-color="#0095e6"/></linearGradient></defs><g transform="translate(-5.67 -5.674)"><title>Page-1</title><g transform="translate(5.67 -34.016)"><title>Application Talent Onboard.22472</title><title>Sheet.22473</title><title>Sheet.22474</title><path d="M56.69 42.38c0-1.49-1.21-2.69-2.7-2.69h-10.8c-1.49 0-2.7 1.2-2.7 2.69v25.65c0 6.71-5.43 12.15-12.14 12.15-6.69 0-12.11-5.4-12.15-12.08v25.54c3.76 1.79 7.9 2.74 12.15 2.74 7.51 0 14.72-2.99 20.04-8.3 5.16-5.16 8.12-12.1 8.29-19.37h.01v-.68ZM0 68.13v-.1z" style="fill:url(#a);stroke:none;stroke-width:.75;stroke-linecap:butt"/><title>Sheet.22475</title><path d="M40.49 42.42v25.61H16.2v25.89c0 1.36-1.1 2.46-2.46 2.46H2.7c-1.49 0-2.7-1.21-2.7-2.7V67.36h.01a28.335 28.335 0 0 1 28.34-27.67c4.24 0 8.38.95 12.14 2.73" style="fill:url(#b);stroke:none;stroke-width:.75;stroke-linecap:butt"/><g transform="translate(16.198 -14.848)"><title>Sheet.22476</title><circle cx="12.149" cy="84.23" r="12.149" style="fill:#000;fill-opacity:.31999996;stroke:none;stroke-width:.75;stroke-linecap:butt"/></g><g transform="translate(16.198 -15.942)"><title>Sheet.22477</title><circle cx="12.149" cy="84.23" r="12.149" style="fill:#000;fill-opacity:.23999999;stroke:none;stroke-width:.75;stroke-linecap:butt"/></g><g transform="translate(16.198 -16.198)"><title>Sheet.22478</title><circle cx="12.149" cy="84.23" r="12.149" style="fill:url(#c);stroke:none;stroke-width:.75;stroke-linecap:butt"/></g></g></g></svg>