<svg xmlns="http://www.w3.org/2000/svg" xml:space="preserve" width="50.276" height="47.819" style="font-size:12px;overflow:visible;color-interpolation-filters:sRGB;fill-rule:evenodd;stroke-linecap:square;stroke-miterlimit:3" viewBox="0 0 50.276 47.819"><defs><linearGradient id="a" x1="0" x2="20.887" y1="36.787" y2="36.787" gradientTransform="scale(.65353 1.53016)" gradientUnits="userSpaceOnUse"><stop offset="0" stop-color="#2a6980"/><stop offset="1" stop-color="#0b3239"/></linearGradient><linearGradient id="b" x1="0" x2="37.838" y1="40.528" y2="40.528" gradientTransform="scale(.888 1.12612)" gradientUnits="userSpaceOnUse"><stop offset="0" stop-color="#007991"/><stop offset="1" stop-color="#36a0b5"/></linearGradient><linearGradient id="c" x1="6.779" x2="39.976" y1="50.011" y2="50.011" gradientTransform="scale(.94682 1.05616)" gradientUnits="userSpaceOnUse"><stop offset="0" stop-color="#8aecff"/><stop offset="1" stop-color="#caf7ff"/></linearGradient></defs><g transform="translate(-12.088 -6.046)"><title>Page-1</title><g transform="translate(5.67 -34.016)"><title>Application Return To Work.22536</title><title>g113</title><title>g111</title><g transform="translate(43.045 -5.574)"><title>path75</title><path d="M13.65 60.55 0 56.29v31.96h13.65z" style="fill:url(#a);stroke:none;stroke-width:6.04606009;stroke-linecap:butt"/></g><g transform="translate(9.449 -5.36)"><title>path79</title><path d="M0 45.64h33.6v42.61H15.75C7.05 88.25 0 81.1 0 72.27Z" style="fill:#000;fill-opacity:.23999999;stroke:none;stroke-width:6.04606009;stroke-linecap:butt"/></g><g transform="translate(9.449 -4.508)"><title>path83</title><path d="M0 45.64h33.6v42.61H15.75C7.05 88.25 0 81.1 0 72.27Z" style="fill:#000;fill-opacity:.31999996;stroke:none;stroke-width:6.04606009;stroke-linecap:butt"/></g><g transform="translate(9.449 -5.574)"><title>path87</title><path d="M0 45.64h33.6v42.61H15.75C7.05 88.25 0 81.1 0 72.27Z" style="fill:url(#b);stroke:none;stroke-width:6.04606009;stroke-linecap:butt"/></g><g transform="translate(0 -.852)"><title>path89</title><path d="M26.25 83.74C14.7 83.74 0 83.72 9.43 52.82c0 13.08 5.27 14.92 16.82 14.92v-3.09c0-.98 1.18-1.44 1.83-.72l9.23 10.37c.72.81.72 2.05 0 2.86l-9.23 10.37c-.65.72-1.83.26-1.83-.72z" style="fill:#000;fill-opacity:.23999999;stroke:none;stroke-width:6.04606009;stroke-linecap:butt"/></g><title>path93</title><path d="M26.25 83.74C14.7 83.74 0 83.72 9.43 52.82c0 13.08 5.27 14.92 16.82 14.92v-3.09c0-.98 1.18-1.44 1.83-.72l9.23 10.37c.72.81.72 2.05 0 2.86l-9.23 10.37c-.65.72-1.83.26-1.83-.72z" style="fill:#000;fill-opacity:.31999996;stroke:none;stroke-width:6.04606009;stroke-linecap:butt"/><g transform="translate(0 -1.065)"><title>path97</title><path d="M26.25 83.74C14.7 83.74 0 83.72 9.43 52.82c0 13.08 5.27 14.92 16.82 14.92v-3.09c0-.98 1.18-1.44 1.83-.72l9.23 10.37c.72.81.72 2.05 0 2.86l-9.23 10.37c-.65.72-1.83.26-1.83-.72z" style="fill:url(#c);stroke:none;stroke-width:6.04606009;stroke-linecap:butt"/></g><g transform="translate(34.646 -37.535)"><title>rect99</title><path d="M0 77.597h8.399v10.654H0z" style="fill:#61e4fe;stroke:none;stroke-width:6.04606009;stroke-linecap:butt"/></g><g transform="translate(26.247 -37.535)"><title>rect101</title><path d="M0 77.597h8.399v10.654H0z" style="fill:#49d1e9;stroke:none;stroke-width:6.04606009;stroke-linecap:butt"/></g><g transform="translate(34.646 -26.881)"><title>path103</title><path d="M0 77.597h8.399v10.654H0z" style="fill:#2fbed7;stroke:none;stroke-width:6.04606009;stroke-linecap:butt"/></g><g transform="translate(17.848 -37.535)"><title>path105</title><path d="M0 77.597h8.399v10.654H0z" style="fill:#2fbed7;stroke:none;stroke-width:6.04606009;stroke-linecap:butt"/></g><g transform="translate(26.247 -26.881)"><title>path107</title><path d="M0 77.6h8.4v10.65H2.1c-1.16 0-2.1-.95-2.1-2.13Z" style="fill:#26acc6;stroke:none;stroke-width:6.04606009;stroke-linecap:butt"/></g><g transform="translate(9.449 -37.535)"><title>path109</title><path d="M0 77.597h8.399v10.654H0z" style="fill:#26acc6;stroke:none;stroke-width:6.04606009;stroke-linecap:butt"/></g></g></g></svg>