<svg xmlns="http://www.w3.org/2000/svg" xml:space="preserve" width="53.727" height="56.699" style="font-size:12px;overflow:visible;color-interpolation-filters:sRGB;fill-rule:evenodd;stroke-linecap:square;stroke-miterlimit:3" viewBox="0 0 53.727 56.699"><defs><linearGradient id="a" x1="0" x2="47.172" y1="34.923" y2="34.923" gradientTransform="scale(.85178 1.174)" gradientUnits="userSpaceOnUse"><stop offset="0" stop-color="#922717"/><stop offset="1" stop-color="#d83b01"/></linearGradient><linearGradient id="b" x1="0" x2="47.172" y1="34.923" y2="34.923" gradientTransform="scale(.85178 1.174)" gradientUnits="userSpaceOnUse"><stop offset="0" stop-color="#f69b63"/><stop offset="1" stop-color="#d83b01"/></linearGradient><linearGradient id="c" x1="0" x2="38.407" y1="28.434" y2="28.434" gradientTransform="scale(.69352 1.44192)" gradientUnits="userSpaceOnUse"><stop offset="0" stop-color="#f69b63"/><stop offset="1" stop-color="#ffb685"/></linearGradient></defs><g transform="translate(-5.386 -5.665)"><title>Page-1</title><g transform="translate(5.386 -34.016)"><title>Application Project Operations.22581</title><title>Sheet.22582</title><title>Sheet.22583</title><g transform="translate(13.546 -1.319)"><title>Sheet.22584</title><path d="M0 43.65C0 42.19 1.15 41 2.57 41h19.87c.89 0 1.71.48 2.18 1.25l15.17 25.04c.52.86.52 1.94 0 2.8L24.68 95.13c-.47.77-1.29 1.25-2.18 1.25H2.57C1.15 96.38 0 95.19 0 93.73Z" style="fill:url(#a);stroke:none;stroke-width:.75;stroke-linecap:butt"/></g><g transform="translate(0 -1.068)"><title>Sheet.22585</title><path d="M0 43.65C0 42.19 1.15 41 2.57 41h21.3l15.92 26.29c.52.86.52 1.94 0 2.8L23.93 96.38H2.57C1.15 96.38 0 95.19 0 93.73Z" style="fill:#000;fill-opacity:.23999999;stroke:none;stroke-width:.75;stroke-linecap:butt"/></g><title>Sheet.22586</title><path d="M0 43.65C0 42.19 1.15 41 2.57 41h21.3l15.92 26.29c.52.86.52 1.94 0 2.8L23.93 96.38H2.57C1.15 96.38 0 95.19 0 93.73Z" style="fill:#000;fill-opacity:.31999996;stroke:none;stroke-width:.75;stroke-linecap:butt"/><g transform="translate(0 -1.319)"><title>Sheet.22587</title><path d="M0 43.65C0 42.19 1.15 41 2.57 41h21.3l15.92 26.29c.52.86.52 1.94 0 2.8L23.93 96.38H2.57C1.15 96.38 0 95.19 0 93.73Z" style="fill:url(#b);stroke:none;stroke-width:.75;stroke-linecap:butt"/></g><title>Sheet.22588</title><path d="M0 43.65C0 42.19 1.15 41 2.57 41h7.75l15.93 26.29c.51.86.52 1.94 0 2.8L10.38 96.38H2.57C1.15 96.38 0 95.19 0 93.73Z" style="fill:#000;fill-opacity:.31999996;stroke:none;stroke-width:.75;stroke-linecap:butt"/><g transform="translate(0 -1.068)"><title>Sheet.22589</title><path d="M0 43.65C0 42.19 1.15 41 2.57 41h7.75l15.93 26.29c.51.86.52 1.94 0 2.8L10.38 96.38H2.57C1.15 96.38 0 95.19 0 93.73Z" style="fill:#000;fill-opacity:.23999999;stroke:none;stroke-width:.75;stroke-linecap:butt"/></g><g transform="translate(0 -1.319)"><title>Sheet.22590</title><path d="M0 43.65C0 42.19 1.15 41 2.57 41h7.75l15.93 26.29c.51.86.52 1.94 0 2.8L10.38 96.38H2.57C1.15 96.38 0 95.19 0 93.73Z" style="fill:url(#c);stroke:none;stroke-width:.75;stroke-linecap:butt"/></g></g></g></svg>