<svg xmlns="http://www.w3.org/2000/svg" xml:space="preserve" width="56.697" height="53.854" style="font-size:12px;overflow:visible;color-interpolation-filters:sRGB;fill-rule:evenodd;stroke-linecap:square;stroke-miterlimit:3" viewBox="0 0 56.697 53.854"><defs><linearGradient id="a" x1="0" x2="27.701" y1="79.509" y2="79.509" gradientTransform="scale(1.13715 .8794)" gradientUnits="userSpaceOnUse"><stop offset="0" stop-color="#d83b01"/><stop offset="1" stop-color="#ed7e43"/></linearGradient><linearGradient id="b" x1="0" x2="27.701" y1="79.509" y2="79.509" gradientTransform="scale(1.13715 .8794)" gradientUnits="userSpaceOnUse"><stop offset=".005" stop-color="#922717"/><stop offset="1" stop-color="#d83b01"/></linearGradient><linearGradient id="c" x1="0" x2="29.126" y1="72.841" y2="72.841" gradientTransform="scale(1.08153 .92462)" gradientUnits="userSpaceOnUse"><stop offset="0" stop-color="#ffc8a3"/><stop offset="1" stop-color="#f8b48a"/></linearGradient></defs><g transform="translate(-6.41 -6.41)"><title>Page-1</title><g transform="translate(6.41 -34.016)"><title>Application Project Service Automation.22574</title><title>g19</title><g transform="translate(0 -29.494)"><title>path5</title><path d="M0 72.48c0-1.41 1.13-2.56 2.52-2.56h26.46c1.39 0 2.52 1.15 2.52 2.56v19.24c0 1.42-1.13 2.56-2.52 2.56H2.52C1.13 94.28 0 93.14 0 91.72Z" style="fill:url(#a);stroke:none;stroke-width:6.40990019;stroke-linecap:butt"/></g><title>path7</title><path d="M0 91.72c0 1.42 1.13 2.56 2.52 2.56h26.46c1.39 0 2.52-1.14 2.52-2.56V72.48c0-1.41-1.13-2.56-2.52-2.56H2.52C1.13 69.92 0 71.07 0 72.48Z" style="fill:url(#b);stroke:none;stroke-width:6.40990019;stroke-linecap:butt"/><g transform="translate(25.197 -12.182)"><title>rect9</title><path d="M0 91.72a2.52 2.565-180 0 0 2.52 2.56h26.46a2.52 2.565-180 0 0 2.52-2.56v-21.8a2.52 2.565-180 0 0-2.52-2.57H2.52A2.52 2.565-180 0 0 0 69.92Z" style="fill:#000;fill-opacity:.31999996;stroke:none;stroke-width:6.40990019;stroke-linecap:butt"/></g><g transform="translate(25.197 -13.22)"><title>rect13</title><path d="M0 91.72a2.52 2.565-180 0 0 2.52 2.56h26.46a2.52 2.565-180 0 0 2.52-2.56v-21.8a2.52 2.565-180 0 0-2.52-2.57H2.52A2.52 2.565-180 0 0 0 69.92Z" style="fill:#000;fill-opacity:.23999999;stroke:none;stroke-width:6.40990019;stroke-linecap:butt"/></g><g transform="translate(25.197 -13.465)"><title>rect17</title><path d="M0 91.72a2.52 2.565-180 0 0 2.52 2.56h26.46a2.52 2.565-180 0 0 2.52-2.56v-21.8a2.52 2.565-180 0 0-2.52-2.57H2.52A2.52 2.565-180 0 0 0 69.92Z" style="fill:url(#c);stroke:none;stroke-width:6.40990019;stroke-linecap:butt"/></g></g></g></svg>