<svg xmlns="http://www.w3.org/2000/svg" xml:space="preserve" width="56.693" height="56.696" style="font-size:12px;overflow:visible;color-interpolation-filters:sRGB;fill-rule:evenodd;stroke-linecap:square;stroke-miterlimit:3" viewBox="0 0 56.693 56.696"><defs><linearGradient id="a" x1="0" x2="33.421" y1="61.948" y2="61.948" gradientTransform="scale(.98953 1.01058)" gradientUnits="userSpaceOnUse"><stop offset="0" stop-color="#ffdac2"/><stop offset="1" stop-color="#f69b63"/></linearGradient></defs><g transform="translate(-5.67 -5.666)"><title>Page-1</title><g transform="translate(5.67 -34.016)"><title>Application Project Timesheet.22563</title><title>Sheet.22564</title><g transform="translate(21.26 -42.218)"><title>Sheet.22565</title><path d="M0 81.9h35.43v14.48H0Z" style="fill:#f9894e;stroke:none;stroke-width:.75;stroke-linecap:butt"/></g><g transform="translate(0 -42.218)"><title>Sheet.22566</title><path d="M35.43 81.9H0v14.48h35.43z" style="fill:#e9672d;stroke:none;stroke-width:.75;stroke-linecap:butt"/></g><g transform="translate(0 -27.743)"><title>Sheet.22567</title><path d="M0 81.903h56.693v14.475H0z" style="fill:#b6311d;stroke:none;stroke-width:.75;stroke-linecap:butt"/></g><g transform="translate(0 -13.269)"><title>Sheet.22568</title><path d="M0 81.9h56.69v14.48H0Z" style="fill:#912c26;stroke:none;stroke-width:.75;stroke-linecap:butt"/></g><g transform="translate(18.898 -27.743)"><title>Sheet.22569</title><path d="M0 81.903h37.795v14.475H0z" style="fill:#d83b01;stroke:none;stroke-width:.75;stroke-linecap:butt"/></g><g transform="translate(18.898 -.965)"><title>Sheet.22570</title><ellipse cx="16.535" cy="79.491" rx="16.535" ry="16.887" style="fill:#000;fill-opacity:.23999999;stroke:none;stroke-width:.75;stroke-linecap:butt"/></g><g transform="translate(18.898)"><title>Sheet.22571</title><ellipse cx="16.535" cy="79.491" rx="16.535" ry="16.887" style="fill:#000;fill-opacity:.31999996;stroke:none;stroke-width:.75;stroke-linecap:butt"/></g><g transform="translate(18.898 -1.206)"><title>Sheet.22572</title><ellipse cx="16.535" cy="79.491" rx="16.535" ry="16.887" style="fill:url(#a);stroke:none;stroke-width:.75;stroke-linecap:butt"/></g><g transform="translate(33.07 -15.681)"><title>Sheet.22573</title><path d="M3.54 81.9c.66 0 1.18.54 1.18 1.21v8.44h5.91c.65 0 1.18.54 1.18 1.21v2.41c0 .67-.53 1.21-1.18 1.21H2.36C1.06 96.38 0 95.3 0 93.97V83.11c0-.67.53-1.21 1.18-1.21Z" style="fill:#d83b01;stroke:none;stroke-width:.75;stroke-linecap:butt"/></g></g></g></svg>