<svg xmlns="http://www.w3.org/2000/svg" xmlns:xlink="http://www.w3.org/1999/xlink" xml:space="preserve" width="53.86" height="56.697" style="font-size:12px;overflow:visible;color-interpolation-filters:sRGB;fill-rule:evenodd;stroke-linecap:square;stroke-miterlimit:3" viewBox="0 0 53.86 56.697"><defs><linearGradient id="a" x1="0" x2="1" y1="0" y2="0" gradientTransform="rotate(-101.671 .5 .5)"><stop offset="0" stop-color="#6b2929"/><stop offset="1" stop-color="#b6311d"/></linearGradient><linearGradient id="d" x1="0" x2="44.659" y1="32.839" y2="32.839" gradientTransform="scale(.80409 1.24364)" gradientUnits="userSpaceOnUse"><stop offset="0" stop-color="#d83b01"/><stop offset="1" stop-color="#ed7e43"/></linearGradient><linearGradient id="e" x1="0" x2="44.659" y1="71.578" y2="71.578" gradientTransform="scale(1.20602 .82917)" gradientUnits="userSpaceOnUse"><stop offset="0" stop-color="#f8b48a"/><stop offset="1" stop-color="#ed7e43"/></linearGradient><linearGradient xlink:href="#a" id="b" x1="0" x2="18.228" y1="76.683" y2="76.683" gradientTransform="scale(.98476 1.01548)" gradientUnits="userSpaceOnUse"/><linearGradient xlink:href="#a" id="c" x1="0" x2="18.228" y1="76.683" y2="76.683" gradientTransform="scale(.98476 1.01548)" gradientUnits="userSpaceOnUse"/></defs><g transform="translate(-5.386 -5.667)"><title>Page-1</title><g transform="translate(5.386 -34.016)"><title>Application Intelligent Order Management.22621</title><title>Sheet.22622</title><g transform="translate(35.906 -38.18)"><title>Sheet.22623</title><path d="M17.95 77.87H0v18.51h17.95z" style="fill:url(#b);stroke:none;stroke-width:.75;stroke-linecap:butt"/></g><g transform="translate(0 -1.157)"><title>Sheet.22624</title><path d="M17.95 77.87H0v18.51h17.95z" style="fill:url(#c);stroke:none;stroke-width:.75;stroke-linecap:butt"/></g><g transform="translate(8.976 -.926)"><title>Sheet.22625</title><path d="M26.93 96.38V50.1c0-5.11 4.02-9.26 8.98-9.26H8.98v46.28c0 5.11-4.02 9.26-8.98 9.26z" style="fill:#000;fill-opacity:.23999999;stroke:none;stroke-width:.75;stroke-linecap:butt"/></g><g transform="translate(8.976)"><title>Sheet.22626</title><path d="M26.93 96.38V50.1c0-5.11 4.02-9.26 8.98-9.26H8.98v46.28c0 5.11-4.02 9.26-8.98 9.26z" style="fill:#000;fill-opacity:.31999996;stroke:none;stroke-width:.75;stroke-linecap:butt"/></g><g transform="translate(8.976 -1.157)"><title>Sheet.22627</title><path d="M26.93 96.38V50.1c0-5.11 4.02-9.26 8.98-9.26H8.98v46.28c0 5.11-4.02 9.26-8.98 9.26z" style="fill:url(#d);stroke:none;stroke-width:.75;stroke-linecap:butt"/></g><g transform="translate(0 -10.182)"><title>Sheet.22628</title><path d="M0 68.61h44.88c4.96 0 8.98-4.14 8.98-9.26v27.77H8.98C4.02 87.12 0 91.27 0 96.38Z" style="fill:#000;fill-opacity:.23999999;stroke:none;stroke-width:.75;stroke-linecap:butt"/></g><g transform="translate(0 -9.256)"><title>Sheet.22629</title><path d="M0 68.61h44.88c4.96 0 8.98-4.14 8.98-9.26v27.77H8.98C4.02 87.12 0 91.27 0 96.38Z" style="fill:#000;fill-opacity:.31999996;stroke:none;stroke-width:.75;stroke-linecap:butt"/></g><g transform="translate(0 -10.413)"><title>Sheet.22630</title><path d="M0 68.61h44.88c4.96 0 8.98-4.14 8.98-9.26v27.77H8.98C4.02 87.12 0 91.27 0 96.38Z" style="fill:url(#e);stroke:none;stroke-width:.75;stroke-linecap:butt"/></g></g></g></svg>