<svg xmlns="http://www.w3.org/2000/svg" xml:space="preserve" width="56.204" height="53.858" style="font-size:12px;overflow:visible;color-interpolation-filters:sRGB;fill-rule:evenodd;stroke-linecap:square;stroke-miterlimit:3" viewBox="0 0 56.204 53.858"><defs><linearGradient id="a" x1=".203" x2="47.184" y1="64.59" y2="64.59" gradientTransform="scale(1.19634 .83589)" gradientUnits="userSpaceOnUse"><stop offset="0" stop-color="#d3f9ff"/><stop offset="1" stop-color="#80e5fc"/></linearGradient><linearGradient id="b" x1="0" x2="34.466" y1="80.126" y2="80.126" gradientTransform="scale(1.22874 .81384)" gradientUnits="userSpaceOnUse"><stop offset="0" stop-color="#7cecff"/><stop offset="1" stop-color="#00b1f2"/></linearGradient></defs><g transform="translate(-5.913 -5.386)"><title>Page-1</title><g transform="translate(5.67 -34.016)"><title>Application SCM Warehousing.22505</title><title>Sheet.22506</title><title>Sheet.22507</title><g transform="translate(42.461 -25.807)"><title>Sheet.22508</title><path d="M7.06 67.45c0-1.24-1.06-2.24-2.35-2.24H0v25.81c0 1.24 1.05 2.24 2.35 2.24h2.36c1.29 0 2.35-1 2.35-2.24z" style="fill:#0fb1f1;stroke:none;stroke-width:.75;stroke-linecap:butt"/></g><g transform="translate(7.17 -25.807)"><title>Sheet.22509</title><path d="M0 67.45c0-1.24 1.05-2.24 2.35-2.24h4.71v25.81c0 1.24-1.06 2.24-2.35 2.24H2.35c-1.3 0-2.35-1-2.35-2.24Z" style="fill:#27518a;stroke:none;stroke-width:.75;stroke-linecap:butt"/></g><g transform="matrix(-1 0 0 1 42.461 -31.417)"><title>Sheet.22510</title><path d="M0 70.819h7.058V93.26H0z" style="fill:#0095e6;stroke:none;stroke-width:.75;stroke-linecap:butt"/></g><g transform="matrix(-1 0 0 1 25.992 -31.417)"><title>Sheet.22511</title><path d="M0 70.819h5.882V93.26H0z" style="fill:#2064ae;stroke:none;stroke-width:.75;stroke-linecap:butt"/></g><g transform="matrix(-1 0 0 1 35.403 -31.417)"><title>Sheet.22512</title><path d="M0 70.819h9.411V93.26H0z" style="fill:#0078d4;stroke:none;stroke-width:.75;stroke-linecap:butt"/></g><g transform="matrix(-1 0 0 1 20.11 -31.417)"><title>Sheet.22513</title><path d="M0 70.819h5.882V93.26H0z" style="fill:#0078d4;stroke:none;stroke-width:.75;stroke-linecap:butt"/></g><g transform="translate(0 -1.122)"><title>Sheet.22514</title><path d="M.64 66.51c-.64-.91-.5-2.14.38-2.85 7.69-6.23 17.82-9.67 27.91-9.67 10.1 0 19.19 3.43 26.75 9.66.87.72 1.01 1.95.37 2.86l-18.1 25.64c-.49.69-1.31 1.11-2.19 1.11H20.77c-.78 0-1.51-.37-1.95-.99z" style="fill:#000;fill-opacity:.31999996;stroke:none;stroke-width:.75;stroke-linecap:butt"/></g><g transform="translate(0 -.213)"><title>Sheet.22515</title><path d="M.64 66.51c-.64-.91-.5-2.14.38-2.85 7.69-6.23 17.82-9.67 27.91-9.67 10.1 0 19.19 3.43 26.75 9.66.87.72 1.01 1.95.37 2.86l-18.1 25.64c-.49.69-1.31 1.11-2.19 1.11H20.77c-.78 0-1.51-.37-1.95-.99z" style="fill:#000;fill-opacity:.23999999;stroke:none;stroke-width:.75;stroke-linecap:butt"/></g><title>Sheet.22516</title><path d="M.64 66.51c-.64-.91-.5-2.14.38-2.85 7.69-6.23 17.82-9.67 27.91-9.67 10.1 0 19.19 3.43 26.75 9.66.87.72 1.01 1.95.37 2.86l-18.1 25.64c-.49.69-1.31 1.11-2.19 1.11H20.77c-.78 0-1.51-.37-1.95-.99z" style="fill:url(#a);stroke:none;stroke-width:.75;stroke-linecap:butt"/><g transform="translate(7.17 -22.44)"><title>Sheet.22517</title><path d="M2.35 65.21c-1.3 0-2.35 1-2.35 2.24v23.57c0 1.24 1.05 2.24 2.35 2.24h2.36c1.29 0 2.35-1 2.35-2.24v-3.37h28.23v3.37c0 1.24 1.05 2.24 2.35 2.24H40c1.3 0 2.35-1 2.35-2.24V67.45c0-1.24-1.05-2.24-2.35-2.24z" style="fill:url(#b);stroke:none;stroke-width:.75;stroke-linecap:butt"/></g></g></g></svg>