<svg xmlns="http://www.w3.org/2000/svg" xml:space="preserve" width="52.657" height="50.382" style="font-size:12px;overflow:visible;color-interpolation-filters:sRGB;fill-rule:evenodd;stroke-linecap:square;stroke-miterlimit:3" viewBox="0 0 52.657 50.382"><defs><linearGradient id="a" x1="0" x2="39.694" y1="39.293" y2="39.293" gradientTransform="scale(.81954 1.2202)" gradientUnits="userSpaceOnUse"><stop offset="0" stop-color="#205b54"/><stop offset=".475" stop-color="#177a6e"/><stop offset="1" stop-color="#0e9c8b"/></linearGradient><linearGradient id="b" x1=".651" x2="34.724" y1="43.767" y2="43.767" gradientTransform="scale(.81217 1.23127)" gradientUnits="userSpaceOnUse"><stop offset="0" stop-color="#0e9c8b"/><stop offset="1" stop-color="#54c7b8"/></linearGradient><linearGradient id="c" x1="2.464" x2="42.158" y1="36.707" y2="36.707" gradientTransform="scale(.81954 1.2202)" gradientUnits="userSpaceOnUse"><stop offset="0" stop-color="#cbf8f3"/><stop offset="1" stop-color="#5cd9ca"/></linearGradient></defs><g transform="translate(-7.689 -8.827)"><title>Page-1</title><g transform="translate(5.67 -34.016)"><title>Application Customer Voice.22668</title><title>Sheet.22669</title><title>Sheet.22670</title><g transform="translate(22.146 -5.103)"><title>Sheet.22671</title><path d="M0 48.9c14.99-4.11 28.56 5.72 31.45 16.75 3.1 11.84-.43 22.03-11.12 30.73l-8.77-3.36-2.54-9.67c-.15-.61.2-1.22.77-1.43 3.45-1.22 6.37-3.68 8.2-6.93 2.03-3.58 2.57-7.84 1.53-11.84-1.05-3.99-3.6-7.4-7.11-9.47-3.5-2.06-7.66-2.63-11.56-1.55Z" style="fill:url(#a);stroke:none;stroke-width:.75;stroke-linecap:butt"/></g><g transform="translate(13.982 -6.267)"><title>Sheet.22672</title><title>Sheet.22673</title><path d="M9.76 65.91c1.11-.49 1.82-1.67 1.5-2.88l8.46 32.28c-3.91 1.07-8.07.51-11.57-1.56s-6.06-5.48-7.1-9.47c-1.05-4-.5-8.25 1.52-11.84 1.65-2.93 4.19-5.21 7.19-6.53" style="fill:#000;fill-opacity:.31999996;stroke:none;stroke-width:.75;stroke-linecap:butt"/><g transform="translate(9.01 -9.68)"><title>Sheet.22674</title><path d="M9.96 93.49c-1.11.49-1.82 1.68-1.5 2.89L0 64.1c3.91-1.07 8.07-.51 11.57 1.55 3.5 2.07 6.06 5.48 7.1 9.47 1.05 4 .5 8.26-1.52 11.84-1.66 2.93-4.19 5.22-7.19 6.53" style="fill:#000;fill-opacity:.31999996;stroke:none;stroke-width:.75;stroke-linecap:butt"/></g></g><g transform="translate(13.982 -7.182)"><title>Sheet.22675</title><title>Sheet.22676</title><path d="M9.76 65.91c1.11-.49 1.82-1.67 1.5-2.88l8.46 32.28c-3.91 1.07-8.07.51-11.57-1.56s-6.06-5.48-7.1-9.47c-1.05-4-.5-8.25 1.52-11.84 1.65-2.93 4.19-5.21 7.19-6.53" style="fill:#000;fill-opacity:.23999999;stroke:none;stroke-width:.75;stroke-linecap:butt"/><g transform="translate(9.01 -9.68)"><title>Sheet.22677</title><path d="M9.96 93.49c-1.11.49-1.82 1.68-1.5 2.89L0 64.1c3.91-1.07 8.07-.51 11.57 1.55 3.5 2.07 6.06 5.48 7.1 9.47 1.05 4 .5 8.26-1.52 11.84-1.66 2.93-4.19 5.22-7.19 6.53" style="fill:#000;fill-opacity:.23999999;stroke:none;stroke-width:.75;stroke-linecap:butt"/></g></g><g transform="translate(13.982 -7.394)"><title>Sheet.22678</title><path d="M9.76 65.91c1.11-.49 1.82-1.67 1.5-2.88l1.7 6.47-3.95-15.08c3.91-1.07 8.07-.51 11.57 1.55 3.5 2.07 6.06 5.48 7.1 9.47 1.05 4 .5 8.26-1.52 11.84-1.66 2.93-4.19 5.22-7.19 6.54-1.08.47-1.78 1.6-1.53 2.77l2.28 8.72c-3.91 1.07-8.07.51-11.57-1.56s-6.06-5.48-7.1-9.47c-1.05-4-.5-8.25 1.52-11.84 1.65-2.93 4.19-5.21 7.19-6.53" style="fill:url(#b);stroke:none;stroke-width:.75;stroke-linecap:butt"/></g><title>Sheet.22679</title><path d="M34.55 92.27C19.56 96.38 5.99 86.55 3.1 75.52 0 63.68 3.53 53.48 14.22 44.79l8.77 3.36 2.25 8.58c.31 1.2-.39 2.43-1.51 2.92-3 1.32-5.53 3.6-7.18 6.53a15.9 15.9 0 0 0-1.52 11.83c1.05 4 3.6 7.4 7.1 9.47s7.67 2.63 11.57 1.56z" style="fill:#000;fill-opacity:.31999996;stroke:none;stroke-width:.75;stroke-linecap:butt"/><g transform="translate(0 -.914)"><title>Sheet.22680</title><path d="M34.55 92.27C19.56 96.38 5.99 86.55 3.1 75.52 0 63.68 3.53 53.48 14.22 44.79l8.77 3.36 2.25 8.58c.31 1.2-.39 2.43-1.51 2.92-3 1.32-5.53 3.6-7.18 6.53a15.9 15.9 0 0 0-1.52 11.83c1.05 4 3.6 7.4 7.1 9.47s7.67 2.63 11.57 1.56z" style="fill:#000;fill-opacity:.23999999;stroke:none;stroke-width:.75;stroke-linecap:butt"/></g><g transform="translate(0 -1.13)"><title>Sheet.22681</title><path d="M34.55 92.27C19.56 96.38 5.99 86.55 3.1 75.52 0 63.68 3.53 53.48 14.22 44.79l8.77 3.36 2.25 8.58c.31 1.2-.39 2.43-1.51 2.92-3 1.32-5.53 3.6-7.18 6.53a15.9 15.9 0 0 0-1.52 11.83c1.05 4 3.6 7.4 7.1 9.47s7.67 2.63 11.57 1.56z" style="fill:url(#c);stroke:none;stroke-width:.75;stroke-linecap:butt"/></g></g></g></svg>