<svg xmlns="http://www.w3.org/2000/svg" xml:space="preserve" width="55.8" height="55.825" style="font-size:12px;overflow:visible;color-interpolation-filters:sRGB;fill-rule:evenodd;stroke-linecap:square;stroke-miterlimit:3" viewBox="0 0 55.8 55.825"><defs><linearGradient id="a" x1=".878" x2="55.924" y1="41.775" y2="41.775" gradientTransform="scale(1.0137 .98649)" gradientUnits="userSpaceOnUse"><stop offset="0" stop-color="#922717"/><stop offset=".515" stop-color="#d83b01"/></linearGradient><linearGradient id="b" x1=".881" x2="44.111" y1="53.622" y2="53.622" gradientTransform="scale(1.01403 .98616)" gradientUnits="userSpaceOnUse"><stop offset="0" stop-color="#f69b63"/><stop offset="1" stop-color="#d83b01"/></linearGradient><linearGradient id="c" x1=".879" x2="32.297" y1="65.345" y2="65.345" gradientTransform="scale(1.0131 .98707)" gradientUnits="userSpaceOnUse"><stop offset="0" stop-color="#f69b63"/><stop offset="1" stop-color="#ffb685"/></linearGradient></defs><g transform="translate(-6.56 -5.67)"><title>Page-1</title><g transform="translate(5.67 -34.016)"><title>Application Marketing.22601</title><title>Sheet.22602</title><title>Sheet.22603</title><g transform="translate(0 -1.523)"><title>Sheet.22604</title><path d="M1.67 45.62c-1.67-1.63-.48-4.41 1.89-4.41h50.47c1.47 0 2.66 1.16 2.66 2.58v49.13c0 2.3-2.86 3.46-4.54 1.83z" style="fill:url(#a);stroke:none;stroke-width:.75;stroke-linecap:butt"/></g><g transform="translate(.04 -1.315)"><title>Sheet.22605</title><path d="M1.68 57.3c-1.68-1.63-.49-4.42 1.88-4.42h38.51c1.47 0 2.66 1.16 2.66 2.59v37.45c0 2.3-2.87 3.46-4.55 1.83z" style="fill:#000;fill-opacity:.23999999;stroke:none;stroke-width:.75;stroke-linecap:butt"/></g><g transform="translate(.04 -.022)"><title>Sheet.22606</title><path d="M1.68 57.3c-1.68-1.63-.49-4.42 1.88-4.42h38.51c1.47 0 2.66 1.16 2.66 2.59v37.45c0 2.3-2.87 3.46-4.55 1.83z" style="fill:#000;fill-opacity:.31999996;stroke:none;stroke-width:.75;stroke-linecap:butt"/></g><g transform="translate(.04 -1.56)"><title>Sheet.22607</title><path d="M1.68 57.3c-1.68-1.63-.49-4.42 1.88-4.42h38.51c1.47 0 2.66 1.16 2.66 2.59v37.45c0 2.3-2.87 3.46-4.55 1.83z" style="fill:url(#b);stroke:none;stroke-width:.75;stroke-linecap:butt"/></g><g transform="translate(.033 -1.293)"><title>Sheet.22608</title><path d="M1.67 68.91C0 67.28 1.19 64.5 3.56 64.5h26.5c1.47 0 2.66 1.16 2.66 2.59v25.83c0 2.3-2.87 3.46-4.55 1.83z" style="fill:#000;fill-opacity:.23999999;stroke:none;stroke-width:.75;stroke-linecap:butt"/></g><g transform="translate(.033)"><title>Sheet.22609</title><path d="M1.67 68.91C0 67.28 1.19 64.5 3.56 64.5h26.5c1.47 0 2.66 1.16 2.66 2.59v25.83c0 2.3-2.87 3.46-4.55 1.83z" style="fill:#000;fill-opacity:.31999996;stroke:none;stroke-width:.75;stroke-linecap:butt"/></g><g transform="translate(.033 -1.539)"><title>Sheet.22610</title><path d="M1.67 68.91C0 67.28 1.19 64.5 3.56 64.5h26.5c1.47 0 2.66 1.16 2.66 2.59v25.83c0 2.3-2.87 3.46-4.55 1.83z" style="fill:url(#c);stroke:none;stroke-width:.75;stroke-linecap:butt"/></g></g></g></svg>