<svg xmlns="http://www.w3.org/2000/svg" xml:space="preserve" width="56.696" height="56.696" style="font-size:12px;overflow:visible;color-interpolation-filters:sRGB;fill-rule:evenodd;stroke-linecap:square;stroke-miterlimit:3" viewBox="0 0 56.696 56.697"><defs><linearGradient id="a" x1="0" x2="56.69" y1="39.69" y2="39.69" gradientUnits="userSpaceOnUse"><stop offset="0" stop-color="#158915"/><stop offset="1" stop-color="#065f18"/></linearGradient><linearGradient id="b" x1="0" x2="28.35" y1="68.03" y2="68.03" gradientUnits="userSpaceOnUse"><stop offset="0" stop-color="#6ad116"/><stop offset="1" stop-color="#34a117"/></linearGradient><linearGradient id="c" x1="0" x2="28.35" y1="68.03" y2="68.03" gradientUnits="userSpaceOnUse"><stop offset="0" stop-color="#c3f488"/><stop offset="1" stop-color="#8fdc50"/></linearGradient><linearGradient id="d" x1="0" x2="23.193" y1="73.185" y2="73.185" gradientUnits="userSpaceOnUse"><stop offset="0" stop-color="#c3f488"/><stop offset="1" stop-color="#8fdc50"/></linearGradient></defs><g transform="translate(-5.67 -5.668)"><title>Page-1</title><g transform="translate(5.67 -34.016)"><title>Application Talent.22463</title><title>Sheet.22464</title><title>Sheet.22465</title><title>Sheet.22466</title><path d="M0 68.03c0-15.65 12.69-28.34 28.35-28.34h25.77a2.57 2.57 0 0 1 2.57 2.57v25.77c0 15.66-12.69 28.35-28.34 28.35C12.69 96.38 0 83.69 0 68.03" style="fill:url(#a);stroke:none;stroke-width:.75;stroke-linecap:butt"/><g transform="translate(28.346 -28.346)"><title>Sheet.22467</title><path d="M0 68.03h28.35v28.35H0Z" style="fill:url(#b);stroke:none;stroke-width:.75;stroke-linecap:butt"/></g><g transform="translate(28.346)"><title>Sheet.22468</title><path d="M0 68.03h28.35v28.35H0Z" style="fill:url(#c);stroke:none;stroke-width:.75;stroke-linecap:butt"/></g><g transform="translate(30.923 -29.635)"><title>Sheet.22469</title><circle cx="11.596" cy="84.782" r="11.596" style="fill:#000;fill-opacity:.31999996;stroke:none;stroke-width:.75;stroke-linecap:butt"/></g><g transform="translate(30.923 -30.679)"><title>Sheet.22470</title><circle cx="11.596" cy="84.782" r="11.596" style="fill:#000;fill-opacity:.23999999;stroke:none;stroke-width:.75;stroke-linecap:butt"/></g><g transform="translate(30.923 -30.923)"><title>Sheet.22471</title><circle cx="11.596" cy="84.782" r="11.596" style="fill:url(#d);stroke:none;stroke-width:.75;stroke-linecap:butt"/></g></g></g></svg>