<svg xmlns="http://www.w3.org/2000/svg" xml:space="preserve" width="56.69" height="56.699" style="font-size:12px;overflow:visible;color-interpolation-filters:sRGB;fill-rule:evenodd;stroke-linecap:square;stroke-miterlimit:3" viewBox="0 0 56.69 56.699"><defs><linearGradient id="a" x1="0" x2="56.69" y1="39.69" y2="39.69" gradientUnits="userSpaceOnUse"><stop offset="0" stop-color="#8661c5"/><stop offset="1" stop-color="#5c428b"/></linearGradient><linearGradient id="b" x1="0" x2="53.212" y1="46.055" y2="46.055" gradientTransform="scale(1.06536 .93865)" gradientUnits="userSpaceOnUse"><stop offset="0" stop-color="#cd9ef0"/><stop offset=".67" stop-color="#9f75d3"/></linearGradient><linearGradient id="c" x1="0" x2="48.248" y1="58.419" y2="58.419" gradientTransform="scale(1.17497 .85109)" gradientUnits="userSpaceOnUse"><stop offset="0" stop-color="#ebc7ff"/><stop offset=".365" stop-color="#e4b4ff"/></linearGradient></defs><g transform="translate(-5.67 -5.665)"><title>Page-1</title><g transform="translate(5.67 -34.016)"><title>Application Market Insights.22611</title><title>Sheet.22612</title><title>Sheet.22613</title><title>Sheet.22614</title><path d="M28.35 96.38c15.65 0 28.34-12.69 28.34-28.35 0-15.65-12.69-28.34-28.34-28.34C12.69 39.69 0 52.38 0 68.03c0 15.66 12.69 28.35 28.35 28.35" style="fill:url(#a);stroke:none;stroke-width:.75;stroke-linecap:butt"/><g transform="translate(0 -2.362)"><title>Sheet.22615</title><path d="M28.35 43.23C12.69 43.23 0 55.92 0 71.57c0 8.47 3.71 16.07 9.6 21.26 3.54 3.55 11.56-21.26 18.75-21.26s15.2 24.81 18.75 21.26c5.88-5.19 9.59-12.79 9.59-21.26 0-15.65-12.69-28.34-28.34-28.34" style="fill:#000;fill-opacity:.31999996;stroke:none;stroke-width:.75;stroke-linecap:butt"/></g><g transform="translate(0 -3.319)"><title>Sheet.22616</title><path d="M28.35 43.23C12.69 43.23 0 55.92 0 71.57c0 8.47 3.71 16.07 9.6 21.26 3.54 3.55 11.56-21.26 18.75-21.26s15.2 24.81 18.75 21.26c5.88-5.19 9.59-12.79 9.59-21.26 0-15.65-12.69-28.34-28.34-28.34" style="fill:#000;fill-opacity:.23999999;stroke:none;stroke-width:.75;stroke-linecap:butt"/></g><g transform="translate(0 -3.543)"><title>Sheet.22617</title><path d="M28.35 43.23C12.69 43.23 0 55.92 0 71.57c0 8.47 3.71 16.07 9.6 21.26 3.54 3.55 11.56-21.26 18.75-21.26s15.2 24.81 18.75 21.26c5.88-5.19 9.59-12.79 9.59-21.26 0-15.65-12.69-28.34-28.34-28.34" style="fill:url(#b);stroke:none;stroke-width:.75;stroke-linecap:butt"/></g><g transform="translate(0 -8.858)"><title>Sheet.22618</title><path d="M28.35 49.72C12.69 49.72 0 62.42 0 78.07c0 4.22.89 8.23 2.57 11.81 3.04 6.5 14.34-24.21 25.78-24.21S51.68 95.2 54.12 89.88c1.65-3.59 2.57-7.59 2.57-11.81 0-15.65-12.69-28.35-28.34-28.35" style="fill:#000;fill-opacity:.31999996;stroke:none;stroke-width:.75;stroke-linecap:butt"/></g><g transform="translate(0 -9.815)"><title>Sheet.22619</title><path d="M28.35 49.72C12.69 49.72 0 62.42 0 78.07c0 4.22.89 8.23 2.57 11.81 3.04 6.5 14.34-24.21 25.78-24.21S51.68 95.2 54.12 89.88c1.65-3.59 2.57-7.59 2.57-11.81 0-15.65-12.69-28.35-28.34-28.35" style="fill:#000;fill-opacity:.23999999;stroke:none;stroke-width:.75;stroke-linecap:butt"/></g><g transform="translate(0 -10.04)"><title>Sheet.22620</title><path d="M28.35 49.72C12.69 49.72 0 62.42 0 78.07c0 4.22.89 8.23 2.57 11.81 3.04 6.5 14.34-24.21 25.78-24.21S51.68 95.2 54.12 89.88c1.65-3.59 2.57-7.59 2.57-11.81 0-15.65-12.69-28.35-28.34-28.35" style="fill:url(#c);stroke:none;stroke-width:.75;stroke-linecap:butt"/></g></g></g></svg>