<svg xmlns="http://www.w3.org/2000/svg" xml:space="preserve" width="53.855" height="55.241" style="font-size:12px;overflow:visible;color-interpolation-filters:sRGB;fill-rule:evenodd;stroke-linecap:square;stroke-miterlimit:3" viewBox="0 0 53.856 55.241"><defs><linearGradient id="a" x1="0" x2="29.156" y1="30.181" y2="30.181" gradientTransform="scale(.61565 1.6243)" gradientUnits="userSpaceOnUse"><stop offset="0" stop-color="#158915"/><stop offset="1" stop-color="#065f18"/></linearGradient><linearGradient id="b" x1="0" x2="26.996" y1="37.089" y2="37.089" gradientTransform="scale(.66492 1.50394)" gradientUnits="userSpaceOnUse"><stop offset="0" stop-color="#6ad116"/><stop offset="1" stop-color="#34a117"/></linearGradient><linearGradient id="c" x1="0" x2="26.993" y1="36.614" y2="36.614" gradientTransform="scale(.66498 1.5038)" gradientUnits="userSpaceOnUse"><stop offset="0" stop-color="#c3f488"/><stop offset="1" stop-color="#8fdc50"/></linearGradient></defs><g transform="translate(-5.386 -6.396)"><title>Page-1</title><g transform="translate(5.386 -34.016)"><title>Application Customer Service Insights.22690</title><title>Sheet.22691</title><title>Sheet.22692</title><g transform="translate(35.906 -8.61)"><title>Sheet.22693</title><path d="M0 51.28c0-1.96 2.31-2.98 3.75-1.67l13.47 12.26c.47.43.73 1.04.73 1.68v30.57c0 1.25-1 2.26-2.24 2.26H0Z" style="fill:url(#a);stroke:none;stroke-width:.75;stroke-linecap:butt"/></g><g transform="translate(17.953 -7.483)"><title>Sheet.22694</title><path d="M0 58.03c0-1.24 1-2.25 2.24-2.25h15.71v40.6H0Z" style="fill:#000;fill-opacity:.31999996;stroke:none;stroke-width:.75;stroke-linecap:butt"/></g><g transform="translate(17.953 -8.397)"><title>Sheet.22695</title><path d="M0 58.03c0-1.24 1-2.25 2.24-2.25h15.71v40.6H0Z" style="fill:#000;fill-opacity:.23999999;stroke:none;stroke-width:.75;stroke-linecap:butt"/></g><g transform="translate(17.953 -8.61)"><title>Sheet.22696</title><path d="M0 58.03c0-1.24 1-2.25 2.24-2.25h15.71v40.6H0Z" style="fill:url(#b);stroke:none;stroke-width:.75;stroke-linecap:butt"/></g><title>Sheet.22697</title><path d="M0 57.32c0-1.25 1-2.26 2.24-2.26h15.71v38.33c0 1.96-2.31 2.99-3.75 1.67L.74 82.8C.27 82.37 0 81.77 0 81.13Z" style="fill:#000;fill-opacity:.31999996;stroke:none;stroke-width:.75;stroke-linecap:butt"/><g transform="translate(0 -.913)"><title>Sheet.22698</title><path d="M0 57.32c0-1.25 1-2.26 2.24-2.26h15.71v38.33c0 1.96-2.31 2.99-3.75 1.67L.74 82.8C.27 82.37 0 81.77 0 81.13Z" style="fill:#000;fill-opacity:.23999999;stroke:none;stroke-width:.75;stroke-linecap:butt"/></g><g transform="translate(0 -1.128)"><title>Sheet.22699</title><path d="M0 57.32c0-1.25 1-2.26 2.24-2.26h15.71v38.33c0 1.96-2.31 2.99-3.75 1.67L.74 82.8C.27 82.37 0 81.77 0 81.13Z" style="fill:url(#c);stroke:none;stroke-width:.75;stroke-linecap:butt"/></g></g></g></svg>