<svg xmlns="http://www.w3.org/2000/svg" xml:space="preserve" width="51.02" height="56.555" style="font-size:12px;overflow:visible;color-interpolation-filters:sRGB;fill-rule:evenodd;stroke-linecap:square;stroke-miterlimit:3" viewBox="0 0 51.02 56.555"><defs><linearGradient id="a" x1="0" x2="46.572" y1="58.927" y2="58.927" gradientTransform="scale(1.0955 .91283)" gradientUnits="userSpaceOnUse"><stop offset="0" stop-color="#ea8200"/><stop offset="1" stop-color="#c46a08"/></linearGradient><linearGradient id="b" x1="0" x2="35.397" y1="103.523" y2="103.523" gradientTransform="scale(1.44138 .69378)" gradientUnits="userSpaceOnUse"><stop offset="0" stop-color="#fac240"/><stop offset="1" stop-color="#f29800"/></linearGradient><linearGradient id="c" x1="0" x2="35.519" y1="102.923" y2="102.923" gradientTransform="scale(1.43642 .69618)" gradientUnits="userSpaceOnUse"><stop offset="0" stop-color="#ffed80"/><stop offset=".96" stop-color="#ffdb00"/></linearGradient></defs><g transform="translate(-5.102 -5.732)"><title>Page-1</title><g transform="translate(5.102 -34.016)"><title>Application Fraud Protection.22631</title><title>Sheet.22632</title><title>Sheet.22633</title><title>Sheet.22634</title><path d="M51.02 78.72c0 8.65-18.74 15.55-24.09 17.35-.93.31-1.91.31-2.83 0C18.74 94.27 0 87.37 0 78.72c0-13.77 11.42-24.93 25.51-24.93s25.51 11.16 25.51 24.93" style="fill:url(#a);stroke:none;stroke-width:.75;stroke-linecap:butt"/><g transform="translate(0 -16.473)"><title>Sheet.22635</title><path d="m0 82.13 24.57-10.12c.6-.25 1.28-.25 1.89 0l24.56 10.12v14.25L26.46 86.25a2.57 2.57 0 0 0-1.89 0L0 96.38Z" style="fill:#000;fill-opacity:.31999996;stroke:none;stroke-width:.75;stroke-linecap:butt"/></g><g transform="translate(0 -17.435)"><title>Sheet.22636</title><path d="m0 82.13 24.57-10.12c.6-.25 1.28-.25 1.89 0l24.56 10.12v14.25L26.46 86.25a2.57 2.57 0 0 0-1.89 0L0 96.38Z" style="fill:#000;fill-opacity:.23999999;stroke:none;stroke-width:.75;stroke-linecap:butt"/></g><g transform="translate(0 -17.66)"><title>Sheet.22637</title><path d="m0 82.13 24.57-10.12c.6-.25 1.28-.25 1.89 0l24.56 10.12v14.25L26.46 86.25a2.57 2.57 0 0 0-1.89 0L0 96.38Z" style="fill:url(#b);stroke:none;stroke-width:.75;stroke-linecap:butt"/></g><g transform="translate(0 -30.718)"><title>Sheet.22638</title><path d="M0 83.54c0-.96.59-1.82 1.49-2.19l23.08-9.51c.6-.25 1.28-.25 1.89 0l23.08 9.51c.9.37 1.48 1.23 1.48 2.19v12.84L26.46 86.25a2.57 2.57 0 0 0-1.89 0L0 96.38Z" style="fill:#000;fill-opacity:.31999996;stroke:none;stroke-width:.75;stroke-linecap:butt"/></g><g transform="translate(0 -31.679)"><title>Sheet.22639</title><path d="M0 83.54c0-.96.59-1.82 1.49-2.19l23.08-9.51c.6-.25 1.28-.25 1.89 0l23.08 9.51c.9.37 1.48 1.23 1.48 2.19v12.84L26.46 86.25a2.57 2.57 0 0 0-1.89 0L0 96.38Z" style="fill:#000;fill-opacity:.23999999;stroke:none;stroke-width:.75;stroke-linecap:butt"/></g><g transform="translate(0 -31.905)"><title>Sheet.22640</title><path d="M0 83.54c0-.96.59-1.82 1.49-2.19l23.08-9.51c.6-.25 1.28-.25 1.89 0l23.08 9.51c.9.37 1.48 1.23 1.48 2.19v12.84L26.46 86.25a2.57 2.57 0 0 0-1.89 0L0 96.38Z" style="fill:url(#c);stroke:none;stroke-width:.75;stroke-linecap:butt"/></g></g></g></svg>