<svg xmlns="http://www.w3.org/2000/svg" xml:space="preserve" width="56.693" height="56.694" style="font-size:12px;overflow:visible;color-interpolation-filters:sRGB;fill-rule:evenodd;stroke-linecap:square;stroke-miterlimit:3" viewBox="0 0 56.693 56.694"><defs><linearGradient id="a" x1="0" x2="56.693" y1="40.311" y2="40.311" gradientUnits="userSpaceOnUse"><stop offset="0" stop-color="#009ca8"/><stop offset="1" stop-color="#007d85"/></linearGradient><linearGradient id="b" x1="0" x2="30.709" y1="66.295" y2="66.295" gradientUnits="userSpaceOnUse"><stop offset="0" stop-color="#36e3ee"/><stop offset="1" stop-color="#00b1be"/></linearGradient><linearGradient id="c" x1="0" x2="19.187" y1="112.156" y2="112.156" gradientTransform="scale(1.35405 .73853)" gradientUnits="userSpaceOnUse"><stop offset="0" stop-color="#d2f6f9"/><stop offset="1" stop-color="#82ebf1"/><stop offset="1" stop-color="#82ebf1"/></linearGradient><linearGradient id="d" x1="0" x2="10.63" y1="86.37" y2="86.37" gradientUnits="userSpaceOnUse"><stop offset="0" stop-color="#9aeef3"/><stop offset="1" stop-color="#82ebf1"/></linearGradient></defs><g transform="translate(-6.295 -6.294)"><title>Page-1</title><g transform="translate(6.295 -34.016)"><title>Application Business Central.22741</title><title>circle5</title><circle cx="28.346" cy="68.658" r="28.346" style="fill:url(#a);stroke:none;stroke-width:6.29526997;stroke-linecap:butt"/><g transform="translate(23.032 -43.11)"><title>path7</title><path d="M7.68 93.5a5.318 5.318 0 0 0-2.37-10.08C2.38 83.42 0 85.8 0 88.74c0 2.08 1.2 3.89 2.95 4.76V97h4.73z" style="fill:#9df3f9;stroke:none;stroke-width:6.29526997;stroke-linecap:butt"/></g><g transform="translate(23.032)"><title>path9</title><path d="M2.95 86.93A5.313 5.313 0 0 0 5.31 97c2.94 0 5.32-2.38 5.32-5.31 0-2.09-1.2-3.89-2.95-4.76v-3.51H2.95Z" style="fill:#82ebf1;stroke:none;stroke-width:6.29526997;stroke-linecap:butt"/></g><g transform="translate(0 -23.032)"><title>path11</title><path d="M10.08 89.33a5.33 5.33 0 0 0-4.77-2.96 5.316 5.316 0 0 0 0 10.63c2.09 0 3.9-1.2 4.77-2.95h3.5v-4.72z" style="fill:#9df3f9;stroke:none;stroke-width:6.29526997;stroke-linecap:butt"/></g><g transform="translate(12.992 -12.992)"><title>circle29</title><circle cx="15.354" cy="81.65" r="15.354" style="fill:url(#b);stroke:none;stroke-width:6.29526997;stroke-linecap:butt"/></g><g transform="translate(21.26 -21.26)"><title>path31</title><path d="M13.77 92.28A7.09 7.09 0 0 1 7.09 97C3.17 97 0 93.83 0 89.92c0-3.92 3.17-7.09 7.09-7.09 3.08 0 5.71 1.97 6.68 4.73h12.21v4.72z" style="fill:url(#c);stroke:none;stroke-width:6.29526997;stroke-linecap:butt"/></g><g transform="translate(46.063 -23.031)"><title>path33</title><path d="M5.31 97a5.316 5.316 0 1 1 .011-10.629A5.316 5.316 0 0 1 5.31 97" style="fill:url(#d);stroke:none;stroke-width:6.29526997;stroke-linecap:butt"/></g></g></g></svg>