<svg xmlns="http://www.w3.org/2000/svg" xml:space="preserve" width="56.696" height="51.027" style="font-size:12px;overflow:visible;color-interpolation-filters:sRGB;fill-rule:evenodd;stroke-linecap:square;stroke-miterlimit:3" viewBox="0 0 56.696 51.027"><defs><linearGradient id="a" x1="0" x2="26.342" y1="34.293" y2="34.293" gradientTransform="scale(.67268 1.48658)" gradientUnits="userSpaceOnUse"><stop offset="0" stop-color="#27518a"/><stop offset="1" stop-color="#2064ae"/></linearGradient><linearGradient id="b" x1="0" x2="26.342" y1="34.293" y2="34.293" gradientTransform="scale(.67268 1.48658)" gradientUnits="userSpaceOnUse"><stop offset="0" stop-color="#7ce6ff"/><stop offset="1" stop-color="#a7f2ff"/></linearGradient><linearGradient id="c" x1="0" x2="43.399" y1="35.092" y2="35.092" gradientTransform="scale(.87076 1.14842)" gradientUnits="userSpaceOnUse"><stop offset="0" stop-color="#40c4f5"/><stop offset="1" stop-color="#0095e6"/></linearGradient></defs><g transform="translate(-5.67 -5.098)"><title>Page-1</title><g transform="translate(5.67 -34.016)"><title>Application Supply Chain Management.22497</title><title>Sheet.22498</title><title>Sheet.22499</title><g transform="translate(0 -11.866)"><title>Sheet.22500</title><path d="M17.72 90.14V59.88c0-4.91-3.97-8.9-8.86-8.9S0 54.97 0 59.88v19.58c0 5.9 4.76 10.68 10.63 10.68z" style="fill:url(#a);stroke:none;stroke-width:.75;stroke-linecap:butt"/></g><g transform="translate(38.976 -1.187)"><title>Sheet.22501</title><path d="M8.86 90.14c4.89 0 8.86-3.98 8.86-8.9V61.66c0-5.89-4.76-10.68-10.63-10.68H0v30.26c0 4.92 3.97 8.9 8.86 8.9" style="fill:url(#b);stroke:none;stroke-width:.75;stroke-linecap:butt"/></g><g transform="translate(9.449)"><title>Sheet.22502</title><path d="M8.27 79.46V49.2c0-4.71-3.65-8.57-8.27-8.88.2-.01.39-.02.59-.02h17.72c.1 0 .2.01.3.01.09 0 .19-.01.29-.01 5.87 0 10.63 4.79 10.63 10.68v30.26c0 4.72 3.65 8.57 8.26 8.88-.19.02-.39.02-.59.02H18.9c-5.87 0-10.63-4.78-10.63-10.68" style="fill:#000;fill-opacity:.31999996;stroke:none;stroke-width:.75;stroke-linecap:butt"/></g><g transform="translate(9.449 -.961)"><title>Sheet.22503</title><path d="M8.27 79.46V49.2c0-4.71-3.65-8.57-8.27-8.88.2-.01.39-.02.59-.02h17.72c.1 0 .2.01.3.01.09 0 .19-.01.29-.01 5.87 0 10.63 4.79 10.63 10.68v30.26c0 4.72 3.65 8.57 8.26 8.88-.19.02-.39.02-.59.02H18.9c-5.87 0-10.63-4.78-10.63-10.68" style="fill:#000;fill-opacity:.23999999;stroke:none;stroke-width:.75;stroke-linecap:butt"/></g><g transform="translate(9.449 -1.187)"><title>Sheet.22504</title><path d="M8.27 79.46V49.2c0-4.71-3.65-8.57-8.27-8.88.2-.01.39-.02.59-.02h17.72c.1 0 .2.01.3.01.09 0 .19-.01.29-.01 5.87 0 10.63 4.79 10.63 10.68v30.26c0 4.72 3.65 8.57 8.26 8.88-.19.02-.39.02-.59.02H18.9c-5.87 0-10.63-4.78-10.63-10.68" style="fill:url(#c);stroke:none;stroke-width:.75;stroke-linecap:butt"/></g></g></g></svg>