<svg xmlns="http://www.w3.org/2000/svg" xml:space="preserve" width="56.697" height="50.749" style="font-size:12px;overflow:visible;color-interpolation-filters:sRGB;fill-rule:evenodd;stroke-linecap:square;stroke-miterlimit:3" viewBox="0 0 56.697 50.749"><defs><linearGradient id="a" x1="0" x2="47.537" y1="38.649" y2="38.649" gradientTransform="scale(.95904 1.04271)" gradientUnits="userSpaceOnUse"><stop offset="0" stop-color="#8661c5"/><stop offset="1" stop-color="#5c428b"/></linearGradient><linearGradient id="b" x1="0" x2="47.537" y1="38.649" y2="38.649" gradientTransform="scale(.95904 1.04271)" gradientUnits="userSpaceOnUse"><stop offset="0" stop-color="#ebc7ff"/><stop offset=".495" stop-color="#e4b4ff"/></linearGradient><linearGradient id="c" x1="0" x2="36.367" y1="48.837" y2="48.837" gradientTransform="scale(.9481 1.05473)" gradientUnits="userSpaceOnUse"><stop offset="0" stop-color="#cd9ef0"/><stop offset=".895" stop-color="#9f75d3"/></linearGradient></defs><g transform="translate(-5.67 -5.102)"><title>Page-1</title><g transform="translate(5.67 -34.016)"><title>Application Customer Service.22682</title><title>Sheet.22683</title><title>Sheet.22684</title><g transform="translate(11.107 -1.182)"><title>Sheet.22685</title><path d="M28.17 40.3h15.05c1.31 0 2.37 1.06 2.37 2.36v14.7c0 .57-.21 1.11-.58 1.54L19.03 89.05a2.368 2.368 0 0 1-3.58 0L0 71.12 26.39 41.1c.45-.51 1.1-.8 1.78-.8" style="fill:url(#a);stroke:none;stroke-width:.75;stroke-linecap:butt"/></g><title>Sheet.22686</title><path d="M17.42 40.3H2.36C1.06 40.3 0 41.35 0 42.66v14.7c0 .56.2 1.11.57 1.54l25.99 30.15a2.368 2.368 0 0 0 3.58 0l15.45-17.93-26.4-30.02c-.45-.51-1.09-.8-1.77-.8" style="fill:#000;fill-opacity:.31999996;stroke:none;stroke-width:.75;stroke-linecap:butt"/><g transform="translate(0 -.956)"><title>Sheet.22687</title><path d="M17.42 40.3H2.36C1.06 40.3 0 41.35 0 42.66v14.7c0 .56.2 1.11.57 1.54l25.99 30.15a2.368 2.368 0 0 0 3.58 0l15.45-17.93-26.4-30.02c-.45-.51-1.09-.8-1.77-.8" style="fill:#000;fill-opacity:.23999999;stroke:none;stroke-width:.75;stroke-linecap:butt"/></g><g transform="translate(0 -1.18)"><title>Sheet.22688</title><path d="M17.42 40.3H2.36C1.06 40.3 0 41.35 0 42.66v14.7c0 .56.2 1.11.57 1.54l25.99 30.15a2.368 2.368 0 0 0 3.58 0l15.45-17.93-26.4-30.02c-.45-.51-1.09-.8-1.77-.8" style="fill:url(#b);stroke:none;stroke-width:.75;stroke-linecap:butt"/></g><g transform="translate(11.107 -1.182)"><title>Sheet.22689</title><path d="M17.24 51.51 0 71.12l15.45 17.93a2.368 2.368 0 0 0 3.58 0l6.25-7.25 9.2-10.68z" style="fill:url(#c);stroke:none;stroke-width:.75;stroke-linecap:butt"/></g></g></g></svg>