<svg xmlns="http://www.w3.org/2000/svg" xml:space="preserve" width="45.354" height="56.69" style="font-size:12px;overflow:visible;color-interpolation-filters:sRGB;fill-rule:evenodd;stroke-linecap:square;stroke-miterlimit:3" viewBox="0 0 45.354 56.69"><defs><linearGradient id="a" x1="0" x2="31.443" y1="22.94" y2="22.94" gradientTransform="scale(.55465 1.80293)" gradientUnits="userSpaceOnUse"><stop offset="0" stop-color="#ea8200"/><stop offset="1" stop-color="#c46a08"/></linearGradient><linearGradient id="b" x1="0" x2="39.777" y1="29.021" y2="29.021" gradientTransform="scale(.70166 1.4252)" gradientUnits="userSpaceOnUse"><stop offset="0" stop-color="#fdc400"/><stop offset="1" stop-color="#f29800"/></linearGradient><linearGradient id="c" x1="0" x2="21.096" y1="76.196" y2="76.196" gradientTransform="scale(.99228 1.00778)" gradientUnits="userSpaceOnUse"><stop offset="0" stop-color="#ffe440"/><stop offset="1" stop-color="#ffdb00"/></linearGradient></defs><g transform="translate(-7.34 -7.344)"><title>Page-1</title><g transform="translate(7.34 -34.016)"><title>Application Talent Attract.22479</title><title>g37</title><title>path23</title><path d="M2.33 41.36C1.04 41.36 0 42.41 0 43.72v12.99c0 1.3 1.04 2.36 2.33 2.36h15.11V41.36Zm0 38.97C1.04 80.33 0 81.39 0 82.69v13c0 1.3 1.04 2.36 2.33 2.36h15.11V80.33Z" style="fill:url(#a);stroke:none;stroke-width:7.33981991;stroke-linecap:butt"/><g transform="translate(17.444)"><title>path25</title><path d="M0 98.05c15.41 0 27.91-12.69 27.91-28.35 0-15.65-12.5-28.34-27.91-28.34Z" style="fill:url(#b);stroke:none;stroke-width:7.33981991;stroke-linecap:butt"/></g><g transform="translate(6.978 -16.535)"><title>circle27</title><ellipse cx="10.466" cy="87.419" rx="10.466" ry="10.63" style="fill:#000;fill-opacity:.16000001;stroke:none;stroke-width:7.33981991;stroke-linecap:butt"/></g><g transform="translate(6.978 -17.492)"><title>circle31</title><ellipse cx="10.466" cy="87.419" rx="10.466" ry="10.63" style="fill:#000;fill-opacity:.23999999;stroke:none;stroke-width:7.33981991;stroke-linecap:butt"/></g><g transform="translate(6.978 -17.716)"><title>circle35</title><ellipse cx="10.466" cy="87.419" rx="10.466" ry="10.63" style="fill:url(#c);stroke:none;stroke-width:7.33981991;stroke-linecap:butt"/></g></g></g></svg>