<svg xmlns="http://www.w3.org/2000/svg" xml:space="preserve" width="56.489" height="53.54" style="font-size:12px;overflow:visible;color-interpolation-filters:sRGB;fill-rule:evenodd;stroke-linecap:square;stroke-miterlimit:3" viewBox="0 0 56.489 53.54"><defs><linearGradient id="a" x1=".088" x2="50.717" y1="52.965" y2="52.965" gradientTransform="scale(1.11576 .89625)" gradientUnits="userSpaceOnUse"><stop offset="0" stop-color="#f5b240"/><stop offset=".555" stop-color="#ea8200"/></linearGradient><linearGradient id="b" x1="1.697" x2="41.254" y1="42.323" y2="42.323" gradientTransform="scale(.881 1.13507)" gradientUnits="userSpaceOnUse"><stop offset="0" stop-color="#fdd340"/><stop offset="1" stop-color="#f9ae00"/></linearGradient><linearGradient id="c" x1="0" x2="21.111" y1="72.58" y2="72.58" gradientTransform="scale(1.00462 .9954)" gradientUnits="userSpaceOnUse"><stop offset="0" stop-color="#ffed80"/><stop offset="1" stop-color="#fcd680"/></linearGradient></defs><g transform="translate(-5.768 -5.384)"><title>Page-1</title><g transform="translate(5.67 -34.016)"><title>Application Field Service.22660</title><title>Sheet.22661</title><title>Sheet.22662</title><g transform="translate(0 -8.07)"><title>Sheet.22663</title><path d="M12.6 48.69c.42-.75 1.21-1.22 2.07-1.22h26.61c.84 0 1.62.45 2.04 1.17l12.95 22.13c.42.72.42 1.59.02 2.31L45.82 91.65c-.86 1.52-3.03 1.61-4.01.16l-11.52-17c-.93-1.38-2.98-1.38-3.91-.01L14.86 91.81c-.98 1.45-3.16 1.36-4.02-.17L.4 73.05c-.4-.7-.4-1.55-.01-2.26Z" style="fill:url(#a);stroke:none;stroke-width:.75;stroke-linecap:butt"/></g><g transform="translate(9.458 -.946)"><title>Sheet.22664</title><path d="M5.93 53.8c6.93-7.68 19.05-7.68 25.98 0a17.14 17.14 0 0 1 1.08 21.69L20.82 91.98a2.36 2.36 0 0 1-3.8 0L4.85 75.49A17.14 17.14 0 0 1 5.93 53.8" style="fill:#000;fill-opacity:.18000004;stroke:none;stroke-width:.75;stroke-linecap:butt"/></g><g transform="translate(9.458)"><title>Sheet.22665</title><path d="M5.93 53.8c6.93-7.68 19.05-7.68 25.98 0a17.14 17.14 0 0 1 1.08 21.69L20.82 91.98a2.36 2.36 0 0 1-3.8 0L4.85 75.49A17.14 17.14 0 0 1 5.93 53.8" style="fill:#000;fill-opacity:.2;stroke:none;stroke-width:.75;stroke-linecap:butt"/></g><g transform="translate(9.458 -1.167)"><title>Sheet.22666</title><path d="M5.93 53.8c6.93-7.68 19.05-7.68 25.98 0a17.14 17.14 0 0 1 1.08 21.69L20.82 91.98a2.36 2.36 0 0 1-3.8 0L4.85 75.49A17.14 17.14 0 0 1 5.93 53.8" style="fill:url(#b);stroke:none;stroke-width:.75;stroke-linecap:butt"/></g><g transform="translate(17.773 -18.835)"><title>Sheet.22667</title><ellipse cx="10.604" cy="82.753" rx="10.604" ry="10.507" style="fill:url(#c);stroke:none;stroke-width:.75;stroke-linecap:butt"/></g></g></g></svg>