<svg xmlns="http://www.w3.org/2000/svg" xml:space="preserve" width="56.69" height="56.69" style="font-size:12px;overflow:visible;color-interpolation-filters:sRGB;fill-rule:evenodd;stroke-linecap:square;stroke-miterlimit:3" viewBox="0 0 56.69 56.69"><defs><linearGradient id="a" x1="0" x2="56.69" y1="39.69" y2="39.69" gradientUnits="userSpaceOnUse"><stop offset="0" stop-color="#158915"/><stop offset="1" stop-color="#065f18"/></linearGradient><linearGradient id="b" x1=".136" x2="40.17" y1="56.21" y2="56.21" gradientUnits="userSpaceOnUse"><stop offset="0" stop-color="#7bca52"/><stop offset="1" stop-color="#4fb918"/></linearGradient><linearGradient id="c" x1="0" x2="23.622" y1="72.756" y2="72.756" gradientUnits="userSpaceOnUse"><stop offset="0" stop-color="#c3f488"/><stop offset="1" stop-color="#8fdc50"/></linearGradient></defs><g transform="translate(-5.67 -5.674)"><title>Page-1</title><g transform="translate(5.67 -34.016)"><title>Application Sales Insights.22528</title><title>Sheet.22529</title><title>Sheet.22530</title><title>Sheet.22531</title><path d="M28.35 39.69C12.69 39.69 0 52.38 0 68.03c0 15.66 12.69 28.35 28.35 28.35 15.65 0 28.34-12.69 28.34-28.35H28.35Z" style="fill:url(#a);stroke:none;stroke-width:.75;stroke-linecap:butt"/><g transform="translate(8.253 -8.253)"><title>Sheet.22532</title><path d="M20.09 94c0 1.31 1.07 2.38 2.36 2.23 9.98-1.17 17.72-9.65 17.72-19.95 0-11.08-8.99-20.07-20.08-20.07C9.8 56.21 1.32 63.95.15 73.93c-.15 1.29.92 2.35 2.23 2.35h17.71z" style="fill:url(#b);stroke:none;stroke-width:.75;stroke-linecap:butt"/></g><g transform="translate(16.535 -15.354)"><title>Sheet.22533</title><circle cx="11.811" cy="84.567" r="11.811" style="fill:#000;fill-opacity:.31999996;stroke:none;stroke-width:.75;stroke-linecap:butt"/></g><g transform="translate(16.535 -16.311)"><title>Sheet.22534</title><circle cx="11.811" cy="84.567" r="11.811" style="fill:#000;fill-opacity:.23999999;stroke:none;stroke-width:.75;stroke-linecap:butt"/></g><g transform="translate(16.535 -16.535)"><title>Sheet.22535</title><circle cx="11.811" cy="84.567" r="11.811" style="fill:url(#c);stroke:none;stroke-width:.75;stroke-linecap:butt"/></g></g></g></svg>