<svg xmlns="http://www.w3.org/2000/svg" xml:space="preserve" width="55.885" height="50.814" style="font-size:12px;overflow:visible;color-interpolation-filters:sRGB;fill-rule:evenodd;stroke-linecap:square;stroke-miterlimit:3" viewBox="0 0 55.885 50.814"><defs><linearGradient id="a" x1=".949" x2="47.477" y1="38.358" y2="38.358" gradientTransform="scale(.94172 1.0619)" gradientUnits="userSpaceOnUse"><stop offset="0" stop-color="#0078d4"/><stop offset="1" stop-color="#2064ae"/></linearGradient><linearGradient id="b" x1=".937" x2="43.686" y1="44.779" y2="44.779" gradientTransform="scale(.97102 1.02985)" gradientUnits="userSpaceOnUse"><stop offset="0" stop-color="#40c4f5"/><stop offset="1" stop-color="#0095e6"/></linearGradient><linearGradient id="c" x1=".936" x2="34.406" y1="44.655" y2="44.655" gradientTransform="scale(.8667 1.1538)" gradientUnits="userSpaceOnUse"><stop offset="0" stop-color="#a7f2ff"/><stop offset="1" stop-color="#7cecff"/></linearGradient></defs><g transform="translate(-6.48 -5.31)"><title>Page-1</title><g transform="translate(5.67 -34.016)"><title>Application Product Insights.22591</title><title>Sheet.22592</title><title>Sheet.22593</title><g transform="translate(11.987 -1.407)"><title>Sheet.22594</title><path d="M34.01 41.34c-.89-.81-2.25-.81-3.14 0l-8.78 8.03a5.97 5.97 0 0 0-1.92 4.39v5.93c0 9.36-4.86 18.02-12.79 22.83l-5.34 3.23C0 86.98.86 90.14 3.23 90.14h15.19c14.52 0 26.29-11.91 26.29-26.59v-9.79c0-1.67-.7-3.27-1.93-4.39z" style="fill:url(#a);stroke:none;stroke-width:.75;stroke-linecap:butt"/></g><g transform="translate(.251)"><title>Sheet.22595</title><path d="M32.93 46.76a2.32 2.32 0 0 0-3.21 0l-7.67 7.35a5.94 5.94 0 0 0-1.83 4.29v3.3c0 9.1-5.08 17.42-13.12 21.49l-4.89 2.47C0 86.78.78 90.14 3.25 90.14h12.88c14.52 0 26.29-11.91 26.29-26.59V58.4c0-1.62-.66-3.17-1.82-4.29z" style="fill:#000;fill-opacity:.31999996;stroke:none;stroke-width:.75;stroke-linecap:butt"/></g><g transform="translate(.251 -1.182)"><title>Sheet.22596</title><path d="M32.93 46.76a2.32 2.32 0 0 0-3.21 0l-7.67 7.35a5.94 5.94 0 0 0-1.83 4.29v3.3c0 9.1-5.08 17.42-13.12 21.49l-4.89 2.47C0 86.78.78 90.14 3.25 90.14h12.88c14.52 0 26.29-11.91 26.29-26.59V58.4c0-1.62-.66-3.17-1.82-4.29z" style="fill:#000;fill-opacity:.23999999;stroke:none;stroke-width:.75;stroke-linecap:butt"/></g><g transform="translate(.251 -1.407)"><title>Sheet.22597</title><path d="M32.93 46.76a2.32 2.32 0 0 0-3.21 0l-7.67 7.35a5.94 5.94 0 0 0-1.83 4.29v3.3c0 9.1-5.08 17.42-13.12 21.49l-4.89 2.47C0 86.78.78 90.14 3.25 90.14h12.88c14.52 0 26.29-11.91 26.29-26.59V58.4c0-1.62-.66-3.17-1.82-4.29z" style="fill:url(#b);stroke:none;stroke-width:.75;stroke-linecap:butt"/></g><g transform="translate(0 -.224)"><title>Sheet.22598</title><path d="M21.54 52.22a2.3 2.3 0 0 0-3.3 0l-6.57 6.64a5.97 5.97 0 0 0-1.71 4.18v4.82c0 6.66-2.78 13.02-7.65 17.5l-.73.67c-1.58 1.45-.56 4.11 1.57 4.11h.38c14.33 0 25.97-11.59 26.28-26h.01v-1.1c0-1.57-.61-3.07-1.71-4.18z" style="fill:#000;fill-opacity:.31999996;stroke:none;stroke-width:.75;stroke-linecap:butt"/></g><g transform="translate(0 -1.181)"><title>Sheet.22599</title><path d="M21.54 52.22a2.3 2.3 0 0 0-3.3 0l-6.57 6.64a5.97 5.97 0 0 0-1.71 4.18v4.82c0 6.66-2.78 13.02-7.65 17.5l-.73.67c-1.58 1.45-.56 4.11 1.57 4.11h.38c14.33 0 25.97-11.59 26.28-26h.01v-1.1c0-1.57-.61-3.07-1.71-4.18z" style="fill:#000;fill-opacity:.23999999;stroke:none;stroke-width:.75;stroke-linecap:butt"/></g><g transform="translate(0 -1.407)"><title>Sheet.22600</title><path d="M21.54 52.22a2.3 2.3 0 0 0-3.3 0l-6.57 6.64a5.97 5.97 0 0 0-1.71 4.18v4.82c0 6.66-2.78 13.02-7.65 17.5l-.73.67c-1.58 1.45-.56 4.11 1.57 4.11h.38c14.33 0 25.97-11.59 26.28-26h.01v-1.1c0-1.57-.61-3.07-1.71-4.18z" style="fill:url(#c);stroke:none;stroke-width:.75;stroke-linecap:butt"/></g></g></g></svg>