<svg xmlns="http://www.w3.org/2000/svg" xml:space="preserve" width="53.86" height="56.698" style="font-size:12px;overflow:visible;color-interpolation-filters:sRGB;fill-rule:evenodd;stroke-linecap:square;stroke-miterlimit:3" viewBox="0 0 53.86 56.698"><defs><linearGradient id="a" x1="0" x2="54.481" y1="40.799" y2="40.799" gradientTransform="scale(.9886 1.01154)" gradientUnits="userSpaceOnUse"><stop offset="0" stop-color="#158915"/><stop offset="1" stop-color="#065f18"/></linearGradient><linearGradient id="b" x1="0" x2="48.292" y1="59.2" y2="59.2" gradientTransform="scale(1.1153 .89662)" gradientUnits="userSpaceOnUse"><stop offset="0" stop-color="#6ad116"/><stop offset="1" stop-color="#34a117"/></linearGradient><linearGradient id="c" x1="0" x2="29.039" y1="94.392" y2="94.392" gradientTransform="scale(1.28068 .78084)" gradientUnits="userSpaceOnUse"><stop offset="0" stop-color="#c3f488"/><stop offset="1" stop-color="#8fdc50"/></linearGradient></defs><g transform="translate(-5.386 -5.667)"><title>Page-1</title><g transform="translate(5.386 -34.016)"><title>Application Finance.22641</title><title>Sheet.22642</title><title>Sheet.22643</title><g transform="translate(0 -1.588)"><title>Sheet.22644</title><path d="m37.19 41.27 16.67 11.81v43.3H0V68.83Z" style="fill:url(#a);stroke:none;stroke-width:.75;stroke-linecap:butt"/></g><title>Sheet.22645</title><path d="M35.67 64.4c.9.68 2.13.68 3.04.01l15.15-11.33v43.3H0V81.95l28.3-20.86c.9-.67 2.12-.66 3.02.02z" style="fill:#000;fill-opacity:.31999996;stroke:none;stroke-width:.75;stroke-linecap:butt"/><title>Sheet.22646</title><path d="M35.67 64.4c.9.68 2.13.68 3.04.01l15.15-11.33v43.3H0V81.95l28.3-20.86c.9-.67 2.12-.66 3.02.02z" style="fill:#000;fill-opacity:.23999999;stroke:none;stroke-width:.75;stroke-linecap:butt"/><g transform="translate(0 -1.588)"><title>Sheet.22647</title><path d="M35.67 64.4c.9.68 2.13.68 3.04.01l15.15-11.33v43.3H0V81.95l28.3-20.86c.9-.67 2.12-.66 3.02.02z" style="fill:url(#b);stroke:none;stroke-width:.75;stroke-linecap:butt"/></g><g transform="translate(16.67 -1.338)"><title>Sheet.22648</title><path d="M37.19 96.38V77.35l-4.27-3.15c-.9-.66-2.11-.66-3.01 0L0 96.38Z" style="fill:#000;fill-opacity:.23999999;stroke:none;stroke-width:.75;stroke-linecap:butt"/></g><g transform="translate(16.67 -.026)"><title>Sheet.22649</title><path d="M37.19 96.38V77.35l-4.27-3.15c-.9-.66-2.11-.66-3.01 0L0 96.38Z" style="fill:#000;fill-opacity:.31999996;stroke:none;stroke-width:.75;stroke-linecap:butt"/></g><g transform="translate(16.67 -1.587)"><title>Sheet.22650</title><path d="M37.19 96.38V77.35l-4.27-3.15c-.9-.66-2.11-.66-3.01 0L0 96.38Z" style="fill:url(#c);stroke:none;stroke-width:.75;stroke-linecap:butt"/></g></g></g></svg>