<svg xmlns="http://www.w3.org/2000/svg" xml:space="preserve" width="56.479" height="56.696" style="font-size:12px;overflow:visible;color-interpolation-filters:sRGB;fill-rule:evenodd;stroke-linecap:square;stroke-miterlimit:3" viewBox="0 0 56.479 56.697"><defs><linearGradient id="a" x1=".098" x2="30.389" y1="72.688" y2="72.688" gradientTransform="scale(1.06847 .93592)" gradientUnits="userSpaceOnUse"><stop offset="0" stop-color="#7151a7"/><stop offset="1" stop-color="#4a356f"/></linearGradient><linearGradient id="b" x1="0" x2="30.291" y1="72.688" y2="72.688" gradientTransform="scale(1.06847 .93592)" gradientUnits="userSpaceOnUse"><stop offset="0" stop-color="#cd9ef0"/><stop offset="1" stop-color="#8661c5"/></linearGradient><linearGradient id="c" x1="0" x2="30.291" y1="72.688" y2="72.688" gradientTransform="scale(1.06847 .93592)" gradientUnits="userSpaceOnUse"><stop offset="0" stop-color="#f1d9ff"/><stop offset="1" stop-color="#e4b4ff"/></linearGradient><linearGradient id="d" x1="0" x2="32.754" y1="64.06" y2="64.06" gradientTransform="scale(1.00453 .9955)" gradientUnits="userSpaceOnUse"><stop offset="0" stop-color="#cd9ef0"/><stop offset="1" stop-color="#9f75d3"/></linearGradient><linearGradient id="e" x1="0" x2="32.754" y1="64.06" y2="64.06" gradientTransform="scale(1.00453 .9955)" gradientUnits="userSpaceOnUse"><stop offset="0" stop-color="#ebc7ff"/><stop offset="1" stop-color="#e4b4ff"/></linearGradient><linearGradient id="f" x1="0" x2="32.754" y1="64.06" y2="64.06" gradientTransform="scale(1.00453 .9955)" gradientUnits="userSpaceOnUse"><stop offset="0" stop-color="#f8ecff"/><stop offset=".925" stop-color="#f1d9ff"/></linearGradient></defs><g transform="translate(-5.774 -5.668)"><title>Page-1</title><g transform="translate(5.67 -34.016)"><title>Application Connected Store.22723</title><title>Sheet.22724</title><g transform="translate(0 -14.173)"><title>Sheet.22725</title><path d="M.42 81.03c-.42.73-.42 1.62 0 2.35l6.82 11.81a2.39 2.39 0 0 0 2.07 1.19h14.98l8.18-14.18-8.18-14.17H9.31c-.86 0-1.65.46-2.07 1.19z" style="fill:url(#a);stroke:none;stroke-width:.75;stroke-linecap:butt"/></g><g transform="translate(24.22)"><title>Sheet.22726</title><path d="m0 82.2 7.5 12.99a2.39 2.39 0 0 0 2.07 1.19h13.6c.85 0 1.64-.46 2.07-1.19l6.81-11.81c.42-.73.42-1.62 0-2.35l-7.5-13H8.18Z" style="fill:url(#b);stroke:none;stroke-width:.75;stroke-linecap:butt"/></g><g transform="translate(24.22 -28.346)"><title>Sheet.22727</title><path d="m0 82.2 8.18 14.18h16.37l7.5-13c.42-.73.42-1.62 0-2.35l-6.81-11.81a2.41 2.41 0 0 0-2.07-1.19H9.57c-.86 0-1.65.46-2.07 1.19z" style="fill:url(#c);stroke:none;stroke-width:.75;stroke-linecap:butt"/></g><g transform="translate(15.871 -10.864)"><title>Sheet.22728</title><ellipse cx="16.451" cy="80.075" rx="16.451" ry="16.303" style="fill:#000;fill-opacity:.31999996;stroke:none;stroke-width:.75;stroke-linecap:butt"/></g><g transform="translate(15.871 -11.82)"><title>Sheet.22729</title><ellipse cx="16.451" cy="80.075" rx="16.451" ry="16.303" style="fill:#000;fill-opacity:.23999999;stroke:none;stroke-width:.75;stroke-linecap:butt"/></g><g transform="translate(15.871 -12.043)"><title>Sheet.22730</title><ellipse cx="16.451" cy="80.075" rx="16.451" ry="16.303" style="fill:url(#d);stroke:none;stroke-width:.75;stroke-linecap:butt"/></g><g transform="translate(15.871 -12.043)"><title>Sheet.22731</title><ellipse cx="16.451" cy="80.075" rx="16.451" ry="16.303" style="fill:url(#e);stroke:none;stroke-width:.75;stroke-linecap:butt"/></g><g transform="translate(15.871 -12.043)"><title>Sheet.22732</title><ellipse cx="16.451" cy="80.075" rx="16.451" ry="16.303" style="fill:url(#f);stroke:none;stroke-width:.75;stroke-linecap:butt"/></g></g></g></svg>