<svg xmlns="http://www.w3.org/2000/svg" xml:space="preserve" width="53.859" height="56.697" style="font-size:12px;overflow:visible;color-interpolation-filters:sRGB;fill-rule:evenodd;stroke-linecap:square;stroke-miterlimit:3" viewBox="0 0 53.859 56.697"><defs><linearGradient id="a" x1="0" x2="24.348" y1="73.388" y2="73.388" gradientTransform="scale(1.01406 .98613)" gradientUnits="userSpaceOnUse"><stop offset="0" stop-color="#2064ae"/><stop offset="1" stop-color="#27518a"/></linearGradient><linearGradient id="b" x1="0" x2="37.6" y1="63.035" y2="63.035" gradientTransform="scale(1.04415 .95772)" gradientUnits="userSpaceOnUse"><stop offset="0" stop-color="#7cecff"/><stop offset="1" stop-color="#50e6ff"/></linearGradient><linearGradient id="c" x1="0" x2="37.6" y1="63.035" y2="63.035" gradientTransform="scale(1.04415 .95772)" gradientUnits="userSpaceOnUse"><stop offset="0" stop-color="#40c4f5"/><stop offset="1" stop-color="#0095e6"/></linearGradient><linearGradient id="d" x1="0" x2="33.025" y1="45.567" y2="45.567" gradientTransform="scale(.81544 1.22634)" gradientUnits="userSpaceOnUse"><stop offset="0" stop-color="#0095e6"/><stop offset="1" stop-color="#0078d4"/></linearGradient></defs><g transform="translate(-5.386 -5.667)"><title>Page-1</title><g transform="translate(5.386 -34.016)"><title>Application Customer Insights.22700</title><title>Sheet.22701</title><title>Sheet.22702</title><g transform="translate(14.587 -16.198)"><title>Sheet.22703</title><path d="M12.34 72.37c7.24 2.98 12.35 10.28 12.35 18.8 0 .24-.01.48-.02.72-3.37 2.81-7.66 4.49-12.33 4.49S3.38 94.7.01 91.89C0 91.65 0 91.41 0 91.17c0-8.52 5.11-15.82 12.34-18.8" style="fill:url(#a);stroke:none;stroke-width:.75;stroke-linecap:butt"/></g><g transform="translate(7.293 -19.53)"><title>Sheet.22704</title><path d="M39.26 79.9c-3.37-2.81-7.66-4.49-12.33-4.49-10.85 0-19.64 9.07-19.64 20.25 0 .24.01.48.02.72C2.85 92.67 0 86.99 0 80.62c0-11.18 8.79-20.25 19.64-20.25 10.61 0 19.25 8.68 19.62 19.53" style="fill:#000;fill-opacity:.31999996;stroke:none;stroke-width:.75;stroke-linecap:butt"/></g><g transform="translate(7.293 -20.467)"><title>Sheet.22705</title><path d="M39.26 79.9c-3.37-2.81-7.66-4.49-12.33-4.49-10.85 0-19.64 9.07-19.64 20.25 0 .24.01.48.02.72C2.85 92.67 0 86.99 0 80.62c0-11.18 8.79-20.25 19.64-20.25 10.61 0 19.25 8.68 19.62 19.53" style="fill:#000;fill-opacity:.23999999;stroke:none;stroke-width:.75;stroke-linecap:butt"/></g><g transform="translate(7.293 -20.687)"><title>Sheet.22706</title><path d="M39.26 79.9c-3.37-2.81-7.66-4.49-12.33-4.49-10.85 0-19.64 9.07-19.64 20.25 0 .24.01.48.02.72C2.85 92.67 0 86.99 0 80.62c0-11.18 8.79-20.25 19.64-20.25 10.61 0 19.25 8.68 19.62 19.53" style="fill:url(#b);stroke:none;stroke-width:.75;stroke-linecap:butt"/></g><title>Sheet.22707</title><path d="M39.26 76.85c-3.37 2.81-7.66 4.49-12.33 4.49-10.85 0-19.64-9.07-19.64-20.25 0-.24.01-.48.02-.72C2.85 64.08 0 69.76 0 76.13c0 11.18 8.79 20.25 19.64 20.25 10.61 0 19.25-8.68 19.62-19.53" style="fill:#000;fill-opacity:.31999996;stroke:none;stroke-width:.75;stroke-linecap:butt"/><g transform="translate(0 -.937)"><title>Sheet.22708</title><path d="M39.26 76.85c-3.37 2.81-7.66 4.49-12.33 4.49-10.85 0-19.64-9.07-19.64-20.25 0-.24.01-.48.02-.72C2.85 64.08 0 69.76 0 76.13c0 11.18 8.79 20.25 19.64 20.25 10.61 0 19.25-8.68 19.62-19.53" style="fill:#000;fill-opacity:.23999999;stroke:none;stroke-width:.75;stroke-linecap:butt"/></g><g transform="translate(0 -1.157)"><title>Sheet.22709</title><path d="M39.26 76.85c-3.37 2.81-7.66 4.49-12.33 4.49-10.85 0-19.64-9.07-19.64-20.25 0-.24.01-.48.02-.72C2.85 64.08 0 69.76 0 76.13c0 11.18 8.79 20.25 19.64 20.25 10.61 0 19.25-8.68 19.62-19.53" style="fill:url(#c);stroke:none;stroke-width:.75;stroke-linecap:butt"/></g><g transform="translate(26.93)"><title>Sheet.22710</title><path d="M0 94.94c7.23-2.99 12.34-10.28 12.34-18.81 0-8.52-5.11-15.82-12.34-18.8 2.25-.93 4.72-1.45 7.29-1.45 10.85 0 19.64 9.07 19.64 20.25S18.14 96.38 7.29 96.38c-2.57 0-5.04-.51-7.29-1.44" style="fill:#000;fill-opacity:.31999996;stroke:none;stroke-width:.75;stroke-linecap:butt"/></g><g transform="translate(26.93 -.937)"><title>Sheet.22711</title><path d="M0 94.94c7.23-2.99 12.34-10.28 12.34-18.81 0-8.52-5.11-15.82-12.34-18.8 2.25-.93 4.72-1.45 7.29-1.45 10.85 0 19.64 9.07 19.64 20.25S18.14 96.38 7.29 96.38c-2.57 0-5.04-.51-7.29-1.44" style="fill:#000;fill-opacity:.23999999;stroke:none;stroke-width:.75;stroke-linecap:butt"/></g><g transform="translate(26.93 -1.157)"><title>Sheet.22712</title><path d="M0 94.94c7.23-2.99 12.34-10.28 12.34-18.81 0-8.52-5.11-15.82-12.34-18.8 2.25-.93 4.72-1.45 7.29-1.45 10.85 0 19.64 9.07 19.64 20.25S18.14 96.38 7.29 96.38c-2.57 0-5.04-.51-7.29-1.44" style="fill:url(#d);stroke:none;stroke-width:.75;stroke-linecap:butt"/></g></g></g></svg>