<svg xmlns="http://www.w3.org/2000/svg" xml:space="preserve" width="53.86" height="56.698" style="font-size:12px;overflow:visible;color-interpolation-filters:sRGB;fill-rule:evenodd;stroke-linecap:square;stroke-miterlimit:3" viewBox="0 0 53.86 56.698"><defs><linearGradient id="a" x1="0" x2="54.615" y1="40.433" y2="40.433" gradientTransform="scale(.98618 1.01401)" gradientUnits="userSpaceOnUse"><stop offset="0" stop-color="#8661c5"/><stop offset="1" stop-color="#5c428b"/></linearGradient><linearGradient id="b" x1="0" x2="39.011" y1="56.032" y2="56.032" gradientTransform="scale(.98613 1.01407)" gradientUnits="userSpaceOnUse"><stop offset="0" stop-color="#cd9ef0"/><stop offset="1" stop-color="#9f75d3"/></linearGradient><linearGradient id="c" x1="0" x2="34.45" y1="30.122" y2="30.122" gradientTransform="scale(.66996 1.49262)" gradientUnits="userSpaceOnUse"><stop offset="0" stop-color="#f1d9ff"/><stop offset="1" stop-color="#e4b4ff"/></linearGradient></defs><g transform="translate(-5.386 -5.666)"><title>Page-1</title><g transform="translate(5.386 -34.016)"><title>Application Core HR.22713</title><title>Sheet.22714</title><title>Sheet.22715</title><g transform="translate(0 -1.318)"><title>Sheet.22716</title><path d="M0 93.74a2.565 2.637-180 0 0 2.56 2.64h48.73a2.565 2.637-180 0 0 2.57-2.64v-50.1A2.565 2.637-180 0 0 51.29 41H2.56A2.565 2.637-180 0 0 0 43.64Z" style="fill:url(#a);stroke:none;stroke-width:.75;stroke-linecap:butt"/></g><g transform="translate(0 -1.068)"><title>Sheet.22717</title><path d="M0 56.82h35.91c1.41 0 2.56 1.19 2.56 2.64v36.92H0Z" style="fill:#000;fill-opacity:.23999999;stroke:none;stroke-width:.75;stroke-linecap:butt"/></g><g transform="translate(0 -1.068)"><title>Sheet.22718</title><path d="M0 56.82h35.91c1.41 0 2.56 1.19 2.56 2.64v36.92H0Z" style="fill:#000;fill-opacity:.31999996;stroke:none;stroke-width:.75;stroke-linecap:butt"/></g><g transform="translate(0 -1.318)"><title>Sheet.22719</title><path d="M0 56.82h35.91c1.41 0 2.56 1.19 2.56 2.64v36.92H0Z" style="fill:url(#b);stroke:none;stroke-width:.75;stroke-linecap:butt"/></g><g transform="translate(0 -1.068)"><title>Sheet.22720</title><path d="M11.54 68.69c6.37 0 11.54-5.31 11.54-11.87 0-6.55-5.17-11.86-11.54-11.86S0 50.27 0 56.82c0 6.56 5.17 11.87 11.54 11.87m8.98 3.96H0v23.73h23.08v-21.1c0-1.45-1.15-2.63-2.56-2.63" style="fill:#000;fill-opacity:.23999999;stroke:none;stroke-width:.75;stroke-linecap:butt"/></g><title>Sheet.22721</title><path d="M11.54 68.69c6.37 0 11.54-5.31 11.54-11.87 0-6.55-5.17-11.86-11.54-11.86S0 50.27 0 56.82c0 6.56 5.17 11.87 11.54 11.87m8.98 3.96H0v23.73h23.08v-21.1c0-1.45-1.15-2.63-2.56-2.63" style="fill:#000;fill-opacity:.31999996;stroke:none;stroke-width:.75;stroke-linecap:butt"/><g transform="translate(0 -1.318)"><title>Sheet.22722</title><path d="M11.54 68.69c6.37 0 11.54-5.31 11.54-11.87 0-6.55-5.17-11.86-11.54-11.86S0 50.27 0 56.82c0 6.56 5.17 11.87 11.54 11.87m8.98 3.96H0v23.73h23.08v-21.1c0-1.45-1.15-2.63-2.56-2.63" style="fill:url(#c);stroke:none;stroke-width:.75;stroke-linecap:butt"/></g></g></g></svg>