<svg xmlns="http://www.w3.org/2000/svg" xml:space="preserve" width="44.908" height="56.238" style="font-size:12px;overflow:visible;color-interpolation-filters:sRGB;fill-rule:evenodd;stroke-linecap:square;stroke-miterlimit:3" viewBox="0 0 44.908 56.238"><defs><linearGradient id="a" x1=".222" x2="36.012" y1="60.569" y2="60.569" gradientTransform="scale(1.00217 .99784)" gradientUnits="userSpaceOnUse"><stop offset="0" stop-color="#8661c5"/><stop offset="1" stop-color="#5c428b"/></linearGradient><linearGradient id="b" x1=".222" x2="35.981" y1="60.603" y2="60.603" gradientTransform="scale(1.0022 .9978)" gradientUnits="userSpaceOnUse"><stop offset="0" stop-color="#ebc7ff"/><stop offset="1" stop-color="#e4b4ff"/></linearGradient><linearGradient id="c" x1="0" x2="19.806" y1="73.128" y2="73.128" gradientTransform="scale(.96425 1.03708)" gradientUnits="userSpaceOnUse"><stop offset="0" stop-color="#f8ecff"/><stop offset="1" stop-color="#f1d9ff"/></linearGradient><linearGradient id="d" x1="0" x2="15.917" y1="85.084" y2="85.084" gradientTransform="scale(1.05045 .95197)" gradientUnits="userSpaceOnUse"><stop offset="0" stop-color="#cd9ef0"/><stop offset="1" stop-color="#9f75d3"/></linearGradient></defs><g transform="translate(-4.758 -5.896)"><title>Page-1</title><g transform="translate(4.535 -34.016)"><title>Application Finance and Operations.22651</title><title>Sheet.22652</title><title>Sheet.22653</title><title>Sheet.22654</title><path d="M16.06 61.12c.9-.91 2.35-.91 3.24 0l16.79 17.17L19.3 95.46c-.89.92-2.34.92-3.24 0L.89 79.95c-.89-.91-.89-2.4 0-3.31Z" style="fill:url(#a);stroke:none;stroke-width:.75;stroke-linecap:butt"/><g transform="translate(.002 -19.39)"><title>Sheet.22655</title><path d="M16.05 61.16c.89-.92 2.34-.92 3.24 0l16.77 17.15-16.77 17.15c-.9.92-2.35.92-3.24 0L.89 79.97c-.89-.92-.89-2.4 0-3.32Z" style="fill:#000;fill-opacity:.31999996;stroke:none;stroke-width:.75;stroke-linecap:butt"/></g><g transform="translate(.002 -20.338)"><title>Sheet.22656</title><path d="M16.05 61.16c.89-.92 2.34-.92 3.24 0l16.77 17.15-16.77 17.15c-.9.92-2.35.92-3.24 0L.89 79.97c-.89-.92-.89-2.4 0-3.32Z" style="fill:#000;fill-opacity:.23999999;stroke:none;stroke-width:.75;stroke-linecap:butt"/></g><g transform="translate(.002 -20.558)"><title>Sheet.22657</title><path d="M16.05 61.16c.89-.92 2.34-.92 3.24 0l16.77 17.15-16.77 17.15c-.9.92-2.35.92-3.24 0L.89 79.97c-.89-.92-.89-2.4 0-3.32Z" style="fill:url(#b);stroke:none;stroke-width:.75;stroke-linecap:butt"/></g><g transform="translate(26.033 -18.087)"><title>Sheet.22658</title><path d="m10.03 75.84 8.4 8.58c.89.91.89 2.39 0 3.31l-8.37 8.65L0 86.09Z" style="fill:url(#c);stroke:none;stroke-width:.75;stroke-linecap:butt"/></g><g transform="translate(9.319 -20.558)"><title>Sheet.22659</title><path d="m16.72 88.57-6.75 6.89c-.89.92-2.34.92-3.24 0L0 88.58l6.75-6.9c.89-.91 2.34-.91 3.24 0z" style="fill:url(#d);stroke:none;stroke-width:.75;stroke-linecap:butt"/></g></g></g></svg>