<svg xmlns="http://www.w3.org/2000/svg" xml:space="preserve" width="53.86" height="56.697" style="font-size:12px;overflow:visible;color-interpolation-filters:sRGB;fill-rule:evenodd;stroke-linecap:square;stroke-miterlimit:3" viewBox="0 0 53.86 56.697"><defs><linearGradient id="a" x1="0" x2="54.694" y1="40.218" y2="40.218" gradientTransform="scale(.98476 1.01548)" gradientUnits="userSpaceOnUse"><stop offset="0" stop-color="#0b7418"/><stop offset="1" stop-color="#158915"/></linearGradient><linearGradient id="b" x1="0" x2="43.951" y1="32.318" y2="32.318" gradientTransform="scale(.79134 1.26368)" gradientUnits="userSpaceOnUse"><stop offset="0" stop-color="#4fb918"/><stop offset="1" stop-color="#8fdc50"/></linearGradient><linearGradient id="c" x1="0" x2="32.545" y1="23.931" y2="23.931" gradientTransform="scale(.58597 1.70658)" gradientUnits="userSpaceOnUse"><stop offset="0" stop-color="#c3f488"/><stop offset="1" stop-color="#6ad116"/></linearGradient></defs><g transform="translate(-5.386 -5.667)"><title>Page-1</title><g transform="translate(5.386 -34.016)"><title>Application Sustainability Calculator.22486</title><title>Sheet.22487</title><g transform="translate(0 -1.157)"><title>Sheet.22488</title><path d="M0 40.84h53.86v55.54H0Z" style="fill:url(#a);stroke:none;stroke-width:.75;stroke-linecap:butt"/></g><g transform="translate(0 -1.157)"><title>Sheet.22489</title><path d="M0 40.84h53.86L0 96.38Z" style="fill:#34a117;stroke:none;stroke-width:.75;stroke-linecap:butt"/></g><g transform="translate(0 -.937)"><title>Sheet.22490</title><path d="M16.83 40.84C7.54 40.84 0 48.61 0 58.2v38.18l29.53-30.45c3.36-3.47 5.25-8.18 5.25-13.09v-12z" style="fill:#000;fill-opacity:.23999999;stroke:none;stroke-width:.75;stroke-linecap:butt"/></g><title>Sheet.22491</title><path d="M16.83 40.84C7.54 40.84 0 48.61 0 58.2v38.18l29.53-30.45c3.36-3.47 5.25-8.18 5.25-13.09v-12z" style="fill:#000;fill-opacity:.31999996;stroke:none;stroke-width:.75;stroke-linecap:butt"/><g transform="translate(0 -1.157)"><title>Sheet.22492</title><path d="M16.83 40.84C7.54 40.84 0 48.61 0 58.2v38.18l29.53-30.45c3.36-3.47 5.25-8.18 5.25-13.09v-12z" style="fill:url(#b);stroke:none;stroke-width:.75;stroke-linecap:butt"/></g><title>Sheet.22493</title><g transform="translate(0 -.937)"><title>Sheet.22494</title><path d="M13.82 82.13c3.36-3.47 5.25-8.18 5.25-13.09v-28.2h-2.24C7.54 40.84 0 48.61 0 58.2v38.18z" style="fill:#000;fill-opacity:.23999999;stroke:none;stroke-width:.75;stroke-linecap:butt"/></g><title>Sheet.22495</title><path d="M13.82 82.13c3.36-3.47 5.25-8.18 5.25-13.09v-28.2h-2.24C7.54 40.84 0 48.61 0 58.2v38.18z" style="fill:#000;fill-opacity:.31999996;stroke:none;stroke-width:.75;stroke-linecap:butt"/><g transform="translate(0 -1.157)"><title>Sheet.22496</title><path d="M13.82 82.13c3.36-3.47 5.25-8.18 5.25-13.09v-28.2h-2.24C7.54 40.84 0 48.61 0 58.2v38.18z" style="fill:url(#c);stroke:none;stroke-width:.75;stroke-linecap:butt"/></g></g></g></svg>