<svg xmlns="http://www.w3.org/2000/svg" xml:space="preserve" width="56.185" height="51.027" style="font-size:12px;overflow:visible;color-interpolation-filters:sRGB;fill-rule:evenodd;stroke-linecap:square;stroke-miterlimit:3" viewBox="0 0 56.185 51.027"><defs><linearGradient id="a" x1="0" x2="33.33" y1="115.621" y2="115.621" gradientTransform="scale(1.65244 .60517)" gradientUnits="userSpaceOnUse"><stop offset="0" stop-color="#ffed80"/><stop offset="1" stop-color="#ffdb00"/></linearGradient><linearGradient id="b" x1=".152" x2="29.575" y1="102.068" y2="102.068" gradientTransform="scale(1.45874 .68552)" gradientUnits="userSpaceOnUse"><stop offset="0" stop-color="#ea8200"/><stop offset="1" stop-color="#c46a08"/></linearGradient><linearGradient id="c" x1=".325" x2="37.739" y1="30.253" y2="30.253" gradientTransform="scale(.75069 1.33212)" gradientUnits="userSpaceOnUse"><stop offset="0" stop-color="#fac240"/><stop offset=".2" stop-color="#f29800"/></linearGradient></defs><g transform="translate(-5.913 -5.098)"><title>Page-1</title><g transform="translate(5.67 -34.016)"><title>Application Commerce.22733</title><title>Sheet.22734</title><title>Sheet.22735</title><g transform="translate(1.354 -27.292)"><title>Sheet.22736</title><path d="M55.02 72.85c.32-1.48-.79-2.88-2.29-2.88H0l3.73 20.17h45.7c1.1 0 2.06-.78 2.29-1.87z" style="fill:url(#a);stroke:none;stroke-width:.75;stroke-linecap:butt"/></g><g transform="translate(6.316 -1.187)"><title>Sheet.22737</title><path d="M43.09 72.83c.31-1.47-.8-2.86-2.29-2.86H2.57c-1.47 0-2.57 1.34-2.31 2.8l2.76 15.42c.2 1.13 1.17 1.95 2.31 1.95h32.25c1.11 0 2.07-.78 2.3-1.88z" style="fill:url(#b);stroke:none;stroke-width:.75;stroke-linecap:butt"/></g><title>Sheet.22738</title><path d="M2.59 40.3c-1.48 0-2.59 1.38-2.3 2.84l8.92 45.09a2.35 2.35 0 0 0 2.3 1.91h16.82l-9.01-47.91a2.345 2.345 0 0 0-2.3-1.93Z" style="fill:#000;fill-opacity:.31999996;stroke:none;stroke-width:.75;stroke-linecap:butt"/><g transform="translate(0 -.961)"><title>Sheet.22739</title><path d="M2.59 40.3c-1.48 0-2.59 1.38-2.3 2.84l8.92 45.09a2.35 2.35 0 0 0 2.3 1.91h16.82l-9.01-47.91a2.345 2.345 0 0 0-2.3-1.93Z" style="fill:#000;fill-opacity:.23999999;stroke:none;stroke-width:.75;stroke-linecap:butt"/></g><g transform="translate(0 -1.187)"><title>Sheet.22740</title><path d="M2.59 40.3c-1.48 0-2.59 1.38-2.3 2.84l8.92 45.09a2.35 2.35 0 0 0 2.3 1.91h16.82l-9.01-47.91a2.345 2.345 0 0 0-2.3-1.93Z" style="fill:url(#c);stroke:none;stroke-width:.75;stroke-linecap:butt"/></g></g></g></svg>