<svg xmlns="http://www.w3.org/2000/svg" xml:space="preserve" width="56.692" height="56.695" style="font-size:12px;overflow:visible;color-interpolation-filters:sRGB;fill-rule:evenodd;stroke-linecap:square;stroke-miterlimit:3" viewBox="0 0 56.692 56.695"><defs><linearGradient id="a" x1="0" x2="49.606" y1="47.146" y2="47.146" gradientUnits="userSpaceOnUse"><stop offset="0" stop-color="#0078d4"/><stop offset="1" stop-color="#2064ae"/></linearGradient><linearGradient id="b" x1="0" x2="33.07" y1="63.68" y2="63.68" gradientUnits="userSpaceOnUse"><stop offset="0" stop-color="#40c4f5"/><stop offset="1" stop-color="#0095e6"/></linearGradient><linearGradient id="c" x1="0" x2="15.35" y1="81.4" y2="81.4" gradientUnits="userSpaceOnUse"><stop offset="0" stop-color="#a7f2ff"/><stop offset="1" stop-color="#7cecff"/></linearGradient></defs><g transform="translate(-6.044 -6.042)"><title>Page-1</title><g transform="translate(6.044 -34.016)"><title>Application Sales.22518</title><title>g32</title><title>circle5</title><circle cx="24.803" cy="71.95" r="24.803" style="fill:url(#a);stroke:none;stroke-width:6.04396009;stroke-linecap:butt"/><g transform="translate(23.622 -22.44)"><title>path7</title><path d="M32.88 95.32c.13-1.08.19-2.18.19-3.29 0-15.66-12.69-28.35-28.35-28.35-1.11 0-2.21.07-3.28.19-.85.36-1.44 1.2-1.44 2.17v30.71h30.71c.97 0 1.81-.59 2.17-1.43" style="fill:#000;fill-opacity:.31999996;stroke:none;stroke-width:6.04396009;stroke-linecap:butt"/></g><g transform="translate(23.622 -23.398)"><title>path11</title><path d="M32.88 95.32c.13-1.08.19-2.18.19-3.29 0-15.66-12.69-28.35-28.35-28.35-1.11 0-2.21.07-3.28.19-.85.36-1.44 1.2-1.44 2.17v30.71h30.71c.97 0 1.81-.59 2.17-1.43" style="fill:#000;fill-opacity:.23999999;stroke:none;stroke-width:6.04396009;stroke-linecap:butt"/></g><g transform="translate(23.622 -23.622)"><title>path15</title><path d="M32.88 95.32c.13-1.08.19-2.18.19-3.29 0-15.66-12.69-28.35-28.35-28.35-1.11 0-2.21.07-3.28.19-.85.36-1.44 1.2-1.44 2.17v30.71h30.71c.97 0 1.81-.59 2.17-1.43" style="fill:url(#b);stroke:none;stroke-width:6.04396009;stroke-linecap:butt"/></g><g transform="translate(23.622 -22.44)"><title>g30</title><title>path20</title><path d="M0 81.4h12.99c1.31 0 2.36 1.06 2.36 2.36v12.99H0Z" style="fill:#000;fill-opacity:.31999996;stroke:none;stroke-width:6.04396009;stroke-linecap:butt"/><g transform="translate(0 -.957)"><title>path24</title><path d="M0 81.4h12.99c1.31 0 2.36 1.06 2.36 2.36v12.99H0Z" style="fill:#000;fill-opacity:.23999999;stroke:none;stroke-width:6.04396009;stroke-linecap:butt"/></g><g transform="translate(0 -1.181)"><title>path28</title><path d="M0 81.4h12.99c1.31 0 2.36 1.06 2.36 2.36v12.99H0Z" style="fill:url(#c);stroke:none;stroke-width:6.04396009;stroke-linecap:butt"/></g></g></g></g></svg>