<svg xmlns="http://www.w3.org/2000/svg" xml:space="preserve" width="50.273" height="50.663" style="font-size:12px;overflow:visible;color-interpolation-filters:sRGB;fill-rule:evenodd;stroke-linecap:square;stroke-miterlimit:3" viewBox="0 0 50.273 50.663"><defs><linearGradient id="a" x1="0" x2="39.587" y1="68.024" y2="68.024" gradientTransform="scale(1.19382 .83765)" gradientUnits="userSpaceOnUse"><stop offset="0" stop-color="#2a6980"/><stop offset="1" stop-color="#0b3239"/></linearGradient><linearGradient id="b" x1="0" x2="46.423" y1="45.343" y2="45.343" gradientTransform="scale(1.01804 .98228)" gradientUnits="userSpaceOnUse"><stop offset="0" stop-color="#007991"/><stop offset="1" stop-color="#36a0b5"/></linearGradient><linearGradient id="c" x1="0" x2="28.53" y1="27.867" y2="27.867" gradientTransform="scale(.62566 1.59832)" gradientUnits="userSpaceOnUse"><stop offset="0" stop-color="#1bb5d3"/><stop offset="1" stop-color="#169cb7"/></linearGradient><linearGradient id="d" x1="6.688" x2="39.414" y1="53.486" y2="53.486" gradientTransform="scale(.96025 1.0414)" gradientUnits="userSpaceOnUse"><stop offset="0" stop-color="#8aecff"/><stop offset="1" stop-color="#caf7ff"/></linearGradient></defs><g transform="translate(-12.091 -5.102)"><title>Page-1</title><g transform="translate(5.67 -34.016)"><title>Application Return To School.22552</title><title>Sheet.22553</title><g transform="translate(9.435 -11.64)"><title>Sheet.22554</title><path d="M41.48 56.98H5.78L0 66.3v23.84h47.26V66.3Z" style="fill:url(#a);stroke:none;stroke-width:.75;stroke-linecap:butt"/></g><g transform="translate(9.435 -5.215)"><title>Sheet.22555</title><path d="m14.7 60.09 8.93-15.55 8.93 15.55h14.7v30.05H21c-11.6 0-21-9.28-21-20.73v-9.32z" style="fill:#000;fill-opacity:.23999999;stroke:none;stroke-width:.75;stroke-linecap:butt"/></g><g transform="translate(9.435 -4.385)"><title>Sheet.22556</title><path d="m14.7 60.09 8.93-15.55 8.93 15.55h14.7v30.05H21c-11.6 0-21-9.28-21-20.73v-9.32z" style="fill:#000;fill-opacity:.31999996;stroke:none;stroke-width:.75;stroke-linecap:butt"/></g><g transform="translate(9.435 -5.422)"><title>Sheet.22557</title><path d="m14.7 60.09 8.93-15.55 8.93 15.55h14.7v30.05H21c-11.6 0-21-9.28-21-20.73v-9.32z" style="fill:url(#b);stroke:none;stroke-width:.75;stroke-linecap:butt"/></g><g transform="translate(24.138 -5.422)"><title>Sheet.22558</title><path d="M17.85 60.09v30.05H0V60.09l8.93-15.55Z" style="fill:url(#c);stroke:none;stroke-width:.75;stroke-linecap:butt"/></g><g transform="translate(26.238 -27.186)"><title>Sheet.22559</title><ellipse cx="6.826" cy="83.405" rx="6.826" ry="6.737" style="fill:#49d1e9;stroke:none;stroke-width:.75;stroke-linecap:butt"/></g><g transform="translate(0 -.83)"><title>Sheet.22560</title><path d="M26.24 85.76c-11.55 0-26.24-.01-16.8-30.06 0 12.72 5.25 14.49 16.8 14.49v-3.01c0-.95 1.18-1.4 1.83-.69l9.23 10.08c.73.79.73 1.99 0 2.78l-9.23 10.09c-.65.7-1.83.25-1.83-.7z" style="fill:#000;fill-opacity:.23999999;stroke:none;stroke-width:.75;stroke-linecap:butt"/></g><title>Sheet.22561</title><path d="M26.24 85.76c-11.55 0-26.24-.01-16.8-30.06 0 12.72 5.25 14.49 16.8 14.49v-3.01c0-.95 1.18-1.4 1.83-.69l9.23 10.08c.73.79.73 1.99 0 2.78l-9.23 10.09c-.65.7-1.83.25-1.83-.7z" style="fill:#000;fill-opacity:.31999996;stroke:none;stroke-width:.75;stroke-linecap:butt"/><g transform="translate(0 -1.036)"><title>Sheet.22562</title><path d="M26.24 85.76c-11.55 0-26.24-.01-16.8-30.06 0 12.72 5.25 14.49 16.8 14.49v-3.01c0-.95 1.18-1.4 1.83-.69l9.23 10.08c.73.79.73 1.99 0 2.78l-9.23 10.09c-.65.7-1.83.25-1.83-.7z" style="fill:url(#d);stroke:none;stroke-width:.75;stroke-linecap:butt"/></g></g></g></svg>