<svg xmlns="http://www.w3.org/2000/svg" xml:space="preserve" width="42.524" height="56.697" style="font-size:12px;overflow:visible;color-interpolation-filters:sRGB;fill-rule:evenodd;stroke-linecap:square;stroke-miterlimit:3" viewBox="0 0 42.524 56.697"><defs><linearGradient id="a" x1="0" x2="39.073" y1="65.381" y2="65.381" gradientTransform="scale(1.08823 .91892)" gradientUnits="userSpaceOnUse"><stop offset="0" stop-color="#0b53ce"/><stop offset="1" stop-color="#7252aa"/></linearGradient><linearGradient id="b" x1="0" x2="34.382" y1="54.173" y2="54.173" gradientTransform="scale(.9188 1.08837)" gradientUnits="userSpaceOnUse"><stop offset="0" stop-color="#2266e3"/><stop offset="1" stop-color="#ae7fe2"/></linearGradient><linearGradient id="c" x1="0" x2="34.382" y1="54.173" y2="54.173" gradientTransform="scale(.9188 1.08837)" gradientUnits="userSpaceOnUse"><stop offset="0" stop-color="#94b9ff"/><stop offset=".29" stop-color="#94b9ff"/><stop offset="1" stop-color="#538fff"/></linearGradient></defs><g transform="translate(-4.252 -5.667)"><title>Page-1</title><g transform="translate(4.252 -34.016)"><title>Dynamics 365.22454</title><title>Sheet.22455</title><title>Sheet.22456</title><g transform="translate(0 -20.397)"><title>Sheet.22457</title><path d="m0 60.08 42.52 14.18v19.45c0 1.57-1.66 2.67-3.25 2.14l-8.9-2.97V81.87c0-2.37-1.57-4.48-3.94-5.31l-4.14-1.45c-.79-.28-1.64.27-1.64 1.06v13.47L0 82.76Z" style="fill:url(#a);stroke:none;stroke-width:.75;stroke-linecap:butt"/></g><g transform="translate(10.934 -.907)"><title>Sheet.22458</title><path d="M31.59 58.96c0 2.38-1.6 4.51-3.99 5.33L0 73.7v22.68l31.59-10.77Z" style="fill:#000;fill-opacity:.23999999;stroke:none;stroke-width:.75;stroke-linecap:butt"/></g><g transform="translate(10.934)"><title>Sheet.22459</title><path d="M31.59 58.96c0 2.38-1.6 4.51-3.99 5.33L0 73.7v22.68l31.59-10.77Z" style="fill:#000;fill-opacity:.31999996;stroke:none;stroke-width:.75;stroke-linecap:butt"/></g><g transform="translate(10.934 -1.134)"><title>Sheet.22460</title><path d="M31.59 58.96c0 2.38-1.6 4.51-3.99 5.33L0 73.7v22.68l31.59-10.77Z" style="fill:url(#b);stroke:none;stroke-width:.75;stroke-linecap:butt"/></g><g transform="translate(10.934 -1.134)"><title>Sheet.22461</title><path d="M31.59 58.96c0 2.38-1.6 4.51-3.99 5.33L0 73.7v22.68l31.59-10.77Z" style="fill:url(#c);stroke:none;stroke-width:.75;stroke-linecap:butt"/></g><g transform="translate(20.648 -12.473)"><title>Sheet.22462</title><path d="M9.72 78.42 0 81.74v13.3c0 .79.85 1.34 1.64 1.06l4.15-1.46c2.37-.83 3.93-2.94 3.93-5.3z" style="fill:#b0adff;fill-opacity:.5;stroke:none;stroke-width:.75;stroke-linecap:butt"/></g></g></g></svg>