<svg xmlns="http://www.w3.org/2000/svg" xml:space="preserve" width="51.02" height="56.488" style="font-size:12px;overflow:visible;color-interpolation-filters:sRGB;fill-rule:evenodd;stroke-linecap:square;stroke-miterlimit:3" viewBox="0 0 51.02 56.488"><defs><linearGradient id="a" x1="0" x2="53.681" y1="38.906" y2="38.906" gradientTransform="scale(.95044 1.05215)" gradientUnits="userSpaceOnUse"><stop offset="0" stop-color="#0078d4"/><stop offset="1" stop-color="#2064ae"/></linearGradient><linearGradient id="b" x1="0" x2="45.243" y1="64.617" y2="64.617" gradientTransform="scale(1.12769 .88677)" gradientUnits="userSpaceOnUse"><stop offset="0" stop-color="#40c4f5"/><stop offset="1" stop-color="#0095e6"/></linearGradient><linearGradient id="c" x1="0" x2="26.597" y1="66.837" y2="66.837" gradientTransform="scale(.95914 1.0426)" gradientUnits="userSpaceOnUse"><stop offset="0" stop-color="#7cecff"/><stop offset="1" stop-color="#50e6ff"/></linearGradient><linearGradient id="d" x1=".095" x2="18.266" y1="112.031" y2="112.031" gradientTransform="scale(1.33653 .7482)" gradientUnits="userSpaceOnUse"><stop offset="0" stop-color="#a7f2ff"/><stop offset="1" stop-color="#7cecff"/></linearGradient></defs><g transform="translate(-6.914 -6.916)"><title>Page-1</title><g transform="translate(6.914 -34.016)"><title>Mixed Reality Remote Assist.22407</title><title>g21</title><g transform="translate(0 -.003)"><title>path5</title><path d="M24.31 41.25c.74-.42 1.66-.42 2.41 0L49.8 54.19c.76.42 1.22 1.21 1.22 2.07v25.83c0 .86-.46 1.65-1.22 2.07L26.72 97.1c-.75.42-1.67.42-2.41 0L1.22 84.16A2.38 2.38 0 0 1 0 82.09V56.26c0-.86.47-1.65 1.22-2.07Z" style="fill:url(#a);stroke:none;stroke-width:6.9144702;stroke-linecap:butt"/></g><title>path7</title><path d="M0 69.03V69l.03.02 15.76-8.49.53 17.72 7.98 4.53c.75.43 1.68.43 2.43 0L51.02 69V57.3v25.11c0 .87-.47 1.67-1.24 2.09L26.69 97.12c-.73.4-1.63.4-2.36 0L1.25 84.5A2.38 2.38 0 0 1 0 82.41v-1.32z" style="fill:url(#b);stroke:none;stroke-width:6.9144702;stroke-linecap:butt"/><g transform="translate(12.759 -14.076)"><title>path9</title><path d="M11.55 70c.74-.42 1.66-.42 2.41 0l10.33 5.78c.75.42 1.22 1.21 1.22 2.07v11.38c0 .85-.46 1.64-1.22 2.07l-10.33 5.8c-.75.42-1.67.42-2.41 0L1.22 91.32A2.4 2.4 0 0 1 0 89.25V77.86c0-.86.47-1.65 1.22-2.07Z" style="fill:#000;fill-opacity:.23999999;stroke:none;stroke-width:6.9144702;stroke-linecap:butt"/></g><g transform="translate(12.759 -13.48)"><title>path13</title><path d="M11.55 70c.74-.42 1.66-.42 2.41 0l10.33 5.78c.75.42 1.22 1.21 1.22 2.07v11.38c0 .85-.46 1.64-1.22 2.07l-10.33 5.8c-.75.42-1.67.42-2.41 0L1.22 91.32A2.4 2.4 0 0 1 0 89.25V77.86c0-.86.47-1.65 1.22-2.07Z" style="fill:#000;fill-opacity:.31999996;stroke:none;stroke-width:6.9144702;stroke-linecap:butt"/></g><g transform="translate(12.759 -14.304)"><title>path17</title><path d="M11.55 70c.74-.42 1.66-.42 2.41 0l10.33 5.78c.75.42 1.22 1.21 1.22 2.07v11.38c0 .85-.46 1.64-1.22 2.07l-10.33 5.8c-.75.42-1.67.42-2.41 0L1.22 91.32A2.4 2.4 0 0 1 0 89.25V77.86c0-.86.47-1.65 1.22-2.07Z" style="fill:url(#c);stroke:none;stroke-width:6.9144702;stroke-linecap:butt"/></g><g transform="translate(13.242 -28.364)"><title>path19</title><path d="m11.08 84.13-10.5 5.8v.01c-.05.02-.1.05-.15.08-.43.31-.4.98.08 1.25l10.57 5.84c.74.41 1.64.41 2.38 0l10.57-5.84c.48-.27.51-.94.08-1.25l-.15-.09-10.5-5.8c-.74-.41-1.64-.41-2.38 0" style="fill:url(#d);stroke:none;stroke-width:6.9144702;stroke-linecap:butt"/></g></g></g></svg>