<svg xmlns="http://www.w3.org/2000/svg" xml:space="preserve" width="48.191" height="56.697" style="font-size:12px;overflow:visible;color-interpolation-filters:sRGB;fill-rule:evenodd;stroke-linecap:square;stroke-miterlimit:3" viewBox="0 0 48.191 56.697"><defs><linearGradient id="a" x1="0" x2="51.735" y1="38.042" y2="38.042" gradientTransform="scale(.93148 1.07356)" gradientUnits="userSpaceOnUse"><stop offset="0" stop-color="#fac240"/><stop offset="1" stop-color="#f29800"/></linearGradient><linearGradient id="b" x1="0" x2="25.865" y1="63.903" y2="63.903" gradientTransform="scale(.93139 1.07367)" gradientUnits="userSpaceOnUse"><stop offset="0" stop-color="#ea8200"/><stop offset="1" stop-color="#c46a08"/></linearGradient><linearGradient id="c" x1="0" x2="18.292" y1="108.635" y2="108.635" gradientTransform="scale(1.31694 .75933)" gradientUnits="userSpaceOnUse"><stop offset="0" stop-color="#f5b240"/><stop offset="1" stop-color="#ea8200"/></linearGradient><linearGradient id="d" x1="0" x2="31.676" y1="41.623" y2="41.623" gradientTransform="scale(.76052 1.31489)" gradientUnits="userSpaceOnUse"><stop offset="0" stop-color="#ffed80"/><stop offset="1" stop-color="#ffdb00"/></linearGradient></defs><g transform="translate(-4.819 -5.667)"><title>Page-1</title><g transform="translate(4.819 -34.016)"><title>Mixed Reality Import Tool.22436</title><title>Sheet.22437</title><title>Sheet.22438</title><g transform="translate(0 -1.157)"><title>Sheet.22439</title><path d="M24.09 96.38 0 82.49V54.73l24.09-13.89 24.1 13.89v27.76z" style="fill:url(#a);stroke:none;stroke-width:.75;stroke-linecap:butt"/></g><g transform="translate(12.048 -15.041)"><title>Sheet.22440</title><path d="M12.05 96.38 0 89.44V75.55l12.05-6.94 12.04 6.94v13.89z" style="fill:url(#b);stroke:none;stroke-width:.75;stroke-linecap:butt"/></g><g transform="translate(12.048 -28.925)"><title>Sheet.22441</title><path d="M12.05 96.38 0 89.44l12.05-6.95 12.04 6.95Z" style="fill:url(#c);stroke:none;stroke-width:.75;stroke-linecap:butt"/></g><title>Sheet.22442</title><path d="M24.09 96.38 0 82.49V54.73l24.09 13.88z" style="fill:#000;fill-opacity:.2;stroke:none;stroke-width:.75;stroke-linecap:butt"/><g transform="translate(0 -.937)"><title>Sheet.22443</title><path d="M24.09 96.38 0 82.49V54.73l24.09 13.88z" style="fill:#000;fill-opacity:.18000004;stroke:none;stroke-width:.75;stroke-linecap:butt"/></g><g transform="translate(0 -1.157)"><title>Sheet.22444</title><path d="M24.09 96.38 0 82.49V54.73l24.09 13.88z" style="fill:url(#d);stroke:none;stroke-width:.75;stroke-linecap:butt"/></g></g></g></svg>