<svg xmlns="http://www.w3.org/2000/svg" xml:space="preserve" width="56.69" height="50.762" style="font-size:12px;overflow:visible;color-interpolation-filters:sRGB;fill-rule:evenodd;stroke-linecap:square;stroke-miterlimit:3" viewBox="0 0 56.69 50.762"><defs><linearGradient id="a" x1=".232" x2="22.293" y1="122.433" y2="122.433" gradientTransform="scale(1.59152 .62833)" gradientUnits="userSpaceOnUse"><stop offset="0" stop-color="#22b8f1"/><stop offset="1" stop-color="#018de1"/></linearGradient><linearGradient id="b" x1="0" x2="41.235" y1="83.611" y2="83.611" gradientTransform="scale(1.3748 .72738)" gradientUnits="userSpaceOnUse"><stop offset="0" stop-color="#50e6ff"/><stop offset=".675" stop-color="#0095e6"/><stop offset="1" stop-color="#0078d4"/></linearGradient></defs><g transform="translate(-6.01 -6.013)"><title>Page-1</title><g transform="translate(6.01 -34.016)"><title>Mixed Reality Portal.22424</title><title>g8</title><g transform="translate(10.378)"><title>path2</title><path d="M1.87 77.47C.65 77.9 0 79.24.59 80.37c1.43 2.76 3.54 5.15 6.15 6.95a19.8 19.8 0 0 0 11.12 3.47c3.98.02 7.88-1.15 11.16-3.35 2.63-1.77 4.76-4.14 6.23-6.88.6-1.13-.03-2.47-1.25-2.92l-1.13-.41c-1.22-.45-2.57.17-3.23 1.26-1 1.65-2.36 3.08-3.99 4.17A13.8 13.8 0 0 1 17.89 85c-2.77-.02-5.47-.86-7.73-2.42a13.4 13.4 0 0 1-3.94-4.21c-.65-1.11-1.99-1.74-3.21-1.3Z" style="fill:url(#a);stroke:none;stroke-width:6.00949001;stroke-linecap:butt"/></g><g transform="translate(0 -20.788)"><title>path4</title><path d="M21.49 89.46 25 86.01c1.85-1.8 4.85-1.8 6.69 0l3.52 3.45c.88.86 2.09 1.35 3.34 1.35h3.97c7.83 0 14.17-6.2 14.17-13.84V68c0-1.62-.85-3.15-2.37-3.79-8.55-3.63-21.67-3.39-25.97-3.39-4.31 0-17.42-.24-25.98 3.39C.86 64.85 0 66.38 0 68v8.97c0 7.64 6.35 13.84 14.17 13.84h3.97c1.26 0 2.46-.49 3.35-1.35" style="fill:url(#b);stroke:none;stroke-width:6.00949001;stroke-linecap:butt"/></g><g transform="translate(23.031 -41.555)"><title>rect6</title><path d="M0 88.51a2.362 2.307-180 0 0 2.36 2.3h5.91a2.362 2.307-180 0 0 2.36-2.3 2.362 2.307-180 0 0-2.36-2.31H2.36A2.362 2.307-180 0 0 0 88.51" style="fill:#0078d4;stroke:none;stroke-width:6.00949001;stroke-linecap:butt"/></g></g></g></svg>