<svg xmlns="http://www.w3.org/2000/svg" xml:space="preserve" width="53.86" height="56.697" style="font-size:12px;overflow:visible;color-interpolation-filters:sRGB;fill-rule:evenodd;stroke-linecap:square;stroke-miterlimit:3" viewBox="0 0 53.86 56.697"><defs><linearGradient id="a" x1="0" x2="50.904" y1="51.073" y2="51.073" gradientTransform="scale(1.05807 .94511)" gradientUnits="userSpaceOnUse"><stop offset="0" stop-color="#40c4f5"/><stop offset="1" stop-color="#0095e6"/></linearGradient><linearGradient id="b" x1="0" x2="25.553" y1="77.191" y2="77.191" gradientTransform="scale(1.06603 .93806)" gradientUnits="userSpaceOnUse"><stop offset="0" stop-color="#0078d4"/><stop offset="1" stop-color="#2064ae"/></linearGradient><linearGradient id="c" x1="0" x2="34.792" y1="58.952" y2="58.952" gradientTransform="scale(.97265 1.02812)" gradientUnits="userSpaceOnUse"><stop offset="0" stop-color="#7cecff"/><stop offset="1" stop-color="#50e6ff"/></linearGradient><linearGradient id="d" x1="0" x2="31.066" y1="52.639" y2="52.639" gradientTransform="scale(.86848 1.15143)" gradientUnits="userSpaceOnUse"><stop offset="0" stop-color="#a7f2ff"/><stop offset="1" stop-color="#7cecff"/></linearGradient></defs><g transform="translate(-5.386 -5.667)"><title>Page-1</title><g transform="translate(5.386 -34.016)"><title>Mixed Reality Guide.22445</title><title>Sheet.22446</title><title>Sheet.22447</title><title>Sheet.22448</title><path d="m40.39 48.27 13.47 24.05-13.47 24.06H13.46L0 72.32l13.46-24.05Z" style="fill:url(#a);stroke:none;stroke-width:.75;stroke-linecap:butt"/><g transform="translate(13.211 -12.344)"><title>Sheet.22449</title><path d="m20.58 72.41 6.66 11.72-6.87 12.25H6.64L0 84.67l6.86-12.26Z" style="fill:url(#b);stroke:none;stroke-width:.75;stroke-linecap:butt"/></g><g transform="translate(1.703 -20.707)"><title>Sheet.22450</title><path d="m20.58 60.61 13.26 23.51-6.86 12.26H13.27L0 72.87l6.86-12.26Z" style="fill:#000;fill-opacity:.23999999;stroke:none;stroke-width:.75;stroke-linecap:butt"/></g><g transform="translate(1.713 -19.73)"><title>Sheet.22451</title><path d="m20.58 60.61 13.26 23.51-6.86 12.26H13.27L0 72.87l6.86-12.26Z" style="fill:#000;fill-opacity:.31999996;stroke:none;stroke-width:.75;stroke-linecap:butt"/></g><g transform="translate(1.705 -20.927)"><title>Sheet.22452</title><path d="m20.58 60.61 13.26 23.51-6.86 12.26H13.27L0 72.87l6.86-12.26Z" style="fill:url(#c);stroke:none;stroke-width:.75;stroke-linecap:butt"/></g><g transform="translate(8.564 -20.927)"><title>Sheet.22453</title><path d="m13.72 60.61 13.26 23.51v.01l-6.86 12.25H6.41l6.78-12.12L0 60.61Z" style="fill:url(#d);stroke:none;stroke-width:.75;stroke-linecap:butt"/></g></g></g></svg>