<svg xmlns="http://www.w3.org/2000/svg" xml:space="preserve" width="51.02" height="56.401" style="font-size:12px;overflow:visible;color-interpolation-filters:sRGB;fill-rule:evenodd;stroke-linecap:square;stroke-miterlimit:3" viewBox="0 0 51.02 56.401"><defs><linearGradient id="a" x1="0" x2="53.643" y1="38.329" y2="38.329" gradientTransform="scale(.9511 1.05142)" gradientUnits="userSpaceOnUse"><stop offset="0" stop-color="#0078d4"/><stop offset="1" stop-color="#2064ae"/></linearGradient><linearGradient id="b" x1="0" x2="48.891" y1="52.021" y2="52.021" gradientTransform="scale(1.04354 .95828)" gradientUnits="userSpaceOnUse"><stop offset="0" stop-color="#00b1f2"/><stop offset=".995" stop-color="#0095e6"/></linearGradient><linearGradient id="c" x1="0" x2="43.368" y1="69.03" y2="69.03" gradientTransform="scale(1.16232 .86035)" gradientUnits="userSpaceOnUse"><stop offset="0" stop-color="#7cecff"/><stop offset="1" stop-color="#00ccf9"/></linearGradient></defs><g transform="translate(-6.288 -6.284)"><title>Page-1</title><g transform="translate(6.288 -34.016)"><title>Mixed Reality Voice Assistant.22403</title><title>path5</title><path d="m25.51 40.3 25.51 14.32V73.7L26.74 87.33a2.39 2.39 0 0 0-1.23 2.07v6.11c0 .91-1.01 1.49-1.82 1.03L0 83.25V54.62Z" style="fill:url(#a);stroke:none;stroke-width:6.28778982;stroke-linecap:butt"/><g transform="translate(0 -9.543)"><title>path15</title><path d="m25.51 49.85 25.51 14.31v8.16c0 .86-.46 1.65-1.22 2.07L26.74 87.33a2.39 2.39 0 0 0-1.23 2.07v6.11c0 .91-1.01 1.49-1.82 1.03L1.22 83.93A2.38 2.38 0 0 1 0 81.86v-17.7z" style="fill:url(#b);stroke:none;stroke-width:6.28778982;stroke-linecap:butt"/></g><g transform="translate(0 -19.086)"><title>path17</title><path d="m25.51 59.39 24.59 13.8c.41.23.41.8 0 1.03L26.74 87.33a2.39 2.39 0 0 0-1.23 2.07v6.11c0 .91-1.01 1.49-1.82 1.03L1.22 83.93A2.38 2.38 0 0 1 0 81.86V73.7Z" style="fill:url(#c);stroke:none;stroke-width:6.28778982;stroke-linecap:butt"/></g></g></g></svg>