<svg xmlns="http://www.w3.org/2000/svg" xml:space="preserve" width="56.69" height="56.479" style="font-size:12px;overflow:visible;color-interpolation-filters:sRGB;fill-rule:evenodd;stroke-linecap:square;stroke-miterlimit:3" viewBox="0 0 56.69 56.479"><defs><linearGradient id="a" x1="0" x2="51.112" y1="55.665" y2="55.665" gradientTransform="scale(1.10914 .9016)" gradientUnits="userSpaceOnUse"><stop offset=".21" stop-color="#158915"/><stop offset="1" stop-color="#065f18"/></linearGradient><linearGradient id="b" x1="0" x2="45.468" y1="54.559" y2="54.559" gradientTransform="scale(1.03897 .96249)" gradientUnits="userSpaceOnUse"><stop offset="0" stop-color="#34a117"/><stop offset="1" stop-color="#6ad116"/></linearGradient><linearGradient id="c" x1="0" x2="37.735" y1="52.659" y2="52.659" gradientTransform="scale(.93892 1.06506)" gradientUnits="userSpaceOnUse"><stop offset="0" stop-color="#8fdc50"/><stop offset="1" stop-color="#7bca52"/></linearGradient><linearGradient id="d" x1=".116" x2="26.076" y1="98.967" y2="98.967" gradientTransform="scale(1.29767 .77061)" gradientUnits="userSpaceOnUse"><stop offset="0" stop-color="#c3f488"/><stop offset="1" stop-color="#8fdc50"/></linearGradient></defs><g transform="translate(-5.762 -5.775)"><title>Page-1</title><g transform="translate(5.762 -34.016)"><title>Mixed Reality Product Visualise.22415</title><title>g23</title><title>g21</title><title>path5</title><path d="M55.53 65.89c.72.43 1.16 1.21 1.16 2.04v10.59c0 .84-.44 1.62-1.16 2.04L29.55 95.94c-.74.44-1.66.44-2.4 0L1.16 80.56C.44 80.14 0 79.36 0 78.52V67.93c0-.83.44-1.61 1.16-2.04l25.99-15.38c.74-.43 1.66-.43 2.4 0z" style="fill:url(#a);stroke:none;stroke-width:5.76151991;stroke-linecap:butt"/><g transform="translate(4.724 -7.99)"><title>path7</title><path d="M46.05 83.74c.74-.43 1.19-1.21 1.19-2.06V67.11c0-.85-.45-1.64-1.19-2.06L24.79 52.82a2.38 2.38 0 0 0-2.34 0L1.19 65.05C.45 65.47 0 66.26 0 67.11v14.57c0 .85.45 1.63 1.19 2.06l21.26 12.22c.72.42 1.62.42 2.34 0z" style="fill:url(#b);stroke:none;stroke-width:5.76151991;stroke-linecap:butt"/></g><g transform="translate(10.63 -15.108)"><title>path9</title><path d="M16.54 56.4c.73-.42 1.62-.42 2.35 0l15.36 8.87c.73.42 1.18 1.2 1.18 2.05v17.72c0 .84-.45 1.63-1.18 2.05l-15.36 8.87c-.73.42-1.62.42-2.35 0L1.18 87.09A2.37 2.37 0 0 1 0 85.04V67.32c0-.85.45-1.63 1.18-2.05z" style="fill:#000;fill-opacity:.31999996;stroke:none;stroke-width:5.76151991;stroke-linecap:butt"/></g><g transform="translate(10.63 -16.069)"><title>path13</title><path d="M16.54 56.4c.73-.42 1.62-.42 2.35 0l15.36 8.87c.73.42 1.18 1.2 1.18 2.05v17.72c0 .84-.45 1.63-1.18 2.05l-15.36 8.87c-.73.42-1.62.42-2.35 0L1.18 87.09A2.37 2.37 0 0 1 0 85.04V67.32c0-.85.45-1.63 1.18-2.05z" style="fill:#000;fill-opacity:.23999999;stroke:none;stroke-width:5.76151991;stroke-linecap:butt"/></g><g transform="translate(10.63 -16.294)"><title>path17</title><path d="M16.54 56.4c.73-.42 1.62-.42 2.35 0l15.36 8.87c.73.42 1.18 1.2 1.18 2.05v17.72c0 .84-.45 1.63-1.18 2.05l-15.36 8.87c-.73.42-1.62.42-2.35 0L1.18 87.09A2.37 2.37 0 0 1 0 85.04V67.32c0-.85.45-1.63 1.18-2.05z" style="fill:url(#c);stroke:none;stroke-width:5.76151991;stroke-linecap:butt"/></g><g transform="translate(11.355 -36.471)"><title>path19</title><path d="M15.81 76.58c.73-.42 1.63-.42 2.36 0l15.22 8.78c.59.34.6 1.19.01 1.54l-15.21 9.04c-.74.44-1.66.44-2.4 0L.58 86.9a.9.9 0 0 1 .01-1.54Z" style="fill:url(#d);stroke:none;stroke-width:5.76151991;stroke-linecap:butt"/></g></g></g></svg>