<svg xmlns="http://www.w3.org/2000/svg" viewBox="0 0 512 512"><path d="M0 0h512v512H0z" style="fill:none"/><path d="M69.7 256V70c0-6.5 3.9-12.3 9.8-14.8s12.8-1.1 17.4 3.4l159 157.9 159-157.9c6.3-6.2 16.4-6.2 22.6 0 6.2 6.3 6.2 16.4 0 22.6L267.3 250.3c-6.2 6.2-16.3 6.2-22.6 0l-143-141.9V256l-17.2 20.5z" style="fill:#ea4335"/><path d="M261.5 427c-1.6-.6-157.1-60.3-159.8-171h-32c.6 30.8 10.4 60.5 29.3 88.4 15.1 22.4 36.1 43.5 62.2 63 43.9 32.5 87.2 48.9 89.1 49.6s3.7 1 5.6 1c6.5 0 12.6-4 15-10.4 3.1-8.3-1.1-17.5-9.4-20.6" style="fill:#4285f4"/><path d="M426.1 274.4c-8.8 0-16-7.2-16-16v-70.1c0-8.8 7.2-16 16-16s16 7.2 16 16v70.1c0 8.8-7.2 16-16 16" style="fill:#34a853"/><path d="M410.1 256c-2.7 110.7-158.2 170.4-159.8 171-.4.1-.8.3-1.1.5l-31.5 14.7s16.1 8.2 27.5 12.8c4.4 1.8 7 3 10.7 3s6.2-1.3 6.2-1.3c5.8-2.2 47.1-18.7 88.6-49.5 26.1-19.4 47-40.6 62.1-62.9 18.8-27.9 28.6-57.5 29.2-88.3h-32Z" style="fill:#fbbc04"/></svg>