<svg xmlns="http://www.w3.org/2000/svg" viewBox="0 0 512 512"><path fill="none" d="M0 0h512v512H0z"/><path fill="#4285f4" d="m410.236 224.004 16 9.079 15.981-9.079.019-137.996c.001-8.549-3.327-16.586-9.371-22.631-5.383-5.385-12.348-8.607-19.846-9.249h-2.783l-8.308 15.927 8.308 15.947z"/><path fill="#34a853" d="M299.126 224.004c1.856 4.986 2.875 10.376 2.875 16s-1.019 11.014-2.875 16c-4.658 12.513-14.612 22.467-27.125 27.125l-11.65 15.957 11.65 17.269c30.237-6.305 54.046-30.113 60.351-60.351h77.804c-2.097 85.387-95.013 140.428-138.155 161.416l-16 19.613c18.351 1.964 26.131 2.31 40.845 3.749 16.822-8.754 37.762-21.045 58.291-36.803 25.06-19.237 45.065-40.153 59.46-62.167 18.324-28.021 27.615-57.879 27.615-88.74l.004-29.067H332.351l-17.548-9.402-15.678 9.402h.001Z"/><path fill="none" d="M272.001 163.653c30.237 6.305 54.046 30.113 60.351 60.351h77.865l.019-138.002H272.001zm-32 0V86.002H101.789l-.02 138.002h77.882c6.305-30.237 30.113-54.046 60.351-60.351ZM410.236 54.128h2.783a33 33 0 0 0-2.783-.126z"/><path fill="#4285f4" d="M272.001 283.129a45.8 45.8 0 0 1-16 2.875c-19.74 0-36.612-12.501-43.125-30l-17.538-10.381-15.688 10.381c6.305 30.237 30.113 54.046 60.351 60.351v101.043c2.475 2.78 7.315 8.909 10.12 13.589h21.88z"/><path fill="#ea4335" d="M410.236 54.002H101.789c-.926 0-1.841.048-2.747.126h311.194zm0 170.002V86.002l-.019 138.002z"/><path fill="#fbbc04" d="M272.001 430.987c-14.771-5.881-26.887-10.879-32-13.589-43.185-21.008-136.084-76.047-138.18-161.394l-16.049-12.031-15.98 12.031c.589 30.784 10.447 60.509 29.324 88.402 15.137 22.364 36.079 43.546 62.246 62.956 41.62 30.873 82.778 47.216 88.456 49.396a15.2 15.2 0 0 0 6.024 1.239c1.959 0 4.137-.367 6.516-1.287 1.173-.454 4.572-1.795 9.642-4.012 6.147-2.688 14.756-6.667 24.845-11.918A5532 5532 0 0 1 272 430.985z"/><path fill="#ea4335" d="M212.876 256.004a45.8 45.8 0 0 1-2.875-16c0-25.365 20.635-46 46-46 19.74 0 36.612 12.501 43.125 30h33.225c-6.305-30.237-30.113-54.046-60.351-60.351V86.002h138.235V54.128H99.042c-16.361 1.399-29.251 15.154-29.253 31.87l-.024 167.071q0 1.468.029 2.935h143.083ZM101.789 86.002h138.212v77.651c-30.237 6.305-54.046 30.113-60.351 60.351h-77.882l.02-138.002Z"/></svg>