<svg xmlns="http://www.w3.org/2000/svg" xml:space="preserve" width="61.394" height="68.076" style="font-size:12px;overflow:visible;color-interpolation-filters:sRGB;fill-rule:evenodd;stroke-linecap:square;stroke-miterlimit:3" viewBox="0 0 61.394 68.076"><g transform="translate(-5.722 -5.691)"><title>Page-1</title><g transform="translate(10.907 -34.016)"><title>Access Connector for Azure Databricks.21151</title><title> </title><title>Sheet.21153</title><title>Sheet.21154</title><path d="M28.44 50.45a3.333 3.329-180 0 0 .45-1.68c0-1.86-1.51-3.37-3.38-3.37-1.86 0-3.37 1.51-3.37 3.37s1.51 3.37 3.37 3.37v4.53zm-2.93 44.9c1.87 0 3.38 1.51 3.38 3.37 0 1.87-1.51 3.37-3.38 3.37-1.86 0-3.37-1.5-3.37-3.37 0-.61.16-1.18.45-1.68zM6.77 62.94a3.36 3.36 0 0 1-4.6 1.24 3.373 3.373 0 0 1-1.24-4.61c.93-1.61 3-2.16 4.61-1.23a3.339 3.334 0 0 1 1.24 1.23zm37.48 21.61a3.377 3.377 0 0 1 4.61-1.23c1.61.93 2.16 2.99 1.23 4.6a3.377 3.377 0 0 1-4.61 1.23 3.334 3.33 0 0 1-1.23-1.23zm-37.48 0a3.35 3.35 0 0 1-1.23 4.6c-1.61.93-3.68.38-4.61-1.23a3.36 3.36 0 0 1 1.24-4.6c.53-.31 1.11-.46 1.68-.45Zm37.48-21.61a3.367 3.367 0 0 1 1.23-4.6c1.62-.93 3.68-.38 4.61 1.23.93 1.62.38 3.67-1.23 4.61-.54.3-1.11.45-1.69.45z" style="fill:none"/><path d="M28.44 50.45a3.333 3.329-180 0 0 .45-1.68c0-1.86-1.51-3.37-3.38-3.37-1.86 0-3.37 1.51-3.37 3.37s1.51 3.37 3.37 3.37v4.53m0 38.68c1.87 0 3.38 1.51 3.38 3.37 0 1.87-1.51 3.37-3.38 3.37-1.86 0-3.37-1.5-3.37-3.37 0-.61.16-1.18.45-1.68M6.77 62.94a3.36 3.36 0 0 1-4.6 1.24 3.373 3.373 0 0 1-1.24-4.61c.93-1.61 3-2.16 4.61-1.23a3.339 3.334 0 0 1 1.24 1.23m37.47 24.98a3.377 3.377 0 0 1 4.61-1.23c1.61.93 2.16 2.99 1.23 4.6a3.377 3.377 0 0 1-4.61 1.23 3.334 3.33 0 0 1-1.23-1.23M6.77 84.55a3.35 3.35 0 0 1-1.23 4.6c-1.61.93-3.68.38-4.61-1.23a3.36 3.36 0 0 1 1.24-4.6c.53-.31 1.11-.46 1.68-.45m40.4-19.93a3.367 3.367 0 0 1 1.23-4.6c1.62-.93 3.68-.38 4.61 1.23.93 1.62.38 3.67-1.23 4.61-.54.3-1.11.45-1.69.45" style="stroke:#ff5f46;stroke-width:11.38599968"/><g transform="translate(13.51 -15.408)"><title>Sheet.21155</title><path d="M22.72 86.89 12 92.92.54 86.48l-.54.3v4.68l12 6.74 10.72-6.02v2.48L12 100.69.55 94.25l-.55.31v.79l12 6.74 12-6.74v-4.68l-.54-.3L12 96.8 1.28 90.78V88.3L12 94.32l12-6.74v-4.62l-.6-.33-11.4 6.4-10.15-5.7L12 77.62l8.37 4.7.74-.42v-.56L12 76.22 0 82.96v.73l12 6.74 10.72-6.02z" style="fill:#ff5f46;stroke:none;stroke-width:2.84650993;stroke-linecap:butt"/></g><g transform="translate(3.856 -5.057)"><title>Sheet.21156</title><path d="M16.39 56.87 2.92 64.63Zm24 7.76-15.81-9.12zm2.93 23.28V69.69Zm-16.39 12.83 13.46-7.76ZM2.92 92.98l15.82 9.11ZM0 69.7v18.22zm21.66 26.19v4.52zm14.81-25.63L40.39 68ZM2.92 89.61l3.93-2.26Zm3.93-19.35L2.92 68Zm33.54 19.35-3.92-2.26z" style="fill:#000"/><path d="M16.39 56.87 2.92 64.63m37.47 0-15.81-9.12m18.74 32.4V69.69m-16.39 31.05 13.46-7.76m-37.47 0 15.82 9.11M0 69.7v18.22m21.66 7.97v4.52m14.81-30.15L40.39 68M2.92 89.61l3.93-2.26m0-17.09L2.92 68m37.47 21.61-3.92-2.26" style="stroke:#ff5f46;stroke-width:11.38599968"/></g></g></g></svg>