<svg xmlns="http://www.w3.org/2000/svg" xmlns:xlink="http://www.w3.org/1999/xlink" xml:space="preserve" width="56.699" height="42.522" style="font-size:12px;overflow:visible;color-interpolation-filters:sRGB;fill-rule:evenodd;stroke-linecap:square;stroke-miterlimit:3" viewBox="0 0 56.699 42.522"><defs><linearGradient id="a" x1="0" x2="1" y1="0" y2="0" gradientTransform="rotate(90 .5 .5)"><stop offset="0" stop-color="#32d4f5"/><stop offset="1" stop-color="#198ab3"/></linearGradient><linearGradient xlink:href="#a" id="b" x1="-.003" x2="20.044" y1="107.237" y2="107.237" gradientTransform="scale(1.15147 .86845)" gradientUnits="userSpaceOnUse"/><linearGradient xlink:href="#a" id="c" x1="-.003" x2="20.044" y1="107.237" y2="107.237" gradientTransform="scale(1.15147 .86845)" gradientUnits="userSpaceOnUse"/><linearGradient xlink:href="#a" id="d" x1="0" x2="20.046" y1="107.228" y2="107.228" gradientTransform="scale(1.15138 .86852)" gradientUnits="userSpaceOnUse"/></defs><g transform="translate(-33.996 -34.002)"><title>Page-1</title><g transform="translate(34 -34.016)"><title>Analysis Service.21142</title><title>Icon-analytics-148</title><g transform="translate(0 -25.112)"><title>Sheet.21144</title><path d="M0 109.62a.934.918-180 0 0 .934.918l21.206.002a.934.918-180 0 0 .934-.918l.006-15.572a.934.918-180 0 0-.934-.918L.93 93.13a.934.918-180 0 0-.934.918z" style="fill:url(#b);stroke:none;stroke-width:34;stroke-linecap:butt"/></g><g transform="translate(33.616 -15.08)"><title>Sheet.21145</title><path d="M0 109.62a.934.918-180 0 0 .934.918l21.206.002a.934.918-180 0 0 .934-.918l.006-15.572a.934.918-180 0 0-.934-.918L.93 93.13a.934.918-180 0 0-.934.918z" style="fill:url(#c);stroke:none;stroke-width:34;stroke-linecap:butt"/></g><g transform="translate(4.402)"><title>Sheet.21146</title><path d="M0 109.16a1.4 1.377-180 0 0 1.4 1.38h20.28a1.4 1.377-180 0 0 1.4-1.38V94.5a1.4 1.377-180 0 0-1.4-1.37H1.4A1.4 1.377-180 0 0 0 94.5Z" style="fill:url(#d);stroke:none;stroke-width:34;stroke-linecap:butt"/></g><g transform="translate(10.472 -6.95)"><title>Sheet.21147</title><path d="m31.71 95.95.77-2.1L3.94 83.52l-.77 2.07Zm1.77-.3-1.06-1.97L5.5 107.62l1.04 1.96zM4.54 110.54l2.23-.4-4.54-25.27-2.23.39Z" style="fill:#773adc;stroke:none;stroke-width:34;stroke-linecap:butt"/></g><g transform="rotate(-32.41 -10.472 25.416)"><title>Sheet.21148</title><ellipse cx="3.602" cy="106.995" rx="3.602" ry="3.541" style="fill:#fff;stroke:none;stroke-width:34;stroke-linecap:butt"/></g><g transform="rotate(-32.41 -44.525 78.174)"><title>Sheet.21149</title><ellipse cx="3.602" cy="106.995" rx="3.602" ry="3.541" style="fill:#fff;stroke:none;stroke-width:34;stroke-linecap:butt"/></g><g transform="rotate(-32.41 .86 83.099)"><title>Sheet.21150</title><ellipse cx="3.602" cy="106.995" rx="3.602" ry="3.541" style="fill:#fff;stroke:none;stroke-width:34;stroke-linecap:butt"/></g></g></g></svg>