<svg xmlns="http://www.w3.org/2000/svg" xml:space="preserve" width="45.35" height="56.69" style="font-size:12px;overflow:visible;color-interpolation-filters:sRGB;fill-rule:evenodd;stroke-linecap:square;stroke-miterlimit:3" viewBox="0 0 45.35 56.69"><defs><linearGradient id="a" x1="0" x2="50.704" y1="60.838" y2="60.838" gradientTransform="scale(.8944 1.11806)" gradientUnits="userSpaceOnUse"><stop offset="0" stop-color="#0078d4"/><stop offset=".82" stop-color="#5ea0ef"/></linearGradient><linearGradient id="b" x1="0" x2="24.244" y1="99.416" y2="99.416" gradientTransform="scale(.99158 1.0085)" gradientUnits="userSpaceOnUse"><stop offset="0" stop-color="#0078d4"/><stop offset=".815" stop-color="#5ea0ef"/></linearGradient></defs><g transform="translate(-34 -34.004)"><title>Page-1</title><g transform="translate(34 -34.016)"><title>Apache Spark Configuration.21136</title><title>Sheet.21137</title><g transform="translate(.383 -.423)"><title>Sheet.21138</title><path d="M25.55 68.86H1.82A1.884 1.918-180 0 0 0 70.78v52.01a1.884 1.918-180 0 0 1.85 1.92h41.04a1.884 1.918-180 0 0 1.83-1.92V88.37a1.884 1.918-180 0 0-1.86-1.92h-13.6a1.853 1.885 0 0 1-1.86-1.89V70.78a1.916 1.95-180 0 0-1.85-1.92" style="fill:#fff;stroke:none;stroke-width:34;stroke-linecap:butt"/></g><title>Sheet.21139</title><path d="M25.04 70.88v13a4.727 4.811-180 0 0 4.7 4.81h12.93v33.16H2.81V70.88h22.36zm.9-2.86H1.92A1.916 1.95-180 0 0 0 69.97v52.79a1.916 1.95-180 0 0 1.92 1.95h41.52a1.916 1.95-180 0 0 1.91-1.95V87.81a1.884 1.918-180 0 0-1.88-1.92H29.74a1.884 1.918 0 0 1-1.89-1.91V69.97a1.916 1.95-180 0 0-1.91-1.95" style="fill:url(#a)"/><path d="M25.04 70.88v13a4.727 4.811-180 0 0 4.7 4.81h12.93v33.16H2.81V70.88h22.36m.77-2.86H1.92A1.916 1.95-180 0 0 0 69.97v52.79a1.916 1.95-180 0 0 1.92 1.95h41.52a1.916 1.95-180 0 0 1.91-1.95V87.81a1.884 1.918-180 0 0-1.88-1.92H29.74a1.884 1.918 0 0 1-1.89-1.91V69.97a1.916 1.95-180 0 0-1.91-1.95" style="stroke:none;stroke-width:34;stroke-linecap:butt"/><g transform="translate(27.18 -38.424)"><title>Sheet.21140</title><path d="M17.57 124.71 0 106.86v14.53a3.194 3.25-180 0 0 3.19 3.25z" style="fill:#0078d4;stroke:none;stroke-width:34;stroke-linecap:butt"/></g><g transform="translate(10.725 -9.359)"><title>Sheet.21141</title><path d="M24.04 113.82v-2.79l-.39-.15-2.94-.97-.77-1.91 1.49-3.23-1.92-1.96-.38.2-2.74 1.41-1.87-.78-1.2-3.38h-2.75l-.14.39-.96 2.99-1.87.78-3.13-1.52-1.92 1.95.19.39 1.4 2.79-.77 1.9L0 111.16v2.79l.38.15 2.94.97.77 1.91-1.49 3.23 1.91 1.95.39-.19 2.74-1.42 1.87.78 1.21 3.38h2.74l.14-.39.96-3 1.87-.78 3.17 1.52 1.92-1.95-.19-.39-1.39-2.79.77-1.9zm-12.02 4.05a5.276 5.37 0 1 1 5.27-5.37 5.27 5.364 0 0 1-5.26 5.37z" style="fill:url(#b);stroke:none;stroke-width:34;stroke-linecap:butt"/></g></g></g></svg>