<svg xmlns="http://www.w3.org/2000/svg" xml:space="preserve" width="45.35" height="56.69" style="font-size:12px;overflow:visible;color-interpolation-filters:sRGB;fill-rule:evenodd;stroke-linecap:square;stroke-miterlimit:3" viewBox="0 0 45.35 56.69"><g transform="translate(-38.25 -38.25)"><title>Page-1</title><g transform="translate(38.25 -38.25)"><title>Apache Spark Pause Setting.21125</title><title>Sheet.21126</title><title>Sheet.21127</title><path d="M24.74 102.27V76.5h-4.12v27.44zM4.12 76.5H0v48.59h4.12zm37.23 40.9a9.854 9.678 0 0 1 0 3.86l4 1.62-1.57 3.76-4-1.64a10.638 10.447 0 0 1-2.77 2.71l1.68 3.93-3.84 1.55-1.65-3.92a10.065 9.884 0 0 1-3.93 0l-1.65 3.92-3.83-1.55 1.68-3.93A10.596 10.407 0 0 1 22.7 125l-4 1.64-1.58-3.76 4-1.62a10.065 9.884 0 0 1 0-3.86l-4-1.62 1.58-3.77 4 1.65a10.4 10.4 0 0 1 2.77-2.72l-1.68-3.93 3.83-1.55 1.65 3.93a9.854 9.678 0 0 1 3.93 0l1.65-3.93 3.84 1.55-1.68 3.93c1.09.73 2.02 1.65 2.77 2.72l4-1.65 1.57 3.77zm-10.1 8a6.1 6.1 0 0 0 2.41-.48 6.04 6.04 0 0 0 3.3-3.23 6.288 6.175-180 0 0 0-4.75 6.16 6.05-180 0 0-5.71-3.71 6.185 6.074-180 0 0-6.2 6.08 6.168 6.058-180 0 0 6.2 6.1z" style="fill:#0078d4;stroke:none;stroke-width:38.25;stroke-linecap:butt"/></g></g></svg>