<svg xmlns="http://www.w3.org/2000/svg" xml:space="preserve" width="56.693" height="56.69" style="font-size:12px;overflow:visible;color-interpolation-filters:sRGB;fill-rule:evenodd;stroke-linecap:square;stroke-miterlimit:3" viewBox="0 0 56.693 56.69"><defs><linearGradient id="a" x1="0" x2="56.69" y1="68.02" y2="68.02" gradientUnits="userSpaceOnUse"><stop offset=".005" stop-color="#767676"/><stop offset=".24" stop-color="#999"/><stop offset=".62" stop-color="#a3a3a3"/><stop offset="1" stop-color="#a3a3a3"/></linearGradient><linearGradient id="b" x1="0" x2="34.65" y1="90.06" y2="90.06" gradientUnits="userSpaceOnUse"><stop offset="0" stop-color="#f2f2f2"/><stop offset=".89" stop-color="#f2f2f2"/></linearGradient><linearGradient id="c" x1="0" x2="28.346" y1="96.364" y2="96.364" gradientUnits="userSpaceOnUse"><stop offset="0" stop-color="#198ab3"/><stop offset=".01" stop-color="#198bb4"/><stop offset=".44" stop-color="#27b2d7"/><stop offset=".79" stop-color="#2fcbed"/><stop offset="1" stop-color="#32d4f5"/></linearGradient></defs><g transform="translate(-34 -34.004)"><title>Page-1</title><g transform="translate(34 -34.016)"><title>Apache Spark Pool.21118</title><title>Sheet.21119</title><title>Sheet.21120</title><path d="M56.69 83.76v-3.15h-6.3V76.2a1.89 1.89-180 0 0-1.89-1.89h-4.41v-6.29h-3.15v6.29h-6.29v-6.29H31.5v6.29h-6.3v-6.29h-3.15v6.29h-6.3v-6.29H12.6v6.29H8.19A1.89 1.89-180 0 0 6.3 76.2v4.41H0v3.15h6.3v6.3H0v3.15h6.3v6.3H0v3.15h6.3v6.3H0v3.15h6.3v4.41a1.89 1.89-180 0 0 1.89 1.89h4.41v6.3h3.15v-6.3h6.3v6.3h3.15v-6.3h6.3v6.3h3.15v-6.3h6.29v6.3h3.15v-6.3h4.41a1.89 1.89-180 0 0 1.89-1.89v-4.41h6.3v-3.15h-6.3v-6.3h6.3v-3.15h-6.3v-6.3h6.3v-3.15h-6.3v-6.3z" style="fill:url(#a);stroke:none;stroke-width:34;stroke-linecap:butt"/><g transform="translate(11.024 -11.024)"><title>Sheet.21121</title><path d="M31.5 93.21v28.35H3.15V93.21Zm1.66-3.15H1.48A1.483 1.483-180 0 0 0 91.55v31.68a1.483 1.483-180 0 0 1.48 1.48h31.68a1.483 1.483-180 0 0 1.49-1.48V91.55a1.483 1.483-180 0 0-1.49-1.49" style="fill:url(#b);stroke:none;stroke-width:34;stroke-linecap:butt"/></g><g transform="translate(28.346)"><title>Sheet.21122</title><path d="M14.17 124.71A14.173 14.173-180 1 0 0 110.54a14.173 14.173-180 0 0 14.17 14.17" style="fill:url(#c);stroke:none;stroke-width:34;stroke-linecap:butt"/></g><g transform="translate(32.945 -3.969)"><title>Sheet.21123</title><path d="m19.15 110.66-1.46-2.52-6.66 3.84v-7.68H8.12v7.68l-6.66-3.84L0 110.66l6.66 3.84L0 118.35l1.46 2.52 6.66-3.85v7.69h2.91v-7.69l6.66 3.85 1.46-2.52-6.66-3.85z" style="fill:#fff;stroke:none;stroke-width:34;stroke-linecap:butt"/></g><g transform="translate(17.323 -21.732)"><title>Sheet.21124</title><path d="M12.6 114.63H7.56v-7.56L0 117.15h5.04v7.56z" style="fill:#f2f2f2;stroke:none;stroke-width:34;stroke-linecap:butt"/></g></g></g></svg>