<svg xmlns="http://www.w3.org/2000/svg" xml:space="preserve" width="56.69" height="56.69" style="font-size:12px;overflow:visible;color-interpolation-filters:sRGB;fill-rule:evenodd;stroke-linecap:square;stroke-miterlimit:3" viewBox="0 0 56.69 56.69"><g transform="translate(-34 -34.004)"><title>Page-1</title><g transform="translate(34 -34.016)"><title>Apache Spark Scale Setting.21116</title><title>path6</title><path d="M31.89 105.22v15.95H3.54V92.82H19.4l3.49-3.54H0v35.43h35.43v-22.89zm3.54-37.2h-7.08v3.54h7.08zm10.63 0h-7.08v3.54h7.08zM3.54 78.65H0v7.08h3.54zm0-10.63H0v7.08h3.54zm21.26 0h-7.08v3.54h7.08zm-10.63 0H7.09v3.54h7.08zm42.52 31.89h-3.54v7.08h3.54zm0 10.63h-3.54v7.08h3.54zm0-21.26h-3.54v7.08h3.54zm0-10.63h-3.54v7.08h3.54zm0-10.63h-7.08v3.54h3.54v3.54h3.54zm-10.63 53.15h-7.08v3.54h7.08zm10.63 0h-7.08v3.54h7.08z" style="fill:#0078d4;stroke:none;stroke-width:34;stroke-linecap:butt"/></g></g></svg>