<svg xmlns="http://www.w3.org/2000/svg" xml:space="preserve" width="57.032" height="56.694" style="font-size:12px;overflow:visible;color-interpolation-filters:sRGB;fill-rule:evenodd;stroke-linecap:square;stroke-miterlimit:3" viewBox="0 0 57.032 56.694"><g transform="translate(-38.251 -38.246)"><title>Page-1</title><g transform="translate(38.588 -38.25)"><title>Azure Cosmos DB Query Explorer.21028</title><title>Sheet.21029</title><g transform="translate(18.145 -17.494)"><title>Sheet.21030</title><path d="M0 93.99h11.53v11.62H0Zm13.46 0h11.56v11.62H13.46Zm13.56 0h11.53v11.62H27.02Zm0 13.72h11.53v11.62H27.02Zm0 13.72h11.53v11.76H27.02Z" style="fill:#00aeef;stroke:none;stroke-width:38.25;stroke-linecap:butt"/></g><title>Sheet.21031</title><path d="M3.83 133.19a4.247 4.32 0 0 1-3.03-7.26l10.31-10.56a14.813 15.063 0 0 1 13.07-22.32 14.955 15.208 0 0 1 3.57.44 14.848 15.099 0 1 1-10.71 27.91L6.72 131.92a4.247 4.32 0 0 1-3.03 1.27zm20.2-34.44a9.209 9.364-180 1 0 2.22.29 9.209 9.364-180 0 0-2.22-.29" style="fill:#7a7a7a"/><path d="M3.83 133.19a4.247 4.32 0 0 1-3.03-7.26l10.31-10.56a14.813 15.063 0 0 1 13.07-22.32 14.955 15.208 0 0 1 3.57.44 14.848 15.099 0 1 1-10.71 27.91L6.72 131.92a4.247 4.32 0 0 1-3.03 1.27m20.34-34.44a9.209 9.364-180 1 0 2.22.29 9.209 9.364-180 0 0-2.22-.29" style="stroke:none;stroke-width:38.25;stroke-linecap:butt"/><g transform="translate(18.145 -17.494)"><title>Sheet.21032</title><path d="m9.99 109.64 1.5.47v-2.4H0v2.73a15.99 16.26 0 0 1 9.99-.8m9.93 7.4a16.169 16.442 0 0 1 1.1 2.29h4.04v-11.62h-11.5v3.23a15.883 16.151 0 0 1 6.46 6.07zm1.85 12.31a16.133 16.405 0 0 1-1.46 3.84h4.75v-11.76h-3.32a15.919 16.188 0 0 1 0 7.92zm-7.71-3.74a7.888 8.021 0 1 1-7.89-8.02 7.888 8.021 0 0 1 7.89 8.02" style="fill:#00aeef"/><path d="m9.99 109.64 1.5.47v-2.4H0v2.73a15.99 16.26 0 0 1 9.99-.8m9.93 7.4a16.169 16.442 0 0 1 1.1 2.29h4.04v-11.62h-11.5v3.23a15.883 16.151 0 0 1 6.46 6.07m1.75 12.34a16.133 16.405 0 0 1-1.46 3.84h4.75v-11.76h-3.32a15.919 16.188 0 0 1 0 7.92m-7.68-3.74a7.888 8.021 0 1 1-7.89-8.02 7.888 8.021 0 0 1 7.89 8.02" style="stroke:none;stroke-width:38.25;stroke-linecap:butt"/></g></g></g></svg>