<svg xmlns="http://www.w3.org/2000/svg" xml:space="preserve" width="56.689" height="56.693" style="font-size:12px;overflow:visible;color-interpolation-filters:sRGB;fill-rule:evenodd;stroke-linecap:square;stroke-miterlimit:3" viewBox="0 0 56.689 56.693"><g transform="translate(-38.257 -38.247)"><title>Page-1</title><g transform="translate(38.25 -38.25)"><title>Azure Cosmos DB Document Explorer.21059</title><title>Sheet.21060</title><g transform="translate(22.866 -17.863)"><title>Sheet.21061</title><path d="M.11 100.57v-6.21H0h33.83v38.83H27.7v-1.58h4.6V95.52H1.6v-.29 5.34z" style="fill:#2bace2;stroke:none;stroke-width:38.25;stroke-linecap:butt"/></g><title>Sheet.21062</title><path d="M4.21 133.16A4.344 4.403 0 0 1 1.15 132a4.665 4.727 0 0 1 0-6.2l9.97-9.97a13.851 14.038 0 0 1-1.14-10.46 14.243 14.435 0 0 1 14.24-11.26 10.682 10.826 0 0 1 3.56.4 12.747 12.92 0 0 1 8.79 6.6 14.243 14.435 0 0 1 1.36 11.12 14.243 14.435 0 0 1-14.24 11.26 10.682 10.826 0 0 1-3.57-.4 13.602 13.785 0 0 1-3.56-1.55l-9.97 10.1a3.881 3.934 0 0 1-2.67 1.55zm19.55-33.38a8.973 9.094-180 0 0-8.83 7 9.899 10.032-180 0 0 1.14 7.21l2.31 2.35 3.56 1.16h1.92a8.973 9.094-180 0 0 8.69-6.86 9.4 9.527-180 0 0-6.51-10.83h-2.28z" style="fill:#7a7a7a"/><path d="M4.21 133.16A4.344 4.403 0 0 1 1.15 132a4.665 4.727 0 0 1 0-6.2l9.97-9.97a13.851 14.038 0 0 1-1.14-10.46 14.243 14.435 0 0 1 14.24-11.26 10.682 10.826 0 0 1 3.56.4 12.747 12.92 0 0 1 8.79 6.6 14.243 14.435 0 0 1 1.36 11.12 14.243 14.435 0 0 1-14.24 11.26 10.682 10.826 0 0 1-3.57-.4 13.602 13.785 0 0 1-3.56-1.55l-9.97 10.1a3.881 3.934 0 0 1-2.67 1.55m19.84-33.41a8.973 9.094-180 0 0-8.83 7 9.899 10.032-180 0 0 1.14 7.21l2.31 2.35 3.56 1.16h1.92a8.973 9.094-180 0 0 8.69-6.86 9.4 9.527-180 0 0-6.51-10.83h-2.28" style="stroke:none;stroke-width:38.25;stroke-linecap:butt"/><g transform="translate(18.774 -18.942)"><title>Sheet.21063</title><path d="M13.03 127.56a7.656 7.759 0 1 1-7.66-7.65 7.691 7.795 0 0 1 7.66 7.65" style="fill:#00aeef;stroke:none;stroke-width:38.25;stroke-linecap:butt"/></g><g transform="translate(19.52 -14.58)"><title>Sheet.21064</title><path d="M4.24 106.99a10.682 10.826 0 0 1 3.56.4 4.665 4.727 0 0 1 3.56-1.15v2.34h-.61a16.985 17.214 0 0 1 9.97 15.52h.39a3.952 4.006-180 0 0 .4-1.55v-2.96c0-1.95.78-3.11 1.92-3.61-1.14-.4-1.92-1.16-1.92-3.61v-2.27a1.816 1.84-180 0 0-1.82-1.95v-2.31h.78a5.52 5.594 0 0 1 2.67.79c.79.8.79 1.95.79 3.61v2.71a1.816 1.84-180 0 0 1.92 1.95v2.34a1.816 1.84-180 0 0-1.92 1.95v2.35c0 1.55 0 2.34-.79 3.1a3.24 3.284 0 0 1-2.67.79 18.338 18.585 0 0 1-2.67 7.76h13.39v-35.9H0v10.1a15.703 15.914 0 0 1 4.24-.4" style="fill:#2bace2;stroke:none;stroke-width:38.25;stroke-linecap:butt"/></g></g></g></svg>