<svg xmlns="http://www.w3.org/2000/svg" xml:space="preserve" width="56.692" height="56.371" style="font-size:12px;overflow:visible;color-interpolation-filters:sRGB;fill-rule:evenodd;stroke-linecap:square;stroke-miterlimit:3" viewBox="0 0 56.692 56.371"><g transform="translate(-5.67 -5.666)"><title>Page-1</title><g transform="translate(5.67 -34.016)"><title>Azure Batch.21080</title><g transform="translate(0 -22.48)"><title>path7</title><path d="M32.25 68.7H0v25.99c0 .41.16.81.44 1.12l-.01.01c.04.04.09.09.14.11.29.28.68.45 1.13.45h33.52c.85 0 1.7-.7 1.7-1.7V68.7Z" style="fill:#177acd;stroke:none;stroke-width:.100536;stroke-linecap:butt"/></g><g transform="translate(16.173 -28.023)"><title>path9</title><path d="M0 84.02h14.84v2.9H0Zm0 9.46h14.84v2.9H0Z" style="fill:#fff;stroke:none;stroke-width:.0943546;stroke-linecap:butt"/></g><g transform="translate(0 -50.158)"><title>path17</title><path d="M4.68 96.38h32.23v-5.33c0-.6-.7-1.21-1.7-1.21H1.7c-.85 0-1.7.5-1.7 1.21v5.33z" style="fill:#a7a8a9;stroke:none;stroke-width:.0847624;stroke-linecap:butt"/></g><g transform="translate(.025 -21.746)"><title>path23</title><path d="M28.15 67.97H0v26.87c0 .43.15.88.42 1.21.26.33 31.8-28.08 31.8-28.08z" style="fill:#fff;fill-opacity:.2;stroke:none;stroke-width:.0955156;stroke-linecap:butt"/></g><g transform="translate(5.803 -26.048)"><title>path9-0</title><path d="m0 94.14 10.13-7.97 1.77 2.07-10.13 8.14Z" style="fill:#fff;stroke:none;stroke-width:.109072;stroke-linecap:butt"/></g><g transform="translate(2.34 -26.048)"><title>path9-0-9</title><path d="M5.24 96.38 0 90.81l2.33-2.03 5.31 5.72Z" style="fill:#fff;stroke:none;stroke-width:.0772262;stroke-linecap:butt"/></g><g transform="translate(6.287 -36.661)"><title>path9-0-5</title><path d="m0 94.14 10.13-7.97 1.77 2.07-10.13 8.14Z" style="fill:#fff;stroke:none;stroke-width:.109072;stroke-linecap:butt"/></g><g transform="translate(2.824 -36.661)"><title>path9-0-9-8</title><path d="M5.24 96.38 0 90.81l2.33-2.03 5.31 5.72Z" style="fill:#fff;stroke:none;stroke-width:.0772262;stroke-linecap:butt"/></g><g transform="translate(9.886 -11.608)"><title>path7-1</title><path d="M32.25 68.7H0v25.99c0 .41.16.81.44 1.12l-.01.01c.04.04.09.09.14.11.29.28.68.45 1.13.45h33.52c.85 0 1.7-.7 1.7-1.7V68.7Z" style="fill:#509ccc;stroke:none;stroke-width:.100536;stroke-linecap:butt"/></g><g transform="translate(26.059 -17.15)"><title>path9-3</title><path d="M0 84.02h14.84v2.9H0Zm0 9.46h14.84v2.9H0Z" style="fill:#fff;stroke:none;stroke-width:.0943546;stroke-linecap:butt"/></g><g transform="translate(9.886 -39.285)"><title>path17-6</title><path d="M4.68 96.38h32.23v-5.33c0-.6-.7-1.21-1.7-1.21H1.7c-.85 0-1.7.5-1.7 1.21v5.33z" style="fill:#a7a8a9;stroke:none;stroke-width:.0847624;stroke-linecap:butt"/></g><g transform="translate(9.91 -10.873)"><title>path23-4</title><path d="M28.15 67.97H0v26.87c0 .43.15.88.42 1.21.26.33 31.8-28.08 31.8-28.08z" style="fill:#fff;fill-opacity:.2;stroke:none;stroke-width:.0955156;stroke-linecap:butt"/></g><g transform="translate(15.689 -15.175)"><title>path9-0-2</title><path d="m0 94.14 10.13-7.97 1.77 2.07-10.13 8.14Z" style="fill:#fff;stroke:none;stroke-width:.109072;stroke-linecap:butt"/></g><g transform="translate(12.225 -15.175)"><title>path9-0-9-5</title><path d="M5.24 96.38 0 90.81l2.33-2.03 5.31 5.72Z" style="fill:#fff;stroke:none;stroke-width:.0772262;stroke-linecap:butt"/></g><g transform="translate(16.173 -25.788)"><title>path9-0-5-1</title><path d="m0 94.14 10.13-7.97 1.77 2.07-10.13 8.14Z" style="fill:#fff;stroke:none;stroke-width:.109072;stroke-linecap:butt"/></g><g transform="translate(12.71 -25.788)"><title>path9-0-9-8-4</title><path d="M5.24 96.38 0 90.81l2.33-2.03 5.31 5.72Z" style="fill:#fff;stroke:none;stroke-width:.0772262;stroke-linecap:butt"/></g><g transform="translate(26.059 -17.15)"><title>path9-6</title><path d="M0 84.02h14.84v2.9H0Zm0 9.46h14.84v2.9H0Z" style="fill:#fff;stroke:none;stroke-width:.0943546;stroke-linecap:butt"/></g><g transform="translate(19.772 -.735)"><title>path7-1-9</title><path d="M32.25 68.7H0v25.99c0 .41.16.81.44 1.12l-.01.01c.04.04.09.09.14.11.29.28.68.45 1.13.45h33.52c.85 0 1.7-.7 1.7-1.7V68.7Z" style="fill:#59afd5;stroke:none;stroke-width:.100536;stroke-linecap:butt"/></g><g transform="translate(35.945 -6.278)"><title>path9-3-0</title><path d="M0 84.02h14.84v2.9H0Zm0 9.46h14.84v2.9H0Z" style="fill:#fff;stroke:none;stroke-width:.0943546;stroke-linecap:butt"/></g><g transform="translate(19.772 -28.413)"><title>path17-6-4</title><path d="M4.68 96.38h32.23v-5.33c0-.6-.7-1.21-1.7-1.21H1.7c-.85 0-1.7.5-1.7 1.21v5.33z" style="fill:#a7a8a9;stroke:none;stroke-width:.0847624;stroke-linecap:butt"/></g><g transform="translate(19.797)"><title>path23-4-1</title><path d="M28.15 67.97H0v26.87c0 .43.15.88.42 1.21.26.33 31.8-28.08 31.8-28.08z" style="fill:#fff;fill-opacity:.2;stroke:none;stroke-width:.0955156;stroke-linecap:butt"/></g><g transform="translate(25.575 -4.303)"><title>path9-0-2-5</title><path d="m0 94.14 10.13-7.97 1.77 2.07-10.13 8.14Z" style="fill:#fff;stroke:none;stroke-width:.109072;stroke-linecap:butt"/></g><g transform="translate(22.111 -4.303)"><title>path9-0-9-5-3</title><path d="M5.24 96.38 0 90.81l2.33-2.03 5.31 5.72Z" style="fill:#fff;stroke:none;stroke-width:.0772262;stroke-linecap:butt"/></g><g transform="translate(26.059 -14.916)"><title>path9-0-5-1-4</title><path d="m0 94.14 10.13-7.97 1.77 2.07-10.13 8.14Z" style="fill:#fff;stroke:none;stroke-width:.109072;stroke-linecap:butt"/></g><g transform="translate(22.596 -14.916)"><title>path9-0-9-8-4-1</title><path d="M5.24 96.38 0 90.81l2.33-2.03 5.31 5.72Z" style="fill:#fff;stroke:none;stroke-width:.0772262;stroke-linecap:butt"/></g></g></g></svg>