<svg xmlns="http://www.w3.org/2000/svg" xml:space="preserve" width="56.691" height="53.856" style="font-size:12px;overflow:visible;color-interpolation-filters:sRGB;fill-rule:evenodd;stroke-linecap:square;stroke-miterlimit:3" viewBox="0 0 56.691 53.856"><defs><linearGradient id="a" x1="0" x2="24.439" y1="134.499" y2="134.499" gradientTransform="scale(1.70425 .58677)" gradientUnits="userSpaceOnUse"><stop offset=".2" stop-color="#005ba1"/><stop offset="1" stop-color="#0078d4"/></linearGradient><linearGradient id="b" x1="-1.247" x2="21.565" y1="86.01" y2="86.01" gradientTransform="scale(1.1491 .87025)" gradientUnits="userSpaceOnUse"><stop offset="0" stop-color="#198ab3"/><stop offset=".17" stop-color="#32bedd"/><stop offset=".5" stop-color="#50e6ff"/><stop offset=".5" stop-color="#4fe4fd"/><stop offset=".5" stop-color="#4bddf8"/><stop offset=".5" stop-color="#44d2ee"/><stop offset=".5" stop-color="#3ac1e0"/><stop offset=".5" stop-color="#2dabce"/><stop offset=".5" stop-color="#1d90b8"/><stop offset=".5" stop-color="#198ab3"/><stop offset=".66" stop-color="#32bedd"/><stop offset=".975" stop-color="#50e6ff"/></linearGradient></defs><g transform="translate(-5.67 -5.388)"><title>Page-1</title><g transform="translate(5.67 -34.016)"><title>Azure Synapse Analytics Pipeline.20884</title><title>Page-1</title><title>Sheet.20886</title><g transform="translate(0 -5.876)"><title>Sheet.20887</title><title>Sheet.20888</title><title>Sheet.20889</title><path d="M20.82 45.28 0 57.25v23.91l20.82 12.1 20.83-11.97V57.31Zm16.97 33.5-16.97 9.87-16.98-9.76V59.63l16.98-9.87 16.97 9.89z" style="fill:#0078d4;stroke:none;stroke-width:.74999899;stroke-linecap:butt"/><g transform="translate(0 -33.639)"><title>Sheet.20890</title><title>Sheet.20891</title><path d="M20.82 78.92 0 90.89l3.84 2.37 16.98-9.86 16.97 9.86 3.86-2.37z" style="fill:url(#a);stroke:none;stroke-width:.74999899;stroke-linecap:butt"/></g><g transform="translate(6.533 -5.995)"><title>Sheet.20892</title><title>Sheet.20893</title><path d="M24.21 79.2a1.936 1.946-180 0 0-.86-.76 15.476 15.553-180 0 0-11.87-8.93l17.17-9.97-3.99-2.3L5.09 68.6a1.99 2-180 0 0 1 3.73 1.814 1.823-180 0 0 .24-.06l.33 1.4a11.455 11.512 0 0 1 12.84 5.96L0 90.95l3.98 2.31 19.51-11.33a1.934 1.943-180 0 0 .63-.63l.2-.04c-.02-.08-.04-.16-.07-.23a1.95 1.96-180 0 0-.04-1.83" style="fill:#50e6ff;stroke:none;stroke-width:.74999899;stroke-linecap:butt"/></g><g transform="translate(9.154 -15.539)"><title>Sheet.20894</title><title>Sheet.20895</title><path d="M19.86 84.84a4.907 4.931-180 1 0 4.92 4.94 4.907 4.931-180 0 0-4.92-4.94m-16.4-9.99a4.907 4.931-180 1 0 4.92 4.94 4.907 4.931-180 0 0-4.92-4.94" style="fill:url(#b);stroke:none;stroke-width:.74999899;stroke-linecap:butt"/></g></g><g transform="translate(31.581)"><title>Sheet.20896</title><title>Sheet.20897</title><title>Sheet.20898</title><path d="M25.11 85.38c0 .42-.01.86-.04 1.32-.04.46-.09.93-.18 1.39-.08.46-.18.92-.3 1.36-.12.45-.28.88-.46 1.26-.13.3-.3.59-.48.89-.18.32-.39.58-.64.83-.26.25-.53.45-.82.59-.28.15-.61.23-1 .24h-4.31v-.03c-.15.02-.28.03-.4.03-.26 0-.5-.04-.74-.12q-.33-.12-.63-.36c-.2-.16-.38-.33-.57-.51a3 3 0 0 1-.45-.59h-3.04c-.14.21-.29.42-.45.61-.17.19-.36.35-.57.49s-.43.26-.65.35-.47.13-.75.13H3.92c-.37 0-.7-.08-.99-.22-.29-.15-.57-.35-.82-.61s-.47-.52-.65-.83c-.18-.29-.33-.59-.48-.89-.18-.39-.33-.82-.46-1.26-.12-.44-.21-.89-.29-1.35a16 16 0 0 1-.16-1.4c-.05-.46-.07-.91-.07-1.32 0-.44.01-.88.04-1.34.04-.45.09-.92.18-1.38.08-.46.18-.91.3-1.37.13-.45.28-.87.46-1.25.13-.31.29-.6.48-.9.19-.31.4-.58.65-.83.24-.24.52-.45.81-.59.29-.15.62-.23 1-.24h4.71c.26 0 .51.05.74.13s.45.2.66.34c.21.15.4.32.55.51.16.19.32.39.47.6h3.04c.13-.2.28-.4.45-.59.18-.19.36-.36.56-.5.2-.15.41-.26.64-.35.25-.08.49-.13.74-.14h4.71c.37 0 .7.08.99.23.3.14.57.34.83.6.25.26.46.53.63.83.18.29.34.59.49.9.18.39.34.81.46 1.25.12.45.22.9.29 1.36.08.45.13.92.18 1.39.03.46.05.91.05 1.34m-21.19 6.3c.18 0 .34-.05.49-.17.16-.12.3-.25.44-.43.13-.17.24-.35.34-.53.09-.18.18-.35.25-.48.15-.35.28-.72.39-1.1.1-.39.19-.78.25-1.2.07-.41.11-.81.15-1.23.03-.41.05-.79.05-1.16s-.02-.76-.04-1.18c-.02-.41-.07-.82-.15-1.22-.07-.4-.16-.8-.26-1.2q-.165-.585-.39-1.11c-.07-.13-.14-.29-.24-.47-.1-.17-.22-.35-.35-.52a4 4 0 0 0-.44-.44.86.86 0 0 0-.49-.18c-.17 0-.33.06-.49.17-.15.12-.3.26-.42.44-.14.17-.25.34-.35.52s-.18.35-.24.48c-.16.35-.29.72-.39 1.1-.11.39-.2.79-.26 1.2q-.105.615-.15 1.23c-.04.42-.05.81-.05 1.18s.01.75.03 1.16c.03.42.08.82.15 1.22.08.41.17.81.28 1.2q.15.585.39 1.11c.05.13.13.29.23.47s.21.36.36.53c.13.16.28.31.42.43.15.11.31.17.49.18m7.07-6.3c0-.37-.02-.76-.04-1.18-.02-.41-.08-.82-.14-1.22q-.12-.6-.27-1.2c-.11-.39-.25-.76-.4-1.11a7 7 0 0 0-.24-.47c-.08-.17-.21-.35-.35-.52s-.28-.32-.43-.44a.86.86 0 0 0-.49-.18H6.34c.28.44.51.91.71 1.44.2.51.35 1.05.47 1.6.11.55.19 1.11.25 1.67.04.57.07 1.1.07 1.61 0 .5-.02 1.04-.06 1.6-.06.56-.14 1.11-.26 1.66-.12.54-.28 1.08-.47 1.61-.19.52-.42 1.01-.71 1.43h2.29c.17 0 .34-.05.49-.17.16-.12.31-.25.43-.43.13-.17.24-.35.34-.53s.18-.35.25-.48c.15-.35.29-.72.4-1.1.1-.39.19-.78.26-1.2.06-.41.11-.81.14-1.23.03-.41.05-.79.05-1.16m5.49 6.3c.18 0 .33-.05.49-.17.15-.12.3-.25.43-.43.14-.17.25-.35.35-.53s.18-.35.24-.48c.16-.35.28-.72.39-1.1a12.5 12.5 0 0 0 .4-2.43 12.3 12.3 0 0 0 .01-2.34c-.02-.41-.06-.82-.14-1.22q-.105-.6-.27-1.2c-.11-.39-.23-.76-.39-1.11a4 4 0 0 0-.59-.99c-.14-.17-.28-.32-.43-.44a.86.86 0 0 0-.49-.18.77.77 0 0 0-.46.17c-.16.12-.29.26-.42.43-.14.15-.25.33-.35.52s-.18.35-.25.46h-3.19c.26.75.45 1.52.57 2.33.11.81.16 1.6.18 2.41 0 .79-.06 1.59-.17 2.39-.12.81-.31 1.58-.58 2.33H15c.06.13.14.28.24.46s.21.35.35.52c.13.16.26.31.41.43.15.13.31.18.48.17m7.06-6.3c0-.37-.01-.76-.03-1.18-.02-.41-.08-.82-.15-1.22-.08-.4-.16-.8-.26-1.2-.12-.39-.25-.76-.41-1.11-.05-.13-.13-.29-.22-.47-.1-.17-.22-.35-.36-.52s-.28-.32-.43-.44a.86.86 0 0 0-.49-.18H18.9c.27.44.51.91.71 1.44.2.51.35 1.05.47 1.6.11.55.2 1.11.24 1.67.05.57.08 1.1.09 1.61 0 .5-.03 1.04-.08 1.6-.04.56-.13 1.11-.25 1.66-.13.54-.28 1.08-.47 1.61-.19.52-.43 1.01-.71 1.43h2.29c.17 0 .33-.05.49-.17s.3-.25.43-.43c.13-.17.25-.35.34-.53.1-.18.19-.35.24-.48.16-.35.29-.72.41-1.1.1-.39.18-.78.25-1.2.07-.41.11-.81.15-1.23.03-.41.04-.79.04-1.16" style="fill:#000;stroke:none;stroke-width:.74999899;stroke-linecap:butt"/></g></g></g></svg>