<svg xmlns="http://www.w3.org/2000/svg" xml:space="preserve" width="56.693" height="56.69" style="font-size:12px;overflow:visible;color-interpolation-filters:sRGB;fill-rule:evenodd;stroke-linecap:square;stroke-miterlimit:3" viewBox="0 0 56.693 56.69"><defs><linearGradient id="a" x1="0" x2="24.457" y1="142.597" y2="142.597" gradientTransform="scale(1.73328 .57694)" gradientUnits="userSpaceOnUse"><stop offset=".2" stop-color="#005ba1"/><stop offset="1" stop-color="#0078d4"/></linearGradient><linearGradient id="b" x1="-1.257" x2="21.576" y1="91.476" y2="91.476" gradientTransform="scale(1.16888 .85552)" gradientUnits="userSpaceOnUse"><stop offset="0" stop-color="#198ab3"/><stop offset=".17" stop-color="#32bedd"/><stop offset=".5" stop-color="#50e6ff"/><stop offset=".5" stop-color="#4fe4fd"/><stop offset=".5" stop-color="#4bddf8"/><stop offset=".5" stop-color="#44d2ee"/><stop offset=".5" stop-color="#3ac1e0"/><stop offset=".5" stop-color="#2dabce"/><stop offset=".5" stop-color="#1d90b8"/><stop offset=".5" stop-color="#198ab3"/><stop offset=".66" stop-color="#32bedd"/><stop offset=".975" stop-color="#50e6ff"/></linearGradient></defs><g transform="translate(-5.67 -5.674)"><title>Page-1</title><g transform="translate(5.67 -34.016)"><title>Azure Synapse Analytics Spark Pool.20848</title><title>Page-1</title><title>Sheet.20850</title><g transform="translate(0 -9.48)"><title>Sheet.20851</title><title>Sheet.20852</title><title>Sheet.20853</title><path d="M21.2 49.17 0 60.94v23.53l21.2 11.91L42.39 84.6V60.99Zm17.27 32.96L21.2 91.84 3.91 82.23V63.27l17.29-9.7 17.27 9.73z" style="fill:#0078d4;stroke:none;stroke-width:.75;stroke-linecap:butt"/><g transform="translate(0 -33.1)"><title>Sheet.20854</title><title>Sheet.20855</title><path d="M21.2 82.27 0 94.04l3.91 2.34 17.29-9.71 17.27 9.71 3.92-2.34z" style="fill:url(#a);stroke:none;stroke-width:.75;stroke-linecap:butt"/></g><g transform="translate(6.65 -5.899)"><title>Sheet.20856</title><title>Sheet.20857</title><path d="M24.64 82.54a1.97 1.915-180 0 0-.87-.75 15.753 15.304-180 0 0-12.09-8.78l17.49-9.82-4.07-2.27L5.18 72.11a2.025 1.967-180 0 0 1.02 3.68 1.847 1.794-180 0 0 .24-.07l.34 1.38a11.66 11.328 0 0 1 13.07 5.86L0 94.11l4.05 2.27 19.86-11.15a1.968 1.912-180 0 0 .64-.63l.21-.04c-.03-.08-.05-.15-.07-.22a1.984 1.928-180 0 0-.05-1.8" style="fill:#50e6ff;stroke:none;stroke-width:.75;stroke-linecap:butt"/></g><g transform="translate(9.322 -15.286)"><title>Sheet.20858</title><title>Sheet.20859</title><path d="M20.21 88.09a4.995 4.852-180 1 0 5.01 4.85 4.995 4.852-180 0 0-5.01-4.85M3.52 78.26a4.995 4.852-180 1 0 5 4.85 4.995 4.852-180 0 0-5-4.85" style="fill:url(#b);stroke:none;stroke-width:.75;stroke-linecap:butt"/></g></g><g transform="translate(34.443)"><title>Sheet.20860</title><title>Sheet.20861</title><title>Sheet.20862</title><path d="m22.25 89.81-3.23 1.78 3.23 1.77-.7 1.24-3.25-1.78v3.56h-1.4v-3.56l-3.23 1.78-.71-1.24 3.23-1.77-3.23-1.78.71-1.23 3.23 1.77v-3.56h1.4v3.56l3.25-1.77zM8.45 78.59v4.1h2.82l-4.23 5.48v-4.11H4.23Zm2.26 13.68c.06.08.13.17.2.29.06.12.12.23.17.35.06.12.09.25.14.37.03.13.05.26.05.35H9.85V95h-1.4v-1.37H7.04V95h-1.4v-1.37H4.23V95H2.81v-1.37h-1.4v-1.36H0V90.9h1.41v-1.36H0v-1.37h1.41v-1.38H0v-1.36h1.41v-1.37H0v-1.37h1.41v-1.36H0v-1.38h1.41v-1.36H0v-1.37h1.41v-1.37h1.4v-1.36h1.42v1.36h1.41v-1.36h1.4v1.36h1.41v-1.36h1.4v1.36h1.42v-1.36h1.41v1.36h1.4v-1.36h1.41v1.36h1.41v-1.36h1.4v1.36h1.42v1.37h1.41v1.37h-1.41v1.36h1.41v1.38h-1.41v1.36h1.41v1.37h-1.41v1.37H18.3v-8.21H2.81v15.05z" style="fill:#000;stroke:none;stroke-width:.75;stroke-linecap:butt"/></g></g></g></svg>