<svg xmlns="http://www.w3.org/2000/svg" xml:space="preserve" width="57.196" height="56.69" style="font-size:12px;overflow:visible;color-interpolation-filters:sRGB;fill-rule:evenodd;stroke-linecap:square;stroke-miterlimit:3" viewBox="0 0 57.196 56.69"><g transform="translate(-38.25 -38.25)"><title>Page-1</title><g transform="translate(38.499 -38.25)"><title>Azure Cosmos DB CORS.21070</title><title> </title><title>Sheet.21072</title><path d="M10.97 127.35a28.569 28.325 0 0 1-5.33-39.73A28.53 28.286 0 0 1 28.37 76.5c6.05 0 12.17 1.89 17.35 5.84a28.565 28.322 0 0 1 5.33 39.74 28.55 28.308 0 0 1-22.73 11.11 28.476 28.233 0 0 1-17.35-5.84" style="fill:#57a300;stroke:none;stroke-width:38.25;stroke-linecap:butt"/><g transform="translate(4.759 -20.275)"><title>Sheet.21073</title><path d="M36.45 99.69a28.172 27.932-180 0 0-4.41-1.75c-5.25 7.7-14.4 16.65-22.63 23.55-.06.05-.08.1-.14.16a38.082 37.758 0 0 1-4.15-5.67S2.13 122.97 0 131.5c9.47 1.69 18.25-1.27 18.25-1.27s-2.83-2.21-6.05-5.45c8.39-6.42 17.59-15.34 24.25-25.09" style="fill:#fff;stroke:none;stroke-width:38.25;stroke-linecap:butt"/></g><g transform="translate(4.276 -7.894)"><title>Sheet.21074</title><path d="M44.53 100.74s-1.54 1.92-5.42 5.02c-7.58-8.51-19.37-14.28-32.72-15.44a26.918 26.688-180 0 0-5.11 5.13l-.08.11c1.17.05 2.35.13 3.54.25 11.07.9 21.35 6.63 28.36 14.32-2.03 1.34-4.35 2.77-7.02 4.28 0 0 9.76 2.86 18.01 8.75 2.43-10.23.44-22.42.44-22.42m-20.46 19.8a6.433 6.378-180 0 0-6.43 6.37c0 .1.02.19.03.29A44.064 43.689 0 0 1 0 128.24c1.16 1.77 2.54 3.44 4.12 4.95a48.41 47.998-180 0 0 15.39-1.78 6.433 6.378-180 1 0 4.56-10.87" style="fill:#fff;stroke:none;stroke-width:38.25;stroke-linecap:butt"/></g></g></g></svg>