<svg xmlns="http://www.w3.org/2000/svg" xml:space="preserve" width="56.337" height="56.335" style="font-size:12px;overflow:visible;color-interpolation-filters:sRGB;fill-rule:evenodd;stroke-linecap:square;stroke-miterlimit:3" viewBox="0 0 56.337 56.335"><g transform="translate(-10.2 -10.197)"><title>Page-1</title><g transform="translate(9.84 -34.016)"><title>Azure Data Explorer Cluster.20989</title><title> 1- Icon - Query 60x60 Color</title><g transform="translate(.36 -.367)"><title>Sheet.20991</title><path d="M56.33 44.58H0l56.33 56.33z" style="fill:#0078d4;stroke:none;stroke-width:10.19999981;stroke-linecap:butt"/></g><g transform="rotate(-45 1.99 96.109)"><title>Sheet.20992</title><path d="M0 100.03a.884.883-180 0 0 .884.883l29.286-.003a.884.883-180 0 0 .884-.883l-.004-3.857a.884.883-180 0 0-.884-.883L.88 95.28a.884.883-180 0 0-.884.883z" style="fill:#b8d432;stroke:none;stroke-width:10.19999981;stroke-linecap:butt"/></g><g transform="rotate(-45 -17.257 88.12)"><title>Sheet.20993</title><path d="M0 100.03a.884.883-180 0 0 .884.883l18.066-.003a.884.883-180 0 0 .884-.883l.006-3.857a.884.883-180 0 0-.884-.883L.88 95.28a.884.883-180 0 0-.884.883z" style="fill:#b8d432;stroke:none;stroke-width:10.19999981;stroke-linecap:butt"/></g><g transform="translate(17.022 -17.027)"><title>Sheet.20994</title><path d="m0 77.9 23.01 23.01 16.66-16.66V61.24H16.66Z" style="fill:#59b4d9;stroke:none;stroke-width:10.19999981;stroke-linecap:butt"/></g><g transform="rotate(-45 9.882 76.996)"><title>Sheet.20995</title><path d="M0 100.03a.884.883-180 0 0 .884.883l18.066-.003a.884.883-180 0 0 .884-.883l.006-3.857a.884.883-180 0 0-.884-.883L.88 95.28a.884.883-180 0 0-.884.883z" style="fill:#b8d432;stroke:none;stroke-width:10.19999981;stroke-linecap:butt"/></g><g transform="translate(28.526 -.367)"><title>Sheet.20996</title><path d="M28.17 100.91V44.58L0 72.75Z" style="fill:#fff;fill-opacity:.2;stroke:none;stroke-width:10.19999981;stroke-linecap:butt"/></g><g transform="rotate(-45 -27.34 44.623)"><title>Sheet.20997</title><path d="M0 99.66a1.252 1.251-180 0 0 1.25 1.25h3.12a1.252 1.251-180 0 0 1.25-1.25v-3.12a1.252 1.251-180 0 0-1.25-1.26H1.25A1.252 1.251-180 0 0 0 96.54Z" style="fill:#fff;stroke:none;stroke-width:10.19999981;stroke-linecap:butt"/></g><g transform="rotate(-45 -32.964 31.042)"><title>Sheet.20998</title><path d="M0 99.66a1.252 1.251-180 0 0 1.25 1.25h3.12a1.252 1.251-180 0 0 1.25-1.25v-3.12a1.252 1.251-180 0 0-1.25-1.26H1.25A1.252 1.251-180 0 0 0 96.54Z" style="fill:#fff;stroke:none;stroke-width:10.19999981;stroke-linecap:butt"/></g><g transform="rotate(-45 -13.762 38.997)"><title>Sheet.20999</title><path d="M0 99.66a1.252 1.251-180 0 0 1.25 1.25h3.12a1.252 1.251-180 0 0 1.25-1.25v-3.12a1.252 1.251-180 0 0-1.25-1.26H1.25A1.252 1.251-180 0 0 0 96.54Z" style="fill:#fff;stroke:none;stroke-width:10.19999981;stroke-linecap:butt"/></g><g transform="rotate(-45 -19.385 25.418)"><title>Sheet.21000</title><path d="M0 99.66a1.252 1.251-180 0 0 1.25 1.25h3.12a1.252 1.251-180 0 0 1.25-1.25v-3.12a1.252 1.251-180 0 0-1.25-1.26H1.25A1.252 1.251-180 0 0 0 96.54Z" style="fill:#fff;stroke:none;stroke-width:10.19999981;stroke-linecap:butt"/></g></g></g></svg>