<svg xmlns="http://www.w3.org/2000/svg" xml:space="preserve" width="56.692" height="56.686" style="font-size:12px;overflow:visible;color-interpolation-filters:sRGB;fill-rule:evenodd;stroke-linecap:square;stroke-miterlimit:3" viewBox="0 0 56.692 56.686"><g transform="translate(-38.25 -38.254)"><title>Page-1</title><g transform="translate(38.25 -38.25)"><title>Azure Cosmos DB Script Explorer.21016</title><title>Sheet.21017</title><g transform="translate(18.233 -51.03)"><title>Sheet.21018</title><path d="M6.88 132.38a7.09 7.078-180 0 0-1.63-2.02 10.634 10.617-180 0 0-2.84-1.2l-2.02-.43c-.39.39-.39.82-.39 1.63 0 2.44.82 2.83.82 2.83h6.45a1.24 1.24-180 0 0-.39-.81" style="fill:#2bace2;stroke:none;stroke-width:38.25;stroke-linecap:butt"/></g><g transform="translate(21.848 -14.616)"><title>Sheet.21019</title><path d="M34.84 98.79a7.515 7.502-180 0 0-6.48-7.67H0s5.28 1.2 6.1 5.66a17.724 17.694 0 0 1 .39 2.01 27.542 27.497 0 0 1-1.21 7.68 15.88 15.854 0 0 1 14.57 15.79 20.347 20.313 0 0 1-.81 4.85h9.32v-1.63c0-7.26 6.48-18.19 6.48-26.69m-6.87 29.94h-9.75a16.731 16.704 0 0 1-2.84 4.46h16.2a3.545 3.539-180 0 0 2.45-1.2 7.621 7.609-180 0 0 .81-3.22z" style="fill:#2bace2;stroke:none;stroke-width:38.25;stroke-linecap:butt"/></g><title>Sheet.21020</title><path d="M4.44 133.12a4.608 4.6 0 0 1-3.22-1.2 4.927 4.92 0 0 1 0-6.48l10.63-10.61A14.64 14.616 0 0 1 10.61 104 15.242 15.217 0 0 1 25.5 92.28a11.201 11.183 0 0 1 3.54.39 13.505 13.483 0 0 1 9.33 6.87A14.959 14.934 0 0 1 40 111.25a15.242 15.217 0 0 1-15 11.72 11.201 11.183 0 0 1-3.54-.39 14.392 14.368 0 0 1-3.55-1.63L7.28 131.57a4.112 4.105 0 0 1-2.84 1.62zm20.67-34.79a9.5 9.484-180 0 0-9.32 7.3 10.634 10.617-180 0 0 1.2 7.67l2.45 2.45 3.54 1.2H25a9.5 9.484-180 0 0 9.4-7.29 10.634 10.617-180 0 0-1.21-6.87 10.634 10.617-180 0 0-5.67-4.46z" style="fill:#7a7a7a"/><path d="M4.44 133.12a4.608 4.6 0 0 1-3.22-1.2 4.927 4.92 0 0 1 0-6.48l10.63-10.61A14.64 14.616 0 0 1 10.61 104 15.242 15.217 0 0 1 25.5 92.28a11.201 11.183 0 0 1 3.54.39 13.505 13.483 0 0 1 9.33 6.87A14.959 14.934 0 0 1 40 111.25a15.242 15.217 0 0 1-15 11.72 11.201 11.183 0 0 1-3.54-.39 14.392 14.368 0 0 1-3.55-1.63L7.28 131.57a4.112 4.105 0 0 1-2.84 1.62m20.67-34.86a9.5 9.484-180 0 0-9.32 7.3 10.634 10.617-180 0 0 1.2 7.67l2.45 2.45 3.54 1.2H25a9.5 9.484-180 0 0 9.4-7.29 10.634 10.617-180 0 0-1.21-6.87 10.634 10.617-180 0 0-5.67-4.46z" style="stroke:none;stroke-width:38.25;stroke-linecap:butt"/><g transform="translate(19.76 -19.82)"><title>Sheet.21021</title><path d="M13.86 127.46a8.117 8.104 0 1 1-8.12-8.1 8.117 8.104 0 0 1 8.12 8.1" style="fill:#00aeef;stroke:none;stroke-width:38.25;stroke-linecap:butt"/></g></g></g></svg>