<svg xmlns="http://www.w3.org/2000/svg" xml:space="preserve" width="56.696" height="56.694" style="font-size:12px;overflow:visible;color-interpolation-filters:sRGB;fill-rule:evenodd;stroke-linecap:square;stroke-miterlimit:3" viewBox="0 0 56.696 56.694"><defs><linearGradient id="a" x1=".558" x2="38.59" y1="123.231" y2="123.231" gradientTransform="scale(1.30203 .76803)" gradientUnits="userSpaceOnUse"><stop offset="0" stop-color="#5ea0ef"/><stop offset=".5" stop-color="#0078d4"/><stop offset="1" stop-color="#005ba1"/></linearGradient></defs><g transform="translate(-33.142 -33.14)"><title>Page-1</title><g transform="translate(33.143 -34.016)"><title>Azure Cosmos DB Dedicated Gateway.21065</title><title>path4</title><path d="M31.43 115.47h-.27a.372.38 0 0 1-.369-.377l.009-8.883a25.566 26.135 0 0 1-5.38 0v8.88a.369.377 0 0 1-.369.377l-4.391.003a.369.377-180 0 0-.394.348.36.367-180 0 0 .126.322l7.438 7.6a.365.373-180 0 0 .52 0l7.44-7.6a.365.373-180 0 0-.268-.644zm-13.77-12.93a25.002 25.559 0 0 1-5.23-3.26v7.15a.557.57 0 0 1-.557.57H8.25a.369.377 0 0 1-.369-.377l-.001-4.333a.369.377-180 0 0-.365-.377.36.367-180 0 0-.265.11L.16 109.27a.56.573-180 0 0 0 .805l7.09 7.255a.369.377-180 0 0 .52 0 .372.38-180 0 0 .11-.27v-4.33a.369.377 0 0 1 .369-.377l8.851-.003a.557.57-180 0 0 .56-.563V107Zm38.87 6.73-7.09-7.25a.369.377-180 0 0-.523 0 .356.364-180 0 0-.107.267v4.343a.369.377 0 0 1-.369.377l-3.621.003a.554.567 0 0 1-.56-.563V98.88c-.19.16-.37.34-.56.49a25.368 25.932 0 0 1-4.67 2.92v9.49a.557.57-180 0 0 .558.57h8.852a.369.377 0 0 1 .369.377l.001 4.353a.369.377-180 0 0 .63.267l7.09-7.257a.554.567-180 0 0 0-.805z" style="fill:#c6c6c6;stroke:none;stroke-width:33.14319992;stroke-linecap:butt"/><g transform="translate(2.86 -15.727)"><title>path6</title><path d="m48.1 105.8-16.98-9.89a11.358 11.61-180 0 0-10.31 0L2.83 106.57c-2.83 1.69-2.8 4.42.06 6.12l16.97 9.9a11.31 11.562-180 0 0 10.29 0l17.97-10.68a3.15 3.22-180 0 0-.03-6.1z" style="fill:url(#a)"/><path d="m48.1 105.8-16.98-9.89a11.358 11.61-180 0 0-10.31 0L2.83 106.57c-2.83 1.69-2.8 4.42.06 6.12l16.97 9.9a11.31 11.562-180 0 0 10.29 0l17.97-10.68a3.15 3.22-180 0 0-.03-6.1" style="stroke:none;stroke-width:33.14319992;stroke-linecap:butt"/></g><g transform="translate(2.86 -27.486)"><title>path8</title><path d="m48.1 105.82-16.98-9.9a11.339 11.591-180 0 0-10.31-.02L2.83 106.57c-2.83 1.69-2.8 4.42.06 6.12l16.97 9.89a11.292 11.543-180 0 0 10.29 0l17.97-10.67a3.15 3.22-180 0 0-.03-6.09z" style="fill:#50e6ff"/><path d="m48.1 105.82-16.98-9.9a11.339 11.591-180 0 0-10.31-.02L2.83 106.57c-2.83 1.69-2.8 4.42.06 6.12l16.97 9.89a11.292 11.543-180 0 0 10.29 0l17.97-10.67a3.15 3.22-180 0 0-.03-6.09" style="stroke:none;stroke-width:33.14319992;stroke-linecap:butt"/></g><g transform="translate(21.496 -31.826)"><title>path10</title><path d="M9 102.45a.381.39-180 0 0-.192-.051.491.502-180 0 0-.343.2L.07 115.08a.488.5-180 0 0-.044.45.495.506-180 0 0 .39.249l5.024.001-2.24 7.53a.375.383-180 0 0 .195.496.315.322-180 0 0 .192.048.491.502-180 0 0 .344-.2l8.639-12.634c.05-.1.09-.14.09-.24a.435.444-180 0 0-.431-.45H7.05l2.16-7.38a.372.38-180 0 0-.202-.502z" style="fill:#fff;stroke:none;stroke-width:33.14319992;stroke-linecap:butt"/></g></g></g></svg>