<svg xmlns="http://www.w3.org/2000/svg" xml:space="preserve" width="56.69" height="57.021" style="font-size:12px;overflow:visible;color-interpolation-filters:sRGB;fill-rule:evenodd;stroke-linecap:square;stroke-miterlimit:3" viewBox="0 0 56.69 57.021"><defs><linearGradient id="a" x1="0" x2="30.093" y1="155.943" y2="155.943" gradientTransform="scale(1.48805 .67202)" gradientUnits="userSpaceOnUse"><stop offset="0" stop-color="#005ba1"/><stop offset=".365" stop-color="#004e8f"/><stop offset="1" stop-color="#003067"/></linearGradient><linearGradient id="b" x1="0" x2="29.599" y1="156.429" y2="156.429" gradientTransform="scale(1.48485 .67347)" gradientUnits="userSpaceOnUse"><stop offset="0" stop-color="#005ba1"/><stop offset=".45" stop-color="#004685"/><stop offset="1" stop-color="#003067"/></linearGradient><linearGradient id="c" x1="0" x2="19.335" y1="75.458" y2="75.458" gradientTransform="scale(.75822 1.31887)" gradientUnits="userSpaceOnUse"><stop offset=".26" stop-color="#50e6ff"/><stop offset=".42" stop-color="#79eaff"/><stop offset=".58" stop-color="#99edff"/><stop offset=".735" stop-color="#b0efff"/><stop offset=".875" stop-color="#bef1ff"/><stop offset="1" stop-color="#c3f1ff"/></linearGradient></defs><g transform="translate(-34 -33.997)"><title>Page-1</title><g transform="translate(34 -34.079)"><title>Azure Media Services.20914</title><title>Sheet.20915</title><g transform="translate(8.15 -36.72)"><title>Sheet.20916</title><path d="m20.92 116.87 14.06 8.15 9.8-5.7A28.265 28.485-180 0 0 0 113.3a32.209 32.46 0 0 1 20.92 3.57" style="fill:url(#a);stroke:none;stroke-width:34;stroke-linecap:butt"/></g><g transform="translate(36.054 -14.414)"><title>Sheet.20917</title><path d="m6.89 102.72-.22 19.54 10.18 2.76A28.265 28.485-180 0 0 0 83.58a33.569 33.83 0 0 1 6.89 19.14" style="fill:#0078d4;stroke:none;stroke-width:34;stroke-linecap:butt"/></g><g transform="translate(28.29)"><title>Sheet.20918</title><path d="M14.63 105.16 0 113.68l.23 11.34A28.29 28.51-180 0 0 28.4 96.51a27.107 27.319-180 0 0-.92-6.77 30.775 31.015 0 0 1-12.85 15.42" style="fill:#5ea0ef;stroke:none;stroke-width:34;stroke-linecap:butt"/></g><g transform="translate(3.938 -.187)"><title>Sheet.20919</title><path d="m24.35 113.87-14.64-8.52L0 111.22a28.226 28.446-180 0 0 43.95 6.09 31.852 32.1 0 0 1-19.6-3.44" style="fill:url(#b);stroke:none;stroke-width:34;stroke-linecap:butt"/></g><g transform="translate(0 -.894)"><title>Sheet.20920</title><path d="m13.64 106.06.22-20.21-10.02-2.66A28.11 28.33-180 0 0 0 97.48a28.441 28.663-180 0 0 21.01 27.54 32.762 33.018 0 0 1-7.37-18.96" style="fill:#0078d4;stroke:none;stroke-width:34;stroke-linecap:butt"/></g><g transform="translate(0 -20.917)"><title>Sheet.20921</title><path d="m14.15 108.76 14.14-8.24a34.01 34.275-180 0 0-19.1-4.04A28.155 28.375-180 0 0 0 117.51a28.975 29.201-180 0 0 1.01 7.51 32.952 33.209 0 0 1 13.14-16.26" style="fill:#5ea0ef;stroke:none;stroke-width:34;stroke-linecap:butt"/></g><g transform="translate(13.637 -11.34)"><title>Sheet.20922</title><path d="M29.29 116.5V99.46l-14.65-8.52L0 99.46v17.04l14.64 8.52z" style="fill:#c3f1ff;stroke:none;stroke-width:34;stroke-linecap:butt"/></g><g transform="translate(13.637 -11.34)"><title>Sheet.20923</title><path d="M14.66 108.16v16.86L0 116.5V99.52Z" style="fill:url(#c);stroke:none;stroke-width:34;stroke-linecap:butt"/></g><g transform="translate(28.28 -11.34)"><title>Sheet.20924</title><path d="M0 108.16v16.86l14.66-8.52V99.52Z" style="fill:#50e6ff;stroke:none;stroke-width:34;stroke-linecap:butt"/></g></g></g></svg>