<svg xmlns="http://www.w3.org/2000/svg" xml:space="preserve" width="51.02" height="56.69" style="font-size:12px;overflow:visible;color-interpolation-filters:sRGB;fill-rule:evenodd;stroke-linecap:square;stroke-miterlimit:3" viewBox="0 0 51.02 56.69"><g transform="translate(-5.87 -5.874)"><title>Page-1</title><g transform="translate(5.87 -34.016)"><title>Azure Databricks.20952</title><title>Sheet.20953</title><title>Sheet.20954</title><path d="M0 54.66v1.71l25.51 14.76 22.79-13.2v5.33L25.51 76.54 1.28 62.42 0 63.16v10.21l25.51 14.72L48.3 74.94v5.29L25.51 93.51 1.28 79.4 0 80.13v1.73l25.51 14.72 25.51-14.72V71.64l-1.28-.73-24.23 14.12L2.72 71.75v-5.27l22.79 13.14 25.51-14.73V54.82l-1.28-.73-24.23 14.12-21.62-12.6 21.62-12.52 17.81 10.32 1.56-.9V51.1L25.51 39.89Z" style="fill:#ff3621;stroke:none;stroke-width:5.8699398;stroke-linecap:butt"/></g></g></svg>