<svg xmlns="http://www.w3.org/2000/svg" xml:space="preserve" width="48.19" height="56.698" style="font-size:12px;overflow:visible;color-interpolation-filters:sRGB;fill-rule:evenodd;stroke-linecap:square;stroke-miterlimit:3" viewBox="0 0 48.19 56.698"><defs><linearGradient id="a" x1="0" x2="28.58" y1="181.698" y2="181.698" gradientTransform="scale(1.68614 .59307)" gradientUnits="userSpaceOnUse"><stop offset=".2" stop-color="#005ba1"/><stop offset="1" stop-color="#0078d4"/></linearGradient><linearGradient id="b" x1="-1.465" x2="25.209" y1="117.098" y2="117.098" gradientTransform="scale(1.13731 .87927)" gradientUnits="userSpaceOnUse"><stop offset="0" stop-color="#198ab3"/><stop offset=".17" stop-color="#32bedd"/><stop offset=".5" stop-color="#50e6ff"/><stop offset=".5" stop-color="#4fe4fd"/><stop offset=".5" stop-color="#4bddf8"/><stop offset=".5" stop-color="#44d2ee"/><stop offset=".5" stop-color="#3ac1e0"/><stop offset=".5" stop-color="#2dabce"/><stop offset=".5" stop-color="#1d90b8"/><stop offset=".5" stop-color="#198ab3"/><stop offset=".66" stop-color="#32bedd"/><stop offset=".975" stop-color="#50e6ff"/></linearGradient></defs><g transform="translate(-34 -33.996)"><title>Page-1</title><g transform="translate(34 -34.016)"><title>Azure Cosmos DB Synapse Link.21010</title><title>Sheet.21011</title><title>Sheet.21012</title><path d="M24.09 68.02 0 82.16v28.25l24.09 14.3 24.1-14.14V82.22Zm19.65 39.59-19.65 11.65-19.64-11.53V84.96l19.64-11.65 19.65 11.68Z" style="fill:#0078d4;stroke:none;stroke-width:34;stroke-linecap:butt"/><g transform="translate(0 -39.748)"><title>Sheet.21013</title><path d="M24.09 107.76 0 121.91l4.45 2.8 19.64-11.65 19.65 11.65 4.45-2.8z" style="fill:url(#a);stroke:none;stroke-width:34;stroke-linecap:butt"/></g><g transform="translate(7.56 -7.083)"><title>Sheet.21014</title><path d="M28.01 108.09a2.24 2.3-180 0 0-.99-.9 17.91 18.378-180 0 0-13.74-10.54l19.88-11.79-4.62-2.72L5.9 95.57a2.302 2.362-180 0 0 1.15 4.41 2.1 2.154-180 0 0 .28-.07l.38 1.65a13.257 13.603 0 0 1 14.85 7.04L0 121.98l4.6 2.73 22.57-13.39a2.238 2.296-180 0 0 .75-.74l.23-.06c-.03-.09-.06-.17-.08-.26a2.256 2.315-180 0 0-.06-2.17" style="fill:#50e6ff;stroke:none;stroke-width:34;stroke-linecap:butt"/></g><g transform="translate(10.592 -18.359)"><title>Sheet.21015</title><path d="M22.99 114.76a5.678 5.827-180 1 0 5.68 5.83 5.678 5.827-180 0 0-5.68-5.83m-18.97-11.8a5.678 5.827-180 1 0 5.67 5.83 5.678 5.827-180 0 0-5.67-5.83" style="fill:url(#b);stroke:none;stroke-width:34;stroke-linecap:butt"/></g></g></g></svg>