<svg xmlns="http://www.w3.org/2000/svg" xml:space="preserve" width="42.52" height="56.699" style="font-size:12px;overflow:visible;color-interpolation-filters:sRGB;fill-rule:evenodd;stroke-linecap:square;stroke-miterlimit:3" viewBox="0 0 42.52 56.699"><defs><linearGradient id="a" x1="0" x2="45.627" y1="70.593" y2="70.593" gradientTransform="scale(.93191 1.07306)" gradientUnits="userSpaceOnUse"><stop offset="0" stop-color="#005ba1"/><stop offset=".07" stop-color="#0060a9"/><stop offset=".36" stop-color="#0071c8"/><stop offset=".52" stop-color="#0078d4"/><stop offset=".64" stop-color="#0074cd"/><stop offset=".82" stop-color="#006abb"/><stop offset="1" stop-color="#005ba1"/></linearGradient></defs><g transform="translate(-34 -33.995)"><title>Page-1</title><g transform="translate(34 -34.016)"><title>Azure Database for MariaDB.20982</title><title>Icon-databases-123</title><title>Sheet.20984</title><path d="M21.26 83.49C9.52 83.49 0 80.15 0 75.75v41.22c0 4.24 9.35 7.67 20.96 7.74h.3c11.74 0 21.26-3.34 21.26-7.74V75.75c0 4.3-9.52 7.74-21.26 7.74" style="fill:url(#a);stroke:none;stroke-width:34;stroke-linecap:butt"/><g transform="translate(0 -41.22)"><title>Sheet.20985</title><path d="M42.52 116.97c0 4.3-9.52 7.74-21.26 7.74S0 121.37 0 116.97s9.52-7.74 21.26-7.74 21.26 3.34 21.26 7.74" style="fill:#e8e8e8;stroke:none;stroke-width:34;stroke-linecap:butt"/></g><g transform="translate(4.942 -44.654)"><title>Sheet.20986</title><path d="M32.64 119.77c0 2.74-7.33 4.94-16.32 4.94S0 122.51 0 119.77c0-2.73 7.33-4.9 16.32-4.9s16.32 2.2 16.32 4.9" style="fill:#50e6ff;stroke:none;stroke-width:34;stroke-linecap:butt"/></g><g transform="translate(8.358 -44.654)"><title>Sheet.20987</title><path d="M12.9 121.01a38.308 38.518-180 0 0-12.9 1.9 37.876 38.084-180 0 0 12.9 1.8 36.98 37.184-180 0 0 12.9-1.94 39.27 39.485-180 0 0-12.9-1.76" style="fill:#198ab3;stroke:none;stroke-width:34;stroke-linecap:butt"/></g><g transform="translate(3.482 -13.706)"><title>Sheet.20988</title><path d="M35.19 101.13c-1.09 0 .2.83-3.68 1s-5.24 4.17-7.76 7.54a16.351 16.44 0 0 1-9.95 4.7 12.172 12.239-180 0 0-6.24 4.64 3.051 3.068 0 0 1-2.35 1.73c-.9 0-2.86.27-2.86.27a11.144 11.205-180 0 0-2.35.8c.27 1.1 2.45.63 2.45.63a17.413 17.508 0 0 1-1.72 1.57 9.287 9.338-180 0 0 3.32.17c1.42 0 2.52-1.37 5.14-2.81 2.62-1.43 8.65 0 9.62 0 .96 0 2.38-2.53 2.72-3.33.26 1.8-2.72 6.67-2.72 6.67a6.998 7.037-180 0 0 5.5-3.34c.27-.33 1.1-2.06 1.2-1.9.09.17.53.64.69.57a6.235 6.27-180 0 0 .83-.9 25.14 25.278-180 0 0 3.78-8.27c.23-.8.23-3.7 2.22-4.9s2.26-2.3 2.26-2.4v-.17a5.406 5.436 0 0 1-1.29-1.17.365.367 0 0 1 0-.367 2.554 2.568-180 0 0 1.59 1.267s.69-2-.4-2m-4.15 3.54h-.19a1.194 1.2 0 0 1-1-.27 1.592 1.6 0 0 1 1.72-1 .995 1 0 0 1-.53 1.267zm1.86 0a9.32 9.371 0 0 1 1.1-1.94 10.348 10.405-180 0 0-1.16 2.07zm1.2-1.7a6.003 6.036-180 0 0-.27 1.7 5.605 5.636 0 0 1 0-1.27 4.643 4.669-180 0 0-.53 1.3 4.444 4.469 0 0 1 .73-1.6zm-5.68 15.5s-1.62 1.54-1.69 2.07c-.06.53 1.79 1.37 2.95 1.07a25.14 25.278 0 0 1-1.26-3.14" style="fill:#f2f2f2;stroke:none;stroke-width:34;stroke-linecap:butt"/></g></g></g></svg>