<svg xmlns="http://www.w3.org/2000/svg" xml:space="preserve" width="51.02" height="56.69" style="font-size:12px;overflow:visible;color-interpolation-filters:sRGB;fill-rule:evenodd;stroke-linecap:square;stroke-miterlimit:3" viewBox="0 0 51.02 56.69"><g transform="translate(-25.5 -25.504)"><title>Page-1</title><g transform="translate(25.5 -34.016)"><title>Azure Cosmos DB Notification.21033</title><title> E-Icons/COMMON24x24/Notificati</title><title>Sheet.21035</title><title>Sheet.21036</title><path d="m48.7 67.23-5.56-5.45-2.32-2.26H0v56.69h51.02V69.49Z" style="fill:#59b4d9;stroke:none;stroke-width:25.5;stroke-linecap:butt"/><g transform="translate(2.32 -2.268)"><title>Sheet.21037</title><path d="M38.27 64.05H0v52.16h46.39V71.99h-8.12z" style="fill:#fff;fill-opacity:.8;stroke:none;stroke-width:25.5;stroke-linecap:butt"/></g><g transform="translate(9.857 -10.998)"><title>Sheet.21038</title><path d="M20.06 114.96a1.288 1.26 0 0 1-1.27 1.25H1.28A1.288 1.26 0 0 1 0 114.96a1.288 1.26 0 0 1 1.28-1.25h17.51a1.288 1.26 0 0 1 1.27 1.25m11.71-8.5a1.288 1.26 0 0 1-1.27 1.24H1.28A1.288 1.26 0 0 1 0 106.46a1.288 1.26 0 0 1 1.28-1.25h29.1c.81 0 1.39.57 1.39 1.25" style="fill:#59b4d9;stroke:none;stroke-width:25.5;stroke-linecap:butt"/></g><g transform="translate(14.495 -27.44)"><title>Sheet.21039</title><path d="M10.67 111.45c.11 0 .11 0 .35.11l6.26 4.54-2.44-7.37c0-.12 0-.46.12-.57l6.26-4.54h-7.65a.699.683 0 0 1-.58-.454l-2.32-7.256-2.44 7.37c0 .12-.34.46-.58.46H0l6.26 4.53c.12.12.35.46.12.57l-2.44 7.37 6.26-4.54c.12-.22.35-.22.47-.22" style="fill:#804998;stroke:none;stroke-width:25.5;stroke-linecap:butt"/></g></g></g></svg>