<svg xmlns="http://www.w3.org/2000/svg" xml:space="preserve" width="47.657" height="53.333" style="font-size:12px;overflow:visible;color-interpolation-filters:sRGB;fill-rule:evenodd;stroke-linecap:square;stroke-miterlimit:3" viewBox="0 0 47.657 53.333"><g transform="translate(-17 -17.003)"><title>Page-1</title><g transform="translate(17 -34.016)"><title>Azure Database for PostgreSQL Group.20962</title><title>Sheet.20963</title><g transform="translate(0 -3.44)"><title>Sheet.20964</title><path d="M0 61.74v38.68c0 4.07 9.2 7.29 20.47 7.29V61.74Z" style="fill:#3998c5;stroke:none;stroke-width:17;stroke-linecap:butt"/></g><g transform="translate(20.253 -3.44)"><title>Sheet.20965</title><path d="M0 107.71h.33c11.38 0 20.46-3.22 20.46-7.29V61.74H0Z" style="fill:#59b3d8;stroke:none;stroke-width:17;stroke-linecap:butt"/></g><g transform="translate(0 -42.121)"><title>Sheet.20966</title><path d="M41.05 100.42c0 3.97-9.19 7.29-20.46 7.29S0 104.39 0 100.42c0-3.96 9.2-7.28 20.47-7.28 11.28 0 20.58 3.32 20.58 7.28" style="fill:#fff;stroke:none;stroke-width:17;stroke-linecap:butt"/></g><g transform="translate(4.165 -45.014)"><title>Sheet.20967</title><path d="M32.72 102.89c0 2.68-7.33 4.82-16.31 4.82S0 105.57 0 102.89s7.33-4.82 16.31-4.82 16.41 2.14 16.41 4.82" style="fill:#7fb900;stroke:none;stroke-width:17;stroke-linecap:butt"/></g><g transform="translate(4.165 -46.943)"><title>Sheet.20968</title><path d="M29.22 107.71c2.19-.85 3.4-1.82 3.4-2.89 0-2.68-7.34-4.83-16.31-4.83-8.98 0-16.31 2.15-16.31 4.83 0 1.07 1.31 2.14 3.39 2.89a37.246 36.613 0 0 1 12.92-1.82 40.028 39.348 0 0 1 12.91 1.82" style="fill:#b7d332;stroke:none;stroke-width:17;stroke-linecap:butt"/></g><g transform="translate(6.77 -10.428)"><title>Sheet.20969</title><path d="M25.29 97.46c-3.25.66-3.48-.43-3.48-.43 3.44-4.99 4.88-11.33 3.64-12.88-3.39-4.24-9.25-2.23-9.35-2.18h-.03a11.619 11.421-180 0 0-2.17-.22 5.393 5.302-180 0 0-3.44 1S0 78.54.49 88.05c.11 2.03 2.96 15.32 6.37 11.31 1.25-1.47 2.46-2.71 2.46-2.71a3.172 3.118-180 0 0 2.07.51l.05-.04a2.23 2.192-180 0 0 .03.57c-.88.96-.62 1.13-2.38 1.48s-.73 1-.05 1.16a3.612 3.55-180 0 0 4.03-1.27l-.05.2a5.827 5.728 0 0 1 .54 3.1 8.693 8.546-180 0 0 .2 3c.28.72.55 2.35 2.86 1.86a3.4 3.342-180 0 0 3.07-3.2c.1-1.24.33-1.07.34-2.17l.18-.53c.21-1.69.03-2.23 1.22-1.98l.29.03a6.621 6.509-180 0 0 2.69-.45c1.45-.65 2.31-1.75.88-1.46" style="fill:#336790;stroke:none;stroke-width:17;stroke-linecap:butt"/></g><g transform="translate(17.006 -28.238)"><title>Sheet.20970</title><path d="M1.3 106.92a1.387 1.364-180 0 0-.47-.14 1.011.994-180 0 0-.694.096.259.254-180 0 0-.072.073.235.23-180 0 0-.036.093c-.028.208.292.608.702.668a.712.7-180 0 0 .098 0 .766.753-180 0 0 .69-.433l.012-.037c.01-.06-.01-.2-.23-.32m9.01-.33a1.321 1.299-180 0 0-.47-.01c-.34.05-.67.2-.64.39v.02a.677.666-180 0 0 .254.296.686.675-180 0 0 .375.108l.091.006a.822.808-180 0 0 .463-.25.53.52-180 0 0 .175-.346c-.008-.104-.098-.184-.248-.214" style="fill:#fff;stroke:none;stroke-width:17;stroke-linecap:butt"/></g><g transform="translate(6.79 -10.479)"><title>Sheet.20971</title><path d="M26.26 97.47c-.16-.47-.85-.33-1.07-.28-2.3.46-2.94 0-3.07-.13a26.547 26.095-180 0 0 3.55-7.81c.63-2.48.62-4.46-.03-5.27a7.426 7.3-180 0 0-5.77-2.79 11.21 11.019-180 0 0-3.86.5h-.02l-.05.02-.04.01a9.065 8.91-180 0 0-2.04-.26 5.82 5.722-180 0 0-3.45.96 15.238 14.979-180 0 0-3.31-.81 6.857 6.74-180 0 0-4.88.86C.71 83.52 0 85.41.14 88.08c.06 1.26 1.95 11.3 4.9 12.26a1.806 1.775-180 0 0 2.01-.78c1.05-1.24 2.03-2.26 2.28-2.52a3.612 3.55-180 0 0 1.72.44 1.204 1.183-180 0 0 .01.18c-.11.12-.21.24-.31.37-.4.5-.49.61-1.77.87-.52.11-1.2.3-1.22.81-.02.5.71.82 1.14.92a3.897 3.831-180 0 0 3.96-.94 26.184 25.739-180 0 0 .38 5.96 2.835 2.787-180 0 0 2.73 2.06 4.293 4.22-180 0 0 .9-.1 3.437 3.379-180 0 0 3.17-3.16c.19-1.06.52-3.65.66-4.95a3.36 3.303-180 0 0 1.22.18 6.772 6.657-180 0 0 2.55-.47c.84-.38 1.99-1.15 1.79-1.74m-6.08 1.38c-.06.73-.49 4.24-.71 5.51a2.87 2.82 0 0 1-2.71 2.68 2.292 2.253 0 0 1-2.96-1.6 31.946 31.403 0 0 1-.32-6.95.268.263-180 0 0-.03-.13 1.491 1.466-180 0 0-.05-.27 1.505 1.48-180 0 0-.28-.51 1.49 1.464-180 0 0-.45-.36l-.04-.02a1.097 1.078-180 0 0-.94-.05 7.566 7.438 0 0 1 .39-1.22l.06-.16c.07-.18.15-.36.24-.56a8 7.864-180 0 0 .42-5.71 1.998 1.964-180 0 0-.86-1.31 2.009 1.975-180 0 0-1.57-.29 5.946 5.844-180 0 0-2.3.81 8.748 8.599 0 0 1 2.02-5.27 4.99 4.905 0 0 1 3.77-1.38 7.775 7.643 0 0 1 5.66 2.42 9.128 8.973 0 0 1 2.06 3.32c-1.55-.18-2.59.09-3.11.81-1.08 1.53.64 4.56 1.47 6.02.14.24.29.5.33.61a5.479 5.386-180 0 0 .88 1.38 2.877 2.828 0 0 1 .3.39l-.07.02c-.44.12-1.26.34-1.19 1.82zm-14.94.94c-.99-.32-2.09-2.26-3.09-5.47a35.589 34.984 0 0 1-1.41-6.26c-.12-2.46.49-4.18 1.83-5.1a5.435 5.343 0 0 1 3.16-.84 13.72 13.486 0 0 1 4.13.74 2.257 2.219-180 0 0-.19.17 9.796 9.63-180 0 0-2.21 6.33v.02a18.878 18.557 0 0 1-.07 3.65 4.074 4.004-180 0 0 1.08 3.36 3.4 3.343-180 0 0 .37.32c-.38.39-1.28 1.34-2.24 2.48-.47.55-.91.74-1.36.6m2.74-6.68a19.456 19.125-180 0 0 .08-3.68 4.599 4.52 0 0 1 3.05-.93 1.314 1.291 0 0 1 1.1 1.12 7.407 7.28 0 0 1-.38 5.35c-.09.19-.18.4-.26.6l-.06.16a9.428 9.267-180 0 0-.39 1.18 2.968 2.917 0 0 1-2.23-.92 3.494 3.435 0 0 1-.91-2.89Zm3.67 4.8.03-.04a.494.485 0 0 1 .301-.207.504.496 0 0 1 .364.049l.045.028a.903.888 0 0 1 .397 1.172 3.329 3.272 0 0 1-3.717 1.168 1.603 1.575 0 0 1-.69-.33 1.655 1.627 0 0 1 .73-.26c1.43-.29 1.63-.48 2.12-1.08.11-.13.24-.3.42-.5m9.18-2.89c-.06-.14-.19-.36-.36-.67l-.01-.01c-.71-1.24-2.37-4.17-1.49-5.4a2.001 1.967 0 0 1 1.72-.61 7.331 7.207 0 0 1 .94.07 7.694 7.563 0 0 1-.12 1.23 10.15 9.977-180 0 0-.14 1.29 9.908 9.74-180 0 0 .11 1.47 5.267 5.177 0 0 1-.33 3.22 3.96 3.892 0 0 1-.32-.59m4.08-5.31a29.836 29.329 0 0 1-3.11 6.77 2.624 2.58-180 0 0-.19-.23l-.07-.09-.02-.02a5.52 5.426-180 0 0 .53-3.83 9.18 9.023 0 0 1-.1-1.37 9.959 9.79 0 0 1 .14-1.23 7.51 7.383-180 0 0 .12-1.5.498.49-180 0 0 .017-.19 9.297 9.139-180 0 0-5.337-5.97c4.87-1.17 7.4 1.2 8.28 2.29.65.81.55 2.72-.26 5.37m-3.38 7.88a1.604 1.577-180 0 0 .22-.07 1.62 1.592-180 0 0 .15.11 4.89 4.808-180 0 0 3.42.12 1.982 1.948 0 0 1 .31-.04 3.89 3.824 0 0 1-1.38.96 5.377 5.285 0 0 1-3.4.25c-.06-.03-.07-.06-.07-.07-.06-1.03.35-1.15.76-1.26z" style="fill:#fff;stroke:none;stroke-width:17;stroke-linecap:butt"/></g><g transform="rotate(-40.155 17.957 59.046)"><title>Sheet.20972</title><ellipse cx="10.03" cy="100.555" rx="10.03" ry="7.154" style="fill:#00791e;stroke:none;stroke-width:17;stroke-linecap:butt"/></g><g transform="translate(34.174 -3.67)"><title>Sheet.20973</title><path d="M12.16 93.19a5.86 5.76-180 0 0-3.61-1.89L0 107.71a10.945 10.759-180 0 0 9.18-2.69c4.24-3.51 5.57-8.81 2.98-11.83" style="fill:#fff;fill-opacity:.2;stroke:none;stroke-width:17;stroke-linecap:butt"/></g><g transform="translate(31.269 -6.263)"><title>Sheet.20974</title><path d="M4.93 105.23c-2.04-.84-2.18-4.16.14-5.85 3.76-2.65 3.99 1.17.98 1.66-.01 1.37 3.93 1.21 5.61-1.85 1.9-3.46-3.67-5.64-8.5-.41-3.09 3.35-3.16 7.93-.44 8.93a8.243 8.103-180 0 0 10.58-8.48c-2.61 5.99-6.31 6.86-8.37 6" style="fill:#fff;stroke:none;stroke-width:17;stroke-linecap:butt"/></g></g></g></svg>