<svg xmlns="http://www.w3.org/2000/svg" xml:space="preserve" width="53.855" height="56.692" style="font-size:12px;overflow:visible;color-interpolation-filters:sRGB;fill-rule:evenodd;stroke-linecap:square;stroke-miterlimit:3" viewBox="0 0 53.855 56.692"><defs><linearGradient id="a" x1="0" x2="23.206" y1="142.467" y2="142.467" gradientTransform="scale(1.71896 .58175)" gradientUnits="userSpaceOnUse"><stop offset=".2" stop-color="#005ba1"/><stop offset="1" stop-color="#0078d4"/></linearGradient><linearGradient id="b" x1="-1.189" x2="20.47" y1="91.64" y2="91.64" gradientTransform="scale(1.15927 .86261)" gradientUnits="userSpaceOnUse"><stop offset="0" stop-color="#198ab3"/><stop offset=".17" stop-color="#32bedd"/><stop offset=".5" stop-color="#50e6ff"/><stop offset=".5" stop-color="#4fe4fd"/><stop offset=".5" stop-color="#4bddf8"/><stop offset=".5" stop-color="#44d2ee"/><stop offset=".5" stop-color="#3ac1e0"/><stop offset=".5" stop-color="#2dabce"/><stop offset=".5" stop-color="#1d90b8"/><stop offset=".5" stop-color="#198ab3"/><stop offset=".66" stop-color="#32bedd"/><stop offset=".975" stop-color="#50e6ff"/></linearGradient></defs><g transform="translate(-5.386 -5.672)"><title>Page-1</title><g transform="translate(5.386 -34.016)"><title>Azure Synapse Analytics Dedicated SQL Pool.20899</title><title>Page-1</title><title>Sheet.20901</title><g transform="translate(0 -11.528)"><title>Sheet.20902</title><title>Sheet.20903</title><title>Sheet.20904</title><path d="M19.94 51.22 0 62.48v22.5l19.94 11.4 19.95-11.27V62.53Zm16.25 31.53-16.25 9.29-16.26-9.18V64.72l16.26-9.29 16.25 9.31z" style="fill:#0078d4;stroke:none;stroke-width:.74999899;stroke-linecap:butt"/><g transform="translate(0 -31.664)"><title>Sheet.20905</title><title>Sheet.20906</title><path d="M19.94 82.88 0 94.14l3.68 2.24 16.26-9.29 16.25 9.29 3.7-2.24z" style="fill:url(#a);stroke:none;stroke-width:.74999899;stroke-linecap:butt"/></g><g transform="translate(6.257 -5.643)"><title>Sheet.20907</title><title>Sheet.20908</title><path d="M23.19 83.14a1.854 1.832-180 0 0-.82-.72 14.822 14.64-180 0 0-11.38-8.4l16.45-9.39-3.83-2.16-18.73 10.7a1.905 1.882-180 0 0 .96 3.51 1.738 1.716-180 0 0 .22-.06l.32 1.31a10.971 10.837 0 0 1 12.29 5.62L0 94.21l3.81 2.17 18.68-10.67a1.852 1.83-180 0 0 .61-.59l.19-.05c-.02-.06-.04-.14-.06-.21a1.867 1.844-180 0 0-.04-1.72" style="fill:#50e6ff;stroke:none;stroke-width:.74999899;stroke-linecap:butt"/></g><g transform="translate(8.768 -14.627)"><title>Sheet.20909</title><title>Sheet.20910</title><path d="M19.02 88.45a4.7 4.642-180 1 0 4.71 4.65 4.7 4.642-180 0 0-4.71-4.65m-15.7-9.4a4.7 4.642-180 1 0 4.7 4.65 4.7 4.642-180 0 0-4.7-4.65" style="fill:url(#b);stroke:none;stroke-width:.74999899;stroke-linecap:butt"/></g></g><g transform="translate(30.095)"><title>Sheet.20911</title><title>Sheet.20912</title><title>Sheet.20913</title><path d="M16.34 81.71c.11-.01.23-.01.34-.01h.34a16.5 16.5 0 0 1 2.51.2c.5.08 1 .19 1.51.33.5.15.95.33 1.36.54.39.21.72.48.98.79.25.32.38.68.38 1.08v8.81c0 .4-.11.75-.37 1.05-.25.3-.57.56-.97.78q-.615.33-1.35.54c-.5.14-.99.25-1.49.34-.51.09-.97.14-1.41.18-.44.02-.8.03-1.09.04-.28 0-.65-.02-1.09-.04-.44-.04-.91-.1-1.4-.18-.49-.09-1-.19-1.49-.33-.5-.14-.95-.32-1.34-.54-.41-.22-.74-.48-.98-.78-.25-.3-.38-.65-.39-1.06v-8.81c0-.33.08-.62.23-.88s.34-.48.58-.68c.26-.19.54-.36.85-.5.31-.15.63-.26.96-.36.33-.09.66-.17.97-.23.32-.06.61-.1.87-.14v-3.07H2.97v8.8H1.48v-8.8H0V77.3l8.91-4.39 8.91 4.39v1.48h-1.48ZM3.28 77.3h11.27l-5.64-2.78Zm19 16.15v-6.89c-.37.2-.78.35-1.21.49-.43.13-.87.23-1.32.32-.45.08-.91.13-1.35.15-.46.04-.9.05-1.32.06-.41 0-.85-.02-1.31-.06a11.7 11.7 0 0 1-2.68-.46c-.43-.13-.84-.29-1.2-.5v6.89c0 .08.03.16.1.23.09.08.16.14.23.18.29.2.64.38 1.04.52.41.13.85.24 1.31.31.45.08.89.14 1.33.17.43.04.82.05 1.18.05.34 0 .74-.02 1.19-.05.44-.03.88-.08 1.33-.16.45-.07.88-.19 1.28-.32.42-.15.77-.32 1.06-.52.06-.04.14-.1.21-.18.08-.07.12-.15.13-.23m-5.2-7.34c.34 0 .74-.02 1.19-.05.44-.03.88-.08 1.33-.16a6.5 6.5 0 0 0 1.28-.34c.42-.13.77-.31 1.06-.5.06-.04.14-.11.21-.18.08-.07.12-.16.13-.24 0-.09-.04-.17-.14-.26-.1-.08-.17-.14-.24-.19-.3-.2-.66-.35-1.06-.49-.41-.13-.83-.23-1.28-.32-.44-.08-.88-.13-1.3-.16-.44-.03-.84-.04-1.18-.05-.35 0-.73.02-1.17.05s-.88.09-1.31.16c-.44.08-.87.18-1.28.31s-.76.29-1.06.5c-.05.05-.14.1-.22.18q-.15.135-.15.27c0 .08.03.17.1.24.09.07.16.14.23.18.29.2.64.37 1.04.5.41.15.85.26 1.31.33.45.08.89.14 1.33.17.43.04.82.05 1.18.05M4.46 87.58v-1.47h1.48v1.47zm2.97 0v-1.47h1.48v1.47zm-2.97-2.94v-1.47h1.48v1.47zm0-2.93v-1.47h1.48v1.47zm2.97 2.93v-1.47h1.48v1.47z" style="fill:#000;stroke:none;stroke-width:.74999899;stroke-linecap:butt"/></g></g></g></svg>