<svg xmlns="http://www.w3.org/2000/svg" xml:space="preserve" width="48.19" height="56.69" style="font-size:12px;overflow:visible;color-interpolation-filters:sRGB;fill-rule:evenodd;stroke-linecap:square;stroke-miterlimit:3" viewBox="0 0 48.19 56.69"><defs><linearGradient id="a" x1="-.043" x2="19.363" y1="125.778" y2="125.778" gradientTransform="scale(1.16418 .85898)" gradientUnits="userSpaceOnUse"><stop offset=".23" stop-color="#5ea0ef"/><stop offset=".32" stop-color="#5b9fee"/><stop offset=".48" stop-color="#509aeb"/><stop offset=".57" stop-color="#3f92e6"/><stop offset=".75" stop-color="#2688df"/><stop offset=".93" stop-color="#127fd9"/></linearGradient><linearGradient id="b" x1="-.045" x2="19.356" y1="125.827" y2="125.827" gradientTransform="scale(1.16453 .85872)" gradientUnits="userSpaceOnUse"><stop offset=".2" stop-color="#50e6ff"/><stop offset=".65" stop-color="#32bedd"/><stop offset="1" stop-color="#198ab3"/></linearGradient><linearGradient id="c" x1="0" x2="28.58" y1="181.698" y2="181.698" gradientTransform="scale(1.68614 .59307)" gradientUnits="userSpaceOnUse"><stop offset=".2" stop-color="#005ba1"/><stop offset="1" stop-color="#0078d4"/></linearGradient></defs><g transform="translate(-34 -34.004)"><title>Page-1</title><g transform="translate(34 -34.016)"><title>Azure Synapse Analytics Private Link Hub.20878</title><title>Sheet.20879</title><g transform="translate(8.755 -23.48)"><title>Sheet.20880</title><path d="M14.53 108.04h-6.5a8.115 8.328-180 0 0-1.25 16.55 8.668 8.894 0 0 1 .08-3.09 5.126 5.26 0 0 1 1.17-10.4h6.5a5.141 5.276 0 0 1 0 10.55h-1.79a3.913 4.016-180 0 0-.38 1.67 3.788 3.887-180 0 0 .26 1.39h1.91a8.118 8.33-180 0 0 0-16.66z" style="fill:url(#a);stroke:none;stroke-width:34;stroke-linecap:butt"/></g><g transform="translate(16.944 -16.554)"><title>Sheet.20881</title><path d="M15.71 108.17a9.337 9.581 0 0 1 .1 1.28 8.355 8.573 0 0 1-.18 1.81 5.129 5.263 0 0 1-1.17 10.4h-6.5a5.141 5.276 0 0 1 0-10.55h1.79a3.668 3.764-180 0 0 .12-3.06H7.96a8.118 8.33-180 0 0 0 16.66h6.5a8.115 8.328-180 0 0 1.25-16.55z" style="fill:url(#b);stroke:none;stroke-width:34;stroke-linecap:butt"/></g><title>Sheet.20882</title><path d="M24.09 68.02 0 82.16v28.25l24.09 14.3 24.1-14.14V82.22Zm19.65 39.59-19.65 11.65-19.64-11.53V84.96l19.64-11.65 19.65 11.68Z" style="fill:#0078d4;stroke:none;stroke-width:34;stroke-linecap:butt"/><g transform="translate(0 -39.67)"><title>Sheet.20883</title><path d="M24.09 107.76 0 121.91l4.45 2.8 19.64-11.65 19.65 11.65 4.45-2.8z" style="fill:url(#c);stroke:none;stroke-width:34;stroke-linecap:butt"/></g></g></g></svg>