<svg xmlns="http://www.w3.org/2000/svg" xml:space="preserve" width="56.69" height="34.01" style="font-size:12px;overflow:visible;color-interpolation-filters:sRGB;fill-rule:evenodd;stroke-linecap:square;stroke-miterlimit:3" viewBox="0 0 56.69 34.01"><g transform="translate(-9.562 -9.564)"><title>Page-1</title><g transform="translate(9.563 -34.016)"><title>Azure Cosmos DB Cognitive Search.21075</title><title>Sheet.21076</title><title>Sheet.21077</title><g transform="translate(25.663 -9.234)"><title>Sheet.21078</title><path d="M11.01 67.35c-.42-.62-.96-1.15-1.6-1.56-.65-.42-1.39-.7-2.21-.83a5.885 5.727-180 0 0-2.41.09c-.78.19-1.49.52-2.13.97a6.377 6.206-180 0 0-1.62 1.72c-.45.69-.74 1.48-.89 2.35-.15.9-.14 1.77.03 2.6s.48 1.58.92 2.23a6.019 5.857-180 0 0 1.68 1.66 5.726 5.572-180 0 0 2.32.88c.83.13 1.63.09 2.39-.13a5.65 5.499-180 0 0 2.04-1.06 6.536 6.36-180 0 0 1.53-1.85c.42-.73.7-1.55.85-2.46a7.075 6.885-180 0 0-.03-2.48 6.215 6.049-180 0 0-.87-2.13" style="fill:#59b4d9;stroke:none;stroke-width:9.5625;stroke-linecap:butt"/></g><title>Sheet.21079</title><path d="M55.18 64.35a9.77 9.508-180 0 0-3.8-3.05c.12-.38.24-.77.34-1.17.11-.41.17-.86.17-1.38q0-1.965-.72-3.72a10.63 10.345-180 0 0-1.95-3.09 9.41 9.157-180 0 0-2.9-2.15 7.865 7.654-180 0 0-3.51-.78q-3.585 0-5.4 2.04c-.61-2.41-1.74-4.26-3.38-5.55q-2.46-1.92-5.67-1.92c-1.36 0-2.63.27-3.8.82a9.545 9.289-180 0 0-3.07 2.29c-.88.99-1.56 2.15-2.06 3.49-.49 1.34-.74 2.78-.74 4.32 0 .15.01.34.04.55s.06.4.08.55c-.38-.15-.84-.28-1.4-.37a10.522 10.24-180 0 0-1.72-.13c-.61 0-1.21.12-1.81.35a6.91 6.724-180 0 0-1.66.94 10.772 10.483-180 0 0-1.44 1.33c-.44.49-.81.56-1.11 1.48H7.86a6.202 6.036-180 0 0-2.98.73 8.714 8.48-180 0 0-2.49 1.96 10.062 9.792-180 0 0-1.74 2.83A9.272 9.023-180 0 0 0 68.07c0 1.36.22 2.62.65 3.8.44 1.17 1.02 2.17 1.74 3.01s1.55 1.51 2.49 1.99a6.321 6.152-180 0 0 2.98.72h42.19c.79 0 1.57-.24 2.36-.71.78-.47 1.49-1.08 2.13-1.84a9.8 9.8 0 0 0 1.56-2.62 8.326 8.103-180 0 0 .59-2.98c0-2.05-.5-3.75-1.51-5.09M40.3 63.16a9.86 9.596 0 0 1-.73 2.39 10.56 10.277 0 0 1-1.27 2.08 10.205 9.93 0 0 1-1.69 1.68q-.945.735-1.98 1.2c-.7.31-1.41.52-2.16.64-.74.11-1.47.11-2.2 0-.58-.09-1.08-.2-1.51-.33a6.79 6.609 0 0 1-1.14-.46 5.537 5.388 0 0 1-.89-.56 8.657 8.425 0 0 1-.74-.67l-7.76 5.98q-.645.405-1.32.3a1.888 1.837 0 0 1-.71-.27 2.423 2.358 0 0 1-.62-.59 2.11 2.054 0 0 1-.41-.87 2.75 2.676 0 0 1 .3-1.83c.16-.28.36-.51.59-.69l7.48-5.73a7.9 7.9 0 0 1-.56-2.53c-.04-.83.01-1.65.14-2.47q.21-1.245.75-2.34c.35-.73.79-1.4 1.3-2a9.293 9.043 0 0 1 1.72-1.58c.65-.46 1.32-.82 2.03-1.11q1.065-.42 2.19-.57c.75-.09 1.5-.08 2.23.04a7.282 7.087 0 0 1 2.16.68 8.192 7.972 0 0 1 1.85 1.26c.55.51 1.05 1.08 1.47 1.72a9.877 9.612 0 0 1 1.56 4.3 9.113 8.869 0 0 1-.08 2.33" style="fill:#59b4d9;stroke:none;stroke-width:9.5625;stroke-linecap:butt"/></g></g></svg>