<svg xmlns="http://www.w3.org/2000/svg" xml:space="preserve" width="55.787" height="56.794" style="font-size:12px;overflow:visible;color-interpolation-filters:sRGB;fill-rule:evenodd;stroke-linecap:square;stroke-miterlimit:3" viewBox="0 0 55.787 56.794"><defs><linearGradient id="a" x1="0" x2="16.797" y1="107.83" y2="107.83" gradientTransform="scale(1.29308 .77335)" gradientUnits="userSpaceOnUse"><stop offset="0" stop-color="#0078d4"/><stop offset="1" stop-color="#5ea0ef"/></linearGradient><linearGradient id="b" x1="0" x2="16.797" y1="107.83" y2="107.83" gradientTransform="scale(1.29308 .77335)" gradientUnits="userSpaceOnUse"><stop offset="0" stop-color="#0078d4"/><stop offset="1" stop-color="#5ea0ef"/></linearGradient><linearGradient id="c" x1="0" x2="16.797" y1="107.83" y2="107.83" gradientTransform="scale(1.29308 .77335)" gradientUnits="userSpaceOnUse"><stop offset="0" stop-color="#0078d4"/><stop offset="1" stop-color="#5ea0ef"/></linearGradient></defs><g transform="translate(-5.67 -5.67)"><title>Page-1</title><g transform="translate(5.67 -34.016)"><title>Azure Managed Instance for Apache Cassandra.20925</title><g transform="translate(16.502 -35.064)"><title>path2</title><path d="m0 86.86 1.49-2.8 17.52 9.52-1.49 2.8z" style="fill:#003067;stroke:none;stroke-width:2.1057601;stroke-linecap:butt"/></g><g transform="translate(0 -39.643)"><title>path4-9</title><path d="M21.72 92.16v-8.77H0v8.77c0 2.32 4.86 4.22 10.86 4.22s10.86-1.89 10.86-4.22" style="fill:url(#a);stroke:none;stroke-width:2.1057601;stroke-linecap:butt"/></g><g transform="translate(.003 -48.275)"><title>ellipse6</title><ellipse cx="10.862" cy="92.169" rx="10.862" ry="4.209" style="fill:#83b9f9;stroke:none;stroke-width:2.1057601;stroke-linecap:butt"/></g><g transform="translate(29.069 -25.302)"><title>path8</title><path d="M21.72 92.16v-8.77H0v8.77c0 2.32 4.86 4.22 10.86 4.22s10.86-1.89 10.86-4.22" style="fill:url(#b);stroke:none;stroke-width:2.1057601;stroke-linecap:butt"/></g><g transform="translate(29.069 -33.94)"><title>ellipse10</title><ellipse cx="10.862" cy="92.169" rx="10.862" ry="4.209" style="fill:#83b9f9;stroke:none;stroke-width:2.1057601;stroke-linecap:butt"/></g><g transform="translate(9.298 -18.112)"><title>path12</title><path d="M0 70.521h3.153v25.857H0z" style="fill:#003067;stroke:none;stroke-width:2.1057601;stroke-linecap:butt"/></g><g transform="translate(7.28 -42.91)"><title>circle14</title><ellipse cx="3.722" cy="92.62" rx="3.722" ry="3.757" style="fill:#c3f1ff;stroke:none;stroke-width:2.1057601;stroke-linecap:butt"/></g><g transform="translate(0 -11.636)"><title>path16</title><path d="M21.72 92.16v-8.77H0v8.77c0 2.32 4.86 4.22 10.86 4.22s10.86-1.89 10.86-4.22" style="fill:url(#c);stroke:none;stroke-width:2.1057601;stroke-linecap:butt"/></g><g transform="translate(.003 -20.278)"><title>ellipse18</title><ellipse cx="10.862" cy="92.169" rx="10.862" ry="4.209" style="fill:#83b9f9;stroke:none;stroke-width:2.1057601;stroke-linecap:butt"/></g><g transform="translate(11.775 -17.758)"><title>path20</title><path d="m0 93.52 28.14-13.93 1.39 2.86L1.39 96.38Z" style="fill:#003067;stroke:none;stroke-width:2.1057601;stroke-linecap:butt"/></g><g transform="translate(7.123 -14.975)"><title>circle22</title><ellipse cx="3.722" cy="92.62" rx="3.722" ry="3.757" style="fill:#c3f1ff;stroke:none;stroke-width:2.1057601;stroke-linecap:butt"/></g><g transform="translate(36.215 -29.235)"><title>circle24</title><ellipse cx="3.722" cy="92.62" rx="3.722" ry="3.757" style="fill:#c3f1ff;stroke:none;stroke-width:2.1057601;stroke-linecap:butt"/></g><g transform="translate(29.593)"><title>path26</title><path d="M24.57 89.21a.82.828-180 0 0-.322-.6 54.695 55.209-180 0 0-4.828-4.27 11.463 11.571-180 0 0-8.49-2.29A17.744 17.91-180 0 0 .19 88.76a.72.727-180 0 0-.187.455.837.844-180 0 0 .322.604A55.721 56.245-180 0 0 5.17 94.09a11.48 11.587-180 0 0 8.48 2.29 17.75 17.917-180 0 0 10.75-6.71.737.744-180 0 0 .19-.458z" style="fill:#003067;stroke:none;stroke-width:2.1057601;stroke-linecap:butt"/></g><g transform="translate(36.05 -1.17)"><title>circle28</title><ellipse cx="5.939" cy="90.383" rx="5.939" ry="5.995" style="fill:#c3f1ff;stroke:none;stroke-width:2.1057601;stroke-linecap:butt"/></g><g transform="translate(27.244 -4.74)"><title>path30</title><path d="M14.77 90.63a2.815 2.842-180 0 0-.46.1 1.728 1.744 0 0 1 .32.94 1.799 1.815 0 0 1-1.8 1.82 1.763 1.78 0 0 1-1.18-.47 3.17 3.199-180 0 0-.2.97 3.34 3.371-180 1 0 3.34-3.37zm13.32-3.27a21.177 21.376-180 0 0-6.21-3.99l1.41-2.52a1.474 1.487-180 0 0 .14-1.11 1.419 1.432-180 0 0-2.59-.34l-1.72 3.09a18.538 18.713-180 0 0-2.94-.46v-3.17a1.422 1.435-180 0 0-2.84 0v3.16a18.915 19.093-180 0 0-3.01.47L8.61 79.4a1.422 1.435-180 0 0-1.93-.51 1.448 1.461-180 0 0-.52 1.94l1.41 2.52a21.177 21.376-180 0 0-6.21 4C0 88.59 2 90.6 3.37 89.38a16.676 16.832 0 0 1 22.73 0c1.34 1.25 3.35-.77 1.99-2.02" style="fill:#003067;stroke:none;stroke-width:2.1057601;stroke-linecap:butt"/></g></g></g></svg>