<svg xmlns="http://www.w3.org/2000/svg" xml:space="preserve" width="42.52" height="56.699" style="font-size:12px;overflow:visible;color-interpolation-filters:sRGB;fill-rule:evenodd;stroke-linecap:square;stroke-miterlimit:3" viewBox="0 0 42.52 56.699"><defs><linearGradient id="a" x1="0" x2="45.627" y1="70.593" y2="70.593" gradientTransform="scale(.93191 1.07306)" gradientUnits="userSpaceOnUse"><stop offset="0" stop-color="#005ba1"/><stop offset=".07" stop-color="#0060a9"/><stop offset=".36" stop-color="#0071c8"/><stop offset=".52" stop-color="#0078d4"/><stop offset=".64" stop-color="#0074cd"/><stop offset=".82" stop-color="#006abb"/><stop offset="1" stop-color="#005ba1"/></linearGradient></defs><g transform="translate(-34 -33.995)"><title>Page-1</title><g transform="translate(34 -34.016)"><title>Azure Database for MySQL.20975</title><title>Icon-databases-122</title><title>Sheet.20977</title><path d="M21.26 83.49C9.52 83.49 0 80.15 0 75.75v41.22c0 4.24 9.35 7.67 20.96 7.74h.3c11.74 0 21.26-3.34 21.26-7.74V75.75c0 4.3-9.52 7.74-21.26 7.74" style="fill:url(#a);stroke:none;stroke-width:34;stroke-linecap:butt"/><g transform="translate(0 -41.22)"><title>Sheet.20978</title><path d="M42.52 116.97c0 4.3-9.52 7.74-21.26 7.74S0 121.37 0 116.97s9.52-7.74 21.26-7.74 21.26 3.34 21.26 7.74" style="fill:#e8e8e8;stroke:none;stroke-width:34;stroke-linecap:butt"/></g><g transform="translate(4.942 -44.654)"><title>Sheet.20979</title><path d="M32.64 119.77c0 2.74-7.33 4.94-16.32 4.94S0 122.51 0 119.77c0-2.73 7.33-4.9 16.32-4.9s16.32 2.2 16.32 4.9" style="fill:#50e6ff;stroke:none;stroke-width:34;stroke-linecap:butt"/></g><g transform="translate(8.358 -44.654)"><title>Sheet.20980</title><path d="M12.9 121.01a38.308 38.518-180 0 0-12.9 1.9 37.876 38.084-180 0 0 12.9 1.8 36.98 37.184-180 0 0 12.9-1.94 39.27 39.485-180 0 0-12.9-1.76" style="fill:#198ab3;stroke:none;stroke-width:34;stroke-linecap:butt"/></g><g transform="translate(4.875 -15.107)"><title>Sheet.20981</title><path d="M28.46 111.47v5.44h-3.32a1.294 1.3 0 0 1-.96-.47v-4.97H19.7v5.94a3.051 3.068-180 0 0 3.32 2.96h4.94l.86-.43s-.36 1.37-.86 1.43h-7.89v3.34h8.82a4.013 4.035-180 0 0 4.08-4.24v-9zm-10.32 0v-1.63a2.322 2.334-180 0 0-1.59-2.57 5.771 5.803-180 0 0-1.66-.27 3.118 3.135-180 0 0-3.02 1.93l-2.58 6.34-3.32-6.34A3.085 3.101-180 0 0 3.12 107a4.776 4.802-180 0 0-1.69.3c-1.16.37-1.43 1.13-1.43 2.44v11.03h3.88v-7.43l2.09 5.23a3.582 3.602-180 0 0 3.32 2.2c1.46 0 2.05-.86 2.65-2.2l2.22-5.03v7.17h3.92v-9.24z" style="fill:#f2f2f2;stroke:none;stroke-width:34;stroke-linecap:butt"/></g></g></g></svg>