<svg xmlns="http://www.w3.org/2000/svg" xml:space="preserve" width="42.52" height="56.699" style="font-size:12px;overflow:visible;color-interpolation-filters:sRGB;fill-rule:evenodd;stroke-linecap:square;stroke-miterlimit:3" viewBox="0 0 42.52 56.699"><defs><linearGradient id="a" x1="0" x2="45.627" y1="70.593" y2="70.593" gradientTransform="scale(.93191 1.07306)" gradientUnits="userSpaceOnUse"><stop offset="0" stop-color="#005ba1"/><stop offset=".07" stop-color="#0060a9"/><stop offset=".36" stop-color="#0071c8"/><stop offset=".52" stop-color="#0078d4"/><stop offset=".64" stop-color="#0074cd"/><stop offset=".82" stop-color="#006abb"/><stop offset="1" stop-color="#005ba1"/></linearGradient></defs><g transform="translate(-34 -33.995)"><title>Page-1</title><g transform="translate(34 -34.016)"><title>Azure Database for PostgreSQL.20955</title><title>Icon-databases-131</title><title>Sheet.20957</title><path d="M21.26 83.49C9.52 83.49 0 80.15 0 75.75v41.22c0 4.24 9.35 7.67 20.96 7.74h.3c11.74 0 21.26-3.34 21.26-7.74V75.75c0 4.27-9.52 7.74-21.26 7.74" style="fill:url(#a);stroke:none;stroke-width:34;stroke-linecap:butt"/><g transform="translate(0 -41.22)"><title>Sheet.20958</title><path d="M42.52 116.97c0 4.27-9.52 7.74-21.26 7.74S0 121.37 0 116.97s9.52-7.74 21.26-7.74 21.26 3.34 21.26 7.74" style="fill:#e8e8e8;stroke:none;stroke-width:34;stroke-linecap:butt"/></g><g transform="translate(4.942 -44.654)"><title>Sheet.20959</title><path d="M32.6 119.77c0 2.74-7.29 4.94-16.28 4.94S0 122.51 0 119.81s7.3-4.94 16.32-4.94 16.28 2.2 16.28 4.9" style="fill:#50e6ff;stroke:none;stroke-width:34;stroke-linecap:butt"/></g><g transform="translate(8.325 -44.654)"><title>Sheet.20960</title><path d="M12.94 121.01A38.64 38.851-180 0 0 0 122.91a38.241 38.451-180 0 0 12.94 1.8 38.042 38.251-180 0 0 12.9-1.94 39.568 39.785-180 0 0-12.9-1.76" style="fill:#198ab3;stroke:none;stroke-width:34;stroke-linecap:butt"/></g><g transform="translate(6.335 -5.903)"><title>Sheet.20961</title><path d="M24.88 102.26v1.41a16.981 17.075-180 0 0-.27 2.1c0 .4 0 1 .17 1.53.16.53 0 .9 0 1.2a5.572 5.603 0 0 1-.83 2.87 1.426 1.434-180 0 0 0 .23l.33.4a34.99 35.183-180 0 0 3.51-7.93c.93-3.17 1.03-5.44.3-6.41a8.557 8.604-180 0 0-8.89-2.87 10.912 10.972 0 0 1 3.02 2.24 7.562 7.604 0 0 1 2.66 5.23m-1.03.27a3.814 3.835-180 0 0-2.62.3c-.97.6-.67 1.84 0 3.34a25.77 25.912-180 0 0 1.16 2.83l.3.53c.16.27.26.51.36.67l.27.44a4.245 4.269-180 0 0 .59-2.17 9.486 9.538-180 0 0 0-1.1c0-.57 0-1.2-.16-1.64a20.232 20.343 0 0 1 .26-2.3 2.564 2.578 0 0 1-.03-1zm-1 1.37a1.327 1.334 0 0 1-.6.33 1.095 1.1 0 0 1-.46 0 .763.767 0 0 1-.232-.634c.002-.226.362-.426.792-.496h.63s.3 0 .3.27a.663.667 0 0 1-.298.434zM7.3 106.87v-.57a3.317 3.335-180 0 0 0-.57 18.408 18.509 0 0 1 0-3.33 17.313 17.408 0 0 1 .99-3.67 7.993 8.037 0 0 1 1.93-3.13 15.854 15.94-180 0 0-4.48-.67 6.202 6.236-180 0 0-3.65 1A6.633 6.67-180 0 0 0 102a40.696 40.919-180 0 0 1.66 7.47c1.13 3.8 2.42 6.13 3.55 6.5.49.17 1.03 0 1.56-.7.92-1.13 1.79-2.1 2.28-2.67a6.235 6.27 0 0 1-1.62-5.83zm.86 1.33a7.23 7.27-180 0 0 .2 1.87 4.975 5.002-180 0 0 .86 1.47 3.549 3.568-180 0 0 1.16.83 3.615 3.635-180 0 0 1.29.27c0-.57.47-1.27.77-2a14.428 14.507-180 0 0 .69-1.97 21.923 22.044-180 0 0 0-3.7c0-.3 0-.64-.19-1a1.493 1.5-180 0 0-.4-.9 2.189 2.201-180 0 0-.93-.54h-.66a5.174 5.202-180 0 0-1.6.47 6.633 6.67-180 0 0-1.06.63v2.4a2.852 2.868 0 0 1 0 .5v1.3zm2.19-4.47a1.526 1.534 0 0 1 .93 0 1.99 2 0 0 1 .63.2c.3 0 .33.37.3.47a1.227 1.234 0 0 1-.4.43.995 1 0 0 1-.199-.133 1.128 1.134 0 0 1-.931-.927Zm2.45 10.01a.763.767-180 0 0-.431.2l-.459.56c-.57.7-.8.94-2.42 1.27a1.725 1.734-180 0 0-.87.33 1.924 1.934-180 0 0 .8.37 3.914 3.935-180 0 0 2.39 0 5.638 5.67-180 0 0 1.29-.87 2.023 2.034-180 0 0 .66-1.03 1.194 1.2-180 0 0-.33-.93.498.5-180 0 0-.497-.067zm15.29 0a5.406 5.436 0 0 1-3.75 0 .73.734-180 0 0-.464 0 .995 1-180 0 0-.564.467 3.615 3.635-180 0 0 .008 1.033 5.97 6.003-180 0 0 3.64-.34 4.51 4.535-180 0 0 1.6-1.13zm-7.96-7.14c-.46-1.37-1.13-3.33.6-4.54a4.478 4.502 0 0 1 2.95-.5 10.547 10.605-180 0 0-2.12-3.83l-.33-.33-.2-.2a1.128 1.134-180 0 0-.2-.2 7.761 7.804-180 0 0-2.22-1.4 8.723 8.77-180 0 0-3.68-.74 5.041 5.069-180 0 0-2.33.37 5.87 5.903-180 0 0-.99.37 6.965 7.003-180 0 0-2.46 3.33 19.37 19.476-180 0 0-.69 3.33 5.506 5.536 0 0 1 3.31-.76 2.786 2.801 0 0 1 2.56 3.03 24.079 24.211 0 0 1 0 4.24 12.836 12.906 0 0 1-.76 2.1c-.2.57-.47 1.17-.6 1.63a1.658 1.667 0 0 1 1.26.47 2.189 2.201 0 0 1 .63 1.77h.07v.8a21.724 21.843-180 0 0 .79 8.13 1.791 1.8-180 0 0 .8.71 1.99 2-180 0 0 1.03.33 4.312 4.335-180 0 0 3.31-1.14 3.483 3.502-180 0 0 .96-2.2c.24-1.5.73-5.67.8-6.67a2.388 2.401 0 0 1 .3-1.46 2.09 2.101 0 0 1 .89-.8 17.777 17.875 0 0 1-3.55-6.04z" style="fill:#f2f2f2;stroke:none;stroke-width:34;stroke-linecap:butt"/></g></g></g></svg>