<svg xmlns="http://www.w3.org/2000/svg" xml:space="preserve" width="56.693" height="51.027" style="font-size:12px;overflow:visible;color-interpolation-filters:sRGB;fill-rule:evenodd;stroke-linecap:square;stroke-miterlimit:3" viewBox="0 0 56.693 51.027"><g transform="translate(-12.24 -12.238)"><title>Page-1</title><g transform="translate(12.24 -34.016)"><title>Azure Cosmos DB Feature.21048</title><title> </title><g transform="translate(.001)"><title>Sheet.21050</title><path d="M0 97.28V62.32a3.687 3.68 0 0 1 3.69-3.68H53a3.687 3.68 0 0 1 3.69 3.68v34.96z" style="fill:#ba141a;stroke:none;stroke-width:12.23999977;stroke-linecap:butt"/></g><g transform="translate(46.703 -4.489)"><title>Sheet.21051</title><path d="M6.55 84.2a6.552 6.54-180 1 0 0 13.08 6.497 6.485-180 0 0 3.44-1V85.2a6.5 6.488-180 0 0-3.44-1" style="fill:#804998;stroke:none;stroke-width:12.23999977;stroke-linecap:butt"/></g><g transform="translate(12.46 -38.637)"><title>Sheet.21052</title><path d="M31.77 97.28H27.5v-6.1c0-1.12-.9-2.03-2.02-2.03H6.29a2.028 2.024-180 0 0-2.02 2.03v6.1H0v-6.1a6.303 6.29 0 0 1 6.29-6.29h19.19a6.302 6.29 0 0 1 6.29 6.29z" style="fill:#1e1e1e;stroke:none;stroke-width:12.23999977;stroke-linecap:butt"/></g><g transform="translate(0 -4.429)"><title>Sheet.21053</title><path d="M21.51 89.42 0 84.3v8.31l19.64 4.67z" style="fill:#fee087;fill-opacity:.6;stroke:none;stroke-width:12.23999977;stroke-linecap:butt"/></g><g transform="translate(2.008 -27.27)"><title>Sheet.21054</title><path d="M16.69 91.56c.32 2.08-3.09 4.33-7.61 5.03-4.52.69-8.44-.44-8.76-2.52s3.08-4.33 7.6-5.02c4.52-.7 8.45.43 8.77 2.51" style="fill:#ff8c00;fill-opacity:.8;stroke:none;stroke-width:12.23999977;stroke-linecap:butt"/></g><g transform="translate(48.801 -6.584)"><title>Sheet.21055</title><path d="M4.45 88.39a4.453 4.445-180 1 0 0 8.89 4.423 4.415-180 0 0 3.44-1.65v-5.59a4.426 4.417-180 0 0-3.44-1.65" style="fill:#fff;fill-opacity:.2;stroke:none;stroke-width:12.23999977;stroke-linecap:butt"/></g><g transform="translate(0 -20.545)"><title>Sheet.21056</title><path d="M0 94.624h56.692v2.656H0z" style="fill:#1e1e1e;fill-opacity:.3;stroke:none;stroke-width:12.23999977;stroke-linecap:butt"/></g><g transform="translate(22.044 -16.341)"><title>Sheet.21057</title><path d="M10.95 88.96c.91 0 1.65.74 1.65 1.65v5.02c0 .91-.74 1.65-1.65 1.65h-9.3A1.654 1.651 0 0 1 0 95.63v-5.02c0-.91.74-1.65 1.65-1.65Z" style="fill:#1e1e1e;fill-opacity:.3;stroke:none;stroke-width:12.23999977;stroke-linecap:butt"/></g><g transform="translate(.001 -21.96)"><title>Sheet.21058</title><path d="M0 94.62h56.69v2.66H0Z" style="fill:#e5e5e5;stroke:none;stroke-width:12.23999977;stroke-linecap:butt"/></g></g></g></svg>