<svg xmlns="http://www.w3.org/2000/svg" xml:space="preserve" width="56.692" height="56.69" style="font-size:12px;overflow:visible;color-interpolation-filters:sRGB;fill-rule:evenodd;stroke-linecap:square;stroke-miterlimit:3" viewBox="0 0 56.692 56.69"><g transform="translate(-5.67 -5.674)"><title>Page-1</title><g transform="translate(5.67 -34.016)"><title>Azure Batch Account.21106</title><g transform="translate(0 -25.07)"><title>path7</title><path d="M26.49 72.64H0v22.29c0 .35.13.7.36.96l-.01.01c.04.03.08.08.12.1.24.23.55.38.93.38h27.53c.7 0 1.4-.6 1.4-1.46V72.64Z" style="fill:#59b4d9;stroke:none;stroke-width:.0826977;stroke-linecap:butt"/></g><g transform="translate(5.817 -30.154)"><title>path9</title><path d="M0 82.69h18.93v1.82H0Zm0 5.93h18.93v1.82H0Zm0 5.94h18.93v1.82H0Z" style="fill:#fff;stroke:none;stroke-width:.0826977;stroke-linecap:butt"/></g><g transform="translate(32.542 -24.943)"><title>path11</title><path d="M11.6 88.26S13 77.48 3.48 75.42c0 0-.81-.12-1.86-.12-1.16 0-1.62.36-1.62.36v4.37s.34-.36 1.85-.36c.94 0 1.63.11 1.98.11 2.21.73 4.3 2.42 3.83 8.36H3.6l6.38 8.24 6.28-8.24H11.6Z" style="fill:#57a300;stroke:none;stroke-width:.0826977;stroke-linecap:butt"/></g><g transform="translate(38.228 -3.498)"><title>path13</title><path d="M14.06 80.63h-.81v13.8H0v1.1c0 .49.11.85.58.85h13.71c.47 0 .81-.36.81-.85V81.48c0-.49-.58-.85-1.04-.85" style="fill:#59b4d9;stroke:none;stroke-width:.0826977;stroke-linecap:butt"/></g><g transform="translate(41.592)"><title>path15</title><path d="M14.06 80.64h-.81v13.69c0 .11-.12.11-.12.11H0v1.09c0 .49.11.85.58.85h13.48c.57 0 1.04-.49 1.04-1.09v-13.8c0-.48-.58-.85-1.04-.85" style="fill:#59b4d9;stroke:none;stroke-width:.0826977;stroke-linecap:butt"/></g><g transform="translate(0 -19.13)"><title>path17</title><path d="M3.84 66.7h26.48v-6.43c0-.73-.57-1.45-1.4-1.45H1.4c-.7 0-1.4.6-1.4 1.45v6.43Zm44.84 25.68H35.2c-.47 0-.81.36-.81.85v3.15h15.09v-3.15c.02-.49-.34-.85-.8-.85" style="fill:#3999c6;stroke:none;stroke-width:.0826977;stroke-linecap:butt"/></g><g transform="translate(34.397 -7.377)"><title>path19</title><path d="M13.24 84.51H0v11.02c0 .49.34.85.81.85h13.48c.47 0 .81-.36.81-.85V84.51Z" style="fill:#59b4d9;stroke:none;stroke-width:.0826977;stroke-linecap:butt"/></g><g transform="translate(37.873 -15.378)"><title>path21</title><path d="M0 94.444h7.55v1.934H0z" style="fill:#fff;stroke:none;stroke-width:.0826977;stroke-linecap:butt"/></g><g transform="translate(.02 -7.663)"><title>path23</title><path d="M26.49 55.23H0v22.29c0 .36.14.73.4 1.01.24.27 29.92-23.3 29.92-23.3zm22.99 29.56h-15.1v10.96s-.04.38.19.63z" style="fill:#fff;fill-opacity:.2;stroke:none;stroke-width:.0826977;stroke-linecap:butt"/></g></g></g></svg>