<svg xmlns="http://www.w3.org/2000/svg" xml:space="preserve" width="54.649" height="53.86" style="font-size:12px;overflow:visible;color-interpolation-filters:sRGB;fill-rule:evenodd;stroke-linecap:square;stroke-miterlimit:3" viewBox="0 0 54.649 53.86"><defs><radialGradient id="a" cx="0" cy="82.122" r="55.061" fx="0" fy="82.122" gradientTransform="scale(1.00465 .99537)" gradientUnits="userSpaceOnUse"><stop offset=".185" stop-color="#5ea0ef"/><stop offset="1" stop-color="#0078d4"/></radialGradient></defs><g transform="translate(-33.015 -33.014)"><title>Page-1</title><g transform="translate(31.99 -34.016)"><title>Azure Cosmos DB.21001</title><title>layer1</title><g transform="translate(1.322 -38.82)"><title>path14</title><path d="M7.59 120.89a.562.557 0 0 1-.566-.56 6.467 6.407-180 0 0-6.454-6.4.566.56 0 0 1-.566-.557.566.56 0 0 1 .566-.561 6.467 6.407-180 0 0 6.45-6.402.562.557 0 0 1 .566-.56.562.557 0 0 1 .566.56 6.467 6.407-180 0 0 6.458 6.4.562.557 0 0 1 .566.56.562.557 0 0 1-.566.562 6.464 6.404-180 0 0-6.45 6.398.569.564 0 0 1-.566.56Z" style="fill:#50e6ff;stroke:none;stroke-width:33.01480103;stroke-linecap:butt"/></g><g transform="translate(43.523)"><title>path16</title><path d="M6.07 120.89a.453.449 0 0 1-.453-.449A5.172 5.124-180 0 0 .45 115.32a.453.449 0 0 1-.453-.445.453.449 0 0 1 .453-.45 5.169 5.12-180 0 0 5.17-5.115.453.449 0 0 1 .453-.449.453.449 0 0 1 .453.449 5.169 5.12-180 0 0 5.164 5.12.453.449 0 1 1 0 .898 5.172 5.124-180 0 0-5.17 5.112.453.449 0 0 1-.453.445z" style="fill:#50e6ff;stroke:none;stroke-width:33.01480103;stroke-linecap:butt"/></g><g transform="translate(7.654 -7.437)"><title>g26</title><g transform="translate(.885)"><title>path1554</title><ellipse cx="19.756" cy="101.315" rx="19.756" ry="19.574" style="fill:url(#a);stroke:none;stroke-width:.79913199;stroke-linecap:butt"/></g><g transform="translate(0 -6.256)"><title>path20-2-1-1</title><path d="M10.42 120.7c7.19.19 7.21-10.59.01-10.43.02-.15.03-.29.02-.44-.02-2.9-2.41-5.23-5.33-5.21H1.17c-1.17 5.17.78 11.74 4.81 16.08Z" style="fill:#f2f2f2;stroke:none;stroke-width:33.01480103;stroke-linecap:butt"/></g><g transform="translate(21.09 -16.457)"><title>path22-2-2-2</title><path d="M19.01 114.17c0-.05 0-.1-.02-.14a19.215 19.037-180 0 0-4.52-9.17 5.866 5.812-180 0 0-.93-.29 5.805 5.751-180 0 0-7.39 5.3 6.429 6.37-180 0 0-.65-.04 5.583 5.532-180 0 0-1.86 10.74 4.664 4.62-180 0 0 1.73.32h6.53a43.241 42.842-180 0 0 7.11-6.72" style="fill:#f2f2f2;stroke:none;stroke-width:33.01480103;stroke-linecap:butt"/></g></g><g transform="translate(0 -8.262)"><title>path28</title><path d="M54.67 85.76c-2.02-3.33-6.75-4.63-13.35-3.65a46.947 46.514-180 0 0-6.69 1.43 20.751 20.56 0 0 1 4.91 2.45c.77-.17 1.55-.37 2.3-.48a24.075 23.852 0 0 1 3.54-.29 7.033 6.968 0 0 1 6.3 2.31c1.23 2.03.19 5.51-2.85 9.55a53.752 53.255 0 0 1-15.26 12.9 53.864 53.367 0 0 1-18.72 7.21c-5.03.74-8.63 0-9.86-2.03-1.23-2.02-.19-5.51 2.85-9.53.38-.5.47-.75.9-1.25a20.096 19.91 0 0 1 .08-5.19 37.131 36.788-180 0 0-3.76 4.37c-3.98 5.27-5.06 10.02-3.04 13.35a10.173 10.08-180 0 0 9.32 3.98 27.109 26.859-180 0 0 4.02-.32 57.39 56.86-180 0 0 19.99-7.64 57.24 56.71-180 0 0 16.27-13.8c3.99-5.29 5.07-10.03 3.05-13.37" style="fill:#50e6ff;stroke:none;stroke-width:33.01480103;stroke-linecap:butt"/></g></g></g></svg>