<svg xmlns="http://www.w3.org/2000/svg" xml:space="preserve" width="53.86" height="56.692" style="font-size:12px;overflow:visible;color-interpolation-filters:sRGB;fill-rule:evenodd;stroke-linecap:square;stroke-miterlimit:3" viewBox="0 0 53.86 56.692"><g transform="translate(-12.24 -12.24)"><title>Page-1</title><g transform="translate(12.24 -34.016)"><title>Azure Cosmos DB Replication.21022</title><title>Sheet.21023</title><g transform="translate(0 -2.984)"><title>Sheet.21024</title><path d="M26.93 102.95C12.09 102.95 0 90.89 0 76.09s12.09-26.85 26.93-26.85 26.93 12.05 26.93 26.85-12.09 26.86-26.93 26.86m0-52.52C12.69 50.43 1.2 61.89 1.2 76.09c0 14.21 11.49 25.67 25.73 25.67S52.66 90.3 52.66 76.09c0-14.2-11.49-25.66-25.73-25.66" style="fill:#59b4d9;stroke:none;stroke-width:12.23999977;stroke-linecap:butt"/></g><g transform="translate(8.498 -10.264)"><title>Sheet.21025</title><path d="M20.71 95.55c.95-.96 2.39-.96 3.23 0l-3.71-3.7c-.96-.96-.96-2.39 0-3.22.95-.96 2.39-.96 3.23 0l.96.95.71.72 1.8 1.79c.96.95 2.39.95 3.23 0 .96-.96.96-2.39 0-3.23l-1.79-1.79L27.29 86l-5.27-5.49c-.96-.95-.96-2.39 0-3.22.96-.96 2.4-.96 3.23 0l2.4 2.38c-.96-.95-.96-2.38 0-3.22.95-.95 2.39-.95 3.23 0l6.22 6.21c-.24-4.54-2.03-8.83-5.5-12.29-3.11-3.11-7.18-4.9-11.37-5.38l2.75 2.75c1.2 1.19 1.2 2.98 0 4.06-1.2 1.07-2.99 1.19-4.07 0L17 69.89c-1.2-1.2-3-1.2-4.07 0-1.2 1.19-1.2 2.98 0 4.06l3.71 3.7c1.19 1.19 1.19 2.98 0 4.05-1.2 1.08-3 1.2-4.07 0L8.5 77.65a2.92 2.92 0 0 1-.6 3.22c-1.2 1.19-2.99 1.19-4.07 0l2.99 2.98c1.2 1.2 1.2 2.99 0 4.06-1.19 1.19-2.99 1.19-4.07 0L0 85.16c.48 4.18 2.15 8.12 5.39 11.34 4.9 4.9 11.84 6.45 18.07 4.78l-2.63-2.63c-1.08-.71-1.08-2.15-.12-3.1" style="fill:#59b4d9;stroke:none;stroke-width:12.23999977;stroke-linecap:butt"/></g><g transform="translate(7.54 -11.935)"><title>Sheet.21026</title><path d="m38.18 84.33-6.22-6.21c-.96-.95-2.4-.95-3.24 0-.83.96-.95 2.39 0 3.23l-2.39-2.39c-.96-.96-2.39-.96-3.23 0-.96.95-.96 2.39 0 3.22l5.39 5.37 1.07 1.08 1.8 1.79c.95.95.95 2.38 0 3.22-.96.95-2.4.95-3.23 0l-1.8-1.79-.72-.72-.95-.95c-.96-.96-2.4-.96-3.24 0-.95.95-.95 2.38 0 3.22l3.71 3.7c-.95-.95-2.39-.95-3.23 0-.96.96-.96 2.39 0 3.22l2.64 2.63c3.11-.84 5.98-2.39 8.37-4.78 3.71-3.7 5.51-8.83 5.27-13.84M7.54 89.58c1.2-1.19 1.2-2.98 0-4.06l-2.99-2.98c1.19 1.19 2.99 1.19 4.07 0 .84-.84 1.07-2.15.6-3.22l4.07 4.05c1.19 1.2 2.99 1.2 4.06 0 1.08-1.19 1.2-2.98 0-4.05l-3.59-3.82c-1.19-1.2-1.19-2.99 0-4.06 1.2-1.07 3-1.19 4.07 0l1.92 1.91c1.19 1.19 2.99 1.19 4.07 0 1.19-1.19 1.19-2.98 0-4.06l-2.76-2.74c-5.38-.6-11.01 1.19-15.08 5.37C1.91 76.09 0 81.58.6 86.96l2.75 2.74c1.2 1.07 3.11 1.07 4.19-.12" style="fill:#b8d432;stroke:none;stroke-width:12.23999977;stroke-linecap:butt"/></g><g transform="translate(22.62)"><title>Sheet.21027</title><ellipse cx="4.309" cy="98.652" rx="4.309" ry="4.297" style="fill:#0072c6;stroke:none;stroke-width:12.23999977;stroke-linecap:butt"/></g></g></g></svg>