<svg xmlns="http://www.w3.org/2000/svg" xml:space="preserve" width="53.859" height="56.698" style="font-size:12px;overflow:visible;color-interpolation-filters:sRGB;fill-rule:evenodd;stroke-linecap:square;stroke-miterlimit:3" viewBox="0 0 53.859 56.698"><defs><linearGradient id="a" x1="0" x2="24.321" y1="138.235" y2="138.235" gradientTransform="scale(1.68661 .5929)" gradientUnits="userSpaceOnUse"><stop offset=".2" stop-color="#005ba1"/><stop offset="1" stop-color="#0078d4"/></linearGradient><linearGradient id="b" x1="-1.245" x2="21.455" y1="88.608" y2="88.608" gradientTransform="scale(1.13775 .87893)" gradientUnits="userSpaceOnUse"><stop offset="0" stop-color="#198ab3"/><stop offset=".17" stop-color="#32bedd"/><stop offset=".5" stop-color="#50e6ff"/><stop offset=".5" stop-color="#4fe4fd"/><stop offset=".5" stop-color="#4bddf8"/><stop offset=".5" stop-color="#44d2ee"/><stop offset=".5" stop-color="#3ac1e0"/><stop offset=".5" stop-color="#2dabce"/><stop offset=".5" stop-color="#1d90b8"/><stop offset=".5" stop-color="#198ab3"/><stop offset=".66" stop-color="#32bedd"/><stop offset=".975" stop-color="#50e6ff"/></linearGradient></defs><g transform="translate(-5.386 -5.666)"><title>Page-1</title><g transform="translate(5.386 -34.016)"><title>Azure Synapse Analytics Serverless SQL Pool.20863</title><title>Page-1</title><title>Sheet.20865</title><g transform="translate(0 -8.472)"><title>Sheet.20866</title><title>Sheet.20867</title><title>Sheet.20868</title><path d="M20.51 48.16 0 60.19v24.02l20.51 12.17 20.51-12.03v-24.1Zm16.72 33.67-16.72 9.91-16.72-9.8V62.58l16.72-9.92 16.72 9.94z" style="fill:#0078d4;stroke:none;stroke-width:.75;stroke-linecap:butt"/><g transform="translate(0 -33.807)"><title>Sheet.20869</title><title>Sheet.20870</title><path d="M20.51 81.96 0 93.99l3.79 2.39 16.72-9.92 16.72 9.92 3.79-2.39z" style="fill:url(#a);stroke:none;stroke-width:.75;stroke-linecap:butt"/></g><g transform="translate(6.435 -6.025)"><title>Sheet.20871</title><title>Sheet.20872</title><path d="M23.85 82.24a1.907 1.956-180 0 0-.85-.76 15.245 15.63-180 0 0-11.7-8.97l16.93-10.02-3.94-2.31L5.02 71.6A1.96 2.01-180 0 0 6 75.35a1.787 1.832-180 0 0 .23-.06l.33 1.4a11.284 11.57 0 0 1 12.65 5.99L0 94.06l3.92 2.32 19.21-11.39a1.905 1.953-180 0 0 .63-.63l.2-.04c-.02-.08-.05-.16-.07-.23a1.92 1.969-180 0 0-.04-1.85" style="fill:#50e6ff;stroke:none;stroke-width:.75;stroke-linecap:butt"/></g><g transform="translate(9.018 -15.616)"><title>Sheet.20873</title><title>Sheet.20874</title><path d="M19.57 87.92a4.833 4.956-180 1 0 4.84 4.96 4.833 4.956-180 0 0-4.84-4.96M3.41 77.88a4.833 4.956-180 1 0 4.84 4.96 4.833 4.956-180 0 0-4.84-4.96" style="fill:url(#b);stroke:none;stroke-width:.75;stroke-linecap:butt"/></g></g><g transform="translate(35.509)"><title>Sheet.20875</title><title>Sheet.20876</title><title>Sheet.20877</title><path d="M8.13 93.69v.13l.65 1.07c-.26.07-.53.12-.78.13-.26.01-.53.02-.79.02-.43 0-.84-.02-1.26-.05s-.82-.07-1.24-.15c-.25-.05-.54-.1-.87-.18q-.495-.12-1.02-.3c-.36-.12-.7-.26-1.04-.42-.33-.17-.64-.36-.9-.59a2.7 2.7 0 0 1-.64-.74c-.15-.28-.23-.59-.24-.94V79.58c0-.34.08-.65.23-.92.17-.27.37-.52.65-.75.27-.22.57-.41.9-.58s.67-.32 1.03-.44c.35-.11.69-.22 1.02-.29a13 13 0 0 1 2.12-.33c.42-.02.83-.05 1.26-.05.42 0 .85.02 1.26.04.42.03.83.09 1.23.16.26.04.55.1.88.18.33.07.67.18 1.02.29.35.12.7.27 1.03.44q.51.255.9.57c.28.22.48.46.64.74.16.29.24.6.25.94v6.05H13.1v-4.04c-.41.24-.87.44-1.36.61q-.72.24-1.5.42c-.52.11-1.03.19-1.55.23-.51.06-1.01.08-1.48.09-.47 0-.97-.02-1.48-.07-.53-.04-1.04-.11-1.57-.2-.53-.1-1.03-.23-1.5-.41-.49-.17-.94-.4-1.35-.67v10.08c0 .14.05.27.16.41.11.12.22.22.32.3.33.25.72.46 1.18.63.45.16.93.3 1.42.4s.99.17 1.49.22.94.07 1.33.06zm-.92-16.13c-.39 0-.83.03-1.33.07s-1.01.11-1.52.23c-.51.11-.99.26-1.45.42s-.85.39-1.18.65c-.09.07-.18.18-.28.29-.09.11-.13.22-.14.36 0 .13.04.26.14.37.09.11.17.2.28.28.32.27.72.48 1.18.66.46.17.94.32 1.45.42.5.11 1.01.18 1.51.23.5.04.95.05 1.34.05.38 0 .83-.01 1.33-.05.5-.05 1.01-.12 1.51-.23.52-.1 1-.25 1.46-.42.45-.18.85-.39 1.18-.66.1-.08.18-.17.27-.28s.14-.24.14-.37c0-.14-.04-.25-.13-.36s-.18-.22-.28-.29c-.32-.26-.72-.48-1.18-.65-.47-.18-.95-.31-1.46-.42-.5-.1-1.01-.18-1.5-.22s-.94-.06-1.34-.08m8.78 10.09c.35.19.67.43.95.72.29.29.54.6.75.96.22.36.37.74.48 1.13s.17.8.18 1.21c0 .65-.12 1.24-.37 1.82-.25.56-.57 1.05-.99 1.49s-.9.78-1.46 1.02c-.55.24-1.14.37-1.77.38-.62 0-1.21-.13-1.76-.38s-1.04-.59-1.46-1.02a4.3 4.3 0 0 1-.99-1.49c-.24-.57-.36-1.17-.38-1.82 0-.39.06-.79.17-1.18q.165-.585.45-1.11c.19-.35.43-.68.7-.98.29-.3.59-.55.91-.75l.66 1.2c-.26.15-.49.32-.69.53-.2.2-.36.45-.49.71-.14.27-.23.55-.29.84-.07.29-.1.59-.11.88 0 .47.09.91.26 1.32.17.4.4.76.7 1.06.29.31.63.55 1.03.71.39.17.83.26 1.29.27q.69 0 1.29-.27c.39-.16.73-.4 1.04-.71q.45-.45.69-1.05c.16-.41.25-.86.26-1.33 0-.62-.16-1.19-.47-1.7-.32-.51-.72-.93-1.23-1.26zm-2.89 4.7v-5.38h1.32v5.38z" style="fill:#000;stroke:none;stroke-width:.75;stroke-linecap:butt"/></g></g></g></svg>