<svg xmlns="http://www.w3.org/2000/svg" xmlns:xlink="http://www.w3.org/1999/xlink" xml:space="preserve" width="48.19" height="56.698" style="font-size:12px;overflow:visible;color-interpolation-filters:sRGB;fill-rule:evenodd;stroke-linecap:square;stroke-miterlimit:3" viewBox="0 0 48.19 56.698"><defs><linearGradient id="b" x1="0" x2="28.58" y1="181.698" y2="181.698" gradientTransform="scale(1.68614 .59307)" gradientUnits="userSpaceOnUse"><stop offset=".2" stop-color="#005ba1"/><stop offset="1" stop-color="#0078d4"/></linearGradient><linearGradient id="a" x1="0" x2="1" y1="0" y2="0" gradientTransform="rotate(-90 .5 .5)"><stop offset="0" stop-color="#198ab3"/><stop offset=".35" stop-color="#32bedd"/><stop offset=".8" stop-color="#50e6ff"/></linearGradient><linearGradient xlink:href="#a" id="c" x1="0" x2="11.504" y1="111.606" y2="111.606" gradientTransform="scale(.98718 1.01299)" gradientUnits="userSpaceOnUse"/><linearGradient xlink:href="#a" id="d" x1="0" x2="11.504" y1="111.606" y2="111.606" gradientTransform="scale(.98718 1.01299)" gradientUnits="userSpaceOnUse"/></defs><g transform="translate(-34 -33.996)"><title>Page-1</title><g transform="translate(34 -34.016)"><title>Azure Synapse Analytics.20839</title><title>arcadia_icon_1</title><title>path4</title><path d="M24.09 68.02 0 82.16v28.34l24.09 14.21 24.1-14.14V82.22Zm19.65 39.59-19.65 11.65-19.64-11.53V84.96l19.64-11.65 19.65 11.68Z" style="fill:#0078d4;stroke:none;stroke-width:34;stroke-linecap:butt"/><g transform="translate(0 -39.748)"><title>path6</title><path d="M24.09 107.76 0 121.91l4.45 2.8 19.64-11.65 19.65 11.65 4.45-2.8z" style="fill:url(#b);stroke:none;stroke-width:34;stroke-linecap:butt"/></g><g transform="translate(14.18 -20.189)"><title>path8</title><path d="M17.03 124.71a13.26 13.606-180 0 0-15.96-10.05L0 110.06a17.864 18.33 0 0 1 21.49 13.58z" style="fill:#50e6ff;stroke:none;stroke-width:34;stroke-linecap:butt"/></g><g transform="translate(7.55 -7.087)"><title>path10</title><path d="M28.02 108.08a2.271 2.33-180 0 0-3.07-.85L0 121.97l4.6 2.74 22.59-13.39a2.333 2.394-180 0 0 .83-3.24m.53-25.92L5.89 95.57a2.333 2.394-180 0 0-.83 3.15 2.302 2.362-180 0 0 2 1.17 2.118 2.173-180 0 0 1.14-.32l24.98-14.8z" style="fill:#50e6ff;stroke:none;stroke-width:34;stroke-linecap:butt"/></g><g transform="translate(27.9 -16.693)"><title>circle12</title><ellipse cx="5.678" cy="118.882" rx="5.678" ry="5.827" style="fill:url(#c);stroke:none;stroke-width:34;stroke-linecap:butt"/></g><g transform="translate(8.932 -28.346)"><title>circle14</title><ellipse cx="5.678" cy="118.882" rx="5.678" ry="5.827" style="fill:none;stroke:none;stroke-width:34;stroke-linecap:butt"/></g><g transform="translate(9.332 -28.486)"><title>circle12-3</title><ellipse cx="5.678" cy="118.882" rx="5.678" ry="5.827" style="fill:url(#d);stroke:none;stroke-width:34;stroke-linecap:butt"/></g></g></g></svg>