<svg xmlns="http://www.w3.org/2000/svg" xml:space="preserve" width="56.691" height="56.69" style="font-size:12px;overflow:visible;color-interpolation-filters:sRGB;fill-rule:evenodd;stroke-linecap:square;stroke-miterlimit:3" viewBox="0 0 56.691 56.69"><defs><linearGradient id="a" x1="0" x2="51.772" y1="62.119" y2="62.119" gradientTransform="scale(.91324 1.095)" gradientUnits="userSpaceOnUse"><stop offset="0" stop-color="#0078d4"/><stop offset="1" stop-color="#5ea0ef"/></linearGradient><linearGradient id="b" x1="0" x2="32.143" y1="142.371" y2="142.371" gradientTransform="scale(1.39936 .71461)" gradientUnits="userSpaceOnUse"><stop offset="0" stop-color="#50e6ff"/><stop offset="1" stop-color="#32bedd"/></linearGradient></defs><g transform="translate(-34 -34.004)"><title>Page-1</title><g transform="translate(34 -34.016)"><title>Data collection Rule.20803</title><title>Sheet.20804</title><g transform="translate(9.411)"><title>Sheet.20805</title><path d="M0 122.82a1.93 1.89-180 0 0 1.93 1.89h43.42a1.93 1.89-180 0 0 1.93-1.89V69.91a1.93 1.89-180 0 0-1.93-1.89H1.93A1.93 1.89-180 0 0 0 69.91Z" style="fill:url(#a);stroke:none;stroke-width:34;stroke-linecap:butt"/></g><g transform="translate(0 -27.849)"><title>Sheet.20806</title><path d="M0 123a1.74 1.704-180 0 0 1.74 1.71h41.5a1.74 1.704-180 0 0 1.74-1.71v-19.55a1.74 1.704-180 0 0-1.74-1.71H1.74A1.74 1.704-180 0 0 0 103.45Z" style="fill:url(#b);stroke:none;stroke-width:34;stroke-linecap:butt"/></g><g transform="translate(6.909 -41.181)"><title>Sheet.20807</title><path d="M30.72 123.13H8.79a.392.384 0 0 1-.399-.378l-.001-1.272a.396.387 0 0 1 .396-.387l21.934-.003a.399.39 0 0 1 .399.387l.001 1.263a.392.384 0 0 1-.392.387zm-25.41.91v-3.86a.682.668-180 0 0-.682-.668L.68 119.51a.682.668-180 0 0-.682.665L0 124.04a.679.665-180 0 0 .679.665l3.951.005a.679.665-180 0 0 .682-.665z" style="fill:#fff;stroke:none;stroke-width:34;stroke-linecap:butt"/></g><g transform="translate(6.915 -32.967)"><title>Sheet.20808</title><path d="M30.71 123.1H8.79a.399.39 0 0 1-.399-.387l-.001-1.273a.399.39 0 0 1 .399-.39H30.71a.402.394 0 0 1 .399.39l.001 1.26a.402.394 0 0 1-.396.394zm-26.39-2.61H1.03v3.21h3.29zm.34-1.01a.695.68 0 0 1 .685.674l.005 3.886a.688.674 0 0 1-.688.67H.69a.685.67 0 0 1-.685-.67L0 120.14a.685.67 0 0 1 .685-.67z" style="fill:#fff;fill-opacity:.8;stroke:none;stroke-width:34;stroke-linecap:butt"/></g><g transform="translate(9.411 -6.473)"><title>Sheet.20809</title><path d="M33.03 109.47a.39.381-180 0 0-.27-.11.38.372-180 0 0-.377.375l-.003 4.685H0v5.59h32.38v4.36a.38.372-180 0 0 .643.265l7.477-7.315a.376.369-180 0 0 0-.523z" style="fill:#83b9f9;stroke:none;stroke-width:34;stroke-linecap:butt"/></g></g></g></svg>