<svg xmlns="http://www.w3.org/2000/svg" xml:space="preserve" width="56.696" height="56.689" style="font-size:12px;overflow:visible;color-interpolation-filters:sRGB;fill-rule:evenodd;stroke-linecap:square;stroke-miterlimit:3" viewBox="0 0 56.696 56.689"><g transform="translate(-11.333 -11.335)"><title>Page-1</title><g transform="translate(11.334 -34.016)"><title>Data and Storage.20824</title><title>g30</title><g transform="translate(0 -23.444)"><title>path4</title><path d="M28.17 94.22c0-2.36 4.41-4.36 10.5-5.04v-14.2H0v25.59a1.45 1.45-180 0 0 1.4 1.47h26.77z" style="fill:#a0a1a2;stroke:none;stroke-width:11.33329964;stroke-linecap:butt"/></g><g transform="translate(0 -50.51)"><title>path6</title><path d="M1.4 95.93A1.45 1.45-180 0 0 0 97.4v4.64h38.66V97.1c0-.78-.62-1.24-1.47-1.24z" style="fill:#7a7a7a"/><path d="M1.4 95.93A1.45 1.45-180 0 0 0 97.4v4.64h38.66V97.1c0-.78-.62-1.24-1.47-1.24" style="stroke:none;stroke-width:11.33329964;stroke-linecap:butt"/></g><g transform="translate(3.097 -34.646)"><title>path8</title><path d="M32.47 100.89v-4.28H0v5.43h28.6a21.6 21.6 0 0 1 3.87-1.15" style="fill:#b8d432;stroke:none;stroke-width:11.33329964;stroke-linecap:butt"/></g><g transform="translate(3.097 -42.772)"><title>path10</title><path d="M0 96.625h32.472v5.417H0z" style="fill:#fff;stroke:none;stroke-width:11.33329964;stroke-linecap:butt"/></g><g transform="translate(3.118 -26.54)"><title>path12</title><path d="M25.05 97.32a2 2 0 0 1 .15-.7H0v5.42h25.05z" style="fill:#b8d432;stroke:none;stroke-width:11.33329964;stroke-linecap:butt"/></g><g transform="translate(0 -23.507)"><title>path14</title><path d="M1.54 68.86A1.554 1.554-180 0 0 0 70.4v29.85c0 1.54.69 1.79 1.54 1.79h1.7l30.47-33.18Z" style="fill:#fff;fill-opacity:.2;stroke:none;stroke-width:11.33329964;stroke-linecap:butt"/></g><g transform="translate(29.396)"><title>path16</title><path d="M0 70.85V97.1c0 2.78 6.11 4.94 13.65 4.94V70.85Z" style="fill:#0072c6;stroke:none;stroke-width:11.33329964;stroke-linecap:butt"/></g><g transform="translate(42.856)"><title>path18</title><path d="M0 102.04h.19c7.54 0 13.65-2.21 13.65-4.94V70.85H0Z" style="fill:#0072c6;stroke:none;stroke-width:11.33329964;stroke-linecap:butt"/></g><g transform="translate(42.856)"><title>path20</title><path d="M0 102.04h.19c7.54 0 13.65-2.21 13.65-4.94V70.85H0Z" style="fill:#fff;fill-opacity:.15;stroke:none;stroke-width:11.33329964;stroke-linecap:butt"/></g><g transform="translate(29.396 -26.247)"><title>path22</title><path d="M27.3 97.1c0 2.73-6.11 4.94-13.65 4.94S0 99.83 0 97.1s6.11-4.95 13.65-4.95S27.3 94.37 27.3 97.1" style="fill:#fff;stroke:none;stroke-width:11.33329964;stroke-linecap:butt"/></g><g transform="translate(32.189 -28.231)"><title>path24</title><path d="M21.72 98.78c0 1.8-4.86 3.26-10.85 3.26-6 0-10.87-1.45-10.87-3.26 0-1.82 4.86-3.25 10.86-3.25 5.99 0 10.86 1.46 10.86 3.25" style="fill:#57a300;stroke:none;stroke-width:11.33329964;stroke-linecap:butt"/></g><g transform="translate(32.189 -29.48)"><title>path26</title><path d="M19.44 102.04c1.42-.55 2.28-1.24 2.28-1.99 0-1.81-4.86-3.27-10.85-3.27-6 0-10.87 1.46-10.87 3.25 0 .74.85 1.43 2.28 1.99a25.4 25.4 0 0 1 8.58-1.25 25.4 25.4 0 0 1 8.58 1.27" style="fill:#b8d432;stroke:none;stroke-width:11.33329964;stroke-linecap:butt"/></g><g transform="translate(33.07 -8.399)"><title>path28</title><path d="M5.64 97.51a2.25 2.25 0 0 1-.92 1.89 4 4 0 0 1-2.45.67 4.7 4.7 0 0 1-2.23-.48v-1.92a3.44 3.44-180 0 0 2.28.89 1.55 1.55-180 0 0 .92-.25.76.76-180 0 0 .325-.64.9.9-180 0 0-.315-.683 5.8 5.8-180 0 0-1.28-.737A2.82 2.82 0 0 1 0 93.73a2.28 2.28 0 0 1 .86-1.86 3.5 3.5 0 0 1 2.28-.7 5.7 5.7 0 0 1 2.1.32v1.8a3.4 3.4-180 0 0-1.99-.6 1.47 1.47-180 0 0-.88.24.75.75-180 0 0-.325.63.9.9-180 0 0 .262.672 4.2 4.2-180 0 0 1.053.648 5.3 5.3 0 0 1 1.72 1.16 2.16 2.16 0 0 1 .56 1.47m9.27-1.96a4.9 4.9 0 0 1-.74 2.64 3.7 3.7 0 0 1-1.94 1.56l2.54 2.29h-2.52l-1.78-2a4.2 4.2 0 0 1-2.1-.61 3.8 3.8 0 0 1-1.43-1.55 4.75 4.75 0 0 1-.47-2.14 5.1 5.1 0 0 1 .54-2.38 3.86 3.86 0 0 1 1.54-1.62 4.46 4.46 0 0 1 2.25-.56 4.2 4.2 0 0 1 2.1.54 3.73 3.73 0 0 1 1.46 1.56 4.9 4.9 0 0 1 .55 2.27m-2.04.11a3.37 3.37-180 0 0-.57-2.1 1.85 1.85-180 0 0-1.56-.76 1.96 1.96-180 0 0-1.62.77 3.71 3.71-180 0 0 0 4.04 1.91 1.91-180 0 0 1.58.76 1.94 1.94-180 0 0 1.59-.74 3.15 3.15-180 0 0 .58-1.96zm8.59 4.26h-5.12v-8.61h1.94v7.04h3.18z" style="fill:#fff;stroke:none;stroke-width:11.33329964;stroke-linecap:butt"/></g></g></g></svg>