<svg xmlns="http://www.w3.org/2000/svg" xml:space="preserve" width="56.692" height="45.35" style="font-size:12px;overflow:visible;color-interpolation-filters:sRGB;fill-rule:evenodd;stroke-linecap:square;stroke-miterlimit:3" viewBox="0 0 56.692 45.35"><defs><linearGradient id="a" x1="0" x2="47.775" y1="86.755" y2="86.755" gradientTransform="scale(1.18665 .84271)" gradientUnits="userSpaceOnUse"><stop offset="0" stop-color="#32d4f5"/><stop offset=".23" stop-color="#31d0f1"/><stop offset=".46" stop-color="#2cc3e6"/><stop offset=".7" stop-color="#25afd4"/><stop offset=".94" stop-color="#1c92ba"/><stop offset="1" stop-color="#198ab3"/></linearGradient></defs><g transform="translate(-34 -34.004)"><title>Page-1</title><g transform="translate(34 -34.016)"><title>Data Lake Storage Gen1.20780</title><title>Icon-analytics-150</title><title>Sheet.20782</title><path d="M55.36 73.05H30.65a1.134 1.111 0 0 1-.74-.23l-7.07-4.61a1.434 1.405-180 0 0-.73-.19H1.33A1.334 1.307-180 0 0 0 69.29v42.81a1.334 1.307-180 0 0 1.33 1.27h54.03a1.334 1.307-180 0 0 1.33-1.27V74.35a1.334 1.307-180 0 0-1.33-1.3" style="fill:#005ba1;stroke:none;stroke-width:34;stroke-linecap:butt"/><g transform="translate(5.17 -40.355)"><title>Sheet.20783</title><path d="M0 112.85a.534.523-180 0 0 .534.523l11.806-.003a.534.523-180 0 0 .534-.523l-.004-1.467a.534.523-180 0 0-.534-.523L.53 110.85a.534.523-180 0 0-.534.523z" style="fill:#fff;stroke:none;stroke-width:34;stroke-linecap:butt"/></g><g transform="translate(5.17 -40.355)"><title>Sheet.20784</title><path d="M0 113.01a.367.36-180 0 0 .367.36H2.2a.367.36-180 0 0 .367-.36l.003-1.8a.367.36-180 0 0-.367-.36H.37a.367.36-180 0 0-.367.36z" style="fill:#1ac3f2;stroke:none;stroke-width:34;stroke-linecap:butt"/></g><g transform="translate(0 -.13)"><title>Sheet.20785</title><path d="M55.36 73.11H28.35a1.2 1.176-180 0 0-.94.4l-4.5 4.24a1.434 1.405 0 0 1-.93.36H1.33A1.334 1.307-180 0 0 0 79.42v32.68a1.334 1.307-180 0 0 1.33 1.27h54.03a1.334 1.307-180 0 0 1.33-1.27V74.49a1.334 1.307-180 0 0-1.33-1.38" style="fill:url(#a);stroke:none;stroke-width:34;stroke-linecap:butt"/></g><g transform="translate(20.972 -7.69)"><title>Sheet.20786</title><path d="M11.31 87.6a.5.49-180 0 0-.267 0c-.003 0-.303 0-.433.23l-10.54 15a.534.523-180 0 0 0 .523.634.62-180 0 0 .5.327h6.24l-2.77 9.08a.434.425-180 0 0 .233.588.333.327-180 0 0 .234 0c.203.002.303.002.433-.228l10.87-15.23v-.32a.567.555-180 0 0-.567-.523L8.58 97.04l2.7-8.92a.434.425-180 0 0 .033-.523z" style="fill:#fff;stroke:none;stroke-width:34;stroke-linecap:butt"/></g></g></g></svg>