<svg xmlns="http://www.w3.org/2000/svg" xml:space="preserve" width="56.801" height="53.833" style="font-size:12px;overflow:visible;color-interpolation-filters:sRGB;fill-rule:evenodd;stroke-linecap:square;stroke-miterlimit:3" viewBox="0 0 56.801 53.833"><defs><linearGradient id="a" x1="0" x2="39.859" y1="74.445" y2="74.445" gradientTransform="scale(.9383 1.06576)" gradientUnits="userSpaceOnUse"><stop offset="0" stop-color="#005ba1"/><stop offset="1" stop-color="#0078d4"/></linearGradient><linearGradient id="b" x1="0" x2="29.383" y1="139.98" y2="139.98" gradientTransform="scale(1.38993 .71946)" gradientUnits="userSpaceOnUse"><stop offset="0" stop-color="#32bedd"/><stop offset=".3" stop-color="#36c3e1"/><stop offset=".66" stop-color="#41d1ee"/><stop offset="1" stop-color="#50e6ff"/></linearGradient></defs><g transform="translate(-34 -34.002)"><title>Page-1</title><g transform="translate(34 -34.016)"><title>Database Instance for SAP Solution.20725</title><title>Sheet.20726</title><g transform="translate(0 -4.644)"><title>Sheet.20727</title><path d="M18.72 86.09C8.42 86.07.08 83.04.09 79.34L0 115.06c0 3.68 8.19 6.69 18.38 6.76h.25c10.31.03 18.66-2.96 18.67-6.67l.1-35.73c-.02 3.72-8.38 6.7-18.68 6.67" style="fill:url(#a);stroke:none;stroke-width:34;stroke-linecap:butt"/></g><g transform="translate(.08 -40.373)"><title>Sheet.20728</title><path d="M37.31 115.15c0 3.71-8.37 6.7-18.67 6.67C8.34 121.8 0 118.77.01 115.07s8.36-6.71 18.67-6.68c10.3.02 18.64 3.05 18.63 6.76" style="fill:#e6e6e6;stroke:none;stroke-width:34;stroke-linecap:butt"/></g><g transform="translate(4.424 -43.378)"><title>Sheet.20729</title><path d="M28.59 117.61c0 2.35-6.41 4.24-14.3 4.24-7.9 0-14.29-1.96-14.28-4.31 0-2.34 6.41-4.24 14.31-4.24 7.89 0 14.29 1.96 14.28 4.31z" style="fill:#50e6ff"/><path d="M28.59 117.61c0 2.35-6.41 4.24-14.3 4.24-7.9 0-14.29-1.96-14.28-4.31 0-2.34 6.41-4.24 14.31-4.24 7.89 0 14.29 1.96 14.28 4.31" style="stroke:none;stroke-width:34;stroke-linecap:butt"/></g><g transform="translate(7.41 -43.388)"><title>Sheet.20730</title><path d="M11.32 118.56A34.394 33.998-180 0 0 0 120.15a33.206 32.824-180 0 0 11.32 1.7 33.15 32.768-180 0 0 11.33-1.63 34.404 34.008-180 0 0-11.33-1.66" style="fill:#198ab3;stroke:none;stroke-width:34;stroke-linecap:butt"/></g><g transform="translate(15.96)"><title>Sheet.20731</title><path d="M1.38 121.85h19.66a1.39 1.374-180 0 0 .99-.41l18.41-18.4a1.383 1.368-180 0 0-.99-2.33H1.38A1.383 1.368-180 0 0 0 102.08v18.4a1.38 1.364-180 0 0 1.38 1.37" style="fill:url(#b);stroke:none;stroke-width:34;stroke-linecap:butt"/></g><g transform="translate(30.528 -3.084)"><title>Sheet.20732</title><path d="M6.86 110.06v7.85L0 121.85v-7.86z" style="fill:#fff;fill-opacity:.6;stroke:none;stroke-width:34;stroke-linecap:butt"/></g><g transform="translate(23.66 -10.934)"><title>Sheet.20733</title><path d="m13.73 117.91-6.86 3.94L0 117.9l6.87-3.94Z" style="fill:#fff;fill-opacity:.9;stroke:none;stroke-width:34;stroke-linecap:butt"/></g><g transform="translate(23.66 -3.084)"><title>Sheet.20734</title><path d="M6.87 114v7.85L0 117.91v-7.86z" style="fill:#fff;fill-opacity:.75;stroke:none;stroke-width:34;stroke-linecap:butt"/></g></g></g></svg>