<svg xmlns="http://www.w3.org/2000/svg" xml:space="preserve" width="56.695" height="56.712" style="font-size:12px;overflow:visible;color-interpolation-filters:sRGB;fill-rule:evenodd;stroke-linecap:square;stroke-miterlimit:3" viewBox="0 0 56.695 56.712"><defs><linearGradient id="a" x1="0" x2="33.18" y1="50.461" y2="50.461" gradientTransform="scale(.67058 1.49125)" gradientUnits="userSpaceOnUse"><stop offset="0" stop-color="#7b7b7b"/><stop offset="1" stop-color="#fff"/></linearGradient></defs><g transform="translate(-34 -34.002)"><title>Page-1</title><g transform="translate(34 -34.016)"><title>Data LakeHouse.20750</title><title>Sheet.20751</title><g transform="translate(28.345)"><title>Sheet.20752</title><path d="M14.17 96.37c7.83 0 14.18 6.36 14.18 14.18 0 7.83-6.35 14.18-14.18 14.18H0v-14.18c0-7.82 6.35-14.18 14.17-14.18" style="fill:#32bedd;stroke:none;stroke-width:34;stroke-linecap:butt"/></g><g transform="translate(7.059 -.22)"><title>Sheet.20753</title><path d="M19.96 114.13H6.27l7.43-24.74h.88l5.61 18.7a15.44 15.445 0 0 1 2.06-5.44l-4.31-14.37-3.81-13.03-3.81 13.03-8.11 27.06a8.675 8.677-180 0 0-.28.91 17.696 17.701 0 0 1-.44 1.41 31.035 31.045-180 0 0-.52 1.63l-.47 1.63q-.225.78-.36 1.32a4.047 4.049-180 0 0-.14.72c0 .48.17.89.53 1.24a1.7 1.7-180 0 0 1.24.53 1.66 1.66-180 0 0 1.07-.36 1.83 1.83-180 0 0 .61-.91l1.74-5.8h14.76v-3.53z" style="fill:url(#a);stroke:none;stroke-width:34;stroke-linecap:butt"/></g><g transform="translate(32.874 -8.116)"><title>Sheet.20754</title><g transform="translate(4.822 -.006)"><title>Sheet.20755</title><path d="M0 124.4a.33.33-180 0 0 .328.328l2.372.002a.33.33-180 0 0 .328-.328l.002-8.242a.33.33-180 0 0-.328-.328L.33 115.83a.33.33-180 0 0-.328.328z" style="fill:#fff;stroke:none;stroke-width:34;stroke-linecap:butt"/></g><g transform="translate(0 -.006)"><title>Sheet.20756</title><path d="M0 124.4a.33.33-180 0 0 .328.328l2.372.002a.33.33-180 0 0 .328-.328l.002-5.162a.33.33-180 0 0-.328-.328L.33 118.91a.33.33-180 0 0-.328.328z" style="fill:#fff;stroke:none;stroke-width:34;stroke-linecap:butt"/></g><g transform="translate(9.645)"><title>Sheet.20757</title><path d="M7.75 112.94a.33.33-180 0 0-.233-.098l-2.367.008a.324.325-180 0 0-.328.33L4.82 124.4a.33.33-180 0 0 .328.33H7.52a.324.325-180 0 0 .328-.33l.002-11.22a.34.34-180 0 0-.094-.233Zm-5.04 5.96H.29l-.03.01-.03.01-.03.01-.03.01-.02.02-.03.02-.02.02-.02.02-.02.03-.02.03-.01.02-.01.03-.01.03v.04l-.01.03v5.2l.01.03.01.03.01.03.01.03.02.03.02.02.02.03.02.02.03.01.02.02.03.02.03.01.03.01h2.45a.33.33-180 0 0 .328-.33l.002-5.16a.33.33-180 0 0-.328-.33z" style="fill:#fff;stroke:none;stroke-width:34;stroke-linecap:butt"/></g></g><g transform="translate(0 -28.49)"><title>Sheet.20758</title><path d="M7.56 121.83a15.144 15.149-180 0 0-.72-.97 9.74 9.742 0 0 1-.69-.97 17.214 17.22 0 0 1-1.96-4.47 17.916 17.922 0 0 1-.66-4.84 19.327 19.333 0 0 1 .66-4.83c.42-1.57 1.07-3.04 1.93-4.42.2-.35.43-.68.66-.99l.72-.94a1.474 1.475-180 0 0 .33-.52 1.9 1.9-180 0 0 .09-.61 1.7 1.7-180 0 0-.53-1.24 1.7 1.7-180 0 0-2.01-.33 2.1 2.1-180 0 0-.61.47 14.187 14.191-180 0 0-2.04 2.9 24.48 24.488-180 0 0-1.49 3.39A21.365 21.372-180 0 0 0 110.59c.02 1.19.13 2.39.33 3.59.2 1.19.52 2.39.94 3.58.42 1.2.93 2.33 1.52 3.4s1.28 2.04 2.07 2.93a1.732 1.733-180 0 0 2.59.11 1.7 1.7-180 0 0 .42-1.85 1.833 1.834-180 0 0-.31-.53zm34.53-14.78a19.72 19.727-180 0 0-.91-3.58 22.52 22.528-180 0 0-1.52-3.4 15.717 15.722-180 0 0-2.04-2.9 1.81 1.81-180 0 0-1.38-.64 1.855 1.856-180 0 0-1.24.53 1.6 1.6-180 0 0-.53 1.21c.02.24.06.44.11.61.06.17.16.34.31.53l.72.94q.345.465.66.99c.88 1.4 1.53 2.88 1.96 4.45q.63 2.34.63 4.8t-.66 4.83c-.44 1.59-1.1 3.08-1.96 4.48q-.33.555-.69.99a20.269 20.275-180 0 0-.72.94 1.474 1.475-180 0 0-.33.53 1.9 1.9-180 0 0-.08.6c0 .48.18.89.53 1.24s.76.53 1.24.53a1.8 1.8-180 0 0 1.38-.64c.83-.82 1.53-1.79 2.1-2.89a28.254 28.263-180 0 0 1.49-3.43c.42-1.18.73-2.38.93-3.62.21-1.23.31-2.42.31-3.56a26.24 26.25-180 0 0-.31-3.53zm-28.49-6.38a1.74 1.74-180 0 0-2.51.03q-.99.96-1.74 2.13-.735 1.155-1.26 2.43c-.35.84-.61 1.72-.78 2.62a14.836 14.84-180 0 0-.25 2.71c.02 1.4.24 2.81.67 4.25.42 1.44 1.05 2.72 1.87 3.84a1.984 1.985-180 0 0 .64.55 1.66 1.66-180 0 0 .8.19c.48 0 .89-.17 1.24-.52s.53-.77.53-1.25a1.84 1.84-180 0 0-.31-1.02 15.333 15.338 0 0 1-1.4-2.9 9.421 9.424 0 0 1-.5-3.14c0-1.51.26-2.86.77-4.03.52-1.18 1.27-2.31 2.27-3.4.18-.2.31-.4.38-.58.08-.18.11-.41.11-.66a1.7 1.7-180 0 0-.52-1.24zm20.7 4.56a12.782 12.786-180 0 0-3-4.53 1.65 1.65-180 0 0-1.27-.55 1.7 1.7-180 0 0-1.24.53c-.35.35-.53.76-.53 1.24s.17.89.5 1.24c.99 1.09 1.75 2.23 2.27 3.43.51 1.19.77 2.53.77 4q0 2.43-1.02 4.56a10.215 10.218-180 0 0-.36.6 5 5 0 0 1-.39.61 2.23 2.23-180 0 0-.44 1.3c.02.52.19.94.53 1.27.33.33.74.5 1.24.5.35-.02.65-.12.91-.3.25-.19.49-.43.71-.72.22-.3.42-.6.58-.91.17-.32.31-.6.42-.86a14.262 14.267-180 0 0 1.35-6.05c0-1.84-.34-3.62-1.02-5.35zm-13.11-1.73a7.068 7.07-180 1 0 0 14.14 7.068 7.07-180 0 0 0-14.14" style="fill:#0078d4;stroke:none;stroke-width:34;stroke-linecap:butt"/></g></g></g></svg>