<svg xmlns="http://www.w3.org/2000/svg" xmlns:xlink="http://www.w3.org/1999/xlink" xml:space="preserve" width="56.689" height="53.856" style="font-size:12px;overflow:visible;color-interpolation-filters:sRGB;fill-rule:evenodd;stroke-linecap:square;stroke-miterlimit:3" viewBox="0 0 56.689 53.856"><defs><linearGradient id="a" x1="0" x2="1" y1="0" y2="0" gradientTransform="rotate(90 .5 .5)"><stop offset="0" stop-color="#5ea0ef"/><stop offset="1" stop-color="#0078d4"/></linearGradient><linearGradient xlink:href="#a" id="b" x1="0" x2="22.299" y1="141.606" y2="141.606" gradientTransform="scale(1.34492 .74354)" gradientUnits="userSpaceOnUse"/><linearGradient xlink:href="#a" id="c" x1="0" x2="22.299" y1="141.607" y2="141.607" gradientTransform="scale(1.34492 .74354)" gradientUnits="userSpaceOnUse"/></defs><g transform="translate(-34 -33.998)"><title>Page-1</title><g transform="translate(34 -34.016)"><title>Data Collection Data source.20810</title><title>Sheet.20811</title><g transform="translate(7.389 -5.171)"><title>Sheet.20812</title><path d="M4.58 91.8v-8.05a.894.898 0 0 1 .894-.895l17.246.005v-4.5H1.79A1.789 1.795-180 0 0 0 80.16v11.76ZM0 107.9v12.18a1.789 1.795-180 0 0 1.79 1.79h20.83v-4.49H5.47a.894.898 0 0 1-.894-.895l.004-8.705Z" style="fill:#5ea0ef;stroke:none;stroke-width:34;stroke-linecap:butt"/></g><g transform="translate(0 -16.57)"><title>Sheet.20813</title><path d="M0 103.17v16.85a1.855 1.862-180 0 0 1.86 1.85h16.78a1.852 1.859-180 0 0 1.86-1.84v-16.86a1.855 1.862-180 0 0-1.84-1.87H1.86A1.855 1.862-180 0 0 0 103.16Zm15.81 1.61a1.228 1.233 0 0 1 1.23 1.24v11.16a1.232 1.236 0 0 1-1.23 1.24H4.67a1.232 1.236 0 0 1-1.22-1.24V106a1.232 1.236 0 0 1 1.22-1.23z" style="fill:#83b9f9;stroke:none;stroke-width:34;stroke-linecap:butt"/></g><g transform="translate(26.7)"><title>Sheet.20814</title><path d="M28.5 105.29H1.49a1.49 1.495-180 0 0-1.49 1.5v13.59a1.49 1.495-180 0 0 1.49 1.49H28.5a1.49 1.495-180 0 0 1.49-1.49v-13.59a1.49 1.495-180 0 0-1.49-1.49Z" style="fill:url(#b);stroke:none;stroke-width:34;stroke-linecap:butt"/></g><g transform="translate(26.7 -37.276)"><title>Sheet.20815</title><path d="M28.5 105.29H1.49a1.49 1.495-180 0 0-1.49 1.5v13.59a1.49 1.495-180 0 0 1.49 1.49H28.5a1.49 1.495-180 0 0 1.49-1.48v-13.6a1.49 1.495-180 0 0-1.49-1.5" style="fill:url(#c);stroke:none;stroke-width:34;stroke-linecap:butt"/></g><g transform="translate(32.17 -4.251)"><title>Sheet.20816</title><path d="M0 121.52a.35.35-180 0 0 .35.35h4.1a.35.35-180 0 0 .35-.35v-3.05a.35.35-180 0 0-.35-.35H.35a.35.35-180 0 0-.35.35z" style="fill:#fff;stroke:none;stroke-width:34;stroke-linecap:butt"/></g><g transform="translate(39.175 -4.251)"><title>Sheet.20817</title><path d="M0 121.46a.416.417-180 0 0 .416.417l3.964-.007a.416.417-180 0 0 .416-.417l.004-4.543a.416.417-180 0 0-.416-.417L.42 116.49a.416.417-180 0 0-.416.417z" style="fill:#fff;stroke:none;stroke-width:34;stroke-linecap:butt"/></g><g transform="translate(46.18 -4.251)"><title>Sheet.20818</title><path d="M0 121.37a.507.509-180 0 0 .507.509l3.783-.009a.507.509-180 0 0 .507-.509l.003-6.901a.507.509-180 0 0-.507-.509L.51 113.95a.507.509-180 0 0-.507.509z" style="fill:#fff;stroke:none;stroke-width:34;stroke-linecap:butt"/></g><g transform="translate(36.74 -44.806)"><title>Sheet.20819</title><ellipse cx="1.773" cy="120.094" rx="1.773" ry="1.78" style="fill:#fff;stroke:none;stroke-width:34;stroke-linecap:butt"/></g><g transform="translate(42.935 -40.914)"><title>Sheet.20820</title><ellipse cx="1.773" cy="120.094" rx="1.773" ry="1.78" style="fill:#fff;stroke:none;stroke-width:34;stroke-linecap:butt"/></g><g transform="translate(47.858 -47.67)"><title>Sheet.20821</title><ellipse cx="1.773" cy="120.094" rx="1.773" ry="1.78" style="fill:#fff;stroke:none;stroke-width:34;stroke-linecap:butt"/></g><g transform="translate(31.587 -40.364)"><title>Sheet.20822</title><ellipse cx="1.773" cy="120.094" rx="1.773" ry="1.78" style="fill:#fff;stroke:none;stroke-width:34;stroke-linecap:butt"/></g><g transform="translate(32.513 -41.243)"><title>Sheet.20823</title><path d="M1.06 121.87 0 120.78l5.87-5.71 6.16 4.34 4.81-6.43 1.21.91-5.69 7.61-6.34-4.46z" style="fill:#fff;stroke:none;stroke-width:34;stroke-linecap:butt"/></g></g></g></svg>