<svg xmlns="http://www.w3.org/2000/svg" xml:space="preserve" width="56.697" height="56.695" style="font-size:12px;overflow:visible;color-interpolation-filters:sRGB;fill-rule:evenodd;stroke-linecap:square;stroke-miterlimit:3" viewBox="0 0 56.697 56.695"><defs><linearGradient id="a" x1="0" x2="38.281" y1="54.077" y2="54.077" gradientTransform="scale(.74058 1.35029)" gradientUnits="userSpaceOnUse"><stop offset="0" stop-color="#005ba1"/><stop offset=".07" stop-color="#0060a9"/><stop offset=".36" stop-color="#0071c8"/><stop offset=".52" stop-color="#0078d4"/><stop offset=".64" stop-color="#0074cd"/><stop offset=".81" stop-color="#006abb"/><stop offset=".99" stop-color="#005ba1"/></linearGradient></defs><g transform="translate(-34 -34)"><title>Page-1</title><g transform="translate(34 -34.016)"><title>Data Factory.20793</title><title>Icon-analytics-146</title><g transform="translate(14.507)"><title>path4</title><path d="M28.01 101.3V88.26a.467.467-180 0 0-.8-.333L13.87 101.26 0 115.14v9.57h40.29a1.87 1.87-180 0 0 1.9-1.9V88.26a.467.467-180 0 0-.8-.333z" style="fill:#005ba1;stroke:none;stroke-width:34;stroke-linecap:butt"/></g><title>path6</title><path d="M14.17 78.29C6.34 78.29 0 75.99 0 73.02v49.79a1.87 1.87-180 0 0 1.9 1.9h26.45V73.02c0 2.97-6.34 5.27-14.18 5.27" style="fill:url(#a);stroke:none;stroke-width:34;stroke-linecap:butt"/><g transform="translate(41.386 -7.537)"><title>rect8</title><path d="M0 123.77a.934.934-180 0 0 .934.934l5.706.006a.934.934-180 0 0 .934-.934l-.004-5.706a.934.934-180 0 0-.934-.934l-5.706.004a.934.934-180 0 0-.934.934z" style="fill:#fff;stroke:none;stroke-width:34;stroke-linecap:butt"/></g><g transform="translate(28.246 -7.537)"><title>rect10</title><path d="M0 123.77a.934.934-180 0 0 .934.934l5.706.006a.934.934-180 0 0 .934-.934l-.004-5.706a.934.934-180 0 0-.934-.934l-5.706.004a.934.934-180 0 0-.934.934z" style="fill:#fff;stroke:none;stroke-width:34;stroke-linecap:butt"/></g><g transform="translate(15.107 -7.537)"><title>rect12</title><path d="M0 123.77a.934.934-180 0 0 .934.934l5.706.006a.934.934-180 0 0 .934-.934l-.004-5.706a.934.934-180 0 0-.934-.934l-5.706.004a.934.934-180 0 0-.934.934z" style="fill:#fff;stroke:none;stroke-width:34;stroke-linecap:butt"/></g><g transform="translate(0 -46.555)"><title>path14</title><path d="M28.35 119.57c0 2.84-6.34 5.14-14.18 5.14-7.83 0-14.17-2.17-14.17-5.14s6.34-5 14.17-5c7.84 0 14.18 2.3 14.18 5" style="fill:#eaeaea;stroke:none;stroke-width:34;stroke-linecap:butt"/></g><g transform="translate(3.268 -48.656)"><title>path16</title><path d="M21.74 121.37c0 1.84-4.87 3.34-10.87 3.34S0 123.27 0 121.37s5.07-3.23 10.91-3.23c5.83 0 10.83 1.43 10.83 3.23" style="fill:#50e6ff;stroke:none;stroke-width:34;stroke-linecap:butt"/></g><g transform="translate(5.57 -48.723)"><title>path18</title><path d="M8.6 122.21a26.9 26.9-180 0 0-8.6 1.23 25.5 25.5-180 0 0 8.6 1.27 25.5 25.5-180 0 0 8.61-1.27 26.9 26.9-180 0 0-8.61-1.23" style="fill:#198ab3;stroke:none;stroke-width:34;stroke-linecap:butt"/></g></g></g></svg>