<svg xmlns="http://www.w3.org/2000/svg" xml:space="preserve" width="42.522" height="56.692" style="font-size:12px;overflow:visible;color-interpolation-filters:sRGB;fill-rule:evenodd;stroke-linecap:square;stroke-miterlimit:3" viewBox="0 0 42.522 56.692"><g transform="translate(-4.252 -5.672)"><title>Page-1</title><g transform="translate(4.252 -34.016)"><title>Data Lake.20759</title><title>g12</title><g transform="translate(0 -.113)"><title>path2</title><path d="M0 47.51v41.16c0 4.31 9.45 7.71 21.26 7.71V47.51Z" style="fill:#3e3e3e;stroke:none;stroke-width:.75;stroke-linecap:butt"/></g><g transform="translate(20.922)"><title>path4</title><path d="M0 96.38h.34c11.7 0 21.26-3.52 21.26-7.71V47.4H0Z" style="fill:#a0a1a2;stroke:none;stroke-width:.75;stroke-linecap:butt"/></g><g transform="translate(0 -41.272)"><title>path6</title><path d="M42.52 88.67c0 4.31-9.45 7.71-21.26 7.71S0 92.98 0 88.67c0-4.2 9.56-7.71 21.26-7.71s21.26 3.51 21.26 7.71" style="fill:#fff;stroke:none;stroke-width:.75;stroke-linecap:butt"/></g><g transform="translate(4.387 -44.334)"><title>path8</title><path d="M33.75 91.28c0 2.83-7.54 5.1-16.88 5.1C7.54 96.38 0 94.11 0 91.28c0-2.84 7.54-5.11 16.87-5.11 9.34 0 16.88 2.27 16.88 5.11" style="fill:#7fba00;stroke:none;stroke-width:.75;stroke-linecap:butt"/></g><g transform="translate(4.387 -46.261)"><title>path10</title><path d="M30.26 96.38c2.25-.91 3.49-1.93 3.49-3.18 0-2.83-7.54-5.1-16.88-5.1C7.54 88.1 0 90.37 0 93.2c0 1.14 1.35 2.27 3.49 3.18 3.03-1.25 7.87-2.04 13.38-2.04 5.4 0 10.24.79 13.39 2.04" style="fill:#b8d432;stroke:none;stroke-width:.75;stroke-linecap:butt"/></g><title>g24</title><title>path14</title><path d="M20.92 96.38V75.97c-3.15 0-5.85-1.7-7.42-4.2-1.58 2.5-4.16 4.2-7.31 4.2-2.48 0-4.62-1.02-6.19-2.72v15.42c0 4.19 9.34 7.59 20.92 7.71" style="fill:#3999c6;stroke:none;stroke-width:.75;stroke-linecap:butt"/><title>path16</title><g transform="translate(20.922)"><title>path18</title><path d="M0 96.38h.34z" style="fill:#59b4d9;stroke:none;stroke-width:.75;stroke-linecap:butt"/></g><g transform="translate(21.147)"><title>path20</title><path d="M14.85 75.97c-3.15 0-5.96-1.7-7.54-4.2-1.46 2.5-4.16 4.09-7.31 4.2v20.41c11.7 0 21.26-3.52 21.26-7.71V73.13c-1.57 1.7-3.82 2.84-6.41 2.84" style="fill:#59b4d9;stroke:none;stroke-width:.75;stroke-linecap:butt"/></g><g transform="translate(20.922)"><title>path22</title><path d="M.11 75.97 0 96.38h.22V75.97z" style="fill:#59b4d9;stroke:none;stroke-width:.75;stroke-linecap:butt"/></g></g></g></svg>