<svg xmlns="http://www.w3.org/2000/svg" xml:space="preserve" width="56.69" height="48.19" style="font-size:12px;overflow:visible;color-interpolation-filters:sRGB;fill-rule:evenodd;stroke-linecap:square;stroke-miterlimit:3" viewBox="0 0 56.69 48.19"><g transform="translate(-5.67 -4.814)"><title>Page-1</title><g transform="translate(5.67 -34.016)"><title>Data Lake Storage Gen2.20772</title><title>Sheet.20773</title><path d="M0 84.89c0 1.12.91 2.13 2.04 2.13h52.5c1.13 0 2.15-.9 2.15-2.13V47.67H0Z" style="fill:#a0a1a2;stroke:none;stroke-width:.75;stroke-linecap:butt"/><g transform="translate(0 -39.354)"><title>Sheet.20774</title><path d="M54.54 78.19H2.04C.91 78.19 0 79.24 0 80.4v6.62h56.69V80.4c0-1.16-.9-2.21-2.15-2.21" style="fill:#7a7a7a;stroke:none;stroke-width:.75;stroke-linecap:butt"/></g><g transform="translate(4.05 -20.882)"><title>Sheet.20775</title><path d="M0 72.567h23.487v14.457H0z" style="fill:#0072c6;stroke:none;stroke-width:.75;stroke-linecap:butt"/></g><g transform="translate(4.05 -4.016)"><title>Sheet.20776</title><path d="M0 72.567h23.487v14.457H0z" style="fill:#0072c6;stroke:none;stroke-width:.75;stroke-linecap:butt"/></g><g transform="translate(29.156 -20.882)"><title>Sheet.20777</title><path d="M0 72.567h22.677v14.457H0z" style="fill:#fff;stroke:none;stroke-width:.75;stroke-linecap:butt"/></g><g transform="translate(29.156 -4.016)"><title>Sheet.20778</title><path d="M0 72.567h22.677v14.457H0z" style="fill:#0072c6;stroke:none;stroke-width:.75;stroke-linecap:butt"/></g><title>Sheet.20779</title><path d="M2.27 38.83C1.02 38.83 0 39.85 0 41.1v43.66c0 1.25 1.02 2.26 2.27 2.26h2.49L49.4 38.83Z" style="fill:#fff;fill-opacity:.2;stroke:none;stroke-width:.75;stroke-linecap:butt"/></g></g></svg>