<svg xmlns="http://www.w3.org/2000/svg" xml:space="preserve" width="56.346" height="56.507" style="font-size:12px;overflow:visible;color-interpolation-filters:sRGB;fill-rule:evenodd;stroke-linecap:square;stroke-miterlimit:3" viewBox="0 0 56.346 56.507"><g transform="translate(-6.12 -6.118)"><title>Page-1</title><g transform="translate(5.937 -34.016)"><title>Data Lake Analytics.20787</title><title>Sheet.20788</title><g transform="translate(4.734 -4.635)"><title>Sheet.20789</title><path d="M42.04 96.64H5.13C2.31 96.64 0 94.33 0 91.5V54.48c0-2.83 2.31-5.15 5.13-5.15h36.91c2.82 0 5.13 2.32 5.13 5.15V91.5c0 2.83-2.31 5.14-5.13 5.14M5.13 52.73c-.96 0-1.69.79-1.69 1.69v37.02c0 .97.79 1.7 1.69 1.7h36.91c.96 0 1.69-.79 1.69-1.7V54.42c0-.96-.79-1.69-1.69-1.69z" style="fill:#a0a1a2;stroke:none;stroke-width:6.11999989;stroke-linecap:butt"/></g><title>Sheet.20790</title><path d="M23.33 40.63c-1.24-.57-2.7-.68-4-.17-1.3.45-2.37 1.41-2.93 2.71l-.79 1.64h16.62zm32.86 18.71a5 5 0 0 0-2.71-2.94l-1.63-.79v16.73l4.17-8.93c.62-1.3.67-2.71.17-4.07M.68 77.26C.11 78.5 0 79.97.51 81.27c.45 1.3 1.41 2.37 2.7 2.94l1.64.79V68.33Zm36.51 18.88c.68.34 1.47.5 2.2.5.62 0 1.19-.11 1.81-.33a5.03 5.03 0 0 0 2.93-2.72l.78-1.64H28.29Z" style="fill:#7a7a7a;stroke:none;stroke-width:6.11999989;stroke-linecap:butt"/><g transform="translate(8.171 -8.14)"><title>Sheet.20791</title><path d="M1.69 56.23c-.96 0-1.69.79-1.69 1.7v37.02c0 .96.79 1.69 1.69 1.69H38.6c.96 0 1.69-.79 1.69-1.69V57.93c0-.96-.79-1.7-1.69-1.7z" style="fill:#fff;stroke:none;stroke-width:6.11999989;stroke-linecap:butt"/></g><g transform="translate(19.668 -13.679)"><title>Sheet.20792</title><path d="M16.79 78.5H9.64l2.98-10c.06-.29-.05-.57-.28-.68-.05-.06-.17-.06-.22-.06-.17 0-.34.11-.45.23L.11 84.89c-.11.17-.11.39-.05.56.11.17.28.29.5.29H7.5L4.4 95.91c-.06.28.05.57.28.68.05.05.17.05.22.05.17 0 .34-.11.45-.22l11.89-17.07c.06-.11.12-.23.12-.34 0-.28-.28-.51-.57-.51" style="fill:#59b4d9;stroke:none;stroke-width:6.11999989;stroke-linecap:butt"/></g></g></g></svg>