<svg xmlns="http://www.w3.org/2000/svg" xml:space="preserve" width="56.728" height="42.524" style="font-size:12px;overflow:visible;color-interpolation-filters:sRGB;fill-rule:evenodd;stroke-linecap:square;stroke-miterlimit:3" viewBox="0 0 56.728 42.524"><defs><linearGradient id="a" x1="0" x2="28.484" y1="146.011" y2="146.011" gradientTransform="scale(1.57863 .63346)" gradientUnits="userSpaceOnUse"><stop offset="0" stop-color="#0078d4"/><stop offset=".99" stop-color="#127fd9"/></linearGradient></defs><g transform="translate(-34 -34)"><title>Page-1</title><g transform="translate(34 -34.016)"><title>Disk Access.20716</title><title>Sheet.20717</title><g transform="translate(.025 -1.032)"><title>Sheet.20718</title><path d="M32.23 104.69v-.12l-.29.05c.08.02.18.06.29.07m.42 1.32-.63-.1a9.551 9.333 0 0 1-2.69-.88 53.307 52.09 0 0 1-6.72.41C10.07 105.44 0 101.4.12 96.42v5.09c0 4.98 10.31 9.03 22.49 9.03a47.897 46.803-180 0 0 11.74-1.36 9.62 9.4 0 0 1-1.7-3.17" style="fill:#5e9624;stroke:none;stroke-width:34;stroke-linecap:butt"/></g><g transform="translate(0 -5.952)"><title>Sheet.20719</title><path d="M24.02 101.68a9.586 9.367 0 0 1 5.83-8.69 52.38 51.184-180 0 0-7.37-.5C10.07 92.49 0 96.53 0 101.51c0 4.99 10.08 9.03 22.48 9.03a52.642 51.44-180 0 0 7.12-.47 9.513 9.296 0 0 1-5.58-8.39" style="fill:#76bc2d;stroke:none;stroke-width:34;stroke-linecap:butt"/></g><g transform="translate(15.601 -13.065)"><title>Sheet.20720</title><path d="M8.42 108.79a9.453 9.237 0 0 1 .28-2.21 26.334 25.732-180 0 0-1.24-.03c-4.12 0-7.46.89-7.46 1.99s3.34 2 7.46 2c.39 0 .77-.02 1.14-.04a9.453 9.237 0 0 1-.18-1.71" style="fill:#5e9624;stroke:none;stroke-width:34;stroke-linecap:butt"/></g><g transform="translate(.013 -24.476)"><title>Sheet.20721</title><ellipse cx="22.483" cy="101.514" rx="22.483" ry="9.022" style="fill:url(#a);stroke:none;stroke-width:34;stroke-linecap:butt"/></g><g transform="translate(15.601 -31.623)"><title>Sheet.20722</title><ellipse cx="7.465" cy="108.543" rx="7.465" ry="1.992" style="fill:#005ba1;stroke:none;stroke-width:34;stroke-linecap:butt"/></g><g transform="translate(25.306)"><title>Sheet.20723</title><path d="M23.18 95.65a8.31 8.12 0 0 1-8.31 8.12h-1.94a3.857 3.769 0 0 1-.26-1.35 3.948 3.858 0 0 1 .39-1.63h1.82a5.262 5.142-180 1 0 0-10.28H8.23a5.25 5.13-180 0 0-1.21 10.14 8.842 8.64-180 0 0-.08 3.01 8.31 8.12 0 0 1 1.29-16.13h6.64a8.306 8.117 0 0 1 8.31 8.12m1.29-1.23a9.538 9.32 0 0 1 .1 1.23 8.798 8.597 0 0 1-.18 1.77 5.25 5.13 0 0 1-1.21 10.14h-6.65a5.266 5.145 0 0 1 0-10.29h1.83a3.926 3.837-180 0 0 .39-1.62 3.857 3.769-180 0 0-.26-1.35h-1.96a8.31 8.12-180 1 0 0 16.24h6.65a8.31 8.12-180 0 0 1.29-16.13z" style="fill:#005ba1;stroke:none;stroke-width:34;stroke-linecap:butt"/></g><g transform="translate(.013 -19.586)"><title>Sheet.20724</title><path d="M26.76 108.68a9.507 9.29 0 0 1 6.76-2.79h6.64a9.58 9.36 0 0 1 1.77.17 6.4 6.254-180 0 0 3.15-4.31v-5.33c0 4.98-10.04 9.02-22.48 9.02-12.53 0-22.6-4.04-22.48-9.02v5.09c0 4.99 10.31 9.03 22.49 9.03.94 0 1.86-.04 2.78-.08a9.598 9.379 0 0 1 1.37-1.78" style="fill:#0078d4;stroke:none;stroke-width:34;stroke-linecap:butt"/></g></g></g></svg>