<svg xmlns="http://www.w3.org/2000/svg" xml:space="preserve" width="56.69" height="56.69" style="font-size:12px;overflow:visible;color-interpolation-filters:sRGB;fill-rule:evenodd;stroke-linecap:square;stroke-miterlimit:3" viewBox="0 0 56.69 56.69"><g transform="translate(-5.67 -5.674)"><title>Page-1</title><g transform="translate(5.67 -34.016)"><title>Elasticsearch.20682</title><title>Sheet.20683</title><title>Sheet.20684</title><path d="M56.69 69.38c0-4.79-2.96-8.92-7.36-10.55a16.665 16.733-180 0 0 .28-3.07c0-8.87-7.17-16.07-16.01-16.07-5.14 0-9.95 2.46-12.96 6.69-1.48-1.17-3.29-1.77-5.18-1.77-4.68 0-8.52 3.81-8.52 8.55 0 1.02.19 2.05.51 2.98C3.01 57.67 0 61.94 0 66.68c0 4.79 2.96 8.97 7.4 10.6-.18.97-.27 2-.27 3.07 0 8.83 7.17 16.03 15.96 16.03 5.19 0 9.95-2.51 12.96-6.69a8.5 8.5 0 0 0 5.23 1.81c4.68 0 8.52-3.81 8.52-8.55 0-1.02-.19-2.05-.51-2.98 4.35-1.58 7.4-5.85 7.4-10.59" style="fill:#fff;stroke:none;stroke-width:2.44799995;stroke-linecap:butt"/><g transform="translate(19.715 -26.534)"><title>Sheet.20685</title><path d="m2.45 90.57 12.64 5.81 12.77-11.25a14.245 14.303-180 0 0 .28-2.83c0-7.9-6.39-14.31-14.26-14.31-4.72 0-9.11 2.32-11.75 6.22L0 85.27Z" style="fill:#f4bd19;stroke:none;stroke-width:2.44799995;stroke-linecap:butt"/></g><g transform="translate(8.793 -1.673)"><title>Sheet.20686</title><path d="M.28 79.14c-.19.93-.28 1.9-.28 2.88 0 7.9 6.43 14.36 14.3 14.36 4.77 0 9.16-2.37 11.85-6.28l2.08-11.06-2.82-5.39-12.68-5.8z" style="fill:#3cbeb1;stroke:none;stroke-width:2.44799995;stroke-linecap:butt"/></g><g transform="translate(8.562 -38.849)"><title>Sheet.20687</title><path d="m.42 94.33 8.65 2.05 1.94-9.9c-1.2-.93-2.63-1.39-4.16-1.39C3.1 85.09 0 88.15 0 91.96c0 .79.14 1.63.42 2.37" style="fill:#e9478c;stroke:none;stroke-width:2.44799995;stroke-linecap:butt"/></g><g transform="translate(1.666 -20.726)"><title>Sheet.20688</title><path d="M6.57 78.3C2.68 79.56 0 83.32 0 87.41c0 4 2.45 7.57 6.16 8.97l12.17-11.06-2.22-4.79Z" style="fill:#2c458f;stroke:none;stroke-width:2.44799995;stroke-linecap:butt"/></g><g transform="translate(37.163 -6.552)"><title>Sheet.20689</title><path d="M0 94.94c1.2.93 2.64 1.44 4.12 1.44 3.75 0 6.85-3.07 6.85-6.88q0-1.26-.42-2.37L1.9 85.09Z" style="fill:#95c63d;stroke:none;stroke-width:2.44799995;stroke-linecap:butt"/></g><g transform="translate(36.376 -17.89)"><title>Sheet.20690</title><path d="m2.55 94.15 9.53 2.23c3.89-1.3 6.57-5.02 6.57-9.11 0-4-2.45-7.53-6.15-8.97L0 89.27Z" style="fill:#176655;stroke:none;stroke-width:2.44799995;stroke-linecap:butt"/></g></g></g></svg>