<svg xmlns="http://www.w3.org/2000/svg" xml:space="preserve" width="56.698" height="56.702" style="font-size:12px;overflow:visible;color-interpolation-filters:sRGB;fill-rule:evenodd;stroke-linecap:square;stroke-miterlimit:3" viewBox="0 0 56.698 56.702"><defs><linearGradient id="a" x1="0" x2="42.04" y1="106.382" y2="106.382" gradientTransform="scale(1.19006 .8403)" gradientUnits="userSpaceOnUse"><stop offset="0" stop-color="#32bedd"/><stop offset="1" stop-color="#50e6ff"/></linearGradient></defs><g transform="translate(-34 -34)"><title>Page-1</title><g transform="translate(34 -34.016)"><title>Elastic SAN.20691</title><title>Sheet.20692</title><g transform="translate(27.358 -23.204)"><title>Sheet.20693</title><path d="m0 119.69.05.02zm0 5 .05.02zm0-20.01.05.02zm0 5 .05.02z" style="fill:none;stroke:none;stroke-width:34;stroke-linecap:butt"/></g><g transform="translate(6.668)"><title>Sheet.20694</title><path d="M50.03 113.61a11.266 11.268-180 0 0-9.76-10.8A14.148 14.15-180 0 0 25.68 89.4a14.482 14.484-180 0 0-13.88 9.32A13.411 13.413-180 0 0 0 111.63a13.613 13.615-180 0 0 14.08 13.08h24.78a11.367 11.369-180 0 0 11.17-11.1" style="fill:url(#a);stroke:none;stroke-width:34;stroke-linecap:butt"/></g><g transform="translate(17.83 -6.023)"><title>Sheet.20695</title><title>Sheet.20696</title><path d="m6.24 124.44-6.13-6.16a.274.274 0 0 1-.054-.384l.054-.056 6.13-6.13a.324.324 0 0 1 .463.025.346.347 0 0 1 .085.196l.002 3.609a.3.3-180 0 0 .29.312c.03.008.06.008.09-.012h7.94a.3.3 0 0 1 .274.328l.006 3.812a.3.3 0 0 1-.302.302l-7.918-.002a.3.3-180 0 0-.302.3l.002 3.64c.06.18-.03.37-.21.43a.33.33 0 0 1-.42-.21" style="fill:#fff;stroke:none;stroke-width:34;stroke-linecap:butt"/><g transform="translate(12.292 -.2)"><title>Sheet.20697</title><path d="m9.06 111.91 6.35 6.35-6.35 6.38a.302.302 0 0 1-.52-.22v-3.61a.33.33-180 0 0-.328-.328L0 120.48v-4.44h8.21a.33.33-180 0 0 .356-.3l.004-3.61a.3.3 0 0 1 .315-.287.26.26 0 0 1 .175.067" style="fill:#fff;stroke:none;stroke-width:34;stroke-linecap:butt"/></g></g><g transform="translate(.054 -11.145)"><title>Sheet.20698</title><path d="M4.4 122.86v-.15a15.632 15.634 0 0 1 1.49-6.19C2.27 115.75 0 114.63 0 113.4v8.49c0 1.09 1.74 2.07 4.58 2.82a16.132 16.135 0 0 1-.18-1.85" style="fill:#005ba1;stroke:none;stroke-width:34;stroke-linecap:butt"/></g><g transform="translate(.054 -19.332)"><title>Sheet.20699</title><path d="M8.49 120.82c1.22-1.34 2.68-2.44 4.26-3.27-7.37.52-12.75 2.13-12.75 4.03 0 1.24 2.27 2.36 5.88 3.13.67-1.41 1.54-2.72 2.61-3.89" style="fill:#198ab3;stroke:none;stroke-width:34;stroke-linecap:butt"/></g><g transform="translate(.054 -25.12)"><title>Sheet.20700</title><path d="M35.83 112.58v-.22a1.3 1.3 0 0 1-.02.22zm-18.97 9.27c.97-2.06 2.36-3.86 4.03-5.33-.97.04-1.96.06-2.98.06-9.89 0-17.91-1.89-17.91-4.22v8.5c0 1.71 4.35 3.19 10.59 3.85a15.622 15.625 0 0 1 6.27-2.86" style="fill:#0078d4;stroke:none;stroke-width:34;stroke-linecap:butt"/></g><g transform="translate(.054 -33.25)"><title>Sheet.20701</title><path d="M20.89 124.65a16.743 16.746 0 0 1 11.4-4.22l.47-.01c1.04 0 2.06.1 3.05.29a1 1-180 0 0 .02-.22c0-2.33-8.02-4.22-17.92-4.22-9.89 0-17.91 1.89-17.91 4.22s8.02 4.22 17.91 4.22c1.02 0 2.01-.02 2.98-.06" style="fill:#32bedd;stroke:none;stroke-width:34;stroke-linecap:butt"/></g><g transform="translate(0 -39.758)"><title>Sheet.20702</title><path d="M17.91 116.21c-9.78 0-17.73-1.85-17.89-4.14H0v8.42c0 2.33 8.02 4.22 17.91 4.22 9.69 0 17.58-1.81 17.9-4.07v-8.65c.02 2.33-8 4.22-17.9 4.22" style="fill:#5ea0ef;stroke:none;stroke-width:34;stroke-linecap:butt"/></g><g transform="translate(0 -48.257)"><title>Sheet.20703</title><ellipse cx="17.915" cy="120.491" rx="17.915" ry="4.218" style="fill:#9cebff;stroke:none;stroke-width:34;stroke-linecap:butt"/></g></g></g></svg>