<svg xmlns="http://www.w3.org/2000/svg" xml:space="preserve" width="56.69" height="51.023" style="font-size:12px;overflow:visible;color-interpolation-filters:sRGB;fill-rule:evenodd;stroke-linecap:square;stroke-miterlimit:3" viewBox="0 0 56.69 51.023"><defs><linearGradient id="a" x1="0" x2="47.756" y1="93.561" y2="93.561" gradientTransform="scale(1.18708 .8424)" gradientUnits="userSpaceOnUse"><stop offset="0" stop-color="#0078d4"/><stop offset="1" stop-color="#5ea0ef"/></linearGradient></defs><g transform="translate(-34 -34.002)"><title>Page-1</title><g transform="translate(34 -34.016)"><title>HPC Cache.20674</title><title>Sheet.20675</title><g transform="translate(0 -10.799)"><title>Sheet.20676</title><path d="M56.69 106.44a12.895 12.664-180 0 0-11.05-12.25A16.186 15.896-180 0 0 29.1 78.82a16.598 16.302-180 0 0-15.82 10.75A15.298 15.024-180 0 0 0 104.2a15.55 15.272-180 0 0 15.96 14.84q.72 0 1.41-.06h25.85a2.46 2.416-180 0 0 .68-.1 13.008 12.775-180 0 0 12.79-12.44" style="fill:url(#a);stroke:none;stroke-width:34;stroke-linecap:butt"/></g><g transform="translate(23.15 -2.465)"><title>Sheet.20677</title><path d="M0 117.19a1.89 1.856-180 0 0 1.89 1.85h24.57a1.89 1.856-180 0 0 1.89-1.85V93.06a1.89 1.856-180 0 0-1.89-1.86H1.89A1.89 1.856-180 0 0 0 93.06Z" style="fill:#50e6ff;stroke:none;stroke-width:34;stroke-linecap:butt"/></g><g transform="translate(21.776)"><title>Sheet.20678</title><path d="M0 117.19a1.89 1.856-180 0 0 1.89 1.85H29.2a1.89 1.856-180 0 0 1.89-1.85V90.37a1.89 1.856-180 0 0-1.89-1.86H1.89A1.89 1.856-180 0 0 0 90.37Z" style="fill:#50e6ff;stroke:none;stroke-width:34;stroke-linecap:butt"/></g><g transform="translate(26.435 -21.127)"><title>Sheet.20679</title><path d="M0 118.12a.945.928-180 0 0 .945.928l20.995-.008a.945.928-180 0 0 .945-.928l.005-3.382a.945.928-180 0 0-.945-.928L.94 113.8a.945.928-180 0 0-.945.928z" style="fill:#fff;stroke:none;stroke-width:34;stroke-linecap:butt"/></g><g transform="translate(26.435 -12.648)"><title>Sheet.20680</title><path d="M0 118.12a.945.928-180 0 0 .945.928l20.995-.008a.945.928-180 0 0 .945-.928l.005-3.382a.945.928-180 0 0-.945-.928L.94 113.8a.945.928-180 0 0-.945.928z" style="fill:#fff;fill-opacity:.8;stroke:none;stroke-width:34;stroke-linecap:butt"/></g><g transform="translate(26.435 -4.17)"><title>Sheet.20681</title><path d="M0 118.12a.945.928-180 0 0 .945.928l20.995-.008a.945.928-180 0 0 .945-.928l.005-3.382a.945.928-180 0 0-.945-.928L.94 113.8a.945.928-180 0 0-.945.928z" style="fill:#fff;fill-opacity:.6;stroke:none;stroke-width:34;stroke-linecap:butt"/></g></g></g></svg>