<svg xmlns="http://www.w3.org/2000/svg" xml:space="preserve" width="53.86" height="56.702" style="font-size:12px;overflow:visible;color-interpolation-filters:sRGB;fill-rule:evenodd;stroke-linecap:square;stroke-miterlimit:3" viewBox="0 0 53.86 56.702"><defs><linearGradient id="a" x1="0" x2="55.263" y1="66.614" y2="66.614" gradientTransform="scale(.97461 1.02605)" gradientUnits="userSpaceOnUse"><stop offset="0" stop-color="#0078d4"/><stop offset=".82" stop-color="#5ea0ef"/></linearGradient></defs><g transform="translate(-34.174 -34.175)"><title>Page-1</title><g transform="translate(34.174 -34.174)"><title>Import Export Job.20670</title><title>g15</title><title>path11</title><path d="M43.49 83.01a15.27 15.354-180 0 0-15.83-14.65 15.667 15.754-180 0 0-14.97 10.26A14.442 14.522-180 0 0 0 92.57a14.674 14.755-180 0 0 15.17 14.16h9.71v8.76a.43.433 0 0 1-.43.433l-4.87-.003a.43.433-180 0 0-.298.733l8.178 8.227a.63.633-180 0 0 .861 0l8.179-8.23a.43.433-180 0 0-.298-.733l-4.902.003a.397.4 0 0 1-.397-.433l-.003-8.827h10.14a2.12 2.132-180 0 0 .66 0A12.222 12.29-180 0 0 53.86 94.8a12.09 12.157-180 0 0-10.37-11.79" style="fill:url(#a);stroke:none;stroke-width:34.17419815;stroke-linecap:butt"/><g transform="translate(13.162 -18.39)"><title>path13</title><path d="m.09 112.66 8.18-8.19a.563.566 0 0 1 .861 0l8.179 8.19a.43.433 0 0 1-.232.733l-4.938-.003a.43.433-180 0 0-.43.433v11.227H5.72v-11.22a.43.433-180 0 0-.43-.433l-4.77-.007a.43.433 0 0 1-.43-.733z" style="fill:#fff;stroke:none;stroke-width:34.17419815;stroke-linecap:butt"/></g></g></g></svg>