<svg xmlns="http://www.w3.org/2000/svg" xml:space="preserve" width="56.693" height="53.86" style="font-size:12px;overflow:visible;color-interpolation-filters:sRGB;fill-rule:evenodd;stroke-linecap:square;stroke-miterlimit:3" viewBox="0 0 56.693 53.86"><defs><linearGradient id="a" x1="0" x2="42.787" y1="70.718" y2="70.718" gradientTransform="scale(.93136 1.0737)" gradientUnits="userSpaceOnUse"><stop offset="0" stop-color="#005ba1"/><stop offset=".07" stop-color="#0060a9"/><stop offset=".36" stop-color="#0071c8"/><stop offset=".52" stop-color="#0078d4"/><stop offset=".64" stop-color="#0074cd"/><stop offset=".82" stop-color="#006abb"/><stop offset="1" stop-color="#005ba1"/></linearGradient><linearGradient id="b" x1="0" x2="32.255" y1="111.894" y2="111.894" gradientTransform="scale(1.18276 .84548)" gradientUnits="userSpaceOnUse"><stop offset="0" stop-color="#198ab3"/><stop offset="0" stop-color="#198ab3"/><stop offset=".11" stop-color="#22a5cb"/><stop offset=".23" stop-color="#29bade"/><stop offset=".37" stop-color="#2ec9eb"/><stop offset=".53" stop-color="#31d1f3"/><stop offset=".78" stop-color="#32d4f5"/></linearGradient></defs><g transform="translate(-34 -34)"><title>Page-1</title><g transform="translate(34 -34.016)"><title>Managed Database.20617</title><title>Icon-databases-135</title><g transform="translate(.133 -.707)"><title>Sheet.20619</title><path d="M19.97 83.2C8.99 83.2 0 79.83 0 75.93v38.67c0 3.98 8.76 7.24 19.57 7.27h.3c10.96 0 19.98-3.36 19.98-7.27V75.93c-.04 4-8.92 7.27-19.88 7.27" style="fill:url(#a);stroke:none;stroke-width:34;stroke-linecap:butt"/></g><g transform="translate(0 -39.384)"><title>Sheet.20620</title><path d="M39.95 114.6c0 4.01-8.89 7.27-19.98 7.27C8.89 121.87 0 118.51 0 114.6c0-3.9 9.12-7.2 20.11-7.2 10.98 0 19.97 3.37 19.97 7.3z" style="fill:#eaeaea"/><path d="M39.95 114.6c0 4.01-8.89 7.27-19.98 7.27C8.89 121.87 0 118.51 0 114.6c0-3.9 9.12-7.2 20.11-7.2 10.98 0 19.97 3.37 19.97 7.3" style="stroke:none;stroke-width:34;stroke-linecap:butt"/></g><g transform="translate(4.86 -42.514)"><title>Sheet.20621</title><path d="M30.33 117.26c0 2.56-6.66 4.61-15.22 4.61-8.55 0-15.11-2.18-15.11-4.61 0-2.42 6.82-4.74 15.25-4.74 8.42 0 15.08 2.05 15.08 4.74" style="fill:#50e6ff;stroke:none;stroke-width:34;stroke-linecap:butt"/></g><g transform="translate(8.023 -42.649)"><title>Sheet.20622</title><path d="M12.08 118.34A36.619 37.028-180 0 0 0 120.09a36.253 36.657-180 0 0 12.08 1.78 36.153 36.556-180 0 0 12.06-1.78 36.619 37.028-180 0 0-12.06-1.75" style="fill:#198ab3;stroke:none;stroke-width:34;stroke-linecap:butt"/></g><g transform="translate(18.543)"><title>Sheet.20623</title><path d="M35.79 107.53a9.62 9.728-180 0 0-4.96-2.49 10.786 10.906-180 0 0-11.12-10.43 11.152 11.277-180 0 0-10.66 7.3A10.187 10.3-180 0 0 0 111.78a10.387 10.502-180 0 0 10.72 10.09h18.81a8.689 8.786-180 0 0 8.62-8.44 8.19 8.28-180 0 0-2.5-5.86z" style="fill:url(#b)"/><path d="M35.79 107.53a9.62 9.728-180 0 0-4.96-2.49 10.786 10.906-180 0 0-11.12-10.43 11.152 11.277-180 0 0-10.66 7.3A10.187 10.3-180 0 0 0 111.78a10.387 10.502-180 0 0 10.72 10.09h18.81a8.689 8.786-180 0 0 8.62-8.44 8.19 8.28-180 0 0-2.5-5.86" style="stroke:none;stroke-width:34;stroke-linecap:butt"/></g><g transform="translate(30.128 -4.04)"><title>Sheet.20624</title><path d="M16.05 121.87h-3.13v-11.54c0 .84-.34 1.48-.44 1.88l-3.33 9.66H6.56l-3.33-9.59a15.347 15.518 0 0 1-.43-1.95v11.54H0v-14.23h4.66l2.86 8.44a10.952 11.075 0 0 1 .5 2.02c.17-.77.37-1.48.54-2.05l2.89-8.41h4.6z" style="fill:#fff;stroke:none;stroke-width:34;stroke-linecap:butt"/></g></g></g></svg>