<svg xmlns="http://www.w3.org/2000/svg" xml:space="preserve" width="56.154" height="51.022" style="font-size:12px;overflow:visible;color-interpolation-filters:sRGB;fill-rule:evenodd;stroke-linecap:square;stroke-miterlimit:3" viewBox="0 0 56.154 51.022"><g transform="translate(-5.67 -5.102)"><title>Page-1</title><g transform="translate(5.67 -34.016)"><title>Open Dataset.20603</title><title>Sheet.20604</title><path d="M0 58.05v27.33c0 2.63 6.03 4.76 13.48 4.76h.18c7.36-.04 13.29-2.15 13.29-4.76V58.05Z" style="fill:#0072c6;stroke:none;stroke-width:.75;stroke-linecap:butt"/><g transform="translate(0 -.001)"><title>Sheet.20605</title><path d="M0 58.05v27.26c0 2.67 6.31 4.83 13.86 4.83V58.05Z" style="fill:#fff;fill-opacity:.2;stroke:none;stroke-width:.75;stroke-linecap:butt"/></g><g transform="translate(.112 -27.052)"><title>Sheet.20606</title><path d="M26.85 85.06c0 2.62-6.01 5.08-13.43 5.08C6.01 90.14 0 87.67 0 85.06c0-2.62 6.01-4.75 13.42-4.75 7.42 0 13.43 2.13 13.43 4.75" style="fill:#fff;stroke:none;stroke-width:.75;stroke-linecap:butt"/></g><g transform="translate(2.835 -29.274)"><title>Sheet.20607</title><path d="M21.4 87.22c0 1.62-4.79 2.92-10.7 2.92S0 88.83 0 87.22s4.79-2.92 10.7-2.92 10.7 1.31 10.7 2.92" style="fill:#b8d432;stroke:none;stroke-width:.75;stroke-linecap:butt"/></g><g transform="translate(4.97 -29.274)"><title>Sheet.20608</title><path d="M0 88.97c1.95.71 5.06 1.17 8.57 1.17s6.61-.46 8.56-1.17c-1.95-.72-5.05-1.18-8.56-1.18s-6.62.46-8.57 1.18" style="fill:#7fba00;stroke:none;stroke-width:.75;stroke-linecap:butt"/></g><g transform="translate(9.097 -32.746)"><title>Sheet.20609</title><ellipse cx="4.38" cy="85.899" rx="4.38" ry="4.243" style="fill:#3999c6;stroke:none;stroke-width:.75;stroke-linecap:butt"/></g><g transform="translate(18.082 -42.538)"><title>Sheet.20610</title><ellipse cx="4.38" cy="85.899" rx="4.38" ry="4.243" style="fill:#3999c6;stroke:none;stroke-width:.75;stroke-linecap:butt"/></g><g transform="translate(30.436 -42.538)"><title>Sheet.20611</title><ellipse cx="4.38" cy="85.899" rx="4.38" ry="4.243" style="fill:#3999c6;stroke:none;stroke-width:.75;stroke-linecap:butt"/></g><g transform="translate(38.298 -32.746)"><title>Sheet.20612</title><ellipse cx="4.38" cy="85.899" rx="4.38" ry="4.243" style="fill:#3999c6;stroke:none;stroke-width:.75;stroke-linecap:butt"/></g><g transform="translate(28.663 -1.088)"><title>Sheet.20613</title><path d="m27.09 87.1-8.56-15.25v-6.18h.15c1.03 0 1.86-.85 1.86-1.91 0-1.05-.83-1.9-1.86-1.9H9.35c-1.03 0-1.86.85-1.86 1.9 0 1.06.83 1.91 1.86 1.91h.15v6.18L.94 87.1C0 88.77.77 90.14 2.65 90.14h22.74c1.87 0 2.64-1.37 1.7-3.04" style="fill:#59b4d9;stroke:none;stroke-width:.75;stroke-linecap:butt"/></g><g transform="translate(33.12 -4.402)"><title>Sheet.20614</title><path d="M3.53 83.85 0 90.14h19.12l-3.54-6.29z" style="fill:#b8d432;stroke:none;stroke-width:.75;stroke-linecap:butt"/></g><g transform="translate(44.428 -5.899)"><title>Sheet.20615</title><ellipse cx=".848" cy="89.27" rx=".848" ry=".871" style="fill:#7fba00;stroke:none;stroke-width:.75;stroke-linecap:butt"/></g><g transform="translate(28.663 -1.088)"><title>Sheet.20616</title><path d="M.94 87.1 9.5 71.85v-6.18h-.15c-1.03 0-1.86-.85-1.86-1.91 0-1.05.83-1.9 1.86-1.9h4.02v9.94L8.86 90.14H2.65C.77 90.14 0 88.77.94 87.1" style="fill:#fff;fill-opacity:.25;stroke:none;stroke-width:.75;stroke-linecap:butt"/></g></g></g></svg>