<svg xmlns="http://www.w3.org/2000/svg" xml:space="preserve" width="56.692" height="34.342" style="font-size:12px;overflow:visible;color-interpolation-filters:sRGB;fill-rule:evenodd;stroke-linecap:square;stroke-miterlimit:3" viewBox="0 0 56.692 34.342"><defs><linearGradient id="a" x1="-2.286" x2="9.991" y1="92.1" y2="92.1" gradientTransform="scale(1.01544 .9848)" gradientUnits="userSpaceOnUse"><stop offset="0" stop-color="#29bade"/><stop offset="1" stop-color="#50e6ff"/></linearGradient><linearGradient id="b" x1="-.001" x2="31.416" y1="99.69" y2="99.69" gradientTransform="scale(1.29232 .7738)" gradientUnits="userSpaceOnUse"><stop offset=".04" stop-color="#32bedd"/><stop offset=".495" stop-color="#50e6ff"/><stop offset=".92" stop-color="#c3f1ff"/></linearGradient><linearGradient id="c" x1="0" x2="25.411" y1="93.081" y2="93.081" gradientTransform="scale(1.168 .85617)" gradientUnits="userSpaceOnUse"><stop offset=".245" stop-color="#0078d4"/><stop offset=".6" stop-color="#2e8ce1"/><stop offset=".935" stop-color="#589eed"/></linearGradient><linearGradient id="d" x1="0" x2="26.036" y1="81.28" y2="81.28" gradientTransform="scale(1.05783 .94533)" gradientUnits="userSpaceOnUse"><stop offset="0" stop-color="#005ba1"/><stop offset=".4" stop-color="#0078d4"/><stop offset=".855" stop-color="#5ea0ef"/></linearGradient></defs><g transform="translate(-33.093 -33.092)"><title>Page-1</title><g transform="translate(33.094 -34.016)"><title>Purview Account.20598</title><g transform="translate(24.355 -11.979)"><title>path4</title><path d="M8.95 95.65a5.109 4.955 0 0 1-5.1-4.95 6.233 6.045-180 1 0 6.17 4.84 5.16 5.004 0 0 1-1.07.11" style="fill:url(#a);stroke:none;stroke-width:33.09360123;stroke-linecap:butt"/></g><title>path6</title><path d="M40.51 91.1a15.91 15.43-180 0 0-2.07-6.19 10.136 9.83 0 0 1-10.1 9.23c-.24 0-.47-.05-.7-.07a21.214 20.574 0 0 1-14.36-5.68 27.479 26.65 0 0 1-7.19-11.25 64.403 62.462-180 0 0-5.17 5.11 2.863 2.777-180 0 0 0 4.08A53.19 51.586-180 0 0 13.1 96.74a27.718 26.882-180 0 0 15.66 4.71 22.678 21.995-180 0 0 10.45-2.41c.2-.09.38-.21.58-.31a21.815 21.158-180 0 0 .72-7.63" style="fill:url(#b);stroke:none;stroke-width:33.09360123;stroke-linecap:butt"/><g transform="translate(8.663 -12.586)"><title>path8</title><path d="M10.73 101.45a10.007 9.705 0 0 1 1.86-11.63 20.203 19.594 0 0 1 10.22-7.03 24.93 24.179 0 0 1 6.87-1.05 26.386 25.59-180 0 0-5.85-1.71 25.129 24.371-180 0 0-16.08 2.58A44.966 43.61-180 0 0 0 87.55a24.682 23.937-180 0 0 6.61 11.04 18.826 18.259-180 0 0 4.12 2.86" style="fill:url(#c);stroke:none;stroke-width:33.09360123;stroke-linecap:butt"/></g><g transform="translate(29.15 -4.662)"><title>path10</title><path d="M26.69 87.05a54.176 52.543-180 0 0-10.57-9.41 23.431 22.725-180 0 0-12.57.06A18.03 17.486-180 0 0 0 79.17a10.108 9.803 0 0 1 4.92 1.64 1.427 1.384 0 0 1 .37.16 21.141 20.504 0 0 1 9.11 13.88 24.03 23.305 0 0 1-.11 6.6 53.392 51.782-180 0 0 12.39-10.56 2.715 2.633-180 0 0 .01-3.84" style="fill:url(#d);stroke:none;stroke-width:33.09360123;stroke-linecap:butt"/></g></g></g></svg>