<svg xmlns="http://www.w3.org/2000/svg" xml:space="preserve" width="56.69" height="28.347" style="font-size:12px;overflow:visible;color-interpolation-filters:sRGB;fill-rule:evenodd;stroke-linecap:square;stroke-miterlimit:3" viewBox="0 0 56.69 28.347"><g transform="translate(-12.24 -12.238)"><title>Page-1</title><g transform="translate(12.24 -34.016)"><title>SAP HANA on Azure.20592</title><title> Artboard 5</title><g transform="translate(0 -.006)"><title>Sheet.20594</title><path d="M0 74.6h28.65l28.04-28.34H0Z" style="fill:#0072c6;stroke:none;stroke-width:12.23999977;stroke-linecap:butt"/></g><g transform="translate(1.332 -5.608)"><title>Sheet.20595</title><path d="M31.39 57.76h-5.33v12.67L21.4 57.75h-4.62L12.8 68.36c-.42-2.67-3.18-3.6-5.36-4.29-1.44-.46-2.96-1.14-2.95-1.89.02-.61.82-1.18 2.42-1.1a8.714 8.712 0 0 1 3.9 1.05l1.85-3.22a14.388 14.385-180 0 0-6.04-1.43h-.01a7.335 7.333-180 0 0-5.33 1.94A4.495 4.494-180 0 0 0 62.53a4.178 4.177-180 0 0 1.83 3.72c1.11.75 2.34 1.31 3.63 1.66 1.47.46 2.68.86 2.67 1.71a1.24 1.24 0 0 1-.35.83 2.353 2.352 0 0 1-1.72.54 7.362 7.36 0 0 1-4.41-1.26L0 73a12.304 12.301-180 0 0 6.04 1.6h.27a7.277 7.275-180 0 0 4.59-1.54c.07-.05.13-.11.2-.16l-.54 1.42h4.84l.82-2.47a8.802 8.8-180 0 0 2.84.45 8.936 8.934-180 0 0 2.78-.42l.79 2.44h7.89V69.2h1.73c4.16 0 6.62-2.12 6.62-5.67 0-3.96-2.39-5.77-7.48-5.77M19.07 68.6a4.8 4.8 0 0 1-1.71-.3l1.69-5.33h.03l1.66 5.35a5.043 5.042 0 0 1-1.67.28m12.63-3.06h-1.17v-4.29h1.17c1.57 0 2.82.52 2.82 2.12 0 1.65-1.25 2.17-2.82 2.17" style="fill:#fff"/><path d="M31.39 57.76h-5.33v12.67L21.4 57.75h-4.62L12.8 68.36c-.42-2.67-3.18-3.6-5.36-4.29-1.44-.46-2.96-1.14-2.95-1.89.02-.61.82-1.18 2.42-1.1a8.714 8.712 0 0 1 3.9 1.05l1.85-3.22a14.388 14.385-180 0 0-6.04-1.43h-.01a7.335 7.333-180 0 0-5.33 1.94A4.495 4.494-180 0 0 0 62.53a4.178 4.177-180 0 0 1.83 3.72c1.11.75 2.34 1.31 3.63 1.66 1.47.46 2.68.86 2.67 1.71a1.24 1.24 0 0 1-.35.83 2.353 2.352 0 0 1-1.72.54 7.362 7.36 0 0 1-4.41-1.26L0 73a12.304 12.301-180 0 0 6.04 1.6h.27a7.277 7.275-180 0 0 4.59-1.54c.07-.05.13-.11.2-.16l-.54 1.42h4.84l.82-2.47a8.802 8.8-180 0 0 2.84.45 8.936 8.934-180 0 0 2.78-.42l.79 2.44h7.89V69.2h1.73c4.16 0 6.62-2.12 6.62-5.67 0-3.96-2.39-5.77-7.48-5.77M19.07 68.6a4.8 4.8 0 0 1-1.71-.3l1.69-5.33h.03l1.66 5.35a5.043 5.042 0 0 1-1.67.28m12.63-3.06h-1.17v-4.29h1.17c1.57 0 2.82.52 2.82 2.12 0 1.65-1.25 2.17-2.82 2.17" style="stroke:none;stroke-width:12.23999977;stroke-linecap:butt"/></g><g transform="translate(34.81)"><title>Sheet.20596</title><path d="M2 70.91c.93 0 1.7.76 1.7 1.7 0 .93-.77 1.7-1.7 1.7-.94 0-1.7-.77-1.7-1.7 0-.94.76-1.7 1.7-1.7m0-.3a1.996 1.996-180 1 0 0 3.99 1.996 1.996-180 0 0 0-3.99" style="fill:#0072c6;stroke:none;stroke-width:12.23999977;stroke-linecap:butt"/></g><g transform="translate(36.184 -.95)"><title>Sheet.20597</title><path d="M.99 73.68a.543.543-180 0 0 .547-.54l-.007-.04c0-.41-.24-.59-.73-.59H0v2.09h.32v-.9h.36l.55.9h.36Zm-.67-.25v-.65h.43c.21 0 .45.05.45.3 0 .33-.24.35-.51.35z" style="fill:#0072c6;stroke:none;stroke-width:12.23999977;stroke-linecap:butt"/></g></g></g></svg>