<svg xmlns="http://www.w3.org/2000/svg" xmlns:xlink="http://www.w3.org/1999/xlink" xml:space="preserve" width="56.702" height="51.025" style="font-size:12px;overflow:visible;color-interpolation-filters:sRGB;fill-rule:evenodd;stroke-linecap:square;stroke-miterlimit:3" viewBox="0 0 56.702 51.025"><defs><linearGradient id="a" x1="0" x2="1" y1="0" y2="0" gradientTransform="rotate(90 .5 .5)"><stop offset="0" stop-color="#005ba1"/><stop offset=".26" stop-color="#00589d"/><stop offset=".53" stop-color="#004f90"/><stop offset=".8" stop-color="#003f7c"/><stop offset="1" stop-color="#003067"/></linearGradient><linearGradient xlink:href="#a" id="b" x1="0" x2="14.044" y1="191.843" y2="191.843" gradientTransform="scale(1.72956 .57818)" gradientUnits="userSpaceOnUse"/><linearGradient xlink:href="#a" id="c" x1="0" x2="7.633" y1="198.395" y2="198.395" gradientTransform="scale(1.73074 .57779)" gradientUnits="userSpaceOnUse"/><linearGradient xlink:href="#a" id="d" x1="0" x2="7.633" y1="198.395" y2="198.395" gradientTransform="scale(1.73074 .57779)" gradientUnits="userSpaceOnUse"/></defs><g transform="translate(-34 -34)"><title>Page-1</title><g transform="translate(34.005 -34.016)"><title>Service Bus Topic.20538</title><title>Icon-integration-214</title><g transform="translate(.035 -17.2)"><title>path4</title><path d="M24.32 102.8h-.03v-.05h-.05l-12.5.01-11.68-.01H0v16.29h24.29V102.8Z" style="fill:#50e6ff;stroke:none;stroke-width:28.24060059;stroke-linecap:butt"/></g><g transform="translate(.035 -17.2)"><title>path6</title><path d="M0 102.8v16.24l12.16-8.12z" style="fill:#32bedd;stroke:none;stroke-width:28.24060059;stroke-linecap:butt"/></g><g transform="translate(12.195 -17.2)"><title>path8</title><path d="M12.13 102.8 0 110.92l12.13 8.12z" style="fill:#198ab3;stroke:none;stroke-width:28.24060059;stroke-linecap:butt"/></g><g transform="translate(.035 -17.201)"><title>path10</title><path d="M12.13 110.92 0 119.01v.03h24.29v-.03z" style="fill:url(#b);stroke:none;stroke-width:28.24060059;stroke-linecap:butt"/></g><g transform="translate(0 -38.015)"><title>g16</title><title>path12</title><path d="M1.9 106.03h4.3v12.03a.967.977 0 0 1-.967.977l-4.263.003a.967.977 0 0 1-.967-.977L0 107.95a1.9 1.921 0 0 1 1.9-1.92" style="fill:#999;stroke:none;stroke-width:34;stroke-linecap:butt"/><title>path14</title><path d="M1.9 106.03h4.3v12.03a.967.977 0 0 1-.967.977l-4.263.003a.967.977 0 0 1-.967-.977L0 107.95a1.9 1.921 0 0 1 1.9-1.92" style="fill:#999;fill-opacity:.5;stroke:none;stroke-width:34;stroke-linecap:butt"/></g><g transform="translate(50.49 -38.015)"><title>g22</title><title>path18</title><path d="M0 106.03h4.3a1.9 1.921 0 0 1 1.9 1.92v10.11a.967.977 0 0 1-.967.977l-4.303.003a.967.977 0 0 1-.934-.977z" style="fill:#999;stroke:none;stroke-width:34;stroke-linecap:butt"/><title>path20</title><path d="M0 106.03h4.3a1.9 1.921 0 0 1 1.9 1.92v10.11a.967.977 0 0 1-.967.977l-4.303.003a.967.977 0 0 1-.934-.977z" style="fill:#999;fill-opacity:.5;stroke:none;stroke-width:34;stroke-linecap:butt"/></g><g transform="translate(0 -44.89)"><title>path24</title><path d="M56.69 114.83v4.21H0v-4.21a1.9 1.921 0 0 1 1.9-1.92h52.93a1.9 1.921 0 0 1 1.86 1.92" style="fill:#949494;stroke:none;stroke-width:34;stroke-linecap:butt"/></g><title>g30</title><title>path26</title><path d="M.97 105.93h4.3a.967.977 0 0 1 .967.977l.003 12.133H1.9a1.9 1.921 0 0 1-1.9-1.92v-10.11a.967.977 0 0 1 .967-1.078z" style="fill:#999;stroke:none;stroke-width:34;stroke-linecap:butt"/><title>path28</title><path d="M.97 105.93h4.3a.967.977 0 0 1 .967.977l.003 12.133H1.9a1.9 1.921 0 0 1-1.9-1.92v-10.11a.967.977 0 0 1 .967-1.078z" style="fill:#999;fill-opacity:.5;stroke:none;stroke-width:34;stroke-linecap:butt"/><g transform="translate(50.49 -.101)"><title>g36</title><title>path32</title><path d="M.93 106.03h4.31a.967.977 0 0 1 .967.977L6.2 117.12a1.9 1.921 0 0 1-1.9 1.92H0v-11.93a.967.977 0 0 1 .934-1.078z" style="fill:#999;stroke:none;stroke-width:34;stroke-linecap:butt"/><title>path34</title><path d="M.93 106.03h4.31a.967.977 0 0 1 .967.977L6.2 117.12a1.9 1.921 0 0 1-1.9 1.92H0v-11.93a.967.977 0 0 1 .934-1.078z" style="fill:#999;fill-opacity:.5;stroke:none;stroke-width:34;stroke-linecap:butt"/></g><title>path38</title><path d="M0 117.12v-4.21h56.69v4.21a1.9 1.921 0 0 1-1.9 1.92H1.9a1.9 1.921 0 0 1-1.9-1.92" style="fill:#949494;stroke:none;stroke-width:34;stroke-linecap:butt"/><g transform="translate(34.745 -30.337)"><title>path4-9</title><path d="M13.22 110.21h-.01v-.03h-.03l-6.8.01-6.35-.01H0v8.86h13.21v-8.83z" style="fill:#50e6ff;stroke:none;stroke-width:15.35330009;stroke-linecap:butt"/></g><g transform="translate(34.745 -30.337)"><title>path6-0</title><path d="M0 110.21v8.83l6.61-4.41z" style="fill:#32bedd;stroke:none;stroke-width:15.35330009;stroke-linecap:butt"/></g><g transform="translate(41.356 -30.337)"><title>path8-3</title><path d="M6.6 110.21 0 114.63l6.6 4.41z" style="fill:#198ab3;stroke:none;stroke-width:15.35330009;stroke-linecap:butt"/></g><g transform="translate(34.745 -30.337)"><title>path10-6</title><path d="M6.6 114.63 0 119.02v.02h13.21v-.02z" style="fill:url(#c);stroke:none;stroke-width:15.35330009;stroke-linecap:butt"/></g><g transform="translate(24.39 -14.814)"><title>path6-8</title><path d="m0 106.5 2.2-2.23 1.63 1.65-2.2 2.22zm3.19-3.23 2.2-2.22 1.63 1.64-2.2 2.23zm4.82-1.59-1.63-1.63 2.18-2.21 1.64 1.64zm-1.63 15.15 1.63-1.65 2.19 2.21-1.64 1.65zm-.99-1.01-2.2-2.22 1.63-1.64 2.21 2.22zM2.2 112.6 0 110.37l1.63-1.64 2.19 2.22z" style="fill:#b8d432;stroke:none;stroke-width:10.39529991;stroke-linecap:butt"/></g><g transform="translate(34.708 -11.958)"><title>path4-9-1</title><path d="M13.22 110.21h-.01v-.03h-.03l-6.8.01-6.35-.01H0v8.86h13.21v-8.83z" style="fill:#50e6ff;stroke:none;stroke-width:15.35330009;stroke-linecap:butt"/></g><g transform="translate(34.708 -11.958)"><title>path6-0-9</title><path d="M0 110.21v8.83l6.61-4.41z" style="fill:#32bedd;stroke:none;stroke-width:15.35330009;stroke-linecap:butt"/></g><g transform="translate(41.319 -11.958)"><title>path8-3-6</title><path d="M6.6 110.21 0 114.63l6.6 4.41z" style="fill:#198ab3;stroke:none;stroke-width:15.35330009;stroke-linecap:butt"/></g><g transform="translate(34.708 -11.958)"><title>path10-6-9</title><path d="M6.6 114.63 0 119.02v.02h13.21v-.02z" style="fill:url(#d);stroke:none;stroke-width:15.35330009;stroke-linecap:butt"/></g></g></g></svg>