<svg xmlns="http://www.w3.org/2000/svg" xml:space="preserve" width="56.702" height="51.025" style="font-size:12px;overflow:visible;color-interpolation-filters:sRGB;fill-rule:evenodd;stroke-linecap:square;stroke-miterlimit:3" viewBox="0 0 56.702 51.025"><defs><linearGradient id="a" x1="0" x2="16.905" y1="189.067" y2="189.067" gradientTransform="scale(1.73028 .57794)" gradientUnits="userSpaceOnUse"><stop offset="0" stop-color="#005ba1"/><stop offset=".26" stop-color="#00589d"/><stop offset=".53" stop-color="#004f90"/><stop offset=".8" stop-color="#003f7c"/><stop offset="1" stop-color="#003067"/></linearGradient></defs><g transform="translate(-34 -34)"><title>Page-1</title><g transform="translate(34.005 -34.016)"><title>Service Bus.20518</title><title>Icon-integration-214</title><g transform="translate(13.706 -11.357)"><title>Sheet.20520</title><path d="M29.28 99.49h-.03v-.06h-.07L14.64 89.42.07 99.43H0v19.61h29.25V99.49Z" style="fill:#50e6ff;stroke:none;stroke-width:34;stroke-linecap:butt"/></g><g transform="translate(13.706 -11.357)"><title>Sheet.20521</title><path d="M0 99.49v19.55l14.64-9.77z" style="fill:#32bedd;stroke:none;stroke-width:34;stroke-linecap:butt"/></g><g transform="translate(28.346 -11.357)"><title>Sheet.20522</title><path d="M14.61 99.49 0 109.27l14.61 9.77z" style="fill:#198ab3;stroke:none;stroke-width:34;stroke-linecap:butt"/></g><g transform="translate(13.706 -11.357)"><title>Sheet.20523</title><path d="M14.61 109.27 0 119.01v.03h29.25v-.03z" style="fill:url(#a);stroke:none;stroke-width:34;stroke-linecap:butt"/></g><g transform="translate(0 -38.015)"><title>Sheet.20524</title><title>Sheet.20525</title><path d="M1.9 106.03h4.3v12.03a.967.977 0 0 1-.967.977l-4.263.003a.967.977 0 0 1-.967-.977L0 107.95a1.9 1.921 0 0 1 1.9-1.92" style="fill:#999;stroke:none;stroke-width:34;stroke-linecap:butt"/><title>Sheet.20526</title><path d="M1.9 106.03h4.3v12.03a.967.977 0 0 1-.967.977l-4.263.003a.967.977 0 0 1-.967-.977L0 107.95a1.9 1.921 0 0 1 1.9-1.92" style="fill:#999;fill-opacity:.5;stroke:none;stroke-width:34;stroke-linecap:butt"/></g><g transform="translate(50.49 -38.015)"><title>Sheet.20527</title><title>Sheet.20528</title><path d="M0 106.03h4.3a1.9 1.921 0 0 1 1.9 1.92v10.11a.967.977 0 0 1-.967.977l-4.303.003a.967.977 0 0 1-.934-.977z" style="fill:#999;stroke:none;stroke-width:34;stroke-linecap:butt"/><title>Sheet.20529</title><path d="M0 106.03h4.3a1.9 1.921 0 0 1 1.9 1.92v10.11a.967.977 0 0 1-.967.977l-4.303.003a.967.977 0 0 1-.934-.977z" style="fill:#999;fill-opacity:.5;stroke:none;stroke-width:34;stroke-linecap:butt"/></g><g transform="translate(0 -44.89)"><title>Sheet.20530</title><path d="M56.69 114.83v4.21H0v-4.21a1.9 1.921 0 0 1 1.9-1.92h52.93a1.9 1.921 0 0 1 1.86 1.92" style="fill:#949494;stroke:none;stroke-width:34;stroke-linecap:butt"/></g><title>Sheet.20531</title><title>Sheet.20532</title><path d="M.97 105.93h4.3a.967.977 0 0 1 .967.977l.003 12.133H1.9a1.9 1.921 0 0 1-1.9-1.92v-10.11a.967.977 0 0 1 .967-1.078z" style="fill:#999;stroke:none;stroke-width:34;stroke-linecap:butt"/><title>Sheet.20533</title><path d="M.97 105.93h4.3a.967.977 0 0 1 .967.977l.003 12.133H1.9a1.9 1.921 0 0 1-1.9-1.92v-10.11a.967.977 0 0 1 .967-1.078z" style="fill:#999;fill-opacity:.5;stroke:none;stroke-width:34;stroke-linecap:butt"/><g transform="translate(50.49 -.101)"><title>Sheet.20534</title><title>Sheet.20535</title><path d="M.93 106.03h4.31a.967.977 0 0 1 .967.977L6.2 117.12a1.9 1.921 0 0 1-1.9 1.92H0v-11.93a.967.977 0 0 1 .934-1.078z" style="fill:#999;stroke:none;stroke-width:34;stroke-linecap:butt"/><title>Sheet.20536</title><path d="M.93 106.03h4.31a.967.977 0 0 1 .967.977L6.2 117.12a1.9 1.921 0 0 1-1.9 1.92H0v-11.93a.967.977 0 0 1 .934-1.078z" style="fill:#999;fill-opacity:.5;stroke:none;stroke-width:34;stroke-linecap:butt"/></g><title>Sheet.20537</title><path d="M0 117.12v-4.21h56.69v4.21a1.9 1.921 0 0 1-1.9 1.92H1.9a1.9 1.921 0 0 1-1.9-1.92" style="fill:#949494;stroke:none;stroke-width:34;stroke-linecap:butt"/></g></g></svg>