<svg xmlns="http://www.w3.org/2000/svg" xml:space="preserve" width="56.693" height="56.693" style="font-size:12px;overflow:visible;color-interpolation-filters:sRGB;fill-rule:evenodd;stroke-linecap:square;stroke-miterlimit:3" viewBox="0 0 56.693 56.693"><defs><linearGradient id="a" x1="0" x2="42.734" y1="31.131" y2="31.131" gradientTransform="scale(.76638 1.30483)" gradientUnits="userSpaceOnUse"><stop offset="0" stop-color="#949494"/><stop offset=".53" stop-color="#a2a2a2"/><stop offset="1" stop-color="#b3b3b3"/></linearGradient><linearGradient id="b" x1="0" x2="21.543" y1="74.835" y2="74.835" gradientUnits="userSpaceOnUse"><stop offset="0" stop-color="#5e9624"/><stop offset=".255" stop-color="#619c25"/><stop offset=".51" stop-color="#76bc2d"/><stop offset=".91" stop-color="#86d633"/><stop offset="1" stop-color="#86d633"/></linearGradient></defs><g transform="translate(-5.67 -5.67)"><title>Page-1</title><g transform="translate(5.67 -34.016)"><title>Shared Integration Runtime.20497</title><title>Sheet.20498</title><path d="M0 39.685h56.693v56.693H0z" style="fill:none;stroke:none;stroke-width:.47999999;stroke-linecap:butt"/><g transform="translate(11.972 -.934)"><title>Sheet.20499</title><title>Sheet.20500</title><path d="M0 42.52a1.9 1.9 0 0 1 1.9-1.9h29.01a1.866 1.866 0 0 1 1.84 1.9v51.96a1.9 1.9 0 0 1-1.9 1.9H1.9a1.934 1.934 0 0 1-1.9-1.9Z" style="fill:url(#a);stroke:none;stroke-width:.47999999;stroke-linecap:butt"/><g transform="translate(4.402 -32.648)"><title>Sheet.20501</title><path d="M20.01 96.38H3.57A3.57 3.57 0 0 1 0 92.81v-.07a3.57 3.57 0 0 1 3.67-3.47h16.34a3.552 3.552 0 0 1 0 7.1z" style="fill:#003067;stroke:none;stroke-width:.47999999;stroke-linecap:butt"/></g><g transform="translate(4.402 -43.22)"><title>Sheet.20502</title><path d="M20.01 96.38H3.6A3.57 3.57 0 0 1 0 92.84v-.1a3.57 3.57 0 0 1 3.67-3.47h16.34a3.555 3.555 0 0 1 0 7.11" style="fill:#003067;stroke:none;stroke-width:.47999999;stroke-linecap:butt"/></g><g transform="translate(21.81 -44.354)"><title>Sheet.20503</title><circle cx="2.401" cy="93.977" r="2.401" style="fill:#50e6ff;stroke:none;stroke-width:.47999999;stroke-linecap:butt"/></g><g transform="translate(21.81 -33.816)"><title>Sheet.20504</title><circle cx="2.401" cy="93.977" r="2.401" style="fill:#50e6ff;stroke:none;stroke-width:.47999999;stroke-linecap:butt"/></g></g><g transform="translate(35.15 -.994)"><title>Sheet.20505</title><circle cx="10.772" cy="85.606" r="10.772" style="fill:url(#b);stroke:none;stroke-width:.47999999;stroke-linecap:butt"/></g><g transform="translate(37.727 -11.008)"><title>Sheet.20506</title><path d="M0 94.863h2.039v1.515H0z" style="fill:#fff;stroke:none;stroke-width:.47999999;stroke-linecap:butt"/></g><g transform="translate(52.076 -11.008)"><title>Sheet.20507</title><path d="M0 94.863h2.039v1.515H0z" style="fill:#fff;stroke:none;stroke-width:.47999999;stroke-linecap:butt"/></g><g transform="translate(39.747 -7.147)"><title>Sheet.20508</title><path d="M6.69 96.33v-3.21H3.4v-5.93l-1.88.01A1.53 1.53-180 0 0 0 88.74l.04 6.12a1.53 1.53-180 0 0 1.53 1.52h.01z" style="fill:#fff"/><path d="M6.69 96.33v-3.21H3.4v-5.93l-1.88.01A1.53 1.53-180 0 0 0 88.74l.04 6.12a1.53 1.53-180 0 0 1.53 1.52h.01" style="stroke:none;stroke-width:.47999999;stroke-linecap:butt"/></g><g transform="translate(45.504 -7.193)"><title>Sheet.20509</title><path d="M0 87.23v3.57h3.3v5.58l1.77-.01a1.53 1.53-180 0 0 1.52-1.54l-.04-6.12a1.53 1.53-180 0 0-1.53-1.52h-.01Z" style="fill:#fff"/><path d="M0 87.23v3.57h3.3v5.58l1.77-.01a1.53 1.53-180 0 0 1.52-1.54l-.04-6.12a1.53 1.53-180 0 0-1.53-1.52h-.01" style="stroke:none;stroke-width:.47999999;stroke-linecap:butt"/></g><g transform="translate(32.514 -1.716)"><title>Sheet.20510</title><title>Sheet.20511</title><circle cx="11.206" cy="85.172" r="11.206" style="fill:#fff;stroke:none;stroke-width:.47999999;stroke-linecap:butt"/><g transform="translate(1.7 -2.079)"><title>Sheet.20512</title><path d="M9.51 77.75A9.505 9.505 0 1 1 0 87.25a9.505 9.505 0 0 1 9.51-9.5m0-3.41a12.907 12.907-180 1 0 12.9 12.91 12.92 12.92-180 0 0-12.9-12.91" style="fill:#212121;stroke:none;stroke-width:.47999999;stroke-linecap:butt"/></g></g><g transform="translate(35.698 -8.216)"><title>Sheet.20513</title><g transform="translate(0 -3.873)"><title>Sheet.20514</title><path d="M0 94.859h2.045v1.519H0z" style="fill:#76bc2d;stroke:none;stroke-width:.47999999;stroke-linecap:butt"/></g><g transform="translate(14.389 -3.873)"><title>Sheet.20515</title><path d="M0 94.859h2.045v1.519H0z" style="fill:#76bc2d;stroke:none;stroke-width:.47999999;stroke-linecap:butt"/></g><g transform="translate(2.025)"><title>Sheet.20516</title><path d="M6.71 96.33v-3.22H3.4v-5.95l-1.88.02A1.53 1.53-180 0 0 0 88.72l.04 6.13a1.535 1.535-180 0 0 1.53 1.53h.01z" style="fill:#76bc2d"/><path d="M6.71 96.33v-3.22H3.4v-5.95l-1.88.02A1.53 1.53-180 0 0 0 88.72l.04 6.13a1.535 1.535-180 0 0 1.53 1.53h.01" style="stroke:none;stroke-width:.47999999;stroke-linecap:butt"/></g><g transform="translate(7.799 -.05)"><title>Sheet.20517</title><path d="M0 87.21v3.58h3.31v5.59l1.78-.01a1.53 1.53-180 0 0 1.52-1.55l-.04-6.13a1.535 1.535-180 0 0-1.53-1.52h-.01Z" style="fill:#76bc2d"/><path d="M0 87.21v3.58h3.31v5.59l1.78-.01a1.53 1.53-180 0 0 1.52-1.55l-.04-6.13a1.535 1.535-180 0 0-1.53-1.52h-.01" style="stroke:none;stroke-width:.47999999;stroke-linecap:butt"/></g></g></g></g></svg>