<svg xmlns="http://www.w3.org/2000/svg" xml:space="preserve" width="55.752" height="53.801" style="font-size:12px;overflow:visible;color-interpolation-filters:sRGB;fill-rule:evenodd;stroke-linecap:square;stroke-miterlimit:3" viewBox="0 0 55.752 53.801"><g transform="translate(-6.138 -5.414)"><title>Page-1</title><g transform="translate(5.67 -34.016)"><title>Snowflake.20495</title><title>Sheet.20496</title><path d="m8.99 66.33-6.9-4.02C.51 61.4 0 59.42.94 57.89c.95-1.53 2.99-2.03 4.57-1.11l11.66 6.78a3.178 3.178 0 0 1 0 5.54L5.51 75.88c-1.58.92-3.62.42-4.57-1.1-.94-1.53-.43-3.52 1.15-4.43Zm38.71 0 6.91 4.02c1.57.91 2.08 2.9 1.14 4.43-.95 1.52-2.99 2.02-4.57 1.1L39.52 69.1a3.185 3.185 0 0 1 0-5.54l11.66-6.78c1.58-.92 3.62-.42 4.57 1.11.94 1.53.43 3.51-1.14 4.42zm-9.88-15.94 7.05-3.77c1.61-.87 3.64-.3 4.54 1.25.9 1.56.32 3.52-1.29 4.38l-11.91 6.38c-2.2 1.18-4.91-.34-4.96-2.77l-.24-13.16c-.03-1.78 1.43-3.24 3.28-3.27 1.84-.03 3.36 1.39 3.39 3.17zm-18.95 0 .14-7.79c.04-1.78 1.55-3.2 3.4-3.17 1.84.03 3.3 1.49 3.27 3.27l-.24 13.16c-.05 2.43-2.76 3.95-4.96 2.77L8.57 52.25c-1.61-.86-2.18-2.82-1.29-4.38.9-1.55 2.93-2.12 4.54-1.25zm18.95 31.88-.14 7.79c-.03 1.78-1.55 3.2-3.39 3.17-1.85-.02-3.31-1.49-3.28-3.26l.24-13.17c.05-2.43 2.76-3.94 4.96-2.77l11.91 6.38c1.61.86 2.19 2.82 1.29 4.38-.9 1.55-2.93 2.12-4.54 1.26zm-18.95 0-7.05 3.78c-1.61.86-3.64.29-4.54-1.26-.89-1.56-.32-3.52 1.29-4.38l11.91-6.38c2.2-1.17 4.91.34 4.96 2.77l.24 13.17c.03 1.77-1.43 3.24-3.27 3.26-1.85.03-3.36-1.39-3.4-3.17zm3.1-16.85 5.6-5.25h2.61l5.33 5.25v2.6l-5.33 5.24h-2.61l-5.6-5.24zm4.55.75c-.31.3-.31.79 0 1.09l1.66 1.61c.31.3.82.3 1.13 0l1.66-1.61c.31-.3.31-.79 0-1.09l-1.66-1.61c-.31-.3-.82-.3-1.13 0z" style="fill:#21bef2;stroke:none;stroke-width:.75;stroke-linecap:butt"/></g></g></svg>