<svg xmlns="http://www.w3.org/2000/svg" xml:space="preserve" width="42.52" height="56.699" style="font-size:12px;overflow:visible;color-interpolation-filters:sRGB;fill-rule:evenodd;stroke-linecap:square;stroke-miterlimit:3" viewBox="0 0 42.52 56.699"><defs><radialGradient id="b" cx="12.188" cy="162.056" r="17.796" fx="12.188" fy="162.056" gradientTransform="scale(1.3972 .71572)" gradientUnits="userSpaceOnUse"><stop offset="0" stop-color="#f2f2f2"/><stop offset=".58" stop-color="#eee"/><stop offset="1" stop-color="#e6e6e6"/></radialGradient><linearGradient id="a" x1="0" x2="45.627" y1="70.593" y2="70.593" gradientTransform="scale(.93191 1.07306)" gradientUnits="userSpaceOnUse"><stop offset="0" stop-color="#005ba1"/><stop offset=".07" stop-color="#0060a9"/><stop offset=".36" stop-color="#0071c8"/><stop offset=".52" stop-color="#0078d4"/><stop offset=".64" stop-color="#0074cd"/><stop offset=".82" stop-color="#006abb"/><stop offset="1" stop-color="#005ba1"/></linearGradient></defs><g transform="translate(-34 -33.995)"><title>Page-1</title><g transform="translate(34 -34.016)"><title>SQL Database.20331</title><title>Sheet.20332</title><title>Sheet.20333</title><path d="M21.26 83.49C9.52 83.49 0 80.15 0 75.75v41.22c0 4.24 9.35 7.67 20.96 7.74h.3c11.74 0 21.26-3.34 21.26-7.74V75.75c0 4.3-9.52 7.74-21.26 7.74" style="fill:url(#a);stroke:none;stroke-width:34;stroke-linecap:butt"/><g transform="translate(0 -41.22)"><title>Sheet.20334</title><path d="M42.52 116.97c0 4.3-9.52 7.74-21.26 7.74S0 121.37 0 116.97s9.52-7.74 21.26-7.74 21.26 3.34 21.26 7.74" style="fill:#e8e8e8;stroke:none;stroke-width:34;stroke-linecap:butt"/></g><g transform="translate(4.942 -44.654)"><title>Sheet.20335</title><path d="M32.64 119.77c0 2.74-7.33 4.94-16.32 4.94S0 122.51 0 119.77c0-2.73 7.33-4.9 16.32-4.9s16.32 2.2 16.32 4.9" style="fill:#50e6ff;stroke:none;stroke-width:34;stroke-linecap:butt"/></g><g transform="translate(8.358 -44.654)"><title>Sheet.20336</title><path d="M12.9 121.01a38.308 38.518-180 0 0-12.9 1.9 37.876 38.084-180 0 0 12.9 1.8 36.98 37.184-180 0 0 12.9-1.94 39.27 39.485-180 0 0-12.9-1.76" style="fill:#198ab3;stroke:none;stroke-width:34;stroke-linecap:butt"/></g><g transform="translate(5.307 -14.407)"><title>Sheet.20337</title><path d="M28.89 118.77v-11.34H25.9v13.78h8.16v-2.44zM5.21 113.2a6.07 6.103 0 0 1-1.69-1.03 1.46 1.467 0 0 1-.4-1.07 1.128 1.134 0 0 1 .5-1 2.255 2.268 0 0 1 1.39-.4 5.373 5.403 0 0 1 3.31.97v-2.87a8.557 8.604-180 0 0-3.31-.53 5.44 5.47-180 0 0-3.62 1.13A3.582 3.602-180 0 0 0 111.37c0 1.7 1.06 3.03 3.32 4.03a9.552 9.604 0 0 1 2.05 1.2 1.393 1.4 0 0 1 .5 1.07 1.26 1.267 0 0 1-.53 1.04 2.687 2.701 0 0 1-1.49.36 5.506 5.536 0 0 1-3.62-1.4v3.1a7.197 7.237-180 0 0 3.55.8 6.235 6.27-180 0 0 3.91-1.1 3.582 3.602-180 0 0 1.1-3.03 3.483 3.502-180 0 0-.83-2.34 8.026 8.07-180 0 0-2.75-1.9m17.38 5.31a7.761 7.804-180 0 0 1.09-4.21 7.695 7.737-180 0 0-1.09-3.53 6.003 6.036-180 0 0-2.33-2.5 6.633 6.67-180 0 0-3.31-.87 6.998 7.037-180 0 0-3.58.9 6.169 6.203-180 0 0-2.42 2.47 8.159 8.204-180 0 0-.87 3.8 7.496 7.537-180 0 0 .8 3.34 5.837 5.87-180 0 0 2.29 2.46 6.832 6.87-180 0 0 3.31 1l2.86 3.34h4.01l-4.08-3.67a5.937 5.97-180 0 0 3.32-2.53m-3.32-.84a3.118 3.135 0 0 1-2.52 1.17 3.051 3.068 0 0 1-2.52-1.2 5.041 5.069 0 0 1-.96-3.34 5.075 5.102 0 0 1 .96-3.33 3.317 3.335 0 0 1 2.59-1.23 2.886 2.901 0 0 1 2.48 1.23 5.373 5.403 0 0 1 .9 3.33 4.842 4.869 0 0 1-.93 3.37" style="fill:url(#b);stroke:none;stroke-width:34;stroke-linecap:butt"/></g></g></g></svg>