<svg xmlns="http://www.w3.org/2000/svg" xml:space="preserve" width="56.693" height="53.858" style="font-size:12px;overflow:visible;color-interpolation-filters:sRGB;fill-rule:evenodd;stroke-linecap:square;stroke-miterlimit:3" viewBox="0 0 56.693 53.858"><g transform="translate(-5.67 -5.386)"><title>Page-1</title><g transform="translate(5.67 -34.016)"><title>SQL Server Recommendation.20197</title><title>Sheet.20198</title><g transform="translate(0 -3.848)"><title>Sheet.20199</title><path d="M49.13 50.94H22.68l-5.57-7.69H0v50.01h52.91V54.79h-3.78z" style="fill:#b3ecfc;stroke:none;stroke-width:.0190405;stroke-linecap:butt"/></g><g transform="translate(3.776 -3.848)"><title>Sheet.20200</title><path d="M0 54.787h49.135V93.26H0z" style="fill:#00bcf2;stroke:none;stroke-width:.0190405;stroke-linecap:butt"/></g><g transform="translate(3.776 -3.848)"><title>Sheet.20201</title><path d="m0 93.26 34.02-38.47H0Z" style="fill:#66d7f7;stroke:none;stroke-width:.0190405;stroke-linecap:butt"/></g><g transform="translate(26.456)"><title>Sheet.20202</title><path d="M0 54.783h30.237V93.26H0z" style="fill:#fcf37e;stroke:none;stroke-width:.0190405;stroke-linecap:butt"/></g><g transform="translate(30.235 -3.848)"><title>Sheet.20203</title><path d="M7.56 66.33h15.12v3.85H7.56Zm-7.56 0h3.78v3.85H0Zm7.56 7.69h15.12v3.85H7.56Zm-7.56 0h3.78v3.85H0Zm7.56 7.7h15.12v3.84H7.56Zm-7.56 0h3.78v3.84H0Zm7.56 7.7h15.12v3.84H7.56Zm-7.56 0h3.78v3.84H0Z" style="fill:#bfb500;stroke:none;stroke-width:.0190405;stroke-linecap:butt"/></g></g></g></svg>