<svg xmlns="http://www.w3.org/2000/svg" xmlns:xlink="http://www.w3.org/1999/xlink" xml:space="preserve" width="52.004" height="50.509" style="font-size:12px;overflow:visible;color-interpolation-filters:sRGB;fill-rule:evenodd;stroke-linecap:square;stroke-miterlimit:3" viewBox="0 0 52.004 50.509"><defs><linearGradient id="a" x1="0" x2="1" y1="0" y2="0"><stop offset="0" stop-color="#005ba1"/><stop offset=".07" stop-color="#0060a9"/><stop offset=".355" stop-color="#0071c8"/><stop offset=".515" stop-color="#0078d4"/><stop offset=".64" stop-color="#0074cd"/><stop offset=".82" stop-color="#006abb"/><stop offset="1" stop-color="#005ba1"/></linearGradient><linearGradient id="c" x1="0" x2="38.592" y1="77.092" y2="77.092" gradientTransform="scale(1.20517 .82976)" gradientUnits="userSpaceOnUse"><stop offset="0" stop-color="#198ab3"/><stop offset=".095" stop-color="#209ec5"/><stop offset=".24" stop-color="#28b6da"/><stop offset=".395" stop-color="#2ec7e9"/><stop offset=".565" stop-color="#31d1f2"/><stop offset=".775" stop-color="#32d4f5"/></linearGradient><linearGradient xlink:href="#a" id="b" x1="0" x2="12.058" y1="79.01" y2="79.01" gradientTransform="scale(.94872 1.05405)" gradientUnits="userSpaceOnUse"/><linearGradient xlink:href="#a" id="d" x1="0" x2="20.676" y1="70.365" y2="70.365" gradientTransform="scale(.94844 1.05436)" gradientUnits="userSpaceOnUse"/><radialGradient id="e" cx="11.064" cy="125.401" r="15.491" fx="11.064" fy="125.401" gradientTransform="scale(1.42167 .7034)" gradientUnits="userSpaceOnUse"><stop offset="0" stop-color="#f2f2f2"/><stop offset=".58" stop-color="#eee"/><stop offset="1" stop-color="#e6e6e6"/></radialGradient></defs><g transform="translate(-10.948 -10.952)"><title>Page-1</title><g transform="translate(9.453 -34.016)"><title>SQL Database Edge.20417</title><title>layer1</title><g transform="translate(33.684 -36.843)"><title>path40</title><path d="M0 90.55c4.76 1.25 5.97 2.05 10.26 5.44-.03-.05-.07-.1-.11-.16-.2-.31-.41-.61-.63-.89-.08-.1-.16-.22-.25-.32-.19-.23-.4-.44-.61-.65a11.68 11.344-180 0 0-1.02-.93l-.01-.01a11.57 11.237-180 0 0-3.81-1.97L3.64 91c-.29-.08-.59-.15-.89-.22a12.43 12.072-180 0 0-.72-.11c-.19-.03-.37-.06-.56-.08a13.117 12.739-180 0 0-1.34-.05Z" style="fill:#fff;fill-opacity:.4;stroke:none;stroke-width:10.95020008;stroke-linecap:butt"/></g><g transform="translate(33.728 -36.306)"><title>path42</title><path d="M5.72 85.29c-3.16 0-5.72-.9-5.72-2.01v10.7c0 1.1 2.52 2 5.64 2.01h.08c3.16 0 5.72-.9 5.72-2.01v-10.7c-.01 1.11-2.57 2.01-5.72 2.01" style="fill:url(#b);stroke:none;stroke-width:10.95020008;stroke-linecap:butt"/></g><g transform="translate(33.728 -47.002)"><title>path44</title><path d="M11.43 93.98c0 1.11-2.56 2.01-5.72 2.01S0 95.09 0 93.98s2.56-2.01 5.72-2.01 5.72.9 5.72 2.01z" style="fill:#e8e8e8"/><path d="M11.43 93.98c0 1.11-2.56 2.01-5.72 2.01S0 95.09 0 93.98s2.56-2.01 5.72-2.01 5.72.9 5.72 2.01" style="stroke:none;stroke-width:10.95020008;stroke-linecap:butt"/></g><g transform="translate(35.063 -47.897)"><title>path46</title><path d="M8.76 94.71c0 .71-1.96 1.28-4.38 1.28S0 95.42 0 94.71s1.96-1.28 4.39-1.28c2.42 0 4.38.57 4.38 1.28z" style="fill:#50e6ff"/><path d="M8.76 94.71c0 .71-1.96 1.28-4.38 1.28S0 95.42 0 94.71s1.96-1.28 4.39-1.28c2.42 0 4.38.57 4.38 1.28" style="stroke:none;stroke-width:10.95020008;stroke-linecap:butt"/></g><g transform="translate(35.978 -47.892)"><title>path48</title><path d="M3.47 95a10.604 10.298-180 0 0-3.47.49 10.23 9.936-180 0 0 3.47.5 10.23 9.936-180 0 0 3.47-.51A10.61 10.304-180 0 0 3.47 95" style="fill:#198ab3;stroke:none;stroke-width:10.95020008;stroke-linecap:butt"/></g><g transform="translate(6.667 -12.98)"><title>path50</title><path d="M46.51 85.96a10.45 10.149-180 0 0-9.07-9.75c-.07-6.77-6.11-12.24-13.56-12.24a13.515 13.126-180 0 0-12.92 8.55C4.75 73.44 0 78.31 0 84.18c0 6.52 5.86 11.81 13.1 11.81.39 0 .77-.02 1.15-.05h21.21a2.11 2.049-180 0 0 .56-.08c5.84-.23 10.49-4.58 10.49-9.9" style="fill:url(#c);stroke:none;stroke-width:10.95020008;stroke-linecap:butt"/></g><title>path52</title><path d="M52.17 53.38c-1.43-1.82-3.89-2.7-7.01-2.74v3.03c2.19.03 3.78.57 4.54 1.55 2.63 3.35-2.15 14.33-15.9 24.6C20.04 90.1 7.92 91.74 5.29 88.39c-1.49-1.9-.57-6.26 2.99-11.54a11.483 11.152 0 0 1-1.37-3.37C1.83 80.25 0 86.64 2.82 90.23c4.52 5.76 19.24 2.18 32.87-8 13.62-10.18 21-23.09 16.48-28.85" style="fill:#0072c6;stroke:none;stroke-width:10.95020008;stroke-linecap:butt"/><g transform="translate(16.098 -.513)"><title>path54</title><path d="M9.81 77.64C4.39 77.64 0 76.1 0 74.19v18.35c0 1.89 4.32 3.42 9.67 3.45h.14c5.41 0 9.8-1.54 9.8-3.45V74.19c0 1.91-4.39 3.45-9.8 3.45" style="fill:url(#d);stroke:none;stroke-width:10.95020008;stroke-linecap:butt"/></g><g transform="translate(16.098 -18.863)"><title>path56</title><path d="M19.61 92.54c0 1.9-4.39 3.45-9.8 3.45-5.42 0-9.81-1.55-9.81-3.45 0-1.91 4.39-3.45 9.81-3.45 5.41 0 9.8 1.55 9.8 3.45" style="fill:#e8e8e8;stroke:none;stroke-width:10.95020008;stroke-linecap:butt"/></g><g transform="translate(18.388 -20.399)"><title>path58</title><path d="M15.04 93.8c0 1.21-3.37 2.19-7.52 2.19S0 95.01 0 93.8s3.37-2.2 7.52-2.2 7.52.99 7.52 2.2" style="fill:#50e6ff;stroke:none;stroke-width:10.95020008;stroke-linecap:butt"/></g><g transform="translate(19.95 -20.399)"><title>path60</title><path d="M5.96 94.3a18.168 17.645-180 0 0-5.96.83 17.551 17.046-180 0 0 5.96.86 17.554 17.049-180 0 0 5.95-.86 18.18 17.656-180 0 0-5.95-.83" style="fill:#198ab3;stroke:none;stroke-width:10.95020008;stroke-linecap:butt"/></g><g transform="translate(18.48 -6.917)"><title>path62</title><path d="M13.39 93.33v-5.02h-1.43v6.14h3.77v-1.12ZM2.48 90.86a3.104 3.015 0 0 1-.79-.46.663.644 0 0 1-.191-.477.55.533 0 0 1 .237-.451 1.077 1.046 0 0 1 .644-.172 2.496 2.425 0 0 1 1.46.43v-1.28a4.168 4.048-180 0 0-1.53-.24 2.573 2.5-180 0 0-1.68.5A1.673 1.624-180 0 0 0 90.04a2.073 2.013-180 0 0 1.45 1.79 4.226 4.105 0 0 1 .94.53.653.634 0 0 1 .232.484.55.533 0 0 1-.241.453 1.135 1.102 0 0 1-.681.173 2.528 2.455 0 0 1-1.67-.62v1.37a3.433 3.334-180 0 0 1.63.34 2.93 2.845-180 0 0 1.8-.48 1.647 1.6-180 0 0 .66-1.35 1.585 1.54-180 0 0-.38-1.05 3.896 3.783-180 0 0-1.26-.82m7.93 2.36a3.916 3.804-180 0 0 .13-3.51 2.74 2.662-180 0 0-1.08-1.11 3.052 2.964-180 0 0-1.56-.39 3.278 3.183-180 0 0-1.65.4 2.83 2.749-180 0 0-1.13 1.16 3.745 3.637-180 0 0-.4 1.7 3.494 3.393-180 0 0 .37 1.56 2.788 2.707-180 0 0 1.04 1.1 3.056 2.968-180 0 0 1.52.43l1.31 1.43h1.85l-1.83-1.65a2.705 2.627-180 0 0 1.43-1.12m-1.42-.38a1.423 1.382 0 0 1-1.17.53 1.401 1.36 0 0 1-1.16-.54 2.718 2.64 0 0 1 .01-2.89 1.443 1.401 0 0 1 1.18-.54 1.352 1.313 0 0 1 1.15.54 2.477 2.405 0 0 1 .41 1.48 2.268 2.202 0 0 1-.42 1.42" style="fill:url(#e);stroke:none;stroke-width:10.95020008;stroke-linecap:butt"/></g></g></g></svg>