<svg xmlns="http://www.w3.org/2000/svg" xml:space="preserve" width="56.69" height="44.918" style="font-size:12px;overflow:visible;color-interpolation-filters:sRGB;fill-rule:evenodd;stroke-linecap:square;stroke-miterlimit:3" viewBox="0 0 56.69 44.918"><g transform="translate(-12.24 -12.24)"><title>Page-1</title><g transform="translate(12.24 -34.016)"><title>SQL Database Sync.20345</title><title>Sheet.20346</title><title>Sheet.20347</title><path d="M10.89 91.17c-.23 0-.57-.11-.8-.22L2.27 86.5C.91 85.72 0 84.17 0 82.72V54.71c0-1.45.91-3.11 2.27-3.78l7.71-4.45c.79-.44 1.81-.22 2.27.56.45.78.22 1.78-.57 2.22l-7.71 4.45c-.23.11-.57.66-.57 1v28.01c0 .33.34.89.57 1l7.71 4.45c.79.44 1.02 1.44.57 2.22-.23.45-.8.78-1.36.78m34.92-44.91c.22 0 .56.11.79.22l7.83 4.45c1.36.78 2.26 2.33 2.26 3.78v28.01c0 1.45-.9 3.11-2.26 3.78l-7.72 4.45c-.79.44-1.81.22-2.26-.56-.46-.78-.23-1.78.56-2.22l7.71-4.45c.23-.11.57-.67.57-1V54.71c0-.34-.34-.89-.57-1l-7.71-4.45c-.79-.44-1.02-1.44-.56-2.22.34-.45.79-.78 1.36-.78" style="fill:#7a7a7a;stroke:none;stroke-width:12.23999977;stroke-linecap:butt"/><g transform="translate(24.151 -12.339)"><title>Sheet.20348</title><path d="M10.89 66.6H0v20.9c0 2.11 4.76 3.89 10.66 3.89h.11c6.01 0 10.89-1.78 10.89-3.89V66.6Z" style="fill:#fff;stroke:none;stroke-width:12.23999977;stroke-linecap:butt"/></g><g transform="translate(24.151 -12.339)"><title>Sheet.20349</title><path d="M10.89 66.6H0v20.9c0 2.11 4.76 3.89 10.66 3.89h.11c6.01 0 10.89-1.78 10.89-3.89V66.6Z" style="fill:#3999c6;stroke:none;stroke-width:12.23999977;stroke-linecap:butt"/></g><g transform="translate(34.923 -12.339)"><title>Sheet.20350</title><path d="M10.89 87.5V66.71H0v24.68h.11c6.01 0 10.78-1.78 10.78-3.89" style="fill:#5ab4d9;stroke:none;stroke-width:12.23999977;stroke-linecap:butt"/></g><g transform="translate(24.265 -33.238)"><title>Sheet.20351</title><path d="M21.66 87.5c0 2.22-4.88 3.89-10.89 3.89S0 89.72 0 87.5s4.88-3.89 10.89-3.89c6 0 10.77 1.78 10.77 3.89" style="fill:#fff;stroke:none;stroke-width:12.23999977;stroke-linecap:butt"/></g><g transform="translate(26.419 -34.794)"><title>Sheet.20352</title><path d="M17.23 88.84c0 1.44-3.85 2.55-8.61 2.55S0 90.28 0 88.84c0-1.45 3.86-2.56 8.62-2.56s8.61 1.11 8.61 2.56" style="fill:#57a300;stroke:none;stroke-width:12.23999977;stroke-linecap:butt"/></g><g transform="translate(26.419 -35.683)"><title>Sheet.20353</title><path d="M15.42 91.39c1.13-.44 1.81-1 1.81-1.55 0-1.45-3.85-2.56-8.61-2.56S0 88.39 0 89.84c0 .55.68 1.11 1.81 1.55 1.59-.66 4.09-1 6.81-1 2.83 0 5.21.34 6.8 1" style="fill:#b8d432;stroke:none;stroke-width:12.23999977;stroke-linecap:butt"/></g><g transform="translate(10.772 -4.335)"><title>Sheet.20354</title><path d="M10.89 66.6H0v20.9c0 2.11 4.76 3.89 10.66 3.89h.11c6.01 0 10.89-1.78 10.89-3.89V66.6Z" style="fill:#3999c6;stroke:none;stroke-width:12.23999977;stroke-linecap:butt"/></g><g transform="translate(21.543 -4.335)"><title>Sheet.20355</title><path d="M10.89 87.5V66.6H0v24.68c6.01.11 10.89-1.67 10.89-3.78" style="fill:#5ab4d9;stroke:none;stroke-width:12.23999977;stroke-linecap:butt"/></g><g transform="translate(10.658 -25.234)"><title>Sheet.20356</title><path d="M21.77 87.5c0 2.22-4.88 3.89-10.88 3.89C4.88 91.39 0 89.61 0 87.5c0-2.22 4.88-3.89 10.89-3.89 6 0 10.88 1.78 10.88 3.89" style="fill:#fff;stroke:none;stroke-width:12.23999977;stroke-linecap:butt"/></g><g transform="translate(13.04 -26.79)"><title>Sheet.20357</title><path d="M17.23 88.84c0 1.44-3.85 2.55-8.61 2.55S0 90.28 0 88.84c0-1.45 3.86-2.56 8.62-2.56s8.61 1.11 8.61 2.56" style="fill:#57a300;stroke:none;stroke-width:12.23999977;stroke-linecap:butt"/></g><g transform="translate(13.04 -27.79)"><title>Sheet.20358</title><path d="M15.42 91.39c1.13-.44 1.81-1 1.81-1.55 0-1.45-3.85-2.56-8.61-2.56S0 88.39 0 89.84c0 .55.68 1.11 1.81 1.55 1.59-.66 4.09-1 6.81-1s5.21.34 6.8 1" style="fill:#b8d432;stroke:none;stroke-width:12.23999977;stroke-linecap:butt"/></g><g transform="translate(14.74 -8.67)"><title>Sheet.20359</title><path d="m8.28 84.5 2.38-2.33H2.38v-2.34h8.28L8.28 77.5h2.38l3.51 3.44-3.51 3.45H8.28ZM0 87.95l3.51 3.44H5.9l-2.39-2.33h8.28v-2.34H3.51l2.39-2.33H3.51Z" style="fill:#fff;stroke:none;stroke-width:12.23999977;stroke-linecap:butt"/></g></g></g></svg>