<svg xmlns="http://www.w3.org/2000/svg" xml:space="preserve" width="56.693" height="56.695" style="font-size:12px;overflow:visible;color-interpolation-filters:sRGB;fill-rule:evenodd;stroke-linecap:square;stroke-miterlimit:3" viewBox="0 0 56.693 56.695"><g transform="translate(-5.67 -5.67)"><title>Page-1</title><g transform="translate(5.67 -34.016)"><title>SQL Database Query Performance Insight.20364</title><title>Sheet.20365</title><g transform="translate(3.77 -45.355)"><title>Sheet.20366</title><ellipse cx="18.896" cy="90.709" rx="18.896" ry="5.669" style="fill:#b8d432;stroke:none;stroke-width:.038081;stroke-linecap:butt"/></g><g transform="translate(7.92 -45.355)"><title>Sheet.20367</title><path d="M29.5 94.25c-3.46-1.29-8.78-2.12-14.75-2.12S3.46 92.96 0 94.25c3.46 1.3 8.78 2.13 14.75 2.13s11.29-.83 14.75-2.13" style="fill:#57a300;stroke:none;stroke-width:.038081;stroke-linecap:butt"/></g><title>Sheet.20368</title><path d="m45.36 47.24-.01 40.64c0 4.69-10.15 8.5-22.67 8.5S0 92.57 0 87.88l.01-40.64c0 4.7 10.15 8.5 22.67 8.5s22.68-3.8 22.68-8.5" style="fill:#6dc2e9;stroke:none;stroke-width:.038081;stroke-linecap:butt"/><g transform="translate(3.778 -22.669)"><title>Sheet.20369</title><path d="M0 77.48h11.34v11.33H0Zm22.67 7.56h11.34v11.34H22.67Zm18.9-18.9h11.34v11.34H41.57Z" style="fill:#804998;stroke:none;stroke-width:.038081;stroke-linecap:butt"/></g><g transform="translate(7.56 -26.454)"><title>Sheet.20370</title><path d="m0 85.04 22.67 7.56 18.9-18.9 3.78 3.78L25.9 95.82l.56.56-1.9-.01L0 88.81Z" style="fill:#804998;stroke:none;stroke-width:.038081;stroke-linecap:butt"/></g><g transform="translate(3.778)"><title>Sheet.20371</title><path d="M0 77.477h52.915v18.901H0z" style="fill:gray;stroke:none;stroke-width:.038081;stroke-linecap:butt"/></g><g transform="translate(7.56 -3.778)"><title>Sheet.20372</title><path d="M0 96.38h45.35V85.04H0Zm3.78-3.78h3.78v-3.78H3.78Z" style="fill:#fff;stroke:none;stroke-width:.038081;stroke-linecap:butt"/></g></g></g></svg>