<svg xmlns="http://www.w3.org/2000/svg" xml:space="preserve" width="56.692" height="53.858" style="font-size:12px;overflow:visible;color-interpolation-filters:sRGB;fill-rule:evenodd;stroke-linecap:square;stroke-miterlimit:3" viewBox="0 0 56.692 53.858"><defs><linearGradient id="a" x1="0" x2="31.41" y1="59.926" y2="59.926" gradientTransform="scale(.74945 1.3343)" gradientUnits="userSpaceOnUse"><stop offset="0" stop-color="#1988d9"/><stop offset=".9" stop-color="#54aef0"/></linearGradient><linearGradient id="b" x1="0" x2="24.985" y1="114.371" y2="114.371" gradientTransform="scale(1.14348 .87452)" gradientUnits="userSpaceOnUse"><stop offset=".1" stop-color="#54aef0"/><stop offset=".29" stop-color="#4fabee"/><stop offset=".51" stop-color="#41a2e9"/><stop offset=".74" stop-color="#2a93e0"/><stop offset=".88" stop-color="#1988d9"/></linearGradient></defs><g transform="translate(-34 -33.996)"><title>Page-1</title><g transform="translate(34 -34.016)"><title>SQL Server Identity.20222</title><title>Icon-identity-227</title><g transform="translate(0 -2.825)"><title>Sheet.20224</title><path d="m3.2 100.05 24.92 16 25.37-16.03 3.2 3.64-28.57 18.21L0 103.69Z" style="fill:#50e6ff;stroke:none;stroke-width:34;stroke-linecap:butt"/></g><g transform="translate(5.06 -11.948)"><title>Sheet.20225</title><path d="m0 107.14 23.06-27.18 23.54 27.22-23.54 14.69Z" style="fill:#fff;stroke:none;stroke-width:34;stroke-linecap:butt"/></g><g transform="translate(5.06 -11.948)"><title>Sheet.20226</title><path d="M23.06 79.96v41.91L0 107.14Z" style="fill:#50e6ff;stroke:none;stroke-width:34;stroke-linecap:butt"/></g><g transform="translate(28.122 -11.948)"><title>Sheet.20227</title><path d="M0 79.96v41.91l23.54-14.69z" style="fill:url(#a);stroke:none;stroke-width:34;stroke-linecap:butt"/></g><g transform="translate(28.122 -11.948)"><title>Sheet.20228</title><path d="m0 101.6 23.54 5.58L0 121.87Z" style="fill:#53b1e0;stroke:none;stroke-width:34;stroke-linecap:butt"/></g><g transform="translate(5.06 -11.948)"><title>Sheet.20229</title><path d="M23.06 121.87 0 107.14l23.06-5.54Z" style="fill:#9cebff;stroke:none;stroke-width:34;stroke-linecap:butt"/></g><g transform="translate(28.122 -2.825)"><title>Sheet.20230</title><path d="m0 121.87 28.57-18.21-3.2-3.64L0 116.05Z" style="fill:url(#b);stroke:none;stroke-width:34;stroke-linecap:butt"/></g><g transform="translate(32.65)"><title>Sheet.20231</title><path d="M19.14 102.48a3.715 3.675-180 0 0 0-5.23l-6.4-6.33a3.715 3.675-180 0 0-5.26 0l-6.4 6.33a3.78 3.738-180 0 0 0 5.23l5.35 5.29a1.025 1.014 0 0 1 .28.73v9.82a1.153 1.14-180 0 0 .39.89l2.43 2.4a.8.792-180 0 0 1.185 0l2.345-2.31 1.41-1.39a.48.475-180 0 0 0-.665l-1-.985a.512.507 0 0 1 0-.76l1-.98a.512.507-180 0 0 0-.697l-1-.983a.48.475 0 0 1 0-.729l1-1.011a.48.475-180 0 0 0-.665l-1.41-1.395v-.51zm-9.03-10.04A2.114 2.09 0 1 1 8 94.53a2.114 2.09 0 0 1 2.11-2.09" style="fill:#ffca00;stroke:none;stroke-width:34;stroke-linecap:butt"/></g><g transform="translate(41.018 -3.079)"><title>Sheet.20232</title><path d="M.14 121.78a.448.443-180 0 0 .769-.348l.001-8.112a.512.507-180 0 0-.192-.412.448.443-180 0 0-.705.412l-.003 7.95a.48.475-180 0 0 .128.507z" style="fill:#ff9300;fill-opacity:.75;stroke:none;stroke-width:34;stroke-linecap:butt"/></g><g transform="translate(37.635 -21.262)"><title>Sheet.20233</title><path d="M0 121.3a.577.57-180 0 0 .577.57H9.96a.577.57-180 0 0 .577-.57l.003-.09a.577.57-180 0 0-.577-.57H.58a.577.57-180 0 0-.577.57z" style="fill:#ff9300;fill-opacity:.75;stroke:none;stroke-width:34;stroke-linecap:butt"/></g><g transform="translate(37.635 -19.266)"><title>Sheet.20234</title><path d="M0 121.3a.577.57-180 0 0 .577.57H9.96a.577.57-180 0 0 .577-.57l.003-.09a.577.57-180 0 0-.577-.57H.58a.577.57-180 0 0-.577.57z" style="fill:#ff9300;fill-opacity:.75;stroke:none;stroke-width:34;stroke-linecap:butt"/></g></g></g></svg>