<svg xmlns="http://www.w3.org/2000/svg" xml:space="preserve" width="50.997" height="56.821" style="font-size:12px;overflow:visible;color-interpolation-filters:sRGB;fill-rule:evenodd;stroke-linecap:square;stroke-miterlimit:3" viewBox="0 0 50.997 56.821"><g transform="translate(-5.102 -5.544)"><title>Page-1</title><g transform="translate(5.102 -34.016)"><title>SQL Database Azure Data Studio.20457</title><title>Sheet.20458</title><g transform="translate(13.71 -33.2)"><title>Sheet.20459</title><path d="M30.54 82.41h-.19a10.38 10.557-180 0 0-19.13-4.71 9.763 9.93-180 0 0-1.93-.21 9.286 9.445-180 1 0 0 18.89h21.25a6.864 6.981-180 0 0 0-13.96z" style="fill:#6bbcda;stroke:none;stroke-width:1.33916998;stroke-linecap:butt"/></g><g transform="translate(13.962 -34.118)"><title>Sheet.20460</title><path d="M13.81 81.31a10.37 10.546 0 0 1 2.13.24 10.255 10.43 0 0 1 10.51-5.39 10.383 10.56-180 0 0-15.48 2.46 9.763 9.93-180 0 0-1.93-.21 9.285 9.444-180 0 0-3.97 17.97 9.884 10.053 0 0 1-1.22-4.88 9.993 10.163 0 0 1 9.96-10.19" style="fill:#8acae1;stroke:none;stroke-width:1.33916998;stroke-linecap:butt"/></g><g transform="translate(0 -.017)"><title>Sheet.20461</title><path d="M0 60.03v27.84c0 4.69 7.24 8.49 16.19 8.51V66.4Z" style="fill:#50a7e1;stroke:none;stroke-width:1.33916998;stroke-linecap:butt"/></g><g transform="translate(0 -27.603)"><title>Sheet.20462</title><path d="M11.5 81.33a10.946 11.132 0 0 1 .06-1.18C4.88 81.16 0 84.33 0 88.08c0 4.59 7.24 8.3 16.19 8.3v-5.56a11.623 11.821 0 0 1-4.69-9.48Z" style="fill:#c0d557;stroke:none;stroke-width:1.33916998;stroke-linecap:butt"/></g><g transform="translate(16.186 -27.62)"><title>Sheet.20463</title><path d="M12.95 93.11H6.81A11.36 11.554 0 0 1 0 90.81v5.57h.02a23.999 24.408-180 0 0 12.93-3.27" style="fill:#c0d557;stroke:none;stroke-width:1.33916998;stroke-linecap:butt"/></g><g transform="translate(16.187 -.082)"><title>Sheet.20464</title><path d="m11.97 81.89.09-.2.77-1.88.09-.2.8-1.95 1.9.82.19.09.42.17V65.61h-3.28A24.242 24.656 0 0 1 .02 68.9H0v13.35h11.83zm.84 9.88-.78-1.91-.08-.19-.79-1.97 1.93-.81.19-.08.79-.34c-.03-.23-.03-.45-.03-.68s0-.49.03-.74l-.79-.34-.15-.07H0v11.74h.02a23.346 23.745-180 0 0 13.2-3.57l-.35-.89z" style="fill:#1e80c6;stroke:none;stroke-width:1.33916998;stroke-linecap:butt"/></g><g transform="translate(0 -3.173)"><title>Sheet.20465</title><path d="m29.28 87.76-1.9-.83.66-1.63H14.78l-1.87 4.64-5.65-15.91-4.13 11.46H0v2.01h4.75l2.62-7.4 5.71 16.28 3-8.59h13.24z" style="fill:#fff;stroke:none;stroke-width:1.33916998;stroke-linecap:butt"/></g><g transform="translate(30.097)"><title>Sheet.20466</title><path d="M18.4 87.81a8.129 8.268-180 0 0 .25-2.06 8.92 9.072-180 0 0-.22-2.02l2.28-.95.19-.09-.09-.19-.77-1.91-.09-.19-.18.09-2.29.95a8.3 8.443-180 0 0-2.8-2.88l.96-2.34.08-.19-.19-.08-1.84-.79-.19-.09-.07.2-.96 2.33a8.048 8.186-180 0 0-2.01-.25 8.822 8.972-180 0 0-1.98.23l-.92-2.34-.09-.18-.19.08-1.87.79-.18.08.08.19.93 2.34a8.299 8.44-180 0 0-2.83 2.86l-1.08-.47-1.2-.51-.19-.08-.08.19-.78 1.89-.08.19.19.08 2.28.98a7.343 7.469-180 0 0-.15.68c-.04.23-.06.51-.08.76v.02a5.272 5.362-180 0 0-.02.57 2.74 2.787-180 0 0 .02.43.563.573-180 0 0 .022.192c-.002.058.018.128.018.208a4.838 4.92-180 0 0 .13.81 1.803 1.834-180 0 0 .08.36l-.12.04-2.17.91-.19.09.09.19.77 1.91.08.19.19-.09 2.28-.95a8.305 8.447-180 0 0 2.8 2.89l-.95 2.33-.08.19.18.09 1.85.78.19.09.08-.19.95-2.34a8.137 8.275-180 0 0 2.02.26 8.822 8.972-180 0 0 1.97-.24l.93 2.34.08.19.19-.09 1.86-.78.19-.09-.08-.19-.93-2.33a8.299 8.44-180 0 0 2.82-2.87l2.29.98.18.08.09-.19.77-1.89.08-.19-.18-.08zm-7.97 3.77a5.761 5.86 0 0 1-4.52-9.44l.02-.02a5.738 5.836 0 1 1 4.5 9.47z" style="fill:#0e4da7;stroke:none;stroke-width:1.33916998;stroke-linecap:butt"/></g><g transform="translate(35.988 -14.212)"><title>Sheet.20467</title><path d="M.06 96.33H.04l-.02.03s0 .02-.02.02z" style="fill:#fff;stroke:none;stroke-width:1.33916998;stroke-linecap:butt"/></g></g></g></svg>