<svg xmlns="http://www.w3.org/2000/svg" xml:space="preserve" width="56.418" height="53.85" style="font-size:12px;overflow:visible;color-interpolation-filters:sRGB;fill-rule:evenodd;stroke-linecap:square;stroke-miterlimit:3" viewBox="0 0 56.418 53.85"><g transform="translate(-25.5 -25.504)"><title>Page-1</title><g transform="translate(25.5 -34.016)"><title>SQL Database Restore.20360</title><title>Sheet.20361</title><g transform="translate(0 -28.63)"><title>Sheet.20362</title><path d="M23.13 113.37H0V89Z" style="fill:#000;stroke:none;stroke-width:25.5;stroke-linecap:butt"/></g><g transform="translate(7.333)"><title>Sheet.20363</title><path d="M22.56 113.37c-9.02 0-17.2-3.96-22.28-10.48l5.93-5.67c3.38 5.1 9.3 8.78 16.07 8.78 10.44 0 18.9-8.5 18.62-18.99s-8.75-18.99-19.46-18.99c-6.49 0-12.41 3.4-15.52 8.5L0 70.29c4.79-6.52 12.69-10.77 21.44-10.77 14.95 0 27.36 12.18 27.64 27.21.28 15.02-11.57 26.64-26.52 26.64" style="fill:#000;stroke:none;stroke-width:25.5;stroke-linecap:butt"/></g></g></g></svg>