<svg xmlns="http://www.w3.org/2000/svg" xml:space="preserve" width="56.695" height="56.697" style="font-size:12px;overflow:visible;color-interpolation-filters:sRGB;fill-rule:evenodd;stroke-linecap:square;stroke-miterlimit:3" viewBox="0 0 56.695 56.697"><g transform="translate(-5.67 -5.667)"><title>Page-1</title><g transform="translate(5.67 -34.016)"><title>SQL Database Performance Overview.20386</title><title>Sheet.20387</title><title>Sheet.20388</title><path d="M0 39.689h56.693v56.689H0z" style="fill:none;stroke:none;stroke-width:.0435215;stroke-linecap:butt"/><g transform="translate(.06 -30.231)"><title>Sheet.20389</title><path d="M6.44 80.13A28.3 28.3 0 0 0 0 96.38h15.18c.27-2 .99-3.85 2.06-5.46z" style="fill:#57a300;stroke:none;stroke-width:.0435215;stroke-linecap:butt"/></g><g transform="translate(10.28 -39.467)"><title>Sheet.20390</title><path d="M16.18 79.15C10.05 79.56 4.45 81.9 0 85.59l10.79 10.79c1.6-1.05 3.42-1.76 5.39-2.05z" style="fill:#b8d432;stroke:none;stroke-width:.0435215;stroke-linecap:butt"/></g><g transform="translate(30.241 -39.467)"><title>Sheet.20391</title><path d="M16.17 85.59A28.27 28.27 0 0 0 0 79.15v15.18c1.97.29 3.79 1 5.38 2.05z" style="fill:#ffb900;stroke:none;stroke-width:.0435215;stroke-linecap:butt"/></g><g transform="translate(39.405 -26.522)"><title>Sheet.20392</title><path d="M17.22 96.38c.04-.63.07-1.26.07-1.89 0-6.87-2.44-13.16-6.5-18.07L0 87.21c1.37 2.09 2.17 4.59 2.17 7.28 0 .64-.04 1.27-.13 1.89z" style="fill:#dd5900;stroke:none;stroke-width:.0435215;stroke-linecap:butt"/></g><g transform="translate(.06 -10.207)"><title>Sheet.20393</title><path d="M6.44 96.38A28.3 28.3 0 0 1 0 80.13h15.18c.27 1.99.99 3.85 2.06 5.46z" style="fill:#57a300;stroke:none;stroke-width:.0435215;stroke-linecap:butt"/></g><g transform="translate(3.782)"><title>Sheet.20394</title><title>Sheet.20395</title><path d="m28.21 81.23 9.58 9.58v5.57h-5.57l-9.58-9.58a15.1 15.1 0 0 1-7.53 2.01C6.77 88.81 0 82.03 0 73.69c0-8.32 6.79-15.11 15.11-15.11 8.34 0 15.12 6.77 15.12 15.11 0 2.74-.73 5.32-2.02 7.54" style="fill:#49a5dc;stroke:none;stroke-width:.0435215;stroke-linecap:butt"/><g transform="translate(3.778 -11.348)"><title>Sheet.20396</title><path d="M22.67 85.04c0-6.26-5.08-11.33-11.34-11.33A11.32 11.32 0 0 0 0 85.04c0 6.25 5.08 11.34 11.33 11.34 6.28 0 11.34-5.07 11.34-11.34" style="fill:#83e7f1;stroke:none;stroke-width:.0435215;stroke-linecap:butt"/></g></g></g></g></svg>