<svg xmlns="http://www.w3.org/2000/svg" xml:space="preserve" width="51.026" height="56.69" style="font-size:12px;overflow:visible;color-interpolation-filters:sRGB;fill-rule:evenodd;stroke-linecap:square;stroke-miterlimit:3" viewBox="0 0 51.026 56.69"><g transform="translate(-29.143 -29.145)"><title>Page-1</title><g transform="translate(29.143 -34.016)"><title>SQL Database Dynamic Data Masking.20431</title><title>Sheet.20432</title><g transform="translate(0 -4.252)"><title>Sheet.20433</title><path d="M0 74.5v38.26c0 3.97 8.89 7.09 20.07 7.09V74.5Z" style="fill:#3999c6;stroke:none;stroke-width:29.14290047;stroke-linecap:butt"/></g><g transform="translate(19.779 -3.969)"><title>Sheet.20434</title><path d="M0 119.85c11.47 0 20.35-3.12 20.35-7.09V74.21H0Z" style="fill:#5ab4d9;stroke:none;stroke-width:29.14290047;stroke-linecap:butt"/></g><g transform="translate(.287 -42.52)"><title>Sheet.20435</title><path d="M40.13 112.76c0 3.97-8.89 7.09-20.06 7.09-11.18 0-20.07-3.12-20.07-7.09 0-3.96 8.89-7.08 20.07-7.08 11.17 0 20.06 3.12 20.06 7.08" style="fill:#fff;stroke:none;stroke-width:29.14290047;stroke-linecap:butt"/></g><g transform="translate(4.3 -45.07)"><title>Sheet.20436</title><path d="M31.82 115.03c0 2.55-7.17 4.82-16.05 4.82-8.89 0-15.77-2.27-15.77-4.82s7.17-4.82 16.05-4.82c8.89 0 15.77 2.27 15.77 4.82" style="fill:#bebec0;stroke:none;stroke-width:29.14290047;stroke-linecap:butt"/></g><g transform="translate(4.3 -47.055)"><title>Sheet.20437</title><path d="M28.66 119.85c2.01-.85 3.44-1.7 3.44-2.83 0-2.55-7.16-4.82-16.05-4.82-8.88 0-16.05 2.27-16.05 4.82 0 1.13 1.15 1.98 3.44 2.83 2.87-1.13 7.45-1.98 12.61-1.98 4.88.28 9.46.85 12.61 1.98" style="fill:#fff;fill-opacity:.25;stroke:none;stroke-width:29.14290047;stroke-linecap:butt"/></g><g transform="translate(18.346)"><title>Sheet.20438</title><path d="M32.68 94.62s-4.02-2.26-16.34-2.26C4.01 92.36 0 94.62 0 94.62l13.19 13.04.57 11.34s1.15.85 2.87.85c1.43 0 2.86-.85 2.86-.85l.58-11.34z" style="fill:#bebec0;stroke:none;stroke-width:29.14290047;stroke-linecap:butt"/></g><g transform="translate(34.685)"><title>Sheet.20439</title><path d="M16.34 94.62S12.33 92.36 0 92.36v27.49c1.43 0 2.87-.85 2.87-.85l.57-11.34z" style="fill:#fff;fill-opacity:.25;stroke:none;stroke-width:29.14290047;stroke-linecap:butt"/></g><g transform="translate(0 -26.079)"><title>Sheet.20440</title><path d="m0 106.81 19.49-17.57c4.59 0 8.89.28 12.9 1.41L0 119.85Z" style="fill:#b8d433;stroke:none;stroke-width:29.14290047;stroke-linecap:butt"/></g><g transform="translate(0 -24.945)"><title>Sheet.20441</title><path d="M0 119.85v-1.13l32.39-29.2.86.28z" style="fill:#111;fill-opacity:.25;stroke:none;stroke-width:29.14290047;stroke-linecap:butt"/></g></g></g></svg>