<svg xmlns="http://www.w3.org/2000/svg" xml:space="preserve" width="56.688" height="56.69" style="font-size:12px;overflow:visible;color-interpolation-filters:sRGB;fill-rule:evenodd;stroke-linecap:square;stroke-miterlimit:3" viewBox="0 0 56.688 56.69"><defs><linearGradient id="a" x1="0" x2="43.939" y1="85.145" y2="85.145" gradientTransform="scale(1.03507 .96611)" gradientUnits="userSpaceOnUse"><stop offset="0" stop-color="#b3b2b3"/><stop offset=".38" stop-color="#afaeaf"/><stop offset=".76" stop-color="#a2a2a2"/><stop offset="1" stop-color="#979797"/></linearGradient><linearGradient id="b" x1="0" x2="28.245" y1="97.196" y2="97.196" gradientTransform="scale(1.00586 .99418)" gradientUnits="userSpaceOnUse"><stop offset="0" stop-color="#005ba1"/><stop offset=".07" stop-color="#0060a9"/><stop offset=".36" stop-color="#0071c8"/><stop offset=".52" stop-color="#0078d4"/><stop offset=".64" stop-color="#0074cd"/><stop offset=".82" stop-color="#006abb"/><stop offset="1" stop-color="#005ba1"/></linearGradient></defs><g transform="translate(-34 -34.004)"><title>Page-1</title><g transform="translate(34 -34.016)"><title>SQL Data Warehouse.20487</title><title>Icon-databases-125</title><g transform="translate(0 -14.24)"><title>Sheet.20489</title><path d="M22.74 82.26 0 95.19v3.21h4.18v24.27h4.11V98.4h28.89v26.31h4.12V98.4h4.18v-3.21z" style="fill:url(#a);stroke:none;stroke-width:34;stroke-linecap:butt"/></g><g transform="translate(12.406 -16.274)"><title>Sheet.20490</title><path d="M0 124.71h8.26v-8.07H0Zm12.37 0h8.26v-8.07h-8.16ZM0 112.64h8.26v-8.17H0Zm12.47-8.17v8.17h8.16v-8.17z" style="fill:#50e6ff;stroke:none;stroke-width:34;stroke-linecap:butt"/></g><g transform="translate(28.279)"><title>Sheet.20491</title><path d="M14.07 101.06c-7.85 0-14.07-2-14.07-4.43v23.64c0 2.44 6.25 4.41 14 4.44h.21c7.85 0 14.2-2 14.2-4.44V96.63c-.13 2.43-6.49 4.43-14.34 4.43" style="fill:url(#b);stroke:none;stroke-width:34;stroke-linecap:butt"/></g><g transform="translate(28.279 -23.644)"><title>Sheet.20492</title><path d="M28.28 120.27c0 2.44-6.36 4.44-14.21 4.44S0 122.71 0 120.27c0-2.43 6.36-4.43 14.21-4.43s14.2 1.97 14.2 4.43z" style="fill:#e8e8e8"/><path d="M28.28 120.27c0 2.44-6.36 4.44-14.21 4.44S0 122.71 0 120.27c0-2.43 6.36-4.43 14.21-4.43s14.2 1.97 14.2 4.43" style="stroke:none;stroke-width:34;stroke-linecap:butt"/></g><g transform="translate(31.473 -25.512)"><title>Sheet.20493</title><path d="M21.79 121.87c0 1.57-4.9 2.84-10.91 2.84-6.02 0-10.88-1.37-10.88-2.84 0-1.46 4.86-2.83 10.88-2.83 6.01 0 10.91 1.27 10.91 2.83" style="fill:#50e6ff;stroke:none;stroke-width:34;stroke-linecap:butt"/></g><g transform="translate(33.717 -25.612)"><title>Sheet.20494</title><path d="M8.63 122.54A29.196 28.647-180 0 0 0 123.61a28.89 28.347-180 0 0 8.63 1.1 28.89 28.347-180 0 0 8.64-1.1 29.196 28.647-180 0 0-8.64-1.07" style="fill:#32bedd;stroke:none;stroke-width:34;stroke-linecap:butt"/></g></g></g></svg>