<svg xmlns="http://www.w3.org/2000/svg" xml:space="preserve" width="55.14" height="55.14" style="font-size:12px;overflow:visible;color-interpolation-filters:sRGB;fill-rule:evenodd;stroke-linecap:square;stroke-miterlimit:3" viewBox="0 0 55.14 55.14"><defs><linearGradient id="a" x1="0" x2="40.085" y1="83.86" y2="83.86" gradientTransform="scale(1.00012 .99988)" gradientUnits="userSpaceOnUse"><stop offset="0" stop-color="#005ba1"/><stop offset=".1" stop-color="#0060a9"/><stop offset=".52" stop-color="#0071c8"/><stop offset=".75" stop-color="#0078d4"/></linearGradient></defs><g transform="translate(-34.003 -34.001)"><title>Page-1</title><g transform="translate(33.226 -34.016)"><title>SQL Elastic Pool.20295</title><title>SQL elastic pool</title><g transform="rotate(-45 14.173 89.717)"><title>Sheet.20297</title><path d="M0 122.06a1.87 1.87-180 0 0 1.87 1.87h36.35a1.87 1.87-180 0 0 1.87-1.87V85.72a1.87 1.87-180 0 0-1.87-1.87H1.87A1.87 1.87-180 0 0 0 85.72Z" style="fill:url(#a);stroke:none;stroke-width:34;stroke-linecap:butt"/></g><g transform="translate(23.113 -36.591)"><title>Sheet.20298</title><path d="M5.24 115.05c-2.91 0-5.24-.74-5.24-1.69v8.92c0 .89 2.3 1.65 5.15 1.65h.09c2.88 0 5.24-.73 5.24-1.65v-8.92c.03.95-2.17 1.69-5.24 1.69" style="fill:#50e6ff;stroke:none;stroke-width:34;stroke-linecap:butt"/></g><g transform="translate(23.144 -45.48)"><title>Sheet.20299</title><path d="M10.48 122.25c0 .95-2.36 1.68-5.24 1.68S0 123.2 0 122.25s2.33-1.66 5.21-1.66 5.24.74 5.24 1.66z" style="fill:#eaeaea"/><path d="M10.48 122.25c0 .95-2.36 1.68-5.24 1.68S0 123.2 0 122.25s2.33-1.66 5.21-1.66 5.24.74 5.24 1.66" style="stroke:none;stroke-width:34;stroke-linecap:butt"/></g><g transform="translate(24.37 -46.215)"><title>Sheet.20300</title><path d="M8.03 122.86c0 .58-1.81 1.07-4.02 1.07-2.2 0-4.01-.52-4.01-1.07s1.78-1.07 3.98-1.07c2.21 0 4.02.49 4.02 1.07z" style="fill:#50e6ff"/><path d="M8.03 122.86c0 .58-1.81 1.07-4.02 1.07-2.2 0-4.01-.52-4.01-1.07s1.78-1.07 3.98-1.07c2.21 0 4.02.49 4.02 1.07" style="stroke:none;stroke-width:34;stroke-linecap:butt"/></g><g transform="translate(25.289 -46.307)"><title>Sheet.20301</title><path d="M3.06 123.2a11 11-180 0 0-3.06.31 10.8 10.8-180 0 0 3.06.42 10.8 10.8-180 0 0 3.07-.42 11 11-180 0 0-3.07-.31" style="fill:#32bedd;stroke:none;stroke-width:34;stroke-linecap:butt"/></g><g transform="translate(23.113 -7.751)"><title>Sheet.20302</title><path d="M5.24 115.05c-2.91 0-5.24-.74-5.24-1.69v8.92c0 .89 2.3 1.65 5.15 1.65h.09c2.88 0 5.24-.73 5.24-1.65v-8.92c.03.95-2.17 1.69-5.24 1.69" style="fill:#50e6ff;stroke:none;stroke-width:34;stroke-linecap:butt"/></g><g transform="translate(23.144 -16.64)"><title>Sheet.20303</title><path d="M10.48 122.25c0 .95-2.36 1.68-5.24 1.68S0 123.2 0 122.25s2.33-1.66 5.24-1.66 5.24.74 5.24 1.66" style="fill:#eaeaea;stroke:none;stroke-width:34;stroke-linecap:butt"/></g><g transform="translate(24.37 -17.375)"><title>Sheet.20304</title><path d="M8.03 122.86c0 .58-1.81 1.07-4.02 1.07-2.2 0-4.01-.49-4.01-1.07s1.78-1.07 4.01-1.07c2.24 0 4.02.49 4.02 1.07" style="fill:#50e6ff;stroke:none;stroke-width:34;stroke-linecap:butt"/></g><g transform="translate(25.289 -17.375)"><title>Sheet.20305</title><path d="M3.06 123.11a11 11-180 0 0-3.06.4 10.8 10.8-180 0 0 3.06.42 10.8 10.8-180 0 0 3.07-.42 11 11-180 0 0-3.07-.4" style="fill:#32bedd;stroke:none;stroke-width:34;stroke-linecap:butt"/></g><g transform="translate(36.047 -22.217)"><title>Sheet.20306</title><path d="M5.24 115.02c-3.06 0-5.24-.74-5.24-1.66v8.89c0 .92 2.3 1.65 5.18 1.68 2.88 0 5.24-.76 5.24-1.68v-8.89c.06.92-2.3 1.66-5.18 1.66" style="fill:#50e6ff;stroke:none;stroke-width:34;stroke-linecap:butt"/></g><g transform="translate(36.047 -31.136)"><title>Sheet.20307</title><path d="M10.48 122.28c0 .92-2.36 1.65-5.24 1.65S0 123.2 0 122.28s2.33-1.69 5.24-1.69 5.24.77 5.24 1.69" style="fill:#eaeaea;stroke:none;stroke-width:34;stroke-linecap:butt"/></g><g transform="translate(37.273 -31.872)"><title>Sheet.20308</title><path d="M8.03 122.86c0 .61-1.81 1.07-4.02 1.07-2.2 0-4.01-.46-4.01-1.07s1.78-1.04 4.01-1.04c2.24 0 4.02.46 4.02 1.04" style="fill:#50e6ff;stroke:none;stroke-width:34;stroke-linecap:butt"/></g><g transform="translate(38.223 -31.872)"><title>Sheet.20309</title><path d="M3.06 123.11a10.8 10.8-180 0 0-3.06.43 11 11-180 0 0 3.06.39 11 11-180 0 0 3.07-.39 11 11-180 0 0-3.07-.43" style="fill:#32bedd;stroke:none;stroke-width:34;stroke-linecap:butt"/></g><g transform="translate(10.608 -22.217)"><title>Sheet.20310</title><path d="M5.24 115.02c-2.91 0-5.24-.74-5.24-1.66v8.89c0 .92 2.3 1.65 5.15 1.68 2.88 0 5.24-.76 5.24-1.68v-8.89c.09.92-2.27 1.66-5.15 1.66" style="fill:#50e6ff;stroke:none;stroke-width:34;stroke-linecap:butt"/></g><g transform="translate(10.608 -31.136)"><title>Sheet.20311</title><path d="M10.48 122.28c0 .92-2.36 1.65-5.24 1.65S0 123.2 0 122.28s2.42-1.69 5.24-1.69 5.24.77 5.24 1.69" style="fill:#eaeaea;stroke:none;stroke-width:34;stroke-linecap:butt"/></g><g transform="translate(11.834 -31.872)"><title>Sheet.20312</title><path d="M8.03 122.86c0 .61-1.81 1.07-4.02 1.07-2.2 0-4.01-.46-4.01-1.07s1.78-1.04 4.01-1.04c2.24 0 4.02.46 4.02 1.04" style="fill:#50e6ff;stroke:none;stroke-width:34;stroke-linecap:butt"/></g><g transform="translate(12.784 -31.872)"><title>Sheet.20313</title><path d="M3.06 123.11a10.8 10.8-180 0 0-3.06.43 11 11-180 0 0 3.06.39 11 11-180 0 0 3.07-.39 11 11-180 0 0-3.07-.43" style="fill:#32bedd;stroke:none;stroke-width:34;stroke-linecap:butt"/></g></g></g></svg>