<svg xmlns="http://www.w3.org/2000/svg" xml:space="preserve" width="56.693" height="56.693" style="font-size:12px;overflow:visible;color-interpolation-filters:sRGB;fill-rule:evenodd;stroke-linecap:square;stroke-miterlimit:3" viewBox="0 0 56.693 56.693"><g transform="translate(-5.67 -5.67)"><title>Page-1</title><g transform="translate(5.67 -34.016)"><title>SQL Server Automatic Tuning.20250</title><title>Sheet.20251</title><g transform="translate(5.315 -14.175)"><title>Sheet.20252</title><path d="M38.98 88.26V61.83c-.14-4.73-8.81-7.97-19.49-7.97C8.82 53.86.13 57.1 0 61.83l.01 26.43c.13 4.73 8.8 8.12 19.48 8.12 10.67 0 19.36-3.39 19.49-8.12" style="fill:#fff;stroke:none;stroke-width:.019125;stroke-linecap:butt"/></g><g transform="translate(5.315 -5.315)"><title>Sheet.20253</title><path d="M19.49 96.38C8.81 96.38.13 93.14 0 88.41V52.97c.13 4.73 8.81 7.97 19.49 7.97s19.35-3.24 19.49-7.97v35.44c-.14 4.73-8.82 7.97-19.49 7.97" style="fill:#66d7f7;stroke:none;stroke-width:.019125;stroke-linecap:butt"/></g><g transform="translate(10.625 -44.292)"><title>Sheet.20254</title><ellipse cx="14.175" cy="91.949" rx="14.175" ry="4.429" style="fill:#d6e86c;stroke:none;stroke-width:.019125;stroke-linecap:butt"/></g><g transform="translate(13.53 -44.294)"><title>Sheet.20255</title><path d="M0 94.64c2.59-1.06 6.67-1.75 11.27-1.75s8.68.69 11.27 1.75c-2.59 1.06-6.67 1.74-11.27 1.74S2.59 95.7 0 94.64" style="fill:#bad80a;stroke:none;stroke-width:.019125;stroke-linecap:butt"/></g><g transform="translate(5.315 -5.317)"><title>Sheet.20256</title><path d="M19.49 60.95v35.43c-4.62 0-19.3-1.24-19.49-7.97V52.97c.19 6.82 14.7 7.98 19.49 7.98" style="fill:#00bcf2;stroke:none;stroke-width:.019125;stroke-linecap:butt"/></g><g transform="translate(21.258)"><title>Sheet.20257</title><path d="M0 68.032h28.346v28.346H0z" style="fill:#9b4f96;stroke:none;stroke-width:.019125;stroke-linecap:butt"/></g><g transform="translate(28.346 -.002)"><title>Sheet.20258</title><path d="M21.26 96.38h-7.09L0 68.03h21.26z" style="fill:#a47aaf;stroke:none;stroke-width:.019125;stroke-linecap:butt"/></g><g transform="translate(28.345 -2.66)"><title>Sheet.20259</title><path d="M14.17 87.52 0 96.38l5.31-8.86L0 82.21l14.17-8.86-5.31 8.86Z" style="fill:#fffc9e;stroke:none;stroke-width:.019125;stroke-linecap:butt"/></g><g transform="translate(28.345 -2.66)"><title>Sheet.20260</title><path d="m0 82.21 14.17-8.86-9.74 8.86 5.31 5.31L0 96.38l5.31-8.86Z" style="fill:#fc0;stroke:none;stroke-width:.019125;stroke-linecap:butt"/></g><g transform="translate(0 -.002)"><title>Sheet.20261</title><path d="M0 39.687h56.693v56.691H0z" style="fill:none;stroke:none;stroke-width:.019125;stroke-linecap:butt"/></g></g></g></svg>