<svg xmlns="http://www.w3.org/2000/svg" xml:space="preserve" width="56.688" height="56.699" style="font-size:12px;overflow:visible;color-interpolation-filters:sRGB;fill-rule:evenodd;stroke-linecap:square;stroke-miterlimit:3" viewBox="0 0 56.688 56.699"><g transform="translate(-12.24 -12.236)"><title>Page-1</title><g transform="translate(12.24 -34.016)"><title>SQL Database Data Discovery &amp; Classification.20442</title><title>Sheet.20443</title><g transform="translate(0 -11.339)"><title>Sheet.20444</title><path d="M0 101.02c0 .91.68 1.93 1.94 1.93h49.63c.91 0 1.94-.68 1.94-1.93v-35.6H0Z" style="fill:#a0a1a2;stroke:none;stroke-width:12.23999977;stroke-linecap:butt"/></g><g transform="translate(0 -48.87)"><title>Sheet.20445</title><path d="M51.57 95.13H1.94c-1.26 0-1.94.9-1.94 1.92v5.9h53.51v-5.9c0-1.02-.69-1.92-1.94-1.92" style="fill:#7a7a7a;stroke:none;stroke-width:12.23999977;stroke-linecap:butt"/></g><g transform="translate(20.15 -25.965)"><title>Sheet.20446</title><path d="M0 91.95h13.55v-8.16H0Zm0 11h13.55v-8.17H0Z" style="fill:#fcd116;stroke:none;stroke-width:12.23999977;stroke-linecap:butt"/></g><g transform="translate(4.098 -15.307)"><title>Sheet.20447</title><path d="M32.1 92.29h13.44v-8.16H32.1Zm0-11h13.44v-8.16H32.1Zm-32.1 0h13.55v-8.16H0Zm0 11h13.55v-8.16H0Zm0 10.66h13.55v-7.82H0Z" style="fill:#fff;stroke:none;stroke-width:12.23999977;stroke-linecap:butt"/></g><g transform="translate(20.15 -15.307)"><title>Sheet.20448</title><path d="M0 95.125h13.547v7.824H0z" style="fill:#fcd116;stroke:none;stroke-width:12.23999977;stroke-linecap:butt"/></g><g transform="translate(36.202 -15.307)"><title>Sheet.20449</title><path d="M0 95.125h13.433v7.824H0z" style="fill:#fff;stroke:none;stroke-width:12.23999977;stroke-linecap:butt"/></g><g transform="translate(0 -11.339)"><title>Sheet.20450</title><path d="M1.94 57.59C.91 57.59 0 58.5 0 59.52v41.5c0 .91.91 1.93 1.94 1.93H4.1l42.8-45.36Z" style="fill:#fff;fill-opacity:.15;stroke:none;stroke-width:12.23999977;stroke-linecap:butt"/></g><g transform="translate(24.248)"><title>Sheet.20451</title><path d="M28 77.55c-.68.68-1.93.68-2.5 0-.68-.68-.68-1.93 0-2.49.68-.68 1.94-.68 2.5 0 .92.9.92 1.92 0 2.49m-.68-6.58-8.76.34L0 89.8l13.21 13.15 18.55-18.48.68-8.51Z" style="fill:#804998;stroke:none;stroke-width:12.23999977;stroke-linecap:butt"/></g><g transform="translate(24.248)"><title>Sheet.20452</title><path d="m0 89.8 13.21 13.15 2.84-2.84v-26.3z" style="fill:#fff;fill-opacity:.15;stroke:none;stroke-width:12.23999977;stroke-linecap:butt"/></g><g transform="translate(47.586 -22.904)"><title>Sheet.20453</title><path d="M4.67 100.45c-.69.68-1.94.68-2.51 0-.68-.68-.68-1.92 0-2.49.69-.68 1.94-.68 2.51 0 .91.91.91 1.93 0 2.49m1.25-3.4c-1.25-1.24-3.42-1.24-4.67 0-1.25 1.25-1.25 3.4 0 4.65s3.42 1.25 4.67 0 1.25-3.4 0-4.65" style="fill:#1e1e1e;stroke:none;stroke-width:12.23999977;stroke-linecap:butt"/></g></g></g></svg>