<svg xmlns="http://www.w3.org/2000/svg" xml:space="preserve" width="56.693" height="56.699" style="font-size:12px;overflow:visible;color-interpolation-filters:sRGB;fill-rule:evenodd;stroke-linecap:square;stroke-miterlimit:3" viewBox="0 0 56.693 56.699"><defs><linearGradient id="a" x1="0" x2="45.052" y1="71.32" y2="71.32" gradientTransform="scale(.93314 1.07165)" gradientUnits="userSpaceOnUse"><stop offset="0" stop-color="#005ba1"/><stop offset=".07" stop-color="#0060a9"/><stop offset=".36" stop-color="#0071c8"/><stop offset=".52" stop-color="#0078d4"/><stop offset=".64" stop-color="#0074cd"/><stop offset=".82" stop-color="#006abb"/><stop offset="1" stop-color="#005ba1"/></linearGradient></defs><g transform="translate(-34 -33.996)"><title>Page-1</title><g transform="translate(34 -34.016)"><title>SQL Server.20175</title><title>Sheet.20176</title><g transform="translate(0 -.765)"><title>Sheet.20177</title><path d="M21.02 84.09C9.42 84.09 0 80.76 0 76.43v40.63c0 4.19 9.25 7.58 20.72 7.65h.3c11.6 0 21.02-3.33 21.02-7.65V76.43c0 4.23-9.42 7.66-21.02 7.66" style="fill:url(#a);stroke:none;stroke-width:34;stroke-linecap:butt"/></g><g transform="translate(0 -41.389)"><title>Sheet.20178</title><path d="M42.04 117.06c0 4.22-9.42 7.65-21.02 7.65S0 121.28 0 117.06c0-4.23 9.42-7.66 21.02-7.66s21.02 3.33 21.02 7.66" style="fill:#e8e8e8;stroke:none;stroke-width:34;stroke-linecap:butt"/></g><g transform="translate(4.973 -44.815)"><title>Sheet.20179</title><path d="M32.16 119.85c0 2.7-7.23 4.86-16.11 4.86-8.89 0-16.05-2.16-16.05-4.86 0-2.69 7.16-4.86 16.05-4.86 8.88 0 16.11 2.2 16.11 4.86" style="fill:#50e6ff;stroke:none;stroke-width:34;stroke-linecap:butt"/></g><g transform="translate(8.288 -44.815)"><title>Sheet.20180</title><path d="M12.73 120.98A39.785 39.925-180 0 0 0 122.81a37.298 37.43-180 0 0 12.76 1.9 37.298 37.43-180 0 0 12.77-1.9 39.785 39.925-180 0 0-12.8-1.83" style="fill:#198ab3;stroke:none;stroke-width:34;stroke-linecap:butt"/></g><g transform="translate(4.874 -15.404)"><title>Sheet.20181</title><path d="M29.08 118.72v-11.25h-3.09v13.78h8.16v-2.53zm-23.71-5.56a6.366 6.388 0 0 1-1.69-1.03 1.459 1.464 0 0 1-.27-1.06 1.26 1.264 0 0 1 .54-1.03 2.387 2.395 0 0 1 1.39-.37 5.537 5.556 0 0 1 3.31.97v-2.87a8.852 8.883-180 0 0-3.31-.53 5.769 5.79-180 0 0-3.98 1.17A3.746 3.76-180 0 0 0 111.4c0 1.7 1.06 3.03 3.32 4.03a9.615 9.648 0 0 1 2.02 1.19 1.326 1.33 0 0 1 .53 1.07 1.26 1.264 0 0 1-.53 1.03 2.487 2.495 0 0 1-1.49.4 5.305 5.323 0 0 1-3.75-1.5v3.1a7.592 7.619-180 0 0 3.55.76 6.63 6.654-180 0 0 3.91-1.06 3.647 3.66-180 0 0 1.42-3.06 3.315 3.327-180 0 0-.82-2.33 8.023 8.051-180 0 0-2.79-1.87m17.24 5.23a7.957 7.985-180 0 0 1.09-4.23 7.692 7.719-180 0 0-.82-3.66 6 6.022-180 0 0-2.32-2.49 6.63 6.654-180 0 0-3.32-.87 7.228 7.253-180 0 0-3.61.9 6.2 6.222-180 0 0-2.42 2.56 7.99 8.018-180 0 0-.87 3.83 7.493 7.52-180 0 0 .8 3.49 6.067 6.089-180 0 0 2.25 2.5 6.63 6.654-180 0 0 3.32.96l2.82 3.33h3.94l-3.98-3.69a6 6.022-180 0 0 3.12-2.63m-3.08-.87a3.315 3.327 0 0 1-5.07 0 5.006 5.024 0 0 1-.93-3.32 4.907 4.924 0 0 1 .96-3.33 3.05 3.06 0 0 1 2.58-1.23 2.95 2.961 0 0 1 2.49 1.23 5.37 5.39 0 0 1 .9 3.33 4.84 4.857 0 0 1-.93 3.42z" style="fill:#f2f2f2;stroke:none;stroke-width:34;stroke-linecap:butt"/></g><g transform="translate(35.143)"><title>Sheet.20182</title><path d="m12.3 124.58.8-2.63 1.55-.9 2.69 1.2 1.72-1.77v-.2l-1.22-2.36.73-1.66 2.68-.97h.3v-2.43h-.33l-2.65-.79-.87-1.53 1.16-2.73-1.75-1.7h-.2l-2.36 1.2-1.62-1-1.06-2.96H9.42v.36l-.8 2.63-1.69.74-2.89-1.34-1.69 1.77.17.33 1.26 2.46-.66 1.7-3.12.96v2.47h.36l2.62.79.73 1.7-1.29 2.86 1.76 1.73.3-.16 2.45-1.27 1.69.67 1.13 2.96h2.42zm-3.98-7.86a3.528 3.54 0 1 1 4.94-5.05 3.528 3.54 0 0 1-4.94 5.05" style="fill:#949494;stroke:none;stroke-width:34;stroke-linecap:butt"/></g></g></g></svg>