<svg xmlns="http://www.w3.org/2000/svg" xml:space="preserve" width="56.697" height="56.69" style="font-size:12px;overflow:visible;color-interpolation-filters:sRGB;fill-rule:evenodd;stroke-linecap:square;stroke-miterlimit:3" viewBox="0 0 56.697 56.69"><g transform="translate(-12.24 -12.244)"><title>Page-1</title><g transform="translate(12.24 -34.016)"><title>SQL Server Auditing.20262</title><title>Sheet.20263</title><title>Sheet.20264</title><path d="M33.34 100.11c0 1.59-1.25 2.84-2.84 2.84H2.83A2.81 2.81 0 0 1 0 100.11V49.09c0-1.59 1.25-2.83 2.83-2.83h27.56c1.58 0 2.83 1.24 2.83 2.83v51.02z" style="fill:#777;stroke:none;stroke-width:12.23999977;stroke-linecap:butt"/><g transform="translate(4.876 -22.45)"><title>Sheet.20265</title><path d="M0 99.32c0-2.04 1.59-3.63 3.63-3.63h16.55c2.04 0 3.63 1.59 3.63 3.63s-1.59 3.63-3.63 3.63H3.63c-2.04 0-3.63-1.59-3.63-3.63" style="fill:#1e1e1e;stroke:none;stroke-width:12.23999977;stroke-linecap:butt"/></g><g transform="translate(6.236 -23.698)"><title>Sheet.20266</title><circle cx="2.381" cy="100.568" r="2.381" style="fill:#b8d432;stroke:none;stroke-width:12.23999977;stroke-linecap:butt"/></g><g transform="translate(4.876 -33.222)"><title>Sheet.20267</title><path d="M0 99.32c0-2.04 1.59-3.63 3.63-3.63h16.55c2.04 0 3.63 1.59 3.63 3.63s-1.59 3.63-3.63 3.63H3.63c-2.04 0-3.63-1.59-3.63-3.63" style="fill:#1e1e1e;stroke:none;stroke-width:12.23999977;stroke-linecap:butt"/></g><g transform="translate(6.236 -34.47)"><title>Sheet.20268</title><circle cx="2.381" cy="100.568" r="2.381" style="fill:#b8d432;stroke:none;stroke-width:12.23999977;stroke-linecap:butt"/></g><g transform="translate(4.876 -43.88)"><title>Sheet.20269</title><path d="M0 99.32c0-2.04 1.59-3.63 3.63-3.63h16.55c2.04 0 3.63 1.59 3.63 3.63s-1.59 3.63-3.63 3.63H3.63c-2.04 0-3.63-1.7-3.63-3.63" style="fill:#1e1e1e;stroke:none;stroke-width:12.23999977;stroke-linecap:butt"/></g><g transform="translate(6.236 -45.128)"><title>Sheet.20270</title><circle cx="2.381" cy="100.568" r="2.381" style="fill:#b8d432;stroke:none;stroke-width:12.23999977;stroke-linecap:butt"/></g><g transform="translate(22.677)"><title>Sheet.20271</title><path d="M32.66 61H1.36C.57 61 0 61.56 0 62.36v39.23c0 .79.57 1.36 1.36 1.36h31.3c.79 0 1.36-.57 1.36-1.36V62.36c0-.8-.57-1.36-1.36-1.36" style="fill:#59b4d9;stroke:none;stroke-width:12.23999977;stroke-linecap:butt"/></g><g transform="translate(22.677)"><title>Sheet.20272</title><path d="M1.36 61C.57 61 0 61.56 0 62.36v39.23c0 .79.57 1.36 1.36 1.36H14.4L29.71 61Z" style="fill:#fff;fill-opacity:.09800002;stroke:none;stroke-width:12.23999977;stroke-linecap:butt"/></g><g transform="translate(39.912 -18.482)"><title>Sheet.20273</title><path d="M0 100.681h11.339v2.268H0z" style="fill:#fff;fill-opacity:.6;stroke:none;stroke-width:12.23999977;stroke-linecap:butt"/></g><g transform="translate(27.213 -16.328)"><title>Sheet.20274</title><path d="m.45 86.96-.34-.45c-.11-.12-.11-.23 0-.34l1.14-1.02s.11-.12.22-.12c.12 0 .12 0 .23.12l2.95 3.17 5.1-6.46c0-.11.11-.11.23-.11h.11l1.14.9s.11.12.11.23v.23L4.76 91.5Zm0 11.45-.34-.45c-.11-.11-.11-.23 0-.34l1.14-1.02s.11-.11.22-.11c.12 0 .12 0 .23.11l2.95 3.17 5.1-6.46c0-.11.11-.11.23-.11h.11l1.14.9s.11.12.11.23v.23l-6.58 8.39z" style="fill:#fff;stroke:none;stroke-width:12.23999977;stroke-linecap:butt"/></g><g transform="translate(39.912 -30.047)"><title>Sheet.20275</title><path d="M0 100.681h11.339v2.268H0z" style="fill:#fff;fill-opacity:.6;stroke:none;stroke-width:12.23999977;stroke-linecap:butt"/></g><g transform="translate(27.213 -3.855)"><title>Sheet.20276</title><path d="m.45 98.41-.34-.45c-.11-.11-.11-.23 0-.34l1.14-1.02s.11-.11.22-.11c.12 0 .12 0 .23.11l2.95 3.17 5.1-6.46c0-.11.11-.11.23-.11h.11l1.14.9s.11.12.11.23v.23l-6.58 8.39z" style="fill:#fff;stroke:none;stroke-width:12.23999977;stroke-linecap:butt"/></g><g transform="translate(39.912 -6.236)"><title>Sheet.20277</title><path d="M0 100.681h11.339v2.268H0z" style="fill:#fff;fill-opacity:.6;stroke:none;stroke-width:12.23999977;stroke-linecap:butt"/></g></g></g></svg>