<svg xmlns="http://www.w3.org/2000/svg" xml:space="preserve" width="56.697" height="51.024" style="font-size:12px;overflow:visible;color-interpolation-filters:sRGB;fill-rule:evenodd;stroke-linecap:square;stroke-miterlimit:3" viewBox="0 0 56.697 51.024"><defs><radialGradient id="b" cx="11.159" cy="154.278" r="16.294" fx="11.159" fy="154.278" gradientTransform="scale(1.3934 .71767)" gradientUnits="userSpaceOnUse"><stop offset="0" stop-color="#f2f2f2"/><stop offset=".58" stop-color="#eee"/><stop offset="1" stop-color="#e6e6e6"/></radialGradient><linearGradient id="a" x1="0" x2="41.272" y1="69.945" y2="69.945" gradientTransform="scale(.93672 1.06756)" gradientUnits="userSpaceOnUse"><stop offset="0" stop-color="#005ba1"/><stop offset=".07" stop-color="#0060a9"/><stop offset=".36" stop-color="#0071c8"/><stop offset=".52" stop-color="#0078d4"/><stop offset=".64" stop-color="#0074cd"/><stop offset=".82" stop-color="#006abb"/><stop offset="1" stop-color="#005ba1"/></linearGradient></defs><g transform="translate(-33.687 -33.69)"><title>Page-1</title><g transform="translate(33.687 -34.016)"><title>SQL Server Registry.20183</title><title>g52</title><title>g38</title><title>path28</title><path d="M19.35 81.64C8.58 81.64 0 78.52 0 74.67v37.09c0 3.81 8.58 6.93 19.08 6.97h.27c10.66 0 19.31-3.29 19.31-6.97V74.67c0 3.85-8.65 6.97-19.31 6.97" style="fill:url(#a);stroke:none;stroke-width:33.68659973;stroke-linecap:butt"/><g transform="translate(0 -37.084)"><title>path30</title><path d="M38.66 111.76c0 3.84-8.65 6.97-19.31 6.97C8.68 118.73 0 115.6 0 111.76c0-3.85 8.58-6.97 19.35-6.97 10.76 0 19.31 3.28 19.31 6.97" style="fill:#e8e8e8;stroke:none;stroke-width:33.68659973;stroke-linecap:butt"/></g><g transform="translate(4.524 -40.175)"><title>path32</title><path d="M29.65 114.29c0 2.43-6.6 4.44-14.82 4.44-8.23 0-14.83-2.01-14.83-4.44 0-2.44 6.6-4.44 14.83-4.44 8.22 0 14.82 1.97 14.82 4.44" style="fill:#50e6ff;stroke:none;stroke-width:33.68659973;stroke-linecap:butt"/></g><g transform="translate(7.594 -40.207)"><title>path34</title><path d="M11.75 115.34A36.09 35.934-180 0 0 0 116.98a34.604 34.454-180 0 0 11.75 1.75 34.372 34.224-180 0 0 11.73-1.75 35.858 35.703-180 0 0-11.73-1.64" style="fill:#198ab3;stroke:none;stroke-width:33.68659973;stroke-linecap:butt"/></g><g transform="translate(4.689 -12.789)"><title>path36</title><path d="M26.41 113.2v-10.12h-2.7v12.39h7.39v-2.27Zm-21.52-4.99a7.462 7.43 0 0 1-1.56-.92 1.453 1.447 0 0 1-.36-.99 1.156 1.15 0 0 1 .46-.92 2.113 2.104 0 0 1 1.29-.33 5.15 5.129 0 0 1 2.87.95v-2.66a8.123 8.088-180 0 0-3.03-.62 4.953 4.931-180 0 0-3.31 1.01A3.302 3.288-180 0 0 0 106.4a4.094 4.077-180 0 0 2.87 3.65 8.585 8.548 0 0 1 1.85 1.05 1.387 1.38 0 0 1 .46.98 1.057 1.052 0 0 1-.49.93 2.18 2.17 0 0 1-1.32.36 4.887 4.866 0 0 1-3.3-1.29v2.77a6.604 6.575-180 0 0 3.3.72 5.68 5.655-180 0 0 3.53-.99 3.302 3.288-180 0 0 1.29-2.73 3.038 3.025-180 0 0-.73-2.1 7.297 7.266-180 0 0-2.57-1.54m15.52 4.76a7.066 7.035-180 0 0 1.12-3.68 6.9 6.871-180 0 0-.76-3.29 5.481 5.457-180 0 0-2.08-2.23 6.108 6.082-180 0 0-3.11-1.05 6.34 6.312-180 0 0-3.3.82A5.448 5.425-180 0 0 10.1 106a7.858 7.825-180 0 0 0 6.58 5.68 5.655-180 0 0 2.08 2.23 6.604 6.575-180 0 0 2.94 1.06l2.58 2.86h3.63l-3.6-3.29a5.316 5.293-180 0 0 2.68-2.47m-2.81-.75a2.807 2.794 0 0 1-2.31 1.05 2.74 2.729 0 0 1-2.28-1.09 4.623 4.603 0 0 1-.73-2.89 4.524 4.504 0 0 1 .89-2.93 2.74 2.729 0 0 1 2.32-1.11 2.675 2.663 0 0 1 2.27 1.11 4.755 4.734 0 0 1 .83 2.96 4.49 4.471 0 0 1-.86 2.9z" style="fill:url(#b);stroke:none;stroke-width:33.68659973;stroke-linecap:butt"/></g><g transform="translate(33.811 -22.915)"><title>path40</title><path d="M13.01 90.95H.96a.958.953-180 0 0-.958.953L0 117.77a.958.953-180 0 0 .958.953l20.902.007a.958.953-180 0 0 .958-.953l.002-17.137a.958.953-180 0 0-.958-.953l-6.942.003a.958.953 0 0 1-.958-.953l.008-6.837a.958.953-180 0 0-.958-.953z" style="fill:#fff;stroke:none;stroke-width:33.68659973;stroke-linecap:butt"/></g><g transform="translate(33.547 -22.684)"><title>path42</title><path d="M12.84 91.93v6.58a2.377 2.367-180 0 0 2.38 2.36h6.61v16.44H1.45V91.93h11.3zm.37-1.41H.99a.958.953-180 0 0-.99.953v26.297a.958.953-180 0 0 .99.953l21.2.007a.958.953-180 0 0 .958-.953l.002-17.427a.958.953-180 0 0-.858-.888l-7.072-.002a.958.953 0 0 1-.958-.953l-.002-7.037a.958.953-180 0 0-.958-.953z" style="fill:#50e6ff"/><path d="M12.84 91.93v6.58a2.377 2.367-180 0 0 2.38 2.36h6.61v16.44H1.45V91.93h11.3m.46-1.41H.99a.958.953-180 0 0-.99.953v26.297a.958.953-180 0 0 .99.953l21.2.007a.958.953-180 0 0 .958-.953l.002-17.427a.958.953-180 0 0-.858-.888l-7.072-.002a.958.953 0 0 1-.958-.953l-.002-7.037a.958.953-180 0 0-.958-.953z" style="stroke:none;stroke-width:33.68659973;stroke-linecap:butt"/></g><g transform="translate(47.48 -41.95)"><title>path44</title><path d="M8.95 118.73 0 109.85v7.23a1.65 1.644-180 0 0 1.62 1.65z" style="fill:#32bedd;stroke:none;stroke-width:33.68659973;stroke-linecap:butt"/></g><g transform="translate(38.467 -33.994)"><title>rect46</title><path d="M0 117.84a.892.888-180 0 0 .892.888l11.688.002a.892.888-180 0 0 .892-.888.892.888-180 0 0-.892-.887L.89 116.95a.892.888-180 0 0-.892.888z" style="fill:#32bedd;stroke:none;stroke-width:33.68659973;stroke-linecap:butt"/></g><g transform="translate(38.467 -31.002)"><title>rect48</title><path d="M0 117.84a.892.888-180 0 0 .892.888l11.688.002a.892.888-180 0 0 .892-.888.892.888-180 0 0-.892-.887L.89 116.95a.892.888-180 0 0-.892.888z" style="fill:#32bedd;stroke:none;stroke-width:33.68659973;stroke-linecap:butt"/></g><g transform="translate(38.467 -28.076)"><title>rect50</title><path d="M0 117.9a.825.822-180 0 0 .825.822l5.585.008a.825.822-180 0 0 .825-.822.825.822-180 0 0-.825-.822l-5.58-.006a.825.822-180 0 0-.825.822z" style="fill:#32bedd;stroke:none;stroke-width:33.68659973;stroke-linecap:butt"/></g></g></g></svg>