<svg xmlns="http://www.w3.org/2000/svg" xml:space="preserve" width="56.696" height="48.192" style="font-size:12px;overflow:visible;color-interpolation-filters:sRGB;fill-rule:evenodd;stroke-linecap:square;stroke-miterlimit:3" viewBox="0 0 56.696 48.192"><defs><linearGradient id="a" x1="0" x2="34.875" y1="116.225" y2="116.225" gradientTransform="scale(1.30035 .76903)" gradientUnits="userSpaceOnUse"><stop offset="0" stop-color="#0078d4"/><stop offset=".5" stop-color="#4093e6"/><stop offset=".775" stop-color="#5ea0ef"/></linearGradient><linearGradient id="b" x1="0" x2="27.361" y1="77.756" y2="77.756" gradientTransform="scale(.90456 1.1055)" gradientUnits="userSpaceOnUse"><stop offset="0" stop-color="#1f9dc4"/><stop offset=".19" stop-color="#28b5d9"/><stop offset=".4" stop-color="#2dc6e9"/><stop offset=".57" stop-color="#31d1f2"/><stop offset=".81" stop-color="#32d4f5"/></linearGradient></defs><g transform="translate(-34 -33.997)"><title>Page-1</title><g transform="translate(34 -34.016)"><title>SQL Database Ledger.20397</title><title>g34</title><g transform="translate(0 -11.695)"><title>g24</title><title>path2</title><path d="M0 89.38h45.35v25.31a1.515 1.516 0 0 1-1.51 1.51H1.51A1.518 1.52 0 0 1 0 114.69Z" style="fill:url(#a);stroke:none;stroke-width:34;stroke-linecap:butt"/><g transform="translate(0 -26.822)"><title>path4</title><path d="M1.52 106.53h42.29a1.515 1.516 0 0 1 1.52 1.52v8.15H0v-8.15a1.515 1.516 0 0 1 1.51-1.52z" style="fill:#0078d4;stroke:none;stroke-width:34;stroke-linecap:butt"/></g><g transform="translate(4.813 -18.323)"><title>rect6</title><path d="M0 115.45a.756.757-180 0 0 .756.757l8.224-.007a.756.757-180 0 0 .756-.757l.004-3.423a.756.757-180 0 0-.756-.757L.76 111.26a.756.757-180 0 0-.756.757z" style="fill:#fff;fill-opacity:.9;stroke:none;stroke-width:34;stroke-linecap:butt"/></g><g transform="translate(17.874 -18.395)"><title>rect8</title><path d="M0 115.45a.756.757-180 0 0 .756.757l8.224-.007a.756.757-180 0 0 .756-.757l.004-3.423a.756.757-180 0 0-.756-.757L.76 111.26a.756.757-180 0 0-.756.757z" style="fill:#fff;fill-opacity:.9;stroke:none;stroke-width:34;stroke-linecap:butt"/></g><g transform="translate(30.932 -18.395)"><title>rect10</title><path d="M0 115.45a.756.757-180 0 0 .756.757l8.224-.007a.756.757-180 0 0 .756-.757l.004-3.423a.756.757-180 0 0-.756-.757L.76 111.26a.756.757-180 0 0-.756.757z" style="fill:#fff;fill-opacity:.9;stroke:none;stroke-width:34;stroke-linecap:butt"/></g><g transform="translate(4.957 -11.26)"><title>rect12</title><path d="M0 115.45a.756.757-180 0 0 .756.757l8.224-.007a.756.757-180 0 0 .756-.757l.004-3.423a.756.757-180 0 0-.756-.757L.76 111.26a.756.757-180 0 0-.756.757z" style="fill:#fff;fill-opacity:.9;stroke:none;stroke-width:34;stroke-linecap:butt"/></g><g transform="translate(18.016 -11.33)"><title>rect14</title><path d="M0 115.45a.756.757-180 0 0 .756.757l8.224-.007a.756.757-180 0 0 .756-.757l.004-3.423a.756.757-180 0 0-.756-.757L.76 111.26a.756.757-180 0 0-.756.757z" style="fill:#ffd400;stroke:none;stroke-width:34;stroke-linecap:butt"/></g><g transform="translate(31.077 -11.33)"><title>rect16</title><path d="M0 115.45a.756.757-180 0 0 .756.757l8.224-.007a.756.757-180 0 0 .756-.757l.004-3.423a.756.757-180 0 0-.756-.757L.76 111.26a.756.757-180 0 0-.756.757z" style="fill:#ffd400;stroke:none;stroke-width:34;stroke-linecap:butt"/></g><g transform="translate(4.957 -4.127)"><title>rect18</title><path d="M0 115.45a.756.757-180 0 0 .756.757l8.224-.007a.756.757-180 0 0 .756-.757l.004-3.423a.756.757-180 0 0-.756-.757L.76 111.26a.756.757-180 0 0-.756.757z" style="fill:#ffd400;stroke:none;stroke-width:34;stroke-linecap:butt"/></g><g transform="translate(18.016 -4.196)"><title>rect20</title><path d="M0 115.45a.756.757-180 0 0 .756.757l8.224-.007a.756.757-180 0 0 .756-.757l.004-3.423a.756.757-180 0 0-.756-.757L.76 111.26a.756.757-180 0 0-.756.757z" style="fill:#ffd400;stroke:none;stroke-width:34;stroke-linecap:butt"/></g><g transform="translate(31.077 -4.196)"><title>rect22</title><path d="M0 115.45a.756.757-180 0 0 .756.757l8.224-.007a.756.757-180 0 0 .756-.757l.004-3.423a.756.757-180 0 0-.756-.757L.76 111.26a.756.757-180 0 0-.756.757z" style="fill:#ffd400;stroke:none;stroke-width:34;stroke-linecap:butt"/></g></g><g transform="translate(29.726)"><title>path26</title><path d="M26.97 98.62c0 8.87-10.71 16.01-13.04 17.46a.85.851 0 0 1-.888 0C10.71 114.63 0 107.49 0 98.62V87.96a.85.851 0 0 1 .828-.848C9.16 86.89 7.24 83.23 13.48 83.23c6.25 0 4.33 3.66 12.66 3.88a.85.851 0 0 1 .828.848z" style="fill:#0078d4;stroke:none;stroke-width:34;stroke-linecap:butt"/></g><g transform="translate(30.828 -1.344)"><title>path28</title><path d="M24.75 100.07c0 8.14-9.82 14.69-11.97 16.02a.76.76 0 0 1-.813 0C9.83 114.76 0 108.21 0 100.07V90.3a.775.776 0 0 1 .76-.776c7.64-.204 5.88-3.564 11.61-3.564 5.72 0 3.96 3.36 11.6 3.57a.781.782 0 0 1 .762.776z" style="fill:url(#b);stroke:none;stroke-width:34;stroke-linecap:butt"/></g><g transform="translate(36.74 -10.932)"><title>path30</title><path d="m14.34 106.07-.68-.69a1.172 1.173-180 0 0-1.65 0L5.4 112l-2.72-2.72a1.165 1.165-180 0 0-1.65 0l-.69.68a1.17 1.17-180 0 0 0 1.66l4.24 4.24a1.16 1.16-180 0 0 .82.34 1.18 1.18-180 0 0 .83-.34l8.12-8.14a1.165 1.165-180 0 0-.01-1.65" style="fill:#0078d4;stroke:none;stroke-width:34;stroke-linecap:butt"/></g></g></g></svg>