<svg xmlns="http://www.w3.org/2000/svg" xml:space="preserve" width="56.697" height="56.702" style="font-size:12px;overflow:visible;color-interpolation-filters:sRGB;fill-rule:evenodd;stroke-linecap:square;stroke-miterlimit:3" viewBox="0 0 56.697 56.702"><defs><linearGradient id="a" x1="0" x2="43.012" y1="51.943" y2="51.943" gradientTransform="scale(.76141 1.31335)" gradientUnits="userSpaceOnUse"><stop offset="0" stop-color="#949494"/><stop offset=".53" stop-color="#a2a2a2"/><stop offset="1" stop-color="#b3b3b3"/></linearGradient><linearGradient id="b" x1="0" x2="42.086" y1="105.373" y2="105.373" gradientTransform="scale(1.18234 .84578)" gradientUnits="userSpaceOnUse"><stop offset="0" stop-color="#0078d4"/><stop offset=".16" stop-color="#1380da"/><stop offset=".53" stop-color="#3c91e5"/><stop offset=".82" stop-color="#559cec"/><stop offset="1" stop-color="#5ea0ef"/></linearGradient></defs><g transform="translate(-34 -34.001)"><title>Page-1</title><g transform="translate(34 -34.016)"><title>SQL Managed Instance.20278</title><title>Icon-databases-136</title><g transform="translate(0 -.203)"><title>Sheet.20280</title><path d="M32.75 122.78a1.934 1.96 0 0 1-1.9 1.93H1.9a1.9 1.926 0 0 1-1.9-1.93V70.14a1.868 1.892 0 0 1 1.9-1.92h28.95a1.9 1.926 0 0 1 1.9 1.92z" style="fill:url(#a);stroke:none;stroke-width:34;stroke-linecap:butt"/></g><g transform="translate(4.802 -33.28)"><title>Sheet.20281</title><path d="M0 121.09a3.568 3.615 0 0 1 3.53-3.58h16.35a3.568 3.615 0 0 1 3.66 3.58 3.568 3.615 0 0 1-3.66 3.62H3.53A3.568 3.615 0 0 1 0 121.09m0-10.67a3.568 3.615 0 0 1 3.53-3.62h16.35a3.568 3.615 0 0 1 3.66 3.62 3.568 3.615 0 0 1-3.66 3.58H3.53A3.568 3.615 0 0 1 0 110.42" style="fill:#003067;stroke:none;stroke-width:34;stroke-linecap:butt"/></g><g transform="translate(6.136 -45.138)"><title>Sheet.20282</title><ellipse cx="2.401" cy="122.276" rx="2.401" ry="2.433" style="fill:#50e6ff;stroke:none;stroke-width:34;stroke-linecap:butt"/></g><g transform="translate(6.136 -34.462)"><title>Sheet.20283</title><ellipse cx="2.401" cy="122.276" rx="2.401" ry="2.433" style="fill:#50e6ff;stroke:none;stroke-width:34;stroke-linecap:butt"/></g><g transform="translate(6.937)"><title>Sheet.20284</title><path d="M49.76 113.53a11.205 11.352-180 0 0-9.71-10.88 14.073 14.258-180 0 0-14.5-13.52 14.407 14.596-180 0 0-13.81 9.39A13.34 13.514-180 0 0 0 111.53a13.54 13.717-180 0 0 14.01 13.18h24.64a11.305 11.454-180 0 0 11.11-11.18" style="fill:url(#b);stroke:none;stroke-width:34;stroke-linecap:butt"/></g><g transform="translate(14.84 -3.75)"><title>Sheet.20285</title><path d="M28.88 118.53v-11.36h-3.1v13.92h8.17v-2.56zM5.2 112.95a7.437 7.534 0 0 1-1.7-1.05 1.467 1.487 0 0 1-.4-1.08 1.134 1.149 0 0 1 .5-1.01 2.201 2.23 0 0 1 1.4-.41 5.536 5.608 0 0 1 3.34.98v-2.9a9.638 9.764-180 0 0-3.34-.51 5.636 5.71-180 0 0-3.63 1.12 3.668 3.716-180 0 0-1.37 3 4.469 4.527-180 0 0 3.13 4.06 8.37 8.48 0 0 1 2.04 1.21 1.4 1.419 0 0 1 .5 1.08 1.134 1.149 0 0 1-.5 1.02 2.501 2.534 0 0 1-1.5.4 5.436 5.507 0 0 1-3.6-1.42v3.11a7.503 7.602-180 0 0 3.43.78 6.37 6.453-180 0 0 3.84-.95 3.568 3.615-180 0 0 1.43-3.07 3.335 3.379-180 0 0-.83-2.37 7.87 7.974-180 0 0-2.74-1.99m17.21 5.34a7.904 8.007-180 0 0 1.1-4.26 7.604 7.703-180 0 0-.83-3.78 5.903 5.98-180 0 0-2.3-2.5 6.47 6.554-180 0 0-3.54-.88 7.37 7.467-180 0 0-3.33.98 6.236 6.318-180 0 0-2.44 2.6 8.404 8.514-180 0 0-.9 3.85 7.537 7.636-180 0 0 .8 3.55 6.236 6.318-180 0 0 2.27 2.5 6.67 6.757-180 0 0 3.33.98l2.84 3.38h4l-3.97-3.72a6.07 6.149-180 0 0 2.97-2.7m-3.1-.85a3.068 3.108 0 0 1-2.54 1.19 3.035 3.075 0 0 1-2.5-1.22 5.002 5.068 0 0 1-.93-3.38 4.869 4.933 0 0 1 .97-3.38 3.068 3.108 0 0 1 2.56-1.25 2.868 2.906 0 0 1 2.47 1.25 5.136 5.203 0 0 1 .94 3.38 4.902 4.967 0 0 1-.97 3.41" style="fill:#f2f2f2;stroke:none;stroke-width:34;stroke-linecap:butt"/></g></g></g></svg>