<svg xmlns="http://www.w3.org/2000/svg" xmlns:xlink="http://www.w3.org/1999/xlink" xml:space="preserve" width="56.693" height="56.694" style="font-size:12px;overflow:visible;color-interpolation-filters:sRGB;fill-rule:evenodd;stroke-linecap:square;stroke-miterlimit:3" viewBox="0 0 56.693 56.694"><defs><linearGradient id="b" x1="0" x2="45.633" y1="44.659" y2="44.659" gradientTransform="scale(.93683 1.06743)" gradientUnits="userSpaceOnUse"><stop offset="0" stop-color="#005ba1"/><stop offset=".07" stop-color="#0060a9"/><stop offset=".36" stop-color="#0071c8"/><stop offset=".52" stop-color="#0078d4"/><stop offset=".64" stop-color="#0074cd"/><stop offset=".82" stop-color="#006abb"/><stop offset="1" stop-color="#005ba1"/></linearGradient><linearGradient id="a" x1="0" x2="1" y1="0" y2="0" gradientTransform="rotate(-90 .5 .5)"><stop offset="0" stop-color="#5e9624"/><stop offset=".255" stop-color="#619c25"/><stop offset=".51" stop-color="#76bc2d"/><stop offset=".91" stop-color="#86d633"/><stop offset="1" stop-color="#86d633"/></linearGradient><linearGradient xlink:href="#a" id="c" x1="0" x2="21.49" y1="75.129" y2="75.129" gradientTransform="scale(1.0025 .9975)" gradientUnits="userSpaceOnUse"/><linearGradient xlink:href="#a" id="d" x1="0" x2="21.49" y1="75.129" y2="75.129" gradientTransform="scale(1.0025 .9975)" gradientUnits="userSpaceOnUse"/></defs><g transform="translate(-5.67 -5.668)"><title>Page-1</title><g transform="translate(5.67 -34.016)"><title>SSIS Integration Runtime.20151</title><title>Sheet.20152</title><path d="M0 39.967h56.693v56.411H0z" style="fill:none;stroke:none;stroke-width:.47999999;stroke-linecap:butt"/><g transform="translate(7.14 -.282)"><title>Sheet.20153</title><path d="M21.38 55.36C9.57 55.36 0 52.05 0 47.67v41.01c0 4.21 9.4 7.63 21.08 7.7h.3c11.8 0 21.37-3.32 21.37-7.7V47.67c0 4.28-9.57 7.69-21.37 7.69" style="fill:url(#b);stroke:none;stroke-width:.47999999;stroke-linecap:butt"/></g><g transform="translate(7.138 -41.296)"><title>Sheet.20154</title><path d="M42.75 88.68c0 4.28-9.57 7.7-21.37 7.7S0 93.06 0 88.68s9.57-7.7 21.38-7.7 21.37 3.32 21.37 7.7" style="fill:#e8e8e8;stroke:none;stroke-width:.47999999;stroke-linecap:butt"/></g><g transform="translate(12.107 -44.714)"><title>Sheet.20155</title><path d="M32.81 91.47c0 2.72-7.37 4.91-16.4 4.91C7.37 96.38 0 94.19 0 91.47s7.37-4.88 16.41-4.88c9.03 0 16.4 2.19 16.4 4.88" style="fill:#50e6ff;stroke:none;stroke-width:.47999999;stroke-linecap:butt"/></g><g transform="translate(15.544 -44.714)"><title>Sheet.20156</title><path d="M12.97 92.69A38.521 38.33-180 0 0 0 94.59a38.077 37.888-180 0 0 12.97 1.79 37.18 36.994-180 0 0 12.97-1.93 39.465 39.269-180 0 0-12.97-1.76" style="fill:#198ab3;stroke:none;stroke-width:.47999999;stroke-linecap:butt"/></g><g transform="translate(35.15 -.989)"><title>Sheet.20157</title><ellipse cx="10.772" cy="85.66" rx="10.772" ry="10.718" style="fill:url(#c);stroke:none;stroke-width:.47999999;stroke-linecap:butt"/></g><g transform="translate(37.727 -10.953)"><title>Sheet.20158</title><path d="M0 94.871h2.039v1.507H0z" style="fill:#fff;stroke:none;stroke-width:.47999999;stroke-linecap:butt"/></g><g transform="translate(52.076 -10.953)"><title>Sheet.20159</title><path d="M0 94.871h2.039v1.507H0z" style="fill:#fff;stroke:none;stroke-width:.47999999;stroke-linecap:butt"/></g><g transform="translate(39.747 -7.112)"><title>Sheet.20160</title><path d="M6.69 96.33v-3.2H3.4v-5.89l-1.88.01A1.53 1.523-180 0 0 0 88.78l.04 6.09a1.53 1.523-180 0 0 1.53 1.51h.01z" style="fill:#fff"/><path d="M6.69 96.33v-3.2H3.4v-5.89l-1.88.01A1.53 1.523-180 0 0 0 88.78l.04 6.09a1.53 1.523-180 0 0 1.53 1.51h.01" style="stroke:none;stroke-width:.47999999;stroke-linecap:butt"/></g><g transform="translate(45.504 -7.157)"><title>Sheet.20161</title><path d="M0 87.28v3.55h3.3v5.55l1.77-.01a1.53 1.523-180 0 0 1.52-1.54l-.04-6.08a1.53 1.523-180 0 0-1.53-1.51h-.01Z" style="fill:#fff"/><path d="M0 87.28v3.55h3.3v5.55l1.77-.01a1.53 1.523-180 0 0 1.52-1.54l-.04-6.08a1.53 1.523-180 0 0-1.53-1.51h-.01" style="stroke:none;stroke-width:.47999999;stroke-linecap:butt"/></g><g transform="translate(35.15 -.989)"><title>Sheet.20162</title><ellipse cx="10.772" cy="85.66" rx="10.772" ry="10.718" style="fill:url(#d);stroke:none;stroke-width:.47999999;stroke-linecap:butt"/></g><g transform="translate(37.727 -10.953)"><title>Sheet.20163</title><path d="M0 94.871h2.039v1.507H0z" style="fill:#fff;stroke:none;stroke-width:.47999999;stroke-linecap:butt"/></g><g transform="translate(52.076 -10.953)"><title>Sheet.20164</title><path d="M0 94.871h2.039v1.507H0z" style="fill:#fff;stroke:none;stroke-width:.47999999;stroke-linecap:butt"/></g><g transform="translate(39.747 -7.112)"><title>Sheet.20165</title><path d="M6.69 96.33v-3.2H3.4v-5.89l-1.88.01A1.53 1.523-180 0 0 0 88.78l.04 6.09a1.53 1.523-180 0 0 1.53 1.51h.01z" style="fill:#fff"/><path d="M6.69 96.33v-3.2H3.4v-5.89l-1.88.01A1.53 1.523-180 0 0 0 88.78l.04 6.09a1.53 1.523-180 0 0 1.53 1.51h.01" style="stroke:none;stroke-width:.47999999;stroke-linecap:butt"/></g><g transform="translate(45.504 -7.157)"><title>Sheet.20166</title><path d="M0 87.28v3.55h3.3v5.55l1.77-.01a1.53 1.523-180 0 0 1.52-1.54l-.04-6.08a1.53 1.523-180 0 0-1.53-1.51h-.01Z" style="fill:#fff"/><path d="M0 87.28v3.55h3.3v5.55l1.77-.01a1.53 1.523-180 0 0 1.52-1.54l-.04-6.08a1.53 1.523-180 0 0-1.53-1.51h-.01" style="stroke:none;stroke-width:.47999999;stroke-linecap:butt"/></g><g transform="translate(32.513 -1.708)"><title>Sheet.20167</title><title>Sheet.20168</title><ellipse cx="11.206" cy="85.228" rx="11.206" ry="11.15" style="fill:#fff;stroke:none;stroke-width:.47999999;stroke-linecap:butt"/><g transform="translate(1.701 -2.069)"><title>Sheet.20169</title><path d="M9.51 77.84A9.505 9.458 0 1 1 0 87.3a9.505 9.457 0 0 1 9.51-9.46m0-3.39a12.907 12.843-180 1 0 12.9 12.85 12.92 12.857-180 0 0-12.9-12.85" style="fill:#212121;stroke:none;stroke-width:.47999999;stroke-linecap:butt"/></g></g><g transform="translate(35.698 -8.176)"><title>Sheet.20170</title><g transform="translate(0 -3.853)"><title>Sheet.20171</title><path d="M0 94.866h2.045v1.512H0z" style="fill:#76bc2d;stroke:none;stroke-width:.47999999;stroke-linecap:butt"/></g><g transform="translate(14.389 -3.853)"><title>Sheet.20172</title><path d="M0 94.866h2.045v1.512H0z" style="fill:#76bc2d;stroke:none;stroke-width:.47999999;stroke-linecap:butt"/></g><g transform="translate(2.025)"><title>Sheet.20173</title><path d="M6.71 96.33v-3.21H3.4v-5.91l-1.88.01A1.53 1.523-180 0 0 0 88.76l.04 6.1a1.535 1.527-180 0 0 1.53 1.52h.01z" style="fill:#76bc2d"/><path d="M6.71 96.33v-3.21H3.4v-5.91l-1.88.01A1.53 1.523-180 0 0 0 88.76l.04 6.1a1.535 1.527-180 0 0 1.53 1.52h.01" style="stroke:none;stroke-width:.47999999;stroke-linecap:butt"/></g><g transform="translate(7.799 -.05)"><title>Sheet.20174</title><path d="M0 87.25v3.57h3.31v5.56l1.78-.01a1.53 1.523-180 0 0 1.52-1.54l-.04-6.1a1.535 1.528-180 0 0-1.53-1.52h-.01Z" style="fill:#76bc2d"/><path d="M0 87.25v3.57h3.31v5.56l1.78-.01a1.53 1.523-180 0 0 1.52-1.54l-.04-6.1a1.535 1.528-180 0 0-1.53-1.52h-.01" style="stroke:none;stroke-width:.47999999;stroke-linecap:butt"/></g></g></g></g></svg>