<svg xmlns="http://www.w3.org/2000/svg" xml:space="preserve" width="56.69" height="51.038" style="font-size:12px;overflow:visible;color-interpolation-filters:sRGB;fill-rule:evenodd;stroke-linecap:square;stroke-miterlimit:3" viewBox="0 0 56.69 51.038"><defs><linearGradient id="a" x1="0" x2="47.279" y1="95.459" y2="95.459" gradientTransform="scale(1.19905 .834)" gradientUnits="userSpaceOnUse"><stop offset="0" stop-color="#0078d4"/><stop offset=".16" stop-color="#1380da"/><stop offset=".53" stop-color="#3c91e5"/><stop offset=".82" stop-color="#559cec"/><stop offset="1" stop-color="#5ea0ef"/></linearGradient></defs><g transform="translate(-34 -33.997)"><title>Page-1</title><g transform="translate(34 -34.016)"><title>StorSimple Device Manager.20142</title><title>Sheet.20143</title><g transform="translate(0 -11.6)"><title>Sheet.20144</title><path d="M56.69 106.68a12.787 12.54-180 0 0-11.05-12.02A16.063 15.752-180 0 0 29.1 79.62a16.472 16.153-180 0 0-15.75 10.54A15.181 14.887-180 0 0 0 104.49a15.433 15.134-180 0 0 15.97 14.54h27.24a4.598 4.51-180 0 0 .7 0 12.913 12.663-180 0 0 12.78-12.35" style="fill:url(#a);stroke:none;stroke-width:34;stroke-linecap:butt"/></g><g transform="translate(29.07)"><title>Sheet.20145</title><path d="M0 118.12a.945.927-180 0 0 .945.927l11.495.003a.945.927-180 0 0 .945-.927l.005-.933a.945.927-180 0 0-.945-.927L.94 116.27a.945.927-180 0 0-.945.927z" style="fill:#198ab3;stroke:none;stroke-width:34;stroke-linecap:butt"/></g><g transform="translate(29.07 -5.9)"><title>Sheet.20146</title><path d="M0 118.12a.945.927-180 0 0 .945.927l11.495.003a.945.927-180 0 0 .945-.927l.005-.933a.945.927-180 0 0-.945-.927L.94 116.27a.945.927-180 0 0-.945.927z" style="fill:#32bedd;stroke:none;stroke-width:34;stroke-linecap:butt"/></g><g transform="translate(29.07 -11.768)"><title>Sheet.20147</title><path d="M0 118.12a.945.927-180 0 0 .945.927l11.495.003a.945.927-180 0 0 .945-.927l.005-.933a.945.927-180 0 0-.945-.927L.94 116.27a.945.927-180 0 0-.945.927z" style="fill:#50e6ff;stroke:none;stroke-width:34;stroke-linecap:butt"/></g><g transform="translate(15.59 -26.438)"><title>Sheet.20148</title><path d="M0 118.12a.945.927-180 0 0 .945.927l11.495.003a.945.927-180 0 0 .945-.927l.005-.933a.945.927-180 0 0-.945-.927L.94 116.27a.945.927-180 0 0-.945.927z" style="fill:#f2f2f2;stroke:none;stroke-width:34;stroke-linecap:butt"/></g><g transform="translate(15.59 -21.033)"><title>Sheet.20149</title><path d="M0 118.12a.945.927-180 0 0 .945.927l11.495.003a.945.927-180 0 0 .945-.927l.005-.933a.945.927-180 0 0-.945-.927L.94 116.27a.945.927-180 0 0-.945.927z" style="fill:#f2f2f2;stroke:none;stroke-width:34;stroke-linecap:butt"/></g><g transform="translate(15.59 -15.597)"><title>Sheet.20150</title><path d="M0 118.12a.945.927-180 0 0 .945.927l11.495.003a.945.927-180 0 0 .945-.927l.005-.933a.945.927-180 0 0-.945-.927L.94 116.27a.945.927-180 0 0-.945.927z" style="fill:#f2f2f2;stroke:none;stroke-width:34;stroke-linecap:butt"/></g></g></g></svg>