<svg xmlns="http://www.w3.org/2000/svg" xml:space="preserve" width="56.697" height="56.682" style="font-size:12px;overflow:visible;color-interpolation-filters:sRGB;fill-rule:evenodd;stroke-linecap:square;stroke-miterlimit:3" viewBox="0 0 56.697 56.682"><defs><linearGradient id="a" x1="0" x2="56.27" y1="65.784" y2="65.784" gradientTransform="scale(.99272 1.00733)" gradientUnits="userSpaceOnUse"><stop offset="0" stop-color="#b3b2b3"/><stop offset=".215" stop-color="#afaeaf"/><stop offset=".44" stop-color="#a2a2a2"/><stop offset=".575" stop-color="#979797"/></linearGradient></defs><g transform="translate(-32.25 -32.25)"><title>Page-1</title><g transform="translate(32.248 -34.016)"><title>Time Series Insights Environment.20138</title><title>a96c4dc0-0b65-4066-a8fa-5efc74b</title><g transform="translate(.406)"><title>path15</title><path d="M0 87.05a28.979 28.339 0 0 1 55.86 0h-5.53a23.709 23.185-180 0 0-44.82 0zm50.23 15.46a23.716 23.192 0 0 1-44.6 0H.1a28.979 28.339-180 0 0 55.66 0z" style="fill:url(#a);stroke:none;stroke-width:32.24750137;stroke-linecap:butt"/></g><g transform="translate(0 -15.18)"><title>path17</title><path d="m30.42 122.96-6.95-15.3-2.93 4.95H2.64a2.638 2.58 0 0 1 0-5.16H17.5l6.59-11.13L31.67 113l4.47-5.61 17.92.04a2.638 2.58 0 0 1 0 5.16l-15.33-.04z" style="fill:#50e6ff;stroke:none;stroke-width:32.24750137;stroke-linecap:butt"/></g></g></g></svg>