<svg xmlns="http://www.w3.org/2000/svg" xml:space="preserve" width="42.504" height="56.637" style="font-size:12px;overflow:visible;color-interpolation-filters:sRGB;fill-rule:evenodd;stroke-linecap:square;stroke-miterlimit:3" viewBox="0 0 42.504 56.637"><defs><linearGradient id="a" x1=".011" x2="45.622" y1="70.536" y2="70.536" gradientTransform="scale(.93179 1.0732)" gradientUnits="userSpaceOnUse"><stop offset="0" stop-color="#005ba1"/><stop offset=".07" stop-color="#0060a9"/><stop offset=".355" stop-color="#0071c8"/><stop offset=".82" stop-color="#006abb"/><stop offset="1" stop-color="#005ba1"/></linearGradient></defs><g transform="translate(-34 -33.998)"><title>Page-1</title><g transform="translate(33.99 -34.016)"><title>Time Series Insights Reference Data Set.20124</title><title>MsPortalFx.base.images-9</title><title>Sheet.20126</title><path d="M21.29 83.49C9.59 83.46.1 79.97.12 75.7l-.11 41.16c-.01 4.23 9.32 7.7 20.89 7.79h.29c11.7.03 21.2-3.41 21.21-7.68l.11-41.16c-.01 4.27-9.51 7.71-21.22 7.68" style="fill:url(#a);stroke:none;stroke-width:34;stroke-linecap:butt"/><g transform="translate(.104 -41.157)"><title>Sheet.20127</title><path d="M42.41 116.96c0 4.28-9.52 7.72-21.22 7.69C9.48 124.61 0 121.13.01 116.86c.02-4.28 9.53-7.72 21.22-7.69s21.19 3.52 21.18 7.79" style="fill:#e6e6e6;stroke:none;stroke-width:34;stroke-linecap:butt"/></g><g transform="translate(5.059 -44.608)"><title>Sheet.20128</title><path d="M32.5 119.78c0 2.71-7.28 4.9-16.26 4.87-8.97-.02-16.24-2.24-16.23-4.96 0-2.71 7.28-4.9 16.26-4.86 8.97.03 16.24 2.24 16.23 4.96z" style="fill:#50e6ff"/><path d="M32.5 119.78c0 2.71-7.28 4.9-16.26 4.87-8.97-.02-16.24-2.24-16.23-4.96 0-2.71 7.28-4.9 16.26-4.86 8.97.03 16.24 2.24 16.23 4.96" style="stroke:none;stroke-width:34;stroke-linecap:butt"/></g><g transform="translate(8.435 -44.633)"><title>Sheet.20129</title><path d="M12.88 120.89A39.072 39.146-180 0 0 0 122.73a37.728 37.8-180 0 0 12.88 1.95 37.8 37.872-180 0 0 12.87-1.89 39.043 39.118-180 0 0-12.87-1.9" style="fill:#198ab3;stroke:none;stroke-width:34;stroke-linecap:butt"/></g><g transform="translate(7.05 -15.052)"><title>Sheet.20130</title><path d="M0 124.68v-16.24h5.73c5.76 0 8.63 2.63 8.63 7.91a7.995 8.01 0 0 1-2.35 6.06 8.686 8.703 0 0 1-6.28 2.27zm3.65-13.26v10.29h1.81a4.896 4.905-180 0 0 3.73-1.43 5.41 5.421-180 0 0 1.35-3.88 4.908 4.918-180 0 0-1.35-3.65 5.103 5.113-180 0 0-3.77-1.33zm13.42 13.26v-16.24h5.9a7.373 7.387 0 0 1 4.17.99 3.197 3.203 0 0 1 1.46 2.81 3.313 3.32 0 0 1-.89 2.29 4.676 4.685 0 0 1-2.26 1.37v.05a4.487 4.496 0 0 1 2.76 1.28 3.561 3.568 0 0 1 1.03 2.59 4.327 4.336 0 0 1-1.59 3.54 6.67 6.683 0 0 1-4.35 1.31zm3.65-13.53V115h1.6a2.682 2.687-180 0 0 1.78-.55 1.862 1.866-180 0 0 .65-1.51c0-1.2-.88-1.79-2.66-1.79zm0 6.56V122h1.97a3.04 3.046-180 0 0 1.98-.59 1.96 1.963-180 0 0 .72-1.61 1.828 1.831-180 0 0-.7-1.53 3.121 3.127-180 0 0-1.98-.56z" style="fill:#f2f2f2;stroke:none;stroke-width:34;stroke-linecap:butt"/></g></g></g></svg>