<svg xmlns="http://www.w3.org/2000/svg" xml:space="preserve" width="56.69" height="56.69" style="font-size:12px;overflow:visible;color-interpolation-filters:sRGB;fill-rule:evenodd;stroke-linecap:square;stroke-miterlimit:3" viewBox="0 0 56.69 56.69"><defs><linearGradient id="a" x1="0" x2="28.975" y1="95.353" y2="95.353" gradientTransform="scale(1.00467 .99535)" gradientUnits="userSpaceOnUse"><stop offset="0" stop-color="#198ab3"/><stop offset=".4" stop-color="#25aed3"/><stop offset=".78" stop-color="#2fcaec"/><stop offset="1" stop-color="#32d4f5"/></linearGradient></defs><g transform="translate(-33.046 -33.044)"><title>Page-1</title><g transform="translate(33.046 -34.016)"><title>Time Series Insights Event Source.20131</title><g transform="translate(13.874 -13.91)"><title>rect15</title><path d="M0 122.4a1.364 1.351-180 0 0 1.36 1.35h26.39a1.364 1.351-180 0 0 1.36-1.35V96.27a1.364 1.351-180 0 0-1.36-1.36H1.36A1.364 1.351-180 0 0 0 96.27Z" style="fill:url(#a);stroke:none;stroke-width:33.04610062;stroke-linecap:butt"/></g><title>path17</title><g transform="translate(13.874 -17.855)"><title>path19</title><path d="m23.72 123.74 14.57-10.11a.433.428-180 0 0 0-.725L23.72 102.81a.433.428-180 0 0-.699.363l-.001 5.807H0v8.57h23.02v5.83a.466.461-180 0 0 .699.363z" style="fill:#c3f1ff;stroke:none;stroke-width:33.04610062;stroke-linecap:butt"/></g><title>path21</title><path d="M54.96 123.75H1.73A1.73 1.714 0 0 1 0 122.04V68.78a1.73 1.714 0 0 1 1.73-1.72h53.23a1.73 1.714 0 0 1 1.73 1.72v16.74a.865.857 0 0 1-1.364.725L52 83.94a.898.89 0 0 1-.366-.725l.006-10.875H5.26v46.14h46.18v-10.55a.865.857 0 0 1 .366-.692l3.324-2.398a.865.857 0 0 1 1.364.725l-.004 16.475a1.73 1.714 0 0 1-1.53 1.71" style="fill:#949494;stroke:none;stroke-width:33.04610062;stroke-linecap:butt"/><g transform="translate(51.436 -37.457)"><title>path23</title><path d="M0 109.79v10.72a.898.89-180 0 0 .366.725l3.324 2.305a.865.857-180 0 0 1.497-.56l.003-13.19Z" style="fill:#767676;stroke:none;stroke-width:33.04610062;stroke-linecap:butt"/></g><g transform="translate(51.436 -5.109)"><title>path25</title><path d="M0 123.59v-10.71a.832.824 0 0 1 .366-.692l3.324-2.338a.898.89 0 0 1 1.364.725l.006 13.175Z" style="fill:#767676;stroke:none;stroke-width:33.04610062;stroke-linecap:butt"/></g></g></g></svg>