<svg xmlns="http://www.w3.org/2000/svg" xml:space="preserve" width="56.69" height="39.697" style="font-size:12px;overflow:visible;color-interpolation-filters:sRGB;fill-rule:evenodd;stroke-linecap:square;stroke-miterlimit:3" viewBox="0 0 56.69 39.697"><defs><linearGradient id="a" x1="0" x2="47.439" y1="105.397" y2="105.397" gradientTransform="scale(1.19502 .8368)" gradientUnits="userSpaceOnUse"><stop offset=".18" stop-color="#5ea0ef"/><stop offset="1" stop-color="#0078d4"/></linearGradient></defs><g transform="translate(-44.097 -44.096)"><title>Page-1</title><g transform="translate(44.097 -44.101)"><title>Video Analyzer.20107</title><title>g12</title><title>path10</title><path d="M56.69 115.4a12.892 12.482-180 0 0-11.03-12 16.24 15.722-180 0 0-16.53-15.2 16.529 16.002-180 0 0-15.82 10.64A15.289 14.802-180 0 0 0 113.2a15.578 15.082-180 0 0 15.95 14.69h27.97a13.016 12.602-180 0 0 12.77-12.49" style="fill:url(#a);stroke:none;stroke-width:44.09700012;stroke-linecap:butt"/><g transform="translate(12.36 -6.878)"><title>path6</title><path d="m30.93 118.85-14.37-5.17-.37.9.23-.82-12.76-2.72-.61 2.07 10.77 2.26L0 120.9l1.06 1.84L15.33 117l2.55 10.89 2.21-.27-2.6-11.23 12.6 4.46z" style="fill:#83b9f9;stroke:none;stroke-width:10.98820019;stroke-linecap:butt"/></g><g transform="translate(10.605 -5.194)"><title>path8</title><path d="M3.2 112.22a2.822 2.732-180 1 0 .5-3.84l-.06.05a2.803 2.713-180 0 0-.44 3.79M0 121.88a2.839 2.748-180 1 0 4.46-3.4 2.839 2.748-180 0 0-4.46 3.4m29.67-2.39a2.81 2.72-180 1 0 .5-3.8 2.778 2.69-180 0 0-.52 3.76zm-11.15 8.4a2.809 2.72-180 1 0 .5-3.82 2.778 2.69-180 0 0-.54 3.78z" style="fill:#9cebff;stroke:none;stroke-width:10.98820019;stroke-linecap:butt"/></g><g transform="translate(23.024 -12.555)"><title>path10-4</title><path d="M13.7 120.93a.846.82-180 0 0 0-1.42l-6.2-3.47-6.22-3.47a.846.82-180 0 0-1.28.71v13.89a.846.82-180 0 0 1.28.71l6.22-3.47Z" style="fill:#c3f1ff;stroke:none;stroke-width:10.98820019;stroke-linecap:butt"/></g></g></g></svg>