<svg xmlns="http://www.w3.org/2000/svg" xml:space="preserve" width="51.073" height="56.743" style="font-size:12px;overflow:visible;color-interpolation-filters:sRGB;fill-rule:evenodd;stroke-linecap:square;stroke-miterlimit:3" viewBox="0 0 51.073 56.743"><defs><linearGradient id="a" x1="0" x2="43.346" y1="67.464" y2="67.464" gradientTransform="scale(1.1452 .8732)" gradientUnits="userSpaceOnUse"><stop offset=".115" stop-color="#5ea0ef"/><stop offset=".27" stop-color="#4595e8"/><stop offset=".53" stop-color="#1f85dd"/><stop offset=".74" stop-color="#087cd6"/><stop offset=".875" stop-color="#0078d4"/></linearGradient><linearGradient id="b" x1="0" x2="19.79" y1="222.912" y2="222.912" gradientTransform="scale(2.50829 .39868)" gradientUnits="userSpaceOnUse"><stop offset="0" stop-color="#0078d4"/><stop offset="1" stop-color="#005ba1"/></linearGradient><linearGradient id="c" x1="-.029" x2="30.647" y1="126.145" y2="126.145" gradientTransform="scale(1.62072 .61701)" gradientUnits="userSpaceOnUse"><stop offset="0" stop-color="#005ba1"/><stop offset="1" stop-color="#0078d4"/></linearGradient><radialGradient id="d" cx="22.199" cy="103.118" r="31.078" fx="22.199" fy="103.118" gradientTransform="scale(1.29513 .77212)" gradientUnits="userSpaceOnUse"><stop offset=".005" stop-color="#5ea0ef"/><stop offset=".49" stop-color="#5ea0ef"/><stop offset=".78" stop-color="#76b0f5"/><stop offset="1" stop-color="#83b9f9"/></radialGradient></defs><g transform="translate(-6 -6.001)"><title>Page-1</title><g transform="translate(6.047 -34.016)"><title>Video Analyzer for Media.20113</title><title>Sheet.20114</title><g transform="translate(1.384)"><title>Sheet.20115</title><path d="M49.64 58.91v36.07a1.748 1.777 0 0 1-1.08 1.64c-.21.09-.44.14-.67.14H1.75a1.748 1.777 0 0 1-1.24-.52A1.75 1.779 0 0 1 0 94.98V58.91Z" style="fill:url(#a);stroke:none;stroke-width:6;stroke-linecap:butt"/></g><g transform="translate(1.384 -29.965)"><title>Sheet.20116</title><path d="M0 88.87h49.64v7.89H0Z" style="fill:url(#b);stroke:none;stroke-width:6;stroke-linecap:butt"/></g><g transform="translate(4.486 -31.542)"><title>Sheet.20117</title><path d="M3.1 90.45 0 96.76h6.21l3.1-6.31zm12.41 0-3.1 6.31h6.21l3.1-6.31zm12.41 0-3.1 6.31h6.21l3.1-6.31zm12.41 0-3.1 6.31h6.21l3.1-6.31z" style="fill:#5ea0ef;stroke:none;stroke-width:6;stroke-linecap:butt"/></g><g transform="translate(0 -37.816)"><title>Sheet.20118</title><path d="M1.38 96.76 0 90.81a1.745 1.775 0 0 1 1.3-2.14l44.89-10.79a1.745 1.774 0 0 1 2.1 1.32l1.38 5.95z" style="fill:url(#c);stroke:none;stroke-width:6;stroke-linecap:butt"/></g><g transform="translate(2.953 -39.264)"><title>Sheet.20119</title><path d="m42.27 81.18 4.45 5.41-6.04 1.45-4.45-5.41zm-12.08 2.9 4.45 5.42-6.04 1.45-4.45-5.42zm-12.07 2.9 4.44 5.42-6.04 1.45-4.44-5.41zM6.04 89.89l4.45 5.42-6.04 1.45L0 91.34Z" style="fill:#5ea0ef;stroke:none;stroke-width:6;stroke-linecap:butt"/></g><g transform="translate(12.707 -5.315)"><title>Sheet.20120</title><path d="m28.75 85.95-13.18-3.94-.33 1.14.23-1.16-11.64-2.37-.46 2.32 8.19 1.67L0 89.17l1 2.14 13.36-6.43 2.06 11.88 2.29-.41-2-11.53 11.38 3.4z" style="fill:url(#d);stroke:none;stroke-width:6;stroke-linecap:butt"/></g><g transform="translate(13.982 -18.925)"><title>Sheet.20121</title><path d="M2.33 96.76a2.331 2.37-180 0 0 0-4.74 2.331 2.37-180 1 0 0 4.74" style="fill:#50e6ff;stroke:none;stroke-width:6;stroke-linecap:butt"/></g><g transform="translate(10.879 -3.154)"><title>Sheet.20122</title><path d="M5.43 80.98a2.327 2.366-180 0 0 0-4.73 2.327 2.366-180 1 0 0 4.73m-3.1 9.47a2.327 2.366-180 0 0 0-4.73 2.327 2.366-180 0 0 0 4.73m17.06 6.31a2.331 2.37-180 0 0 0-4.74 2.331 2.37-180 0 0 0 4.74m10.86-9.47a2.327 2.366-180 0 0 0-4.73 2.327 2.366-180 0 0 0 4.73" style="fill:#9cebff;stroke:none;stroke-width:6;stroke-linecap:butt"/></g><g transform="translate(23.29 -11.56)"><title>Sheet.20123</title><path d="M12.98 88.84.92 82.03a.62.63-180 0 0-.921.551L0 96.2a.62.63-180 0 0 .921.552L12.98 89.94a.62.631-180 0 0 0-1.102z" style="fill:#c3f1ff;stroke:none;stroke-width:6;stroke-linecap:butt"/></g></g></g></svg>