<svg xmlns="http://www.w3.org/2000/svg" xmlns:xlink="http://www.w3.org/1999/xlink" xml:space="preserve" width="50.708" height="55.815" style="font-size:12px;overflow:visible;color-interpolation-filters:sRGB;fill-rule:evenodd;stroke-linecap:square;stroke-miterlimit:3" viewBox="0 0 50.707 55.815"><defs><linearGradient id="b" x1="0" x2="53.2" y1="38.247" y2="38.247" gradientTransform="scale(.95315 1.04915)" gradientUnits="userSpaceOnUse"><stop offset="0" stop-color="#0078d4"/><stop offset=".815" stop-color="#5ea0ef"/></linearGradient><linearGradient id="a" x1="0" x2="1" y1="0" y2="0" gradientTransform="rotate(90 .5 .5)"><stop offset="0" stop-color="#9cebff"/><stop offset="1" stop-color="#50e6ff"/></linearGradient><linearGradient xlink:href="#a" id="c" x1="0" x2="10.963" y1="71.586" y2="71.586" gradientTransform="scale(.8565 1.16754)" gradientUnits="userSpaceOnUse"/><linearGradient xlink:href="#a" id="d" x1="0" x2="15.124" y1="87.026" y2="87.026" gradientTransform="scale(1.05988 .9435)" gradientUnits="userSpaceOnUse"/><linearGradient xlink:href="#a" id="e" x1="0" x2="15.153" y1="87.189" y2="87.189" gradientTransform="scale(1.06186 .94175)" gradientUnits="userSpaceOnUse"/></defs><g transform="translate(-6 -6.111)"><title>Page-1</title><g transform="translate(6 -34.016)"><title>Video Indexer.20101</title><title>Sheet.20102</title><title>Sheet.20103</title><path d="M0 41.94c0-1.4 1.57-2.25 2.82-1.58l46.95 26.09c1.25.73 1.25 2.5 0 3.17L2.82 95.71C1.57 96.38 0 95.52 0 94.12ZM9.39 54.5v27l24.29-13.47Z" style="fill:url(#b);stroke:none;stroke-width:6;stroke-linecap:butt"/><g transform="translate(0 -21.946)"><title>Sheet.20104</title><path d="M0 96.38v-12.8h9.39v12.8z" style="fill:url(#c);stroke:none;stroke-width:6;stroke-linecap:butt"/></g><g transform="translate(15.777 -10.424)"><title>Sheet.20105</title><path d="m16.03 90.04-11.4 6.34L0 88.45l11.39-6.34Z" style="fill:url(#d);stroke:none;stroke-width:6;stroke-linecap:butt"/></g><g transform="translate(15.714 -32.004)"><title>Sheet.20106</title><path d="m4.7 82.11 11.39 6.34-4.63 7.93L0 90.04Z" style="fill:url(#e);stroke:none;stroke-width:6;stroke-linecap:butt"/></g></g></g></svg>