<svg xmlns="http://www.w3.org/2000/svg" viewBox="0 0 512 512"><path fill="none" d="M0 0h512v512H0z"/><path fill="#9aa0a6" d="M293.082 365.035c-8.837 0-16-7.163-16-16v-69.75c0-8.837 7.163-16 16-16s16 7.163 16 16v69.75c0 8.837-7.163 16-16 16"/><path fill="#9aa0a6" d="M426.882 288H242.818c-8.837 0-16-7.163-16-16s7.163-16 16-16h183.064V86h-265.6v95.6c0 8.837-7.163 16-16 16s-16-7.163-16-16V85c0-17.094 13.906-31 31-31h267.6c17.094 0 31 13.906 31 31v172c0 17.094-13.906 31-31 31"/><path fill="#2b80f8" d="M426.882 288H242.818v-32h215.064v1c0 17.121-13.879 31-31 31m-266.6-106.4h-32V85c0-17.121 13.879-31 31-31h1zm207.2 202H240.374c-8.837 0-16-7.163-16-16s7.163-16 16-16h127.108c8.837 0 16 7.163 16 16s-7.163 16-16 16"/><path fill="#9aa0a6" d="M225.374 458H84.882c-17.094 0-31-13.906-31-31V196.6c0-17.094 13.906-31 31-31h140.492c17.094 0 31 13.906 31 31V427c0 17.094-13.906 31-31 31M85.882 426h138.492V197.6H85.882z"/><path fill="#2b80f8" d="M224.514 458H84.882c-17.094 0-31-13.906-31-31V197.55h32V426h138.632z"/></svg>