<svg xmlns="http://www.w3.org/2000/svg" xml:space="preserve" width="75.481" height="49.133" style="font-size:12px;overflow:visible;color-interpolation-filters:sRGB;fill-rule:evenodd;stroke-linecap:square;stroke-miterlimit:3" viewBox="0 0 56.611 36.85"><g transform="translate(-40.938 -40.855)"><title>Page-1</title><g transform="translate(40.855 -40.855)"><title>Built-in Endpoint.22004</title><title>g10</title><g transform="translate(16.198 -16.378)"><title>path4</title><path d="M0 114.467h40.495v4.094H0z" style="fill:#ff8c00;stroke:none;stroke-width:40.8553009;stroke-linecap:butt"/></g><g transform="translate(10.23 -10.527)"><title>path6</title><path d="M7.99 118.56a7.816 7.902 0 1 1 0-15.8 7.816 7.902 0 0 1 0 15.8" style="fill:#ff8c00;stroke:none;stroke-width:40.8553009;stroke-linecap:butt"/></g><title>path8</title><path d="M21.9 82.08c7.21 2.18 10.34 5.12 13.16 11.91h-4.31c-1.91-5.46-7.27-7.65-12.53-8.18a14.173 14.33-180 0 0 0 28.66c5.45-.2 10.38-3.03 12.53-8.19h4.31c-2.42 7.91-9.12 11.49-16.84 12.28a18.223 18.425 0 0 1 0-36.85z" style="fill:#7a7a7a;stroke:none;stroke-width:40.8553009;stroke-linecap:butt"/></g></g></svg>