<svg xmlns="http://www.w3.org/2000/svg" xml:space="preserve" width="64.267" height="75.588" style="font-size:12px;overflow:visible;color-interpolation-filters:sRGB;fill-rule:evenodd;stroke-linecap:square;stroke-miterlimit:3" viewBox="0 0 48.2 56.691"><defs><linearGradient id="a" x1="-.009" x2="36.1" y1="38.224" y2="38.224" gradientTransform="scale(.75977 1.31619)" gradientUnits="userSpaceOnUse"><stop offset="0" stop-color="#b77af4"/><stop offset=".62" stop-color="#8c4fe4"/><stop offset=".995" stop-color="#773adc"/></linearGradient><linearGradient id="b" x1="-.049" x2="25.317" y1="70.231" y2="70.231" gradientTransform="scale(.9771 1.02343)" gradientUnits="userSpaceOnUse"><stop offset=".3" stop-color="#198ab3"/><stop offset=".995" stop-color="#50e6ff"/></linearGradient></defs><g transform="translate(-7.121 -7.123)"><title>Page-1</title><g transform="translate(7.121 -34.016)"><title>Custom Location.21989</title><title>g10</title><title>g14-9</title><g transform="translate(.003 -5.798)"><title>path4</title><path d="M4.29 86.41 0 97.83h44.22l-4.3-11.42a1.472 1.502-180 0 0-1.35-1H5.64a1.466 1.496-180 0 0-1.35 1" style="fill:#50e6ff;stroke:none;stroke-width:7.12108994"/></g><g transform="translate(7.96 -9.171)"><title>path6</title><path d="M13.72 50.31A14.16 14.448-180 0 0 0 65.19v.19c0 6.58 8.18 21.99 11.9 31.22a1.943 1.983-180 0 0 3.6 0c3.72-9.31 11.92-24.84 11.92-31.21a14.334 14.625-180 0 0-13.7-15.08m0 20.42a6.096 6.22 0 1 1 0-12.44 6.096 6.22 0 1 1 0 12.44" style="fill:url(#a);stroke:none;stroke-width:7.12108994"/></g><title>path8</title><path d="M0 92.03h44.22v4.25a1.521 1.552 0 0 1-1.52 1.55H1.52A1.521 1.552 0 0 1 0 96.28Z" style="fill:#32bedd;stroke:none;stroke-width:7.12108994"/><g transform="translate(23.462 -3.806)"><title>path10</title><path d="M7.35 97.11 0 73.23a1.018 1.038 0 0 1 1.37-1.27l22.74 9.88a1.018 1.038 0 0 1 .08 1.88l-9.16 4.93a1.057 1.078-180 0 0-.37.33l-5.5 8.4a1.014 1.035 0 0 1-1.81-.27" style="fill:url(#b);stroke:none;stroke-width:7.12108994"/></g></g></g></svg>