<svg xmlns="http://www.w3.org/2000/svg" xml:space="preserve" width="67.63" height="75.734" style="font-size:12px;overflow:visible;color-interpolation-filters:sRGB;fill-rule:evenodd;stroke-linecap:square;stroke-miterlimit:3" viewBox="0 0 50.722 56.801"><defs><linearGradient id="a" x1="0" x2="38.054" y1="86.657" y2="86.657" gradientTransform="scale(1.00858 .9915)" gradientUnits="userSpaceOnUse"><stop offset="0" stop-color="#50e6ff"/><stop offset=".95" stop-color="#32bedd"/></linearGradient></defs><g transform="translate(-32.885 -32.89)"><title>Page-1</title><g transform="translate(34.152 -34.016)"><title>Device Update for IoT Hub.21982</title><title>g12</title><g transform="translate(4.912 -9.408)"><title>path2</title><path d="M38.38 104.78v.49a19.202 18.864 0 0 1-19.2 18.38h-.2l-2.75-4.59a2.798 2.749-180 0 0-2.44-1.38 2.827 2.777-180 0 0-2.64 1.75l-.84 2.08c-.32-.17-.64-.35-.96-.53l-.29-.17a5.522 5.425 0 0 1-.39-.24l-.37-.25-.25-.18-.26-.18-.15-.12-.43-.31a12.33 12.113 0 0 1-.44-.36l-.37-.31a.202.199 0 0 1-.07-.082 14.052 13.805 0 0 1-.71-.668l-.37-.37a.26.256 0 0 1-.051-.05 11.565 11.362 0 0 1-.639-.72 6 6 0 0 1-.33-.39c-.09-.14-.22-.27-.32-.41s-.21-.28-.32-.41c-.11-.14-.2-.29-.32-.44-.12-.14-.19-.28-.29-.43a2.695 2.648 0 0 1-.16-.26 7.929 7.79 0 0 1-.5-.86c-.08-.13-.15-.26-.23-.4a12.838 12.612 0 0 1-.39-.81c-.06-.14-.13-.29-.2-.44-.06-.15-.14-.32-.2-.48-.06-.17-.13-.32-.18-.48-.05-.17-.1-.25-.14-.39s-.07-.2-.1-.3-.07-.22-.1-.33a10.692 10.504 0 0 1-.15-.52l-.14-.51a15.806 15.528 0 0 1-.11-.53 19.16 18.823 0 0 1-.36-2.66c0-.15-.02-.31-.02-.46v-.68a19.131 18.795 0 0 1 .23-2.97c.03-.23.08-.47.12-.71.05-.24.09-.39.13-.58a2.072 2.036 0 0 1 .07-.26c.04-.2.09-.39.15-.59v-.05c.06-.21.13-.41.19-.62v-.03a19.205 18.867 0 0 1 18.23-13.05l2.67 4.45a2.837 2.787-180 0 0 5.08-.38l.85-2.1a15.68 15.405 0 0 1 1.44.78l.15.09c.16.1.32.2.48.31.29.18.57.37.84.58.36.25.72.53 1.05.83.17.14.32.28.5.43a19.022 18.687 0 0 1 6.02 11.32 19.892 19.543 0 0 1 .16 1.79v.48a1.613 1.584 0 0 1 .02.28" style="fill:url(#a);stroke:none;stroke-width:32.88560104;stroke-linecap:butt"/></g><g transform="translate(9.985 -16.98)"><title>g8</title><g transform="translate(2.245 -1.768)"><title>path4</title><path d="m21.39 122.91-5.98-10.28-.6.33.49-.35-6.77-9.46-1.24.88 6 8.38L0 113.49.13 115l13.16-1.07-4.37 7.13 1.32.77 4.48-7.34 5.34 9.16z" style="fill:#fff;fill-opacity:.47999998;stroke:none;stroke-width:32.88560104;stroke-linecap:butt"/></g><title>path6</title><path d="M23.02 118.97h-.01a2.824 2.774-180 0 0-.61.06 2.75 2.702-180 0 0-2.18 2.61v.05a2.782 2.733-180 1 0 2.8-2.72m-9.35-.85a2.339 2.298-180 0 0-1.39-.65 1.468 1.442-180 0 0-.27-.02H12a2.397 2.354-180 0 0-2.41 2.33v.02a2.41 2.367-180 1 0 4.08-1.68m-9.25-6.58a2.387 2.345-180 1 0 .28 1.12 2.384 2.342-180 0 0-.28-1.12m5.94-12.51h-.09a2.983 2.93-180 0 0 .06 5.86 3.065 3.01-180 0 0 .96-.16 2.997 2.945-180 0 0 2.02-2.75 2.978 2.926-180 0 0-2.95-2.95m6.7 8.88a3.595 3.532-180 0 0-1.41.27 3.608 3.544-180 0 0-2.12 2.62 3.161 3.106-180 0 0-.06.54v.08a3.633 3.57-180 0 0 1.01 2.45 3.553 3.49-180 0 0 1.28.84 3.614 3.55-180 0 0 1.31.25 3.685 3.62-180 0 0 1.12-.18 3.592 3.529-180 0 0-1.12-6.88z" style="fill:#fff;fill-opacity:.8;stroke:none;stroke-width:32.88560104;stroke-linecap:butt"/></g><title>path10</title><path d="M48.19 103.17a1.487 1.461 0 0 1-1.96.91l-1.74-.68a1.481 1.455 0 0 1-.84-1.81A20.586 20.224-180 0 0 31.9 76.68l-.5 1.24-.88 2.17a1.481 1.455 0 0 1-2.65.19l-2.23-3.71-2.87-4.78a1.481 1.455 0 0 1 .88-2.14l9.66-2.69a1.484 1.458 0 0 1 1.78 1.94l-1.39 3.4a25.408 24.962 0 0 1 14.49 30.87M24.2 120.96l-9.66 2.69a1.478 1.452 0 0 1-1.78-1.94l1.39-3.41A25.402 24.955 0 0 1 0 87.57a1.49 1.464 0 0 1 1.96-.91l1.7.67a1.5 1.474 0 0 1 .88 1.81 20.59 20.227-180 0 0 11.4 24.79l.51-1.24.87-2.15a1.481 1.455 0 0 1 2.66-.2l2.29 3.83 2.8 4.67a1.481 1.455 0 0 1-.87 2.12" style="fill:#0078d4;stroke:none;stroke-width:32.88560104;stroke-linecap:butt"/></g></g></svg>