<svg xmlns="http://www.w3.org/2000/svg" xml:space="preserve" width="68.034" height="75.594" style="font-size:12px;overflow:visible;color-interpolation-filters:sRGB;fill-rule:evenodd;stroke-linecap:square;stroke-miterlimit:3" viewBox="0 0 51.025 56.696"><defs><linearGradient id="a" x1="0" x2="41.495" y1="70.127" y2="70.127" gradientTransform="scale(.89505 1.11725)" gradientUnits="userSpaceOnUse"><stop offset="0" stop-color="#0078d4"/><stop offset=".815" stop-color="#5ea0ef"/></linearGradient></defs><g transform="translate(-34 -33.998)"><title>Page-1</title><g transform="translate(34 -34.016)"><title>File Upload.21964</title><title>MsPortalFx.base.images-23</title><g transform="translate(1.032 -18.838)"><title>Sheet.21966</title><path d="M0 87.906h31.245v36.803H0z" style="fill:#5ea0ef;stroke:none;stroke-width:34;stroke-linecap:butt"/></g><g transform="translate(0 -17.786)"><title>Sheet.21967</title><path d="M32.28 124.71H1.03A1.032 1.052 0 0 1 0 123.66V86.85a1.03 1.049 0 0 1 1.03-1.05h31.25a1.03 1.049 0 0 1 1.03 1.05v36.81a1.032 1.052 0 0 1-1.03 1.05M2.06 122.6h29.18V87.91H2.06Z" style="fill:#0078d4;stroke:none;stroke-width:34;stroke-linecap:butt"/></g><g transform="translate(7.003 -13.849)"><title>Sheet.21968</title><path d="M0 87.906h31.245v36.803H0z" style="fill:#83b9f9;stroke:none;stroke-width:34;stroke-linecap:butt"/></g><g transform="translate(5.97 -12.797)"><title>Sheet.21969</title><path d="M32.28 124.71H1.03A1.035 1.055 0 0 1 0 123.66V86.85a1.035 1.055 0 0 1 1.03-1.05h31.25a1.032 1.052 0 0 1 1.03 1.05v36.8a1.032 1.052 0 0 1-1.03 1.06M2.06 122.6h29.19V87.91H2.06Z" style="fill:#0078d4;stroke:none;stroke-width:34;stroke-linecap:butt"/></g><g transform="translate(14.151 -.315)"><title>Sheet.21970</title><path d="M20.89 79.01H1.53A1.545 1.575-180 0 0 0 80.58v42.55a1.545 1.575-180 0 0 1.53 1.58h33.55a1.545 1.575-180 0 0 1.53-1.58V94.96a1.545 1.575-180 0 0-1.53-1.58H23.95a1.545 1.575 0 0 1-1.53-1.56V80.57a1.545 1.575-180 0 0-1.53-1.56" style="fill:#fff;stroke:none;stroke-width:34;stroke-linecap:butt"/></g><g transform="translate(13.886)"><title>Sheet.21971</title><path d="M20.45 80.69v10.68a3.85 3.924-180 0 0 3.85 3.92h10.56v27.09H2.29V80.69Zm.74-2.34H1.55A1.545 1.575-180 0 0 0 79.92v43.21a1.545 1.575-180 0 0 1.55 1.58h34.04a1.545 1.575-180 0 0 1.55-1.58V94.54a1.545 1.575-180 0 0-1.55-1.58H24.3a1.545 1.575 0 0 1-1.54-1.57V79.93a1.545 1.575-180 0 0-1.55-1.57z" style="fill:url(#a);stroke:none;stroke-width:34;stroke-linecap:butt"/></g><g transform="translate(36.09 -31.436)"><title>Sheet.21972</title><path d="M14.35 124.71 0 110.13v11.88a2.633 2.683-180 0 0 2.61 2.7z" style="fill:#0078d4;stroke:none;stroke-width:34;stroke-linecap:butt"/></g><g transform="translate(19.82 -21.798)"><title>Sheet.21973</title><path d="M0 123.16a1.524 1.553-180 0 0 1.52 1.55h22.23a1.524 1.553-180 0 0 1.52-1.55v-.35a1.524 1.553-180 0 0-1.52-1.56H1.52A1.524 1.553-180 0 0 0 122.81Z" style="fill:#5ea0ef;stroke:none;stroke-width:34;stroke-linecap:butt"/></g><g transform="translate(19.82 -15.606)"><title>Sheet.21974</title><path d="M0 123.16a1.524 1.553-180 0 0 1.52 1.55h22.23a1.524 1.553-180 0 0 1.52-1.55v-.35a1.524 1.553-180 0 0-1.52-1.56H1.52A1.524 1.553-180 0 0 0 122.81Z" style="fill:#5ea0ef;stroke:none;stroke-width:34;stroke-linecap:butt"/></g><g transform="translate(19.82 -9.417)"><title>Sheet.21975</title><path d="M0 123.16a1.524 1.553-180 0 0 1.52 1.55H14.4a1.524 1.553-180 0 0 1.53-1.55v-.35a1.524 1.553-180 0 0-1.53-1.56H1.52A1.524 1.553-180 0 0 0 122.81Z" style="fill:#5ea0ef;stroke:none;stroke-width:34;stroke-linecap:butt"/></g></g></g></svg>