<svg xmlns="http://www.w3.org/2000/svg" xml:space="preserve" width="56.696" height="75.589" style="font-size:12px;overflow:visible;color-interpolation-filters:sRGB;fill-rule:evenodd;stroke-linecap:square;stroke-miterlimit:3" viewBox="0 0 42.522 56.692"><g transform="translate(-6.582 -6.582)"><title>Page-1</title><g transform="translate(6.584 -34.016)"><title>Identity.21953</title><title> MSI_2</title><g transform="translate(0 -2.737)"><title>path6</title><path d="M15.82 89.74a2.835 2.874 0 0 1 0-4.07l6.22-6.3v-5.65l9.19-9.31a6.057 6.14-180 0 0 0-8.68l-10.45-10.6a6.057 6.14-180 0 0-8.56 0L1.77 55.73a6.055 6.139-180 0 0 0 8.68l9.92 10.05v.85l-2.82 2.86 2.8 2.84-2.8 2.84 2.8 2.83-2.8 2.84 2.82 2.86v.04l4.81 4.87 3.39-3.43zm-2.76-38.56a3.438 3.485 0 1 1 3.44 3.48 3.438 3.485 0 0 1-3.44-3.48" style="fill:#fcd116;stroke:none;stroke-width:6.5844202;stroke-linecap:butt"/></g><g transform="translate(6.914 -34.403)"><title>path8</title><path d="M0 89.7h19.84v2.89H0Zm0 4.7h19.84v2.89H0Z" style="fill:#fff;fill-opacity:.5;stroke:none;stroke-width:6.5844202;stroke-linecap:butt"/></g><g transform="translate(18.209)"><title>path10</title><path d="M12.16 97.29a2.225 2.255 0 0 1-1.59-.66L.66 86.58a2.241 2.272 0 0 1 0-3.22l9.91-10.05a2.24 2.27 0 0 1 3.17 0l9.91 10.05a2.24 2.271 0 0 1 0 3.22l-9.91 10.05a2.225 2.255 0 0 1-1.58.66" style="fill:#59b4d9;stroke:none;stroke-width:6.5844202;stroke-linecap:butt"/></g><g transform="translate(22.51 -3.368)"><title>path12</title><path d="M14.47 86.41a1.897 1.924-180 0 0-1.58 2.99l-3.77 3.81a2.232 2.263-180 0 0-.32-.18v-9.74a1.901 1.928-180 1 0-1.89 0v9.74a2.197 2.227-180 0 0-.31.17l-3.77-3.82a1.953 1.98-180 1 0-.98.77l3.97 4.02a2.213 2.243-180 1 0 4.07.02l3.98-4.03a1.877 1.903-180 0 0 .6.11 1.904 1.93-180 0 0 0-3.86" style="fill:#fff;stroke:none;stroke-width:6.5844202;stroke-linecap:butt"/></g><g transform="translate(29.91 -11.451)"><title>path14</title><path d="m0 90.09.87-.88 7.11 7.2-.87.88z" style="fill:#fff;fill-opacity:.5;stroke:none;stroke-width:6.5844202;stroke-linecap:butt"/></g><g transform="translate(22.85 -11.445)"><title>path16</title><path d="m0 96.41 7.11-7.2.87.88-7.11 7.2z" style="fill:#fff;fill-opacity:.5;stroke:none;stroke-width:6.5844202;stroke-linecap:butt"/></g><g transform="translate(22.999 -4.667)"><title>path18</title><path d="M8.66 96.35a1.318 1.336 0 1 1-1.32-1.34 1.317 1.335 0 0 1 1.32 1.34m-.24-13.42a1.057 1.072 0 1 1-1.06-1.07 1.056 1.07 0 0 1 1.06 1.07M1.8 89.64a1.057 1.072 0 1 1-1.05-1.07 1.058 1.072 0 0 1 1.05 1.07m13.24 0a1.058 1.072 0 1 1-1.06-1.07 1.058 1.072 0 0 1 1.06 1.07" style="fill:#b8d432;stroke:none;stroke-width:6.5844202;stroke-linecap:butt"/></g><g transform="translate(18.209 -5.026)"><title>path20</title><path d="M13.74 78.34a2.237 2.268-180 0 0-3.17 0L.66 88.39a2.241 2.272-180 0 0 0 3.21l5.61 5.69 10.56-15.82z" style="fill:#fff;fill-opacity:.09800002;stroke:none;stroke-width:6.5844202;stroke-linecap:butt"/></g><g transform="translate(17.294 -15.873)"><title>path22</title><path d="M2.16 95.1v-7.32L0 88.86v8.43z" style="fill:#ff8c00;fill-opacity:.4;stroke:none;stroke-width:6.5844202;stroke-linecap:butt"/></g></g></g></svg>