<svg xmlns="http://www.w3.org/2000/svg" xml:space="preserve" width="75.607" height="75.892" style="font-size:12px;overflow:visible;color-interpolation-filters:sRGB;fill-rule:evenodd;stroke-linecap:square;stroke-miterlimit:3" viewBox="0 0 56.705 56.919"><defs><linearGradient id="a" x1="0" x2="54.757" y1="64.957" y2="64.957" gradientTransform="scale(.9659 1.0353)" gradientUnits="userSpaceOnUse"><stop offset="0" stop-color="#0078d4"/><stop offset=".06" stop-color="#0a7cd7"/><stop offset=".34" stop-color="#2e8ce1"/><stop offset=".59" stop-color="#4897e9"/><stop offset=".82" stop-color="#589eed"/><stop offset="1" stop-color="#5ea0ef"/></linearGradient></defs><g transform="translate(-33.235 -33.235)"><title>Page-1</title><g transform="translate(33.235 -34.016)"><title>IoT Windows 10 Core.21771</title><title>layer1</title><title>path17</title><path d="m48.79 78.29-4.53-4.46h-.46l-6.1 3.33-4.37-1.96-2.75-7.95-6.33.07-.3.89-2.16 6.92-4.37 1.9-7.41-3.33-4.4 4.49.46.9 3.28 6.42-1.74 4.42L0 92.82v6.48l.89.3 6.82 2.13 1.87 4.42-3.28 7.55 4.56 4.49.82-.46 6.33-3.33 2.03 2.53 5.25 7.01h6.34l.29-.89 2.27-4.06 3.6-1.83 7.16-.43 4.46-4.62v-.44l.88-3.32 2.6-7.88zm-20.87 31.82a14.337 14.53 0 1 1 14.3-14.4 14.305 14.497 0 0 1-14.3 14.4" style="fill:url(#a);stroke:none;stroke-width:33.23479843;stroke-linecap:butt"/><g transform="translate(18.078 -15.818)"><title>path19</title><path d="M19.72 111.17c0 6.45-7.84 11.63-9.55 12.7a.755.765 0 0 1-.656 0C7.81 122.8 0 117.62 0 111.17v-7.75a.623.632 0 0 1 .59-.632c6.1.002 4.69-2.828 9.25-2.828s3.28 2.66 9.25 2.83a.656.665 0 0 1 .624.632z" style="fill:#32bedd;stroke:none;stroke-width:33.23479843;stroke-linecap:butt"/></g><g transform="translate(18.898 -16.816)"><title>path21</title><path d="M18.08 112.23c0 5.92-7.19 10.67-8.76 11.64a.623.632 0 0 1-.59 0C7.15 122.9 0 118.15 0 112.23v-7.12a.558.565 0 0 1 .525-.565c5.605.005 4.335-2.585 8.495-2.585 4.17 0 2.92 2.46 8.5 2.59a.59.599 0 0 1 .558.565z" style="fill:#50e6ff;stroke:none;stroke-width:33.23479843;stroke-linecap:butt"/></g><g transform="translate(23.489 -23.475)"><title>path23</title><path d="M8.4 117.73h-.56v-1.87a3.74 3.79-180 0 0-.98-2.56 3.084 3.126-180 0 0-2.43-1.06A3.28 3.325-180 0 0 2 113.3a3.74 3.79-180 0 0-.98 2.56v2H.46a.46.466-180 0 0-.46.465v5.185a.46.466-180 0 0 .46.432l7.94-.002a.427.432-180 0 0 .459-.432l.001-5.318a.46.466-180 0 0-.459-.465zm-2.16 0H2.63v-1.87a1.936 1.962 0 0 1 .55-1.39 1.706 1.729 0 0 1 1.25-.57 1.64 1.663 0 0 1 1.25.57l.23.26a2.198 2.228 0 0 1 .33 1.13z" style="fill:#f2f2f2;stroke:none;stroke-width:33.23479843;stroke-linecap:butt"/></g><g transform="translate(15.776 -1.083)"><title>path25</title><path d="m29.5 74.82 2.33-4.89a.492.499-180 0 0-.23-.698l-.26-.002-18.08 1.4a.525.532-180 0 0-.459.565.427.432-180 0 0 0 .266L23.04 86.42a.525.532-180 0 0 .722 0l.158-.2 2.04-4.29a.558.565 0 0 1 .69-.266A20.768 21.048 0 0 1 34.26 96.8a21.063 21.347 0 0 1-20.64 21.81 21.916 22.212 0 0 1-10.2-2.33.525.532-180 0 0-.69.2L.04 121.4a.525.532-180 0 0 .197.698A27.953 28.33-180 0 0 37.8 110.1a27.264 27.632-180 0 0 3.12-13.57 27.625 27.997-180 0 0-11.29-21.08.558.565 0 0 1-.131-.632Z" style="fill:#86d633;stroke:none;stroke-width:33.23479843;stroke-linecap:butt"/></g></g></g></svg>