<svg xmlns="http://www.w3.org/2000/svg" xml:space="preserve" width="75.586" height="75.586" style="font-size:12px;overflow:visible;color-interpolation-filters:sRGB;fill-rule:evenodd;stroke-linecap:square;stroke-miterlimit:3" viewBox="0 0 56.69 56.69"><g transform="translate(-15.3 -15.304)"><title>Page-1</title><g transform="translate(15.3 -34.016)"><title>IoT Hub Device.21871</title><title>Sheet.21872</title><title>Sheet.21873</title><path d="M6.85 66.68H.43v-3.87h6.42v-7.04h7.72v-6.45h3.85v6.45h3.86v-6.45h3.14v6.45h5.14v-6.45h3.14v6.45h5.14v-6.45h3.14v6.45h7.72v7.04h6.99v3.87H49.7v5.17h6.99v3.87H49.7v3.88h6.99v3.88H49.7v5.16h6.85v4.45h-6.71v6.46h-7.71v6.46h-3.14v-6.46h-4.43v6.46H30.7v-6.46h-5.14v6.46h-3.14v-6.46h-4.43v6.46h-3.85v-6.46H6.43v-7.03H.29v-4.6h6.14v-5.16H.71v-3.88h5.72v-4.45H0v-3.15h7c-.15-.15-.15-2.73-.15-4.6m40.56 30.29V58.93H10.14v38.04z" style="fill:#a0a1a2;stroke:none;stroke-width:15.30000019;stroke-linecap:butt"/><g transform="translate(9.425 -9.042)"><title>Sheet.21874</title><path d="M0 67.974h37.843v38.035H0z" style="fill:#00188f;stroke:none;stroke-width:15.30000019;stroke-linecap:butt"/></g><g transform="translate(13.995 -13.635)"><title>Sheet.21875</title><path d="M0 77.016h28.846v28.992H0z" style="fill:#e5e5e5;stroke:none;stroke-width:15.30000019;stroke-linecap:butt"/></g><g transform="translate(17.422 -16.65)"><title>Sheet.21876</title><path d="M0 83.044h21.849v22.964H0z" style="fill:#00188f;stroke:none;stroke-width:15.30000019;stroke-linecap:butt"/></g></g></g></svg>