<svg xmlns="http://www.w3.org/2000/svg" xml:space="preserve" width="71.813" height="75.589" style="font-size:12px;overflow:visible;color-interpolation-filters:sRGB;fill-rule:evenodd;stroke-linecap:square;stroke-miterlimit:3" viewBox="0 0 53.86 56.692"><g transform="translate(-5.386 -5.67)"><title>Page-1</title><g transform="translate(5.386 -34.016)"><title>IoT Device Provisioning Service.21909</title><title>g30</title><g transform="translate(17.116 -41.272)"><title>circle4</title><ellipse cx="4.158" cy="92.178" rx="4.158" ry="4.199" style="fill:#0072c6;stroke:none;stroke-width:.14035399;stroke-linecap:butt"/></g><g transform="translate(25.815 -26.944)"><title>circle6</title><ellipse cx="4.957" cy="91.372" rx="4.957" ry="5.006" style="fill:#0072c6;stroke:none;stroke-width:.14035399;stroke-linecap:butt"/></g><g transform="translate(35.196 -13.153)"><title>circle8</title><ellipse cx="3.876" cy="92.464" rx="3.876" ry="3.914" style="fill:#0072c6;stroke:none;stroke-width:.14035399;stroke-linecap:butt"/></g><g transform="translate(20.342 -16.395)"><title>circle10</title><ellipse cx="3.343" cy="93.002" rx="3.343" ry="3.376" style="fill:#0072c6;stroke:none;stroke-width:.14035399;stroke-linecap:butt"/></g><g transform="translate(6.803 -26.675)"><title>circle12</title><ellipse cx="3.343" cy="93.002" rx="3.343" ry="3.376" style="fill:#0072c6;stroke:none;stroke-width:.14035399;stroke-linecap:butt"/></g><g transform="translate(19.641 -30.822)"><title>path14</title><path d="m0 82.06 2.46-1.75 9.97 14.32-2.46 1.75z" style="fill:#0072c6;stroke:none;stroke-width:.14035399;stroke-linecap:butt"/></g><g transform="translate(29.165 -16.202)"><title>path16</title><path d="m0 80.84 2.61-1.51 8.81 15.54-2.61 1.51z" style="fill:#0072c6;stroke:none;stroke-width:.14035399;stroke-linecap:butt"/></g><g transform="translate(9.576 -28.76)"><title>path18</title><path d="m0 93.35 21.28-1.79.25 3.03L.25 96.38z" style="fill:#0072c6;stroke:none;stroke-width:.14035399;stroke-linecap:butt"/></g><g transform="translate(21.935 -18.792)"><title>path20</title><path d="m0 94.81 7.63-12.79 2.58 1.57-7.63 12.79Z" style="fill:#0072c6;stroke:none;stroke-width:.14035399;stroke-linecap:butt"/></g><g transform="translate(1.597 -38.3)"><title>circle22</title><ellipse cx="3.992" cy="92.346" rx="3.992" ry="4.031" style="fill:#0072c6;stroke:none;stroke-width:.14035399;stroke-linecap:butt"/></g><g transform="translate(44.178 -38.3)"><title>circle24</title><ellipse cx="3.992" cy="92.346" rx="3.992" ry="4.031" style="fill:#0072c6;stroke:none;stroke-width:.14035399;stroke-linecap:butt"/></g><g transform="translate(23.952)"><title>circle26</title><ellipse cx="3.992" cy="92.346" rx="3.992" ry="4.031" style="fill:#0072c6;stroke:none;stroke-width:.14035399;stroke-linecap:butt"/></g><g transform="translate(0 -2.654)"><title>path28</title><path d="M9.96 53.16c4.28-4.52 10.3-7.33 16.97-7.33 6.64 0 12.64 2.79 16.92 7.28.74-.93 1.79-1.62 2.97-1.92-.26-.3-.55-.6-.85-.89-2.47-2.5-5.35-4.45-8.56-5.83-3.33-1.43-6.85-2.13-10.5-2.13-3.64 0-7.17.72-10.49 2.13a27 27 0 0 0-8.57 5.83c-.3.3-.58.61-.86.91 1.21.32 2.22 1.01 2.97 1.95m42.38 7.34c-.79.89-1.86 1.51-3.07 1.76.73 2.3 1.13 4.74 1.13 7.29 0 10.99-7.4 20.23-17.45 22.91.38.78.6 1.63.6 2.56 0 .32-.03.64-.08.94 1.34-.34 2.66-.79 3.94-1.33 3.21-1.38 6.09-3.33 8.56-5.83 2.48-2.5 4.41-5.41 5.78-8.65 1.41-3.36 2.11-6.92 2.11-10.6 0-3.12-.5-6.16-1.52-9.05m-29.6 32.37c-10.96-2-19.28-11.68-19.28-23.34 0-2.53.4-4.97 1.13-7.27a5.64 5.64 0 0 1-3.09-1.7C.5 63.44 0 66.44 0 69.53c0 3.68.72 7.24 2.11 10.6 1.37 3.25 3.3 6.15 5.77 8.66a26.9 26.9 0 0 0 8.57 5.82c1.95.84 3.98 1.43 6.05 1.77-.11-.44-.16-.91-.16-1.38-.02-.76.13-1.48.4-2.13" style="fill:#0072c6;stroke:none;stroke-width:.14035399;stroke-linecap:butt"/></g></g></g></svg>