<svg xmlns="http://www.w3.org/2000/svg" xml:space="preserve" width="77.74" height="72.938" style="font-size:12px;overflow:visible;color-interpolation-filters:sRGB;fill-rule:evenodd;stroke-linecap:square;stroke-miterlimit:3" viewBox="0 0 58.305 54.703"><defs><linearGradient id="a" x1="0" x2="51.491" y1="70.76" y2="70.76" gradientTransform="scale(.99619 1.00383)" gradientUnits="userSpaceOnUse"><stop offset="0" stop-color="#5ea0ef"/><stop offset=".815" stop-color="#0078d4"/></linearGradient></defs><g transform="translate(-34.003 -34)"><title>Page-1</title><g transform="translate(35.612 -34.016)"><title>IoT Edge Device.21896</title><title>Sheet.21897</title><g transform="translate(3.902 -1.507)"><title>Sheet.21898</title><ellipse cx="25.647" cy="96.875" rx="25.647" ry="25.844" style="fill:url(#a);stroke:none;stroke-width:34;stroke-linecap:butt"/></g><g transform="translate(10.356)"><title>Sheet.21899</title><path d="M19.19 122.72a27.143 27.352 0 1 1 27.15-27.35 27.173 27.381 0 0 1-27.15 27.35m0-51.69a24.152 24.337-180 1 0 24.15 24.34 24.174 24.36-180 0 0-24.15-24.34" style="fill:#e6e6e6;stroke:none;stroke-width:34;stroke-linecap:butt"/></g><g transform="translate(0 -3.11)"><title>Sheet.21900</title><path d="M46.78 100.83a7.742 7.801-180 0 0-6.72-7.51 9.76 9.834-180 0 0-10.04-9.4 10.012 10.088-180 0 0-9.59 6.58 9.235 9.305-180 0 0-8.1 8.96 9.39 9.462-180 0 0 9.72 9.08c.29 0 .57 0 .85-.04h15.72a1.46 1.472-180 0 0 .41-.07 7.83 7.89-180 0 0 7.75-7.6M9.4 98.48a5.504 5.547 0 1 1-5.51-5.55 5.504 5.547 0 0 1 5.51 5.55m35.38-26.51a5.504 5.547-180 1 0 5.5 5.55 5.504 5.547-180 0 0-5.5-5.55m0 41.28a5.504 5.547-180 1 0 5.5 5.55 5.504 5.547-180 0 0-5.5-5.55" style="fill:#50e6ff;stroke:none;stroke-width:34;stroke-linecap:butt"/></g></g></g></svg>