<svg xmlns="http://www.w3.org/2000/svg" xml:space="preserve" width="56.687" height="75.587" style="font-size:12px;overflow:visible;color-interpolation-filters:sRGB;fill-rule:evenodd;stroke-linecap:square;stroke-miterlimit:3" viewBox="0 0 42.515 56.69"><g transform="translate(-24.75 -24.754)"><title>Page-1</title><g transform="translate(24.75 -34.016)"><title>IoT Hub Security.21833</title><title> IOT</title><g transform="translate(.305)"><title>path6</title><path d="M35.91 65.72c-12.68-1.38-14.81-6.74-14.81-6.74S18.25 66.03 0 66.03v28.93c0 3.5 1.98 6.78 4.72 9.63 6.23 6.49 16.38 10.87 16.38 10.87s21.11-9.07 21.11-20.5V66.03h-.2a58.1 56.978 0 0 1-6.36-.34l.26.02z" style="fill:#7fba00;stroke:none;stroke-width:24.75;stroke-linecap:butt"/></g><g transform="translate(0 -11.08)"><title>path8</title><path d="M21.1 69.85S18.25 76.89 0 76.89v28.94c0 3.5 1.98 6.77 4.72 9.63l31.19-38.88c-12.68-1.37-14.81-6.73-14.81-6.73" style="fill:#96c414;stroke:none;stroke-width:24.75;stroke-linecap:butt"/></g><g transform="translate(7.014 -18.296)"><title>path10</title><path d="M23.18 115.46a2.788 2.734 0 0 1-1.94-4.7l-2.98-5.1a3.36 3.295 0 0 1-2.31-.06l.02.01-2.18 3.54a2.403 2.356 0 1 1-1.68-.68c.11 0 .2.02.3.03h-.01l2.29-3.72a3.505 3.437 0 0 1-.88-1.45v-.03l-9.05.74a2.414 2.367 0 1 1-.26-1.51v.01l9.2-.75c.12-.68.42-1.27.85-1.75l-3.17-4.4a2.992 2.934 0 1 1 1.27-.86l3.13 4.36a3.552 3.483 0 0 1 3.82 5.77l2.99 5.14a2.79 2.736 0 1 1 .58 5.4z" style="fill:#fff;stroke:none;stroke-width:24.75;stroke-linecap:butt"/></g></g></g></svg>