<svg xmlns="http://www.w3.org/2000/svg" xml:space="preserve" width="75.701" height="49.134" style="font-size:12px;overflow:visible;color-interpolation-filters:sRGB;fill-rule:evenodd;stroke-linecap:square;stroke-miterlimit:3" viewBox="0 0 56.776 36.85"><g transform="translate(-38.162 -38.25)"><title>Page-1</title><g transform="translate(38.25 -38.25)"><title>IoT Hub Built-in Endpoint.21885</title><title>Sheet.21886</title><g transform="translate(16.198 -16.378)"><title>Sheet.21887</title><path d="M0 109.26h40.49v4.09H0Z" style="fill:#ff8c00;stroke:none;stroke-width:38.25;stroke-linecap:butt"/></g><g transform="translate(10.23 -10.527)"><title>Sheet.21888</title><path d="M7.99 113.35a7.816 7.902 0 1 1 0-15.8 7.816 7.902 0 0 1 0 15.8" style="fill:#ff8c00;stroke:none;stroke-width:38.25;stroke-linecap:butt"/></g><title>Sheet.21889</title><path d="M21.9 76.87c7.21 2.18 10.34 5.12 13.16 11.91h-4.31c-1.91-5.46-7.27-7.65-12.53-8.19a14.177 14.335-180 1 0 0 28.67c5.45-.2 10.38-3.03 12.53-8.19h4.31c-2.42 7.91-9.12 11.49-16.84 12.28a18.223 18.425 0 1 1 0-36.85z" style="fill:#7a7a7a;stroke:none;stroke-width:38.25;stroke-linecap:butt"/></g></g></svg>