<svg xmlns="http://www.w3.org/2000/svg" xml:space="preserve" width="68.031" height="75.59" style="font-size:12px;overflow:visible;color-interpolation-filters:sRGB;fill-rule:evenodd;stroke-linecap:square;stroke-miterlimit:3" viewBox="0 0 51.023 56.693"><g transform="translate(-11.446 -11.445)"><title>Page-1</title><g transform="translate(11.445 -34.016)"><title>IoT Solution Accelerator.21792</title><title>layer1</title><g transform="translate(2.742 -2.69)"><title>path2</title><path d="M22.78 102.15a1.018 1 0 0 1-.508-.133L.51 89.69a1.015.996 0 0 1-.508-.863L0 64.17a1.015.996 0 0 1 .508-.863L22.27 50.97a1.015.996 0 0 1 1.015 0L45.05 63.3a1.015.996 0 0 1 .508.863l.002 24.667a1.015.996 0 0 1-.508.863L23.29 102.02a1.018 1 0 0 1-.508.134zM2.03 88.25l20.75 11.76 20.75-11.76V64.74L22.78 52.99 2.03 64.74Z" style="fill:#2074bb;stroke:none;stroke-width:11.4453001;stroke-linecap:butt"/></g><g transform="translate(21.765 -49.322)"><title>circle4</title><ellipse cx="3.756" cy="98.468" rx="3.756" ry="3.685" style="fill:#2074bb;stroke:none;stroke-width:11.4453001;stroke-linecap:butt"/></g><g transform="translate(0 -36.993)"><title>circle6</title><ellipse cx="3.756" cy="98.468" rx="3.756" ry="3.685" style="fill:#2074bb;stroke:none;stroke-width:11.4453001;stroke-linecap:butt"/></g><g transform="translate(43.512 -36.993)"><title>circle8</title><ellipse cx="3.756" cy="98.468" rx="3.756" ry="3.685" style="fill:#2074bb;stroke:none;stroke-width:11.4453001;stroke-linecap:butt"/></g><g transform="translate(43.512 -12.33)"><title>circle10</title><ellipse cx="3.756" cy="98.468" rx="3.756" ry="3.685" style="fill:#2074bb;stroke:none;stroke-width:11.4453001;stroke-linecap:butt"/></g><g transform="translate(0 -12.33)"><title>circle12</title><ellipse cx="3.756" cy="98.468" rx="3.756" ry="3.685" style="fill:#2074bb;stroke:none;stroke-width:11.4453001;stroke-linecap:butt"/></g><g transform="translate(21.771)"><title>circle14</title><ellipse cx="3.756" cy="98.468" rx="3.756" ry="3.685" style="fill:#2074bb;stroke:none;stroke-width:11.4453001;stroke-linecap:butt"/></g><g transform="translate(12.604 -15.68)"><title>circle16</title><ellipse cx="12.908" cy="89.488" rx="12.908" ry="12.665" style="fill:#fff;stroke:none;stroke-width:11.4453001;stroke-linecap:butt"/></g><g transform="translate(15.666 -14.685)"><title>path18</title><path d="M9.84 102.15a13.923 13.662 0 1 1 13.93-13.66 13.94 13.678 0 0 1-13.93 13.66m0-25.33a11.892 11.67-180 1 0 11.9 11.67 11.907 11.683-180 0 0-11.9-11.67" style="fill:#2074bb;stroke:none;stroke-width:11.4453001;stroke-linecap:butt"/></g><g transform="translate(2.786 -2.69)"><title>path20</title><path d="M11.64 71a1.01.991 0 0 1-.493-.126L.47 65.04a1.016.997 0 0 1 .99-1.74l10.68 5.83a1.015.996 0 0 1-.497 1.866zm11.09-6.17a1.015.996 0 0 1-1.015-.996l.005-11.994a1.015.996 0 0 1 2.03 0v11.99a1.015.996 0 0 1-1.015.996zm11.3 6a1.015.996 0 0 1-.491-1.87l10.471-5.67a1.016.996 0 1 1 .982 1.745L34.52 70.71a1.012.993 0 0 1-.49.125zM44.5 89.82a1.007.988 0 0 1-.551-.16L33.66 83.11a1.015.996 0 0 1 1.105-1.672L45.05 87.99a1.015.996 0 0 1-.553 1.833zm-21.77 12.33a1.015.996 0 0 1-1.015-.996l.005-11.644a1.015.996 0 0 1 2.03 0v11.65a1.015.996 0 0 1-1.015.996zM.97 89.82a1.015.996 0 0 1-.575-1.818L10.53 81.19a1.015.996 0 1 1 1.146 1.644L1.54 89.65a1.008.99 0 0 1-.572.174Zm21.75-12.33a1.015.996 0 0 1 0-1.993l8.83.003a1.015.996 0 0 1 0 1.993z" style="fill:#2074bb;stroke:none;stroke-width:11.4453001;stroke-linecap:butt"/></g><g transform="translate(23.987 -26.865)"><title>circle22</title><ellipse cx="1.509" cy="100.673" rx="1.509" ry="1.481" style="fill:#2074bb;stroke:none;stroke-width:11.4453001;stroke-linecap:butt"/></g><g transform="translate(16.934 -22.638)"><title>path24</title><path d="M0 96.93a8.602 8.441-180 0 0 2.5 5.22l2.32-2.28a5.456 5.353 0 0 1-1.62-2.94Z" style="fill:#c0dcef;stroke:none;stroke-width:11.4453001;stroke-linecap:butt"/></g><g transform="translate(19.411 -32.51)"><title>path26</title><path d="M5.61 97.58A8.6 8.439-180 0 0 0 100.05l2.15 2.1a5.448 5.345 0 0 1 3.46-1.63z" style="fill:#69abdb;stroke:none;stroke-width:11.4453001;stroke-linecap:butt"/></g><g transform="translate(26.035 -32.51)"><title>path28</title><path d="M5.61 100.05A8.6 8.439-180 0 0 0 97.58v2.94a5.448 5.345 0 0 1 3.46 1.63z" style="fill:#3b8fcd;stroke:none;stroke-width:11.4453001;stroke-linecap:butt"/></g><g transform="translate(16.905 -28.86)"><title>path30</title><path d="M1.84 97.15a8.583 8.422-180 0 0-1.84 5h3.14a5.448 5.345 0 0 1 .88-2.86z" style="fill:#9bc7e6;stroke:none;stroke-width:11.4453001;stroke-linecap:butt"/></g><g transform="translate(30.13 -30.464)"><title>path32</title><path d="M3.81 102.15a8.58 8.42-180 0 0-1.63-3.4L0 100.89a5.51 5.406 0 0 1 .61 1.26z" style="fill:#2074bb;stroke:none;stroke-width:11.4453001;stroke-linecap:butt"/></g></g></g></svg>