<svg xmlns="http://www.w3.org/2000/svg" xml:space="preserve" width="68.031" height="75.585" style="font-size:12px;overflow:visible;color-interpolation-filters:sRGB;fill-rule:evenodd;stroke-linecap:square;stroke-miterlimit:3" viewBox="0 0 51.023 56.689"><defs><linearGradient id="a" x1="0" x2="52.781" y1="40.388" y2="40.388" gradientTransform="scale(.9667 1.03444)" gradientUnits="userSpaceOnUse"><stop offset="0" stop-color="#198ab3"/><stop offset=".44" stop-color="#28b7db"/><stop offset=".775" stop-color="#32d4f5"/></linearGradient><linearGradient id="b" x1="0" x2="28.691" y1="58.851" y2="58.851" gradientTransform="scale(.9083 1.10095)" gradientUnits="userSpaceOnUse"><stop offset="0" stop-color="#fff"/><stop offset="1" stop-color="#fff"/></linearGradient></defs><g transform="translate(-5.102 -5.673)"><title>Page-1</title><g transform="translate(5.102 -34.016)"><title>IoT Sphere.21778</title><title>g40</title><title>circle16</title><ellipse cx="25.512" cy="69.078" rx="25.512" ry="27.299" style="fill:url(#a);stroke:none;stroke-width:2.02823997;stroke-linecap:butt"/><g transform="translate(12.483 -8.489)"><title>path18</title><path d="M12.46 96.01C9.54 94.08 0 87.18 0 79.13v-10.3l1.02-.07a12.138 12.988-180 0 0 7.06-2.38 7.443 7.965 0 0 1 4.95-1.57 7.536 8.065 0 0 1 4.95 1.56 12.15 13.001-180 0 0 7.05 2.39l1.03.07v10.3c0 8.05-9.54 14.95-12.47 16.88l-.56.37z" style="fill:url(#b);stroke:none;stroke-width:2.02823997;stroke-linecap:butt"/></g><g transform="translate(13.863 -10.223)"><title>path20</title><path d="M11.65 96.38C5.99 92.62 0 86.6 0 80.86v-8.91a13.344 14.28-180 0 0 7.46-2.61 6.084 6.51 0 0 1 4.19-1.32 6.222 6.658 0 0 1 4.18 1.32 13.374 14.311-180 0 0 7.47 2.61v8.91c0 5.74-5.99 11.76-11.65 15.52" style="fill:#50e6ff;stroke:none;stroke-width:2.02823997;stroke-linecap:butt"/></g><g transform="translate(40.414 -7.578)"><title>g26</title><g transform="translate(.234 -.261)"><title>circle22</title><ellipse cx="3.908" cy="92.196" rx="3.908" ry="4.182" style="fill:#fff;stroke:none;stroke-width:2.02823997;stroke-linecap:butt"/></g><title>path24</title><path d="M4.14 87.75a3.902 4.175 0 1 1-3.9 4.18 3.902 4.175 0 0 1 3.9-4.18m0-2.09a5.865 6.276-180 1 0 5.87 6.27 5.87 6.282-180 0 0-5.86-6.27z" style="fill:#b3b3b3;stroke:none;stroke-width:2.02823997;stroke-linecap:butt"/></g><g transform="translate(2.318 -7.58)"><title>g32</title><g transform="translate(.242 -.26)"><title>circle28</title><ellipse cx="3.908" cy="92.196" rx="3.908" ry="4.182" style="fill:#fff;stroke:none;stroke-width:2.02823997;stroke-linecap:butt"/></g><title>path30</title><path d="M4.15 87.76a3.902 4.175 0 1 1-3.9 4.17 3.902 4.175 0 0 1 3.9-4.17m0-2.1a5.865 6.276-180 1 0 5.86 6.28 5.868 6.279-180 0 0-5.86-6.28" style="fill:#b3b3b3;stroke:none;stroke-width:2.02823997;stroke-linecap:butt"/></g><g transform="translate(21.36 -45.98)"><title>g38</title><g transform="translate(.243 -.255)"><title>circle34</title><ellipse cx="3.908" cy="92.196" rx="3.908" ry="4.182" style="fill:#fff;stroke:none;stroke-width:2.02823997;stroke-linecap:butt"/></g><title>path36</title><path d="M4.15 87.76a3.902 4.175 0 1 1-3.9 4.18 3.902 4.175 0 0 1 3.9-4.18m0-2.09a5.865 6.276-180 1 0 5.86 6.27 5.87 6.282-180 0 0-5.86-6.27" style="fill:#b3b3b3;stroke:none;stroke-width:2.02823997;stroke-linecap:butt"/></g></g></g></svg>