<svg xmlns="http://www.w3.org/2000/svg" xml:space="preserve" width="75.589" height="75.59" style="font-size:12px;overflow:visible;color-interpolation-filters:sRGB;fill-rule:evenodd;stroke-linecap:square;stroke-miterlimit:3" viewBox="0 0 56.691 56.693"><defs><linearGradient id="a" x1="0" x2="52.028" y1="67.435" y2="67.435" gradientTransform="scale(.95795 1.0439)" gradientUnits="userSpaceOnUse"><stop offset="0" stop-color="#a67af4"/><stop offset="1" stop-color="#773adc"/></linearGradient><linearGradient id="b" x1="0" x2="38.24" y1="81.476" y2="81.476" gradientTransform="scale(.95998 1.04169)" gradientUnits="userSpaceOnUse"><stop offset="0" stop-color="#50e6ff"/><stop offset=".995" stop-color="#32bedd"/></linearGradient><linearGradient id="c" x1="0" x2="31.747" y1="97.217" y2="97.217" gradientTransform="scale(1.0341 .96702)" gradientUnits="userSpaceOnUse"><stop offset="0" stop-color="#fff"/><stop offset="1" stop-color="#9cebff"/></linearGradient></defs><g transform="translate(-34 -33.999)"><title>Page-1</title><g transform="translate(34 -34.016)"><title>IoT Digital Twin.21901</title><title>Sheet.21902</title><g transform="translate(0 -2.381)"><title>Sheet.21903</title><path d="M45.63 80.95 29.08 71.5a8.36 8.264-180 0 0-8.35 0L4.18 80.95A8.363 8.267-180 0 0 0 88.1V107a8.363 8.267-180 0 0 4.18 7.15l16.56 9.45a8.36 8.264-180 0 0 8.36 0l16.56-9.45a8.363 8.267-180 0 0 4.18-7.15V88.1a8.363 8.267-180 0 0-4.21-7.15" style="fill:url(#a);stroke:none;stroke-width:34;stroke-linecap:butt"/></g><g transform="translate(19.982)"><title>Sheet.21904</title><path d="M33.34 92.4 21.7 85.76a6.719 6.642-180 0 0-6.71 0L3.35 92.4A6.69 6.614-180 0 0 0 98.15v13.28a6.71 6.633-180 0 0 3.35 5.75l11.64 6.64a6.719 6.642-180 0 0 6.71 0l11.64-6.64a6.716 6.639-180 0 0 3.37-5.75V98.15a6.713 6.636-180 0 0-3.37-5.75" style="fill:url(#b);stroke:none;stroke-width:34;stroke-linecap:butt"/></g><g transform="translate(8.697 -18.493)"><title>Sheet.21905</title><path d="m15.11 95.84 3.35-1.83 14.37 29.44-1.17 1.26H0l.36-3.77h26.7z" style="fill:url(#c);stroke:none;stroke-width:34;stroke-linecap:butt"/></g><g transform="translate(3.59 -15.48)"><title>Sheet.21906</title><ellipse cx="4.779" cy="119.985" rx="4.779" ry="4.724" style="fill:#fff;stroke:none;stroke-width:34;stroke-linecap:butt"/></g><g transform="translate(30.862 -12.535)"><title>Sheet.21907</title><ellipse cx="7.468" cy="117.326" rx="7.468" ry="7.382" style="fill:#fff;stroke:none;stroke-width:34;stroke-linecap:butt"/></g><g transform="translate(20.504 -43.91)"><title>Sheet.21908</title><ellipse cx="4.779" cy="119.985" rx="4.779" ry="4.724" style="fill:#fff;stroke:none;stroke-width:34;stroke-linecap:butt"/></g></g></g></svg>