<svg xmlns="http://www.w3.org/2000/svg" xml:space="preserve" width="67.63" height="75.734" style="font-size:12px;overflow:visible;color-interpolation-filters:sRGB;fill-rule:evenodd;stroke-linecap:square;stroke-miterlimit:3" viewBox="0 0 50.723 56.801"><defs><linearGradient id="a" x1="0" x2="38.049" y1="87.839" y2="87.839" gradientTransform="scale(1.00871 .99136)" gradientUnits="userSpaceOnUse"><stop offset="0" stop-color="#50e6ff"/><stop offset=".95" stop-color="#32bedd"/></linearGradient></defs><g transform="translate(-34 -33.998)"><title>Page-1</title><g transform="translate(35.266 -34.057)"><title>IoT Hub Update.21826</title><title>Sheet.21827</title><g transform="translate(4.912 -9.408)"><title>Sheet.21828</title><path d="M38.38 105.93v.49a19.202 18.864 0 0 1-19.2 18.38h-.2l-2.75-4.59a2.798 2.749-180 0 0-2.44-1.37 2.827 2.777-180 0 0-2.64 1.75l-.84 2.07c-.32-.17-.64-.35-.96-.53l-.29-.17a5.522 5.425 0 0 1-.39-.24l-.37-.24-.25-.18-.26-.19-.15-.11-.43-.32a12.33 12.113 0 0 1-.44-.35l-.37-.32a.202.199 0 0 1-.07-.082 14.052 13.805 0 0 1-.71-.658l-.37-.37a.26.256 0 0 1-.051-.05 11.565 11.362 0 0 1-.639-.72 6 6 0 0 1-.33-.4c-.09-.13-.22-.27-.32-.41s-.21-.27-.32-.41c-.11-.13-.2-.28-.32-.43s-.19-.29-.29-.44a2.695 2.648 0 0 1-.16-.25 7.929 7.79 0 0 1-.5-.86c-.08-.13-.15-.27-.23-.41a12.838 12.612 0 0 1-.39-.8c-.06-.15-.13-.29-.2-.44-.06-.16-.14-.32-.2-.49-.06-.16-.13-.31-.18-.48-.05-.16-.1-.25-.14-.39-.04-.13-.07-.19-.1-.29s-.07-.23-.1-.34a10.692 10.504 0 0 1-.15-.51l-.14-.52a15.806 15.528 0 0 1-.11-.52 19.16 18.823 0 0 1-.36-2.66c0-.15-.02-.32-.02-.46v-.69a19.131 18.795 0 0 1 .23-2.97c.03-.23.08-.47.12-.71.05-.24.09-.38.13-.57a2.072 2.036 0 0 1 .07-.27c.04-.19.09-.39.15-.59v-.05c.06-.2.13-.41.19-.61v-.04a19.205 18.867 0 0 1 18.23-13.04l2.67 4.45a2.837 2.787-180 0 0 5.08-.38l.85-2.1a15.68 15.405 0 0 1 1.44.78l.15.08c.16.11.32.21.48.32q.435.27.84.57c.36.26.72.54 1.05.83.17.14.32.29.5.44a19.022 18.687 0 0 1 6.02 11.32 19.892 19.543 0 0 1 .16 1.78v.49a1.613 1.584 0 0 1 .02.27" style="fill:url(#a);stroke:none;stroke-width:34;stroke-linecap:butt"/></g><g transform="translate(9.985 -16.98)"><title>Sheet.21829</title><g transform="translate(2.245 -1.768)"><title>Sheet.21830</title><path d="m21.39 124.06-5.98-10.28-.6.34.49-.36-6.77-9.45-1.24.88 6 8.38L0 114.64l.13 1.52 13.16-1.08-4.37 7.13 1.32.78 4.48-7.34 5.34 9.15z" style="fill:#fff;fill-opacity:.47999998;stroke:none;stroke-width:34;stroke-linecap:butt"/></g><title>Sheet.21831</title><path d="M23.02 120.13h-.01a2.824 2.774-180 0 0-.61.05 2.75 2.702-180 0 0-2.18 2.61v.05a2.782 2.733-180 1 0 2.8-2.71m-9.35-.86a2.339 2.298-180 0 0-1.39-.64 1.468 1.442-180 0 0-.27-.02H12a2.397 2.354-180 0 0-2.41 2.33v.02a2.41 2.367-180 1 0 4.08-1.69m-9.25-6.57a2.387 2.345-180 1 0 .28 1.11 2.384 2.342-180 0 0-.28-1.11m5.94-12.52h-.09a2.983 2.93-180 0 0 .06 5.86 3.065 3.01-180 0 0 .96-.15 2.997 2.945-180 0 0 2.02-2.76 2.978 2.926-180 0 0-2.95-2.95m6.7 8.89a3.595 3.532-180 0 0-1.41.27 3.608 3.544-180 0 0-2.12 2.62 3.161 3.106-180 0 0-.06.53v.09a3.633 3.57-180 0 0 1.01 2.45 3.553 3.49-180 0 0 1.28.84 3.614 3.55-180 0 0 1.31.24 3.685 3.62-180 0 0 1.12-.17 3.592 3.529-180 0 0-1.12-6.88z" style="fill:#fff;fill-opacity:.8;stroke:none;stroke-width:34;stroke-linecap:butt"/></g><title>Sheet.21832</title><path d="M48.19 104.33a1.487 1.461 0 0 1-1.96.91l-1.74-.68a1.481 1.455 0 0 1-.84-1.82 20.586 20.224-180 0 0-11.75-24.9l-.5 1.23-.88 2.17a1.481 1.455 0 0 1-2.65.2l-2.23-3.71-2.87-4.79a1.481 1.455 0 0 1 .88-2.13l9.66-2.7a1.484 1.458 0 0 1 1.78 1.95l-1.39 3.4a25.408 24.962 0 0 1 14.49 30.87M24.2 122.12l-9.66 2.68a1.478 1.452 0 0 1-1.78-1.93l1.39-3.41A25.402 24.955 0 0 1 0 88.73a1.49 1.464 0 0 1 1.96-.91l1.7.67a1.5 1.474 0 0 1 .88 1.81 20.59 20.227-180 0 0 11.4 24.78l.51-1.23.87-2.16a1.481 1.455 0 0 1 2.66-.19l2.29 3.82 2.8 4.67a1.481 1.455 0 0 1-.87 2.13" style="fill:#0078d4;stroke:none;stroke-width:34;stroke-linecap:butt"/></g></g></svg>