<svg xmlns="http://www.w3.org/2000/svg" xml:space="preserve" width="75.59" height="75.595" style="font-size:12px;overflow:visible;color-interpolation-filters:sRGB;fill-rule:evenodd;stroke-linecap:square;stroke-miterlimit:3" viewBox="0 0 56.693 56.696"><defs><linearGradient id="a" x1="0" x2="47.954" y1="77.713" y2="77.713" gradientTransform="scale(.99787 1.00213)" gradientUnits="userSpaceOnUse"><stop offset="0" stop-color="#198ab3"/><stop offset="0" stop-color="#198ab3"/><stop offset=".09" stop-color="#22a5cb"/><stop offset=".19" stop-color="#29bade"/><stop offset=".29" stop-color="#2ec9eb"/><stop offset=".42" stop-color="#31d1f3"/><stop offset=".62" stop-color="#32d4f5"/></linearGradient></defs><g transform="translate(-33.718 -33.718)"><title>Page-1</title><g transform="translate(33.718 -34.016)"><title>IoT Hub.21810</title><g transform="translate(29.775 -23.625)"><title>fa3a22e9-e4e8-46a1-bc09-f953274</title><ellipse cx="6.547" cy="117.853" rx="6.547" ry="6.574" style="fill:#fff;stroke:none;stroke-width:33.71760178;stroke-linecap:butt"/></g><g transform="translate(42.138 -5.472)"><title>eb214416-6791-4934-ac0c-35afaa8</title><ellipse cx="5.151" cy="119.254" rx="5.151" ry="5.172" style="fill:#fff;stroke:none;stroke-width:33.71760178;stroke-linecap:butt"/></g><g transform="translate(22.498 -9.744)"><title>a4424413-b91f-48da-aedd-39e3a97</title><ellipse cx="4.42" cy="119.988" rx="4.42" ry="4.438" style="fill:#fff;stroke:none;stroke-width:33.71760178;stroke-linecap:butt"/></g><g transform="translate(18.244 -42.478)"><title>f7ecfc1a-3268-471b-9464-57023bf</title><ellipse cx="5.483" cy="118.92" rx="5.483" ry="5.506" style="fill:#fff;stroke:none;stroke-width:33.71760178;stroke-linecap:butt"/></g><g transform="translate(4.62 -23.258)"><title>b4388938-ad80-41b4-b729-5c21e3e</title><ellipse cx="4.42" cy="119.988" rx="4.42" ry="4.438" style="fill:#fff;stroke:none;stroke-width:33.71760178;stroke-linecap:butt"/></g><g transform="translate(8.906 -10.277)"><title>polygon26</title><path d="M24.59 103.17 0 105.21l.23 2.87 24.36-2.04-8.07 13.48 2.42 1.47 8.31-13.88 9.87 17.32 2.46-1.41-11.07-19.45-1.09.63.89-.66-12.53-17.89-2.29 1.67z" style="fill:#949494;stroke:none;stroke-width:33.71760178;stroke-linecap:butt"/></g><title>g32</title><g transform="translate(40.443 -40.676)"><title>path28</title><path d="M16.25 110.85a2.426 2.436-180 0 0-2.43-2.44H1.2a1.196 1.201-180 0 0-1.2 1.2v4.71a1.196 1.201-180 0 0 1.2 1.2h7.81v7.67a1.263 1.268-180 0 0 1.23 1.24h4.65a1.263 1.268-180 0 0 1.23-1.24v-12.34z" style="fill:#949494;stroke:none;stroke-width:33.71760178;stroke-linecap:butt"/></g><title>path30</title><path d="M15.05 117.35H7.11v-7.67a1.263 1.268-180 0 0-1.23-1.24H1.23A1.263 1.268-180 0 0 0 109.68v12.34a2.426 2.436-180 0 0 2.43 2.41h12.62a1.196 1.201-180 0 0 1.2-1.21v-4.67a1.196 1.201-180 0 0-1.2-1.2" style="fill:#949494;stroke:none;stroke-width:33.71760178;stroke-linecap:butt"/><g transform="translate(4.62 -6.942)"><title>path34</title><path d="M31.7 94.66a6.646 6.674 0 1 1-6.64 6.51 6.646 6.674 0 0 1 6.64-6.51M13.76 83.38a5.516 5.54-180 1 0 5.38-5.5 5.483 5.506-180 0 0-5.38 5.5M0 103.64a4.42 4.438-180 1 0 4.42-4.44A4.42 4.438-180 0 0 0 103.64m17.88 13.51a4.453 4.471-180 1 0 4.45-4.43 4.42 4.438-180 0 0-4.45 4.43m19.67 3.57a5.15 5.172-180 1 0 5.15-5.13 5.084 5.105-180 0 0-5.15 5.13" style="fill:url(#a);stroke:none;stroke-width:33.71760178;stroke-linecap:butt"/></g></g></g></svg>