<svg xmlns="http://www.w3.org/2000/svg" xml:space="preserve" width="75.587" height="75.601" style="font-size:12px;overflow:visible;color-interpolation-filters:sRGB;fill-rule:evenodd;stroke-linecap:square;stroke-miterlimit:3" viewBox="0 0 56.69 56.701"><defs><linearGradient id="a" x1="0" x2="47.989" y1="96.99" y2="96.99" gradientTransform="scale(1.18132 .8465)" gradientUnits="userSpaceOnUse"><stop offset="0" stop-color="#198ab3"/><stop offset=".44" stop-color="#28b7db"/><stop offset=".78" stop-color="#32d4f5"/></linearGradient><linearGradient id="b" x1="0" x2="11.97" y1="110.147" y2="110.147" gradientTransform="scale(.995 1.00502)" gradientUnits="userSpaceOnUse"><stop offset="0" stop-color="#198ab3"/><stop offset=".44" stop-color="#28b7db"/><stop offset=".78" stop-color="#32d4f5"/></linearGradient></defs><g transform="translate(-32.011 -32.014)"><title>Page-1</title><g transform="translate(32.011 -34.016)"><title>IoT Edge.21890</title><title>layer1</title><g transform="translate(0 -16.073)"><title>path12</title><path d="M56.69 109.98a12.787 12.917-180 0 0-11.05-12.25A16.063 16.225-180 0 0 29.1 82.11a16.472 16.639-180 0 0-15.75 10.85A15.181 15.335-180 0 0 0 107.72a15.433 15.589-180 0 0 15.97 14.98h27.24a2.457 2.482-180 0 0 .7 0 12.882 13.012-180 0 0 12.78-12.72" style="fill:url(#a);stroke:none;stroke-width:32.01110077;stroke-linecap:butt"/></g><g transform="translate(27.024 -10.371)"><title>path14</title><path d="M0 103.034h2.457v19.693H0z" style="fill:#b3b3b3;stroke:none;stroke-width:32.01110077;stroke-linecap:butt"/></g><g transform="translate(21.7 -29.396)"><title>circle16</title><ellipse cx="6.551" cy="116.11" rx="6.551" ry="6.617" style="fill:#f2f2f2;stroke:none;stroke-width:32.01110077;stroke-linecap:butt"/></g><g transform="translate(22.3)"><title>rect18</title><path d="M0 120.4a2.3 2.323-180 0 0 2.3 2.33h7.31a2.3 2.323-180 0 0 2.3-2.33v-7.38a2.3 2.323-180 0 0-2.3-2.32H2.3a2.3 2.323-180 0 0-2.3 2.32Z" style="fill:url(#b);stroke:none;stroke-width:32.01110077;stroke-linecap:butt"/></g></g></g></svg>