<svg xmlns="http://www.w3.org/2000/svg" xml:space="preserve" width="73.659" height="74.907" style="font-size:12px;overflow:visible;color-interpolation-filters:sRGB;fill-rule:evenodd;stroke-linecap:square;stroke-miterlimit:3" viewBox="0 0 55.244 56.18"><g transform="translate(-12.237 -12.244)"><title>Page-1</title><g transform="translate(11.515 -34.016)"><title>IoT Hub Message Routing.21849</title><title>Sheet.21850</title><g transform="translate(15.26 -14.55)"><title>Sheet.21851</title><path d="m0 99.77 28.3-28.79 2.4 2.45-28.3 28.78Z" style="fill:#3999c6;stroke:none;stroke-width:12.23999977;stroke-linecap:butt"/></g><g transform="translate(5.768 -15.313)"><title>Sheet.21852</title><path d="M43.72 77.77a6.676 6.79-180 0 0 0-9.61 6.676 6.79-180 0 0-9.45 0 6.676 6.79-180 0 0 0 9.61 6.676 6.79-180 0 0 9.45 0M0 68.82l3.27-.92 9.06 33.39-3.27.92z" style="fill:#3999c6;stroke:none;stroke-width:12.23999977;stroke-linecap:butt"/></g><g transform="translate(0 -4.897)"><title>Sheet.21853</title><path d="M13.85 56.19c-.95-3.63-4.61-5.77-8.17-4.8C2.11 52.36 0 56.08.95 59.7c.96 3.63 4.62 5.78 8.18 4.81a6.674 6.789-180 0 0 4.72-8.32M16.01 93l.9-3.33 32.83 9.21-.9 3.33z" style="fill:#3999c6;stroke:none;stroke-width:12.23999977;stroke-linecap:butt"/></g><g transform="translate(6.645)"><title>Sheet.21854</title><path d="M40.92 102.21a6.676 6.79-180 0 0 8.17-4.8c.96-3.63-1.15-7.35-4.72-8.32-3.56-.97-7.22 1.18-8.18 4.8a6.677 6.791-180 0 0 4.73 8.32m-24.78-9.34c3.49-3.55 3.49-9.31 0-12.86a8.844 8.844 0 0 0-12.65 0C0 83.56 0 89.32 3.49 92.87a8.835 8.835 0 0 0 12.65 0" style="fill:#3999c6;stroke:none;stroke-width:12.23999977;stroke-linecap:butt"/></g></g></g></svg>