<svg xmlns="http://www.w3.org/2000/svg" xml:space="preserve" width="56.829" height="75.589" style="font-size:12px;overflow:visible;color-interpolation-filters:sRGB;fill-rule:evenodd;stroke-linecap:square;stroke-miterlimit:3" viewBox="0 0 42.622 56.692"><g transform="translate(-14.572 -14.572)"><title>Page-1</title><g transform="translate(14.607 -34.016)"><title>IoT Hub Security Alert.21838</title><title>Sheet.21839</title><title>Sheet.21840</title><path d="M41.12 89.73s-4.84 9.73-18.13 15.07l-1.56.48-1.52-.47A38.042 36.81 0 0 1 1.3 89.73a11.327 10.96 0 0 1-1.3-4.7V60.09a1.395 1.35 0 0 1 1.67-1.62 17.856 17.278-180 0 0 18.53-9.52 1.98 1.917 0 0 1 1.2-.36 2.05 1.984 0 0 1 1.24.34 17.173 16.616-180 0 0 18.14 9.45 1.395 1.35 0 0 1 1.74 1.7v24.95a11.327 10.96 0 0 1-1.4 4.7" style="fill:#7ac3e1;stroke:none;stroke-width:14.57139969;stroke-linecap:butt"/><g transform="translate(6.78)"><title>Sheet.21841</title><path d="m16.21 104.8-1.56.48-1.52-.47A40.748 39.429 0 0 1 0 96.43l29.34-37.96a20.688 20.018-180 0 0 4.66 0 1.395 1.35 0 0 1 1.74 1.61v24.95a11.327 10.96 0 0 1-1.4 4.69s-4.84 9.74-18.13 15.08" style="fill:#54a5cb;stroke:none;stroke-width:14.57139969;stroke-linecap:butt"/></g><g transform="translate(17.619 -13.793)"><title>Sheet.21842</title><path d="M3.65 99.27a3.641 3.523 0 1 1-3.62 3.53 3.627 3.51 0 0 1 3.62-3.53M0 78.04h7.25L5.23 94.97H1.9Z" style="fill:#fff;stroke:none;stroke-width:14.57139969;stroke-linecap:butt"/></g></g></g></svg>