<svg xmlns="http://www.w3.org/2000/svg" xml:space="preserve" width="60.466" height="75.598" style="font-size:12px;overflow:visible;color-interpolation-filters:sRGB;fill-rule:evenodd;stroke-linecap:square;stroke-miterlimit:3" viewBox="0 0 45.35 56.699"><defs><linearGradient id="a" x1="0" x2="46.539" y1="54.251" y2="54.251" gradientTransform="scale(.89538 1.11685)" gradientUnits="userSpaceOnUse"><stop offset=".22" stop-color="#32d4f5"/><stop offset=".47" stop-color="#31d1f3"/><stop offset=".63" stop-color="#2ec9eb"/><stop offset=".77" stop-color="#29bade"/><stop offset=".89" stop-color="#22a5cb"/><stop offset="1" stop-color="#198ab3"/></linearGradient></defs><g transform="translate(-21.857 -21.854)"><title>Page-1</title><g transform="translate(21.857 -34.016)"><title>IoT Defender.21924</title><title>Sheet.21925</title><title>Sheet.21926</title><path d="M45.35 82.33c0 15.32-18.06 27.52-21.96 30.02a1.42 1.449 0 0 1-1.5 0C17.96 109.85 0 97.65 0 82.33V64.06a1.44 1.47 0 0 1 1.4-1.45c13.94-.46 10.72-6.74 21.23-6.74s7.3 6.3 21.33 6.68A1.44 1.47 0 0 1 45.35 64Z" style="fill:#32bedd;stroke:none;stroke-width:21.85709953;stroke-linecap:butt"/><g transform="translate(1.79 -2.364)"><title>Sheet.21927</title><path d="M41.67 84.86c0 13.96-16.45 25.19-20.13 27.5a1.275 1.302 0 0 1-1.38 0C16.56 110.07 0 98.82 0 84.86v-16.8a1.316 1.344 0 0 1 1.28-1.34c12.87-.3 9.91-6.13 19.56-6.13 9.64 0 6.68 5.83 19.56 6.11a1.296 1.323 0 0 1 1.27 1.34z" style="fill:url(#a);stroke:none;stroke-width:21.85709953;stroke-linecap:butt"/></g><g transform="translate(10.984 -21.213)"><title>Sheet.21928</title><path d="m19.87 111.83-5.57-9.93-.56.29.45-.33-6.31-9.18-1.15.84 5.61 8.13L0 102.7v1.47l12.34-1.05-4.11 6.91 1.21.75 4.11-7.09 5.09 8.88 1.25-.72z" style="fill:#e6e6e6;stroke:none;stroke-width:21.85709953;stroke-linecap:butt"/></g><g transform="translate(8.721 -18.757)"><title>Sheet.21929</title><g transform="translate(12.691 -9.3)"><title>Sheet.21930</title><ellipse cx="3.27" cy="109.228" rx="3.27" ry="3.338" style="fill:#fff;stroke:none;stroke-width:21.85709953;stroke-linecap:butt"/></g><g transform="translate(6.87 -18.936)"><title>Sheet.21931</title><ellipse cx="2.777" cy="109.732" rx="2.777" ry="2.834" style="fill:#fff;stroke:none;stroke-width:21.85709953;stroke-linecap:butt"/></g><g transform="translate(0 -9.111)"><title>Sheet.21932</title><ellipse cx="2.242" cy="110.277" rx="2.242" ry="2.288" style="fill:#fff;stroke:none;stroke-width:21.85709953;stroke-linecap:butt"/></g><g transform="translate(9.01 -2.162)"><title>Sheet.21933</title><ellipse cx="2.242" cy="110.277" rx="2.242" ry="2.288" style="fill:#fff;stroke:none;stroke-width:21.85709953;stroke-linecap:butt"/></g><g transform="translate(18.944)"><title>Sheet.21934</title><ellipse cx="2.592" cy="109.921" rx="2.592" ry="2.645" style="fill:#fff;stroke:none;stroke-width:21.85709953;stroke-linecap:butt"/></g></g></g></g></svg>