<svg xmlns="http://www.w3.org/2000/svg" xml:space="preserve" width="70.954" height="75.236" style="font-size:12px;overflow:visible;color-interpolation-filters:sRGB;fill-rule:evenodd;stroke-linecap:square;stroke-miterlimit:3" viewBox="0 0 53.216 56.427"><g transform="translate(-6.03 -5.667)"><title>Page-1</title><g transform="translate(5.386 -34.016)"><title>IoT Hub Certificate.21877</title><title>Sheet.21878</title><g transform="translate(9.373 -9.457)"><title>Sheet.21879</title><g transform="translate(10.018 -3.92)"><title>Sheet.21880</title><path d="M34.32 96.38H4.07c0-2.31-.05-4.61.05-6.86 0-.3.39-.69.69-.88 4.17-2.85 5.95-6.72 4.81-11.62-1.14-4.8-4.51-7.45-9.37-8.28-.05 0-.1-.05-.25-.1V53.16c.69-.05 1.24-.1 1.83-.1 7.74 0 15.53 0 23.26.05.8 0 1.84.44 2.38.98 2.14 2.11 4.12 4.26 6.1 6.52.45.49.85 1.17.85 1.81.05 11.07.05 22.2.05 33.27 0 .2-.05.39-.15.69" style="fill:#0072c6;stroke:none;stroke-width:5.32174015;stroke-linecap:butt"/></g><title>Sheet.21881</title><path d="M9.17 84.52c-5.2 0-9.17-3.87-9.17-8.97 0-5.04 4.07-9.06 9.17-9.06 5.06 0 9.23 4.06 9.23 9.06-.05 5.05-4.07 8.97-9.23 8.97m6.01-8.92c0-3.28-2.68-5.98-6.01-5.98-3.32 0-6 2.65-6.05 5.98 0 3.28 2.68 5.98 6.01 6.03 3.32-.05 6.05-2.75 6.05-6.03M5.95 96.38V86.19h6.35v10.14c-.74-.98-1.39-1.62-1.84-2.35-.84-1.28-1.58-1.42-2.48-.05-.54.68-1.19 1.42-2.03 2.45" style="fill:#0072c6;stroke:none;stroke-width:5.32174015;stroke-linecap:butt"/><g transform="translate(4.711 -16.415)"><title>Sheet.21882</title><path d="M4.36 96.33a4.31 4.31 0 0 0 4.42-4.22c.05-2.45-1.94-4.45-4.42-4.45-2.38 0-4.36 2-4.36 4.36.05 2.35 1.98 4.26 4.36 4.31" style="fill:#0072c6;stroke:none;stroke-width:5.32174015;stroke-linecap:butt"/></g><g transform="translate(4.711 -16.415)"><title>Sheet.21883</title><path d="M4.36 96.33C1.98 96.28 0 94.37 0 91.97c0-2.35 1.98-4.31 4.36-4.36 2.43 0 4.47 2.01 4.42 4.46 0 2.45-1.99 4.31-4.42 4.26" style="fill:#0072c6;stroke:none;stroke-width:5.32174015;stroke-linecap:butt"/></g></g><title>Sheet.21884</title><path d="M10.27 83.15C5.8 75.8 8.68 68.59 13.44 65.21c5.26-3.77 12.45-3.23 17.06 1.33 4.66 4.6 5.16 11.85 1.19 17.1-3.37 4.41-10.61 7.4-17.85 3.04-.8.73-1.64 1.47-2.43 2.25l-6.1 6.32c-1.09 1.13-1.64 1.13-2.73.1-2.58-2.4-2.58-2.5 0-4.9Zm10.91 2.4c5.5 0 9.87-4.31 9.87-9.75S26.68 66 21.18 66c-5.56 0-9.97 4.36-9.92 9.85.05 5.39 4.41 9.7 9.92 9.7" style="fill:#a0a1a2;stroke:none;stroke-width:5.32174015;stroke-linecap:butt"/></g></g></svg>