<svg xmlns="http://www.w3.org/2000/svg" xml:space="preserve" width="60.467" height="75.597" style="font-size:12px;overflow:visible;color-interpolation-filters:sRGB;fill-rule:evenodd;stroke-linecap:square;stroke-miterlimit:3" viewBox="0 0 45.35 56.698"><g transform="translate(-4.536 -5.666)"><title>Page-1</title><g transform="translate(4.535 -34.016)"><title>IoT Central.21945</title><title>Sheet.21946</title><path d="M22.68 39.69 0 53.83v9.45l8.81 5.82v-5.67l-4.62-2.89v-3.91l18.49-11.65 18.49 11.68v22.62L22.68 90.93 0 76.79v5.29l22.68 14.3 22.67-14.14V53.89Z" style="fill:#a3a3a3;stroke:none;stroke-width:.75;stroke-linecap:butt"/><g transform="translate(0 -39.748)"><title>Sheet.21947</title><path d="M22.68 79.43 0 93.57l4.19 2.81 18.49-11.66 18.49 11.66 4.18-2.81Z" style="fill:#949494;stroke:none;stroke-width:.75;stroke-linecap:butt"/></g><g transform="translate(22.677 -12.819)"><title>Sheet.21948</title><path d="M12.28 73.1v15.5L0 96.38v-15.5z" style="fill:#32bedd;stroke:none;stroke-width:.75;stroke-linecap:butt"/></g><g transform="translate(10.4 -28.315)"><title>Sheet.21949</title><path d="m24.55 88.6-12.27 7.78L0 88.6l12.28-7.78Z" style="fill:#9cebff;stroke:none;stroke-width:.75;stroke-linecap:butt"/></g><g transform="translate(10.4 -12.819)"><title>Sheet.21950</title><path d="M12.28 80.88v15.5L0 88.6V73.1Z" style="fill:#50e6ff;stroke:none;stroke-width:.75;stroke-linecap:butt"/></g><g transform="translate(10.4 -12.819)"><title>Sheet.21951</title><path d="m0 88.6 12.28-7.72v15.5z" style="fill:#9cebff;stroke:none;stroke-width:.75;stroke-linecap:butt"/></g><g transform="translate(22.677 -12.819)"><title>Sheet.21952</title><path d="M12.28 88.6 0 80.88v15.5z" style="fill:#50e6ff;stroke:none;stroke-width:.75;stroke-linecap:butt"/></g></g></g></svg>