<svg xmlns="http://www.w3.org/2000/svg" xml:space="preserve" width="73.659" height="74.919" style="font-size:12px;overflow:visible;color-interpolation-filters:sRGB;fill-rule:evenodd;stroke-linecap:square;stroke-miterlimit:3" viewBox="0 0 55.244 56.189"><g transform="translate(-7.862 -7.865)"><title>Page-1</title><g transform="translate(7.14 -34.016)"><title>Message Routing.21765</title><title>g12</title><g transform="translate(15.26 -14.55)"><title>path4</title><path d="m0 95.39 28.3-28.78 2.4 2.44L2.4 97.84Z" style="fill:#3999c6;stroke:none;stroke-width:7.86433983;stroke-linecap:butt"/></g><g transform="translate(5.768 -15.313)"><title>path6</title><path d="M43.72 73.39a6.676 6.79-180 0 0 0-9.6 6.676 6.79-180 0 0-9.45 0 6.676 6.79-180 0 0 0 9.6 6.676 6.79-180 0 0 9.45 0M0 64.45l3.27-.92 9.06 33.39-3.27.92Z" style="fill:#3999c6;stroke:none;stroke-width:7.86433983;stroke-linecap:butt"/></g><g transform="translate(0 -4.897)"><title>path8</title><path d="M13.85 51.81c-.95-3.62-4.61-5.77-8.17-4.8C2.11 47.98 0 51.7.95 55.33c.96 3.62 4.62 5.77 8.18 4.8a6.674 6.789-180 0 0 4.72-8.32m2.16 36.82.9-3.33 32.83 9.21-.9 3.33z" style="fill:#3999c6;stroke:none;stroke-width:7.86433983;stroke-linecap:butt"/></g><g transform="translate(6.645)"><title>path10</title><path d="M40.92 97.84a6.676 6.79-180 0 0 8.17-4.81c.96-3.62-1.15-7.34-4.72-8.31-3.56-.98-7.22 1.17-8.18 4.8a6.677 6.791-180 0 0 4.73 8.32M16.14 88.5c3.49-3.56 3.49-9.31 0-12.87a8.844 8.844 0 0 0-12.65 0C0 79.19 0 84.94 3.49 88.5a8.844 8.844 0 0 0 12.65 0" style="fill:#3999c6;stroke:none;stroke-width:7.86433983;stroke-linecap:butt"/></g></g></g></svg>