<svg xmlns="http://www.w3.org/2000/svg" xml:space="preserve" width="59.592" height="75.191" style="font-size:12px;overflow:visible;color-interpolation-filters:sRGB;fill-rule:evenodd;stroke-linecap:square;stroke-miterlimit:3" viewBox="0 0 44.694 56.393"><g transform="translate(-5.321 -5.67)"><title>Page-1</title><g transform="translate(4.661 -34.016)"><title>Query Explorer.21759</title><title>Sheet.21760</title><g transform="translate(14.384 -14.284)"><title>Sheet.21761</title><title>Sheet.21762</title><path d="M30.97 64.33v32.05H0V53.97h20.65v6.77c0 3.83-.35 3.49 3.47 3.49h6.46c.1 0 .15.05.39.1M15.41 80.82h9.84c.78 0 1.61-.05 1.56-1.03 0-1.03-.83-1.03-1.61-1.03H5.68c-.79 0-1.62.05-1.57 1.03 0 .98.83 1.03 1.61 1.03zm.05 6.23H5.63c-.74 0-1.47.05-1.52.98-.05.99.73 1.13 1.52 1.13h19.66c.74 0 1.47-.1 1.52-.98.05-.98-.73-1.13-1.52-1.13-3.27.05-6.55 0-9.83 0m-2.2-14.53h7.88c.73 0 1.46-.1 1.51-.98.05-.98-.73-1.08-1.51-1.08H5.63c-.74 0-1.47.05-1.52.98-.05.98.73 1.13 1.52 1.08z" style="fill:#0072c6;stroke:none;stroke-width:5.32174015;stroke-linecap:butt"/><g transform="translate(22.8 -34.261)"><title>Sheet.21763</title><path d="M6.65 96.38H0V89.7c2.15 2.11 4.45 4.42 6.65 6.68" style="fill:#0072c6;stroke:none;stroke-width:5.32174015;stroke-linecap:butt"/></g></g><title>Sheet.21764</title><path d="M10.47 82.68c-4.6-7.65-1.61-15.11 3.28-18.65a13.41 13.41 0 0 1 17.46 1.38c4.8 4.81 5.29 12.32 1.23 17.76-3.43 4.57-10.86 7.71-18.3 3.15-.83.78-1.66 1.52-2.45 2.35-2.1 2.16-4.16 4.37-6.26 6.53-1.12 1.13-1.66 1.18-2.79.1-2.64-2.51-2.64-2.6 0-5.11 2.6-2.5 5.19-4.95 7.83-7.51m11.16 2.46c5.62 0 10.12-4.52 10.12-10.16 0-5.65-4.5-10.21-10.08-10.21-5.67 0-10.22 4.51-10.17 10.26 0 5.64 4.5 10.16 10.13 10.11" style="fill:#a0a1a2;stroke:none;stroke-width:5.32174015;stroke-linecap:butt"/></g></g></svg>