<svg xmlns="http://www.w3.org/2000/svg" width="80" height="80" viewBox="0 0 80 80"><title>Icon-Architecture/64/Arch_AWS-WorkSpaces_64</title><defs><linearGradient id="a" x1="0%" x2="100%" y1="100%" y2="0%"><stop offset="0%" stop-color="#055f4e"/><stop offset="100%" stop-color="#56c0a7"/></linearGradient></defs><g fill="none" fill-rule="evenodd"><path fill="url(#a)" d="M0 0h80v80H0z"/><path fill="#fff" d="m62.987 49.305-2.598-1.5-1 1.732 2.598 1.5zM37.692 30.533h2V26.63h-2zm-7.514 14.154 1.131 1.65 4.205-2.886-1.131-1.649zm2.609-25.576-6.745-2.998-11.05 5.95 6.03 3.756zM20 27.538l-6-3.737v17.645l6 3.75zm15.495-7.67L22 27.563V47a1 1 0 0 1-1 1 1 1 0 0 1-.531-.152l-8-5A1 1 0 0 1 12 42V22c0-.363.197-.698.514-.875l.013-.005h-.001l13-7a1 1 0 0 1 .88-.034l9 4a1.001 1.001 0 0 1 .089 1.782m23.162 26.937-2.569-1.514-1.03 1.714 2.599 1.532zM66 31.13l-17.034 9.884 1.121.673-1.03 1.715L48 42.766v20.451l17.042-10.416-1.323-.764 1-1.732 1.281.74zm-1.006-1.728L46.991 19.146l-7.299 4.014v1.91h-2v-.81l-8.685 4.777 8.685 5.212v-2.155h2v3.355l7.316 4.39zM46 41.566l-6.308-3.784v2.276c0 .33-.162.64-.434.825l-2.062 1.414-1.131-1.649 1.627-1.116v-2.95L28 30.765v15.416l.496-.34 1.131 1.65L28 48.608v3.825l18 10.801zm22-12.172v23.382a1 1 0 0 1-.479.853l-20 12.224-.002-.003c-.01.006-.016.015-.026.02a1 1 0 0 1-1.008-.013l-20-12A1 1 0 0 1 26 53V29h.002L26 28.981a1 1 0 0 1 .518-.857l20-11a1 1 0 0 1 .977.007l20 11.394c.31.177.504.507.505.865zM53.343 45.976l-2.572-1.545 1.029-1.714 2.573 1.544z"/></g></svg>