<svg xmlns="http://www.w3.org/2000/svg" xml:space="preserve" width="75.587" height="71.817" style="font-size:12px;overflow:visible;color-interpolation-filters:sRGB;fill-rule:evenodd;stroke-linecap:square;stroke-miterlimit:3" viewBox="0 0 56.69 53.863"><g transform="translate(-5.67 -5.381)"><title>Page-1</title><g transform="translate(5.67 -34.016)"><title>Archive Storage.21739</title><title>path2</title><path d="M49.89 93.26H6.8c-3.75 0-6.8-3.01-6.8-6.73V41.65h56.69v44.88c0 3.72-3.04 6.73-6.8 6.73" style="fill:#3e3e3e;stroke:none;stroke-width:.940678;stroke-linecap:butt"/><g transform="translate(4.535 -21.319)"><title>rect4</title><path d="M0 79.795h47.622V93.26H0z" style="fill:#fff;stroke:none;stroke-width:.940678;stroke-linecap:butt"/></g><g transform="translate(4.535 -21.319)"><title>rect6</title><path d="M0 79.795h47.622V93.26H0z" style="fill:#804998;fill-opacity:.85;stroke:none;stroke-width:.940678;stroke-linecap:butt"/></g><g transform="translate(4.535 -4.488)"><title>rect8</title><path d="M0 79.795h47.622V93.26H0z" style="fill:#fff;stroke:none;stroke-width:.940678;stroke-linecap:butt"/></g><g transform="translate(4.535 -4.488)"><title>rect10</title><path d="M0 79.795h47.622V93.26H0z" style="fill:#59b4d9;fill-opacity:.5;stroke:none;stroke-width:.940678;stroke-linecap:butt"/></g><g transform="translate(4.535 -38.15)"><title>rect12</title><path d="M0 79.795h47.622V93.26H0z" style="fill:#59b4d9;stroke:none;stroke-width:.940678;stroke-linecap:butt"/></g><g transform="translate(4.535 -32.54)"><title>rect14</title><path d="M0 91.016h47.622v2.244H0z" style="fill:#fff;fill-opacity:.25;stroke:none;stroke-width:.940678;stroke-linecap:butt"/></g><g transform="translate(4.535 -49.37)"><title>rect16</title><path d="M0 91.016h47.622v2.244H0z" style="fill:#fff;fill-opacity:.2;stroke:none;stroke-width:.940678;stroke-linecap:butt"/></g><g transform="translate(4.535 -15.709)"><title>rect18</title><path d="M0 91.016h47.622v2.244H0z" style="fill:#fff;fill-opacity:.4;stroke:none;stroke-width:.940678;stroke-linecap:butt"/></g><title>path20</title><path d="M6.8 93.26h3.06l35.59-51.61H0v44.88c0 3.72 3.05 6.73 6.8 6.73" style="fill:#fff;fill-opacity:.15;stroke:none;stroke-width:.940678;stroke-linecap:butt"/><g transform="translate(11.07 -28.276)"><title>path22</title><path d="M3.57 93.26c.51 0 .95-.38 1.01-.89L7.07 68.8c.06-.6-.41-1.12-1.02-1.12H1.08c-.61 0-1.08.52-1.01 1.12l2.49 23.57c.06.51.49.89 1.01.89" style="fill:#59b4d9;stroke:none;stroke-width:.940678;stroke-linecap:butt"/></g><g transform="translate(12.027 -29.173)"><title>polygon24</title><path d="M5.22 69.47 2.71 93.26h-.2L0 69.47Z" style="fill:#fff;fill-opacity:.6;stroke:none;stroke-width:.940678;stroke-linecap:butt"/></g><g transform="translate(12.027 -29.173)"><title>polygon26</title><path d="m2.61 69.47.1 23.79h-.2L0 69.47Z" style="fill:#fff;fill-opacity:.6;stroke:none;stroke-width:.940678;stroke-linecap:butt"/></g><g transform="translate(39.762 -23.563)"><title>path28</title><path d="M4.46 93.26c.64 0 1.19-.48 1.26-1.11l3.11-27.78c.09-.75-.5-1.41-1.26-1.41H1.35c-.76 0-1.35.66-1.26 1.41l3.1 27.78c.08.63.62 1.11 1.27 1.11" style="fill:#59b4d9;stroke:none;stroke-width:.940678;stroke-linecap:butt"/></g><g transform="translate(40.957 -24.685)"><title>polygon30</title><path d="M6.53 65.21 3.39 93.26h-.25L0 65.21Z" style="fill:#fff;fill-opacity:.6;stroke:none;stroke-width:.940678;stroke-linecap:butt"/></g><g transform="translate(33.438 -28.276)"><title>path32</title><path d="M3.57 93.26c.51 0 .95-.38 1.01-.89L7.06 68.8c.07-.6-.4-1.12-1.01-1.12H1.08c-.61 0-1.08.52-1.01 1.12l2.49 23.57c.05.51.49.89 1.01.89" style="fill:#59b4d9;stroke:none;stroke-width:.940678;stroke-linecap:butt"/></g><g transform="translate(34.647 -30.39)"><title>path34</title><path d="M0 70.91h4.72L2.36 93.26Z" style="fill:#fff;fill-opacity:.6;stroke:none;stroke-width:.940678;stroke-linecap:butt"/></g><g transform="translate(34.647 -30.39)"><title>path36</title><path d="M0 70.91h2.36v22.35Z" style="fill:#fff;fill-opacity:.6;stroke:none;stroke-width:.940678;stroke-linecap:butt"/></g><g transform="translate(40.957 -24.685)"><title>polygon38</title><path d="m3.26 65.21.13 28.05h-.25L0 65.21Z" style="fill:#fff;fill-opacity:.6;stroke:none;stroke-width:.940678;stroke-linecap:butt"/></g></g></g></svg>