<svg xmlns="http://www.w3.org/2000/svg" xml:space="preserve" width="75.592" height="71.82" style="font-size:12px;overflow:visible;color-interpolation-filters:sRGB;fill-rule:evenodd;stroke-linecap:square;stroke-miterlimit:3" viewBox="0 0 56.694 53.865"><defs><linearGradient id="a" x1="0" x2="33.658" y1="95.404" y2="95.404" gradientTransform="scale(1.0589 .94438)" gradientUnits="userSpaceOnUse"><stop offset="0" stop-color="#0078d4"/><stop offset="1" stop-color="#5ea0ef"/></linearGradient><linearGradient id="b" x1="0" x2="33.648" y1="95.379" y2="95.379" gradientTransform="scale(1.05862 .94463)" gradientUnits="userSpaceOnUse"><stop offset="0" stop-color="#32bedd"/><stop offset="1" stop-color="#50e6ff"/></linearGradient></defs><g transform="translate(-34 -33.999)"><title>Page-1</title><g transform="translate(34 -34.016)"><title>Azure Managed Lustre.21726</title><title>Sheet.21727</title><g transform="translate(21.054 -11.002)"><title>Sheet.21728</title><path d="M33.47 90.1H15.96v18.76a3.445 3.422 0 0 1-3.54 3.31H0v7.78a2.066 2.052-180 0 0 2.17 1.93h8.81c0-.19-.03-.38-.03-.57a6.865 6.819 0 0 1 13.73 0c0 .19 0 .38-.03.57h8.82a2.066 2.052-180 0 0 2.17-1.93V92.04a2.066 2.052-180 0 0-2.17-1.94" style="fill:url(#a);stroke:none;stroke-width:34;stroke-linecap:butt"/></g><g transform="translate(36.99 -31.873)"><title>Sheet.21729</title><path d="M0 115.79h13.91a1.086 1.078 0 0 1 1.08 1.08v3.93a1.086 1.078 0 0 1-1.08 1.08H0Z" style="fill:#fff;stroke:none;stroke-width:34;stroke-linecap:butt"/></g><g transform="translate(0 -22.083)"><title>Sheet.21730</title><path d="M33.47 90.1H2.16A2.066 2.052-180 0 0 0 92.03v27.91a2.066 2.052-180 0 0 2.16 1.93h8.94a6.862 6.816 0 0 1 6.71-8.28 6.855 6.81 0 0 1 6.7 8.29h8.95a2.066 2.052-180 0 0 2.16-1.93V92.04a2.066 2.052-180 0 0-2.15-1.94" style="fill:url(#b);stroke:none;stroke-width:34;stroke-linecap:butt"/></g><g transform="translate(16.472)"><title>Sheet.21731</title><path d="M22.41 121.88H1.34A1.341 1.332 0 0 1 0 120.55v-19.29a1.341 1.332 0 1 1 2.68 0v17.95h18.36v-8.17a1.341 1.332 0 1 1 2.68 0v9.51a1.341 1.332 0 0 1-1.31 1.33" style="fill:#005ba1;stroke:none;stroke-width:34;stroke-linecap:butt"/></g><g transform="translate(4.71 -42.958)"><title>Sheet.21732</title><path d="M0 120.8a1.082 1.075-180 0 0 1.08 1.08h24.06a1.082 1.075-180 0 0 1.09-1.08v-3.93a1.082 1.075-180 0 0-1.09-1.07H1.08A1.082 1.075-180 0 0 0 116.87Z" style="fill:#fff;stroke:none;stroke-width:34;stroke-linecap:butt"/></g><g transform="translate(4.71 -33.13)"><title>Sheet.21733</title><path d="M0 120.8a1.082 1.075-180 0 0 1.08 1.08h24.06a1.082 1.075-180 0 0 1.09-1.08v-3.93a1.082 1.075-180 0 0-1.09-1.07H1.08A1.082 1.075-180 0 0 0 116.87Z" style="fill:#fff;fill-opacity:.8;stroke:none;stroke-width:34;stroke-linecap:butt"/></g><g transform="translate(12.299 -18.062)"><title>Sheet.21734</title><ellipse cx="5.524" cy="116.39" rx="5.524" ry="5.487" style="fill:#7de2fb;stroke:none;stroke-width:34;stroke-linecap:butt"/></g><g transform="translate(33.346 -6.08)"><title>Sheet.21735</title><ellipse cx="5.524" cy="116.39" rx="5.524" ry="5.487" style="fill:#7de2fb;stroke:none;stroke-width:34;stroke-linecap:butt"/></g><g transform="translate(36.332 -22.048)"><title>Sheet.21736</title><g transform="translate(.664)"><title>Sheet.21737</title><path d="M13.9 115.8H.02L0 120.33v1.55h13.91a1.086 1.078-180 0 0 1.08-1.08v-3.93a1.086 1.078-180 0 0-1.09-1.07" style="fill:#fff;fill-opacity:.8;stroke:none;stroke-width:34;stroke-linecap:butt"/></g><title>Sheet.21738</title><path d="M.61 120.17a3.174 3.152 0 0 1-.61 1.69v.02h.67v-2.64z" style="fill:#fff;fill-opacity:.8;stroke:none;stroke-width:34;stroke-linecap:butt"/></g></g></g></svg>