<svg xmlns="http://www.w3.org/2000/svg" xml:space="preserve" width="75.586" height="60.472" style="font-size:12px;overflow:visible;color-interpolation-filters:sRGB;fill-rule:evenodd;stroke-linecap:square;stroke-miterlimit:3" viewBox="0 0 56.69 45.354"><defs><linearGradient id="a" x1="0" x2="43.475" y1="104.357" y2="104.357" gradientTransform="scale(1.30398 .76688)" gradientUnits="userSpaceOnUse"><stop offset="0" stop-color="#32bedd"/><stop offset=".18" stop-color="#32caea"/><stop offset=".41" stop-color="#32d2f2"/><stop offset=".78" stop-color="#32d4f5"/></linearGradient></defs><g transform="translate(-34 -34)"><title>Page-1</title><g transform="translate(34 -34.016)"><title>Azure NetApp Files.21719</title><title>Sheet.21720</title><title>Sheet.21721</title><path d="M0 80.03h56.69v31.45a1.9 1.891 0 0 1-1.9 1.89H1.9a1.9 1.891 0 0 1-1.9-1.89Z" style="fill:url(#a);stroke:none;stroke-width:34;stroke-linecap:butt"/><g transform="translate(0 -33.344)"><title>Sheet.21722</title><path d="M1.9 101.36h52.89a1.9 1.891 0 0 1 1.9 1.89v10.12H0v-10.15a1.9 1.891 0 0 1 1.9-1.86" style="fill:#198ab3;stroke:none;stroke-width:34;stroke-linecap:butt"/></g><g transform="translate(6.837 -23.258)"><title>Sheet.21723</title><path d="M.87 106.93h41.22a.9.896 0 0 1 .9.896v4.644a.9.896 0 0 1-.9.896l-41.22.004a.9.896 0 0 1-.867-.896L0 107.83a.9.896 0 0 1 .867-.896z" style="fill:#fff;stroke:none;stroke-width:34;stroke-linecap:butt"/></g><g transform="translate(6.87 -4.612)"><title>Sheet.21724</title><path d="M.87 97.54h41.22a.9.896 0 0 1 .9.896v4.684a.9.896 0 0 1-.9.896L.87 104.01a.867.863 0 0 1-.867-.896L0 98.61a.867.863 0 0 1 .867-1.062zm0 9.36h41.22a.9.896 0 0 1 .9.896v4.674a.9.896 0 0 1-.9.896l-41.22.004a.867.863 0 0 1-.867-.896L0 107.8a.867.863 0 0 1 .867-.896z" style="fill:#9cebff;stroke:none;stroke-width:34;stroke-linecap:butt"/></g><g transform="translate(15.374 -7)"><title>Sheet.21725</title><path d="M0 93.89v18.55a.934.929-180 0 0 .934.929l7.836.001a.934.929-180 0 0 .867-.929l.003-11.011a.9.896 0 0 1 .934-.929l4.696-.001a.9.896 0 0 1 .934.929l.006 11.011a.934.929-180 0 0 .967.929l7.833.001a.934.929-180 0 0 .934-.929l.006-18.551a.934.929-180 0 0-.934-.929L.93 92.97a.934.929-180 0 0-.934.929z" style="fill:#0078d4;stroke:none;stroke-width:34;stroke-linecap:butt"/></g></g></g></svg>