<svg xmlns="http://www.w3.org/2000/svg" xml:space="preserve" width="75.592" height="52.93" style="font-size:12px;overflow:visible;color-interpolation-filters:sRGB;fill-rule:evenodd;stroke-linecap:square;stroke-miterlimit:3" viewBox="0 0 56.694 39.697"><defs><linearGradient id="a" x1="0" x2="47.439" y1="48.807" y2="48.807" gradientTransform="scale(1.19502 .8368)" gradientUnits="userSpaceOnUse"><stop offset="0" stop-color="#0078d4"/><stop offset=".815" stop-color="#5ea0ef"/></linearGradient></defs><g transform="translate(-6.819 -6.817)"><title>Page-1</title><g transform="translate(6.822 -34.016)"><title>Data Box Gateway.21707</title><title>g10</title><title>g14-9</title><title>Icon691_DataBox_Gateway</title><g transform="translate(0 -.01)"><title>path4</title><path d="M56.69 68.1a12.733 12.572-180 0 0-11.05-12.08A16.057 15.853-180 0 0 29.1 40.85a16.475 16.266-180 0 0-15.74 10.6A15.208 15.014-180 0 0 0 65.89a15.426 15.23-180 0 0 15.96 14.64q.72 0 1.41-.06h25.87a2.535 2.502-180 0 0 .68-.1A12.889 12.725-180 0 0 56.69 68.1" style="fill:url(#a);stroke:none;stroke-width:6.82200003"/></g><g transform="translate(4.266)"><title>path6</title><path d="M25.56 65.52a14.916 14.727-180 1 0-14.91 15.01h14.92V65.52Z" style="fill:#50e6ff;stroke:none;stroke-width:6.82200003"/></g><g transform="translate(3.869 -6.575)"><title>path8</title><path d="m.16 75.85 5.65 4.61a.535.529-180 0 0 .878-.407L6.68 78.05h13.48v-3.13H.52a.532.526-180 0 0-.355.932z" style="fill:#fff;fill-opacity:.75;stroke:none;stroke-width:6.82200003"/></g><g transform="translate(6.2 -14.986)"><title>path10</title><path d="m18.85 79.6-5.77-4.62a.535.529-180 0 0-.874.407l.004 2.013H0v3.13h18.51a.532.526-180 0 0 .339-.935z" style="fill:#fff;stroke:none;stroke-width:6.82200003"/></g></g></g></svg>