<svg xmlns="http://www.w3.org/2000/svg" xml:space="preserve" width="68.028" height="75.597" style="font-size:12px;overflow:visible;color-interpolation-filters:sRGB;fill-rule:evenodd;stroke-linecap:square;stroke-miterlimit:3" viewBox="0 0 51.021 56.698"><defs><linearGradient id="a" x1="0" x2="37.143" y1="80.981" y2="80.981" gradientTransform="scale(.9046 1.10545)" gradientUnits="userSpaceOnUse"><stop offset="0" stop-color="#b3b2b3"/><stop offset=".38" stop-color="#afaeaf"/><stop offset=".76" stop-color="#a2a2a2"/><stop offset="1" stop-color="#979797"/></linearGradient><linearGradient id="b" x1="0" x2="29.375" y1="101.183" y2="101.183" gradientTransform="scale(.99983 1.00017)" gradientUnits="userSpaceOnUse"><stop offset="0" stop-color="#005ba1"/><stop offset=".07" stop-color="#0060a9"/><stop offset=".36" stop-color="#0071c8"/><stop offset=".52" stop-color="#0078d4"/><stop offset=".64" stop-color="#0074cd"/><stop offset=".82" stop-color="#006abb"/><stop offset="1" stop-color="#005ba1"/></linearGradient></defs><g transform="translate(-36.938 -36.944)"><title>Page-1</title><g transform="translate(36.938 -36.938)"><title>Data Catalog.21691</title><title>layer1</title><g transform="translate(.067 -11.372)"><title>path28</title><path d="m0 89.56 3.36-3.77a1.611 1.6 0 0 1 1.1-.53h31.26a2.215 2.201 0 0 1 2.38 2.23v38.75a1.611 1.6 0 0 1-.54 1.17l-3.35 3.17z" style="fill:#999;stroke:none;stroke-width:36.93849945;stroke-linecap:butt"/></g><g transform="translate(.067 -11.372)"><title>path30</title><path d="m0 89.56 3.36-3.77a1.611 1.6 0 0 1 1.1-.53h31.26a2.215 2.201 0 0 1 2.38 2.23v38.75a1.611 1.6 0 0 1-.54 1.17l-3.35 3.17z" style="fill:#999;fill-opacity:.5;stroke:none;stroke-width:36.93849945;stroke-linecap:butt"/></g><g transform="translate(2.685 -13.04)"><title>path32</title><path d="m0 91.22 1.98-2.26a1.477 1.467 0 0 1 1.08-.37h29.17a1.41 1.4 0 0 1 1.41 1.4v36.72a1.477 1.467 0 0 1-.44 1.03l-3.12 2.84z" style="fill:#fff"/><path d="m0 91.22 1.98-2.26a1.477 1.467 0 0 1 1.08-.37h29.17a1.41 1.4 0 0 1 1.41 1.4v36.72a1.477 1.467 0 0 1-.44 1.03l-3.12 2.84" style="stroke:none;stroke-width:36.93849945;stroke-linecap:butt"/></g><g transform="translate(0 -11.372)"><title>path34</title><path d="M32.56 89.52H0v40.02a1.04 1.034-180 0 0 1.04 1.04h31.52a1.04 1.034-180 0 0 1.04-1.04V90.56a1.04 1.034-180 0 0-1.04-1.04" style="fill:url(#a);stroke:none;stroke-width:36.93849945;stroke-linecap:butt"/></g><g transform="translate(21.651)"><title>path36</title><path d="M14.67 105.83C6.58 105.83 0 103.76 0 101.2v24.74c0 2.54 6.45 4.6 14.47 4.64h.2c8.12 0 14.7-2.07 14.7-4.64V101.2c0 2.56-6.58 4.63-14.7 4.63" style="fill:url(#b);stroke:none;stroke-width:36.93849945;stroke-linecap:butt"/></g><g transform="translate(21.651 -24.745)"><title>path38</title><path d="M29.37 125.94c0 2.57-6.71 4.64-14.7 4.64S0 128.51 0 125.94s6.71-4.67 14.67-4.67c7.95 0 14.7 2.1 14.7 4.67" style="fill:#e8e8e8;stroke:none;stroke-width:36.93849945;stroke-linecap:butt"/></g><g transform="translate(25.075 -26.812)"><title>path40</title><path d="M22.52 127.64c0 1.64-5.06 2.94-11.27 2.94S0 129.28 0 127.64c0-1.63 5.04-2.97 11.25-2.97s11.27 1.34 11.27 2.97" style="fill:#50e6ff;stroke:none;stroke-width:36.93849945;stroke-linecap:butt"/></g><g transform="translate(27.425 -26.812)"><title>path42</title><path d="M8.9 128.31a29.842 29.647-180 0 0-8.9 1.13 29.506 29.314-180 0 0 8.9 1.14 29.741 29.547-180 0 0 8.92-1.14 30.211 30.014-180 0 0-8.92-1.13" style="fill:#198ab3;stroke:none;stroke-width:36.93849945;stroke-linecap:butt"/></g></g></g></svg>