<svg xmlns="http://www.w3.org/2000/svg" xml:space="preserve" width="77.328" height="64.242" style="font-size:12px;overflow:visible;color-interpolation-filters:sRGB;fill-rule:evenodd;stroke-linecap:square;stroke-miterlimit:3" viewBox="0 0 57.996 48.182"><defs><linearGradient id="a" x1="0" x2="39.455" y1="70.753" y2="70.753" gradientTransform="scale(.94843 1.05437)" gradientUnits="userSpaceOnUse"><stop offset="0" stop-color="#005ba1"/><stop offset=".07" stop-color="#0060a9"/><stop offset=".36" stop-color="#0071c8"/><stop offset=".52" stop-color="#0078d4"/><stop offset=".64" stop-color="#0074cd"/><stop offset=".82" stop-color="#006abb"/><stop offset="1" stop-color="#005ba1"/></linearGradient></defs><g transform="translate(-34 -34.002)"><title>Page-1</title><g transform="translate(34 -34.016)"><title>Data Share.21680</title><title>Icon-storage-98</title><g transform="translate(36.397 -6.614)"><title>Sheet.21682</title><path d="m16.48 84.7-2.49-1.2-7.54 15.09H0v2.66h6.52l7.47 14.95 2.49-1.19L8.9 99.85Z" style="fill:#949494;stroke:none;stroke-width:34;stroke-linecap:butt"/></g><g transform="translate(46.528 -33.633)"><title>Sheet.21683</title><path d="M5.08 116.2a4.946 4.819 0 0 1-2.76-.79A5.014 4.885 0 0 1 0 112.08a5.219 5.085 0 0 1 5.08-6.21 5.15 5.018 0 0 1 2.8.8 5.253 5.118 0 0 1 2.29 3.32 5.219 5.085 0 0 1-5.09 6.18z" style="fill:#fff;stroke:none;stroke-width:34;stroke-linecap:butt"/></g><g transform="translate(47.653 -32.749)"><title>Sheet.21684</title><path d="M3.96 106.28a4.093 3.988 0 0 1 2.18.63 3.991 3.888 0 0 1 1.77 2.46 4.06 3.955 0 0 1-.51 2.99 4.127 4.021 0 0 1-3.41 1.83 4.025 3.922 0 0 1-2.18-.6A4.093 3.988 0 0 1 0 111.1a4.093 3.988 0 0 1 3.96-4.82m0-2.26a6.379 6.215-180 1 0 3.41.96 6.31 6.148-180 0 0-3.41-.96" style="fill:#32bedd;stroke:none;stroke-width:34;stroke-linecap:butt"/></g><g transform="translate(46.527 -2.127)"><title>Sheet.21685</title><path d="M5.08 116.2a4.946 4.819 0 0 1-2.76-.79 5.15 5.018 0 0 1-1.64-6.98 5.185 5.052 0 0 1 7.2-1.6 5.219 5.085 0 0 1-2.8 9.37" style="fill:#fff;stroke:none;stroke-width:34;stroke-linecap:butt"/></g><g transform="translate(47.653 -1.243)"><title>Sheet.21686</title><path d="M3.96 106.28a4.093 3.988 0 0 1 2.18.63 3.991 3.888 0 0 1 1.77 2.46 4.06 3.955 0 0 1-.51 2.99 4.127 4.021 0 0 1-3.41 1.83 4.025 3.922 0 0 1-2.18-.6A4.093 3.988 0 0 1 0 111.1a4.093 3.988 0 0 1 3.96-4.82m0-2.26a6.379 6.215-180 1 0 3.41.96 6.31 6.148-180 0 0-3.41-.96" style="fill:#32bedd;stroke:none;stroke-width:34;stroke-linecap:butt"/></g><title>Sheet.21687</title><path d="M18.76 81.18C8.53 81.18 0 78.22 0 74.6v34.96c0 3.62 8.22 6.64 18.39 6.64h.37c10.23 0 18.66-2.92 18.66-6.64V74.6c-.14 3.62-8.43 6.58-18.66 6.58" style="fill:url(#a);stroke:none;stroke-width:34;stroke-linecap:butt"/><g transform="translate(0 -34.962)"><title>Sheet.21688</title><path d="M37.28 109.56c0 3.62-8.35 6.64-18.66 6.64-10.3 0-18.62-3.02-18.62-6.64s8.53-6.58 18.76-6.58 18.66 2.92 18.66 6.64z" style="fill:#e8e8e8"/><path d="M37.28 109.56c0 3.62-8.35 6.64-18.66 6.64-10.3 0-18.62-3.02-18.62-6.64s8.53-6.58 18.76-6.58 18.66 2.92 18.66 6.64" style="stroke:none;stroke-width:34;stroke-linecap:butt"/></g><g transform="translate(4.332 -37.986)"><title>Sheet.21689</title><path d="M28.59 112.05c0 2.29-6.38 4.15-14.3 4.15-7.91 0-14.29-1.86-14.29-4.15s6.41-4.19 14.43-4.19 14.29 1.86 14.29 4.19z" style="fill:#50e6ff"/><path d="M28.59 112.05c0 2.29-6.38 4.15-14.3 4.15-7.91 0-14.29-1.86-14.29-4.15s6.41-4.19 14.43-4.19 14.29 1.86 14.29 4.19" style="stroke:none;stroke-width:34;stroke-linecap:butt"/></g><g transform="translate(7.47 -37.986)"><title>Sheet.21690</title><path d="M11.29 113.01A34.52 33.633-180 0 0 0 114.58a32.986 32.137-180 0 0 11.29 1.62 33.36 32.503-180 0 0 11.33-1.62 34.589 33.699-180 0 0-11.33-1.57" style="fill:#198ab3;stroke:none;stroke-width:34;stroke-linecap:butt"/></g></g></g></svg>