<svg xmlns="http://www.w3.org/2000/svg" xml:space="preserve" width="75.629" height="71.829" style="font-size:12px;overflow:visible;color-interpolation-filters:sRGB;fill-rule:evenodd;stroke-linecap:square;stroke-miterlimit:3" viewBox="0 0 56.722 53.872"><defs><linearGradient id="a" x1="0" x2="47.555" y1="95.477" y2="95.477" gradientTransform="scale(1.19209 .83886)" gradientUnits="userSpaceOnUse"><stop offset="0" stop-color="#0078d4"/><stop offset=".82" stop-color="#5ea0ef"/></linearGradient></defs><g transform="translate(-32.1 -32.098)"><title>Page-1</title><g transform="translate(32.131 -34.016)"><title>Data Box.21701</title><g transform="translate(0 -13.98)"><title>g15</title><title>path11</title><path d="M56.69 107.49a12.756 12.66-180 0 0-11.05-12.16A16.063 15.942-180 0 0 29.1 80.1a16.472 16.348-180 0 0-15.75 10.63A15.244 15.13-180 0 0 0 105.27a15.402 15.285-180 0 0 15.97 14.69 9.984 9.909-180 0 0 1.38 0h25.86a2.457 2.438-180 0 0 .7 0 12.882 12.785-180 0 0 12.78-12.47" style="fill:url(#a);stroke:none;stroke-width:32.10169983;stroke-linecap:butt"/><g transform="translate(4.244 -.024)"><title>path13</title><path d="M25.58 104.92a14.93 14.817-180 1 0-14.9 15.06h14.9z" style="fill:#50e6ff;stroke:none;stroke-width:32.10169983;stroke-linecap:butt"/></g></g><g transform="translate(22.45)"><title>path17</title><path d="m14.72 112.86-7.09 7a.315.313 0 0 1-.504 0l-7.056-7a.378.375 0 0 1 .252-.625l4.158-.005a.346.344-180 0 0 .346-.438l.004-9.062a.346.344 0 0 1 .378-.313l4.372.003a.346.344 0 0 1 .346.344l.004 9.026a.346.344-180 0 0 .378.344l4.152.006a.383.38 0 0 1 .252.719z" style="fill:#0078d4;stroke:none;stroke-width:32.10160065;stroke-linecap:butt"/></g><g transform="translate(22.47 -14.035)"><title>path19</title><path d="m.05 109.64 7.31-7.26 7.34 7.26a.346.344 0 0 1-.252.594l-4.158-.004a.378.375-180 0 0-.378.375l-.002 9.375h-5.1v-9.37a.378.375-180 0 0-.346-.406L.3 110.2a.346.344 0 0 1-.252-.563z" style="fill:#fff;stroke:none;stroke-width:32.10160065;stroke-linecap:butt"/></g></g></g></svg>