<svg xmlns="http://www.w3.org/2000/svg" xml:space="preserve" width="75.585" height="52.925" style="font-size:12px;overflow:visible;color-interpolation-filters:sRGB;fill-rule:evenodd;stroke-linecap:square;stroke-miterlimit:3" viewBox="0 0 56.689 39.694"><defs><linearGradient id="a" x1="0" x2="44.052" y1="78.718" y2="78.718" gradientTransform="scale(1.20175 .83212)" gradientUnits="userSpaceOnUse"><stop offset="0" stop-color="#0078d4"/><stop offset=".82" stop-color="#5ea0ef"/></linearGradient></defs><g transform="translate(-28.445 -28.441)"><title>Page-1</title><g transform="translate(28.445 -34.016)"><title>Data Box Edge.21715</title><g transform="translate(3.748 -3.046)"><title>path11</title><path d="M52.94 90.68a11.874 11.598-180 0 0-10.33-11.17 14.96 14.613-180 0 0-15.43-14 15.402 15.043-180 0 0-14.77 9.79A14.11 13.782-180 0 0 0 88.65a14.394 14.059-180 0 0 14.9 13.5h26.11a12 11.72-180 0 0 11.93-11.47" style="fill:url(#a);stroke:none;stroke-width:28.44459915;stroke-linecap:butt"/></g><title>path13</title><path d="M0 90.49A11.843 11.567 0 0 1 11.97 78.8a11.874 11.598 0 0 1 11.97 11.69v11.66H11.97A11.843 11.567 0 0 1 0 90.49" style="fill:#50e6ff;stroke:none;stroke-width:28.44459915;stroke-linecap:butt"/><g transform="translate(4.189 -4.092)"><title>path15</title><path d="M15.24 95.35v-1.72l-1.79-.61-.44-1.17.88-1.82v-.18l-.57-.56-.66-.73h-.25l-1.76.92-1.2-.34-.79-1.94H6.93l-.6 1.76-1.32.52-2.05-.96-1.23 1.2v.22l.92 1.72-.54 1.29-2.11.77v1.73h.25l1.86.61.5 1.17-.94 2 1.23 1.23h.25l1.73-.86 1.23.49.76 2.06h1.76v-.24l.6-1.85 1.2-.49 2.07.95 1.23-1.2v-.24l-.88-1.73.35-1.2zm-7.4 1.6a2.488 2.43 0 0 1 0-4.83 2.457 2.4 0 0 1 2.49 2.4 2.457 2.4 0 0 1-2.49 2.43" style="fill:#fff;stroke:none;stroke-width:28.44459915;stroke-linecap:butt"/></g></g></g></svg>