<svg xmlns="http://www.w3.org/2000/svg" xml:space="preserve" width="75.597" height="71.827" style="font-size:12px;overflow:visible;color-interpolation-filters:sRGB;fill-rule:evenodd;stroke-linecap:square;stroke-miterlimit:3" viewBox="0 0 56.698 53.87"><defs><linearGradient id="a" x1="0" x2="17.55" y1="170.44" y2="170.44" gradientTransform="scale(1.57262 .63588)" gradientUnits="userSpaceOnUse"><stop offset="0" stop-color="#5ea0ef"/><stop offset=".2" stop-color="#83b9f9"/><stop offset=".5" stop-color="#83b9f9"/><stop offset=".75" stop-color="#83b9f9"/><stop offset=".9" stop-color="#6facf4"/><stop offset="1" stop-color="#5ea0ef"/></linearGradient><linearGradient id="b" x1="0" x2="17.563" y1="170.322" y2="170.322" gradientTransform="scale(1.5717 .63625)" gradientUnits="userSpaceOnUse"><stop offset="0" stop-color="#5ea0ef"/><stop offset=".2" stop-color="#83b9f9"/><stop offset=".5" stop-color="#83b9f9"/><stop offset=".75" stop-color="#83b9f9"/><stop offset=".9" stop-color="#6facf4"/><stop offset="1" stop-color="#5ea0ef"/></linearGradient></defs><g transform="translate(-31.661 -31.66)"><title>Page-1</title><g transform="translate(31.662 -34.016)"><title>Disk Pool.21651</title><title>layer1</title><g transform="translate(9.805 -20.37)"><title>path2</title><path d="M9.78 118.82a5.087 5.016 0 0 1-2.21-3.93v-2.26a4.135 4.078 0 0 1-.05-.77c0-2.88 2.77-4.94 6.63-6.15h-.35c-7.62 0-13.8 2.51-13.8 5.59a2.491 2.457-180 0 0 .07.58v2.45c0 2.39 3.8 4.41 8.97 5.21a6.756 6.662 0 0 1 .74-.72" style="fill:#0078d4;stroke:none;stroke-width:31.66209984;stroke-linecap:butt"/></g><g transform="translate(9.868 -34.072)"><title>path4</title><path d="M22.84 118.16c2.9-1.03 4.76-2.52 4.76-4.19 0-3.09-6.18-5.59-13.8-5.59S0 110.88 0 113.97s6.1 5.55 13.65 5.57a30.047 29.628 0 0 1 9.19-1.38" style="fill:url(#a);stroke:none;stroke-width:31.66209984;stroke-linecap:butt"/></g><g transform="translate(19.436 -38.485)"><title>ellipse6</title><ellipse cx="4.583" cy="118.309" rx="4.583" ry="1.233" style="fill:#005ba1;stroke:none;stroke-width:31.66209984;stroke-linecap:butt"/></g><g transform="translate(9.887 -31.417)"><title>path8</title><path d="M23.08 115.5a33.984 33.51 0 0 1 4.06.26 2.661 2.624-180 0 0 .43-1.26v-3.3c0 1.75-1.95 3.28-5.07 4.31zm-9.03 1.27h-.19c-7.69 0-13.86-2.51-13.8-5.59v3.16c0 2.38 3.76 4.39 8.89 5.2a12.419 12.246 0 0 1 5.1-2.77" style="fill:#5ea0ef;stroke:none;stroke-width:31.66209984;stroke-linecap:butt"/></g><g transform="translate(19.102 -8.413)"><title>path10</title><path d="M27.6 110.92c0-3.08-6.18-5.59-13.8-5.59S0 107.84 0 110.92a2.466 2.432-180 0 0 .07.58v2.45c0 3.09 6.33 5.59 13.8 5.59s13.55-2.45 13.8-5.44l-.07-2.33z" style="fill:#0078d4;stroke:none;stroke-width:31.66209984;stroke-linecap:butt"/></g><g transform="translate(28.668 -15.873)"><title>ellipse12</title><ellipse cx="4.583" cy="118.309" rx="4.583" ry="1.233" style="fill:#005ba1;stroke:none;stroke-width:31.66209984;stroke-linecap:butt"/></g><g transform="translate(19.165 -22.466)"><title>ellipse14</title><ellipse cx="13.802" cy="113.955" rx="13.802" ry="5.587" style="fill:url(#b);stroke:none;stroke-width:31.66209984;stroke-linecap:butt"/></g><g transform="translate(28.734 -26.892)"><title>ellipse16</title><ellipse cx="4.583" cy="118.309" rx="4.583" ry="1.233" style="fill:#005ba1;stroke:none;stroke-width:31.66209984;stroke-linecap:butt"/></g><g transform="translate(19.09 -19.31)"><title>path18</title><path d="M13.87 116.37c7.64 0 13.8-2.51 13.8-5.59v3.32c-.26 2.99-6.33 5.44-13.8 5.44s-13.8-2.5-13.8-5.59v-3.17c-.07 3.08 6.11 5.59 13.8 5.59" style="fill:#5ea0ef;stroke:none;stroke-width:31.66209984;stroke-linecap:butt"/></g><g transform="translate(0 -.025)"><title>path20</title><path d="M0 113.09a.548.54-180 0 0 .271.466l3.849 2.204 6.53 3.73a.532.525-180 0 0 .73-.189l2.21-3.781a.551.543-180 0 0-.199-.732L5.74 110.44a.532.525 0 0 1-.271-.462L5.47 75.32a.532.525 0 0 1 .271-.462l7.649-4.378a.551.543-180 0 0 .199-.73l-2.199-3.78a.542.534-180 0 0-.733-.202L4.25 69.44.27 71.72a.542.534-180 0 0-.271.462z" style="fill:#949494;stroke:none;stroke-width:31.66209984;stroke-linecap:butt"/></g><title>path22</title><path d="m13.59 69.72-2.2-3.77a.539.531-180 0 0-.548-.26.507.5-180 0 0-.271.07L4.17 69.42.19 71.7a.551.543-180 0 0-.192.187l.062.033a.545.537-180 0 0-.06.24l5.48 3.13a.526.519 0 0 1 .271-.462l7.639-4.378a.551.543-180 0 0 .199-.73zm0 45.79-2.21 3.77a.542.534 0 0 1-.548.26.507.5 0 0 1-.271-.07l-6.401-3.66-3.97-2.28a.56.553 0 0 1-.192-.189l.062-.031a.52.512 0 0 1-.06-.242l5.48-3.138a.532.525-180 0 0 .271.462l7.639 4.378a.551.543 0 0 1 .199.732z" style="fill:#a3a3a3;stroke:none;stroke-width:31.66209984;stroke-linecap:butt"/><g transform="translate(43.047 -.016)"><title>path24</title><path d="M13.65 72.17a.548.54-180 0 0-.271-.466L9.53 69.51l-6.54-3.74a.532.525-180 0 0-.73.189L.05 69.73a.551.543-180 0 0 .199.732L7.89 74.83a.532.525 0 0 1 .271.462L8.16 109.95a.532.525 0 0 1-.271.462L.25 114.79a.551.543-180 0 0-.199.73l2.209 3.77a.542.534-180 0 0 .733.202l6.397-3.662 3.98-2.28a.542.534-180 0 0 .274-.466z" style="fill:#949494;stroke:none;stroke-width:31.66209984;stroke-linecap:butt"/></g><g transform="translate(43.046 -.003)"><title>path26</title><path d="m.05 115.51 2.21 3.77a.539.531-180 0 0 .548.26.507.5-180 0 0 .271-.07l6.401-3.66 3.97-2.28a.551.543-180 0 0 .192-.187l-.052-.033a.545.537-180 0 0 .06-.24l-5.48-3.13a.526.519 0 0 1-.271.462L.26 114.77a.548.54-180 0 0-.205.73zm0-45.79 2.21-3.77a.542.534 0 0 1 .548-.26.507.5 0 0 1 .271.07l6.401 3.66 3.97 2.28a.542.534 0 0 1 .192.189l-.052.031a.52.512 0 0 1 .06.242L8.16 75.3a.532.525-180 0 0-.271-.462L.25 70.46a.551.543 0 0 1-.199-.732Z" style="fill:#a3a3a3;stroke:none;stroke-width:31.66209984;stroke-linecap:butt"/></g></g></g></svg>