<svg xmlns="http://www.w3.org/2000/svg" xml:space="preserve" width="75.586" height="75.586" style="font-size:12px;overflow:visible;color-interpolation-filters:sRGB;fill-rule:evenodd;stroke-linecap:square;stroke-miterlimit:3" viewBox="0 0 56.69 56.69"><defs><radialGradient id="a" cx="11.849" cy="170.755" r="26.067" fx="11.849" fy="170.755" gradientTransform="scale(1.55925 .64134)" gradientUnits="userSpaceOnUse"><stop offset="0" stop-color="#5ea0ef"/><stop offset=".11" stop-color="#519aeb"/><stop offset=".51" stop-color="#2588df"/><stop offset=".82" stop-color="#0a7cd7"/><stop offset="1" stop-color="#0078d4"/></radialGradient></defs><g transform="translate(-34 -34.004)"><title>Page-1</title><g transform="translate(34 -34.016)"><title>Disk Encryption Set.21666</title><title>Sheet.21667</title><title>Sheet.21668</title><path d="M5.4 68.02h6.61v1.9H5.4Zm48.36 1.9h1.07v1h1.83v-2.9h-2.9zM3 122.68h-.93v-1.07H0v3.1h3v-2zm51.86-1v1h-1.07v2h2.9v-3zM2.1 70.88v-1h.93v-1.86H0v2.86zm13.14-2.86h6.57v1.9h-6.57zm9.77 0h6.57v1.9h-6.57zm9.87 0h6.57v1.9h-6.57zm9.81 0h6.57v1.9h-6.57ZM5.47 122.68h6.54v1.9H5.47Zm9.8 0h6.57v1.9h-6.57zm9.84 0h6.57v1.9h-6.57zm9.84 0h6.57v1.9h-6.57zm9.8 0h6.57v1.9h-6.57zm10.01-49.5h1.9v6.57h-1.9zm0 9.83h1.9v6.57h-1.9zm0 9.8h1.9v6.54h-1.9zm0 9.8h1.9v6.57h-1.9zm0 9.83h1.9v6.57h-1.9zM0 73.12h1.9v6.56H0Zm0 9.83h1.9v6.56H0Zm0 9.8h1.9v6.6H0Zm0 9.83h1.9v6.56H0Zm0 9.76h1.9v6.57H0Z" style="fill:#0078d4;stroke:none;stroke-width:34;stroke-linecap:butt"/><g transform="translate(7.804 -17.031)"><title>Sheet.21669</title><path d="M24.88 120.04a5.002 5 0 0 1 0-7.03l2.53-2.53a40.452 40.428-180 0 0-8.9-.97c-10.24 0-18.51 3.33-18.51 7.6s8.2 7.6 18.48 7.6a39.452 39.428-180 0 0 9.77-1.33z" style="fill:#76bc2d;stroke:none;stroke-width:34;stroke-linecap:butt"/></g><g transform="translate(7.804 -33.93)"><title>Sheet.21670</title><ellipse cx="18.475" cy="117.11" rx="18.475" ry="7.599" style="fill:url(#a);stroke:none;stroke-width:34;stroke-linecap:butt"/></g><g transform="translate(20.576 -39.962)"><title>Sheet.21671</title><ellipse cx="6.136" cy="123.042" rx="6.136" ry="1.666" style="fill:#005ba1;stroke:none;stroke-width:34;stroke-linecap:butt"/></g><g transform="translate(7.77 -4.88)"><title>Sheet.21672</title><g transform="translate(24.958)"><title>Sheet.21673</title><path d="M17.56 106.73a3.335 3.333-180 0 0 0-4.8l-5.87-5.9a3.335 3.333-180 0 0-4.8 0l-5.87 5.86a3.335 3.333-180 0 0 0 4.8l4.9 5a1.07 1.07 0 0 1 .27.67v9.1a1.17 1.17-180 0 0 .33.8l2.24 2.23a.8.8-180 0 0 1.1 0l3.4-3.4a.467.467-180 0 0 0-.633l-1-.937a.434.433 0 0 1 0-.667l.9-.933a.467.467-180 0 0 0-.633l-.9-.897a.467.467 0 0 1 0-.7l.9-.9a.467.467-180 0 0 0-.633l-1.27-1.337v-.43zm-8.27-9.27a1.934 1.933 0 1 1 0 3.77 1.936 1.936 0 0 1 0-3.87z" style="fill:#0078d4;stroke:none;stroke-width:34;stroke-linecap:butt"/></g><g transform="translate(0 -25.016)"><title>Sheet.21674</title><path d="M30.75 119.91a4.969 4.966 0 0 1 3.33-1.47 5.302 5.3 0 0 1 2.17.5 4.002 4-180 0 0 .57-1.6v-4.43c0 4.17-8.27 7.57-18.48 7.57-10.2 0-18.34-3.34-18.34-7.57v4.2c0 4.2 8.27 7.6 18.51 7.6a42.186 42.161-180 0 0 8.27-.8z" style="fill:#0078d4;stroke:none;stroke-width:34;stroke-linecap:butt"/></g></g><g transform="translate(37.35 -7.912)"><title>Sheet.21675</title><g transform="translate(2.97)"><title>Sheet.21676</title><path d="M.2 124.59a.434.433-180 0 0 .6 0 .37.37-180 0 0 0-.267v-7.503a.57.57-180 0 0-.2-.367.434.433-180 0 0-.567 0 .23.23-180 0 0 0 .234L.03 124.25a.37.37-180 0 0 .167.333z" style="fill:#c3f1ff;fill-opacity:.75;stroke:none;stroke-width:34;stroke-linecap:butt"/></g><g transform="translate(0 -16.685)"><title>Sheet.21677</title><path d="M0 124.18a.534.533-180 0 0 .534.533l8.566-.003a.534.533-180 0 0 .534-.533l.006-.067a.534.533-180 0 0-.534-.533l-8.576.003a.534.533-180 0 0-.534.533z" style="fill:#c3f1ff;fill-opacity:.75;stroke:none;stroke-width:34;stroke-linecap:butt"/></g><g transform="translate(0 -14.819)"><title>Sheet.21678</title><path d="M0 124.18a.534.533-180 0 0 .534.533l8.566-.003a.534.533-180 0 0 .534-.533l.006-.067a.534.533-180 0 0-.534-.533l-8.576.003a.534.533-180 0 0-.534.533z" style="fill:#c3f1ff;fill-opacity:.75;stroke:none;stroke-width:34;stroke-linecap:butt"/></g></g><g transform="translate(7.77 -12.998)"><title>Sheet.21679</title><path d="m29.58 120.74-1.4-1.4a40.719 40.695 0 0 1-9.67 1.14c-10.24 0-18.51-3.34-18.51-7.6v4.23c0 4.2 8.27 7.6 18.51 7.6a39.085 39.062-180 0 0 11.07-1.53zm-6.1-8.93a16.374 16.365-180 0 0-4.54-.57c-3.33 0-6.13.77-6.13 1.67s2.76 1.67 6.13 1.67a16.308 16.298-180 0 0 4.77-.64 5.302 5.3 0 0 1-.23-2.16z" style="fill:#5e9624;stroke:none;stroke-width:34;stroke-linecap:butt"/></g></g></g></svg>