<svg xmlns="http://www.w3.org/2000/svg" xml:space="preserve" width="75.587" height="64.251" style="font-size:12px;overflow:visible;color-interpolation-filters:sRGB;fill-rule:evenodd;stroke-linecap:square;stroke-miterlimit:3" viewBox="0 0 56.69 48.188"><g transform="translate(-5.67 -4.816)"><title>Page-1</title><g transform="translate(5.67 -34.016)"><title>Managed Disk Standard HDD.21587</title><title>Page-1</title><title>Managed Disk Standard HDD</title><title>Sheet.21590</title><title>Sheet.21591</title><path d="M56.69 76.76c0 5.67-12.69 10.26-28.34 10.26C12.69 87.02 0 82.43 0 76.76v-5.53h56.69z" style="fill:#7fba00;stroke:none;stroke-width:.74999899;stroke-linecap:butt"/><g transform="translate(0 -5.533)"><title>Sheet.21592</title><title>Sheet.21593</title><path d="M56.69 76.76c0 5.67-12.69 10.26-28.34 10.26C12.69 87.02 0 82.43 0 76.76s12.69-10.27 28.35-10.27c15.65 0 28.34 4.6 28.34 10.27" style="fill:#b8d432;stroke:none;stroke-width:.74999899;stroke-linecap:butt"/></g><g transform="translate(19.257 -13.659)"><title>Sheet.21594</title><title>Sheet.21595</title><path d="M18.18 84.3c0 1.51-4.07 2.72-9.1 2.72C4.07 87.02 0 85.81 0 84.3c0-1.52 4.07-2.73 9.08-2.73 5.03 0 9.1 1.21 9.1 2.73" style="fill:#7fba00;stroke:none;stroke-width:.74999899;stroke-linecap:butt"/></g><g transform="translate(30.102 -18.257)"><title>Sheet.21596</title><title>Sheet.21597</title><path d="M18.74 82.46c-3.98-1.52-9.19-2.58-15.06-2.99L0 86.28c1.81.1 3.43.37 4.68.74z" style="fill:#fff;fill-opacity:.25;stroke:none;stroke-width:.74999899;stroke-linecap:butt"/></g><g transform="translate(6.692 -5.667)"><title>Sheet.21598</title><title>Sheet.21599</title><path d="M0 83.58c4.08 1.74 9.75 2.99 16.2 3.44l4.3-7.95c-1.79-.07-3.42-.29-4.72-.63Z" style="fill:#fff;fill-opacity:.25;stroke:none;stroke-width:.74999899;stroke-linecap:butt"/></g><g transform="translate(0 -22.126)"><title>Sheet.21600</title><title>Sheet.21601</title><path d="M56.69 76.76c0 5.67-12.69 10.26-28.34 10.26C12.69 87.02 0 82.43 0 76.76v-5.53h56.69z" style="fill:#7fba00;stroke:none;stroke-width:.74999899;stroke-linecap:butt"/></g><g transform="translate(0 -27.658)"><title>Sheet.21602</title><title>Sheet.21603</title><path d="M56.69 76.76c0 5.67-12.69 10.26-28.34 10.26C12.69 87.02 0 82.43 0 76.76s12.69-10.27 28.35-10.27c15.65 0 28.34 4.6 28.34 10.27" style="fill:#b8d432;stroke:none;stroke-width:.74999899;stroke-linecap:butt"/></g><g transform="translate(19.257 -35.785)"><title>Sheet.21604</title><title>Sheet.21605</title><path d="M18.18 84.3c0 1.51-4.07 2.72-9.1 2.72C4.07 87.02 0 85.81 0 84.3c0-1.52 4.07-2.73 9.08-2.73 5.03 0 9.1 1.21 9.1 2.73" style="fill:#7fba00;stroke:none;stroke-width:.74999899;stroke-linecap:butt"/></g><g transform="translate(30.102 -40.44)"><title>Sheet.21606</title><title>Sheet.21607</title><path d="M18.74 82.46c-3.98-1.52-9.19-2.58-15.06-2.99L0 86.28c1.81.1 3.43.37 4.68.74z" style="fill:#fff;fill-opacity:.25;stroke:none;stroke-width:.74999899;stroke-linecap:butt"/></g><g transform="translate(6.692 -27.85)"><title>Sheet.21608</title><title>Sheet.21609</title><path d="M0 83.58c4.08 1.74 9.75 2.99 16.2 3.44l4.3-7.95c-1.79-.07-3.42-.29-4.72-.63Z" style="fill:#fff;fill-opacity:.25;stroke:none;stroke-width:.74999899;stroke-linecap:butt"/></g></g></g></svg>