<svg xmlns="http://www.w3.org/2000/svg" xml:space="preserve" width="71.816" height="75.598" style="font-size:12px;overflow:visible;color-interpolation-filters:sRGB;fill-rule:evenodd;stroke-linecap:square;stroke-miterlimit:3" viewBox="0 0 53.863 56.699"><defs><linearGradient id="a" x1="0" x2="24.319" y1="169.046" y2="169.046" gradientTransform="scale(1.55049 .64496)" gradientUnits="userSpaceOnUse"><stop offset="0" stop-color="#0078d4"/><stop offset=".54" stop-color="#358ee3"/><stop offset="1" stop-color="#5ea0ef"/></linearGradient></defs><g transform="translate(-34 -33.999)"><title>Page-1</title><g transform="translate(34 -34.016)"><title>Managed Disk Snapshot.21610</title><title>Icon-compute-26</title><g transform="translate(8.23 -14.205)"><title>Sheet.21612</title><ellipse cx="18.854" cy="116.87" rx="18.854" ry="7.843" style="fill:#76bc2d;stroke:none;stroke-width:34;stroke-linecap:butt"/></g><g transform="translate(21.276 -20.378)"><title>Sheet.21613</title><ellipse cx="6.274" cy="122.981" rx="6.274" ry="1.732" style="fill:#5e9624;stroke:none;stroke-width:34;stroke-linecap:butt"/></g><g transform="translate(8.23 -31.622)"><title>Sheet.21614</title><ellipse cx="18.854" cy="116.87" rx="18.854" ry="7.843" style="fill:url(#a);stroke:none;stroke-width:34;stroke-linecap:butt"/></g><g transform="translate(21.276 -37.827)"><title>Sheet.21615</title><ellipse cx="6.274" cy="122.981" rx="6.274" ry="1.732" style="fill:#005ba1;stroke:none;stroke-width:34;stroke-linecap:butt"/></g><title>Sheet.21616</title><path d="M11.18 68.02H1.86A1.801 1.827-180 0 0 0 69.88v9.45a.9.913-180 0 0 .9.913l1.03-.003a.9.913-180 0 0 .932-.913L2.86 70.79h8.32a.9.913-180 0 0 .932-.913l-.002-.917a.9.913-180 0 0-.932-.945zm40.72 0h-9.32a.932.945-180 0 0-.932.945l.002 1.005a.932.945-180 0 0 .932.819l8.358.001v8.51a.9.913-180 0 0 .963.945l1.027-.005a.9.913-180 0 0 .932-.913l-.002-9.447a1.833 1.858-180 0 0-1.96-1.86m-40.72 53.83H2.86v-8.51a.9.913-180 0 0-.932-.913L.9 112.43a.9.913-180 0 0-.9.913v9.447a1.801 1.827-180 0 0 1.8 1.86h9.32a.9.913-180 0 0 .932-.913l-.002-1.007a.932.945-180 0 0-.87-.882zm41.62-9.42h-.9a.9.913-180 0 0-.9.913v8.507h-8.42a.963.976-180 0 0-.932.945l.002 1.005a.932.945-180 0 0 .932.913l9.318-.003a1.833 1.858-180 0 0 1.83-1.86v-9.44a.9.913-180 0 0-.932-.976z" style="fill:#949494;stroke:none;stroke-width:34;stroke-linecap:butt"/><g transform="translate(8.2 -9.827)"><title>Sheet.21617</title><path d="M18.85 120.18c10.41 0 18.86-3.5 18.86-7.85v4.63c-.22 4.23-8.64 7.75-18.86 7.75S0 121.19 0 116.87v-4.54c.03 4.35 8.48 7.85 18.85 7.85" style="fill:#5e9624;stroke:none;stroke-width:34;stroke-linecap:butt"/></g><g transform="translate(8.23 -27.402)"><title>Sheet.21618</title><path d="M18.82 120.24c10.41 0 18.86-3.53 18.86-7.84v4.69c-.22 4.25-8.64 7.62-18.86 7.62S0 121.19 0 116.84v-4.35c0 4.32 8.45 7.75 18.82 7.75" style="fill:#0078d4;stroke:none;stroke-width:34;stroke-linecap:butt"/></g></g></g></svg>