<svg xmlns="http://www.w3.org/2000/svg" xml:space="preserve" width="75.587" height="64.251" style="font-size:12px;overflow:visible;color-interpolation-filters:sRGB;fill-rule:evenodd;stroke-linecap:square;stroke-miterlimit:3" viewBox="0 0 56.69 48.188"><g transform="translate(-5.67 -4.816)"><title>Page-1</title><g transform="translate(5.67 -34.016)"><title>Managed Disk Standard SSD.21564</title><title>Page-1</title><title>Managed Disk Standard SSD</title><title>Sheet.21567</title><title>Sheet.21568</title><path d="M56.69 76.76c0 5.67-12.69 10.26-28.34 10.26C12.69 87.02 0 82.43 0 76.76v-5.54h56.69z" style="fill:#7fba00;stroke:none;stroke-width:.74999899;stroke-linecap:butt"/><g transform="translate(0 -5.533)"><title>Sheet.21569</title><title>Sheet.21570</title><path d="M56.69 76.76c0 5.67-12.69 10.26-28.34 10.26C12.69 87.02 0 82.43 0 76.76s12.69-10.27 28.35-10.27c15.65 0 28.34 4.6 28.34 10.27" style="fill:#b8d432;stroke:none;stroke-width:.74999899;stroke-linecap:butt"/></g><g transform="translate(19.257 -13.659)"><title>Sheet.21571</title><title>Sheet.21572</title><path d="M18.18 84.3c0 1.5-4.07 2.72-9.1 2.72C4.07 87.02 0 85.8 0 84.3c0-1.52 4.07-2.74 9.08-2.74 5.03 0 9.1 1.22 9.1 2.74" style="fill:#7fba00;stroke:none;stroke-width:.74999899;stroke-linecap:butt"/></g><g transform="translate(30.102 -18.257)"><title>Sheet.21573</title><title>Sheet.21574</title><path d="M18.74 82.45c-3.98-1.51-9.19-2.57-15.06-2.99L0 86.27c1.81.1 3.43.37 4.68.75z" style="fill:#fff;fill-opacity:.25;stroke:none;stroke-width:.74999899;stroke-linecap:butt"/></g><g transform="translate(6.692 -5.667)"><title>Sheet.21575</title><title>Sheet.21576</title><path d="M0 83.57c4.08 1.75 9.75 2.99 16.2 3.45l4.3-7.96c-1.79-.07-3.42-.29-4.72-.62z" style="fill:#fff;fill-opacity:.25;stroke:none;stroke-width:.74999899;stroke-linecap:butt"/></g><g transform="translate(0 -22.126)"><title>Sheet.21577</title><title>Sheet.21578</title><path d="M56.69 76.76c0 5.67-12.69 10.26-28.34 10.26C12.69 87.02 0 82.42 0 76.76v-5.54h56.69z" style="fill:#0072c6;stroke:none;stroke-width:.74999899;stroke-linecap:butt"/></g><g transform="translate(0 -27.658)"><title>Sheet.21579</title><title>Sheet.21580</title><path d="M56.69 76.76c0 5.67-12.69 10.26-28.34 10.26C12.69 87.02 0 82.42 0 76.76c0-5.67 12.69-10.27 28.35-10.27 15.65 0 28.34 4.6 28.34 10.27" style="fill:#59b4d9;stroke:none;stroke-width:.74999899;stroke-linecap:butt"/></g><g transform="translate(19.257 -35.785)"><title>Sheet.21581</title><title>Sheet.21582</title><path d="M18.18 84.3c0 1.5-4.07 2.72-9.1 2.72C4.07 87.02 0 85.8 0 84.3c0-1.52 4.07-2.74 9.08-2.74 5.03 0 9.1 1.22 9.1 2.74" style="fill:#0072c6;stroke:none;stroke-width:.74999899;stroke-linecap:butt"/></g><g transform="translate(30.102 -40.44)"><title>Sheet.21583</title><title>Sheet.21584</title><path d="M18.74 82.45c-3.98-1.51-9.19-2.57-15.06-2.99L0 86.27c1.81.1 3.43.37 4.68.75z" style="fill:#fff;fill-opacity:.25;stroke:none;stroke-width:.74999899;stroke-linecap:butt"/></g><g transform="translate(6.692 -27.85)"><title>Sheet.21585</title><title>Sheet.21586</title><path d="M0 83.57c4.08 1.75 9.75 2.99 16.2 3.45l4.3-7.96c-1.79-.07-3.42-.29-4.72-.62z" style="fill:#fff;fill-opacity:.25;stroke:none;stroke-width:.74999899;stroke-linecap:butt"/></g></g></g></svg>