<svg xmlns="http://www.w3.org/2000/svg" xml:space="preserve" width="75.587" height="64.251" style="font-size:12px;overflow:visible;color-interpolation-filters:sRGB;fill-rule:evenodd;stroke-linecap:square;stroke-miterlimit:3" viewBox="0 0 56.69 48.188"><g transform="translate(-5.67 -4.816)"><title>Page-1</title><g transform="translate(5.67 -34.016)"><title>Managed Disk Premium SSD.21619</title><title>Page-1</title><title>Managed Disk Premium SSD</title><title>Sheet.21622</title><title>Sheet.21623</title><path d="M56.69 76.76c0 5.67-12.69 10.26-28.34 10.26C12.69 87.02 0 82.43 0 76.76v-5.53h56.69z" style="fill:#661db0;stroke:none;stroke-width:.74999899;stroke-linecap:butt"/><g transform="translate(0 -5.533)"><title>Sheet.21624</title><title>Sheet.21625</title><path d="M56.69 76.76c0 5.67-12.69 10.26-28.34 10.26C12.69 87.02 0 82.43 0 76.76s12.69-10.27 28.35-10.27c15.65 0 28.34 4.6 28.34 10.27" style="fill:#945ccf;stroke:none;stroke-width:.74999899;stroke-linecap:butt"/></g><g transform="translate(19.257 -13.659)"><title>Sheet.21626</title><title>Sheet.21627</title><path d="M18.18 84.3c0 1.51-4.07 2.72-9.1 2.72C4.07 87.02 0 85.81 0 84.3c0-1.52 4.07-2.73 9.08-2.73 5.03 0 9.1 1.21 9.1 2.73" style="fill:#661db0;stroke:none;stroke-width:.74999899;stroke-linecap:butt"/></g><g transform="translate(30.102 -18.257)"><title>Sheet.21628</title><title>Sheet.21629</title><path d="M18.74 82.46c-3.98-1.52-9.19-2.58-15.06-2.99L0 86.28c1.81.1 3.43.37 4.68.74z" style="fill:#fff;fill-opacity:.25;stroke:none;stroke-width:.74999899;stroke-linecap:butt"/></g><g transform="translate(6.692 -5.667)"><title>Sheet.21630</title><title>Sheet.21631</title><path d="M0 83.58c4.08 1.74 9.75 2.99 16.2 3.44l4.3-7.95c-1.79-.07-3.42-.29-4.72-.63Z" style="fill:#fff;fill-opacity:.25;stroke:none;stroke-width:.74999899;stroke-linecap:butt"/></g><g transform="translate(0 -22.126)"><title>Sheet.21632</title><title>Sheet.21633</title><path d="M56.69 76.76c0 5.67-12.69 10.26-28.34 10.26C12.69 87.02 0 82.43 0 76.76v-5.53h56.69z" style="fill:#0072c6;stroke:none;stroke-width:.74999899;stroke-linecap:butt"/></g><g transform="translate(0 -27.658)"><title>Sheet.21634</title><title>Sheet.21635</title><path d="M56.69 76.76c0 5.67-12.69 10.26-28.34 10.26C12.69 87.02 0 82.43 0 76.76s12.69-10.27 28.35-10.27c15.65 0 28.34 4.6 28.34 10.27" style="fill:#59b4d9;stroke:none;stroke-width:.74999899;stroke-linecap:butt"/></g><g transform="translate(19.257 -35.785)"><title>Sheet.21636</title><title>Sheet.21637</title><path d="M18.18 84.3c0 1.51-4.07 2.72-9.1 2.72C4.07 87.02 0 85.81 0 84.3c0-1.52 4.07-2.73 9.08-2.73 5.03 0 9.1 1.21 9.1 2.73" style="fill:#0072c6;stroke:none;stroke-width:.74999899;stroke-linecap:butt"/></g><g transform="translate(30.102 -40.44)"><title>Sheet.21638</title><title>Sheet.21639</title><path d="M18.74 82.46c-3.98-1.52-9.19-2.58-15.06-2.99L0 86.28c1.81.1 3.43.37 4.68.74z" style="fill:#fff;fill-opacity:.25;stroke:none;stroke-width:.74999899;stroke-linecap:butt"/></g><g transform="translate(6.692 -27.85)"><title>Sheet.21640</title><title>Sheet.21641</title><path d="M0 83.58c4.08 1.74 9.75 2.99 16.2 3.44l4.3-7.95c-1.79-.07-3.42-.29-4.72-.63Z" style="fill:#fff;fill-opacity:.25;stroke:none;stroke-width:.74999899;stroke-linecap:butt"/></g></g></g></svg>