<svg xmlns="http://www.w3.org/2000/svg" xml:space="preserve" width="45.36" height="75.579" style="font-size:12px;overflow:visible;color-interpolation-filters:sRGB;fill-rule:evenodd;stroke-linecap:square;stroke-miterlimit:3" viewBox="0 0 34.02 56.684"><g transform="translate(-28.286 -28.29)"><title>Page-1</title><g transform="translate(28.286 -34.016)"><title>Qumulo Scalable File Service.21546</title><title>Sheet.21547</title><g transform="translate(0 -21.944)"><title>Sheet.21548</title><path d="M6.45 95.22h-4.1A2.355 2.405 0 0 1 0 92.81v-6.16c0-1.33 1.05-2.4 2.35-2.4h6.03c1.31 0 2.36 1.07 2.36 2.4v4.42c0 2.29 1.82 4.15 4.07 4.15h13.32a5.886 6.014 0 0 1 5.89 6.01v11.75a5.886 6.014 0 0 1-5.89 6.01h-11.5a5.886 6.014 0 0 1-5.89-6.01V99.61c0-2.43-1.92-4.39-4.29-4.39" style="fill:#00a3ca;stroke:none;stroke-width:28.28569984;stroke-linecap:butt"/></g><title>Sheet.21549</title><path d="M27.57 108.02h4.09c1.3 0 2.35 1.08 2.35 2.41v6.16c0 1.33-1.05 2.4-2.35 2.4h-6.03a2.355 2.405 0 0 1-2.36-2.4v-4.41a4.067 4.155-180 0 0-4.07-4.16H5.89A5.886 6.014 0 0 1 0 102.01V90.26a5.886 6.014 0 0 1 5.89-6.02h11.5a5.886 6.014 0 0 1 5.88 6.02v13.37c0 2.42 1.92 4.39 4.3 4.39" style="fill:#007cac;stroke:none;stroke-width:28.28569984;stroke-linecap:butt"/><g transform="translate(10.738 -21.946)"><title>Sheet.21550</title><path d="M0 106.19h6.65a5.886 6.014 0 0 1 5.89 6.02v6.78H5.89A5.886 6.014 0 0 1 0 112.98v-6.78z" style="fill:#1f4e84;fill-opacity:.75;stroke:none;stroke-width:28.28569984;stroke-linecap:butt"/></g></g></g></svg>