<svg xmlns="http://www.w3.org/2000/svg" xml:space="preserve" width="75.587" height="64.244" style="font-size:12px;overflow:visible;color-interpolation-filters:sRGB;fill-rule:evenodd;stroke-linecap:square;stroke-miterlimit:3" viewBox="0 0 56.69 48.183"><g transform="translate(-12.24 -12.241)"><title>Page-1</title><g transform="translate(12.24 -34.016)"><title>Storage Account Container.21476</title><title>g14</title><title>path4</title><path d="M0 92.3c0 1.13.91 2.14 2.04 2.14h52.5c1.13 0 2.15-.9 2.15-2.14V54.95H0Z" style="fill:#a0a1a2;stroke:none;stroke-width:12.23999977;stroke-linecap:butt"/><g transform="translate(0 -39.612)"><title>path6</title><path d="M54.54 85.87H2.04C.91 85.87 0 86.88 0 88.01v6.43h56.69v-6.43c0-1.13-.9-2.14-2.15-2.14" style="fill:#7a7a7a;stroke:none;stroke-width:12.23999977;stroke-linecap:butt"/></g><g transform="translate(10.998 -4.288)"><title>path8</title><path d="M32.09 69.96v-2.71H14.85l-4.08-4.07H0v29.68c0 .91.68 1.58 1.59 1.58h30.84c.91 0 1.59-.67 1.59-1.58v-22.9z" style="fill:#fff;fill-opacity:.8;stroke:none;stroke-width:12.23999977;stroke-linecap:butt"/></g><g transform="translate(10.998 -4.288)"><title>path10</title><path d="M3.17 69.96v22.9c0 .91-.68 1.58-1.58 1.58-.91 0-1.59-.67-1.59-1.58V63.18h10.89l4.08 4.07h17.12v2.71z" style="fill:#ff8c00;stroke:none;stroke-width:12.23999977;stroke-linecap:butt"/></g><g transform="translate(0 -.113)"><title>path12</title><path d="M2.27 46.37C1.02 46.37 0 47.38 0 48.63v43.56c0 1.24 1.02 2.25 2.27 2.25h2.49l44.68-48.07Z" style="fill:#fff;fill-opacity:.2;stroke:none;stroke-width:12.23999977;stroke-linecap:butt"/></g></g></g></svg>