<svg xmlns="http://www.w3.org/2000/svg" xml:space="preserve" width="75.59" height="75.59" style="font-size:12px;overflow:visible;color-interpolation-filters:sRGB;fill-rule:evenodd;stroke-linecap:square;stroke-miterlimit:3" viewBox="0 0 56.692 56.693"><defs><linearGradient id="a" x1="-.002" x2="33.92" y1="112.342" y2="112.342" gradientTransform="scale(1.17275 .8527)" gradientUnits="userSpaceOnUse"><stop offset="0" stop-color="#32d4f5"/><stop offset=".23" stop-color="#31d0f1"/><stop offset=".46" stop-color="#2cc3e6"/><stop offset=".7" stop-color="#25afd4"/><stop offset=".94" stop-color="#1c92ba"/><stop offset="1" stop-color="#198ab3"/></linearGradient></defs><g transform="translate(-34 -34)"><title>Page-1</title><g transform="translate(34 -34.016)"><title>Storage Account File Share.21453</title><title>Sheet.21454</title><g transform="translate(10.236 -7.33)"><title>Sheet.21455</title><path d="M44.19 87.65h-2.87a13.102 13.088-180 0 0-1.73 0 2.142 2.14 0 0 1-1.86-3.15l1.23-2.2a5.764 5.757-180 0 0-1.61-.91l-2.92 5.22a2.205 2.202 0 0 1-1.89 1.1h-2.62a2.079 2.076-180 0 0-1.01.25l-4.94 3.15a.8.8 0 0 1-.504 0H6.36a.913.912-180 0 0-.85 1.007v15.163L0 108.98l.41 1.76 5.1-.76v9.13a.913.912-180 0 0 .913.912l29.517-.002 3.62 4.69 1.54-.98-2.14-3.71h5.29a.913.912-180 0 0 .945-.912L45.2 88.59a.945.944-180 0 0-1.008-.944z" style="fill:#005ba1;stroke:none;stroke-width:34;stroke-linecap:butt"/></g><g transform="translate(46.583 -49.834)"><title>Sheet.21456</title><ellipse cx="3.433" cy="121.279" rx="3.433" ry="3.429" style="fill:#50e5ff;stroke:none;stroke-width:34;stroke-linecap:butt"/></g><g transform="translate(47.748)"><title>Sheet.21457</title><ellipse cx="4.472" cy="120.241" rx="4.472" ry="4.467" style="fill:#50e5ff;stroke:none;stroke-width:34;stroke-linecap:butt"/></g><g transform="translate(0 -15.101)"><title>Sheet.21458</title><ellipse cx="5.575" cy="119.14" rx="5.575" ry="5.569" style="fill:#50e5ff;stroke:none;stroke-width:34;stroke-linecap:butt"/></g><g transform="translate(21.606 -36.81)"><title>Sheet.21459</title><path d="m26.17 119.8-21.76-3.15h-.44a3.15 3.146-180 0 0-3.15 2.74L0 124.71h28.79v-1.29a3.15 3.146-180 0 0-2.62-3.62" style="fill:#0078d4;stroke:none;stroke-width:34;stroke-linecap:butt"/></g><g transform="translate(22.992 -36.81)"><title>Sheet.21460</title><path d="m24.57 121.15-21.74-3.14h-.28a1.827 1.825-180 0 0-1.79 1.57L0 124.71h25.89l.22-1.48a1.827 1.825-180 0 0-1.54-2.08" style="fill:#fff;stroke:none;stroke-width:34;stroke-linecap:butt"/></g><g transform="translate(15.748 -12.018)"><title>Sheet.21461</title><path d="M.82 95.8h19.05a1.04 1.038 0 0 1 .67.28l3.15 3.15a.913.912-180 0 0 .661.283l14.479-.003a.945.944 0 0 1 .945.912l.005 23.378a.945.944 0 0 1-.945.912L1.04 124.71a.913.912 0 0 1-1.04-.912V96.8a.945.944 0 0 1 .819-1.007z" style="fill:url(#a);stroke:none;stroke-width:34;stroke-linecap:butt"/></g></g></g></svg>