<svg xmlns="http://www.w3.org/2000/svg" xml:space="preserve" width="71.807" height="75.595" style="font-size:12px;overflow:visible;color-interpolation-filters:sRGB;fill-rule:evenodd;stroke-linecap:square;stroke-miterlimit:3" viewBox="0 0 53.855 56.696"><g transform="translate(-12.24 -12.238)"><title>Page-1</title><g transform="translate(12.24 -34.016)"><title>Storage Sync Registered Server.21322</title><title>Sheet.21323</title><g transform="translate(0 -13.606)"><title>Sheet.21324</title><path d="M13.46 68.79c0-1.79 1.47-3.26 3.26-3.26h6.84v-3.54a2.12 2.143-180 0 0-2.13-2.13H2.14c-1.18 0-2.14.96-2.14 2.13v38.83c0 1.18.96 2.13 2.14 2.13h11.32z" style="fill:#7a7a7a;stroke:none;stroke-width:12.23999977;stroke-linecap:butt"/></g><g transform="translate(3.478 -31.87)"><title>Sheet.21325</title><path d="M9.99 97.52h-7.3A2.69 2.718-180 0 0 0 100.24a2.69 2.718-180 0 0 2.69 2.71h7.3z" style="fill:#1e1e1e;stroke:none;stroke-width:12.23999977;stroke-linecap:butt"/></g><g transform="translate(4.628 -32.76)"><title>Sheet.21326</title><ellipse cx="1.803" cy="101.127" rx="1.803" ry="1.822" style="fill:#b8d432;stroke:none;stroke-width:12.23999977;stroke-linecap:butt"/></g><g transform="translate(3.478 -39.806)"><title>Sheet.21327</title><path d="M9.99 97.52h-7.3c-1.48 0-2.69 1.22-2.69 2.72 0 1.49 1.21 2.71 2.69 2.71h7.3z" style="fill:#1e1e1e;stroke:none;stroke-width:12.23999977;stroke-linecap:butt"/></g><g transform="translate(4.628 -40.698)"><title>Sheet.21328</title><ellipse cx="1.803" cy="101.127" rx="1.803" ry="1.822" style="fill:#b8d432;stroke:none;stroke-width:12.23999977;stroke-linecap:butt"/></g><g transform="translate(3.478 -47.742)"><title>Sheet.21329</title><path d="M9.99 102.93c0-1.8 1.46-3.26 3.25-3.26h3.3a2.693 2.721-180 0 0-2.63-2.15H2.69c-1.48 0-2.69 1.22-2.69 2.71 0 1.5 1.21 2.72 2.69 2.72h7.3z" style="fill:#1e1e1e;stroke:none;stroke-width:12.23999977;stroke-linecap:butt"/></g><g transform="translate(4.628 -48.635)"><title>Sheet.21330</title><ellipse cx="1.803" cy="101.127" rx="1.803" ry="1.822" style="fill:#b8d432;stroke:none;stroke-width:12.23999977;stroke-linecap:butt"/></g><g transform="translate(14.587 -6.803)"><title>Sheet.21331</title><path d="M23.56 100.82c0 1.18-.95 2.13-2.13 2.13H2.14C.96 102.95 0 102 0 100.82V61.99c0-1.17.96-2.13 2.14-2.13h19.29a2.12 2.143 0 0 1 2.13 2.13z" style="fill:#7a7a7a;stroke:none;stroke-width:12.23999977;stroke-linecap:butt"/></g><g transform="translate(18.065 -25.066)"><title>Sheet.21332</title><path d="M0 100.24a2.69 2.718 0 0 1 2.69-2.72h11.22a2.69 2.718 0 0 1 2.7 2.72 2.69 2.718 0 0 1-2.7 2.71H2.69A2.69 2.718 0 0 1 0 100.24" style="fill:#1e1e1e;stroke:none;stroke-width:12.23999977;stroke-linecap:butt"/></g><g transform="translate(19.215 -25.957)"><title>Sheet.21333</title><ellipse cx="1.803" cy="101.127" rx="1.803" ry="1.822" style="fill:#b8d432;stroke:none;stroke-width:12.23999977;stroke-linecap:butt"/></g><g transform="translate(18.065 -33.003)"><title>Sheet.21334</title><path d="M0 100.24a2.69 2.718 0 0 1 2.69-2.72h11.22a2.69 2.718 0 0 1 2.7 2.72 2.69 2.718 0 0 1-2.7 2.71H2.69A2.69 2.718 0 0 1 0 100.24" style="fill:#1e1e1e;stroke:none;stroke-width:12.23999977;stroke-linecap:butt"/></g><g transform="translate(19.215 -33.894)"><title>Sheet.21335</title><ellipse cx="1.803" cy="101.127" rx="1.803" ry="1.822" style="fill:#b8d432;stroke:none;stroke-width:12.23999977;stroke-linecap:butt"/></g><g transform="translate(18.065 -40.94)"><title>Sheet.21336</title><path d="M0 100.24a2.69 2.718 0 0 1 2.69-2.72h11.22a2.69 2.718 0 0 1 2.7 2.72 2.69 2.718 0 0 1-2.7 2.71H2.69A2.688 2.717 0 0 1 0 100.24" style="fill:#1e1e1e;stroke:none;stroke-width:12.23999977;stroke-linecap:butt"/></g><g transform="translate(19.215 -41.831)"><title>Sheet.21337</title><ellipse cx="1.803" cy="101.127" rx="1.803" ry="1.822" style="fill:#b8d432;stroke:none;stroke-width:12.23999977;stroke-linecap:butt"/></g><g transform="translate(29.173 -6.803)"><title>Sheet.21338</title><path d="M8.98 100.82V81.18c-1.67.74-4.16 1.36-7.86 1.36H0v15.69c0 1.56.58 3.14 1.71 4.72h5.13c1.18 0 2.14-.95 2.14-2.13" style="fill:#fff;fill-opacity:.5;stroke:none;stroke-width:12.23999977;stroke-linecap:butt"/></g><g transform="translate(30.295)"><title>Sheet.21339</title><path d="M11.78 72.33S10.11 76.87 0 76.87v14.56c0 1.96 1.11 3.8 2.64 5.41 3.47 3.65 9.14 6.11 9.14 6.11s11.78-5.1 11.78-11.52V76.87c-10.09 0-11.78-4.54-11.78-4.54" style="fill:#0072c6;stroke:none;stroke-width:12.23999977;stroke-linecap:butt"/></g><g transform="translate(30.295 -5.91)"><title>Sheet.21340</title><path d="M19.77 82.52c-6.73-.94-7.99-4.28-7.99-4.28S10.11 82.78 0 82.78v14.55c0 2.12 1.08 4.01 2.59 5.62z" style="fill:#fff;fill-opacity:.15;stroke:none;stroke-width:12.23999977;stroke-linecap:butt"/></g><g transform="translate(34.305 -7.733)"><title>Sheet.21341</title><path d="m.62 96.65-.52-.56a.37.374 0 0 1 .021-.53l1.489-1.4a.366.37 0 0 1 .248-.1c.112 0 .202.05.272.13l4.11 4.45 7.07-9.15a.362.366 0 0 1 .29-.143c.09-.007.17.023.23.073l1.62 1.26c.08.06.12.14.14.25a.36.364 0 0 1-.079.272L6.42 102.95Z" style="fill:#fff;stroke:none;stroke-width:12.23999977;stroke-linecap:butt"/></g></g></g></svg>