<svg xmlns="http://www.w3.org/2000/svg" xml:space="preserve" width="75.586" height="75.589" style="font-size:12px;overflow:visible;color-interpolation-filters:sRGB;fill-rule:evenodd;stroke-linecap:square;stroke-miterlimit:3" viewBox="0 0 56.69 56.692"><defs><linearGradient id="a" x1="0" x2="33.79" y1="175.441" y2="175.441" gradientTransform="scale(1.67774 .59604)" gradientUnits="userSpaceOnUse"><stop offset="0" stop-color="#5ea0ef"/><stop offset="1" stop-color="#0078d4"/></linearGradient></defs><g transform="translate(-34 -34.003)"><title>Page-1</title><g transform="translate(34 -34.016)"><title>Storage Account Blob inventory.21501</title><title>Sheet.21502</title><g transform="translate(16.976 -14.772)"><title>Sheet.21503</title><path d="M0 123.31a1.395 1.395-180 0 0 1.4 1.4h30.7a1.395 1.395-180 0 0 1.4-1.4V84.18a1.395 1.395-180 0 0-1.4-1.39H1.4A1.395 1.395-180 0 0 0 84.18Z" style="fill:#37c2b1;stroke:none;stroke-width:34;stroke-linecap:butt"/></g><g transform="translate(11.912 -10.249)"><title>Sheet.21504</title><path d="M0 123.31a1.395 1.395-180 0 0 1.4 1.4h30.7a1.395 1.395-180 0 0 1.4-1.4V84.18a1.395 1.395-180 0 0-1.4-1.39H1.4A1.395 1.395-180 0 0 0 84.18Z" style="fill:#3cd4c2;stroke:none;stroke-width:34;stroke-linecap:butt"/></g><g transform="translate(6.794 -5.682)"><title>Sheet.21505</title><path d="M0 123.31a1.395 1.395-180 0 0 1.4 1.4h30.7a1.395 1.395-180 0 0 1.4-1.4V84.18a1.395 1.395-180 0 0-1.4-1.39H1.4A1.395 1.395-180 0 0 0 84.18Z" style="fill:#42e8ca;stroke:none;stroke-width:34;stroke-linecap:butt"/></g><title>Sheet.21506</title><path d="M0 122.82a1.89 1.89-180 0 0 1.89 1.89H54.8a1.89 1.89-180 0 0 1.89-1.89v-16.36a1.89 1.89-180 0 0-1.89-1.89H1.89A1.89 1.89-180 0 0 0 106.46Z" style="fill:url(#a);stroke:none;stroke-width:34;stroke-linecap:butt"/><g transform="translate(20.27 -12.258)"><title>Sheet.21507</title><path d="M0 123.25a1.455 1.455-180 0 0 1.46 1.46H14.7a1.455 1.455-180 0 0 1.45-1.46 1.455 1.455-180 0 0-1.45-1.45H1.46A1.455 1.455-180 0 0 0 123.25" style="fill:#f2f2f2;stroke:none;stroke-width:34;stroke-linecap:butt"/></g><g transform="translate(11.912 -26.737)"><title>Sheet.21508</title><path d="M22.2 114.28H7.74a.315.315 0 0 1-.315-.33l.005-1.09a.315.315 0 0 1 .315-.33H22.2a.334.334 0 0 1 .334.33l.006 1.08a.334.334 0 0 1-.334.34zm-17.01 1.05v-3.86a.665.665-180 0 0-.68-.658l-3.85.008a.665.665-180 0 0-.665.665L0 115.32a.665.665-180 0 0 .665.665l3.845.005a.665.665-180 0 0 .668-.665zm17.36 7.35v-1.09a.337.337-180 0 0-.334-.334l-14.476.004a.334.334-180 0 0-.315.334l.005 1.076a.33.33-180 0 0 .315.334L22.2 123a.334.334-180 0 0 .334-.334zm-17.36 1.39v-3.86a.665.665-180 0 0-.668-.665L.66 119.54a.665.665-180 0 0-.665.665L0 124.04a.67.67-180 0 0 .665.665l3.845.005a.67.67-180 0 0 .668-.665z" style="fill:#fff;stroke:none;stroke-width:34;stroke-linecap:butt"/></g></g></g></svg>