<svg xmlns="http://www.w3.org/2000/svg" xml:space="preserve" width="75.587" height="64.242" style="font-size:12px;overflow:visible;color-interpolation-filters:sRGB;fill-rule:evenodd;stroke-linecap:square;stroke-miterlimit:3" viewBox="0 0 56.69 48.182"><g transform="translate(-12.24 -12.243)"><title>Page-1</title><g transform="translate(12.24 -34.016)"><title>Storage Account Blob Hot.21509</title><title>Page-1</title><title>Azure Storage (Blog) Hot Tier</title><title>Sheet.21512</title><path d="M0 92.3c0 1.13.8 2.14 2.15 2.14h52.39c1.13 0 2.15-.79 2.15-2.14V54.85H0Z" style="fill:#a0a1a2;stroke:none;stroke-width:12.23999977"/><g transform="translate(0 -39.592)"><title>Sheet.21513</title><path d="M54.54 85.85H2.15C.8 85.85 0 86.87 0 88v6.44h56.69V88c0-1.13-.79-2.15-2.15-2.15" style="fill:#7a7a7a;stroke:none;stroke-width:12.23999977"/></g><g transform="translate(21.317 -27.261)"><title>Sheet.21514</title><path d="M0 85.848h14.287v8.597H0z" style="fill:#fff;stroke:none;stroke-width:12.23999977"/></g><g transform="translate(21.317 -15.61)"><title>Sheet.21515</title><path d="M0 85.848h14.287v8.597H0z" style="fill:#e71e27;stroke:none;stroke-width:.85930598"/></g><g transform="translate(38.325 -15.61)"><title>Sheet.21516</title><path d="M0 85.848h14.287v8.597H0z" style="fill:#e71e27;stroke:none;stroke-width:.85930598"/></g><g transform="translate(38.325 -27.261)"><title>Sheet.21517</title><path d="M0 85.848h14.287v8.597H0z" style="fill:#fff;stroke:none;stroke-width:12.23999977"/></g><g transform="translate(4.309 -27.261)"><title>Sheet.21518</title><path d="M0 85.848h14.287v8.597H0z" style="fill:#fff;stroke:none;stroke-width:12.23999977"/></g><g transform="translate(4.309 -15.61)"><title>Sheet.21519</title><path d="M0 85.848h14.287v8.597H0z" style="fill:#fff;stroke:none;stroke-width:12.23999977"/></g><g transform="translate(4.309 -4.072)"><title>Sheet.21520</title><path d="M0 85.848h14.287v8.597H0z" style="fill:#e71e27;stroke:none;stroke-width:.85930598"/></g><g transform="translate(21.317 -4.072)"><title>Sheet.21521</title><path d="M0 85.848h14.287v8.597H0z" style="fill:#e71e27;stroke:none;stroke-width:.85930598"/></g><g transform="translate(38.325 -4.072)"><title>Sheet.21522</title><path d="M0 85.848h14.287v8.597H0z" style="fill:#e71e27;stroke:none;stroke-width:.85930598"/></g><title>Sheet.21523</title><path d="M2.15 46.26C1.13 46.26 0 47.27 0 48.4v43.9c0 1.13 1.13 2.14 2.15 2.14h2.38l44.91-48.18Z" style="fill:#fff;fill-opacity:.2;stroke:none;stroke-width:12.23999977"/></g></g></svg>