<svg xmlns="http://www.w3.org/2000/svg" xml:space="preserve" width="75.587" height="64.256" style="font-size:12px;overflow:visible;color-interpolation-filters:sRGB;fill-rule:evenodd;stroke-linecap:square;stroke-miterlimit:3" viewBox="0 0 56.69 48.192"><defs><linearGradient id="a" x1="0" x2="48.17" y1="54.244" y2="54.244" gradientTransform="scale(1.17686 .84972)" gradientUnits="userSpaceOnUse"><stop offset="0" stop-color="#0078d4"/><stop offset=".14" stop-color="#077bd6"/><stop offset=".34" stop-color="#1a83db"/><stop offset=".59" stop-color="#3990e4"/><stop offset=".82" stop-color="#5ea0ef"/></linearGradient><linearGradient id="b" x1="0" x2="25.083" y1="40.901" y2="40.901" gradientTransform="scale(.75827 1.3188)" gradientUnits="userSpaceOnUse"><stop offset="0" stop-color="#949494"/><stop offset=".41" stop-color="#c1c1c1"/><stop offset="1" stop-color="#fff"/></linearGradient></defs><g transform="translate(-5.67 -4.812)"><title>Page-1</title><g transform="translate(5.67 -34.016)"><title>Storage Sync Service.21314</title><title>layer1</title><g transform="translate(0 -7.264)"><title>path4</title><path d="M56.69 74.19a12.788 13.018-180 0 0-11.05-12.48A16.064 16.352-180 0 0 29.1 46.1a16.536 16.833-180 0 0-15.75 10.93A15.118 15.39-180 0 0 0 71.91a15.433 15.71-180 0 0 15.97 15.1h27.24a4.61 4.693-180 0 0 .7 0 12.914 13.146-180 0 0 12.78-12.82" style="fill:url(#a);stroke:none;stroke-width:.75;stroke-linecap:butt"/></g><g transform="translate(20.788)"><title>path6</title><path d="M17.42 53.94H0v31.42a1.638 1.667-180 0 0 1.64 1.66h15.75a1.638 1.667-180 0 0 1.63-1.66V55.6a1.637 1.667-180 0 0-1.6-1.66" style="fill:url(#b);stroke:none;stroke-width:.75;stroke-linecap:butt"/></g><g transform="translate(10.439 -24)"><title>path8</title><path d="M7.27 77.94a.283.289 0 0 1-.315-.32l.005-3.72a.346.352-180 0 0-.4-.303.28.28 0 0 0-.17.073l-6.3 6.41a.315.32-180 0 0 0 .449l6.3 6.421a.346.352-180 0 0 .361.05.347.353-180 0 0 .206-.307l.003-3.853a.315.32 0 0 1 .315-.32h3.145v-4.58z" style="fill:#fff;stroke:none;stroke-width:.75;stroke-linecap:butt"/></g><g transform="translate(23.59 -19.397)"><title>path10</title><path d="M0 84.94a2.045 2.082 0 0 1 .6-1.51 2.048 2.085 0 0 1 1.48-.61h9.45a2.08 2.117 0 0 1 2.08 2.12 2.08 2.117 0 0 1-2.08 2.08H2.08a2.05 2.086 0 0 1-1.47-.6A2.046 2.083 0 0 1 0 84.94m0-6.28a2.078 2.115 0 0 1 2.08-2.12h9.45a2.11 2.148 0 0 1 2.08 2.12 2.11 2.148 0 0 1-2.08 2.11H2.08A2.079 2.116 0 0 1 0 78.66" style="fill:#003067;stroke:none;stroke-width:.75;stroke-linecap:butt"/></g><g transform="translate(24.349 -20.07)"><title>path12</title><path d="M1.38 80.74a1.386 1.41-180 1 0 0-2.82 1.386 1.41-180 0 0 0 2.82m0 6.28a1.386 1.41-180 1 0 0-2.82 1.386 1.41-180 0 0 0 2.82" style="fill:#50e6ff;stroke:none;stroke-width:.75;stroke-linecap:butt"/></g><g transform="translate(20.662 -2.904)"><title>path14</title><path d="m10.46 80.53-6.3 6.42a.345.352 0 0 1-.361.05.347.354 0 0 1-.206-.307L3.59 82.91a.315.32-180 0 0-.315-.32H0V78h3.37a.285.29-180 0 0 .234-.082.283.288-180 0 0 .08-.239l.006-3.719a.346.353 0 0 1 .567-.224l6.293 6.414c.03.06.04.14.02.21a.314.32 0 0 1-.113.176z" style="fill:#0078d4;stroke:none;stroke-width:.75;stroke-linecap:butt"/></g></g></g></svg>