<svg xmlns="http://www.w3.org/2000/svg" xml:space="preserve" width="56.692" height="75.59" style="font-size:12px;overflow:visible;color-interpolation-filters:sRGB;fill-rule:evenodd;stroke-linecap:square;stroke-miterlimit:3" viewBox="0 0 42.519 56.692"><defs><linearGradient id="a" x1="0" x2="49.063" y1="58.864" y2="58.864" gradientTransform="scale(.86542 1.1555)" gradientUnits="userSpaceOnUse"><stop offset=".225" stop-color="#32d4f5"/><stop offset=".475" stop-color="#31d1f3"/><stop offset=".635" stop-color="#2ec9eb"/><stop offset=".77" stop-color="#29bade"/><stop offset=".89" stop-color="#22a5cb"/><stop offset="1" stop-color="#198ab3"/><stop offset="1" stop-color="#198ab3"/></linearGradient></defs><g transform="translate(-34 -34.002)"><title>Page-1</title><g transform="translate(34 -34.016)"><title>Storage Account Encryption.21462</title><title>Icon-Lock-security-250</title><title>Sheet.21464</title><path d="M40.28 95.33h-3.01v-9.69a18.278 18.37-180 0 0-4.67-12.37 14.958 15.033-180 0 0-11.62-5.25 15.093 15.169-180 0 0-11.61 5.25A17.978 18.068-180 0 0 4.7 85.63v9.7H2.18A2.208 2.22-180 0 0 0 97.51v25.02a2.211 2.222-180 0 0 2.18 2.18h38.1a2.205 2.216-180 0 0 2.18-2.18V97.51a2.202 2.213-180 0 0-2.18-2.18m-10.56 0H12.26v-9.85a9.91 9.96 0 0 1 2.72-6.78 7.792 7.83 0 0 1 11.83 0 9.697 9.745 0 0 1 1.01 1.36 9.349 9.395 0 0 1 1.89 5.42z" style="fill:url(#a);stroke:none;stroke-width:34;stroke-linecap:butt"/><g transform="translate(.819 -.37)"><title>Sheet.21465</title><path d="M39.52 95.7H1.4a2.153 2.164-180 0 0-1.4.54l40.92 28.47a2.176 2.187-180 0 0 .78-1.64V97.89a2.211 2.222-180 0 0-2.18-2.19" style="fill:#50e6ff;stroke:none;stroke-width:34;stroke-linecap:butt"/></g><g transform="translate(.08 -.37)"><title>Sheet.21466</title><path d="M2.18 95.7H40.3a2.153 2.164 0 0 1 1.4.54L.78 124.71a2.163 2.174 0 0 1-.78-1.64V97.89a2.208 2.22 0 0 1 2.18-2.19" style="fill:#fff;fill-opacity:.2;stroke:none;stroke-width:34;stroke-linecap:butt"/></g></g></g></svg>