<svg xmlns="http://www.w3.org/2000/svg" xml:space="preserve" width="75.587" height="64.246" style="font-size:12px;overflow:visible;color-interpolation-filters:sRGB;fill-rule:evenodd;stroke-linecap:square;stroke-miterlimit:3" viewBox="0 0 56.69 48.185"><g transform="translate(-12.24 -12.24)"><title>Page-1</title><g transform="translate(12.24 -34.016)"><title>Storage Account Blob Cool.21524</title><title>Page-1</title><title>Azure Storage (Blog) Cool Tier</title><title>Sheet.21527</title><path d="M0 92.3c0 1.13.8 2.14 2.15 2.14h52.39c1.13 0 2.15-.78 2.15-2.14V54.85H0Z" style="fill:#a0a1a2;stroke:none;stroke-width:12.23999977"/><g transform="translate(0 -39.595)"><title>Sheet.21528</title><path d="M54.54 85.85H2.15C.8 85.85 0 86.87 0 88v6.44h56.69V88c0-1.13-.79-2.15-2.15-2.15" style="fill:#7a7a7a;stroke:none;stroke-width:12.23999977"/></g><g transform="translate(21.317 -27.26)"><title>Sheet.21529</title><path d="M0 85.847h14.287v8.598H0z" style="fill:#fff;stroke:none;stroke-width:12.23999977"/></g><g transform="translate(21.317 -15.608)"><title>Sheet.21530</title><path d="M0 85.847h14.287v8.598H0z" style="fill:#2272b9;stroke:none;stroke-width:.85930699"/></g><g transform="translate(38.325 -15.608)"><title>Sheet.21531</title><path d="M0 85.847h14.287v8.598H0z" style="fill:#2272b9;stroke:none;stroke-width:.85930699"/></g><g transform="translate(38.325 -27.26)"><title>Sheet.21532</title><path d="M0 85.847h14.287v8.598H0z" style="fill:#fff;stroke:none;stroke-width:12.23999977"/></g><g transform="translate(4.309 -27.26)"><title>Sheet.21533</title><path d="M0 85.847h14.287v8.598H0z" style="fill:#fff;stroke:none;stroke-width:12.23999977"/></g><g transform="translate(4.309 -15.608)"><title>Sheet.21534</title><path d="M0 85.847h14.287v8.598H0z" style="fill:#fff;stroke:none;stroke-width:12.23999977"/></g><g transform="translate(4.309 -4.069)"><title>Sheet.21535</title><path d="M0 85.847h14.287v8.598H0z" style="fill:#2272b9;stroke:none;stroke-width:.85930699"/></g><g transform="translate(21.317 -4.069)"><title>Sheet.21536</title><path d="M0 85.847h14.287v8.598H0z" style="fill:#2272b9;stroke:none;stroke-width:.85930699"/></g><g transform="translate(38.325 -4.069)"><title>Sheet.21537</title><path d="M0 85.847h14.287v8.598H0z" style="fill:#2272b9;stroke:none;stroke-width:.85930699"/></g><title>Sheet.21538</title><path d="M2.15 46.26C1.13 46.26 0 47.27 0 48.41V92.3c0 1.13 1.13 2.14 2.15 2.14h2.38l44.91-48.18Z" style="fill:#fff;fill-opacity:.2;stroke:none;stroke-width:12.23999977"/></g></g></svg>