<svg xmlns="http://www.w3.org/2000/svg" xml:space="preserve" width="75.587" height="68.049" style="font-size:12px;overflow:visible;color-interpolation-filters:sRGB;fill-rule:evenodd;stroke-linecap:square;stroke-miterlimit:3" viewBox="0 0 56.69 51.036"><defs><linearGradient id="a" x1="0" x2="48.482" y1="90.731" y2="90.731" gradientTransform="scale(1.1693 .8552)" gradientUnits="userSpaceOnUse"><stop offset="0" stop-color="#0078d4"/><stop offset="1" stop-color="#5ea0ef"/></linearGradient><linearGradient id="b" x1="-.001" x2="20.657" y1="132.474" y2="132.474" gradientTransform="scale(1.28628 .77744)" gradientUnits="userSpaceOnUse"><stop offset="0" stop-color="#b3b3b3"/><stop offset="1" stop-color="#e6e6e6"/></linearGradient></defs><g transform="translate(-34 -33.998)"><title>Page-1</title><g transform="translate(34 -34.016)"><title>Storage Account Recovery.21404</title><title>Sheet.21405</title><g transform="translate(0 -9.58)"><title>Sheet.21406</title><path d="M56.69 105.96A12.747 13.036-180 0 0 45.63 93.3a16.063 16.428-180 0 0-16.5-15.7 16.498 16.873-180 0 0-15.75 11.1A15.184 15.53-180 0 0 0 103.68a15.433 15.784-180 0 0 15.83 15.37H43.9a12.913 13.207-180 0 0 12.79-13.09" style="fill:url(#a);stroke:none;stroke-width:34;stroke-linecap:butt"/></g><g transform="translate(14.022 -16.36)"><title>3b4c7da4-e396-46ab-8eeb-4c87ba1</title><title>Sheet.21408</title><path d="m33.35 106.59-5.93-9.84-11.31-5.25-6.99.33-8.34 3.79L0 112.21h6.5l13.75-3.53 2.97 9.29 6.07 1.08 4.38-7.51z" style="fill:#000;stroke:none;stroke-width:.75;stroke-linecap:butt"/></g><g transform="translate(1.965)"><title>Sheet.21409</title><path d="M0 102.99h26.57v15.14a.891.912 0 0 1-.888.912L.89 119.05a.891.912 0 0 1-.891-.912z" style="fill:url(#b);stroke:none;stroke-width:34;stroke-linecap:butt"/></g><g transform="translate(1.965 -16.051)"><title>Sheet.21410</title><path d="M.89 113.26h24.8a.891.912 0 0 1 .888.912l-.008 4.878H0v-4.9a.894.915 0 0 1 .891-.895z" style="fill:#37c2b1;stroke:none;stroke-width:34;stroke-linecap:butt"/></g><g transform="translate(5.168 -11.194)"><title>Sheet.21411</title><path d="M.41 115.95h19.33a.419.428 0 0 1 .406.432l.004 2.228a.419.428 0 0 1-.406.432L.41 119.05a.419.428 0 0 1-.406-.432L0 116.38a.419.428 0 0 1 .406-.432z" style="fill:#fff;stroke:none;stroke-width:34;stroke-linecap:butt"/></g><g transform="translate(5.184 -6.716)"><title>Sheet.21412</title><path d="M.41 115.93h19.33a.422.432 0 0 1 .406.432l.004 2.248a.422.432 0 0 1-.406.432L.41 119.05a.422.432 0 0 1-.406-.432L0 116.44a.422.432 0 0 1 .337-.503z" style="fill:#37c2b1;stroke:none;stroke-width:34;stroke-linecap:butt"/></g><g transform="translate(5.184 -2.207)"><title>Sheet.21413</title><path d="M.41 115.93h19.33a.422.432 0 0 1 .406.432l.004 2.248a.422.432 0 0 1-.406.432L.41 119.05a.422.432 0 0 1-.406-.432L0 116.36a.422.432 0 0 1 .406-.432z" style="fill:#258277;stroke:none;stroke-width:34;stroke-linecap:butt"/></g></g></g></svg>