<svg xmlns="http://www.w3.org/2000/svg" xml:space="preserve" width="56.698" height="75.549" style="font-size:12px;overflow:visible;color-interpolation-filters:sRGB;fill-rule:evenodd;stroke-linecap:square;stroke-miterlimit:3" viewBox="0 0 42.523 56.662"><defs><linearGradient id="a" x1="0" x2="45.61" y1="77.415" y2="77.415" gradientTransform="scale(.93159 1.07344)" gradientUnits="userSpaceOnUse"><stop offset="0" stop-color="#005ba1"/><stop offset=".07" stop-color="#0060a9"/><stop offset=".36" stop-color="#0071c8"/><stop offset=".52" stop-color="#0078d4"/><stop offset=".64" stop-color="#0074cd"/><stop offset=".82" stop-color="#006abb"/><stop offset="1" stop-color="#005ba1"/></linearGradient></defs><g transform="translate(-37.7 -37.699)"><title>Page-1</title><g transform="translate(37.7 -37.7)"><title>StorSimple Data Manager.21308</title><title>path21</title><path d="M21.23 90.86C9.5 90.86 0 87.53 0 83.1v41.16c0 4.23 9.33 7.7 20.93 7.8h.3c11.73 0 21.26-3.33 21.26-7.7V83.2c.03 4.26-9.5 7.7-21.26 7.66" style="fill:url(#a);stroke:none;stroke-width:37.6996994;stroke-linecap:butt"/><g transform="translate(.033 -41.161)"><title>path23</title><path d="M42.49 124.36c0 4.27-9.53 7.7-21.26 7.67C9.5 131.99 0 128.69 0 124.26s9.53-7.73 21.19-7.7c11.67.03 21.23 3.53 21.23 7.8z" style="fill:#f2f2f2"/><path d="M42.49 124.36c0 4.27-9.53 7.7-21.26 7.67C9.5 131.99 0 128.69 0 124.26s9.53-7.73 21.19-7.7c11.67.03 21.23 3.53 21.23 7.8" style="stroke:none;stroke-width:37.6996994;stroke-linecap:butt"/></g><g transform="translate(4.998 -44.594)"><title>path25</title><path d="M32.56 127.16c0 2.7-7.3 4.9-16.3 4.87-9-.04-16.26-2.24-16.26-4.97s7.3-4.9 16.23-4.87c8.93.04 16.29 2.24 16.26 4.97z" style="fill:#50e6ff"/><path d="M32.56 127.16c0 2.7-7.3 4.9-16.3 4.87-9-.04-16.26-2.24-16.26-4.97s7.3-4.9 16.23-4.87c8.93.04 16.29 2.24 16.26 4.97" style="stroke:none;stroke-width:37.6996994;stroke-linecap:butt"/></g><g transform="translate(8.297 -44.628)"><title>path27</title><path d="M12.93 128.36A39.52 39.528-180 0 0 0 130.23a37.955 37.962-180 0 0 12.93 1.83 38.121 38.129-180 0 0 12.93-1.9 40.254 40.262-180 0 0-12.93-1.8" style="fill:#198ab3;stroke:none;stroke-width:37.6996994;stroke-linecap:butt"/></g><g transform="translate(9.297 -11.032)"><title>path29</title><path d="m23.49 118.69-2.73-.86c-.17 0-.27 0-.33-.3l-.57-1.4a1.3 1.3 0 0 1 0-.5c.4-.87.8-1.74 1.27-2.57a.367.367-180 0 0 0-.533c-.47-.467-.94-.867-1.37-1.367a.433.433-180 0 0-.733 0l-2.337 1.17h-.43l-1.36-.57a.467.467 0 0 1-.533-.333 42 42 0 0 1-.937-2.697.37.37-180 0 0-.333-.3H10.86c-.23 0-.26 0-.4.27-.26.93-.56 1.83-.9 2.73 0 0 0 .3-.3.33l-1.4.57a.73.73 0 0 1-.533 0l-2.657-1.3a.37.37-180 0 0-.4 0c-.5.53-1 1.1-1.57 1.6a.267.267-180 0 0 0 .4c.43.83.83 1.7 1.3 2.53a.6.6 0 0 1 0 .533l-.6 1.297a.47.47 0 0 1-.4.4c-.9.34-1.8.67-2.7.94-.23 0-.3.16-.3.36v2.34c0 .23 0 .33.27.4.93.26 1.83.63 2.73.9a.43.43 0 0 1 .333.367c-.003.433.397.893.567 1.363a.63.63 0 0 1 0 .5c-.47.9-.87 1.8-1.3 2.7a.3.3-180 0 0 0 .367l1.67 1.633s0 .17.26 0l1.6-.83 1.17-.74h.46l1.4.57c.17 0 .24.17.3.33.34.9.67 1.87.94 2.77a.4.4-180 0 0 .367.3h2.193c.24 0 .3 0 .4-.27.3-.9.64-1.83.9-2.73a.5.5 0 0 1 .3-.333l1.43-.567a.5.5 0 0 1 .433 0l2.667 1.3a.33.33-180 0 0 .4 0c.5-.53 1.04-1.1 1.6-1.6.57-.5.17-.23 0-.47a26.991 26.997 0 0 1-1.3-2.6.367.367 0 0 1 0-.5c.2-.46.4-.9.57-1.36a.43.43 0 0 1 .333-.333c.897-.337 1.837-.707 2.737-.967.23 0 .26-.17.26-.4v-2.17c0-.7.04-.27-.2-.37m-7.86 5.07-.27.23a5.265 5.266 0 0 1-6.23.4l-.33-.23a5.37 5.37 0 0 1-2.1-3.33 5.098 5.1 0 0 1 1.53-4.7c.17-.17.17-.24 0-.4l-.43-.5h2.76v2.56l-.73-.7s0-.16-.33 0a3.73 3.73-180 0 0-.37 5.24 2.7 2.7-180 0 0 .57.5l.4.2a3.332 3.333-180 0 0 1.86.56 3.332 3.333-180 0 0 3.14-1.83 3.63 3.63-180 0 0-.64-4.33s-.33-.24-.36-.47c-.04-.23 0 0 0-.23a5.398 5.4-180 0 0 .6-.64c.46-.36.46-.36.8 0a5.43 5.43 0 0 1 .13 7.67" style="fill:#fff;stroke:none;stroke-width:37.6996994;stroke-linecap:butt"/></g></g></g></svg>