<svg xmlns="http://www.w3.org/2000/svg" xmlns:xlink="http://www.w3.org/1999/xlink" xml:space="preserve" width="76.305" height="76.11" style="font-size:12px;overflow:visible;color-interpolation-filters:sRGB;fill-rule:evenodd;stroke-linecap:square;stroke-miterlimit:3" viewBox="0 0 57.229 57.083"><defs><linearGradient id="b" x1="0" x2="50.63" y1="74.292" y2="74.292" gradientTransform="scale(.99882 1.00119)" gradientUnits="userSpaceOnUse"><stop offset="0" stop-color="#50e6ff"/><stop offset="1" stop-color="#32bedd"/></linearGradient><linearGradient id="c" x1="0" x2="43.832" y1="103.797" y2="103.797" gradientTransform="scale(1.1804 .84717)" gradientUnits="userSpaceOnUse"><stop offset="0" stop-color="#a33a85"/><stop offset="1" stop-color="#ce74b6"/></linearGradient><linearGradient id="a" x1="0" x2="1" y1="0" y2="0" gradientTransform="rotate(90 .5 .5)"><stop offset="0" stop-color="#50e6ff"/><stop offset="1" stop-color="#32bedd"/></linearGradient><linearGradient xlink:href="#a" id="d" x1="-.254" x2="8.638" y1="114.862" y2="114.862" gradientTransform="scale(.98762 1.01254)" gradientUnits="userSpaceOnUse"/><linearGradient xlink:href="#a" id="e" x1="-.272" x2="8.582" y1="114.621" y2="114.621" gradientTransform="scale(.98566 1.01455)" gradientUnits="userSpaceOnUse"/><linearGradient xlink:href="#a" id="f" x1="-.272" x2="8.582" y1="114.621" y2="114.621" gradientTransform="scale(.98566 1.01455)" gradientUnits="userSpaceOnUse"/></defs><g transform="translate(-33.968 -33.996)"><title>Page-1</title><g transform="translate(34.237 -34.192)"><title>Storage Mover.21350</title><title>Sheet.21351</title><g transform="translate(2.828 -3)"><title>Sheet.21352</title><path d="M50.57 120.99 4.5 74.38l-2.54 2.57 21.61 21.87L0 122.49l2.53 2.58 23.58-23.68 21.92 22.17z" style="fill:url(#b);stroke:none;stroke-width:34;stroke-linecap:butt"/></g><g transform="translate(3.08 -12.858)"><title>Sheet.21353</title><path d="M51.73 113.44a11.616 11.751-180 0 0-10.08-11.31 14.654 14.826-180 0 0-15.09-14.19 15.021 15.197-180 0 0-14.36 9.93A13.847 14.009-180 0 0 0 111.36a14.07 14.235-180 0 0 14.6 13.68h24.9a1.851 1.873-180 0 0 .62 0 11.762 11.9-180 0 0 11.62-11.6z" style="fill:url(#c);stroke:none;stroke-width:34;stroke-linecap:butt"/></g><g transform="translate(1.988 -48.113)"><title>Sheet.21354</title><path d="M2.63 125.07a4.478 4.53-180 0 0 2.88-8.58 4.481 4.534-180 0 0-2.88 8.58" style="fill:url(#d);stroke:none;stroke-width:34;stroke-linecap:butt"/></g><title>Sheet.21355</title><path d="M2.66 125.07a4.478 4.53-180 0 0 2.87-8.58 4.478 4.53-180 0 0-2.87 8.58" style="fill:url(#e);stroke:none;stroke-width:34;stroke-linecap:butt"/><g transform="translate(48.502 -1.453)"><title>Sheet.21356</title><path d="M2.66 125.07a4.478 4.53-180 0 0 2.87-8.58 4.478 4.53-180 0 0-2.87 8.58" style="fill:url(#f);stroke:none;stroke-width:34;stroke-linecap:butt"/></g></g></g></svg>