<svg xmlns="http://www.w3.org/2000/svg" xml:space="preserve" width="75.586" height="60.472" style="font-size:12px;overflow:visible;color-interpolation-filters:sRGB;fill-rule:evenodd;stroke-linecap:square;stroke-miterlimit:3" viewBox="0 0 56.69 45.354"><defs><linearGradient id="a" x1="0" x2="43.475" y1="104.357" y2="104.357" gradientTransform="scale(1.30398 .76688)" gradientUnits="userSpaceOnUse"><stop offset="0" stop-color="#32bedd"/><stop offset=".18" stop-color="#32caea"/><stop offset=".41" stop-color="#32d2f2"/><stop offset=".78" stop-color="#32d4f5"/></linearGradient></defs><g transform="translate(-34 -34)"><title>Page-1</title><g transform="translate(34 -34.016)"><title>Storage Account (classic).21539</title><title>Icon-storage-87</title><title>Sheet.21541</title><path d="M0 80.03h56.69v31.45a1.9 1.891 0 0 1-1.9 1.89H1.9a1.9 1.891 0 0 1-1.9-1.89Z" style="fill:url(#a);stroke:none;stroke-width:34;stroke-linecap:butt"/><g transform="translate(0 -33.344)"><title>Sheet.21542</title><path d="M1.9 101.36h52.89a1.9 1.891 0 0 1 1.9 1.89v10.12H0v-10.15a1.9 1.891 0 0 1 1.9-1.86" style="fill:#198ab3;stroke:none;stroke-width:34;stroke-linecap:butt"/></g><g transform="translate(6.837 -23.258)"><title>Sheet.21543</title><path d="M.87 106.93h41.25a.9.896 0 0 1 .867.896l.003 4.644a.9.896 0 0 1-.867.896L.87 113.37a.9.896 0 0 1-.867-.896L0 107.83a.9.896 0 0 1 .867-.896z" style="fill:#fff;stroke:none;stroke-width:34;stroke-linecap:butt"/></g><g transform="translate(6.87 -13.968)"><title>Sheet.21544</title><path d="M.87 106.9h41.25a.9.896 0 0 1 .867.896l.003 4.674a.9.896 0 0 1-.867.896L.87 113.37a.9.896 0 0 1-.867-.896L0 107.96a.9.896 0 0 1 .867-1.062z" style="fill:#9cebff;stroke:none;stroke-width:34;stroke-linecap:butt"/></g><g transform="translate(6.87 -4.612)"><title>Sheet.21545</title><path d="M.87 106.9h41.25a.9.896 0 0 1 .867.896l.003 4.674a.9.896 0 0 1-.867.896L.87 113.37a.9.896 0 0 1-.867-.896L0 107.8a.9.896 0 0 1 .867-.896z" style="fill:#50e6ff;stroke:none;stroke-width:34;stroke-linecap:butt"/></g></g></g></svg>