<svg xmlns="http://www.w3.org/2000/svg" xml:space="preserve" width="75.589" height="71.802" style="font-size:12px;overflow:visible;color-interpolation-filters:sRGB;fill-rule:evenodd;stroke-linecap:square;stroke-miterlimit:3" viewBox="0 0 56.692 53.852"><g transform="translate(-12.24 -12.242)"><title>Page-1</title><g transform="translate(12.24 -34.016)"><title>Storage Account Data Migration.21467</title><title>Sheet.21468</title><g transform="translate(.001)"><title>Sheet.21469</title><path d="M0 55.75v35.26c0 4.98 8.06 9.1 18.14 9.1s18.14-4.07 18.14-9.1V55.75Z" style="fill:#3999c6;stroke:none;stroke-width:12.23999977;stroke-linecap:butt"/></g><g transform="translate(18.142)"><title>Sheet.21470</title><path d="M0 100.11c10.08 0 18.14-4.07 18.14-9.1V55.75H0Z" style="fill:#000;fill-opacity:.15;stroke:none;stroke-width:12.23999977;stroke-linecap:butt"/></g><g transform="translate(0 -34.992)"><title>Sheet.21471</title><path d="M36.28 90.68c0 5.21-8.12 9.43-18.14 9.43S0 95.89 0 90.68s8.12-9.43 18.14-9.43 18.14 4.22 18.14 9.43" style="fill:#fff;stroke:none;stroke-width:12.23999977;stroke-linecap:butt"/></g><g transform="translate(3.709 -39.099)"><title>Sheet.21472</title><path d="M28.87 94.12c0 3.31-6.47 5.99-14.44 5.99S0 97.43 0 94.12s6.46-6 14.43-6 14.44 2.69 14.44 6" style="fill:#57a300;stroke:none;stroke-width:12.23999977;stroke-linecap:butt"/></g><g transform="translate(3.711 -41.43)"><title>Sheet.21473</title><path d="M25.84 100.11c1.89-1.01 3.02-2.28 3.02-3.66 0-3.31-6.46-5.99-14.43-5.99S0 93.14 0 96.45c0 1.38 1.13 2.65 3.03 3.66 2.63-1.41 6.76-2.33 11.4-2.33 4.65 0 8.77.92 11.41 2.33" style="fill:#b8d432;stroke:none;stroke-width:12.23999977;stroke-linecap:butt"/></g><g transform="translate(26.173 -16.093)"><title>Sheet.21474</title><path d="M10.11 84.15.5 93.91a1.7 1.726-180 0 0 0 2.45l3.2 3.25a1.7 1.726-180 0 0 2.41 0l4-4.07z" style="fill:#fff;fill-opacity:.4;stroke:none;stroke-width:12.23999977;stroke-linecap:butt"/></g><g transform="translate(27.072 -17.005)"><title>Sheet.21475</title><path d="m0 96.05 19.07-19.36-4.41-4.47 14.96-2.17-2.14 15.19-4.41-4.48-19.06 19.35Z" style="fill:#804998;stroke:none;stroke-width:12.23999977;stroke-linecap:butt"/></g></g></g></svg>