<svg xmlns="http://www.w3.org/2000/svg" xml:space="preserve" width="75.587" height="60.474" style="font-size:12px;overflow:visible;color-interpolation-filters:sRGB;fill-rule:evenodd;stroke-linecap:square;stroke-miterlimit:3" viewBox="0 0 56.69 45.356"><defs><linearGradient id="a" x1="0" x2="43.475" y1="104.357" y2="104.357" gradientTransform="scale(1.30398 .76688)" gradientUnits="userSpaceOnUse"><stop offset="0" stop-color="#0078d4"/><stop offset=".5" stop-color="#4093e6"/><stop offset=".775" stop-color="#5ea0ef"/></linearGradient></defs><g transform="translate(-34 -33.999)"><title>Page-1</title><g transform="translate(34 -34.016)"><title>Storage Account Table.21381</title><title>MsPortalFx.base.images-4</title><title>Sheet.21383</title><path d="M0 80.03h56.69v31.46a1.894 1.885 0 0 1-1.89 1.88H1.89A1.894 1.885 0 0 1 0 111.49Z" style="fill:url(#a);stroke:none;stroke-width:34;stroke-linecap:butt"/><g transform="translate(0 -33.336)"><title>Sheet.21384</title><path d="M1.9 101.35h52.89a1.894 1.885 0 0 1 1.89 1.89v10.13H0v-10.13a1.894 1.885 0 0 1 1.9-1.89" style="fill:#0078d4;stroke:none;stroke-width:34;stroke-linecap:butt"/></g><g transform="translate(6.016 -22.773)"><title>Sheet.21385</title><path d="M0 112.43a.944.94-180 0 0 .944.94H11.23a.944.94-180 0 0 .944-.94l-.004-4.26a.944.94-180 0 0-.944-.94H.94a.944.94-180 0 0-.944.94z" style="fill:#fff;fill-opacity:.9;stroke:none;stroke-width:34;stroke-linecap:butt"/></g><g transform="translate(22.344 -22.86)"><title>Sheet.21386</title><path d="M0 112.43a.944.94-180 0 0 .944.94H11.23a.944.94-180 0 0 .944-.94l-.004-4.26a.944.94-180 0 0-.944-.94H.94a.944.94-180 0 0-.944.94z" style="fill:#fff;fill-opacity:.9;stroke:none;stroke-width:34;stroke-linecap:butt"/></g><g transform="translate(38.671 -22.86)"><title>Sheet.21387</title><path d="M0 112.43a.944.94-180 0 0 .944.94H11.23a.944.94-180 0 0 .944-.94l-.004-4.26a.944.94-180 0 0-.944-.94H.94a.944.94-180 0 0-.944.94z" style="fill:#fff;fill-opacity:.9;stroke:none;stroke-width:34;stroke-linecap:butt"/></g><g transform="translate(6.196 -13.993)"><title>Sheet.21388</title><path d="M0 112.43a.944.94-180 0 0 .944.94H11.23a.944.94-180 0 0 .944-.94l-.004-4.26a.944.94-180 0 0-.944-.94H.94a.944.94-180 0 0-.944.94z" style="fill:#fff;fill-opacity:.9;stroke:none;stroke-width:34;stroke-linecap:butt"/></g><g transform="translate(22.524 -14.08)"><title>Sheet.21389</title><path d="M0 112.43a.944.94-180 0 0 .944.94H11.23a.944.94-180 0 0 .944-.94l-.004-4.26a.944.94-180 0 0-.944-.94H.94a.944.94-180 0 0-.944.94z" style="fill:#ffd400;stroke:none;stroke-width:34;stroke-linecap:butt"/></g><g transform="translate(38.851 -14.08)"><title>Sheet.21390</title><path d="M0 112.43a.944.94-180 0 0 .944.94H11.23a.944.94-180 0 0 .944-.94l-.004-4.26a.944.94-180 0 0-.944-.94H.94a.944.94-180 0 0-.944.94z" style="fill:#ffd400;stroke:none;stroke-width:34;stroke-linecap:butt"/></g><g transform="translate(6.196 -5.127)"><title>Sheet.21391</title><path d="M0 112.43a.944.94-180 0 0 .944.94H11.23a.944.94-180 0 0 .944-.94l-.004-4.26a.944.94-180 0 0-.944-.94H.94a.944.94-180 0 0-.944.94z" style="fill:#ffd400;stroke:none;stroke-width:34;stroke-linecap:butt"/></g><g transform="translate(22.524 -5.213)"><title>Sheet.21392</title><path d="M0 112.43a.944.94-180 0 0 .944.94H11.23a.944.94-180 0 0 .944-.94l-.004-4.26a.944.94-180 0 0-.944-.94H.94a.944.94-180 0 0-.944.94z" style="fill:#ffd400;stroke:none;stroke-width:34;stroke-linecap:butt"/></g><g transform="translate(38.851 -5.213)"><title>Sheet.21393</title><path d="M0 112.43a.944.94-180 0 0 .944.94H11.23a.944.94-180 0 0 .944-.94l-.004-4.26a.944.94-180 0 0-.944-.94H.94a.944.94-180 0 0-.944.94z" style="fill:#ffd400;stroke:none;stroke-width:34;stroke-linecap:butt"/></g></g></g></svg>