<svg xmlns="http://www.w3.org/2000/svg" xml:space="preserve" width="75.586" height="75.586" style="font-size:12px;overflow:visible;color-interpolation-filters:sRGB;fill-rule:evenodd;stroke-linecap:square;stroke-miterlimit:3" viewBox="0 0 56.69 56.69"><g transform="translate(-12.24 -12.244)"><title>Page-1</title><g transform="translate(12.24 -34.016)"><title>Storage Account Lifecycle Management.21446</title><title>Sheet.21447</title><g transform="translate(9.65 -1.181)"><title>Sheet.21448</title><path d="M33.17 102.95c-2.7 0-5.43-2.03-5.43-5.91 0-1.82.68-3.46 1.87-4.72H0V58.07c0-5.39 4.15-9.45 9.65-9.45h33.31l-2.06 2.01c-1.11 1.09-2.3 3.86-2.3 6.26v38.97c0 3.27-1.42 7.09-5.43 7.09" style="fill:#fff;stroke:none;stroke-width:12.23999977;stroke-linecap:butt"/></g><g transform="translate(9.65 -1.181)"><title>Sheet.21449</title><path d="M33.17 102.95c-2.7 0-5.43-2.03-5.43-5.91 0-1.82.68-3.46 1.87-4.72H0V58.07c0-5.39 4.15-9.45 9.65-9.45h33.31l-2.06 2.01c-1.11 1.09-2.3 3.86-2.3 6.26v38.97c0 3.27-1.42 7.09-5.43 7.09" style="fill:#59b4d9;fill-opacity:.2;stroke:none;stroke-width:12.23999977;stroke-linecap:butt"/></g><title>Sheet.21450</title><path d="M50.66 46.26H19.3c-6.03 0-10.86 4.72-10.86 10.63v33.07H6.63C3.02 89.96 0 92.91 0 96.45c0 3.55 3.02 6.5 6.63 6.5h36.79l.97-.12c3.98-.59 5.07-4.72 5.07-6.97V55.7h6.75c.24-.82.48-1.65.48-2.71 0-3.66-2.65-6.73-6.03-6.73m-3.62 9.44v38.98c0 1.77-.6 5.91-4.22 5.91-2.05 0-4.22-1.54-4.22-4.73 0-2.95 2.05-5.08 4.82-5.79v-.11H10.86V56.89c0-4.73 3.61-8.27 8.44-8.27h30.4c-1.33 1.3-2.66 4.37-2.66 7.08" style="fill:#3999c6;stroke:none;stroke-width:12.23999977;stroke-linecap:butt"/><g transform="translate(14.595 -17.835)"><title>Sheet.21451</title><path d="M14.35 77.2c6.59 0 11.95 5.25 11.95 11.69 0 6.45-5.36 11.7-11.95 11.7-6.58 0-11.94-5.25-11.94-11.7 0-6.44 5.36-11.69 11.94-11.69m0-2.36C6.43 74.84 0 81.13 0 88.89c0 7.77 6.43 14.06 14.35 14.06 7.93 0 14.36-6.29 14.36-14.06 0-7.76-6.43-14.05-14.36-14.05" style="fill:#804998;stroke:none;stroke-width:12.23999977;stroke-linecap:butt"/></g><g transform="translate(27.743 -27.672)"><title>Sheet.21452</title><path d="m7.51 100.9-5.1-2.85v-7.59a1.206 1.181-180 1 0-2.41 0v8.27c0 .05.02.09.03.14.01.09.02.17.05.25.02.06.05.12.09.17a1.182 1.157-180 0 0 .15.23c.04.04.09.08.13.11.06.04.09.1.15.13l5.7 3.19a1.21 1.184-180 0 0 1.21-2.05" style="fill:#804998;stroke:none;stroke-width:12.23999977;stroke-linecap:butt"/></g></g></g></svg>