<svg xmlns="http://www.w3.org/2000/svg" xml:space="preserve" width="75.595" height="75.603" style="font-size:12px;overflow:visible;color-interpolation-filters:sRGB;fill-rule:evenodd;stroke-linecap:square;stroke-miterlimit:3" viewBox="0 0 56.697 56.702"><defs><linearGradient id="a" x1="-.006" x2="52.652" y1="81.628" y2="81.628" gradientTransform="scale(1.0767 .92876)" gradientUnits="userSpaceOnUse"><stop offset="0" stop-color="#773adc"/><stop offset="1" stop-color="#b77af4"/></linearGradient></defs><g transform="translate(-34 -34.002)"><title>Page-1</title><g transform="translate(34.007 -34.016)"><title>Storage Explorer.21357</title><title>Icon-91Artboard 1</title><g transform="translate(28.17 -13.819)"><title>Sheet.21359</title><path d="M0 114.44h27.818v10.276H0z" style="fill:#005ba1;stroke:none;stroke-width:34;stroke-linecap:butt"/></g><g transform="translate(0 -46.063)"><title>Sheet.21360</title><path d="M1.06 114.09h11.62a1.127 1.134 0 0 1 1.05 1.06v8.5a1.127 1.134 0 0 1-1.05 1.07H1.06c-.71-.36-1.06-.71-1.06-1.07v-8.5a.95.957 0 0 1 1.056-1.063z" style="fill:#32bedd;stroke:none;stroke-width:34;stroke-linecap:butt"/></g><g transform="translate(1.76 -1.417)"><title>Sheet.21361</title><path d="M0 113.731h52.467v10.984H0z" style="fill:#005ba1;stroke:none;stroke-width:34;stroke-linecap:butt"/></g><g transform="translate(0 -25.512)"><title>Sheet.21362</title><path d="M14.44 114.09h11.62a1.127 1.134-180 0 0 1.05-1.07v-8.15a1.127 1.134-180 0 0-1.05-1.06H14.44a.95.957-180 0 0-1.056 1.063l-.004 8.507a1.127 1.134 0 0 1-1.06 1.06H1.06c-.71-.35-1.06.35-1.06.71v8.5a1.127 1.134-180 0 0 1.06 1.07h11.62a1.127 1.134-180 0 0 1.05-1.07v-8.5c-.35-.36 0-1.06.71-1.06" style="fill:#32bedd;stroke:none;stroke-width:34;stroke-linecap:butt"/></g><title>Sheet.21363</title><path d="M56.34 76.88a1.127 1.134-180 0 0-1.06-1.06H41.2a.95.957-180 0 0-1.056 1.063L40.14 87.86H27.11V99.2H13.38v11.7H1.06A1.127 1.134-180 0 0 0 111.96v11.69a.95.957-180 0 0 1.056 1.063l54.584.007a1.127 1.134-180 0 0 1.05-1.07V76.88Zm-42.96 46.06H1.76v-9.92h11.27zm13.73 0H15.14v-9.92h11.97zm0-12.04H15.14v-9.92h11.97Zm1.76-21.26h11.62v9.56H28.87Zm0 11.69h11.62v9.57H28.87Zm0 21.61v-9.92h11.62v9.92zm13.39-21.61h12.32v9.57H42.26Zm12.32-2.13H42.26v-9.56h12.32zm-12.32 23.74v-9.92h12.32v9.92z" style="fill:url(#a);stroke:none;stroke-width:34;stroke-linecap:butt"/></g></g></svg>