<svg xmlns="http://www.w3.org/2000/svg" xml:space="preserve" width="75.586" height="60.474" style="font-size:12px;overflow:visible;color-interpolation-filters:sRGB;fill-rule:evenodd;stroke-linecap:square;stroke-miterlimit:3" viewBox="0 0 56.69 45.355"><defs><linearGradient id="a" x1="0" x2="44.518" y1="99.848" y2="99.848" gradientTransform="scale(1.2734 .7853)" gradientUnits="userSpaceOnUse"><stop offset="0" stop-color="#a67af4"/><stop offset=".775" stop-color="#b796f9"/></linearGradient></defs><g transform="translate(-34 -33.999)"><title>Page-1</title><g transform="translate(34 -34.016)"><title>Storage Account Queue.21414</title><title>MsPortalFx.base.images-3</title><title>Sheet.21416</title><path d="M0 78.41h56.69v33.08a1.894 1.884 0 0 1-1.89 1.88H1.89A1.894 1.884 0 0 1 0 111.49Z" style="fill:url(#a);stroke:none;stroke-width:34;stroke-linecap:butt"/><g transform="translate(.01 -34.965)"><title>Sheet.21417</title><path d="M1.89 102.98h52.89a1.894 1.884 0 0 1 1.89 1.89v8.5H0v-8.5a1.894 1.884 0 0 1 1.89-1.89" style="fill:#773adc;stroke:none;stroke-width:34;stroke-linecap:butt"/></g><g transform="translate(6.976 -4.773)"><title>Sheet.21418</title><title>Sheet.21419</title><path d="M0 112.46a.919.914-180 0 0 .919.914l10.511-.004a.919.914-180 0 0 .919-.914l.001-24.626a.919.914-180 0 0-.919-.914L.92 86.91a.919.914-180 0 0-.919.914z" style="fill:#fff;stroke:none;stroke-width:34;stroke-linecap:butt"/><g transform="translate(15.196)"><title>Sheet.21420</title><path d="M0 112.46a.919.914-180 0 0 .919.914l10.511-.004a.919.914-180 0 0 .919-.914l.001-24.626a.919.914-180 0 0-.919-.914L.92 86.91a.919.914-180 0 0-.919.914z" style="fill:#fff;fill-opacity:.75;stroke:none;stroke-width:34;stroke-linecap:butt"/></g><g transform="translate(30.395)"><title>Sheet.21421</title><path d="M0 112.46a.919.914-180 0 0 .919.914l10.511-.004a.919.914-180 0 0 .919-.914l.001-24.626a.919.914-180 0 0-.919-.914L.92 86.91a.919.914-180 0 0-.919.914z" style="fill:#fff;fill-opacity:.5;stroke:none;stroke-width:34;stroke-linecap:butt"/></g></g></g></g></svg>