<svg xmlns="http://www.w3.org/2000/svg" xml:space="preserve" width="75.635" height="49.143" style="font-size:12px;overflow:visible;color-interpolation-filters:sRGB;fill-rule:evenodd;stroke-linecap:square;stroke-miterlimit:3" viewBox="0 0 56.726 36.857"><defs><linearGradient id="a" x1="0" x2="31.57" y1="95.083" y2="95.083" gradientTransform="scale(1.20771 .82801)" gradientUnits="userSpaceOnUse"><stop offset="0" stop-color="#5e9624"/><stop offset=".01" stop-color="#5e9724"/><stop offset=".35" stop-color="#6cab29"/><stop offset=".68" stop-color="#73b82c"/><stop offset="1" stop-color="#76bc2d"/></linearGradient><linearGradient id="b" x1="-.014" x2="31.556" y1="95.083" y2="95.083" gradientTransform="scale(1.2077 .82802)" gradientUnits="userSpaceOnUse"><stop offset="0" stop-color="#0078d4"/><stop offset=".82" stop-color="#5ea0ef"/></linearGradient><linearGradient id="c" x1="0" x2="15.202" y1="131.46" y2="131.46" gradientTransform="scale(1.39851 .71504)" gradientUnits="userSpaceOnUse"><stop offset="0" stop-color="#005ba1"/><stop offset=".14" stop-color="#035da3"/><stop offset=".3" stop-color="#0b63aa"/><stop offset=".47" stop-color="#196eb6"/><stop offset=".65" stop-color="#2d7cc6"/><stop offset=".84" stop-color="#468edb"/><stop offset="1" stop-color="#5ea0ef"/></linearGradient></defs><g transform="translate(-34 -33.997)"><title>Page-1</title><g transform="translate(34.017 -34.016)"><title>Storage Account Shared Access Signature.21394</title><title>Icon-web-48</title><g transform="translate(18.583)"><title>Sheet.21396</title><path d="M26.08 78.73H11.81A12.598 12.284-180 0 0 0 89.51h4.47a7.843 7.646 0 0 1 7.34-6.14h14.27a8.157 7.954 0 0 1 7.68 8.32 8.189 7.984 0 0 1-7.68 8.35H11.81a7.843 7.646 0 0 1-7.34-6.14H0a12.598 12.284-180 0 0 11.81 10.97h14.27a12.787 12.468-180 0 0 12.03-13.09 12.787 12.468-180 0 0-12.03-13.05" style="fill:url(#a);stroke:none;stroke-width:34;stroke-linecap:butt"/></g><g transform="translate(0 -10.717)"><title>Sheet.21397</title><path d="M26.3 100.23H12.03a8.157 7.954 0 0 1-7.68-8.42 8.189 7.984 0 0 1 7.68-8.35H26.3a7.843 7.646 0 0 1 7.34 6.14h4.47A12.598 12.284-180 0 0 26.3 78.73H12.03A12.787 12.468-180 0 0 0 91.81a12.787 12.468-180 0 0 12.03 13.06H26.3a12.598 12.284-180 0 0 11.81-10.78h-4.47a7.843 7.646 0 0 1-7.34 6.14" style="fill:url(#b);stroke:none;stroke-width:34;stroke-linecap:butt"/></g><g transform="translate(16.85 -10.625)"><title>Sheet.21398</title><path d="M9.45 100.14H0v4.73h9.45A12.598 12.284-180 0 0 21.26 94h-4.47a7.843 7.646 0 0 1-7.34 6.14" style="fill:url(#c);stroke:none;stroke-width:34;stroke-linecap:butt"/></g></g></g></svg>