<svg xmlns="http://www.w3.org/2000/svg" xml:space="preserve" width="71.814" height="75.589" style="font-size:12px;overflow:visible;color-interpolation-filters:sRGB;fill-rule:evenodd;stroke-linecap:square;stroke-miterlimit:3" viewBox="0 0 53.86 56.692"><defs><linearGradient id="a" x1="0" x2="21.246" y1="73.961" y2="73.961" gradientTransform="scale(.76343 1.30988)" gradientUnits="userSpaceOnUse"><stop offset="0" stop-color="#5ea0ef"/><stop offset="1" stop-color="#0078d4"/></linearGradient><linearGradient id="b" x1="0" x2="21.258" y1="73.898" y2="73.898" gradientTransform="scale(.76302 1.31058)" gradientUnits="userSpaceOnUse"><stop offset="0" stop-color="#50e6ff"/><stop offset=".5" stop-color="#32bedd"/><stop offset="1" stop-color="#198ab3"/></linearGradient><linearGradient id="c" x1="0" x2="21.277" y1="73.967" y2="73.967" gradientTransform="scale(.76372 1.30937)" gradientUnits="userSpaceOnUse"><stop offset="0" stop-color="#32bedd"/><stop offset="1" stop-color="#198ab3"/></linearGradient></defs><g transform="translate(-34 -34.002)"><title>Page-1</title><g transform="translate(34 -34.016)"><title>Storage Account Object Replication.21422</title><title>Sheet.21423</title><g transform="translate(21.38 -38.082)"><title>Sheet.21424</title><path d="m32.48 115.37-16.19 9.34L0 115.37l16.29-9.27Z" style="fill:#83b9f9;stroke:none;stroke-width:34;stroke-linecap:butt"/></g><g transform="translate(21.38 -19.59)"><title>Sheet.21425</title><path d="M16.25 106.22v18.49L0 115.4V96.88Z" style="fill:#5ea0ef;stroke:none;stroke-width:34;stroke-linecap:butt"/></g><g transform="translate(37.634 -19.59)"><title>Sheet.21426</title><path d="M0 106.16v18.55l16.22-9.31V96.88Z" style="fill:url(#a);stroke:none;stroke-width:34;stroke-linecap:butt"/></g><g transform="translate(20.767 -23.134)"><title>Sheet.21427</title><path d="m22.14 110.95-5.79-5.48c-.64-.63-1.16-.4-1.16.55v2.47a.707.693 0 0 1-.061.268.643.63 0 0 1-.392.359.717.702 0 0 1-.274.04C10.75 109.16.39 110.1 0 123.99a.73.715-180 0 0 .727.715l3.703.005a.772.756-180 0 0 .293-.063.7.687-180 0 0 .24-.167.842.825-180 0 0 .155-.252.714.7-180 0 0 .035-.29A8.68 8.504 0 0 1 14.6 113.67a.727.712 0 0 1 .727.712l-.007 2.278c0 1.14.37 1.33 1.17.56l5.65-5.09a.678.665-180 0 0 .235-.255.736.721-180 0 0 0-.662.71.696-180 0 0-.235-.258Z" style="fill:#c3f1ff;stroke:none;stroke-width:34;stroke-linecap:butt"/></g><g transform="translate(0 -18.52)"><title>Sheet.21428</title><path d="m32.48 115.37-16.19 9.34L0 115.37l16.29-9.27Z" style="fill:#50e6ff;stroke:none;stroke-width:34;stroke-linecap:butt"/></g><title>Sheet.21429</title><path d="M16.22 106.19v18.52L0 115.37V96.85Z" style="fill:url(#b);stroke:none;stroke-width:34;stroke-linecap:butt"/><g transform="translate(16.224)"><title>Sheet.21430</title><path d="M0 106.13v18.58l16.25-9.34V96.85Z" style="fill:url(#c);stroke:none;stroke-width:34;stroke-linecap:butt"/></g></g></g></svg>