<svg xmlns="http://www.w3.org/2000/svg" xml:space="preserve" width="75.589" height="60.467" style="font-size:12px;overflow:visible;color-interpolation-filters:sRGB;fill-rule:evenodd;stroke-linecap:square;stroke-miterlimit:3" viewBox="0 0 56.692 45.35"><defs><linearGradient id="a" x1="0" x2="47.775" y1="86.754" y2="86.754" gradientTransform="scale(1.18663 .84272)" gradientUnits="userSpaceOnUse"><stop offset="0" stop-color="#0078d4"/><stop offset="1" stop-color="#5ea0ef"/></linearGradient></defs><g transform="translate(-34 -34.004)"><title>Page-1</title><g transform="translate(34 -34.016)"><title>Storage Account Browser.21491</title><title>Sheet.21492</title><title>Sheet.21493</title><path d="M55.36 73.05H30.65a1.128 1.105 0 0 1-.73-.23l-7.08-4.61a1.436 1.407-180 0 0-.73-.19H1.34A1.335 1.309-180 0 0 0 69.29v42.81a1.335 1.309-180 0 0 1.34 1.27h54.02a1.33 1.302-180 0 0 1.33-1.27V74.35a1.332 1.305-180 0 0-1.33-1.3" style="fill:#0078d4;stroke:none;stroke-width:34;stroke-linecap:butt"/><g transform="translate(5.168 -40.355)"><title>Sheet.21494</title><path d="M0 112.85a.532.522-180 0 0 .532.522l11.808-.002a.532.522-180 0 0 .532-.522l-.002-1.468a.532.522-180 0 0-.532-.522L.53 110.85a.532.522-180 0 0-.532.522z" style="fill:#fff;stroke:none;stroke-width:34;stroke-linecap:butt"/></g><g transform="translate(0 -.13)"><title>Sheet.21495</title><path d="M55.36 73.11H28.35a1.21 1.185-180 0 0-.95.39l-4.49 4.25a1.443 1.413 0 0 1-.94.36H1.34A1.335 1.309-180 0 0 0 79.42v32.68a1.339 1.312-180 0 0 1.34 1.27h54.02a1.332 1.305-180 0 0 1.33-1.27V74.48a1.332 1.305-180 0 0-1.26-1.37z" style="fill:url(#a);stroke:none;stroke-width:34;stroke-linecap:butt"/></g><g transform="translate(42.287 -12.703)"><title>Sheet.21496</title><path d="M0 112.62a.762.747-180 0 0 .762.747l10.468.003a.762.747-180 0 0 .762-.747l-.002-6.343a.762.747-180 0 0-.762-.747L.76 105.54a.762.747-180 0 0-.762.747z" style="fill:#005ba1;stroke:none;stroke-width:34;stroke-linecap:butt"/></g><g transform="translate(27.887 -12.687)"><title>Sheet.21497</title><path d="m15.24 95.15 10.46.18a.762.747 0 0 1 .75.76l-.12 6.34a.762.747 0 0 1-.778.735l-10.462-.185a.762.747 0 0 1-.75-.762l.12-6.338a.762.747 0 0 1 .778-.735zM0 106.29v6.33a.762.747-180 0 0 .762.75H11.23a.762.747-180 0 0 .762-.75l-.002-6.33a.762.747-180 0 0-.762-.75H.77a.762.747-180 0 0-.775.75z" style="fill:#83b9f9;stroke:none;stroke-width:34;stroke-linecap:butt"/></g><g transform="translate(13.483 -2.41)"><title>Sheet.21498</title><path d="M29.57 105.53h10.46a.762.747 0 0 1 .765.747l.005 6.333a.762.747 0 0 1-.765.747l-10.465-.007a.762.747 0 0 1-.765-.747l-.005-6.333a.762.747 0 0 1 .765-.747zm-15.17.76v6.33a.762.747-180 0 0 .762.747l10.468.003a.762.747-180 0 0 .762-.747l-.002-6.333a.762.747-180 0 0-.762-.747l-10.448-.003a.762.747-180 0 0-.775.747zm-14.4 0v6.33a.762.747-180 0 0 .765.747l10.465.003a.762.747-180 0 0 .765-.747l-.005-6.333a.762.747-180 0 0-.765-.747L.77 105.54a.762.747-180 0 0-.765.747z" style="fill:#003067;stroke:none;stroke-width:34;stroke-linecap:butt"/></g></g></g></svg>