<svg xmlns="http://www.w3.org/2000/svg" viewBox="0 0 512 512"><path d="M0 0h512v512H0z" style="fill:none"/><path d="M442 277.9H70c-8.8 0-16 7.2-16 16V442c0 8.8 7.2 16 16 16h107.2c1.5.5 3.1.7 4.8.7s3.3-.3 4.8-.7H442c8.8 0 16-7.2 16-16V293.9c0-8.8-7.2-16-16-16m-356 32h80V426H86zm340 116H198V309.8h228z" style="fill:#34a853"/><path d="M442 54H70c-8.8 0-16 7.2-16 16v148.8c0 8.8 7.2 16 16 16h372c8.8 0 16-7.2 16-16V70c0-8.8-7.2-16-16-16M86 86h80v116.8H86zm340 116.8H198V86h228z" style="fill:#fbbc04"/><path d="M442 234.8h-16V86H54V70c0-8.8 7.2-16 16-16h372c8.8 0 16 7.2 16 16v148.8c0 8.8-7.2 16-16 16m0 223.1h-16V309.8H54v-16c0-8.8 7.2-16 16-16h372c8.8 0 16 7.2 16 16v148.1c0 8.8-7.2 16-16 16"/><circle cx="349" cy="144.4" r="37"/><circle cx="349" cy="367.9" r="37"/></svg>