<svg xmlns="http://www.w3.org/2000/svg" viewBox="0 0 512 512"><path fill="none" d="M0 0h512v512H0z"/><path fill="#fbbc04" d="m427.491 255.84-.094.078.054.082L314.22 426h-89.649l-18.572 10.852L203.237 458h107.034c13.106 0 25.355-6.637 32.767-17.755l103.689-155.551-1.929-24.73z"/><path fill="#34a853" d="m199.354 234.122-50.14-75.209-19.216 6.336v22.505L175.504 256l-45.506 68.246v20.532l19.216 8.31 50.139-75.209a39.34 39.34 0 0 0 0-43.757z"/><path fill="#4285f4" d="M191.939 417.214 84.529 256 191.951 94.768l.023-20.933-18.926-7.42a39.6 39.6 0 0 0-4.087 5.124L60.636 234.044c-8.848 13.273-8.848 30.425 0 43.694l108.326 162.508a41 41 0 0 0 4.145 5.21l.003.003 18.865-6.957-.035-21.287z"/><path fill="#34a853" d="M299.445 256 191.94 417.214l-18.83 28.245c7.425 7.939 17.72 12.541 28.619 12.541h1.509l21.334-32 94.139-141.103-3.173-23.944z"/><path fill="#ea4335" d="M451.364 234.045 343.038 71.537A39.3 39.3 0 0 0 310.271 54H201.728a39.28 39.28 0 0 0-28.654 12.385l18.899 28.349-.023.034.012-.019L299.443 256l19.266 28.897 4.645-6.962a39.34 39.34 0 0 0 0-43.755L224.587 85.999h89.632l113.177 169.918.094-.078 19.236 28.854 4.636-6.954a39.28 39.28 0 0 0 .001-43.694Z"/></svg>