<svg xmlns="http://www.w3.org/2000/svg" viewBox="0 0 512 512"><path fill="none" d="M0 0h512v512H0z"/><path fill="#9aa0a6" d="M410 272H102c-8.837 0-16-7.163-16-16V53c0-17.121 13.879-31 31-31h278c17.121 0 31 13.879 31 31v203c0 8.837-7.163 16-16 16m-292-32h276V54H118z"/><path fill="#9aa0a6" d="M395 490H117c-17.121 0-31-13.879-31-31V256c0-8.837 7.163-16 16-16h308c8.837 0 16 7.163 16 16v203c0 17.121-13.879 31-31 31m-277-32h276V272H118z"/><path fill="#4285f4" d="M426 240H86v32h154v74c0 8.837 7.163 16 16 16s16-7.163 16-16v-74h154zm0-187c0-17.121-13.879-31-31-31H117c-17.121 0-31 13.879-31 31v1h154v74c0 8.837 7.163 16 16 16s16-7.163 16-16V54h154z"/></svg>