<svg xmlns="http://www.w3.org/2000/svg" width="18" height="18" viewBox="0 0 18 18"><defs><linearGradient id="a" x1="-51.062" x2="-51.062" y1="349.229" y2="345.247" gradientTransform="rotate(-30 -652.127 66.007)" gradientUnits="userSpaceOnUse"><stop offset="0" stop-color="#eeaa45"/><stop offset="1" stop-color="#f4cf97"/></linearGradient><linearGradient id="b" x1="9.026" x2="9.026" y1="14.515" y2="3.541" gradientUnits="userSpaceOnUse"><stop offset="0" stop-color="#0078d4"/><stop offset="1" stop-color="#5ea0f0"/></linearGradient></defs><circle cx="9.026" cy="9.028" r="1.991" fill="url(#a)"/><rect width="1.634" height="4.658" x="8.209" y=".013" fill="#82bbff" rx=".817"/><rect width="1.634" height="4.658" x="8.209" y="13.329" fill="#82bbff" rx=".817"/><g fill="#82bbff"><rect width="1.634" height="4.658" x="14.597" y="6.699" rx=".817" transform="rotate(90 15.414 9.028)"/><rect width="1.634" height="4.658" x="1.769" y="6.699" rx=".817" transform="rotate(90 2.586 9.028)"/></g><path fill="url(#b)" d="M9.026 14.515a5.487 5.487 0 1 1 5.487-5.487 5.493 5.493 0 0 1-5.487 5.487m0-9.553a4.066 4.066 0 1 0 4.066 4.066 4.07 4.07 0 0 0-4.066-4.066"/></svg>