<svg xmlns="http://www.w3.org/2000/svg" width="18" height="18" fill="none" viewBox="0 0 18 18"><path fill="#9cebff" fill-rule="evenodd" d="M9.963 10.328c.987.516 1.658 1.527 1.658 2.69 0 1.686-1.41 3.053-3.15 3.053s-3.15-1.367-3.15-3.053c0-1.163.67-2.174 1.658-2.69V3.696c0-.798.668-1.446 1.492-1.446s1.492.648 1.492 1.446zM7.311 3.696c0-.62.52-1.125 1.16-1.125.641 0 1.16.504 1.16 1.125v6.831q.085.038.168.08c.887.46 1.49 1.367 1.49 2.41 0 1.51-1.261 2.733-2.818 2.733s-2.818-1.223-2.818-2.732c0-1.044.603-1.95 1.49-2.41q.082-.044.168-.08zm2.32 6.482.332.15a3 3 0 0 0-.331-.15m2.886-5.356c.641 0 1.16-.503 1.16-1.125 0-.62-.519-1.125-1.16-1.125s-1.16.504-1.16 1.125c0 .622.52 1.125 1.16 1.125m0-.321c.458 0 .83-.36.83-.804a.817.817 0 0 0-.83-.803.817.817 0 0 0-.828.803c0 .444.37.804.828.804m1.161 1.99c0 .622-.52 1.125-1.16 1.125-.642 0-1.161-.503-1.161-1.125 0-.62.52-1.125 1.16-1.125.641 0 1.16.504 1.16 1.125m-.332 0a.817.817 0 0 1-.829.804.817.817 0 0 1-.828-.804c0-.443.37-.803.828-.803s.83.36.83.803" clip-rule="evenodd"/><path fill="#9cebff" fill-rule="evenodd" d="M3 1.929C3 .863 3.89 0 4.99 0h8.62c1.1 0 1.99.863 1.99 1.929V16.07c0 1.066-.89 1.929-1.99 1.929H4.99C3.89 18 3 17.137 3 16.071zM4.99.32h8.62c.916 0 1.658.72 1.658 1.608V16.07c0 .888-.742 1.608-1.658 1.608H4.99c-.916 0-1.658-.72-1.658-1.608V1.93c0-.888.742-1.608 1.657-1.608" clip-rule="evenodd"/><path fill="#9cebff" d="M12.5 8.308c.055 0 .1.04.107.092v.489l.313-.27a.11.11 0 0 1 .152.01.106.106 0 0 1-.01.15l-.454.394v.413h.417l.4-.45a.11.11 0 0 1 .138-.018l.013.01c.04.034.048.093.02.137l-.01.012-.274.309h.48c.055 0 .1.04.107.092l.001.014c0 .054-.04.099-.093.106h-.495l.274.31c.035.04.035.099.001.138l-.011.011a.11.11 0 0 1-.14.002l-.012-.011-.4-.45h-.417v.413l.455.395c.04.036.048.094.02.138l-.01.013a.11.11 0 0 1-.14.019l-.013-.01-.312-.27v.474c0 .054-.04.099-.093.106H12.5c-.055 0-.1-.04-.107-.091l-.001-.015v-.475l-.311.271a.11.11 0 0 1-.152-.01.106.106 0 0 1 .01-.15l.453-.394v-.413h-.386l-.43.484a.11.11 0 0 1-.152.01.106.106 0 0 1-.01-.15l.306-.344h-.512c-.055 0-.1-.04-.107-.092l-.001-.015c0-.054.04-.098.093-.105l.015-.001h.448l-.242-.273a.106.106 0 0 1 .01-.15.11.11 0 0 1 .152.01l.367.413h.449v-.413l-.454-.395a.106.106 0 0 1-.02-.138l.01-.012a.11.11 0 0 1 .14-.02l.013.01.311.271v-.475c0-.049.034-.09.08-.102l.013-.003z"/><path fill="#9cebff" fill-rule="evenodd" d="M13.61.321H4.99c-.916 0-1.658.72-1.658 1.608V16.07c0 .888.742 1.608 1.657 1.608h8.622c.915 0 1.657-.72 1.657-1.608V1.93c0-.888-.742-1.608-1.658-1.608M9.964 10.328c.987.516 1.658 1.527 1.658 2.69 0 1.686-1.41 3.053-3.15 3.053s-3.15-1.367-3.15-3.053c0-1.163.67-2.174 1.658-2.69V3.696c0-.798.668-1.446 1.492-1.446s1.492.648 1.492 1.446zm2.555-5.507c.641 0 1.16-.503 1.16-1.125 0-.62-.519-1.125-1.16-1.125s-1.16.504-1.16 1.125c0 .622.52 1.125 1.16 1.125m1.16 1.67c0 .62-.519 1.124-1.16 1.124s-1.16-.503-1.16-1.125c0-.62.52-1.125 1.16-1.125.641 0 1.16.504 1.16 1.125M12.608 8.4a.11.11 0 0 0-.107-.092h-.015l-.014.004a.11.11 0 0 0-.079.102v.475l-.311-.27-.013-.01a.11.11 0 0 0-.14.019l-.01.012a.106.106 0 0 0 .02.138l.454.395v.413h-.45l-.366-.414a.11.11 0 0 0-.152-.01.106.106 0 0 0-.01.15l.242.274h-.463a.11.11 0 0 0-.093.106l.001.015a.11.11 0 0 0 .107.092h.512l-.306.344a.106.106 0 0 0 .01.15.11.11 0 0 0 .152-.01l.43-.484h.386v.413l-.454.394a.106.106 0 0 0-.01.15c.04.045.108.05.152.01l.312-.27v.489a.11.11 0 0 0 .107.092l.015-.001a.11.11 0 0 0 .093-.106v-.475l.313.271.012.01a.11.11 0 0 0 .14-.02l.01-.012a.106.106 0 0 0-.02-.138l-.455-.395V9.8h.418l.399.449.011.01c.04.034.1.035.14 0l.012-.012a.106.106 0 0 0-.001-.139l-.274-.308h.48l.015-.001a.11.11 0 0 0 .093-.106l-.001-.014a.11.11 0 0 0-.107-.092h-.48l.274-.309.01-.012a.106.106 0 0 0-.02-.138l-.013-.01a.11.11 0 0 0-.139.02l-.399.449h-.418v-.413l.455-.395a.106.106 0 0 0 .01-.15.11.11 0 0 0-.152-.01l-.312.271v-.475z" clip-rule="evenodd"/><path fill="url(#a)" d="M9.3 13.018a.817.817 0 0 1-.829.803.817.817 0 0 1-.829-.803c0-.347.227-.643.545-.755V7.982a.332.332 0 1 1 .663 0v4.321a.8.8 0 0 1 .45.715"/><path fill="url(#b)" d="M12.5 8.308c.055 0 .1.04.107.092v.489l.313-.27a.11.11 0 0 1 .152.01.106.106 0 0 1-.01.15l-.454.394v.413h.417l.4-.45a.11.11 0 0 1 .138-.018l.013.01c.04.034.048.093.02.137l-.01.012-.274.309h.48c.055 0 .1.04.107.092l.001.014c0 .054-.04.099-.093.106h-.495l.274.31c.035.04.035.099.001.138l-.011.011a.11.11 0 0 1-.14.002l-.012-.011-.4-.45h-.417v.413l.455.395c.04.036.048.094.02.138l-.01.013a.11.11 0 0 1-.14.019l-.013-.01-.312-.27v.474c0 .054-.04.099-.093.106H12.5c-.055 0-.1-.04-.107-.091l-.001-.015v-.475l-.311.271a.11.11 0 0 1-.152-.01.106.106 0 0 1 .01-.15l.453-.394v-.413h-.386l-.43.484a.11.11 0 0 1-.152.01.106.106 0 0 1-.01-.15l.306-.344h-.512c-.055 0-.1-.04-.107-.092l-.001-.015c0-.054.04-.098.093-.105l.015-.001h.448l-.242-.273a.106.106 0 0 1 .01-.15.11.11 0 0 1 .152.01l.367.413h.449v-.413l-.454-.395a.106.106 0 0 1-.02-.138l.01-.012a.11.11 0 0 1 .14-.02l.013.01.311.271v-.475c0-.049.034-.09.08-.102l.013-.003z"/><path fill="url(#c)" d="M12.518 7.294c.458 0 .83-.36.83-.804a.817.817 0 0 0-.83-.803.817.817 0 0 0-.828.803c0 .444.37.804.828.804"/><path fill="url(#d)" d="M13.347 3.696a.817.817 0 0 1-.829.804.817.817 0 0 1-.828-.804c0-.443.37-.803.828-.803s.83.36.83.803"/><path fill="url(#e)" d="M12.31 8.308c.055 0 .1.04.107.092l.001.014v.475l.312-.27a.11.11 0 0 1 .152.01.106.106 0 0 1-.01.15l-.454.394v.413h.418l.399-.45a.11.11 0 0 1 .139-.018l.013.01c.04.034.048.093.02.137l-.01.012-.274.309h.48c.054 0 .1.04.107.092v.014c0 .054-.04.099-.093.106h-.494l.273.31c.036.04.036.099.002.138l-.012.011a.11.11 0 0 1-.14.002l-.012-.011-.399-.45h-.417v.413l.454.395c.04.036.048.094.02.138l-.01.013a.11.11 0 0 1-.14.019l-.012-.01-.312-.27v.474c0 .054-.04.099-.093.106h-.015c-.054 0-.1-.04-.107-.091v-.49l-.312.271a.11.11 0 0 1-.152-.01.106.106 0 0 1 .01-.15l.454-.394v-.413h-.386l-.43.484a.11.11 0 0 1-.152.01.106.106 0 0 1-.01-.15l.305-.344h-.512c-.054 0-.1-.04-.106-.092l-.001-.015c0-.054.04-.098.093-.105l.014-.001h.449l-.242-.273a.106.106 0 0 1 .01-.15.11.11 0 0 1 .152.01l.366.413h.45v-.413l-.454-.395a.106.106 0 0 1-.02-.138l.01-.012a.11.11 0 0 1 .14-.02l.012.01.312.271v-.475c0-.049.033-.09.079-.102l.014-.003z"/><path fill="url(#f)" d="M12.329 7.294c.458 0 .829-.36.829-.804a.817.817 0 0 0-.829-.803.817.817 0 0 0-.829.803c0 .444.371.804.829.804"/><path fill="url(#g)" d="M13.158 3.696a.817.817 0 0 1-.829.804.817.817 0 0 1-.829-.804c0-.443.371-.803.829-.803s.829.36.829.803"/><defs><linearGradient id="b" x1="10.295" x2="10.295" y1="11.077" y2="0" gradientUnits="userSpaceOnUse"><stop stop-color="#0078d4"/><stop offset=".156" stop-color="#1380da"/><stop offset=".528" stop-color="#3c91e5"/><stop offset=".822" stop-color="#559cec"/><stop offset="1" stop-color="#5ea0ef"/></linearGradient><linearGradient id="c" x1="10.295" x2="10.295" y1="11.077" y2="0" gradientUnits="userSpaceOnUse"><stop stop-color="#0078d4"/><stop offset=".156" stop-color="#1380da"/><stop offset=".528" stop-color="#3c91e5"/><stop offset=".822" stop-color="#559cec"/><stop offset="1" stop-color="#5ea0ef"/></linearGradient><linearGradient id="d" x1="10.295" x2="10.295" y1="11.077" y2="0" gradientUnits="userSpaceOnUse"><stop stop-color="#0078d4"/><stop offset=".156" stop-color="#1380da"/><stop offset=".528" stop-color="#3c91e5"/><stop offset=".822" stop-color="#559cec"/><stop offset="1" stop-color="#5ea0ef"/></linearGradient><linearGradient id="e" x1="10.105" x2="10.105" y1="11.077" y2="0" gradientUnits="userSpaceOnUse"><stop stop-color="#0078d4"/><stop offset=".156" stop-color="#1380da"/><stop offset=".528" stop-color="#3c91e5"/><stop offset=".822" stop-color="#559cec"/><stop offset="1" stop-color="#5ea0ef"/></linearGradient><linearGradient id="f" x1="10.105" x2="10.105" y1="11.077" y2="0" gradientUnits="userSpaceOnUse"><stop stop-color="#0078d4"/><stop offset=".156" stop-color="#1380da"/><stop offset=".528" stop-color="#3c91e5"/><stop offset=".822" stop-color="#559cec"/><stop offset="1" stop-color="#5ea0ef"/></linearGradient><linearGradient id="g" x1="10.105" x2="10.105" y1="11.077" y2="0" gradientUnits="userSpaceOnUse"><stop stop-color="#0078d4"/><stop offset=".156" stop-color="#1380da"/><stop offset=".528" stop-color="#3c91e5"/><stop offset=".822" stop-color="#559cec"/><stop offset="1" stop-color="#5ea0ef"/></linearGradient><radialGradient id="a" cx="0" cy="0" r="1" gradientTransform="matrix(1.82932 0 0 2.44034 8.471 10.749)" gradientUnits="userSpaceOnUse"><stop offset=".196" stop-color="#ffd70f"/><stop offset=".438" stop-color="#ffcb12"/><stop offset=".873" stop-color="#feac19"/><stop offset="1" stop-color="#fea11b"/></radialGradient></defs></svg>