<svg xmlns="http://www.w3.org/2000/svg" width="18" height="18" fill="none" viewBox="0 0 18 18"><path fill="#0078d4" fill-rule="evenodd" d="M15.5 12.85h-13c-1.036 0-1.875.988-1.875 2.207s.84 2.207 1.875 2.207h13c1.035 0 1.875-.988 1.875-2.207 0-1.22-.84-2.207-1.875-2.207m-13-.736c-1.38 0-2.5 1.317-2.5 2.943C0 16.682 1.12 18 2.5 18h13c1.38 0 2.5-1.318 2.5-2.943s-1.12-2.943-2.5-2.943z" clip-rule="evenodd"/><path fill="#0078d4" d="M2.5 12.85h13c1.035 0 1.875.988 1.875 2.207s-.84 2.207-1.875 2.207h-13c-1.036 0-1.875-.988-1.875-2.207 0-1.22.84-2.207 1.875-2.207"/><path fill="#7db6f8" fill-rule="evenodd" d="M5 15.115c0 .956-.746 1.73-1.667 1.73-.92 0-1.666-.774-1.666-1.73 0-.957.746-1.732 1.666-1.732S5 14.16 5 15.115m-.556 0c0 .637-.497 1.154-1.11 1.154s-1.112-.517-1.112-1.154c0-.638.498-1.155 1.111-1.155.614 0 1.111.517 1.111 1.155m4.334 0c0 .956-.746 1.73-1.667 1.73-.92 0-1.667-.774-1.667-1.73 0-.957.747-1.732 1.667-1.732s1.667.776 1.667 1.732m-.556 0c0 .637-.497 1.154-1.11 1.154-.615 0-1.112-.517-1.112-1.154 0-.638.497-1.155 1.111-1.155s1.111.517 1.111 1.155m2.667 1.731c.92 0 1.667-.775 1.667-1.731s-.747-1.732-1.667-1.732-1.667.776-1.667 1.732.746 1.73 1.667 1.73m0-.577c.614 0 1.111-.517 1.111-1.154 0-.638-.497-1.155-1.111-1.155s-1.111.517-1.111 1.155c0 .637.497 1.154 1.11 1.154m5.445-1.153c0 .956-.746 1.73-1.666 1.73S13 16.072 13 15.116s.746-1.732 1.667-1.732c.92 0 1.666.776 1.666 1.732m-.555 0c0 .637-.498 1.154-1.111 1.154-.614 0-1.111-.517-1.111-1.154 0-.638.497-1.155 1.11-1.155s1.112.517 1.112 1.155" clip-rule="evenodd"/><path fill="#7db6f8" d="M3.333 16.269c.614 0 1.111-.517 1.111-1.154 0-.638-.497-1.155-1.11-1.155s-1.112.517-1.112 1.155c0 .637.498 1.154 1.111 1.154m3.778 0c.614 0 1.111-.517 1.111-1.154 0-.638-.497-1.155-1.11-1.155-.615 0-1.112.517-1.112 1.155 0 .637.497 1.154 1.111 1.154M12 15.115c0 .637-.497 1.154-1.111 1.154s-1.111-.517-1.111-1.154c0-.638.497-1.155 1.11-1.155.615 0 1.112.517 1.112 1.155m2.667 1.154c.613 0 1.11-.517 1.11-1.154 0-.638-.497-1.155-1.11-1.155s-1.111.517-1.111 1.155c0 .637.497 1.154 1.11 1.154"/><path fill="url(#a)" fill-rule="evenodd" d="M13.292.741H3.375v9.782h9.917zM2.667 0v11.264H14V0z" clip-rule="evenodd"/><path fill="url(#b)" d="M3.375.741h9.917v9.782H3.375z"/><path fill="#b1d4f7" fill-rule="evenodd" d="M10.972.832H5.694v1.442h5.278zM5 .11v2.886h6.667V.11z" clip-rule="evenodd"/><path fill="#b1d4f7" d="M5.694.832h5.278v1.442H5.694z"/><defs><linearGradient id="a" x1="8.333" x2="8.333" y1="11.264" y2="0" gradientUnits="userSpaceOnUse"><stop stop-color="#0078d4"/><stop offset=".156" stop-color="#1380da"/><stop offset=".528" stop-color="#3c91e5"/><stop offset=".822" stop-color="#559cec"/><stop offset="1" stop-color="#5ea0ef"/></linearGradient><linearGradient id="b" x1="8.333" x2="8.333" y1="11.264" y2="0" gradientUnits="userSpaceOnUse"><stop stop-color="#0078d4"/><stop offset=".156" stop-color="#1380da"/><stop offset=".528" stop-color="#3c91e5"/><stop offset=".822" stop-color="#559cec"/><stop offset="1" stop-color="#5ea0ef"/></linearGradient></defs></svg>