<svg xmlns="http://www.w3.org/2000/svg" width="18" height="18" fill="none" viewBox="0 0 18 18"><path fill="url(#a)" d="M17.038 1.065H.963a.55.55 0 0 0-.548.548v10.35c0 .304.245.549.548.549h16.075a.55.55 0 0 0 .548-.548V1.613a.55.55 0 0 0-.548-.548"/><path fill="url(#b)" d="M12.443 15.975c-1.7-.265-1.764-1.49-1.759-3.463H7.316c0 1.973-.062 3.2-1.76 3.463a1 1 0 0 0-.846.96h8.59a1 1 0 0 0-.857-.96"/><path fill="url(#c)" d="m4.044 6.353.347-.346 2.731 2.74a.157.157 0 0 1 0 .221l-.347.346a.157.157 0 0 1-.222 0l-2.51-2.518a.314.314 0 0 1 0-.444z"/><path fill="#f2f2f2" d="m4.386 7.144-.346-.347a.314.314 0 0 1 0-.444l2.562-2.554a.157.157 0 0 1 .222 0l.346.347a.157.157 0 0 1 0 .222z"/><path fill="url(#d)" d="m11.42 9.317-.347-.346a.157.157 0 0 1 0-.222l2.735-2.743.347.346a.314.314 0 0 1 0 .444l-2.513 2.521a.157.157 0 0 1-.223 0z"/><path fill="#f2f2f2" d="m11.02 4.148.346-.347a.157.157 0 0 1 .222 0l2.562 2.554a.314.314 0 0 1 0 .444l-.346.347-2.781-2.774a.157.157 0 0 1-.003-.224m-.432-1.209-.554-.178a.11.11 0 0 0-.141.073l-2.26 7.057a.11.11 0 0 0 .073.141l.554.177a.11.11 0 0 0 .141-.072l2.26-7.057a.11.11 0 0 0-.073-.141"/><defs><linearGradient id="a" x1="9" x2="9" y1="12.513" y2="1.065" gradientUnits="userSpaceOnUse"><stop stop-color="#0078d4"/><stop offset=".817" stop-color="#5ea0ef"/></linearGradient><linearGradient id="b" x1="9.003" x2="9.003" y1="16.935" y2="12.512" gradientUnits="userSpaceOnUse"><stop offset=".149" stop-color="#ccc"/><stop offset="1" stop-color="#707070"/></linearGradient><linearGradient id="c" x1="3.951" x2="7.172" y1="7.685" y2="7.685" gradientUnits="userSpaceOnUse"><stop stop-color="#5ea0ef"/><stop offset=".372" stop-color="#9fc6f5"/><stop offset=".8" stop-color="#e4effc"/><stop offset="1" stop-color="#fff"/></linearGradient><linearGradient id="d" x1="11.027" x2="14.247" y1="7.685" y2="7.685" gradientUnits="userSpaceOnUse"><stop stop-color="#fff"/><stop offset=".2" stop-color="#e4effc"/><stop offset=".628" stop-color="#9fc6f5"/><stop offset="1" stop-color="#5ea0ef"/></linearGradient></defs></svg>