<svg xmlns="http://www.w3.org/2000/svg" width="18" height="18" fill="none" viewBox="0 0 18 18"><g clip-path="url(#a)"><path fill="url(#b)" fill-rule="evenodd" d="M12.6 2.768V.675l-.006-.092A.675.675 0 0 0 11.925 0l-.092.006-.088.018a.675.675 0 0 0-.495.651v2.024H9.674L9.675.675 9.669.583A.675.675 0 0 0 9 0l-.092.006a.675.675 0 0 0-.583.669v2.024H6.75V.675L6.744.583A.675.675 0 0 0 5.4.675v2.092A3.38 3.38 0 0 0 2.768 5.4H.675l-.092.006A.675.675 0 0 0 0 6.075l.006.092c.045.33.327.583.669.583H2.7v1.574l-2.025.001-.092.006A.675.675 0 0 0 0 9l.006.092a.675.675 0 0 0 .669.583H2.7v1.574l-2.025.001-.092.006A.675.675 0 0 0 .675 12.6h2.093A3.38 3.38 0 0 0 5.4 15.233v2.092l.006.092a.675.675 0 0 0 .669.583l.092-.006a.675.675 0 0 0 .583-.669v-2.026h1.574l.001 2.026.006.092A.675.675 0 0 0 9 18l.092-.006a.675.675 0 0 0 .583-.669v-2.026h1.575v2.026l.006.092a.675.675 0 0 0 1.344-.092v-2.093a3.38 3.38 0 0 0 2.632-2.628h2.093l.092-.006A.675.675 0 0 0 18 11.93l-.006-.091a.675.675 0 0 0-.669-.584H15.3V9.679h2.025l.092-.006A.675.675 0 0 0 18 9.004l-.006-.091a.675.675 0 0 0-.669-.584H15.3V6.754h2.025l.092-.006a.675.675 0 0 0-.092-1.344h-2.092A3.38 3.38 0 0 0 12.6 2.768m1.806 3.085-.055-.271a2.48 2.48 0 0 0-1.93-1.932l-.271-.056V3.6h-6.3v-.004l-.27.054a2.48 2.48 0 0 0-1.93 1.93l-.055.27H3.6v6.3h-.006l.056.272a2.48 2.48 0 0 0 1.93 1.93l.27.054V14.4h6.3v.007l.271-.056a2.48 2.48 0 0 0 1.929-1.926l.055-.27H14.4v-6.3z" clip-rule="evenodd"/><path fill="url(#c)" d="m14.351 5.582.055.271H14.4v6.3h.005l-.055.271a2.48 2.48 0 0 1-1.929 1.926l-.271.056v-.007h-6.3v.007l-.27-.055a2.48 2.48 0 0 1-1.93-1.93l-.056-.272H3.6v-6.3h-.005l.055-.27a2.48 2.48 0 0 1 1.93-1.93l.27-.054v.004h6.3v-.005l.271.056a2.48 2.48 0 0 1 1.93 1.932"/><path fill="url(#d)" d="m4.693 9.045.295-.295 2.328 2.335a.134.134 0 0 1 0 .19l-.296.294a.133.133 0 0 1-.189 0l-2.14-2.146a.27.27 0 0 1 .001-.378"/><path fill="#f2f2f2" d="m4.984 9.72-.295-.296a.27.27 0 0 1 0-.379l2.184-2.177a.134.134 0 0 1 .189 0l.295.296a.134.134 0 0 1 0 .19z"/><path fill="url(#e)" d="m10.98 11.571-.296-.294a.134.134 0 0 1 0-.19l2.33-2.337.297.295a.27.27 0 0 1 0 .378l-2.143 2.149a.134.134 0 0 1-.189 0"/><path fill="#f2f2f2" d="m10.639 7.166.295-.296a.134.134 0 0 1 .19 0l2.182 2.177a.27.27 0 0 1 0 .378l-.294.296-2.371-2.364a.133.133 0 0 1-.002-.191m-.369-1.031-.472-.151a.095.095 0 0 0-.12.062L7.752 12.06a.095.095 0 0 0 .062.12l.473.151a.095.095 0 0 0 .12-.061l1.925-6.016a.095.095 0 0 0-.062-.12"/></g><defs><linearGradient id="b" x1="9" x2="9" y1="18" y2="0" gradientUnits="userSpaceOnUse"><stop stop-color="#0078d4"/><stop offset=".156" stop-color="#1380da"/><stop offset=".528" stop-color="#3c91e5"/><stop offset=".822" stop-color="#559cec"/><stop offset="1" stop-color="#5ea0ef"/></linearGradient><linearGradient id="c" x1="9" x2="9" y1="18" y2="0" gradientUnits="userSpaceOnUse"><stop stop-color="#0078d4"/><stop offset=".156" stop-color="#1380da"/><stop offset=".528" stop-color="#3c91e5"/><stop offset=".822" stop-color="#559cec"/><stop offset="1" stop-color="#5ea0ef"/></linearGradient><linearGradient id="d" x1="4.613" x2="7.359" y1="10.181" y2="10.181" gradientUnits="userSpaceOnUse"><stop stop-color="#5ea0ef"/><stop offset=".372" stop-color="#9fc6f5"/><stop offset=".8" stop-color="#e4effc"/><stop offset="1" stop-color="#fff"/></linearGradient><linearGradient id="e" x1="10.644" x2="13.389" y1="10.181" y2="10.181" gradientUnits="userSpaceOnUse"><stop stop-color="#fff"/><stop offset=".2" stop-color="#e4effc"/><stop offset=".628" stop-color="#9fc6f5"/><stop offset="1" stop-color="#5ea0ef"/></linearGradient><clipPath id="a"><path fill="#fff" d="M0 0h18v18H0z"/></clipPath></defs></svg>