<svg xmlns="http://www.w3.org/2000/svg" width="18" height="18" fill="none" viewBox="0 0 18 18"><path fill="url(#a)" d="m14.908 10.034 1.238-1.389H12.6v-1.09h3.546l-1.238-1.388.684-.767L18 8.1l-2.408 2.7z"/><path fill="url(#b)" d="M6.3 5.5a1 1 0 0 1 1-1h3.4a1 1 0 0 1 1 1v5.2a1 1 0 0 1-1 1H7.3a1 1 0 0 1-1-1z"/><path fill="url(#c)" fill-rule="evenodd" d="M10.8 7.2a1.8 1.8 0 0 0-3.6 0V9a1.8 1.8 0 1 0 3.6 0zM8.3 4.5a2 2 0 0 0-2 2v3.2a2 2 0 0 0 2 2h1.4a2 2 0 0 0 2-2V6.5a2 2 0 0 0-2-2z" clip-rule="evenodd"/><path fill="url(#d)" d="m2.308 10.034 1.238-1.389H0v-1.09h3.546L2.308 6.167l.684-.767L5.4 8.1l-2.408 2.7z"/><defs><linearGradient id="a" x1="15.3" x2="15.3" y1="10.8" y2="5.4" gradientUnits="userSpaceOnUse"><stop stop-color="#0078d4"/><stop offset=".156" stop-color="#1380da"/><stop offset=".528" stop-color="#3c91e5"/><stop offset=".822" stop-color="#559cec"/><stop offset="1" stop-color="#5ea0ef"/></linearGradient><linearGradient id="b" x1="9" x2="9" y1="11.7" y2="4.5" gradientUnits="userSpaceOnUse"><stop stop-color="#0078d4"/><stop offset=".156" stop-color="#1380da"/><stop offset=".528" stop-color="#3c91e5"/><stop offset=".822" stop-color="#559cec"/><stop offset="1" stop-color="#5ea0ef"/></linearGradient><linearGradient id="c" x1="9" x2="9" y1="11.7" y2="4.5" gradientUnits="userSpaceOnUse"><stop stop-color="#0078d4"/><stop offset=".156" stop-color="#1380da"/><stop offset=".528" stop-color="#3c91e5"/><stop offset=".822" stop-color="#559cec"/><stop offset="1" stop-color="#5ea0ef"/></linearGradient><linearGradient id="d" x1="2.7" x2="2.7" y1="10.8" y2="5.4" gradientUnits="userSpaceOnUse"><stop stop-color="#0078d4"/><stop offset=".156" stop-color="#1380da"/><stop offset=".528" stop-color="#3c91e5"/><stop offset=".822" stop-color="#559cec"/><stop offset="1" stop-color="#5ea0ef"/></linearGradient></defs></svg>