<svg xmlns="http://www.w3.org/2000/svg" width="18" height="18" fill="none" viewBox="0 0 18 18"><path fill="url(#a)" d="M5.335 1.375A.82.82 0 0 1 6.11.818h5.14L5.915 16.626a.82.82 0 0 1-.775.556h-4a.818.818 0 0 1-.776-1.08z"/><path fill="#0078d4" d="M13.552 11.455h-8.1a.375.375 0 0 0-.257.649l5.205 4.858c.152.141.351.22.559.22h4.586z"/><path fill="url(#b)" d="M6.11.818a.82.82 0 0 0-.775.557L.365 16.102a.818.818 0 0 0 .775 1.08h4a.82.82 0 0 0 .775-.556l.988-2.928 3.497 3.264c.152.141.351.22.559.22h4.586l-1.993-5.727H7.66L11.25.817z"/><path fill="url(#c)" d="M12.665 1.375a.82.82 0 0 0-.775-.557H6.136h.027c.35 0 .663.224.775.557l4.97 14.727a.818.818 0 0 1-.775 1.08h-.088 5.815a.82.82 0 0 0 .776-1.08z"/><defs><linearGradient id="a" x1="6.075" x2=".738" y1="1.385" y2="17.151" gradientUnits="userSpaceOnUse"><stop stop-color="#114a8b"/><stop offset="1" stop-color="#0669bc"/></linearGradient><linearGradient id="b" x1="10.34" x2="9.107" y1="11.456" y2="11.873" gradientUnits="userSpaceOnUse"><stop stop-opacity=".3"/><stop offset=".071" stop-opacity=".2"/><stop offset=".321" stop-opacity=".1"/><stop offset=".623" stop-opacity=".05"/><stop offset="1" stop-opacity="0"/></linearGradient><linearGradient id="c" x1="9.459" x2="15.317" y1="1.385" y2="16.993" gradientUnits="userSpaceOnUse"><stop stop-color="#3ccbf4"/><stop offset="1" stop-color="#2892df"/></linearGradient></defs></svg>