<svg xmlns="http://www.w3.org/2000/svg" width="18" height="18" viewBox="0 0 18 18"><defs><linearGradient id="a" x1="9" x2="9" y1="13.145" y2=".387" gradientUnits="userSpaceOnUse"><stop offset="0" stop-color="#0078d4"/><stop offset=".156" stop-color="#1380da"/><stop offset=".528" stop-color="#3c91e5"/><stop offset=".822" stop-color="#559cec"/><stop offset="1" stop-color="#5ea0ef"/></linearGradient><linearGradient id="b" x1="13.102" x2="13.102" y1="17.613" y2="9.07" gradientUnits="userSpaceOnUse"><stop offset="0" stop-color="#32bedd"/><stop offset=".175" stop-color="#32caea"/><stop offset=".41" stop-color="#32d2f2"/><stop offset=".775" stop-color="#32d4f5"/></linearGradient></defs><title>MsPortalFx.base.images-17</title><path fill="url(#a)" d="M18 9.149a4.045 4.045 0 0 0-3.51-3.888A5.1 5.1 0 0 0 9.24.387a5.23 5.23 0 0 0-5 3.408A4.825 4.825 0 0 0 0 8.438a4.9 4.9 0 0 0 5.068 4.707q.226-.001.447-.02h8.207a.8.8 0 0 0 .217-.032A4.093 4.093 0 0 0 18 9.149"/><path fill="url(#b)" d="M10.588 14.3a2.53 2.53 0 0 0 .027 1.49 2.609 2.609 0 0 0 5-1.49l-2.5-5.225Z"/></svg>