<svg xmlns="http://www.w3.org/2000/svg" width="18" height="18" viewBox="0 0 18 18"><defs><radialGradient id="a" cx="3.117" cy="-116.12" r="9.022" gradientTransform="matrix(1.013 0 0 .789 5.844 100.656)" gradientUnits="userSpaceOnUse"><stop offset=".196" stop-color="#ffd70f"/><stop offset=".438" stop-color="#ffcb12"/><stop offset=".873" stop-color="#feac19"/><stop offset="1" stop-color="#fea11b"/></radialGradient></defs><title>MsPortalFx.base.images-37</title><path fill="url(#a)" d="M8.09 10.01H3.464a.24.24 0 0 1-.262-.2.2.2 0 0 1 .023-.085L8.775.12A.27.27 0 0 1 9.014 0h5.47a.24.24 0 0 1 .262.2.18.18 0 0 1-.046.119L8.186 7.834h6.35a.24.24 0 0 1 .262.2.2.2 0 0 1-.067.137L4.175 17.788c-.1.051-.8.562-.458-.214Z"/></svg>