<svg xmlns="http://www.w3.org/2000/svg" width="18" height="18" viewBox="0 0 18 18"><defs><linearGradient id="a" x1="9" x2="9" y1="11.576" gradientUnits="userSpaceOnUse"><stop offset="0" stop-color="#0078d4"/><stop offset=".156" stop-color="#1380da"/><stop offset=".528" stop-color="#3c91e5"/><stop offset=".822" stop-color="#559cec"/><stop offset="1" stop-color="#5ea0ef"/></linearGradient></defs><title>MsPortalFx.base.images-43</title><path fill="url(#a)" d="M17.166 7.95a3.67 3.67 0 0 0-3.185-3.527A4.624 4.624 0 0 0 9.218 0a4.745 4.745 0 0 0-4.535 3.092A4.38 4.38 0 0 0 .834 7.305a4.444 4.444 0 0 0 4.6 4.271q.204 0 .405-.018h7.447a.8.8 0 0 0 .2-.029 3.713 3.713 0 0 0 3.68-3.579"/><rect width="14.908" height="1.078" x="1.929" y="12.68" fill="#198ab3" rx=".539"/><rect width="11.143" height="1.078" x="1.929" y="14.793" fill="#32bedd" rx=".466"/><rect width="8.935" height="1.109" x="1.929" y="16.891" fill="#50e6ff" rx=".423"/></svg>