<svg xmlns="http://www.w3.org/2000/svg" width="18" height="18" viewBox="0 0 18 18"><defs><linearGradient id="a" x1="9" x2="9" y1="15.834" y2="5.788" gradientUnits="userSpaceOnUse"><stop offset="0" stop-color="#0078d4"/><stop offset=".502" stop-color="#4093e6"/><stop offset=".775" stop-color="#5ea0ef"/></linearGradient></defs><title>MsPortalFx.base.images-4</title><path fill="url(#a)" d="M.5 5.788h17v9.478a.57.57 0 0 1-.568.568H1.068a.57.57 0 0 1-.568-.568z"/><path fill="#0078d4" d="M1.071 2.166h15.858a.57.57 0 0 1 .568.568v3.054H.5V2.734a.57.57 0 0 1 .571-.568"/><rect width="3.65" height="1.85" x="2.304" y="7.121" fill="#fff" opacity=".9" rx=".283"/><rect width="3.65" height="1.85" x="7.2" y="7.095" fill="#fff" opacity=".9" rx=".283"/><rect width="3.65" height="1.85" x="12.096" y="7.095" fill="#fff" opacity=".9" rx=".283"/><rect width="3.65" height="1.85" x="2.358" y="9.767" fill="#fff" opacity=".9" rx=".283"/><rect width="3.65" height="1.85" x="7.254" y="9.741" fill="#ffd400" rx=".283"/><rect width="3.65" height="1.85" x="12.15" y="9.741" fill="#ffd400" rx=".283"/><rect width="3.65" height="1.85" x="2.358" y="12.439" fill="#ffd400" rx=".283"/><rect width="3.65" height="1.85" x="7.254" y="12.413" fill="#ffd400" rx=".283"/><rect width="3.65" height="1.85" x="12.15" y="12.413" fill="#ffd400" rx=".283"/></svg>