<svg xmlns="http://www.w3.org/2000/svg" xml:space="preserve" width="75.586" height="75.586" style="font-size:12px;overflow:visible;color-interpolation-filters:sRGB;fill-rule:evenodd;stroke-linecap:square;stroke-miterlimit:3" viewBox="0 0 56.69 56.69"><defs><linearGradient id="a" x1="0" x2="56.69" y1="68.02" y2="68.02" gradientUnits="userSpaceOnUse"><stop offset="0" stop-color="#5e9624"/><stop offset=".01" stop-color="#5e9724"/><stop offset=".35" stop-color="#6cab29"/><stop offset=".68" stop-color="#73b82c"/><stop offset="1" stop-color="#76bc2d"/></linearGradient></defs><g transform="translate(-34 -34.004)"><title>Page-1</title><g transform="translate(34 -34.016)"><title>All Resources.17842</title><title>Sheet.17843</title><path d="M19.84 107.7h17.01v17.01H19.84ZM0 85.02h17.01v-17H2.37A2.374 2.374-180 0 0 0 70.39Zm2.37 39.69h14.64V107.7H0v14.63a2.374 2.374-180 0 0 2.37 2.38M0 104.87h17.01V87.86H0Zm39.69 19.84h14.66a2.374 2.374-180 0 0 2.34-2.38V107.7h-17zm-19.85-19.84h17.01V87.86H19.84Zm19.85 0h17V87.86h-17zm0-36.85v17h17V70.39a2.374 2.374-180 0 0-2.34-2.37zm-19.85 17h17.01v-17H19.84Z" style="fill:url(#a);stroke:none;stroke-width:34;stroke-linecap:butt"/></g></g></svg>