<svg xmlns="http://www.w3.org/2000/svg" xml:space="preserve" width="74.456" height="70.828" style="font-size:12px;overflow:visible;color-interpolation-filters:sRGB;fill-rule:evenodd;stroke-linecap:square;stroke-miterlimit:3" viewBox="0 0 55.842 53.121"><defs><linearGradient id="a" x1=".698" x2="39.261" y1="29.23" y2="29.23" gradientTransform="scale(.72692 1.37566)" gradientUnits="userSpaceOnUse"><stop offset="0" stop-color="#0c3f76"/><stop offset=".99" stop-color="#0667ba"/></linearGradient><linearGradient id="b" x1=".799" x2="20.918" y1="81.036" y2="81.036" gradientTransform="scale(1.0849 .92174)" gradientUnits="userSpaceOnUse"><stop offset="0"/><stop offset=".33" stop-color="#0266b0"/><stop offset=".99" stop-color="#0078d4"/></linearGradient><linearGradient id="c" x1="0" x2="44.447" y1="33.547" y2="33.547" gradientTransform="scale(.8367 1.19516)" gradientUnits="userSpaceOnUse"><stop offset="0" stop-color="#3ac5ef"/><stop offset="1" stop-color="#2994e0"/></linearGradient></defs><g transform="translate(-6.177 -6.078)"><title>Page-1</title><g transform="translate(5.67 -34.016)"><title>Azure.17821</title><title>Page-1</title><title>Azure v2.8134</title><title>Page-1</title><title>g841</title><g transform="translate(0 -.055)"><title>path910</title><title>Sheet.17827</title><title>path34</title><path d="m.85 88.68 15.92-46.34c1.1-2.88 4.15-2.77 5.09-.09l6.68 19.6-9.2 27.2c-.94 2.62-.83 4.11-4.21 4.2l-12.31.01C.76 93.22 0 91.15.85 88.68" style="fill:url(#a);stroke:none;stroke-width:.83295298;stroke-linecap:butt"/></g><g transform="translate(16.704 -.028)"><title>path922</title><title>Sheet.17830</title><title>path42</title><path d="M17.33 74.7H3.17C0 74.57.62 76.73 1.96 77.88l14.63 13.67.95.86c.87.81 1.52.82 1.52.82 1.23.02 1.7 0 1.7 0 1.66.03 2.35-1.4 1.68-3.47z" style="fill:url(#b);stroke:none;stroke-width:.83295298;stroke-linecap:butt"/></g><g transform="translate(19.16)"><title>path920-4</title><title>Sheet.17833</title><title>path50</title><path d="M0 40.15s15.68-.06 17.23-.05c2.96-.09 3.26.75 4.63 4.72l14.83 43.9c.38 1.45.84 2.89.12 3.68-.73.82-2.49.8-4.29.81 0 0-12.82.01-16.58 0 0 0 1.69.05 2.42-.33 1.81-.9.9-2.06.44-3.61L2.93 43.3C1.97 39.96 0 40.15 0 40.15" style="fill:url(#c);stroke:none;stroke-width:.83295298;stroke-linecap:butt"/></g></g></g></svg>