<svg xmlns="http://www.w3.org/2000/svg" xml:space="preserve" width="75.587" height="68.034" style="font-size:12px;overflow:visible;color-interpolation-filters:sRGB;fill-rule:evenodd;stroke-linecap:square;stroke-miterlimit:3" viewBox="0 0 56.69 51.026"><defs><linearGradient id="a" x1="0" x2="45.687" y1="102.021" y2="102.021" gradientTransform="scale(1.24083 .80591)" gradientUnits="userSpaceOnUse"><stop offset="0" stop-color="#0078d4"/><stop offset=".82" stop-color="#5ea0ef"/></linearGradient><linearGradient id="b" x1="0" x2="20.071" y1="148.07" y2="148.07" gradientTransform="scale(1.41247 .70798)" gradientUnits="userSpaceOnUse"><stop offset=".15" stop-color="#ccc"/><stop offset="1" stop-color="#707070"/></linearGradient></defs><g transform="translate(-34 -33.999)"><title>Page-1</title><g transform="translate(34 -34.016)"><title>Azure Best Practices.17835</title><title>g16</title><g transform="translate(0 -14.206)"><title>rect2</title><path d="M0 117.2a1.89 1.84-180 0 0 1.89 1.84H54.8a1.89 1.84-180 0 0 1.89-1.84V84.06a1.89 1.84-180 0 0-1.89-1.84H1.89A1.89 1.84-180 0 0 0 84.06Z" style="fill:url(#a);stroke:none;stroke-width:34;stroke-linecap:butt"/></g><g transform="translate(14.173)"><title>path14</title><path d="M25.54 115.97c-5.6-.86-5.82-4.79-5.82-11.14H8.6c0 6.35-.19 10.28-5.8 11.14a3.15 3.068-180 0 0-2.8 3.07h28.35a3.15 3.068-180 0 0-2.81-3.07" style="fill:url(#b);stroke:none;stroke-width:34;stroke-linecap:butt"/></g><g transform="translate(12.905 -17.972)"><title>path16</title><path d="m28.61 113.02 1.25-2.03a.676.658-180 0 0-.104-.804l-2.486-2.626a.697.679 0 0 1-.19-.552l.25-1.858a.642.626 0 0 1 .31-.466l3.07-1.964a.668.65-180 0 0 .29-.734l-.67-2.306a.77.75-180 0 0-.671-.522l-3.699-.248a.769.749 0 0 1-.543-.28l-1.237-1.52a.712.694 0 0 1-.146-.55l.646-3.45a.704.686-180 0 0-.357-.73l-2.183-1.22a.735.716-180 0 0-.856.079L18.55 93.51a.733.714 0 0 1-.586.164L15.97 93.4a.715.697 0 0 1-.505-.302L13.3 90.17a.753.734-180 0 0-.79-.29l-2.46.57a.709.69-180 0 0-.54.615l-.17 3.465a.682.665 0 0 1-.287.502L7.46 96.15a.762.742 0 0 1-.584.123L3.18 95.58a.719.7-180 0 0-.772.316L1.15 97.93a.68.662-180 0 0 .089.794l2.491 2.616c.15.15.22.36.19.56l-.25 1.86a.642.626 0 0 1-.31.466L.29 106.18a.668.65-180 0 0-.29.734l.67 2.316a.769.749-180 0 0 .67.521l3.71.249c.22.01.41.12.54.28l1.23 1.52a.709.69 0 0 1 .145.55l-.645 3.45a.704.686-180 0 0 .358.73l2.202 1.22a.735.716-180 0 0 .856-.079l2.734-2.271a.733.714 0 0 1 .587-.164l1.993.284c.21.03.4.13.51.3l2.16 2.93a.753.734-180 0 0 .79.29l2.46-.58a.709.69-180 0 0 .54-.615l.17-3.455a.682.665 0 0 1 .286-.502l1.594-1.118a.762.742 0 0 1 .583-.123l3.697.693c.32.04.63-.08.77-.32m-16.25-2.05c-1.89-.83-3.34-2.3-4.06-4.13a7.063 6.88 0 0 1 .16-5.53c.85-1.75 2.38-3.07 4.31-3.7a7.933 7.728 0 0 1 5.92.28c2.62 1.14 4.28 3.51 4.55 6.03.12 1.22-.11 2.45-.65 3.64-1.75 3.61-6.32 5.16-10.23 3.41" style="fill:#fff;stroke:none;stroke-width:11.95600033;stroke-linecap:butt"/></g></g></g></svg>