<svg xmlns="http://www.w3.org/2000/svg" xml:space="preserve" width="75.587" height="68.04" style="font-size:12px;overflow:visible;color-interpolation-filters:sRGB;fill-rule:evenodd;stroke-linecap:square;stroke-miterlimit:3" viewBox="0 0 56.69 51.03"><g transform="translate(-38.25 -38.248)"><title>Page-1</title><g transform="translate(38.25 -38.252)"><title>Configuration.17809</title><title>Sheet.17810</title><g transform="translate(6.926)"><title>Sheet.17811</title><path d="M28.51 80.15c1.95 0 3.54 1.63 3.54 3.64s-1.59 3.65-3.54 3.65c-1.96 0-3.55-1.64-3.55-3.65s1.59-3.64 3.55-3.64m0-3.65a7.087 7.29-180 1 0-.01 14.58 7.087 7.29-180 0 0 .01-14.58m7.08 40.1c1.96 0 3.55 1.63 3.55 3.64s-1.59 3.65-3.55 3.65c-1.95 0-3.54-1.64-3.54-3.65s1.59-3.64 3.54-3.64m0-3.65a7.087 7.29-180 1 0 0 14.58 7.087 7.29-180 0 0 0-14.58M7.25 98.37c1.95 0 3.54 1.64 3.54 3.65s-1.59 3.64-3.54 3.64c-1.96 0-3.55-1.63-3.55-3.64s1.59-3.65 3.55-3.65m0-3.64a7.087 7.29-180 1 0-.01 14.57 7.087 7.29-180 0 0 .01-14.57" style="fill:#000;stroke:none;stroke-width:38.25;stroke-linecap:butt"/></g><g transform="translate(0 -5.464)"><title>Sheet.17812</title><path d="M0 87.43h28.35v3.65H0Zm42.52 0h14.17v3.65H42.52ZM0 105.66h7.09v3.64H0Zm21.26 0h35.43v3.64H21.26Zm28.35 18.22h7.08v3.65h-7.08zm-49.61 0h35.43v3.65H0Z" style="fill:#000;stroke:none;stroke-width:38.25;stroke-linecap:butt"/></g></g></g></svg>