<svg xmlns="http://www.w3.org/2000/svg" xmlns:xlink="http://www.w3.org/1999/xlink" xml:space="preserve" width="75.627" height="75.594" style="font-size:12px;overflow:visible;color-interpolation-filters:sRGB;fill-rule:evenodd;stroke-linecap:square;stroke-miterlimit:3" viewBox="0 0 56.721 56.695"><defs><linearGradient id="a" x1="0" x2="1" y1="0" y2="0" gradientTransform="rotate(-90 .5 .5)"><stop offset="0" stop-color="#773adc"/><stop offset="1" stop-color="#b77af4"/></linearGradient><linearGradient xlink:href="#a" id="b" x1="-.019" x2="38.541" y1="121.155" y2="121.155" gradientTransform="scale(1.27344 .78527)" gradientUnits="userSpaceOnUse"/><linearGradient xlink:href="#a" id="c" x1="0" x2="27.801" y1="96.542" y2="96.542" gradientTransform="scale(.99143 1.00865)" gradientUnits="userSpaceOnUse"/></defs><g transform="translate(-34.362 -34.363)"><title>Page-1</title><g transform="translate(34.386 -34.362)"><title>Customer Lockbox for Microsoft Azure.17801</title><g transform="translate(0 -1.697)"><title>path16</title><path d="M44.68 125.42a4.371 4.447-180 0 0 4.4-4.42v-.54c-1.73-13.95-9.54-25.32-24.49-25.32S1.64 104.74 0 120.5a4.405 4.481-180 0 0 3.9 4.92z" style="fill:url(#b);stroke:none;stroke-width:34.36230087;stroke-linecap:butt"/></g><g transform="translate(17.118 -11.373)"><title>path18</title><path d="M7.44 108.1A13.781 14.02 0 0 1 0 105.9l7.37 19.52L14.55 106a13.347 13.58 0 0 1-7.11 2.1" style="fill:#fff;stroke:none;stroke-width:34.36230087;stroke-linecap:butt"/></g><g transform="translate(10.778 -28.652)"><title>circle20</title><ellipse cx="13.781" cy="111.397" rx="13.781" ry="14.021" style="fill:url(#c);stroke:none;stroke-width:34.36230087;stroke-linecap:butt"/></g><g transform="translate(28.597)"><title>rect22</title><path d="M0 123.52a1.869 1.901-180 0 0 1.87 1.9h24.36a1.869 1.901-180 0 0 1.87-1.9v-10.29a1.869 1.901-180 0 0-1.87-1.9H1.87a1.869 1.901-180 0 0-1.87 1.9Z" style="fill:#50e6ff;stroke:none;stroke-width:34.36230087;stroke-linecap:butt"/></g><g transform="translate(28.597 -.102)"><title>path24</title><path d="M14.05 111.43H1.87a1.869 1.901-180 0 0-1.87 1.9v10.19a1.869 1.901-180 0 0 1.87 1.9h12.18z" style="fill:#32bedd;stroke:none;stroke-width:34.36230087;stroke-linecap:butt"/></g><g transform="translate(30.509 -2.745)"><title>path26</title><path d="m10.1 118.01-.3-.34a.5.51-180 0 0-.667 0l-5.873 5.91-2.1-2.14a.567.577-180 0 0-.7 0l-.3.34a.434.441-180 0 0 0 .679l2.8 2.881h.17a.534.543-180 0 0 .534 0l6.506-6.78a.434.441-180 0 0-.067-.543z" style="fill:#fff;stroke:none;stroke-width:34.36230087;stroke-linecap:butt"/></g><g transform="translate(45.69 -2.659)"><title>path28</title><path d="m7.7 124.24-2.8-2.82 2.77-2.82a.467.475-180 0 0 0-.645l-.37-.365a.4.407-180 0 0-.634 0L3.89 120.4l-2.73-2.78a.467.475-180 0 0-.7 0l-.34.31a.467.475-180 0 0 0 .645l2.77 2.845-2.73 2.79a.534.543-180 0 0 0 .747l.33.303a.367.373-180 0 0 .6 0l2.8-2.82 2.81 2.82a.467.475-180 0 0 .634 0l.366-.37a.467.475-180 0 0 0-.645z" style="fill:#f2f2f2;stroke:none;stroke-width:34.36230087;stroke-linecap:butt"/></g></g></g></svg>