<svg xmlns="http://www.w3.org/2000/svg" xml:space="preserve" width="75.587" height="64.249" style="font-size:12px;overflow:visible;color-interpolation-filters:sRGB;fill-rule:evenodd;stroke-linecap:square;stroke-miterlimit:3" viewBox="0 0 56.69 48.186"><g transform="translate(-12.24 -12.238)"><title>Page-1</title><g transform="translate(12.24 -34.016)"><title>Ebook.17792</title><title>g18</title><title>path4</title><path d="M0 49.85v40.88a1.206 1.239-180 0 0 1.21 1.24h15.68c4.77 0 6.43 1.31 6.98 2.02.22.29.56.45.93.45h7.1c.36 0 .7-.16.93-.45.55-.71 2.2-2.02 6.98-2.02h15.68a1.206 1.239-180 0 0 1.2-1.24V49.85a1.206 1.239-180 0 0-1.2-1.24H1.21A1.206 1.239-180 0 0 0 49.85" style="fill:#0072c6;stroke:none;stroke-width:12.23999977;stroke-linecap:butt"/><g transform="translate(4.825 -6.194)"><title>path6</title><path d="M0 58.52h47.043v35.925H0z" style="fill:#e5e5e5;stroke:none;stroke-width:12.23999977;stroke-linecap:butt"/></g><g transform="translate(2.412 -5.916)"><title>path8</title><path d="M51.44 57.22c-.24-.21-5.92-5.05-14.48-5.05-6.86 0-9.92 3.78-11.03 5.68-1.1-1.9-4.17-5.68-11.02-5.68-8.56 0-14.24 4.84-14.48 5.05l-.43.37v36.85h51.87V57.59Z" style="fill:#7a7a7a;stroke:none;stroke-width:12.23999977;stroke-linecap:butt"/></g><g transform="translate(3.619 -6.194)"><title>path10</title><path d="M13.84 53.69C5.54 53.69 0 58.45 0 58.45v34.76s7.44-1.55 13.92-1.55c5.22 0 10.45 2.78 10.45 2.78V59.62s-2.23-5.93-10.53-5.93m21.78 0c8.3 0 13.84 4.76 13.84 4.76v34.76s-7.45-1.55-13.93-1.55c-5.22 0-10.44 2.78-10.44 2.78V59.62s2.22-5.93 10.53-5.93" style="fill:#e5e5e5;stroke:none;stroke-width:12.23999977;stroke-linecap:butt"/></g><g transform="translate(4.825 -8.119)"><title>path12</title><path d="M9.65 57.06c-4.92.71-8.47 3.05-9.65 3.92v32.66c1.99-.36 5.75-.96 9.65-1.19zm25.33-.2c-.14 0-.29-.01-.43-.01-6.53 0-8.79 4.03-9.22 4.95v32.64c2.04-.86 5.56-2.09 9.13-2.09.17 0 .35.01.52.01z" style="fill:#fff;fill-opacity:.2;stroke:none;stroke-width:12.23999977;stroke-linecap:butt"/></g><g transform="translate(6.031 -12.662)"><title>path14</title><path d="M0 67.75a22.928 23.547 0 0 1 11.29-2.57c3.76.14 6.31 1.42 8.01 2.83v1.66c-1.47-1.5-3.97-3.1-8.01-3.26-5.03-.19-9.03 1.51-11.29 2.77Zm0 4.95a22.928 23.547 0 0 1 11.29-2.57c3.76.15 6.31 1.42 8.01 2.83v1.66c-1.47-1.49-3.97-3.09-8.01-3.25-5.03-.2-9.03 1.5-11.29 2.77Zm0 4.96a22.928 23.547 0 0 1 11.29-2.57c3.76.14 6.31 1.42 8.01 2.83v1.66c-1.47-1.5-3.97-3.1-8.01-3.26-5.03-.19-9.03 1.51-11.29 2.77Zm0 4.95a22.928 23.547 0 0 1 11.29-2.57c3.76.15 6.31 1.42 8.01 2.83v1.66c-1.47-1.49-3.97-3.09-8.01-3.25-5.03-.2-9.03 1.5-11.29 2.77Zm0 4.96A22.928 23.547 0 0 1 11.29 85c3.76.14 6.31 1.42 8.01 2.83v1.66c-1.47-1.5-3.97-3.1-8.01-3.25-5.03-.2-9.03 1.5-11.29 2.77Zm0 4.95a22.928 23.547 0 0 1 11.29-2.57c3.76.15 6.31 1.42 8.01 2.83v1.66c-1.47-1.49-3.97-3.09-8.01-3.25-5.03-.2-9.03 1.5-11.29 2.77Zm44.63-24.77a22.928 23.547-180 0 0-11.29-2.57c-3.75.14-6.31 1.42-8.01 2.83v1.66c1.47-1.5 3.97-3.1 8.01-3.26 5.03-.19 9.03 1.51 11.29 2.77zm0 4.95a22.928 23.547-180 0 0-11.29-2.57c-3.75.15-6.31 1.42-8.01 2.83v1.66c1.47-1.49 3.97-3.09 8.01-3.25 5.03-.2 9.03 1.5 11.29 2.77zm0 4.96a22.928 23.547-180 0 0-11.29-2.57c-3.75.14-6.31 1.42-8.01 2.83v1.66c1.47-1.5 3.97-3.1 8.01-3.26 5.03-.19 9.03 1.51 11.29 2.77zm0 4.95a22.928 23.547-180 0 0-11.29-2.57c-3.75.15-6.31 1.42-8.01 2.83v1.66c1.47-1.49 3.97-3.09 8.01-3.25 5.03-.2 9.03 1.5 11.29 2.77zm-3.62 3.44c-1.88-.49-5.25-1.15-7.67-1.05-3.75.14-6.31 1.42-8.01 2.83v1.66c1.47-1.5 3.97-3.1 8.01-3.25a21.318 21.893 0 0 1 6.47.77z" style="fill:#231f20;fill-opacity:.4;stroke:none;stroke-width:12.23999977;stroke-linecap:butt"/></g><g transform="translate(4.825 -8.119)"><title>path16</title><path d="M9.65 57.06c-4.92.71-8.47 3.05-9.65 3.92v32.66c1.99-.36 5.75-.96 9.65-1.19zm25.33-.2c-.14 0-.29-.01-.43-.01-6.53 0-8.79 4.03-9.22 4.95v32.64c2.04-.86 5.56-2.09 9.13-2.09.17 0 .35.01.52.01z" style="fill:#fff;fill-opacity:.2;stroke:none;stroke-width:12.23999977;stroke-linecap:butt"/></g></g></g></svg>