<svg xmlns="http://www.w3.org/2000/svg" xml:space="preserve" width="75.819" height="60.479" style="font-size:12px;overflow:visible;color-interpolation-filters:sRGB;fill-rule:evenodd;stroke-linecap:square;stroke-miterlimit:3" viewBox="0 0 56.864 45.36"><defs><linearGradient id="a" x1="-.056" x2="40.754" y1="76.102" y2="76.102" gradientTransform="scale(1.3934 .71767)" gradientUnits="userSpaceOnUse"><stop offset=".13" stop-color="#773adc"/><stop offset=".23" stop-color="#8249e2"/><stop offset=".43" stop-color="#9664ec"/><stop offset=".6" stop-color="#a274f2"/><stop offset=".74" stop-color="#a67af4"/></linearGradient></defs><g transform="translate(-5.591 -4.535)"><title>Page-1</title><g transform="translate(5.67 -34.016)"><title>Education.17786</title><title>Sheet.17787</title><g transform="translate(11.44)"><title>Sheet.17788</title><path d="M34.21 60.57H0v15.85c0 4.12 7.66 7.49 17.28 7.49 9.63 0 17.28-3.27 17.28-7.49z" style="fill:#773adc;stroke:none;stroke-width:1.73863995;stroke-linecap:butt"/></g><g transform="translate(0 -16.066)"><title>Sheet.17789</title><path d="M26.4 54.93.99 68.3a2.256 2.32-180 0 0-.8 3.07 1.97 2.026-180 0 0 .8.92L26.4 83.66a2.955 3.04-180 0 0 2.32 0l26.94-11.44a2.287 2.353-180 0 0 .89-3.07 2.002 2.06-180 0 0-.89-.98l-26.87-13.3a2.732 2.811-180 0 0-2.39.06" style="fill:url(#a);stroke:none;stroke-width:1.73863995;stroke-linecap:butt"/></g><g transform="translate(26.753 -10.851)"><title>Sheet.17790</title><path d="M23.32 76a4.004 4.12-180 0 0-.73-1.7 16.488 16.965-180 0 0-8.01-7.29L3.53 62.27 0 64.85l11.12 4.87a16.043 16.506 0 0 1 8.64 8.69 25.02 25.742 0 0 1 .89 5.5zm-2.16 7.91 1.33-2.72 1.69 2.23h.31a15.884 16.343-180 0 0-1.2-7.42Z" style="fill:#50e6ff;stroke:none;stroke-width:1.73863995;stroke-linecap:butt"/></g><g transform="translate(23.893 -28.762)"><title>Sheet.17791</title><path d="M4.26 83.91c2.35 0 4.25-1 4.25-2.23 0-1.22-1.9-2.22-4.25-2.22S0 80.46 0 81.68c0 1.23 1.91 2.23 4.26 2.23" style="fill:#552f99;stroke:none;stroke-width:1.73863995;stroke-linecap:butt"/></g></g></g></svg>