<svg xmlns="http://www.w3.org/2000/svg" xml:space="preserve" width="75.521" height="68.027" style="font-size:12px;overflow:visible;color-interpolation-filters:sRGB;fill-rule:evenodd;stroke-linecap:square;stroke-miterlimit:3" viewBox="0 0 56.641 51.02"><g transform="translate(-5.67 -5.325)"><title>Page-1</title><g transform="translate(5.67 -34.016)"><title>Free Services.17773</title><title>g26</title><g transform="translate(9.873)"><title>path4</title><path d="M26.91 79.74H10.35c1.86 6.37.53 7.31-10.35 7.31v3.31h37.05v-3.31c-10.93 0-11.99-.94-10.14-7.31" style="fill:#7a7a7a;stroke:none;stroke-width:5.32174015;stroke-linecap:butt"/></g><g transform="translate(0 -10.62)"><title>path6</title><path d="M53.24 49.96H3.08c-1.7 0-3.08 1.5-3.08 3.16v34.13c0 1.66 1.38 3.11 3.08 3.11h50.16c1.7 0 3.4-1.45 3.4-3.11V53.12c.05-1.66-1.7-3.16-3.4-3.16" style="fill:#a0a1a2;stroke:none;stroke-width:5.32174015;stroke-linecap:butt"/></g><g transform="translate(0 -10.62)"><title>path8</title><path d="M53.3 49.96H3.08c-1.7 0-3.08 1.5-3.08 3.16v34.13c0 1.66 1.38 3.11 3.08 3.11h1.17z" style="fill:#fff;fill-opacity:.2;stroke:none;stroke-width:5.32174015;stroke-linecap:butt"/></g><g transform="translate(4.3 -14.867)"><title>path10</title><path d="M0 58.452h47.987v31.909H0z" style="fill:#59b4d9;stroke:none;stroke-width:5.32174015;stroke-linecap:butt"/></g><g transform="translate(4.3 -14.867)"><title>path12</title><path d="M0 90.36h.11V58.45l43.79-.05-43.9.05Z" style="fill:#59b4d9;stroke:none;stroke-width:5.32174015;stroke-linecap:butt"/></g><g transform="translate(9.82)"><title>path14</title><path d="M0 87.046h37.052v3.315H0z" style="fill:#a0a1a2;stroke:none;stroke-width:5.32174015;stroke-linecap:butt"/></g><g transform="translate(27.338 -47.916)"><title>path16</title><path d="M1.59 89.58c0 .42-.37.78-.79.78-.43 0-.8-.36-.8-.78 0-.41.37-.77.8-.77.42 0 .79.36.79.77" style="fill:#b8d432;stroke:none;stroke-width:5.32174015;stroke-linecap:butt"/></g><g transform="translate(21.074 -25.745)"><title>path18</title><path d="M7.33 90.36c-.06 0-.06 0-.11-.05L.11 86.32c-.06-.05-.11-.1-.11-.21 0-.05.05-.15.11-.15l7.06-3.99c.05-.05.16-.05.21 0l7.11 3.99c.05.05.11.1.11.15 0 .06-.06.16-.11.16l-7.06 3.99z" style="fill:#fff;stroke:none;stroke-width:5.32174015;stroke-linecap:butt"/></g><g transform="translate(20.066 -16.058)"><title>path20</title><path d="M7.27 90.36c-.05 0-.05 0-.1-.05L.11 86.32c-.06-.05-.11-.1-.11-.21v-7.92c0-.05.05-.16.11-.21.05-.05.16-.05.21 0l7.06 3.99c.05.05.1.1.1.21v7.97c0 .06-.05.16-.1.21z" style="fill:#fff;fill-opacity:.7;stroke:none;stroke-width:5.32174015;stroke-linecap:butt"/></g><g transform="translate(29.143 -16.058)"><title>path22</title><path d="M.21 90.36c-.05 0-.05 0-.1-.05-.06-.05-.11-.1-.11-.21v-7.87c0-.05.05-.16.11-.21l7.06-3.99c.05-.05.16-.05.21 0s.1.11.1.16v7.92c0 .06-.05.16-.1.21L.32 90.31c0 .05-.05.05-.11.05" style="fill:#fff;fill-opacity:.4;stroke:none;stroke-width:5.32174015;stroke-linecap:butt"/></g><g transform="translate(14.492 -29.63)"><title>path24</title><path d="M4.57 73.63c9.66 6.63 9.39 15.33 9.39 15.33S11.31 80.67 0 77.26l6.05.15zm16.93 4.2c-7.65 4.4-8.12 11.34-8.12 11.34s2.6-6.48 11.3-8.34l-4.56-.21Zm-7.59 10.25c-.11-.15-2.28-3.37-6.05-4.87-2.45-.93-4.3-1.24-5.58-.77-.69.25-1.17.67-1.43 1.29-.43 1.04-.37 3.06 4.67 5.03 3.77 1.5 7.64.62 7.8.57l1.12-.42zm-6.69-3.31c2.02.77 3.56 2.17 4.41 3.16-1.33.1-3.4.1-5.42-.73-2.92-1.14-3.98-2.33-3.77-2.9.05-.1.11-.26.43-.31.37-.16 1.59-.31 4.35.78m7.11 4.4c.16.05 3.93 1.19 7.86.05 2.49-.78 4.14-1.71 4.83-2.8.37-.62.48-1.24.26-1.86-.31-1.09-1.69-2.59-6.9-1.04-3.87 1.19-6.37 4.25-6.47 4.35l-.69.89zm7.38-1.55c-2.07.62-4.14.46-5.47.25.96-.88 2.6-2.17 4.67-2.79 3.03-.93 4.57-.68 4.78-.05.06.1.06.25-.1.51-.22.31-1.01 1.2-3.88 2.08" style="fill:#ba141a;stroke:none;stroke-width:5.32174015;stroke-linecap:butt"/></g></g></g></svg>