<svg xmlns="http://www.w3.org/2000/svg" xml:space="preserve" width="60.496" height="75.658" style="font-size:12px;overflow:visible;color-interpolation-filters:sRGB;fill-rule:evenodd;stroke-linecap:square;stroke-miterlimit:3" viewBox="0 0 45.372 56.743"><defs><linearGradient id="a" x1="-.023" x2="47.848" y1="70.375" y2="70.375" gradientTransform="scale(.94779 1.05509)" gradientUnits="userSpaceOnUse"><stop offset=".225" stop-color="#32d4f5"/><stop offset=".39" stop-color="#30cff1"/><stop offset=".585" stop-color="#2bc0e4"/><stop offset=".795" stop-color="#23a9ce"/><stop offset="1" stop-color="#198ab3"/></linearGradient></defs><g transform="translate(-34 -34.001)"><title>Page-1</title><g transform="translate(34.022 -34.016)"><title>Help and Support.17768</title><title>g8</title><title>path2</title><path d="M45.32 120.2c-1.3-10.5-6.39-19.4-15.77-22.28a12.709 12.853-180 1 0-13.9-.11C6.2 100.37 1.15 108.43 0 120.23a4.05 4.096-180 0 0 3.62 4.5 3.583 3.624-180 0 0 .41.03H41.3a4.032 4.077-180 0 0 4.05-4.07 4.197 4.244-180 0 0-.03-.49" style="fill:url(#a);stroke:none;stroke-width:34;stroke-linecap:butt"/><g transform="translate(15.812 -8.823)"><title>path4</title><path d="M6.89 108.8A12.674 12.818 0 0 1 0 106.74l6.82 18.02 6.77-17.9a12.659 12.803 0 0 1-6.7 1.94" style="fill:#fff;fill-opacity:.8;stroke:none;stroke-width:34;stroke-linecap:butt"/></g><g transform="translate(6.863 -26.426)"><title>path6</title><path d="M34.91 117.24a19.909 20.135-180 0 0-.29-8.02 19.339 19.558-180 0 0-18.15-14.73A17.27 17.466-180 0 0 .23 103.2a1.832 1.853-180 0 0 .59 2.56 1.692 1.711-180 0 0 2.29-.52 14.067 14.227 0 0 1 13.16-7.2 15.821 16 0 0 1 14.82 11.59 16.332 16.518 0 0 1 .4 6.74 2.916 2.95-180 0 0-1.67 1.85l-.85 2.84a2.93 2.964-180 1 0 5.6 1.72l.86-2.83a2.922 2.956-180 0 0-.52-2.71" style="fill:#767676;stroke:none;stroke-width:34;stroke-linecap:butt"/></g></g></g></svg>