<svg xmlns="http://www.w3.org/2000/svg" xml:space="preserve" width="64.289" height="75.59" style="font-size:12px;overflow:visible;color-interpolation-filters:sRGB;fill-rule:evenodd;stroke-linecap:square;stroke-miterlimit:3" viewBox="0 0 48.217 56.693"><defs><linearGradient id="a" x1="-.019" x2="37.664" y1="119.228" y2="119.228" gradientTransform="scale(1.27955 .78153)" gradientUnits="userSpaceOnUse"><stop offset=".22" stop-color="#32d4f5"/><stop offset="1" stop-color="#198ab3"/></linearGradient><linearGradient id="b" x1="0" x2="27.109" y1="95.036" y2="95.036" gradientTransform="scale(.99604 1.00398)" gradientUnits="userSpaceOnUse"><stop offset=".22" stop-color="#32d4f5"/><stop offset="1" stop-color="#198ab3"/></linearGradient></defs><g transform="translate(-31.922 -31.922)"><title>Page-1</title><g transform="translate(31.946 -34.016)"><title>License.17760</title><g transform="translate(0 -3.21)"><title>Icon-identity-230</title><title>path4</title><path d="M43.89 122.63a4.274 4.308-180 0 0 4.28-4.31 1.385 1.396-180 0 0 0-.5c-1.71-13.58-9.35-24.64-24.09-24.64S1.5 102.54 0 117.85a4.304 4.338-180 0 0 3.86 4.78z" style="fill:url(#a);stroke:none;stroke-width:31.92130089;stroke-linecap:butt"/><g transform="translate(16.773 -9.33)"><title>path6</title><path d="M7.31 105.72A13.53 13.638 0 0 1 0 103.55l7.31 19.08 7.19-18.96a13.353 13.46 0 0 1-7.19 2.05" style="fill:#fff;fill-opacity:.8;stroke:none;stroke-width:31.92130089;stroke-linecap:butt"/></g><g transform="translate(10.612 -26.266)"><title>circle8</title><ellipse cx="13.501" cy="109.022" rx="13.501" ry="13.608" style="fill:url(#b);stroke:none;stroke-width:31.92130089;stroke-linecap:butt"/></g></g><g transform="translate(28.336 -11.718)"><title>circle8-7</title><ellipse cx="6.643" cy="115.934" rx="6.643" ry="6.696" style="fill:#dd5900;stroke:none;stroke-width:14.90919971;stroke-linecap:butt"/></g><g transform="translate(29.997 -13.392)"><title>circle10</title><ellipse cx="4.983" cy="117.608" rx="4.983" ry="5.022" style="fill:#fcd116;fill-opacity:.9;stroke:none;stroke-width:14.90919971;stroke-linecap:butt"/></g><g transform="translate(29.172)"><title>path12</title><path d="M5.81 109.24a7.435 7.494 0 0 1-5.02-1.97L0 122.54l5.72-5.77 5.82 5.86.08-.84-.79-14.52a7.435 7.494 0 0 1-5.02 1.97" style="fill:#dd5900;stroke:none;stroke-width:14.90919971;stroke-linecap:butt"/></g></g></g></svg>