<svg xmlns="http://www.w3.org/2000/svg" xml:space="preserve" width="75.837" height="73.144" style="font-size:12px;overflow:visible;color-interpolation-filters:sRGB;fill-rule:evenodd;stroke-linecap:square;stroke-miterlimit:3" viewBox="0 0 56.877 54.858"><defs><radialGradient id="a" cx="45.522" cy="92.56" r="63.73" fx="45.522" fy="92.56" gradientTransform="scale(.9925 1.00756)" gradientUnits="userSpaceOnUse"><stop offset=".185" stop-color="#5ea0ef"/><stop offset=".555" stop-color="#5c9fee"/><stop offset=".69" stop-color="#559ced"/><stop offset=".785" stop-color="#4a97e9"/><stop offset=".86" stop-color="#3990e4"/><stop offset=".93" stop-color="#2387de"/><stop offset=".985" stop-color="#087bd6"/><stop offset="1" stop-color="#0078d4"/></radialGradient><radialGradient id="b" cx="6.449" cy="92.56" r="9.029" fx="6.449" fy="92.56" gradientTransform="scale(.9925 1.00756)" gradientUnits="userSpaceOnUse"><stop offset="0" stop-color="#7f7f7f"/><stop offset="1" stop-color="#5e5e5e"/></radialGradient></defs><g transform="translate(-5.67 -5.386)"><title>Page-1</title><g transform="translate(5.67 -34.016)"><title>Maintenance Configuration.17754</title><g transform="translate(0 -7.993)"><title>circle2</title><ellipse cx="22.59" cy="70.327" rx="22.59" ry="22.933" style="fill:url(#a);stroke:none;stroke-width:2.67628002;stroke-linecap:butt"/></g><g transform="translate(3.01 -10.958)"><title>circle4</title><ellipse cx="19.669" cy="73.292" rx="19.669" ry="19.968" style="fill:#fff;stroke:none;stroke-width:2.67628002;stroke-linecap:butt"/></g><g transform="translate(5.768 -14.05)"><title>path6</title><path d="M16.37 89.83h1.08v3.43h-1.08ZM4.48 64.55l.77-.78 2.38 2.42-.77.78Zm.16 23.49 2.39-2.42.77.78-2.39 2.42ZM0 75.81h3.37v1.1H0Zm25.06 6.7-5.74-5.8a1.382 1.403-180 0 0-.94-.4 1.32 1.34-180 0 0 .18-.66V60.89a1.385 1.406-180 0 0-1.38-1.4h-.27a1.385 1.406-180 0 0-1.38 1.4v14.78a1.385 1.406-180 0 0 1.38 1.4h.16a1.372 1.393-180 0 0 .11 1.81l5.72 5.8a1.388 1.41-180 0 0 1.95 0l.19-.19a1.388 1.41-180 0 0 0-1.98z" style="fill:#7a7a7a;stroke:none;stroke-width:2.67628002;stroke-linecap:butt"/></g><g transform="translate(19.492 -27.712)"><title>circle8</title><ellipse cx="3.201" cy="90.011" rx="3.201" ry="3.249" style="fill:url(#b);stroke:none;stroke-width:2.67628002;stroke-linecap:butt"/></g><g transform="translate(20.54)"><title>path10</title><path d="m7.43 91.61 17.79-20.63a9.319 9.46-180 0 0 8.88-2.85 8.647 8.778-180 0 0 1.79-8.68l-4.71 5.36-5.03-.94-1.67-4.85 4.71-5.29a9.21 9.35-180 0 0-8.5 2.89 8.506 8.635-180 0 0-1.73 8.65L0 87.27a4.206 4.27-180 0 0 6.33 5.62z" style="fill:#949494;stroke:none;stroke-width:2.67628002;stroke-linecap:butt"/></g></g></g></svg>