<svg xmlns="http://www.w3.org/2000/svg" xml:space="preserve" width="64.253" height="75.591" style="font-size:12px;overflow:visible;color-interpolation-filters:sRGB;fill-rule:evenodd;stroke-linecap:square;stroke-miterlimit:3" viewBox="0 0 48.19 56.693"><defs><linearGradient id="a" x1="0" x2="26.224" y1="115.729" y2="115.729" gradientTransform="scale(1.13825 .87854)" gradientUnits="userSpaceOnUse"><stop offset="0" stop-color="#ccc"/><stop offset=".15" stop-color="#dadada"/><stop offset=".44" stop-color="#eee"/><stop offset=".725" stop-color="#fbfbfb"/><stop offset="1" stop-color="#fff"/></linearGradient></defs><g transform="translate(-34 -34.001)"><title>Page-1</title><g transform="translate(34 -34.016)"><title>Marketplace.17746</title><title>Sheet.17747</title><g transform="translate(40.775)"><title>Sheet.17748</title><path d="M3.37 82.04H0v42.67l3.37-6.41z" style="fill:#50e6ff;stroke:none;stroke-width:34;stroke-linecap:butt"/></g><g transform="translate(40.775 -.013)"><title>Sheet.17749</title><path d="m3.39 118.25-.02.05L0 124.71l3.37-2.65 4.04-3.17Z" style="fill:#9cebff;stroke:none;stroke-width:34;stroke-linecap:butt"/></g><g transform="translate(20.14 -42.691)"><title>Sheet.17750</title><path d="M2.55 118.38a5.148 5.247 0 0 1 5.32-5.04 5.141 5.24 0 0 1 5.31 5.04v6.33h2.55v-6.33a7.876 8.028-180 0 0-15.73 0v6.33h2.55z" style="fill:#a3a3a3;stroke:none;stroke-width:34;stroke-linecap:butt"/></g><g transform="translate(12.33 -42.691)"><title>Sheet.17751</title><path d="M2.55 118.38a5.141 5.24 0 0 1 5.3-5.04 5.141 5.24 0 0 1 5.31 5.04v6.33h2.56v-6.33a7.706 7.854-180 0 0-7.85-7.67A7.706 7.854-180 0 0 0 118.38v6.33h2.55z" style="fill:#767676;stroke:none;stroke-width:34;stroke-linecap:butt"/></g><g transform="translate(0 -.013)"><title>Sheet.17752</title><path d="M40.77 82.05v42.66L0 121.42l1.24-39.37Zm3.38 0v36.25l4.04.59-1.24-36.84z" style="fill:#32bedd;stroke:none;stroke-width:34;stroke-linecap:butt"/></g><g transform="translate(5.302 -10.964)"><title>Sheet.17753</title><path d="M29.85 118.15a7.522 7.668-180 0 0-5.88-7.27 9.318 9.498-180 0 0-8.71-9.18 8.101 8.258-180 0 0-8.3 5.49A7.522 7.668-180 0 0 0 114.91a8.945 9.118-180 0 0 8.35 8.86c.25 0 .5.03.74 0l13.61.94a1.308 1.333-180 0 0 .36-.03 6.43 6.554-180 0 0 6.79-6.53" style="fill:url(#a);stroke:none;stroke-width:34;stroke-linecap:butt"/></g></g></g></svg>