<svg xmlns="http://www.w3.org/2000/svg" xml:space="preserve" width="45.484" height="75.682" style="font-size:12px;overflow:visible;color-interpolation-filters:sRGB;fill-rule:evenodd;stroke-linecap:square;stroke-miterlimit:3" viewBox="0 0 34.113 56.762"><g transform="translate(-43.997 -44.004)"><title>Page-1</title><g transform="translate(44.02 -44)"><title>Operational Excellence.17739</title><title> Icon-nameAsset 3</title><title>Sheet.17741</title><g transform="translate(14.788)"><title>Sheet.17742</title><path d="M18.78 133.99 8.37 144.4a1.34 1.287 0 0 1-1.86 0 1.313 1.262 0 0 1-.37-.66L0 114.93a1.287 1.236 0 0 1 .76-1.35l6.68-2.62a1.333 1.28 0 0 1 1.72.61l9.88 21.01a1.27 1.22 0 0 1-.26 1.41" style="fill:#37c2b1;stroke:none;stroke-width:44;stroke-linecap:butt"/></g><title>Sheet.17743</title><path d="m.37 133.99 10.4 10.41a1.336 1.284-180 0 0 1.87 0 1.257 1.208-180 0 0 .36-.66l6.15-28.81a1.287 1.236-180 0 0-.77-1.35l-6.67-2.62a1.333 1.28-180 0 0-1.72.61L.1 132.58a1.274 1.224-180 0 0 .27 1.41" style="fill:#42e8ca;stroke:none;stroke-width:44;stroke-linecap:butt"/><g transform="translate(.58 -24.507)"><title>Sheet.17744</title><path d="m18.04 114.02 1.31-1.05a2.062 1.98 0 0 1 3.25.83l.58 1.55a2.065 1.984-180 0 0 2.3 1.26l1.68-.28a2.062 1.98 0 0 1 2.38 1.61 2.039 1.959 0 0 1 0 .68l-.29 1.61a2.058 1.978-180 0 0 1.31 2.21l1.6.56a2.058 1.978 0 0 1 1.22 2.54 1.97 1.892 0 0 1-.35.58l-1.09 1.27a2.062 1.98-180 0 0 0 2.52l1.09 1.26a2.062 1.98 0 0 1-.87 3.13l-1.6.56a2.062 1.98-180 0 0-1.31 2.2l.29 1.62a2.062 1.98 0 0 1-1.68 2.28 2.104 2.022 0 0 1-.7 0l-1.68-.27a2.062 1.98-180 0 0-2.3 1.26l-.58 1.53a2.058 1.978 0 0 1-2.65 1.18 2.098 2.015 0 0 1-.61-.34l-1.31-1.05a2.062 1.98-180 0 0-2.63 0l-1.31 1.05a2.062 1.98 0 0 1-2.9-.27 2.098 2.015 0 0 1-.35-.59l-.59-1.53a2.058 1.978-180 0 0-2.29-1.26l-1.67.28a2.058 1.978 0 0 1-2.38-1.61 2.104 2.022 0 0 1 0-.68l.29-1.61a2.068 1.987-180 0 0-1.31-2.21l-1.61-.55a2.058 1.978 0 0 1-.87-3.13l1.09-1.26a2.055 1.974-180 0 0 0-2.52l-1.09-1.26a2.062 1.98 0 0 1 .87-3.13l1.6-.56a2.065 1.984-180 0 0 1.31-2.21l-.29-1.61a2.062 1.98 0 0 1 1.68-2.29 2.124 2.04 0 0 1 .7 0l1.69.29a2.062 1.98-180 0 0 2.3-1.26l.57-1.54a2.068 1.987 0 0 1 3.25-.84l1.32 1.05a2.062 1.98-180 0 0 2.63 0" style="fill:#005ba1;stroke:none;stroke-width:44;stroke-linecap:butt"/></g><g transform="translate(5.308 -29.11)"><title>Sheet.17745</title><ellipse cx="11.992" cy="133.239" rx="11.992" ry="11.521" style="fill:#ffca00;stroke:none;stroke-width:44;stroke-linecap:butt"/></g></g></g></svg>