<svg xmlns="http://www.w3.org/2000/svg" xml:space="preserve" width="75.587" height="75.593" style="font-size:12px;overflow:visible;color-interpolation-filters:sRGB;fill-rule:evenodd;stroke-linecap:square;stroke-miterlimit:3" viewBox="0 0 56.69 56.695"><defs><linearGradient id="a" x1="0" x2="25.38" y1="99.33" y2="99.33" gradientUnits="userSpaceOnUse"><stop offset="0" stop-color="#86d633"/><stop offset="1" stop-color="#76bc2d"/></linearGradient><linearGradient id="b" x1="0" x2="25.38" y1="99.33" y2="99.33" gradientUnits="userSpaceOnUse"><stop offset="0" stop-color="#5ea0ef"/><stop offset=".18" stop-color="#589eed"/><stop offset=".41" stop-color="#4897e9"/><stop offset=".66" stop-color="#2e8ce1"/><stop offset=".94" stop-color="#0a7cd7"/><stop offset="1" stop-color="#0078d4"/></linearGradient><linearGradient id="c" x1="0" x2="25.38" y1="99.33" y2="99.33" gradientUnits="userSpaceOnUse"><stop offset="0" stop-color="#198ab3"/><stop offset=".24" stop-color="#22a5cb"/><stop offset=".53" stop-color="#2bbfe2"/><stop offset=".79" stop-color="#30cff0"/><stop offset="1" stop-color="#32d4f5"/></linearGradient></defs><g transform="translate(-34 -34)"><title>Page-1</title><g transform="translate(34 -34.016)"><title>Preview Feature.17725</title><title>Sheet.17726</title><g transform="translate(31.313 -31.31)"><title>Sheet.17727</title><path d="M12.69 124.71a.945.945 0 0 1-.945-.945A10.81 10.81-180 0 0 .94 112.96a.945.945 0 0 1-.945-.945.945.945 0 0 1 .945-.945 10.81 10.81-180 0 0 10.8-10.8.945.945 0 0 1 .945-.945.945.945 0 0 1 .945.945 10.81 10.81-180 0 0 10.8 10.8.945.945 0 1 1 0 1.89 10.81 10.81-180 0 0-10.79 10.8.945.945 0 0 1-.948.951z" style="fill:#5e9624;stroke:none;stroke-width:34;stroke-linecap:butt"/></g><g transform="translate(0 -31.31)"><title>Sheet.17728</title><path d="M0 122.82a1.89 1.89-180 0 0 1.89 1.89h21.6a1.89 1.89-180 0 0 1.89-1.89v-21.6a1.89 1.89-180 0 0-1.89-1.89H1.89A1.89 1.89-180 0 0 0 101.22Z" style="fill:url(#a);stroke:none;stroke-width:34;stroke-linecap:butt"/></g><title>Sheet.17729</title><path d="M0 122.82a1.89 1.89-180 0 0 1.89 1.89h21.6a1.89 1.89-180 0 0 1.89-1.89v-21.6a1.89 1.89-180 0 0-1.89-1.89H1.89A1.89 1.89-180 0 0 0 101.22Z" style="fill:url(#b);stroke:none;stroke-width:34;stroke-linecap:butt"/><g transform="translate(31.31)"><title>Sheet.17730</title><path d="M0 122.82a1.89 1.89-180 0 0 1.89 1.89h21.6a1.89 1.89-180 0 0 1.89-1.89v-21.6a1.89 1.89-180 0 0-1.89-1.89H1.89A1.89 1.89-180 0 0 0 101.22Z" style="fill:url(#c);stroke:none;stroke-width:34;stroke-linecap:butt"/></g><g transform="translate(2.96 -2.964)"><title>Sheet.17731</title><path d="M17.56 93.4H1.9a1.89 1.89 0 0 1-1.89-1.89V75.83a1.89 1.89 0 0 1 1.89-1.89h15.66a1.89 1.89 0 0 1 1.89 1.89V91.5a1.89 1.89 0 0 1-1.89 1.9m1.89 29.41v-15.66a1.89 1.89-180 0 0-1.89-1.89H1.89A1.89 1.89-180 0 0 0 107.15v15.67a1.89 1.89-180 0 0 1.89 1.89h15.67a1.89 1.89-180 0 0 1.9-1.9zm31.32 0v-15.66a1.89 1.89-180 0 0-1.89-1.89H33.2a1.89 1.89-180 0 0-1.89 1.89v15.67a1.89 1.89-180 0 0 1.89 1.89h15.67a1.89 1.89-180 0 0 1.9-1.9" style="fill:#86d633;stroke:none;stroke-width:34;stroke-linecap:butt"/></g></g></g></svg>