<svg xmlns="http://www.w3.org/2000/svg" xml:space="preserve" width="75.592" height="75.593" style="font-size:12px;overflow:visible;color-interpolation-filters:sRGB;fill-rule:evenodd;stroke-linecap:square;stroke-miterlimit:3" viewBox="0 0 56.694 56.695"><g transform="translate(-5.67 -5.67)"><title>Page-1</title><g transform="translate(5.67 -34.016)"><title>Quickstart Center.17698</title><title>Sheet.17699</title><g transform="translate(1.24 -23.57)"><title>Sheet.17700</title><path d="M11.08 96.38S4.67 91.55 0 92.97c1.29-4.65 7.74-9.91 13.55-10.94 6.83.78 8.02 1.98 8.02 1.98z" style="fill:#ff8c00;stroke:none;stroke-width:3.82500005;stroke-linecap:butt"/></g><g transform="translate(23.998 -.812)"><title>Sheet.17701</title><path d="m0 85.3 12.37-10.49s1.19 1.19 1.98 8.02c-1.04 5.81-6.3 12.25-10.94 13.55C4.82 91.7 0 85.3 0 85.3" style="fill:#dd5900;stroke:none;stroke-width:3.82500005;stroke-linecap:butt"/></g><g transform="translate(12.001 -12.001)"><title>Sheet.17702</title><path d="M44.69 51.69S17.33 57.5 0 84.4l11.97 11.98c26.91-17.33 32.72-44.69 32.72-44.69" style="fill:#fcd116;stroke:none;stroke-width:3.82500005;stroke-linecap:butt"/></g><g transform="translate(12.001 -12.001)"><title>Sheet.17703</title><path d="M44.69 51.69S17.33 57.5 0 84.4l11.97 11.98c26.91-17.33 32.72-44.69 32.72-44.69" style="fill:#ff8c00;fill-opacity:.2;stroke:none;stroke-width:3.82500005;stroke-linecap:butt"/></g><g transform="translate(17.988 -12.001)"><title>Sheet.17704</title><path d="M38.7 51.69 0 90.39l5.99 5.99C32.89 79.05 38.7 51.69 38.7 51.69" style="fill:#dd5900;stroke:none;stroke-width:3.82500005;stroke-linecap:butt"/></g><g transform="translate(13.507 -13.507)"><title>Sheet.17705</title><path d="M0 87.41c13.49-20.08 32.33-28.24 39.42-30.45-2.21 7.08-10.38 25.93-30.46 39.42Z" style="fill:#ff8c00;stroke:none;stroke-width:3.82500005;stroke-linecap:butt"/></g><g transform="translate(40.844 -40.845)"><title>Sheet.17706</title><path d="M15.85 80.53S9.01 81.98 0 86.8l9.58 9.58c4.82-9.01 6.27-15.85 6.27-15.85" style="fill:#0072c6;stroke:none;stroke-width:3.82500005;stroke-linecap:butt"/></g><title>Sheet.17707</title><path d="M0 96.38S.01 82 12 72.4l11.98 11.98C14.38 96.37 0 96.38 0 96.38" style="fill:#ff8c00;stroke:none;stroke-width:3.82500005;stroke-linecap:butt"/><g transform="translate(4.057 -4.052)"><title>Sheet.17708</title><path d="M0 96.38c.34-3.4 2.51-11.57 9.62-18.25l8.63 8.63C11.55 93.9 3.39 96.04 0 96.38" style="fill:#fcd116;stroke:none;stroke-width:3.82500005;stroke-linecap:butt"/></g><g transform="translate(8.3 -8.294)"><title>Sheet.17709</title><path d="M0 96.38c.71-3.33 2.63-8.35 6.59-12.79l6.2 6.19c-5 4.49-10.35 6.08-12.79 6.6" style="fill:#fff;fill-opacity:.6;stroke:none;stroke-width:3.82500005;stroke-linecap:butt"/></g><g transform="translate(29.81 -29.81)"><title>Sheet.17710</title><circle cx="6.167" cy="90.211" r="6.167" style="fill:#fff;stroke:none;stroke-width:3.82500005;stroke-linecap:butt"/></g><g transform="translate(31.358 -31.361)"><title>Sheet.17711</title><circle cx="4.618" cy="91.76" r="4.618" style="fill:#fcd116;stroke:none;stroke-width:3.82500005;stroke-linecap:butt"/></g><g transform="translate(31.791 -30.716)"><title>Sheet.17712</title><path d="M8.37 89.16a4.62 4.62 0 0 1-2.23 6.14A4.62 4.62 0 0 1 0 93.07Z" style="fill:#ff8c00;fill-opacity:.4;stroke:none;stroke-width:3.82500005;stroke-linecap:butt"/></g><g transform="translate(11.54 -11.515)"><title>Sheet.17713</title><path d="M4.28 94.49C2.89 95.88 0 96.38 0 96.38s.61-3.05 1.86-4.31l11.6-11.59 2.41 2.42z" style="fill:#dd5900;stroke:none;stroke-width:3.82500005;stroke-linecap:butt"/></g></g></g></svg>