<svg xmlns="http://www.w3.org/2000/svg" xml:space="preserve" width="75.59" height="75.59" style="font-size:12px;overflow:visible;color-interpolation-filters:sRGB;fill-rule:evenodd;stroke-linecap:square;stroke-miterlimit:3" viewBox="0 0 56.693 56.693"><defs><radialGradient id="a" cx="56.693" cy="68.016" r="79.37" fx="56.693" fy="68.016" gradientUnits="userSpaceOnUse"><stop offset=".185" stop-color="#5ea0ef"/><stop offset=".555" stop-color="#5c9fee"/><stop offset=".69" stop-color="#559ced"/><stop offset=".785" stop-color="#4a97e9"/><stop offset=".86" stop-color="#3990e4"/><stop offset=".93" stop-color="#2387de"/><stop offset=".985" stop-color="#087bd6"/><stop offset="1" stop-color="#0078d4"/></radialGradient><radialGradient id="b" cx="8.03" cy="116.678" r="11.243" fx="8.03" fy="116.678" gradientUnits="userSpaceOnUse"><stop offset="0" stop-color="#7f7f7f"/><stop offset="1" stop-color="#5e5e5e"/></radialGradient></defs><g transform="translate(-34 -34)"><title>Page-1</title><g transform="translate(34 -34.016)"><title>Recent.17692</title><title>Sheet.17693</title><title>Sheet.17694</title><circle cx="28.346" cy="96.362" r="28.346" style="fill:url(#a);stroke:none;stroke-width:34;stroke-linecap:butt"/><g transform="translate(3.778 -3.665)"><title>Sheet.17695</title><circle cx="24.681" cy="100.027" r="24.681" style="fill:#fff;stroke:none;stroke-width:34;stroke-linecap:butt"/></g><g transform="translate(7.24 -7.487)"><title>Sheet.17696</title><path d="m32.69 91.39 2.98-2.99.97.96-2.99 2.99zm5.25 11.75h4.23v1.36h-4.23zm-5.45 12.92.97-.96 2.98 2.99-.96.97zm-11.96 4.42h1.37v4.23h-1.37ZM5.66 89.22l.96-.96 2.99 2.99-.97.96Zm.2 28.99 2.99-2.99.96.97-2.99 2.99zM0 103.14h4.23v1.36H0Zm31.41 8.28-7.17-7.17a1.73 1.73-180 0 0-1.17-.5 1.7 1.7-180 0 0 .21-.79V84.7a1.74 1.74-180 0 0-1.73-1.74h-.33a1.74 1.74-180 0 0-1.74 1.74v18.26a1.74 1.74-180 0 0 1.74 1.74h.19a1.714 1.714-180 0 0 .14 2.23l7.17 7.17a1.737 1.737-180 0 0 2.45 0l.24-.23a1.737 1.737-180 0 0 0-2.45" style="fill:#7a7a7a;stroke:none;stroke-width:34;stroke-linecap:butt"/></g><g transform="translate(24.461 -24.378)"><title>Sheet.17697</title><circle cx="4.015" cy="120.693" r="4.015" style="fill:url(#b);stroke:none;stroke-width:34;stroke-linecap:butt"/></g></g></g></svg>