<svg xmlns="http://www.w3.org/2000/svg" xml:space="preserve" width="75.587" height="67.933" style="font-size:12px;overflow:visible;color-interpolation-filters:sRGB;fill-rule:evenodd;stroke-linecap:square;stroke-miterlimit:3" viewBox="0 0 56.69 50.95"><g transform="translate(-12.241 -12.238)"><title>Page-1</title><g transform="translate(12.241 -34.016)"><title>Resource Explorer.17685</title><title>Sheet.17686</title><g transform="translate(0 -.076)"><title>Sheet.17687</title><path d="M54.5 57.29v-4.4H24.83l-6.73-6.56H0v48.33c0 1.45 1.2 2.62 2.69 2.62H54a2.69 2.623-180 0 0 2.69-2.62V57.29Z" style="fill:#fee087;stroke:none;stroke-width:12.23999977;stroke-linecap:butt"/></g><g transform="translate(17.794 -22.338)"><title>Sheet.17688</title><path d="M11.89 97.28a.363.354 0 0 1-.176-.049L.17 90.74a.35.342 0 0 1 0-.59l11.47-6.45a.356.347 0 0 1 .347 0l11.543 6.49a.346.337 0 0 1 .172.293.348.34 0 0 1-.172.295L12.06 97.23a.344.335 0 0 1-.176.049z" style="fill:#dd5900;stroke:none;stroke-width:12.23999977;stroke-linecap:butt"/></g><g transform="translate(16.168 -6.554)"><title>Sheet.17689</title><path d="M11.85 97.28a.331.323 0 0 1-.176-.045L.18 90.76a.342.334 0 0 1-.177-.295L0 77.48a.352.343 0 0 1 .177-.297.365.356 0 0 1 .351 0L12.03 83.65a.363.354 0 0 1 .17.296V96.94c0 .12-.07.23-.17.29a.36.352 0 0 1-.175.045z" style="fill:#ff8c00;stroke:none;stroke-width:12.23999977;stroke-linecap:butt"/></g><g transform="translate(30.928 -6.554)"><title>Sheet.17690</title><path d="M.35 97.28a.357.348 0 0 1-.178-.045.35.342 0 0 1-.172-.296V84.03c0-.12.07-.23.17-.29l11.5-6.48a.352.343 0 0 1 .524.294L12.19 90.47a.347.338 0 0 1-.177.295L.52 97.23a.312.304 0 0 1-.17.045z" style="fill:#ff8c00;fill-opacity:.5;stroke:none;stroke-width:12.23999977;stroke-linecap:butt"/></g><title>Sheet.17691</title><path d="M5.38 57.21v37.37a2.69 2.623 0 1 1-5.38 0V46.26h18.1l6.73 6.56H54.5v4.39z" style="fill:#1e1e1e;fill-opacity:.2;stroke:none;stroke-width:12.23999977;stroke-linecap:butt"/></g></g></svg>