<svg xmlns="http://www.w3.org/2000/svg" xml:space="preserve" width="75.59" height="75.586" style="font-size:12px;overflow:visible;color-interpolation-filters:sRGB;fill-rule:evenodd;stroke-linecap:square;stroke-miterlimit:3" viewBox="0 0 56.693 56.69"><g transform="translate(-34 -34.003)"><title>Page-1</title><g transform="translate(34 -34.016)"><title>Resource Graph query.17667</title><title>Sheet.17668</title><g transform="translate(0 -17.601)"><title>Sheet.17669</title><path d="M0 122.76a1.927 1.945-180 0 0 1.93 1.95H36.8a1.927 1.945-180 0 0 1.93-1.95v-35.2a1.927 1.945-180 0 0-1.93-1.94H1.93A1.927 1.945-180 0 0 0 87.56Z" style="fill:#552f99;stroke:none;stroke-width:34;stroke-linecap:butt"/></g><g transform="translate(2.874 -44.662)"><title>Sheet.17670</title><path d="M.62 119.04H32.4c.32 0 .62 0 .62.2v5.3s-.3.17-.62.17H.62c-.36-.17-.62-.17-.62-.17v-5.3s.26-.2.62-.2" style="fill:#fff;stroke:none;stroke-width:34;stroke-linecap:butt"/></g><g transform="translate(2.874 -24.16)"><title>Sheet.17671</title><path d="M.62 108.92h32.4v5.41H0v-5.24s.26-.17.62-.17m0 10.38h32.4v5.24s-.3.17-.62.17H.62c-.36 0-.62 0-.62-.17v-5.07s.26-.17.62-.17" style="fill:#b796f9;stroke:none;stroke-width:34;stroke-linecap:butt"/></g><g transform="translate(28.78 -5.274)"><title>Sheet.17672</title><path d="M17.46 124.71.28 107.27a1.339 1.351 0 0 1 .98-2.3h21.85v2.73H4.5l14.89 15.23z" style="fill:#b796f9;stroke:none;stroke-width:34;stroke-linecap:butt"/></g><g transform="translate(26.779 -19.744)"><title>Sheet.17673</title><ellipse cx="3.756" cy="120.918" rx="3.756" ry="3.791" style="fill:#9a5fe3;stroke:none;stroke-width:34;stroke-linecap:butt"/></g><g transform="translate(47.092 -19.216)"><title>Sheet.17674</title><ellipse cx="4.801" cy="119.863" rx="4.801" ry="4.845" style="fill:#9a5fe3;stroke:none;stroke-width:34;stroke-linecap:butt"/></g><g transform="translate(40.756)"><title>Sheet.17675</title><ellipse cx="6.107" cy="118.578" rx="6.107" ry="6.131" style="fill:#9a5fe3;stroke:none;stroke-width:34;stroke-linecap:butt"/></g></g></g></svg>