<svg xmlns="http://www.w3.org/2000/svg" xml:space="preserve" width="71.805" height="75.588" style="font-size:12px;overflow:visible;color-interpolation-filters:sRGB;fill-rule:evenodd;stroke-linecap:square;stroke-miterlimit:3" viewBox="0 0 53.854 56.691"><g transform="translate(-12.24 -12.243)"><title>Page-1</title><g transform="translate(12.24 -34.016)"><title>Service Catalog Managed Application Definition.17639</title><title>Sheet.17640</title><g transform="translate(0 -47.244)"><title>Sheet.17641</title><path d="M0 101.77h6.58v1.18H1.2s-1.2 0-1.2-1.18" style="fill:#646565;stroke:none;stroke-width:12.23999977;stroke-linecap:butt"/></g><g transform="translate(0 -48.425)"><title>Sheet.17642</title><path d="M4.79 99.41h-1.2A3.59 3.543-180 0 0 0 102.95h1.2a2.394 2.362 0 0 1 2.39-2.36h1.2z" style="fill:#646565;fill-opacity:.5;stroke:none;stroke-width:12.23999977;stroke-linecap:butt"/></g><g transform="translate(0 -40.157)"><title>Sheet.17643</title><path d="M0 101.77h6.58v1.18H1.2s-1.2 0-1.2-1.18" style="fill:#646565;stroke:none;stroke-width:12.23999977;stroke-linecap:butt"/></g><g transform="translate(0 -41.339)"><title>Sheet.17644</title><path d="M4.79 99.41h-1.2A3.59 3.543-180 0 0 0 102.95h1.2a2.394 2.362 0 0 1 2.39-2.36h1.2z" style="fill:#646565;fill-opacity:.5;stroke:none;stroke-width:12.23999977;stroke-linecap:butt"/></g><g transform="translate(0 -33.07)"><title>Sheet.17645</title><path d="M0 101.77h6.58v1.18H1.2s-1.2 0-1.2-1.18" style="fill:#646565;stroke:none;stroke-width:12.23999977;stroke-linecap:butt"/></g><g transform="translate(0 -34.252)"><title>Sheet.17646</title><path d="M4.79 99.41h-1.2A3.59 3.543-180 0 0 0 102.95h1.2a2.394 2.362 0 0 1 2.39-2.36h1.2z" style="fill:#646565;fill-opacity:.5;stroke:none;stroke-width:12.23999977;stroke-linecap:butt"/></g><g transform="translate(0 -25.984)"><title>Sheet.17647</title><path d="M0 101.77h6.58v1.18H1.2s-1.2 0-1.2-1.18" style="fill:#646565;stroke:none;stroke-width:12.23999977;stroke-linecap:butt"/></g><g transform="translate(0 -27.165)"><title>Sheet.17648</title><path d="M4.79 99.41h-1.2A3.59 3.543-180 0 0 0 102.95h1.2a2.394 2.362 0 0 1 2.39-2.36h1.2z" style="fill:#646565;fill-opacity:.5;stroke:none;stroke-width:12.23999977;stroke-linecap:butt"/></g><g transform="translate(0 -18.898)"><title>Sheet.17649</title><path d="M0 101.77h6.58v1.18H1.2s-1.2 0-1.2-1.18" style="fill:#646565;stroke:none;stroke-width:12.23999977;stroke-linecap:butt"/></g><g transform="translate(0 -20.079)"><title>Sheet.17650</title><path d="M4.79 99.41h-1.2A3.59 3.543-180 0 0 0 102.95h1.2a2.394 2.362 0 0 1 2.39-2.36h1.2z" style="fill:#646565;fill-opacity:.5;stroke:none;stroke-width:12.23999977;stroke-linecap:butt"/></g><g transform="translate(0 -11.811)"><title>Sheet.17651</title><path d="M0 101.77h6.58v1.18H1.2s-1.2 0-1.2-1.18" style="fill:#646565;stroke:none;stroke-width:12.23999977;stroke-linecap:butt"/></g><g transform="translate(0 -12.992)"><title>Sheet.17652</title><path d="M4.79 99.41h-1.2A3.59 3.543-180 0 0 0 102.95h1.2a2.394 2.362 0 0 1 2.39-2.36h1.2z" style="fill:#646565;fill-opacity:.5;stroke:none;stroke-width:12.23999977;stroke-linecap:butt"/></g><g transform="translate(0 -4.724)"><title>Sheet.17653</title><path d="M0 101.77h6.58v1.18H1.2s-1.2 0-1.2-1.18" style="fill:#646565;stroke:none;stroke-width:12.23999977;stroke-linecap:butt"/></g><g transform="translate(0 -5.906)"><title>Sheet.17654</title><path d="M4.79 99.41h-1.2A3.59 3.543-180 0 0 0 102.95h1.2a2.394 2.362 0 0 1 2.39-2.36h1.2z" style="fill:#646565;fill-opacity:.5;stroke:none;stroke-width:12.23999977;stroke-linecap:butt"/></g><g transform="translate(5.984 -1.181)"><title>Sheet.17655</title><path d="M8.38 47.44C4.79 47.44 0 50.98 0 50.98h2.39v49.61h41.89v2.36l3.59-3.54V47.44Z" style="fill:#0072c6;stroke:none;stroke-width:12.23999977;stroke-linecap:butt"/></g><g transform="translate(7.78 -2.362)"><title>Sheet.17656</title><path d="M4.19 49.8 0 52.16h1.8v50.79h40.69l2.39-2.36V49.8Z" style="fill:#fff;fill-opacity:.75;stroke:none;stroke-width:12.23999977;stroke-linecap:butt"/></g><g transform="translate(8.378 -53.15)"><title>Sheet.17657</title><path d="M4.19 100.59 0 102.95h41.89l2.39-2.36z" style="fill:#fff;fill-opacity:.8;stroke:none;stroke-width:12.23999977;stroke-linecap:butt"/></g><g transform="translate(4.787)"><title>Sheet.17658</title><path d="M0 102.95v-3.54h2.39l1.2-1.19v-1.18l-1.2-1.18H0v-3.54h2.39l1.2-1.18v-1.18l-1.2-1.18H0v-3.55h2.39l1.2-1.18v-1.18l-1.2-1.18H0v-3.54h2.39l1.2-1.19v-1.18l-1.2-1.18H0v-3.54h2.39l1.2-1.18V68.7l-1.2-1.18H0v-3.55h2.39l1.2-1.18v-1.18l-1.2-1.18H0v-3.54h2.39l1.2-1.19v-1.18l-1.2-1.18H0V49.8h45.48v53.15z" style="fill:#0072c6;stroke:none;stroke-width:12.23999977;stroke-linecap:butt"/></g><g transform="translate(17.953 -14.694)"><title>Sheet.17659</title><path d="M13.95 95.26a.171.169-180 0 0 .081-.02l5.319-2.9a.15.149-180 0 0 .081-.132l-.001-5.838a.156.154-180 0 0-.081-.133.177.175-180 0 0-.163 0L13.87 89.14a.156.154-180 0 0-.079.133l-.001 5.837c0 .06.03.11.08.13a.163.16-180 0 0 .08.02m0 7.69a.171.169-180 0 0 .081-.02l5.319-2.91a.15.149-180 0 0 .081-.132l-.001-5.838a.156.154-180 0 0-.081-.133.177.175-180 0 0-.163 0L13.87 96.83a.156.154-180 0 0-.079.133l-.001 5.837a.152.15-180 0 0 .16.151zm6.9-11.53a.18.177-180 0 0 .083-.02l5.317-2.91a.15.149-180 0 0 .081-.132l-.001-5.828a.153.151-180 0 0-.083-.133.177.175-180 0 0-.162 0L20.77 85.3a.156.154-180 0 0-.079.133l-.001 5.837c0 .06.03.11.08.13a.183.18-180 0 0 .08.019zm0 7.69a.18.177-180 0 0 .083-.02l5.317-2.91a.15.149-180 0 0 .081-.132l-.001-5.838a.153.151-180 0 0-.083-.133.177.175-180 0 0-.162 0L20.77 92.99a.156.154-180 0 0-.079.133l-.001 5.837c0 .05.03.1.08.13a.183.18-180 0 0 .08.019zm-8.47-3.85a.171.169 0 0 1-.081-.02l-5.319-2.9a.15.149 0 0 1-.081-.132L6.9 86.37a.156.154 0 0 1 .081-.133.177.175 0 0 1 .163 0l5.316 2.903a.156.154 0 0 1 .079.133l.001 5.837a.152.15 0 0 1-.16.151zm0 7.69a.171.169 0 0 1-.081-.02l-5.319-2.91a.15.149 0 0 1-.081-.132L6.9 94.05a.156.154 0 0 1 .081-.133.177.175 0 0 1 .163 0l5.316 2.913a.156.154 0 0 1 .079.133l.001 5.837a.152.15 0 0 1-.16.151zm-6.9-11.53a.171.169 0 0 1-.081-.02L.08 88.49a.15.148 0 0 1-.083-.132L0 82.53a.156.154 0 0 1 .081-.133.177.175 0 0 1 .163 0L5.56 85.3a.156.154 0 0 1 .079.133l.001 5.837a.152.15 0 0 1-.158.151zm0 7.69a.171.169 0 0 1-.081-.02L.08 96.18a.15.148 0 0 1-.083-.132L0 90.21a.156.154 0 0 1 .081-.133.177.175 0 0 1 .163 0L5.56 92.99a.156.154 0 0 1 .079.133l.001 5.837a.152.15 0 0 1-.158.151Zm2.31-14.49a.15.149 0 0 1 .06-.056l5.29-2.834a.163.16 0 0 1 .16-.001l5.23 2.811a.147.145 0 0 1 .079.13.16.157 0 0 1-.081.13l-5.288 2.83a.17.168 0 0 1-.16-.001L7.85 84.82a.145.143 0 0 1-.057-.202ZM.9 80.92a.156.154 0 0 1 .059-.056L6.19 78.03a.158.156 0 0 1 .158-.001l5.172 2.811c.05.02.08.07.08.13a.16.157 0 0 1-.081.13L6.29 83.93a.165.163 0 0 1-.157-.001L.96 81.12a.146.144 0 0 1-.078-.126.17.168 0 0 1 .023-.076zm13.93.06a.156.154 0 0 1 .059-.056l5.231-2.834a.158.156 0 0 1 .158-.001L25.45 80.9c.05.03.08.07.08.13a.16.157 0 0 1-.081.13l-5.229 2.83a.165.163 0 0 1-.157-.001L14.89 81.18a.146.144 0 0 1-.078-.126.165.163 0 0 1 .023-.076zm-7.01-3.65a.156.154 0 0 1 .06-.054l5.29-2.796a.169.167 0 0 1 .16-.001l5.23 2.771a.145.143 0 0 1 .079.128.158.156 0 0 1-.081.127L13.27 80.29a.174.171 0 0 1-.16-.001L7.88 77.52a.142.14 0 0 1-.079-.125.13.13 0 0 1 .019-.065" style="fill:#fff;stroke:none;stroke-width:12.23999977;stroke-linecap:butt"/></g><g transform="translate(10.853 -8.07)"><title>Sheet.17660</title><path d="M14.44 102.95c-2.15 0-4.07-1.75-5.47-3.03-.4-.37-.78-.71-1.03-.89-.92-.65-2.73-1.34-4.51-1.34H1.79A1.799 1.775 0 0 1 0 95.92v-5.5c0-.98.81-1.77 1.8-1.77h2.68l.13 1.18v-1.18c.77 0 1.97-.22 3.03-.42.85-.15 1.65-.3 2.32-.36.29-.02.59-.04.89-.04.84 0 3.7.14 4.94 1.89.15.2.82 1 1.13 1.24.26.21.9.43 1.93.43l.19-.01c.08 0 .27-.02.52-.04.71-.06 1.79-.15 2.61-.15.19 0 .37 0 .52.01 1.57.12 2.42 1.17 2.56 2.16.06.38 0 .9-.2 1.38l.58-.28c1.84-.9 4.37-2.12 5.83-2.61a5.142 5.074 0 0 1 1.64-.28c1.19 0 2.17.49 2.63 1.3.24.43.54 1.34-.2 2.52-.38.61-1 1.2-1.68 1.62a544.679 537.513 0 0 1-3.92 2.37c-.55.34-1.12.7-1.68 1.06-1.93 1.23-3.16 1.99-4.08 2.11a9.557 9.431 0 0 1-1.26.07c-.41 0-.87-.02-1.33-.03a56.725 55.978-180 0 0-1.31-.02c-.32 0-.61.01-.86.03-.36.03-.77.07-1.22.11-1.08.11-2.42.24-3.75.24" style="fill:#0072c6;stroke:none;stroke-width:12.23999977;stroke-linecap:butt"/></g><g transform="translate(11.931 -9.132)"><title>Sheet.17661</title><path d="M30.65 94.15c-2.03.68-6.49 2.98-7.51 3.4-1.2.51-3.59.81-6.25.77-1.47-.03-2.52-.19-3.11-.73 0 0-2.11-1.69-2.54-2.1-.72-.71.21-1.77.94-1.21.54.41 1.43 1.3 2.3 1.94.87.65 3.95.35 5.22.26 1.47-.1 2.29-.38 2.62-.54.48-.23.6-.93.55-1.23-.06-.43-.46-1.08-1.46-1.15s-3.21.18-3.54.19c-1.53.03-2.44-.32-2.9-.69-.46-.36-1.24-1.33-1.35-1.48-.78-1.09-2.92-1.52-4.75-1.35-1.52.14-4.11.82-5.59.78H.6a.598.59-180 0 0-.598.59L0 97.1a.598.59-180 0 0 .596.59H2.24c1.94 0 3.99.72 5.19 1.56 1.21.84 3.54 3.7 5.82 3.7 1.8 0 3.61-.26 4.88-.35 1.26-.1 3.69.1 4.68-.04.98-.13 3.31-1.81 5.29-3 1.21-.72 2.55-1.53 3.92-2.37.55-.33 1.02-.8 1.3-1.24.97-1.55-.71-2.46-2.67-1.8" style="fill:#fff;stroke:none;stroke-width:12.23999977;stroke-linecap:butt"/></g></g></g></svg>