<svg xmlns="http://www.w3.org/2000/svg" xml:space="preserve" width="75.586" height="60.495" style="font-size:12px;overflow:visible;color-interpolation-filters:sRGB;fill-rule:evenodd;stroke-linecap:square;stroke-miterlimit:3" viewBox="0 0 56.69 45.372"><defs><linearGradient id="a" x1="0" x2="46.943" y1="54.383" y2="54.383" gradientTransform="scale(1.20764 .82806)" gradientUnits="userSpaceOnUse"><stop offset="0" stop-color="#5ea0ef"/><stop offset=".18" stop-color="#559cec"/><stop offset=".47" stop-color="#3c91e5"/><stop offset=".84" stop-color="#1380da"/><stop offset="1" stop-color="#0078d4"/></linearGradient><linearGradient id="b" x1="0" x2="24.232" y1="41.041" y2="41.041" gradientTransform="scale(.7779 1.28552)" gradientUnits="userSpaceOnUse"><stop offset="0" stop-color="#b3b3b3"/><stop offset=".12" stop-color="#adadad"/><stop offset=".64" stop-color="#9b9b9b"/><stop offset="1" stop-color="#949494"/></linearGradient></defs><g transform="translate(-5.67 -4.523)"><title>Page-1</title><g transform="translate(5.67 -34.016)"><title>Software As A Service.17630</title><g transform="translate(0 -6.493)"><title>path26</title><path d="M56.69 71.78A12.747 12.366-180 0 0 45.61 59.9 16.017 15.539-180 0 0 29.1 45.04 16.484 15.992-180 0 0 13.35 55.4 15.216 14.762-180 0 0 0 69.62a15.416 14.956-180 0 0 15.95 14.27h27.26a4.004 3.885-180 0 0 .67 0 12.914 12.528-180 0 0 12.81-12.11" style="fill:url(#a);stroke:none;stroke-width:2.67736006;stroke-linecap:butt"/></g><g transform="translate(19.087)"><title>path28</title><path d="M18.85 82.35a1.602 1.554 0 0 1-1.63 1.56H1.64A1.602 1.554 0 0 1 0 82.35V54.32a1.602 1.554 0 0 1 1.64-1.56h15.58a1.602 1.554 0 0 1 1.63 1.56z" style="fill:url(#b);stroke:none;stroke-width:2.67736006;stroke-linecap:butt"/></g><g transform="translate(21.322 -1.683)"><title>b27878c5-7f3c-4613-bf1f-666b5e2</title><path d="M0 57.68h3.67v4.37H0Zm5.41 0h3.6v4.37h-3.6zm5.4 0h3.61v4.37h-3.61ZM0 64.68h3.67v4.37H0Zm5.41 0h3.6v4.37h-3.6zm5.4 0h3.61v4.37h-3.61ZM0 71.67h3.67v4.37H0Zm5.41 0h3.6v4.37h-3.6zm0 6.99h3.6v5.25h-3.6zm5.4-6.99h3.61v4.37h-3.61z" style="fill:#fff;stroke:none;stroke-width:2.67736006;stroke-linecap:butt"/></g></g></g></svg>