<svg xmlns="http://www.w3.org/2000/svg" xml:space="preserve" width="75.591" height="75.591" style="font-size:12px;overflow:visible;color-interpolation-filters:sRGB;fill-rule:evenodd;stroke-linecap:square;stroke-miterlimit:3" viewBox="0 0 56.693 56.693"><g transform="translate(-38.25 -38.25)"><title>Page-1</title><g transform="translate(38.25 -38.25)"><title>Sync.17626</title><title>Sheet.17627</title><title>Sheet.17628</title><circle cx="28.346" cy="104.846" r="28.346" style="fill:#015cda;stroke:none;stroke-width:38.25;stroke-linecap:butt"/><g transform="translate(10.892 -8.872)"><title>Sheet.17629</title><path d="M16.82 96.65h-.19c-3.97 0-7.64 1.4-10.62 3.61L0 94.24v15.83h15.82l-5.97-5.97a11.2 11.2 0 0 1 6.97-2.34c5.94 0 10.86 4.17 11.9 9.63h5.22a17.29 17.29-180 0 0-17.12-14.74m17.9 20.67H19.09l.08.04h-.08l5.78 5.79c-1.96 1.38-4.3 2.11-6.96 2.11-5.36 0-9.92-3.62-11.48-8.5H.95a17.32 17.32-180 0 0 16.95 13.6h.19c3.91 0 7.54-1.34 10.49-3.5l6.33 6.33v-15.87z" style="fill:#fff;stroke:none;stroke-width:38.25;stroke-linecap:butt"/></g></g></g></svg>