<svg xmlns="http://www.w3.org/2000/svg" xml:space="preserve" width="75.619" height="75.595" style="font-size:12px;overflow:visible;color-interpolation-filters:sRGB;fill-rule:evenodd;stroke-linecap:square;stroke-miterlimit:3" viewBox="0 0 56.715 56.696"><defs><linearGradient id="a" x1="-.017" x2="32.163" y1="118.41" y2="118.41" gradientTransform="scale(1.28874 .77595)" gradientUnits="userSpaceOnUse"><stop offset=".22" stop-color="#32d4f5"/><stop offset="1" stop-color="#198ab3"/></linearGradient><linearGradient id="b" x1="0" x2="23.153" y1="94.067" y2="94.067" gradientTransform="scale(1.0032 .9968)" gradientUnits="userSpaceOnUse"><stop offset=".22" stop-color="#32d4f5"/><stop offset="1" stop-color="#198ab3"/></linearGradient></defs><g transform="translate(-26.138 -26.138)"><title>Page-1</title><g transform="translate(26.16 -34.016)"><title>Tenant Status.17618</title><g transform="translate(0 -11.34)"><title>Icon-identity-230</title><title>path4</title><path d="M37.76 116.85a3.677 3.653-180 0 0 3.67-3.66 1.192 1.184-180 0 0 0-.43c-1.47-11.51-8.03-20.88-20.71-20.88S1.29 99.81 0 112.79a3.702 3.679-180 0 0 3.32 4.06z" style="fill:url(#a);stroke:none;stroke-width:26.1378994;stroke-linecap:butt"/><g transform="translate(14.428 -7.911)"><title>path6</title><path d="M6.29 102.51A11.64 11.565 0 0 1 0 100.67l6.29 16.18 6.19-16.08a11.487 11.414 0 0 1-6.19 1.74" style="fill:#fff;fill-opacity:.8;stroke:none;stroke-width:26.1378994;stroke-linecap:butt"/></g><g transform="translate(9.129 -22.273)"><title>circle8</title><ellipse cx="11.614" cy="105.307" rx="11.614" ry="11.54" style="fill:url(#b);stroke:none;stroke-width:26.1378994;stroke-linecap:butt"/></g></g><g transform="translate(20.862 -2.297)"><title>path6-6</title><path d="m29.13 101.99-5.88-5.82-10.33-3.96-3.27 5.02-4.33 3.45H0l1.65 3.36h6.31c4.59 7.11 10.62 12.81 10.62 12.81s6.01-3.96 10.62-10.89h2.11a13.411 13.326-180 0 0 1.87-3.59z" style="fill:#fff;stroke:none;stroke-width:13.67910004;stroke-linecap:butt"/></g><g transform="translate(20.335 -13.244)"><title>path10</title><path d="M26.59 98.44c-3.21 0-5.96 2.01-7.32 4.91-1.36-2.9-4.11-4.91-7.32-4.91-4.55 0-8.24 3.99-8.24 8.9 0 1.1.16 2.21.45 3.31H0l1.09 2.17h8.5l4.73-7.26 5.49 11.29 5.22-7.26 3.85 4.68h4.49c.91-2.17 1.46-4.5 1.46-6.93 0-4.91-3.69-8.9-8.24-8.9" style="fill:#dd5900;stroke:none;stroke-width:13.67910004;stroke-linecap:butt"/></g><g transform="translate(26.213)"><title>path12</title><path d="M30.48 103.19h-8.52l-2.69-3.27-5.7 7.92-5.41-11.11-3.26 5.02H0c4.28 8.14 13.39 15.1 13.39 15.1s7.16-4.55 11.76-11.49h4.24z" style="fill:#ba141a;stroke:none;stroke-width:13.67910004;stroke-linecap:butt"/></g></g></g></svg>