<svg xmlns="http://www.w3.org/2000/svg" xml:space="preserve" width="71.832" height="75.589" style="font-size:12px;overflow:visible;color-interpolation-filters:sRGB;fill-rule:evenodd;stroke-linecap:square;stroke-miterlimit:3" viewBox="0 0 53.874 56.692"><defs><linearGradient id="a" x1="-.015" x2="36.941" y1="124.357" y2="124.357" gradientTransform="scale(1.2935 .7731)" gradientUnits="userSpaceOnUse"><stop offset=".22" stop-color="#32d4f5"/><stop offset="1" stop-color="#198ab3"/></linearGradient><linearGradient id="b" x1="0" x2="26.58" y1="98.82" y2="98.82" gradientTransform="scale(1.00555 .99448)" gradientUnits="userSpaceOnUse"><stop offset=".22" stop-color="#32d4f5"/><stop offset="1" stop-color="#198ab3"/></linearGradient><linearGradient id="c" x1="-.001" x2="23.632" y1="89.725" y2="89.725" gradientTransform="scale(.90897 1.10014)" gradientUnits="userSpaceOnUse"><stop offset="0" stop-color="#1988d9"/><stop offset=".9" stop-color="#54aef0"/></linearGradient></defs><g transform="translate(-34 -34)"><title>Page-1</title><g transform="translate(34.018 -34.016)"><title>User Privacy.17607</title><title>Icon-manage-303</title><g transform="translate(0 -4.825)"><title>path4</title><path d="M43.52 124.71a4.241 4.195-180 0 0 4.25-4.16 2.558 2.53-180 0 0 0-.5c-1.65-13.32-9.26-23.91-23.57-23.91-14.3 0-22.58 9.09-24.2 23.94a4.275 4.228-180 0 0 3.8 4.6h39.72z" style="fill:url(#a);stroke:none;stroke-width:34;stroke-linecap:butt"/></g><g transform="translate(16.83 -13.88)"><title>path6</title><path d="M7.17 108.33A13.263 13.117 0 0 1 0 106.2l7.07 18.51 7.14-18.38a13.465 13.317 0 0 1-7.04 2" style="fill:#fff;fill-opacity:.8;stroke:none;stroke-width:34;stroke-linecap:butt"/></g><g transform="translate(10.637 -30.26)"><title>circle8</title><ellipse cx="13.364" cy="111.492" rx="13.364" ry="13.217" style="fill:url(#b);stroke:none;stroke-width:34;stroke-linecap:butt"/></g><g transform="translate(30.295)"><title>path10</title><path d="M23.56 109.63c0 7.59-9.29 13.72-11.31 14.98a.808.799 0 0 1-.774 0C9.32 123.25 0 117.12 0 109.63v-9.26a.74.732 0 0 1 .707-.732C7.94 99.44 6.29 96.31 11.71 96.31s3.74 3.13 10.98 3.33a.74.732 0 0 1 .707.732z" style="fill:#005ba1;stroke:none;stroke-width:34;stroke-linecap:butt"/></g><g transform="translate(31.305 -1.23)"><title>path12</title><path d="M21.44 110.86c0 6.99-8.51 12.62-10.37 13.75a.673.666 0 0 1-.707 0C8.52 123.48 0 117.95 0 110.86v-8.42a.64.633 0 0 1 .64-.666c6.73-.004 5.12-3.064 10.1-3.064s3.36 2.9 10.1 3.06a.64.633 0 0 1 .64.666z" style="fill:url(#c);stroke:none;stroke-width:34;stroke-linecap:butt"/></g></g></g></svg>