<svg xmlns="http://www.w3.org/2000/svg" xml:space="preserve" width="75.591" height="68.036" style="font-size:12px;overflow:visible;color-interpolation-filters:sRGB;fill-rule:evenodd;stroke-linecap:square;stroke-miterlimit:3" viewBox="0 0 56.693 51.027"><g transform="translate(-12.24 -12.237)"><title>Page-1</title><g transform="translate(12.24 -34.016)"><title>Virtual Assistant.17589</title><title>g36</title><g transform="translate(10.205)"><title>path4</title><path d="M25.26 85.14H11.03c1.83 6.69-.25 8.66-11.03 8.66v3.48h36.28V93.8c-10.78 0-12.86-1.97-11.02-8.66" style="fill:#7a7a7a;stroke:none;stroke-width:12.23999977;stroke-linecap:butt"/></g><g transform="translate(2.268 -11.597)"><title>path6</title><path d="M48.72 57.85H3.09C1.38 57.85 0 59.39 0 61.1v32.96c0 1.7 1.38 3.22 3.09 3.22h45.63c1.71 0 3.44-1.52 3.44-3.22V61.1c0-1.72-1.73-3.25-3.44-3.25" style="fill:#a0a1a2;stroke:none;stroke-width:12.23999977;stroke-linecap:butt"/></g><g transform="translate(2.268 -11.596)"><title>path8</title><path d="m48.59 57.86-.03-.01H3.08C1.38 57.85 0 59.39 0 61.1v32.96c0 1.7 1.38 3.22 3.08 3.22h1.19z" style="fill:#fff;fill-opacity:.2;stroke:none;stroke-width:12.23999977;stroke-linecap:butt"/></g><g transform="translate(6.803 -16.235)"><title>path10</title><path d="M0 67.129h43.087v30.15H0z" style="fill:#59b4d9;stroke:none;stroke-width:12.23999977;stroke-linecap:butt"/></g><g transform="translate(10.205)"><title>path12</title><path d="m0 93.8 36.28-.02v3.5H0Z" style="fill:#a0a1a2;stroke:none;stroke-width:12.23999977;stroke-linecap:butt"/></g><g transform="translate(27.54 -47.881)"><title>path14</title><path d="M1.61 96.46a.805.823 0 1 1-1.61 0 .805.823 0 1 1 1.61 0" style="fill:#b8d432;stroke:none;stroke-width:12.23999977;stroke-linecap:butt"/></g><g transform="translate(17.008 -19.714)"><title>path16</title><path d="M2.26 97.28h10.78c1.07 0 2.08-.52 2.72-1.39l.76-1.04c.6-.82-.06-1.98-1.06-1.84L0 94.96Z" style="fill:#00188f;stroke:none;stroke-width:12.23999977;stroke-linecap:butt"/></g><g transform="translate(22.677 -29.57)"><title>path18</title><path d="M6.29 97.28h6.13a2.887 2.952-180 0 0 2.89-2.95l1.13-4.54a2.887 2.952-180 0 0-2.88-2.95H2.89c-1.6 0-2.89.69-2.89 2.96 0 5.74 2.89 7.48 6.29 7.48" style="fill:#fff;fill-opacity:.4;stroke:none;stroke-width:12.23999977;stroke-linecap:butt"/></g><g transform="translate(1.185 -29.57)"><title>path20</title><path d="M8.51 97.28H2.89A2.887 2.952 0 0 1 0 94.33v-4.54a2.887 2.952 0 0 1 2.89-2.95h9.02c1.59 0 2.88.69 2.88 2.95 0 5.75-2.88 7.49-6.28 7.49" style="fill:#59b4d9;stroke:none;stroke-width:12.23999977;stroke-linecap:butt"/></g><g transform="translate(1.185 -29.57)"><title>path22</title><path d="M8.51 97.28H2.89A2.887 2.952 0 0 1 0 94.33v-4.54a2.887 2.952 0 0 1 2.89-2.95h9.02c1.59 0 2.88.69 2.88 2.95 0 5.75-2.88 7.49-6.28 7.49" style="fill:#fff;fill-opacity:.4;stroke:none;stroke-width:12.23999977;stroke-linecap:butt"/></g><g transform="translate(1.7 -28.99)"><title>path24</title><path d="M2.89 97.28S0 95.96 0 94.33v-4.54a2.888 2.954 0 0 1 2.89-2.95h7.88zm21.54 0s-2.89-1.32-2.89-2.95v-4.54a2.887 2.952 0 0 1 2.89-2.95h7.89z" style="fill:#fff;fill-opacity:.2;stroke:none;stroke-width:12.23999977;stroke-linecap:butt"/></g><g transform="translate(16.493 -32.47)"><title>path26</title><path d="M34.37 89.33c-4.38-.64-8.91-1.33-8.91-1.33v3.48l9.12 1.16s-1.89-.24 0 .01c2.64.35 3.35 1.15 3.35 3.47v1.16c1.14 0 2.27-1.71 2.27-3.48s-1.45-3.83-5.83-4.47m-28.71.99H0v6.69c1.14-3.21 4.55-3.21 5.66 0z" style="fill:#68217a;stroke:none;stroke-width:12.23999977;stroke-linecap:butt"/></g><g transform="translate(0 -27.831)"><title>path28</title><path d="M35.1 97.28h-6.14c-5.07 0-7.98-3.36-7.98-9.22 0-2.94 1.71-4.7 4.58-4.7h10.67c2.53 0 4.59 2.43 4.59 4.7 0 4.58-1.13 9.22-5.72 9.22m-9.54-10.44c-.97 0-1.18.22-1.18 1.22 0 5.09 2.45 5.74 4.59 5.74h6.13c2.32 0 2.32-5.74 2.32-5.74 0-.67-.53-1.22-1.19-1.22zM9.69 97.28h-5.1A4.592 4.696 0 0 1 0 92.59v-4.53a4.592 4.696 0 0 1 4.59-4.7h8.5c2.87 0 4.59 1.76 4.59 4.7 0 5.86-2.91 9.22-7.99 9.22m-5.1-10.44c-.66 0-1.19.55-1.19 1.22v4.53c0 .67.53 1.21 1.19 1.21h5.1c2.14 0 4.59-.65 4.59-5.74 0-1-.21-1.22-1.19-1.22z" style="fill:#68217a;stroke:none;stroke-width:12.23999977;stroke-linecap:butt"/></g><g transform="translate(0 -37.108)"><title>path30</title><path d="M39.69 97.28h1.13c2.27 0 2.27-2.32 2.27-3.48a1.134 1.16-180 0 0-1.14-1.16h-5.67zm-37.94 0H0V93.8a1.134 1.16 0 0 1 1.13-1.16h4.02z" style="fill:#68217a;stroke:none;stroke-width:12.23999977;stroke-linecap:butt"/></g><g transform="translate(0 -27.831)"><title>path32</title><path d="M50.86 84.69c-4.38-.64-8.91-1.33-8.91-1.33h-5.67l.01.01c-.02 0-.04-.01-.06-.01H25.56c-1.97 0-3.38.85-4.08 2.32h-4.3c-.7-1.47-2.11-2.32-4.09-2.32H1.13A1.134 1.16-180 0 0 0 84.52v8.07a4.592 4.696-180 0 0 4.59 4.69h5.1c4.21 0 6.92-2.32 7.73-6.44 1.11-1.15 2.7-1.16 3.81-.01.81 4.13 3.52 6.45 7.74 6.45h6.13c4.59 0 5.72-4.64 5.72-9.22 0-.02-.01-.04-.01-.06h.01c1 0 1.55-.46 1.86-1.07l7.6.97.79.11c2.64.35 3.36 1.15 3.36 3.47v1.16c1.13 0 2.26-1.71 2.26-3.48s-1.45-3.83-5.83-4.47M9.69 93.8h-5.1a1.186 1.213 0 0 1-1.19-1.21v-4.53c0-.67.53-1.22 1.19-1.22h8.5c.98 0 1.19.22 1.19 1.22 0 5.09-2.45 5.74-4.59 5.74m25.41 0h-6.13c-2.14 0-4.59-.65-4.59-5.74 0-1 .21-1.22 1.18-1.22h10.67c.66 0 1.19.55 1.19 1.22 0 0 0 5.74-2.32 5.74m15.73-5.83.24.03Z" style="fill:#ec008c;fill-opacity:.15;stroke:none;stroke-width:12.23999977;stroke-linecap:butt"/></g><g transform="translate(1.134 -39.427)"><title>path34</title><path d="M1.13 96.12v1.16H0v-1.16zm38.56 0v1.16h-1.14v-1.16z" style="fill:#fff;fill-opacity:.8;stroke:none;stroke-width:12.23999977;stroke-linecap:butt"/></g></g></g></svg>