<svg xmlns="http://www.w3.org/2000/svg" width="18" height="18" viewBox="0 0 18 18"><defs><linearGradient id="a" x1="9" x2="9" y1="15.83" y2="5.79" gradientUnits="userSpaceOnUse"><stop offset="0" stop-color="#32bedd"/><stop offset=".18" stop-color="#32caea"/><stop offset=".41" stop-color="#32d2f2"/><stop offset=".78" stop-color="#32d4f5"/></linearGradient></defs><title>Icon-web-50</title><path fill="url(#a)" d="M.5 5.79h17v9.48a.57.57 0 0 1-.57.57H1.07a.57.57 0 0 1-.57-.57z"/><path fill="#005ba1" d="M1.07 2.17h15.86a.57.57 0 0 1 .57.57v3.05H.5V2.73a.57.57 0 0 1 .57-.56"/><rect width="12.43" height="1.46" x="2.79" y="3.25" fill="#f2f2f2" rx=".28"/><path fill="#fff" d="m6.68 9-.9 3h-.72l-.55-2a1 1 0 0 1 0-.27 1 1 0 0 1 0 .26L3.8 12h-.71L2.2 9h.71l.55 2.19a1.4 1.4 0 0 1 0 .26 1.3 1.3 0 0 1 0-.26L4.18 9h.65l.55 2.2a1.6 1.6 0 0 1 0 .26 1.5 1.5 0 0 1 0-.26L6 9Zm4.6 0-.9 3h-.72l-.55-2a1 1 0 0 1 0-.27A2 2 0 0 1 9 10l-.6 2h-.7l-.9-3h.71l.56 2.19a1.6 1.6 0 0 1 0 .26c0-.08 0-.17.05-.26L8.79 9h.64l.55 2.2a1.6 1.6 0 0 1 0 .26 1.5 1.5 0 0 1 0-.26l.65-2.2Zm4.61 0L15 12h-.72l-.57-2a2 2 0 0 1 0-.27 1 1 0 0 1-.05.26L13 12h-.7l-.9-3h.72l.55 2.19a1.4 1.4 0 0 1 0 .26 1.3 1.3 0 0 1 0-.26L13.39 9H14l.54 2.2a1.6 1.6 0 0 1 0 .26 2 2 0 0 1 0-.26l.69-2.2Z"/></svg>