<svg xmlns="http://www.w3.org/2000/svg" xml:space="preserve" width="45.351" height="56.69" style="font-size:12px;overflow:visible;color-interpolation-filters:sRGB;fill-rule:evenodd;stroke-linecap:square;stroke-miterlimit:3" viewBox="0 0 45.351 56.69"><defs><linearGradient id="a" x1="0" x2="33.697" y1="47.173" y2="47.173" gradientTransform="scale(.59441 1.68234)" gradientUnits="userSpaceOnUse"><stop offset="0" stop-color="#0078d4"/><stop offset="1" stop-color="#83b9f9"/></linearGradient><linearGradient id="b" x1="0" x2="23.833" y1="33.364" y2="33.364" gradientTransform="scale(.42042 2.37859)" gradientUnits="userSpaceOnUse"><stop offset="0" stop-color="#5ea0ef"/><stop offset="1" stop-color="#83b9f9"/></linearGradient></defs><g transform="translate(-39.679 -39.681)"><title>Page-1</title><g transform="translate(39.679 -39.679)"><title>Advanced Tools.16143</title><title>g14</title><g transform="translate(11.965 -46.403)"><title>path2</title><path d="M29.44 136.05H0v-3.81h29.44a2.415 2.482 0 0 1 .95.2l2.63 1.14a.595.611 0 0 1 0 1.128l-2.63 1.142a2.47 2.539 0 0 1-.95.2" style="fill:#005ba1;stroke:none;stroke-width:39.67860031;stroke-linecap:butt"/></g><g transform="translate(13.176 -14.595)"><title>path4</title><path d="m28.45 128.28 2.43 6.17a1.162 1.194 0 0 1-1.36 1.6l-6.71-1.72a3.353 3.446 0 0 1-1.56-.91L0 111.59l6.3-6.47 21.42 22.01a3.405 3.5 0 0 1 .73 1.15" style="fill:#0078d4;stroke:none;stroke-width:39.67860031;stroke-linecap:butt"/></g><title>rect6</title><path d="M0 125.75a10.018 10.296-180 0 0 10.02 10.3 10.018 10.296-180 0 0 10.01-10.3v-36.1a10.018 10.296-180 0 0-10.01-10.29A10.018 10.296-180 0 0 0 89.65Z" style="fill:url(#a);stroke:none;stroke-width:39.67860031;stroke-linecap:butt"/><g transform="translate(10.016)"><title>path8</title><path d="M0 136.05V79.36a10.019 10.296 0 0 1 10.02 10.29v36.1A10.019 10.296 0 0 1 0 136.05" style="fill:url(#b);stroke:none;stroke-width:39.67860031;stroke-linecap:butt"/></g><g transform="translate(5.7 -42.431)"><title>circle10</title><ellipse cx="4.315" cy="131.615" rx="4.315" ry="4.435" style="fill:#fff;fill-opacity:.6;stroke:none;stroke-width:39.67860031;stroke-linecap:butt"/></g><g transform="translate(10.016 -42.431)"><title>path12</title><path d="M4.32 131.62A4.315 4.435 0 0 1 0 136.05v-8.87a4.315 4.435 0 0 1 4.32 4.44" style="fill:#fff;fill-opacity:.5;stroke:none;stroke-width:39.67860031;stroke-linecap:butt"/></g></g></g></svg>