<svg xmlns="http://www.w3.org/2000/svg" xml:space="preserve" width="56.693" height="56.69" style="font-size:12px;overflow:visible;color-interpolation-filters:sRGB;fill-rule:evenodd;stroke-linecap:square;stroke-miterlimit:3" viewBox="0 0 56.693 56.69"><defs><linearGradient id="a" x1="0" x2="31.444" y1="61.166" y2="61.166" gradientTransform="scale(.7426 1.34663)" gradientUnits="userSpaceOnUse"><stop offset="0" stop-color="#b3b2b3"/><stop offset="1" stop-color="#979797"/></linearGradient><linearGradient id="b" x1="0" x2="23.284" y1="99.039" y2="99.039" gradientTransform="scale(.98086 1.0195)" gradientUnits="userSpaceOnUse"><stop offset="0" stop-color="#6bb9f2"/><stop offset="1" stop-color="#1b93eb"/></linearGradient></defs><g transform="translate(-34 -34.004)"><title>Page-1</title><g transform="translate(34 -34.016)"><title>API Management Scale Out (auto-scale).16011</title><title>Sheet.16012</title><g transform="translate(6.469 -7.7)"><title>Sheet.16013</title><path d="M23.35 123.49a1.286 1.282 0 0 1-1.35 1.22H1.35A1.286 1.282 0 0 1 0 123.49v-39.9a1.286 1.282 0 0 1 1.35-1.22H22a1.286 1.282 0 0 1 1.35 1.21z" style="fill:url(#a);stroke:none;stroke-width:34;stroke-linecap:butt"/></g><g transform="translate(9.887 -31.896)"><title>Sheet.16014</title><path d="M0 121.91a2.679 2.67 0 0 1 2.53-2.79h11.64a2.682 2.674 0 0 1 2.53 2.79 2.682 2.674 0 0 1-2.53 2.8H2.54a2.679 2.67 0 0 1-2.54-2.8m0-8.29a2.679 2.67 0 0 1 2.53-2.79h11.64a2.682 2.674 0 0 1 2.53 2.79 2.682 2.674 0 0 1-2.53 2.79H2.54A2.675 2.668 0 0 1 0 113.62" style="fill:#003067;stroke:none;stroke-width:34;stroke-linecap:butt"/></g><g transform="translate(11.28 -41.118)"><title>Sheet.16015</title><ellipse cx="1.876" cy="122.838" rx="1.876" ry="1.871" style="fill:#5ea0ef;stroke:none;stroke-width:34;stroke-linecap:butt"/></g><g transform="translate(11.28 -32.828)"><title>Sheet.16016</title><ellipse cx="1.876" cy="122.838" rx="1.876" ry="1.871" style="fill:#5ea0ef;stroke:none;stroke-width:34;stroke-linecap:butt"/></g><title>Sheet.16017</title><path d="M9 124.71H5.98v-2.96H9Zm5.95 0h-3.01v-2.96h3.02zm5.95 0h-3.01v-2.96h3.02zm5.96 0h-3.01v-2.96h3.02zm5.96 0h-3.01v-2.96h3.01zm6.24 0h-3.01v-2.96h3.01zM0 121.75h2.96v2.96H0Zm0-5.66h2.96v2.95H0Zm0-5.93h2.96v2.96H0Zm2.96-3.07H0v-3.01h2.96zm0-6.03H0v-2.99h2.96zm0-6.02H0v-2.99h2.96zm0-6.03H0v-2.98h2.96zm0-6.02H0V80h2.96zm0-6.02H0v-2.99h2.96ZM0 68.02h2.96v2.95H0Zm21.08 2.95h-3.02v-2.95h3.02zm-6.04 0h-3.01v-2.95h3.01zm-6.04 0H5.98v-2.95H9Zm15.11-2.95h2.97v2.95h-2.97zm14.92 2.95h-3.01v-2.95h3.01zm-5.92 0h-3.02v-2.95h3.02zm5.92 24.09h-2.95v-3.01h2.95zm0 6h-2.95v-3.01h2.95zm0-12.32h-2.95v-3.01h2.95zm0-6.02h-2.95v-3.01h2.95zm0-6.03h-2.95v-3h2.95z" style="fill:#76bc2d;stroke:none;stroke-width:34;stroke-linecap:butt"/><g transform="translate(33.855 -.057)"><title>Sheet.16018</title><path d="m11.35 124.53 11.32-11.29a.581.58-180 0 0 0-.816L11.35 101.14a.572.57-180 0 0-.812 0 .565.564-180 0 0-.17.413l-.008 6.637a.581.58 0 0 1-.578.576l-9.202.004a.581.58-180 0 0-.578.576L0 116.36a.581.58-180 0 0 .578.576l9.212-.006a.575.573 0 0 1 .578.573l.002 6.627a.575.573-180 0 0 .569.58.569.567-180 0 0 .407-.183z" style="fill:url(#b);stroke:none;stroke-width:34;stroke-linecap:butt"/></g></g></g></svg>