<svg xmlns="http://www.w3.org/2000/svg" xmlns:xlink="http://www.w3.org/1999/xlink" xml:space="preserve" width="61.855" height="51.025" style="font-size:12px;overflow:visible;color-interpolation-filters:sRGB;fill-rule:evenodd;stroke-linecap:square;stroke-miterlimit:3" viewBox="0 0 61.855 51.025"><defs><linearGradient id="a" x1="0" x2="1" y1="0" y2="0" gradientTransform="rotate(-90 .5 .5)"><stop offset="0" stop-color="#0078d4"/><stop offset="1" stop-color="#5ea0ef"/></linearGradient><linearGradient xlink:href="#a" id="b" x1="0" x2="31.941" y1="121.311" y2="121.311" gradientTransform="scale(1.4336 .69755)" gradientUnits="userSpaceOnUse"/><linearGradient xlink:href="#a" id="c" x1="0" x2="31.941" y1="121.311" y2="121.311" gradientTransform="scale(1.4336 .69755)" gradientUnits="userSpaceOnUse"/><linearGradient xlink:href="#a" id="d" x1="0" x2="37.101" y1="94.837" y2="94.837" gradientTransform="scale(1.23422 .81023)" gradientUnits="userSpaceOnUse"/></defs><g transform="translate(-21.854 -21.86)"><title>Page-1</title><g transform="translate(27.015 -34.016)"><title>API Management Pricing Tier.16025</title><title>Sheet.16026</title><g transform="translate(10.904 -28.745)"><title>Sheet.16027</title><path d="M0 104.72a2.238 2.178-180 0 0 2.24 2.18h41.31a2.238 2.178-180 0 0 2.24-2.18V86.8a2.238 2.178-180 0 0-2.24-2.18H2.24A2.238 2.178-180 0 0 0 86.8Z" style="fill:url(#b);stroke:none;stroke-width:21.85709953;stroke-linecap:butt"/></g><g transform="translate(10.904 -18.19)"><title>Sheet.16028</title><path d="M0 104.72a2.238 2.178-180 0 0 2.24 2.18h41.31a2.238 2.178-180 0 0 2.24-2.18V86.8a2.238 2.178-180 0 0-2.24-2.18H2.24A2.238 2.178-180 0 0 0 86.8Z" style="fill:url(#c);stroke:none;stroke-width:21.85709953;stroke-linecap:butt"/></g><g transform="translate(10.904)"><title>Sheet.16029</title><path d="M0 104.72a2.238 2.178-180 0 0 2.24 2.18h41.31a2.238 2.178-180 0 0 2.24-2.18v-25.7a2.238 2.178-180 0 0-2.24-2.18H2.24A2.238 2.178-180 0 0 0 79.02Z" style="fill:url(#d);stroke:none;stroke-width:21.85709953;stroke-linecap:butt"/></g><g transform="translate(.435 -17.554)"><title>Sheet.16030</title><path d="M12.02 78.66A16.996 16.54-180 1 0 29.01 95.2a16.996 16.54-180 0 0-16.99-16.54" style="fill:#50e6ff;stroke:none;stroke-width:21.85709953;stroke-linecap:butt"/></g><g transform="translate(0 -12.113)"><title>Sheet.16031</title><path d="M12.45 106.9a17.61 17.137 0 1 1 17.61-17.14 17.63 17.156 0 0 1-17.61 17.14m0-33.08a16.382 15.942-180 1 0 16.38 15.94 16.402 15.961-180 0 0-16.38-15.94" style="fill:#fff;stroke:none;stroke-width:21.85709953;stroke-linecap:butt"/></g><g transform="translate(6.822 -17.516)"><title>Sheet.16032</title><path d="M6.89 84.53a1.6 1.556 0 1 1-1.6-1.56 1.6 1.556 0 0 1 1.6 1.56m-.07 21.27a1.6 1.556 0 1 1-1.59-1.56 1.6 1.556 0 0 1 1.59 1.56m-6.77-3.55v-3.47a6.848 6.664-180 0 0 2.11 1.19 6.775 6.593-180 0 0 2.3.41 5.14 5.002-180 0 0 1.19-.12 2.832 2.756-180 0 0 .85-.33 1.507 1.466-180 0 0 .51-.5 1.29 1.255-180 0 0 .16-.62 1.376 1.34-180 0 0-.26-.82 2.872 2.795-180 0 0-.73-.66 7.581 7.378-180 0 0-1.1-.59c-.43-.19-.89-.38-1.38-.58a7.003 6.814 0 0 1-2.79-1.87A4.17 4.059 0 0 1 0 91.64a4.34 4.224 0 0 1 .51-2.09 4.24 4.125 0 0 1 1.37-1.44 6.062 5.899 0 0 1 2.01-.82 10.261 9.985 0 0 1 2.41-.26 14.58 14.188 0 0 1 2.21.15 8.794 8.558 0 0 1 1.77.46v3.25a5.246 5.105-180 0 0-.89-.48 6.861 6.677-180 0 0-.94-.35 7.051 6.862-180 0 0-.99-.21 7.175 6.982-180 0 0-.95-.07 4.962 4.828-180 0 0-1.11.11 2.859 2.782-180 0 0-.85.32 1.604 1.56-180 0 0-.54.49 1.188 1.157-180 0 0-.19.65 1.277 1.242-180 0 0 .22.7 2.46 2.395-180 0 0 .6.59 6.318 6.148-180 0 0 .95.54c.37.18.79.36 1.26.56a13.917 13.543 0 0 1 1.72.83 6.196 6.03 0 0 1 1.31 1 3.994 3.887 0 0 1 .83 1.27 5.196 5.056 0 0 1-.22 3.84 4.122 4.011 0 0 1-1.38 1.43 5.982 5.821 0 0 1-2.03.78 11.748 11.432 0 0 1-2.43.24 13.435 13.074 0 0 1-2.5-.22 7.51 7.309 0 0 1-2.1-.66" style="fill:#fff;stroke:none;stroke-width:21.85709953;stroke-linecap:butt"/></g></g></g></svg>