<svg xmlns="http://www.w3.org/2000/svg" xml:space="preserve" width="56.583" height="56.787" style="font-size:12px;overflow:visible;color-interpolation-filters:sRGB;fill-rule:evenodd;stroke-linecap:square;stroke-miterlimit:3" viewBox="0 0 56.583 56.787"><defs><linearGradient id="a" x1="-5.809" x2="49.616" y1="63.98" y2="63.98" gradientTransform="scale(1.00828 .99179)" gradientUnits="userSpaceOnUse"><stop offset="0" stop-color="#0078d4"/><stop offset="1" stop-color="#5ea0ef"/></linearGradient></defs><g transform="translate(-21.858 -21.857)"><title>Page-1</title><g transform="translate(24.581 -34.016)"><title>API Management Location.16077</title><title>Sheet.16078</title><g transform="translate(31.516 -44.572)"><title>Sheet.16079</title><path d="M2.55 100.92 0 110.17l9.9 2.49s4.68-7.66 3.33-10.01c-.79-1.42-10.68-1.73-10.68-1.73" style="fill:#9cebff;stroke:none;stroke-width:21.85709953;stroke-linecap:butt"/></g><g transform="translate(3.517 -6.135)"><title>Sheet.16080</title><path d="M39.17 112.66A27.917 27.469 0 1 1 4.95 69.25l.28-.2a27.912 27.464 0 0 1 33.94 43.61" style="fill:url(#a);stroke:none;stroke-width:21.85709953;stroke-linecap:butt"/></g><title>Sheet.16081</title><path d="M53.86 84.82a28.091 27.64-180 0 0-2.68-11.74v-.53h-.25A28.326 27.872-180 0 0 29.4 57.27a6.417 6.314-180 0 0-1.31-.28l-.02.12c-.82-.08-1.65-.13-2.5-.13a28.343 27.888-180 0 0-2.89.15v-.14a6.576 6.47-180 0 0-1.53.37A28.32 27.866-180 0 0 .2 72.55H.19v.05a28.199 27.746-180 0 0 21.83 39.82c.06.03.12.07.18.1l.03-.07a26.782 26.352-180 0 0 6.32.05l.01.02.04-.03a28.326 27.872-180 0 0 25.26-27.67m-26.09 25.05c-.24.02-.48.02-.72.04v-13.5h10.32c-2.29 6.01-5.94 11.4-9.6 13.46M13.38 96.41h10.95v13.51c-.46-.02-.92-.03-1.37-.07-3.66-2.08-7.29-7.45-9.58-13.44M11 84.82a41.433 40.768 0 0 1 1.15-9.59h12.18v18.5H12.47A32.296 31.778 0 0 1 11 84.82m10.86-24.86c.81-.12 1.62-.2 2.46-.24v12.83H12.9c2.26-6.91 6.1-11.43 8.96-12.59m15.99 12.59h-10.8V59.73c.55.04 1.11.08 1.65.14 2.89 1.05 6.85 5.62 9.16 12.68zm-10.8 21.18v-18.5h11.56a41.433 40.768 0 0 1 1.15 9.59 32.29 31.772 0 0 1-1.47 8.91zm14.33-18.5h7.81a25.297 24.892 0 0 1 .26 18.5h-8.3a34.642 34.087-180 0 0 1.33-8.91 44.05 43.343-180 0 0-1.1-9.59m6.48-2.68h-7.19a32.537 32.015-180 0 0-5.7-11.1 25.689 25.277 0 0 1 12.89 11.1M15.63 61.64a32.855 32.328-180 0 0-5.54 10.91H3.27a25.718 25.306 0 0 1 12.36-10.91M1.94 75.23h7.44a44.05 43.343-180 0 0-1.11 9.6 34.642 34.087-180 0 0 1.33 8.91H1.68a25.297 24.892 0 0 1 .26-18.51m.95 21.19h7.56a38.305 37.69-180 0 0 6.94 12.22 25.664 25.253 0 0 1-14.5-12.23zm30.29 12.43a37.98 37.372-180 0 0 7.12-12.43h7.95a25.683 25.271 0 0 1-15.07 12.42z" style="fill:#8bc1fd;stroke:none;stroke-width:21.85709953;stroke-linecap:butt"/><g transform="translate(9.434 -18.806)"><title>Sheet.16082</title><path d="M17.49 98.21c3.51-8.16 15.16-18.72 17.63-20.9a.447.44-180 0 0-.08-.716 19.053 18.748-180 0 0-10.27-1.824.412.406-180 0 0-.25.132C23.35 76.14 12.39 87.77 9.14 95.43l-.06.14-.05.06-1.05 2.47a.635.625 0 0 1-.825.335l-.415-.175-5.32-2.18A1.083 1.065-180 0 0 0 97.47l6.1 14.61a1.089 1.071-180 0 0 1.42.58l14.84-6.01a1.085 1.067-180 0 0 0-1.97l-5.32-2.19-.41-.17a.635.625 0 0 1-.34-.812c.41-.978.72-2.168 1.2-3.298" style="fill:#c8f3ff;stroke:none;stroke-width:21.85709953;stroke-linecap:butt"/></g></g></g></svg>