<svg xmlns="http://www.w3.org/2000/svg" xml:space="preserve" width="56.69" height="42.528" style="font-size:12px;overflow:visible;color-interpolation-filters:sRGB;fill-rule:evenodd;stroke-linecap:square;stroke-miterlimit:3" viewBox="0 0 56.69 42.528"><defs><linearGradient id="a" x1="0" x2="49.101" y1="78.528" y2="78.528" gradientTransform="scale(1.15456 .86613)" gradientUnits="userSpaceOnUse"><stop offset="0" stop-color="#0078d4"/><stop offset=".16" stop-color="#1380da"/><stop offset=".53" stop-color="#3c91e5"/><stop offset=".82" stop-color="#559cec"/><stop offset="1" stop-color="#5ea0ef"/></linearGradient></defs><g transform="translate(-34 -34)"><title>Page-1</title><g transform="translate(34 -34.016)"><title>API Management Backend.16106</title><title>Sheet.16107</title><title>Sheet.16108</title><path d="M56.69 97.29a12.945 13.367-180 0 0-11.05-13.01A16.189 16.716-180 0 0 29.1 68.02 16.567 17.107-180 0 0 13.35 79.3 15.339 15.838-180 0 0 0 94.92a15.56 16.066-180 0 0 15.97 15.61h27.24a4.598 4.748-180 0 0 .7 0 13.008 13.432-180 0 0 12.78-13.24" style="fill:url(#a);stroke:none;stroke-width:34;stroke-linecap:butt"/><g transform="translate(14.268 -13.868)"><title>Sheet.16109</title><ellipse cx="2.236" cy="108.23" rx="2.236" ry="2.309" style="fill:#e3e3e3;stroke:none;stroke-width:34;stroke-linecap:butt"/></g><g transform="translate(8.504 -7.851)"><title>Sheet.16110</title><path d="M15.87 103.09v-1.85h-.25l-1.92-.65-.5-1.27.97-2.15-1.26-1.3h-.25l-1.79.98-1.23-.52-.79-2.25H7.06v.26l-.63 1.99-1.33.52-2.04-1.01-1.26 1.3v.26l.91 1.85-.51 1.27-2.2.82v2.01h.25l1.92.65.51 1.27-.98 2.15 1.26 1.3h.25l1.8-.94 1.23.52.78 2.24h1.8v-.26l.63-1.98 1.23-.52 2.08 1 1.26-1.3v-.26l-.92-1.85.51-1.27zM8 105.79a3.465 3.577 0 1 1 3.46-3.58A3.433 3.545 0 0 1 8 105.79" style="fill:#fff;stroke:none;stroke-width:34;stroke-linecap:butt"/></g><g transform="translate(28.85 -23.397)"><title>Sheet.16111</title><ellipse cx="2.646" cy="107.808" rx="2.646" ry="2.732" style="fill:#e3e3e3;stroke:none;stroke-width:34;stroke-linecap:butt"/></g><g transform="translate(22.047 -16.274)"><title>Sheet.16112</title><path d="M18.9 101.73v-2.22h-.29l-2.33-.74-.53-1.66 1.16-2.6-1.51-1.56h-.28l-2.18 1.13-1.44-.61-.95-2.7H8.31v.32l-.75 2.38-1.48.61-2.46-1.2-1.51 1.56.16.29.88 2.41-.5 1.63-2.65.87v2.38h.31l2.3.78.54 1.46-1.17 2.6 1.58 1.66.31-.16 2.15-1.14 1.48.62.94 2.7h2.14v-.33l.76-2.37 1.48-.62 2.49 1.21 1.51-1.57-.16-.29-.91-2.34.6-1.53zm-9.45 3.25a4.157 4.293 0 1 1 4.16-4.29 4.126 4.26 0 0 1-4.16 4.29" style="fill:#fff;stroke:none;stroke-width:34;stroke-linecap:butt"/></g></g></g></svg>