<svg xmlns="http://www.w3.org/2000/svg" xml:space="preserve" width="56.692" height="53.92" style="font-size:12px;overflow:visible;color-interpolation-filters:sRGB;fill-rule:evenodd;stroke-linecap:square;stroke-miterlimit:3" viewBox="0 0 56.692 53.92"><g transform="translate(-12.24 -12.242)"><title>Page-1</title><g transform="translate(12.24 -34.016)"><title>API Management Product.16019</title><title>Sheet.16020</title><title>Sheet.16021</title><path d="M28.22 100.06 2.65 92.5A4.048 4 0 0 1 0 89.24V56.75c0-1.72 1.66-2.77 3.32-3.22l25.65-7.25c.2 0 1.02.21 1.02.42l1.62 52.97a5.284 5.22 0 0 1-3.39.39" style="fill:#3796c4;stroke:none;stroke-width:12.23999977;stroke-linecap:butt"/><g transform="translate(28.562 -.194)"><title>Sheet.16022</title><path d="m25.86 92.79-23.39 7.35A1.882 1.86 0 0 1 0 98.31V47.13a.658.65 0 0 1 .85-.65l25.01 8.22c1.14.34 2.27 1.12 2.27 2.14v33.33a2.733 2.7 0 0 1-2.27 2.62m-1.13-33.61-19.28-5.6v40.33l19.28-5.6z" style="fill:#59b2d7;stroke:none;stroke-width:12.23999977;stroke-linecap:butt"/></g><g transform="translate(42.576 -23.139)"><title>Sheet.16023</title><path d="M4.35 100.14H0V84.36l4.35.88z" style="fill:#57a300;stroke:none;stroke-width:12.23999977;stroke-linecap:butt"/></g><g transform="translate(40.15 -14.142)"><title>Sheet.16024</title><path d="M8.97 90.52 0 90.91l4.68 9.23z" style="fill:#57a300;stroke:none;stroke-width:12.23999977;stroke-linecap:butt"/></g></g></g></svg>