<svg xmlns="http://www.w3.org/2000/svg" xml:space="preserve" width="45.35" height="56.69" style="font-size:12px;overflow:visible;color-interpolation-filters:sRGB;fill-rule:evenodd;stroke-linecap:square;stroke-miterlimit:3" viewBox="0 0 45.35 56.69"><defs><linearGradient id="a" x1="0" x2="50.704" y1="60.837" y2="60.837" gradientTransform="scale(.8944 1.11806)" gradientUnits="userSpaceOnUse"><stop offset="0" stop-color="#773adc"/><stop offset="1" stop-color="#a67af4"/></linearGradient><linearGradient id="b" x1="0" x2="12.741" y1="136.036" y2="136.036" gradientTransform="scale(1.19299 .83823)" gradientUnits="userSpaceOnUse"><stop offset="0" stop-color="#42e8ca"/><stop offset="1" stop-color="#3cd4c2"/></linearGradient><linearGradient id="c" x1="0" x2="17.445" y1="254.497" y2="254.497" gradientTransform="scale(2.1806 .4586)" gradientUnits="userSpaceOnUse"><stop offset="0" stop-color="#42e8ca"/><stop offset="1" stop-color="#3cd4c2"/></linearGradient></defs><g transform="translate(-34 -34.004)"><title>Page-1</title><g transform="translate(34 -34.016)"><title>API Management Schema.16004</title><title>Sheet.16005</title><title>Sheet.16006</title><path d="M44.55 86.26H30.29a3.212 3.279 0 0 1-3.19-3.3V68.48a1.83 1.868-180 0 0-1.23-.46H1.89A1.888 1.928-180 0 0 0 69.95v52.82a1.888 1.928-180 0 0 1.89 1.94h41.57a1.879 1.918-180 0 0 1.89-1.89V87.83a1.897 1.937-180 0 0-.8-1.57" style="fill:url(#a);stroke:none;stroke-width:34;stroke-linecap:butt"/><g transform="translate(27.102 -38.453)"><title>Sheet.16007</title><path d="M0 106.9v14.51a3.212 3.279-180 0 0 3.19 3.3h14.33z" style="fill:#773adc;stroke:none;stroke-width:34;stroke-linecap:butt"/></g><g transform="translate(7.232 -14.803)"><title>Sheet.16008</title><path d="M30.89 111.52v13.19h-1.85v-13.19a.352.36-180 0 0-.352-.35H16.37v13.54h-1.85v-13.54H2.2a.352.36-180 0 0-.352.359l.002 13.181H0v-13.19a2.206 2.252 0 0 1 2.2-2.24h26.49a2.203 2.249 0 0 1 2.2 2.24" style="fill:#f2f2f2;stroke:none;stroke-width:34;stroke-linecap:butt"/></g><g transform="rotate(180 15.137 107.079)"><title>Sheet.16009</title><path d="M0 123.45a1.234 1.26-180 0 0 1.23 1.26h12.73a1.234 1.26-180 0 0 1.24-1.26v-8.16a1.234 1.26-180 0 0-1.24-1.26H1.23A1.234 1.26-180 0 0 0 115.29Z" style="fill:url(#b);stroke:none;stroke-width:34;stroke-linecap:butt"/></g><g transform="translate(3.662 -10.794)"><title>Sheet.16010</title><path d="M15.75 116.71h6.53a1.234 1.26 0 0 1 1.23 1.26v5.48a1.234 1.26 0 0 1-1.23 1.26h-6.53a1.234 1.26 0 0 1-1.23-1.26v-5.48a1.234 1.26 0 0 1 1.23-1.26M0 117.97v5.48a1.234 1.26-180 0 0 1.23 1.26h6.53a1.234 1.26-180 0 0 1.23-1.26v-5.48a1.234 1.26-180 0 0-1.23-1.26H1.23A1.234 1.26-180 0 0 0 117.97m29.04 0v5.48a1.234 1.26-180 0 0 1.23 1.26h6.53a1.234 1.26-180 0 0 1.24-1.26v-5.48a1.234 1.26-180 0 0-1.24-1.26h-6.53a1.234 1.26-180 0 0-1.23 1.26" style="fill:url(#c);stroke:none;stroke-width:34;stroke-linecap:butt"/></g></g></g></svg>