<svg xmlns="http://www.w3.org/2000/svg" xml:space="preserve" width="56.693" height="53.858" style="font-size:12px;overflow:visible;color-interpolation-filters:sRGB;fill-rule:evenodd;stroke-linecap:square;stroke-miterlimit:3" viewBox="0 0 56.693 53.858"><g transform="translate(-12.24 -12.24)"><title>Page-1</title><g transform="translate(12.24 -34.016)"><title>API Management Policy Fragment.16036</title><title>Sheet.16037</title><g transform="translate(50.284 -4.896)"><title>Sheet.16038</title><path d="M0 95.22v4.89z" style="fill:#57a300"/><path d="M0 95.22v4.89" style="stroke:none;stroke-width:12.23999977;stroke-linecap:butt"/></g><g transform="translate(14.79 -24.481)"><title>Sheet.16039</title><path d="M36.97 74.41H0v4.9h35.74v15.91h-7.39v4.89h8.62c2.04 0 3.7-1.65 3.7-3.67V78.08c0-2.02-1.66-3.67-3.7-3.67" style="fill:#a0a1a2;stroke:none;stroke-width:12.23999977;stroke-linecap:butt"/></g><g transform="translate(36.974 -20.809)"><title>Sheet.16040</title><path d="M7.39 100.11 0 93.99l7.39-6.12Z" style="fill:#a0a1a2;stroke:none;stroke-width:12.23999977;stroke-linecap:butt"/></g><g transform="translate(1.232 -3.672)"><title>Sheet.16041</title><path d="M4.93 95.22V79.31h12.32v-4.9H3.7c-2.04 0-3.7 1.65-3.7 3.67v18.36c0 2.02 1.66 3.67 3.7 3.67h33.27v-4.89z" style="fill:#57a300;stroke:none;stroke-width:12.23999977;stroke-linecap:butt"/></g><g transform="translate(22.06)"><title>Sheet.16042</title><path d="m13.68 87.87 7.39 6.12-7.39 6.12zm13.31 2.45v4.9zM0 71.96v4.9z" style="fill:#57a300"/><path d="m13.68 87.87 7.39 6.12-7.39 6.12zm13.31 2.45v4.9M0 71.96v4.9" style="stroke:none;stroke-width:12.23999977;stroke-linecap:butt"/></g><g transform="translate(20.952 -19.585)"><title>Sheet.16043</title><path d="M0 98.38V87.16c0-.98.81-1.76 1.8-1.73h11.29a1.75 1.738 0 0 1 1.7 1.68v11.22c.03.97-.76 1.78-1.75 1.78H1.75A1.748 1.736 0 0 1 0 98.38" style="fill:#0399c6;stroke:none;stroke-width:12.23999977;stroke-linecap:butt"/></g><g transform="translate(0 -41.618)"><title>Sheet.16044</title><ellipse cx="6.162" cy="93.994" rx="6.162" ry="6.12" style="fill:#0399c6;stroke:none;stroke-width:12.23999977;stroke-linecap:butt"/></g><g transform="translate(44.368)"><title>Sheet.16045</title><ellipse cx="6.162" cy="93.994" rx="6.162" ry="6.12" style="fill:#0399c6;stroke:none;stroke-width:12.23999977;stroke-linecap:butt"/></g></g></g></svg>