<svg xmlns="http://www.w3.org/2000/svg" xml:space="preserve" width="56.726" height="56.693" style="font-size:12px;overflow:visible;color-interpolation-filters:sRGB;fill-rule:evenodd;stroke-linecap:square;stroke-miterlimit:3" viewBox="0 0 56.726 56.693"><defs><linearGradient id="a" x1="0" x2="31.966" y1="116.782" y2="116.782" gradientTransform="scale(1.19274 .8384)" gradientUnits="userSpaceOnUse"><stop offset="0" stop-color="#5e9624"/><stop offset=".01" stop-color="#5e9724"/><stop offset=".35" stop-color="#6cab29"/><stop offset=".68" stop-color="#73b82c"/><stop offset="1" stop-color="#76bc2d"/></linearGradient><linearGradient id="b" x1="-.014" x2="31.952" y1="116.781" y2="116.781" gradientTransform="scale(1.19274 .8384)" gradientUnits="userSpaceOnUse"><stop offset="0" stop-color="#0078d4"/><stop offset=".82" stop-color="#5ea0ef"/></linearGradient><linearGradient id="c" x1="0" x2="15.396" y1="156.808" y2="156.808" gradientTransform="scale(1.38084 .7242)" gradientUnits="userSpaceOnUse"><stop offset="0" stop-color="#005ba1"/><stop offset=".14" stop-color="#035da3"/><stop offset=".3" stop-color="#0b63aa"/><stop offset=".47" stop-color="#196eb6"/><stop offset=".65" stop-color="#2d7cc6"/><stop offset=".84" stop-color="#468edb"/><stop offset="1" stop-color="#5ea0ef"/></linearGradient></defs><g transform="translate(-34 -34)"><title>Page-1</title><g transform="translate(34.017 -34.016)"><title>API Connection.16137</title><title>Icon-web-48</title><g transform="translate(18.583 -9.449)"><title>Sheet.16139</title><path d="M26.08 97.91H11.81A12.6 12.6-180 0 0 0 108.96h4.47a7.84 7.84 0 0 1 7.34-6.3h14.27a8.157 8.157 0 0 1 7.68 8.54 8.19 8.19 0 0 1-7.68 8.56H11.81a7.84 7.84 0 0 1-7.34-6.3H0a12.6 12.6-180 0 0 11.81 11.25h14.27a12.787 12.787-180 0 0 12.03-13.42 12.787 12.787-180 0 0-12.03-13.38" style="fill:url(#a);stroke:none;stroke-width:34;stroke-linecap:butt"/></g><g transform="translate(0 -20.44)"><title>Sheet.16140</title><path d="M26.3 119.95H12.03a8.157 8.157 0 0 1-7.68-8.63 8.19 8.19 0 0 1 7.68-8.56H26.3a7.84 7.84 0 0 1 7.34 6.3h4.47A12.6 12.6-180 0 0 26.3 97.91H12.03A12.787 12.787-180 0 0 0 111.32a12.787 12.787-180 0 0 12.03 13.39H26.3a12.6 12.6-180 0 0 11.81-11.06h-4.47a7.84 7.84 0 0 1-7.34 6.3" style="fill:url(#b);stroke:none;stroke-width:34;stroke-linecap:butt"/></g><g transform="translate(16.85 -20.346)"><title>Sheet.16141</title><path d="M9.45 119.86H0v4.85h9.45a12.6 12.6-180 0 0 11.81-11.15h-4.47a7.84 7.84 0 0 1-7.34 6.3" style="fill:url(#c);stroke:none;stroke-width:34;stroke-linecap:butt"/></g><title>Sheet.16142</title><path d="M0 68.016h56.693v56.693H0z" style="fill:none;stroke:none;stroke-width:34;stroke-linecap:butt"/></g></g></svg>