<svg xmlns="http://www.w3.org/2000/svg" xml:space="preserve" width="56.69" height="53.868" style="font-size:12px;overflow:visible;color-interpolation-filters:sRGB;fill-rule:evenodd;stroke-linecap:square;stroke-miterlimit:3" viewBox="0 0 56.69 53.868"><defs><linearGradient id="a" x1="0" x2="47.283" y1="98.844" y2="98.844" gradientTransform="scale(1.19894 .83407)" gradientUnits="userSpaceOnUse"><stop offset="0" stop-color="#0078d4"/><stop offset=".155" stop-color="#1380da"/><stop offset=".53" stop-color="#3c91e5"/><stop offset=".82" stop-color="#559cec"/><stop offset="1" stop-color="#5ea0ef"/></linearGradient><linearGradient id="b" x1="-.656" x2="16.679" y1="224.398" y2="224.398" gradientTransform="scale(1.98336 .5042)" gradientUnits="userSpaceOnUse"><stop offset="0" stop-color="#a67af4"/><stop offset="1" stop-color="#773adc"/></linearGradient></defs><g transform="translate(-34 -33.996)"><title>Page-1</title><g transform="translate(34 -34.016)"><title>API Playground.15999</title><title>Sheet.16000</title><g transform="translate(0 -14.43)"><title>Sheet.16001</title><path d="M56.69 109.56a12.888 12.653 0 0 1-12.79 12.19c-.02 0-.29.02-.77.03h-2.66c-2.76.02-6.82.04-10.84.06h-2.66l-10.75.04H14.7c-.16 0-.32-.01-.47-.03-.22-.01-.44-.04-.66-.06A15.433 15.151 0 0 1 0 107.36a15.2 14.923 0 0 1 13.37-14.37 16.46 16.16 0 0 1 15.74-10.54 16.063 15.77 0 0 1 16.54 15.08 12.734 12.501 0 0 1 11.04 12.03" style="fill:url(#a);stroke:none;stroke-width:34;stroke-linecap:butt"/></g><g transform="translate(14.268 -3.562)"><title>Sheet.16002</title><path d="M28.16 102.68v19.2h-1.34a1.332 1.308 0 0 1-1.33-1.31v-17.88a1.335 1.311 0 1 1 2.67 0zM2.67 120.56v-17.87a1.335 1.311-180 1 0-2.67 0v19.17h1.34a1.33 1.305-180 0 0 1.33-1.24.258.254-180 0 0 0-.068zM14.08 90.5a1.335 1.311-180 0 0-1.33 1.32v28.75a1.335 1.311-180 0 0 1.33 1.31h1.34V91.81a1.335 1.311-180 0 0-1.34-1.31" style="fill:#50e6ff;stroke:none;stroke-width:34;stroke-linecap:butt"/></g><g transform="translate(12.456)"><title>Sheet.16003</title><path d="M7.6 117.51a4.45 4.37 0 1 1-4.45-4.37 4.45 4.37 0 0 1 4.45 4.37m25.48 0a4.45 4.37-180 1 0-4.45 4.37 4.45 4.37-180 0 0 4.45-4.37m-12.74 0a4.45 4.37-180 1 0-4.45 4.37 4.45 4.37-180 0 0 4.45-4.37" style="fill:url(#b);stroke:none;stroke-width:34;stroke-linecap:butt"/></g></g></g></svg>