<svg xmlns="http://www.w3.org/2000/svg" xml:space="preserve" width="54.367" height="56.057" style="font-size:12px;overflow:visible;color-interpolation-filters:sRGB;fill-rule:evenodd;stroke-linecap:square;stroke-miterlimit:3" viewBox="0 0 54.367 56.057"><g transform="translate(-6.37 -6.374)"><title>Page-1</title><g transform="translate(6.375 -34.016)"><title>API Management Power Platform.16033</title><title>Sheet.16034</title><title>Sheet.16035</title><path d="M19.99 40.39a3.39 3.437-180 0 0-3.03 1.9l-4.51 9.15c-1.13 2.29.51 4.98 3.03 4.98h21.85c2.31 0 4.3.96 5.71 2.46H12.22A5.564 5.642-180 0 0 7.24 62L.61 75.46a5.507 5.584-180 0 0-.06.11l-.01.02a5.412 5.488-180 0 0 .04 4.88l6.95 14.08c1.25 2.53 4.81 2.53 6.06 0l9.69-19.64h14.05a10.333 10.478-180 0 0 9.15-5.62l.06-.12h.01l.02-.06 6.59-13.36.1-.2c3.43-6.96-1.56-15.16-9.24-15.16Zm26.54 23.29 3.91-7.89-.73 1.48a7.294 7.396 0 0 1-6.52 4.07h-2.66v.01H12.22a3.133 3.177-180 0 0-2.8 1.75l-4.63 9.38a5.652 5.73 0 0 1 .69-.04h31.85a7.902 8.012-180 0 0 7.07-4.43ZM2.76 79.37a3.007 3.049 0 0 1-.02-2.72 3.133 3.177 0 0 1 2.79-1.74h15.03l-9.14 18.54c-.35.71-1.36.71-1.72 0z" style="fill:#000;stroke:none;stroke-width:6.375;stroke-linecap:butt"/></g></g></svg>