<svg xmlns="http://www.w3.org/2000/svg" xml:space="preserve" width="55.827" height="47.793" style="font-size:12px;overflow:visible;color-interpolation-filters:sRGB;fill-rule:evenodd;stroke-linecap:square;stroke-miterlimit:3" viewBox="0 0 55.827 47.793"><g transform="translate(-12.239 -12.242)"><title>Page-1</title><g transform="translate(11.808 -34.016)"><title>API Management External Cache.16091</title><title>Sheet.16092</title><g transform="translate(.335)"><title>Sheet.16093</title><path d="M.11 82.31c-.11.57.45 1.25 1.56 1.71l22.66 9.43c2.01.8 5.36.8 7.36 0l22.66-9.43c1.12-.46 1.56-1.14 1.56-1.71v-5.45c.11.57-.44 1.25-1.56 1.7l-22.66 9.43c-2 .8-5.35.8-7.36 0L1.67 78.56C.45 78.11 0 77.43.22 76.74Z" style="fill:#ba141a;stroke:none;stroke-width:12.23999977;stroke-linecap:butt"/></g><g transform="translate(0 -5.455)"><title>Sheet.16094</title><path d="M54.68 80.95c2.01.79 2.01 2.27 0 3.07l-22.65 9.43c-2.01.8-5.36.8-7.37 0L2.01 84.02c-2.01-.8-2.01-2.28 0-3.07l22.65-9.43c2.01-.8 5.36-.8 7.37 0z" style="fill:#ba141a;stroke:none;stroke-width:12.23999977;stroke-linecap:butt"/></g><g transform="translate(.335 -9.547)"><title>Sheet.16095</title><path d="M.11 82.31c-.11.57.45 1.25 1.56 1.71l22.66 9.43c2.01.8 5.36.8 7.36 0l22.66-9.43c1.12-.46 1.56-1.14 1.56-1.71v-5.45c.11.57-.44 1.25-1.56 1.7l-22.66 9.43c-2 .8-5.35.8-7.36 0L1.67 78.56C.45 78.11 0 77.43.22 76.74Z" style="fill:#ba141a;stroke:none;stroke-width:12.23999977;stroke-linecap:butt"/></g><g transform="translate(0 -15.116)"><title>Sheet.16096</title><path d="M54.68 80.95c2.01.79 2.01 2.27 0 3.07l-22.65 9.43c-2.01.8-5.36.8-7.37 0L2.01 84.13c-2.01-.79-2.01-2.27 0-3.07l22.65-9.43c2.01-.8 5.36-.8 7.37 0z" style="fill:#ba141a;stroke:none;stroke-width:12.23999977;stroke-linecap:butt"/></g><g transform="translate(.335 -19.207)"><title>Sheet.16097</title><path d="M.11 82.31c-.11.57.45 1.25 1.56 1.71l22.66 9.43c2.01.8 5.36.8 7.36 0l22.66-9.43c1.12-.46 1.56-1.14 1.56-1.71v-5.45c.11.57-.44 1.25-1.56 1.7l-22.66 9.43c-2 .8-5.35.8-7.36 0L1.67 78.56C.45 78.11 0 77.43.22 76.74Z" style="fill:#ba141a;stroke:none;stroke-width:12.23999977;stroke-linecap:butt"/></g><g transform="translate(.335)"><title>Sheet.16098</title><path d="M.11 82.31c-.11.57.45 1.25 1.56 1.71l22.66 9.43c2.01.8 5.36.8 7.36 0l22.66-9.43c1.12-.46 1.56-1.14 1.56-1.71v-5.45c.11.57-.44 1.25-1.56 1.7l-22.66 9.43c-2 .8-5.35.8-7.36 0L1.67 78.56C.45 78.11 0 77.43.22 76.74Z" style="fill:#1e1e1e;fill-opacity:.25;stroke:none;stroke-width:12.23999977;stroke-linecap:butt"/></g><g transform="translate(.335 -9.547)"><title>Sheet.16099</title><path d="M.11 82.31c-.11.57.45 1.25 1.56 1.71l22.66 9.43c2.01.8 5.36.8 7.36 0l22.66-9.43c1.12-.46 1.56-1.14 1.56-1.71v-5.45c.11.57-.44 1.25-1.56 1.7l-22.66 9.43c-2 .8-5.35.8-7.36 0L1.67 78.56C.45 78.11 0 77.43.22 76.74Z" style="fill:#1e1e1e;fill-opacity:.25;stroke:none;stroke-width:12.23999977;stroke-linecap:butt"/></g><g transform="translate(.335 -19.207)"><title>Sheet.16100</title><path d="M.11 82.31c-.11.57.45 1.25 1.56 1.71l22.66 9.43c2.01.8 5.36.8 7.36 0l22.66-9.43c1.12-.46 1.56-1.14 1.56-1.71v-5.45c.11.57-.44 1.25-1.56 1.7l-22.66 9.43c-2 .8-5.35.8-7.36 0L1.67 78.56C.45 78.11 0 77.43.22 76.74Z" style="fill:#1e1e1e;fill-opacity:.25;stroke:none;stroke-width:12.23999977;stroke-linecap:butt"/></g><g transform="translate(0 -24.663)"><title>Sheet.16101</title><path d="M54.68 80.95c2.01.79 2.01 2.27 0 3.07l-22.65 9.43c-2.01.8-5.36.8-7.37 0L2.01 84.02c-2.01-.8-2.01-2.28 0-3.07l22.65-9.43c2.01-.8 5.36-.8 7.37 0z" style="fill:#ba141a;stroke:none;stroke-width:12.23999977;stroke-linecap:butt"/></g><g transform="translate(9.374 -27.163)"><title>Sheet.16102</title><path d="M11.94 86.74c-2.57 1.14-6.81 1.14-9.37 0-2.57-1.13-2.57-3.06 0-4.2 2.56-1.14 6.8-1.14 9.37 0s2.68 3.07 0 4.2m-1.67 3.07 13.28-1.59-3.57 6.03z" style="fill:#fff;stroke:none;stroke-width:12.23999977;stroke-linecap:butt"/></g><g transform="translate(32.476 -33.073)"><title>Sheet.16103</title><path d="M7.92 94.25 0 90.61l7.92-3.64 7.93 3.64z" style="fill:#1e1e1e;fill-opacity:.25;stroke:none;stroke-width:12.23999977;stroke-linecap:butt"/></g><g transform="translate(32.476 -33.073)"><title>Sheet.16104</title><path d="M7.92 94.25 0 90.61l7.92-3.64Z" style="fill:#1e1e1e;fill-opacity:.25;stroke:none;stroke-width:12.23999977;stroke-linecap:butt"/></g><g transform="translate(20.646 -38.756)"><title>Sheet.16105</title><path d="M5.13 91.86 0 91.4l4.58-1.13-.56-2.39 3.9 1.59 4.8-1.02-2.23 2.27 3.57 1.71-5.24-.23-2.57 2.05z" style="fill:#fff;stroke:none;stroke-width:12.23999977;stroke-linecap:butt"/></g></g></g></svg>