<svg xmlns="http://www.w3.org/2000/svg" xml:space="preserve" width="45.35" height="56.7" style="font-size:12px;overflow:visible;color-interpolation-filters:sRGB;fill-rule:evenodd;stroke-linecap:square;stroke-miterlimit:3" viewBox="0 0 45.35 56.7"><defs><linearGradient id="a" x1="0" x2="6.975" y1="122.763" y2="122.763" gradientTransform="scale(.9893 1.01081)" gradientUnits="userSpaceOnUse"><stop offset="0" stop-color="#c69aeb"/><stop offset="1" stop-color="#6f4bb2"/></linearGradient><linearGradient id="b" x1="0" x2="50.708" y1="66.574" y2="66.574" gradientTransform="scale(.89433 1.11816)" gradientUnits="userSpaceOnUse"><stop offset="0" stop-color="#50e6ff"/><stop offset="1" stop-color="#32bedd"/></linearGradient></defs><g transform="translate(-37.222 -37.218)"><title>Page-1</title><g transform="translate(37.222 -37.222)"><title>API definition.16129</title><title>g14</title><g transform="translate(10.012 -30.681)"><title>path2</title><path d="M9.34 124H3.48A3.474 3.546 0 0 1 0 120.45v-15.32h3.24v15.32a.231.236-180 0 0 .231.236l5.859.004Zm12.83-18.87v15.32a.231.236 0 0 1-.244.236l-2.656.004v-.06a8.67 8.85-180 0 0-8.55-7.18 1.417 1.446-180 0 0-.35 2.87 1.675 1.71-180 0 0 .35 0 5.862 5.984 0 0 1 0 11.94 1.417 1.446-180 0 0-.35 2.87 1.342 1.37-180 0 0 .35 0A8.657 8.838-180 0 0 19.2 124h2.72a3.474 3.546-180 0 0 3.48-3.55v-15.32z" style="fill:#32bedd;stroke:none;stroke-width:37.22230148;stroke-linecap:butt"/></g><g transform="translate(15.963 -36.019)"><title>rect4</title><path d="M0 127.66a3.406 3.477-180 0 0 3.41 3.48h.08a3.406 3.477-180 0 0 3.41-3.48v-.09a3.406 3.477-180 0 0-3.41-3.48h-.08A3.406 3.477-180 0 0 0 127.57Z" style="fill:url(#a);stroke:none;stroke-width:37.22230148;stroke-linecap:butt"/></g><g transform="translate(10.774 -20.5)"><title>rect6</title><path d="M0 129.66a1.45 1.48-180 0 0 1.45 1.48h21.17a1.45 1.48-180 0 0 1.45-1.48v-.34a1.45 1.48-180 0 0-1.45-1.48H1.45A1.45 1.48-180 0 0 0 129.32Z" style="fill:#32bedd;stroke:none;stroke-width:37.22230148;stroke-linecap:butt"/></g><g transform="translate(10.774 -14.595)"><title>rect8</title><path d="M0 129.66a1.45 1.48-180 0 0 1.45 1.48h21.17a1.45 1.48-180 0 0 1.45-1.48v-.34a1.45 1.48-180 0 0-1.45-1.48H1.45A1.45 1.48-180 0 0 0 129.32Z" style="fill:#32bedd;stroke:none;stroke-width:37.22230148;stroke-linecap:butt"/></g><g transform="translate(10.774 -8.687)"><title>rect10</title><path d="M0 129.66a1.45 1.48-180 0 0 1.45 1.48h12.27a1.45 1.48-180 0 0 1.45-1.48v-.34a1.45 1.48-180 0 0-1.45-1.48H1.45A1.45 1.48-180 0 0 0 129.32Z" style="fill:#32bedd;stroke:none;stroke-width:37.22230148;stroke-linecap:butt"/></g><title>path12</title><path d="M42.28 77.59v50.4H3.09v-50.4h39.18Zm1.22-3.15H1.85A1.851 1.89-180 0 0 0 76.33v52.92a1.851 1.89-180 0 0 1.85 1.89H43.5a1.851 1.89-180 0 0 1.85-1.89V76.33a1.851 1.89-180 0 0-1.85-1.89" style="fill:url(#b)"/><path d="M42.28 77.59v50.4H3.09v-50.4h39.18m1.23-3.15H1.85A1.851 1.89-180 0 0 0 76.33v52.92a1.851 1.89-180 0 0 1.85 1.89H43.5a1.851 1.89-180 0 0 1.85-1.89V76.33a1.851 1.89-180 0 0-1.85-1.89" style="stroke:none;stroke-width:37.22230148;stroke-linecap:butt"/></g></g></svg>