<svg xmlns="http://www.w3.org/2000/svg" xml:space="preserve" width="56.699" height="56.691" style="font-size:12px;overflow:visible;color-interpolation-filters:sRGB;fill-rule:evenodd;stroke-linecap:square;stroke-miterlimit:3" viewBox="0 0 56.699 56.691"><defs><linearGradient id="a" x1="-2.83" x2="18.679" y1="78.238" y2="78.238" gradientTransform="scale(1.00486 .99517)" gradientUnits="userSpaceOnUse"><stop offset="0" stop-color="#5ea0ef"/><stop offset=".995" stop-color="#0078d4"/></linearGradient><linearGradient id="b" x1="0" x2="21.602" y1="75.305" y2="75.305" gradientTransform="scale(1.00474 .99528)" gradientUnits="userSpaceOnUse"><stop offset="0" stop-color="#50e6ff"/><stop offset=".995" stop-color="#32bedd"/></linearGradient></defs><g transform="translate(-5.74 -5.747)"><title>Page-1</title><g transform="translate(5.745 -34.016)"><title>API Management Authorisation.16113</title><title>layer1</title><g transform="translate(47.546 -47.632)"><title>path4</title><path d="M2.98 96.45 0 93.5l5.94-5.88a.78.772 0 0 1 1.102 0l1.878 1.86a.78.772 0 0 1 0 1.093z" style="fill:#32bedd;stroke:none;stroke-width:5.7446599;stroke-linecap:butt"/></g><title>path6</title><path d="m6.09 87.46 2.99 2.96-5.86 5.81a.775.767 0 0 1-1.095 0L.23 94.36a.775.767 0 0 1-.008-1.091Z" style="fill:#0078d4;stroke:none;stroke-width:5.7446599;stroke-linecap:butt"/><g transform="translate(7.005 -7.171)"><title>path8</title><path d="M0 82.41a10.022 9.927-180 0 0 14.17 14.04l4.6-4.55L4.6 77.86Z" style="fill:url(#a);stroke:none;stroke-width:5.7446599;stroke-linecap:butt"/></g><g transform="translate(16.777 -16.963)"><title>path10</title><path d="m7.88 82.46.28.28a1.507 1.493 0 0 1 0 2.11l-5.75 5.7L0 88.16l5.75-5.7a1.51 1.495 0 0 1 2.13 0m5.96 5.9.27.28a1.507 1.493 0 0 1 0 2.11l-5.75 5.7-2.41-2.38 5.76-5.71a1.51 1.495 0 0 1 2.13 0" style="fill:#c3f1ff;stroke:none;stroke-width:5.7446599;stroke-linecap:butt"/></g><g transform="translate(10.481 -10.738)"><title>path12</title><path d="M19.21 93.12 3.37 77.43a.755.747-180 0 0-1.068 0L.22 79.49a.755.747-180 0 0 0 1.056L16.06 96.23a.755.747-180 0 0 1.068 0l2.082-2.06a.755.747-180 0 0 0-1.056z" style="fill:#5ea0ef;stroke:none;stroke-width:5.7446599;stroke-linecap:butt"/></g><g transform="translate(30.92 -30.923)"><title>path14</title><path d="M18.77 91.9A10.024 9.93-180 0 0 4.59 77.86L0 82.42l14.17 14.03Z" style="fill:url(#b);stroke:none;stroke-width:5.7446599;stroke-linecap:butt"/></g><g transform="translate(25.36 -25.299)"><title>path16</title><path d="m6.68 96.02-.27-.28a1.507 1.493 0 0 1 0-2.11l5.75-5.7 2.41 2.39-5.76 5.7a1.507 1.493 0 0 1-2.12 0zm-5.96-5.9-.28-.28a1.507 1.493 0 0 1 0-2.11l5.75-5.7 2.42 2.39-5.75 5.7a1.507 1.493 0 0 1-2.14 0" style="fill:#c3f1ff;stroke:none;stroke-width:5.7446599;stroke-linecap:butt"/></g><g transform="translate(26.785 -26.703)"><title>path18</title><path d="m.22 80.55 15.84 15.68a.755.747-180 0 0 1.066 0l2.084-2.05a.755.747-180 0 0 0-1.056L3.37 77.43a.755.747-180 0 0-1.066 0L.22 79.49a.755.747-180 0 0 0 1.056z" style="fill:#50e6ff;stroke:none;stroke-width:5.7446599;stroke-linecap:butt"/></g></g></g></svg>