<svg xmlns="http://www.w3.org/2000/svg" xml:space="preserve" width="56.69" height="39.511" style="font-size:12px;overflow:visible;color-interpolation-filters:sRGB;fill-rule:evenodd;stroke-linecap:square;stroke-miterlimit:3" viewBox="0 0 56.69 39.511"><defs><linearGradient id="a" x1="0" x2="47.324" y1="66.93" y2="66.93" gradientTransform="scale(1.19791 .83479)" gradientUnits="userSpaceOnUse"><stop offset="0" stop-color="#0078d4"/><stop offset="1" stop-color="#5ea0ef"/></linearGradient></defs><g transform="translate(-21.857 -21.857)"><title>Page-1</title><g transform="translate(21.857 -34.016)"><title>API Management Gateway.16087</title><title>Sheet.16088</title><title>Sheet.16089</title><path d="M56.69 82.95a12.74 12.496-180 0 0-11.05-12.01A16.052 15.745-180 0 0 29.1 55.88a16.473 16.158-180 0 0-15.74 10.53A15.2 14.91-180 0 0 0 80.75a15.424 15.13-180 0 0 15.96 14.54c2.43 0 25.76.28 27.94-.16a12.893 12.647-180 0 0 12.79-12.18" style="fill:url(#a);stroke:none;stroke-width:21.85709953;stroke-linecap:butt"/><g transform="translate(14.521 -.187)"><title>Sheet.16090</title><path d="M7.94 95.57c-.43-5.94 1.79-12.38 5.41-18.51.51-.87 1.15-1.64 1.6-2.39a.518.508 0 0 1 .707-.18l.313.19 4.83 2.77a.516.506-180 0 0 .76-.566L17.93 63.25a.514.504-180 0 0-.63-.361L3.41 66.45a.516.506-180 0 0-.132.927L8.1 70.15l.32.18a.516.506 0 0 1 .186.693L7.49 72.9l-.02.07-.06.11C3.18 80.16 0 88.48.52 95.46Z" style="fill:#c8f3ff;stroke:none;stroke-width:21.85709953;stroke-linecap:butt"/></g></g></g></svg>