<svg xmlns="http://www.w3.org/2000/svg" xml:space="preserve" width="56.69" height="45.354" style="font-size:12px;overflow:visible;color-interpolation-filters:sRGB;fill-rule:evenodd;stroke-linecap:square;stroke-miterlimit:3" viewBox="0 0 56.69 45.354"><defs><linearGradient id="a" x1="0" x2="43.475" y1="104.357" y2="104.357" gradientTransform="scale(1.30398 .76688)" gradientUnits="userSpaceOnUse"><stop offset="0" stop-color="#32bedd"/><stop offset=".18" stop-color="#32caea"/><stop offset=".41" stop-color="#32d2f2"/><stop offset=".78" stop-color="#32d4f5"/></linearGradient></defs><g transform="translate(-34 -34)"><title>Page-1</title><g transform="translate(34 -34.016)"><title>App Service App Assigned Address.15881</title><title>Icon-networking-69</title><title>Sheet.15883</title><path d="M0 80.03h56.69v31.45a1.9 1.891 0 0 1-1.9 1.89H1.9a1.9 1.891 0 0 1-1.9-1.89Z" style="fill:url(#a);stroke:none;stroke-width:34;stroke-linecap:butt"/><g transform="translate(0 -33.344)"><title>Sheet.15884</title><path d="M1.9 101.36h52.89a1.9 1.891 0 0 1 1.9 1.89v10.12H0v-10.15a1.9 1.891 0 0 1 1.9-1.86" style="fill:#767676;stroke:none;stroke-width:34;stroke-linecap:butt"/></g><g transform="translate(36.484 -14.167)"><title>Sheet.15885</title><ellipse cx="4.602" cy="108.792" rx="4.602" ry="4.579" style="fill:#f2f2f2;stroke:none;stroke-width:34;stroke-linecap:butt"/></g><g transform="translate(23.944 -14.167)"><title>Sheet.15886</title><ellipse cx="4.602" cy="108.792" rx="4.602" ry="4.579" style="fill:#f2f2f2;stroke:none;stroke-width:34;stroke-linecap:butt"/></g><g transform="translate(11.005 -14.167)"><title>Sheet.15887</title><ellipse cx="4.602" cy="108.792" rx="4.602" ry="4.579" style="fill:#f2f2f2;stroke:none;stroke-width:34;stroke-linecap:butt"/></g><g transform="translate(7.637 -36.927)"><title>Sheet.15888</title><path d="M0 112.44a.934.929-180 0 0 .934.929l39.586.001a.934.929-180 0 0 .934-.929l-.004-2.981a.934.929-180 0 0-.934-.929L.93 108.53a.934.929-180 0 0-.934.929z" style="fill:#f2f2f2;stroke:none;stroke-width:34;stroke-linecap:butt"/></g></g></g></svg>