<svg xmlns="http://www.w3.org/2000/svg" xml:space="preserve" width="48.19" height="56.69" style="font-size:12px;overflow:visible;color-interpolation-filters:sRGB;fill-rule:evenodd;stroke-linecap:square;stroke-miterlimit:3" viewBox="0 0 48.19 56.69"><defs><linearGradient id="a" x1="0" x2="52.267" y1="62.714" y2="62.714" gradientTransform="scale(.92199 1.08461)" gradientUnits="userSpaceOnUse"><stop offset="0" stop-color="#0078d4"/><stop offset="1" stop-color="#83b9f9"/></linearGradient></defs><g transform="translate(-34 -34.004)"><title>Page-1</title><g transform="translate(34 -34.016)"><title>App Service Management.15752</title><title>Sheet.15753</title><title>Sheet.15754</title><path d="m.03 82.19 24.08-14.17 24.08 14.17v28.35l-24.08 14.17L0 110.54V82.28Z" style="fill:url(#a);stroke:none;stroke-width:34;stroke-linecap:butt"/><g transform="translate(.03 -.044)"><title>Sheet.15755</title><path d="m.03 82.28 24.03 14.09v28.34L0 110.57V82.38Z" style="fill:#0078d4;stroke:none;stroke-width:34;stroke-linecap:butt"/></g><g transform="translate(6.685 -11.178)"><title>Sheet.15756</title><path d="M5.55 110.15a.164.167-180 0 0-.17-.016L.15 113.16c-.15.09-.04.46.17.58l2.78 1.35.17.1a.534.545 0 0 1 .24.428l-.02 6.412a1.51 1.54-180 0 0 .67 1.2l2.07 1.26c.38.22.69.05.69-.4l.02-6.43c0-.16.11-.22.25-.14l.17.1 3.24 2.02c.21.13.32-.12.17-.38l-5.05-8.92a.5.51-180 0 0-.17-.183z" style="fill:#fff;fill-opacity:.9;stroke:none;stroke-width:34;stroke-linecap:butt"/></g><g transform="translate(8.745 -28.11)"><title>Sheet.15757</title><path d="m0 115.44 23.48-14.54 7.36 4.32-23.48 14.56v4.6a.337.343 0 0 1-.596.22l-3.114-3.77a.343.35-180 0 0-.35-.113l-2.89.623a.337.343 0 0 1-.408-.334z" style="fill:#fff;fill-opacity:.5;stroke:none;stroke-width:34;stroke-linecap:butt"/></g></g></g></svg>