<svg xmlns="http://www.w3.org/2000/svg" xml:space="preserve" width="56.696" height="56.69" style="font-size:12px;overflow:visible;color-interpolation-filters:sRGB;fill-rule:evenodd;stroke-linecap:square;stroke-miterlimit:3" viewBox="0 0 56.696 56.69"><g transform="translate(-11.721 -11.724)"><title>Page-1</title><g transform="translate(11.721 -34.016)"><title>App Property.15952</title><title>g22</title><title>path4</title><path d="M33.33 99.55a2.88 2.878 0 0 1-2.88 2.88H2.88A2.88 2.878 0 0 1 0 99.55V48.61a2.88 2.878 0 0 1 2.88-2.87h27.57a2.88 2.878 0 0 1 2.88 2.87z" style="fill:#a0a1a2;stroke:none;stroke-width:11.72140026;stroke-linecap:butt"/><g transform="translate(4.899 -22.433)"><title>path6</title><path d="M0 98.81a3.622 3.618 0 0 1 3.62-3.62h16.59a3.624 3.62 0 0 1 0 7.24H3.62A3.62 3.617 0 0 1 0 98.81" style="fill:#1e1e1e;stroke:none;stroke-width:11.72140026;stroke-linecap:butt"/></g><g transform="translate(6.244 -23.623)"><title>circle8</title><ellipse cx="2.431" cy="100.001" rx="2.431" ry="2.429" style="fill:#59b4d9;stroke:none;stroke-width:11.72140026;stroke-linecap:butt"/></g><g transform="translate(4.899 -33.181)"><title>path10</title><path d="M0 98.81a3.622 3.618 0 0 1 3.62-3.62h16.59a3.624 3.62 0 0 1 0 7.24H3.62A3.622 3.618 0 0 1 0 98.81" style="fill:#1e1e1e;stroke:none;stroke-width:11.72140026;stroke-linecap:butt"/></g><g transform="translate(6.244 -34.37)"><title>circle12</title><ellipse cx="2.431" cy="100.001" rx="2.431" ry="2.429" style="fill:#59b4d9;stroke:none;stroke-width:11.72140026;stroke-linecap:butt"/></g><g transform="translate(4.899 -43.93)"><title>path14</title><path d="M0 98.81a3.622 3.618 0 0 1 3.62-3.62h16.59a3.624 3.62 0 0 1 0 7.24H3.62A3.62 3.617 0 0 1 0 98.81" style="fill:#1e1e1e;stroke:none;stroke-width:11.72140026;stroke-linecap:butt"/></g><g transform="translate(6.244 -45.12)"><title>circle16</title><ellipse cx="2.431" cy="100.001" rx="2.431" ry="2.429" style="fill:#59b4d9;stroke:none;stroke-width:11.72140026;stroke-linecap:butt"/></g><g transform="translate(11.726)"><title>path18</title><path d="M44.97 97.18c0-2.89-2.33-5.24-5.21-5.24-.21 0-.43.02-.63.04.32-1.17.49-2.41.49-3.69 0-7.73-6.21-13.99-13.88-13.99-6.12 0-11.31 4-13.16 9.54a9.314 9.304-180 0 0-3.09-.53C4.24 83.31 0 87.59 0 92.87s4.24 9.56 9.49 9.56h30.7l-.01-.03c2.68-.21 4.79-2.46 4.79-5.22" style="fill:#b8d432;stroke:none;stroke-width:11.72140026;stroke-linecap:butt"/></g><g transform="translate(11.725)"><title>path20</title><path d="M14.53 102.43a9.587 9.578 0 0 1-2.6-4.67c-1.18-5.15 2-10.27 7.11-11.43a9.315 9.306 0 0 1 3.14-.17c.47-4.81 3.4-9.09 7.78-11.2a13.753 13.739-180 0 0-4.22-.66c-6.12 0-11.31 4-13.16 9.54a9.308 9.299-180 0 0-3.09-.53C4.24 83.31 0 87.59 0 92.87s4.24 9.56 9.49 9.56h.01z" style="fill:#fff;fill-opacity:.2;stroke:none;stroke-width:11.72140026;stroke-linecap:butt"/></g></g></g></svg>