<svg xmlns="http://www.w3.org/2000/svg" xml:space="preserve" width="45.35" height="56.691" style="font-size:12px;overflow:visible;color-interpolation-filters:sRGB;fill-rule:evenodd;stroke-linecap:square;stroke-miterlimit:3" viewBox="0 0 45.35 56.691"><defs><linearGradient id="a" x1="0" x2="6.97" y1="116.494" y2="116.494" gradientTransform="scale(.99 1.0101)" gradientUnits="userSpaceOnUse"><stop offset="0" stop-color="#c69aeb"/><stop offset="1" stop-color="#6f4bb2"/></linearGradient><linearGradient id="b" x1="0" x2="50.704" y1="60.838" y2="60.838" gradientTransform="scale(.8944 1.11806)" gradientUnits="userSpaceOnUse"><stop offset="0" stop-color="#50e6ff"/><stop offset="1" stop-color="#32bedd"/></linearGradient></defs><g transform="translate(-34 -34.003)"><title>Page-1</title><g transform="translate(34 -34.016)"><title>App Service API Definition.15901</title><title>Sheet.15902</title><g transform="translate(10.012 -30.681)"><title>Sheet.15903</title><path d="M9.34 117.57H3.48A3.474 3.546 0 0 1 0 114.03V98.7h3.24v15.33a.231.236-180 0 0 .231.236l5.859-.006ZM22.17 98.7v15.33a.231.236 0 0 1-.244.236l-2.656-.006v-.06a8.67 8.85-180 0 0-8.55-7.18 1.417 1.446-180 1 0-.35 2.87 1.675 1.71-180 0 0 .35 0 5.862 5.984 0 0 1 0 11.94 1.417 1.446-180 0 0-.35 2.87 1.342 1.37-180 0 0 .35 0 8.657 8.838-180 0 0 8.48-7.13h2.72a3.474 3.546-180 0 0 3.48-3.54V98.7Z" style="fill:#32bedd;stroke:none;stroke-width:34;stroke-linecap:butt"/></g><g transform="translate(15.963 -36.019)"><title>Sheet.15904</title><path d="M0 121.23a3.406 3.477-180 0 0 3.41 3.48h.08a3.406 3.477-180 0 0 3.41-3.48v-.09a3.406 3.477-180 0 0-3.41-3.47h-.08A3.406 3.477-180 0 0 0 121.14Z" style="fill:url(#a);stroke:none;stroke-width:34;stroke-linecap:butt"/></g><g transform="translate(10.774 -20.5)"><title>Sheet.15905</title><path d="M0 123.23a1.45 1.48-180 0 0 1.45 1.48h21.17a1.45 1.48-180 0 0 1.45-1.48v-.34a1.45 1.48-180 0 0-1.45-1.48H1.45A1.45 1.48-180 0 0 0 122.89Z" style="fill:#32bedd;stroke:none;stroke-width:34;stroke-linecap:butt"/></g><g transform="translate(10.774 -14.595)"><title>Sheet.15906</title><path d="M0 123.23a1.45 1.48-180 0 0 1.45 1.48h21.17a1.45 1.48-180 0 0 1.45-1.48v-.34a1.45 1.48-180 0 0-1.45-1.48H1.45A1.45 1.48-180 0 0 0 122.89Z" style="fill:#32bedd;stroke:none;stroke-width:34;stroke-linecap:butt"/></g><g transform="translate(10.774 -8.687)"><title>Sheet.15907</title><path d="M0 123.23a1.45 1.48-180 0 0 1.45 1.48h12.27a1.45 1.48-180 0 0 1.45-1.48v-.34a1.45 1.48-180 0 0-1.45-1.48H1.45A1.45 1.48-180 0 0 0 122.89Z" style="fill:#32bedd;stroke:none;stroke-width:34;stroke-linecap:butt"/></g><title>Sheet.15908</title><path d="M42.28 71.17v50.39H3.09V71.17h39.18Zm1.22-3.15H1.85A1.851 1.89-180 0 0 0 69.91v52.91a1.851 1.89-180 0 0 1.85 1.89H43.5a1.851 1.89-180 0 0 1.85-1.89V69.91a1.851 1.89-180 0 0-1.85-1.89" style="fill:url(#b)"/><path d="M42.28 71.17v50.39H3.09V71.17h39.18m1.23-3.15H1.85A1.851 1.89-180 0 0 0 69.91v52.91a1.851 1.89-180 0 0 1.85 1.89H43.5a1.851 1.89-180 0 0 1.85-1.89V69.91a1.851 1.89-180 0 0-1.85-1.89" style="stroke:none;stroke-width:34;stroke-linecap:butt"/></g></g></svg>