<svg xmlns="http://www.w3.org/2000/svg" xml:space="preserve" width="56.755" height="56.654" style="font-size:12px;overflow:visible;color-interpolation-filters:sRGB;fill-rule:evenodd;stroke-linecap:square;stroke-miterlimit:3" viewBox="0 0 56.755 56.654"><defs><linearGradient id="a" x1="0" x2="38.512" y1="79" y2="79" gradientTransform="scale(.94205 1.06151)" gradientUnits="userSpaceOnUse"><stop offset="0" stop-color="#005ba1"/><stop offset=".36" stop-color="#0071c8"/><stop offset=".52" stop-color="#0078d4"/><stop offset=".64" stop-color="#0074cd"/><stop offset=".82" stop-color="#006abb"/><stop offset="1" stop-color="#005ba1"/></linearGradient><linearGradient id="c" x1="0" x2="8.667" y1="117.071" y2="117.071" gradientTransform="scale(1.00796 .9921)" gradientUnits="userSpaceOnUse"><stop offset="0" stop-color="#ccc"/><stop offset="1" stop-color="#fcfcfc"/></linearGradient><radialGradient id="b" cx="-2.796" cy="128.344" r="37.889" fx="-2.796" fy="128.344" gradientTransform="scale(1.00631 .99373)" gradientUnits="userSpaceOnUse"><stop offset="0" stop-color="#5ea0ef"/><stop offset="1" stop-color="#0078d4"/></radialGradient></defs><g transform="translate(-34 -33.999)"><title>Page-1</title><g transform="translate(34 -36.886)"><title>App Service MySQL In App.15737</title><title>Sheet.15738</title><g transform="translate(0 -6.513)"><title>Sheet.15739</title><path d="M26.7 120.37a16.441 16.183 0 0 1 9.58-14.7V83.86c0 3.59-8.12 6.45-18.14 6.45C8.13 90.31 0 87.54 0 83.86v34.42c0 3.53 8 6.41 17.89 6.46h.25a45.861 45.14-180 0 0 8.96-.82 16.521 16.261 0 0 1-.4-3.55" style="fill:url(#a);stroke:none;stroke-width:34;stroke-linecap:butt"/></g><g transform="translate(0 -40.945)"><title>Sheet.15740</title><path d="M36.28 118.29c0 3.59-8.12 6.45-18.14 6.45-10.01 0-18.14-2.77-18.14-6.45s8.13-6.46 18.14-6.46c10.02 0 18.14 2.79 18.14 6.46" style="fill:#e8e8e8;stroke:none;stroke-width:34;stroke-linecap:butt"/></g><g transform="translate(4.224 -43.805)"><title>Sheet.15741</title><path d="M27.84 120.62c0 2.29-6.25 4.12-13.92 4.12S0 122.91 0 120.62c0-2.28 6.25-4.09 13.92-4.09s13.92 1.84 13.92 4.1z" style="fill:#50e6ff"/><path d="M27.84 120.62c0 2.29-6.25 4.12-13.92 4.12S0 122.91 0 120.62c0-2.28 6.25-4.09 13.92-4.09s13.92 1.84 13.92 4.1" style="stroke:none;stroke-width:34;stroke-linecap:butt"/></g><g transform="translate(7.136 -43.817)"><title>Sheet.15742</title><path d="M11.01 121.67A32.64 32.126-180 0 0 0 123.24a32.351 31.843-180 0 0 11.01 1.5 31.526 31.03-180 0 0 11.01-1.61 33.494 32.967-180 0 0-11.01-1.46" style="fill:#198ab3;stroke:none;stroke-width:34;stroke-linecap:butt"/></g><g transform="translate(4.182 -19.13)"><title>Sheet.15743</title><path d="M23.84 121.96h-6.72v2.78h7.5a1.728 1.7-180 0 0 .22-.04 16.595 16.334 0 0 1 3.26-3.85v-7.16h-3.84v4.54h-2.84a1.091 1.074 0 0 1-.82-.39v-4.15h-3.81v4.96a2.605 2.564-180 0 0 2.68 2.49h4.37l.73-.37s-.31 1.13-.73 1.19m-8.38-8.27v-1.36a1.98 1.95-180 0 0-1.36-2.16 4.934 4.857-180 0 0-1.41-.22 2.666 2.624-180 0 0-2.56 1.62l-2.21 5.29-2.83-5.29a2.637 2.595-180 0 0-2.43-1.62 4.038 3.975-180 0 0-1.44.25c-.99.32-1.22.95-1.22 2.03v9.23h3.29v-6.21l1.79 4.37a3.046 2.998-180 0 0 2.83 1.84c1.24 0 1.75-.72 2.26-1.84l1.9-4.2v5.98h3.33v-7.71z" style="fill:#f2f2f2;stroke:none;stroke-width:34;stroke-linecap:butt"/></g><g transform="translate(32.334)"><title>Sheet.15744</title><path d="M19.34 124.74a13.772 13.556 0 0 1-17-21.33l.17-.16a13.788 13.572 0 0 1 16.83 21.49" style="fill:url(#b);stroke:none;stroke-width:34;stroke-linecap:butt"/></g><g transform="translate(31.282 -1.455)"><title>Sheet.15745</title><path d="M1.29 118.23a41.193 40.545-180 0 0-1.28 4.14l.96 1.43.96.94a23.311 22.945 0 0 1 1.78-5.57 4.086 4.022 0 0 1-2.42-.94m1.62-7.33a21.907 21.562 0 0 1-1.13-4.62A12.048 11.858-180 0 0 0 108.51a17.075 16.806-180 0 0 .96 3.82 4.425 4.356 0 0 1 1.95-1.43" style="fill:#83b9f9;stroke:none;stroke-width:34;stroke-linecap:butt"/></g><g transform="translate(31.282 -6.86)"><title>Sheet.15746</title><ellipse cx="4.368" cy="120.446" rx="4.368" ry="4.299" style="fill:url(#c);stroke:none;stroke-width:34;stroke-linecap:butt"/></g><g transform="translate(36.46 -.95)"><title>Sheet.15747</title><path d="M5.66 122.5a3.427 3.373 0 0 1 .81-2.07 14.95 14.715 0 0 1-4.04-3.03A4.451 4.381 0 0 1 0 118.66a30.6 30.12-180 0 0 2.43 2.23 13.193 12.986-180 0 0 3.23 1.91zm10.2.32a21.353 21.017 0 0 1-4.54-.48v.16a2.678 2.636 0 0 1-.81 1.91 20.998 20.668-180 0 0 5.51.31c.64-.63 1.29-1.43 1.94-2.07a8.745 8.608 0 0 1-2.1.17M7.77 108.8a21.804 21.461 0 0 1 9.54-2.23 10.749 10.58-180 0 0-2.43-2.23 24.716 24.328-180 0 0-7.6 1.75 14.694 14.463-180 0 0-1.62.8 30.278 29.802 0 0 1-3.23-4.62 3.104 3.055-180 0 0-1.46.48 34.092 33.556-180 0 0 3.4 4.93 16 15.748-180 0 0-3.56 2.71 4.62 4.548 0 0 1 2.1 1.75 14.438 14.211 0 0 1 3.07-2.38 36.204 35.635-180 0 0 5.99 5.09 3.357 3.304 0 0 1 .96-1.59 44.677 43.975 0 0 1-5.16-4.46" style="fill:#83b9f9;stroke:none;stroke-width:34;stroke-linecap:butt"/></g><g transform="translate(48.43 -7.178)"><title>Sheet.15748</title><ellipse cx="3.075" cy="121.718" rx="3.075" ry="3.027" style="fill:#fff;stroke:none;stroke-width:34;stroke-linecap:butt"/></g><g transform="translate(53.509 -6.476)"><title>Sheet.15749</title><path d="M3.18 123.13a2.022 1.99-180 0 0-.42-.29 6 6 0 0 0-.64-.31l-.64-.32-.52-.31a3.363 3.31 0 0 1-.96 1.44c.22.11.34.16.67.31l.64.32a16.14 15.887-180 0 0 1.45.77 12.262 12.07-180 0 0 .42-1.61" style="fill:#83b9f9;stroke:none;stroke-width:34;stroke-linecap:butt"/></g><g transform="translate(31.282 -6.86)"><title>Sheet.15750</title><ellipse cx="4.368" cy="120.446" rx="4.368" ry="4.299" style="fill:#fff;stroke:none;stroke-width:34;stroke-linecap:butt"/></g><g transform="translate(42.12 -.33)"><title>Sheet.15751</title><ellipse cx="2.912" cy="121.879" rx="2.912" ry="2.866" style="fill:#fff;stroke:none;stroke-width:34;stroke-linecap:butt"/></g></g></g></svg>