<svg xmlns="http://www.w3.org/2000/svg" xml:space="preserve" width="39.955" height="56.696" style="font-size:12px;overflow:visible;color-interpolation-filters:sRGB;fill-rule:evenodd;stroke-linecap:square;stroke-miterlimit:3" viewBox="0 0 39.955 56.696"><defs><radialGradient id="a" cx="21.222" cy="95.256" r="31.191" fx="21.222" fy="95.256" gradientTransform="scale(.93512 1.06938)" gradientUnits="userSpaceOnUse"><stop offset="0" stop-color="#b77af4"/><stop offset=".21" stop-color="#b378f2"/><stop offset=".43" stop-color="#a672ed"/><stop offset=".65" stop-color="#9267e4"/><stop offset=".88" stop-color="#7559d8"/><stop offset="1" stop-color="#624fd0"/></radialGradient><linearGradient id="b" x1="-.002" x2="28.005" y1="85.207" y2="85.207" gradientTransform="scale(.9078 1.10156)" gradientUnits="userSpaceOnUse"><stop offset="0" stop-color="#f2f2f2"/><stop offset=".23" stop-color="#f1f1f2"/><stop offset=".37" stop-color="#ededf1"/><stop offset=".48" stop-color="#e7e5f0"/><stop offset=".58" stop-color="#dedbee"/><stop offset=".67" stop-color="#d3ceeb"/><stop offset=".76" stop-color="#c4bee8"/><stop offset=".84" stop-color="#b4abe5"/><stop offset=".92" stop-color="#a095e1"/><stop offset=".99" stop-color="#8b7ddc"/><stop offset="1" stop-color="#897bdc"/></linearGradient></defs><g transform="translate(-34 -33.998)"><title>Page-1</title><g transform="translate(34.132 -34.016)"><title>App Service Insights.15777</title><title>Sheet.15778</title><g transform="translate(13.128)"><title>Sheet.15779</title><path d="m10.84 124.34 2.72-2.9v-7.74H0v7.74l2.72 2.9a1.074 1.067-180 0 0 .64.37h6.71a1.074 1.067-180 0 0 .77-.37" style="fill:#cecece;stroke:none;stroke-width:34;stroke-linecap:butt"/></g><g transform="translate(0 -11.005)"><title>Sheet.15780</title><path d="M19.84 79.02A19.775 19.642-180 0 0 0 100.93c.91 8.24 8.8 12.07 11.05 22.51a1.645 1.634-180 0 0 1.57 1.27h14.44a1.645 1.634-180 0 0 1.58-1.27c2.25-10.44 10.07-14.27 11.05-22.51a19.775 19.642-180 0 0-19.85-21.91" style="fill:url(#a);stroke:none;stroke-width:34;stroke-linecap:butt"/></g><g transform="translate(7.219 -14.874)"><title>Sheet.15781</title><path d="M20.88 93.86a4.7 4.669-180 0 0-4.53 4.8v2.57H9.27v-2.57a4.734 4.702-180 0 0-4.74-4.8A4.7 4.669-180 0 0 0 98.66a4.734 4.702-180 0 0 4.53 4.84h2.15v20.01a1.21 1.202-180 0 0 2.42 0V103.5h7.25v20.01a1.21 1.202-180 1 0 2.42 0V103.5h2.11a4.7 4.669-180 0 0 4.54-4.84 4.7 4.669-180 0 0-4.54-4.8m-14.2 7.37H4.4a2.485 2.468 0 0 1-2.28-2.57A2.485 2.468 0 0 1 4.4 96.1a2.485 2.468 0 0 1 2.28 2.56Zm14.37 0h-2.28v-2.7a2.283 2.268 0 1 1 4.53 0 2.45 2.434 0 0 1-2.25 2.7" style="fill:url(#b);stroke:none;stroke-width:34;stroke-linecap:butt"/></g><g transform="translate(12.993 -2.134)"><title>Sheet.15782</title><path d="m0 121.17 13.7-2.63v-1.5L0 119.71Zm13.7 1.04v-1.47L0 123.44v.14l1.04 1.13z" style="fill:#999;stroke:none;stroke-width:34;stroke-linecap:butt"/></g></g></g></svg>