<svg xmlns="http://www.w3.org/2000/svg" xml:space="preserve" width="56.696" height="56.696" style="font-size:12px;overflow:visible;color-interpolation-filters:sRGB;fill-rule:evenodd;stroke-linecap:square;stroke-miterlimit:3" viewBox="0 0 56.696 56.696"><defs><linearGradient id="a" x1="-.002" x2="34.367" y1="93.674" y2="93.674" gradientTransform="scale(1.00126 .99874)" gradientUnits="userSpaceOnUse"><stop offset="0" stop-color="#6bb9f2"/><stop offset="1" stop-color="#1b93eb"/></linearGradient></defs><g transform="translate(-35.592 -35.592)"><title>Page-1</title><g transform="translate(35.592 -35.592)"><title>App Scale Up.15934</title><title>MsPortalFx.base.images-54</title><g transform="translate(22.286 -22.372)"><title>path4</title><path d="M34.41 111.48v-17.3a.625.624-180 0 0-.64-.624l-17.33.004a.622.62-180 0 0-.44 1.063l4.77 4.757.32.32a.629.627 0 0 1 0 .882L.18 121.44a.629.627-180 0 0 0 .882l5.39 5.378a.629.627-180 0 0 .884 0l20.916-20.86a.625.624 0 0 1 .884 0l.316.31 4.77 4.77a.622.62-180 0 0 1.066-.44z" style="fill:url(#a);stroke:none;stroke-width:35.59220123;stroke-linecap:butt"/></g><g transform="translate(7.403 -8.263)"><title>path6</title><path d="M36.55 109.13v12.66a1.46 1.456 0 0 1-1.45 1.46H6.12a1.456 1.453 0 0 1-1.46-1.46V94.51a1.456 1.453 0 0 1 1.46-1.46h14.52a.8.797-180 0 0 .8-.797V89.21a.8.797-180 0 0-.8-.797l-19.18.007A1.46 1.456-180 0 0 0 89.87v36.55a1.456 1.453-180 0 0 1.46 1.46h38.28a1.456 1.453-180 0 0 1.46-1.46v-17.29a.8.797-180 0 0-.803-.797l-3.047-.003a.8.797-180 0 0-.8.797z" style="fill:#b3b3b3;stroke:none;stroke-width:35.59220123;stroke-linecap:butt"/></g><title>path8</title><path d="M52.14 124.23h3.65v3.65h-3.65zm-3.73 3.65h-3.72v-3.65h3.73zm-7.46 0h-3.72v-3.65h3.72zm-7.46 0h-3.72v-3.65h3.73zm-7.46 0h-3.72v-3.65h3.72zm-7.46 0h-3.72v-3.65h3.73zm-7.46 0H7.39v-3.65h3.72zM0 124.23h3.66v3.65H0Zm3.66-3.72H0v-3.72h3.66zm0-7.44H0v-3.72h3.66zm0-7.44H0v-3.72h3.66zm0-7.45H0v-3.71h3.66zm0-7.44H0v-3.71h3.66zm0-7.44H0v-3.71h3.66ZM0 72.23h3.66v3.65H0Zm26.03 3.65h-3.72v-3.65h3.72zm-7.46 0h-3.72v-3.65h3.73zm-7.46 0H7.39v-3.65h3.72zm44.68 44.63h-3.64v-3.72h3.65zm0-7.44h-3.64v-3.72h3.65zm0-7.44h-3.64v-3.72h3.65z" style="fill:#76bc2d;stroke:none;stroke-width:35.59220123;stroke-linecap:butt"/></g></g></svg>