<svg xmlns="http://www.w3.org/2000/svg" xml:space="preserve" width="42.52" height="56.7" style="font-size:12px;overflow:visible;color-interpolation-filters:sRGB;fill-rule:evenodd;stroke-linecap:square;stroke-miterlimit:3" viewBox="0 0 42.52 56.7"><g transform="translate(-49.811 -49.809)"><title>Page-1</title><g transform="translate(49.811 -49.811)"><title>App Service Reset Publish Profile.15704</title><title>Sheet.15705</title><title>Sheet.15706</title><path d="M17.72 117.45H0V99.62h3.54v11.77l2.84-3.21 2.83-2.5 2.84-2.49 3.19-1.78a6.024 6.062 0 0 1 3.54-1.07l4.25-.72 4.96.72 4.96 2.14 3.9 2.85a17.717 17.828 0 0 1 2.84 4.28 18.425 18.541 0 0 1 2.12 4.63 20.906 21.037 0 0 1 .71 4.99 27.638 27.812 0 0 1-1.42 7.49 23.386 23.533 0 0 1-4.25 6.06l-23.03 23.54-2.84-2.86 23.39-23.17a14.882 14.976-180 0 0 3.19-5 12.402 12.48-180 0 0 1.42-6.06 11.693 11.767-180 0 0-1.42-6.06 9.921 9.984-180 0 0-3.54-4.99 9.921 9.984-180 0 0-4.96-3.57 11.693 11.767-180 0 0-6.03-1.42 11.693 11.767-180 0 0-5.31 1.07l-4.26 2.49-3.54 3.21-3.9 3.93h11.7z" style="fill:#000;stroke:none;stroke-width:49.81129837;stroke-linecap:butt"/></g></g></svg>