<svg xmlns="http://www.w3.org/2000/svg" xml:space="preserve" width="48.192" height="56.705" style="font-size:12px;overflow:visible;color-interpolation-filters:sRGB;fill-rule:evenodd;stroke-linecap:square;stroke-miterlimit:3" viewBox="0 0 48.192 56.705"><defs><linearGradient id="a" x1="0" x2="46.691" y1="66.647" y2="66.647" gradientTransform="scale(.90874 1.10042)" gradientUnits="userSpaceOnUse"><stop offset="0" stop-color="#ef7100"/><stop offset=".9" stop-color="#f78d1e"/></linearGradient></defs><g transform="translate(-34 -34)"><title>Page-1</title><g transform="translate(34 -34.016)"><title>App Service Log Stream.15770</title><title>MsPortalFx.base.images-59</title><g transform="translate(.01 -.143)"><title>Sheet.15772</title><path d="m.05 73.54 4.12-4.7a2.01 1.97 0 0 1 1.51-.67h39.48a2.764 2.711 0 0 1 3.02 2.77v48.36a2.006 1.968 0 0 1-.65 1.45l-4.45 3.97H2.72L0 123.6Z" style="fill:#d15900;stroke:none;stroke-width:34;stroke-linecap:butt"/></g><g transform="translate(3.372 -2.254)"><title>Sheet.15773</title><path d="m0 75.62 2.52-2.82a1.775 1.74 0 0 1 1.34-.6h36.87a1.775 1.74 0 0 1 1.77 1.74v45.97a1.771 1.737 0 0 1-.58 1.29l-3.93 3.52z" style="fill:#fff;stroke:none;stroke-width:34;stroke-linecap:butt"/></g><title>Sheet.15774</title><path d="M41.12 73.34H.19a.19.187-180 0 0-.19.187v49.913a1.309 1.284-180 0 0 1.32 1.28h39.8a1.309 1.284-180 0 0 1.31-1.28V74.62a1.312 1.287-180 0 0-1.31-1.28" style="fill:url(#a);stroke:none;stroke-width:34;stroke-linecap:butt"/><g transform="translate(13.238 -19.648)"><title>Sheet.15775</title><path d="M15.95 118.89a7.693 7.547 0 0 1-2.16 5.29 1.305 1.28 0 0 1-1.96.21 1.34 1.314 0 0 1 .02-1.98 5.32 5.22-180 0 0 0-7.25 1.326 1.3 0 1 1 1.95-1.74 7.856 7.707 0 0 1 2.15 5.47M0 118.88a8.098 7.944 0 0 1 2.16-5.44 1.333 1.307 0 1 1 1.94 1.76 5.32 5.22-180 0 0 0 7.2 1.36 1.334 0 0 1 0 2.02 1.295 1.27 0 0 1-1.86-.17A8.047 7.894 0 0 1 0 118.88m5.76-.12A2.234 2.191 0 0 1 8 116.57a2.263 2.22 0 0 1 0 4.44 2.21 2.168 0 0 1-2.24-2.25" style="fill:#fff;stroke:none;stroke-width:34;stroke-linecap:butt"/></g><g transform="translate(6.415 -16.973)"><title>Sheet.15776</title><path d="M29.58 116.01a11.453 11.235 0 0 1-3.24 7.9 1.948 1.91 0 0 1-2.91.33 1.999 1.96 0 0 1 .03-2.95 7.931 7.78-180 0 0 0-10.81 1.979 1.94 0 1 1 2.91-2.6 11.684 11.462 0 0 1 3.21 8.13M0 115.77a11.453 11.235-180 0 0 3.24 7.89 1.948 1.91-180 0 0 2.9.34 1.999 1.96-180 0 0-.02-2.98 7.935 7.784 0 0 1 0-10.81 1.979 1.94-180 1 0-2.9-2.6A11.701 11.479-180 0 0 0 115.77" style="fill:#fff;stroke:none;stroke-width:34;stroke-linecap:butt"/></g></g></g></svg>