<svg xmlns="http://www.w3.org/2000/svg" xml:space="preserve" width="48.19" height="56.688" style="font-size:12px;overflow:visible;color-interpolation-filters:sRGB;fill-rule:evenodd;stroke-linecap:square;stroke-miterlimit:3" viewBox="0 0 48.19 56.688"><defs><linearGradient id="a" x1="0" x2="13.07" y1="103.328" y2="103.328" gradientTransform="scale(1.00153 .99847)" gradientUnits="userSpaceOnUse"><stop offset="0" stop-color="#c69aeb"/><stop offset="1" stop-color="#6f4bb2"/></linearGradient></defs><g transform="translate(-34 -25.519)"><title>Page-1</title><g transform="translate(34 -34.016)"><title>App Service API.15889</title><title>Page-1</title><title>path2</title><title>Sheet.15892</title><path d="M17.73 102.99H6.6A6.592 6.573 0 0 1 0 96.43V68.02h6.15v28.41a.44.438-180 0 0 .44.438l11.12-.008Zm24.34-34.97v28.41a.44.438 0 0 1-.463.438l-5.037-.008v-.11a16.452 16.402-180 0 0-16.22-13.31 2.689 2.68-180 0 0-.67 5.32 3.18 3.17-180 0 0 .67 0 11.124 11.09 0 0 1 0 22.13 2.687 2.68-180 0 0-.67 5.31 2.547 2.54-180 0 0 .67 0 16.428 16.379-180 0 0 16.09-13.21h5.16a6.592 6.573-180 0 0 6.59-6.56V68.02Z" style="fill:#32bedd;stroke:none;stroke-width:34;stroke-linecap:butt"/><g transform="translate(11.294 -9.892)"><title>rect4</title><title>Sheet.15894</title><path d="M0 109.78a6.464 6.444-180 0 0 6.46 6.44h.17a6.464 6.444-180 0 0 6.46-6.44v-.16a6.464 6.444-180 0 0-6.46-6.45h-.17A6.464 6.444-180 0 0 0 109.62Z" style="fill:url(#a);stroke:none;stroke-width:34;stroke-linecap:butt"/></g><g transform="translate(0 -48.116)"><title>path1747</title><title>Sheet.15896</title><path d="M1.61 107.65h44.97a1.61 1.556 0 0 1 1.61 1.55v7.02H0v-7.02a1.61 1.556 0 0 1 1.61-1.55" style="fill:#32bedd;stroke:none;stroke-width:16.31240082;stroke-linecap:butt"/></g></g></g></svg>