<svg xmlns="http://www.w3.org/2000/svg" xml:space="preserve" width="56.69" height="45.356" style="font-size:12px;overflow:visible;color-interpolation-filters:sRGB;fill-rule:evenodd;stroke-linecap:square;stroke-miterlimit:3" viewBox="0 0 56.69 45.356"><defs><linearGradient id="a" x1="0" x2="43.475" y1="104.357" y2="104.357" gradientTransform="scale(1.30398 .76688)" gradientUnits="userSpaceOnUse"><stop offset="0" stop-color="#32bedd"/><stop offset=".175" stop-color="#32caea"/><stop offset=".41" stop-color="#32d2f2"/><stop offset=".775" stop-color="#32d4f5"/></linearGradient></defs><g transform="translate(-34 -33.999)"><title>Page-1</title><g transform="translate(34 -34.016)"><title>App Service Console.15843</title><title>MsPortalFx.base.images-38</title><title>Sheet.15845</title><path d="M0 80.03h56.69v31.46a1.894 1.885 0 0 1-1.89 1.88H1.89A1.894 1.885 0 0 1 0 111.49Z" style="fill:url(#a);stroke:none;stroke-width:34;stroke-linecap:butt"/><g transform="translate(0 -33.336)"><title>Sheet.15846</title><path d="M1.9 101.35h52.89a1.894 1.885 0 0 1 1.89 1.89v10.13H0v-10.13a1.894 1.885 0 0 1 1.9-1.89" style="fill:#0078d4;stroke:none;stroke-width:34;stroke-linecap:butt"/></g><g transform="translate(7.59 -15.457)"><title>Sheet.15847</title><path d="m.16 102.76 1.23-1.23a.557.554 0 0 1 .787-.003l9.113 9.043a1.117 1.112 0 0 1 0 1.57l-1.23 1.23-9.89-9.82a.557.554 0 0 1-.003-.786z" style="fill:#f2f2f2;stroke:none;stroke-width:34;stroke-linecap:butt"/></g><g transform="translate(7.77 -7.571)"><title>Sheet.15848</title><path d="m1.4 113.21-1.24-1.23a.557.554 0 0 1 0-.783l9.73-9.707 1.23 1.22a1.117 1.112 0 0 1 0 1.58l-8.95 8.93a.557.554 0 0 1-.777-.007z" style="fill:#e6e6e6;stroke:none;stroke-width:34;stroke-linecap:butt"/></g><g transform="translate(22.414 -7.244)"><title>Sheet.15849</title><path d="M0 112.4a.97.966-180 0 0 .97.966l13.97.004a.97.966-180 0 0 .97-.966v-1.424a.97.966-180 0 0-.97-.966l-13.97.006a.97.966-180 0 0-.97.966z" style="fill:#f2f2f2;stroke:none;stroke-width:34;stroke-linecap:butt"/></g></g></g></svg>