<svg xmlns="http://www.w3.org/2000/svg" xml:space="preserve" width="56.69" height="45.368" style="font-size:12px;overflow:visible;color-interpolation-filters:sRGB;fill-rule:evenodd;stroke-linecap:square;stroke-miterlimit:3" viewBox="0 0 56.69 45.368"><defs><linearGradient id="a" x1="-.001" x2="30.398" y1="65.581" y2="65.581" gradientTransform="scale(.87146 1.1475)" gradientUnits="userSpaceOnUse"><stop offset="0" stop-color="#0078d4"/><stop offset=".38" stop-color="#2989e0"/><stop offset=".785" stop-color="#4f9aeb"/><stop offset="1" stop-color="#5ea0ef"/></linearGradient></defs><g transform="translate(-30.753 -30.75)"><title>Page-1</title><g transform="translate(30.753 -34.016)"><title>App Function.15977</title><title>g10</title><g transform="translate(30.017 -9.21)"><title>path2</title><path d="M6.06 102.49c.15.6.27 1.18.42 1.75.37 1.44.72 2.89 1.15 4.32a2.094 2.065-180 0 0 1.51 1.57 2.204 2.173-180 0 0 1.84-.54 11.575 11.414-180 0 0 2.82-2.9c.26-.37.47-.78.72-1.19l-.67-.31a9.188 9.06 0 0 1-.8 1.17 11.732 11.57 0 0 1-1.59 1.45c-.42.31-.77.18-1.01-.27a4.185 4.127 0 0 1-.39-1c-.6-2.4-1.18-4.8-1.76-7.21l-.37-1.55c-.18-.62-.34-1.16-.48-1.69A8.404 8.287-180 0 0 5.5 92.3a.504.497-180 0 0-.526-.165C3.51 92.4 2.03 92.65.57 92.92c-.57.1-.57.11-.48.75h.34c.43 0 .87-.02 1.3.02a2.859 2.82 0 0 1 2.71 2.41c.46 1.5.82 3.03 1.21 4.55z" style="fill:#0078d4;stroke:none;stroke-width:30.7534008;stroke-linecap:butt"/></g><g transform="translate(27.012 -9.2)"><title>path4</title><path d="M9.14 102.48c-.85 1.32-1.63 2.64-2.51 3.88a28.222 27.83 0 0 1-2.32 2.7 3.627 3.577 0 0 1-2.04 1.07 1.971 1.944 0 0 1-2.24-1.22 1.477 1.456 0 0 1 .45-1.6 1.385 1.366 0 0 1 1.69-.16 9.131 9.004 0 0 1 .89.62c.41.31.63.36 1.01 0a10.142 10.001-180 0 0 1.51-1.65c1.07-1.58 2.06-3.2 3.06-4.82l2.37-3.55c.19-.27.34-.47.48-.68a17.633 17.388 0 0 1 2.39-3.14 6.644 6.551 0 0 1 2.54-1.73 2.122 2.093 0 0 1 2.21.39 1.537 1.515 0 0 1 .33 1.7 1.26 1.242 0 0 1-1.22.78 2.658 2.62 0 0 1-1.23-.19 2.05 2.021-180 0 0-2.68.7c-.85 1.08-1.62 2.22-2.4 3.34z" style="fill:#5ea0ef;stroke:none;stroke-width:30.7534008;stroke-linecap:butt"/></g><g transform="translate(8.719 -8.213)"><title>path6</title><path d="M25.6 75.86a3.42 3.372-180 0 0-2.16-.6 8.924 8.8-180 0 0-4.45 1.33 10.649 10.501-180 0 0-3.75 3.59 21.443 21.145-180 0 0-2.28 5.92H8.83l-.17.69L8.34 88l-.29 1.13h4.14l-3.23 12.8a8.776 8.654 0 0 1-1.32 3.47 2.519 2.484 0 0 1-1.82.51 17.494 17.251 0 0 1-2.21-.14 10.646 10.498-180 0 0-1.19-.1 2.61 2.574-180 0 0-1.69.54 1.968 1.94-180 0 0-.73 1.55 2.179 2.149-180 0 0 .94 1.77 3.57 3.521-180 0 0 2.21.6 9.607 9.473-180 0 0 6.66-2.8 16.181 15.957-180 0 0 4.31-7.97l2.52-10.23h4.66l.16-.71.28-1.21.26-1.12h-4.58l.6-2.51a11.096 10.942 0 0 1 1.35-3.45c.43-.65.86-.98 1.29-.98a5.668 5.589 0 0 1 1.11.15 13.729 13.538-180 0 0 2.48.38 2.251 2.22-180 0 0 1.59-.59 2.069 2.04-180 0 0 .65-1.52 2.129 2.099-180 0 0-.89-1.71M1.49 108.77a1.455 1.435 0 0 1-.42-.46 1.455 1.435-180 0 0 .42.46 2.047 2.018-180 0 0 .8.34 2.047 2.018 0 0 1-.81-.33z" style="fill:url(#a);stroke:none;stroke-width:30.7534008;stroke-linecap:butt"/></g><title>path8</title><path d="M6.49 81.93V70.51c0-1.5.55-2.39 1.6-2.71a1.555 1.534-180 0 0 1.06-1.47 1.574 1.552-180 0 0-1.69-1.56 6.005 5.921-180 0 0-3.52 1.19 6.156 6.07-180 0 0-1.51 4.66v11.65c0 1.62-.5 2.6-1.5 2.95A1.285 1.267-180 0 0 0 86.39v2.1a1.288 1.27-180 0 0 .94 1.17c1.01.35 1.51 1.33 1.51 2.95v11.65a6.156 6.07-180 0 0 1.5 4.68 6.005 5.921-180 0 0 3.53 1.19 1.574 1.552-180 0 0 1.69-1.55 1.555 1.534-180 0 0-1.07-1.48c-1.05-.32-1.6-1.21-1.6-2.71V92.95c0-2.63-.69-4.38-2.43-5.07 0 0-.71-.15-.71-.44 0-.35.88-.59.88-.59 1.74-.69 2.25-2.29 2.25-4.92m43.7 0V70.51c0-1.5-.55-2.39-1.6-2.71a1.555 1.534 0 0 1-1.06-1.47 1.574 1.552 0 0 1 1.69-1.56 6.005 5.921 0 0 1 3.52 1.19 6.156 6.07 0 0 1 1.51 4.68v11.63c0 1.62.5 2.6 1.5 2.95a1.285 1.267 0 0 1 .94 1.17v2.1a1.288 1.27 0 0 1-.94 1.17c-1 .35-1.5 1.33-1.5 2.95v11.65a6.156 6.07 0 0 1-1.51 4.68 6.005 5.921 0 0 1-3.52 1.19 1.574 1.552 0 0 1-1.69-1.55 1.555 1.534 0 0 1 1.06-1.48c1.05-.32 1.6-1.21 1.6-2.71V92.95c0-2.63.7-4.38 2.43-5.07 0 0 .71-.15.72-.44 0-.35-.89-.59-.89-.59-1.74-.69-2.26-2.29-2.26-4.92" style="fill:#949494;stroke:none;stroke-width:30.7534008;stroke-linecap:butt"/></g></g></svg>