<svg xmlns="http://www.w3.org/2000/svg" xml:space="preserve" width="56.69" height="39.68" style="font-size:12px;overflow:visible;color-interpolation-filters:sRGB;fill-rule:evenodd;stroke-linecap:square;stroke-miterlimit:3" viewBox="0 0 56.69 39.68"><g transform="translate(-12.24 -12.244)"><title>Page-1</title><g transform="translate(12.24 -34.016)"><title>App Service Quickstart.15713</title><title>Sheet.15714</title><title>Sheet.15715</title><path d="M48.9 63.38c.29-1.14.44-2.31.44-3.51 0-4.7-2.24-8.85-5.69-11.35l-5.42 9.4c-.22.35-.05.64.36.64l6.96-.04c.4-.02.5.24.23.55L27.83 80.15c-.27.31-.38.26-.22-.13l5.67-14.24c.13-.37-.06-.69-.46-.69H27.3c-.39 0-.61-.29-.45-.7l6.6-18.13c-4.46.86-8.13 4.02-9.84 8.23a9.43 9.706-180 0 0-7.21-3.45c-5.21 0-9.46 4.38-9.46 9.8 0 .95.13 1.84.37 2.68A11.253 11.583-180 0 0 0 74.38c0 6.38 4.99 11.56 11.15 11.56h34.39c6.18 0 11.15-5.18 11.15-11.56a11.154 11.481-180 0 0-7.79-11" style="fill:#59b4d9;stroke:none;stroke-width:12.23999977;stroke-linecap:butt"/></g></g></svg>