<svg xmlns="http://www.w3.org/2000/svg" xml:space="preserve" width="48.186" height="56.703" style="font-size:12px;overflow:visible;color-interpolation-filters:sRGB;fill-rule:evenodd;stroke-linecap:square;stroke-miterlimit:3" viewBox="0 0 48.186 56.703"><defs><linearGradient id="a" x1="0" x2="46.619" y1="73.125" y2="73.125" gradientTransform="scale(.90715 1.10235)" gradientUnits="userSpaceOnUse"><stop offset="0" stop-color="#59285f"/><stop offset="1" stop-color="#a33a85"/></linearGradient></defs><g transform="translate(-37.646 -37.65)"><title>Page-1</title><g transform="translate(37.646 -37.646)"><title>App Service Log.15764</title><title>g10</title><g transform="translate(0 -.28)"><title>path2</title><path d="m.07 80.96 4.11-4.69a1.997 1.956 0 0 1 1.53-.68h39.46A2.753 2.696 0 0 1 48.18 78a2.621 2.567 0 0 1 0 .35v48.26a1.93 1.89 0 0 1-.68 1.43L43.08 132H2.75L0 130.9Z" style="fill:#a33a85;stroke:none;stroke-width:37.64599991;stroke-linecap:butt"/></g><g transform="translate(3.397 -2.362)"><title>path4</title><path d="m0 83.02 2.52-2.81a1.708 1.672 0 0 1 1.19-.6h37.01a1.766 1.73 0 0 1 1.77 1.73v45.86a1.756 1.72 0 0 1-.58 1.3l-3.94 3.5z" style="fill:#fff;stroke:none;stroke-width:37.64599991;stroke-linecap:butt"/></g><g transform="translate(.09)"><title>path6</title><path d="M41 80.61H.21a.206.202-180 0 0-.206.202L0 130.74A1.328 1.3-180 0 0 1.33 132H41a1.287 1.26-180 0 0 1.29-1.26V81.92A1.328 1.3-180 0 0 41 80.61" style="fill:url(#a);stroke:none;stroke-width:37.64599991;stroke-linecap:butt"/></g><g transform="translate(6.25 -13.235)"><title>path8</title><path d="M27.05 107.54a15.594 15.27-180 0 0-21.84-2.94l-.19.18a15.587 15.263-180 0 0 9.7 27.22 15.44 15.118-180 0 0 9.52-3.21 15.661 15.335-180 0 0 2.81-21.25m-12.45-4.06a13.747 13.461 0 0 1 1.88.12 13.451 13.172 0 0 1 7.43 3.52c-.22-.18-.44-.37-.68-.54a29.032 28.428-180 0 0-8.04 1.73 15.021 14.709-180 0 0-1.55.76 37.55 36.769 0 0 1-3.37-4.9 13.461 13.181 0 0 1 4.33-.69M4.09 124.97c-.04-.04-.08-.06-.1-.1a13.57 13.288 0 0 1 .03-16.17 38.511 37.71-180 0 0 .89 4.15 4.362 4.27-180 0 0 .46 7.24 24.98 24.46-180 0 0-1.28 4.88m2.35-18.79a13.622 13.339 0 0 1 2.51-1.44 41.03 40.176-180 0 0 3.45 5.08 15.085 14.772-180 0 0-3.32 2.52 4.368 4.277-180 0 0-1.6-.31 4.02 3.937-180 0 0-.53.05 41.4 40.539 0 0 1-1.2-5.23c.23-.23.43-.48.69-.67m16.55 21.04a13.51 13.228 0 0 1-16.98-.32 35.285 34.551 0 0 1 1.8-6.3 4.384 4.293-180 0 0 .69-.1c.64.65 1.33 1.29 2.05 1.88a12.573 12.312-180 0 0 2.91 1.72 2.93 2.87-180 0 0 5.21 1.66 25.845 25.307-180 0 0 5.55.31 12.593 12.33 0 0 1-1.23 1.15m2.87-3.13a14.304 14.006 0 0 1-2.5.08 20.566 20.139 0 0 1-3.97-.4 2.975 2.913-180 0 0-5.12-1.94 14.191 13.896 0 0 1-3.55-2.64 4.349 4.258-180 0 0 .41-5.24 13.83 13.543 0 0 1 2.81-2.16 34.677 33.956-180 0 0 5.69 4.81 2.995 2.932-180 0 0-.13.63 3.081 3.017-180 0 0 3.08 3.02 3.046 2.983-180 0 0 2.02-.78c.15.07.28.13.52.25 0 0 .41.19.62.32.45.29 1.66.87 1.75.91a13.42 13.14 0 0 1-1.63 3.14m1.27-5.13a9.241 9.049-180 0 0-.62-.32l-.62-.31-.41-.26a3.04 2.976-180 0 0-4.99-3.03 43.1 42.205 0 0 1-4.85-4.16 24.355 23.849 0 0 1 9.77-2.18l.03.03a13.51 13.228 0 0 1 2.41 10.63c-.19-.14-.58-.31-.72-.4" style="fill:#fff;stroke:none;stroke-width:37.64599991;stroke-linecap:butt"/></g></g></g></svg>