<svg xmlns="http://www.w3.org/2000/svg" xml:space="preserve" width="48.192" height="56.705" style="font-size:12px;overflow:visible;color-interpolation-filters:sRGB;fill-rule:evenodd;stroke-linecap:square;stroke-miterlimit:3" viewBox="0 0 48.192 56.705"><defs><linearGradient id="a" x1="0" x2="46.691" y1="75.835" y2="75.835" gradientTransform="scale(.90874 1.10042)" gradientUnits="userSpaceOnUse"><stop offset="0" stop-color="#ef7100"/><stop offset=".9" stop-color="#f78d1e"/></linearGradient></defs><g transform="translate(-39.061 -39.063)"><title>Page-1</title><g transform="translate(39.061 -39.062)"><title>App Log Stream.15970</title><title>MsPortalFx.base.images-59</title><g transform="translate(.01 -.143)"><title>path4</title><path d="m.05 83.64 4.12-4.7a2.01 1.97 0 0 1 1.51-.66h39.48a2.764 2.711 0 0 1 3.02 2.77v48.35a2.006 1.968 0 0 1-.65 1.46l-4.45 3.97H2.72L0 133.7Z" style="fill:#d15900;stroke:none;stroke-width:39.06140137;stroke-linecap:butt"/></g><g transform="translate(3.372 -2.254)"><title>path6</title><path d="m0 85.72 2.52-2.82a1.775 1.74 0 0 1 1.34-.59h36.87a1.775 1.74 0 0 1 1.77 1.74v45.97a1.771 1.737 0 0 1-.58 1.29l-3.93 3.52z" style="fill:#fff;stroke:none;stroke-width:39.06140137;stroke-linecap:butt"/></g><title>path8</title><path d="M41.12 83.45H.19a.19.187-180 0 0-.19.187v49.903a1.309 1.284-180 0 0 1.32 1.29h39.8a1.309 1.284-180 0 0 1.31-1.29V84.73a1.312 1.287-180 0 0-1.31-1.28" style="fill:url(#a);stroke:none;stroke-width:39.06140137;stroke-linecap:butt"/><g transform="translate(13.238 -19.648)"><title>path10</title><path d="M15.95 128.99a7.693 7.547 0 0 1-2.16 5.3 1.305 1.28 0 0 1-1.96.21 1.34 1.314 0 0 1 .02-1.98 5.32 5.22-180 0 0 0-7.25 1.326 1.3 0 1 1 1.95-1.74 7.856 7.707 0 0 1 2.15 5.46m-15.95 0a8.098 7.944 0 0 1 2.16-5.44 1.333 1.307 0 1 1 1.94 1.76 5.32 5.22-180 0 0 0 7.19 1.36 1.334 0 0 1 0 2.03 1.295 1.27 0 0 1-1.86-.17A8.047 7.894 0 0 1 0 128.99m5.76-.12A2.234 2.191 0 0 1 8 126.68a2.26 2.218 0 0 1 0 4.43 2.21 2.168 0 0 1-2.24-2.24" style="fill:#fff;stroke:none;stroke-width:39.06140137;stroke-linecap:butt"/></g><g transform="translate(6.415 -16.973)"><title>path12</title><path d="M29.58 126.12a11.453 11.235 0 0 1-3.24 7.9 1.948 1.91 0 0 1-2.91.33 1.999 1.96 0 0 1 .03-2.96 7.931 7.78-180 0 0 0-10.81 1.979 1.94 0 1 1 2.91-2.59 11.684 11.462 0 0 1 3.21 8.13M0 125.88a11.453 11.235-180 0 0 3.24 7.89 1.948 1.91-180 0 0 2.9.33 1.999 1.96-180 0 0-.02-2.98 7.935 7.784 0 0 1 0-10.81 1.979 1.94-180 1 0-2.9-2.59A11.701 11.479-180 0 0 0 125.88" style="fill:#fff;stroke:none;stroke-width:39.06140137;stroke-linecap:butt"/></g></g></g></svg>