<svg xmlns="http://www.w3.org/2000/svg" xml:space="preserve" width="53.86" height="56.695" style="font-size:12px;overflow:visible;color-interpolation-filters:sRGB;fill-rule:evenodd;stroke-linecap:square;stroke-miterlimit:3" viewBox="0 0 53.86 56.695"><defs><linearGradient id="a" x1="-.046" x2="25.356" y1="91.582" y2="91.582" gradientTransform="scale(.93806 1.06603)" gradientUnits="userSpaceOnUse"><stop offset="0" stop-color="#6bb9f2"/><stop offset="1" stop-color="#1b93eb"/></linearGradient></defs><g transform="translate(-34 -34)"><title>Page-1</title><g transform="translate(34 -34.016)"><title>App Service Export Template.15804</title><title>MsPortalFx.base.images-16</title><g transform="translate(12.054)"><title>Sheet.15806</title><path d="M26.9 121.81c-6.26-.85-6.15-4.92-6.12-11.51H9.06c.03 6.59.14 10.67-6.11 11.51a3.187 3.225-180 0 0-2.95 2.9h29.87a3.204 3.242-180 0 0-2.97-2.9" style="fill:#1f56a3;stroke:none;stroke-width:34;stroke-linecap:butt"/></g><g transform="translate(0 -14.22)"><title>Sheet.15807</title><path d="M0 122.86a1.826 1.848-180 0 0 1.83 1.85h50.2a1.826 1.848-180 0 0 1.83-1.85V87.97a1.826 1.848-180 0 0-1.83-1.85H1.83A1.826 1.848-180 0 0 0 87.97Z" style="fill:#1490df;stroke:none;stroke-width:34;stroke-linecap:butt"/></g><g transform="translate(3.098 -17.802)"><title>Sheet.15808</title><path d="M0 123.78a.913.924-180 0 0 .913.924l45.757.006a.913.924-180 0 0 .913-.924L47.58 93.61a.913.924-180 0 0-.913-.924L.91 92.69a.913.924-180 0 0-.913.924z" style="fill:#fff;stroke:none;stroke-width:34;stroke-linecap:butt"/></g><g transform="translate(15.066 -29.615)"><title>Sheet.15809</title><path d="m23.61 113.37-10.83 10.96a1.292 1.307 0 0 1-1.82 0L.13 113.37a.577.584 0 0 1 .409-1H7.2a.577.584-180 0 0 .577-.584L7.77 98.1a.458.464 0 0 1 .465-.467l7.275-.003a.458.464 0 0 1 .458.467l.002 13.693a.58.587-180 0 0 .58.584l6.66-.004a.577.584 0 0 1 .405.997z" style="fill:url(#a);stroke:none;stroke-width:34;stroke-linecap:butt"/></g><g transform="translate(11.2 -21.5)"><title>Sheet.15810</title><title>Sheet.15811</title><path d="M.53 117.43h2.38a.527.534 0 0 1 .527.534l.003 6.746H1.06A1.058 1.07 0 0 1 0 123.64v-5.68a.527.534 0 0 1 .527-.537z" style="fill:#999;stroke:none;stroke-width:34;stroke-linecap:butt"/><title>Sheet.15812</title><path d="M.53 117.43h2.38a.527.534 0 0 1 .527.534l.003 6.746H1.06A1.058 1.07 0 0 1 0 123.64v-5.68a.527.534 0 0 1 .527-.537z" style="fill:#999;fill-opacity:.5;stroke:none;stroke-width:34;stroke-linecap:butt"/></g><g transform="translate(39.21 -21.51)"><title>Sheet.15813</title><title>Sheet.15814</title><path d="M.53 117.44h2.39a.527.534 0 0 1 .527.534l-.007 5.666a1.058 1.07 0 0 1-1.05 1.07H0v-6.74a.527.534 0 0 1 .53-.537z" style="fill:#999;stroke:none;stroke-width:34;stroke-linecap:butt"/><title>Sheet.15815</title><path d="M.53 117.44h2.39a.527.534 0 0 1 .527.534l-.007 5.666a1.058 1.07 0 0 1-1.05 1.07H0v-6.74a.527.534 0 0 1 .53-.537z" style="fill:#999;fill-opacity:.5;stroke:none;stroke-width:34;stroke-linecap:butt"/></g><g transform="translate(11.2 -21.5)"><title>Sheet.15816</title><path d="M0 123.65v-2.34h31.46v2.34a1.048 1.06 0 0 1-1.04 1.06H1.05A1.048 1.06 0 0 1 0 123.65" style="fill:#949494;stroke:none;stroke-width:34;stroke-linecap:butt"/></g></g></g></svg>