<svg xmlns="http://www.w3.org/2000/svg" xml:space="preserve" width="56.693" height="56.69" style="font-size:12px;overflow:visible;color-interpolation-filters:sRGB;fill-rule:evenodd;stroke-linecap:square;stroke-miterlimit:3" viewBox="0 0 56.693 56.69"><defs><linearGradient id="a" x1="0" x2="31.444" y1="59.562" y2="59.562" gradientTransform="scale(.7426 1.34663)" gradientUnits="userSpaceOnUse"><stop offset="0" stop-color="#b3b2b3"/><stop offset="1" stop-color="#979797"/></linearGradient><linearGradient id="b" x1="0" x2="23.279" y1="96.951" y2="96.951" gradientTransform="scale(.98107 1.0193)" gradientUnits="userSpaceOnUse"><stop offset="0" stop-color="#6bb9f2"/><stop offset="1" stop-color="#1b93eb"/></linearGradient></defs><g transform="translate(-31.844 -31.844)"><title>Page-1</title><g transform="translate(31.844 -34.016)"><title>App Scale Out.15939</title><title>g14</title><g transform="translate(6.469 -7.7)"><title>path2</title><path d="M23.35 121.34a1.286 1.282 0 0 1-1.35 1.21H1.35A1.286 1.282 0 0 1 0 121.34V81.43a1.286 1.282 0 0 1 1.35-1.22H22a1.286 1.282 0 0 1 1.35 1.22z" style="fill:url(#a);stroke:none;stroke-width:31.84410095;stroke-linecap:butt"/></g><g transform="translate(9.887 -31.896)"><title>path4</title><path d="M0 119.76a2.679 2.67 0 0 1 2.53-2.79h11.64a2.682 2.674 0 0 1 2.53 2.79 2.682 2.674 0 0 1-2.53 2.79H2.54A2.679 2.67 0 0 1 0 119.76m0-8.3a2.679 2.67 0 0 1 2.53-2.79h11.64a2.682 2.674 0 0 1 2.53 2.79 2.682 2.674 0 0 1-2.53 2.79H2.54A2.675 2.668 0 0 1 0 111.46" style="fill:#003067;stroke:none;stroke-width:31.84410095;stroke-linecap:butt"/></g><g transform="translate(11.28 -41.118)"><title>circle6</title><ellipse cx="1.876" cy="120.682" rx="1.876" ry="1.871" style="fill:#5ea0ef;stroke:none;stroke-width:31.84410095;stroke-linecap:butt"/></g><g transform="translate(11.28 -32.828)"><title>circle8</title><ellipse cx="1.876" cy="120.682" rx="1.876" ry="1.871" style="fill:#5ea0ef;stroke:none;stroke-width:31.84410095;stroke-linecap:butt"/></g><title>path10</title><path d="M9 122.55H5.98v-2.95H9Zm5.95 0h-3.01v-2.95h3.02zm5.95 0h-3.01v-2.95h3.02zm5.96 0h-3.01v-2.95h3.02zm5.96 0h-3.01v-2.95h3.01zm6.24 0h-3.01v-2.95h3.01zM0 119.6h2.96v2.95H0Zm0-5.67h2.96v2.95H0Zm0-5.92h2.96v2.95H0Zm2.96-3.08H0v-3.01h2.96zm0-6.02H0v-3h2.96zm0-6.03H0v-2.99h2.96zm0-6.02H0v-2.99h2.96zm0-6.03H0v-2.98h2.96zm0-6.02H0v-2.99h2.96ZM0 65.86h2.96v2.95H0Zm21.08 2.95h-3.02v-2.95h3.02zm-6.04 0h-3.01v-2.95h3.01zm-6.04 0H5.98v-2.95H9Zm15.11-2.95h2.97v2.95h-2.97zm14.92 2.95h-3.01v-2.95h3.01zm-5.92 0h-3.02v-2.95h3.02zm5.92 24.09h-2.95v-3.01h2.95zm0 6.01h-2.95V95.9h2.95zm0-12.33h-2.95v-3h2.95zm0-6.02h-2.95v-3.01h2.95zm0-6.02h-2.95v-3.01h2.95z" style="fill:#76bc2d;stroke:none;stroke-width:31.84410095;stroke-linecap:butt"/><g transform="translate(33.855 -.057)"><title>path12</title><path d="m11.35 122.37 11.32-11.29a.581.58-180 0 0 0-.816L11.35 98.99a.572.57-180 0 0-.812 0 .565.564-180 0 0-.17.413l-.008 6.627a.581.58 0 0 1-.578.576l-9.202.004a.581.58-180 0 0-.578.576L0 114.2a.581.58-180 0 0 .578.576l9.212.004a.575.573 0 0 1 .578.573l.002 6.617a.575.573-180 0 0 .569.58.569.567-180 0 0 .407-.183z" style="fill:url(#b);stroke:none;stroke-width:31.84410095;stroke-linecap:butt"/></g></g></g></svg>