<svg xmlns="http://www.w3.org/2000/svg" xml:space="preserve" width="56.69" height="45.356" style="font-size:12px;overflow:visible;color-interpolation-filters:sRGB;fill-rule:evenodd;stroke-linecap:square;stroke-miterlimit:3" viewBox="0 0 56.69 45.356"><defs><linearGradient id="a" x1="0" x2="43.475" y1="105.231" y2="105.231" gradientTransform="scale(1.30398 .76688)" gradientUnits="userSpaceOnUse"><stop offset="0" stop-color="#32bedd"/><stop offset=".175" stop-color="#32caea"/><stop offset=".41" stop-color="#32d2f2"/><stop offset=".775" stop-color="#32d4f5"/></linearGradient></defs><g transform="translate(-34.342 -34.342)"><title>Page-1</title><g transform="translate(34.342 -34.342)"><title>App Console.15986</title><title>MsPortalFx.base.images-38</title><title>path4</title><path d="M0 80.7h56.69v31.45a1.894 1.885 0 0 1-1.89 1.89H1.89A1.894 1.885 0 0 1 0 112.15Z" style="fill:url(#a);stroke:none;stroke-width:34.3423996;stroke-linecap:butt"/><g transform="translate(0 -33.336)"><title>path6</title><path d="M1.9 102.02h52.89a1.894 1.885 0 0 1 1.89 1.89v10.13H0v-10.13a1.894 1.885 0 0 1 1.9-1.89" style="fill:#0078d4;stroke:none;stroke-width:34.3423996;stroke-linecap:butt"/></g><g transform="translate(7.59 -15.457)"><title>path8</title><path d="m.16 103.43 1.23-1.23a.557.554 0 0 1 .787-.003l9.113 9.043a1.117 1.112 0 0 1 0 1.57l-1.23 1.23-9.89-9.82a.557.554 0 0 1-.003-.786z" style="fill:#f2f2f2;stroke:none;stroke-width:34.3423996;stroke-linecap:butt"/></g><g transform="translate(7.77 -7.571)"><title>path10</title><path d="m1.4 113.88-1.24-1.23a.557.554 0 0 1 0-.783l9.73-9.707 1.23 1.22a1.117 1.112 0 0 1 0 1.58l-8.95 8.93a.557.554 0 0 1-.777-.007z" style="fill:#e6e6e6;stroke:none;stroke-width:34.3423996;stroke-linecap:butt"/></g><g transform="translate(22.414 -7.244)"><title>rect12</title><path d="M0 113.07a.97.966-180 0 0 .97.966l13.97.004a.97.966-180 0 0 .97-.966v-1.424a.97.966-180 0 0-.97-.966L.97 110.68a.97.966-180 0 0-.97.966z" style="fill:#f2f2f2;stroke:none;stroke-width:34.3423996;stroke-linecap:butt"/></g></g></g></svg>