<svg xmlns="http://www.w3.org/2000/svg" xmlns:xlink="http://www.w3.org/1999/xlink" xml:space="preserve" width="56.693" height="45.535" style="font-size:12px;overflow:visible;color-interpolation-filters:sRGB;fill-rule:evenodd;stroke-linecap:square;stroke-miterlimit:3" viewBox="0 0 56.693 45.535"><defs><linearGradient id="c" x1="0" x2="7.336" y1="105.699" y2="105.699" gradientTransform="scale(.99602 1.004)" gradientUnits="userSpaceOnUse"><stop offset="0" stop-color="#86d633"/><stop offset="1" stop-color="#5e9624"/></linearGradient><linearGradient id="d" x1="0" x2="7.336" y1="105.699" y2="105.699" gradientTransform="scale(.99602 1.004)" gradientUnits="userSpaceOnUse"><stop offset="0" stop-color="#86d633"/><stop offset="1" stop-color="#5e9624"/></linearGradient><linearGradient id="a" x1="0" x2="1" y1="0" y2="0" gradientTransform="rotate(-90.443 .5 .5)"><stop offset="0" stop-color="#ccc"/><stop offset="1" stop-color="#fcfcfc"/></linearGradient><linearGradient id="b" x1="0" x2="1" y1="0" y2="0" gradientTransform="rotate(90 .5 .5)"><stop offset="0" stop-color="#ccc"/><stop offset="1" stop-color="#fcfcfc"/></linearGradient><linearGradient xlink:href="#a" id="f" x1="0" x2="9.05" y1="103.985" y2="103.985" gradientTransform="scale(.99602 1.004)" gradientUnits="userSpaceOnUse"/><linearGradient xlink:href="#b" id="g" x1="0" x2="5.901" y1="107.135" y2="107.135" gradientTransform="scale(.99602 1.004)" gradientUnits="userSpaceOnUse"/><linearGradient xlink:href="#b" id="h" x1="0" x2="6.267" y1="106.768" y2="106.768" gradientTransform="scale(.99602 1.004)" gradientUnits="userSpaceOnUse"/><linearGradient xlink:href="#a" id="i" x1="0" x2="9.05" y1="103.985" y2="103.985" gradientTransform="scale(.99602 1.004)" gradientUnits="userSpaceOnUse"/><linearGradient xlink:href="#b" id="j" x1="0" x2="5.901" y1="107.135" y2="107.135" gradientTransform="scale(.99602 1.004)" gradientUnits="userSpaceOnUse"/><radialGradient id="e" cx="-3.007" cy="87.81" r="39.606" fx="-3.007" fy="87.81" gradientTransform="scale(.99658 1.00343)" gradientUnits="userSpaceOnUse"><stop offset=".18" stop-color="#5ea0ef"/><stop offset="1" stop-color="#0078d4"/></radialGradient></defs><g transform="translate(-33.998 -33.995)"><title>Page-1</title><g transform="translate(34 -36.967)"><title>App Service Networking.15722</title><title>Sheet.15723</title><g transform="translate(24.82 -21.722)"><title>Sheet.15724</title><ellipse cx="3.654" cy="109.804" rx="3.654" ry="3.683" style="fill:url(#c);stroke:none;stroke-width:34;stroke-linecap:butt"/></g><g transform="translate(13.17 -21.722)"><title>Sheet.15725</title><ellipse cx="3.654" cy="109.804" rx="3.654" ry="3.683" style="fill:url(#d);stroke:none;stroke-width:34;stroke-linecap:butt"/></g><g transform="translate(.025 -8.293)"><title>Sheet.15726</title><path d="m19.45 111.09-2.09 2.12a.945.952 0 0 1-1.335 0L.55 97.65a1.89 1.905 0 0 1 0-2.69l2.09-2.11 16.81 16.9a.945.952 0 0 1 0 1.346z" style="fill:#50e6ff;stroke:none;stroke-width:34;stroke-linecap:butt"/></g><g transform="translate(0 -22.05)"><title>Sheet.15727</title><path d="m17.07 93.34 2.1 2.1a.945.952 0 0 1 0 1.346L2.65 113.49l-2.1-2.11a1.89 1.905 0 0 1 0-2.69l15.2-15.35a.945.952 0 0 1 1.323-.003zm39.05 18.02-2.1 2.11-16.52-16.7a.945.952 0 0 1 0-1.346l2.12-2.134a.945.952 0 0 1 1.335 0l15.185 15.36a1.89 1.905 0 0 1 0 2.69z" style="fill:#1490df;stroke:none;stroke-width:34;stroke-linecap:butt"/></g><g transform="translate(31.438)"><title>Sheet.15728</title><path d="M19.69 113.49a14.035 14.147 0 1 1-17.2-22.36l.15-.11a14.032 14.145 0 0 1 17.05 22.47" style="fill:url(#e);stroke:none;stroke-width:34;stroke-linecap:butt"/></g><g transform="translate(30.395 -1.473)"><title>Sheet.15729</title><path d="M6.09 98.99a20.725 20.89 0 0 1 6.74-4.69 23.685 23.875 0 0 1 7.74-1.83 14.063 14.176 0 0 1 2.46 2.4 21.443 21.614-180 0 0-14.71 5.96 4.554 4.59-180 0 0-2.23-1.84m-4.72 7.52A29.345 29.58-180 0 0 0 110.87a12.318 12.417-180 0 0 1.02 1.53 13.502 13.61-180 0 0 .91 1.09 29.455 29.691 0 0 1 1.78-5.78 4.548 4.584 0 0 1-2.34-1.19z" style="fill:#fff;fill-opacity:.6;stroke:none;stroke-width:34;stroke-linecap:butt"/></g><g transform="translate(30.395 -7.169)"><title>Sheet.15730</title><ellipse cx="4.507" cy="108.944" rx="4.507" ry="4.543" style="fill:url(#f);stroke:none;stroke-width:34;stroke-linecap:butt"/></g><g transform="translate(30.427 -.943)"><title>Sheet.15731</title><path d="M.94 99.92A20.788 20.954 0 0 1 0 95.96a13.43 13.538 0 0 1 1.82-2.41 19.792 19.95-180 0 0 1.13 4.89 4.438 4.473-180 0 0-2.01 1.48m10.11 11.11a2.942 2.965 0 0 1 .89-2.11 19.565 19.722 0 0 1-4.18-3.1 4.5 4.537 0 0 1-2.46 1.38 21.758 21.932-180 0 0 2.39 2.13 19.89 20.05-180 0 0 3.39 2.08 3.065 3.09 0 0 1-.03-.39zm12.59.23a13.509 13.617 0 0 1-1.96 2.23 22.491 22.672 0 0 1-5.65-.4 2.888 2.911-180 0 0 .85-2.06.592.597-180 0 0 0-.184 19.843 20.001-180 0 0 4.55.534 19.184 19.338-180 0 0 2.23-.13z" style="fill:#f2f2f2;fill-opacity:.55;stroke:none;stroke-width:34;stroke-linecap:butt"/></g><g transform="translate(41.457 -.448)"><title>Sheet.15732</title><ellipse cx="2.939" cy="110.525" rx="2.939" ry="2.962" style="fill:url(#g);stroke:none;stroke-width:34;stroke-linecap:butt"/></g><g transform="translate(47.958 -7.585)"><title>Sheet.15733</title><ellipse cx="3.121" cy="110.341" rx="3.121" ry="3.146" style="fill:url(#h);stroke:none;stroke-width:34;stroke-linecap:butt"/></g><g transform="translate(36.553 -6.791)"><title>Sheet.15734</title><path d="M3.55 101.56A30.05 30.291 0 0 1 0 96.27a12.362 12.461 0 0 1 1.8-.7 27.953 28.177-180 0 0 3.3 4.86 42.186 42.524-180 0 0 7.36 6.89 3.014 3.038-180 0 0-1 1.66 43.619 43.968 0 0 1-7.91-7.42m16.21 10.1-.58-.28-.49-.27h-.1l-.43-.35h-.12l-.51-.32a2.904 2.927 0 0 1-1.05 1.53c.19.14.41.25.63.37l.13.08.57.32 1.42.75a14.258 14.373-180 0 0 .48-1.85z" style="fill:#f2f2f2;fill-opacity:.7;stroke:none;stroke-width:34;stroke-linecap:butt"/></g><g transform="translate(30.395 -7.169)"><title>Sheet.15735</title><ellipse cx="4.507" cy="108.944" rx="4.507" ry="4.543" style="fill:url(#i);stroke:none;stroke-width:34;stroke-linecap:butt"/></g><g transform="translate(41.457 -.448)"><title>Sheet.15736</title><ellipse cx="2.939" cy="110.525" rx="2.939" ry="2.962" style="fill:url(#j);stroke:none;stroke-width:34;stroke-linecap:butt"/></g></g></g></svg>