<svg xmlns="http://www.w3.org/2000/svg" xml:space="preserve" width="57.01" height="56.997" style="font-size:12px;overflow:visible;color-interpolation-filters:sRGB;fill-rule:evenodd;stroke-linecap:square;stroke-miterlimit:3" viewBox="0 0 57.01 56.997"><defs><linearGradient id="a" x1="0" x2="41.919" y1="71.417" y2="71.417" gradientTransform="scale(.90603 1.10371)" gradientUnits="userSpaceOnUse"><stop offset="0" stop-color="#5e9624"/><stop offset="1" stop-color="#76bc2d"/></linearGradient><linearGradient id="c" x1="0" x2="9.338" y1="115.594" y2="115.594" gradientTransform="scale(.99873 1.00128)" gradientUnits="userSpaceOnUse"><stop offset="0" stop-color="#ccc"/><stop offset="1" stop-color="#fcfcfc"/></linearGradient><radialGradient id="b" cx="11.731" cy="113.28" r="21.534" fx="11.731" fy="113.28" gradientTransform="scale(.99843 1.00157)" gradientUnits="userSpaceOnUse"><stop offset="0" stop-color="#5ea0ef"/><stop offset="1" stop-color="#0078d4"/></radialGradient></defs><g transform="translate(-34 -34)"><title>Page-1</title><g transform="translate(34 -37.233)"><title>App Service Access Restriction.15922</title><title>Sheet.15923</title><g transform="translate(0 -.097)"><title>Sheet.15924</title><path d="M25.84 111.59a16.427 16.47 0 0 1 6.22-11.07l.1-.11a16.522 16.564 0 0 1 12.39-3.21h.05c0-.26.06-.51.06-.77v-17.4a1.388 1.392-180 0 0-1.37-1.37c-13.8-.36-10.62-6.33-20.96-6.33s-7.16 5.96-20.96 6.33A1.388 1.392-180 0 0 0 79.04v17.4c0 14.46 17.74 26.08 21.6 28.44a1.417 1.42-180 0 0 1.47 0c.94-.57 2.68-1.69 4.79-3.26a16.405 16.447 0 0 1-2.02-10.03" style="fill:#76bc2d;stroke:none;stroke-width:34;stroke-linecap:butt"/></g><g transform="translate(3.344 -3.85)"><title>Sheet.15925</title><path d="M22.5 115.34a16.427 16.47 0 0 1 6.22-11.07l.1-.11a16.604 16.647 0 0 1 9.12-3.35c0-.16.04-.32.04-.47v-14.2a1.577 1.581-180 0 0-1.49-1.56 17.428 17.472 0 0 1-10.32-3.48 10.31 10.336-180 0 0-7.18-2.25 10.307 10.333-180 0 0-7.19 2.25 17.437 17.482 0 0 1-10.31 3.48A1.577 1.581-180 0 0 0 86.14v14.23c0 12.38 15.57 22.62 19 24.72a60.763 60.918-180 0 0 4.15-2.83 16.43 16.473 0 0 1-.65-6.92" style="fill:url(#a);stroke:none;stroke-width:34;stroke-linecap:butt"/></g><g transform="translate(30.571)"><title>Sheet.15926</title><path d="M20.76 125.09a14.702 14.74 0 1 1-18.14-23.2l.17-.18a14.72 14.758 0 0 1 17.97 23.38" style="fill:url(#b);stroke:none;stroke-width:34;stroke-linecap:butt"/></g><g transform="translate(29.574 -1.566)"><title>Sheet.15927</title><path d="M1.39 117.99a43.578 43.69-180 0 0-1.38 4.51l1.02 1.56 1.03 1.03a24.961 25.025 0 0 1 1.89-6.06 4.36 4.371 0 0 1-2.56-1.04m1.71-7.97A23.557 23.618 0 0 1 1.89 105 12.777 12.81-180 0 0 0 107.42a18.409 18.456-180 0 0 1.03 4.16 4.713 4.725 0 0 1 2.07-1.56" style="fill:#83b9f9;stroke:none;stroke-width:34;stroke-linecap:butt"/></g><g transform="translate(29.567 -7.458)"><title>Sheet.15928</title><ellipse cx="4.663" cy="120.416" rx="4.663" ry="4.675" style="fill:url(#c);stroke:none;stroke-width:34;stroke-linecap:butt"/></g><g transform="translate(35.101 -1.033)"><title>Sheet.15929</title><path d="M6.04 122.65a3.66 3.669 0 0 1 .87-2.26 15.954 15.995 0 0 1-4.32-3.29A4.76 4.773 0 0 1 0 118.47a32.41 32.493-180 0 0 2.59 2.42 14.058 14.094-180 0 0 3.45 2.08zm10.88.34a22.838 22.896 0 0 1-4.84-.52v.18a2.861 2.869 0 0 1-.86 2.08 22.34 22.397-180 0 0 5.87.34c.68-.69 1.38-1.56 2.07-2.25a9.234 9.258 0 0 1-2.24.17m-8.64-15.24a23.251 23.31 0 0 1 10.19-2.42 11.443 11.472-180 0 0-2.59-2.42 26.444 26.512-180 0 0-8.12 1.9 16.065 16.106-180 0 0-1.72.86 32.41 32.493 0 0 1-3.46-5.01 3.328 3.337-180 0 0-1.55.51 36.202 36.295-180 0 0 3.63 5.38 17.112 17.156-180 0 0-3.79 2.95 4.94 4.953 0 0 1 2.25 1.89 15.525 15.565 0 0 1 3.28-2.59 38.49 38.588-180 0 0 6.39 5.54 3.597 3.606 0 0 1 1.02-1.73 47.51 47.63 0 0 1-5.53-4.86" style="fill:#83b9f9;stroke:none;stroke-width:34;stroke-linecap:butt"/></g><g transform="translate(47.875 -7.806)"><title>Sheet.15930</title><ellipse cx="3.281" cy="121.801" rx="3.281" ry="3.289" style="fill:#fff;stroke:none;stroke-width:34;stroke-linecap:butt"/></g><g transform="translate(53.295 -7.031)"><title>Sheet.15931</title><path d="M3.4 123.32a2.31 2.315-180 0 0-.45-.31c-.21-.13-.68-.35-.68-.35l-.69-.34-.56-.34A3.556 3.565 0 0 1 0 123.56c.24.12.36.17.71.34l.68.34a17.118 17.162-180 0 0 1.55.85 13.392 13.427-180 0 0 .46-1.77" style="fill:#83b9f9;stroke:none;stroke-width:34;stroke-linecap:butt"/></g><g transform="translate(29.567 -7.458)"><title>Sheet.15932</title><ellipse cx="4.663" cy="120.416" rx="4.663" ry="4.675" style="fill:#fff;stroke:none;stroke-width:34;stroke-linecap:butt"/></g><g transform="translate(41.14 -.36)"><title>Sheet.15933</title><ellipse cx="3.108" cy="121.975" rx="3.108" ry="3.115" style="fill:#fff;stroke:none;stroke-width:34;stroke-linecap:butt"/></g></g></g></svg>