<svg xmlns="http://www.w3.org/2000/svg" xml:space="preserve" width="53.862" height="56.698" style="font-size:12px;overflow:visible;color-interpolation-filters:sRGB;fill-rule:evenodd;stroke-linecap:square;stroke-miterlimit:3" viewBox="0 0 53.862 56.698"><g transform="translate(-34 -33.997)"><title>Page-1</title><g transform="translate(34 -34.016)"><title>App Metric.15963</title><title>Sheet.15964</title><g transform="translate(2.19 -23.648)"><title>Sheet.15965</title><path d="m45.38 91.66-14.41 25.35-15.23-15.35L0 121.78l3.72 2.86 12.44-15.9L32 124.71l17.48-30.75Z" style="fill:#b796f9;stroke:none;stroke-width:34;stroke-linecap:butt"/></g><g transform="translate(14.852)"><title>Sheet.15966</title><path d="M0 123.7a1.022 1.01-180 0 0 1.02 1.01h7.26a1.022 1.01-180 0 0 1.03-1.01V98.65a1.022 1.01-180 0 0-1.03-1.01H1.02A1.022 1.01-180 0 0 0 98.65Z" style="fill:#0078d4;stroke:none;stroke-width:34;stroke-linecap:butt"/></g><g transform="translate(29.7)"><title>Sheet.15967</title><path d="M0 123.7a1.022 1.01-180 0 0 1.02 1.01h7.26a1.022 1.01-180 0 0 1.03-1.01v-15.68a1.022 1.01-180 0 0-1.03-1.01H1.02A1.022 1.01-180 0 0 0 108.02Z" style="fill:#005ba1;stroke:none;stroke-width:34;stroke-linecap:butt"/></g><g transform="translate(44.552)"><title>Sheet.15968</title><path d="M0 123.7a1.022 1.01-180 0 0 1.02 1.01h7.26a1.022 1.01-180 0 0 1.03-1.01V89.59a1.022 1.01-180 0 0-1.03-1.01H1.02A1.022 1.01-180 0 0 0 89.59Z" style="fill:#005ba1;stroke:none;stroke-width:34;stroke-linecap:butt"/></g><title>Sheet.15969</title><path d="M0 123.7a1.022 1.01-180 0 0 1.02 1.01h7.26a1.022 1.01-180 0 0 1.03-1.01v-15.68a1.022 1.01-180 0 0-1.03-1.01H1.02A1.022 1.01-180 0 0 0 108.02Z" style="fill:#5ea0ef;stroke:none;stroke-width:34;stroke-linecap:butt"/></g></g></svg>