<svg xmlns="http://www.w3.org/2000/svg" xml:space="preserve" width="42.517" height="56.692" style="font-size:12px;overflow:visible;color-interpolation-filters:sRGB;fill-rule:evenodd;stroke-linecap:square;stroke-miterlimit:3" viewBox="0 0 42.517 56.692"><g transform="translate(-7.917 -7.922)"><title>Page-1</title><g transform="translate(7.92 -34.016)"><title>App Service Identity.15783</title><title> MSI_2</title><g transform="translate(0 -2.737)"><title>Sheet.15785</title><path d="M15.82 91.08a2.835 2.874 0 0 1 0-4.07l6.22-6.31v-5.64l9.19-9.32a6.057 6.14-180 0 0 0-8.68L20.78 46.47a6.057 6.14-180 0 0-8.56 0L1.77 57.06a6.055 6.139-180 0 0 0 8.68l9.92 10.06v.85l-2.82 2.86 2.8 2.84-2.8 2.83 2.8 2.84-2.8 2.83 2.82 2.87v.03l4.81 4.88 3.39-3.43zm-2.76-38.56A3.438 3.485 0 1 1 16.5 56a3.438 3.485 0 0 1-3.44-3.48" style="fill:#fcd116;stroke:none;stroke-width:7.92000008;stroke-linecap:butt"/></g><g transform="translate(6.914 -34.403)"><title>Sheet.15786</title><path d="M0 91.03h19.84v2.89H0Zm0 4.71h19.84v2.89H0Z" style="fill:#fff;fill-opacity:.5;stroke:none;stroke-width:7.92000008;stroke-linecap:butt"/></g><g transform="translate(18.209)"><title>Sheet.15787</title><path d="M12.16 98.63a2.225 2.255 0 0 1-1.59-.67L.66 87.91a2.241 2.272 0 0 1 0-3.21l9.91-10.05a2.24 2.27 0 0 1 3.17 0l9.91 10.05a2.24 2.271 0 0 1 0 3.21l-9.91 10.05a2.225 2.255 0 0 1-1.58.67" style="fill:#59b4d9;stroke:none;stroke-width:7.92000008;stroke-linecap:butt"/></g><g transform="translate(22.51 -3.368)"><title>Sheet.15788</title><path d="M14.47 87.75a1.897 1.924-180 0 0-1.58 2.98l-3.77 3.82a2.232 2.263-180 0 0-.32-.19v-9.73a1.901 1.928-180 1 0-1.89 0v9.73a2.197 2.227-180 0 0-.31.18l-3.77-3.82a1.953 1.98-180 1 0-.98.77l3.97 4.02a2.213 2.243-180 1 0 4.07.01l3.98-4.03a1.877 1.903-180 0 0 .6.11 1.901 1.928-180 0 0 0-3.85" style="fill:#fff;stroke:none;stroke-width:7.92000008;stroke-linecap:butt"/></g><g transform="translate(29.91 -11.451)"><title>Sheet.15789</title><path d="m0 91.42.87-.88 7.11 7.21-.87.88z" style="fill:#fff;fill-opacity:.5;stroke:none;stroke-width:7.92000008;stroke-linecap:butt"/></g><g transform="translate(22.85 -11.445)"><title>Sheet.15790</title><path d="m0 97.75 7.11-7.21.87.88-7.11 7.21z" style="fill:#fff;fill-opacity:.5;stroke:none;stroke-width:7.92000008;stroke-linecap:butt"/></g><g transform="translate(22.999 -4.667)"><title>Sheet.15791</title><path d="M8.66 97.68a1.318 1.336 0 1 1-1.32-1.33 1.317 1.335 0 0 1 1.32 1.33m-.24-13.42a1.057 1.072 0 1 1-1.06-1.07 1.056 1.07 0 0 1 1.06 1.07M1.8 90.97A1.057 1.072 0 1 1 .75 89.9a1.058 1.072 0 0 1 1.05 1.07m13.24 0a1.058 1.072 0 1 1-1.06-1.07 1.058 1.072 0 0 1 1.06 1.07" style="fill:#b8d432;stroke:none;stroke-width:7.92000008;stroke-linecap:butt"/></g><g transform="translate(18.209 -5.026)"><title>Sheet.15792</title><path d="M13.74 79.67a2.237 2.268-180 0 0-3.17 0L.66 89.72a2.241 2.272-180 0 0 0 3.22l5.61 5.69L16.83 82.8Z" style="fill:#fff;fill-opacity:.09800002;stroke:none;stroke-width:7.92000008;stroke-linecap:butt"/></g><g transform="translate(17.294 -15.873)"><title>Sheet.15793</title><path d="M2.16 96.44v-7.33L0 90.19v8.44z" style="fill:#ff8c00;fill-opacity:.4;stroke:none;stroke-width:7.92000008;stroke-linecap:butt"/></g></g></g></svg>