<svg xmlns="http://www.w3.org/2000/svg" xmlns:xlink="http://www.w3.org/1999/xlink" xml:space="preserve" width="54.333" height="57.53" style="font-size:12px;overflow:visible;color-interpolation-filters:sRGB;fill-rule:evenodd;stroke-linecap:square;stroke-miterlimit:3" viewBox="0 0 54.333 57.53"><defs><linearGradient id="a" x1="0" x2="1" y1="0" y2="0" gradientTransform="rotate(-90.456 .5 .5)"><stop offset="0" stop-color="#ccc"/><stop offset=".125" stop-color="#d7d7d7"/><stop offset="1" stop-color="#fcfcfc"/></linearGradient><linearGradient id="d" x1="0" x2="9.82" y1="114.588" y2="114.588" gradientTransform="scale(.99074 1.00934)" gradientUnits="userSpaceOnUse"><stop offset="0" stop-color="#ccc"/><stop offset=".125" stop-color="#d7d7d7"/><stop offset="1" stop-color="#fcfcfc"/></linearGradient><linearGradient id="f" x1="0" x2="28.084" y1="96.263" y2="96.263" gradientTransform="scale(.99026 1.00984)" gradientUnits="userSpaceOnUse"><stop offset="0" stop-color="#32bedd"/><stop offset=".575" stop-color="#32ceef"/><stop offset="1" stop-color="#32d4f5"/></linearGradient><linearGradient xlink:href="#a" id="c" x1="0" x2="15.117" y1="109.292" y2="109.292" gradientTransform="scale(.99074 1.00934)" gradientUnits="userSpaceOnUse"/><linearGradient xlink:href="#a" id="e" x1="0" x2="15.117" y1="109.292" y2="109.292" gradientTransform="scale(.99074 1.00934)" gradientUnits="userSpaceOnUse"/><radialGradient id="b" cx="-4.938" cy="82.459" r="65.545" fx="-4.938" fy="82.459" gradientTransform="scale(.99023 1.00987)" gradientUnits="userSpaceOnUse"><stop offset=".185" stop-color="#5ea0ef"/><stop offset="1" stop-color="#0078d4"/></radialGradient></defs><g transform="translate(-33.999 -34.025)"><title>Page-1</title><g transform="translate(34.474 -34.016)"><title>App Service WebJob.15661</title><title>MsPortalFx.base.images-77</title><g transform="translate(4.414 -15.232)"><title>Sheet.15663</title><path d="M32.69 125.57A23.299 23.736 0 1 1 4.13 88.06l.25-.18a23.297 23.734 0 0 1 28.31 37.69" style="fill:url(#b);stroke:none;stroke-width:34;stroke-linecap:butt"/></g><g transform="translate(2.666 -17.684)"><title>Sheet.15664</title><path d="M13.82 104.33a35.675 36.345 0 0 1 24.43-10 22.964 23.396-180 0 0-4.07-4.05 39.588 40.33-180 0 0-12.87 3.1 33.969 34.606-180 0 0-11.19 7.86 7.505 7.645 0 0 1 3.7 3.09m-11.53 9.53A51.893 52.867-180 0 0 0 121.19a24.61 25.072-180 0 0 1.71 2.57 21.676 22.083-180 0 0 1.51 1.81 48.901 49.82 0 0 1 2.97-9.69 7.453 7.593 0 0 1-3.9-2.02" style="fill:#fff;fill-opacity:.6;stroke:none;stroke-width:34;stroke-linecap:butt"/></g><g transform="translate(2.72 -39.62)"><title>Sheet.15665</title><path d="M4.92 123.14a32.725 33.34 0 0 1-1.89-8.23A23.258 23.695-180 0 0 0 118.98a36.311 36.993-180 0 0 1.57 6.59 7.447 7.587 0 0 1 3.35-2.43" style="fill:#f2f2f2;fill-opacity:.55;stroke:none;stroke-width:34;stroke-linecap:butt"/></g><g transform="translate(2.662 -27.247)"><title>Sheet.15666</title><ellipse cx="7.489" cy="117.942" rx="7.489" ry="7.629" style="fill:url(#c);stroke:none;stroke-width:34;stroke-linecap:butt"/></g><g transform="translate(11.525 -16.799)"><title>Sheet.15667</title><path d="M9.54 121.42a4.842 4.933 0 0 1 1.47-3.54 32.943 33.561 0 0 1-6.92-5.18A7.466 7.606 0 0 1 0 114.98a32.642 33.255-180 0 0 3.98 3.58 33.88 34.515-180 0 0 5.61 3.48 4.475 4.559 0 0 1-.05-.62m17.27.6a32.882 33.5 0 0 1-7.55-.9c0 .1.01.2.01.3a4.842 4.933 0 0 1-1.38 3.47 37.967 38.68-180 0 0 9.35.68 22.964 23.396-180 0 0 3.15-3.75 33.614 34.245 0 0 1-3.58.2" style="fill:#f2f2f2;fill-opacity:.55;stroke:none;stroke-width:34;stroke-linecap:butt"/></g><g transform="translate(21.069 -15.991)"><title>Sheet.15668</title><ellipse cx="4.865" cy="120.615" rx="4.865" ry="4.956" style="fill:url(#d);stroke:none;stroke-width:34;stroke-linecap:butt"/></g><g transform="translate(12.948 -34.19)"><title>Sheet.15669</title><path d="M18.97 125.57a5.075 5.17 0 0 1 1.68-2.76 69.238 70.538 0 0 1-12.23-11.59 46.587 47.462 0 0 1-5.44-8.15A23.099 23.532-180 0 0 0 104.24a48.617 49.53-180 0 0 5.85 8.89 72.265 73.622-180 0 0 13.12 12.44" style="fill:#f2f2f2;fill-opacity:.7;stroke:none;stroke-width:34;stroke-linecap:butt"/></g><g transform="translate(31.853 -27.974)"><title>Sheet.15670</title><ellipse cx="5.168" cy="120.306" rx="5.168" ry="5.265" style="fill:#f2f2f2;stroke:none;stroke-width:34;stroke-linecap:butt"/></g><g transform="translate(40.259 -26.583)"><title>Sheet.15671</title><path d="M5.44 122.46c-.32-.16-.57-.3-.88-.47l-.08-.04-.81-.45-.15-.08-.73-.42-.18-.1c-.29-.17-.58-.33-.86-.51A4.91 5.001 0 0 1 0 122.98c.34.2.68.4 1.03.6l.23.13.95.54.1.05c.77.42 1.55.85 2.36 1.27a22.715 23.142-180 0 0 .78-3.11z" style="fill:#f2f2f2;fill-opacity:.55;stroke:none;stroke-width:34;stroke-linecap:butt"/></g><g transform="translate(2.662 -27.247)"><title>Sheet.15672</title><ellipse cx="7.489" cy="117.942" rx="7.489" ry="7.629" style="fill:url(#e);stroke:none;stroke-width:34;stroke-linecap:butt"/></g><g transform="translate(21.069 -15.991)"><title>Sheet.15673</title><ellipse cx="4.865" cy="120.615" rx="4.865" ry="4.956" style="fill:#f2f2f2;stroke:none;stroke-width:34;stroke-linecap:butt"/></g><g transform="translate(26.049 -6.519)"><title>Sheet.15674</title><path d="m27.81 108.33-1.01-3.12h-4.12l-1.55-1.84.5-4.17-2.87-1.47-.35.37-2.56 2.6-2.38-.17-2.56-3.32-3.06 1.03-.02.49v3.7l-1.81 1.58L2 103.5l-1.44 2.91.36.37 2.56 2.6-.17 2.42L0 114.44l1.01 3.11.49.02h3.63l1.55 1.85-.5 4.17 2.87 1.46.35-.36 2.56-2.61 2.38.17 2.55 3.32 3.07-1.03.02-.49v-3.7l1.8-1.58 4.1.5 1.44-2.91-.36-.37-2.56-2.6.17-2.43zm-11.95 9.05a6.204 6.32 0 1 1 3.94-7.98 6.2 6.317 0 0 1-3.94 7.98" style="fill:url(#f);stroke:none;stroke-width:34;stroke-linecap:butt"/></g><title>Sheet.15675</title><path d="M22.26 115.43v-2.59l-.36-.13-2.72-.91-.71-1.75 1.38-3-1.79-1.83-.36.19-2.53 1.3-1.74-.73-1.1-3.1H9.79l-.13.36-.89 2.77-1.74.73-2.89-1.41-1.78 1.81.17.37 1.28 2.58-.71 1.77-3.1 1.12v2.6l.35.14 2.72.91.71 1.76-1.38 3 1.78 1.81.36-.18 2.54-1.3 1.73.72 1.12 3.13h2.53l.14-.36.89-2.77 1.73-.72 2.94 1.4 1.78-1.81-.18-.37-1.27-2.58.71-1.77zm-11.13 3.75a4.887 4.979 0 1 1 4.88-4.98 4.884 4.975 0 0 1-4.88 4.98" style="fill:#50e6ff;stroke:none;stroke-width:34;stroke-linecap:butt"/><g transform="translate(33.755 -14.392)"><title>Sheet.15676</title><ellipse cx="6.204" cy="119.251" rx="6.204" ry="6.32" style="fill:#fff;stroke:none;stroke-width:34;stroke-linecap:butt"/></g><g transform="translate(6.245 -6.392)"><title>Sheet.15677</title><ellipse cx="4.884" cy="120.596" rx="4.884" ry="4.975" style="fill:#fff;stroke:none;stroke-width:34;stroke-linecap:butt"/></g></g></g></svg>