<svg xmlns="http://www.w3.org/2000/svg" xml:space="preserve" width="56.69" height="36.85" style="font-size:12px;overflow:visible;color-interpolation-filters:sRGB;fill-rule:evenodd;stroke-linecap:square;stroke-miterlimit:3" viewBox="0 0 56.69 36.85"><g transform="translate(-15.3 -15.304)"><title>Page-1</title><g transform="translate(15.3 -34.016)"><title>App Proxy.15947</title><title>Sheet.15948</title><g transform="translate(12.026)"><title>Sheet.15949</title><path d="M31.5 64.38c-.58-3.51-2.29-6.88-4.87-9.65-3.44-3.51-7.88-5.41-12.74-5.41-4.73 0-9.31 1.9-12.74 5.41C0 55.9 0 57.8 1.15 59.11c1.14 1.17 3 1.17 4.29 0 2.29-2.34 5.3-3.51 8.45-3.51s6.15 1.32 8.44 3.51c4.73 4.83 4.73 12.58 0 17.26-2.29 2.34-5.29 3.51-8.44 3.51s-6.16-1.32-8.45-3.51c-1.15-1.17-3.01-1.17-4.29 0-1.15 1.17-1.15 3.07 0 4.39 3.43 3.51 7.87 5.41 12.74 5.41 4.72 0 9.3-1.9 12.74-5.41 2.86-2.93 4.44-6.44 5.01-10.24h5.58c-.28-1.9-.71-3.95-1.14-6.14z" style="fill:#57a300;stroke:none;stroke-width:15.30000019;stroke-linecap:butt"/></g><g transform="translate(18.898 -11.406)"><title>Sheet.15950</title><ellipse cx="7.158" cy="78.855" rx="7.158" ry="7.312" style="fill:#57a300;stroke:none;stroke-width:15.30000019;stroke-linecap:butt"/></g><g transform="translate(0 -15.5)"><title>Sheet.15951</title><path d="M0 79.73h25.63v6.44H0Zm42.38 0h14.31v6.44H42.38Z" style="fill:#57a300;stroke:none;stroke-width:15.30000019;stroke-linecap:butt"/></g></g></g></svg>