<svg xmlns="http://www.w3.org/2000/svg" xml:space="preserve" width="48.186" height="56.703" style="font-size:12px;overflow:visible;color-interpolation-filters:sRGB;fill-rule:evenodd;stroke-linecap:square;stroke-miterlimit:3" viewBox="0 0 48.186 56.703"><defs><linearGradient id="a" x1="0" x2="46.619" y1="66.521" y2="66.521" gradientTransform="scale(.90715 1.10235)" gradientUnits="userSpaceOnUse"><stop offset="0" stop-color="#59285f"/><stop offset="1" stop-color="#a33a85"/></linearGradient></defs><g transform="translate(-34 -34.001)"><title>Page-1</title><g transform="translate(34 -34.016)"><title>App Service Logs.15758</title><title>Sheet.15759</title><g transform="translate(0 -.28)"><title>Sheet.15760</title><path d="m.07 73.68 4.11-4.69a1.997 1.956 0 0 1 1.53-.68h39.46a2.753 2.696 0 0 1 3.01 2.42 2.621 2.567 0 0 1 0 .34v48.26a1.93 1.89 0 0 1-.68 1.43l-4.42 3.96H2.75L0 123.63Z" style="fill:#a33a85;stroke:none;stroke-width:34;stroke-linecap:butt"/></g><g transform="translate(3.397 -2.362)"><title>Sheet.15761</title><path d="m0 75.75 2.52-2.82a1.708 1.672 0 0 1 1.19-.6h37.01a1.766 1.73 0 0 1 1.77 1.74v45.86a1.756 1.72 0 0 1-.58 1.3l-3.94 3.49z" style="fill:#fff;stroke:none;stroke-width:34;stroke-linecap:butt"/></g><g transform="translate(.09)"><title>Sheet.15762</title><path d="M41 73.33H.21a.206.202-180 0 0-.206.202L0 123.46a1.328 1.3-180 0 0 1.33 1.26H41a1.287 1.26-180 0 0 1.29-1.26V74.64A1.328 1.3-180 0 0 41 73.33" style="fill:url(#a);stroke:none;stroke-width:34;stroke-linecap:butt"/></g><g transform="translate(6.25 -13.235)"><title>Sheet.15763</title><path d="M27.05 100.27a15.594 15.27-180 0 0-21.84-2.94l-.19.18a15.587 15.263-180 0 0 9.7 27.21 15.44 15.118-180 0 0 9.52-3.2 15.661 15.335-180 0 0 2.81-21.25M14.6 96.2a13.747 13.461 0 0 1 1.88.13 13.451 13.172 0 0 1 7.43 3.52c-.22-.18-.44-.38-.68-.54a29.032 28.428-180 0 0-8.04 1.72 15.021 14.709-180 0 0-1.55.76 37.55 36.769 0 0 1-3.37-4.89 13.461 13.181 0 0 1 4.33-.7M4.09 117.7c-.04-.04-.08-.07-.1-.11a13.57 13.288 0 0 1 .03-16.17 38.511 37.71-180 0 0 .89 4.15 4.362 4.27-180 0 0 .46 7.24 24.98 24.46-180 0 0-1.28 4.89m2.35-18.8a13.622 13.339 0 0 1 2.51-1.43 41.03 40.176-180 0 0 3.45 5.08 15.085 14.772-180 0 0-3.32 2.52 4.368 4.277-180 0 0-1.6-.32 4.02 3.937-180 0 0-.53.05 41.4 40.539 0 0 1-1.2-5.23c.23-.23.43-.47.69-.67m16.55 21.04a13.51 13.228 0 0 1-16.98-.31 35.285 34.551 0 0 1 1.8-6.3 4.384 4.293-180 0 0 .69-.1c.64.65 1.33 1.28 2.05 1.87a12.573 12.312-180 0 0 2.91 1.73 2.93 2.87-180 0 0 5.21 1.65 25.845 25.307-180 0 0 5.55.32 12.593 12.33 0 0 1-1.23 1.14m2.87-3.12a14.304 14.006 0 0 1-2.5.08 20.566 20.139 0 0 1-3.97-.4 2.975 2.913-180 0 0-5.12-1.95 14.191 13.896 0 0 1-3.55-2.64 4.349 4.258-180 0 0 .41-5.24 13.83 13.543 0 0 1 2.81-2.16 34.677 33.956-180 0 0 5.69 4.82 2.995 2.932-180 0 0-.13.63 3.081 3.017-180 0 0 3.08 3.01 3.046 2.983-180 0 0 2.02-.77c.15.07.28.12.52.24 0 0 .41.2.62.32.45.29 1.66.87 1.75.91a13.42 13.14 0 0 1-1.63 3.15m1.27-5.14a9.241 9.049-180 0 0-.62-.32l-.62-.31-.41-.25a3.04 2.976-180 0 0-4.99-3.04 43.1 42.205 0 0 1-4.85-4.16 24.355 23.849 0 0 1 9.77-2.18l.03.04a13.51 13.228 0 0 1 2.41 10.62c-.19-.13-.58-.3-.72-.4" style="fill:#fff;stroke:none;stroke-width:34;stroke-linecap:butt"/></g></g></g></svg>