<svg xmlns="http://www.w3.org/2000/svg" xml:space="preserve" width="56.691" height="56.7" style="font-size:12px;overflow:visible;color-interpolation-filters:sRGB;fill-rule:evenodd;stroke-linecap:square;stroke-miterlimit:3" viewBox="0 0 56.691 56.7"><defs><linearGradient id="a" x1="0" x2="51.816" y1="65.796" y2="65.796" gradientTransform="scale(1.09386 .9142)" gradientUnits="userSpaceOnUse"><stop offset="0" stop-color="#5ea0ef"/><stop offset="1" stop-color="#0078d4"/></linearGradient></defs><g transform="translate(-16.746 -16.804)"><title>Page-1</title><g transform="translate(16.746 -34.016)"><title>App Spaces.15657</title><g transform="translate(0 -3.634)"><title>path17288</title><path d="M9.66 81.17c0 9.47 7.73 17.17 17.23 17.17 7.8 0 14.14-6.32 14.14-14.09 0-.58.44-1.06 1.02-1.11a1.126 1.122 0 0 1 1.21.91 13.635 13.59 0 0 1 .22 2.44c0 9.65-7.88 17.5-17.56 17.5-12.34 0-22.38-10.01-22.38-22.31a1.77 1.764-180 1 0-3.54 0c0 14.24 11.63 25.84 25.92 25.84 11.64 0 21.1-9.43 21.1-21.03 0-9.47-7.73-17.17-17.23-17.17-7.8 0-14.14 6.32-14.14 14.09a1.126 1.122 0 0 1-1.02 1.12 1.126 1.122 0 0 1-1.21-.92 13.635 13.59 0 0 1-.22-2.44c0-9.64 7.88-17.49 17.55-17.49 12.35 0 22.39 10.01 22.39 22.31a1.77 1.764-180 1 0 3.54 0c0-14.25-11.64-25.84-25.93-25.84-11.63 0-21.09 9.43-21.09 21.02" style="fill:url(#a);stroke:none;stroke-width:16.74880028;stroke-linecap:butt"/></g><g transform="translate(2.971)"><title>path17290</title><path d="M44.24 100.43v4.73a2.37 2.362-180 0 0 2.37 2.36h4.74a2.37 2.362-180 0 0 2.37-2.36v-4.73a2.37 2.362-180 0 0-2.37-2.36h-4.74a2.37 2.362-180 0 0-2.37 2.36M0 58.7v3.15a1.58 1.575-180 0 0 1.58 1.57h3.16a1.58 1.575-180 0 0 1.58-1.57V58.7a1.58 1.575-180 0 0-1.58-1.58H1.58A1.58 1.575-180 0 0 0 58.7m47.4-6.3v3.15a1.58 1.575-180 0 0 1.58 1.57h3.16a1.58 1.575-180 0 0 1.58-1.57V52.4a1.58 1.575-180 0 0-1.58-1.58h-3.16a1.58 1.575-180 0 0-1.58 1.58" style="fill:#32bedd;stroke:none;stroke-width:16.80859947;stroke-linecap:butt"/></g><g transform="translate(22.342 -18.837)"><title>path17292</title><path d="M0 102.96V106a1.525 1.52-180 0 0 1.53 1.52h3.05A1.525 1.52-180 0 0 6.1 106v-3.04a1.525 1.52-180 0 0-1.52-1.52H1.53A1.525 1.52-180 0 0 0 102.96M6.1 90.8v3.04a1.525 1.52-180 0 0 1.53 1.52h3.05a1.525 1.52-180 0 0 1.52-1.52V90.8a1.525 1.52-180 0 0-1.52-1.52H7.63A1.525 1.52-180 0 0 6.1 90.8" style="fill:#50e6ff;stroke:none;stroke-width:16.22319984;stroke-linecap:butt"/></g></g></g></svg>