<svg xmlns="http://www.w3.org/2000/svg" xml:space="preserve" width="36.855" height="55.618" style="font-size:12px;overflow:visible;color-interpolation-filters:sRGB;fill-rule:evenodd;stroke-linecap:square;stroke-miterlimit:3" viewBox="0 0 36.855 55.618"><defs><radialGradient id="a" cx="45.272" cy="114.22" r="63.385" fx="45.272" fy="114.22" gradientTransform="scale(.81403 1.22846)" gradientUnits="userSpaceOnUse"><stop offset=".195" stop-color="#ffd70f"/><stop offset=".44" stop-color="#ffcb12"/><stop offset=".875" stop-color="#feac19"/><stop offset="1" stop-color="#fea11b"/></radialGradient></defs><g transform="translate(-42.886 -42.887)"><title>Page-1</title><g transform="translate(42.889 -41.808)"><title>App Event.15983</title><title>MsPortalFx.base.images-37</title><title>path4</title><path d="M15.53 115.63H.83a.76.738 0 0 1-.833-.618.556.54 0 0 1 .073-.263L17.71 85.07a.87.847 0 0 1 .76-.37h17.38a.756.735 0 0 1 .833.618.562.547 0 0 1-.147.368L15.84 108.91h20.18a.76.738 0 0 1 .833.618.588.572 0 0 1-.213.423L3.09 139.66c-.32.16-2.54 1.73-1.45-.66Z" style="fill:url(#a);stroke:none;stroke-width:42.88899994;stroke-linecap:butt"/></g></g></svg>