<svg xmlns="http://www.w3.org/2000/svg" xml:space="preserve" width="61.555" height="63.582" style="font-size:12px;overflow:visible;color-interpolation-filters:sRGB;fill-rule:evenodd;stroke-linecap:square;stroke-miterlimit:3" viewBox="0 0 61.555 63.582"><defs><linearGradient id="a" x1="-6.001" x2="41.975" y1="84.494" y2="84.494" gradientTransform="scale(.99688 1.00313)" gradientUnits="userSpaceOnUse"><stop offset="0" stop-color="#773adc"/><stop offset="1" stop-color="#a67af4"/></linearGradient><linearGradient id="b" x1="-3.35" x2="21.388" y1="109.792" y2="109.792" gradientTransform="scale(.99684 1.00317)" gradientUnits="userSpaceOnUse"><stop offset="0" stop-color="#fff"/><stop offset=".995" stop-color="#fff"/></linearGradient></defs><g transform="translate(-34.002 -34.002)"><title>Page-1</title><g transform="translate(38.86 -34.016)"><title>App Service Connector.15850</title><title>Sheet.15851</title><g transform="translate(1.124 -16.74)"><title>Sheet.15852</title><path d="M25.64 123.53a1.529 1.539 0 0 1 .76-1.33l14.22-8.31a1.525 1.535 0 0 1 .73-.2 23.913 24.063-180 1 0-15.71 17.91z" style="fill:url(#a);stroke:none;stroke-width:34;stroke-linecap:butt"/></g><g transform="translate(0 -21.453)"><title>Sheet.15853</title><path d="M0 128.28a24.013 24.164-180 0 0 3.49 3.32l5.94-5.98-3.39-3.41z" style="fill:#b796f9;stroke:none;stroke-width:34;stroke-linecap:butt"/></g><g transform="translate(7.075 -28.74)"><title>Sheet.15854</title><path d="M0 115.39a11.388 11.459-180 1 0 16.1 16.21l5.22-5.26-16.1-16.2z" style="fill:url(#b);stroke:none;stroke-width:34;stroke-linecap:butt"/></g><g transform="translate(18.172 -40.041)"><title>Sheet.15855</title><path d="m8.95 115.45.32.32a1.715 1.725 0 0 1 0 2.44l-6.53 6.57L0 122.02l6.54-6.57a1.715 1.725 0 0 1 2.42 0zm6.78 6.81.31.32a1.715 1.725 0 0 1 0 2.44L9.5 131.6l-2.73-2.76 6.53-6.57a1.715 1.725 0 0 1 2.43 0z" style="fill:#f2f2f2;stroke:none;stroke-width:34;stroke-linecap:butt"/></g><g transform="rotate(-45 -24.278 79.203)"><title>Sheet.15856</title><path d="M0 130.73a.857.863-180 0 0 .857.863l3.333.007a.857.863-180 0 0 .857-.863l.003-25.607a.857.863-180 0 0-.857-.863l-3.333.003a.857.863-180 0 0-.857.863z" style="fill:#b796f9;stroke:none;stroke-width:34;stroke-linecap:butt"/></g><g transform="translate(42.496)"><title>Sheet.15857</title><path d="M14.2 106.76v16.53L0 131.6v-16.56z" style="fill:#32bedd;stroke:none;stroke-width:34;stroke-linecap:butt"/></g><g transform="translate(28.279 -16.532)"><title>Sheet.15858</title><path d="m28.41 123.29-14.19 8.31L0 123.27l14.22-8.31Z" style="fill:#9cebff;stroke:none;stroke-width:34;stroke-linecap:butt"/></g><g transform="translate(28.279)"><title>Sheet.15859</title><path d="M14.22 115.06v16.54L0 123.29v-16.55z" style="fill:#50e6ff;stroke:none;stroke-width:34;stroke-linecap:butt"/></g></g></g></svg>