<svg xmlns="http://www.w3.org/2000/svg" xml:space="preserve" width="56.697" height="56.693" style="font-size:12px;overflow:visible;color-interpolation-filters:sRGB;fill-rule:evenodd;stroke-linecap:square;stroke-miterlimit:3" viewBox="0 0 56.697 56.693"><defs><linearGradient id="a" x1="0" x2="26.014" y1="97.527" y2="97.527" gradientTransform="scale(.99062 1.00946)" gradientUnits="userSpaceOnUse"><stop offset="0" stop-color="#32bedd"/><stop offset=".175" stop-color="#32caea"/><stop offset=".41" stop-color="#32d2f2"/><stop offset=".775" stop-color="#32d4f5"/></linearGradient></defs><g transform="translate(-34 -34.001)"><title>Page-1</title><g transform="translate(34 -34.016)"><title>App Service Extension.15799</title><title>MsPortalFx.base.images-21</title><g transform="translate(12.61 -11.91)"><title>Sheet.15801</title><path d="M0 123.68a1.01 1.03-180 0 0 1.01 1.03h23.74a1.01 1.03-180 0 0 1.02-1.03v-24.2a1.01 1.03-180 0 0-1.02-1.03H1.01A1.01 1.03-180 0 0 0 99.48Z" style="fill:url(#a);stroke:none;stroke-width:34;stroke-linecap:butt"/></g><g transform="translate(29.327 -28.513)"><title>Sheet.15802</title><path d="M25.35 96.53H1a1 1.02-180 0 0-1 1.02v4.51a1 1.02-180 0 0 1 1.02h17.91a2.018 2.056 0 0 1 2.02 2.06v18.55a1 1.02-180 0 0 1 1.02h4.44a1 1.02-180 0 0 1-1.02v-25.1a2.02 2.06-180 0 0-2.02-2.06" style="fill:#773adc;stroke:none;stroke-width:34;stroke-linecap:butt"/></g><title>Sheet.15803</title><path d="M46.13 100.52v16.33a1.84 1.876 0 0 1-1.84 1.88H7.7a1.84 1.876 0 0 1-1.84-1.88v-35.2a1.84 1.876 0 0 1 1.84-1.87h18.35a1 1.02-180 0 0 1-1.02v-3.93a1 1.02-180 0 0-1-1.02H1.84A1.84 1.876-180 0 0 0 75.68v47.15a1.84 1.876-180 0 0 1.84 1.88h48.31a1.844 1.88-180 0 0 1.85-1.88v-22.31a1 1.02-180 0 0-1-1.02h-3.86a1 1.02-180 0 0-1.01 1.02" style="fill:#b3b3b3;stroke:none;stroke-width:34;stroke-linecap:butt"/></g></g></svg>