<svg xmlns="http://www.w3.org/2000/svg" xmlns:xlink="http://www.w3.org/1999/xlink" xml:space="preserve" width="56.694" height="56.69" style="font-size:12px;overflow:visible;color-interpolation-filters:sRGB;fill-rule:evenodd;stroke-linecap:square;stroke-miterlimit:3" viewBox="0 0 56.694 56.69"><defs><linearGradient id="a" x1="0" x2="1" y1="0" y2="0" gradientTransform="rotate(-90 .5 .5)"><stop offset="0" stop-color="#76bc2d"/><stop offset=".6" stop-color="#81ce31"/><stop offset=".82" stop-color="#86d633"/></linearGradient><linearGradient xlink:href="#a" id="b" x1="0" x2="15.314" y1="108.543" y2="108.543" gradientTransform="scale(1.01281 .98735)" gradientUnits="userSpaceOnUse"/><linearGradient xlink:href="#a" id="c" x1="0" x2="15.314" y1="108.543" y2="108.543" gradientTransform="scale(1.01281 .98735)" gradientUnits="userSpaceOnUse"/><linearGradient xlink:href="#a" id="d" x1="0" x2="15.314" y1="108.543" y2="108.543" gradientTransform="scale(1.01281 .98735)" gradientUnits="userSpaceOnUse"/></defs><g transform="translate(-31.583 -31.584)"><title>Page-1</title><g transform="translate(31.583 -34.016)"><title>App Task.15649</title><title>MsPortalFx.base.images-46</title><g transform="translate(5.39 -14.866)"><title>path4</title><path d="M43.98 105.25H26.35a.946.923 0 0 1-.946-.923l.006-6.567h-4.74v6.56a.95.926 0 0 1-.946.923L1.9 105.25A1.896 1.849-180 0 0 0 107.1v8.5h4.73v-4.73a.95.926 0 0 1 .95-.923l14.99.003v12.34h4.74v-12.32h14.78a.946.923 0 0 1 .946.923l.004 4.817h4.75v-8.61a1.896 1.849-180 0 0-1.91-1.85" style="fill:#50e6ff;stroke:none;stroke-width:31.58329964;stroke-linecap:butt"/></g><g transform="translate(18.751 -38.17)"><title>rect6</title><path d="M0 120.62a1.718 1.676-180 0 0 1.72 1.67h15.56a1.718 1.676-180 0 0 1.71-1.67v-15.18a1.718 1.676-180 0 0-1.71-1.67H1.72A1.718 1.676-180 0 0 0 105.44Z" style="fill:#0078d4;stroke:none;stroke-width:31.58329964;stroke-linecap:butt"/></g><g transform="translate(22.398 -41.726)"><title>rect8</title><path d="M0 121.26a1.06 1.033-180 0 0 1.06 1.03h9.58a1.06 1.033-180 0 0 1.06-1.03v-9.34a1.06 1.033-180 0 0-1.06-1.04H1.06A1.06 1.033-180 0 0 0 111.92Z" style="fill:#fff;stroke:none;stroke-width:31.58329964;stroke-linecap:butt"/></g><g transform="translate(0 -6.397)"><title>rect10</title><path d="M0 120.92a1.405 1.37-180 0 0 1.4 1.37h12.7a1.405 1.37-180 0 0 1.41-1.37v-12.38a1.405 1.37-180 0 0-1.41-1.37H1.4a1.405 1.37-180 0 0-1.4 1.37Z" style="fill:url(#b);stroke:none;stroke-width:31.58329964;stroke-linecap:butt"/></g><g transform="translate(20.673)"><title>rect12</title><path d="M0 120.92a1.405 1.37-180 0 0 1.4 1.37h12.7a1.405 1.37-180 0 0 1.41-1.37v-12.38a1.405 1.37-180 0 0-1.41-1.37H1.4a1.405 1.37-180 0 0-1.4 1.37Z" style="fill:url(#c);stroke:none;stroke-width:31.58329964;stroke-linecap:butt"/></g><g transform="translate(41.184 -6.296)"><title>rect14</title><path d="M0 120.92a1.405 1.37-180 0 0 1.4 1.37h12.7a1.405 1.37-180 0 0 1.41-1.37v-12.38a1.405 1.37-180 0 0-1.41-1.37H1.4a1.405 1.37-180 0 0-1.4 1.37Z" style="fill:url(#d);stroke:none;stroke-width:31.58329964;stroke-linecap:butt"/></g></g></g></svg>