<svg xmlns="http://www.w3.org/2000/svg" xml:space="preserve" width="56.69" height="51.111" style="font-size:12px;overflow:visible;color-interpolation-filters:sRGB;fill-rule:evenodd;stroke-linecap:square;stroke-miterlimit:3" viewBox="0 0 56.69 51.111"><defs><linearGradient id="a" x1="0" x2="47.333" y1="95.324" y2="95.324" gradientTransform="scale(1.1977 .83494)" gradientUnits="userSpaceOnUse"><stop offset="0" stop-color="#e27908"/><stop offset=".325" stop-color="#e47d0a"/><stop offset=".62" stop-color="#eb8810"/><stop offset=".91" stop-color="#f69a19"/><stop offset="1" stop-color="#faa21d"/></linearGradient></defs><g transform="translate(-34 -34)"><title>Page-1</title><g transform="translate(34 -34.082)"><title>Application Service Certificate.15574</title><title>Sheet.15575</title><g transform="translate(0 -11.508)"><title>Sheet.15576</title><path d="M0 117.25a1.89 1.86-180 0 0 1.89 1.86H54.8a1.89 1.86-180 0 0 1.89-1.86v-35.8a1.89 1.86-180 0 0-1.89-1.86H1.89A1.89 1.86-180 0 0 0 81.45Z" style="fill:url(#a);stroke:none;stroke-width:34;stroke-linecap:butt"/></g><g transform="translate(3.307 -14.995)"><title>Sheet.15577</title><path d="M0 118.18a.945.93-180 0 0 .945.93H49.13a.945.93-180 0 0 .945-.93l.005-30.69a.945.93-180 0 0-.945-.93H.94a.945.93-180 0 0-.945.93z" style="fill:#fff;stroke:none;stroke-width:34;stroke-linecap:butt"/></g><g transform="translate(10.904 -23.536)"><title>Sheet.15578</title><path d="M36.17 118.21a.913.899 0 0 1-.913.899l-20.447.001a.913.899 0 1 1 0-1.794l20.44-.006a.91.896 0 0 1 .913.895zm0-5.56a.91.896 0 0 1-.913.896l-20.447.004a.913.899 0 1 1 0-1.794l20.44-.006a.913.899 0 0 1 .913.898zm0-8.11a.913.899 0 0 1-.913.899L.97 105.44a.913.899 0 1 1 0-1.794l34.28-.006a.91.896 0 0 1 .913.895z" style="fill:#d15900;stroke:none;stroke-width:34;stroke-linecap:butt"/></g><g transform="translate(4.872)"><title>Sheet.15579</title><path d="M11.29 105.07a7.953 7.826 0 0 1-10.63 0L0 118.06a1.049 1.032-180 0 0 1.8.77l4.09-4.08 4.12 4.12a1.049 1.032-180 0 0 1.81-.76z" style="fill:#b31b1b;stroke:none;stroke-width:34;stroke-linecap:butt"/></g><g transform="translate(1.468 -11.322)"><title>Sheet.15580</title><ellipse cx="9.49" cy="109.736" rx="9.49" ry="9.369" style="fill:#e62323;stroke:none;stroke-width:34;stroke-linecap:butt"/></g><g transform="translate(3.757 -13.585)"><title>Sheet.15581</title><ellipse cx="7.2" cy="111.999" rx="7.2" ry="7.107" style="fill:#ffb34d;stroke:none;stroke-width:34;stroke-linecap:butt"/></g></g></g></svg>