<svg xmlns="http://www.w3.org/2000/svg" xml:space="preserve" width="56.693" height="56.693" style="font-size:12px;overflow:visible;color-interpolation-filters:sRGB;fill-rule:evenodd;stroke-linecap:square;stroke-miterlimit:3" viewBox="0 0 56.693 56.693"><defs><linearGradient id="a" x1="0" x2="56.693" y1="68.016" y2="68.016" gradientUnits="userSpaceOnUse"><stop offset="0" stop-color="#005ba1"/><stop offset=".17" stop-color="#0063ae"/><stop offset=".575" stop-color="#0072ca"/><stop offset=".815" stop-color="#0078d4"/></linearGradient></defs><g transform="translate(-34 -34)"><title>Page-1</title><g transform="translate(34 -34.016)"><title>Application Group.15639</title><title>Application group</title><title>Sheet.15641</title><circle cx="28.346" cy="96.362" r="28.346" style="fill:url(#a);stroke:none;stroke-width:34;stroke-linecap:butt"/><g transform="translate(14.74 -14.74)"><title>Sheet.15642</title><path d="M9.52 116.54h8.17v8.17H9.52ZM0 105.66h8.16V97.5H1.14A1.137 1.137-180 0 0 0 98.64Zm1.14 19.05h7.02v-8.17H0v7.03a1.137 1.137-180 0 0 1.14 1.14M0 115.18h8.16v-8.16H0Zm19.05 9.53h7.02a1.137 1.137-180 0 0 1.14-1.14v-7.03h-8.16zm-9.53-9.53h8.17v-8.16H9.52Zm9.53 0h8.16v-8.16h-8.16zm0-17.67v8.15h8.16v-7.02a1.137 1.137-180 0 0-1.14-1.14Zm-9.53 8.15h8.17V97.5H9.52Z" style="fill:#fff;stroke:none;stroke-width:34;stroke-linecap:butt"/></g></g></g></svg>