<svg xmlns="http://www.w3.org/2000/svg" xml:space="preserve" width="56.697" height="56.691" style="font-size:12px;overflow:visible;color-interpolation-filters:sRGB;fill-rule:evenodd;stroke-linecap:square;stroke-miterlimit:3" viewBox="0 0 56.697 56.691"><defs><linearGradient id="a" x1="0" x2="48.544" y1="77.082" y2="77.082" gradientTransform="scale(1.00734 .99271)" gradientUnits="userSpaceOnUse"><stop offset="0" stop-color="#5ea0ef"/><stop offset=".18" stop-color="#589eed"/><stop offset=".41" stop-color="#4897e9"/><stop offset=".66" stop-color="#2e8ce1"/><stop offset=".94" stop-color="#0a7cd7"/><stop offset="1" stop-color="#0078d4"/></linearGradient></defs><g transform="translate(-34 -34.004)"><title>Page-1</title><g transform="translate(34 -34.016)"><title>Application Registration.15626</title><title>Icon-identity-232</title><g transform="translate(0 -8.5)"><title>Sheet.15628</title><path d="M17.07 110.25h14.66v14.46H17.07ZM.14 90.97H14.8V76.52H2.03a2.032 2.008-180 0 0-2.03 2zm2.03 33.74H14.8v-14.46H0v12.45a2.032 2.008-180 0 0 2.03 2.01zM.14 107.98H14.8v-14.6H0Zm34.13 16.73h12.6a2.032 2.008-180 0 0 2.03-2.01v-12.45H34.14Zm-16.93-16.73h14.39v-14.6H17.07Zm16.93 0h14.4v-14.6H34.14Zm0-31.33v14.32h14.4V78.52a2.032 2.008-180 0 0-2.04-2zM17.34 91.11h14.39V76.52H17.07Z" style="fill:url(#a);stroke:none;stroke-width:34;stroke-linecap:butt"/></g><g transform="translate(43.587)"><title>Sheet.15629</title><path d="M13.11 102.05v15.1L0 124.71v-15.09z" style="fill:#32bedd;stroke:none;stroke-width:34;stroke-linecap:butt"/></g><g transform="translate(30.48 -15.06)"><title>Sheet.15630</title><path d="m26.21 117.11-13.1 7.6L0 117.11l13.11-7.56z" style="fill:#9cebff;stroke:none;stroke-width:34;stroke-linecap:butt"/></g><g transform="translate(30.48)"><title>Sheet.15631</title><path d="M13.11 109.65v15.06L0 117.15v-15.1z" style="fill:#50e6ff;stroke:none;stroke-width:34;stroke-linecap:butt"/></g><g transform="translate(30.48)"><title>Sheet.15632</title><path d="m0 117.15 13.11-7.53v15.09z" style="fill:#9cebff;stroke:none;stroke-width:34;stroke-linecap:butt"/></g><g transform="translate(43.587)"><title>Sheet.15633</title><path d="M13.11 117.15 0 109.62v15.09z" style="fill:#50e6ff;stroke:none;stroke-width:34;stroke-linecap:butt"/></g></g></g></svg>