<svg xmlns="http://www.w3.org/2000/svg" xml:space="preserve" width="56.693" height="56.693" style="font-size:12px;overflow:visible;color-interpolation-filters:sRGB;fill-rule:evenodd;stroke-linecap:square;stroke-miterlimit:3" viewBox="0 0 56.693 56.693"><defs><linearGradient id="a" x1="0" x2="30.307" y1="116.558" y2="116.558" gradientTransform="scale(1.17762 .84917)" gradientUnits="userSpaceOnUse"><stop offset=".18" stop-color="#5ea0ef"/><stop offset="1" stop-color="#0078d4"/></linearGradient></defs><g transform="translate(-34 -34)"><title>Page-1</title><g transform="translate(34 -34.016)"><title>Application Service Environment.15532</title><title>Icon-web-47</title><g transform="translate(3.15 -2.898)"><title>Sheet.15534</title><path d="M23.84 98.28H0v-20.5a3.465 3.465 0 0 1 3.43-3.47h20.41ZM2.96 95.32h17.92V77.21H3.43a.47.47-180 0 0-.472.472zm47.43 2.96H26.55V74.31h20.41a3.465 3.465 0 0 1 3.43 3.47zm-20.88-2.96h17.92V77.78a.472.472-180 0 0-.472-.567L29.51 77.21Zm-5.67 29.39H3.43a3.433 3.433 0 0 1-3.43-3.4v-20.54h23.84ZM2.96 103.73v17.58a.47.47-180 0 0 .472.472l17.448-.002v-18.05zm44 20.98H26.55v-23.94h23.84v20.54a3.433 3.433 0 0 1-3.43 3.4m-17.45-2.96h17.45a.47.47-180 0 0 .472-.472l-.002-17.548H29.51Z" style="fill:#949494;stroke:none;stroke-width:34;stroke-linecap:butt"/></g><g transform="translate(10.52 -15.213)"><title>Sheet.15535</title><path d="M35.69 116.68a8.16 8.16-180 0 0-6.97-7.88 10.205 10.205-180 0 0-10.42-9.82 10.46 10.46-180 0 0-9.92 6.83A9.7 9.7-180 0 0 0 115.26a9.795 9.795-180 0 0 10.05 9.45h17.67a8.22 8.22-180 0 0 7.97-8.03" style="fill:url(#a);stroke:none;stroke-width:34;stroke-linecap:butt"/></g><title>Sheet.15536</title><path d="M0 68.016h56.693v56.693H0z" style="fill:none;stroke:none;stroke-width:34;stroke-linecap:butt"/></g></g></svg>