<svg xmlns="http://www.w3.org/2000/svg" xml:space="preserve" width="45.35" height="56.693" style="font-size:12px;overflow:visible;color-interpolation-filters:sRGB;fill-rule:evenodd;stroke-linecap:square;stroke-miterlimit:3" viewBox="0 0 45.35 56.693"><defs><linearGradient id="a" x1="0" x2="46.502" y1="65.063" y2="65.063" gradientTransform="scale(.89458 1.11784)" gradientUnits="userSpaceOnUse"><stop offset="0" stop-color="#6bb9f2"/><stop offset="1" stop-color="#1b93eb"/></linearGradient></defs><g transform="translate(-34 -34.004)"><title>Page-1</title><g transform="translate(34 -34.016)"><title>Application Security Group.15614</title><title>Icon-networking-83</title><title>Sheet.15616</title><path d="M45.35 94.48c0 15.24-18.02 27.53-21.93 30.02a1.417 1.449 0 0 1-1.48 0C18.02 122.01 0 109.72 0 94.48V76.14a1.417 1.449 0 0 1 1.39-1.45c14.02-.37 10.78-6.67 21.29-6.67 10.5 0 7.27 6.3 21.29 6.67a1.417 1.449 0 0 1 1.38 1.45z" style="fill:#1b93eb;stroke:none;stroke-width:34;stroke-linecap:butt"/><g transform="translate(1.88 -2.353)"><title>Sheet.15617</title><path d="M41.6 96.99c0 13.98-16.52 25.2-20.12 27.53a1.325 1.355 0 0 1-1.36 0C16.51 122.25 0 110.97 0 96.99V80.17a1.294 1.323 0 0 1 1.26-1.33c12.85-.34 9.89-6.11 19.54-6.11 9.64 0 6.68 5.77 19.53 6.11a1.294 1.323 0 0 1 1.27 1.33z" style="fill:url(#a);stroke:none;stroke-width:34;stroke-linecap:butt"/></g><g transform="translate(14.05 -14.293)"><title>Sheet.15618</title><path d="M14.94 123.07c-3.45-.47-3.42-2.77-3.39-6.3H5.02c0 3.69 0 5.99-3.39 6.3A1.787 1.827-180 0 0 0 124.71h16.61a1.818 1.859-180 0 0-1.67-1.64" style="fill:#1f56a3;stroke:none;stroke-width:34;stroke-linecap:butt"/></g><g transform="translate(7.333 -22.295)"><title>Sheet.15619</title><path d="M0 123.67a1.017 1.04-180 0 0 1.02 1.04h27.91a1.017 1.04-180 0 0 1.02-1.04v-19.59a1.017 1.04-180 0 0-1.02-1.04H1.02A1.017 1.04-180 0 0 0 104.08Z" style="fill:#1490df;stroke:none;stroke-width:34;stroke-linecap:butt"/></g><g transform="translate(9.059 -24.31)"><title>Sheet.15620</title><path d="M0 124.2a.493.504-180 0 0 .493.504l25.477.006a.493.504-180 0 0 .493-.504l.007-16.976a.493.504-180 0 0-.493-.504L.49 106.72a.493.504-180 0 0-.493.504z" style="fill:#fff;stroke:none;stroke-width:34;stroke-linecap:butt"/></g><g transform="translate(22.307 -26.957)"><title>Sheet.15621</title><path d="m5.36 115.2.03 6.33L0 124.71v-6.33z" style="fill:#0078d4;stroke:none;stroke-width:34;stroke-linecap:butt"/></g><g transform="translate(16.915 -33.288)"><title>Sheet.15622</title><path d="m10.75 121.53-5.36 3.18L0 121.53l5.36-3.18Z" style="fill:#83b9f9;stroke:none;stroke-width:34;stroke-linecap:butt"/></g><g transform="translate(16.915 -26.957)"><title>Sheet.15623</title><path d="m5.39 118.38-.03 6.33L0 121.53v-6.33z" style="fill:#5ea0ef;stroke:none;stroke-width:34;stroke-linecap:butt"/></g><g transform="translate(22.307 -26.957)"><title>Sheet.15624</title><path d="M0 118.38v6.33l5.36-3.18z" style="fill:#5ea0ef;fill-opacity:.2;stroke:none;stroke-width:34;stroke-linecap:butt"/></g><g transform="translate(16.915 -26.862)"><title>Sheet.15625</title><path d="m5.36 118.35.03.03v6.33h-.03L0 121.53Z" style="fill:#83b9f9;fill-opacity:.2;stroke:none;stroke-width:34;stroke-linecap:butt"/></g></g></g></svg>