<svg xmlns="http://www.w3.org/2000/svg" xml:space="preserve" width="56.69" height="53.852" style="font-size:12px;overflow:visible;color-interpolation-filters:sRGB;fill-rule:evenodd;stroke-linecap:square;stroke-miterlimit:3" viewBox="0 0 56.69 53.852"><g transform="translate(-34 -34.002)"><title>Page-1</title><g transform="translate(34 -34.016)"><title>Application Service Process Explorer.15468</title><title> MsPortalFx.base.images-41</title><g transform="translate(12.696)"><title>Sheet.15470</title><path d="M28.32 118.92c-6.58-.87-6.47-5.02-6.44-11.74H9.54c.03 6.73.15 10.88-6.44 11.74a3.357 3.291-180 0 0-3.1 2.95h31.44a3.376 3.31-180 0 0-3.12-2.95" style="fill:#1f56a3;stroke:none;stroke-width:34;stroke-linecap:butt"/></g><g transform="translate(0 -14.502)"><title>Sheet.15471</title><path d="M0 119.99a1.921 1.883-180 0 0 1.92 1.88h52.85a1.921 1.883-180 0 0 1.92-1.88V84.4a1.921 1.883-180 0 0-1.92-1.88H1.92A1.921 1.883-180 0 0 0 84.4Z" style="fill:#1490df;stroke:none;stroke-width:34;stroke-linecap:butt"/></g><g transform="translate(3.266 -18.158)"><title>Sheet.15472</title><path d="M0 120.93a.96.942-180 0 0 .96.942l48.16-.002a.96.942-180 0 0 .96-.942V90.16a.96.942-180 0 0-.96-.942L.96 89.22a.96.942-180 0 0-.96.942z" style="fill:#fff;stroke:none;stroke-width:34;stroke-linecap:butt"/></g><g transform="translate(3.266 -22.75)"><title>Sheet.15473</title><path d="M34.78 104.28a.482.472-180 0 0-.41.228l-2.93 4.852a.472.463 0 0 1-.825-.018l-4.485-8.382a.476.466-180 0 0-.87.068l-4.21 12.262a.476.466 0 0 1-.885.034l-3.645-8.274a.472.463-180 0 0-.85-.04l-5.02 8.95a.472.463 0 0 1-.416.24L0 114.21v2.95h12.02a.472.463-180 0 0 .416-.24l2.904-5.18a.476.466 0 0 1 .85.04l4.32 9.81a.472.463-180 0 0 .882-.034l4.478-13.026a.472.463 0 0 1 .866-.068l3.724 6.948a.476.466-180 0 0 .828.022l4.812-7.972a.47.46 0 0 1 .406-.228l13.594-.002v-2.95z" style="fill:#76bc2d;stroke:none;stroke-width:34;stroke-linecap:butt"/></g></g></g></svg>