<svg xmlns="http://www.w3.org/2000/svg" xml:space="preserve" width="52.297" height="48.183" style="font-size:12px;overflow:visible;color-interpolation-filters:sRGB;fill-rule:evenodd;stroke-linecap:square;stroke-miterlimit:3" viewBox="0 0 52.297 48.183"><g transform="translate(-7.868 -7.871)"><title>Page-1</title><g transform="translate(5.67 -34.016)"><title>Application Service Clone App.15567</title><title>Sheet.15568</title><g transform="translate(0 -14.253)"><title>Sheet.15569</title><title>Sheet.15570</title><path d="M29.39 86.54a16.65 16.65 0 0 1-10.27 3.53 16.92 16.92 0 0 1-13.44-6.65 16.96 16.96 0 0 1 3.17-23.76c3.04-2.37 6.69-3.52 10.27-3.52 5.07 0 10.14 2.3 13.45 6.65 5.61 7.46 4.26 18.05-3.18 23.75" style="fill:#59b4d9;stroke:none;stroke-width:7.86632013;stroke-linecap:butt"/><g transform="translate(4.46 -3.597)"><title>Sheet.15571</title><path d="M21.83 79.69a3.566 3.566 0 0 0 5.06.68l.21-.21c1.62 1.16 2.77 1.9 3.37 2.38.21-.48.34-.95.48-1.43-.68-.47-1.56-1.22-2.91-2.31.41-1.15.27-2.44-.47-3.53a3.59 3.59 0 0 0-4.66-.95c-1.69-1.56-3.58-3.32-5.61-5.29 6.22-3.32 10.61-2.85 10.61-2.85a17.6 17.6 0 0 0-2.44-2.51c-2.63-.41-6.68-.34-11.28 2.1-1.55-1.63-3.11-3.39-4.73-5.22-.81.2-1.55.54-2.23.88 1.15 1.97 2.77 3.87 4.6 5.84-1.49 1.01-3.18 2.44-4.67 4.07-.2.2-.4.41-.54.61-.94-.2-1.89-.14-2.77.2-1.62-3.32-1.55-5.97-1.28-7.33-.68.68-1.29 1.43-1.83 2.24-.4 1.63-.54 4.01.68 6.86-1.35 1.76-1.42 4.34 0 6.24.13.14.27.27.4.41-.6 2.1-.87 4.21-1.01 5.97.14.14.14.34.34.54.81 1.02 1.82 1.91 2.84 2.72-.14-1.9 0-4.62 1.15-7.74.81.07 1.62-.07 2.36-.41.41.41.88.75 1.35 1.16 1.69 1.29 3.31 2.37 4.93 3.12-.06.82.14 1.7.68 2.38a3.347 3.347 0 0 0 4.73.61c.34-.21.54-.55.74-.82 2.64.61 4.94.68 6.63.68.27 0 1.48-1.63 2.16-2.65-1.02.21-4.12.62-8.31-.54-.14-.47-.27-.95-.61-1.36a3.295 3.295 0 0 0-4.46-.74 32.4 32.4 0 0 1-4.6-3.06c-.33-.27-.6-.47-.94-.74.94-1.5 1.08-3.46.2-5.16.2-.21.41-.41.61-.61 1.55-1.5 3.04-2.65 4.39-3.6-.07-.07-.13-.14-.13-.14.06.07.13.14.13.14 2.1 1.97 4.33 3.8 6.49 5.5-.61 1.29-.54 2.71.34 3.87" style="fill:#fff;stroke:none;stroke-width:7.86632013;stroke-linecap:butt"/></g></g><g transform="translate(18.515)"><title>Sheet.15572</title><path d="M29.33 86.54a16.5 16.5 0 0 1-10.21 3.53 16.92 16.92 0 0 1-13.44-6.65 16.96 16.96 0 0 1 3.17-23.76c3.04-2.37 6.62-3.52 10.21-3.52 5.06 0 10.13 2.3 13.44 6.65 5.68 7.46 4.26 18.12-3.17 23.75" style="fill:#57a300;stroke:none;stroke-width:7.86632013;stroke-linecap:butt"/></g><g transform="translate(23.042 -3.53)"><title>Sheet.15573</title><path d="M21.69 79.62a3.577 3.577 0 0 0 5.07.68l.2-.21c1.62 1.16 2.77 1.9 3.38 2.38.2-.48.34-.95.47-1.43-.67-.47-1.55-1.22-2.9-2.3.4-1.16.27-2.45-.48-3.53-1.14-1.5-3.1-1.84-4.66-.95-1.69-1.56-3.58-3.33-5.61-5.3 6.22-3.32 10.61-2.85 10.61-2.85-.74-.95-1.55-1.76-2.43-2.51-2.64-.41-6.69-.34-11.29 2.11-1.55-1.63-3.1-3.4-4.73-5.23-.74.27-1.48.54-2.22.88 1.14 1.97 2.77 3.87 4.59 5.84a27.4 27.4 0 0 0-4.66 4.07c-.21.2-.41.41-.54.61-.95-.2-1.9-.13-2.77.21-1.56-3.33-1.42-5.98-1.15-7.34-.68.68-1.29 1.43-1.83 2.24-.4 1.63-.54 4.01.68 6.86-1.35 1.76-1.42 4.34 0 6.24l.4.41c-.6 2.11-.87 4.21-1.01 5.97.14.21.14.41.34.61.81 1.02 1.82 1.91 2.84 2.72-.14-1.9 0-4.62 1.15-7.74.81.07 1.62-.07 2.36-.41.41.41.88.75 1.35 1.16 1.69 1.29 3.31 2.37 4.93 3.12-.06.82.14 1.7.68 2.38a3.347 3.347 0 0 0 4.73.61c.34-.21.54-.55.74-.82 2.64.61 4.94.68 6.63.68.27 0 1.48-1.63 2.16-2.65-1.02.21-4.12.62-8.31-.54-.14-.47-.27-.95-.61-1.36a3.295 3.295 0 0 0-4.46-.74 32.4 32.4 0 0 1-4.6-3.06c-.33-.27-.6-.47-.94-.74.94-1.5 1.08-3.46.2-5.09l.61-.61c1.55-1.5 3.04-2.65 4.39-3.6l-.13-.14.13.14c2.1 1.97 4.33 3.8 6.49 5.5-.75 1.15-.61 2.57.2 3.73" style="fill:#fff;stroke:none;stroke-width:7.86632013;stroke-linecap:butt"/></g></g></g></svg>