<svg xmlns="http://www.w3.org/2000/svg" xml:space="preserve" width="56.69" height="45.354" style="font-size:12px;overflow:visible;color-interpolation-filters:sRGB;fill-rule:evenodd;stroke-linecap:square;stroke-miterlimit:3" viewBox="0 0 56.69 45.354"><defs><linearGradient id="a" x1="0" x2="43.475" y1="104.357" y2="104.357" gradientTransform="scale(1.30398 .76688)" gradientUnits="userSpaceOnUse"><stop offset="0" stop-color="#32bedd"/><stop offset=".18" stop-color="#32caea"/><stop offset=".41" stop-color="#32d2f2"/><stop offset=".78" stop-color="#32d4f5"/></linearGradient></defs><g transform="translate(-34 -34)"><title>Page-1</title><g transform="translate(34 -34.016)"><title>Application Service Domain.15544</title><title>Sheet.15545</title><title>Sheet.15546</title><path d="M0 80.03h56.69v31.45a1.9 1.891 0 0 1-1.9 1.89H1.9a1.9 1.891 0 0 1-1.9-1.89Z" style="fill:url(#a);stroke:none;stroke-width:34;stroke-linecap:butt"/><g transform="translate(0 -33.344)"><title>Sheet.15547</title><path d="M1.9 101.36h52.89a1.9 1.891 0 0 1 1.9 1.89v10.12H0v-10.15a1.9 1.891 0 0 1 1.9-1.86" style="fill:#005ba1;stroke:none;stroke-width:34;stroke-linecap:butt"/></g><g transform="translate(7.637 -36.927)"><title>Sheet.15548</title><path d="M0 112.44a.934.929-180 0 0 .934.929l39.586.001a.934.929-180 0 0 .934-.929l-.004-2.981a.934.929-180 0 0-.934-.929L.93 108.53a.934.929-180 0 0-.934.929z" style="fill:#f2f2f2;stroke:none;stroke-width:34;stroke-linecap:butt"/></g><g transform="translate(5.67 -12.74)"><title>Sheet.15549</title><path d="m14.94 103.42-3 9.95h-2.4l-1.84-6.64a3.668 3.65 0 0 1 0-.89 3.335 3.318 0 0 1 0 .86l-2.36 6.67H2.97L0 103.42h2.37l1.83 7.26a4.769 4.744 0 0 1 0 .87 4.402 4.38 0 0 1 0-.87l2.4-7.26h2.17l1.83 7.3a5.302 5.275 0 0 1 0 .86 5.036 5.01 0 0 1 0-.86l2.07-7.3zm15.34 0-3 9.95h-2.4l-1.84-6.64a3.668 3.65 0 0 1 0-.89 6.17 6.138 0 0 1-.36.89l-2 6.64h-2.34l-3-9.95h2.37l1.87 7.26a5.202 5.176 0 0 1 0 .87c0-.27 0-.57.16-.87l2.24-7.26h2.13l1.84 7.3a5.302 5.275 0 0 1 0 .86 5.036 5.01 0 0 1 0-.86l2.16-7.3zm15.37 0-2.96 9.95h-2.4l-1.91-6.64a6.436 6.403 0 0 1 0-.89 3.335 3.318 0 0 1-.16.86l-2.2 6.67h-2.34l-3-9.95h2.4l1.84 7.26a4.769 4.744 0 0 1 0 .87 4.235 4.214 0 0 1 0-.87l2.4-7.26h2.03l1.8 7.3a5.302 5.275 0 0 1 0 .86 5.536 5.508 0 0 1 0-.86l2.3-7.3z" style="fill:#fff;stroke:none;stroke-width:34;stroke-linecap:butt"/></g></g></g></svg>