<svg xmlns="http://www.w3.org/2000/svg" xml:space="preserve" width="56.696" height="56.686" style="font-size:12px;overflow:visible;color-interpolation-filters:sRGB;fill-rule:evenodd;stroke-linecap:square;stroke-miterlimit:3" viewBox="0 0 56.696 56.686"><g transform="translate(-61.2 -61.204)"><title>Page-1</title><g transform="translate(61.2 -61.2)"><title>Application Proxy.15634</title><title>Sheet.15635</title><g transform="translate(0 -8.586)"><title>Sheet.15636</title><path d="M0 130.99h13.66v13.92H0Zm16.15 0h14.91v13.92H16.15Zm17.39 0H47.2v13.92H33.54ZM0 147.44h13.66v13.93H0Zm16.15 0h14.91v13.93H16.15Zm17.39 0H47.2v13.93H33.54ZM0 163.9h13.66v15.19H0Zm16.15 0h14.91v15.19H16.15Zm17.39 0H47.2v15.19H33.54Z" style="fill:#0072c6;stroke:none;stroke-width:61.20000076;stroke-linecap:butt"/></g><g transform="translate(8.306)"><title>Sheet.15637</title><path d="M24.14 179.09a4.535 4.622 0 0 1-3.18-1.38L1.35 157.73A4.543 4.629 0 0 1 0 154.49a4.535 4.622 0 0 1 1.35-3.25l19.61-19.98c.87-.89 2.03-1.38 3.19-1.38s2.32.49 3.19 1.38l19.7 20.07c.87.89 1.35 1.98 1.35 3.25a4.535 4.622 0 0 1-1.36 3.25l-19.7 19.88a4.535 4.622 0 0 1-3.19 1.38" style="fill:#b8d432;stroke:none;stroke-width:61.20000076;stroke-linecap:butt"/></g><g transform="translate(14.485 -4.333)"><title>Sheet.15638</title><path d="m17.96 138.55-6.37 6.5h4.54v9.44h3.77v-9.44h4.44zm0 40.54 6.38-6.49H19.8v-9.25h-3.77v9.25h-4.44zm3-20.27 6.37 6.5v-4.53h8.6v-3.94h-8.6v-4.53zm-5.89 0-6.38-6.5v4.53H0v3.94h8.69v4.53z" style="fill:#fff;stroke:none;stroke-width:61.20000076;stroke-linecap:butt"/></g></g></g></svg>