<svg xmlns="http://www.w3.org/2000/svg" xml:space="preserve" width="56.697" height="56.699" style="font-size:12px;overflow:visible;color-interpolation-filters:sRGB;fill-rule:evenodd;stroke-linecap:square;stroke-miterlimit:3" viewBox="0 0 56.697 56.699"><g transform="translate(-12.24 -12.236)"><title>Page-1</title><g transform="translate(12.24 -34.016)"><title>Application Configuration.15643</title><title> Azure_AppConfiguration</title><g transform="translate(0 -18.883)"><title>Sheet.15645</title><path d="M48.66 81.02c0-.44.11-1 .11-1.45a14.23 14.396-180 0 0-14.38-14.32 13.955 14.117-180 0 0-11.61 5.82 10.29 10.41-180 0 0-5.75-1.68A10.832 10.958-180 0 0 6.2 80.25v.89A10.722 10.847-180 0 0 0 90.98a11.976 12.116-180 0 0 12.39 11.97h30.52A11.976 12.116-180 0 0 55.3 90.98a10.49 10.612-180 0 0-6.64-9.96" style="fill:#59b4d9;stroke:none;stroke-width:12.23999977;stroke-linecap:butt"/></g><g transform="translate(21.487 -.827)"><title>Sheet.15646</title><path d="m4.84 88.77 1.17 2.8-2.62 4.64 2.87 2.91L11 96.87l2.77 1.18 1.44 4.38.15.52h4.08l1.71-4.9 2.77-1.18L28 99l.51.26 2.87-2.91-2.18-4.56 1.16-2.8 4.34-1.47.51-.15v-4.13l-4.84-1.73-1.16-2.8 2.1-4.12.26-.52-2.77-2.91-4.59 2.25-2.76-1.18-1.46-4.38-.26-.52h-3.9l-1.71 4.9-2.76 1.18-4.08-2.13-.51-.26-2.73 3.31 1.97 4.24-1.17 2.8-4.33 1.47-.51.26v3.94zm7.14-3.57a5.644 5.71 0 1 1 5.64 5.7 5.58 5.644 0 0 1-5.64-5.7" style="fill:#fcd116;stroke:none;stroke-width:12.23999977;stroke-linecap:butt"/></g><g transform="translate(5.362)"><title>Sheet.15647</title><path d="m3.4 97.89 1.08 1.17-.46 2.77 1.94.9 1.93-1.97 1.57.07 1.5 1.89.17.23 2.01-.75-.04-2.73 1.15-1.09 2.4.3.29.04.9-1.96-1.9-1.85.08-1.6 1.87-1.52.22-.16-.74-2.03-2.7.03-1.07-1.16.3-2.42.03-.3-1.89-.93-1.86 1.95-1.57-.07-1.5-1.9-.22-.2-1.92.71.04 2.73-1.16 1.09-2.38-.3-.3-.03-.75 2.13 1.73 1.73-.07 1.59L.2 95.77l-.2.22.71 1.94Zm2.88-3.07a2.963 2.998 0 1 1 3.8 1.78 2.93 2.964 0 0 1-3.8-1.78" style="fill:#57a300;stroke:none;stroke-width:12.23999977;stroke-linecap:butt"/></g><g transform="translate(0 -19.219)"><title>Sheet.15648</title><path d="M7.75 96.8c0-4.59 2.32-8.17 6.63-10.41v-.89a11.604 11.74 0 0 1 17.58-9.85 15.289 15.467 0 0 1 12.39-6.37 14.979 15.154-180 0 0-9.96-3.81 14.349 14.516-180 0 0-11.61 5.93 10.29 10.41-180 0 0-5.75-1.67A10.832 10.958-180 0 0 6.2 80.58v.9A10.722 10.847-180 0 0 0 91.31a11.725 11.862-180 0 0 9.3 11.64 12.415 12.56 0 0 1-1.55-6.15" style="fill:#fff;fill-opacity:.2;stroke:none;stroke-width:12.23999977;stroke-linecap:butt"/></g></g></g></svg>