<svg xmlns="http://www.w3.org/2000/svg" xml:space="preserve" width="56.691" height="56.696" style="font-size:12px;overflow:visible;color-interpolation-filters:sRGB;fill-rule:evenodd;stroke-linecap:square;stroke-miterlimit:3" viewBox="0 0 56.691 56.696"><defs><radialGradient id="a" cx="26.639" cy="97.501" r="39.933" fx="26.639" fy="97.501" gradientTransform="scale(.99943 1.00057)" gradientUnits="userSpaceOnUse"><stop offset=".5" stop-color="#b3b3b3"/><stop offset="1" stop-color="#999"/></radialGradient></defs><g transform="translate(-34 -33.999)"><title>Page-1</title><g transform="translate(34 -34.016)"><title>Application Service Quota.15462</title><title>Sheet.15463</title><g transform="translate(2.73 -2.176)"><title>Sheet.15464</title><path d="M26.62 70.19A27.345 27.375-180 0 0 0 103.77l11.57-2.71a15.474 15.491 0 1 1 15.05 11.98 15.118 15.135 0 0 1-1.93-.19l-1.49 11.86a27.348 27.379-180 0 0 30.76-27.15 27.468 27.498-180 0 0-27.34-27.37" style="fill:url(#a);stroke:none;stroke-width:34;stroke-linecap:butt"/></g><title>Sheet.15465</title><path d="M28.4 124.71v-12.65a15.458 15.476 0 0 1-15.7-15.23v-.52H0a28.372 28.403-180 0 0 28.37 28.4z" style="fill:#0078d4;stroke:none;stroke-width:34;stroke-linecap:butt"/><g transform="translate(12.636 -12.65)"><title>Sheet.15466</title><path d="M0 108.96a15.581 15.598-180 0 0 15.37 15.75h.39l-1-1.89a13.666 13.681 0 0 1-12.85-12.93Z" style="fill:#005ba1;stroke:none;stroke-width:34;stroke-linecap:butt"/></g><g transform="translate(20.387 -21.725)"><title>Sheet.15467</title><path d="M3.63 116.94A3.502 3.506 0 0 1 1 115.91a3.849 3.853 0 0 1-1-2.8 4.224 4.228 0 0 1 1.06-3.03 3.726 3.73 0 0 1 2.84-1.12 3.465 3.468 0 0 1 2.65 1.01 4.006 4.01 0 0 1 .95 2.86 4.164 4.168 0 0 1-1.06 3 3.694 3.699 0 0 1-2.81 1.11m11.18-7.77L4.84 124.5H2.23l9.96-15.33zm-10.97 1.66c-1.04 0-1.58.73-1.58 2.18 0 1.37.5 2.05 1.48 2.05.99 0 1.52-.72 1.52-2.14 0-1.43-.45-2.09-1.42-2.09m9.33 13.88a3.483 3.487 0 0 1-2.63-1.04 3.849 3.853 0 0 1-1.01-2.78 4.217 4.222 0 0 1 1.07-3.04 3.71 3.714 0 0 1 2.83-1.12 3.465 3.468 0 0 1 2.66 1 3.975 3.98 0 0 1 .95 2.84 4.205 4.21 0 0 1-1.06 3.02 3.691 3.695 0 0 1-2.81 1.12m.17-6.11c-1.03 0-1.55.73-1.55 2.17 0 1.37.5 2.06 1.51 2.06 1 0 1.51-.72 1.51-2.14a2.551 2.554-180 0 0-.4-1.54 1.26 1.26-180 0 0-1.07-.54z" style="fill:#0078d4;stroke:none;stroke-width:34;stroke-linecap:butt"/></g></g></g></svg>