<svg xmlns="http://www.w3.org/2000/svg" xml:space="preserve" width="56.804" height="53.851" style="font-size:12px;overflow:visible;color-interpolation-filters:sRGB;fill-rule:evenodd;stroke-linecap:square;stroke-miterlimit:3" viewBox="0 0 56.804 53.851"><defs><linearGradient id="a" x1="0" x2="41.774" y1="52.96" y2="52.96" gradientTransform="scale(.77734 1.28644)" gradientUnits="userSpaceOnUse"><stop offset="0" stop-color="#005ba1"/><stop offset="1" stop-color="#0078d4"/></linearGradient><linearGradient id="b" x1="0" x2="30.373" y1="140.443" y2="140.443" gradientTransform="scale(1.40163 .71345)" gradientUnits="userSpaceOnUse"><stop offset="0" stop-color="#32bedd"/><stop offset=".3" stop-color="#36c3e1"/><stop offset=".66" stop-color="#41d1ee"/><stop offset="1" stop-color="#50e6ff"/></linearGradient></defs><g transform="translate(-34 -34.004)"><title>Page-1</title><g transform="translate(34 -34.016)"><title>Application Server Instance for SAP Solution.15604</title><title>Sheet.15605</title><g transform="translate(0 -.11)"><title>Sheet.15606</title><path d="M32.44 120.07a1.817 1.768 0 0 1-1.78 1.8H1.82A1.82 1.771 0 0 1 0 120.1V69.93a1.82 1.771 0 0 1 1.79-1.8h28.83a1.817 1.768 0 0 1 1.85 1.73.21.204 0 0 1 0 .064z" style="fill:url(#a);stroke:none;stroke-width:34;stroke-linecap:butt"/></g><g transform="translate(4.619 -31.57)"><title>Sheet.15607</title><path d="M0 118.43a3.504 3.408 0 0 1 3.5-3.42h16.42a3.51 3.415 0 0 1 3.42 3.42 3.51 3.415 0 0 1-3.48 3.44H3.57A3.542 3.445 0 0 1 0 118.46Zm0-10.18a3.545 3.448 0 0 1 3.54-3.45h16.38a3.51 3.415 0 0 1 3.42 3.45 3.51 3.415 0 0 1-3.51 3.41H3.57A3.51 3.415 0 0 1 0 108.31Z" style="fill:#003067;stroke:none;stroke-width:34;stroke-linecap:butt"/></g><g transform="translate(6.05 -42.888)"><title>Sheet.15608</title><ellipse cx="2.371" cy="119.568" rx="2.371" ry="2.307" style="fill:#50e6ff;stroke:none;stroke-width:34;stroke-linecap:butt"/></g><g transform="translate(6.05 -32.707)"><title>Sheet.15609</title><ellipse cx="2.371" cy="119.568" rx="2.371" ry="2.307" style="fill:#50e6ff;stroke:none;stroke-width:34;stroke-linecap:butt"/></g><g transform="translate(14.232)"><title>Sheet.15610</title><path d="M1.44 121.87h20.49a1.435 1.396-180 0 0 1.03-.41l19.2-18.88a1.439 1.4-180 0 0-1.03-2.38H1.44A1.439 1.4-180 0 0 0 101.6v18.87a1.439 1.4-180 0 0 1.44 1.4" style="fill:url(#b);stroke:none;stroke-width:34;stroke-linecap:butt"/></g><g transform="translate(29.427 -3.16)"><title>Sheet.15611</title><path d="M7.15 109.78v8.05L0 121.87v-8.06z" style="fill:#fff;fill-opacity:.6;stroke:none;stroke-width:34;stroke-linecap:butt"/></g><g transform="translate(22.268 -11.211)"><title>Sheet.15612</title><path d="m14.31 117.83-7.15 4.04L0 117.82l7.16-4.04Z" style="fill:#fff;fill-opacity:.9;stroke:none;stroke-width:34;stroke-linecap:butt"/></g><g transform="translate(22.268 -3.16)"><title>Sheet.15613</title><path d="M7.16 113.82v8.05L0 117.83v-8.06z" style="fill:#fff;fill-opacity:.75;stroke:none;stroke-width:34;stroke-linecap:butt"/></g></g></g></svg>