<svg xmlns="http://www.w3.org/2000/svg" xml:space="preserve" width="56.693" height="56.693" style="font-size:12px;overflow:visible;color-interpolation-filters:sRGB;fill-rule:evenodd;stroke-linecap:square;stroke-miterlimit:3" viewBox="0 0 56.693 56.693"><defs><radialGradient id="a" cx="0" cy="70.867" r="79.37" fx="0" fy="70.867" gradientUnits="userSpaceOnUse"><stop offset=".185" stop-color="#5ea0ef"/><stop offset="1" stop-color="#0078d4"/></radialGradient></defs><g transform="translate(-35.434 -35.434)"><title>Page-1</title><g transform="translate(35.434 -35.434)"><title>Application Service.15436</title><title>g22</title><title>path59</title><circle cx="28.346" cy="99.214" r="28.346" style="fill:url(#a);stroke:none;stroke-width:35.43360138;stroke-linecap:butt"/><g transform="translate(3.948 -8.79)"><title>path4-3</title><path d="M2.77 113.58c-1.14 2.83-2.06 5.85-2.77 8.83.63 1.06 1.31 1.98 2.06 2.96.57.75 1.18 1.51 1.83 2.19.8-3.96 2.02-7.86 3.61-11.57a9.03 9.03 0 0 1-4.73-2.41m3.25-15.09c-1.17-3.15-1.97-6.48-2.31-9.83-1.4 1.48-2.6 3.03-3.64 4.77.39 2.67 1.02 5.42 1.89 7.97a9.1 9.1 0 0 1 4.06-2.91" style="fill:#83b9f9;stroke:none;stroke-width:35.43360138;stroke-linecap:butt"/></g><g transform="translate(14.704 -7.557)"><title>path8-3</title><path d="M11.56 122.4c0-1.59.65-3.12 1.8-4.22a39.7 39.7 0 0 1-8.4-6.18A9 9 0 0 1 0 114.73c1.48 1.56 3.09 2.99 4.81 4.28 2.13 1.61 4.41 3 6.81 4.16a5 5 0 0 1-.05-.77zm20.95.71c-3.08 0-6.16-.36-9.16-1.07 0 .13.03.24.03.36 0 1.55-.61 3.03-1.69 4.13 3.74.73 7.63 1.03 11.43.83 1.43-1.35 2.72-2.89 3.84-4.5-1.45.15-2.99.25-4.44.25z" style="fill:#83b9f9;stroke:none;stroke-width:35.43360138;stroke-linecap:butt"/></g><g transform="translate(16.234 -28.489)"><title>path12-4</title><path d="M14.33 114.83c6.14-3.09 13.03-4.81 19.9-4.89-1.44-1.8-3.1-3.4-4.94-4.79-5.38.35-10.77 1.64-15.73 3.74-1.09.46-2.15 1-3.19 1.55-2.52-2.99-4.88-6.31-6.73-9.76-1.23.38-2.33.81-3.5 1.35 1.91 3.66 4.26 7.23 6.89 10.41A41.2 41.2 0 0 0 0 118.25c1.85.7 3.42 1.99 4.48 3.66 1.95-1.92 4.1-3.63 6.4-5.11a91.3 91.3 0 0 0 12.31 10.76 6.12 6.12 0 0 1 2.03-3.29c-3.88-2.84-7.52-6-10.89-9.44" style="fill:#83b9f9;stroke:none;stroke-width:35.43360138;stroke-linecap:butt"/></g><g transform="translate(39.355 -21.085)"><title>circle14-8</title><circle cx="6.269" cy="121.291" r="6.269" style="fill:#f2f2f2;stroke:none;stroke-width:35.43360138;stroke-linecap:butt"/></g><g transform="translate(3.935 -20.22)"><title>circle18-3</title><circle cx="9.086" cy="118.474" r="9.086" style="fill:#f2f2f2;stroke:none;stroke-width:35.43360138;stroke-linecap:butt"/></g><g transform="translate(26.268 -6.811)"><title>circle20-2</title><circle cx="5.903" cy="121.657" r="5.903" style="fill:#f2f2f2;stroke:none;stroke-width:35.43360138;stroke-linecap:butt"/></g></g></g></svg>