<svg xmlns="http://www.w3.org/2000/svg" xml:space="preserve" width="56.397" height="53.908" style="font-size:12px;overflow:visible;color-interpolation-filters:sRGB;fill-rule:evenodd;stroke-linecap:square;stroke-miterlimit:3" viewBox="0 0 56.397 53.908"><defs><linearGradient id="a" x1=".148" x2="55.286" y1="69.564" y2="69.564" gradientTransform="scale(1.02282 .97769)" gradientUnits="userSpaceOnUse"><stop offset="0" stop-color="#1988d9"/><stop offset=".22" stop-color="#218ddc"/><stop offset=".56" stop-color="#379ce5"/><stop offset=".9" stop-color="#54aef0"/></linearGradient></defs><g transform="translate(-34.003 -33.996)"><title>Page-1</title><g transform="translate(33.852 -34.016)"><title>Application Service Health check.15524</title><title>Icon-general-4</title><title>Sheet.15526</title><path d="M28.36 121.92c27.14-19.64 28.07-31.1 28.17-34.69.16-5.02-.5-18.13-13.77-19.17a14.132 14.277-180 0 0-14.4 9.56 14.198 14.344-180 0 0-14.56-9.56C.7 69.1 0 82.21.17 87.23c0 3.59 1.06 15.05 28.19 34.69" style="fill:url(#a);stroke:none;stroke-width:34;stroke-linecap:butt"/><g transform="translate(0 -.168)"><title>Sheet.15527</title><path d="M56.53 87.4c.16-5.03-.5-18.13-13.77-19.17a14.132 14.277-180 0 0-14.4 9.55 14.198 14.344-180 0 0-14.56-9.55C.7 69.27 0 82.37.17 87.4c0 3.59.79 14.88 27.96 34.52z" style="fill:none"/><path d="M56.53 87.4c.16-5.03-.5-18.13-13.77-19.17a14.132 14.277-180 0 0-14.4 9.55 14.198 14.344-180 0 0-14.56-9.55C.7 69.27 0 82.37.17 87.4c0 3.59.79 14.88 27.96 34.52" style="stroke:none;stroke-width:34;stroke-linecap:butt"/></g><g transform="translate(4.346 -12.969)"><title>Sheet.15528</title><path d="M52.18 98.23H38.91a.564.57-180 0 0-.431.235l-4.009 7.005a.53.536 0 0 1-.896 0L27.83 94.44a1.028 1.039-180 0 0-1.86 0l-5.5 16.59a.53.536 0 0 1-.962 0L14.8 100a1.028 1.039-180 0 0-1.83 0l-6.43 11.7a.53.536 0 0 1-.431.268L0 111.97a43.125 43.57-180 0 0 2.99 4.09h5.57a.431.436-180 0 0 .431-.268L13 108.31a.53.536 0 0 1 .929 0l5.511 12.94a1.028 1.039-180 0 0 1.92 0l5.81-17.43a.498.503 0 0 1 .929 0l4.841 9.29a.995 1.005-180 0 0 1.758 0l6.172-10.49a.53.536 0 0 1 .431-.268l10.719-.002Z" style="fill:#fff"/><path d="M52.18 98.23H38.91a.564.57-180 0 0-.431.235l-4.009 7.005a.53.536 0 0 1-.896 0L27.83 94.44a1.028 1.039-180 0 0-1.86 0l-5.5 16.59a.53.536 0 0 1-.962 0L14.8 100a1.028 1.039-180 0 0-1.83 0l-6.43 11.7a.53.536 0 0 1-.431.268L0 111.97a43.125 43.57-180 0 0 2.99 4.09h5.57a.431.436-180 0 0 .431-.268L13 108.31a.53.536 0 0 1 .929 0l5.511 12.94a1.028 1.039-180 0 0 1.92 0l5.81-17.43a.498.503 0 0 1 .929 0l4.841 9.29a.995 1.005-180 0 0 1.758 0l6.172-10.49a.53.536 0 0 1 .431-.268l10.719-.002" style="stroke:none;stroke-width:34;stroke-linecap:butt"/></g></g></g></svg>