<svg xmlns="http://www.w3.org/2000/svg" xml:space="preserve" width="56.694" height="56.694" style="font-size:12px;overflow:visible;color-interpolation-filters:sRGB;fill-rule:evenodd;stroke-linecap:square;stroke-miterlimit:3" viewBox="0 0 56.694 56.694"><defs><linearGradient id="a" x1="0" x2="43.664" y1="52.39" y2="52.39" gradientTransform="scale(.77021 1.29834)" gradientUnits="userSpaceOnUse"><stop offset=".05" stop-color="#949494"/><stop offset=".36" stop-color="#979797"/><stop offset=".54" stop-color="#9f9f9f"/><stop offset=".69" stop-color="#adadad"/><stop offset=".73" stop-color="#b3b3b3"/></linearGradient><linearGradient id="b" x1="0" x2="39.093" y1="108.263" y2="108.263" gradientTransform="scale(1.18155 .84634)" gradientUnits="userSpaceOnUse"><stop offset=".18" stop-color="#5ea0ef"/><stop offset="1" stop-color="#0078d4"/></linearGradient></defs><g transform="translate(-34 -34.004)"><title>Page-1</title><g transform="translate(34 -34.016)"><title>Application Service plan.15474</title><title>Sheet.15475</title><title>Sheet.15476</title><path d="M33.6 122.81a1.885 1.868 0 0 1-1.92 1.9H1.89a1.885 1.868 0 0 1-1.89-1.9V69.92a1.885 1.868 0 0 1 1.89-1.9h29.82a1.885 1.868 0 0 1 1.92 1.9z" style="fill:url(#a);stroke:none;stroke-width:34;stroke-linecap:butt"/><g transform="translate(4.78 -33.182)"><title>Sheet.15477</title><path d="M0 121.07a3.636 3.602 0 0 1 3.8-3.6h16.84a3.636 3.602 0 0 1 3.53 3.6 3.636 3.602 0 0 1-3.63 3.64H3.7a3.67 3.635 0 0 1-3.7-3.64m0-10.73a3.67 3.635 0 0 1 3.8-3.64h16.84a3.636 3.602 0 0 1 3.53 3.64 3.636 3.602 0 0 1-3.63 3.6H3.7a3.636 3.602 0 0 1-3.7-3.6" style="fill:#003067;stroke:none;stroke-width:34;stroke-linecap:butt"/></g><g transform="translate(6.262 -45.12)"><title>Sheet.15478</title><ellipse cx="2.458" cy="122.275" rx="2.458" ry="2.434" style="fill:#50e6ff;stroke:none;stroke-width:34;stroke-linecap:butt"/></g><g transform="translate(6.262 -34.383)"><title>Sheet.15479</title><ellipse cx="2.458" cy="122.275" rx="2.458" ry="2.434" style="fill:#50e6ff;stroke:none;stroke-width:34;stroke-linecap:butt"/></g><g transform="translate(10.504)"><title>Sheet.15480</title><path d="M46.19 114.3a10.504 10.405-180 0 0-8.99-10 13.23 13.106-180 0 0-13.47-12.67 13.466 13.34-180 0 0-12.89 8.87A12.456 12.339-180 0 0 0 112.47a12.692 12.573-180 0 0 12.99 12.24h22.8a10.605 10.505-180 0 0 10.4-10.41" style="fill:url(#b);stroke:none;stroke-width:34;stroke-linecap:butt"/></g></g></g></svg>