<svg xmlns="http://www.w3.org/2000/svg" xml:space="preserve" width="56.689" height="56.69" style="font-size:12px;overflow:visible;color-interpolation-filters:sRGB;fill-rule:evenodd;stroke-linecap:square;stroke-miterlimit:3" viewBox="0 0 56.689 56.69"><g transform="translate(-12.24 -12.244)"><title>Page-1</title><g transform="translate(12.24 -34.016)"><title>Azure API for FHIR.15429</title><title>Sheet.15430</title><title>Sheet.15431</title><path d="M41.84 46.26c-6.08 0-11.31 3.69-13.55 8.97-2.25-5.28-7.47-8.97-13.56-8.97C4.71 46.26 0 55.82 0 63.97c0 24.81 28.29 38.98 28.29 38.98s28.29-14.17 28.29-38.98c0-8.15-4.72-17.71-14.74-17.71" style="fill:#ff8c00;stroke:none;stroke-width:12.23999977;stroke-linecap:butt"/><g transform="translate(.128)"><title>Sheet.15432</title><path d="M28.16 78.15C15.53 78.15 4.69 73.44 0 66.71c1.96 23.1 28.16 36.24 28.16 36.24s26.2-13.14 28.16-36.24c-4.69 6.73-15.53 11.44-28.16 11.44" style="fill:#ba141a;fill-opacity:.25;stroke:none;stroke-width:12.23999977;stroke-linecap:butt"/></g><g transform="translate(27.227 -9.567)"><title>Sheet.15433</title><ellipse cx="4.597" cy="98.342" rx="4.597" ry="4.606" style="fill:#fff;stroke:none;stroke-width:12.23999977;stroke-linecap:butt"/></g><g transform="translate(2.639 -12.5)"><title>Sheet.15434</title><path d="M1.66 63.6S0 69.55 6.88 75.51l2.18-2.8c-.04-.02-3.75-3.02-4.02-7.39-.23-3.57 1.55-5.49 1.55-5.49-1.97.9-3.61 2.13-4.93 3.77m50.86 5.1c1.05 4.6.66 9.13-1.19 13.31-3.32 7.5-11.18 13.58-22.72 17.59l1.15 3.35c9.95-3.45 17.51-8.44 22.03-14.57 1.4-3.64 2.26-7.61 2.26-11.91 0-2.56-.58-5.27-1.53-7.77" style="fill:#fff;stroke:none;stroke-width:12.23999977;stroke-linecap:butt"/></g><g transform="translate(3.011 -15.568)"><title>Sheet.15435</title><path d="M6.63 76.2C0 82.84 8.21 94.5 14.88 101.18l1.25 1.25a1.768 1.772-180 0 0 2.5 0l2.5-2.51a1.768 1.772-180 1 0-2.5-2.5l-1.34 1.34C8.13 89.57 5.18 82.33 8.96 78.54s11-.83 20.17 8.36l-1.34 1.33a1.77 1.773-180 1 0 2.5 2.51l2.5-2.51a1.768 1.772-180 0 0 0-2.5l-1.25-1.26c-6.66-6.68-18.29-14.9-24.91-8.27" style="fill:#fff;stroke:none;stroke-width:12.23999977;stroke-linecap:butt"/></g></g></g></svg>