<svg xmlns="http://www.w3.org/2000/svg" xml:space="preserve" width="50.241" height="50.172" style="font-size:12px;overflow:visible;color-interpolation-filters:sRGB;fill-rule:evenodd;stroke-linecap:square;stroke-miterlimit:3" viewBox="0 0 50.241 50.172"><defs><linearGradient id="a" x1="3.234" x2="53.44" y1="43.005" y2="43.005" gradientTransform="scale(1.0007 .9993)" gradientUnits="userSpaceOnUse"><stop offset="0" stop-color="#198ab3"/><stop offset=".44" stop-color="#28b7db"/><stop offset=".775" stop-color="#32d4f5"/></linearGradient></defs><g transform="translate(-8.906 -8.96)"><title>Page-1</title><g transform="translate(5.67 -34.016)"><title>Azure Maps Account.15423</title><title> atlasicon</title><title>Sheet.15425</title><path d="M43.74 87.87c-10.96 8.51-26.7 6.51-35.22-4.43S2 56.77 12.96 48.26c.07-.07.14-.14.28-.21 11.03-8.36 26.77-6.15 35.15 4.86 8.3 11.01 6.23 26.52-4.65 34.96" style="fill:url(#a);stroke:none;stroke-width:5.32174015;stroke-linecap:butt"/><g transform="translate(13.672 -17.015)"><title>Sheet.15426</title><path d="M18.68 66.71 0 96.38l23.41-9.08Z" style="fill:#9cebff;stroke:none;stroke-width:5.32174015;stroke-linecap:butt"/></g><g transform="translate(28.561 -12.582)"><title>Sheet.15427</title><path d="m0 68.28 11.6 28.1-7.81-34.1Z" style="fill:#fff;fill-opacity:.7;stroke:none;stroke-width:5.32174015;stroke-linecap:butt"/></g><g transform="translate(27.917 -12.51)"><title>Sheet.15428</title><path d="m0 86.37 7.02-2.72 5.22 12.73z" style="fill:#32bedd;stroke:none;stroke-width:5.32174015;stroke-linecap:butt"/></g></g></g></svg>