<svg xmlns="http://www.w3.org/2000/svg" xml:space="preserve" width="54.201" height="56.691" style="font-size:12px;overflow:visible;color-interpolation-filters:sRGB;fill-rule:evenodd;stroke-linecap:square;stroke-miterlimit:3" viewBox="0 0 54.201 56.691"><defs><linearGradient id="a" x1="0" x2="12.412" y1="110.824" y2="110.824" gradientTransform="scale(.98819 1.01195)" gradientUnits="userSpaceOnUse"><stop offset="0" stop-color="#eeaa45"/><stop offset="1" stop-color="#f4cf97"/></linearGradient><linearGradient id="b" x1="-5.01" x2="29.195" y1="89.032" y2="89.032" gradientTransform="scale(.98819 1.01195)" gradientUnits="userSpaceOnUse"><stop offset="0" stop-color="#0078d4"/><stop offset="1" stop-color="#5ea0f0"/></linearGradient></defs><g transform="translate(-33.998 -34.003)"><title>Page-1</title><g transform="translate(34.172 -34.016)"><title>Chaos Experiment Target.15414</title><title>Sheet.15415</title><g transform="translate(20.877 -21.978)"><title>Sheet.15416</title><ellipse cx="6.132" cy="118.429" rx="6.132" ry="6.28" style="fill:url(#a);stroke:none;stroke-width:34;stroke-linecap:butt"/></g><g transform="translate(24.493 -42)"><title>Sheet.15417</title><path d="M0 122.13a2.516 2.577-180 0 0 2.52 2.58 2.516 2.577-180 0 0 2.51-2.58v-9.54a2.516 2.577-180 0 0-2.51-2.57A2.516 2.577-180 0 0 0 112.59Z" style="fill:#82bbff;stroke:none;stroke-width:34;stroke-linecap:butt"/></g><g transform="translate(24.493)"><title>Sheet.15418</title><path d="M0 122.13a2.516 2.577-180 0 0 2.52 2.58 2.516 2.577-180 0 0 2.51-2.58v-9.54a2.516 2.577-180 0 0-2.51-2.57A2.516 2.577-180 0 0 0 112.59Z" style="fill:#82bbff;stroke:none;stroke-width:34;stroke-linecap:butt"/></g><g transform="translate(0 -25.681)"><title>Sheet.15419</title><g transform="rotate(90 22.216 141.831)"><title>Sheet.15420</title><path d="M0 122.13a2.516 2.577-180 0 0 2.52 2.58 2.516 2.577-180 0 0 2.51-2.58v-9.54a2.516 2.577-180 0 0-2.51-2.57A2.516 2.577-180 0 0 0 112.59Z" style="fill:#82bbff;stroke:none;stroke-width:34;stroke-linecap:butt"/></g><g transform="rotate(90 2.46 122.076)"><title>Sheet.15421</title><path d="M0 122.13a2.516 2.577-180 0 0 2.52 2.58 2.516 2.577-180 0 0 2.51-2.58v-9.54a2.516 2.577-180 0 0-2.51-2.57A2.516 2.577-180 0 0 0 112.59Z" style="fill:#82bbff;stroke:none;stroke-width:34;stroke-linecap:butt"/></g></g><g transform="translate(15.059 -10.951)"><title>Sheet.15422</title><path d="M11.95 124.71a16.9 17.307 0 1 1 16.9-17.31 16.919 17.326 0 0 1-16.9 17.31m0-30.13a12.524 12.825-180 1 0 12.52 12.82 12.539 12.84-180 0 0-12.52-12.82" style="fill:url(#b);stroke:none;stroke-width:34;stroke-linecap:butt"/></g></g></g></svg>