<svg xmlns="http://www.w3.org/2000/svg" xml:space="preserve" width="56.69" height="56.693" style="font-size:12px;overflow:visible;color-interpolation-filters:sRGB;fill-rule:evenodd;stroke-linecap:square;stroke-miterlimit:3" viewBox="0 0 56.69 56.693"><defs><linearGradient id="a" x1="0" x2="49.096" y1="94.902" y2="94.902" gradientTransform="scale(1.15467 .86605)" gradientUnits="userSpaceOnUse"><stop offset="0" stop-color="#e83231"/><stop offset="1" stop-color="#ce1817"/></linearGradient><linearGradient id="b" x1="0" x2="49.096" y1="94.902" y2="94.902" gradientTransform="scale(1.15467 .86605)" gradientUnits="userSpaceOnUse"><stop offset=".04" stop-color="#a80000"/><stop offset=".32" stop-color="#a30302"/><stop offset=".63" stop-color="#960c06"/><stop offset=".71" stop-color="#910f08"/><stop offset=".74" stop-color="#8b0e07"/><stop offset=".79" stop-color="#790a05"/><stop offset=".85" stop-color="#5b0502"/><stop offset=".89" stop-color="#400"/></linearGradient><linearGradient id="c" x1="0" x2="36.921" y1="71.368" y2="71.368" gradientTransform="scale(.86833 1.15163)" gradientUnits="userSpaceOnUse"><stop offset=".35" stop-color="#a80000"/><stop offset=".52" stop-color="#a20402"/><stop offset=".75" stop-color="#910f08"/><stop offset=".8" stop-color="#8b0e07"/><stop offset=".87" stop-color="#790a05"/><stop offset=".94" stop-color="#5b0502"/><stop offset=".99" stop-color="#400"/></linearGradient></defs><g transform="translate(-34 -34.001)"><title>Page-1</title><g transform="translate(34 -34.016)"><title>Chaos Studio.15401</title><title>Sheet.15402</title><g transform="translate(0 -14.173)"><title>Sheet.15403</title><path d="M32.06 110.54V92.65L0 124.71V94.79a15.43 15.43 0 0 1 4.19-8.48 13.95 13.95 0 0 1 9.26-4.12h29.07l14.17 14.17-14.17 14.18z" style="fill:url(#a);stroke:none;stroke-width:34;stroke-linecap:butt"/></g><title>Sheet.15404</title><path d="M24.63 96.36v17.89l32.06-32.06v29.92a15.43 15.43 0 0 1-4.19 8.54 14.14 14.14 0 0 1-9.26 4.06H14.17L0 110.54l14.17-14.18Z" style="fill:url(#b);stroke:none;stroke-width:34;stroke-linecap:butt"/><g transform="translate(24.63)"><title>Sheet.15405</title><path d="m0 114.25 32.06-32.06v29.92a15.43 15.43 0 0 1-4.19 8.54 14.14 14.14 0 0 1-9.26 4.06z" style="fill:url(#c);stroke:none;stroke-width:34;stroke-linecap:butt"/></g></g></g></svg>