<svg xmlns="http://www.w3.org/2000/svg" xml:space="preserve" width="45.35" height="56.703" style="font-size:12px;overflow:visible;color-interpolation-filters:sRGB;fill-rule:evenodd;stroke-linecap:square;stroke-miterlimit:3" viewBox="0 0 45.35 56.703"><defs><linearGradient id="a" x1="0" x2="47.303" y1="72.268" y2="72.268" gradientTransform="scale(.95871 1.04306)" gradientUnits="userSpaceOnUse"><stop offset="0" stop-color="#a67af4"/><stop offset="1" stop-color="#773adc"/></linearGradient><linearGradient id="b" x1=".003" x2="18.1" y1="122.386" y2="122.386" gradientTransform="scale(1.12634 .88783)" gradientUnits="userSpaceOnUse"><stop offset="0" stop-color="#773adc"/><stop offset="1" stop-color="#fff"/></linearGradient><linearGradient id="c" x1=".002" x2="15.017" y1="108.806" y2="108.806" gradientTransform="scale(.99277 1.00728)" gradientUnits="userSpaceOnUse"><stop offset="0" stop-color="#773adc"/><stop offset="1" stop-color="#fff"/></linearGradient><linearGradient id="d" x1="0" x2="14.274" y1="343.003" y2="343.003" gradientTransform="scale(2.8646 .34909)" gradientUnits="userSpaceOnUse"><stop offset="0" stop-color="#773adc"/><stop offset="1" stop-color="#fff"/></linearGradient></defs><g transform="translate(-34 -34.001)"><title>Page-1</title><g transform="translate(34 -34.016)"><title>Chaos Experiment.15406</title><title>Sheet.15407</title><title>Sheet.15408</title><path d="M1.75 75.38h41.86a1.747 1.774 0 0 1 1.74 1.78v45.79a1.747 1.774 0 0 1-1.74 1.77H1.75A1.747 1.774 0 0 1 0 122.95V77.16a1.747 1.774 0 0 1 1.75-1.78" style="fill:url(#a);stroke:none;stroke-width:34;stroke-linecap:butt"/><g transform="translate(2.83 -3.015)"><title>Sheet.15409</title><path d="M0 122.85a1.85 1.878-180 0 0 1.85 1.87h36.12a1.85 1.878-180 0 0 1.85-1.87V83.29a1.85 1.878-180 0 0-1.85-1.88H1.85A1.85 1.878-180 0 0 0 83.29Z" style="fill:#a67af4;stroke:none;stroke-width:34;stroke-linecap:butt"/></g><g transform="translate(10.617 -44.574)"><title>Sheet.15410</title><path d="M15.59 116.56a3.585 3.639-180 1 0-7.14-.66 3.724 3.78-180 0 0 0 .66h-6.9A1.53 1.553-180 0 0 0 118.11v6.61h24.09v-6.61a1.533 1.556-180 0 0-1.53-1.57h-6.97zm-4.05-1.76a1.79 1.818 0 0 1 2.21 1.26 1.893 1.922 0 0 1 .06.5h-.04a1.772 1.799 0 0 1-1.77 1.8 1.738 1.764 0 0 1-.68-.14 1.785 1.811 0 0 1-1.01-2.2 1.76 1.786 0 0 1 1.23-1.22" style="fill:#b796f9;stroke:none;stroke-width:34;stroke-linecap:butt"/></g><g transform="translate(6.037 -25.708)"><title>Sheet.15411</title><path d="m7.17 124.46-6.91-7.11a.878.891 0 0 1 0-1.26l2.24-2.24a.878.891 0 0 1 1.241 0l3.409 3.51a.875.888-180 0 0 1.241 0l8.249-8.44a.875.888 0 0 1 1.241 0l2.249 2.24a.878.891 0 0 1 0 1.26L8.42 124.46a.875.888 0 0 1-1.248 0z" style="fill:url(#b);stroke:none;stroke-width:34;stroke-linecap:butt"/></g><g transform="translate(25.373 -7.638)"><title>Sheet.15412</title><path d="m14.65 112.12-2.23-2.26a.875.888-180 0 0-1.241 0l-3.109 3.15a.872.885 0 0 1-1.241 0l-3.099-3.15a.875.888-180 0 0-1.241 0L.26 112.12a.875.888-180 0 0 0 1.26l3.1 3.15a.875.888 0 0 1 0 1.26l-3.1 3.15a.875.888-180 0 0 0 1.26l2.23 2.26a.875.888-180 0 0 1.241 0l3.099-3.15a.875.888 0 0 1 1.241 0l3.109 3.15a.875.888-180 0 0 1.241 0l2.229-2.26a.875.888-180 0 0 0-1.26l-3.11-3.15a.881.895 0 0 1 0-1.26l3.11-3.15a.875.888-180 0 0 0-1.26" style="fill:url(#c);stroke:none;stroke-width:34;stroke-linecap:butt"/></g><g transform="rotate(-45.004 -4.849 108.763)"><title>Sheet.15413</title><path d="M0 123.83a.878.892-180 0 0 .878.891l39.132-.001a.878.892-180 0 0 .878-.891l.002-3.199a.878.892-180 0 0-.878-.891L.88 119.74a.878.892-180 0 0-.878.891z" style="fill:url(#d);stroke:none;stroke-width:34;stroke-linecap:butt"/></g></g></g></svg>