<svg xmlns="http://www.w3.org/2000/svg" xml:space="preserve" width="56.69" height="53.85" style="font-size:12px;overflow:visible;color-interpolation-filters:sRGB;fill-rule:evenodd;stroke-linecap:square;stroke-miterlimit:3" viewBox="0 0 56.69 53.85"><defs><linearGradient id="a" x1="0" x2="37.083" y1="122.44" y2="122.44" gradientTransform="scale(1.30896 .76396)" gradientUnits="userSpaceOnUse"><stop offset="0" stop-color="#0078d4"/><stop offset=".5" stop-color="#4093e6"/><stop offset=".775" stop-color="#5ea0ef"/></linearGradient><linearGradient id="b" x1="0" x2="37.083" y1="122.44" y2="122.44" gradientTransform="scale(1.30896 .76396)" gradientUnits="userSpaceOnUse"><stop offset="0" stop-color="#32bedd"/><stop offset=".175" stop-color="#32caea"/><stop offset=".41" stop-color="#32d2f2"/><stop offset=".775" stop-color="#32d4f5"/></linearGradient></defs><g transform="translate(-34 -34.005)"><title>Page-1</title><g transform="translate(34 -34.016)"><title>CloudTest Image.15385</title><title>MsPortalFx.base.images-19</title><g transform="translate(0 -15.302)"><title>Sheet.15387</title><path d="M0 93.54h48.54v26.73a1.623 1.603 0 0 1-1.62 1.6H1.62a1.623 1.603 0 0 1-1.62-1.6Z" style="fill:url(#a);stroke:none;stroke-width:34;stroke-linecap:butt"/></g><g transform="translate(0 -43.64)"><title>Sheet.15388</title><path d="M1.63 111.66H46.9a1.623 1.603 0 0 1 1.63 1.6v8.61H0v-8.61a1.623 1.603 0 0 1 1.63-1.6" style="fill:#0078d4;stroke:none;stroke-width:34;stroke-linecap:butt"/></g><g transform="translate(8.15)"><title>Sheet.15389</title><path d="M0 93.54h48.54v26.73a1.623 1.603 0 0 1-1.62 1.6H1.63a1.623 1.603 0 0 1-1.62-1.6V93.54Z" style="fill:url(#b);stroke:none;stroke-width:34;stroke-linecap:butt"/></g><g transform="translate(8.15 -28.338)"><title>Sheet.15390</title><path d="M1.64 111.64h45.27a1.623 1.603 0 0 1 1.63 1.6v8.63H0v-8.63a1.623 1.603 0 0 1 1.64-1.6" style="fill:#198ab3;stroke:none;stroke-width:34;stroke-linecap:butt"/></g></g></g></svg>