<svg xmlns="http://www.w3.org/2000/svg" xml:space="preserve" width="56.69" height="56.69" style="font-size:12px;overflow:visible;color-interpolation-filters:sRGB;fill-rule:evenodd;stroke-linecap:square;stroke-miterlimit:3" viewBox="0 0 56.69 56.69"><defs><linearGradient id="a" x1="0" x2="22.095" y1="73.914" y2="73.914" gradientTransform="scale(.76986 1.29894)" gradientUnits="userSpaceOnUse"><stop offset="0" stop-color="#773adc"/><stop offset="1" stop-color="#b77af4"/></linearGradient></defs><g transform="translate(-34 -34.004)"><title>Page-1</title><g transform="translate(34 -34.016)"><title>Container App Environment.15379</title><title>Sheet.15380</title><title>Sheet.15381</title><path d="M26.93 94.94H0V71.91c0-2.12 1.77-3.89 3.9-3.89h23.03ZM3.19 91.76h20.2V71.2H3.9c-.36 0-.71.36-.71.71zm53.5 3.18H29.76V68.02H52.8c2.12 0 3.89 1.77 3.89 3.89zM33.31 91.4H53.5V71.91c0-.35 0-.71-.35-.71H33.66v20.2zm-6.38 33.31H3.9c-2.13 0-3.9-1.77-3.9-3.9V97.78h26.93ZM3.19 100.97v19.84c0 .36.35.36.71.36h19.49v-20.2zm49.61 23.74H29.76V97.78h26.93v23.03c0 2.13-1.77 3.9-3.89 3.9m-19.49-3.54H52.8c.35 0 .35-.36.35-.36v-19.84h-20.2v20.2z" style="fill:#949494;stroke:none;stroke-width:34;stroke-linecap:butt"/><g transform="translate(27.992 -13.819)"><title>Sheet.15382</title><path d="M17.01 102.39c0-.36-.36-.71-.71-.71L.35 96.01c-.35 0-.35.35-.35.35v27.99c0 .36.35.36.35.36l15.95-6.38c.35 0 .71-.35.71-.71z" style="fill:url(#a);stroke:none;stroke-width:34;stroke-linecap:butt"/></g><g transform="translate(12.047 -13.819)"><title>Sheet.15383</title><path d="M15.94 96.01.35 98.84c-.35 0-.35.36-.35.71v21.62c0 .35 0 .35.35.35l15.95 3.19c.35 0 .35 0 .71-.36V96.36c-.36 0-.71-.35-1.07-.35" style="fill:#552f99;stroke:none;stroke-width:34;stroke-linecap:butt"/></g><g transform="translate(14.173 -17.008)"><title>Sheet.15384</title><path d="M6.73 103.45V124l5.32.71v-21.97ZM0 104.51v18.07l4.61.71V103.8Z" style="fill:#b77af4;fill-opacity:.75;stroke:none;stroke-width:34;stroke-linecap:butt"/></g></g></g></svg>