<svg xmlns="http://www.w3.org/2000/svg" xml:space="preserve" width="56.7" height="53.853" style="font-size:12px;overflow:visible;color-interpolation-filters:sRGB;fill-rule:evenodd;stroke-linecap:square;stroke-miterlimit:3" viewBox="0 0 56.7 53.853"><defs><linearGradient id="a" x1="-.004" x2="22.122" y1="58.744" y2="58.744" gradientTransform="scale(.66358 1.50698)" gradientUnits="userSpaceOnUse"><stop offset="0" stop-color="#773adc"/><stop offset="1" stop-color="#552f99"/></linearGradient><linearGradient id="b" x1="-.001" x2="25.197" y1="67.002" y2="67.002" gradientTransform="scale(.75648 1.3219)" gradientUnits="userSpaceOnUse"><stop offset="0" stop-color="#a67af4"/><stop offset="1" stop-color="#773adc"/></linearGradient></defs><g transform="translate(-33.997 -34.005)"><title>Page-1</title><g transform="translate(34.002 -34.016)"><title>Container App.15367</title><title>Sheet.15368</title><g transform="translate(4.006 -1.74)"><title>Sheet.15369</title><path d="M49.32 104.63a26.608 26.053 0 0 1-25.04 17.24 25.67 25.134 0 0 1-7.34-1.01 6.718 6.578-180 0 0 .57-2.56c.03 0 .1.03.13.03a23.376 22.89-180 0 0 6.64.92 24.082 23.58-180 0 0 21.58-13.2l.03-.03zm-42.04 7.68a6.378 6.245-180 0 0-2.02 1.73A27.087 26.522 0 0 1 0 106.52l3.28.71v.8a1.89 1.85-180 0 0 1.48 1.82l.44.09a19.326 18.923-180 0 0 1.95 2.25zM34.9 71.88a7.181 7.031-180 0 0-.85 2.5c-.07-.03-.16-.06-.22-.09a23.556 23.065-180 0 0-9.55-1.94A24.072 23.57-180 0 0 5.7 80.98l-.91.19a1.89 1.85-180 0 0-1.51 1.78v1.42l-3.22.59a26.627 26.072 0 0 1 24.22-15.2 27.087 26.522 0 0 1 10.62 2.12m14.23 14.63-3.43-1.17a20.787 20.354-180 0 0-2.27-3.58c-.06-.09-.12-.16-.15-.22a6.56 6.424-180 0 0 2.26-1.39 24.598 24.086 0 0 1 3.59 6.36" style="fill:#32bedd;stroke:none;stroke-width:34;stroke-linecap:butt"/></g><g transform="translate(26.683 -11.17)"><title>Sheet.15370</title><path d="m5.04 115.08 8 1.73-12.41 5.03c-.06 0-.09.03-.16.03a.485.475 0 0 1-.472-.463L0 88.99a.485.475 0 0 1 .472-.463.283.278 0 0 1 .158.031l14.05 4.812-9.61 1.76a1.78 1.742-180 0 0-1.38 1.67v16.65a1.691 1.656-180 0 0 1.35 1.63" style="fill:#fff;stroke:none;stroke-width:34;stroke-linecap:butt"/></g><g transform="translate(0 -17.714)"><title>Sheet.15371</title><path d="m3.46 102.38 3.82-.71v20.2l-3.88-.83-3.12-.68a.35.342 0 0 1-.283-.37L0 103.34a.378.37 0 0 1 .283-.37z" style="fill:#a67af4;stroke:none;stroke-width:34;stroke-linecap:butt"/></g><g transform="translate(26.683 -11.17)"><title>Sheet.15372</title><path d="m5.04 115.08 8 1.73-12.41 5.03c-.06 0-.09.03-.16.03a.485.475 0 0 1-.472-.463L0 88.99a.485.475 0 0 1 .472-.463.283.278 0 0 1 .158.031l14.05 4.812-9.61 1.76a1.78 1.742-180 0 0-1.38 1.67v16.65a1.691 1.656-180 0 0 1.35 1.63" style="fill:url(#a);stroke:none;stroke-width:34;stroke-linecap:butt"/></g><g transform="translate(8.624 -11.2)"><title>Sheet.15373</title><path d="M18.42 88.57.44 91.89a.557.546-180 0 0-.44.54v25.06a.557.546-180 0 0 .431.537L18.4 121.87a.554.543-180 0 0 .661-.537L19.06 89.12a.551.54-180 0 0-.542-.549z" style="fill:url(#b);stroke:none;stroke-width:34;stroke-linecap:butt"/></g><g transform="translate(11.052 -15.167)"><title>Sheet.15374</title><path d="M7.68 97.53v23.32l6.26 1.02V96.43ZM0 98.79v20.43l5.45 1.12V97.87Z" style="fill:#b796f9;fill-opacity:.5;stroke:none;stroke-width:34;stroke-linecap:butt"/></g><g transform="translate(40.958 -44.557)"><title>Sheet.15375</title><path d="M9.44 118.06a5.528 5.412 0 1 1-5.55-5.43 5.53 5.415 0 0 1 5.55 5.43" style="fill:#32bedd;stroke:none;stroke-width:34;stroke-linecap:butt"/></g><g transform="translate(9.106)"><title>Sheet.15376</title><ellipse cx="5.54" cy="116.449" rx="5.54" ry="5.425" style="fill:#32bedd;stroke:none;stroke-width:34;stroke-linecap:butt"/></g><g transform="translate(43.723 -16.695)"><title>Sheet.15377</title><path d="M12.97 104.51v11.86a.7.685 0 0 1-.419.617l-2.411.973-9.67 3.91H.43a.397.389 0 0 1-.12 0 .315.308 0 0 1-.315-.308L0 100.03a.315.308 0 0 1 .17-.271l.06-.009a.098.096 0 0 1 .06 0 .173.17 0 0 1 .107.025l.073.005L9.98 103l2.52.87a.67.657 0 0 1 .472.638z" style="fill:#773adc;stroke:none;stroke-width:34;stroke-linecap:butt"/></g><g transform="translate(31.704 -16.666)"><title>Sheet.15378</title><path d="m12.26 99.71-11.97 2.2a.372.364-180 0 0-.293.36L0 118.95a.372.364-180 0 0 .287.358l11.973 2.562a.362.355-180 0 0 .431-.278.343.336-180 0 0 0-.08l-.001-21.452a.369.36-180 0 0-.362-.364.258.253-180 0 0-.063.006z" style="fill:#a67af4;stroke:none;stroke-width:34;stroke-linecap:butt"/></g></g></g></svg>