<svg xmlns="http://www.w3.org/2000/svg" xml:space="preserve" width="61.634" height="60.845" style="font-size:12px;overflow:visible;color-interpolation-filters:sRGB;fill-rule:evenodd;stroke-linecap:square;stroke-miterlimit:3" viewBox="0 0 61.634 60.845"><defs><linearGradient id="a" x1="-1.629" x2="59.61" y1="70.794" y2="70.794" gradientTransform="scale(1.00646 .99358)" gradientUnits="userSpaceOnUse"><stop offset="0" stop-color="#86d633"/><stop offset=".125" stop-color="#81ce31"/><stop offset="1" stop-color="#5e9624"/></linearGradient></defs><g transform="translate(-31.84 -31.85)"><title>Page-1</title><g transform="translate(33.479 -36.13)"><title>CORS.15361</title><title>g10</title><g transform="translate(0 -2.36)"><title>path2</title><path d="M10.38 124.68a30.641 30.288 0 0 1 18.66-54.34 30.335 29.985 0 0 1 18.58 6.24 30.641 30.288 0 1 1-37.24 48.1" style="fill:url(#a);stroke:none;stroke-width:31.85379982;stroke-linecap:butt"/></g><g transform="translate(3.906 -19.148)"><title>path4</title><path d="M38.88 90.25a30.274 29.924-180 0 0-4.72-1.88 141.689 140.054 0 0 1-24.25 25.17c-.06.05-.09.11-.15.17a43.994 43.486 0 0 1-3.8-5 .637.63-180 0 0-1.13.108A128.013 126.535-180 0 0 0 123.56a.654.646-180 0 0 .524.794 44.049 43.54-180 0 0 17.706-1.134.64.633-180 0 0 .238-1.097 86 86 0 0 1-5.568-5.063 123.498 122.073-180 0 0 25.98-26.81" style="fill:#fff;fill-opacity:.7;stroke:none;stroke-width:31.85379982;stroke-linecap:butt"/></g><g transform="translate(4.495 -15.746)"><title>path6</title><path d="M45.53 102.19a51.842 51.243 0 0 1-4.9 4.37A52.904 52.293-180 0 0 5.57 90.07 28.817 28.484-180 0 0 0 95.66c1.25.05 2.52.13 3.79.27a47.106 46.562 0 0 1 30.4 15.29 124 124 0 0 1-6.28 3.88.637.63-180 0 0 .109 1.14 73.325 72.479 0 0 1 17.161 8.36.643.636-180 0 0 1.001-.38 72.368 71.533-180 0 0 .449-21.67.637.63-180 0 0-1.096-.36Z" style="fill:#fff;stroke:none;stroke-width:31.85379982;stroke-linecap:butt"/></g><g transform="translate(3.6)"><title>path8</title><path d="M37.59 111.9a.68.673-180 0 0-.494-1.01c-5.446-.72-13.086-2.46-15.886-3.11a.541.535-180 0 0-.62.744c.68 1.476 2 4.226 2.79 5.496A76.46 75.578 0 0 1 0 115.19a31.445 31.082-180 0 0 4.56 5.29 87.55 86.539-180 0 0 21.07-1.97 43.157 42.659 0 0 1 2.19 5.72.654.646-180 0 0 1.14.212 127.209 125.741-180 0 0 8.63-12.542" style="fill:#fff;fill-opacity:.7;stroke:none;stroke-width:31.85379982;stroke-linecap:butt"/></g></g></g></svg>