<svg xmlns="http://www.w3.org/2000/svg" xml:space="preserve" width="56.69" height="38.62" style="font-size:12px;overflow:visible;color-interpolation-filters:sRGB;fill-rule:evenodd;stroke-linecap:square;stroke-miterlimit:3" viewBox="0 0 56.69 38.62"><defs><linearGradient id="a" x1="0" x2="46.791" y1="83.695" y2="83.695" gradientTransform="scale(1.21157 .82538)" gradientUnits="userSpaceOnUse"><stop offset="0" stop-color="#0078d4"/><stop offset=".155" stop-color="#1380da"/><stop offset=".53" stop-color="#3c91e5"/><stop offset=".82" stop-color="#559cec"/><stop offset="1" stop-color="#5ea0ef"/></linearGradient><linearGradient id="b" x1="-.002" x2="26.504" y1="95.015" y2="95.015" gradientTransform="scale(1.23996 .80648)" gradientUnits="userSpaceOnUse"><stop offset="0" stop-color="#ef7100"/><stop offset="1" stop-color="#faa21d"/></linearGradient></defs><g transform="translate(-34 -33.995)"><title>Page-1</title><g transform="translate(34 -34.016)"><title>DICOM service.15356</title><title>Sheet.15357</title><g transform="translate(0 -1.07)"><title>Sheet.15358</title><path d="M0 105.86a1.89 1.843-180 0 0 1.89 1.84H54.8a1.89 1.843-180 0 0 1.89-1.84V70.93a1.89 1.843-180 0 0-1.89-1.85H1.89A1.89 1.843-180 0 0 0 70.93Z" style="fill:url(#a);stroke:none;stroke-width:34;stroke-linecap:butt"/></g><g transform="translate(3.654 -4.885)"><title>Sheet.15359</title><path d="M1.16 86.37A1.16 1.13 0 0 1 0 85.24v-7.4a1.156 1.127 0 0 1 1.16-1.12h7.1a1.16 1.13 0 0 1 0 2.26H2.33v6.26a1.156 1.127 0 0 1-1.16 1.13zm47.06 0a1.156 1.127 0 0 1-1.15-1.13v-6.26h-5.95a1.16 1.13 0 0 1 0-2.26h7.1a1.16 1.13 0 0 1 1.17 1.12v7.4a1.156 1.127 0 0 1-1.16 1.13zM8.26 107.7h-7.1A1.16 1.13 0 0 1 0 106.57v-7.4a1.16 1.131 0 1 1 2.32 0v6.27h5.94a1.16 1.13 0 0 1 0 2.26m39.96 0h-7.1a1.16 1.13 0 1 1 0-2.26h5.94v-6.27a1.16 1.13 0 0 1 2.31 0v7.4a1.156 1.127 0 0 1-1.16 1.13z" style="fill:#fff;stroke:none;stroke-width:34;stroke-linecap:butt"/></g><g transform="translate(11.924)"><title>Sheet.15360</title><path d="M24.61 77.15a1.342 1.309-180 0 0-2.06-.1 8.47 8.26 0 0 1-6.3 2.52 8.479 8.27 0 0 1-6.26-2.49 1.342 1.309-180 0 0-2.07.13L.19 87.65a1.03 1.005-180 0 0 0 1.17c2.45 3.34 15.41 18.88 32.42 0a1.03 1.005-180 0 0 .05-1.26z" style="fill:url(#b);stroke:none;stroke-width:34;stroke-linecap:butt"/></g></g></g></svg>