<svg xmlns="http://www.w3.org/2000/svg" xml:space="preserve" width="56.695" height="56.695" style="font-size:12px;overflow:visible;color-interpolation-filters:sRGB;fill-rule:evenodd;stroke-linecap:square;stroke-miterlimit:3" viewBox="0 0 56.695 56.695"><defs><linearGradient id="a" x1="-.002" x2="48.534" y1="77.726" y2="77.726" gradientTransform="scale(1.00033 .99967)" gradientUnits="userSpaceOnUse"><stop offset="0" stop-color="#5ea0ef"/><stop offset=".18" stop-color="#589eed"/><stop offset=".41" stop-color="#4897e9"/><stop offset=".66" stop-color="#2e8ce1"/><stop offset=".94" stop-color="#0a7cd7"/><stop offset="1" stop-color="#0078d4"/></linearGradient></defs><g transform="translate(-34.766 -34.763)"><title>Page-1</title><g transform="translate(34.768 -34.766)"><title>Enterprise Application.15351</title><title> Icon-identity-225</title><g transform="translate(0 -8.171)"><title>path11</title><path d="M16.96 111.6h14.57v14.62H16.96ZM.13 92.23h14.4V77.7H2.02A2.019 2.018-180 0 0 0 79.72Zm1.89 33.99h12.51V111.6H0v12.51a2.019 2.018-180 0 0 2.02 2.11M0 109.41h14.53V94.65H0Zm33.95 16.81h12.51a2.019 2.018-180 0 0 2.02-2.01V111.6H33.95Zm-16.82-16.81h14.4V94.65H16.96Zm16.99 0h14.43V94.65h-14.6zm0-31.47v14.29h14.43V79.72a2.019 2.018-180 0 0-2.02-2.02ZM17.29 92.46h14.24V77.7H16.96Z" style="fill:url(#a);stroke:none;stroke-width:34.76570129;stroke-linecap:butt"/></g><g transform="translate(28.7)"><title>circle15</title><ellipse cx="13.997" cy="112.236" rx="13.997" ry="13.988" style="fill:#32bedd;stroke:none;stroke-width:34.76570129;stroke-linecap:butt"/></g><g transform="translate(31.16 -.992)"><title>path17-0-0</title><path d="M22.22 115.86c-.67.35-1.63.16-2.08.51-.86.49-1.56 1.22-2.02 2.11 0 .19 0 .48-.22.58-.9.6-1.79 1.24-.96 2.59-.96 0-.64-.87-1.09-1.12a2.46 2.46 0 0 0-3.39 1.73c-.11.46.1.94.51 1.18.42.23.95.05 1.15-.38.17-.3.55-.39.83-.2 0 .52-.89 1.44.58 1.48.39 0 .29.44.19.73s.19.77.61.96c.41.19 0 0 0 .16-1.19 0-1.44-1.44-2.6-1.6-.46-.12-.92-.27-1.37-.45-.87-.28-1.86-.44-2.05-1.72-.15-.66-.57-1.23-1.16-1.57-.38-.26-.6-.74-.99-1.03-.15-.43-.39-.82-.7-1.15a3.01 3.01 0 0 1-.45-2.78c.57-1.77.53-3.5-.24-5.19-.33-1.02-.46-2.27-1.61-2.94-1.16-.67-.96.38-1.41.16-.45-.23-.71.41-.84.48-.92.25-1.73 1.05-2.91.93.45-.23.8-.36 1.12-.55s.93-.45.22-1.21c-.7-.77-.45-1.89 1.44-2.66-.16-.45-1.31-.35-.8-1.18.52-.84.9-.42 1.38 0 .32-.61-.39-1.38.16-1.73.72-.41 1.5-.73 2.31-.93a.8.8 0 0 1 1.09.35c.57.9 1.72 1.06 2.3 1.95.16.29.48 0 .71 0 1.31-.44 2.17.39 3.2 1.06 1.02.67.86 1.09 1.69.99.22-.05.46-.05.68 0 .51.23.99.35 1.37-.19.41-.04.74-.34.84-.74.19-.28.29-.7.77-.51-.24.91-.11 1.87.35 2.69.41-.32.83-.51.35-1.25a1.18 1.18 0 0 1 .8-1.79c.76-.25 1.6.05 2.02.74.61 1.08.8 2.33 1.5 3.2.23.28 0 .41 0 .64 0 .22-.57 0-.89-.2l.22 1.38c-.95.42-2.06.08-2.62-.8 0-.38 0-.54.38-.74.39-.19.61-.35.61-.76a.62.62 0 0 0-.32-.64c-.25 0-.41 0-.48.28-.06.29-1.06.8-.9 1.7.17.9-.6.7-1.05.45-1.06-.55-1.44.41-1.89.93-.45.51 0 1.08.51 1.47.51.38.99.67 1.19 1.28.53-.48.86-1.14.92-1.86 0-.57.23-1.37 1.03-1.47.62-.05 1.19.32 1.41.9.16.35.41.38.73.41.73 1.57 1.31 3.2 1.73 4.87l-1.18-.16c0-.93-.8-.51-1.25-.71-.13.58.61.74.58 1.32z" style="fill:#b4ec36;stroke:none;stroke-width:33.08779907;stroke-linecap:butt"/></g></g></g></svg>