<svg xmlns="http://www.w3.org/2000/svg" xml:space="preserve" width="56.702" height="51.025" style="font-size:12px;overflow:visible;color-interpolation-filters:sRGB;fill-rule:evenodd;stroke-linecap:square;stroke-miterlimit:3" viewBox="0 0 56.702 51.025"><defs><linearGradient id="a" x1="0" x2="21.79" y1="75.789" y2="75.789" gradientTransform="scale(.8111 1.2329)" gradientUnits="userSpaceOnUse"><stop offset="0" stop-color="#198ab3"/><stop offset="0" stop-color="#198ab3"/><stop offset=".11" stop-color="#22a5cb"/><stop offset=".23" stop-color="#29bade"/><stop offset=".37" stop-color="#2ec9eb"/><stop offset=".53" stop-color="#31d1f3"/><stop offset=".78" stop-color="#32d4f5"/></linearGradient></defs><g transform="translate(-34 -34)"><title>Page-1</title><g transform="translate(34.005 -34.016)"><title>Event Grid Domain.15333</title><title>Icon-iot-183</title><g transform="translate(8.87 -16.345)"><title>Sheet.15335</title><path d="M36.02 107.38H13.21l6.43-6.54h10.77v-2.53h-11.8l-8.94 9.07H0v2.53h1.73l8.97 9.13h13.38v-2.53H11.74l-6.5-6.6h30.78z" style="fill:#949494;stroke:none;stroke-width:34;stroke-linecap:butt"/></g><g transform="translate(30.147 -14.54)"><title>Sheet.15336</title><path d="M5.17 93.44a4.302 4.347 0 1 1-4.3 4.31 4.269 4.314 0 0 1 4.3-4.31m3.9 13.48a4.302 4.347-180 1 0 4.3-4.31 4.302 4.347-180 0 0-4.3 4.24zm-9.07 9a4.302 4.347-180 1 0 4.3-4.31 4.269 4.314-180 0 0-4.3 4.31" style="fill:url(#a);stroke:none;stroke-width:34;stroke-linecap:butt"/></g><g transform="translate(0 -38.015)"><title>Sheet.15337</title><title>Sheet.15338</title><path d="M1.9 106.03h4.3v12.03a.967.977 0 0 1-.967.977l-4.263.003a.967.977 0 0 1-.967-.977L0 107.95a1.9 1.921 0 0 1 1.9-1.92" style="fill:#999;stroke:none;stroke-width:34;stroke-linecap:butt"/><title>Sheet.15339</title><path d="M1.9 106.03h4.3v12.03a.967.977 0 0 1-.967.977l-4.263.003a.967.977 0 0 1-.967-.977L0 107.95a1.9 1.921 0 0 1 1.9-1.92" style="fill:#999;fill-opacity:.5;stroke:none;stroke-width:34;stroke-linecap:butt"/></g><g transform="translate(50.49 -38.015)"><title>Sheet.15340</title><title>Sheet.15341</title><path d="M0 106.03h4.3a1.9 1.921 0 0 1 1.9 1.92v10.11a.967.977 0 0 1-.967.977l-4.303.003a.967.977 0 0 1-.934-.977z" style="fill:#999;stroke:none;stroke-width:34;stroke-linecap:butt"/><title>Sheet.15342</title><path d="M0 106.03h4.3a1.9 1.921 0 0 1 1.9 1.92v10.11a.967.977 0 0 1-.967.977l-4.303.003a.967.977 0 0 1-.934-.977z" style="fill:#999;fill-opacity:.5;stroke:none;stroke-width:34;stroke-linecap:butt"/></g><g transform="translate(0 -44.89)"><title>Sheet.15343</title><path d="M56.69 114.83v4.21H0v-4.21a1.9 1.921 0 0 1 1.9-1.92h52.93a1.9 1.921 0 0 1 1.86 1.92" style="fill:#949494;stroke:none;stroke-width:34;stroke-linecap:butt"/></g><title>Sheet.15344</title><title>Sheet.15345</title><path d="M.97 105.93h4.3a.967.977 0 0 1 .967.977l.003 12.133H1.9a1.9 1.921 0 0 1-1.9-1.92v-10.11a.967.977 0 0 1 .967-1.078z" style="fill:#999;stroke:none;stroke-width:34;stroke-linecap:butt"/><title>Sheet.15346</title><path d="M.97 105.93h4.3a.967.977 0 0 1 .967.977l.003 12.133H1.9a1.9 1.921 0 0 1-1.9-1.92v-10.11a.967.977 0 0 1 .967-1.078z" style="fill:#999;fill-opacity:.5;stroke:none;stroke-width:34;stroke-linecap:butt"/><g transform="translate(50.49 -.101)"><title>Sheet.15347</title><title>Sheet.15348</title><path d="M.93 106.03h4.31a.967.977 0 0 1 .967.977L6.2 117.12a1.9 1.921 0 0 1-1.9 1.92H0v-11.93a.967.977 0 0 1 .934-1.078z" style="fill:#999;stroke:none;stroke-width:34;stroke-linecap:butt"/><title>Sheet.15349</title><path d="M.93 106.03h4.31a.967.977 0 0 1 .967.977L6.2 117.12a1.9 1.921 0 0 1-1.9 1.92H0v-11.93a.967.977 0 0 1 .934-1.078z" style="fill:#999;fill-opacity:.5;stroke:none;stroke-width:34;stroke-linecap:butt"/></g><title>Sheet.15350</title><path d="M0 117.12v-4.21h56.69v4.21a1.9 1.921 0 0 1-1.9 1.92H1.9a1.9 1.921 0 0 1-1.9-1.92" style="fill:#949494;stroke:none;stroke-width:34;stroke-linecap:butt"/></g></g></svg>