<svg xmlns="http://www.w3.org/2000/svg" xml:space="preserve" width="56.698" height="51.024" style="font-size:12px;overflow:visible;color-interpolation-filters:sRGB;fill-rule:evenodd;stroke-linecap:square;stroke-miterlimit:3" viewBox="0 0 56.698 51.024"><defs><linearGradient id="a" x1=".033" x2="21.744" y1="151.622" y2="151.622" gradientTransform="scale(1.45608 .68677)" gradientUnits="userSpaceOnUse"><stop offset="0" stop-color="#773adc"/><stop offset="1" stop-color="#a67af4"/></linearGradient><linearGradient id="b" x1="0" x2="11.355" y1="107.006" y2="107.006" gradientTransform="scale(.9943 1.00574)" gradientUnits="userSpaceOnUse"><stop offset="0" stop-color="#5e9624"/><stop offset="1" stop-color="#76bc2d"/></linearGradient><linearGradient id="c" x1="0" x2="9.384" y1="133.832" y2="133.832" gradientTransform="scale(1.2031 .8312)" gradientUnits="userSpaceOnUse"><stop offset="0" stop-color="#5e9624"/><stop offset="1" stop-color="#76bc2d"/></linearGradient><linearGradient id="d" x1="0" x2="9.36" y1="134.225" y2="134.225" gradientTransform="scale(1.20619 .82906)" gradientUnits="userSpaceOnUse"><stop offset="0" stop-color="#5e9624"/><stop offset="1" stop-color="#76bc2d"/></linearGradient><linearGradient id="e" x1="0" x2="11.345" y1="107.119" y2="107.119" gradientTransform="scale(.99516 1.00486)" gradientUnits="userSpaceOnUse"><stop offset="0" stop-color="#5e9624"/><stop offset="1" stop-color="#76bc2d"/></linearGradient></defs><g transform="translate(-34 -34)"><title>Page-1</title><g transform="translate(34.002 -34.016)"><title>Event Grid System Topic.15176</title><title>Sheet.15177</title><g transform="translate(0 -37.99)"><title>Sheet.15178</title><path d="M1.93 106.03h4.29v12.04a.964.974 0 0 1-.964.974L.97 119.04a.964.974 0 0 1-.967-.974L0 107.98a1.89 1.91 0 0 1 1.86-1.95z" style="fill:#a3a3a3;stroke:none;stroke-width:34;stroke-linecap:butt"/></g><g transform="translate(0 -37.99)"><title>Sheet.15179</title><path d="M1.93 106.03h4.29v12.04a.964.974 0 0 1-.964.974L.97 119.04a.964.974 0 0 1-.967-.974L0 107.98a1.89 1.91 0 0 1 1.86-1.95z" style="fill:#a3a3a3;fill-opacity:.5;stroke:none;stroke-width:34;stroke-linecap:butt"/></g><g transform="translate(50.472 -37.996)"><title>Sheet.15180</title><path d="M0 106.04h4.29a1.89 1.91 0 0 1 1.89 1.91v10.12a.964.974 0 0 1-.964.974L.96 119.04a.964.974 0 0 1-.964-.974z" style="fill:#a3a3a3;stroke:none;stroke-width:34;stroke-linecap:butt"/></g><g transform="translate(50.472 -37.996)"><title>Sheet.15181</title><path d="M0 106.04h4.29a1.89 1.91 0 0 1 1.89 1.91v10.12a.964.974 0 0 1-.964.974L.96 119.04a.964.974 0 0 1-.964-.974z" style="fill:#a3a3a3;fill-opacity:.5;stroke:none;stroke-width:34;stroke-linecap:butt"/></g><g transform="translate(.1 -44.914)"><title>Sheet.15182</title><path d="M56.56 114.84v4.2H0v-4.2a1.89 1.91 0 0 1 1.89-1.91h52.77a1.89 1.91 0 0 1 1.9 1.91" style="fill:#949494;stroke:none;stroke-width:34;stroke-linecap:butt"/></g><g transform="translate(0 -.003)"><title>Sheet.15183</title><path d="M.97 105.93h4.29a.964.974 0 0 1 .964.974L6.22 119.04H1.93A1.89 1.91 0 0 1 0 117.15v-10.18a.964.974 0 0 1 .898-1.034z" style="fill:#a3a3a3;stroke:none;stroke-width:34;stroke-linecap:butt"/></g><g transform="translate(0 -.003)"><title>Sheet.15184</title><path d="M.97 105.93h4.29a.964.974 0 0 1 .964.974L6.22 119.04H1.93A1.89 1.91 0 0 1 0 117.15v-10.18a.964.974 0 0 1 .898-1.034z" style="fill:#a3a3a3;fill-opacity:.5;stroke:none;stroke-width:34;stroke-linecap:butt"/></g><g transform="translate(50.472 -.162)"><title>Sheet.15185</title><path d="M.96 106.09h4.3a.964.974 0 0 1 .964.955L6.22 117.13a1.89 1.91 0 0 1-1.89 1.91H0v-11.93a.964.974 0 0 1 .894-1.04z" style="fill:#a3a3a3;stroke:none;stroke-width:34;stroke-linecap:butt"/></g><g transform="translate(50.472 -.162)"><title>Sheet.15186</title><path d="M.96 106.09h4.3a.964.974 0 0 1 .964.955L6.22 117.13a1.89 1.91 0 0 1-1.89 1.91H0v-11.93a.964.974 0 0 1 .894-1.04z" style="fill:#a3a3a3;fill-opacity:.5;stroke:none;stroke-width:34;stroke-linecap:butt"/></g><title>Sheet.15187</title><path d="M0 117.11v-4.18h56.56v4.2a1.89 1.91 0 0 1-1.89 1.91H1.89A1.89 1.91 0 0 1 0 117.11" style="fill:#949494;stroke:none;stroke-width:34;stroke-linecap:butt"/><g transform="translate(17.13 -18.17)"><title>Sheet.15188</title><path d="m31.49 111.14-6.73-6.88a.334.337-180 0 0-.466-.06.33.334-180 0 0-.126.318l.002 4.232a.315.318 0 0 1-.29.372l-16.35-.002a3.896 3.936-180 0 0-3.07-1.54c-.14 0-.27-.01-.4-.01a4.076 4.118-180 0 0-.38 8.21c.13.01.26.02.39.02s.26 0 .39-.02a4.006 4.048-180 0 0 3.11-1.57h16.24a.334.337 0 0 1 .315.3l.005 4.18a.337.34-180 0 0 .315.35.315.318-180 0 0 .258-.124l6.747-6.776a.74.748-180 0 0 .04-1" style="fill:url(#a);stroke:none;stroke-width:34;stroke-linecap:butt"/></g><g transform="translate(8.649 -27.012)"><title>Sheet.15189</title><path d="M0 109.23v9.81h6.15a6.53 6.596 0 0 1 5.14-5.05v-6.37H1.57A1.575 1.591-180 0 0 0 109.23" style="fill:url(#b);stroke:none;stroke-width:34;stroke-linecap:butt"/></g><g transform="translate(22.598 -30.617)"><title>Sheet.15190</title><path d="M9.71 111.24H0v6.36a6.485 6.552 0 0 1 3.12 1.44h8.17v-6.21a1.575 1.591-180 0 0-1.58-1.59" style="fill:url(#c);stroke:none;stroke-width:34;stroke-linecap:butt"/></g><g transform="translate(22.598 -12.69)"><title>Sheet.15191</title><path d="M0 112.74v6.3h9.71a1.575 1.591-180 0 0 1.58-1.59v-6.17H3.16A6.444 6.51 0 0 1 0 112.74" style="fill:url(#d);stroke:none;stroke-width:34;stroke-linecap:butt"/></g><g transform="translate(8.649 -12.69)"><title>Sheet.15192</title><path d="M6.15 107.64H0v9.81a1.575 1.591-180 0 0 1.57 1.59h9.72v-6.33a6.413 6.479 0 0 1-5.14-5.07" style="fill:url(#e);stroke:none;stroke-width:34;stroke-linecap:butt"/></g></g></g></svg>