<svg xmlns="http://www.w3.org/2000/svg" xmlns:xlink="http://www.w3.org/1999/xlink" xml:space="preserve" width="56.702" height="51.025" style="font-size:12px;overflow:visible;color-interpolation-filters:sRGB;fill-rule:evenodd;stroke-linecap:square;stroke-miterlimit:3" viewBox="0 0 56.702 51.025"><defs><linearGradient id="a" x1="0" x2="1" y1="0" y2="0" gradientTransform="rotate(90 .5 .5)"><stop offset="0" stop-color="#c69aeb"/><stop offset="1" stop-color="#6f4bb2"/></linearGradient><linearGradient xlink:href="#a" id="b" x1="0" x2="7.04" y1="111.375" y2="111.375" gradientTransform="scale(.99476 1.00527)" gradientUnits="userSpaceOnUse"/><linearGradient xlink:href="#a" id="c" x1="0" x2="7.04" y1="111.375" y2="111.375" gradientTransform="scale(.99476 1.00527)" gradientUnits="userSpaceOnUse"/></defs><g transform="translate(-34 -34)"><title>Page-1</title><g transform="translate(34.005 -34.016)"><title>Event Grid Subscription.15193</title><title>Icon-integration-221</title><g transform="translate(8.504 -14.155)"><title>Sheet.15195</title><path d="M32.18 104.82v-2.02H17.11l-7.07 7.11h-5.2l12.07-12.34h8.23v-1.92h-9.07L2 109.91H0v2.02h6.04l7.13 7.11h17.01v-2.02H13.91l-5.04-5.09h12.24v-2.02h-8.2l5-5.09z" style="fill:#32bedd;stroke:none;stroke-width:34;stroke-linecap:butt"/></g><g transform="translate(28.713 -19.345)"><title>Sheet.15196</title><ellipse cx="2.901" cy="116.107" rx="2.901" ry="2.932" style="fill:#fff;stroke:none;stroke-width:34;stroke-linecap:butt"/></g><g transform="translate(31.748 -33.566)"><title>Sheet.15197</title><ellipse cx="2.901" cy="116.107" rx="2.901" ry="2.932" style="fill:#fff;stroke:none;stroke-width:34;stroke-linecap:butt"/></g><g transform="translate(38.785 -26.455)"><title>Sheet.15198</title><ellipse cx="2.901" cy="116.107" rx="2.901" ry="2.932" style="fill:#fff;stroke:none;stroke-width:34;stroke-linecap:butt"/></g><g transform="translate(35.783 -12.233)"><title>Sheet.15199</title><ellipse cx="2.901" cy="116.107" rx="2.901" ry="2.932" style="fill:#fff;stroke:none;stroke-width:34;stroke-linecap:butt"/></g><g transform="translate(31.048 -32.96)"><title>Sheet.15200</title><ellipse cx="3.502" cy="115.501" rx="3.502" ry="3.539" style="fill:#50e6ff;stroke:none;stroke-width:34;stroke-linecap:butt"/></g><g transform="translate(38.084 -25.849)"><title>Sheet.15201</title><ellipse cx="3.502" cy="115.501" rx="3.502" ry="3.539" style="fill:url(#b);stroke:none;stroke-width:34;stroke-linecap:butt"/></g><g transform="translate(35.183 -11.627)"><title>Sheet.15202</title><ellipse cx="3.502" cy="115.501" rx="3.502" ry="3.539" style="fill:url(#c);stroke:none;stroke-width:34;stroke-linecap:butt"/></g><g transform="translate(28.113 -18.738)"><title>Sheet.15203</title><ellipse cx="3.502" cy="115.501" rx="3.502" ry="3.539" style="fill:#50e6ff;stroke:none;stroke-width:34;stroke-linecap:butt"/></g><g transform="translate(0 -38.015)"><title>Sheet.15204</title><title>Sheet.15205</title><path d="M1.9 106.03h4.3v12.03a.967.977 0 0 1-.967.977l-4.263.003a.967.977 0 0 1-.967-.977L0 107.95a1.9 1.921 0 0 1 1.9-1.92" style="fill:#999;stroke:none;stroke-width:34;stroke-linecap:butt"/><title>Sheet.15206</title><path d="M1.9 106.03h4.3v12.03a.967.977 0 0 1-.967.977l-4.263.003a.967.977 0 0 1-.967-.977L0 107.95a1.9 1.921 0 0 1 1.9-1.92" style="fill:#999;fill-opacity:.5;stroke:none;stroke-width:34;stroke-linecap:butt"/></g><g transform="translate(50.49 -38.015)"><title>Sheet.15207</title><title>Sheet.15208</title><path d="M0 106.03h4.3a1.9 1.921 0 0 1 1.9 1.92v10.11a.967.977 0 0 1-.967.977l-4.303.003a.967.977 0 0 1-.934-.977z" style="fill:#999;stroke:none;stroke-width:34;stroke-linecap:butt"/><title>Sheet.15209</title><path d="M0 106.03h4.3a1.9 1.921 0 0 1 1.9 1.92v10.11a.967.977 0 0 1-.967.977l-4.303.003a.967.977 0 0 1-.934-.977z" style="fill:#999;fill-opacity:.5;stroke:none;stroke-width:34;stroke-linecap:butt"/></g><g transform="translate(0 -44.89)"><title>Sheet.15210</title><path d="M56.69 114.83v4.21H0v-4.21a1.9 1.921 0 0 1 1.9-1.92h52.93a1.9 1.921 0 0 1 1.86 1.92" style="fill:#949494;stroke:none;stroke-width:34;stroke-linecap:butt"/></g><title>Sheet.15211</title><title>Sheet.15212</title><path d="M.97 105.93h4.3a.967.977 0 0 1 .967.977l.003 12.133H1.9a1.9 1.921 0 0 1-1.9-1.92v-10.11a.967.977 0 0 1 .967-1.078z" style="fill:#999;stroke:none;stroke-width:34;stroke-linecap:butt"/><title>Sheet.15213</title><path d="M.97 105.93h4.3a.967.977 0 0 1 .967.977l.003 12.133H1.9a1.9 1.921 0 0 1-1.9-1.92v-10.11a.967.977 0 0 1 .967-1.078z" style="fill:#999;fill-opacity:.5;stroke:none;stroke-width:34;stroke-linecap:butt"/><g transform="translate(50.49 -.101)"><title>Sheet.15214</title><title>Sheet.15215</title><path d="M.93 106.03h4.31a.967.977 0 0 1 .967.977L6.2 117.12a1.9 1.921 0 0 1-1.9 1.92H0v-11.93a.967.977 0 0 1 .934-1.078z" style="fill:#999;stroke:none;stroke-width:34;stroke-linecap:butt"/><title>Sheet.15216</title><path d="M.93 106.03h4.31a.967.977 0 0 1 .967.977L6.2 117.12a1.9 1.921 0 0 1-1.9 1.92H0v-11.93a.967.977 0 0 1 .934-1.078z" style="fill:#999;fill-opacity:.5;stroke:none;stroke-width:34;stroke-linecap:butt"/></g><title>Sheet.15217</title><path d="M0 117.12v-4.21h56.69v4.21a1.9 1.921 0 0 1-1.9 1.92H1.9a1.9 1.921 0 0 1-1.9-1.92" style="fill:#949494;stroke:none;stroke-width:34;stroke-linecap:butt"/></g></g></svg>