<svg xmlns="http://www.w3.org/2000/svg" xml:space="preserve" width="56.697" height="45.363" style="font-size:12px;overflow:visible;color-interpolation-filters:sRGB;fill-rule:evenodd;stroke-linecap:square;stroke-miterlimit:3" viewBox="0 0 56.697 45.363"><g transform="translate(-34 -33.997)"><title>Page-1</title><g transform="translate(34 -34.016)"><title>Event Hub Cluster.15136</title><title> Icon-analytics-149</title><g transform="translate(27.863 -18.808)"><title>Sheet.15138</title><g transform="translate(0 -.033)"><title>Sheet.15139</title><path d="M1.07 107h2.16v5.91a.467.457 0 0 1-.467.457l-2.293.003a.467.457 0 0 1-.467-.457L0 107.95a.967.947 0 0 1 1.067-.947z" style="fill:#b3b3b3;stroke:none;stroke-width:34;stroke-linecap:butt"/></g><g transform="translate(0 -.033)"><title>Sheet.15140</title><path d="M1.07 107h2.16v5.91a.467.457 0 0 1-.467.457l-2.293.003a.467.457 0 0 1-.467-.457L0 107.95a.967.947 0 0 1 1.067-.947z" style="fill:#b3b3b3;fill-opacity:.5;stroke:none;stroke-width:34;stroke-linecap:butt"/></g><g transform="translate(25.663)"><title>Sheet.15141</title><path d="M0 106.97h2.17a.967.947 0 0 1 .967.947l-.007 4.993a.467.457 0 0 1-.467.457l-2.193.003a.467.457 0 0 1-.467-.457z" style="fill:#b3b3b3;stroke:none;stroke-width:34;stroke-linecap:butt"/></g><g transform="translate(25.663)"><title>Sheet.15142</title><path d="M0 106.97h2.17a.967.947 0 0 1 .967.947l-.007 4.993a.467.457 0 0 1-.467.457l-2.193.003a.467.457 0 0 1-.467-.457z" style="fill:#b3b3b3;fill-opacity:.5;stroke:none;stroke-width:34;stroke-linecap:butt"/></g><g transform="translate(.133 -3.494)"><title>Sheet.15143</title><path d="M28.66 111.31v2.06H0v-2.06a.967.947 0 0 1 .967-.947l26.663.007a.967.947 0 0 1 1.033.947z" style="fill:#b3b3b3;stroke:none;stroke-width:34;stroke-linecap:butt"/></g></g><g transform="translate(27.963)"><title>Sheet.15144</title><g transform="translate(0 -.033)"><title>Sheet.15145</title><path d="M.37 107h2.16a.467.457 0 0 1 .467.457L3 113.37H.97a.967.947 0 0 1-.967-.947L0 107.36a.467.457 0 0 1 .367-.36z" style="fill:#b3b3b3;stroke:none;stroke-width:34;stroke-linecap:butt"/></g><g transform="translate(0 -.033)"><title>Sheet.15146</title><path d="M.37 107h2.16a.467.457 0 0 1 .467.457L3 113.37H.97a.967.947 0 0 1-.967-.947L0 107.36a.467.457 0 0 1 .367-.36z" style="fill:#b3b3b3;fill-opacity:.5;stroke:none;stroke-width:34;stroke-linecap:butt"/></g><g transform="translate(25.53)"><title>Sheet.15147</title><path d="M.5 106.97h2.17a.467.457 0 0 1 .467.457l-.007 4.993a.967.947 0 0 1-.967.947L0 113.37v-6.04a.467.457 0 0 1 .5-.36" style="fill:#b3b3b3;stroke:none;stroke-width:34;stroke-linecap:butt"/></g><g transform="translate(25.53)"><title>Sheet.15148</title><path d="M.5 106.97h2.17a.467.457 0 0 1 .467.457l-.007 4.993a.967.947 0 0 1-.967.947L0 113.37v-6.04a.467.457 0 0 1 .5-.36" style="fill:#b3b3b3;fill-opacity:.5;stroke:none;stroke-width:34;stroke-linecap:butt"/></g><g transform="translate(.033)"><title>Sheet.15149</title><path d="M0 112.42v-2.05h28.7v2.05a.967.947 0 0 1-.967.947l-26.663.003a.967.947 0 0 1-1.067-.947z" style="fill:#b3b3b3;stroke:none;stroke-width:34;stroke-linecap:butt"/></g></g><g transform="translate(41.228 -13.355)"><title>Sheet.15150</title><path d="M4.07 112.95a.433.424 0 0 1-.367.424L.43 113.37a.4.392 0 0 1-.433-.392L0 110.53a.467.457 0 0 1 .367-.424L3.7 110.1a.4.392 0 0 1 .433.392z" style="fill:#76bc2d;stroke:none;stroke-width:34;stroke-linecap:butt"/></g><g transform="translate(41.228 -8.392)"><title>Sheet.15151</title><path d="M10.03 110.46a.433.424 0 0 1-.367.424l-3.333.006a.4.392 0 0 1-.433-.392l.003-2.418a.367.36 0 0 1 .367-.392l3.333.002a.367.36 0 0 1 .433.36zm-5.96 2.49a.4.392 0 0 1-.367.424L.43 113.37a.4.392 0 0 1-.433-.36L0 110.56a.4.392 0 0 1 .433-.424l3.337.004a.367.36 0 0 1 .433.36l-.003 2.45Z" style="fill:#5e9624;stroke:none;stroke-width:34;stroke-linecap:butt"/></g><g transform="translate(34.996 -15.69)"><title>Sheet.15152</title><path d="M4.33 112.86a.367.36 0 0 1-.367.392l-3.333.008a.374.367 0 0 1-.633-.392L0 110.35a.367.36 0 0 1 .367-.392l3.333.002c.33 0 .5.16.5.39z" style="fill:#86d633;stroke:none;stroke-width:34;stroke-linecap:butt"/></g><g transform="translate(35.229 -10.873)"><title>Sheet.15153</title><path d="M4.1 112.95a.4.392 0 0 1-.367.424L.4 113.37a.4.392 0 0 1-.4-.392V110.5a.4.392 0 0 1 .367-.424l3.333-.006c.33 0 .5.17.5.43z" style="fill:#76bc2d;stroke:none;stroke-width:34;stroke-linecap:butt"/></g><g transform="translate(34.996 -5.956)"><title>Sheet.15154</title><path d="M4.33 112.93a.367.36 0 0 1-.367.424L.63 113.35a.4.392 0 0 1-.633-.424L0 110.38a.4.392 0 0 1 .367-.424l3.333-.006a.433.424 0 0 1 .5.424z" style="fill:#5e9624;stroke:none;stroke-width:34;stroke-linecap:butt"/></g><g transform="translate(0 -9.24)"><title>Sheet.15155</title><path d="M42.69 89.44a.933.914-180 0 0-1.033-.914L15 88.52a.933.914-180 0 0-.967.914l-.003 4.996a.5.49-180 0 0 .5.457l2.13.003a.467.457-180 0 0 .467-.457l.003-2.943h22.4v2.94a.5.49-180 0 0 .5.457l2.16.003a.5.49-180 0 0 .5-.457zm-25.56 18.02a.467.457-180 0 0-.467-.457L14.5 107a.5.49-180 0 0-.5.457v5.003a.833.816-180 0 0 .7.914l11.6-.004v-2.97h-9.17ZM28.7 78.2a.967.947-180 0 0-.967-.947L1.07 77.26a.967.947-180 0 0-.967.947L.1 83.2a.467.457-180 0 0 .367.36H2.67a.467.457-180 0 0 .467-.457L3.13 80.29h22.4v2.97a.5.49-180 0 0 .5.294l2.3.006a.5.49-180 0 0 .5-.457V78.2ZM3.13 96.23a.5.49-180 0 0-.467-.49H.47a.5.49-180 0 0-.467.49L0 101.19c0 .49.33.91.7.91h11.6v-2.93H3.13Z" style="fill:#949494;stroke:none;stroke-width:34;stroke-linecap:butt"/></g><g transform="translate(6.2 -14.596)"><title>Sheet.15156</title><path d="M18.2 103.02a.367.36 0 0 1-.367.392l-3.333-.002a.367.36 0 0 1-.433-.36l-.007-2.51a.367.36 0 0 1 .367-.424l3.333-.006c.34 0 .5.17.5.43zm0 2.48c0-.26-.17-.26-.5-.26h-3.34a.4.392-180 0 0-.367.424L14 108.21a.4.392-180 0 0 .433.36h3.327a.4.392-180 0 0 .367-.424zm0 4.96c0-.22-.17-.39-.5-.39h-3.34a.367.36-180 0 0-.367.392L14 113.01a.367.36-180 0 0 .433.36h3.327a.367.36-180 0 0 .367-.424zm-14-21.19a.433.424-180 0 0-.5-.36H.37a.4.392-180 0 0-.367.424L0 91.88a.4.392-180 0 0 .367.294l3.333.006a.367.36-180 0 0 .367-.424zm0 4.97c0-.23-.17-.4-.5-.4H.37a.367.36-180 0 0-.367.392L0 96.75a.367.36-180 0 0 .4.36h3.33a.367.36-180 0 0 .367-.392zm0 4.99c0-.26-.17-.42-.5-.42H.37a.4.392-180 0 0-.367.424L0 101.71a.4.392-180 0 0 .4.392l3.33-.002a.4.392-180 0 0 .367-.424z" style="fill:#76bc2d;stroke:none;stroke-width:34;stroke-linecap:butt"/></g></g></g></svg>