<svg xmlns="http://www.w3.org/2000/svg" xml:space="preserve" width="56.696" height="56.699" style="font-size:12px;overflow:visible;color-interpolation-filters:sRGB;fill-rule:evenodd;stroke-linecap:square;stroke-miterlimit:3" viewBox="0 0 56.696 56.699"><defs><linearGradient id="a" x1="-.002" x2="39.884" y1="83.906" y2="83.906" gradientTransform="scale(.99262 1.00743)" gradientUnits="userSpaceOnUse"><stop offset="0" stop-color="#6bb9f2"/><stop offset="1" stop-color="#1b93eb"/></linearGradient></defs><g transform="translate(-34 -33.996)"><title>Page-1</title><g transform="translate(34 -34.016)"><title>Event Hub Scale.15114</title><title>MsPortalFx.base.images-66</title><g transform="translate(17.106 -16.518)"><title>Sheet.15116</title><path d="M39.59 105.51V85.26a.716.727-180 0 0-.716-.73H18.92a.716.727-180 0 0-.51 1.244l5.5 5.586.36.37a.72.73 0 0 1 0 1.03L.21 117.17a.713.724-180 0 0 0 1.03l6.2 6.3a.72.73-180 0 0 1.015 0l24.055-24.42a.716.727 0 0 1 1.019 0l.371.37 5.49 5.58a.716.727-180 0 0 1.226-.514z" style="fill:url(#a);stroke:none;stroke-width:34;stroke-linecap:butt"/></g><title>Sheet.15117</title><path d="M42.04 102.76v14.82a1.68 1.704 0 0 1-1.68 1.71H7.02a1.676 1.7 0 0 1-1.68-1.71V85.64a1.676 1.7 0 0 1 1.68-1.7h16.71a.92.934-180 0 0 .92-.934V79.45a.92.934-180 0 0-.92-.934L1.68 78.51A1.676 1.7-180 0 0 0 80.22V123a1.676 1.7-180 0 0 1.68 1.71h44.03a1.68 1.704-180 0 0 1.68-1.71v-20.24a.92.934-180 0 0-.92-.934l-3.51.004a.92.934-180 0 0-.92.934z" style="fill:#b3b3b3;stroke:none;stroke-width:34;stroke-linecap:butt"/></g></g></svg>