<svg xmlns="http://www.w3.org/2000/svg" xml:space="preserve" width="56.698" height="45.364" style="font-size:12px;overflow:visible;color-interpolation-filters:sRGB;fill-rule:evenodd;stroke-linecap:square;stroke-miterlimit:3" viewBox="0 0 56.698 45.364"><defs><linearGradient id="a" x1=".018" x2="20.31" y1="107.973" y2="107.973" gradientTransform="scale(1.5286 .6542)" gradientUnits="userSpaceOnUse"><stop offset="0" stop-color="#0078d4"/><stop offset="1" stop-color="#5ea0ef"/></linearGradient></defs><g transform="translate(-5.667 -4.53)"><title>Page-1</title><g transform="translate(5.67 -34.016)"><title>Event Grid Partner Topic.15218</title><g transform="translate(0 -33.769)"><title>Sheet.15219</title><path d="M1.93 72.34h4.29v10.7a.964.866 0 0 1-.964.866L.97 83.91a.964.866 0 0 1-.967-.866L0 74.08a1.89 1.697 0 0 1 1.86-1.74z" style="fill:#a3a3a3;stroke:none;stroke-width:.75;stroke-linecap:butt"/></g><g transform="translate(0 -33.769)"><title>Sheet.15220</title><path d="M1.93 72.34h4.29v10.7a.964.866 0 0 1-.964.866L.97 83.91a.964.866 0 0 1-.967-.866L0 74.08a1.89 1.697 0 0 1 1.86-1.74z" style="fill:#a3a3a3;fill-opacity:.5;stroke:none;stroke-width:.75;stroke-linecap:butt"/></g><g transform="translate(50.472 -33.775)"><title>Sheet.15221</title><path d="M0 72.35h4.29a1.89 1.697 0 0 1 1.89 1.7v8.99a.964.866 0 0 1-.964.866L.96 83.91a.964.866 0 0 1-.964-.866z" style="fill:#a3a3a3;stroke:none;stroke-width:.75;stroke-linecap:butt"/></g><g transform="translate(50.472 -33.775)"><title>Sheet.15222</title><path d="M0 72.35h4.29a1.89 1.697 0 0 1 1.89 1.7v8.99a.964.866 0 0 1-.964.866L.96 83.91a.964.866 0 0 1-.964-.866z" style="fill:#a3a3a3;fill-opacity:.5;stroke:none;stroke-width:.75;stroke-linecap:butt"/></g><g transform="translate(.1 -39.924)"><title>Sheet.15223</title><path d="M56.56 80.17v3.74H0v-3.74a1.89 1.697 0 0 1 1.89-1.7h52.77a1.89 1.697 0 0 1 1.9 1.7" style="fill:#949494;stroke:none;stroke-width:.75;stroke-linecap:butt"/></g><g transform="translate(0 -.003)"><title>Sheet.15224</title><path d="M.97 72.26h4.29a.964.866 0 0 1 .964.866L6.22 83.91H1.93A1.89 1.697 0 0 1 0 82.23v-9.06a.964.866 0 0 1 .898-.92z" style="fill:#a3a3a3;stroke:none;stroke-width:.75;stroke-linecap:butt"/></g><g transform="translate(0 -.003)"><title>Sheet.15225</title><path d="M.97 72.26h4.29a.964.866 0 0 1 .964.866L6.22 83.91H1.93A1.89 1.697 0 0 1 0 82.23v-9.06a.964.866 0 0 1 .898-.92z" style="fill:#a3a3a3;fill-opacity:.5;stroke:none;stroke-width:.75;stroke-linecap:butt"/></g><g transform="translate(50.472 -.144)"><title>Sheet.15226</title><path d="M.96 72.4h4.3a.964.866 0 0 1 .964.849L6.22 82.21a1.89 1.697 0 0 1-1.89 1.7H0V73.3a.964.866 0 0 1 .894-.925z" style="fill:#a3a3a3;stroke:none;stroke-width:.75;stroke-linecap:butt"/></g><g transform="translate(50.472 -.144)"><title>Sheet.15227</title><path d="M.96 72.4h4.3a.964.866 0 0 1 .964.849L6.22 82.21a1.89 1.697 0 0 1-1.89 1.7H0V73.3a.964.866 0 0 1 .894-.925z" style="fill:#a3a3a3;fill-opacity:.5;stroke:none;stroke-width:.75;stroke-linecap:butt"/></g><title>Sheet.15228</title><path d="M0 82.19v-3.72h56.56v3.74a1.89 1.697 0 0 1-1.89 1.7H1.89A1.89 1.697 0 0 1 0 82.19" style="fill:#949494;stroke:none;stroke-width:.75;stroke-linecap:butt"/><g transform="translate(16.837 -16.201)"><title>Sheet.15229</title><path d="M23.85 83.91a.33.297-180 0 0 .258-.113l6.742-6.027a.737.662-180 0 0 0-.9l-6.74-6.11a.315.283-180 0 0-.466-.057.334.3-180 0 0-.126.283l.002 3.764a.334.3 0 0 1-.293.33H7.53a3.89 3.493-180 0 0-3.08-1.37c-.13 0-.26-.01-.39-.01a4.076 3.66-180 0 0-.38 7.3h.77a4.013 3.603-180 0 0 3.12-1.4H23.2a.334.3 0 0 1 .33.266V83.6a.337.303-180 0 0 .324.308z" style="fill:url(#a);stroke:none;stroke-width:.75;stroke-linecap:butt"/></g><g transform="translate(8.25 -18.244)"><title>Sheet.15230</title><path d="M19.74 83.91a8.652 7.77 0 1 1-.03-9.06h4.69a12.724 11.427-180 1 0 .02 9.06z" style="fill:#773adc;stroke:none;stroke-width:.75;stroke-linecap:butt"/></g></g></g></svg>