<svg xmlns="http://www.w3.org/2000/svg" xml:space="preserve" width="56.691" height="53.859" style="font-size:12px;overflow:visible;color-interpolation-filters:sRGB;fill-rule:evenodd;stroke-linecap:square;stroke-miterlimit:3" viewBox="0 0 56.691 53.859"><defs><linearGradient id="a" x1="0" x2="48.991" y1="71.285" y2="71.285" gradientTransform="scale(.98692 1.01325)" gradientUnits="userSpaceOnUse"><stop offset="0" stop-color="#5ea0ef"/><stop offset="1" stop-color="#0078d4"/></linearGradient><linearGradient id="b" x1="-.022" x2="14.485" y1="160.244" y2="160.244" gradientTransform="scale(1.43391 .6974)" gradientUnits="userSpaceOnUse"><stop offset="0" stop-color="#0078d4"/><stop offset="1" stop-color="#5ea0ef"/></linearGradient></defs><g transform="translate(-34 -33.995)"><title>Page-1</title><g transform="translate(34 -34.016)"><title>Event Grid Partner Registration.15231</title><title>Sheet.15232</title><g transform="translate(0 -4.22)"><title>Sheet.15233</title><path d="M48.34 87.13H34.05V72.37l12.28-.14a2.016 2.066 0 0 1 2.02 2.07zm-16.82.14V72.23H16.96l.27 15.04zM.14 104.66H14.7V89.61H0ZM0 119.81a2.016 2.066-180 0 0 2.02 2.06H14.7v-14.89H0Zm0-45.5.14 12.82H14.7v-14.9H2.02A2.02 2.07-180 0 0 0 74.31" style="fill:url(#a);stroke:none;stroke-width:34;stroke-linecap:butt"/></g><g transform="translate(18.824 -25.744)"><title>Sheet.15234</title><path d="M1.28 113.05h2.87v8.16a.646.662 0 0 1-.646.662L.63 121.87a.63.646 0 0 1-.63-.662v-6.828a1.26 1.291 0 0 1 1.24-1.33z" style="fill:#a3a3a3;stroke:none;stroke-width:34;stroke-linecap:butt"/></g><g transform="translate(18.824 -25.744)"><title>Sheet.15235</title><path d="M1.28 113.05h2.87v8.16a.646.662 0 0 1-.646.662L.63 121.87a.63.646 0 0 1-.63-.662v-6.828a1.26 1.291 0 0 1 1.24-1.33z" style="fill:#a3a3a3;fill-opacity:.5;stroke:none;stroke-width:34;stroke-linecap:butt"/></g><g transform="translate(52.55 -25.744)"><title>Sheet.15236</title><path d="M0 113.05h2.87a1.26 1.291 0 0 1 1.26 1.3v6.86a.646.662 0 0 1-.63.662l-2.84-.002a.646.662 0 0 1-.646-.662l.006-8.158Z" style="fill:#a3a3a3;stroke:none;stroke-width:34;stroke-linecap:butt"/></g><g transform="translate(52.55 -25.744)"><title>Sheet.15237</title><path d="M0 113.05h2.87a1.26 1.291 0 0 1 1.26 1.3v6.86a.646.662 0 0 1-.63.662l-2.84-.002a.646.662 0 0 1-.646-.662l.006-8.158Z" style="fill:#a3a3a3;fill-opacity:.5;stroke:none;stroke-width:34;stroke-linecap:butt"/></g><g transform="translate(18.88 -30.441)"><title>Sheet.15238</title><path d="M37.81 119.03v2.84H0v-2.84a1.26 1.291 0 0 1 1.26-1.29h35.29a1.26 1.291 0 0 1 1.26 1.29" style="fill:#949494;stroke:none;stroke-width:34;stroke-linecap:butt"/></g><g transform="translate(18.807 -.006)"><title>Sheet.15239</title><path d="M.65 113h2.87a.63.646 0 0 1 .646.646l-.006 8.224H1.29A1.26 1.291 0 0 1 0 120.6a.536.549 0 0 1 0-.071v-6.819a.63.646 0 0 1 .599-.707z" style="fill:#a3a3a3;stroke:none;stroke-width:34;stroke-linecap:butt"/></g><g transform="translate(18.807 -.006)"><title>Sheet.15240</title><path d="M.65 113h2.87a.63.646 0 0 1 .646.646l-.006 8.224H1.29A1.26 1.291 0 0 1 0 120.6a.536.549 0 0 1 0-.071v-6.819a.63.646 0 0 1 .599-.707z" style="fill:#a3a3a3;fill-opacity:.5;stroke:none;stroke-width:34;stroke-linecap:butt"/></g><g transform="translate(52.55 -.107)"><title>Sheet.15241</title><path d="M.65 113.1h2.86a.63.646 0 0 1 .63.646v6.834a1.26 1.291 0 0 1-1.26 1.29H0v-8.06a.63.646 0 0 1 .599-.707z" style="fill:#a3a3a3;stroke:none;stroke-width:34;stroke-linecap:butt"/></g><g transform="translate(52.55 -.107)"><title>Sheet.15242</title><path d="M.65 113.1h2.86a.63.646 0 0 1 .63.646v6.834a1.26 1.291 0 0 1-1.26 1.29H0v-8.06a.63.646 0 0 1 .599-.707z" style="fill:#a3a3a3;fill-opacity:.5;stroke:none;stroke-width:34;stroke-linecap:butt"/></g><g transform="translate(18.811)"><title>Sheet.15243</title><path d="M0 120.58v-2.85h37.81v2.85a1.26 1.291 0 0 1-1.26 1.29H1.27A1.26 1.291 0 0 1 0 120.58" style="fill:#949494;stroke:none;stroke-width:34;stroke-linecap:butt"/></g><g transform="translate(30.031 -12.348)"><title>Sheet.15244</title><path d="M15.97 121.87a.224.23-180 0 0 .173-.084l4.497-4.586a.498.51-180 0 0 0-.688l-4.5-4.672a.224.23-180 0 0-.176-.087.249.255-180 0 0-.139.045.233.239-180 0 0-.082.22l-.003 2.872a.224.23 0 0 1-.195.255L5.07 115.14a2.593 2.657-180 0 0-2.06-1.04 2.46 2.521-180 0 0-.26 0 2.722 2.79-180 0 0-.26 5.57 2.325 2.382-180 0 0 .26 0 2.363 2.421-180 0 0 .26 0 2.675 2.74-180 0 0 2.08-1.06h10.45a.227.232 0 0 1 .224.203l-.004 2.837a.22.226-180 0 0 .202.22z" style="fill:url(#b);stroke:none;stroke-width:34;stroke-linecap:butt"/></g><g transform="translate(24.324 -13.887)"><title>Sheet.15245</title><path d="M13.19 121.86a5.784 5.927 0 1 1-.02-6.89h3.15a8.506 8.716-180 1 0 0 6.9z" style="fill:#773adc;stroke:none;stroke-width:34;stroke-linecap:butt"/></g></g></g></svg>