<svg xmlns="http://www.w3.org/2000/svg" xml:space="preserve" width="53.863" height="56.699" style="font-size:12px;overflow:visible;color-interpolation-filters:sRGB;fill-rule:evenodd;stroke-linecap:square;stroke-miterlimit:3" viewBox="0 0 53.863 56.699"><defs><linearGradient id="a" x1="0" x2="14.24" y1="110.497" y2="110.497" gradientTransform="scale(1.00264 .99737)" gradientUnits="userSpaceOnUse"><stop offset=".255" stop-color="#0078d4"/><stop offset="1" stop-color="#5ea0ef"/></linearGradient></defs><g transform="translate(-33.7 -33.695)"><title>Page-1</title><g transform="translate(33.705 -34.016)"><title>Event Grid Namespace.15286</title><g transform="translate(11.739 -27.256)"><title>rect12918</title><path d="M0 122.231h28.935v2.177H0z" style="fill:#b3b3b3;stroke:#b3b3b3;stroke-width:.181316;stroke-linecap:butt"/></g><g transform="rotate(-54.008 -5.026 99.331)"><title>rect12918-0</title><path d="M-.03 124.41H33l.07-2.47H.03Z" style="fill:#b3b3b3;stroke:#b3b3b3;stroke-width:.206102;stroke-linecap:butt"/></g><g transform="rotate(54.168 48.226 120.834)"><title>rect12918-0-6</title><path d="M-.03 124.41H33l.07-2.47H.03Z" style="fill:#b3b3b3;stroke:#b3b3b3;stroke-width:.206102;stroke-linecap:butt"/></g><g transform="translate(17.087 -37.352)"><title>path12451</title><path d="M2.3 118.89a3.252 3.235-180 1 0 3.25 3.23 3.25 3.232-180 0 0-3.25-3.23" style="fill:#32bedd;stroke:none;stroke-width:33.73880005;stroke-linecap:butt"/></g><g transform="translate(33.453 -14.245)"><title>path12453</title><path d="M2.3 118.88a3.252 3.235-180 1 0 3.25 3.24 3.25 3.232-180 0 0-3.25-3.24" style="fill:#773adc;stroke:none;stroke-width:33.73880005;stroke-linecap:butt"/></g><g transform="translate(7.135 -26.166)"><title>path12457</title><path d="M2.3 118.88a3.252 3.235-180 1 0 3.25 3.24 3.246 3.229-180 0 0-3.25-3.24" style="fill:#773adc;stroke:none;stroke-width:33.73880005;stroke-linecap:butt"/></g><g transform="translate(40.442 -25.948)"><title>path12459</title><path d="M2.3 118.88a3.252 3.235-180 1 0 3.25 3.24 3.25 3.232-180 0 0-3.25-3.24" style="fill:#32bedd;stroke:none;stroke-width:33.73880005;stroke-linecap:butt"/></g><g transform="translate(13.407 -10.067)"><title>path12463</title><path d="M2.27 124.4a3.246 3.229-180 0 0 3.27-3.21 3.252 3.235-180 1 0-3.27 3.22z" style="fill:#32bedd;stroke:none;stroke-width:33.73880005;stroke-linecap:butt"/></g><g transform="translate(35.835 -40.569)"><title>path12465</title><path d="M2.27 124.41a3.25 3.232-180 0 0 3.27-3.22 3.252 3.235-180 1 0-3.27 3.22" style="fill:#773adc;stroke:none;stroke-width:33.73880005;stroke-linecap:butt"/></g><g transform="translate(20.577 -21.135)"><title>circle12467</title><ellipse cx="7.139" cy="117.307" rx="7.139" ry="7.101" style="fill:url(#a);stroke:none;stroke-width:33.73880005;stroke-linecap:butt"/></g><g transform="translate(.013 -44.441)"><title>g12473</title><title>path12469</title><path d="M1.79 112.16h4.09v11.33a.918.913 0 0 1-.918.913l-4.052.007a.918.913 0 0 1-.906-.913L0 114.05a1.802 1.792 0 0 1 1.69-1.89z" style="fill:#999;stroke:none;stroke-width:33.69919968;stroke-linecap:butt"/><title>path12471</title><path d="M1.79 112.16h4.09v11.33a.918.913 0 0 1-.918.913l-4.052.007a.918.913 0 0 1-.906-.913L0 114.05a1.802 1.792 0 0 1 1.69-1.89z" style="fill:#999;fill-opacity:.5;stroke:none;stroke-width:33.69919968;stroke-linecap:butt"/></g><g transform="translate(47.906 -44.535)"><title>g12479</title><title>path12475</title><path d="M.03 112.25h4.05a1.805 1.795 0 0 1 1.81 1.8v9.44a.918.913 0 0 1-.918.913l-4.052.007a.918.913 0 0 1-.918-.913L0 112.25Z" style="fill:#999;stroke:none;stroke-width:33.69919968;stroke-linecap:butt"/><title>path12477</title><path d="M.03 112.25h4.05a1.805 1.795 0 0 1 1.81 1.8v9.44a.918.913 0 0 1-.918.913l-4.052.007a.918.913 0 0 1-.918-.913L0 112.25Z" style="fill:#999;fill-opacity:.5;stroke:none;stroke-width:33.69919968;stroke-linecap:butt"/></g><g transform="translate(.013 -50.93)"><title>path12481</title><path d="M53.83 120.44v3.97H0v-3.97a1.805 1.795 0 0 1 1.79-1.8h50.22a1.805 1.795 0 0 1 1.82 1.8" style="fill:#949494;stroke:none;stroke-width:33.69910049;stroke-linecap:butt"/></g><g transform="translate(0 -.032)"><title>g12487</title><title>path12483</title><path d="M.92 112.16H5a.918.913 0 0 1 .918.913l.002 11.337H1.8a1.805 1.795 0 0 1-1.8-1.8v-9.45a.915.91 0 0 1 .817-1.008.545.542 0 0 1 .101 0z" style="fill:#999;stroke:none;stroke-width:33.69919968;stroke-linecap:butt"/><title>path12485</title><path d="M.92 112.16H5a.918.913 0 0 1 .918.913l.002 11.337H1.8a1.805 1.795 0 0 1-1.8-1.8v-9.45a.915.91 0 0 1 .817-1.008.545.542 0 0 1 .101 0z" style="fill:#999;fill-opacity:.5;stroke:none;stroke-width:33.69919968;stroke-linecap:butt"/></g><g transform="translate(47.937 -.126)"><title>g12493</title><title>path12489</title><path d="M.89 112.25H5a.918.913 0 0 1 .918.913l.002 9.447a1.805 1.795 0 0 1-1.8 1.8H0v-11.34a.915.91 0 0 1 .887-.819z" style="fill:#999;stroke:none;stroke-width:33.69919968;stroke-linecap:butt"/><title>path12491</title><path d="M.89 112.25H5a.918.913 0 0 1 .918.913l.002 9.447a1.805 1.795 0 0 1-1.8 1.8H0v-11.34a.915.91 0 0 1 .887-.819z" style="fill:#999;fill-opacity:.5;stroke:none;stroke-width:33.69919968;stroke-linecap:butt"/></g><g transform="translate(.013)"><title>path12495</title><path d="M0 122.61v-3.97h53.83v3.97a1.805 1.795 0 0 1-1.81 1.8H1.79a1.805 1.795 0 0 1-1.79-1.8" style="fill:#949494;stroke:none;stroke-width:33.69910049;stroke-linecap:butt"/></g></g></g></svg>