<svg xmlns="http://www.w3.org/2000/svg" xml:space="preserve" width="56.693" height="45.359" style="font-size:12px;overflow:visible;color-interpolation-filters:sRGB;fill-rule:evenodd;stroke-linecap:square;stroke-miterlimit:3" viewBox="0 0 56.693 45.359"><defs><linearGradient id="a" x1="0" x2="20.619" y1="91.602" y2="91.602" gradientTransform="scale(.98987 1.01024)" gradientUnits="userSpaceOnUse"><stop offset="0" stop-color="#50e6ff"/><stop offset="1" stop-color="#5ea0ef"/></linearGradient><linearGradient id="b" x1="0" x2="40.395" y1="71.248" y2="71.248" gradientTransform="scale(.98477 1.01547)" gradientUnits="userSpaceOnUse"><stop offset="0" stop-color="#c69aeb"/><stop offset=".995" stop-color="#6f4bb2"/></linearGradient></defs><g transform="translate(-34 -33.995)"><title>Page-1</title><g transform="translate(34 -34.016)"><title>Event Grid Partner Configuration.15282</title><title>Sheet.15283</title><title>Sheet.15284</title><path d="M20.41 103.95v-2.44l-2.43-.83-.63-1.67 1.23-2.52v-.28l-.75-.78-.91-.93h-.32l-2.38 1.22-1.62-.46-1.03-2.72H9.21l-.79 2.48-1.79.81-2.66-1.54-1.75 1.56v.32l1.19 2.4-.67 1.66-2.74 1.2v2.52h.36l2.52.85.67 1.67-1.26 2.8 1.67 1.7h.31l2.39-1.21 1.62.69 1.04 2.92h2.34V113l.83-2.55 1.58-.69 2.78 1.28 1.66-1.7v-.32l-1.19-2.39.44-1.71zm-9.97 2.23a3.335 3.411 0 1 1 3.3-3.45v.04a3.332 3.408 0 0 1-3.3 3.25z" style="fill:url(#a);stroke:none;stroke-width:34;stroke-linecap:butt"/><g transform="translate(16.913 -4.339)"><title>Sheet.15285</title><path d="M39.78 94.65v-4.76l-.24-.2-4.84-1.7-1.22-3.25 2.46-4.87.24-.53-1.47-1.61-1.75-1.91-.63.32-4.64 2.44-3.2-.94-2.03-5.29h-4.6l-.23.25-1.58 4.83-3.25 1.26-5.36-2.6-3.27 3.33.31.64 2.42 4.71-1.3 3.26L0 90.1v4.75l.67.2 4.93 1.67 1.31 3.47-2.54 5.47 3.25 3.36.63-.29 4.65-2.42 3.18 1.34 2.02 5.72h4.69v-1.01l1.63-5.04 3.15-1.34 5.43 2.56 3.26-3.33-.32-.64-2.27-4.38.91-3.33zm-19.49 4.38a6.513 6.661 0 1 1 6.47-6.7 6.551 6.7 0 0 1-6.47 6.7" style="fill:url(#b);stroke:none;stroke-width:34;stroke-linecap:butt"/></g></g></g></svg>