<svg xmlns="http://www.w3.org/2000/svg" xml:space="preserve" width="56.694" height="48.209" style="font-size:12px;overflow:visible;color-interpolation-filters:sRGB;fill-rule:evenodd;stroke-linecap:square;stroke-miterlimit:3" viewBox="0 0 56.694 48.209"><defs><linearGradient id="a" x1="-.003" x2="24.253" y1="70.714" y2="70.714" gradientTransform="scale(1.06191 .9417)" gradientUnits="userSpaceOnUse"><stop offset="0" stop-color="#773adc"/><stop offset="1" stop-color="#a67af4"/></linearGradient><linearGradient id="b" x1="0" x2="24.253" y1="70.705" y2="70.705" gradientTransform="scale(1.06178 .94181)" gradientUnits="userSpaceOnUse"><stop offset="0" stop-color="#1b93eb"/><stop offset="1" stop-color="#6bb9f2"/></linearGradient></defs><g transform="translate(-7.169 -7.172)"><title>Page-1</title><g transform="translate(7.172 -34.016)"><title>Event Grid Input Output.15311</title><title>g10</title><title>g14-9</title><title>Icon691_DataBox_Gateway</title><title>Icon-intune-341</title><title>g48</title><g transform="translate(.884 -35.807)"><title>g20</title><title>path16</title><path d="M1.83 77.01h4.12v11.47a.914.91 0 0 1-.914.91H.91a.914.91 0 0 1-.914-.91L0 78.83a1.828 1.82 0 0 1 1.83-1.82" style="fill:#999;stroke:none;stroke-width:7.17237997"/><title>path18</title><path d="M1.83 77.01h4.12v11.47a.914.91 0 0 1-.914.91H.91a.914.91 0 0 1-.914-.91L0 78.83a1.828 1.82 0 0 1 1.83-1.82" style="fill:#999;fill-opacity:.5;stroke:none;stroke-width:7.17237997"/></g><g transform="translate(49.26 -35.807)"><title>g26</title><title>path22</title><path d="M0 77.01h4.12a1.828 1.82 0 0 1 1.83 1.82v9.65a.914.91 0 0 1-.914.91H.91a.914.91 0 0 1-.914-.91z" style="fill:#999;stroke:none;stroke-width:7.17237997"/><title>path24</title><path d="M0 77.01h4.12a1.828 1.82 0 0 1 1.83 1.82v9.65a.914.91 0 0 1-.914.91H.91a.914.91 0 0 1-.914-.91z" style="fill:#999;fill-opacity:.5;stroke:none;stroke-width:7.17237997"/></g><g transform="rotate(90 24.598 65.786)"><title>path28</title><path d="M1.81 35.28h4v54.11h-4A1.81 1.803 0 0 1 0 87.59V37.1a1.81 1.803 0 0 1 1.81-1.82" style="fill:#949494;stroke:none;stroke-width:7.17237997"/></g><g transform="translate(.884 -.003)"><title>g34</title><title>path30</title><path d="M.91 77.01h4.13a.914.91 0 0 1 .914.91L5.95 89.39H1.83A1.828 1.82 0 0 1 0 87.57v-9.65a.914.91 0 0 1 .914-.91z" style="fill:#999;stroke:none;stroke-width:7.17237997"/><title>path32</title><path d="M.91 77.01h4.13a.914.91 0 0 1 .914.91L5.95 89.39H1.83A1.828 1.82 0 0 1 0 87.57v-9.65a.914.91 0 0 1 .914-.91z" style="fill:#999;fill-opacity:.5;stroke:none;stroke-width:7.17237997"/></g><g transform="translate(49.26)"><title>g40</title><title>path36</title><path d="M.91 77h4.13a.914.91 0 0 1 .914.91l-.004 9.66a1.828 1.82 0 0 1-1.83 1.82H0V77.91A.914.91 0 0 1 .914 77z" style="fill:#999;stroke:none;stroke-width:7.17237997"/><title>path38</title><path d="M.91 77h4.13a.914.91 0 0 1 .914.91l-.004 9.66a1.828 1.82 0 0 1-1.83 1.82H0V77.91A.914.91 0 0 1 .914 77z" style="fill:#999;fill-opacity:.5;stroke:none;stroke-width:7.17237997"/></g><g transform="rotate(-90 27.554 61.844)"><title>path42</title><path d="M1.81 35.28h4v54.11h-4A1.81 1.803 0 0 1 0 87.59v-50.5a1.81 1.803 0 0 1 1.81-1.81" style="fill:#949494;stroke:none;stroke-width:7.17237997"/></g><g transform="translate(0 -13.144)"><title>path44</title><path d="m14.97 66.76 10.42 10.38a1.24 1.236 0 0 1 0 1.75L14.97 89.27a.554.551 0 0 1-.947-.392L14.02 82.5a.554.551-180 0 0-.554-.555L.44 81.94a.44.438 0 0 1-.444-.442L0 74.52a.44.438 0 0 1 .444-.438l13.026.008a.554.551-180 0 0 .554-.555l-.004-6.395a.554.551 0 0 1 .947-.385z" style="fill:url(#a);stroke:none;stroke-width:7.17237997"/></g><g transform="translate(30.938 -13.144)"><title>path46</title><path d="m14.97 66.76 10.42 10.38a1.247 1.242 0 0 1 0 1.75L14.97 89.27a.554.551 0 0 1-.947-.392L14.02 82.5a.557.555-180 0 0-.557-.555L.44 81.94a.44.438 0 0 1-.44-.442V74.52a.44.438 0 0 1 .44-.442l13.03.002a.557.555-180 0 0 .557-.555l-.007-6.385a.554.551 0 0 1 .947-.385z" style="fill:url(#b);stroke:none;stroke-width:7.17237997"/></g></g></g></svg>