<svg xmlns="http://www.w3.org/2000/svg" xml:space="preserve" width="56.7" height="51.025" style="font-size:12px;overflow:visible;color-interpolation-filters:sRGB;fill-rule:evenodd;stroke-linecap:square;stroke-miterlimit:3" viewBox="0 0 56.7 51.025"><g transform="translate(-34 -34)"><title>Page-1</title><g transform="translate(34.003 -34.016)"><title>Event Hub.15075</title><title> Icon-analytics-144</title><g transform="translate(25.779 -16.11)"><title>Sheet.15077</title><path d="M8.67 107.41a.867.876 0 0 1-.8.91H.9a.867.876 0 0 1-.9-.809v-5.251a.867.876 0 0 1 .8-.91h6.97a.867.876 0 0 1 .9.809zm12.37 5.33a.867.876 0 0 1-.8.91h-6.97a.867.876 0 0 1-.9-.809v-5.231a.867.876 0 0 1 .8-.91h6.97a.867.876 0 0 1 .9.809zm-12.37 5.39a.867.876 0 0 1-.8.91H.9a.867.876 0 0 1-.9-.809v-5.261a.867.876 0 0 1 .8-.91h6.97a.867.876 0 0 1 .9.809z" style="fill:#76bc2d;stroke:none;stroke-width:34;stroke-linecap:butt"/></g><g transform="translate(13.24 -32.185)"><title>Sheet.15078</title><path d="M8.84 118.16a.834.843 0 0 1-.767.876L.9 119.04a.867.876 0 0 1-.9-.775V112.8a.867.876 0 0 1 .8-.843l6.97.003c.73 0 1.07.37 1.07.91z" style="fill:#86d633;stroke:none;stroke-width:34;stroke-linecap:butt"/></g><g transform="translate(13.24 -10.75)"><title>Sheet.15079</title><path d="M8.84 107.38a.834.843 0 0 1-.767.91H.9a.867.876 0 0 1-.9-.91v-5.33a.867.876 0 0 1 .8-.876l6.97.006c.73 0 1.07.37 1.07.87zm0 10.75a.834.843 0 0 1-.767.91H.9a.867.876 0 0 1-.9-.809v-5.461a.834.843 0 0 1 .8-.876l6.97-.004c.73 0 1.07.34 1.07.88z" style="fill:#76bc2d;stroke:none;stroke-width:34;stroke-linecap:butt"/></g><g transform="translate(0 -37.914)"><title>Sheet.15080</title><title>Sheet.15081</title><path d="M1.9 105.93h4.3v12.13a.967.977 0 0 1-.967.977l-4.263.003a.967.977 0 0 1-.967-.977L0 107.95a1.9 1.921 0 0 1 1.9-2.02" style="fill:#999;stroke:none;stroke-width:34;stroke-linecap:butt"/><title>Sheet.15082</title><path d="M1.9 105.93h4.3v12.13a.967.977 0 0 1-.967.977l-4.263.003a.967.977 0 0 1-.967-.977L0 107.95a1.9 1.921 0 0 1 1.9-2.02" style="fill:#999;fill-opacity:.5;stroke:none;stroke-width:34;stroke-linecap:butt"/></g><g transform="translate(50.457 -38.015)"><title>Sheet.15083</title><title>Sheet.15084</title><path d="M.03 106.03h4.31a1.9 1.921 0 0 1 1.9 1.92v10.11a.967.977 0 0 1-.967.977l-4.303.003a.967.977 0 0 1-.967-.977L0 106.03Z" style="fill:#999;stroke:none;stroke-width:34;stroke-linecap:butt"/><title>Sheet.15085</title><path d="M.03 106.03h4.31a1.9 1.921 0 0 1 1.9 1.92v10.11a.967.977 0 0 1-.967.977l-4.303.003a.967.977 0 0 1-.967-.977L0 106.03Z" style="fill:#999;fill-opacity:.5;stroke:none;stroke-width:34;stroke-linecap:butt"/></g><g transform="translate(0 -44.89)"><title>Sheet.15086</title><path d="M56.69 114.83v4.21H0v-4.21a1.9 1.921 0 0 1 1.9-1.92h52.93a1.9 1.921 0 0 1 1.86 1.92" style="fill:#949494;stroke:none;stroke-width:34;stroke-linecap:butt"/></g><title>Sheet.15087</title><title>Sheet.15088</title><path d="M.97 105.93h4.3a.967.977 0 0 1 .967.977l.003 12.133H1.9a1.9 1.921 0 0 1-1.9-1.92v-10.38a.967.977 0 0 1 .967-.809z" style="fill:#999;stroke:none;stroke-width:34;stroke-linecap:butt"/><title>Sheet.15089</title><path d="M.97 105.93h4.3a.967.977 0 0 1 .967.977l.003 12.133H1.9a1.9 1.921 0 0 1-1.9-1.92v-10.38a.967.977 0 0 1 .967-.809z" style="fill:#999;fill-opacity:.5;stroke:none;stroke-width:34;stroke-linecap:butt"/><g transform="translate(50.49 -.101)"><title>Sheet.15090</title><title>Sheet.15091</title><path d="M.93 106.03h4.31a.967.977 0 0 1 .967.977L6.2 117.12a1.9 1.921 0 0 1-1.9 1.92H0v-12.2a.967.977 0 0 1 .934-.809z" style="fill:#999;stroke:none;stroke-width:34;stroke-linecap:butt"/><title>Sheet.15092</title><path d="M.93 106.03h4.31a.967.977 0 0 1 .967.977L6.2 117.12a1.9 1.921 0 0 1-1.9 1.92H0v-12.2a.967.977 0 0 1 .934-.809z" style="fill:#999;fill-opacity:.5;stroke:none;stroke-width:34;stroke-linecap:butt"/></g><title>Sheet.15093</title><path d="M0 117.12v-4.21h56.69v4.21a1.9 1.921 0 0 1-1.9 1.92H1.9a1.9 1.921 0 0 1-1.9-1.92" style="fill:#949494;stroke:none;stroke-width:34;stroke-linecap:butt"/></g></g></svg>