<svg xmlns="http://www.w3.org/2000/svg" xmlns:xlink="http://www.w3.org/1999/xlink" xml:space="preserve" width="56.701" height="51.027" style="font-size:12px;overflow:visible;color-interpolation-filters:sRGB;fill-rule:evenodd;stroke-linecap:square;stroke-miterlimit:3" viewBox="0 0 56.701 51.027"><defs><linearGradient id="a" x1="0" x2="1" y1="0" y2="0" gradientTransform="rotate(-90 .5 .5)"><stop offset="0" stop-color="#5e9624"/><stop offset=".01" stop-color="#5e9724"/><stop offset=".35" stop-color="#6cab29"/><stop offset=".68" stop-color="#73b82c"/><stop offset="1" stop-color="#76bc2d"/></linearGradient><linearGradient xlink:href="#a" id="b" x1="-.266" x2="17.789" y1="143.537" y2="143.537" gradientTransform="scale(1.3573 .73676)" gradientUnits="userSpaceOnUse"/><linearGradient xlink:href="#a" id="c" x1="-.261" x2="17.851" y1="142.785" y2="142.785" gradientTransform="scale(1.35146 .73994)" gradientUnits="userSpaceOnUse"/></defs><g transform="translate(-33.997 -33.998)"><title>Page-1</title><g transform="translate(34.002 -34.016)"><title>Event Grid Topic.15157</title><title>Icon-integration-206</title><g transform="translate(0 -37.982)"><title>Sheet.15159</title><title>Sheet.15160</title><path d="M1.93 106.03h4.29v12.03a.965.975 0 0 1-.965.975l-4.295.005a.965.975 0 0 1-.965-.975L0 107.98a1.896 1.916 0 0 1 1.93-1.95" style="fill:#a3a3a3;stroke:none;stroke-width:34;stroke-linecap:butt"/><title>Sheet.15161</title><path d="M1.93 106.03h4.29v12.03a.965.975 0 0 1-.965.975l-4.295.005a.965.975 0 0 1-.965-.975L0 107.98a1.896 1.916 0 0 1 1.93-1.95" style="fill:#a3a3a3;fill-opacity:.5;stroke:none;stroke-width:34;stroke-linecap:butt"/></g><g transform="translate(50.471 -37.982)"><title>Sheet.15162</title><title>Sheet.15163</title><path d="M0 106.03h4.29a1.896 1.916 0 0 1 1.9 1.92v10.11a.965.975 0 0 1-.965.975l-4.265.005a.965.975 0 0 1-.965-.975z" style="fill:#a3a3a3;stroke:none;stroke-width:34;stroke-linecap:butt"/><title>Sheet.15164</title><path d="M0 106.03h4.29a1.896 1.916 0 0 1 1.9 1.92v10.11a.965.975 0 0 1-.965.975l-4.265.005a.965.975 0 0 1-.965-.975z" style="fill:#a3a3a3;fill-opacity:.5;stroke:none;stroke-width:34;stroke-linecap:butt"/></g><g transform="translate(.1 -44.906)"><title>Sheet.15165</title><path d="M56.56 114.84v4.2H0v-4.2a1.896 1.916 0 0 1 1.9-1.92h52.76a1.896 1.916 0 0 1 1.9 1.92" style="fill:#949494;stroke:none;stroke-width:34;stroke-linecap:butt"/></g><title>Sheet.15166</title><title>Sheet.15167</title><path d="M.96 105.93h4.3a.965.975 0 0 1 .965.975L6.22 119.04H1.93A1.896 1.916 0 0 1 0 117.06v-10.09a.965.975 0 0 1 .965-1.042z" style="fill:#a3a3a3;stroke:none;stroke-width:34;stroke-linecap:butt"/><title>Sheet.15168</title><path d="M.96 105.93h4.3a.965.975 0 0 1 .965.975L6.22 119.04H1.93A1.896 1.916 0 0 1 0 117.06v-10.09a.965.975 0 0 1 .965-1.042z" style="fill:#a3a3a3;fill-opacity:.5;stroke:none;stroke-width:34;stroke-linecap:butt"/><g transform="translate(50.471 -.134)"><title>Sheet.15169</title><title>Sheet.15170</title><path d="M.96 106.06h4.3a.965.975 0 0 1 .965.975L6.22 117.12a1.896 1.916 0 0 1-1.89 1.92H0v-11.93a.965.975 0 0 1 .965-1.042z" style="fill:#a3a3a3;stroke:none;stroke-width:34;stroke-linecap:butt"/><title>Sheet.15171</title><path d="M.96 106.06h4.3a.965.975 0 0 1 .965.975L6.22 117.12a1.896 1.916 0 0 1-1.89 1.92H0v-11.93a.965.975 0 0 1 .965-1.042z" style="fill:#a3a3a3;fill-opacity:.5;stroke:none;stroke-width:34;stroke-linecap:butt"/></g><title>Sheet.15172</title><path d="M0 117.12v-4.2h56.56v4.2a1.896 1.916 0 0 1-1.9 1.92H1.9a1.896 1.916 0 0 1-1.9-1.92" style="fill:#949494;stroke:none;stroke-width:34;stroke-linecap:butt"/><g transform="translate(16.886 -18.965)"><title>Sheet.15173</title><path d="m31.12 111.95-6.05-6.18a.3.303-180 0 0-.532.235l.002 3.795a.3.303 0 0 1-.333.336l-17.437.004a3.493 3.53-180 0 0-2.76-1.38 3.66 3.697-180 1 0 0 7.36 3.593 3.63-180 0 0 2.79-1.41h17.4a.3.303 0 0 1 .333.303l.007 3.727a.3.303-180 0 0 .532.202l6.048-6.082a.665.672-180 0 0 0-.908z" style="fill:#5ea0ef;stroke:none;stroke-width:34;stroke-linecap:butt"/></g><g transform="translate(12.863 -29.889)"><title>Sheet.15174</title><path d="m23.97 111.95-6.06-6.08a.3.303-180 0 0-.532.235l.002 3.865a.3.303 0 0 1-.3.336l-10.91.004a3.56 3.597-180 0 0-2.8-1.38 3.66 3.697-180 1 0 2.83 5.95h10.88a.3.303 0 0 1 .3.303v3.557a.3.303-180 0 0 .532.202l6.058-6.082a.665.672-180 0 0 0-.908z" style="fill:url(#b);stroke:none;stroke-width:34;stroke-linecap:butt"/></g><g transform="translate(12.932 -7.738)"><title>Sheet.15175</title><path d="m23.9 111.85-6.06-6.08a.3.303-180 0 0-.532.235l.002 3.695a.333.336 0 0 1-.3.336l-10.91.004a3.56 3.597-180 0 0-2.8-1.38 3.66 3.697-180 1 0 2.83 6.05h10.88a.3.303 0 0 1 .3.303v3.727a.3.303-180 0 0 .532.202l6.058-6.082a.665.672-180 0 0 0-1.008z" style="fill:url(#c);stroke:none;stroke-width:34;stroke-linecap:butt"/></g></g></g></svg>