<svg xmlns="http://www.w3.org/2000/svg" xml:space="preserve" width="56.698" height="51.024" style="font-size:12px;overflow:visible;color-interpolation-filters:sRGB;fill-rule:evenodd;stroke-linecap:square;stroke-miterlimit:3" viewBox="0 0 56.698 51.024"><defs><linearGradient id="a" x1="0" x2="10.89" y1="107.541" y2="107.541" gradientTransform="scale(.9949 1.00513)" gradientUnits="userSpaceOnUse"><stop offset="0" stop-color="#773adc"/><stop offset="1" stop-color="#a67af4"/></linearGradient></defs><g transform="translate(-34 -34)"><title>Page-1</title><g transform="translate(34.002 -34.016)"><title>Event Grid Partner Namespace.15246</title><title>Sheet.15247</title><g transform="translate(0 -37.99)"><title>Sheet.15248</title><path d="M1.93 106.03h4.29v12.04a.964.974 0 0 1-.964.974L.97 119.04a.964.974 0 0 1-.967-.974L0 107.98a1.89 1.91 0 0 1 1.86-1.95z" style="fill:#a3a3a3;stroke:none;stroke-width:34;stroke-linecap:butt"/></g><g transform="translate(0 -37.99)"><title>Sheet.15249</title><path d="M1.93 106.03h4.29v12.04a.964.974 0 0 1-.964.974L.97 119.04a.964.974 0 0 1-.967-.974L0 107.98a1.89 1.91 0 0 1 1.86-1.95z" style="fill:#a3a3a3;fill-opacity:.5;stroke:none;stroke-width:34;stroke-linecap:butt"/></g><g transform="translate(50.472 -37.996)"><title>Sheet.15250</title><path d="M0 106.04h4.29a1.89 1.91 0 0 1 1.89 1.91v10.12a.964.974 0 0 1-.964.974L.96 119.04a.964.974 0 0 1-.964-.974z" style="fill:#a3a3a3;stroke:none;stroke-width:34;stroke-linecap:butt"/></g><g transform="translate(50.472 -37.996)"><title>Sheet.15251</title><path d="M0 106.04h4.29a1.89 1.91 0 0 1 1.89 1.91v10.12a.964.974 0 0 1-.964.974L.96 119.04a.964.974 0 0 1-.964-.974z" style="fill:#a3a3a3;fill-opacity:.5;stroke:none;stroke-width:34;stroke-linecap:butt"/></g><g transform="translate(.1 -44.914)"><title>Sheet.15252</title><path d="M56.56 114.84v4.2H0v-4.2a1.89 1.91 0 0 1 1.89-1.91h52.77a1.89 1.91 0 0 1 1.9 1.91" style="fill:#949494;stroke:none;stroke-width:34;stroke-linecap:butt"/></g><g transform="translate(0 -.003)"><title>Sheet.15253</title><path d="M.97 105.93h4.29a.964.974 0 0 1 .964.974L6.22 119.04H1.93A1.89 1.91 0 0 1 0 117.15v-10.18a.964.974 0 0 1 .898-1.034z" style="fill:#a3a3a3;stroke:none;stroke-width:34;stroke-linecap:butt"/></g><g transform="translate(0 -.003)"><title>Sheet.15254</title><path d="M.97 105.93h4.29a.964.974 0 0 1 .964.974L6.22 119.04H1.93A1.89 1.91 0 0 1 0 117.15v-10.18a.964.974 0 0 1 .898-1.034z" style="fill:#a3a3a3;fill-opacity:.5;stroke:none;stroke-width:34;stroke-linecap:butt"/></g><g transform="translate(50.472 -.162)"><title>Sheet.15255</title><path d="M.96 106.09h4.3a.964.974 0 0 1 .964.955L6.22 117.13a1.89 1.91 0 0 1-1.89 1.91H0v-11.93a.964.974 0 0 1 .894-1.04z" style="fill:#a3a3a3;stroke:none;stroke-width:34;stroke-linecap:butt"/></g><g transform="translate(50.472 -.162)"><title>Sheet.15256</title><path d="M.96 106.09h4.3a.964.974 0 0 1 .964.955L6.22 117.13a1.89 1.91 0 0 1-1.89 1.91H0v-11.93a.964.974 0 0 1 .894-1.04z" style="fill:#a3a3a3;fill-opacity:.5;stroke:none;stroke-width:34;stroke-linecap:butt"/></g><title>Sheet.15257</title><path d="M0 117.11v-4.18h56.56v4.2a1.89 1.91 0 0 1-1.89 1.91H1.89A1.89 1.91 0 0 1 0 117.11" style="fill:#949494;stroke:none;stroke-width:34;stroke-linecap:butt"/><g transform="translate(13.805 -11.086)"><title>Sheet.15258</title><path d="M29.26 105.91v-2.53H13.63V92.71h13.03v-2.53H13.63a2.52 2.546-180 0 0-2.51 2.55v10.65H0v2.54h11.15v10.59a2.52 2.546-180 0 0 2.52 2.53h13.01v-2.53H13.65v-10.6z" style="fill:#0078d4;stroke:none;stroke-width:34;stroke-linecap:butt"/></g><g transform="translate(40.406 -21.755)"><title>Sheet.15259</title><ellipse cx="3.82" cy="115.18" rx="3.82" ry="3.86" style="fill:#5ea0ef;stroke:none;stroke-width:34;stroke-linecap:butt"/></g><g transform="translate(6.888 -20.021)"><title>Sheet.15260</title><ellipse cx="5.417" cy="113.566" rx="5.417" ry="5.473" style="fill:url(#a);stroke:none;stroke-width:34;stroke-linecap:butt"/></g><g transform="translate(36.958 -8.388)"><title>Sheet.15261</title><ellipse cx="3.82" cy="115.18" rx="3.82" ry="3.86" style="fill:#5ea0ef;stroke:none;stroke-width:34;stroke-linecap:butt"/></g><g transform="translate(36.958 -34.932)"><title>Sheet.15262</title><ellipse cx="3.82" cy="115.18" rx="3.82" ry="3.86" style="fill:#5ea0ef;stroke:none;stroke-width:34;stroke-linecap:butt"/></g></g></g></svg>