<svg xmlns="http://www.w3.org/2000/svg" xmlns:xlink="http://www.w3.org/1999/xlink" xml:space="preserve" width="56.7" height="51.027" style="font-size:12px;overflow:visible;color-interpolation-filters:sRGB;fill-rule:evenodd;stroke-linecap:square;stroke-miterlimit:3" viewBox="0 0 56.7 51.027"><defs><linearGradient id="a" x1="0" x2="1" y1="0" y2="0" gradientTransform="rotate(-90 .5 .5)"><stop offset="0" stop-color="#76bc2d"/><stop offset=".74" stop-color="#86d633"/></linearGradient><linearGradient xlink:href="#a" id="b" x1="0" x2="13.534" y1="177.782" y2="177.782" gradientTransform="scale(1.60715 .62222)" gradientUnits="userSpaceOnUse"/><linearGradient xlink:href="#a" id="c" x1="0" x2="10.535" y1="138.395" y2="138.395" gradientTransform="scale(1.2511 .7993)" gradientUnits="userSpaceOnUse"/><linearGradient xlink:href="#a" id="d" x1="0" x2="10.523" y1="138.238" y2="138.238" gradientTransform="scale(1.24967 .80021)" gradientUnits="userSpaceOnUse"/></defs><g transform="translate(-34 -33.998)"><title>Page-1</title><g transform="translate(34.003 -34.016)"><title>Event Hub Schema Registry.15094</title><title>Sheet.15095</title><g transform="translate(16.428 -18.419)"><title>Sheet.15096</title><path d="m3.86 119.04 8.06-14 8.02 14h3.85l-10.43-18.21a1.666 1.684-180 0 0-2.89 0L0 119.02Z" style="fill:#949494;stroke:none;stroke-width:34;stroke-linecap:butt"/></g><g transform="translate(17.468 -30.16)"><title>Sheet.15097</title><path d="M21.75 118.13a.867.876 0 0 1-.8.91H.9a.87.879 0 0 1-.9-.808v-6.702a.867.876 0 0 1 .8-.91h20.05a.87.879 0 0 1 .9.808z" style="fill:url(#b);stroke:none;stroke-width:34;stroke-linecap:butt"/></g><g transform="translate(31.31 -11.905)"><title>Sheet.15098</title><path d="M13.18 118.13a.87.879 0 0 1-.8.91H.9a.87.879 0 0 1-.9-.808v-6.702a.87.879 0 0 1 .8-.91h11.48a.87.879 0 0 1 .9.808z" style="fill:url(#c);stroke:none;stroke-width:34;stroke-linecap:butt"/></g><g transform="translate(12.195 -11.905)"><title>Sheet.15099</title><path d="M13.15 118.13a.87.879 0 0 1-.8.91H.9a.87.879 0 0 1-.9-.808v-6.702a.87.879 0 0 1 .8-.91h11.45a.87.879 0 0 1 .9.808z" style="fill:url(#d);stroke:none;stroke-width:34;stroke-linecap:butt"/></g><g transform="translate(0 -37.922)"><title>Sheet.15100</title><title>Sheet.15101</title><path d="M1.9 105.94h4.3v12.12a.967.977 0 0 1-.967.977l-4.263.003a.967.977 0 0 1-.967-.977L0 107.96a1.896 1.916 0 0 1 1.8-2.02z" style="fill:#999;stroke:none;stroke-width:34;stroke-linecap:butt"/><title>Sheet.15102</title><path d="M1.9 105.94h4.3v12.12a.967.977 0 0 1-.967.977l-4.263.003a.967.977 0 0 1-.967-.977L0 107.96a1.896 1.916 0 0 1 1.8-2.02z" style="fill:#999;fill-opacity:.5;stroke:none;stroke-width:34;stroke-linecap:butt"/></g><g transform="translate(50.427 -38.007)"><title>Sheet.15103</title><title>Sheet.15104</title><path d="M.03 106.02H4.3a1.9 1.92 0 0 1 1.9 1.92v10.12a.967.977 0 0 1-.967.977l-4.263.003a.967.977 0 0 1-.967-.977L0 106.02Z" style="fill:#999;stroke:none;stroke-width:34;stroke-linecap:butt"/><title>Sheet.15105</title><path d="M.03 106.02H4.3a1.9 1.92 0 0 1 1.9 1.92v10.12a.967.977 0 0 1-.967.977l-4.263.003a.967.977 0 0 1-.967-.977L0 106.02Z" style="fill:#999;fill-opacity:.5;stroke:none;stroke-width:34;stroke-linecap:butt"/></g><g transform="translate(.013 -44.843)"><title>Sheet.15106</title><path d="M56.66 114.8v4.24H0v-4.24a1.9 1.92 0 0 1 1.9-1.92h52.86a1.9 1.92 0 0 1 1.9 1.92" style="fill:#949494;stroke:none;stroke-width:34;stroke-linecap:butt"/></g><g transform="translate(.013 -.034)"><title>Sheet.15107</title><title>Sheet.15108</title><path d="M.95 105.94h4.3a.967.977 0 0 1 .967.977l.003 12.123H1.89a1.9 1.92 0 0 1-1.89-1.9v-10.11a.963.973 0 0 1 .86-1.071.573.58 0 0 1 .093-.024z" style="fill:#999;stroke:none;stroke-width:34;stroke-linecap:butt"/><title>Sheet.15109</title><path d="M.95 105.94h4.3a.967.977 0 0 1 .967.977l.003 12.123H1.89a1.9 1.92 0 0 1-1.89-1.9v-10.11a.963.973 0 0 1 .86-1.071.573.58 0 0 1 .093-.024z" style="fill:#999;fill-opacity:.5;stroke:none;stroke-width:34;stroke-linecap:butt"/></g><g transform="translate(50.46 -.135)"><title>Sheet.15110</title><title>Sheet.15111</title><path d="M.93 106.04h4.34a.967.977 0 0 1 .967.977L6.23 117.12a1.9 1.92 0 0 1-1.9 1.92H0v-12.13a.963.973 0 0 1 .933-.876z" style="fill:#999;stroke:none;stroke-width:34;stroke-linecap:butt"/><title>Sheet.15112</title><path d="M.93 106.04h4.34a.967.977 0 0 1 .967.977L6.23 117.12a1.9 1.92 0 0 1-1.9 1.92H0v-12.13a.963.973 0 0 1 .933-.876z" style="fill:#999;fill-opacity:.5;stroke:none;stroke-width:34;stroke-linecap:butt"/></g><g transform="translate(.013)"><title>Sheet.15113</title><path d="M0 117.12v-4.24h56.66v4.24a1.9 1.92 0 0 1-1.9 1.92H1.89A1.9 1.92 0 0 1 0 117.12" style="fill:#949494;stroke:none;stroke-width:34;stroke-linecap:butt"/></g></g></g></svg>