<svg xmlns="http://www.w3.org/2000/svg" xml:space="preserve" width="56.69" height="51.029" style="font-size:12px;overflow:visible;color-interpolation-filters:sRGB;fill-rule:evenodd;stroke-linecap:square;stroke-miterlimit:3" viewBox="0 0 56.69 51.029"><defs><linearGradient id="a" x1="0" x2="48.07" y1="92.318" y2="92.318" gradientTransform="scale(1.17933 .84794)" gradientUnits="userSpaceOnUse"><stop offset="0" stop-color="#0078d4"/><stop offset=".155" stop-color="#1380da"/><stop offset=".53" stop-color="#3c91e5"/><stop offset=".82" stop-color="#559cec"/><stop offset="1" stop-color="#5ea0ef"/></linearGradient><linearGradient id="b" x1=".102" x2="28.709" y1="91.965" y2="91.965" gradientTransform="scale(1.01287 .9873)" gradientUnits="userSpaceOnUse"><stop offset="0" stop-color="#ef7100"/><stop offset="1" stop-color="#faa21d"/></linearGradient></defs><g transform="translate(-34 -33.996)"><title>Page-1</title><g transform="translate(34 -34.016)"><title>FHIR Service.15069</title><title>Sheet.15070</title><g transform="translate(14.904 -40.427)"><title>Sheet.15071</title><path d="M27.23 119.04H24.4v-7.67a.384.396-180 0 0-.085 0H2.92a.384.396-180 0 0-.085 0l-.005 7.67H0v-7.81a2.835 2.918 0 0 1 2.92-2.79h21.39a2.835 2.918 0 0 1 2.92 2.79z" style="fill:#a3a3a3;stroke:none;stroke-width:34;stroke-linecap:butt"/></g><title>Sheet.15072</title><path d="M0 117.1a1.89 1.946-180 0 0 1.89 1.94H54.8a1.89 1.946-180 0 0 1.89-1.94V80.23a1.89 1.946-180 0 0-1.89-1.95H1.89A1.89 1.946-180 0 0 0 80.23Z" style="fill:url(#a);stroke:none;stroke-width:34;stroke-linecap:butt"/><g transform="translate(13.758 -6.258)"><title>Sheet.15073</title><path d="M22.02 90.82a7.266 7.48-180 0 0-7.45 5.03 7.298 7.513-180 0 0-7.5-4.98C.33 91.44 0 98.3.12 100.93c.06 1.87.43 7.78 14.38 18.02l.12.09.12-.09c13.94-10.33 14.28-16.35 14.33-18.3.08-2.55-.31-9.29-7.05-9.83" style="fill:url(#b);stroke:none;stroke-width:34;stroke-linecap:butt"/></g><g transform="translate(15.909 -11.483)"><title>Sheet.15074</title><path d="M26.56 102a10.857 11.177 0 0 1-1.02 6.1 16.942 17.441 0 0 1-9.97 7.82 2.293 2.36-180 0 0-1.67-.85 2.337 2.406-180 1 0 2.18 2.59 23.345 24.033-180 0 0 8.96-5.92 10.476 10.785-180 0 0 1.86-5.84 13.043 13.427-180 0 0-.34-3.9M6.48 116.27l.59.7a.9.927-180 0 0 1.26.075l1.35-1.235a.904.93-180 0 0 .072-1.297.885.911-180 0 0-1.237-.204.945.973-180 0 0-.085.074l-.71.647c-4.42-5.01-5.68-8.87-3.64-10.71 2.03-1.85 5.59-.11 9.97 4.91l-.7.65a.888.914-180 0 0-.079 1.297.87.895-180 0 0 1.222.107l.037-.034 1.33-1.22a.904.93-180 0 0 .072-1.297l-.592-.673c-2.97-3.44-8.11-7.7-11.65-5.57a5.53 5.694 0 0 1-1.51-3.6 3.912 4.027 0 0 1 .63-2.36 6.019 6.196-180 0 0-2.32 1.42 6.038 6.216-180 0 0 1.91 5.77c-2.4 3.38 1.11 9.11 4.08 12.55" style="fill:#fff;fill-opacity:.9;stroke:none;stroke-width:34;stroke-linecap:butt"/></g></g></g></svg>