<svg xmlns="http://www.w3.org/2000/svg" xml:space="preserve" width="56.69" height="56.69" style="font-size:12px;overflow:visible;color-interpolation-filters:sRGB;fill-rule:evenodd;stroke-linecap:square;stroke-miterlimit:3" viewBox="0 0 56.69 56.69"><g transform="translate(-30.6 -30.604)"><title>Page-1</title><g transform="translate(30.6 -34.016)"><title>Fluid Relay.12130</title><title>Sheet.12131</title><title>Sheet.12132</title><path d="M0 70.99a6.38 6.38 0 0 1 6.38-6.37h9.92a6.38 6.38 0 0 1 6.38 6.37v9.92a6.38 6.38 0 0 1-6.38 6.38H6.38A6.38 6.38 0 0 1 0 80.91Zm28.35 28.35a6.38 6.38 0 0 1 6.37-6.38h15.59a6.38 6.38 0 0 1 6.38 6.38v15.59a6.38 6.38 0 0 1-6.38 6.38H34.72a6.38 6.38 0 0 1-6.37-6.38z" style="fill:#0078d4;stroke:none;stroke-width:30.60000038;stroke-linecap:butt"/><g transform="translate(8.504 -8.504)"><title>Sheet.12133</title><path d="M33.42 81.62H17.01v9.05a7.965 7.965 0 0 1-8 7.96H0v16.41a6.21 6.21-180 0 0 6.24 6.27h10.82v-15a7.625 7.625 0 0 1 7.63-7.68h14.97V87.86a6.21 6.21-180 0 0-6.24-6.24" style="fill:#50e6ff;stroke:none;stroke-width:30.60000038;stroke-linecap:butt"/></g></g></g></svg>