<svg xmlns="http://www.w3.org/2000/svg" xml:space="preserve" width="53.36" height="47.259" style="font-size:12px;overflow:visible;color-interpolation-filters:sRGB;fill-rule:evenodd;stroke-linecap:square;stroke-miterlimit:3" viewBox="0 0 53.36 47.259"><defs><linearGradient id="a" x1="2.687" x2="45.742" y1="76.393" y2="76.393" gradientTransform="scale(1.23935 .80688)" gradientUnits="userSpaceOnUse"><stop offset="0" stop-color="#32bedd"/><stop offset=".175" stop-color="#32caea"/><stop offset=".41" stop-color="#32d2f2"/><stop offset=".775" stop-color="#32d4f5"/></linearGradient></defs><g transform="translate(-9 -15.105)"><title>Page-1</title><g transform="translate(5.67 -34.016)"><title>FTP.15053</title><title>Sheet.15054</title><title>Sheet.15055</title><path d="M3.33 61.64h53.36v32.77a1.784 1.965 0 0 1-1.78 1.97H5.12a1.784 1.965 0 0 1-1.79-1.97Z" style="fill:url(#a);stroke:none;stroke-width:.75;stroke-linecap:butt"/><g transform="translate(0 -34.74)"><title>Sheet.15056</title><path d="M5.13 83.86H54.9a1.784 1.965 0 0 1 1.79 1.95v10.57H3.33V85.81a1.784 1.965 0 0 1 1.8-1.95" style="fill:#0078d4;stroke:none;stroke-width:.75;stroke-linecap:butt"/></g><g transform="translate(10.845 -38.585)"><title>Sheet.15057</title><path d="M0 95.41a.877.966-180 0 0 .877.966l36.593.004a.877.966-180 0 0 .877-.966l.003-3.024a.877.966-180 0 0-.877-.966L.88 91.42a.877.966-180 0 0-.877.966z" style="fill:#f2f2f2;stroke:none;stroke-width:.75;stroke-linecap:butt"/></g><g transform="translate(16.104 -6.578)"><title>Sheet.15058</title><title>Sheet.15059</title><path d="m5.94 95.74 6.86-20.38a.9.992-180 0 0-.844-1.333l-4.266.003a.897.988-180 0 0-.84.646L0 95.05a.897.988-180 0 0 .84 1.33H5.1a.9.992-180 0 0 .844-.643z" style="fill:#f2f2f2;stroke:none;stroke-width:.75;stroke-linecap:butt"/><g transform="translate(15.024)"><title>Sheet.15060</title><path d="m5.94 95.74 6.86-20.38a.897.988-180 0 0-.84-1.333l-4.26.003a.897.988-180 0 0-.844.646L0 95.05a.897.988-180 0 0 .844 1.33H5.1a.897.988-180 0 0 .84-.643z" style="fill:#f2f2f2;stroke:none;stroke-width:.75;stroke-linecap:butt"/></g></g></g></g></svg>