<svg xmlns="http://www.w3.org/2000/svg" xml:space="preserve" width="56.721" height="56.692" style="font-size:12px;overflow:visible;color-interpolation-filters:sRGB;fill-rule:evenodd;stroke-linecap:square;stroke-miterlimit:3" viewBox="0 0 56.721 56.692"><defs><linearGradient id="a" x1="-.018" x2="38.997" y1="119.007" y2="119.007" gradientTransform="scale(1.26711 .7892)" gradientUnits="userSpaceOnUse"><stop offset=".22" stop-color="#32d4f5"/><stop offset="1" stop-color="#198ab3"/></linearGradient><linearGradient id="b" x1="0" x2="28.102" y1="95.043" y2="95.043" gradientTransform="scale(.98746 1.0127)" gradientUnits="userSpaceOnUse"><stop offset=".22" stop-color="#32d4f5"/><stop offset="1" stop-color="#198ab3"/></linearGradient><radialGradient id="c" cx="26.098" cy="97.741" r="36.531" fx="26.098" fy="97.741" gradientTransform="scale(.78376 1.2759)" gradientUnits="userSpaceOnUse"><stop offset=".27" stop-color="#ffd70f"/><stop offset="1" stop-color="#fea11b"/></radialGradient></defs><g transform="translate(-34 -34)"><title>Page-1</title><g transform="translate(34.023 -34.016)"><title>Function App Authentication.15024</title><title>Sheet.15025</title><g transform="translate(0 -.856)"><title>Sheet.15026</title><path d="M44.99 124.71a4.416 4.53-180 0 0 4.41-4.5 2.67 2.738-180 0 0 0-.54c-1.74-14.19-9.62-25.75-24.68-25.75S1.52 103.72 0 119.71a4.416 4.53-180 0 0 3.92 4.96h41.07z" style="fill:url(#a);stroke:none;stroke-width:34;stroke-linecap:butt"/></g><g transform="translate(17.237 -10.624)"><title>Sheet.15027</title><path d="M7.48 107.07A13.48 13.824 0 0 1 0 104.8l7.42 19.91 7.38-19.77a13.743 14.094 0 0 1-7.32 2.13" style="fill:#fff;fill-opacity:.8;stroke:none;stroke-width:34;stroke-linecap:butt"/></g><g transform="translate(10.843 -28.234)"><title>Sheet.15028</title><ellipse cx="13.875" cy="110.479" rx="13.875" ry="14.23" style="fill:url(#b);stroke:none;stroke-width:34;stroke-linecap:butt"/></g><g transform="translate(36.244)"><title>Sheet.15029</title><path d="M19.36 104.72a3.724 3.82-180 0 0 0-5.41l-6.4-6.76a3.691 3.786-180 0 0-5.27 0L1.1 99.11a3.757 3.853-180 0 0 0 5.44l5.3 5.55a1.022 1.048 0 0 1 .3.74v10.14a1.186 1.217-180 0 0 .4.95l2.4 2.53a.89.913-180 0 0 1.22 0l2.37-2.43 1.39-1.46a.461.473-180 0 0 0-.676l-1.02-1.044a.56.575 0 0 1 0-.777l1.02-1.053a.428.44-180 0 0 0-.676l-.99-1.044a.56.575 0 0 1 0-.777l1.02-1.043a.461.473-180 0 0 0-.676l-1.38-1.454v-.38zm-9-10.51a2.175 2.23 0 0 1 2.11 2.2 2.076 2.13 0 0 1-2.15 2.16 2.142 2.197 0 0 1 0-4.36z" style="fill:url(#c);stroke:none;stroke-width:34;stroke-linecap:butt"/></g><g transform="translate(44.69 -3.218)"><title>Sheet.15030</title><path d="M.13 124.6a.461.473-180 0 0 .791-.338L.92 115.98a.527.54-180 0 0-.198-.44.461.473-180 0 0-.725.406L0 124.26a.428.44-180 0 0 .132.338z" style="fill:#ff9300;fill-opacity:.75;stroke:none;stroke-width:34;stroke-linecap:butt"/></g><g transform="rotate(-89.65 14.993 87.508)"><title>Sheet.15031</title><path d="M0 124.13a.56.575-180 0 0 .56.575l.13.005a.56.575-180 0 0 .56-.575v-9.705a.56.575-180 0 0-.56-.575l-.13.005a.56.575-180 0 0-.56.575z" style="fill:#ff9300;fill-opacity:.75;stroke:none;stroke-width:34;stroke-linecap:butt"/></g><g transform="rotate(-89.65 16.038 88.579)"><title>Sheet.15032</title><path d="M0 124.13a.56.575-180 0 0 .56.575l.13.005a.56.575-180 0 0 .56-.575v-9.705a.56.575-180 0 0-.56-.575l-.13.005a.56.575-180 0 0-.56.575z" style="fill:#ff9300;fill-opacity:.75;stroke:none;stroke-width:34;stroke-linecap:butt"/></g></g></g></svg>