<svg xmlns="http://www.w3.org/2000/svg" xml:space="preserve" width="56.699" height="49.995" style="font-size:12px;overflow:visible;color-interpolation-filters:sRGB;fill-rule:evenodd;stroke-linecap:square;stroke-miterlimit:3" viewBox="0 0 56.699 49.995"><defs><linearGradient id="a" x1="0" x2="37.641" y1="51.212" y2="51.212" gradientTransform="scale(.7529 1.3282)" gradientUnits="userSpaceOnUse"><stop offset="0" stop-color="#fea11b"/><stop offset=".285" stop-color="#fea51a"/><stop offset=".545" stop-color="#feb018"/><stop offset=".8" stop-color="#ffc314"/><stop offset="1" stop-color="#ffd70f"/></linearGradient></defs><g transform="translate(-34 -34.004)"><title>Page-1</title><g transform="translate(34 -34.016)"><title>Function App.14950</title><title>Sheet.14951</title><g transform="translate(.008 -11.03)"><title>Sheet.14952</title><path d="m17.16 116.92-1.89 1.88a.945.94 0 0 1-1.26 0L.47 105.34a1.915 1.903 0 0 1 0-2.5l1.58-1.88 15.11 15.02a.592.588 0 0 1 0 .94" style="fill:#50e6ff;stroke:none;stroke-width:34;stroke-linecap:butt"/></g><g transform="translate(0 -23.164)"><title>Sheet.14953</title><path d="m14.97 101.51 1.89 1.88a.945.94 0 0 1 0 1.252L2.37 119.04l-1.89-1.88a1.89 1.878 0 0 1 0-2.5l13.54-13.46a1.156 1.149 0 0 1 .95.31" style="fill:#1490df;stroke:none;stroke-width:34;stroke-linecap:butt"/></g><g transform="translate(38.974 -10.717)"><title>Sheet.14954</title><path d="m15.36 100.64 1.89 1.88a1.915 1.903 0 0 1 0 2.51L3.39 118.8a.945.94 0 0 1-1.26 0l-1.89-1.88a.945.94 0 0 1 0-1.252z" style="fill:#50e6ff;stroke:none;stroke-width:34;stroke-linecap:butt"/></g><g transform="translate(38.974 -23.164)"><title>Sheet.14955</title><path d="m16.93 117.16-1.89 1.88-14.8-14.71a.945.94 0 0 1 0-1.252l1.89-1.878a.945.94 0 0 1 1.26 0l13.54 13.46a1.89 1.878 0 0 1 0 2.5" style="fill:#1490df;stroke:none;stroke-width:34;stroke-linecap:butt"/></g><g transform="translate(14.022)"><title>Sheet.14956</title><path d="M11.97 95.88H.63a.677.673 0 0 1-.63-.626v-.314l13.54-26.61c.32 0 .32-.31.63-.31H27.4a.677.673 0 0 1 .63.626v.304L12.28 89.93h15.43a.677.673 0 0 1 .63.626.315.313 0 0 1-.315.313L2.2 117.47c-.31 0-1.89 1.57-1.26-.62z" style="fill:url(#a);stroke:none;stroke-width:34;stroke-linecap:butt"/></g></g></g></svg>