<svg xmlns="http://www.w3.org/2000/svg" xml:space="preserve" width="56.691" height="56.904" style="font-size:12px;overflow:visible;color-interpolation-filters:sRGB;fill-rule:evenodd;stroke-linecap:square;stroke-miterlimit:3" viewBox="0 0 56.691 56.904"><defs><linearGradient id="a" x1="0" x2="25.588" y1="147.462" y2="147.462" gradientTransform="scale(1.3854 .72181)" gradientUnits="userSpaceOnUse"><stop offset="0" stop-color="#32bedd"/><stop offset="1" stop-color="#50e6ff"/></linearGradient><linearGradient id="b" x1="0" x2="25.588" y1="147.462" y2="147.462" gradientTransform="scale(1.3854 .72181)" gradientUnits="userSpaceOnUse"><stop offset="0" stop-color="#76bc2d"/><stop offset="1" stop-color="#86d633"/></linearGradient></defs><g transform="translate(-34 -34.002)"><title>Page-1</title><g transform="translate(34 -34.215)"><title>Function App Deployment Slot.15008</title><title>Sheet.15009</title><g transform="translate(39.773 -18.206)"><title>Sheet.15010</title><path d="M0 124.38a.397.4-180 0 0 .258.5l4.722-.04c.23 0 6.45.07 6.69.06l4.72-.03a.403.405-180 0 0 .315-.12.397.4-180 0 0 0-.564L8.57 116.04a.425.428-180 0 0-.592 0L.03 124.3Z" style="fill:#76bc2d;stroke:none;stroke-width:34;stroke-linecap:butt"/></g><g transform="translate(0 -17.769)"><title>Sheet.15011</title><path d="M22.43 114.66a3.78 3.801 0 0 1-3.78-3.81v-4.41H0v17.27a1.187 1.194-180 0 0 1.19 1.2h33.07a1.187 1.194-180 0 0 1.19-1.2v-9.05z" style="fill:url(#a);stroke:none;stroke-width:34;stroke-linecap:butt"/></g><g transform="translate(0 -35.132)"><title>Sheet.15012</title><path d="M18.65 116.21H1.19A1.19 1.197-180 0 0 0 117.38v7.53h18.65z" style="fill:#198ab3;stroke:none;stroke-width:34;stroke-linecap:butt"/></g><g transform="translate(4.769 -37.964)"><title>Sheet.15013</title><path d="M13.88 121.83H.59a.583.586-180 0 0-.586.586L0 124.32a.583.586-180 0 0 .586.586l13.294.004Z" style="fill:#f2f2f2;fill-opacity:.7;stroke:none;stroke-width:34;stroke-linecap:butt"/></g><g transform="translate(21.24 -30.627)"><title>Sheet.15014</title><path d="M0 106.44v17.27a1.19 1.197-180 0 0 1.19 1.2h33.07a1.187 1.194-180 0 0 1.19-1.2v-17.27z" style="fill:url(#b);stroke:none;stroke-width:34;stroke-linecap:butt"/></g><g transform="translate(21.24 -47.994)"><title>Sheet.15015</title><path d="M1.19 116.21h33.07a1.187 1.194 0 0 1 1.19 1.21v7.49H0v-7.53a1.19 1.197 0 0 1 1.19-1.17" style="fill:#5e9624;stroke:none;stroke-width:34;stroke-linecap:butt"/></g><g transform="translate(26.016 -50.836)"><title>Sheet.15016</title><path d="M0 124.32a.583.586-180 0 0 .583.586l24.757.004a.583.586-180 0 0 .583-.586l-.003-1.894a.583.586-180 0 0-.583-.586L.58 121.84a.583.586-180 0 0-.583.586z" style="fill:#f2f2f2;fill-opacity:.7;stroke:none;stroke-width:34;stroke-linecap:butt"/></g><g transform="translate(14.34)"><title>Sheet.15017</title><path d="M31.74 106.59a14.132 14.214 0 0 1-27.42 4.89 1.005 1.01-180 0 0-.95-.65H.97a1.014 1.02-180 0 0-.97 1.32 18.419 18.526-180 0 0 35.99-5.56Z" style="fill:#76bc2d;stroke:none;stroke-width:34;stroke-linecap:butt"/></g></g></g></svg>