<svg xmlns="http://www.w3.org/2000/svg" xml:space="preserve" width="56.69" height="45.356" style="font-size:12px;overflow:visible;color-interpolation-filters:sRGB;fill-rule:evenodd;stroke-linecap:square;stroke-miterlimit:3" viewBox="0 0 56.69 45.356"><defs><linearGradient id="a" x1="0" x2="43.475" y1="104.357" y2="104.357" gradientTransform="scale(1.30398 .76688)" gradientUnits="userSpaceOnUse"><stop offset="0" stop-color="#0078d4"/><stop offset=".5" stop-color="#4093e6"/><stop offset=".775" stop-color="#5ea0ef"/></linearGradient><linearGradient id="b" x1="-.008" x2="5.98" y1="44.821" y2="44.821" gradientTransform="scale(.44816 2.23132)" gradientUnits="userSpaceOnUse"><stop offset="0" stop-color="#5ea0ef"/><stop offset=".37" stop-color="#9fc6f5"/><stop offset=".8" stop-color="#e4effc"/><stop offset="1" stop-color="#fff"/></linearGradient><linearGradient id="c" x1="0" x2="5.99" y1="44.799" y2="44.799" gradientTransform="scale(.448 2.23216)" gradientUnits="userSpaceOnUse"><stop offset="0" stop-color="#fff"/><stop offset=".2" stop-color="#e4effc"/><stop offset=".63" stop-color="#9fc6f5"/><stop offset="1" stop-color="#5ea0ef"/></linearGradient></defs><g transform="translate(-34 -33.999)"><title>Page-1</title><g transform="translate(34 -34.016)"><title>Function App File.14994</title><title>MsPortalFx.base.images-27</title><title>Sheet.14996</title><path d="M0 80.03h56.69v31.46a1.894 1.885 0 0 1-1.89 1.88H1.89A1.894 1.885 0 0 1 0 111.49Z" style="fill:url(#a);stroke:none;stroke-width:34;stroke-linecap:butt"/><g transform="translate(0 -33.336)"><title>Sheet.14997</title><path d="M1.9 101.35h52.89a1.894 1.885 0 0 1 1.89 1.89v10.13H0v-10.13a1.894 1.885 0 0 1 1.9-1.89" style="fill:#0078d4;stroke:none;stroke-width:34;stroke-linecap:butt"/></g><g transform="rotate(-44.919 -.007 85.216)"><title>Sheet.14998</title><path d="M1.05 100.01h1.63v12.84a.524.521 0 0 1-.524.521L.52 113.37a.524.521 0 0 1-.524-.521L0 101.05a1.047 1.042 0 0 1 1.05-1.04" style="fill:url(#b);stroke:none;stroke-width:34;stroke-linecap:butt"/></g><g transform="translate(10.842 -15.795)"><title>Sheet.14999</title><path d="m1.46 113.37-1.15-1.15a1.047 1.042 0 0 1 0-1.47l8.54-8.48a.524.521 0 0 1 .74 0l1.15 1.15a.524.521 0 0 1 0 .737z" style="fill:#f2f2f2;stroke:none;stroke-width:34;stroke-linecap:butt"/></g><g transform="rotate(-135.081 19.145 95.104)"><title>Sheet.15000</title><path d="M.52 100h1.64a.524.521 0 0 1 .524.521L2.68 113.37H1.05A1.047 1.042 0 0 1 0 112.33v-11.81a.524.521 0 0 1 .524-.521z" style="fill:url(#c);stroke:none;stroke-width:34;stroke-linecap:butt"/></g><g transform="translate(34.276 -15.792)"><title>Sheet.15001</title><path d="m.15 103.43 1.16-1.16a.524.521 0 0 1 .74 0l8.53 8.48a1.047 1.042 0 0 1 .01 1.47l-1.15 1.15-9.28-9.2a.524.521 0 0 1-.007-.743z" style="fill:#f2f2f2;stroke:none;stroke-width:34;stroke-linecap:butt"/></g><g transform="rotate(17.752 31.782 183.97)"><title>Sheet.15002</title><path d="M0 113a.374.372-180 0 0 .374.372l1.936-.002a.374.372-180 0 0 .374-.372L2.69 88.41a.374.372-180 0 0-.374-.372L.37 88.04a.374.372-180 0 0-.374.372z" style="fill:#f2f2f2;stroke:none;stroke-width:34;stroke-linecap:butt"/></g></g></g></svg>