<svg xmlns="http://www.w3.org/2000/svg" xml:space="preserve" width="61.796" height="60.973" style="font-size:12px;overflow:visible;color-interpolation-filters:sRGB;fill-rule:evenodd;stroke-linecap:square;stroke-miterlimit:3" viewBox="0 0 61.796 60.973"><defs><linearGradient id="a" x1="-1.615" x2="59.768" y1="75.142" y2="75.142" gradientTransform="scale(1.00673 .99332)" gradientUnits="userSpaceOnUse"><stop offset="0" stop-color="#86d633"/><stop offset=".125" stop-color="#81ce31"/><stop offset="1" stop-color="#5e9624"/></linearGradient></defs><g transform="translate(-33.999 -34.004)"><title>Page-1</title><g transform="translate(35.625 -38.276)"><title>Function App CORS.15018</title><title>Sheet.15019</title><g transform="translate(0 -2.36)"><title>Sheet.15020</title><path d="M10.38 128.97a30.641 30.288 0 0 1 18.66-54.33 30.335 29.985 0 0 1 18.58 6.24 30.641 30.288 0 1 1-37.24 48.09" style="fill:url(#a);stroke:none;stroke-width:34;stroke-linecap:butt"/></g><g transform="translate(3.906 -19.148)"><title>Sheet.15021</title><path d="M38.88 94.54a30.274 29.924-180 0 0-4.72-1.87 141.689 140.054 0 0 1-24.25 25.16c-.06.06-.09.11-.15.17a43.994 43.486 0 0 1-3.8-5 .637.63-180 0 0-1.13.108A128.013 126.535-180 0 0 0 127.85a.654.646-180 0 0 .524.794 44.049 43.54-180 0 0 17.706-1.134.64.633-180 0 0 .238-1.097 80 80 0 0 1-5.568-5.063 123.498 122.073-180 0 0 25.98-26.81" style="fill:#fff;fill-opacity:.7;stroke:none;stroke-width:34;stroke-linecap:butt"/></g><g transform="translate(4.495 -15.746)"><title>Sheet.15022</title><path d="M45.53 106.48a51.842 51.243 0 0 1-4.9 4.38A52.904 52.293-180 0 0 5.57 94.37 28.817 28.484-180 0 0 0 99.95c1.25.05 2.52.13 3.79.27a47.106 46.562 0 0 1 30.4 15.3c-2.04 1.34-4.14 2.63-6.28 3.87a.637.63-180 0 0 .109 1.14 73.325 72.479 0 0 1 17.161 8.36.643.636-180 0 0 1.001-.38 72.368 71.533-180 0 0 .449-21.67.637.63-180 0 0-1.096-.36Z" style="fill:#fff;stroke:none;stroke-width:34;stroke-linecap:butt"/></g><g transform="translate(3.6)"><title>Sheet.15023</title><path d="M37.59 116.2a.68.673-180 0 0-.494-1.01c-5.446-.72-13.086-2.47-15.886-3.12a.541.535-180 0 0-.62.744c.68 1.476 2 4.226 2.79 5.496A76.46 75.578 0 0 1 0 119.48a31.445 31.082-180 0 0 4.56 5.29 87.55 86.539-180 0 0 21.07-1.97 43.157 42.659 0 0 1 2.19 5.72.654.646-180 0 0 1.14.212 127.209 125.741-180 0 0 8.63-12.532" style="fill:#fff;fill-opacity:.7;stroke:none;stroke-width:34;stroke-linecap:butt"/></g></g></g></svg>