<svg xmlns="http://www.w3.org/2000/svg" xml:space="preserve" width="55.293" height="39.403" style="font-size:12px;overflow:visible;color-interpolation-filters:sRGB;fill-rule:evenodd;stroke-linecap:square;stroke-miterlimit:3" viewBox="0 0 55.293 39.403"><defs><linearGradient id="a" x1="-.006" x2="9.585" y1="38.887" y2="38.887" gradientTransform="scale(.4507 2.21873)" gradientUnits="userSpaceOnUse"><stop offset="0" stop-color="#0078d4"/><stop offset=".325" stop-color="#1b84dc"/><stop offset="1" stop-color="#5ea0ef"/></linearGradient><linearGradient id="b" x1="0" x2="9.591" y1="38.887" y2="38.887" gradientTransform="scale(.4507 2.21873)" gradientUnits="userSpaceOnUse"><stop offset="0" stop-color="#0078d4"/><stop offset=".325" stop-color="#1b84dc"/><stop offset="1" stop-color="#5ea0ef"/></linearGradient><linearGradient id="c" x1="-.001" x2="13.211" y1="22.042" y2="22.042" gradientTransform="scale(.32776 3.051)" gradientUnits="userSpaceOnUse"><stop offset="0" stop-color="#0078d4"/><stop offset=".325" stop-color="#1b84dc"/><stop offset="1" stop-color="#5ea0ef"/></linearGradient></defs><g transform="translate(-33.998 -34)"><title>Page-1</title><g transform="translate(33.316 -34.016)"><title>Function App Service Editor.14957</title><title>Sheet.14958</title><g transform="rotate(-44.919 2.402 87.088)"><title>Sheet.14959</title><path d="M1.69 86.28h2.63v20.45a.843.829 0 0 1-.843.829l-2.637.001a.843.829 0 0 1-.843-.829L0 87.93a1.686 1.657 0 0 1 1.69-1.65" style="fill:url(#a);stroke:none;stroke-width:34;stroke-linecap:butt"/></g><g transform="translate(.684 -16.366)"><title>Sheet.14960</title><path d="m2.35 107.55-1.86-1.83a1.686 1.657 0 0 1 0-2.34l13.76-13.49a.843.829 0 0 1 1.191 0l1.869 1.84a.843.829 0 0 1 0 1.171L2.35 107.56Z" style="fill:#50e6ff;stroke:none;stroke-width:34;stroke-linecap:butt"/></g><g transform="rotate(-135.081 24.283 86.193)"><title>Sheet.14961</title><path d="M.84 86.28h2.64a.843.829 0 0 1 .843.829L4.32 107.56H1.69A1.686 1.657 0 0 1 0 105.9V87.11a.843.829 0 0 1 .843-.829z" style="fill:url(#b);stroke:none;stroke-width:34;stroke-linecap:butt"/></g><g transform="translate(38.444 -16.354)"><title>Sheet.14962</title><path d="m.24 91.73 1.86-1.84a.843.829 0 0 1 1.191 0l13.749 13.49a1.686 1.657 0 0 1 0 2.34l-1.85 1.84L.25 92.91a.843.829 0 0 1 0-1.174z" style="fill:#50e6ff;stroke:none;stroke-width:34;stroke-linecap:butt"/></g><g transform="rotate(17.752 14.383 172.19)"><title>Sheet.14963</title><path d="M0 106.97a.6.59-180 0 0 .6.59h3.13a.6.59-180 0 0 .6-.59V67.84a.6.59-180 0 0-.6-.59H.6a.6.59-180 0 0-.6.59z" style="fill:url(#c);stroke:none;stroke-width:34;stroke-linecap:butt"/></g></g></g></svg>