<svg xmlns="http://www.w3.org/2000/svg" xml:space="preserve" width="56.696" height="56.69" style="font-size:12px;overflow:visible;color-interpolation-filters:sRGB;fill-rule:evenodd;stroke-linecap:square;stroke-miterlimit:3" viewBox="0 0 56.696 56.69"><g transform="translate(-12.24 -12.244)"><title>Page-1</title><g transform="translate(12.24 -34.016)"><title>Function App Properties.14977</title><title>Sheet.14978</title><title>Sheet.14979</title><path d="M33.33 100.07a2.88 2.878 0 0 1-2.88 2.88H2.88A2.88 2.878 0 0 1 0 100.07V49.13a2.88 2.878 0 0 1 2.88-2.87h27.57a2.88 2.878 0 0 1 2.88 2.87z" style="fill:#a0a1a2;stroke:none;stroke-width:12.23999977;stroke-linecap:butt"/><g transform="translate(4.899 -22.433)"><title>Sheet.14980</title><path d="M0 99.33a3.622 3.618 0 0 1 3.62-3.62h16.59a3.624 3.62 0 0 1 0 7.24H3.62A3.62 3.617 0 0 1 0 99.33" style="fill:#1e1e1e;stroke:none;stroke-width:12.23999977;stroke-linecap:butt"/></g><g transform="translate(6.244 -23.623)"><title>Sheet.14981</title><ellipse cx="2.431" cy="100.52" rx="2.431" ry="2.429" style="fill:#59b4d9;stroke:none;stroke-width:12.23999977;stroke-linecap:butt"/></g><g transform="translate(4.899 -33.181)"><title>Sheet.14982</title><path d="M0 99.33a3.622 3.618 0 0 1 3.62-3.62h16.59a3.624 3.62 0 0 1 0 7.24H3.62A3.622 3.618 0 0 1 0 99.33" style="fill:#1e1e1e;stroke:none;stroke-width:12.23999977;stroke-linecap:butt"/></g><g transform="translate(6.244 -34.37)"><title>Sheet.14983</title><ellipse cx="2.431" cy="100.52" rx="2.431" ry="2.429" style="fill:#59b4d9;stroke:none;stroke-width:12.23999977;stroke-linecap:butt"/></g><g transform="translate(4.899 -43.93)"><title>Sheet.14984</title><path d="M0 99.33a3.622 3.618 0 0 1 3.62-3.62h16.59a3.624 3.62 0 0 1 0 7.24H3.62A3.62 3.617 0 0 1 0 99.33" style="fill:#1e1e1e;stroke:none;stroke-width:12.23999977;stroke-linecap:butt"/></g><g transform="translate(6.244 -45.12)"><title>Sheet.14985</title><ellipse cx="2.431" cy="100.52" rx="2.431" ry="2.429" style="fill:#59b4d9;stroke:none;stroke-width:12.23999977;stroke-linecap:butt"/></g><g transform="translate(11.726)"><title>Sheet.14986</title><path d="M44.97 97.7c0-2.89-2.33-5.24-5.21-5.24-.21 0-.43.01-.63.04.32-1.18.49-2.41.49-3.7 0-7.72-6.21-13.98-13.88-13.98-6.12 0-11.31 4-13.16 9.54a9.314 9.304-180 0 0-3.09-.53C4.24 83.83 0 88.11 0 93.39s4.24 9.56 9.49 9.56h30.7l-.01-.03c2.68-.21 4.79-2.46 4.79-5.22" style="fill:#b8d432;stroke:none;stroke-width:12.23999977;stroke-linecap:butt"/></g><g transform="translate(11.725)"><title>Sheet.14987</title><path d="M14.53 102.95a9.587 9.578 0 0 1-2.6-4.68c-1.18-5.14 2-10.26 7.11-11.42a9.315 9.306 0 0 1 3.14-.17c.47-4.81 3.4-9.09 7.78-11.2a13.753 13.739-180 0 0-4.22-.66c-6.12 0-11.31 4-13.16 9.54a9.308 9.299-180 0 0-3.09-.53C4.24 83.83 0 88.11 0 93.39s4.24 9.56 9.49 9.56l.01-.01v.01z" style="fill:#fff;fill-opacity:.2;stroke:none;stroke-width:12.23999977;stroke-linecap:butt"/></g></g></g></svg>