<svg xmlns="http://www.w3.org/2000/svg" xml:space="preserve" width="56.693" height="56.693" style="font-size:12px;overflow:visible;color-interpolation-filters:sRGB;fill-rule:evenodd;stroke-linecap:square;stroke-miterlimit:3" viewBox="0 0 56.693 56.693"><g transform="translate(-12.24 -12.24)"><title>Page-1</title><g transform="translate(12.24 -34.016)"><title>Integration Service Environment.14941</title><title>Sheet.14942</title><title>Sheet.14943</title><circle cx="28.346" cy="74.602" r="28.346" style="fill:#0072c6;stroke:none;stroke-width:12.23999977;stroke-linecap:butt"/><g transform="translate(3.44 -3.44)"><title>Sheet.14944</title><circle cx="24.907" cy="78.042" r="24.907" style="fill:#fff;fill-opacity:.8;stroke:none;stroke-width:12.23999977;stroke-linecap:butt"/></g><g transform="translate(15.3 -18.384)"><title>Sheet.14945</title><path d="M14.11 87.53V81.6h-2.96v5.93c0 1.07-.95 2.02-2.49 2.49l-4.03.83C1.9 91.68 0 93.82 0 96.19v6.76h2.97v-6.76c0-1.07.94-2.02 2.49-2.49l4.03-.95c2.73-.71 4.62-2.85 4.62-5.22" style="fill:#3999c6;stroke:none;stroke-width:12.23999977;stroke-linecap:butt"/></g><g transform="translate(27.279 -18.384)"><title>Sheet.14946</title><path d="M0 87.53V81.6h2.97v5.93c0 1.07.94 2.02 2.49 2.49l4.03.83c2.73.83 4.62 2.97 4.62 5.34v6.76h-2.96v-6.76c0-1.07-.95-2.02-2.49-2.49l-4.03-.95C1.9 92.04 0 89.9 0 87.53" style="fill:#3999c6;stroke:none;stroke-width:12.23999977;stroke-linecap:butt"/></g><g transform="translate(11.742 -12.69)"><title>Sheet.14947</title><path d="M10.2 100.34v-5.46c0-1.3-1.07-2.37-2.37-2.37H2.37c-1.3 0-2.37 1.07-2.37 2.37v5.46c0 1.3 1.07 2.37 2.37 2.37h5.46c1.3 0 2.37-1.07 2.37-2.37m12.81.24v-5.46c0-1.3 1.07-2.37 2.37-2.37h5.46c1.3 0 2.37 1.07 2.37 2.37v5.46c0 1.3-1.07 2.37-2.37 2.37h-5.46c-1.3 0-2.37-1.07-2.37-2.37" style="fill:#57a300;stroke:none;stroke-width:12.23999977;stroke-linecap:butt"/></g><g transform="translate(22.416 -36.649)"><title>Sheet.14948</title><path d="M8.29 94.66v4.72H3.57v-4.72Zm1.02-3.57H2.55A2.56 2.56 0 0 0 0 93.64v6.76c0 1.4 1.15 2.55 2.55 2.55h6.76c1.4 0 2.55-1.15 2.55-2.55v-6.76c0-1.4-1.15-2.55-2.55-2.55" style="fill:#804998;stroke:none;stroke-width:12.23999977;stroke-linecap:butt"/></g><g transform="translate(25.974 -40.207)"><title>Sheet.14949</title><path d="M0 98.204h4.744v4.744H0z" style="fill:#fff;stroke:none;stroke-width:12.23999977;stroke-linecap:butt"/></g></g></g></svg>