<svg xmlns="http://www.w3.org/2000/svg" xml:space="preserve" width="56.69" height="45.35" style="font-size:12px;overflow:visible;color-interpolation-filters:sRGB;fill-rule:evenodd;stroke-linecap:square;stroke-miterlimit:3" viewBox="0 0 56.69 45.35"><g transform="translate(-12.75 -12.754)"><title>Page-1</title><g transform="translate(12.75 -34.016)"><title>LiveData Plane.14935</title><title>Sheet.14936</title><g transform="translate(5.742 -11.702)"><title>Sheet.14937</title><g transform="translate(30.125)"><title>Sheet.14938</title><path d="M3.59 70.44 0 74.16l5.27 5.42 1.75 1.7-1.75 1.7L0 88.4l3.59 3.72 10.69-10.84Z" style="fill:#ea7600;stroke:none;stroke-width:12.75;stroke-linecap:butt"/></g><g transform="translate(0 -.082)"><title>Sheet.14939</title><path d="M33.23 81.39 22.35 70.65l-5.74 5.67-5.73-5.66L0 81.39l10.88 10.73 5.74-5.66 5.74 5.66z" style="fill:#ea7600;stroke:none;stroke-width:12.75;stroke-linecap:butt"/></g></g><title>Sheet.14940</title><path d="M8.01 46.77 0 54.74v29.41l8.01 7.97 3.2-4.07-6.98-6.96V57.4l6.98-6.96zm40.68 0 8 7.97v29.41l-8 7.97-3.21-4.07 6.99-6.96V57.4l-6.99-6.96z" style="fill:#757676;stroke:none;stroke-width:12.75;stroke-linecap:butt"/></g></g></svg>