<svg xmlns="http://www.w3.org/2000/svg" xmlns:xlink="http://www.w3.org/1999/xlink" xml:space="preserve" width="56.687" height="56.692" style="font-size:12px;overflow:visible;color-interpolation-filters:sRGB;fill-rule:evenodd;stroke-linecap:square;stroke-miterlimit:3" viewBox="0 0 56.687 56.692"><defs><linearGradient id="b" x1=".002" x2="26.218" y1="104.656" y2="104.656" gradientTransform="scale(1.00076 .99924)" gradientUnits="userSpaceOnUse"><stop offset="0" stop-color="#008bf1"/><stop offset="1" stop-color="#004dae"/></linearGradient><linearGradient id="a" x1="0" x2="1" y1="0" y2="0" gradientTransform="rotate(90 .5 .5)"><stop offset="0" stop-color="#76bc2d"/><stop offset="1" stop-color="#5e9624"/></linearGradient><linearGradient xlink:href="#a" id="c" x1="0" x2="18.855" y1="111.891" y2="111.891" gradientTransform="scale(.99974 1.00026)" gradientUnits="userSpaceOnUse"/><linearGradient xlink:href="#a" id="d" x1="0" x2="18.835" y1="112.049" y2="112.049" gradientTransform="scale(1.0008 .9992)" gradientUnits="userSpaceOnUse"/></defs><g transform="translate(-37.044 -37.039)"><title>Page-1</title><g transform="translate(37.042 -37.042)"><title>Logic App Custom Connecton.14930</title><g transform="translate(11.508 -11.473)"><title>polygon21</title><path d="M29.56 130.78v-3.72H3.72v-22.65H0v26.37z" style="fill:#949494;stroke:none;stroke-width:37.04199982;stroke-linecap:butt"/></g><title>bcfff480-0908-4673-8dd3-211accb</title><path d="M11.76 105.13.56 116.4a1.95 1.95-180 0 0 0 2.73l11.2 11.09a1.95 1.95-180 0 0 2.72 0l11.2-11.2a1.95 1.95-180 0 0 0-2.73l-11.2-11.16a1.95 1.95-180 0 0-2.72 0" style="fill:url(#b);stroke:none;stroke-width:37.04199982;stroke-linecap:butt"/><g transform="translate(3.924 -37.84)"><title>a2e9ce98-ac6d-463e-9773-5eed323</title><path d="M18.85 128.86v-15.02a1.914 1.914-180 0 0-1.73-1.92H1.91A1.914 1.914-180 0 0 0 113.84v15.02a1.914 1.914-180 0 0 1.91 1.92h15.21a1.914 1.914-180 0 0 1.73-1.92" style="fill:url(#c);stroke:none;stroke-width:37.04199982;stroke-linecap:butt"/></g><g transform="translate(37.84 -3.924)"><title>abb7af69-4e26-4379-92b2-a9fedde</title><path d="M0 113.87v14.99a1.914 1.914-180 0 0 1.91 1.92h15.03a1.914 1.914-180 0 0 1.91-1.92v-14.99a1.914 1.914-180 0 0-1.91-1.91H1.91A1.914 1.914-180 0 0 0 113.87" style="fill:url(#d);stroke:none;stroke-width:37.04199982;stroke-linecap:butt"/></g></g></g></svg>