<svg xmlns="http://www.w3.org/2000/svg" xml:space="preserve" width="56.665" height="56.712" style="font-size:12px;overflow:visible;color-interpolation-filters:sRGB;fill-rule:evenodd;stroke-linecap:square;stroke-miterlimit:3" viewBox="0 0 56.665 56.712"><defs><linearGradient id="a" x1="0" x2="21.225" y1="99.137" y2="99.137" gradientTransform="scale(1.00118 .99882)" gradientUnits="userSpaceOnUse"><stop offset="0" stop-color="#9cebff"/><stop offset="1" stop-color="#50e6ff"/></linearGradient><linearGradient id="b" x1="0" x2="21.225" y1="99.137" y2="99.137" gradientTransform="scale(1.00118 .99882)" gradientUnits="userSpaceOnUse"><stop offset="0" stop-color="#b4ec36"/><stop offset="1" stop-color="#86d633"/></linearGradient><linearGradient id="c" x1="0" x2="21.225" y1="99.137" y2="99.137" gradientTransform="scale(1.00118 .99882)" gradientUnits="userSpaceOnUse"><stop offset="0" stop-color="#b4ec36"/><stop offset="1" stop-color="#86d633"/></linearGradient></defs><g transform="translate(-29.51 -29.515)"><title>Page-1</title><g transform="translate(29.51 -34.016)"><title>Logic App.14924</title><title>layer1</title><g transform="translate(9.288 -17.08)"><title>path2</title><path d="M34.34 109.1h-9.18a4.78 4.77 0 0 1-4.78-4.77V94.28h-2.65v10.05a4.78 4.77 0 0 1-4.78 4.77H3.78A3.78 3.771-180 0 0 0 112.87v7.35h2.65v-7.36a1.118 1.116 0 0 1 1.12-1.11h9.18a7.41 7.395-180 0 0 5.48-2.41.876.874 0 0 1 1.285 0 7.41 7.395-180 0 0 5.465 2.41h9.17a1.115 1.112 0 0 1 1.12 1.11v7.35h2.64v-7.35a3.78 3.771-180 0 0-3.78-3.76z" style="fill:#0078d4;stroke:none;stroke-width:29.50979996;stroke-linecap:butt"/></g><g transform="translate(17.719 -35.49)"><title>rect4</title><path d="M0 118.32a1.902 1.898-180 0 0 1.9 1.9h17.45a1.902 1.898-180 0 0 1.9-1.9v-17.41a1.902 1.898-180 0 0-1.9-1.89H1.9a1.902 1.898-180 0 0-1.9 1.89Z" style="fill:url(#a);stroke:none;stroke-width:29.50979996;stroke-linecap:butt"/></g><title>rect6</title><path d="M0 118.32a1.902 1.898-180 0 0 1.9 1.9h17.45a1.902 1.898-180 0 0 1.9-1.9v-17.41a1.902 1.898-180 0 0-1.9-1.89H1.9a1.902 1.898-180 0 0-1.9 1.89Z" style="fill:url(#b);stroke:none;stroke-width:29.50979996;stroke-linecap:butt"/><g transform="rotate(90 28.346 127.339)"><title>rect8</title><path d="M0 118.32a1.902 1.898-180 0 0 1.9 1.9h17.45a1.902 1.898-180 0 0 1.9-1.9v-17.41a1.902 1.898-180 0 0-1.9-1.89H1.9a1.902 1.898-180 0 0-1.9 1.89Z" style="fill:url(#c);stroke:none;stroke-width:29.50979996;stroke-linecap:butt"/></g></g></g></svg>