<svg xmlns="http://www.w3.org/2000/svg" xml:space="preserve" width="52.138" height="45.266" style="font-size:12px;overflow:visible;color-interpolation-filters:sRGB;fill-rule:evenodd;stroke-linecap:square;stroke-miterlimit:3" viewBox="0 0 52.138 45.266"><g transform="translate(-12.241 -12.236)"><title>Page-1</title><g transform="translate(10.895 -34.016)"><title>Managed Application Center.14916</title><title>g16</title><g transform="translate(28.413 -2.925)"><title>path4</title><path d="M.25 82.23c.05 0 .09-.01.13-.03l8.46-4.62a.24.237-180 0 0 .13-.21l.01-9.27a.248.245-180 0 0-.13-.213.275.271-180 0 0-.26 0L.13 72.51a.247.244-180 0 0-.126.212L0 81.99c0 .09.05.17.13.21q.06.03.12.03m0 12.21c.05 0 .09-.01.13-.03l8.46-4.62a.24.237-180 0 0 .13-.21l.01-9.27a.248.245-180 0 0-.13-.213.275.271-180 0 0-.26 0L.13 84.72a.247.244-180 0 0-.126.212L0 94.2c0 .09.05.17.13.21q.06.03.12.03m10.97-18.31c.05 0 .09-.01.13-.03l8.46-4.62a.24.236-180 0 0 .13-.21V62a.248.245-180 0 0-.13-.213.275.271-180 0 0-.26 0L11.09 66.4a.247.244-180 0 0-.126.212l.006 9.278c0 .09.05.16.12.21a.263.26-180 0 0 .128.032zm0 12.21c.05 0 .09-.01.13-.03l8.46-4.62a.239.235-180 0 0 .13-.21v-9.27a.248.245-180 0 0-.13-.213.275.271-180 0 0-.26 0l-8.46 4.613a.247.244-180 0 0-.126.212l.006 9.278c0 .09.05.16.12.21a.263.26-180 0 0 .128.032z" style="fill:#3999c6;stroke:none;stroke-width:12.23999977;stroke-linecap:butt"/></g><g transform="translate(28.413 -2.925)"><title>path6</title><path d="M.25 94.44c.05 0 .09-.01.13-.03l8.46-4.62a.24.237-180 0 0 .13-.21l.01-9.27a.248.245-180 0 0-.13-.213.275.271-180 0 0-.26 0L.13 84.72a.247.244-180 0 0-.126.212L0 94.2c0 .09.05.17.13.21q.06.03.12.03m10.97-6.1c.05 0 .09-.01.13-.03l8.46-4.62a.239.235-180 0 0 .13-.21v-9.27a.248.245-180 0 0-.13-.213.275.271-180 0 0-.26 0l-8.46 4.613a.247.244-180 0 0-.126.212l.006 9.278c0 .09.05.16.12.21a.263.26-180 0 0 .128.032zM.25 82.23c.05 0 .09-.01.13-.03l8.46-4.62a.24.237-180 0 0 .13-.21l.01-9.27a.248.245-180 0 0-.13-.213.275.271-180 0 0-.26 0L.13 72.51a.247.244-180 0 0-.126.212L0 81.99c0 .09.05.17.13.21q.06.03.12.03m10.97-6.1c.05 0 .09-.01.13-.03l8.46-4.62a.24.236-180 0 0 .13-.21V62a.248.245-180 0 0-.13-.213.275.271-180 0 0-.26 0L11.09 66.4a.247.244-180 0 0-.126.212l.006 9.278c0 .09.05.16.12.21a.263.26-180 0 0 .128.032z" style="fill:#62117a;fill-opacity:.15;stroke:none;stroke-width:12.23999977;stroke-linecap:butt"/></g><g transform="translate(6.475 -2.925)"><title>path8</title><path d="M19.69 82.23a.27.265 0 0 1-.13-.032L11.1 77.58a.24.237 0 0 1-.13-.21V68.1c0-.09.05-.17.13-.21a.275.271 0 0 1 .259 0l8.461 4.62c.08.04.12.12.12.21v9.27a.245.242 0 0 1-.126.21.268.264 0 0 1-.126.033zm0 12.21a.27.265 0 0 1-.13-.032L11.1 89.79a.24.237 0 0 1-.13-.21v-9.27c0-.09.05-.17.13-.21a.275.271 0 0 1 .259 0l8.461 4.62c.08.04.12.12.12.21v9.27a.245.242 0 0 1-.126.21.268.264 0 0 1-.126.033zM8.72 76.13a.27.265 0 0 1-.13-.032L.13 71.48a.24.236 0 0 1-.13-.21V62c0-.09.05-.17.13-.22a.275.271 0 0 1 .259 0L8.85 66.4c.08.05.13.13.13.21v9.28a.245.242 0 0 1-.126.21.263.26 0 0 1-.127.033zm0 12.21a.27.265 0 0 1-.13-.032L.13 83.69a.239.235 0 0 1-.13-.21v-9.27c0-.09.05-.17.13-.22a.275.271 0 0 1 .259 0l8.461 4.62c.08.05.13.13.13.21v9.28a.245.242 0 0 1-.126.21.263.26 0 0 1-.127.033zm3.68-23.02a.248.245 0 0 1 .094-.088L20.9 60.73a.262.258 0 0 1 .254-.002l8.326 4.462a.237.233 0 0 1 .125.206.251.248 0 0 1-.13.206L21.07 70.11a.268.264 0 0 1-.253-.002L12.49 65.64a.232.23 0 0 1-.126-.201.245.242 0 0 1 .036-.117zM1.43 59.44a.245.242 0 0 1 .093-.088L9.84 54.85a.258.254 0 0 1 .252-.002l8.238 4.462a.236.232 0 0 1 .124.206.25.246 0 0 1-.13.206L10.01 64.23a.262.258 0 0 1-.25-.002L1.52 59.76a.236.232 0 0 1-.125-.201.235.231 0 0 1 .036-.117zm22.16.1a.245.242 0 0 1 .093-.088L32 54.95a.258.254 0 0 1 .252-.002l8.228 4.462a.236.232 0 0 1 .124.206.25.246 0 0 1-.13.206L32.16 64.32a.262.258 0 0 1-.25-.002l-8.23-4.458a.236.232 0 0 1-.125-.201.239.235 0 0 1 .036-.117zm-11.15-5.81a.253.25 0 0 1 .094-.087l8.406-4.433a.265.261 0 0 1 .254-.002l8.326 4.402a.23.227 0 0 1 .125.202.247.244 0 0 1-.13.203L21.11 58.44a.274.27 0 0 1-.253-.002L12.53 54.04a.228.225 0 0 1-.126-.198.24.237 0 0 1 .036-.115z" style="fill:#59b4d9;stroke:none;stroke-width:12.23999977;stroke-linecap:butt"/></g><g transform="translate(7.874 -27.231)"><title>path10</title><path d="M11 89.63a.248.245 0 0 1 .094-.088L19.5 85.03a.262.258 0 0 1 .254-.002L28.08 89.5a.237.233 0 0 1 .125.206.251.248 0 0 1-.13.206L19.67 94.41a.268.264 0 0 1-.253-.002L11.09 89.94a.232.23 0 0 1-.126-.201.245.242 0 0 1 .036-.117zM.04 83.74a.245.242 0 0 1 .093-.088L8.44 79.15a.258.254 0 0 1 .252-.002l8.238 4.472a.236.232 0 0 1 .124.206.25.246 0 0 1-.13.206L8.61 88.53a.262.258 0 0 1-.25-.002L.12 84.06a.236.232 0 0 1-.125-.201.235.231 0 0 1 .036-.117zm22.15.1a.245.242 0 0 1 .093-.088L30.6 79.25a.258.254 0 0 1 .252-.002l8.228 4.472a.236.232 0 0 1 .124.206.25.246 0 0 1-.13.206L30.76 88.63a.262.258 0 0 1-.25-.002l-8.23-4.468a.236.232 0 0 1-.125-.201.239.235 0 0 1 .036-.117zm-11.15-5.8a.253.25 0 0 1 .094-.087l8.406-4.433a.265.261 0 0 1 .254-.002l8.326 4.392a.23.227 0 0 1 .125.202.247.244 0 0 1-.13.203L19.71 82.75a.274.27 0 0 1-.253-.002L11.13 78.35a.228.225 0 0 1-.126-.198.24.237 0 0 1 .036-.115z" style="fill:#fff;fill-opacity:.2;stroke:none;stroke-width:12.23999977;stroke-linecap:butt"/></g><g transform="translate(15.08 -4.788)"><title>path12</title><path d="M33.28 63.86c0-.1-.08-.16-.11-.19l-.13-.11c-1.8 4.69-6.62 11.47-15.13 17.81C11.06 86.48 4.74 89.16 0 90.23l7.64 4.21c4.44-1.81 9.1-4.46 13.56-7.79 4.92-3.67 9.02-7.69 12.08-11.65z" style="fill:#fff;fill-opacity:.4;stroke:none;stroke-width:12.23999977;stroke-linecap:butt"/></g><title>path14</title><path d="M52.14 51.41c-2.71-3.68-9.04-4.02-16.6-1.55l3.79 2.01c5.07-1.22 8.78-.74 10.04.97 2.48 3.38-2.41 14.63-15.75 24.57-13.33 9.93-25.45 11.36-27.94 7.98-.9-1.23-.82-3.5.27-6.36v-7.05C1.48 78.48 0 84.61 2.69 88.26c4.55 6.18 19.31 2.95 32.96-7.23 13.66-10.17 21.04-23.44 16.49-29.62" style="fill:#804998;stroke:none;stroke-width:12.23999977;stroke-linecap:butt"/></g></g></svg>