<svg xmlns="http://www.w3.org/2000/svg" xml:space="preserve" width="53.355" height="56.69" style="font-size:12px;overflow:visible;color-interpolation-filters:sRGB;fill-rule:evenodd;stroke-linecap:square;stroke-miterlimit:3" viewBox="0 0 53.355 56.69"><g transform="translate(-12.237 -12.244)"><title>Page-1</title><g transform="translate(12.24 -34.016)"><title>Managed Application.14906</title><title>Sheet.14907</title><g transform="translate(31.732 -6.823)"><title>Sheet.14908</title><path d="M.27 89.5c.05 0 .1-.02.15-.04l9.17-5.09a.261.262-180 0 0 .142-.232L9.73 73.92a.269.27-180 0 0-.142-.234.299.3-180 0 0-.28 0L.14 78.78a.27.27-180 0 0-.136.233L0 89.23c0 .1.05.18.14.23.04.02.09.04.13.04m0 13.45c.05 0 .1-.01.15-.04l9.17-5.09a.261.262-180 0 0 .142-.232L9.73 87.38a.269.27-180 0 0-.142-.234.299.3-180 0 0-.28 0L.14 92.23a.27.27-180 0 0-.136.233L0 102.68c0 .1.05.18.14.23.04.03.09.04.13.04m11.9-20.18c.05 0 .09-.01.14-.04l9.17-5.09a.26.26-180 0 0 .14-.232V67.2a.269.27-180 0 0-.142-.234.299.3-180 0 0-.28 0L12.03 72.05a.27.27-180 0 0-.136.233L11.89 82.5c0 .1.05.19.14.23a.3.3-180 0 0 .138.035zm0 13.45c.05 0 .09-.01.14-.03l9.17-5.09a.259.26-180 0 0 .14-.232V80.65a.269.27-180 0 0-.142-.234.299.3-180 0 0-.28 0L12.03 85.51a.27.27-180 0 0-.136.233L11.89 95.95c0 .1.05.19.14.24a.3.3-180 0 0 .138.035z" style="fill:#3999c6;stroke:none;stroke-width:12.23999977;stroke-linecap:butt"/></g><g transform="translate(31.732 -6.823)"><title>Sheet.14909</title><path d="M.27 102.95c.05 0 .1-.01.15-.04l9.17-5.09a.261.262-180 0 0 .142-.232L9.73 87.38a.269.27-180 0 0-.142-.234.299.3-180 0 0-.28 0L.14 92.23a.27.27-180 0 0-.136.233L0 102.68c0 .1.05.18.14.23.04.03.09.04.13.04m11.9-6.73c.05 0 .09-.01.14-.03l9.17-5.09a.259.26-180 0 0 .14-.232V80.65a.269.27-180 0 0-.142-.234.299.3-180 0 0-.28 0L12.03 85.51a.27.27-180 0 0-.136.233L11.89 95.95c0 .1.05.19.14.24a.3.3-180 0 0 .138.035zM.27 89.5c.05 0 .1-.02.15-.04l9.17-5.09a.261.262-180 0 0 .142-.232L9.73 73.92a.269.27-180 0 0-.142-.234.299.3-180 0 0-.28 0L.14 78.78a.27.27-180 0 0-.136.233L0 89.23c0 .1.05.18.14.23.04.02.09.04.13.04m11.9-6.73c.05 0 .09-.01.14-.04l9.17-5.09a.26.26-180 0 0 .14-.232V67.2a.269.27-180 0 0-.142-.234.299.3-180 0 0-.28 0L12.03 72.05a.27.27-180 0 0-.136.233L11.89 82.5c0 .1.05.19.14.23a.3.3-180 0 0 .138.035z" style="fill:#62117a;fill-opacity:.15;stroke:none;stroke-width:12.23999977;stroke-linecap:butt"/></g><g transform="translate(7.946 -6.823)"><title>Sheet.14910</title><path d="M21.35 89.5a.3.3 0 0 1-.142-.035L12.03 84.37a.261.262 0 0 1-.142-.232l.002-10.218c0-.09.05-.18.14-.23a.299.3 0 0 1 .28 0l9.18 5.09c.08.05.13.14.13.23v10.22a.27.27 0 0 1-.136.232.29.291 0 0 1-.138.035zm0 13.45a.3.3 0 0 1-.142-.035L12.03 97.82a.261.262 0 0 1-.142-.232l.002-10.208c0-.1.05-.19.14-.24a.299.3 0 0 1 .28 0l9.18 5.09c.08.05.13.14.13.24v10.21a.27.27 0 0 1-.136.232.29.291 0 0 1-.138.035zM9.46 82.77a.3.3 0 0 1-.142-.035L.14 77.64a.26.26 0 0 1-.14-.232V67.2c0-.1.05-.19.14-.24a.299.3 0 0 1 .28 0l9.17 5.09c.09.05.14.14.14.24V82.5a.27.27 0 0 1-.136.232.3.3 0 0 1-.139.035zm0 13.45a.3.3 0 0 1-.142-.035L.14 91.1a.259.26 0 0 1-.14-.232V80.65c0-.1.05-.18.14-.23a.299.3 0 0 1 .28 0l9.17 5.09c.09.04.14.13.14.23v10.21a.27.27 0 0 1-.136.232.3.3 0 0 1-.139.035zm3.98-25.36a.269.27 0 0 1 .102-.097L22.66 65.8a.28.28 0 0 1 .276-.002l9.024 4.922a.26.26 0 0 1 .135.227.272.273 0 0 1-.14.227L22.84 76.14a.29.291 0 0 1-.275-.002L13.54 71.21a.25.25 0 0 1-.136-.222.3.3 0 0 1 .038-.128zM1.56 64.38a.3.3 0 0 1 .101-.097l9.009-4.963a.28.28 0 0 1 .274-.002l8.926 4.922a.255.256 0 0 1 .134.227.27.27 0 0 1-.14.227L10.85 69.65a.28.28 0 0 1-.271-.002L1.65 64.73a.255.256 0 0 1-.135-.222.254.255 0 0 1 .039-.128Zm24.02.11a.3.3 0 0 1 .101-.097l9.009-4.963a.28.28 0 0 1 .274-.002l8.926 4.922a.255.256 0 0 1 .134.227.27.27 0 0 1-.14.227L34.87 69.76a.28.28 0 0 1-.271-.002L25.67 64.84a.255.256 0 0 1-.135-.222.259.26 0 0 1 .039-.128zm-12.09-6.4a.3.3 0 0 1 .102-.096L22.7 53.12a.287.288 0 0 1 .276-.002l9.034 4.832a.25.25 0 0 1 .135.223.27.27 0 0 1-.14.223L22.88 63.28a.297.298 0 0 1-.275-.002L13.58 58.44a.247.248 0 0 1-.136-.218.261.262 0 0 1 .038-.127z" style="fill:#59b4d9;stroke:none;stroke-width:12.23999977;stroke-linecap:butt"/></g><g transform="translate(7.946 -6.823)"><title>Sheet.14911</title><path d="M13.44 70.86a.269.27 0 0 1 .102-.097L22.66 65.8a.28.28 0 0 1 .276-.002l9.024 4.922a.26.26 0 0 1 .135.227.272.273 0 0 1-.14.227L22.84 76.14a.29.291 0 0 1-.275-.002L13.54 71.21a.25.25 0 0 1-.136-.222.3.3 0 0 1 .038-.128zM1.56 64.38a.3.3 0 0 1 .101-.097l9.009-4.963a.28.28 0 0 1 .274-.002l8.926 4.922a.255.256 0 0 1 .134.227.27.27 0 0 1-.14.227L10.85 69.65a.28.28 0 0 1-.271-.002L1.65 64.73a.255.256 0 0 1-.135-.222.254.255 0 0 1 .039-.128Zm24.02.11a.3.3 0 0 1 .101-.097l9.009-4.963a.28.28 0 0 1 .274-.002l8.926 4.922a.255.256 0 0 1 .134.227.27.27 0 0 1-.14.227L34.87 69.76a.28.28 0 0 1-.271-.002L25.67 64.84a.255.256 0 0 1-.135-.222.259.26 0 0 1 .039-.128zm-12.09-6.4a.3.3 0 0 1 .102-.096L22.7 53.12a.287.288 0 0 1 .276-.002l9.034 4.832a.25.25 0 0 1 .135.223.27.27 0 0 1-.14.223L22.88 63.28a.297.298 0 0 1-.275-.002L13.58 58.44a.247.248 0 0 1-.136-.218.261.262 0 0 1 .038-.127zM.14 91.1l9.18 5.09a.29.291-180 0 0 .28 0 .27.27-180 0 0 .135-.232L9.73 88.26a8.328 8.343-180 0 0-1.22-.1c-2.49 0-4.35.41-5.84.73-1.05.23-1.88.41-2.67.41v1.56c0 .1.05.19.14.24m21.21 11.85c.04 0 .09-.01.14-.04a.27.27-180 0 0 .136-.232l-.006-8.208c-.86.02-1.77.03-2.56.03-1.06 0-1.5-.03-1.69-.05-.26-.19-.78-.91-1.13-1.4-.9-1.26-2.22-3.11-4.35-4.13v8.67c0 .1.05.19.14.23l9.18 5.09c.04.03.09.04.14.04m12.16-5.36V96.5c-1.09.47-2.3.99-3.46 1.48-.42-3.37-3.85-3.51-5-3.56a11.363 11.384-180 0 0-.49-.01c-.22 0-.48.01-.77.01v8.26c0 .1.05.18.13.23a.29.29-180 0 0 .28.001l9.17-5.091a.26.26-180 0 0 .14-.232zm3.45-2.63c-.3.15-.75.35-1.28.59v.41c0 .09.05.18.13.23a.29.29-180 0 0 .28 0l3.75-2.08a9.119 9.135-180 0 0-2.88.85" style="fill:#fff;fill-opacity:.2;stroke:none;stroke-width:12.23999977;stroke-linecap:butt"/></g><g transform="translate(.568 -.569)"><title>Sheet.14912</title><path d="M20.79 102.95c-3.04 0-6.83-3.25-8.31-4.64a46.742 46.827-180 0 0-.97-.9c-2.33-2.04-4.72-2.99-7.54-2.99-2.58 0-3.97-.01-3.97-.01v-9.66h7.38c.97 0 1.93-.21 3.03-.45 1.41-.3 3.17-.68 5.48-.68 3.38 0 5.03 2.31 6.35 4.17.75 1.05 1.4 1.96 2.17 2.08.34.06.98.08 2.01.08s2.26-.03 3.3-.05a115.141 115.351 0 0 1 2.23-.04c.16 0 .3.01.4.01 2.35.1 3.3.74 3.41 2.27.02.41-.02.81-.14 1.19l-.35 1.16 1.12-.47c2.6-1.11 7.2-3.06 8.68-3.78 1.39-.67 2.86-1.04 4.14-1.04 1.36 0 2.36.42 2.74 1.15.02.02 1.07 2.1-2.37 4.12a891.03 892.657 0 0 1-5.98 3.46c-2.99 1.73-5.35 3.09-6.43 3.8-1.01.67-2.4.76-3.5.76-.59 0-1.2-.03-1.8-.06a37.637 37.705-180 0 0-1.79-.06c-1.46 0-3.66.17-5.98.35-1.03.07-2.09.15-3.1.22a3.175 3.18 0 0 1-.21.01" style="fill:#804998;stroke:none;stroke-width:12.23999977;stroke-linecap:butt"/></g><g transform="translate(1.135 -1.137)"><title>Sheet.14913</title><path d="M36.04 95.11c3.2-1.35 7.31-3.11 8.71-3.79 1.32-.63 2.7-.98 3.9-.98 1.12 0 1.96.31 2.24.84.02.06.75 1.66-2.16 3.37a862.814 864.389 0 0 1-5.97 3.46c-3 1.73-5.37 3.09-6.47 3.82-.88.58-2.16.66-3.18.66-.57 0-1.14-.03-1.72-.06a38.99 39.061-180 0 0-1.87-.06c-1.48 0-3.66.17-5.97.34-1.09.08-2.14.16-3.15.23l-.18.01c-2.92 0-6.8-3.44-7.92-4.49-.43-.4-.74-.69-.99-.91-2.43-2.14-4.95-3.13-7.9-3.13-1.63 0-2.78-.01-3.41-.01v-8.52h6.81c1.03 0 2.01-.21 3.15-.46 1.4-.3 3.12-.68 5.36-.68 3.09 0 4.58 2.09 5.89 3.94.82 1.15 1.53 2.15 2.54 2.31.39.06 1.04.09 2.1.09.98 0 2.14-.02 3.14-.05l.36-.01a105.128 105.32 0 0 1 2.03-.03c.16 0 .28 0 .38.01 2.55.1 2.81.85 2.87 1.74.02.34-.02.67-.11.98l-.76 2.05s1.5-.34 2.28-.67" style="fill:#fff;fill-opacity:.2;stroke:none;stroke-width:12.23999977;stroke-linecap:butt"/></g><title>Sheet.14914</title><path d="M21.35 102.95c-2.97 0-6.54-2.77-8.69-4.79-.37-.36-.7-.66-.96-.89-2.22-1.94-4.49-2.85-7.16-2.85-2.58 0-3.98-.01-3.98-.01a.568.569 0 0 1-.563-.569L0 84.18a.568.569 0 0 1 .568-.569l7.382.009c.91 0 1.83-.21 2.91-.44 1.44-.31 3.23-.7 5.6-.7 3.67 0 5.48 2.55 6.81 4.41.65.91 1.26 1.76 1.79 1.85.78.13 3.39.07 5.3.02 1.15-.02 2.15-.04 2.58-.03 1.87.08 3.8.48 3.95 2.81.04.53-.03.99-.15 1.39 2.49-1.06 7.17-3.05 8.66-3.77 3.23-1.56 6.66-1.46 7.63.35.31.59.83 2.88-2.59 4.89a891.686 893.314 0 0 1-5.98 3.46c-2.99 1.72-5.35 3.08-6.41 3.78-1.49.99-3.61.89-5.67.79-.59-.03-1.17-.06-1.73-.06-1.44 0-3.62.17-5.94.35-1.03.07-2.09.15-3.11.22a4.595 4.604 0 0 1-.25.01M1.14 93.28h3.4c2.92 0 5.51 1.03 7.91 3.14.27.23.6.55.98.91 1.95 1.82 5.59 4.68 8.1 4.48 1.01-.07 2.07-.15 3.1-.23 2.33-.18 4.54-.34 6.02-.34.58 0 1.18.02 1.79.05 1.87.09 3.8.18 4.98-.6 1.1-.72 3.47-2.09 6.47-3.82 1.84-1.05 3.89-2.23 5.97-3.45 1.72-1.01 2.67-2.42 2.16-3.37-.6-1.15-3.28-1.24-6.13.14-2.07 1-9.98 4.32-10.32 4.46a.568.569 0 1 1-.585-.96c.035-.03.865-.76.775-2.08-.07-1.03-.56-1.64-2.86-1.74-.4-.02-1.38.01-2.51.03-2.17.05-4.62.1-5.51-.04-1-.16-1.71-1.15-2.53-2.31-1.25-1.75-2.81-3.93-5.89-3.93-2.25 0-3.9.35-5.36.67-1.14.25-2.12.46-3.15.46H1.14Z" style="fill:#68217a;stroke:none;stroke-width:12.23999977;stroke-linecap:butt"/><g transform="translate(18.605 -7.373)"><title>Sheet.14915</title><path d="M8.23 102.95c-2.24 0-3.84-.27-4.74-1.06L0 98.82l.75-.85 3.49 3.06c1.19 1.05 6.33.66 8.27.53 3.08-.2 3.4-.36 5.27-1.11a.568.569 0 0 1 .426 1.054c-1.976.796-2.436.976-5.616 1.186-1.2.08-3.39.26-4.36.26" style="fill:#68217a;stroke:none;stroke-width:12.23999977;stroke-linecap:butt"/></g></g></g></svg>