<svg xmlns="http://www.w3.org/2000/svg" xml:space="preserve" width="56.695" height="51.03" style="font-size:12px;overflow:visible;color-interpolation-filters:sRGB;fill-rule:evenodd;stroke-linecap:square;stroke-miterlimit:3" viewBox="0 0 56.695 51.03"><defs><linearGradient id="a" x1="0" x2="27.881" y1="86.811" y2="86.811" gradientTransform="scale(.9634 1.038)" gradientUnits="userSpaceOnUse"><stop offset="0" stop-color="#0078d4"/><stop offset="1" stop-color="#5ea0ef"/></linearGradient><linearGradient id="b" x1=".034" x2="10.289" y1="111.614" y2="111.614" gradientTransform="scale(1.02369 .97686)" gradientUnits="userSpaceOnUse"><stop offset="0" stop-color="#f78d1e"/><stop offset="1" stop-color="#faa21d"/></linearGradient><linearGradient id="c" x1="0" x2="41.037" y1="84.966" y2="84.966" gradientTransform="scale(1.05832 .9449)" gradientUnits="userSpaceOnUse"><stop offset=".225" stop-color="#5ea0ef"/><stop offset="1" stop-color="#0078d4"/></linearGradient></defs><g transform="translate(-34 -34.004)"><title>Page-1</title><g transform="translate(34 -34.016)"><title>MedTech Service.14896</title><title>Sheet.14897</title><g transform="translate(54.495 -17.058)"><title>Sheet.14898</title><path d="M0 118.28a.755.76-180 0 0 .755.76l.685.01a.755.76-180 0 0 .755-.76l.005-10.07a.755.76-180 0 0-.755-.76H.75a.755.76-180 0 0-.755.76z" style="fill:#0078d4;stroke:none;stroke-width:34;stroke-linecap:butt"/></g><g transform="translate(54.495 -10.706)"><title>Sheet.14899</title><path d="M0 118.28a.755.76-180 0 0 .755.76l.685.01a.755.76-180 0 0 .755-.76l.005-2.65a.755.76-180 0 0-.755-.76H.75a.755.76-180 0 0-.755.76z" style="fill:#0078d4;stroke:none;stroke-width:34;stroke-linecap:butt"/></g><g transform="translate(32.76)"><title>Sheet.14900</title><path d="M.55 82.46h17.01a.534.538 0 0 1 .534.538l-.004 3.992H.01V83a.534.538 0 0 1 .534-.538zm-.54 32.18h18.08v3.87a.527.531 0 0 1-.527.531L.53 119.05a.527.531 0 0 1-.527-.531L0 114.64Z" style="fill:#005ba1;stroke:none;stroke-width:34;stroke-linecap:butt"/></g><g transform="translate(28.396 -4.405)"><title>Sheet.14901</title><path d="M0 117.81a1.223 1.232-180 0 0 1.22 1.24h24.42a1.223 1.232-180 0 0 1.22-1.24V91.34a1.223 1.232-180 0 0-1.22-1.23H1.22A1.223 1.232-180 0 0 0 91.34Z" style="fill:url(#a);stroke:none;stroke-width:34;stroke-linecap:butt"/></g><g transform="translate(30.756 -6.8)"><title>Sheet.14902</title><path d="M0 118.02a1.022 1.03-180 0 0 1.02 1.03h20.36a1.022 1.03-180 0 0 1.02-1.03v-22.1a1.022 1.03-180 0 0-1.02-1.03H1.02A1.022 1.03-180 0 0 0 95.92Z" style="fill:#005ba1;stroke:none;stroke-width:34;stroke-linecap:butt"/></g><g transform="translate(36.671 -19.42)"><title>Sheet.14903</title><path d="M7.98 109.04a2.637 2.657-180 0 0-2.7 1.78 2.637 2.657-180 0 0-2.72-1.77c-2.44.21-2.56 2.64-2.52 3.57.03.67.16 2.76 5.21 6.4l.05.03.04-.04c5.05-3.65 5.17-5.8 5.19-6.49.03-.9-.11-3.3-2.55-3.48" style="fill:url(#b);stroke:none;stroke-width:34;stroke-linecap:butt"/></g><g transform="translate(30.65 -7.96)"><title>Sheet.14904</title><path d="M22.47 110.46h-6.43a.201.203-180 0 0-.158.083l-1.462 2.537a.194.196 0 0 1-.267.06.254.256 0 0 1-.06-.06l-2.083-3.99a.372.375-180 0 0-.498-.176.382.385-180 0 0-.178.176l-2.004 6.02a.191.193 0 0 1-.254.096.208.21 0 0 1-.092-.093L7.28 111.1a.376.379-180 0 0-.508-.16.386.389-180 0 0-.158.16l-2.354 4.25a.181.183 0 0 1-.158.096L0 115.45v1.49h4.98a.155.156-180 0 0 .158-.096L6.6 114.13a.194.196 0 0 1 .26-.076.168.17 0 0 1 .076.076l2.004 4.69a.372.375-180 0 0 .478.223.366.369-180 0 0 .22-.223l2.112-6.31a.178.18 0 0 1 .227-.103.175.176 0 0 1 .103.103l1.77 3.37a.37.372-180 0 0 .491.153.386.389-180 0 0 .148-.153l2.241-3.81a.185.186 0 0 1 .155-.096l5.575.006Z" style="fill:#fff;stroke:none;stroke-width:34;stroke-linecap:butt"/></g><g transform="translate(0 -12.264)"><title>Sheet.14905</title><path d="M27.07 99.36a2.554 2.574 0 0 1 2.55-2.57h1.82v-1.36a1.865 1.88 0 0 1 1.87-1.88h10.12a15.315 15.437-180 0 0-15.59-13.26 15.767 15.892-180 0 0-15.07 10.35A14.528 14.643-180 0 0 0 104.74a14.765 14.882-180 0 0 15.28 14.31h11.79z" style="fill:url(#c);stroke:none;stroke-width:34;stroke-linecap:butt"/></g></g></g></svg>