<svg xmlns="http://www.w3.org/2000/svg" xml:space="preserve" width="58.57" height="58.57" style="font-size:12px;overflow:visible;color-interpolation-filters:sRGB;fill-rule:evenodd;stroke-linecap:square;stroke-miterlimit:3" viewBox="0 0 58.57 58.57"><defs><linearGradient id="a" x1="0" x2="27.37" y1="244.294" y2="244.294" gradientTransform="scale(2.13993 .4673)" gradientUnits="userSpaceOnUse"><stop offset="0" stop-color="#e26708"/><stop offset="1" stop-color="#f78d1e"/></linearGradient><linearGradient id="b" x1="0" x2="27.37" y1="31.954" y2="31.954" gradientTransform="scale(.4673 2.13993)" gradientUnits="userSpaceOnUse"><stop offset="0" stop-color="#e26708"/><stop offset=".005" stop-color="#e26808"/><stop offset=".115" stop-color="#ec7912"/><stop offset=".255" stop-color="#f28419"/><stop offset=".455" stop-color="#f68b1d"/><stop offset="1" stop-color="#f78d1e"/></linearGradient></defs><g transform="translate(-33.254 -33.253)"><title>Page-1</title><g transform="translate(33.254 -35.127)"><title>Mesh Application.14879</title><g transform="translate(18.176 -16.303)"><title>path22</title><path d="m11.11 116.32-8.42 8.42c0-.68-.67-1.35-1.01-2.02-.33-.68-.67-.68-1.01-.68l8.08-8.07L0 105.22a4.1 4.1-180 0 0 2.36-2.36l8.75 8.75 8.75-8.75c.34.67.34 1.01 1.01 1.35a4.6 4.6 0 0 1 1.34 1.01l-8.75 8.75 8.42 8.41a2.93 2.93-180 0 0-2.02 2.69z" style="fill:#e27908;stroke:none;stroke-width:33.25400162;stroke-linecap:butt"/></g><g transform="translate(6.395 -4.522)"><title>g40</title><g transform="translate(11.107)"><title>path24</title><path d="m0 117.67 7.4 7.4v-.33a5.43 5.43 0 0 1 1.69-3.7l-6.06-6.06A3.57 3.57 0 0 1 0 117.67" style="fill:#e27908;stroke:none;stroke-width:33.25400162;stroke-linecap:butt"/></g><g transform="translate(0 -11.444)"><title>path26</title><path d="m0 117.67 7.07 7.4a3.37 3.37 0 0 1 2.35-3.03l-5.72-6.05a5.43 5.43 0 0 1-3.7 1.68" style="fill:#e27908;stroke:none;stroke-width:33.25400162;stroke-linecap:butt"/></g><g transform="translate(1.01 -25.917)"><title>path28</title><path d="M6.06 116.66 0 122.72a4.88 4.88 0 0 1 3.37 2.35l5.72-5.72-2.02-1.01c-.34-.67-.67-1.01-1.01-1.68" style="fill:#e27908;stroke:none;stroke-width:33.25400162;stroke-linecap:butt"/></g><g transform="translate(11.444 -36.015)"><title>path30</title><path d="M7.07 115.31 0 122.38a3.67 3.67 0 0 1 2.69 2.69l6.06-6.05a4.81 4.81 0 0 1-1.68-3.71" style="fill:#e27908;stroke:none;stroke-width:33.25400162;stroke-linecap:butt"/></g><g transform="translate(25.917 -36.015)"><title>path32</title><path d="m8.75 122.38-6.73-6.73A4.47 4.47 0 0 1 0 119.02l6.06 6.05a3.67 3.67 0 0 1 2.69-2.69" style="fill:#e27908;stroke:none;stroke-width:33.25400162;stroke-linecap:butt"/></g><g transform="translate(36.351 -25.58)"><title>path34</title><path d="m9.09 122.72-6.4-6.4a3.67 3.67 0 0 1-2.69 2.7l6.06 6.05a3.74 3.74 0 0 1 3.03-2.35" style="fill:#e27908;stroke:none;stroke-width:33.25400162;stroke-linecap:butt"/></g><g transform="translate(36.688 -11.107)"><title>path36</title><path d="M5.72 115.99 0 121.71c.67.33 1.01.33 1.35 1.01a3.06 3.06 0 0 1 1.01 2.35l7.06-7.06a6.73 6.73 0 0 1-3.7-2.02" style="fill:#e27908;stroke:none;stroke-width:33.25400162;stroke-linecap:butt"/></g><g transform="translate(26.254 -.337)"><title>path38</title><path d="M5.72 115.65 0 121.37l.34.34a4.3 4.3 0 0 1 1.34 3.36l7.07-7.06A3.06 3.06 0 0 1 6.4 117a2.57 2.57 0 0 1-.68-1.35" style="fill:#e27908;stroke:none;stroke-width:33.25400162;stroke-linecap:butt"/></g></g><g transform="translate(12.117 -34.478)"><title>circle42</title><circle cx="5.049" cy="120.025" r="5.049" style="fill:#f78d1e;stroke:none;stroke-width:33.25400162;stroke-linecap:butt"/></g><g transform="translate(36.351 -34.478)"><title>circle44</title><circle cx="5.049" cy="120.025" r="5.049" style="fill:#f78d1e;stroke:none;stroke-width:33.25400162;stroke-linecap:butt"/></g><g transform="translate(12.117 -10.244)"><title>circle46</title><circle cx="5.049" cy="120.025" r="5.049" style="fill:#f78d1e;stroke:none;stroke-width:33.25400162;stroke-linecap:butt"/></g><g transform="translate(36.351 -10.244)"><title>circle48</title><circle cx="5.049" cy="120.025" r="5.049" style="fill:#f78d1e;stroke:none;stroke-width:33.25400162;stroke-linecap:butt"/></g><g transform="translate(0 -22.888)"><title>path50</title><path d="M6.4 114.16a6.395 6.395 0 1 1-6.4 6.39 6.395 6.395 0 0 1 6.4-6.39m45.77 0a6.395 6.395 0 1 1-6.39 6.39 6.395 6.395 0 0 1 6.39-6.39" style="fill:url(#a);stroke:none;stroke-width:33.25400162;stroke-linecap:butt"/></g><g transform="translate(22.888)"><title>path52</title><path d="M6.4 68.38a6.395 6.395 0 1 1-6.4 6.4 6.395 6.395 0 0 1 6.4-6.4m0 45.78a6.395 6.395 0 1 1-6.4 6.39 6.395 6.395 0 0 1 6.4-6.39" style="fill:url(#b);stroke:none;stroke-width:33.25400162;stroke-linecap:butt"/></g></g></g></svg>