<svg xmlns="http://www.w3.org/2000/svg" xml:space="preserve" width="56.69" height="48.287" style="font-size:12px;overflow:visible;color-interpolation-filters:sRGB;fill-rule:evenodd;stroke-linecap:square;stroke-miterlimit:3" viewBox="0 0 56.69 48.287"><defs><linearGradient id="a" x1="0" x2="52.32" y1="73.094" y2="73.094" gradientTransform="scale(1.08352 .92291)" gradientUnits="userSpaceOnUse"><stop offset="0" stop-color="#ffd70f"/><stop offset=".34" stop-color="#eeb309"/><stop offset=".77" stop-color="#dc8c03"/><stop offset="1" stop-color="#d57d01"/></linearGradient></defs><g transform="translate(-33.443 -33.444)"><title>Page-1</title><g transform="translate(33.443 -34.016)"><title>Notification Hub.14874</title><title>g21</title><title>path15</title><path d="M56.69 69.44v36.93a1.934 1.978 0 0 1-1.96 1.98H39.65a.467.477-180 0 0-.467.477l-.003 5.973a.934.955 0 0 1-1.5.75l-9.07-7.09H1.97A1.934 1.978 0 0 1 0 106.48V69.44a1.934 1.978 0 0 1 1.97-1.98h52.76a1.934 1.978 0 0 1 1.96 1.98" style="fill:url(#a);stroke:none;stroke-width:33.44340134;stroke-linecap:butt"/><g transform="translate(4.924 -15.326)"><title>path17</title><path d="m.25 106.93 10 8.6a.967.99-180 0 0 1.567-.75l.003-3.75H51.7v-5.8H.85a.967.99-180 0 0-.6 1.705z" style="fill:#ffe452;stroke:none;stroke-width:33.44340134;stroke-linecap:butt"/></g><g transform="translate(0 -30.863)"><title>path19</title><path d="m52.49 113.81-10.37-8.6a.967.99-180 0 0-1.567.75l-.003 3.75H0v5.94h51.89a.967.99-180 0 0 .6-1.842z" style="fill:#fff;stroke:none;stroke-width:33.44340134;stroke-linecap:butt"/></g></g></g></svg>