<svg xmlns="http://www.w3.org/2000/svg" xmlns:xlink="http://www.w3.org/1999/xlink" xml:space="preserve" width="56.693" height="56.693" style="font-size:12px;overflow:visible;color-interpolation-filters:sRGB;fill-rule:evenodd;stroke-linecap:square;stroke-miterlimit:3" viewBox="0 0 56.693 56.693"><defs><linearGradient id="b" x1="0" x2="56.693" y1="68.016" y2="68.016" gradientUnits="userSpaceOnUse"><stop offset="0" stop-color="#a67af4"/><stop offset="1" stop-color="#773adc"/></linearGradient><linearGradient id="a" x1="0" x2="1" y1="0" y2="0"><stop offset="0" stop-color="#c3f1ff"/><stop offset="1" stop-color="#9cebff"/></linearGradient><linearGradient xlink:href="#a" id="c" x1="-.002" x2="10.923" y1="112.978" y2="112.978" gradientTransform="scale(.99344 1.0066)" gradientUnits="userSpaceOnUse"/><linearGradient xlink:href="#a" id="d" x1="-.09" x2="10.77" y1="118.301" y2="118.301" gradientUnits="userSpaceOnUse"/><linearGradient xlink:href="#a" id="e" x1="-.001" x2="10.885" y1="114.226" y2="114.226" gradientTransform="scale(1.00322 .99679)" gradientUnits="userSpaceOnUse"/><linearGradient xlink:href="#a" id="f" x1="0" x2="21.335" y1="103.373" y2="103.373" gradientUnits="userSpaceOnUse"/></defs><g transform="translate(-34 -34)"><title>Page-1</title><g transform="translate(34 -34.016)"><title>Open Supply Chain Platform.14865</title><title>Sheet.14866</title><title>Sheet.14867</title><circle cx="28.346" cy="96.362" r="28.346" style="fill:url(#b);stroke:none;stroke-width:34;stroke-linecap:butt"/><g transform="translate(6.082 -7.166)"><title>Sheet.14868</title><path d="M29.78 123.92a.444.444 0 0 1-.186.702A22.33 22.33 0 0 1 3.73 115.98a.44.44 0 0 1 .268-.67 6.7 6.7-180 0 0 2.292-1.09.44.44 0 0 1 .63.11 18.78 18.78-180 0 0 21.1 7.09.43.43 0 0 1 .551.27 6.8 6.8-180 0 0 1.209 2.23m-7.52-42.73A22.36 22.36-180 0 0 0 101.79a.444.444-180 0 0 .56.454 6.7 6.7 0 0 1 1.73-.224 7 7 0 0 1 .79.04.44.44-180 0 0 .479-.4A18.82 18.82 0 0 1 22.26 84.74h.56a5 5 0 0 1-.02-.49 6.7 6.7 0 0 1 .46-2.45.438.438-180 0 0-.403-.602Zm13.63 5.41a6.9 6.9 0 0 1-1.31 2.17.435.435-180 0 0 .05.63 18.77 18.77 0 0 1 3.72 23.86.43.43-180 0 0 .135.598 6.9 6.9 0 0 1 1.885 1.712.444.444-180 0 0 .724-.022A22.3 22.3-180 0 0 36.59 86.41a.44.44-180 0 0-.7.183Z" style="fill:#fff;stroke:none;stroke-width:34;stroke-linecap:butt"/></g><g transform="translate(7.783 -7.3)"><title>Sheet.14869</title><circle cx="20.564" cy="104.145" r="20.564" style="fill:#b796f9;fill-opacity:.6;stroke:none;stroke-width:34;stroke-linecap:butt"/></g><g transform="translate(30.22 -42.214)"><title>Sheet.14870</title><path d="M10.84 119.29v.37a5.424 5.424 0 0 1-10.74.65 5 5 0 0 1-.1-1.02 5.427 5.427 0 1 1 10.85 0z" style="fill:url(#c);stroke:none;stroke-width:34;stroke-linecap:butt"/></g><g transform="translate(35.713 -11.303)"><title>Sheet.14871</title><path d="M10.77 123.73a5.43 5.43 0 1 1-.34-1.89 5.4 5.4 0 0 1 .34 1.89" style="fill:url(#d);stroke:none;stroke-width:34;stroke-linecap:butt"/></g><g transform="translate(2.877 -17.704)"><title>Sheet.14872</title><path d="M10.92 119.29a5.424 5.424 0 0 1-5.42 5.42h-.15a5.426 5.426 0 1 1 .15-10.85 5.5 5.5 0 0 1 1.62.24 5.43 5.43 0 0 1 3.8 5.19" style="fill:url(#e);stroke:none;stroke-width:34;stroke-linecap:butt"/></g><g transform="translate(17.679 -17.704)"><title>Sheet.14873</title><circle cx="10.668" cy="114.041" r="10.668" style="fill:url(#f);stroke:none;stroke-width:34;stroke-linecap:butt"/></g></g></g></svg>