<svg xmlns="http://www.w3.org/2000/svg" xml:space="preserve" width="56.694" height="56.694" style="font-size:12px;overflow:visible;color-interpolation-filters:sRGB;fill-rule:evenodd;stroke-linecap:square;stroke-miterlimit:3" viewBox="0 0 56.694 56.694"><defs><linearGradient id="a" x1="0" x2="34.363" y1="113.308" y2="113.308" gradientTransform="scale(1.00136 .99865)" gradientUnits="userSpaceOnUse"><stop offset="0" stop-color="#6bb9f2"/><stop offset="1" stop-color="#1b93eb"/></linearGradient></defs><g transform="translate(-45.389 -45.388)"><title>Page-1</title><g transform="translate(45.389 -45.389)"><title>Scaling Plan.14860</title><title>g12</title><g transform="translate(22.284 -22.378)"><title>path4</title><path d="M34.41 131.08v-17.3a.622.62-180 0 0-.64-.625l-17.33.005a.622.62-180 0 0-.439 1.063l4.779 4.767.32.31a.63.63 0 0 1 0 .884L.18 141.03a.63.63-180 0 0 0 .88l5.39 5.38a.63.63-180 0 0 .887 0l20.923-20.85a.622.62 0 0 1 .887 0l.313.31 4.76 4.76a.622.62-180 0 0 1.066-.438z" style="fill:url(#a);stroke:none;stroke-width:45.38869858;stroke-linecap:butt"/></g><g transform="translate(7.404 -8.265)"><title>path6</title><path d="M36.55 128.72v12.67a1.458 1.454 0 0 1-1.46 1.45H6.12a1.458 1.454 0 0 1-1.46-1.45V114.1a1.458 1.454 0 0 1 1.46-1.45h14.52a.801.8-180 0 0 .801-.795l-.001-3.045a.801.8-180 0 0-.801-.8H1.45A1.462 1.458-180 0 0 0 109.47v36.55a1.454 1.45-180 0 0 1.45 1.45h38.29a1.45 1.446-180 0 0 1.46-1.45v-17.3a.797.795-180 0 0-.806-.795l-3.044.005a.797.795-180 0 0-.797.795z" style="fill:#b3b3b3;stroke:none;stroke-width:45.38869858;stroke-linecap:butt"/></g><title>path8</title><path d="M55.8 143.82h-3.67v3.65h3.67zm-7.39 3.65h-3.72v-3.65h3.72zm-7.46 0h-3.72v-3.65h3.72zm-7.46 0h-3.72v-3.65h3.73zm-7.46 0h-3.72v-3.65h3.72zm-7.46 0h-3.72v-3.65h3.73zm-7.46 0H7.39v-3.65h3.73zm-7.45-3.65H0v3.65h3.66zm0-3.72H0v-3.72h3.66zm0-7.44H0v-3.72h3.66zm0-7.44H0v-3.71h3.66zm0-7.44H0v-3.72h3.66zm0-7.44H0v-3.71h3.66zm0-7.44H0v-3.71h3.66zm0-11.08H0v3.65h3.66zm22.37 3.65h-3.72v-3.65h3.72zm-7.46 0h-3.72v-3.65h3.73zm-7.46 0H7.39v-3.65h3.73zm44.68 44.63h-3.65v-3.72h3.66zm0-7.44h-3.65v-3.72h3.66zm0-7.44h-3.65v-3.71h3.66z" style="fill:#76bc2d;stroke:none;stroke-width:45.38869858;stroke-linecap:butt"/></g></g></svg>