<svg xmlns="http://www.w3.org/2000/svg" xml:space="preserve" width="56.696" height="56.699" style="font-size:12px;overflow:visible;color-interpolation-filters:sRGB;fill-rule:evenodd;stroke-linecap:square;stroke-miterlimit:3" viewBox="0 0 56.696 56.699"><defs><linearGradient id="a" x1="0" x2="37.8" y1="58.605" y2="58.605" gradientTransform="scale(1.00026 .99974)" gradientUnits="userSpaceOnUse"><stop offset="0" stop-color="#32d4f5"/><stop offset=".23" stop-color="#31d0f1"/><stop offset=".46" stop-color="#2cc3e6"/><stop offset=".7" stop-color="#25afd4"/><stop offset=".94" stop-color="#1c92ba"/><stop offset="1" stop-color="#198ab3"/></linearGradient></defs><g transform="translate(-5.67 -5.665)"><title>Page-1</title><g transform="translate(5.67 -34.016)"><title>SendGrid Account.14855</title><title>Sheet.14856</title><path d="M18.89 77.47H0V60.46a1.94 1.9 0 0 1 1.94-1.87h17.01zm18.92 0H18.89v18.91H35.9a1.94 1.9-180 0 0 1.94-1.9z" style="fill:#005ba1;stroke:none;stroke-width:.75;stroke-linecap:butt"/><title>Sheet.14857</title><path d="M37.81 77.47H18.89V58.59h18.92zm-18.92 0H0v17.01a1.94 1.9-180 0 0 1.94 1.9h17.01z" style="fill:#0078d4;stroke:none;stroke-width:.75;stroke-linecap:butt"/><g transform="translate(18.886 -18.909)"><title>Sheet.14858</title><path d="M18.92 77.5H0V60.49a1.94 1.9 0 0 1 1.94-1.9h17.01zm18.89 0H18.92v18.88h17.32a1.565 1.534-180 0 0 1.57-1.5z" style="fill:#0078d4;stroke:none;stroke-width:.75;stroke-linecap:butt"/></g><g transform="translate(18.886 -18.909)"><title>Sheet.14859</title><path d="M37.81 77.5H18.92V58.59h17.32a1.565 1.534 0 0 1 1.57 1.5zm-18.89 0H0v17.01a1.94 1.9-180 0 0 1.94 1.87h17.01z" style="fill:url(#a);stroke:none;stroke-width:.75;stroke-linecap:butt"/></g></g></g></svg>