<svg xmlns="http://www.w3.org/2000/svg" xml:space="preserve" width="56.694" height="53.851" style="font-size:12px;overflow:visible;color-interpolation-filters:sRGB;fill-rule:evenodd;stroke-linecap:square;stroke-miterlimit:3" viewBox="0 0 56.694 53.851"><g transform="translate(-15.3 -15.303)"><title>Page-1</title><g transform="translate(15.3 -34.016)"><title>Services Hub Connector.14828</title><title>Sheet.14829</title><g transform="translate(12.224 -5.34)"><title>Sheet.14830</title><path d="M22.24 77.72h4.28a4.382 4.424 0 0 1 4.77-3.46 4.397 4.438 0 0 1 3.89 4.89 4.384 4.425 0 0 1-4.85 3.92 4.397 4.438 0 0 1-3.8-3.45l-4.29-.01V90.2l4.41 4.47a7.678 7.75 0 0 1 4.66-1.61c2.34 0 4.52 1.05 5.99 2.89.03.05.06.09.09.14a23.953 24.18-180 0 0 7.08-17.18c0-13.37-10.78-24.25-24.04-24.25-8.02 0-15.12 3.98-19.49 10.08h21.3zM25.31 96l-4.27-4.32H0c4.25 6.89 11.81 11.49 20.43 11.49 1.2 0 2.38-.09 3.53-.26A7.689 7.762 0 0 1 25.31 96" style="fill:#919191;stroke:none;stroke-width:15.30000019;stroke-linecap:butt"/></g><g transform="translate(0 -5.268)"><title>Sheet.14831</title><path d="M25.64 76.73h-6.13v-5.96h-3.34v14.94h3.34v-6.08h6.13v6.09h3.35V70.77h-3.35ZM9.66 85.92c.34-.04.68-.09 1.02-.17.71-.16 2.46-.49 3.41-2.39.29-.58.47-1.26.47-2.1 0-.61-.09-1.13-.26-1.59a3.668 3.703-180 0 0-.78-1.21 5.624 5.677-180 0 0-1.21-.96 13.096 13.22-180 0 0-1.6-.8 18.113 18.285 0 0 1-1.16-.52 5.876 5.932 0 0 1-.73-.43c-.05-.03-.11-.06-.15-.1-.24-.17-.43-.36-.56-.56a1.183 1.195 0 0 1-.2-.67 1.148 1.159 0 0 1 .18-.62 1.56 1.574 0 0 1 .49-.48c.21-.12.45-.22.74-.29.02 0 .03-.01.05-.01.31-.08.65-.11 1.04-.11a6.687 6.75 0 0 1 1.79.26c.31.08.61.2.91.33.29.13.56.28.81.46v-3.12c-.69-.32-2.4-.57-3.7-.57h-.04c-3.54.01-5 1.87-5.31 2.43s-.46 1.23-.46 2c0 1 .28 1.84.85 2.55.57.7 1.43 1.29 2.59 1.78.27.11.54.23.79.33.16.08.32.15.47.22.4.18.73.37 1.03.56.28.19.51.41.67.64a1.277 1.29 0 0 1 .09 1.38 1.368 1.38 0 0 1-.47.47c-.21.14-.45.25-.78.32a7.781 7.855 0 0 1-.65.12c-3.82.56-7.74-1.43-9-1.99v3.08c1.22.31 5.48 2.26 9.66 1.76M6.73 98.1a2.513 2.537-180 1 0 .28.02c-.1-.01-.18-.02-.28-.02" style="fill:#fff;stroke:none;stroke-width:15.30000019;stroke-linecap:butt"/></g><title>Sheet.14832</title><path d="M49.52 90.61a7.632 7.704-180 0 0-5.98-2.89c-1.68 0-3.33.57-4.67 1.6l-4.41-4.46V74.27l4.29.01a4.4 4.441-180 0 0 4.29 3.48 4.384 4.425-180 0 0 4.36-3.95 4.397 4.438-180 0 0-4.37-4.92 4.382 4.424-180 0 0-4.29 3.49h-4.28V59.4H0v16.41c1.26.56 5.18 2.55 8.99 1.99.21-.03.43-.06.65-.11.32-.08.57-.19.78-.32a1.368 1.38-180 0 0 .47-.48 1.271 1.283-180 0 0-.09-1.38 2.665 2.69-180 0 0-.68-.64 6.963 7.03-180 0 0-1.02-.56c-.15-.07-.31-.14-.47-.21a27.828 28.09-180 0 0-.79-.34c-1.16-.48-2.02-1.08-2.59-1.78s-.85-1.55-.85-2.54c0-.78.15-1.45.46-2.01.31-.55 1.77-2.41 5.31-2.43h.04c1.3 0 3 .25 3.7.57v3.12a5.34 5.391-180 0 0-.82-.46 6.423 6.484-180 0 0-.9-.33 7.737 7.81-180 0 0-.92-.19 6.018 6.075-180 0 0-.87-.07c-.38 0-.73.04-1.04.11-.02.01-.03.01-.05.02-.28.07-.53.17-.73.29a1.52 1.534-180 0 0-.5.47 1.094 1.105-180 0 0-.17.63 1.176 1.188-180 0 0 .19.67c.13.2.32.38.56.56.04.03.1.07.15.1.21.14.45.29.73.42.34.17.73.35 1.17.53.59.25 1.12.52 1.59.8s.88.6 1.21.95c.34.36.6.76.78 1.22.18.45.26.98.26 1.59 0 .83-.18 1.52-.47 2.09-.94 1.9-2.7 2.24-3.41 2.4a10.626 10.726 0 0 1-1.02.17c-4.17.5-8.43-1.46-9.65-1.77v7.45h5.8l-.01 4.7a4.38 4.422-180 0 0-3.42 3.85 4.394 4.435-180 0 0 4.37 4.91 4.384 4.425-180 0 0 4.36-3.95 4.395 4.437-180 0 0-3.43-4.81l.01-4.71h25.59l4.27 4.32a7.695 7.767-180 0 0-1.36 6.91 7.625 7.697-180 0 0 7.37 5.61c1.73 0 3.43-.6 4.79-1.7a7.662 7.735-180 0 0 1.28-10.73c-.04-.04-.06-.09-.1-.13m-8.98-17.56a2.514 2.538 0 1 1 4.99.56 2.514 2.538 0 0 1-4.99-.56M9.23 95.65a2.514 2.538 0 1 1-4.99-.55 2.514 2.538 0 0 1 4.99.55m19.76-15.2h-3.35v-6.09h-6.13v6.08h-3.34V65.5h3.34v5.96h6.13V65.5h3.35zM47.16 100a5.783 5.837 0 0 1-8.13-.9 5.776 5.83 0 0 1-.15-7.09c.29-.41.64-.79 1.05-1.12.09-.07.19-.14.29-.21a5.769 5.823 0 0 1 3.32-1.07A5.781 5.836 0 0 1 47.16 100" style="fill:#2f2f2f;stroke:none;stroke-width:15.30000019;stroke-linecap:butt"/><g transform="translate(38.39 -1.891)"><title>Sheet.14833</title><path d="M9.67 93.69a5.773 5.827-180 0 0-7.84-1.12c-.1.07-.2.14-.29.22q-.615.495-1.05 1.11a5.776 5.83-180 0 0 4.67 9.27 5.781 5.836-180 0 0 4.51-9.48" style="fill:#fff;stroke:none;stroke-width:15.30000019;stroke-linecap:butt"/></g></g></g></svg>