<svg xmlns="http://www.w3.org/2000/svg" xmlns:xlink="http://www.w3.org/1999/xlink" xml:space="preserve" width="56.693" height="56.693" style="font-size:12px;overflow:visible;color-interpolation-filters:sRGB;fill-rule:evenodd;stroke-linecap:square;stroke-miterlimit:3" viewBox="0 0 56.693 56.693"><defs><linearGradient id="b" x1="0" x2="16.376" y1="105.977" y2="105.977" gradientTransform="scale(.988 1.01215)" gradientUnits="userSpaceOnUse"><stop offset="0" stop-color="#ef7100"/><stop offset="1" stop-color="#faa21d"/></linearGradient><linearGradient id="a" x1="0" x2="1" y1="0" y2="0" gradientTransform="rotate(-90 .5 .5)"><stop offset="0" stop-color="#ef7100"/><stop offset="1" stop-color="#faa21d"/></linearGradient><linearGradient id="f" x1="0" x2="24.112" y1="97.766" y2="97.766" gradientTransform="scale(.98416 1.0161)" gradientUnits="userSpaceOnUse"><stop offset="0" stop-color="#773adc"/><stop offset=".205" stop-color="#7b3fde"/><stop offset=".46" stop-color="#864fe4"/><stop offset=".74" stop-color="#9968ed"/><stop offset=".9" stop-color="#a67af4"/></linearGradient><linearGradient xlink:href="#a" id="c" x1="0" x2="16.376" y1="105.977" y2="105.977" gradientTransform="scale(.988 1.01215)" gradientUnits="userSpaceOnUse"/><linearGradient xlink:href="#a" id="d" x1="0" x2="16.376" y1="105.977" y2="105.977" gradientTransform="scale(.988 1.01215)" gradientUnits="userSpaceOnUse"/><linearGradient xlink:href="#a" id="e" x1="0" x2="16.376" y1="105.977" y2="105.977" gradientTransform="scale(.988 1.01215)" gradientUnits="userSpaceOnUse"/></defs><g transform="translate(-33.131 -33.131)"><title>Page-1</title><g transform="translate(33.131 -34.016)"><title>Service Fabric Managed Cluster.14834</title><title>g14</title><g transform="translate(5.051 -6.688)"><title>path2</title><path d="m26.98 82.41-4.06-3.06-3.99 3.03L0 96.2l7.37 22.81 1.54 4.83h6.07v-4.83h-2.67L5.76 98.14l17.16-12.68 17.29 12.72-1.14 3.64h4.96v.18l1.81-5.64v-.16Z" style="fill:#e27908;stroke:none;stroke-width:33.1310997;stroke-linecap:butt"/></g><g transform="translate(7.013 -.18)"><title>circle4</title><ellipse cx="8.09" cy="115.552" rx="8.09" ry="8.288" style="fill:url(#b);stroke:none;stroke-width:33.1310997;stroke-linecap:butt"/></g><g transform="translate(40.513 -25.004)"><title>circle6</title><ellipse cx="8.09" cy="115.552" rx="8.09" ry="8.288" style="fill:url(#c);stroke:none;stroke-width:33.1310997;stroke-linecap:butt"/></g><g transform="translate(0 -25.004)"><title>circle8</title><ellipse cx="8.09" cy="115.552" rx="8.09" ry="8.288" style="fill:url(#d);stroke:none;stroke-width:33.1310997;stroke-linecap:butt"/></g><g transform="translate(19.882 -40.118)"><title>circle10</title><ellipse cx="8.09" cy="115.552" rx="8.09" ry="8.288" style="fill:url(#e);stroke:none;stroke-width:33.1310997;stroke-linecap:butt"/></g><g transform="translate(27.28)"><title>path12</title><path d="m14.56 120.22 1.87-.8 3.25 1.53 1.94-1.99-.19-.38-1.35-2.63.55-1.99 3.1-1.31v-2.84l-.15-.12-2.88-1.02-.74-1.94 1.47-2.91.14-.33-.87-.97-1.04-1.12-.38.2-2.77 1.45-1.9-.56-1.2-3.15h-2.75l-.14.15-.95 2.88-1.94.75-3.21-1.55-1.94 1.99.19.39 1.45 2.81-.79 1.94L0 109.94v2.84l.4.12 2.94.98.78 2.07-1.51 3.28 1.94 2.01.38-.16 2.77-1.46 1.89.8 1.21 3.42h2.79zm-2.46-4.94a3.885 3.98 0 1 1 3.86-4.01 3.907 4.003 0 0 1-3.86 4.01" style="fill:url(#f)"/><path d="m14.56 120.22 1.87-.8 3.25 1.53 1.94-1.99-.19-.38-1.35-2.63.55-1.99 3.1-1.31v-2.84l-.15-.12-2.88-1.02-.74-1.94 1.47-2.91.14-.33-.87-.97-1.04-1.12-.38.2-2.77 1.45-1.9-.56-1.2-3.15h-2.75l-.14.15-.95 2.88-1.94.75-3.21-1.55-1.94 1.99.19.39 1.45 2.81-.79 1.94L0 109.94v2.84l.4.12 2.94.98.78 2.07-1.51 3.28 1.94 2.01.38-.16 2.77-1.46 1.89.8 1.21 3.42h2.79m-1.49-8.56a3.885 3.98 0 1 1 3.86-4.01 3.907 4.003 0 0 1-3.86 4.01" style="stroke:none;stroke-width:33.1310997;stroke-linecap:butt"/></g></g></g></svg>