<svg xmlns="http://www.w3.org/2000/svg" xml:space="preserve" width="53.873" height="56.064" style="font-size:12px;overflow:visible;color-interpolation-filters:sRGB;fill-rule:evenodd;stroke-linecap:square;stroke-miterlimit:3" viewBox="0 0 53.873 56.064"><defs><linearGradient id="a" x1="0" x2="50.317" y1="61.045" y2="61.045" gradientTransform="scale(.8975 1.1142)" gradientUnits="userSpaceOnUse"><stop offset="0" stop-color="#0078d4"/><stop offset=".82" stop-color="#5ea0ef"/></linearGradient></defs><g transform="translate(-33.988 -34)"><title>Page-1</title><g transform="translate(34 -34.016)"><title>Service Endpoint Policy.14842</title><title>Icon-networking-85</title><g transform="translate(40.9 -44.886)"><title>Sheet.14844</title><path d="M.23 120.78a7.56 7.618 0 0 1 7.53-7.65 6.087 6.134 0 0 1 5.2 6.2 6.087 6.134 0 0 1-1.34 3.89 2.323 2.342 0 0 1-1.8.86H0Z" style="fill:#0078d4;stroke:none;stroke-width:34;stroke-linecap:butt"/></g><g transform="translate(4.935)"><title>Sheet.14845</title><path d="M36.88 68.08H7.43A7.494 7.552-180 0 0 0 75.63v48.45h29.45a7.494 7.552-180 0 0 7.5-7.55V83.84a84.298 84.957 0 0 1 0-9.89c1.17-6.56 8.21-5.41 8.21-5.41a36.422 36.707-180 0 0-8.28-.46" style="fill:url(#a);stroke:none;stroke-width:34;stroke-linecap:butt"/></g><g transform="translate(21.003 -15.72)"><title>Sheet.14846</title><path d="M2.62 120.51v-15.5a1.734 1.748-180 0 0 .88-1.52 1.767 1.78-180 0 0-1.77-1.78 1.767 1.78-180 0 0-.85 3.3v15.5a1.8 1.814-180 0 0-.88 1.55 1.767 1.78-180 1 0 3.5 0 1.8 1.814-180 0 0-.88-1.55" style="fill:#f2f2f2;stroke:none;stroke-width:34;stroke-linecap:butt"/></g><g transform="translate(0 -.198)"><title>Sheet.14847</title><path d="M34.91 124.08A6.021 6.068 0 0 1 32 113.39a.753.759-180 0 0-.49-1.352l-26.54.002a6.054 6.101-180 0 0 0 12.01 4.45 4.485-180 0 0 .95 0z" style="fill:#5ea0ef;stroke:none;stroke-width:34;stroke-linecap:butt"/></g><g transform="translate(26.534 -34.464)"><title>Sheet.14848</title><ellipse cx="1.8" cy="122.266" rx="1.8" ry="1.814" style="fill:#f2f2f2;stroke:none;stroke-width:34;stroke-linecap:butt"/></g><g transform="translate(20.807 -34.464)"><title>Sheet.14849</title><ellipse cx="1.8" cy="122.266" rx="1.8" ry="1.814" style="fill:#f2f2f2;stroke:none;stroke-width:34;stroke-linecap:butt"/></g><g transform="translate(15.113 -34.464)"><title>Sheet.14850</title><ellipse cx="1.8" cy="122.266" rx="1.8" ry="1.814" style="fill:#f2f2f2;stroke:none;stroke-width:34;stroke-linecap:butt"/></g><g transform="translate(8.653 -27.913)"><title>Sheet.14851</title><path d="m8.42 123.99 1.05-1.05a.49.495-180 0 0 0-.66l-8.15-8.18-1.04 1.05a.916.923-180 0 0 0 1.32l7.59 7.52a.49.495-180 0 0 .556 0z" style="fill:#b3b3b3;stroke:none;stroke-width:34;stroke-linecap:butt"/></g><g transform="translate(8.653 -34.596)"><title>Sheet.14852</title><path d="m9.41 115.17-.99-.98a.49.495-180 0 0-.654 0L.28 121.67a.916.923-180 0 0 0 1.32l1.01 1.09 8.12-8.25a.425.429-180 0 0 0-.66" style="fill:#f2f2f2;stroke:none;stroke-width:34;stroke-linecap:butt"/></g><g transform="translate(26.74 -27.874)"><title>Sheet.14853</title><path d="m1.2 123.95-1.05-1.08a.425.429 0 0 1 0-.66l8.28-8.15 1.02 1.05a.916.923 0 0 1 0 1.32l-7.59 7.52a.49.495 0 0 1-.654 0z" style="fill:#b3b3b3;stroke:none;stroke-width:34;stroke-linecap:butt"/></g><g transform="translate(26.932 -34.596)"><title>Sheet.14854</title><path d="m.12 115.17 1.05-.98a.49.495 0 0 1 .654 0l7.436 7.51a.916.923 0 0 1 0 1.32l-1.02 1.06-8.12-8.25a.49.495 0 0 1 0-.66" style="fill:#f2f2f2;stroke:none;stroke-width:34;stroke-linecap:butt"/></g></g></g></svg>