<svg xmlns="http://www.w3.org/2000/svg" xml:space="preserve" width="56.69" height="56.69" style="font-size:12px;overflow:visible;color-interpolation-filters:sRGB;fill-rule:evenodd;stroke-linecap:square;stroke-miterlimit:3" viewBox="0 0 56.69 56.69"><defs><radialGradient id="a" cx="0" cy="102.95" r="79.366" fx="0" fy="102.95" gradientUnits="userSpaceOnUse"><stop offset=".18" stop-color="#5ea0ef"/><stop offset="1" stop-color="#0078d4"/></radialGradient></defs><g transform="translate(-12.24 -12.244)"><title>Page-1</title><g transform="translate(12.24 -34.016)"><title>SignalR.14819</title><title> SignalRServiceblue</title><title>path6</title><path d="m23.19 87.49 3.2-7.73h7.11a5.16 5.16-180 0 0 5.15-5.16 5.16 5.16-180 0 0-5.15-5.15H10.31l12.88-12.89v5.16H33.5c7.12 0 12.89 5.77 12.89 12.88 0 6.92-5.47 12.53-12.32 12.83l10.44 10.44c7.36-5.12 12.18-13.63 12.18-23.27 0-15.65-12.69-28.34-28.34-28.34C12.69 46.26 0 58.95 0 74.6c0 15.66 12.69 28.35 28.35 28.35 3.1 0 6.07-.52 8.87-1.44z" style="fill:url(#a);stroke:none;stroke-width:12.23999977;stroke-linecap:butt"/></g></g></svg>