<svg xmlns="http://www.w3.org/2000/svg" xml:space="preserve" width="61.804" height="58.088" style="font-size:12px;overflow:visible;color-interpolation-filters:sRGB;fill-rule:evenodd;stroke-linecap:square;stroke-miterlimit:3" viewBox="0 0 61.804 58.088"><defs><radialGradient id="b" cx="41.021" cy="83.066" r="64.681" fx="41.021" fy="83.066" gradientTransform="scale(.9868 1.01338)" gradientUnits="userSpaceOnUse"><stop offset=".18" stop-color="#5ea0ef"/><stop offset="1" stop-color="#0078d4"/></radialGradient><linearGradient id="a" x1="0" x2="36.457" y1="105.707" y2="105.707" gradientTransform="scale(1.13037 .88467)" gradientUnits="userSpaceOnUse"><stop offset="0" stop-color="#198ab3"/><stop offset=".13" stop-color="#21a0c7"/><stop offset=".31" stop-color="#28b7db"/><stop offset=".5" stop-color="#2ec7ea"/><stop offset=".72" stop-color="#31d1f2"/><stop offset="1" stop-color="#32d4f5"/></linearGradient></defs><g transform="translate(-33.665 -34.002)"><title>Page-1</title><g transform="translate(38.775 -35.128)"><title>SignalR Replica.14822</title><title>Sheet.14823</title><g transform="translate(15.484 -24.386)"><title>Sheet.14824</title><path d="M41.21 115.58a10.242 10.523-180 0 0-2.35-6.55 9.108 9.357-180 0 0-5.69-3.29 12.796 13.147-180 0 0-3.71-8.81 11.269 11.578-180 0 0-8.29-3.41 11.48 11.795-180 0 0-6.98 2.31 12.707 13.055-180 0 0-4.47 6.33 10.824 11.12-180 0 0-6.84 3.85 12.185 12.518-180 0 0-2.88 7.8c.04 1.63.37 3.22.97 4.7.61 1.48 1.48 2.82 2.56 3.93s2.35 1.98 3.73 2.55c1.39.57 2.86.83 4.35.77h20.3a9.108 9.357-180 0 0 6.55-3c1.74-1.91 2.73-4.48 2.75-7.18" style="fill:url(#a);stroke:none;stroke-width:34;stroke-linecap:butt"/></g><g transform="translate(23.331 -28.468)"><title>Sheet.14825</title><path d="m21.28 111.67-5.54-5.65c-.61-.64-1.13-.41-1.13.57v2.54a.69.708 0 0 1-.43.655.652.67 0 0 1-.267.042C10.34 109.83.36 110.81 0 125.09c0 .19.07.38.2.52a.69.708-180 0 0 .493.217l3.547-.007a.686.705-180 0 0 .519-.236.712.731-180 0 0 .178-.56A8.682 8.92 0 0 1 6.9 117.31c.89-1.04 2-1.83 3.24-2.33 1.24-.49 2.58-.67 3.89-.52.19 0 .37.08.5.21a.715.735 0 0 1 .204.518l-.004 2.352c0 1.17.37 1.36 1.13.57l5.42-5.24a.704.724-180 0 0 .304-.602.723.743-180 0 0-.304-.601Z" style="fill:#fff;stroke:none;stroke-width:34;stroke-linecap:butt"/></g><g transform="translate(0 -3.778)"><title>Sheet.14826</title><path d="M31.94 125.82a22.767 23.39 0 1 1-27.9-36.96l.24-.17a22.76 23.384 0 0 1 27.66 37.13" style="fill:url(#b);stroke:none;stroke-width:34;stroke-linecap:butt"/></g><g transform="translate(4.778)"><title>Sheet.14827</title><path d="m20.2 125.82-.05-.06-6.94-7.12-4.17-4.13a.215.22 0 0 1 0-.248q.3-.783.63-1.562l.36-.88 1.44-3.66a.215.22 0 0 1 .24-.164l5.65-.006a3.774 3.877-180 0 0 3.01-1.48 3.83 3.934-180 0 0 .96-3.17 4.152 4.265-180 0 0-4.23-3.82H.7a.749.77 0 0 1-.534-1.322L8.34 89.81a.374.385 0 0 1 .508.137l.002 3.223h8.03a10.713 11.007 0 0 1 4.45.93c1.26.58 2.39 1.41 3.32 2.45a10.524 10.812 0 0 1 2.81 7.32c0 1.46-.29 2.9-.86 4.23a10.283 10.565 0 0 1-7.52 6.28l-1.39.19h.18l4.15 4.29 3.83 3.96.14.11a22.76 23.384 0 0 1-5.79 2.89" style="fill:#f2f2f2;stroke:none;stroke-width:34;stroke-linecap:butt"/></g></g></g></svg>