<svg xmlns="http://www.w3.org/2000/svg" xmlns:xlink="http://www.w3.org/1999/xlink" xml:space="preserve" width="56.69" height="45.36" style="font-size:12px;overflow:visible;color-interpolation-filters:sRGB;fill-rule:evenodd;stroke-linecap:square;stroke-miterlimit:3" viewBox="0 0 56.69 45.36"><defs><linearGradient id="a" x1="0" x2="1" y1="0" y2="0" gradientTransform="rotate(91.035 .5 .5)"><stop offset="0" stop-color="#ffd400"/><stop offset="1" stop-color="#ffbd02"/></linearGradient><linearGradient id="e" x1="0" x2="7.868" y1="76.907" y2="76.907" gradientTransform="scale(1.01036 .98974)" gradientUnits="userSpaceOnUse"><stop offset="0" stop-color="#ccc"/><stop offset=".125" stop-color="#d7d7d7"/><stop offset="1" stop-color="#fcfcfc"/></linearGradient><linearGradient id="f" x1="0" x2="5.112" y1="79.663" y2="79.663" gradientTransform="scale(1.01036 .98974)" gradientUnits="userSpaceOnUse"><stop offset="0" stop-color="#ccc"/><stop offset=".125" stop-color="#d7d7d7"/><stop offset="1" stop-color="#fcfcfc"/></linearGradient><linearGradient xlink:href="#a" id="b" x1="0" x2="47.809" y1="51.687" y2="51.687" gradientTransform="scale(1.18575 .84335)" gradientUnits="userSpaceOnUse"/><linearGradient xlink:href="#a" id="c" x1="0" x2="47.809" y1="51.687" y2="51.687" gradientTransform="scale(1.18575 .84335)" gradientUnits="userSpaceOnUse"/><radialGradient id="d" cx="-2.418" cy="62.827" r="34.364" fx="-2.418" fy="62.827" gradientTransform="scale(1.01065 .98946)" gradientUnits="userSpaceOnUse"><stop offset=".185" stop-color="#5ea0ef"/><stop offset="1" stop-color="#0078d4"/></radialGradient></defs><g transform="translate(-5.67 -4.534)"><title>Page-1</title><g transform="translate(5.67 -34.016)"><title>Static Web Folder.14785</title><title>e40d5f91-938d-4a7c-b99f-1542f68</title><title>Sheet.14787</title><title>Sheet.14788</title><path d="M55.37 43.59H30.64a1.32 1.293 0 0 1-.74-.22l-7.06-4.6a1.323 1.296-180 0 0-.74-.22H1.33A1.323 1.296-180 0 0 0 39.85v42.76a1.323 1.296-180 0 0 1.33 1.3h54.04a1.323 1.296-180 0 0 1.32-1.3V44.88a1.323 1.296-180 0 0-1.32-1.29" style="fill:#dfa500;stroke:none;stroke-width:.75;stroke-linecap:butt"/><g transform="translate(5.153 -40.347)"><title>Sheet.14789</title><path d="M0 83.37a.542.53-180 0 0 .542.53l11.798.01a.542.53-180 0 0 .542-.53l.008-1.47a.542.53-180 0 0-.542-.53H.54a.542.53-180 0 0-.542.53z" style="fill:#fff;stroke:none;stroke-width:.75;stroke-linecap:butt"/></g><g transform="translate(0 -.065)"><title>Sheet.14790</title><path d="M55.37 43.59H28.21a1.326 1.299-180 0 0-.95.38l-4.36 4.28a1.323 1.296 0 0 1-.94.38H1.33A1.323 1.296-180 0 0 0 49.93v32.68a1.323 1.296-180 0 0 1.33 1.3h54.04a1.323 1.296-180 0 0 1.32-1.3V44.89a1.323 1.296-180 0 0-1.32-1.3" style="fill:url(#b);stroke:none;stroke-width:.75;stroke-linecap:butt"/></g><g transform="translate(28.224 -7.13)"><title>Sheet.14791</title><path d="M10.65 65.77v12.07L0 83.91v-12.1z" style="fill:#f78d1e;stroke:none;stroke-width:.75;stroke-linecap:butt"/></g><g transform="translate(17.575 -19.203)"><title>Sheet.14792</title><path d="m21.3 77.84-10.65 6.07L0 77.84l10.65-6.07Z" style="fill:#ffb34d;stroke:none;stroke-width:.75;stroke-linecap:butt"/></g><g transform="translate(17.575 -7.13)"><title>Sheet.14793</title><path d="M10.65 71.83v12.08L0 77.84V65.77Z" style="fill:#faa21d;stroke:none;stroke-width:.75;stroke-linecap:butt"/></g><title>Sheet.14794</title><title>Sheet.14795</title><path d="M55.37 43.59H30.64a1.32 1.293 0 0 1-.74-.22l-7.06-4.6a1.323 1.296-180 0 0-.74-.22H1.33A1.323 1.296-180 0 0 0 39.85v42.76a1.323 1.296-180 0 0 1.33 1.3h54.04a1.323 1.296-180 0 0 1.32-1.3V44.88a1.323 1.296-180 0 0-1.32-1.29" style="fill:#dfa500;stroke:none;stroke-width:.75;stroke-linecap:butt"/><g transform="translate(5.153 -40.347)"><title>Sheet.14796</title><path d="M0 83.37a.542.53-180 0 0 .542.53l11.798.01a.542.53-180 0 0 .542-.53l.008-1.47a.542.53-180 0 0-.542-.53H.54a.542.53-180 0 0-.542.53z" style="fill:#fff;stroke:none;stroke-width:.75;stroke-linecap:butt"/></g><g transform="translate(0 -.065)"><title>Sheet.14797</title><path d="M55.37 43.59H28.21a1.326 1.299-180 0 0-.95.38l-4.36 4.28a1.323 1.296 0 0 1-.94.38H1.33A1.323 1.296-180 0 0 0 49.93v32.68a1.323 1.296-180 0 0 1.33 1.3h54.04a1.323 1.296-180 0 0 1.32-1.3V44.89a1.323 1.296-180 0 0-1.32-1.3" style="fill:url(#c);stroke:none;stroke-width:.75;stroke-linecap:butt"/></g><g transform="translate(18.417 -9.67)"><title>a1911e4e-9624-47fa-b357-e147189</title><path d="M17.51 83.91A12.373 12.12 0 1 1 2.35 64.75l.12-.09a12.373 12.12 0 0 1 15.04 19.25" style="fill:url(#d);stroke:none;stroke-width:.75;stroke-linecap:butt"/></g><g transform="translate(17.638 -10.055)"><title>Sheet.14799</title><g transform="translate(.006 -5.751)"><title>Sheet.14800</title><ellipse cx="3.975" cy="80.012" rx="3.975" ry="3.894" style="fill:url(#e);stroke:none;stroke-width:.75;stroke-linecap:butt"/></g><g transform="translate(9.776)"><title>Sheet.14801</title><ellipse cx="2.583" cy="81.376" rx="2.583" ry="2.53" style="fill:url(#f);stroke:none;stroke-width:.75;stroke-linecap:butt"/></g><g transform="translate(15.505 -6.121)"><title>Sheet.14802</title><ellipse cx="2.743" cy="81.218" rx="2.743" ry="2.687" style="fill:#fff;stroke:none;stroke-width:.75;stroke-linecap:butt"/></g><g transform="translate(0 -.417)"><title>Sheet.14803</title><g transform="translate(0 -.447)"><title>Sheet.14804</title><path d="M0 81.67a13.25 12.98-180 0 0 .91 1.31 12.1 11.854-180 0 0 .8.93 25.88 25.352 0 0 1 1.58-4.94 3.946 3.866 0 0 1-2.07-1.03A27.638 27.074-180 0 0 0 81.67" style="fill:#f2f2f2;fill-opacity:.55;stroke:none;stroke-width:.75;stroke-linecap:butt"/></g><g transform="translate(.04 -11.647)"><title>Sheet.14805</title><path d="M2.6 82.66a17.367 17.013 0 0 1-1-4.2A12.353 12.1-180 0 0 0 80.54a19.3 18.907-180 0 0 .83 3.37 3.972 3.89 0 0 1 1.77-1.25" style="fill:#f2f2f2;fill-opacity:.55;stroke:none;stroke-width:.75;stroke-linecap:butt"/></g><g transform="translate(4.712 -1.79)"><title>Sheet.14806</title><path d="M2.17 79.12A3.95 3.869 0 0 1 0 80.29a16.84 16.497-180 0 0 2.11 1.84 17.912 17.546-180 0 0 2.98 1.78 2.346 2.299 0 0 1-.04-.33 2.567 2.515 0 0 1 .78-1.81 17.53 17.173 0 0 1-3.66-2.65" style="fill:#f2f2f2;fill-opacity:.55;stroke:none;stroke-width:.75;stroke-linecap:butt"/></g><g transform="translate(14.198)"><title>Sheet.14807</title><path d="M.74 81.63v.16A2.583 2.53 0 0 1 0 83.56a20.195 19.783-180 0 0 4.96.35 12.246 11.996-180 0 0 1.68-1.92 17.515 17.158 0 0 1-1.89.1 17.175 16.824 0 0 1-4.01-.46" style="fill:#f2f2f2;fill-opacity:.55;stroke:none;stroke-width:.75;stroke-linecap:butt"/></g><g transform="translate(5.395 -8.873)"><title>Sheet.14808</title><path d="M11.03 82.49a38.702 37.913 0 0 1-4.74-4.04 19.792 19.388 0 0 1 8.63-2.07 12.217 11.968-180 0 0-2.16-2.06 21.04 20.61-180 0 0-6.84 1.58c-.47.2-.89.49-1.34.72l-.04-.04a24.835 24.328 0 0 1-2.89-4.17 12.369 12.116-180 0 0-1.57.6 26.085 25.553-180 0 0 3.01 4.43A17.767 17.404-180 0 0 0 79.9a3.975 3.894 0 0 1 1.96 1.57 17.046 16.698 0 0 1 2.83-2.16 40.13 39.31-180 0 0 5.36 4.6 2.696 2.641 0 0 1 .88-1.42" style="fill:#f2f2f2;fill-opacity:.55;stroke:none;stroke-width:.75;stroke-linecap:butt"/></g><g transform="translate(19.965 -4.989)"><title>Sheet.14809</title><path d="m2.43 82.08-.05-.03-.43-.23-.08-.04-.39-.21-.09-.05-.46-.26A2.58 2.527 0 0 1 0 82.58l.54.31.13.07.5.27.05.03c.41.21.83.43 1.26.65a12.315 12.064-180 0 0 .41-1.59z" style="fill:#f2f2f2;fill-opacity:.55;stroke:none;stroke-width:.75;stroke-linecap:butt"/></g></g><g transform="translate(.006 -5.751)"><title>Sheet.14810</title><ellipse cx="3.975" cy="80.012" rx="3.975" ry="3.894" style="fill:#fff;stroke:none;stroke-width:.75;stroke-linecap:butt"/></g><g transform="translate(9.776)"><title>Sheet.14811</title><ellipse cx="2.583" cy="81.376" rx="2.583" ry="2.53" style="fill:#fff;stroke:none;stroke-width:.75;stroke-linecap:butt"/></g></g></g></g></svg>