<svg xmlns="http://www.w3.org/2000/svg" xml:space="preserve" width="56.69" height="45.352" style="font-size:12px;overflow:visible;color-interpolation-filters:sRGB;fill-rule:evenodd;stroke-linecap:square;stroke-miterlimit:3" viewBox="0 0 56.69 45.352"><defs><linearGradient id="a" x1="0" x2="43.468" y1="104.386" y2="104.386" gradientTransform="scale(1.30417 .76677)" gradientUnits="userSpaceOnUse"><stop offset="0" stop-color="#005ba1"/><stop offset=".775" stop-color="#0078d4"/></linearGradient></defs><g transform="translate(-34 -34.003)"><title>Page-1</title><g transform="translate(34 -34.016)"><title>Static Web App.14812</title><title>Sheet.14813</title><title>Sheet.14814</title><path d="M0 80.04h56.69v31.45a1.89 1.88 0 0 1-1.89 1.88H1.89A1.89 1.88 0 0 1 0 111.49Z" style="fill:url(#a);stroke:none;stroke-width:34;stroke-linecap:butt"/><g transform="translate(4.123 -3.335)"><title>Sheet.14815</title><path d="M0 111.49a1.89 1.88-180 0 0 1.89 1.88h45.12a1.89 1.88-180 0 0 1.89-1.88V88.57a1.89 1.88-180 0 0-1.89-1.88H1.89A1.89 1.88-180 0 0 0 88.57Z" style="fill:#5ea0ef;fill-opacity:.6;stroke:none;stroke-width:34;stroke-linecap:butt"/></g><g transform="translate(0 -33.332)"><title>Sheet.14816</title><path d="M1.89 101.35H54.8a1.89 1.88 0 0 1 1.89 1.88v10.14H0v-10.14a1.89 1.88 0 0 1 1.89-1.88" style="fill:#005ba1;stroke:none;stroke-width:34;stroke-linecap:butt"/></g><g transform="translate(13.144 -8.322)"><title>Sheet.14817</title><path d="m9.25 112.23-1.01 1.01a.454.451 0 0 1-.646 0L.27 105.93a.913.909 0 0 1 0-1.285l1.01-1.005 7.97 7.95a.457.454 0 0 1-.003.643zm11.5 0 1.01 1.01a.454.451-180 0 0 .646 0l7.324-7.31a.913.909-180 0 0 0-1.285l-1.01-1.005-7.97 7.95a.457.454-180 0 0 .003.643z" style="fill:#fff;fill-opacity:.8;stroke:none;stroke-width:34;stroke-linecap:butt"/></g><g transform="translate(5.885 -5.867)"><title>Sheet.14818</title><path d="m15.63 94.78 1.01 1.01a.454.451 0 0 1 0 .643l-8.11 8.047-1.01-1.01a.91.906 0 0 1 0-1.285l7.46-7.405a.457.454 0 0 1 .646.003zm13.25 0-1.01 1.01a.454.451-180 0 0 0 .643l8.11 8.047 1.01-1a.92.915-180 0 0 0-1.288l-7.46-7.412a.454.451-180 0 0-.646.003zm-9.07 18.59-1.61-.51a.33.33 0 0 1-.211-.41l6.581-20.46a.315.313 0 0 1 .41-.21l1.61.51a.315.313 0 0 1 .211.407L20.22 113.17a.315.313 0 0 1-.41.197zM4.09 80.41a2.394 2.382 0 1 1-2.4-2.38 2.394 2.382 0 0 1 2.4 2.38m5.14-2.38a2.394 2.382-180 1 0 2.4 2.38 2.394 2.382-180 0 0-2.4-2.38m7.54 0a2.394 2.382-180 1 0 2.39 2.38 2.394 2.382-180 0 0-2.4-2.38z" style="fill:#fff;stroke:none;stroke-width:34;stroke-linecap:butt"/></g></g></g></svg>