<svg xmlns="http://www.w3.org/2000/svg" xml:space="preserve" width="56.683" height="45.36" style="font-size:12px;overflow:visible;color-interpolation-filters:sRGB;fill-rule:evenodd;stroke-linecap:square;stroke-miterlimit:3" viewBox="0 0 56.683 45.36"><defs><linearGradient id="a" x1="0" x2="44.487" y1="37.808" y2="37.808" gradientTransform="scale(.98074 1.01963)" gradientUnits="userSpaceOnUse"><stop offset="0" stop-color="#949494"/><stop offset=".33" stop-color="#9b9b9b"/><stop offset=".82" stop-color="#aeafb0"/><stop offset="1" stop-color="#b6b8b9"/></linearGradient></defs><g transform="translate(-5.677 -4.534)"><title>Page-1</title><g transform="translate(5.67 -34.016)"><title>Stream Analytics job.14765</title><g transform="translate(13.06)"><title>Sheet.14766</title><path d="M43.63 63.31v-5.28l-.31-.27-5.8-1.83-1.48-3.51 2.87-5.55.31-.62-1.89-1.8-2.2-2.03-.76.35-5.67 2.69-3.81-1.01-2.46-5.9h-5.64l-.28.27-1.96 5.4-3.96 1.38-6.56-2.95L0 46.34l.38.71 3.02 5.37a18.902 17.705 0 0 1 10.08-2.54 19.721 18.472 0 0 1 11.25 3.37 10.46 9.797 0 0 1 1.13.76A10.239 9.59 0 0 1 28.79 58a9.451 8.853 0 0 1 .67 3.27 10.176 9.531 0 0 1-10.24 9.53 10.302 9.65 0 0 1-5.89-1.74A19.879 18.62 0 0 1 .72 74.23l-.59 1.15 4.03 3.8.82-.2 5.67-2.95 3.9 1.5 2.49 6.38h5.67l.22-.74 2.02-5.64 3.84-1.5 6.65 2.95 4-3.72-.38-.71-2.93-5.28 1.2-3.69z" style="fill:url(#a);stroke:none;stroke-width:.75;stroke-linecap:butt"/></g><g transform="translate(4.294 -17.764)"><title>Sheet.14767</title><path d="M8.29 83.91a11.341 10.623 0 0 1-8.06-3.1 1.45 1.357 0 1 1 2.05-1.77 8.348 7.82-180 0 0 6.01 2.15 8.254 7.731-180 0 0 5.93-2.15 11.184 10.476 0 0 1 8.03-2.95 11.467 10.741 0 0 1 8.1 2.95 1.45 1.357 0 1 1-2.05 1.91 8.474 7.938-180 0 0-5.96-2.3 8.222 7.702-180 0 0-5.92 2.3 11.373 10.653 0 0 1-8.13 2.96" style="fill:#50e6ff;stroke:none;stroke-width:.75;stroke-linecap:butt"/></g><g transform="translate(8.619 -23.164)"><title>Sheet.14768</title><path d="M3.97 83.91A5.64 5.282 0 0 1 0 82.37a1.45 1.358 0 0 1 2.05-1.92 2.646 2.479-180 0 0 1.92.74 3.402 3.187-180 0 0 1.89-.74 17.2 16.112 0 0 1 24.16 0 1.45 1.357 0 0 1-2.04 1.92 14.334 13.426-180 0 0-20.2 0 6.112 5.725 0 0 1-3.81 1.54" style="fill:#50e6ff;stroke:none;stroke-width:.75;stroke-linecap:butt"/></g><g transform="translate(0 -12.364)"><title>Sheet.14769</title><path d="M12.59 83.91A17.043 15.964 0 0 1 .4 79.21a1.48 1.387 0 0 1 0-1.88 1.48 1.387 0 0 1 2.08 0 14.082 13.19-180 0 0 10.11 3.89 14.177 13.279-180 0 0 10.08-3.92 6.112 5.725 0 0 1 3.81-1.45 5.765 5.4 0 0 1 3.94 1.53 1.45 1.357 0 0 1 0 1.92 1.48 1.387 0 0 1-2.08 0 2.615 2.45-180 0 0-1.86-.74 3.15 2.95-180 0 0-1.89.77 17.043 15.964 0 0 1-12 4.58" style="fill:#32bedd;stroke:none;stroke-width:.75;stroke-linecap:butt"/></g></g></g></svg>