<svg xmlns="http://www.w3.org/2000/svg" xmlns:xlink="http://www.w3.org/1999/xlink" xml:space="preserve" width="56.688" height="53.626" style="font-size:12px;overflow:visible;color-interpolation-filters:sRGB;fill-rule:evenodd;stroke-linecap:square;stroke-miterlimit:3" viewBox="0 0 56.688 53.626"><defs><linearGradient id="a" x1="0" x2="1" y1="0" y2="0" gradientTransform="rotate(-90 .5 .5)"><stop offset="0" stop-color="#b3b2b3"/><stop offset=".38" stop-color="#afaeaf"/><stop offset=".76" stop-color="#a2a2a2"/><stop offset="1" stop-color="#979797"/></linearGradient><linearGradient id="d" x1="0" x2="27.993" y1="87.81" y2="87.81" gradientTransform="scale(.95022 1.05239)" gradientUnits="userSpaceOnUse"><stop offset="0" stop-color="#949494"/><stop offset=".33" stop-color="#9b9b9b"/><stop offset=".82" stop-color="#aeafb0"/><stop offset="1" stop-color="#b6b8b9"/></linearGradient><linearGradient xlink:href="#a" id="b" x1="0" x2="33.615" y1="68.395" y2="68.395" gradientTransform="scale(.83862 1.19243)" gradientUnits="userSpaceOnUse"/><linearGradient xlink:href="#a" id="c" x1="0" x2=".315" y1="123.505" y2="123.505" gradientTransform="scale(1.016 .98425)" gradientUnits="userSpaceOnUse"/></defs><g transform="translate(-34 -33.998)"><title>Page-1</title><g transform="translate(34 -34.016)"><title>Stream Analytics Cluster.14770</title><title> Cluster</title><g transform="translate(0 -14.257)"><title>Sheet.14772</title><path d="M19.32 120.61c.32-.32.95-.64 1.27-.95 0-.32.31-.64.31-.95a4.93 4.93 0 0 1 2.54-1.9c.31-.64.63-.96.95-1.27.63-.64 1.58-.95 2.53-1.27L26.6 113l-1.58-2.85 3.17-3.17V83.54c0-.63-.64-1.27-1.59-1.27H1.58c-.63 0-1.58.64-1.58 1.27v37.07c0 .95.95 1.26 1.58 1.26h16.79c.32-.31.63-.95.95-1.26" style="fill:#949494;stroke:none;stroke-width:34;stroke-linecap:butt"/></g><g transform="translate(4.117 -33.582)"><title>Sheet.14773</title><path d="M0 118.71c0-1.59 1.27-3.17 3.17-3.17h14.25c1.58 0 3.17 1.27 3.17 3.17 0 1.58-1.27 3.16-3.17 3.16H3.17c-1.59-.31-3.17-1.58-3.17-3.16m0-9.19c0-1.59 1.27-3.17 3.17-3.17h14.25c1.58 0 3.17 1.27 3.17 3.17 0 1.58-1.27 3.17-3.17 3.17H3.17C1.58 112.37 0 111.1 0 109.52" style="fill:#003067;stroke:none;stroke-width:34;stroke-linecap:butt"/></g><g transform="translate(5.068 -43.72)"><title>Sheet.14774</title><ellipse cx="2.217" cy="119.656" rx="2.217" ry="2.218" style="fill:#50e6ff;stroke:none;stroke-width:34;stroke-linecap:butt"/></g><g transform="translate(10.452)"><title>Sheet.14775</title><path d="M14.89 116.81c-2.22-.64-4.12-1.91-5.71-3.49-1.9-1.9-1.9-4.75 0-6.97.32-.32.96-.63 1.27-.95 0-.32.32-.63.32-.95.63-.95 1.58-1.58 2.53-1.9.32-.64.64-.95.95-1.27.64-.63 1.59-.95 2.54-1.27l-.64-1.26-1.58-2.85 6.65-6.34 4.43 2.22.64-1.9 1.9-1.91v-5.06c0-.95-.95-1.59-1.59-1.27H1.58c-.95 0-1.58.63-1.58 1.58v37.07c0 .95.95 1.58 1.58 1.27h18.06z" style="fill:url(#b);stroke:none;stroke-width:34;stroke-linecap:butt"/></g><g transform="translate(35.79 -.317)"><title>Sheet.14776</title><path d="M.32 121.87v-.31l-.32.31Z" style="fill:url(#c);stroke:none;stroke-width:34;stroke-linecap:butt"/></g><g transform="translate(30.088 -.317)"><title>Sheet.14777</title><path d="M26.6 108.25v-3.48l-.31-.32-3.49-1.27-.95-2.22 1.9-3.48.32-.32-1.27-1.26-1.26-1.27-.32.31-3.48 1.91-2.22-.64-1.58-3.8h-3.49l-.31.32-1.27 3.48-2.54.95-4.11-1.9L0 97.16l.32.32 1.9 3.48c1.9-1.26 4.11-1.58 6.01-1.58 2.54 0 4.76.63 6.97 2.22.32 0 .32.31.64.63.95.64 1.58 1.59 1.9 2.54.31.63.31 1.26.31 2.21 0 3.49-2.85 6.34-6.33 6.34-1.27 0-2.54-.32-3.49-1.27-2.21 1.9-4.75 3.17-7.6 3.49l-.31.63 2.53 2.54h.63l3.49-1.9 2.53.95 1.59 4.11h3.48v-.63l1.27-3.8 2.21-.95 4.12 1.9 2.53-2.54-.31-.31-1.9-3.49.63-2.53z" style="fill:url(#d);stroke:none;stroke-width:34;stroke-linecap:butt"/></g><g transform="translate(24.07 -12.039)"><title>Sheet.14778</title><path d="M5.7 121.87c-1.9 0-3.48-.63-5.07-1.9-.31-.31-.63-.63-.31-1.26.31-.64.95-.64 1.26-.32l.32.32c.95.95 2.22 1.58 3.8 1.26 1.27 0 2.53-.31 3.48-1.26 1.27-1.27 3.17-1.9 5.07-1.9s3.49.63 5.07 1.9c.32.31.32.95 0 1.26-.32.32-.95.32-1.27 0-.95-.95-2.21-1.58-3.8-1.58-1.26 0-2.53.63-3.48 1.58-1.59 1.27-3.17 1.9-5.07 1.9" style="fill:#50e6ff;stroke:none;stroke-width:34;stroke-linecap:butt"/></g><g transform="translate(26.921 -15.524)"><title>Sheet.14779</title><path d="M2.85 121.87c-.95 0-1.9-.31-2.53-.95-.32-.31-.32-.95 0-1.26.31-.32.95-.32 1.26 0 .32.31.64.63 1.27.63.32 0 .95-.32 1.27-.63a10.5 10.5 0 0 1 14.88 0c.32.31.32.95 0 1.26-.31.32-.95.32-1.26 0-3.49-3.48-8.87-3.48-12.36 0-.95.64-1.58.95-2.53.95" style="fill:#50e6ff;stroke:none;stroke-width:34;stroke-linecap:butt"/></g><g transform="translate(21.854 -8.554)"><title>Sheet.14780</title><path d="M7.92 121.87c-2.85 0-5.39-.95-7.6-3.16-.32-.32-.32-.95 0-1.27.31-.32.95-.32 1.26 0 3.49 3.48 8.87 3.48 12.36 0 .63-.63 1.58-.95 2.21-.95.95 0 1.9.32 2.54.95.31.32.31.95 0 1.27-.32.31-.95.31-1.27 0-.32-.32-.63-.64-1.27-.64-.31 0-.95.32-1.26.64-1.59 2.21-4.12 3.16-6.97 3.16" style="fill:#32bedd;stroke:none;stroke-width:34;stroke-linecap:butt"/></g><g transform="translate(13.936 -20.276)"><title>Sheet.14781</title><path d="m17.74 109.84 2.53 1.26c.32-.31.32-.95.32-1.26 0-1.59-1.27-3.17-3.17-3.17H3.17c-1.59 0-3.17 1.26-3.17 3.17 0 1.9 1.27 3.16 3.17 3.16h11.4zm-6.97 11.4c.63-.63 1.58-.95 2.53-1.27l-.63-.95-1.58-2.85.31-.32H3.17c-1.59 0-3.17 1.59-2.85 3.17a2.83 2.83 0 0 0 2.85 2.85h6.65c.63 0 .63-.31.95-.63" style="fill:#003067;stroke:none;stroke-width:34;stroke-linecap:butt"/></g><g transform="translate(5.068 -34.533)"><title>Sheet.14782</title><ellipse cx="2.217" cy="119.656" rx="2.217" ry="2.218" style="fill:#50e6ff;stroke:none;stroke-width:34;stroke-linecap:butt"/></g><g transform="translate(15.203 -30.097)"><title>Sheet.14783</title><ellipse cx="2.217" cy="119.656" rx="2.217" ry="2.218" style="fill:#50e6ff;stroke:none;stroke-width:34;stroke-linecap:butt"/></g><g transform="translate(15.203 -20.91)"><title>Sheet.14784</title><ellipse cx="2.217" cy="119.656" rx="2.217" ry="2.218" style="fill:#50e6ff;stroke:none;stroke-width:34;stroke-linecap:butt"/></g></g></g></svg>