<svg xmlns="http://www.w3.org/2000/svg" xml:space="preserve" width="55.102" height="53.864" style="font-size:12px;overflow:visible;color-interpolation-filters:sRGB;fill-rule:evenodd;stroke-linecap:square;stroke-miterlimit:3" viewBox="0 0 55.102 53.864"><defs><linearGradient id="a" x1=".782" x2="55.262" y1="39.85" y2="39.85" gradientTransform="scale(1.01142 .9887)" gradientUnits="userSpaceOnUse"><stop offset="0" stop-color="#e498e1"/><stop offset=".46" stop-color="#9f2a9c"/><stop offset="1" stop-color="#581756"/></linearGradient></defs><g transform="translate(-6.46 -5.384)"><title>Page-1</title><g transform="translate(5.67 -34.016)"><title>Web Socket.14726</title><title>path9</title><path d="M55.45 58.24c-1.25-3.13-4.69-4.58-7.69-3.28-2.49 1.07-3.96 3.81-3.59 6.48l-9.45 4.12c-1.03-1.83-2.86-3.2-4.91-3.59v-10.6c2.49-.68 4.4-3.05 4.4-5.87 0-3.35-2.64-6.1-5.86-6.1-3.23 0-5.86 2.75-5.86 6.1 0 2.82 1.9 5.19 4.39 5.87V61.9c-2.12.38-3.88 1.75-4.91 3.58l-9.45-4.12c.37-2.67-1.02-5.41-3.58-6.48-3.01-1.29-6.45.16-7.69 3.28-1.25 3.13.14 6.71 3.14 8.01a5.667 5.693-180 0 0 6.89-1.98l9.67 4.11c-.07.31-.07.69-.07 1 0 1.67.51 3.27 1.46 4.57l-7.62 8.01c-2.27-1.37-5.2-1.07-7.1.91-2.27 2.37-2.27 6.26 0 8.62a5.734 5.76-180 0 0 8.27 0c1.91-1.98 2.2-5.03.88-7.4l7.77-8.08A6.891 6.922-180 0 0 28.2 77h.29c1.32 0 2.57-.38 3.67-1.07l7.76 8.08c-1.32 2.37-1.03 5.42.88 7.48a5.735 5.761-180 0 0 8.28 0c2.27-2.37 2.27-6.26 0-8.62-1.91-1.98-4.84-2.29-7.11-.92l-7.62-8c.96-1.3 1.47-2.82 1.47-4.58 0-.3 0-.68-.08-.99l9.67-4.12c1.54 2.14 4.4 3.05 6.89 1.99 2.93-1.38 4.39-4.89 3.15-8.01" style="fill:url(#a)"/></g></g></svg>