<svg xmlns="http://www.w3.org/2000/svg" xml:space="preserve" width="56.694" height="53.861" style="font-size:12px;overflow:visible;color-interpolation-filters:sRGB;fill-rule:evenodd;stroke-linecap:square;stroke-miterlimit:3" viewBox="0 0 56.694 53.861"><defs><linearGradient id="a" x1="0" x2="34.263" y1="106.082" y2="106.082" gradientTransform="scale(1.15198 .86807)" gradientUnits="userSpaceOnUse"><stop offset="0" stop-color="#198ab3"/><stop offset=".13" stop-color="#21a0c7"/><stop offset=".31" stop-color="#28b7db"/><stop offset=".5" stop-color="#2ec7ea"/><stop offset=".72" stop-color="#31d1f2"/><stop offset="1" stop-color="#32d4f5"/></linearGradient><linearGradient id="b" x1="-.001" x2="12.99" y1="109.557" y2="109.557" gradientTransform="scale(1.00548 .99455)" gradientUnits="userSpaceOnUse"><stop offset="0" stop-color="#ccc"/><stop offset=".12" stop-color="#d7d7d7"/><stop offset=".42" stop-color="#ebebeb"/><stop offset=".72" stop-color="#f8f8f8"/><stop offset="1" stop-color="#fcfcfc"/></linearGradient><linearGradient id="c" x1="-.117" x2="7.676" y1="114.755" y2="114.755" gradientTransform="scale(1.00548 .99455)" gradientUnits="userSpaceOnUse"><stop offset="0" stop-color="#ccc"/><stop offset=".12" stop-color="#d7d7d7"/><stop offset=".42" stop-color="#ebebeb"/><stop offset=".72" stop-color="#f8f8f8"/><stop offset="1" stop-color="#fcfcfc"/></linearGradient><linearGradient id="d" x1=".002" x2="7.795" y1="114.755" y2="114.755" gradientTransform="scale(1.00548 .99455)" gradientUnits="userSpaceOnUse"><stop offset="0" stop-color="#ccc"/><stop offset=".12" stop-color="#d7d7d7"/><stop offset=".42" stop-color="#ebebeb"/><stop offset=".72" stop-color="#f8f8f8"/><stop offset="1" stop-color="#fcfcfc"/></linearGradient><linearGradient id="e" x1=".002" x2="7.795" y1="114.755" y2="114.755" gradientTransform="scale(1.00548 .99455)" gradientUnits="userSpaceOnUse"><stop offset="0" stop-color="#ccc"/><stop offset=".12" stop-color="#d7d7d7"/><stop offset=".42" stop-color="#ebebeb"/><stop offset=".72" stop-color="#f8f8f8"/><stop offset="1" stop-color="#fcfcfc"/></linearGradient></defs><g transform="translate(-34 -34.003)"><title>Page-1</title><g transform="translate(34 -34.016)"><title>Web PubSub Service Replica.14739</title><g transform="translate(17.224 -24.068)"><title>path4</title><path d="M39.47 112.43a9.813 9.707-180 0 0-2.26-6.04 8.723 8.628-180 0 0-5.44-3.04 12.252 12.12-180 0 0-3.55-8.11 10.793 10.676-180 0 0-7.94-3.15 10.996 10.876-180 0 0-6.69 2.13 12.17 12.038-180 0 0-4.28 5.83 10.367 10.255-180 0 0-6.55 3.55A11.67 11.543-180 0 0 0 110.8c.04 1.5.36 2.97.93 4.33.58 1.37 1.41 2.6 2.45 3.62a10.6 10.6 0 0 0 3.58 2.36c1.32.52 2.74.77 4.16.71h19.45a8.727 8.632-180 0 0 6.27-2.77 9.906 9.798-180 0 0 2.63-6.62" style="fill:url(#a);stroke:none;stroke-width:34;stroke-linecap:butt"/></g><g transform="translate(26.621 -29.694)"><title>path6</title><path d="m20.38 108.82-5.31-5.2c-.58-.59-1.07-.38-1.07.52v2.35a.66.653 0 0 1-.415.604.628.622 0 0 1-.252.039C9.9 107.13.35 108.03 0 121.21c0 .17.07.35.2.47a.66.653-180 0 0 .472.197l3.398.003a.657.65-180 0 0 .494-.218.682.674-180 0 0 .173-.512 8.315 8.225 0 0 1 1.873-7.13c.85-.95 1.91-1.68 3.1-2.14s2.47-.62 3.73-.48c.18 0 .35.07.47.2a.685.678 0 0 1 .199.474l.001 2.166c0 1.08.35 1.26 1.07.53l5.2-4.83a.675.667-180 0 0 .291-.555.692.685-180 0 0-.291-.558z" style="fill:#fff;stroke:none;stroke-width:34;stroke-linecap:butt"/></g><title>path8</title><path d="M0 85.73c0-1.43 1.17-2.58 2.61-2.58h33.94c1.44 0 2.61 1.15 2.61 2.58v33.57a2.61 2.581 0 0 1-2.61 2.58H2.61A2.61 2.581 0 0 1 0 119.3Z" style="fill:#0078d7;stroke:none;stroke-width:34;stroke-linecap:butt"/><title>path10</title><path d="M20.88 101.22V83.15h-2.61v18.07H0v2.58h18.27v18.08h2.61V103.8h18.28v-2.58z" style="fill:#fff;fill-opacity:.8;stroke:none;stroke-width:34;stroke-linecap:butt"/><g transform="translate(7.832 -7.744)"><title>path12</title><path d="M0 98.636h2.61v23.241H0z" style="fill:#fff;stroke:none;stroke-width:34;stroke-linecap:butt"/></g><g transform="translate(8.77 -9.805)"><title>path14</title><path d="m0 102.51 1.85-1.82 19.57 19.36-1.84 1.83z" style="fill:#fff;stroke:none;stroke-width:34;stroke-linecap:butt"/></g><g transform="translate(10.438 -28.403)"><title>path16</title><path d="M20.89 121.88H0v-2.58h20.88v2.58z" style="fill:#fff;stroke:none;stroke-width:34;stroke-linecap:butt"/></g><g transform="translate(2.611 -23.238)"><title>path18</title><path d="M6.53 121.88a6.53 6.46-180 1 0 0-12.92 6.53 6.46-180 0 0 0 12.92" style="fill:url(#b);stroke:none;stroke-width:34;stroke-linecap:butt"/></g><g transform="translate(26.224 -25.822)"><title>path20</title><path d="M3.8 121.88a3.918 3.875-180 1 0 0-7.75 3.918 3.875-180 0 0 0 7.75" style="fill:url(#c);stroke:none;stroke-width:34;stroke-linecap:butt"/></g><g transform="translate(5.223 -5.162)"><title>path22</title><path d="M3.92 121.88a3.918 3.875-180 1 0 0-7.75 3.918 3.875-180 0 0 0 7.75" style="fill:url(#d);stroke:none;stroke-width:34;stroke-linecap:butt"/></g><g transform="translate(26.106 -5.162)"><title>path24</title><path d="M3.92 121.88a3.918 3.875-180 1 0 0-7.75 3.918 3.875-180 0 0 0 7.75" style="fill:url(#e);stroke:none;stroke-width:34;stroke-linecap:butt"/></g></g></g></svg>