<svg xmlns="http://www.w3.org/2000/svg" xml:space="preserve" width="56.69" height="45.356" style="font-size:12px;overflow:visible;color-interpolation-filters:sRGB;fill-rule:evenodd;stroke-linecap:square;stroke-miterlimit:3" viewBox="0 0 56.69 45.356"><defs><linearGradient id="a" x1="0" x2="43.475" y1="105.518" y2="105.518" gradientTransform="scale(1.30398 .76688)" gradientUnits="userSpaceOnUse"><stop offset="0" stop-color="#0078d4"/><stop offset=".5" stop-color="#4093e6"/><stop offset=".775" stop-color="#5ea0ef"/></linearGradient><linearGradient id="b" x1="-.008" x2="5.98" y1="45.22" y2="45.22" gradientTransform="scale(.44816 2.23132)" gradientUnits="userSpaceOnUse"><stop offset="0" stop-color="#5ea0ef"/><stop offset=".37" stop-color="#9fc6f5"/><stop offset=".8" stop-color="#e4effc"/><stop offset="1" stop-color="#fff"/></linearGradient><linearGradient id="c" x1="0" x2="5.992" y1="45.177" y2="45.177" gradientTransform="scale(.44783 2.233)" gradientUnits="userSpaceOnUse"><stop offset="0" stop-color="#fff"/><stop offset=".2" stop-color="#e4effc"/><stop offset=".63" stop-color="#9fc6f5"/><stop offset="1" stop-color="#5ea0ef"/></linearGradient></defs><g transform="translate(-34.451 -34.453)"><title>Page-1</title><g transform="translate(34.451 -34.451)"><title>Web App File.14756</title><title>MsPortalFx.base.images-27</title><title>path4</title><path d="M0 80.92h56.69v31.45a1.894 1.885 0 0 1-1.89 1.89H1.89A1.894 1.885 0 0 1 0 112.37Z" style="fill:url(#a);stroke:none;stroke-width:34.45130157;stroke-linecap:butt"/><g transform="translate(0 -33.336)"><title>path6</title><path d="M1.9 102.24h52.89a1.894 1.885 0 0 1 1.89 1.88v10.14H0v-10.14a1.894 1.885 0 0 1 1.9-1.88" style="fill:#0078d4;stroke:none;stroke-width:34.45130157;stroke-linecap:butt"/></g><g transform="rotate(-44.919 -.007 86.103)"><title>path8</title><path d="M1.05 100.9h1.63v12.84a.524.521 0 0 1-.524.521L.52 114.26a.524.521 0 0 1-.524-.521L0 101.94a1.047 1.042 0 0 1 1.05-1.04" style="fill:url(#b);stroke:none;stroke-width:34.45130157;stroke-linecap:butt"/></g><g transform="translate(10.842 -15.795)"><title>path10</title><path d="m1.46 114.26-1.15-1.15a1.047 1.042 0 0 1 0-1.48l8.54-8.47a.524.521 0 0 1 .74 0l1.15 1.15a.524.521 0 0 1 0 .737z" style="fill:#f2f2f2;stroke:none;stroke-width:34.45130157;stroke-linecap:butt"/></g><g transform="rotate(-135.081 19.145 95.991)"><title>path12</title><path d="M.52 100.88h1.64a.524.521 0 0 1 .524.521L2.68 114.26H1.05A1.047 1.042 0 0 1 0 113.22V101.4a.524.521 0 0 1 .524-.521z" style="fill:url(#c);stroke:none;stroke-width:34.45130157;stroke-linecap:butt"/></g><g transform="translate(34.276 -15.792)"><title>path14</title><path d="m.15 104.31 1.16-1.15a.524.521 0 0 1 .74 0l8.53 8.47a1.047 1.042 0 0 1 .01 1.48l-1.15 1.15-9.28-9.2a.524.521 0 0 1-.007-.743z" style="fill:#f2f2f2;stroke:none;stroke-width:34.45130157;stroke-linecap:butt"/></g><g transform="rotate(17.752 31.782 184.857)"><title>rect16</title><path d="M0 113.89a.374.372-180 0 0 .374.372l1.936-.002a.374.372-180 0 0 .374-.372L2.69 89.3a.374.372-180 0 0-.374-.372L.37 88.93a.374.372-180 0 0-.374.372z" style="fill:#f2f2f2;stroke:none;stroke-width:34.45130157;stroke-linecap:butt"/></g></g></g></svg>