<svg xmlns="http://www.w3.org/2000/svg" xml:space="preserve" width="54.806" height="51.284" style="font-size:12px;overflow:visible;color-interpolation-filters:sRGB;fill-rule:evenodd;stroke-linecap:square;stroke-miterlimit:3" viewBox="0 0 54.806 51.284"><g transform="translate(-12.24 -12.241)"><title>Page-1</title><g transform="translate(11.804 -34.016)"><title>Web Hook.14751</title><title>Sheet.14752</title><g transform="translate(7.745 -8.594)"><title>Sheet.14753</title><path d="M18.38 76.35c-2.28 3.85-4.47 7.58-6.7 11.28-.57.95-.85 1.72-.4 2.93 1.27 3.34-.51 6.59-3.86 7.47-3.16.83-6.24-1.25-6.87-4.65-.55-3.01 1.77-5.96 5.07-6.43.28-.04.56-.04 1.02-.08l5.03-8.46C8.51 75.26 6.63 71.57 7.04 67c.3-3.23 1.56-6.02 3.87-8.31 4.43-4.38 11.18-5.09 16.38-1.73 5.01 3.23 7.3 9.53 5.35 14.91l-4.59-1.25c.61-2.99.16-5.68-1.85-7.99-1.33-1.52-3.03-2.31-4.97-2.61-3.88-.59-7.69 1.92-8.82 5.75-1.29 4.35.66 7.9 5.97 10.58" style="fill:#c73a63;stroke:none;stroke-width:12.23999977;stroke-linecap:butt"/></g><g transform="translate(22.342)"><title>Sheet.14754</title><path d="m10.29 63.2 4.85 8.6c8.17-2.54 14.33 2.01 16.54 6.87 2.67 5.88.85 12.84-4.4 16.47-5.38 3.72-12.18 3.09-16.95-1.7l3.74-3.14c4.71 3.06 8.83 2.92 11.89-.71 2.6-3.1 2.55-7.71-.14-10.75-3.09-3.49-7.24-3.6-12.25-.24-2.08-3.71-4.2-7.39-6.21-11.12-.68-1.26-1.43-1.99-2.96-2.26C1.85 64.78.2 62.57.1 60.1c-.1-2.44 1.33-4.65 3.57-5.52 2.22-.85 4.82-.16 6.31 1.74 1.22 1.54 1.61 3.29.97 5.2-.18.53-.41 1.04-.66 1.68" style="fill:#4b4b4b;stroke:none;stroke-width:12.23999977;stroke-linecap:butt"/></g><g transform="translate(0 -1.257)"><title>Sheet.14755</title><path d="M36.47 87.74h-9.83c-.95 3.89-2.98 7.04-6.49 9.04-2.73 1.55-5.67 2.08-8.8 1.57C5.59 97.42.88 92.21.47 86.34 0 79.69 4.55 73.78 10.61 72.45l1.26 4.6c-5.56 2.85-7.49 6.44-5.93 10.93 1.37 3.96 5.26 6.12 9.48 5.28 4.32-.85 6.49-4.46 6.23-10.24 4.09 0 8.18-.04 12.27.02 1.6.03 2.83-.14 4.04-1.56 1.98-2.32 5.62-2.11 7.76.09 2.18 2.24 2.07 5.86-.23 8.01-2.23 2.08-5.75 1.97-7.83-.27-.43-.46-.77-1.01-1.19-1.57" style="fill:#4a4a4a;stroke:none;stroke-width:12.23999977;stroke-linecap:butt"/></g></g></g></svg>