<svg xmlns="http://www.w3.org/2000/svg" xmlns:xlink="http://www.w3.org/1999/xlink" xml:space="preserve" width="56.69" height="56.69" style="font-size:12px;overflow:visible;color-interpolation-filters:sRGB;fill-rule:evenodd;stroke-linecap:square;stroke-miterlimit:3" viewBox="0 0 56.69 56.69"><defs><linearGradient id="b" x1="0" x2="18.898" y1="109.795" y2="109.795" gradientUnits="userSpaceOnUse"><stop offset="0" stop-color="#ccc"/><stop offset=".12" stop-color="#d7d7d7"/><stop offset=".42" stop-color="#ebebeb"/><stop offset=".72" stop-color="#f8f8f8"/><stop offset="1" stop-color="#fcfcfc"/></linearGradient><linearGradient id="c" x1="0" x2="11.339" y1="117.355" y2="117.355" gradientUnits="userSpaceOnUse"><stop offset="0" stop-color="#ccc"/><stop offset=".12" stop-color="#d7d7d7"/><stop offset=".42" stop-color="#ebebeb"/><stop offset=".72" stop-color="#f8f8f8"/><stop offset="1" stop-color="#fcfcfc"/></linearGradient><linearGradient id="a" x1="0" x2="1" y1="0" y2="0" gradientTransform="rotate(-90.422 .5 .5)"><stop offset="0" stop-color="#ccc"/><stop offset=".12" stop-color="#d7d7d7"/><stop offset=".42" stop-color="#ebebeb"/><stop offset=".72" stop-color="#f8f8f8"/><stop offset="1" stop-color="#fcfcfc"/></linearGradient><linearGradient xlink:href="#a" id="d" x1="0" x2="11.339" y1="117.355" y2="117.355" gradientUnits="userSpaceOnUse"/><linearGradient xlink:href="#a" id="e" x1="0" x2="11.339" y1="117.355" y2="117.355" gradientUnits="userSpaceOnUse"/></defs><g transform="translate(-36 -36)"><title>Page-1</title><g transform="translate(36 -36)"><title>Web PubSub Service.14728</title><title>g24</title><title>path4</title><path d="M0 75.78C0 73.69 1.69 72 3.78 72h49.13c2.09 0 3.78 1.69 3.78 3.78v49.13c0 2.09-1.69 3.78-3.78 3.78H3.78C1.69 128.69 0 127 0 124.91Z" style="fill:#0078d7;stroke:none;stroke-width:36;stroke-linecap:butt"/><title>path6</title><path d="M30.24 98.46V72h-3.78v26.46H0v3.78h26.46v26.45h3.78v-26.45h26.45v-3.78z" style="fill:#fff;fill-opacity:.8;stroke:none;stroke-width:36;stroke-linecap:butt"/><g transform="translate(11.339 -11.339)"><title>path8</title><path d="M0 128.69V94.68h3.78v34.01z" style="fill:#fff;stroke:none;stroke-width:36;stroke-linecap:butt"/></g><g transform="translate(12.835 -12.835)"><title>path10</title><path d="m0 100.35 2.68-2.68 28.34 28.35-2.67 2.67z" style="fill:#fff;stroke:none;stroke-width:36;stroke-linecap:butt"/></g><g transform="translate(15.118 -41.575)"><title>path12</title><path d="M30.24 128.69H0v-3.78h30.24z" style="fill:#fff;stroke:none;stroke-width:36;stroke-linecap:butt"/></g><g transform="translate(3.78 -34.016)"><title>circle14</title><circle cx="9.449" cy="119.244" r="9.449" style="fill:url(#b);stroke:none;stroke-width:36;stroke-linecap:butt"/></g><g transform="translate(37.795 -37.795)"><title>circle16</title><circle cx="5.669" cy="123.024" r="5.669" style="fill:url(#c);stroke:none;stroke-width:36;stroke-linecap:butt"/></g><g transform="translate(7.56 -7.56)"><title>circle18</title><circle cx="5.669" cy="123.024" r="5.669" style="fill:url(#d);stroke:none;stroke-width:36;stroke-linecap:butt"/></g><g transform="translate(37.795 -7.56)"><title>circle20</title><circle cx="5.669" cy="123.024" r="5.669" style="fill:url(#e);stroke:none;stroke-width:36;stroke-linecap:butt"/></g></g></g></svg>