<svg xmlns="http://www.w3.org/2000/svg" xml:space="preserve" width="56.693" height="56.693" style="font-size:12px;overflow:visible;color-interpolation-filters:sRGB;fill-rule:evenodd;stroke-linecap:square;stroke-miterlimit:3" viewBox="0 0 56.693 56.693"><g transform="translate(-38.25 -38.25)"><title>Page-1</title><g transform="translate(38.25 -38.25)"><title>Wordpress and MySQL Flexible server.14722</title><title> Wordpress</title><title>Sheet.14724</title><path d="M0 76.5h56.693v56.693H0z" style="fill:#00749a;stroke:none;stroke-width:38.25;stroke-linecap:butt"/><g transform="translate(5.556 -5.556)"><title>Sheet.14725</title><path d="M0 110.4a22.65 22.65 0 0 1 1.98-9.27l10.86 29.78A22.78 22.78 0 0 1 0 110.4m22.79 22.79a22.7 22.7 0 0 1-6.44-.93l6.84-19.86 7.01 19.19a2.4 2.4-180 0 0 .16.31 22.7 22.7 0 0 1-7.57 1.29m3.14-33.47c1.38-.08 2.61-.22 2.61-.22a.943.943-180 0 0-.142-1.878c.002-.002-3.698.298-6.078.298-2.24 0-6-.3-6-.3a.943.943-180 0 0-.149 1.878c-.001.002 1.159.142 2.389.222l3.55 9.73-4.99 14.96-8.29-24.69c1.37-.08 2.6-.22 2.6-.22a.943.943-180 0 0-.142-1.878c.002-.002-3.688.298-6.068.298l-1.47-.03a22.78 22.78 0 0 1 34.43-4.29l-.29-.02a3.94 3.94-180 0 0-3.83 4.04 10.7 10.7-180 0 0 2.24 5.34 12.05 12.05 0 0 1 1.88 6.29 21.3 21.3 0 0 1-1.74 7.37l-2.27 7.6zm8.32 30.38 6.97-20.13a21.5 21.5-180 0 0 1.73-8.15 17 17-180 0 0-.16-2.35 22.8 22.8 0 0 1-8.53 30.64z" style="fill:#fff;stroke:none;stroke-width:38.25;stroke-linecap:butt"/></g></g></g></svg>