<svg xmlns="http://www.w3.org/2000/svg" width="18" height="18" viewBox="0 0 18 18"><defs><linearGradient id="a" x1="8.34" x2="8.34" y1="11.96" y2="1.86" gradientUnits="userSpaceOnUse"><stop offset="0" stop-color="#d2ebff"/><stop offset="1" stop-color="#f0fffd"/></linearGradient><linearGradient id="b" x1="14.15" x2="14.15" y1="20.41" y2="2.34" gradientUnits="userSpaceOnUse"><stop offset="0" stop-color="#0078d4"/><stop offset=".17" stop-color="#1c84dc"/><stop offset=".38" stop-color="#3990e4"/><stop offset=".59" stop-color="#4d99ea"/><stop offset=".8" stop-color="#5a9eee"/><stop offset="1" stop-color="#5ea0ef"/></linearGradient><linearGradient id="c" x1="14.15" x2="14.15" y1="15.53" y2="5.2" href="#a"/></defs><title>Icon-intune-337</title><rect width="16.68" height="11.87" y="1.03" fill="#0078d4" rx=".6"/><rect width="14.74" height="10.1" x=".97" y="1.86" fill="url(#a)" opacity=".9" rx=".3"/><rect width="7.7" height="12.85" x="10.3" y="4.12" fill="url(#b)" rx=".3"/><rect width="1.77" height=".24" x="13.27" y="4.55" fill="#f2f2f2" rx=".11"/><rect width="6.25" height="10.33" x="11.03" y="5.2" fill="url(#c)" opacity=".9" rx=".14"/><rect width="1.77" height=".24" x="7.48" y="1.4" fill="#f2f2f2" rx=".11"/><rect width="8.42" height="8.42" x="3.04" y="7.75" fill="#76bc2d" rx="4.19"/><path fill="#fff" d="M9.78 11.41h-2v-2A.47.47 0 0 0 7.33 9h-.16a.47.47 0 0 0-.47.47v2h-2a.47.47 0 0 0-.46.47V12a.47.47 0 0 0 .46.47h2v2a.47.47 0 0 0 .47.46h.16a.47.47 0 0 0 .47-.46v-2h2a.47.47 0 0 0 .47-.47v-.16a.47.47 0 0 0-.49-.43"/><rect width=".86" height=".73" x="13.72" y="15.96" fill="#f2f2f2" rx=".2"/></svg>