<svg xmlns="http://www.w3.org/2000/svg" xml:space="preserve" width="75.586" height="75.586" style="font-size:12px;overflow:visible;color-interpolation-filters:sRGB;fill-rule:evenodd;stroke-linecap:square;stroke-miterlimit:3" viewBox="0 0 56.69 56.69"><defs><linearGradient id="a" x1="-.009" x2="24.092" y1="94.81" y2="94.81" gradientTransform="scale(.9535 1.04876)" gradientUnits="userSpaceOnUse"><stop offset=".385" stop-color="#005ba1"/><stop offset=".83" stop-color="#0078d4"/></linearGradient><linearGradient id="b" x1="-.012" x2="29.277" y1="89.607" y2="89.607" gradientTransform="scale(.95338 1.0489)" gradientUnits="userSpaceOnUse"><stop offset=".39" stop-color="#0078d4"/><stop offset=".96" stop-color="#5ea0ef"/></linearGradient><linearGradient id="c" x1="-.011" x2="26.751" y1="133.464" y2="133.464" gradientTransform="scale(1.2848 .77833)" gradientUnits="userSpaceOnUse"><stop offset="0" stop-color="#83b9f9"/><stop offset="1" stop-color="#5ea0ef"/></linearGradient><linearGradient id="d" x1="0" x2="19.263" y1="105.445" y2="105.445" gradientUnits="userSpaceOnUse"><stop offset="0" stop-color="#83b9f9"/><stop offset=".9" stop-color="#5ea0ef"/></linearGradient></defs><g transform="translate(-34 -34.004)"><title>Page-1</title><g transform="translate(34 -34.016)"><title>Administrative Unit.14365</title><title>Sheet.14366</title><g transform="translate(28.22 -14.45)"><title>Sheet.14367</title><path d="M22.91 122.35a12.38 12.38-180 0 0-7.84-11.12 6.44 6.44-180 1 0-7.23-.05C3.17 112.51.6 116.57 0 122.35a2.08 2.08-180 0 0 1.85 2.26l19.06.1a2.03 2.03-180 0 0 2.06-2v-.03a.7.7-180 0 0-.054-.334z" style="fill:url(#a);stroke:none;stroke-width:34;stroke-linecap:butt"/></g><g transform="translate(17.909 -12.076)"><title>Sheet.14368</title><path d="M27.84 121.84c-.79-6.33-3.86-11.7-9.53-13.51a7.827 7.827-180 1 0-8.78-.07C3.86 109.88.71 114.82 0 121.84a2.52 2.52-180 0 0 2.25 2.75l23.16.12a2.46 2.46-180 0 0 2.5-2.43v-.03a.9.9-180 0 0-.07-.406z" style="fill:url(#b);stroke:none;stroke-width:34;stroke-linecap:butt"/></g><g transform="translate(5.231 -9.357)"><title>Sheet.14369</title><path d="M31.3 124.71a3.055 3.055-180 0 0 3.06-3.06 1.7 1.7-180 0 0 0-.36c-1.21-9.6-6.68-17.41-17.1-17.41-10.43 0-16.13 6.62-17.26 17.33a3.077 3.077-180 0 0 2.75 3.36z" style="fill:url(#c);stroke:none;stroke-width:34;stroke-linecap:butt"/></g><g transform="translate(17.493 -15.956)"><title>Sheet.14370</title><path d="M5.14 112.77A9.56 9.56 0 0 1 0 111.23l5.14 13.48 5.13-13.38a9.8 9.8 0 0 1-5.13 1.44" style="fill:#fff;fill-opacity:.8;stroke:none;stroke-width:34;stroke-linecap:butt"/></g><g transform="translate(12.92 -27.896)"><title>Sheet.14371</title><circle cx="9.632" cy="115.077" r="9.632" style="fill:url(#d);stroke:none;stroke-width:34;stroke-linecap:butt"/></g><title>Sheet.14372</title><path d="M5.4 68.02h6.57v1.9H5.4Zm48.39 1.9h1.07v1.03h1.83v-2.93h-2.9zM3.04 122.67H2.1v-1.06H0v3.1h3.04zm51.82-.96v.96h-1.07v2.04h2.9v-3zM2.1 70.89v-.97h.94v-1.9H0v2.87zm13.14-2.87h6.57v1.9h-6.57zm9.81 0h6.57v1.9h-6.57zm9.83 0h6.57v1.9h-6.57zm9.84 0h6.57v1.9h-6.57ZM5.47 122.67h6.57v1.91H5.47Zm9.8 0h6.57v1.91h-6.57zm9.84 0h6.57v1.91h-6.57zm9.84 0h6.57v1.91h-6.57zm9.8 0h6.57v1.91h-6.57Zm10.04-49.49h1.9v6.57h-1.9zm0 9.81h1.9v6.57h-1.9zm0 9.84h1.9v6.57h-1.9zm0 9.8h1.9v6.57h-1.9zm0 9.84h1.9v6.57h-1.9zM0 73.12h1.9v6.57H0Zm0 9.84h1.9v6.57H0Zm0 9.8h1.9v6.57H0Zm0 9.84h1.9v6.57H0Zm0 9.8h1.9v6.57H0Z" style="fill:#0078d4;stroke:none;stroke-width:34;stroke-linecap:butt"/></g></g></svg>