<svg xmlns="http://www.w3.org/2000/svg" xml:space="preserve" width="75.588" height="64.4" style="font-size:12px;overflow:visible;color-interpolation-filters:sRGB;fill-rule:evenodd;stroke-linecap:square;stroke-miterlimit:3" viewBox="0 0 56.691 48.299"><defs><linearGradient id="a" x1="0" x2="52.327" y1="73.779" y2="73.779" gradientTransform="scale(1.08339 .92303)" gradientUnits="userSpaceOnUse"><stop offset="0" stop-color="#5e9624"/><stop offset=".18" stop-color="#629c25"/><stop offset=".44" stop-color="#6dae2a"/><stop offset=".73" stop-color="#7fcb30"/><stop offset=".82" stop-color="#86d633"/></linearGradient></defs><g transform="translate(-34 -33.996)"><title>Page-1</title><g transform="translate(34 -34.105)"><title>Alert.14360</title><title>Sheet.14361</title><title>Sheet.14362</title><path d="M56.69 70.11V107a1.934 1.976 0 0 1-1.93 1.98H39.69a.5.51-180 0 0-.5.477l-.01 5.963a.934.954 0 0 1-1.5.783l-9.07-7.123H1.93A1.934 1.976 0 0 1 0 107.11v-37a1.934 1.976 0 0 1 1.93-2.01h52.83a1.934 1.976 0 0 1 1.93 2.01" style="fill:url(#a);stroke:none;stroke-width:34;stroke-linecap:butt"/><g transform="translate(24.345 -21.892)"><title>Sheet.14363</title><path d="M5.8 116.29H1.93a1.2 1.226 0 0 1-1.26-1.15L0 95.17a1.167 1.192 0 0 1 1.17-1.22h5.67A1.167 1.192 0 0 1 8 95.21l-1.03 19.96a1.167 1.192 0 0 1-1.17 1.12" style="fill:#fff;stroke:none;stroke-width:34;stroke-linecap:butt"/></g><g transform="translate(25.445 -12.763)"><title>Sheet.14364</title><path d="M0 114.22a2.034 2.078-180 0 0 2.03 2.07H3.6a2.034 2.078-180 0 0 2.04-2.07v-1.61a2.034 2.078-180 0 0-2.04-2.07H2.03A2.034 2.078-180 0 0 0 112.61Z" style="fill:#fff;stroke:none;stroke-width:34;stroke-linecap:butt"/></g></g></g></svg>