<svg xmlns="http://www.w3.org/2000/svg" xml:space="preserve" width="75.587" height="68.054" style="font-size:12px;overflow:visible;color-interpolation-filters:sRGB;fill-rule:evenodd;stroke-linecap:square;stroke-miterlimit:3" viewBox="0 0 56.69 51.04"><defs><linearGradient id="a" x1="0" x2="53.791" y1="71.682" y2="71.682" gradientTransform="scale(1.0539 .94886)" gradientUnits="userSpaceOnUse"><stop offset="0" stop-color="#198ab3"/><stop offset=".09" stop-color="#1f9dc4"/><stop offset=".24" stop-color="#28b5d9"/><stop offset=".4" stop-color="#2dc6e9"/><stop offset=".57" stop-color="#31d1f2"/><stop offset=".78" stop-color="#32d4f5"/></linearGradient><linearGradient id="b" x1="0" x2="10.284" y1="110.094" y2="110.094" gradientTransform="scale(1.01124 .98888)" gradientUnits="userSpaceOnUse"><stop offset="0" stop-color="#c69aeb"/><stop offset="1" stop-color="#6f4bb2"/></linearGradient></defs><g transform="translate(-34 -34)"><title>Page-1</title><g transform="translate(34 -34.016)"><title>API Management Service.14356</title><title>Sheet.14357</title><title>Sheet.14358</title><path d="M45.62 83.38a16.174 15.812-180 0 0-16.51-15.36 16.674 16.302-180 0 0-15.84 10.73A15.374 15.03-180 0 0 0 93.52a15.574 15.226-180 0 0 15.97 14.67 10.005 9.78-180 0 0 1.4 0h4.01a4.902 4.793 0 0 1-.37-1.83 5.036 4.923 0 0 1 .67-2.38h-5.71A11.372 11.118 0 0 1 4.24 93.52a11.105 10.857 0 0 1 9.7-10.67l2.53-.39.84-2.38a12.44 12.16 0 0 1 11.8-7.92 12.006 11.737 0 0 1 12.28 11.25v3.58l3.63.49a8.637 8.444 0 0 1 7.54 8.12 8.77 8.575 0 0 1-8.74 8.28h-4.1a13.073 12.78-180 0 0-12.91-10.36 2.134 2.087-180 1 0 0 4.14 8.837 8.64 0 0 1 0 17.24 2.134 2.087-180 1 0 0 4.14 13.073 12.78-180 0 0 12.91-10.89h3.5a2.134 2.087-180 0 0 .67 0 13.04 12.748-180 0 0 12.8-12.55 12.873 12.585-180 0 0-11.07-12.22" style="fill:url(#a);stroke:none;stroke-width:34;stroke-linecap:butt"/><g transform="translate(21.01 -7.694)"><title>Sheet.14359</title><path d="M0 114.02a5.136 5.021-180 0 0 5.14 5.02h.13a5.136 5.021-180 0 0 5.13-5.02v-.13a5.136 5.021-180 0 0-5.13-5.02h-.13A5.136 5.021-180 0 0 0 113.89Z" style="fill:url(#b);stroke:none;stroke-width:34;stroke-linecap:butt"/></g></g></g></svg>