<svg xmlns="http://www.w3.org/2000/svg" xml:space="preserve" width="75.586" height="56.688" style="font-size:12px;overflow:visible;color-interpolation-filters:sRGB;fill-rule:evenodd;stroke-linecap:square;stroke-miterlimit:3" viewBox="0 0 56.69 42.516"><defs><linearGradient id="a" x1="0" x2="49.094" y1="78.54" y2="78.54" gradientTransform="scale(1.15472 .866)" gradientUnits="userSpaceOnUse"><stop offset=".18" stop-color="#5ea0ef"/><stop offset="1" stop-color="#0078d4"/></linearGradient><linearGradient id="b" x1="0" x2="28.239" y1="81.288" y2="81.288" gradientTransform="scale(.99084 1.00925)" gradientUnits="userSpaceOnUse"><stop offset="0" stop-color="#86d633"/><stop offset=".595" stop-color="#a4e434"/><stop offset="1" stop-color="#b4ec36"/></linearGradient><linearGradient id="c" x1="0" x2="13.367" y1="95.288" y2="95.288" gradientTransform="scale(.98297 1.01733)" gradientUnits="userSpaceOnUse"><stop offset="0" stop-color="#5e9624"/><stop offset=".11" stop-color="#64a026"/><stop offset=".35" stop-color="#6eaf2a"/><stop offset=".62" stop-color="#74b92c"/><stop offset="1" stop-color="#76bc2d"/></linearGradient></defs><g transform="translate(-34 -34)"><title>Page-1</title><g transform="translate(34 -34.016)"><title>App Compliance Automation Tool for Microsoft 365.14350</title><title>Sheet.14351</title><title>Sheet.14352</title><path d="M56.69 97.23a12.975 13.37-180 0 0-11.05-12.98A16.219 16.713-180 0 0 29.1 68.02a16.535 17.04-180 0 0-15.75 11.33A15.308 15.775-180 0 0 0 94.86a15.745 16.225-180 0 0 15.97 15.65h27.24q.345.045.69 0a13.01 13.407-180 0 0 12.79-13.28" style="fill:url(#a);stroke:none;stroke-width:34;stroke-linecap:butt"/><g transform="translate(14.508 -4.77)"><title>Sheet.14353</title><path d="m18.44 87.04-1.34-.85a1.024 1.056 0 0 1-.42-.53l-1.02-2.94a1.002 1.033-180 0 0-.94-.68h-1.71a1.002 1.033-180 0 0-.97.76l-.72 2.75a.999 1.03 0 0 1-.572.678l-1.338.592a1.005 1.036 0 0 1-.82-.01L5.9 85.54a1.005 1.036-180 0 0-1.14.22l-1.2 1.3a1.005 1.036-180 0 0-.17 1.18l1.31 2.65a1.009 1.04 0 0 1 .05.85l-.52 1.36a.99 1.02 0 0 1-.639.61l-2.881.92a1.002 1.033-180 0 0-.71.98v1.75c0 .47.3.87.74 1l2.63.74a1.012 1.043 0 0 1 .65.59l.58 1.38a1.002 1.033 0 0 1 0 .84l-1.2 2.74a1.002 1.033-180 0 0 .21 1.16l1.26 1.28a1.002 1.033-180 0 0 1.17.18l2.52-1.35a1.018 1.05 0 0 1 .83-.05l1.36.56a1.012 1.043 0 0 1 .57.59l1.06 2.85a1.002 1.033-180 0 0 .93.67h1.75a1.002 1.033-180 0 0 .94-.7l.87-2.61a1.005 1.036 0 0 1 .45-.56l1.26-.74a1.002 1.033 0 0 1 .9-.05l2.4 1.09a1.012 1.043-180 0 0 1.12-.22l1.26-1.32a1.002 1.033-180 0 0 .19-1.18l-1.09-2.33a1.005 1.036 0 0 1-.02-.87l.58-1.35a1.005 1.036 0 0 1 .61-.57l2.76-.92a1.002 1.033-180 0 0 .69-.98v-1.7a1.002 1.033-180 0 0-.74-1l-2.73-.75a1.005 1.036 0 0 1-.61-.49l-.67-1.22a1.012 1.043 0 0 1-.05-.92l1.04-2.51a1.002 1.033-180 0 0-.23-1.15l-1.28-1.28a1.005 1.036-180 0 0-1.12-.19l-2.21 1.06a.999 1.03 0 0 1-.948-.055ZM9.53 98.59a.99 1.02 0 0 1-.294-.687C9.08 92.01 14.39 90.39 17.2 93.13a4.584 4.724 0 0 1-6.38 6.78z" style="fill:url(#b);stroke:none;stroke-width:34;stroke-linecap:butt"/></g><g transform="translate(21.938 -11.99)"><title>Sheet.14354</title><ellipse cx="6.57" cy="103.739" rx="6.57" ry="6.799" style="fill:url(#c);stroke:none;stroke-width:34;stroke-linecap:butt"/></g><g transform="translate(23.794 -15.136)"><title>Sheet.14355</title><path d="m7.92 103.85-4.55 4.71-2.21-2.28-.11-.09a.797.821-180 0 0-1.015 1.251L2.81 110.3l.11.1a.79.814-180 0 0 1.012-.098l5.118-5.292.1-.11a.797.821-180 0 0-1.214-1.043z" style="fill:#fff;stroke:none;stroke-width:34;stroke-linecap:butt"/></g></g></g></svg>