<svg xmlns="http://www.w3.org/2000/svg" xml:space="preserve" width="56.695" height="75.586" style="font-size:12px;overflow:visible;color-interpolation-filters:sRGB;fill-rule:evenodd;stroke-linecap:square;stroke-miterlimit:3" viewBox="0 0 42.521 56.69"><g transform="translate(-12.24 -12.244)"><title>Page-1</title><g transform="translate(12.24 -34.016)"><title>Application Insights User.14238</title><title>Sheet.14239</title><g transform="translate(.001)"><title>Sheet.14240</title><path d="M33.16 57.9c0 6.43-5.33 11.64-11.9 11.64-6.58 0-11.9-5.21-11.9-11.64s5.32-11.64 11.9-11.64c6.57 0 11.9 5.21 11.9 11.64m-3.2 15.63-8.7 11.93-8.71-11.93H0v29.42h42.52V73.53Z" style="fill:#59b4d9;stroke:none;stroke-width:12.23999977;stroke-linecap:butt"/></g><title>Sheet.14241</title><path d="M9.36 57.9c0 6.33 5.17 11.48 11.61 11.63l2.99-22.96a11.917 11.758-180 0 0-2.7-.31c-6.57 0-11.9 5.21-11.9 11.64m3.2 15.63H0v29.42h16.67l2.63-20.17Z" style="fill:#fff;fill-opacity:.2;stroke:none;stroke-width:12.23999977;stroke-linecap:butt"/></g></g></svg>