<svg xmlns="http://www.w3.org/2000/svg" xml:space="preserve" width="71.624" height="75.598" style="font-size:12px;overflow:visible;color-interpolation-filters:sRGB;fill-rule:evenodd;stroke-linecap:square;stroke-miterlimit:3" viewBox="0 0 53.719 56.699"><g transform="translate(-12.242 -12.235)"><title>Page-1</title><g transform="translate(9.27 -34.016)"><title>Application Insights Performance.14284</title><title>Sheet.14285</title><g transform="translate(0 -11.179)"><title>Sheet.14286</title><path d="M39.45 98.32c-4.16 3.19-8.95 4.63-13.74 4.63-6.87 0-13.57-3.04-18.04-8.94C0 84.1 1.92 69.73 11.98 62.07c4.15-3.2 8.94-4.64 13.73-4.64 6.87 0 13.58 3.04 18.05 8.95a22.717 22.717 0 0 1-4.31 31.94" style="fill:#59b4d9;stroke:none;stroke-width:12.23999977;stroke-linecap:butt"/></g><g transform="translate(5.909 -15.49)"><title>Sheet.14287</title><path d="M29.38 88.58c1.6 2.07 4.8 2.55 6.87.95l.32-.32c2.24 1.6 3.67 2.56 4.63 3.2.32-.64.48-1.28.64-1.92-.96-.64-2.08-1.59-3.83-3.03.64-1.6.32-3.36-.64-4.63-1.6-1.92-4.15-2.4-6.39-1.28-2.39-2.08-4.79-4.47-7.5-7.19 8.3-4.47 14.21-3.83 14.21-3.83-.96-1.28-2.08-2.4-3.35-3.35-3.52-.48-8.95-.48-15.18 2.87-2.07-2.23-4.15-4.47-6.38-7.03-.96.32-2.08.8-3.04 1.28 1.6 2.56 3.67 5.27 6.07 7.83-2.08 1.43-4.31 3.35-6.39 5.43-.32.32-.48.64-.8.8-1.27-.32-2.55-.16-3.67.31-2.08-4.47-1.92-7.98-1.6-9.9-.95.96-1.75 1.92-2.39 3.04-.48 2.23-.64 5.43.96 9.26-1.92 2.4-1.92 5.75 0 8.3.16.16.32.48.48.64-.8 2.88-1.28 5.59-1.28 7.99.16.32.16.48.48.8 1.11 1.43 2.39 2.55 3.83 3.67-.16-2.56 0-6.23 1.6-10.38 1.11.16 2.07-.16 3.19-.48.64.48 1.12.96 1.92 1.6 2.23 1.75 4.47 3.19 6.54 4.15-.15 1.12.16 2.23.96 3.19 1.6 1.92 4.31 2.4 6.39.8.48-.32.8-.64.96-1.12 3.51.8 6.71.96 8.94.96.32 0 1.92-2.23 2.88-3.51-1.44.32-5.59.8-11.18-.8-.16-.64-.32-1.28-.8-1.76-1.44-1.91-3.99-2.23-6.07-.95-1.92-1.12-3.99-2.4-6.07-4.16-.48-.32-.8-.64-1.28-.96 1.28-2.07 1.44-4.63.32-6.86l.8-.8c2.08-1.92 4.15-3.51 5.91-4.79l-.16-.16.16.16c2.88 2.55 5.91 5.11 8.63 7.34-.96 1.12-.8 3.2.31 4.64" style="fill:#fff;stroke:none;stroke-width:12.23999977;stroke-linecap:butt"/></g><g transform="translate(43.598)"><title>Sheet.14288</title><path d="M.16 102.95h.16c7.03 0 12.62-2.08 12.62-4.63V73.88H0v29.07z" style="fill:#59b4d9;stroke:none;stroke-width:12.23999977;stroke-linecap:butt"/></g><g transform="translate(31.3)"><title>Sheet.14289</title><path d="M0 73.88v24.44c0 2.55 5.59 4.63 12.62 4.63V73.88Z" style="fill:#3999c6;stroke:none;stroke-width:12.23999977;stroke-linecap:butt"/></g><g transform="translate(31.46 -24.434)"><title>Sheet.14290</title><path d="M25.23 98.32c0 2.55-5.59 4.63-12.61 4.63-7.03 0-12.62-2.08-12.62-4.63 0-2.56 5.59-4.63 12.62-4.63 6.86 0 12.61 2.07 12.61 4.63" style="fill:#fff;stroke:none;stroke-width:12.23999977;stroke-linecap:butt"/></g><g transform="translate(34.016 -26.35)"><title>Sheet.14291</title><path d="M20.12 99.91c0 1.76-4.47 3.04-10.06 3.04S0 101.67 0 99.91c0-1.75 4.47-3.03 10.06-3.03s10.06 1.44 10.06 3.03" style="fill:#57a300;stroke:none;stroke-width:12.23999977;stroke-linecap:butt"/></g><g transform="translate(33.856 -27.468)"><title>Sheet.14292</title><path d="M18.05 102.95c1.27-.48 2.07-1.12 2.07-1.92 0-1.75-4.47-3.03-10.06-3.03S0 99.28 0 101.03c0 .64.8 1.28 2.08 1.92 1.91-.64 4.79-1.12 7.98-1.12 3.35-.16 6.23.48 7.99 1.12" style="fill:#b8d432;stroke:none;stroke-width:12.23999977;stroke-linecap:butt"/></g><g transform="translate(15.171 -3.354)"><title>Sheet.14293</title><path d="M28.91 95.76c-1.6 0-2.88 1.12-3.36 2.56H12.3c-5.59 0-10.22-4.63-10.22-10.22H0c0 6.7 5.59 12.29 12.3 12.29h13.25c.48 1.44 1.76 2.56 3.36 2.56 1.91 0 3.51-1.6 3.51-3.51 0-2.08-1.6-3.68-3.51-3.68" style="fill:#dadde0;stroke:none;stroke-width:12.23999977;stroke-linecap:butt"/></g><g transform="translate(15.171 -17.886)"><title>Sheet.14294</title><path d="M0 96.561h2.076v6.388H0z" style="fill:#dadde0;stroke:none;stroke-width:12.23999977;stroke-linecap:butt"/></g></g></g></svg>