<svg xmlns="http://www.w3.org/2000/svg" xml:space="preserve" width="75.59" height="75.589" style="font-size:12px;overflow:visible;color-interpolation-filters:sRGB;fill-rule:evenodd;stroke-linecap:square;stroke-miterlimit:3" viewBox="0 0 56.693 56.692"><g transform="translate(-12.24 -12.242)"><title>Page-1</title><g transform="translate(12.24 -34.016)"><title>Application Insights Application Map.14333</title><title> Application_map</title><g transform="translate(11.068 -6.35)"><title>Sheet.14335</title><path d="M2.15 102.95 0 99.43l29.59-18.48L0 62.47l2.15-3.52 35.12 22z" style="fill:#b3b4b5;stroke:none;stroke-width:12.23999977;stroke-linecap:butt"/></g><g transform="translate(32.412 -20.183)"><title>Sheet.14336</title><path d="M0 86.734h24.281v16.214H0z" style="fill:#fdb813;stroke:none;stroke-width:12.23999977;stroke-linecap:butt"/></g><title>Sheet.14337</title><path d="M0 46.26h24.28v16.21H0Zm0 40.47h24.28v16.22H0Z" style="fill:#1ba1e2;stroke:none;stroke-width:12.23999977;stroke-linecap:butt"/><g transform="translate(0 -12.132)"><title>Sheet.14338</title><path d="M0 58.39h24.28v4.08H0Zm0 40.48h24.28v4.08H0Z" style="fill:#0072c6;stroke:none;stroke-width:12.23999977;stroke-linecap:butt"/></g><g transform="translate(12.197)"><title>Sheet.14339</title><path d="M0 46.26h12.2v16.21H0Zm0 40.47h12.2v16.22H0Z" style="fill:#fff;fill-opacity:.15;stroke:none;stroke-width:12.23999977;stroke-linecap:butt"/></g><g transform="translate(32.412 -32.315)"><title>Sheet.14340</title><path d="M0 98.867h24.281v4.082H0z" style="fill:#ff8c00;stroke:none;stroke-width:12.23999977;stroke-linecap:butt"/></g></g></g></svg>