<svg xmlns="http://www.w3.org/2000/svg" xml:space="preserve" width="75.585" height="71.811" style="font-size:12px;overflow:visible;color-interpolation-filters:sRGB;fill-rule:evenodd;stroke-linecap:square;stroke-miterlimit:3" viewBox="0 0 56.689 53.859"><g transform="translate(-12.24 -12.236)"><title>Page-1</title><g transform="translate(12.24 -34.016)"><title>Application Insights Retention.14273</title><title>Sheet.14274</title><g transform="translate(0 -11.969)"><title>Sheet.14275</title><path d="M0 98.31c0 1 .81 1.8 1.8 1.8h46c1 0 1.81-.8 1.81-1.8V66.58H0Z" style="fill:#59b4d9;stroke:none;stroke-width:12.23999977;stroke-linecap:butt"/></g><g transform="translate(0 -43.087)"><title>Sheet.14276</title><path d="M47.81 89.34H1.8c-.99 0-1.8.81-1.8 1.8v8.97h49.61v-8.97c0-.99-.81-1.8-1.8-1.8" style="fill:#a0a1a2;stroke:none;stroke-width:12.23999977;stroke-linecap:butt"/></g><g transform="translate(.006 -11.969)"><title>Sheet.14277</title><path d="M1.8 58.22c-.99 0-1.8.81-1.8 1.81v38.28c0 1 .81 1.8 1.8 1.8h4.1l33.25-41.89Z" style="fill:#fff;fill-opacity:.2;stroke:none;stroke-width:12.23999977;stroke-linecap:butt"/></g><g transform="translate(12.992 -46.677)"><title>Sheet.14278</title><path d="M0 96.523h31.89v3.591H0z" style="fill:#fff;stroke:none;stroke-width:12.23999977;stroke-linecap:butt"/></g><g transform="translate(2.48 -44.403)"><title>Sheet.14279</title><path d="M8.03 96.04a4.016 4.07 0 0 1-8.03 0 4.016 4.07 0 1 1 8.03 0" style="fill:#59b4d9;stroke:none;stroke-width:12.23999977;stroke-linecap:butt"/></g><g transform="translate(3.543 -45.48)"><title>Sheet.14280</title><path d="m2.36 97.72 2.36 2.39H2.95L0 97.12l2.95-2.99h1.77l-2.36 2.39h4.73v1.2z" style="fill:#fff;stroke:none;stroke-width:12.23999977;stroke-linecap:butt"/></g><g transform="translate(30.709)"><title>Sheet.14281</title><path d="M21.14 70.19a8.15 8.259 0 1 1-16.3 0 8.15 8.259 0 0 1 16.3 0m-3.42 9.58-4.73 8.38-4.72-8.38H0v20.34h25.98V79.77Z" style="fill:#804998;stroke:none;stroke-width:12.23999977;stroke-linecap:butt"/></g><g transform="translate(30.709)"><title>Sheet.14282</title><path d="M14.71 62.12a8.15 8.258-180 0 0-9.87 8.07c0 4.44 3.46 8.06 7.8 8.24zM8.27 79.77H0v20.34h9.48l2.25-14.21Z" style="fill:#fff;fill-opacity:.15;stroke:none;stroke-width:12.23999977;stroke-linecap:butt"/></g><g transform="translate(19.016 -22.74)"><title>Sheet.14283</title><path d="M2.24 85.75S0 88.15 0 92.93c0 4.79 2.24 7.18 2.24 7.18l14.18-7.18z" style="fill:#fff;stroke:none;stroke-width:12.23999977;stroke-linecap:butt"/></g></g></g></svg>