<svg xmlns="http://www.w3.org/2000/svg" xml:space="preserve" width="75.593" height="68.028" style="font-size:12px;overflow:visible;color-interpolation-filters:sRGB;fill-rule:evenodd;stroke-linecap:square;stroke-miterlimit:3" viewBox="0 0 56.695 51.021"><g transform="translate(-12.24 -12.243)"><title>Page-1</title><g transform="translate(12.24 -34.016)"><title>Application Insights Event.14308</title><title>Sheet.14309</title><g transform="translate(0 -12.201)"><title>Sheet.14310</title><path d="M0 95.61c0 .92.77 1.67 1.73 1.67h44.16c.96 0 1.73-.75 1.73-1.67V66.2H0Z" style="fill:#59b4d9;stroke:none;stroke-width:12.23999977;stroke-linecap:butt"/></g><g transform="translate(0 -41.04)"><title>Sheet.14311</title><path d="M45.89 87.3H1.73c-.96 0-1.73.74-1.73 1.67v8.31h47.62v-8.31c0-.93-.77-1.67-1.73-1.67" style="fill:#a0a1a2;stroke:none;stroke-width:12.23999977;stroke-linecap:butt"/></g><g transform="translate(.006 -12.201)"><title>Sheet.14312</title><path d="M1.73 58.46c-.95 0-1.73.74-1.73 1.67v35.48c0 .92.78 1.67 1.73 1.67h3.93l31.92-38.82Z" style="fill:#fff;fill-opacity:.2;stroke:none;stroke-width:12.23999977;stroke-linecap:butt"/></g><g transform="translate(12.472 -44.368)"><title>Sheet.14313</title><path d="M0 93.952h30.614v3.328H0z" style="fill:#fff;stroke:none;stroke-width:12.23999977;stroke-linecap:butt"/></g><g transform="translate(2.381 -42.26)"><title>Sheet.14314</title><path d="M7.71 93.51a3.855 3.771 0 0 1-7.71 0 3.855 3.771 0 1 1 7.71 0" style="fill:#59b4d9;stroke:none;stroke-width:12.23999977;stroke-linecap:butt"/></g><g transform="translate(3.402 -43.26)"><title>Sheet.14315</title><path d="m2.27 95.06 2.27 2.22H2.83L0 94.51l2.83-2.78h1.71l-2.27 2.22H6.8v1.11z" style="fill:#fff;stroke:none;stroke-width:12.23999977;stroke-linecap:butt"/></g><g transform="translate(33.315)"><title>Sheet.14316</title><path d="m2.97 95.06 6.8-13.31H0L9.07 64h13.17l-10.2 13.31h11.34L4.1 96.17l-2.27 1.11Z" style="fill:#ff8c00;stroke:none;stroke-width:12.23999977;stroke-linecap:butt"/></g><g transform="translate(32.882 -14.42)"><title>Sheet.14317</title><path d="M0 96.17h10.205v1.109H0z" style="fill:#ff8c00;fill-opacity:.75;stroke:none;stroke-width:12.23999977;stroke-linecap:butt"/></g><g transform="translate(32.181)"><title>Sheet.14318</title><path d="m2.97 95.06 6.8-13.31H0L9.07 64h13.17l-10.2 13.31h11.34L4.1 96.17l-2.27 1.11Z" style="fill:#fcd116;stroke:none;stroke-width:12.23999977;stroke-linecap:butt"/></g></g></g></svg>