<svg xmlns="http://www.w3.org/2000/svg" xml:space="preserve" width="75.591" height="75.595" style="font-size:12px;overflow:visible;color-interpolation-filters:sRGB;fill-rule:evenodd;stroke-linecap:square;stroke-miterlimit:3" viewBox="0 0 56.693 56.696"><defs><linearGradient id="a" x1="0" x2="11.369" y1="113.036" y2="113.036" gradientTransform="scale(.99756 1.00245)" gradientUnits="userSpaceOnUse"><stop offset="0" stop-color="#5e9624"/><stop offset=".82" stop-color="#86d633"/></linearGradient><linearGradient id="b" x1="0" x2="11.369" y1="113.036" y2="113.036" gradientTransform="scale(.99756 1.00245)" gradientUnits="userSpaceOnUse"><stop offset="0" stop-color="#5e9624"/><stop offset=".82" stop-color="#86d633"/></linearGradient><linearGradient id="c" x1="0" x2="11.369" y1="113.036" y2="113.036" gradientTransform="scale(.99756 1.00245)" gradientUnits="userSpaceOnUse"><stop offset="0" stop-color="#5e9624"/><stop offset=".82" stop-color="#86d633"/></linearGradient><linearGradient id="d" x1="0" x2="11.369" y1="113.036" y2="113.036" gradientTransform="scale(.99756 1.00245)" gradientUnits="userSpaceOnUse"><stop offset="0" stop-color="#5e9624"/><stop offset=".82" stop-color="#86d633"/></linearGradient></defs><g transform="translate(-34 -33.998)"><title>Page-1</title><g transform="translate(34 -34.016)"><title>Application Change Analysis.14341</title><title>Sheet.14342</title><g transform="translate(3.426 -3.184)"><title>Sheet.14343</title><path d="M3.54 124.71 0 121.56l17.28-19.44 14.71 15.22 13.88-14.79 3.43 3.25-17.28 18.41-14.57-15.15Z" style="fill:#76bc2d;stroke:none;stroke-width:34;stroke-linecap:butt"/></g><g transform="translate(15.107 -16.569)"><title>Sheet.14344</title><ellipse cx="5.671" cy="119.011" rx="5.671" ry="5.698" style="fill:url(#a);stroke:none;stroke-width:34;stroke-linecap:butt"/></g><g transform="translate(29.75 -1.89)"><title>Sheet.14345</title><ellipse cx="5.671" cy="119.011" rx="5.671" ry="5.698" style="fill:url(#b);stroke:none;stroke-width:34;stroke-linecap:butt"/></g><g transform="translate(45.352 -18.513)"><title>Sheet.14346</title><ellipse cx="5.671" cy="119.011" rx="5.671" ry="5.698" style="fill:url(#c);stroke:none;stroke-width:34;stroke-linecap:butt"/></g><title>Sheet.14347</title><ellipse cx="5.671" cy="119.011" rx="5.671" ry="5.698" style="fill:url(#d);stroke:none;stroke-width:34;stroke-linecap:butt"/><g transform="translate(19.82 -20.015)"><title>Sheet.14348</title><path d="m25.8 113.91-10.6 10.8-10.71-10.8a14.844 14.917 0 0 1-.29-21.09l.29-.29a14.91 14.984 0 0 1 21.09-.22l.22.22a14.914 14.987 0 0 1 .19 21.2z" style="fill:#0078d4;stroke:none;stroke-width:34;stroke-linecap:butt"/></g><g transform="translate(22.835 -32.278)"><title>Sheet.14349</title><path d="M3.04 112.52a9.6 9.647-180 0 0 .97 7.51 9.266 9.312-180 0 0 1.74 2.13 9.737 9.785-180 0 0 2.19 1.57 11.028 11.082-180 0 0 2.54.87 9.006 9.05-180 0 0 2.74 0l-.24-2.61a.557.56-180 0 0-.524-.49 6.465 6.496 0 0 1-1.386 0 7.672 7.71 0 0 1-1.7-.6 6.485 6.516 0 0 1-1.5-1.05 6.09 6.12 0 0 1-1.18-1.46 5.81 5.84 0 0 1-.84-2.38 6.855 6.888 0 0 1 0-2.51l.91 1.5a.554.556-180 0 0 .73 0l1.22-.32a.557.56-180 0 0 .173-.734L5.88 109.02a.55.553-180 0 0-.667-.335L.14 111.71a.554.556-180 0 0 0 .734l.62 1.076a.557.56-180 0 0 .73.208zm10.53-3.74a5.824 5.853 0 0 1 1.7.59 6.281 6.312 0 0 1 2.67 2.48 6.221 6.252 0 0 1 .84 2.41 6.908 6.942 0 0 1 0 2.55l-.87-1.5a.557.56-180 0 0-.727-.225l-1.073.675a.524.526-180 0 0-.227.707l-.003.023 3.02 5.07a.524.526-180 0 0 .7.225l.03-.005 5.04-3.04a.52.523-180 0 0 0-.735l-.62-1.075a.56.563-180 0 0-.73 0l-1.74 1.05a9.42 9.466-180 0 0 .27-3.85 8.96 9.004-180 0 0-1.25-3.69 9.25 9.295-180 0 0-1.7-2.17 10.854 10.908-180 0 0-2.23-1.54 9.18 9.225-180 0 0-2.54-.87 9.226 9.272-180 0 0-2.15-.33.554.556-180 0 0-.487.593l-.003 2.057a.56.563-180 0 0 .524.49 6.004 6.034 0 0 1 1.556.11" style="fill:#fff;stroke:none;stroke-width:34;stroke-linecap:butt"/></g></g></g></svg>