<svg xmlns="http://www.w3.org/2000/svg" xml:space="preserve" width="75.593" height="75.593" style="font-size:12px;overflow:visible;color-interpolation-filters:sRGB;fill-rule:evenodd;stroke-linecap:square;stroke-miterlimit:3" viewBox="0 0 56.695 56.695"><g transform="translate(-12.24 -12.24)"><title>Page-1</title><g transform="translate(12.24 -34.016)"><title>Application Insights Cohort.14326</title><title>Sheet.14327</title><title>Sheet.14328</title><path d="M0 92.51v8.7c0 .96 1.12 1.74 2.5 1.74h51.69c1.38 0 2.5-.78 2.5-1.74v-8.7z" style="fill:#57a300;stroke:none;stroke-width:12.23999977;stroke-linecap:butt"/><g transform="translate(.001 -12.753)"><title>Sheet.14329</title><path d="M24.68 68.17a9.33 9.159 0 1 1-18.66 0 9.33 9.159 0 0 1 18.66 0m-2.56 11.59-6.77 9.4-6.77-9.4H0v23.19h30.71V79.76Z" style="fill:#804998;stroke:none;stroke-width:12.23999977;stroke-linecap:butt"/></g><g transform="translate(0 -12.869)"><title>Sheet.14330</title><path d="M17.32 59.33a9.33 9.159-180 0 0-11.3 8.95c0 4.93 3.97 8.93 8.93 9.14zM8.59 79.76H0v23.19h11.79l2.04-15.9z" style="fill:#fff;fill-opacity:.15;stroke:none;stroke-width:12.23999977;stroke-linecap:butt"/></g><g transform="translate(25.985 -12.753)"><title>Sheet.14331</title><path d="M24.68 68.17a9.33 9.159 0 1 1-18.66 0 9.33 9.159 0 0 1 18.66 0m-2.56 11.59-6.77 9.4-6.77-9.4H0v23.19h30.71V79.76Z" style="fill:#59b4d9;stroke:none;stroke-width:12.23999977;stroke-linecap:butt"/></g><g transform="translate(25.984 -12.753)"><title>Sheet.14332</title><path d="M17.32 59.22a9.33 9.159-180 0 0-11.3 8.95c0 4.92 3.97 8.93 8.93 9.14zM8.59 79.76H0v23.19h11.79l2.04-15.9z" style="fill:#fff;fill-opacity:.2;stroke:none;stroke-width:12.23999977;stroke-linecap:butt"/></g></g></g></svg>