<svg xmlns="http://www.w3.org/2000/svg" xml:space="preserve" width="75.591" height="71.813" style="font-size:12px;overflow:visible;color-interpolation-filters:sRGB;fill-rule:evenodd;stroke-linecap:square;stroke-miterlimit:3" viewBox="0 0 56.693 53.86"><g transform="translate(-12.24 -12.239)"><title>Page-1</title><g transform="translate(12.24 -34.016)"><title>Application Insights Session.14256</title><title>Sheet.14257</title><g transform="translate(0 -13.665)"><title>Sheet.14258</title><path d="M0 98.38c0 .96.77 1.73 1.73 1.73h44.25c.96 0 1.74-.77 1.74-1.73V67.94H0Z" style="fill:#59b4d9;stroke:none;stroke-width:12.23999977;stroke-linecap:butt"/></g><g transform="translate(0 -43.523)"><title>Sheet.14259</title><path d="M45.98 89.78H1.73c-.96 0-1.73.77-1.73 1.73v8.6h47.72v-8.6c0-.96-.78-1.73-1.74-1.73" style="fill:#a0a1a2;stroke:none;stroke-width:12.23999977;stroke-linecap:butt"/></g><g transform="translate(.006 -13.665)"><title>Sheet.14260</title><path d="M1.73 59.92c-.95 0-1.73.78-1.73 1.73v36.73c0 .96.78 1.73 1.73 1.73h3.94l31.99-40.19Z" style="fill:#fff;fill-opacity:.2;stroke:none;stroke-width:12.23999977;stroke-linecap:butt"/></g><g transform="translate(12.497 -46.968)"><title>Sheet.14261</title><path d="M0 96.669h30.676v3.445H0z" style="fill:#fff;stroke:none;stroke-width:12.23999977;stroke-linecap:butt"/></g><g transform="translate(2.386 -44.786)"><title>Sheet.14262</title><path d="M7.73 96.21a3.865 3.907 0 0 1-7.73 0 3.865 3.907 0 1 1 7.73 0" style="fill:#59b4d9;stroke:none;stroke-width:12.23999977;stroke-linecap:butt"/></g><g transform="translate(3.408 -45.82)"><title>Sheet.14263</title><path d="m2.27 97.82 2.27 2.29h-1.7L0 97.24l2.84-2.87h1.7l-2.27 2.3h4.55v1.15z" style="fill:#fff;stroke:none;stroke-width:12.23999977;stroke-linecap:butt"/></g><g transform="translate(20.564)"><title>Sheet.14264</title><ellipse cx="18.065" cy="81.855" rx="18.065" ry="18.259" style="fill:#7a7a7a;stroke:none;stroke-width:12.23999977;stroke-linecap:butt"/></g><g transform="translate(24.054 -3.529)"><title>Sheet.14265</title><path d="M13.04 70.65a14.594 14.75-180 0 0-9.86 5.41A14.6 14.757-180 0 0 0 86.94a14.602 14.759-180 0 0 5.35 9.96 14.586 14.743-180 0 0 10.76 3.21 14.612 14.77-180 0 0 9.85-5.41 14.6 14.757-180 0 0 3.19-10.87c-.43-4.11-2.5-7.62-5.46-10.04a14.3 14.3 0 0 0-9.08-3.22c-.52 0-1.04.03-1.57.08" style="fill:#fff;stroke:none;stroke-width:12.23999977;stroke-linecap:butt"/></g><g transform="translate(37.492 -12.665)"><title>Sheet.14266</title><path d="M8.4 84.97C6.07 83.06 3.1 82 .04 82H0v12.51l12.75 5.6c.65-1.88.9-3.87.69-5.87-.38-3.63-2.17-6.92-5.04-9.27" style="fill:#b8d432;fill-opacity:.6;stroke:none;stroke-width:12.23999977;stroke-linecap:butt"/></g><g transform="translate(38.404 -13.58)"><title>Sheet.14267</title><path d="M7.64 100.11.86 97.68a1.413 1.428 0 1 1 .94-2.69l6.79 2.43a1.413 1.428 0 0 1-.95 2.69" style="fill:#7a7a7a;stroke:none;stroke-width:12.23999977;stroke-linecap:butt"/></g><g transform="translate(37.208 -16.32)"><title>Sheet.14268</title><path d="M1.42 100.11c-.78 0-1.42-.63-1.42-1.42V86.61a1.419 1.419 0 1 1 2.84 0v12.08c0 .79-.63 1.42-1.42 1.42" style="fill:#7a7a7a;stroke:none;stroke-width:12.23999977;stroke-linecap:butt"/></g><g transform="translate(36.424 -15.625)"><title>Sheet.14269</title><ellipse cx="2.063" cy="98.029" rx="2.063" ry="2.085" style="fill:#1e1e1e;stroke:none;stroke-width:12.23999977;stroke-linecap:butt"/></g><g transform="translate(29.378 -9.126)"><title>Sheet.14270</title><path d="m0 82.21.57-.58 1.78 1.79-.57.58Zm8.84-4.02h.81v2.54h-.81Zm7.22 5.31 1.77-1.79.57.58-1.77 1.79zm3.12 7.06h2.51v.82h-2.51zm-3.24 7.76.57-.58 1.78 1.8-.57.57z" style="fill:#7a7a7a;stroke:none;stroke-width:12.23999977;stroke-linecap:butt"/></g><g transform="translate(29.378 -5.73)"><title>Sheet.14271</title><path d="m15.94 94.92.57-.58 1.78 1.8-.57.58zm-7.1 2.65h.81v2.54h-.81ZM0 78.81l.57-.58 1.78 1.8-.57.57Zm.12 17.4 1.78-1.79.57.58L.7 96.79Z" style="fill:#7a7a7a;stroke:none;stroke-width:12.23999977;stroke-linecap:butt"/></g><g transform="translate(26.02 -9.051)"><title>Sheet.14272</title><path d="m3.48 99.54 1.78-1.8.57.58-1.78 1.79zM0 90.49h2.51v.81H0Z" style="fill:#7a7a7a;stroke:none;stroke-width:12.23999977;stroke-linecap:butt"/></g></g></g></svg>