<svg xmlns="http://www.w3.org/2000/svg" xml:space="preserve" width="76.164" height="56.693" style="font-size:12px;overflow:visible;color-interpolation-filters:sRGB;fill-rule:evenodd;stroke-linecap:square;stroke-miterlimit:3" viewBox="0 0 57.123 42.52"><g transform="translate(-12.238 -12.244)"><title>Page-1</title><g transform="translate(12.455 -34.016)"><title>Application Insights Funnel.14298</title><title>Sheet.14299</title><title>Sheet.14300</title><path d="M4.47 54.76h47.76c.63 0 1.22-.35 1.54-.91l2.92-5.12a1.613 1.646-180 0 0-1.39-2.47H1.4A1.613 1.646-180 0 0 0 48.73l2.92 5.12a1.785 1.822-180 0 0 1.55.91m40.84 8.5H11.38A1.785 1.822-180 0 0 9.84 66l2.77 4.86c.32.56.91.91 1.54.91h28.39c.64 0 1.22-.35 1.54-.91L46.85 66a1.785 1.822-180 0 0-1.54-2.74m-9.69 17.01H21.07a1.785 1.822-180 0 0-1.54 2.74l2.76 4.86c.33.56.91.91 1.55.91h9.01c.64 0 1.23-.35 1.55-.91l2.77-4.86a1.785 1.822-180 0 0-1.55-2.74" style="fill:#3999c6;stroke:none;stroke-width:12.23999977;stroke-linecap:butt"/></g></g></svg>