<svg xmlns="http://www.w3.org/2000/svg" xml:space="preserve" width="75.586" height="68.026" style="font-size:12px;overflow:visible;color-interpolation-filters:sRGB;fill-rule:evenodd;stroke-linecap:square;stroke-miterlimit:3" viewBox="0 0 56.689 51.02"><g transform="translate(-12.24 -12.244)"><title>Page-1</title><g transform="translate(12.24 -34.016)"><title>Application Insights User Flow.14242</title><title>Sheet.14243</title><g transform="translate(20.41)"><title>Sheet.14244</title><title>Sheet.14245</title><path d="M26.08 62.49h9.07a1.134 1.16-180 0 0 1.13-1.16v-9.28a1.134 1.16-180 0 0-1.13-1.16h-9.07a1.134 1.16-180 0 0-1.14 1.16v3.48h-5.66v-3.48a1.134 1.16-180 0 0-1.14-1.16H9.07a1.134 1.16-180 0 0-1.13 1.16v3.48H0v2.32h7.94v3.48a1.134 1.16-180 0 0 1.13 1.16h8.6l7.27 7.44v8.8a1.134 1.16-180 0 0 1.14 1.15h3.4v5.8h-3.4a1.134 1.16-180 0 0-1.14 1.16v9.28a1.134 1.16-180 0 0 1.14 1.16h9.07a1.134 1.16-180 0 0 1.13-1.16v-9.28a1.134 1.16-180 0 0-1.13-1.16h-3.4v-5.8h3.4a1.134 1.16-180 0 0 1.13-1.15v-9.28a1.134 1.16-180 0 0-1.13-1.16h-8.6l-7.27-7.44v-3h5.66v3.48a1.134 1.16-180 0 0 1.14 1.16" style="fill:#804998;stroke:none;stroke-width:12.23999977;stroke-linecap:butt"/><g transform="translate(.332)"><title>Sheet.14246</title><path d="M17.81 68.29h-8.6L1.6 60.51 0 62.15l7.6 7.78v8.8a1.134 1.16-180 0 0 1.14 1.15h3.4v5.8h-3.4a1.134 1.16-180 0 0-1.14 1.16v9.28a1.134 1.16-180 0 0 1.14 1.16h9.07a1.134 1.16-180 0 0 1.13-1.16v-9.28a1.134 1.16-180 0 0-1.13-1.16h-3.4v-5.8h3.4a1.134 1.16-180 0 0 1.13-1.15v-9.28a1.134 1.16-180 0 0-1.13-1.16" style="fill:#804998;stroke:none;stroke-width:12.23999977;stroke-linecap:butt"/></g></g><g transform="translate(30.614 -2.32)"><title>Sheet.14247</title><path d="M6.8 55.53v6.96H0v-6.96zm17.01 0v6.96h-6.8v-6.96zm0 41.75h-6.8v-6.96h6.8zm-17.01 0H0v-6.96h6.8zm0-17.4H0v-6.95h6.8zm17.01 0h-6.8v-6.95h6.8z" style="fill:#fff;fill-opacity:.75;stroke:none;stroke-width:12.23999977;stroke-linecap:butt"/></g><g transform="translate(0 -31.31)"><title>Sheet.14248</title><path d="M1.47 77.57H21.2a1.474 1.508 0 0 1 1.48 1.5v16.7a1.474 1.508 0 0 1-1.48 1.51H1.47A1.474 1.508 0 0 1 0 95.77v-16.7a1.474 1.508 0 0 1 1.47-1.5" style="fill:#3999c6;stroke:none;stroke-width:12.23999977;stroke-linecap:butt"/></g><g transform="translate(2.268 -33.63)"><title>Sheet.14249</title><path d="M0 84.523h18.142v12.756H0z" style="fill:#fff;fill-opacity:.75;stroke:none;stroke-width:12.23999977;stroke-linecap:butt"/></g></g></g></svg>