<svg xmlns="http://www.w3.org/2000/svg" xml:space="preserve" width="75.325" height="56.701" style="font-size:12px;overflow:visible;color-interpolation-filters:sRGB;fill-rule:evenodd;stroke-linecap:square;stroke-miterlimit:3" viewBox="0 0 56.493 42.526"><g transform="translate(-12.24 -12.238)"><title>Page-1</title><g transform="translate(12.24 -34.016)"><title>Application Insights Failure.14301</title><title>Sheet.14302</title><g transform="translate(0 -6.486)"><title>Sheet.14303</title><path d="M0 59.95h7.31v28.83H0Zm14.61-7.21h7.31v36.04h-7.31zm14.61 10.09h7.31v25.95h-7.31zm14.61-5.76h7.31v31.71h-7.31z" style="fill:#eb008b;stroke:none;stroke-width:12.23999977;stroke-linecap:butt"/></g><g transform="translate(23.232 -1.009)"><title>Sheet.14304</title><path d="M3.51 88.78c-1.32 0-2.34-.58-2.93-1.73C0 85.89 0 84.6.58 83.59l6.43-11.1 6.43-10.52c.73-1.16 1.76-1.73 2.92-1.73 1.17 0 2.2.57 2.78 1.73L32 83.73c.73 1.15.73 2.45.15 3.46-.59 1.01-1.76 1.59-3.07 1.59z" style="fill:#ff8c00;stroke:none;stroke-width:12.23999977;stroke-linecap:butt"/></g><g transform="translate(22.064)"><title>Sheet.14305</title><path d="M17.39 60.09c.73 0 1.46.44 2.04 1.3l6.43 10.95 6.43 10.81c1.02 1.73 0 3.75-2.04 3.75H4.68c-2.05 0-3.07-2.02-2.05-3.75l6.43-11.24 6.43-10.52c.44-.86 1.17-1.3 1.9-1.3m0-1.87c-1.46 0-2.92.86-3.66 2.16L7.31 70.9.88 82.15C0 83.59 0 85.17.88 86.61c.73 1.3 2.19 2.17 3.8 2.17H30.1c1.61 0 3.07-.87 3.8-2.17.73-1.29.73-3.02-.15-4.46l-6.43-10.81-6.43-10.96c-.58-1.3-2.04-2.16-3.5-2.16" style="fill:#fff;stroke:none;stroke-width:12.23999977;stroke-linecap:butt"/></g><g transform="translate(37.406 -6.054)"><title>Sheet.14306</title><ellipse cx="2.046" cy="86.758" rx="2.046" ry="2.018" style="fill:#fff;stroke:none;stroke-width:12.23999977;stroke-linecap:butt"/></g><g transform="translate(37.698 -10.954)"><title>Sheet.14307</title><path d="M2.19 79.12H0l.58 9.66h2.63l.59-9.66Z" style="fill:#fff;stroke:none;stroke-width:12.23999977;stroke-linecap:butt"/></g></g></g></svg>