<svg xmlns="http://www.w3.org/2000/svg" xml:space="preserve" width="72.671" height="71.8" style="font-size:12px;overflow:visible;color-interpolation-filters:sRGB;fill-rule:evenodd;stroke-linecap:square;stroke-miterlimit:3" viewBox="0 0 54.503 53.85"><g transform="translate(-12.24 -12.244)"><title>Page-1</title><g transform="translate(11.145 -34.016)"><title>Application Insights Continuous Export.14319</title><title>Sheet.14320</title><title>Sheet.14321</title><path d="m22.24 95.88 3.05-4.13c-7.96-1.73-15.37-8.47-16.13-17.04-.77-9.34 5.23-17.7 14.06-20.09l3.27-4.24-4.14-3.8C9.27 49.62 0 61.78 1.2 75.47c1.09 13.03 11.45 23.12 23.98 24.64Zm10.25-49.62 2.62 4.23-3.6 3.91c7.96 1.85 15.37 8.58 16.13 17.05.77 9.23-5.12 17.59-13.84 20.09l-2.51 4.66 3.82 3.26c12.75-3.26 21.58-15.2 20.38-28.66-1.09-12.82-10.9-22.7-23-24.54" style="fill:#0072c6;stroke:none;stroke-width:12.23999977;stroke-linecap:butt"/><g transform="translate(14.936 -20.197)"><title>Sheet.14322</title><path d="M0 89.58h4.47v10.53H0Z" style="fill:#0072c6;stroke:none;stroke-width:12.23999977;stroke-linecap:butt"/></g><g transform="translate(22.35 -20.197)"><title>Sheet.14323</title><path d="M0 83.609h4.47v16.505H0z" style="fill:#59b4d9;stroke:none;stroke-width:12.23999977;stroke-linecap:butt"/></g><g transform="translate(29.764 -20.197)"><title>Sheet.14324</title><path d="M0 91.101h4.47v9.013H0z" style="fill:#3999c6;stroke:none;stroke-width:12.23999977;stroke-linecap:butt"/></g><g transform="translate(37.286 -20.305)"><title>Sheet.14325</title><path d="M0 86.649h4.47v13.465H0z" style="fill:#0072c6;stroke:none;stroke-width:12.23999977;stroke-linecap:butt"/></g></g></g></svg>