<svg xmlns="http://www.w3.org/2000/svg" xml:space="preserve" width="73.631" height="74.053" style="font-size:12px;overflow:visible;color-interpolation-filters:sRGB;fill-rule:evenodd;stroke-linecap:square;stroke-miterlimit:3" viewBox="0 0 55.223 55.54"><defs><radialGradient id="a" cx="21.96" cy="104.179" r="32.061" fx="21.96" fy="104.179" gradientTransform="scale(1.01147 .98866)" gradientUnits="userSpaceOnUse"><stop offset=".225" stop-color="#32d4f5"/><stop offset=".59" stop-color="#32d2f2"/><stop offset=".825" stop-color="#32caea"/><stop offset="1" stop-color="#32bedd"/></radialGradient></defs><g transform="translate(-34 -34)"><title>Page-1</title><g transform="translate(32.53 -34.016)"><title>Application Insights Transaction Search.14250</title><title>MsPortalFx.base.images-56</title><g transform="rotate(-45 2.89 118.615)"><title>Sheet.14252</title><path d="M0 121.34a3.447 3.37-180 0 0 3.45 3.37h25.48a3.447 3.37-180 0 0 3.45-3.37v-.47a3.447 3.37-180 0 0-3.45-3.37H3.45A3.447 3.37-180 0 0 0 120.87Z" style="fill:#198ab3;stroke:none;stroke-width:34;stroke-linecap:butt"/></g><g transform="translate(12.27 -13.271)"><title>Sheet.14253</title><ellipse cx="22.212" cy="102.998" rx="22.212" ry="21.711" style="fill:url(#a);stroke:none;stroke-width:34;stroke-linecap:butt"/></g><g transform="translate(16.988 -18.316)"><title>Sheet.14254</title><ellipse cx="17.447" cy="107.656" rx="17.447" ry="17.053" style="fill:#fff;stroke:none;stroke-width:34;stroke-linecap:butt"/></g><g transform="translate(17.53 -31.15)"><title>Sheet.14255</title><path d="M0 124.71s4.78-23.36 27.09-18.06a17.104 16.718-180 0 0-20.58.15A17.04 16.656-180 0 0 0 124.71" style="fill:#c3f1ff;stroke:none;stroke-width:34;stroke-linecap:butt"/></g></g></g></svg>