<svg xmlns="http://www.w3.org/2000/svg" xml:space="preserve" width="71.813" height="75.586" style="font-size:12px;overflow:visible;color-interpolation-filters:sRGB;fill-rule:evenodd;stroke-linecap:square;stroke-miterlimit:3" viewBox="0 0 53.86 56.69"><g transform="translate(-5.386 -5.674)"><title>Page-1</title><g transform="translate(5.386 -34.016)"><title>Audit logs.14221</title><title>Sheet.14222</title><title>Sheet.14223</title><path d="M25.39 75.12a7.5 7.5 0 0 0-.59 1.71c-.13.59-.26 1.2-.37 1.83H7.18v-3.54ZM7.18 85.75V82.2h17.2q.135.915.39 1.8c.17.59.38 1.18.64 1.75zm-3.59 7.08h37.84l3.56 3.55H0V39.69h31.28l15.4 15.19v15.73c-.55-.48-1.12-.92-1.71-1.31-.6-.38-1.23-.72-1.88-1.02V57.4H28.72V43.23H3.59Zm28.72-47.08v8.11h8.22zm.68 22.28q-3.06 1.14-5.25 3.54H7.18v-3.54ZM7.18 53.86h17.95v3.54H7.18Zm32.32 7.08v3.55H7.18v-3.55zm14.36 33.67c0 .48-.18.89-.53 1.24-.36.35-.78.53-1.27.53-.48 0-.9-.18-1.26-.53l-8.16-8.03c-.73.48-1.52.84-2.36 1.08q-1.26.36-2.58.39-1.845 0-3.48-.69a9.4 9.4 0 0 1-2.86-1.88c-.82-.8-1.47-1.74-1.93-2.83a8.6 8.6 0 0 1-.71-3.46c0-1.21.24-2.36.71-3.43.46-1.07 1.1-2 1.9-2.8a9.5 9.5 0 0 1 2.86-1.91 8.75 8.75 0 0 1 3.51-.72c1.24 0 2.39.24 3.48.7 1.08.46 2.03 1.09 2.83 1.91.81.81 1.45 1.75 1.94 2.82.48 1.07.73 2.22.73 3.43 0 .87-.12 1.72-.37 2.55a7.7 7.7 0 0 1-1.12 2.33l8.14 8.05c.35.35.53.77.53 1.25M32.31 80.43c0 .74.15 1.43.43 2.08s.66 1.21 1.15 1.69c.48.48 1.05.86 1.71 1.13q.975.42 2.1.42t2.1-.42a5.3 5.3 0 0 0 1.72-1.13c.48-.48.87-1.04 1.15-1.69s.42-1.34.42-2.08q0-1.11-.42-2.07c-.28-.65-.67-1.21-1.15-1.69-.49-.48-1.06-.86-1.72-1.14-.65-.27-1.35-.41-2.1-.41s-1.45.14-2.1.41q-.99.42-1.71 1.14c-.49.48-.87 1.04-1.15 1.69-.28.64-.43 1.33-.43 2.07" style="fill:#000;stroke:none;stroke-width:.29882801;stroke-linecap:butt"/></g></g></svg>