<svg xmlns="http://www.w3.org/2000/svg" xml:space="preserve" width="75.594" height="75.594" style="font-size:12px;overflow:visible;color-interpolation-filters:sRGB;fill-rule:evenodd;stroke-linecap:square;stroke-miterlimit:3" viewBox="0 0 56.695 56.696"><g transform="translate(-12.24 -12.239)"><title>Page-1</title><g transform="translate(12.24 -34.016)"><title>Automation Start Stop VM.14114</title><title>g20</title><title>path4</title><path d="M0 66.67h17.01v17H0Zm0 19.27h17.01v17.01H0Zm19.28 0h17v17.01h-17z" style="fill:#dd5900;stroke:none;stroke-width:12.23999977;stroke-linecap:butt"/><g transform="translate(19.276 -19.276)"><title>path6</title><path d="M18.71 65.53C8.24 65.53 0 73.77 0 84.24v18.71h18.71c10.47 0 18.71-8.24 18.71-18.71s-8.24-18.71-18.71-18.71" style="fill:#3999c6;stroke:none;stroke-width:12.23999977;stroke-linecap:butt"/></g><g transform="translate(22.677 -24.945)"><title>circle8</title><circle cx="3.402" cy="99.547" r="3.402" style="fill:#fff;stroke:none;stroke-width:12.23999977;stroke-linecap:butt"/></g><g transform="translate(38.551 -28.346)"><title>circle10</title><circle cx="3.402" cy="99.547" r="3.402" style="fill:#fff;stroke:none;stroke-width:12.23999977;stroke-linecap:butt"/></g><g transform="translate(30.614 -37.417)"><title>circle12</title><circle cx="3.402" cy="99.547" r="3.402" style="fill:#fff;stroke:none;stroke-width:12.23999977;stroke-linecap:butt"/></g><g transform="translate(45.354 -40.819)"><title>circle16</title><circle cx="3.402" cy="99.547" r="3.402" style="fill:#fff;stroke:none;stroke-width:12.23999977;stroke-linecap:butt"/></g><g transform="translate(42.017 -34.054)"><title>path5229</title><path d="m0 102.01 4.32-7.17 1.88 1.15-4.16 6.96z" style="fill:#fff;stroke:none;stroke-width:12.23999977;stroke-linecap:butt"/></g><g transform="translate(26.29 -30.323)"><title>path5229-2</title><path d="m0 101.9 4.84-8 2.12 1.28-4.67 7.77z" style="fill:#fff;stroke:none;stroke-width:13.69880009;stroke-linecap:butt"/></g><g transform="translate(35.243 -32.68)"><title>path5229-7</title><path d="m.79 95.33 5.98 5.3-.96 2.32L0 97.84Z" style="fill:#fff;stroke:none;stroke-width:12.40769958;stroke-linecap:butt"/></g></g></g></svg>