<svg xmlns="http://www.w3.org/2000/svg" xml:space="preserve" width="60.472" height="75.59" style="font-size:12px;overflow:visible;color-interpolation-filters:sRGB;fill-rule:evenodd;stroke-linecap:square;stroke-miterlimit:3" viewBox="0 0 45.354 56.693"><g transform="translate(-12.24 -12.24)"><title>Page-1</title><g transform="translate(12.24 -34.016)"><title>Automation State Configuration (DSC).14105</title><title>Sheet.14106</title><title>Sheet.14107</title><path d="M0 46.256h45.354v56.693H0z" style="fill:#3999c6;stroke:none;stroke-width:12.23999977;stroke-linecap:butt"/><g transform="translate(4.51 -7.937)"><title>Sheet.14108</title><path d="m.63 97.61-.53-.47c-.1-.1-.1-.28 0-.47l1.47-1.12c.1-.1.1-.1.21-.1.1 0 .21 0 .21.1l3.87 3.74 6.71-7.59c.1-.09.21-.09.31-.09s.1 0 .21.09l1.57 1.03c.11.1.11.1.11.19 0 .1 0 .19-.11.19l-8.69 9.84z" style="fill:#fff;stroke:none;stroke-width:12.23999977;stroke-linecap:butt"/></g><g transform="translate(22.677 -11.905)"><title>Sheet.14109</title><path d="M0 99.547h18.142v3.402H0z" style="fill:#fff;fill-opacity:.6;stroke:none;stroke-width:12.23999977;stroke-linecap:butt"/></g><g transform="translate(4.51 -22.677)"><title>Sheet.14110</title><path d="m.63 97.61-.53-.47c-.1-.1-.1-.28 0-.47l1.47-1.12c.1-.1.1-.1.21-.1.1 0 .21 0 .21.1l3.87 3.74 6.71-7.59c.1-.09.21-.09.31-.09s.1 0 .21.09l1.57 1.03c.11.1.11.1.11.19 0 .1 0 .19-.11.19l-8.69 9.84z" style="fill:#fff;stroke:none;stroke-width:12.23999977;stroke-linecap:butt"/></g><g transform="translate(22.677 -26.646)"><title>Sheet.14111</title><path d="M0 99.547h18.142v3.402H0z" style="fill:#fff;fill-opacity:.6;stroke:none;stroke-width:12.23999977;stroke-linecap:butt"/></g><g transform="translate(4.51 -37.417)"><title>Sheet.14112</title><path d="m.63 97.61-.53-.47c-.1-.1-.1-.28 0-.47l1.47-1.12c.1-.1.1-.1.21-.1.1 0 .21 0 .21.1l3.87 3.74 6.71-7.59c.1-.09.21-.09.31-.09s.1 0 .21.09l1.57 1.03c.11.1.11.1.11.19 0 .1 0 .19-.11.19l-8.69 9.84z" style="fill:#fff;stroke:none;stroke-width:12.23999977;stroke-linecap:butt"/></g><g transform="translate(22.677 -41.386)"><title>Sheet.14113</title><path d="M0 99.547h18.142v3.402H0z" style="fill:#fff;fill-opacity:.6;stroke:none;stroke-width:12.23999977;stroke-linecap:butt"/></g></g></g></svg>