<svg xmlns="http://www.w3.org/2000/svg" xml:space="preserve" width="75.586" height="75.586" style="font-size:12px;overflow:visible;color-interpolation-filters:sRGB;fill-rule:evenodd;stroke-linecap:square;stroke-miterlimit:3" viewBox="0 0 56.69 56.69"><defs><linearGradient id="a" x1="0" x2="56.69" y1="68.02" y2="68.02" gradientUnits="userSpaceOnUse"><stop offset="0" stop-color="#32bedd"/><stop offset=".225" stop-color="#32c9e9"/><stop offset=".545" stop-color="#32d1f2"/><stop offset="1" stop-color="#32d4f5"/></linearGradient></defs><g transform="translate(-34 -34.004)"><title>Page-1</title><g transform="translate(34 -34.016)"><title>Automation Source Control.14125</title><title> MsPortalFx.base.images-76</title><title>Sheet.14127</title><path d="M56.69 99.55v-6.37l-1-.34-7-2.35-1.67-4.36 3.67-7.38-4.67-4.7-1 .34-6.34 3.35-4.33-1.67-3-8.05h-6.34l-.33 1-2.34 6.71-4.33 2.01-7.34-3.69L6 78.75l.34 1.01 3.33 6.37L8 90.49l-8 3.02v6.37l1 .34 7 2.35 1.67 4.36L6 114.31l4.67 4.7 1-.34 6.34-3.35 4.33 1.67 3.01 7.72h6.33l.33-1.01 2.34-7.04 4.33-1.68 7.34 3.69 4.67-4.7-.33-.67-3.34-6.37 1.67-4.36z" style="fill:url(#a);stroke:none;stroke-width:34;stroke-linecap:butt"/><g transform="translate(13.673 -13.083)"><title>Sheet.14128</title><path d="m25.68 101.23-2.67 2.34c3.67 4.03 3.34 10.4-1 14.09s-10.34 3.36-14.01-1c-3.33-3.69-3.33-9.4 0-13.09h.34l2 1.68h.33v-.33L10 98.21c0-.34-.33-.34-.66-.34L3 98.88s-.33 0-.33.33l2 1.68v.34c-4.67 5.7-4 14.09 1.67 18.78 5.67 4.7 14 4.03 18.67-1.68 5-5.03 5-12.41.67-17.1" style="fill:#fff;stroke:none;stroke-width:34;stroke-linecap:butt"/></g></g></g></svg>