<svg xmlns="http://www.w3.org/2000/svg" xml:space="preserve" width="75.586" height="75.586" style="font-size:12px;overflow:visible;color-interpolation-filters:sRGB;fill-rule:evenodd;stroke-linecap:square;stroke-miterlimit:3" viewBox="0 0 56.69 56.69"><g transform="translate(-12.24 -12.244)"><title>Page-1</title><g transform="translate(12.24 -34.016)"><title>Automation Job.14164</title><title>Sheet.14165</title><title>Sheet.14166</title><path d="M53.29 102.95H3.4c-1.88 0-3.4-1.52-3.4-3.4V49.66c0-1.88 1.52-3.4 3.4-3.4h49.89c1.88 0 3.4 1.52 3.4 3.4v49.89c0 1.88-1.52 3.4-3.4 3.4" style="fill:#59b4d9;stroke:none;stroke-width:12.23999977;stroke-linecap:butt"/><g transform="translate(3.402 -3.402)"><title>Sheet.14167</title><path d="M0 53.059h49.89v49.89H0z" style="fill:#fff;fill-opacity:.9;stroke:none;stroke-width:12.23999977;stroke-linecap:butt"/></g><g transform="translate(7.937 -9.07)"><title>Sheet.14168</title><path d="M13.63 87.07H2.25C1.01 87.07 0 88.08 0 89.32v11.39c0 1.23 1.01 2.24 2.25 2.24h11.39c1.24 0 2.25-1.01 2.25-2.25V89.32a2.27 2.27-180 0 0-2.26-2.25m0-22.67H2.25C1.01 64.4 0 65.41 0 66.64v11.4c0 1.22 1.01 2.23 2.25 2.23h11.39c1.24 0 2.25-1.01 2.25-2.24V66.64a2.27 2.27-180 0 0-2.26-2.24" style="fill:#3999c6;stroke:none;stroke-width:12.23999977;stroke-linecap:butt"/></g><g transform="translate(30.387 -31.925)"><title>Sheet.14169</title><path d="m.76 95.9-.6-.64a.64.64 0 0 1-.159-.42.6.6 0 0 1 .189-.4l1.74-1.6c.11-.1.25-.16.38-.16.16 0 .32.07.42.2l4.64 4.97 8.08-10.36c.12-.14.28-.23.46-.23.13 0 .25.05.35.13l1.87 1.44c.13.09.19.21.23.37a.58.58 0 0 1-.125.43L7.99 102.74a.544.544 0 0 1-.828.034z" style="fill:#57a300;stroke:none;stroke-width:12.23999977;stroke-linecap:butt"/></g><g transform="translate(31.68 -9.003)"><title>Sheet.14170</title><path d="m16.01 89.34-2.4-2.4-5.6 5.6-5.61-5.6-2.4 2.4 5.6 5.6-5.6 5.6 2.4 2.41 5.61-5.6 5.6 5.6 2.4-2.41-5.6-5.6z" style="fill:#0072c6;stroke:none;stroke-width:12.23999977;stroke-linecap:butt"/></g></g></g></svg>