<svg xmlns="http://www.w3.org/2000/svg" xml:space="preserve" width="75.467" height="75.586" style="font-size:12px;overflow:visible;color-interpolation-filters:sRGB;fill-rule:evenodd;stroke-linecap:square;stroke-miterlimit:3" viewBox="0 0 56.6 56.69"><g transform="translate(-12.24 -12.244)"><title>Page-1</title><g transform="translate(12.24 -34.016)"><title>Automation Event Grid.14190</title><title>Sheet.14191</title><g transform="translate(7.924 -15.874)"><title>Sheet.14192</title><path d="M36.22 87.07v-2.26H19.25l-.01-.01-7.93 7.94H5.46l13.58-13.6h9.26v-2.27H18.11v.01l-.01-.01L2.25 92.74H0v2.27h6.79l7.93 7.94h19.24v-2.27H15.65l-5.66-5.67h13.78v-2.27h-9.26l5.66-5.67z" style="fill:#0072c6;stroke:none;stroke-width:12.23999977;stroke-linecap:butt"/></g><g transform="translate(30.678 -21.657)"><title>Sheet.14193</title><ellipse cx="3.283" cy="99.66" rx="3.283" ry="3.288" style="fill:#59b4d9;stroke:none;stroke-width:12.23999977;stroke-linecap:butt"/></g><g transform="rotate(-45.001 -24.983 39.765)"><title>Sheet.14194</title><ellipse cx="3.283" cy="99.66" rx="3.283" ry="3.288" style="fill:#59b4d9;stroke:none;stroke-width:12.23999977;stroke-linecap:butt"/></g><g transform="rotate(-45.001 -11.44 34.169)"><title>Sheet.14195</title><ellipse cx="3.283" cy="99.66" rx="3.283" ry="3.288" style="fill:#b8d432;stroke:none;stroke-width:12.23999977;stroke-linecap:butt"/></g><g transform="rotate(-45.001 6.023 46.205)"><title>Sheet.14196</title><ellipse cx="3.283" cy="99.66" rx="3.283" ry="3.288" style="fill:#b8d432;stroke:none;stroke-width:12.23999977;stroke-linecap:butt"/></g><title>Sheet.14197</title><path d="M.91 46.26c-.57 0-.91.34-.91.9V58.5c0 .57.34.91.91.91h5.67c.56 0 .9-.34.9-.91v-4.65H49.1v4.76c0 .57.34.91 1.13.91h5.44c.57 0 .91-.34.91-.91V47.28c.11-.68-.23-1.02-.79-1.02zm54.79 56.69c.56 0 .9-.34.9-.91V90.93c0-.57-.34-.91-.9-.91h-5.44c-.56 0-.9.34-.9.91v4.54H7.58V90.7c0-.56-.34-.9-1.13-.9H.91c-.57 0-.91.34-.91 1.13v11.11c0 .57.34.91.91.91z" style="fill:#0072c6;stroke:none;stroke-width:12.23999977;stroke-linecap:butt"/></g></g></svg>