<svg xmlns="http://www.w3.org/2000/svg" xml:space="preserve" width="75.587" height="75.587" style="font-size:12px;overflow:visible;color-interpolation-filters:sRGB;fill-rule:evenodd;stroke-linecap:square;stroke-miterlimit:3" viewBox="0 0 56.69 56.69"><g transform="translate(-41.633 -41.637)"><title>Page-1</title><g transform="translate(41.633 -41.633)"><title>Automation Connection.14198</title><title>Sheet.14199</title><title>Sheet.14200</title><path d="M7.33 119.52a12.34 12.34 0 0 1 .77-5.4 10.8 10.8 0 0 1 3.08-4.24l6.56-6.95 19.28 19.29-6.94 6.55a10.8 10.8 0 0 1-4.24 3.09 12 12 0 0 1-5.01 1.16l-4.63-.78-3.47-1.92-10.03 9.64-2.7-2.7 9.64-10.03a15.8 15.8 0 0 1-1.93-3.47 17.4 17.4 0 0 1-.38-4.24m13.5 9.64 3.47-.77a9.3 9.3-180 0 0 3.08-2.32l4.24-3.85-13.88-13.89-3.86 4.25-2.31 3.08a12 12-180 0 0-.39 3.86 10.8 10.8-180 0 0 .39 3.47l2.31 3.08 3.09 2.32zm26.22-33.17a15.8 15.8 0 0 1 1.93 3.47 19.3 19.3 0 0 1 .77 4.63 12 12 0 0 1-1.16 5.01 10.8 10.8 0 0 1-3.08 4.25l-6.56 6.94-19.28-19.28 6.94-6.56a10.8 10.8 0 0 1 4.24-3.09 12.34 12.34 0 0 1 5.4-.77h4.24l3.48 1.93 10.02-9.25 2.7 2.69zm-4.24 14.66a9.3 9.3-180 0 0 2.31-3.09 11.2 11.2-180 0 0 .77-3.47 11.6 11.6-180 0 0-.77-3.86l-2.31-3.08-3.09-1.93a5.8 5.8-180 0 0-3.47-.77H32.4l-3.09 2.31-4.24 3.86 13.88 13.88z" style="fill:#000;stroke:none;stroke-width:41.63270187;stroke-linecap:butt"/></g></g></svg>