<svg xmlns="http://www.w3.org/2000/svg" xml:space="preserve" width="71.663" height="75.586" style="font-size:12px;overflow:visible;color-interpolation-filters:sRGB;fill-rule:evenodd;stroke-linecap:square;stroke-miterlimit:3" viewBox="0 0 53.747 56.69"><g transform="translate(-12.24 -12.244)"><title>Page-1</title><g transform="translate(12.24 -34.016)"><title>Automation Runbook.14135</title><title>Sheet.14136</title><g transform="translate(7.794 -14.088)"><title>Sheet.14137</title><path d="M35.48 86.7H2.68C1.28 86.7 0 87.84 0 89.54v12.16l4.54 1.25V91.13H33.5v11.71l4.54-1.25V89.54c0-1.7-1.28-2.84-2.56-2.84" style="fill:#7a7a7a;stroke:none;stroke-width:12.23999977;stroke-linecap:butt"/></g><g transform="translate(24.544 -26.245)"><title>Sheet.14138</title><path d="M0 91.133h4.537v11.816H0z" style="fill:#7a7a7a;stroke:none;stroke-width:12.23999977;stroke-linecap:butt"/></g><title>Sheet.14139</title><path d="M34.2 46.26H19.54c-1.51 0-2.79 1.25-2.79 2.72v13.3c0 1.47 1.28 2.72 2.79 2.72h14.54c1.52 0 2.79-1.25 2.79-2.72v-13.3c.12-1.47-1.16-2.72-2.67-2.72M17.33 84.2H2.79C1.28 84.2 0 85.45 0 86.93v13.29c0 1.48 1.28 2.73 2.79 2.73h14.54c1.51 0 2.79-1.25 2.79-2.73V86.93c0-1.48-1.28-2.73-2.79-2.73m33.62 0H36.41c-1.51 0-2.79 1.25-2.79 2.73v13.29c0 1.48 1.28 2.73 2.79 2.73h14.54c1.51 0 2.79-1.25 2.79-2.73V86.93c.12-1.48-1.16-2.73-2.79-2.73" style="fill:#59b4d9;stroke:none;stroke-width:12.23999977;stroke-linecap:butt"/></g></g></svg>