<svg xmlns="http://www.w3.org/2000/svg" xml:space="preserve" width="75.587" height="75.582" style="font-size:12px;overflow:visible;color-interpolation-filters:sRGB;fill-rule:evenodd;stroke-linecap:square;stroke-miterlimit:3" viewBox="0 0 56.69 56.686"><g transform="translate(-13.304 -13.308)"><title>Page-1</title><g transform="translate(13.304 -34.016)"><title>Automation Python Package.14144</title><title>Sheet.14145</title><g transform="translate(0 -14.046)"><title>Sheet.14146</title><path d="M28.14 61.37c-14.39 0-13.49 6.24-13.49 6.24l.01 6.46H28.4v1.94H9.21S0 74.97 0 89.49s8.04 14.01 8.04 14.01h4.16v-6.74s.38-8.28 8.55-8.28h13.62s7.65.37 7.65-7.16V68.89s1.16-7.52-13.88-7.52m-7.57 4.34c1.37 0 2.47 1.11 2.47 2.48a2.469 2.469 0 1 1-4.94 0c0-1.37 1.1-2.48 2.47-2.48" style="fill:#0072c6;stroke:none;stroke-width:13.30430031;stroke-linecap:butt"/></g><g transform="translate(13.51)"><title>Sheet.14147</title><path d="M15.04 104.01c14.39 0 13.49-6.24 13.49-6.24l-.01-6.46H14.78v-1.94h19.19s9.21 1.04 9.21-13.48-8.03-14.01-8.03-14.01h-4.17v6.74s-.38 8.28-8.54 8.28H8.81s-7.65-.37-7.65 7.15v12.44s-1.16 7.52 13.88 7.52m7.57-4.35a2.47 2.47 0 0 1-2.47-2.47 2.469 2.469 0 1 1 4.94 0 2.47 2.47 0 0 1-2.47 2.47" style="fill:#fcd116;stroke:none;stroke-width:13.30430031;stroke-linecap:butt"/></g></g></g></svg>