<svg xmlns="http://www.w3.org/2000/svg" xml:space="preserve" width="75.586" height="75.586" style="font-size:12px;overflow:visible;color-interpolation-filters:sRGB;fill-rule:evenodd;stroke-linecap:square;stroke-miterlimit:3" viewBox="0 0 56.69 56.69"><defs><linearGradient id="a" x1="0" x2="56.69" y1="68.02" y2="68.02" gradientUnits="userSpaceOnUse"><stop offset=".2" stop-color="#0078d4"/><stop offset=".285" stop-color="#1380da"/><stop offset=".495" stop-color="#3c91e5"/><stop offset=".66" stop-color="#559cec"/><stop offset=".76" stop-color="#5ea0ef"/></linearGradient></defs><g transform="translate(-34 -34.004)"><title>Page-1</title><g transform="translate(34 -34.016)"><title>Automation Module.14148</title><title>Sheet.14149</title><title>Sheet.14150</title><path d="M0 122.82a1.89 1.89-180 0 0 1.89 1.89H54.8a1.89 1.89-180 0 0 1.89-1.89V69.91a1.89 1.89-180 0 0-1.89-1.89H1.89A1.89 1.89-180 0 0 0 69.91Z" style="fill:url(#a);stroke:none;stroke-width:34;stroke-linecap:butt"/><g transform="translate(4.822 -6.3)"><title>Sheet.14151</title><g transform="translate(0 -32.163)"><title>Sheet.14152</title><title>Sheet.14153</title><path d="M0 124.21a.496.496-180 0 0 .496.496l11.824.004a.496.496-180 0 0 .496-.496l.004-10.944a.496.496-180 0 0-.496-.496L.5 112.77a.496.496-180 0 0-.496.496z" style="fill:#fff;fill-opacity:.95;stroke:none;stroke-width:34;stroke-linecap:butt"/><g transform="translate(17.118)"><title>Sheet.14154</title><path d="M0 124.21a.496.496-180 0 0 .496.496l11.824.004a.496.496-180 0 0 .496-.496l.004-10.944a.496.496-180 0 0-.496-.496L.5 112.77a.496.496-180 0 0-.496.496z" style="fill:#fff;fill-opacity:.95;stroke:none;stroke-width:34;stroke-linecap:butt"/></g><g transform="translate(34.235)"><title>Sheet.14155</title><path d="M0 124.21a.496.496-180 0 0 .496.496l11.824.004a.496.496-180 0 0 .496-.496l.004-10.944a.496.496-180 0 0-.496-.496L.5 112.77a.496.496-180 0 0-.496.496z" style="fill:#fff;fill-opacity:.95;stroke:none;stroke-width:34;stroke-linecap:butt"/></g></g><g transform="translate(0 -16.207)"><title>Sheet.14156</title><path d="M0 124.21a.496.496-180 0 0 .496.496l28.754.004a.496.496-180 0 0 .496-.496l-.006-10.944a.496.496-180 0 0-.496-.496L.5 112.77a.496.496-180 0 0-.496.496z" style="fill:#fff;fill-opacity:.45;stroke:none;stroke-width:34;stroke-linecap:butt"/></g><g transform="translate(34.186 -16.207)"><title>Sheet.14157</title><path d="M0 124.21a.496.496-180 0 0 .496.496l11.824.004a.496.496-180 0 0 .496-.496l.004-10.944a.496.496-180 0 0-.496-.496L.5 112.77a.496.496-180 0 0-.496.496z" style="fill:#fff;fill-opacity:.9;stroke:none;stroke-width:34;stroke-linecap:butt"/></g><title>Sheet.14158</title><path d="M0 124.21a.496.496-180 0 0 .496.496l45.734.004a.496.496-180 0 0 .496-.496l-.006-10.944a.496.496-180 0 0-.496-.496L.5 112.77a.496.496-180 0 0-.496.496z" style="fill:#fff;fill-opacity:.75;stroke:none;stroke-width:34;stroke-linecap:butt"/></g></g></g></svg>