<svg xmlns="http://www.w3.org/2000/svg" xml:space="preserve" width="75.611" height="71.814" style="font-size:12px;overflow:visible;color-interpolation-filters:sRGB;fill-rule:evenodd;stroke-linecap:square;stroke-miterlimit:3" viewBox="0 0 56.708 53.861"><g transform="translate(-41.352 -41.348)"><title>Page-1</title><g transform="translate(41.364 -41.351)"><title>Automation Variable.14093</title><title>Sheet.14094</title><title>Sheet.14095</title><path d="M30.08 100.78h-6.94l-4.63 22.32a23.526 23.467 0 0 1-1.93 4.61 16.97 16.927 0 0 1-3.08 4.24 10.799 10.772 0 0 1-3.86 3.46 11.956 11.926 0 0 1-5.01 1.15H3.09l-1.55-.77-1.15-.77a2.314 2.308 0 0 1-.39-1.54 5.4 5.386 0 0 1 .77-2.3l1.93-.77h1.54l.77.77 1.16 1.15.77 1.15h1.93l1.16-1.53 1.15-2.31a5.4 5.386-180 0 0 .78-2.31 3.085 3.078-180 0 0 .77-1.92c0-.77.38-1.16.38-1.93l5.02-23.08h-5.4l.77-2.31h5.01v-1.92a23.526 23.467 0 0 1 1.93-4.62 28.925 28.853 0 0 1 2.7-4.61l4.63-3.08a10.799 10.772 0 0 1 5.01-1.16h1.54l1.55.77a.771.77 0 0 1 .771.77 2.314 2.308 0 0 1 .379 1.54 5.014 5.001 0 0 1-.38 2.31l-2.32.77h-1.54l-.77-.77-1.16-1.92-.77-1.16-1.93.77-1.54 1.92-1.16 2.7c-.38 1.15-.38 1.92-.77 3.08a6.556 6.54-180 0 0-.38 2.69c-.39.77-.39 1.54-.77 1.92h6.94zm20.06 1.93-1.93 1.54-1.54 1.92-1.55 2.31-1.15 1.92.77 2.31c0 .77.38 1.54.38 2.69 0 1.16.39 1.54.77 2.31.39.77.39 1.54 1.16 1.93a3.857 3.847-180 0 0 1.54 1.92h5.79v1.54l-1.93.77-1.54.77h-5.79c-.77-.39-1.15-.39-1.54-1.16l-1.16-1.54c0-.77-.38-1.15-.38-1.92a9.642 9.618 0 0 1-.77-2.69 7.328 7.31 0 0 1-.78-2.7l-2.31 3.47-2.31 3.46-1.55 1.15-1.15 1.16-1.55.77H29.7l-1.93-.77c-.77-.39-.77-1.16-.77-1.93a2.314 2.308 0 0 1 .38-1.54l.77-.76 1.16-.77h4.63l3.47-3.47 2.31-4.23a3.085 3.078-180 0 0-.38-1.54 16.584 16.542 0 0 1-.39-1.92c-.38-.77-.38-1.54-.77-2.31a5.4 5.386-180 0 0-.77-2.31l-.77-1.54-.77-1.15h-3.86l-1.54.77v-1.54h1.15l1.93-.77 1.55-.77h3.47c.77 0 1.15.77 1.54 1.16l1.16 1.53a5.4 5.386-180 0 0 .77 2.31c0 .77.38 1.54.38 2.31s.39 1.54.77 2.31l1.16-1.92 1.54-2.31a8.099 8.079 0 0 1 1.55-2.31c.77-.77 1.15-1.54 1.93-1.92l1.92-1.54 2.32-.77a4.242 4.232 0 0 1 2.31.77 4.242 4.232 0 0 1 .77 2.31 1.543 1.539 0 0 1-.38 1.15l-.77.77-1.16.77z" style="fill:#000;stroke:none;stroke-width:41.35139847;stroke-linecap:butt"/></g></g></svg>