<svg xmlns="http://www.w3.org/2000/svg" xml:space="preserve" width="75.587" height="75.152" style="font-size:12px;overflow:visible;color-interpolation-filters:sRGB;fill-rule:evenodd;stroke-linecap:square;stroke-miterlimit:3" viewBox="0 0 56.69 56.364"><g transform="translate(-38.25 -38.246)"><title>Page-1</title><g transform="translate(38.25 -38.25)"><title>Automation Run as Account.14140</title><title>Sheet.14141</title><g transform="translate(3.209 -14.085)"><title>Sheet.14142</title><path d="M11.05 90.6C5.35 90.25.71 94.83.36 100.46v.71c-.36 5.63 4.28 10.21 9.98 10.56h.71c5.71.35 10.34-4.22 10.7-9.86v-.7c.36-5.64-4.28-10.21-9.98-10.57Zm0 17.61c-3.92 0-7.13-3.17-7.13-7.04 0-3.88 3.21-7.04 7.13-7.04 3.93 0 7.13 3.16 7.13 7.04 0 3.87-3.2 7.04-7.13 7.04m23.18 0c-6.77 0-12.48 5.63-12.48 12.33 0 6.69 5.71 12.32 12.48 12.32s12.48-5.63 12.48-12.32c0-6.7-5.71-12.33-12.48-12.33m0 21.13c-4.99 0-8.91-3.87-8.91-8.8s3.92-8.81 8.91-8.81 8.91 3.88 8.91 8.81-3.92 8.8-8.91 8.8" style="fill:#000;stroke:none;stroke-width:38.25;stroke-linecap:butt"/></g><title>Sheet.14143</title><path d="M24.96 108.21h3.56c0-7.75-6.41-14.08-14.26-14.08C6.42 94.13 0 100.46 0 108.21h3.57c-.36-5.63 4.27-10.21 9.98-10.56h.71c5.71 0 9.99 3.87 10.7 10.56m-3.21 24.65c1.07-7.75 7.49-14.09 15.69-14.09s14.97 6.34 15.69 14.09h3.56c-1.07-9.86-9.27-17.61-19.61-17.61S18.9 123 17.83 132.86Z" style="fill:#000;stroke:none;stroke-width:38.25;stroke-linecap:butt"/></g></g></svg>