<svg xmlns="http://www.w3.org/2000/svg" xml:space="preserve" width="75.621" height="60.472" style="font-size:12px;overflow:visible;color-interpolation-filters:sRGB;fill-rule:evenodd;stroke-linecap:square;stroke-miterlimit:3" viewBox="0 0 56.716 45.354"><defs><linearGradient id="a" x1="-.014" x2="32.418" y1="114.699" y2="114.699" gradientTransform="scale(1.2978 .77054)" gradientUnits="userSpaceOnUse"><stop offset=".22" stop-color="#32d4f5"/><stop offset=".47" stop-color="#31d1f3"/><stop offset=".63" stop-color="#2ec9eb"/><stop offset=".77" stop-color="#29bade"/><stop offset=".89" stop-color="#22a5cb"/><stop offset="1" stop-color="#198ab3"/><stop offset="1" stop-color="#198ab3"/></linearGradient><linearGradient id="b" x1="0" x2="23.359" y1="91.24" y2="91.24" gradientTransform="scale(1.01083 .98928)" gradientUnits="userSpaceOnUse"><stop offset=".22" stop-color="#32d4f5"/><stop offset=".47" stop-color="#31d1f3"/><stop offset=".63" stop-color="#2ec9eb"/><stop offset=".77" stop-color="#29bade"/><stop offset=".89" stop-color="#22a5cb"/><stop offset="1" stop-color="#198ab3"/><stop offset="1" stop-color="#198ab3"/></linearGradient></defs><g transform="translate(-34 -34)"><title>Page-1</title><g transform="translate(34.018 -34.016)"><title>Azure LightHouse My customers.13853</title><title>Sheet.13854</title><g transform="translate(28.523 -7.518)"><title>Sheet.13855</title><path d="M25.63 113.37a2.487 2.434-180 0 0 2.52-2.43.882.863-180 0 0 0-.4c-.98-7.71-5.45-13.99-14.05-13.99-8.59 0-13.22 5.42-14.1 13.99a2.487 2.434-180 0 0 2.24 2.71h23.39z" style="fill:#0078d4;stroke:none;stroke-width:34;stroke-linecap:butt"/></g><g transform="translate(38.346 -12.787)"><title>Sheet.13856</title><path d="M4.25 103.76A7.587 7.426 0 0 1 0 102.52l4.22 10.85 4.22-10.75a8.185 8.011 0 0 1-4.19 1.14" style="fill:#fff;fill-opacity:.8;stroke:none;stroke-width:34;stroke-linecap:butt"/></g><g transform="translate(34.694 -22.4)"><title>Sheet.13857</title><ellipse cx="7.902" cy="105.636" rx="7.902" ry="7.734" style="fill:#0078d4;stroke:none;stroke-width:34;stroke-linecap:butt"/></g><title>Sheet.13858</title><path d="M38.31 113.37a3.746 3.667-180 0 0 3.75-3.67 2.078 2.034-180 0 0 0-.43c-1.45-11.52-8.15-20.89-20.97-20.89-12.81 0-19.77 7.95-21.09 20.8a3.778 3.697-180 0 0 3.34 4.04h34.94z" style="fill:url(#a);stroke:none;stroke-width:34;stroke-linecap:butt"/><g transform="translate(14.986 -7.919)"><title>Sheet.13859</title><path d="M6.3 99.04A11.649 11.4 0 0 1 0 97.19l6.3 16.18 6.29-16.05a11.869 11.616 0 0 1-6.29 1.72" style="fill:#fff;fill-opacity:.8;stroke:none;stroke-width:34;stroke-linecap:butt"/></g><g transform="translate(9.382 -22.246)"><title>Sheet.13860</title><ellipse cx="11.806" cy="101.816" rx="11.806" ry="11.554" style="fill:url(#b);stroke:none;stroke-width:34;stroke-linecap:butt"/></g></g></g></svg>