<svg xmlns="http://www.w3.org/2000/svg" xml:space="preserve" width="75.547" height="75.59" style="font-size:12px;overflow:visible;color-interpolation-filters:sRGB;fill-rule:evenodd;stroke-linecap:square;stroke-miterlimit:3" viewBox="0 0 56.661 56.693"><defs><linearGradient id="a" x1="0" x2="23.856" y1="122.464" y2="122.464" gradientTransform="scale(1.17327 .85232)" gradientUnits="userSpaceOnUse"><stop offset=".18" stop-color="#5ea0ef"/><stop offset="1" stop-color="#0078d4"/></linearGradient></defs><g transform="translate(-34.001 -33.998)"><title>Page-1</title><g transform="translate(33.972 -34.016)"><title>Azure Arc SCVMM Management Server.14006</title><title>g18</title><title>path2</title><path d="M56.6 115.4c-.53 2.34-3.42 4.61-8.65 6.4a71.331 71.646 0 0 1-40.05.05c-4.82-1.7-7.42-3.89-7.82-6.1-.08-.39 0-6.37 0-6.37l56.61-.53s-.03 6.27-.09 6.55" style="fill:#5ea0ef;stroke:none;stroke-width:34;stroke-linecap:butt"/><g transform="translate(.01 -5.466)"><title>path4</title><path d="M56.68 114.42v.08c-.04 5.4-12.65 9.9-28.23 10.05-15.14.16-27.53-3.83-28.38-9.01a3.05 3.064 0 0 1-.05-.54c-.02-2.38 2.4-4.59 6.45-6.34a59.778 60.042 0 0 1 21.79-3.79 59.772 60.036 0 0 1 21.9 3.36c3.99 1.63 6.42 3.75 6.52 6.08z" style="fill:#50e6ff;stroke:none;stroke-width:34;stroke-linecap:butt"/></g><g transform="translate(4.269 -12.786)"><title>rect6</title><path d="M0 122.93a1.772 1.78-180 0 0 1.77 1.78h35.3a1.772 1.78-180 0 0 1.77-1.78v-11.08a1.772 1.78-180 0 0-1.77-1.78H1.77A1.772 1.78-180 0 0 0 111.85Z" style="fill:#005ba1;stroke:none;stroke-width:34;stroke-linecap:butt"/></g><g transform="translate(4.269 -27.42)"><title>rect8</title><path d="M0 122.93a1.772 1.78-180 0 0 1.77 1.78h35.3a1.772 1.78-180 0 0 1.77-1.78v-11.08a1.772 1.78-180 0 0-1.77-1.78H1.77A1.772 1.78-180 0 0 0 111.85Z" style="fill:#0078d4;stroke:none;stroke-width:34;stroke-linecap:butt"/></g><g transform="translate(4.269 -42.056)"><title>rect10</title><path d="M0 122.93a1.772 1.78-180 0 0 1.77 1.78h35.3a1.772 1.78-180 0 0 1.77-1.78v-11.08a1.772 1.78-180 0 0-1.77-1.78H1.77A1.772 1.78-180 0 0 0 111.85Z" style="fill:#5ea0ef;stroke:none;stroke-width:34;stroke-linecap:butt"/></g><g transform="translate(7.817 -17.953)"><title>path12</title><path d="M0 93.29a2.14 2.15 0 0 1 2.14-2.15 2.138 2.147 0 0 1 2.14 2.15 2.138 2.147 0 0 1-2.14 2.15A2.14 2.15 0 0 1 0 93.29m14.67 0a.661.664-180 0 0-.664-.667L7.2 92.62a.664.667-180 1 0 0 1.334l6.81.006a.664.667-180 0 0 .664-.667zm0 14.63a.661.664-180 0 0-.664-.667L7.2 107.25a.664.667-180 0 0 0 1.334l6.81.006a.661.664-180 0 0 .664-.667zm0 14.64a.661.664-180 0 0-.664-.667L7.2 121.89a.664.667-180 1 0 0 1.331h6.81a.661.664-180 0 0 .664-.665zM2.14 110.07a2.138 2.147-180 0 0 2.14-2.15 2.14 2.15-180 0 0-2.14-2.15A2.144 2.153-180 0 0 0 107.92a2.14 2.15-180 0 0 2.14 2.15m0 14.64a2.14 2.15-180 0 0 2.14-2.15 2.138 2.147-180 0 0-2.14-2.15A2.14 2.15-180 0 0 0 122.56a2.144 2.153-180 0 0 2.14 2.15" style="fill:#fff;stroke:none;stroke-width:34;stroke-linecap:butt"/></g><g transform="translate(24.46 -12.79)"><title>path16</title><path d="M27.99 118.32a6.359 6.387-180 0 0-5.44-6.15 8.024 8.06-180 0 0-8.16-7.79 8.16 8.196-180 0 0-7.82 5.45A7.555 7.589-180 0 0 0 117.19a7.694 7.728-180 0 0 7.87 7.52h13.81a6.422 6.45-180 0 0 6.31-6.39" style="fill:url(#a);stroke:none;stroke-width:34;stroke-linecap:butt"/></g></g></g></svg>