<svg xmlns="http://www.w3.org/2000/svg" xml:space="preserve" width="75.59" height="75.592" style="font-size:12px;overflow:visible;color-interpolation-filters:sRGB;fill-rule:evenodd;stroke-linecap:square;stroke-miterlimit:3" viewBox="0 0 56.693 56.694"><defs><linearGradient id="a" x1="0" x2="56.69" y1="68.02" y2="68.02" gradientUnits="userSpaceOnUse"><stop offset="0" stop-color="#0078d4"/><stop offset="1" stop-color="#289bf2"/></linearGradient><linearGradient id="b" x1="-.128" x2="52.377" y1="81.235" y2="81.235" gradientTransform="scale(1.07241 .93248)" gradientUnits="userSpaceOnUse"><stop offset="0" stop-color="#00ccf9"/><stop offset="1" stop-color="#0095e6"/></linearGradient><linearGradient id="c" x1="0" x2="42.029" y1="103.245" y2="103.245" gradientTransform="scale(1.1649 .85845)" gradientUnits="userSpaceOnUse"><stop offset="0" stop-color="#7cecff"/><stop offset="1" stop-color="#50e6ff"/></linearGradient></defs><g transform="translate(-34 -34)"><title>Page-1</title><g transform="translate(34 -34.016)"><title>Azure Workbook.13595</title><title>Sheet.13596</title><title>Sheet.13597</title><path d="M24.48 79.61 0 104.09v15.47a5.156 5.156-180 0 0 5.15 5.15h46.39a5.156 5.156-180 0 0 5.15-5.15V73.17a5.156 5.156-180 0 0-5.15-5.15h-2.58L30.92 86.05Z" style="fill:url(#a);stroke:none;stroke-width:34;stroke-linecap:butt"/><g transform="translate(.523)"><title>Sheet.13598</title><path d="M23.96 95.07 1.32 117.71a3.76 3.76-180 0 0-1.2 4.34 5.15 5.15-180 0 0 4.51 2.66h46.39a5.156 5.156-180 0 0 5.15-5.15V75.75L30.4 101.51Z" style="fill:url(#b);stroke:none;stroke-width:34;stroke-linecap:butt"/></g><g transform="translate(0 -20.614)"><title>Sheet.13599</title><path d="m30.92 106.67 18.04-18.04H5.15A5.156 5.156-180 0 0 0 93.78v30.93l24.48-24.48z" style="fill:url(#c);stroke:none;stroke-width:34;stroke-linecap:butt"/></g></g></g></svg>