<svg xmlns="http://www.w3.org/2000/svg" xml:space="preserve" width="71.563" height="75.595" style="font-size:12px;overflow:visible;color-interpolation-filters:sRGB;fill-rule:evenodd;stroke-linecap:square;stroke-miterlimit:3" viewBox="0 0 53.672 56.696"><defs><linearGradient id="a" x1="0" x2="33.977" y1="66.189" y2="66.189" gradientTransform="scale(.80319 1.24504)" gradientUnits="userSpaceOnUse"><stop offset="0" stop-color="#a67af4"/><stop offset="1" stop-color="#773adc"/></linearGradient></defs><g transform="translate(-34 -33.998)"><title>Page-1</title><g transform="translate(33.907 -34.016)"><title>Azure Arc Machine.14040</title><title>Sheet.14041</title><g transform="translate(.073)"><title>Sheet.14042</title><path d="M53.61 115.88c-.51 2.2-3.24 4.38-8.19 6.07a67.583 67.98 0 0 1-37.95.05c-4.56-1.63-7.02-3.69-7.4-5.81-.07-.37 0-6.19 0-6.19l53.62-.5s-.02 6.1-.08 6.38" style="fill:#5ea0ef;stroke:none;stroke-width:34;stroke-linecap:butt"/></g><g transform="rotate(-.575 -520.818 103.485)"><title>Sheet.14043</title><ellipse cx="26.837" cy="115.377" rx="26.837" ry="9.333" style="fill:#50e6ff;stroke:none;stroke-width:34;stroke-linecap:butt"/></g><g transform="translate(13.296 -14.395)"><title>Sheet.14044</title><path d="M27.29 123.28a1.509 1.518 0 0 1-1.56 1.43H1.57A1.509 1.518 0 0 1 0 123.28V83.85a1.503 1.511 0 0 1 1.57-1.44h24.15a1.506 1.515 0 0 1 1.56 1.43z" style="fill:url(#a);stroke:none;stroke-width:34;stroke-linecap:butt"/></g><g transform="translate(17.3 -35.31)"><title>Sheet.14045</title><path d="M16.55 124.71H2.96A3.13 3.149 0 0 1 0 121.42a3.13 3.149 0 0 1 2.96-3.29h13.59a3.13 3.149 0 0 1 2.97 3.29 3.13 3.149 0 0 1-2.97 3.29m2.97-13.07a3.13 3.149-180 0 0-2.97-3.28H2.96A3.13 3.149-180 0 0 0 111.64a3.13 3.149-180 0 0 2.96 3.29h13.59a3.13 3.149-180 0 0 2.97-3.29" style="fill:#552f99;stroke:none;stroke-width:34;stroke-linecap:butt"/></g><g transform="translate(30.805 -37.063)"><title>Sheet.14046</title><path d="M2.19 111.19a2.191 2.204 0 1 1-2.19 2.2 2.191 2.204 0 0 1 2.19-2.2M0 123.15a2.191 2.204-180 1 0 2.19-2.2A2.191 2.204-180 0 0 0 123.16z" style="fill:#50e6ff;stroke:none;stroke-width:34;stroke-linecap:butt"/></g></g></g></svg>