<svg xmlns="http://www.w3.org/2000/svg" xml:space="preserve" width="75.587" height="64.263" style="font-size:12px;overflow:visible;color-interpolation-filters:sRGB;fill-rule:evenodd;stroke-linecap:square;stroke-miterlimit:3" viewBox="0 0 56.69 48.197"><defs><linearGradient id="a" x1="0" x2="47.623" y1="90.722" y2="90.722" gradientTransform="scale(1.19038 .84007)" gradientUnits="userSpaceOnUse"><stop offset="0" stop-color="#0078d4"/><stop offset=".155" stop-color="#1380da"/><stop offset=".53" stop-color="#3c91e5"/><stop offset=".82" stop-color="#559cec"/><stop offset="1" stop-color="#5ea0ef"/></linearGradient></defs><g transform="translate(-34 -33.997)"><title>Page-1</title><g transform="translate(34 -34.016)"><title>Azure Monitor Service Bus Health.13648</title><title>MsPortalFx.base.images-58</title><g transform="translate(0 -8.2)"><title>Sheet.13650</title><path d="M56.69 103.69A12.737 12.676-180 0 0 45.64 91.5 16.063 15.986-180 0 0 29.1 76.22a16.47 16.39-180 0 0-15.75 10.69A15.197 15.124-180 0 0 0 101.46a15.433 15.359-180 0 0 15.96 14.75q.72 0 1.41-.06h25.85a2.58 2.567-180 0 0 .68-.1 12.891 12.83-180 0 0 12.79-12.36" style="fill:url(#a);stroke:none;stroke-width:34;stroke-linecap:butt"/></g><g transform="translate(17.087 -8.178)"><title>Sheet.13651</title><path d="M20.92 109.09H.89a.87.865-180 0 0-.888.846L0 115.37a.87.865-180 0 0 .885.846l20.035-.006a.87.865-180 0 0 .885-.846l-.005-5.424a.872.868-180 0 0-.885-.846z" style="fill:#32bedd;stroke:none;stroke-width:34;stroke-linecap:butt"/></g><g transform="translate(17.087)"><title>Sheet.13652</title><path d="M20.92 109.09H.89a.87.865-180 0 0-.888.846L0 115.36a.87.865-180 0 0 .885.85H20.92a.87.865-180 0 0 .885-.85l-.005-5.42a.872.868-180 0 0-.885-.846z" style="fill:#198ab3;stroke:none;stroke-width:34;stroke-linecap:butt"/></g><g transform="translate(35.27 -1.59)"><title>Sheet.13653</title><path d="M.23 103.83H1.4a.227.226 0 0 1 .227.226l.003 1.124a.217.216 0 0 1-.217.216L.22 105.39a.217.216 0 0 1-.217-.216L0 104.05a.227.226 0 0 1 .227-.216zm-.01 2.69H1.4a.227.226 0 0 1 .227.226l.003 1.104a.227.226 0 0 1-.227.226l-1.173.004a.227.226 0 0 1-.227-.226L0 106.73a.217.216 0 0 1 .22-.216zm.07 5.45h1.18a.227.226 0 0 1 .227.226l.003 1.114a.217.216 0 0 1-.217.216L.3 113.53a.227.226 0 0 1-.227-.226L.07 112.2a.217.216 0 0 1 .217-.229zm0 2.68h1.18a.227.226 0 0 1 .227.226L1.7 116a.217.216 0 0 1-.217.216L.29 116.21a.217.216 0 0 1-.217-.216L.07 114.87a.217.216 0 0 1 .217-.216z" style="fill:#b4ec36;stroke:none;stroke-width:34;stroke-linecap:butt"/></g><g transform="translate(16.898 -16.976)"><title>Sheet.13654</title><path d="M20.92 109.07H.89a.87.865-180 0 0-.888.85L0 115.36a.872.868-180 0 0 .885.85H20.92a.872.868-180 0 0 .885-.85l-.005-5.44a.872.868-180 0 0-.885-.85z" style="fill:#50e6ff;stroke:none;stroke-width:34;stroke-linecap:butt"/></g><g transform="translate(19.962 -18.55)"><title>Sheet.13655</title><path d="M15.34 111.98h1.18a.227.226 0 0 1 .227.226l.003 1.114a.217.216 0 0 1-.217.216l-1.183.004a.227.226 0 0 1-.227-.226l-.003-1.114a.217.216 0 0 1 .22-.216zm0 2.68h1.18a.227.226 0 0 1 .227.226L16.75 116a.217.216 0 0 1-.217.216l-1.193-.006a.217.216 0 0 1-.217-.216l-.003-1.124a.217.216 0 0 1 .217-.207zm1.34-9.01-7.65 7.62a.913.909 0 0 1-1.291 0L.09 105.65a.41.407 0 0 1 .29-.693l4.7.003a.406.404-180 0 0 .406-.404l.004-9.516a.315.313 0 0 1 .315-.313l5.145.003a.315.313 0 0 1 .315.313l.005 9.517a.406.404-180 0 0 .406.404l4.704-.004a.41.407 0 0 1 .302.69z" style="fill:#fff;stroke:none;stroke-width:34;stroke-linecap:butt"/></g></g></g></svg>