<svg xmlns="http://www.w3.org/2000/svg" xml:space="preserve" width="64.255" height="75.59" style="font-size:12px;overflow:visible;color-interpolation-filters:sRGB;fill-rule:evenodd;stroke-linecap:square;stroke-miterlimit:3" viewBox="0 0 48.191 56.693"><defs><linearGradient id="a" x1="0" x2="39.253" y1="112.962" y2="112.962" gradientTransform="scale(1.22055 .8193)" gradientUnits="userSpaceOnUse"><stop offset="0" stop-color="#552f99"/><stop offset="1" stop-color="#773adc"/></linearGradient><linearGradient id="b" x1="0" x2="17.24" y1="156.008" y2="156.008" gradientTransform="scale(1.38921 .71983)" gradientUnits="userSpaceOnUse"><stop offset=".15" stop-color="#cbcbca"/><stop offset="1" stop-color="#707171"/></linearGradient></defs><g transform="translate(-34 -34.001)"><title>Page-1</title><g transform="translate(34 -34.016)"><title>Azure Arc Virtual Machine.13963</title><title>Sheet.13964</title><g transform="translate(.404)"><title>Sheet.13965</title><path d="M47.56 116.86c-.44 1.96-2.87 3.89-7.26 5.4a59.931 60.345 0 0 1-33.67.04c-4.03-1.43-6.22-3.26-6.57-5.15-.06-.33 0-5.5 0-5.5l47.57-.44s-.03 5.42-.07 5.65" style="fill:#699bd2;stroke:none;stroke-width:34;stroke-linecap:butt"/></g><g transform="translate(0 -4.584)"><title>Sheet.13966</title><ellipse cx="23.807" cy="116.422" rx="23.807" ry="8.286" style="fill:#75ceea;stroke:none;stroke-width:34;stroke-linecap:butt"/></g><g transform="translate(.282 -24.533)"><title>Sheet.13967</title><path d="M0 123.1a1.598 1.61-180 0 0 1.6 1.61h44.71a1.598 1.61-180 0 0 1.6-1.61V94.16a1.598 1.61-180 0 0-1.6-1.61H1.6A1.598 1.61-180 0 0 0 94.16Z" style="fill:url(#a);stroke:none;stroke-width:34;stroke-linecap:butt"/></g><g transform="translate(12.27 -12.127)"><title>Sheet.13968</title><path d="M21.57 122.03c-4.74-.75-4.92-4.18-4.92-9.73H7.27c0 5.55-.16 8.98-4.9 9.73A2.659 2.677-180 0 0 0 124.71h23.95a2.659 2.677-180 0 0-2.38-2.68" style="fill:url(#b);stroke:none;stroke-width:34;stroke-linecap:butt"/></g><g transform="translate(16.247 -31.207)"><title>Sheet.13969</title><g transform="translate(.006 -9.357)"><title>Sheet.13970</title><path d="m15.97 120.01-7.98 4.7-7.99-4.7 7.99-4.7z" style="fill:#fff;fill-opacity:.8;stroke:none;stroke-width:34;stroke-linecap:butt"/></g><g transform="translate(.006 -4.702)"><title>Sheet.13971</title><path d="M0 115.35v9.36l7.97-4.66z" style="fill:#fff;fill-opacity:.63999999;stroke:none;stroke-width:34;stroke-linecap:butt"/></g><g transform="translate(0 -.003)"><title>Sheet.13972</title><path d="m0 120.01 7.99 4.7v-9.36h-.01Z" style="fill:#fff;fill-opacity:.8;stroke:none;stroke-width:34;stroke-linecap:butt"/></g><g transform="translate(7.992 -4.702)"><title>Sheet.13973</title><path d="m0 120.04 7.99 4.67v-9.36z" style="fill:#fff;fill-opacity:.47999998;stroke:none;stroke-width:34;stroke-linecap:butt"/></g><g transform="translate(7.992)"><title>Sheet.13974</title><path d="m0 124.71 7.99-4.7L0 115.34Z" style="fill:#fff;fill-opacity:.63999999;stroke:none;stroke-width:34;stroke-linecap:butt"/></g></g></g></g></svg>