<svg xmlns="http://www.w3.org/2000/svg" xmlns:xlink="http://www.w3.org/1999/xlink" xml:space="preserve" width="60.393" height="75.585" style="font-size:12px;overflow:visible;color-interpolation-filters:sRGB;fill-rule:evenodd;stroke-linecap:square;stroke-miterlimit:3" viewBox="0 0 45.295 56.689"><defs><linearGradient id="a" x1="0" x2="1" y1="0" y2="0" gradientTransform="rotate(90 .5 .5)"><stop offset="0" stop-color="#b796f9"/><stop offset="1" stop-color="#773adc"/></linearGradient><linearGradient xlink:href="#a" id="b" x1="0" x2="16.36" y1="42.184" y2="42.184" gradientTransform="scale(.46944 2.1302)" gradientUnits="userSpaceOnUse"/><linearGradient xlink:href="#a" id="c" x1="0" x2="34.457" y1="110.936" y2="110.936" gradientTransform="scale(1.16581 .85777)" gradientUnits="userSpaceOnUse"/></defs><g transform="translate(-34 -34.005)"><title>Page-1</title><g transform="translate(33.96 -34.016)"><title>Azure Arc Resource Bridge.14015</title><title>Sheet.14016</title><g transform="translate(.025)"><title>Sheet.14017</title><path d="M25.53 109.01v.72a5.711 5.796 0 1 1-5.75 0v-.67l-19.72.19s-.06 7.91 0 8.22c.31 1.8 2.4 3.56 6.25 4.93a56.988 57.837-180 0 0 32.02-.04c4.17-1.44 6.48-3.29 6.91-5.17.05-.23.07-8.37.07-8.37z" style="fill:#5ea0ef;stroke:none;stroke-width:34;stroke-linecap:butt"/></g><g transform="translate(0 -7.807)"><title>Sheet.14018</title><path d="M16.97 122.47a5.668 5.752 0 0 1 2.84-4.94v-8.43C8.62 109.69 0 113.12.04 117.18c.04 3.74 7.44 6.79 17.37 7.53a5.665 5.749 0 0 1-.44-2.24m8.58-13.42v8.49a5.596 5.68 0 0 1 2.42 7.08c9.98-.93 17.38-4.15 17.35-7.89-.04-4.04-8.65-7.28-19.77-7.68" style="fill:#50e6ff;stroke:none;stroke-width:34;stroke-linecap:butt"/></g><g transform="translate(19.808 -2.141)"><title>Sheet.14019</title><path d="M5.75 109.68v2.19a5.711 5.796 0 1 1-5.75 0v-2.19a7.682 7.797-180 1 0 5.75 0" style="fill:#005ba1;stroke:none;stroke-width:34;stroke-linecap:butt"/></g><g transform="translate(18.844 -6.145)"><title>Sheet.14020</title><path d="M3.84 124.71a3.83 3.887-180 0 0 3.83-3.89 3.787 3.843-180 0 0-2.83-3.69V97.46a3.784 3.84-180 0 0 2.84-3.69 3.83 3.887-180 0 0-3.84-3.91 3.83 3.887-180 0 0-3.83 3.89 3.787 3.843-180 0 0 2.83 3.71v19.68A3.784 3.84-180 0 0 0 120.83a3.833 3.89-180 0 0 3.84 3.88" style="fill:url(#b);stroke:none;stroke-width:34;stroke-linecap:butt"/></g><g transform="translate(2.596 -27.137)"><title>Sheet.14021</title><path d="M32.34 106.46a11.485 11.656-180 0 0-11.72-11.3 11.761 11.937-180 0 0-11.21 7.88A10.882 11.044-180 0 0 0 113.81a11.04 11.205-180 0 0 11.31 10.9h5.91v-5a5.677 5.762 0 0 1 2.86-10.76 5.674 5.758 0 0 1 2.88 10.76v5h7.88a9.579 9.722-180 0 0 9.33-9.26 9.16 9.296-180 0 0-7.83-8.99" style="fill:url(#c);stroke:none;stroke-width:34;stroke-linecap:butt"/></g></g></g></svg>