<svg xmlns="http://www.w3.org/2000/svg" xml:space="preserve" width="75.586" height="60.48" style="font-size:12px;overflow:visible;color-interpolation-filters:sRGB;fill-rule:evenodd;stroke-linecap:square;stroke-miterlimit:3" viewBox="0 0 56.69 45.36"><g transform="translate(-5.67 -4.534)"><title>Page-1</title><g transform="translate(5.67 -34.016)"><title>Azure LightHouse Projection.13822</title><title>g1535</title><title>path1557</title><path d="M0 82.62v-1.28h41.65v2.57H0Zm41.51-24.23.03-4.24-.29-.61c-.16-.34-.47-.75-.69-.91-.93-.69-.43-.67-12.67-.67H16.66l.53-.53c.75-.76 1.81-1.41 2.77-1.7.88-.26.85-.22.98-1.32.22-1.89 2.02-3.67 4.09-4.04 1.32-.24 2.92.2 3.94 1.08.66.56.74.5 1.29-.95.53-1.37 1.08-2.19 2.25-3.32 1.84-1.78 3.89-2.63 6.4-2.63 1.89 0 2.88.23 4.59 1.09.74.37 1.22.74 2.1 1.6 1 .97 1.22 1.26 1.76 2.33.35.69.7 1.59.8 2.04.25 1.2.23 3.09-.06 4.2-.13.5-.24 1.01-.24 1.12 0 .27.37.29 1.06.05 1.93-.67 4.4-.07 5.97 1.44 1.26 1.21 1.8 2.5 1.8 4.26-.01 2.16-1.09 3.98-3.04 5.09-1.27.72-1.32.73-6.98.8l-5.2.06zm-20.98 4c-2.9-.61-5.14-3.19-5.28-6.08l-.04-.85h22.74v7.11l-8.32-.01c-6.64 0-8.48-.04-9.1-.17" style="fill:#59b4d9;stroke:none;stroke-width:.097958;stroke-linecap:butt"/><g transform="translate(1.467 -3.026)"><title>path1537</title><path d="M1.31 83.77c-.42-.15-.85-.55-1.07-.97-.23-.44-.24-.73-.24-13.1 0-8.63.04-12.75.13-12.97.19-.49.82-1.07 1.3-1.2.27-.08 6.98-.12 18.43-.12h18.02l.52.25c.28.13.66.43.84.66l.32.41.04 12.54c.02 6.9 0 12.72-.04 12.93-.1.53-.92 1.39-1.47 1.54-.51.13-34.63.17-34.63.03 0-.05.2-.25.45-.44.24-.19.88-.73 1.42-1.19l.98-.85h15.21c13.6 0 15.23-.02 15.36-.18.13-.15.14-2.36.08-11.51-.04-6.22-.12-11.36-.17-11.4-.16-.15-33.95-.23-34.13-.09-.12.1-.15 1.33-.15 6.17 0 5.33.02 6.06.18 6.22.17.16.82.18 5.34.18 3.04 0 5.23-.05 5.34-.11.15-.09.17-.43.14-2.1-.03-1.38 0-1.98.09-1.98.15 0 5.62 4.88 5.62 5.02 0 .05-1.25 1.27-2.78 2.72l-2.77 2.63-.06-2.13c-.04-1.17-.11-2.19-.16-2.27-.14-.21-10.59-.21-10.8-.01-.22.22-.2 8.53.01 8.71.09.07.8.14 1.66.16l1.51.03-1.49 1.25-1.49 1.25h-.68c-.37-.01-.76-.04-.86-.08" style="fill:#0077d3;stroke:none;stroke-width:.097958;stroke-linecap:butt"/></g></g></g></svg>