<svg xmlns="http://www.w3.org/2000/svg" xml:space="preserve" width="75.525" height="75.595" style="font-size:12px;overflow:visible;color-interpolation-filters:sRGB;fill-rule:evenodd;stroke-linecap:square;stroke-miterlimit:3" viewBox="0 0 56.644 56.696"><g transform="translate(-33.997 -34.002)"><title>Page-1</title><g transform="translate(37.303 -34.016)"><title>Azure Center for SAP.13913</title><title>Sheet.13914</title><g transform="translate(24.555 -28.795)"><title>Sheet.13915</title><path d="M7.74 111.23v8.97L0 124.71v-8.98z" style="fill:#32bedd;stroke:none;stroke-width:34;stroke-linecap:butt"/></g><g transform="translate(16.812 -37.765)"><title>Sheet.13916</title><path d="m15.48 120.2-7.74 4.51L0 120.19l7.74-4.5Z" style="fill:#9cebff;stroke:none;stroke-width:34;stroke-linecap:butt"/></g><g transform="translate(16.812 -28.795)"><title>Sheet.13917</title><path d="M7.74 115.74v8.97L0 120.2v-8.98z" style="fill:#50e6ff;stroke:none;stroke-width:34;stroke-linecap:butt"/></g><g transform="translate(15.336 -12.86)"><title>Sheet.13918</title><path d="M7.73 111.24v8.96L0 124.71v-8.98z" style="fill:#32bedd;stroke:none;stroke-width:34;stroke-linecap:butt"/></g><g transform="translate(7.593 -21.827)"><title>Sheet.13919</title><path d="m15.48 120.2-7.74 4.51L0 120.19l7.74-4.5Z" style="fill:#9cebff;stroke:none;stroke-width:34;stroke-linecap:butt"/></g><g transform="translate(7.593 -12.86)"><title>Sheet.13920</title><path d="M7.74 115.74v8.97L0 120.2v-8.98z" style="fill:#50e6ff;stroke:none;stroke-width:34;stroke-linecap:butt"/></g><g transform="translate(34.07 -12.834)"><title>Sheet.13921</title><path d="M7.73 111.24v8.96L0 124.71v-8.98z" style="fill:#32bedd;stroke:none;stroke-width:34;stroke-linecap:butt"/></g><g transform="translate(26.323 -21.8)"><title>Sheet.13922</title><path d="m15.48 120.2-7.73 4.51L0 120.19l7.75-4.5Z" style="fill:#9cebff;stroke:none;stroke-width:34;stroke-linecap:butt"/></g><g transform="translate(26.323 -12.834)"><title>Sheet.13923</title><path d="M7.75 115.74v8.97L0 120.2v-8.98z" style="fill:#50e6ff;stroke:none;stroke-width:34;stroke-linecap:butt"/></g><g transform="translate(26.7 -9.53)"><title>Sheet.13924</title><path d="m.32 77.59 1.79 1 .72.4a.96.961 0 0 1 .033 1.669l-.713.431L0 82.39a23.502 23.55 0 0 1 17.11 37.65.526.527-180 0 0-.077.157l-.893 3.333a.956.958-180 0 0 1.172 1.175l2.668-.715a.46.46-180 0 0 .25-.16A28.285 28.342-180 0 0 .32 77.59" style="fill:#005ba1;stroke:none;stroke-width:34;stroke-linecap:butt"/></g><g transform="translate(1.552)"><title>Sheet.13925</title><path d="m41.23 116.98-.8.21a.956.958 0 0 1-1.169-1.175l.209-.795.59-2.21a23.512 23.56 0 0 1-36.16-3.57.46.46-180 0 0-.173-.157L1.39 108.09a.96.961-180 0 0-1.392.904l.172 3.336a.516.517-180 0 0 .09.257 28.511 28.569-180 0 0 4.02 4.603 28.241 28.299-180 0 0 39.18-.8z" style="fill:#0ff;stroke:none;stroke-width:34;stroke-linecap:butt"/></g><g transform="translate(0 -14.762)"><title>Sheet.13926</title><path d="m.04 122.17-.04-.83a.956.958 0 0 1 1.392-.901l.738.381 1.91.98a23.519 23.567 0 0 1 19.84-34.23.456.457-180 0 0 .216-.067L26.7 85.93a.956.958-180 0 0-.033-1.669L24.08 82.84a.503.504-180 0 0-.256-.06A28.285 28.342-180 0 0 .17 124.71Z" style="fill:#32bedd;stroke:none;stroke-width:34;stroke-linecap:butt"/></g></g></g></svg>