<svg xmlns="http://www.w3.org/2000/svg" xml:space="preserve" width="71.563" height="75.594" style="font-size:12px;overflow:visible;color-interpolation-filters:sRGB;fill-rule:evenodd;stroke-linecap:square;stroke-miterlimit:3" viewBox="0 0 53.672 56.695"><defs><linearGradient id="a" x1="0" x2="33.65" y1="61.487" y2="61.487" gradientTransform="scale(.76286 1.31085)" gradientUnits="userSpaceOnUse"><stop offset="0" stop-color="#949494"/><stop offset="1" stop-color="#b3b3b3"/></linearGradient><linearGradient id="b" x1="0" x2="32.927" y1="114.83" y2="114.83" gradientTransform="scale(1.18474 .84407)" gradientUnits="userSpaceOnUse"><stop offset="0" stop-color="#0078d4"/><stop offset="1" stop-color="#5ea0ef"/></linearGradient></defs><g transform="translate(-34 -33.999)"><title>Page-1</title><g transform="translate(33.907 -34.016)"><title>Azure Arc SQL Managed Instance.13983</title><title>Sheet.13984</title><g transform="translate(.075)"><title>Sheet.13985</title><path d="M53.61 115.85c-.5 2.21-3.24 4.39-8.19 6.09a67.547 68.165 0 0 1-37.95.05c-4.56-1.62-7.02-3.69-7.4-5.82-.07-.37 0-6.2 0-6.2l53.62-.51s-.02 6.12-.08 6.39" style="fill:#5ea0ef;stroke:none;stroke-width:34;stroke-linecap:butt"/></g><g transform="rotate(-.575 -521.074 103.452)"><title>Sheet.13986</title><ellipse cx="26.837" cy="115.345" rx="26.837" ry="9.363" style="fill:#50e6ff;stroke:none;stroke-width:34;stroke-linecap:butt"/></g><g transform="translate(5.538 -12.586)"><title>Sheet.13987</title><path d="M25.67 123.21a1.515 1.528 0 0 1-1.49 1.5H1.49a1.49 1.503 0 0 1-1.49-1.5V82.1a1.465 1.478 0 0 1 1.44-1.5h22.74a1.49 1.503 0 0 1 1.49 1.5z" style="fill:url(#a);stroke:none;stroke-width:34;stroke-linecap:butt"/></g><g transform="translate(9.303 -38.392)"><title>Sheet.13988</title><path d="M0 121.87a2.795 2.82 0 0 1 2.77-2.8h12.81a2.795 2.82 0 0 1 2.87 2.74v.06a2.816 2.842 0 0 1-2.79 2.84H2.77A2.795 2.82 0 0 1 0 121.87m2.77-5.54h12.86a2.795 2.82-180 0 0 2.82-2.8.707.714-180 0 0 0-.082 2.795 2.82-180 0 0-2.87-2.738H2.77a2.785 2.81-180 0 0 0 5.62" style="fill:#003067;stroke:none;stroke-width:34;stroke-linecap:butt"/></g><g transform="translate(10.342 -39.895)"><title>Sheet.13989</title><path d="M1.88 113.13a1.878 1.895 0 1 1-1.88 1.9 1.878 1.895 0 0 1 1.88-1.9M0 123.37a1.878 1.895-180 1 0 1.88-1.9 1.878 1.895-180 0 0-1.88 1.9" style="fill:#50e6ff;stroke:none;stroke-width:34;stroke-linecap:butt"/></g><g transform="translate(10.968 -12.428)"><title>Sheet.13990</title><path d="M39.01 115.98a8.781 8.861-180 0 0-7.61-8.49 11.028 11.129-180 0 0-11.37-10.56 11.3 11.403-180 0 0-10.82 7.33A10.458 10.554-180 0 0 0 114.42a10.609 10.706-180 0 0 10.98 10.29H30.3a8.86 8.94-180 0 0 8.71-8.73" style="fill:url(#b);stroke:none;stroke-width:34;stroke-linecap:butt"/></g><g transform="translate(17.177 -15.355)"><title>Sheet.13991</title><path d="M22.63 119.88v-8.86H20.2v10.88h6.41v-2zm-18.56-4.35a5.796 5.849 0 0 1-1.33-.82 1.152 1.162 0 0 1-.31-.84.895.903 0 0 1 .394-.793 1.737 1.753 0 0 1 1.096-.317 4.34 4.38 0 0 1 2.61.76v-2.26a7.51 7.58-180 0 0-2.61-.4 4.412 4.453-180 0 0-2.85.87A2.879 2.905-180 0 0 0 114.08a3.495 3.527-180 0 0 2.46 3.16 6.537 6.597 0 0 1 1.59.94 1.105 1.115 0 0 1 .39.85.895.903 0 0 1-.394.793 1.975 1.993 0 0 1-1.176.317 4.25 4.289 0 0 1-2.81-1.11v2.43a5.911 5.965-180 0 0 2.69.6 4.973 5.018-180 0 0 3-.74 2.816 2.842-180 0 0 1.13-2.4 2.62 2.643-180 0 0-.65-1.84 6.171 6.228-180 0 0-2.16-1.55m13.5 4.16a6.187 6.243-180 0 0 .87-3.33 5.977 6.032-180 0 0-.66-2.95 4.613 4.655-180 0 0-1.8-1.95 5.066 5.113-180 0 0-2.79-.68 5.77 5.823-180 0 0-2.61.77 4.888 4.933-180 0 0-1.91 2.03 6.615 6.676-180 0 0-.71 3 5.908 5.962-180 0 0 .63 2.77 4.904 4.949-180 0 0 1.78 1.96 5.239 5.286-180 0 0 2.61.76l2.22 2.64h3.13l-3.11-2.9a4.741 4.784-180 0 0 2.35-2.12m-2.43-.66a2.56 2.583 0 0 1-3.94-.03 3.924 3.96 0 0 1-.74-2.64 3.821 3.856 0 0 1 .76-2.63 2.406 2.428 0 0 1 2.01-.98 2.253 2.274 0 0 1 1.94.98 4.03 4.067 0 0 1 .73 2.63 3.843 3.878 0 0 1-.77 2.68z" style="fill:#f2f2f2;stroke:none;stroke-width:34;stroke-linecap:butt"/></g></g></g></svg>