<svg xmlns="http://www.w3.org/2000/svg" xmlns:xlink="http://www.w3.org/1999/xlink" xml:space="preserve" width="60.393" height="75.592" style="font-size:12px;overflow:visible;color-interpolation-filters:sRGB;fill-rule:evenodd;stroke-linecap:square;stroke-miterlimit:3" viewBox="0 0 45.295 56.693"><defs><linearGradient id="a" x1="0" x2="1" y1="0" y2="0" gradientTransform="rotate(90 .5 .5)"><stop offset="0" stop-color="#b796f9"/><stop offset="1" stop-color="#773adc"/></linearGradient><linearGradient xlink:href="#a" id="b" x1="0" x2="16.36" y1="42.001" y2="42.001" gradientTransform="scale(.46944 2.1302)" gradientUnits="userSpaceOnUse"/><linearGradient xlink:href="#a" id="c" x1="0" x2="34.463" y1="110.451" y2="110.451" gradientTransform="scale(1.16561 .85792)" gradientUnits="userSpaceOnUse"/></defs><g transform="translate(-33.605 -33.605)"><title>Page-1</title><g transform="translate(33.565 -34.016)"><title>Azure Arc Appliance.14079</title><title>g10</title><g transform="translate(.025)"><title>path2</title><path d="M25.53 108.61v.72a5.711 5.796 0 1 1-5.75 0v-.66l-19.72.18s-.06 7.91 0 8.23c.31 1.8 2.4 3.55 6.25 4.93a56.988 57.837-180 0 0 32.02-.05c4.17-1.44 6.48-3.29 6.91-5.16.05-.23.07-8.37.07-8.37z" style="fill:#5ea0ef;stroke:none;stroke-width:33.60520172;stroke-linecap:butt"/></g><g transform="translate(0 -7.807)"><title>path4-7-9</title><path d="M16.97 122.07a5.668 5.752 0 0 1 2.84-4.94v-8.43C8.62 109.3 0 112.73.04 116.78c.04 3.74 7.44 6.79 17.37 7.54a5.665 5.749 0 0 1-.44-2.25m8.58-13.42v8.49a5.596 5.68 0 0 1 2.42 7.08c9.98-.93 17.38-4.14 17.35-7.89-.04-4.04-8.65-7.28-19.77-7.68" style="fill:#50e6ff;stroke:none;stroke-width:33.60520172;stroke-linecap:butt"/></g><g transform="translate(19.808 -2.141)"><title>path6</title><path d="M5.75 109.29v2.19a5.711 5.796 0 1 1-5.75 0v-2.19a7.682 7.797-180 1 0 5.75 0" style="fill:#005ba1;stroke:none;stroke-width:33.60520172;stroke-linecap:butt"/></g><g transform="translate(18.844 -6.145)"><title>path8</title><path d="M3.84 124.32a3.887 3.83-90 0 0 3.83-3.89 3.787 3.843-180 0 0-2.83-3.69V97.06a3.784 3.84-180 0 0 2.84-3.69 3.887 3.83-90 0 0-3.84-3.9 3.887 3.83-90 0 0-3.83 3.88 3.787 3.843-180 0 0 2.83 3.71v19.69A3.784 3.84-180 0 0 0 120.44a3.89 3.833-90 0 0 3.84 3.88" style="fill:url(#b);stroke:none;stroke-width:33.60520172;stroke-linecap:butt"/></g><g transform="translate(2.596 -27.137)"><title>path10</title><path d="M32.34 106.06a11.485 11.656-180 0 0-11.72-11.3 11.761 11.937-180 0 0-11.21 7.89A10.882 11.044-180 0 0 0 113.41a11.04 11.205-180 0 0 11.31 10.91h5.91v-5a5.677 5.762 0 0 1 2.86-10.76 5.758 5.674 90 0 1 2.88 10.76v5h7.88a9.579 9.722-180 0 0 9.33-9.26 9.16 9.296-180 0 0-7.83-9" style="fill:url(#c);stroke:none;stroke-width:33.60520172;stroke-linecap:butt"/></g></g></g></svg>