<svg xmlns="http://www.w3.org/2000/svg" xml:space="preserve" width="75.586" height="75.586" style="font-size:12px;overflow:visible;color-interpolation-filters:sRGB;fill-rule:evenodd;stroke-linecap:square;stroke-miterlimit:3" viewBox="0 0 56.69 56.69"><defs><linearGradient id="a" x1="0" x2="56.69" y1="39.69" y2="39.69" gradientUnits="userSpaceOnUse"><stop offset=".22" stop-color="#32d4f5"/><stop offset="1" stop-color="#198ab3"/></linearGradient><linearGradient id="b" x1="0" x2="5.551" y1="94.503" y2="94.503" gradientTransform="scale(1.03952 .96198)" gradientUnits="userSpaceOnUse"><stop offset=".22" stop-color="#32d4f5"/><stop offset="1" stop-color="#198ab3"/></linearGradient></defs><g transform="translate(-5.67 -5.674)"><title>Page-1</title><g transform="translate(5.67 -34.016)"><title>Azure Role Based Access Control.13612</title><title>paths</title><title>Microsoft_account</title><title>group1068-2156_1_</title><title>Sheet.13616</title><title>path5</title><path d="M56.69 73.5 28.42 39.69 0 73.36l28.28 23.02ZM24.76 85.15V70.84c-2.67-1.41-4.36-4.21-4.36-7.58 0-4.63 3.52-8.42 7.88-8.42s7.87 3.79 7.87 8.42c0 3.23-1.82 6.17-4.36 7.44v2.8l-.14.14-2.67 2.81 2.81 2.95v.14l-2.53 2.81 2.39 2.66-3.51 3.65z" style="fill:url(#a);stroke:none;stroke-width:1.15109003;stroke-linecap:butt"/><g transform="translate(25.478 -32.435)"><title>Sheet.13618</title><title>path10</title><path d="M5.77 93.43c0-1.4-1.69-2.52-2.96-2.52-1.4 0-2.81.98-2.81 2.38s1.41 2.95 2.81 2.95c1.27.14 2.96-1.27 2.96-2.81" style="fill:url(#b);stroke:none;stroke-width:1.15109003;stroke-linecap:butt"/></g></g></g></svg>