<svg xmlns="http://www.w3.org/2000/svg" xml:space="preserve" width="75.587" height="75.606" style="font-size:12px;overflow:visible;color-interpolation-filters:sRGB;fill-rule:evenodd;stroke-linecap:square;stroke-miterlimit:3" viewBox="0 0 56.69 56.705"><defs><linearGradient id="a" x1="0" x2="48.092" y1="96.652" y2="96.652" gradientTransform="scale(1.1788 .84832)" gradientUnits="userSpaceOnUse"><stop offset="0" stop-color="#0078d4"/><stop offset="1" stop-color="#5ea0ef"/></linearGradient></defs><g transform="translate(-32.068 -32.066)"><title>Page-1</title><g transform="translate(32.068 -34.016)"><title>Azure Monitor Azure Stack Health.13699</title><title>g16</title><g transform="translate(1.704)"><title>path2</title><path d="M53.63 113.87c-.51 2.24-3.25 4.42-8.19 6.13a67.575 68.588 0 0 1-37.96.05c-4.57-1.64-7.03-3.71-7.41-5.85-.07-.38 0-6.25 0-6.25l53.66-.5s-.04 6.15-.1 6.42" style="fill:#5ea0ef;stroke:none;stroke-width:32.06809998;stroke-linecap:butt"/></g><g transform="rotate(-.575 -523.636 -60.54)"><title>ellipse4</title><ellipse cx="26.85" cy="113.363" rx="26.85" ry="9.421" style="fill:#50e6ff;stroke:none;stroke-width:32.06809998;stroke-linecap:butt"/></g><g transform="translate(0 -15.911)"><title>path6</title><path d="M56.69 110.01a12.737 12.928-180 0 0-11.05-12.43A16.063 16.304-180 0 0 29.1 82a16.466 16.713-180 0 0-15.75 10.89A15.2 15.428-180 0 0 0 107.74a15.433 15.664-180 0 0 15.96 15.04q.72 0 1.41-.06h25.85a2.58 2.618-180 0 0 .68-.1 12.891 13.085-180 0 0 12.79-12.61" style="fill:url(#a);stroke:none;stroke-width:32.06809998;stroke-linecap:butt"/></g><g transform="translate(14.079 -29.37)"><title>rect8</title><path d="M0 121.83a.945.96-180 0 0 .945.959l26.375-.009a.945.96-180 0 0 .945-.959l-.005-5.921a.945.96-180 0 0-.945-.959L.94 114.94a.945.96-180 0 0-.945.959z" style="fill:#9cebff;stroke:none;stroke-width:32.06809998;stroke-linecap:butt"/></g><g transform="translate(14.079 -20.24)"><title>rect10</title><path d="M0 121.83a.945.96-180 0 0 .945.959l26.375-.009a.945.96-180 0 0 .945-.959l-.005-5.921a.945.96-180 0 0-.945-.959L.94 114.94a.945.96-180 0 0-.945.959z" style="fill:#50e6ff;stroke:none;stroke-width:32.06809998;stroke-linecap:butt"/></g><g transform="translate(14.079 -10.956)"><title>rect12</title><path d="M0 121.83a.945.96-180 0 0 .945.959l26.375-.009a.945.96-180 0 0 .945-.959l-.005-5.921a.945.96-180 0 0-.945-.959L.94 114.94a.945.96-180 0 0-.945.959z" style="fill:#32bedd;stroke:none;stroke-width:32.06809998;stroke-linecap:butt"/></g><g transform="translate(37.953 -12.327)"><title>path14</title><path d="M1.63 101.42H.47a.472.48 0 0 1-.472-.48L0 99.75a.472.48 0 0 1 .472-.48H1.64a.472.48 0 0 1 .472.48l-.002 1.19a.472.48 0 0 1-.476.48zm.48 2.47v-1.18a.472.48-180 0 0-.472-.48H.47a.472.48-180 0 0-.472.48L0 103.89a.472.48-180 0 0 .472.48H1.64a.472.48-180 0 0 .47-.48m0 6.18v-1.2a.472.48-180 0 0-.472-.48l-1.168.01a.472.48-180 0 0-.472.48L0 110.06a.472.48-180 0 0 .472.48H1.64a.472.48-180 0 0 .47-.473zm0 2.95v-1.18a.472.48-180 0 0-.472-.48H.47a.472.48-180 0 0-.472.48L0 113.03a.472.48-180 0 0 .472.48H1.64a.472.48-180 0 0 .47-.48zm0 6.33v-1.19a.472.48-180 0 0-.472-.48l-1.168.01a.472.48-180 0 0-.472.48L0 119.35a.472.48-180 0 0 .472.48H1.64a.472.48-180 0 0 .47-.48m0 2.95v-1.18a.472.48-180 0 0-.472-.48H.47a.472.48-180 0 0-.472.48L0 122.3a.472.48-180 0 0 .472.48H1.64a.472.48-180 0 0 .47-.483z" style="fill:#fff;stroke:none;stroke-width:32.06809998;stroke-linecap:butt"/></g></g></g></svg>