<svg xmlns="http://www.w3.org/2000/svg" xml:space="preserve" width="75.586" height="60.49" style="font-size:12px;overflow:visible;color-interpolation-filters:sRGB;fill-rule:evenodd;stroke-linecap:square;stroke-miterlimit:3" viewBox="0 0 56.69 45.368"><defs><linearGradient id="a" x1="0" x2="47.985" y1="85.974" y2="85.974" gradientTransform="scale(1.1814 .84645)" gradientUnits="userSpaceOnUse"><stop offset="0" stop-color="#0078d4"/><stop offset="1" stop-color="#5ea0ef"/></linearGradient><linearGradient id="b" x1="-.001" x2="27.391" y1="122.497" y2="122.497" gradientTransform="scale(1.322 .75642)" gradientUnits="userSpaceOnUse"><stop offset="0" stop-color="#fff"/><stop offset="1" stop-color="#f2f2f2"/></linearGradient></defs><g transform="translate(-34 -33.997)"><title>Page-1</title><g transform="translate(34 -34.016)"><title>Azure Monitor for SAP Solution.13668</title><title>Sheet.13669</title><g transform="translate(0 -4.76)"><title>Sheet.13670</title><path d="M56.69 100.66a12.737 12.868-180 0 0-11.05-12.37A16.063 16.228-180 0 0 29.1 72.78a16.47 16.638-180 0 0-15.75 10.85A15.2 15.356-180 0 0 0 98.4a15.433 15.591-180 0 0 15.96 14.98q.72 0 1.41-.06h25.85a2.58 2.606-180 0 0 .68-.11 12.888 13.02-180 0 0 12.79-12.55" style="fill:url(#a);stroke:none;stroke-width:34;stroke-linecap:butt"/></g><g transform="translate(15.855)"><title>Sheet.13671</title><path d="M20.18 88.42c12.17 0 19.6 9.15 20.19 21.64a3.13 3.163 0 0 1-3.12 3.32H3.12A3.15 3.182 0 0 1 0 110.06c.61-12.49 8.04-21.64 20.18-21.64" style="fill:#50e6ff;stroke:none;stroke-width:34;stroke-linecap:butt"/></g><g transform="translate(17.937 -2.12)"><title>Sheet.13672</title><path d="M1.04 113.38a1.02 1.03 0 0 1-.75-.32 1.036 1.047 0 0 1-.29-.78c.58-11.94 8.72-19.62 18.1-19.62s17.54 7.68 18.11 19.62a1.036 1.047 0 0 1-.29.78 1.02 1.03 0 0 1-.75.32z" style="fill:url(#b);stroke:none;stroke-width:34;stroke-linecap:butt"/></g><g transform="translate(37.08 -11.385)"><title>Sheet.13673</title><path d="M8.75 108.51A14.64 14.79-180 0 0 0 104.74v6.88a8.189 8.273 0 0 1 4.07 1.76z" style="fill:#9cebff;stroke:none;stroke-width:34;stroke-linecap:butt"/></g><g transform="translate(26.252 -11.394)"><title>Sheet.13674</title><path d="m0 108.52 4.68 4.86a8.189 8.273 0 0 1 4.07-1.75v-6.88A14.64 14.79-180 0 0 0 108.52" style="fill:#50e6ff;stroke:none;stroke-width:34;stroke-linecap:butt"/></g><g transform="translate(42.62 -5.641)"><title>Sheet.13675</title><path d="M0 109.16a8.67 8.76 0 0 1 1.69 4.22H8.3a15.515 15.674-180 0 0-3.62-9.09z" style="fill:#9cebff;stroke:none;stroke-width:34;stroke-linecap:butt"/></g><g transform="translate(21.146 -5.645)"><title>Sheet.13676</title><path d="m8.31 109.16-4.68-4.87A15.537 15.696-180 0 0 0 113.38h6.61a8.646 8.734 0 0 1 1.7-4.22m18.76-1.51a1.043 1.053-180 0 0-1.34-.6l-9.77 3.93.76 1.96 9.77-3.92a1.046 1.056-180 0 0 .58-1.37" style="fill:#32bedd;stroke:none;stroke-width:34;stroke-linecap:butt"/></g><g transform="translate(33.19 -3.742)"><title>Sheet.13677</title><ellipse cx="2.847" cy="110.501" rx="2.847" ry="2.876" style="fill:#767676;stroke:none;stroke-width:34;stroke-linecap:butt"/></g></g></g></svg>