<svg xmlns="http://www.w3.org/2000/svg" xml:space="preserve" width="75.585" height="75.587" style="font-size:12px;overflow:visible;color-interpolation-filters:sRGB;fill-rule:evenodd;stroke-linecap:square;stroke-miterlimit:3" viewBox="0 0 56.689 56.691"><g transform="translate(-12.24 -12.243)"><title>Page-1</title><g transform="translate(12.24 -34.016)"><title>Azure Monitor AKS Health.13708</title><title>Sheet.13709</title><g transform="translate(24.404 -9.214)"><title>Sheet.13710</title><path d="M0 95.64V81.31L13.3 74l13.31 7.31v14.33l-13.31 7.31z" style="fill:#804998;stroke:none;stroke-width:12.23999977;stroke-linecap:butt"/></g><g transform="translate(24.405 -9.217)"><title>Sheet.13711</title><path d="m13.3 76.64 10.99 6.04v11.59l-10.99 6.04-10.98-6.04V82.68Zm0-2.64L0 81.31v14.33l13.3 7.31 13.31-7.31V81.31Z" style="fill:#804998;fill-opacity:.6;stroke:none;stroke-width:12.23999977;stroke-linecap:butt"/></g><g transform="translate(26.722 -11.855)"><title>Sheet.13712</title><path d="M0 96.91v-11.6l10.99-6.03 10.98 6.03v11.6l-10.98 6.04z" style="fill:#fff;fill-opacity:.4;stroke:none;stroke-width:12.23999977;stroke-linecap:butt"/></g><g transform="translate(0 -9.214)"><title>Sheet.13713</title><path d="M0 95.64V81.31L13.3 74l13.31 7.31v14.33l-13.31 7.31z" style="fill:#804998;stroke:none;stroke-width:12.23999977;stroke-linecap:butt"/></g><g transform="translate(0 -9.215)"><title>Sheet.13714</title><path d="m13.3 76.64 10.99 6.04v11.59l-10.99 6.04-10.98-6.04v-11.6Zm0-2.64L0 81.31v14.33l13.3 7.31 13.31-7.31V81.31Z" style="fill:#804998;fill-opacity:.6;stroke:none;stroke-width:12.23999977;stroke-linecap:butt"/></g><g transform="translate(2.319 -11.855)"><title>Sheet.13715</title><path d="M0 96.91v-11.6l10.99-6.03 10.98 6.03v11.6l-10.98 6.04z" style="fill:#fff;fill-opacity:.4;stroke:none;stroke-width:12.23999977;stroke-linecap:butt"/></g><g transform="translate(12.735 -28.9)"><title>Sheet.13716</title><path d="M0 95.93V82.17l12.77-7.01 12.77 7.01v13.76l-12.77 7.02z" style="fill:#804998;stroke:none;stroke-width:12.23999977;stroke-linecap:butt"/></g><g transform="translate(12.735 -28.9)"><title>Sheet.13717</title><path d="m12.77 77.8 10.45 5.74v11.03l-10.45 5.74-10.45-5.74V83.54Zm0-2.64L0 82.17v13.76l12.77 7.02 12.77-7.02V82.17Z" style="fill:#804998;fill-opacity:.6;stroke:none;stroke-width:12.23999977;stroke-linecap:butt"/></g><g transform="translate(15.053 -31.54)"><title>Sheet.13718</title><path d="M0 97.21V86.18l10.45-5.74 10.46 5.74v11.03l-10.46 5.74z" style="fill:#fff;fill-opacity:.4;stroke:none;stroke-width:12.23999977;stroke-linecap:butt"/></g><g transform="translate(21.355 -39.39)"><title>Sheet.13719</title><ellipse cx="4.151" cy="98.809" rx="4.151" ry="4.139" style="fill:#fff;stroke:none;stroke-width:12.23999977;stroke-linecap:butt"/></g><g transform="translate(8.585 -19.31)"><title>Sheet.13720</title><ellipse cx="4.151" cy="98.809" rx="4.151" ry="4.139" style="fill:#fff;stroke:none;stroke-width:12.23999977;stroke-linecap:butt"/></g><g transform="translate(33.35 -19.263)"><title>Sheet.13721</title><ellipse cx="4.151" cy="98.809" rx="4.151" ry="4.139" style="fill:#fff;stroke:none;stroke-width:12.23999977;stroke-linecap:butt"/></g><g transform="translate(24.723 -22.916)"><title>Sheet.13722</title><path d="m0 82.92 1.89-.98 11.83 20.03-1.89.98z" style="fill:#fff;stroke:none;stroke-width:12.23999977;stroke-linecap:butt"/></g><g transform="translate(11.76 -22.95)"><title>Sheet.13723</title><path d="m0 101.89 12.87-20 1.84 1.06-12.87 20z" style="fill:#fff;stroke:none;stroke-width:12.23999977;stroke-linecap:butt"/></g><g transform="translate(39.418)"><title>Sheet.13724</title><path d="M0 96.01h9.27v2.31H0Zm0 4.63h9.27l-2.31 2.31H2.32Z" style="fill:#7a7a7a;stroke:none;stroke-width:12.23999977;stroke-linecap:butt"/></g><g transform="translate(30.26 -9.657)"><title>Sheet.13725</title><path d="M0 86.46c0 4.1 1.47 7.33 4.25 9.34 1.73 1.25 3.04 3.6 4.01 7.15l12.49-6.87V81.75L9.08 75.34C3.84 77.04 0 81.44 0 86.46" style="fill:#fff;fill-opacity:.4;stroke:none;stroke-width:12.23999977;stroke-linecap:butt"/></g><g transform="translate(31.419 -9.286)"><title>Sheet.13726</title><path d="M25.27 86.09c0-5.93-5.87-10.73-12.63-10.73C5.87 75.36 0 80.16 0 86.09c0 3.33 1.06 6.44 3.78 8.41 2.56 1.85 3.85 5.37 4.62 8.45h8.48c.77-3.08 2.06-6.6 4.62-8.45 2.71-1.97 3.77-5.08 3.77-8.41" style="fill:#0072c6;stroke:none;stroke-width:12.23999977;stroke-linecap:butt"/></g><g transform="translate(31.419 -18.507)"><title>Sheet.13727</title><path d="M19.96 86.46c-1.97-1.18-4.75-1.88-7.32-1.88C5.87 84.58 0 89.38 0 95.31c0 2.92.82 5.68 2.86 7.64z" style="fill:#fff;fill-opacity:.2;stroke:none;stroke-width:12.23999977;stroke-linecap:butt"/></g></g></g></svg>