<svg xmlns="http://www.w3.org/2000/svg" xml:space="preserve" width="75.587" height="71.866" style="font-size:12px;overflow:visible;color-interpolation-filters:sRGB;fill-rule:evenodd;stroke-linecap:square;stroke-miterlimit:3" viewBox="0 0 56.69 53.9"><defs><linearGradient id="a" x1="0" x2="47.916" y1="96.314" y2="96.314" gradientTransform="scale(1.18312 .84522)" gradientUnits="userSpaceOnUse"><stop offset=".22" stop-color="#32d4f5"/><stop offset=".43" stop-color="#31d1f2"/><stop offset=".6" stop-color="#2dc6e9"/><stop offset=".76" stop-color="#28b5d9"/><stop offset=".91" stop-color="#1f9dc4"/><stop offset="1" stop-color="#198ab3"/></linearGradient></defs><g transform="translate(-34 -34)"><title>Page-1</title><g transform="translate(34 -34.04)"><title>Azure Advisor.14086</title><title>Sheet.14087</title><g transform="translate(0 -13.366)"><title>Sheet.14088</title><path d="M56.69 109.22A12.824 12.687-180 0 0 45.63 96.9a16.155 15.982-180 0 0-16.48-15.49 16.655 16.477-180 0 0-15.83 10.84A15.256 15.093-180 0 0 0 106.95a15.522 15.356-180 0 0 15.96 14.93 9.993 9.886-180 0 0 1.39 0h25.82a2.132 2.109-180 0 0 .67 0 12.99 12.852-180 0 0 12.85-12.66" style="fill:url(#a);stroke:none;stroke-width:34;stroke-linecap:butt"/></g><g transform="translate(34.642)"><title>Sheet.14089</title><path d="m12.16 114.64-6.66 7.05a.866.857 0 0 1-1.466-.461L0 101.79a.866.857 0 0 1 .4-.79l4.4-1.78a.866.857 0 0 1 1.1.428l6.49 14.172a.8.79 0 0 1-.233.824z" style="fill:#37c2b1;stroke:none;stroke-width:34;stroke-linecap:butt"/></g><g transform="translate(24.708)"><title>Sheet.14090</title><path d="M.34 114.64 7 121.69a.866.857-180 0 0 1.466-.461L12.5 101.79a.866.857-180 0 0-.5-.923L7.6 99.09a.866.857-180 0 0-1.1.428L.01 113.68a.8.79-180 0 0 .333.956z" style="fill:#42e8ca;stroke:none;stroke-width:34;stroke-linecap:butt"/></g><g transform="translate(24.979 -16.555)"><title>Sheet.14091</title><path d="m12 101.08.86-.73a1.366 1.351 0 0 1 1.9.17 1.232 1.22 0 0 1 .23.39l.4 1.06a1.399 1.384-180 0 0 1.5.85l1.1-.2a1.366 1.351 0 0 1 1.57 1.09 1.1 1.087 0 0 1 0 .46l-.2 1.09a1.399 1.384-180 0 0 .86 1.48l1.07.37a1.399 1.384 0 0 1 .8 1.74 2.498 2.472 0 0 1-.24.4l-.73.82a1.399 1.384-180 0 0 0 1.72l.73.85a1.332 1.318 0 0 1-.2 1.88 1.366 1.351 0 0 1-.36.23l-1.07.4a1.332 1.318-180 0 0-.86 1.48l.2 1.09a1.3 1.285 0 0 1-1.1 1.51 1.1 1.087 0 0 1-.47 0h-1.1a1.332 1.318-180 0 0-1.5.86l-.4 1.02a1.332 1.318 0 0 1-1.73.79 1.232 1.22 0 0 1-.4-.23l-.83-.82a1.332 1.318-180 0 0-1.73 0l-.87.69a1.332 1.318 0 0 1-1.9-.17.8.79 0 0 1-.233-.395L6.9 119.96a1.3 1.285-180 0 0-1.5-.86l-1.1.2a1.366 1.351 0 0 1-1.57-1.12.966.956 0 0 1 0-.428l.2-1.092a1.332 1.318-180 0 0-.86-1.48l-1.03-.4a1.399 1.384 0 0 1-.97-1.64 2.498 2.472 0 0 1 .23-.4l.74-.86a1.399 1.384-180 0 0 0-1.71l-.74-.82a1.366 1.351 0 0 1 .2-1.91.766.758 0 0 1 .4-.198l1.04-.402a1.399 1.384-180 0 0 .86-1.48l-.07-.99a1.366 1.351 0 0 1 1.1-1.55h.47l1.1.2a1.366 1.351-180 0 0 1.5-.86l.4-1.08a1.366 1.351 0 0 1 1.73-.8l.4.24.87.72a1.366 1.351-180 0 0 1.7-.16" style="fill:#005ba1;stroke:none;stroke-width:34;stroke-linecap:butt"/></g><g transform="translate(28.28 -19.653)"><title>Sheet.14092</title><ellipse cx="7.861" cy="114.125" rx="7.861" ry="7.777" style="fill:#ffca00;stroke:none;stroke-width:34;stroke-linecap:butt"/></g></g></g></svg>