<svg xmlns="http://www.w3.org/2000/svg" xml:space="preserve" width="60.44" height="75.592" style="font-size:12px;overflow:visible;color-interpolation-filters:sRGB;fill-rule:evenodd;stroke-linecap:square;stroke-miterlimit:3" viewBox="0 0 45.33 56.694"><defs><linearGradient id="a" x1="0" x2="32.435" y1="62.496" y2="62.496" gradientTransform="scale(.76121 1.3137)" gradientUnits="userSpaceOnUse"><stop offset="0" stop-color="#b3b2b3"/><stop offset=".375" stop-color="#afaeaf"/><stop offset=".765" stop-color="#a2a2a2"/><stop offset="1" stop-color="#979797"/></linearGradient><linearGradient id="b" x1="0" x2="23.929" y1="121.689" y2="121.689" gradientTransform="scale(1.16763 .85644)" gradientUnits="userSpaceOnUse"><stop offset=".18" stop-color="#5ea0ef"/><stop offset="1" stop-color="#0078d4"/></linearGradient></defs><g transform="translate(-34.004 -33.999)"><title>Page-1</title><g transform="translate(33.978 -34.016)"><title>Azure Arc VMware vCenter.13954</title><title>Sheet.13955</title><title>Sheet.13956</title><path d="M45.28 117.19c-.43 1.89-2.74 3.73-6.92 5.17a57.075 57.883 0 0 1-32.05.04c-3.85-1.37-5.92-3.15-6.25-4.93-.06-.31 0-5.14 0-5.14l45.29-.43s-.02 5.06-.07 5.29" style="fill:#5ea0ef;stroke:none;stroke-width:34;stroke-linecap:butt"/><g transform="translate(.006 -4.416)"><title>Sheet.13957</title><path d="M45.35 116.4v.06c-.04 4.37-10.12 8-22.59 8.12-12.11.13-22.02-3.09-22.7-7.28a2.444 2.479 0 0 1-.04-.43c-.02-1.93 1.91-3.71 5.15-5.12a47.826 48.504 0 0 1 17.44-3.06 47.808 48.485 0 0 1 17.52 2.72c3.19 1.31 5.14 3.02 5.22 4.91z" style="fill:#50e6ff;stroke:none;stroke-width:34;stroke-linecap:butt"/></g><g transform="translate(9.065 -14.085)"><title>Sheet.13958</title><path d="m24.69 83.48-.03 39.19v.61a1.385 1.405 0 0 1-1.36 1.43H1.39A1.382 1.402 0 0 1 0 123.3V83.53a1.382 1.402 0 0 1 1.36-1.43h21.92a1.382 1.402 0 0 1 1.41 1.38" style="fill:#767676;stroke:none;stroke-width:34;stroke-linecap:butt"/></g><g transform="translate(4.86 -9.82)"><title>Sheet.13959</title><path d="m24.69 83.48-.03 39.8a1.382 1.402 0 0 1-1.36 1.43H1.38a1.382 1.402 0 0 1-1.38-1.4V83.53a1.382 1.402 0 0 1 1.36-1.43h21.93a1.382 1.402 0 0 1 1.4 1.38" style="fill:url(#a);stroke:none;stroke-width:34;stroke-linecap:butt"/></g><g transform="translate(8.367 -34.753)"><title>Sheet.13960</title><path d="M0 121.98a2.674 2.712 0 0 1 2.67-2.71h12.48a2.67 2.709 0 0 1 2.6 2.71 2.67 2.709 0 0 1-2.65 2.73H2.72A2.693 2.73 0 0 1 0 122Zm0-8.02a2.668 2.706-180 0 0 2.72 2.66h12.36a2.67 2.709-180 0 0 2.67-2.71 2.668 2.706-180 0 0-2.6-2.73H2.69A2.696 2.734-180 0 0 0 113.91v.04z" style="fill:#003067;stroke:none;stroke-width:34;stroke-linecap:butt"/></g><g transform="translate(9.457 -36.187)"><title>Sheet.13961</title><path d="M1.8 113.51a1.804 1.83 0 1 1-1.8 1.83 1.804 1.83 0 0 1 1.8-1.83M0 123.42a1.804 1.83-180 1 0 1.8-1.83 1.804 1.83-180 0 0-1.8 1.83" style="fill:#50e6ff;stroke:none;stroke-width:34;stroke-linecap:butt"/></g><g transform="translate(12.568 -9.818)"><title>Sheet.13962</title><path d="M27.94 118.26a6.348 6.438-180 0 0-5.44-6.19 8.006 8.12-180 0 0-8.14-7.85 8.143 8.258-180 0 0-7.8 5.49A7.54 7.647-180 0 0 0 117.13a7.677 7.786-180 0 0 7.86 7.58h13.79a6.413 6.504-180 0 0 6.29-6.45" style="fill:url(#b);stroke:none;stroke-width:34;stroke-linecap:butt"/></g></g></g></svg>