<svg xmlns="http://www.w3.org/2000/svg" xml:space="preserve" width="75.591" height="75.592" style="font-size:12px;overflow:visible;color-interpolation-filters:sRGB;fill-rule:evenodd;stroke-linecap:square;stroke-miterlimit:3" viewBox="0 0 56.693 56.694"><g transform="translate(-5.67 -5.67)"><title>Page-1</title><g transform="translate(5.67 -34.016)"><title>Azure Lighthouse Protection.13788</title><title>g1590</title><g transform="translate(.004 -.004)"><title>path1654</title><path d="M26.72 79.9V63.42h29.97v32.96H26.72ZM22.6 94.1c-6.37-1.46-12.38-5.54-15.9-10.79-.57-.85-1.07-1.58-1.11-1.63s-.75.14-1.58.42c-1.04.35-1.51.42-1.5.22.01-.17.65-1.62 1.44-3.23l1.42-2.94 3.06 1.44c1.68.79 3.06 1.51 3.06 1.6s-.54.36-1.19.61c-.65.24-1.22.46-1.27.5-.16.11 2.07 2.97 3.22 4.12 3.02 3.03 6.65 5.05 11.16 6.21l1.06.27v1.74c0 1.93.05 1.9-1.87 1.46M0 56.17V39.69l14.92.06 14.92.07.07 10.42.06 10.43h-5.5v11.99H0Zm47.77 2.55c-1.68-.78-3.06-1.5-3.06-1.59s.72-.41 1.62-.71l1.62-.54-.44-.74c-.76-1.3-3.49-4.11-5.24-5.41-2.2-1.63-5.27-3.11-7.93-3.81l-2.12-.56v-3.48l1.18.18c3.29.49 8.15 2.62 11.1 4.85 1.87 1.42 5.1 4.79 6.1 6.38.8 1.27.86 1.29 2.34.76.98-.34 1.04-.34.89.07-.42 1.12-2.77 6.04-2.88 6.03-.07 0-1.5-.65-3.18-1.43" style="fill:#edf4fb;stroke:none;stroke-width:.200146;stroke-linecap:butt"/></g><g transform="translate(.004)"><title>path1652</title><path d="M26.72 79.89V63.41l14.92.06 14.92.07v32.71l-14.92.06-14.92.07ZM22.6 94.1c-6.55-1.51-12.83-5.89-16.3-11.38-.37-.59-.82-1.08-.98-1.08-.17 0-.87.22-1.56.5-.7.27-1.26.4-1.26.28 0-.11.64-1.56 1.43-3.22l1.44-3.01 3.06 1.41c1.68.77 3.06 1.49 3.06 1.58 0 .1-.56.36-1.25.59s-1.25.5-1.25.6.77 1.13 1.7 2.29c3.21 3.97 7.41 6.6 12.72 7.97l1.06.27v1.74c0 1.93.05 1.9-1.87 1.46M0 56.17V39.69h29.72v20.97h-5.25v11.99H0Zm47.77 2.53c-1.68-.77-3.06-1.47-3.06-1.55s.58-.33 1.3-.56c2.13-.68 2.13-.69 1-2.2-3.02-4.07-7.59-7.11-12.75-8.49l-2.04-.55v-3.47l1.18.18c3.29.49 8.15 2.62 11.1 4.85 1.95 1.48 4.88 4.55 6.09 6.37l.91 1.37.88-.36c1.6-.67 1.61-.52.17 2.57-.76 1.61-1.46 3-1.56 3.09-.09.09-1.54-.48-3.22-1.25" style="fill:#d6e8f7;stroke:none;stroke-width:.200146;stroke-linecap:butt"/></g><g transform="translate(0 -.004)"><title>path1650</title><path d="M26.72 79.9V63.42h29.72v32.96H26.72Zm-4.9 13.98C15.55 92.24 9.6 87.97 6.45 82.86c-.81-1.32-1.03-1.4-2.36-.84-.5.21-1.05.37-1.24.37-.41 0-.34-.18 1.32-3.66l1.2-2.53 3.06 1.45c1.68.81 3.06 1.52 3.06 1.58 0 .07-.56.31-1.25.54-.68.23-1.25.47-1.25.55 0 .07.25.48.55.91 3.26 4.68 8.18 8.02 13.88 9.41l1.06.26v1.74c0 2.02.1 1.97-2.66 1.24M.06 56.24l.07-16.42 14.8-.07 14.79-.06v20.98h-5.24v11.99H0Zm47.64 2.39-3.12-1.5 1.58-.58c.86-.31 1.64-.64 1.71-.71.24-.24-1.52-2.45-3.33-4.19-2.97-2.87-6.64-4.88-10.71-5.89l-1.61-.4v-3.48l1.19.18c1.83.26 5.48 1.55 7.55 2.66 3.75 2.02 7.21 5.1 9.47 8.43l1.02 1.5 1.03-.36c.57-.2 1.12-.36 1.23-.36.2 0-2.37 5.69-2.72 6.03-.09.09-1.57-.51-3.29-1.33" style="fill:#cce3f6;stroke:none;stroke-width:.200146;stroke-linecap:butt"/></g><g transform="translate(.004 -.004)"><title>path1648</title><path d="M26.72 79.9V63.42h29.72v32.96H26.72ZM21.8 93.88c-6.21-1.63-12.13-5.95-15.6-11.4l-.67-1.05-1.3.49c-.71.27-1.38.46-1.49.42-.26-.09 2.36-5.77 2.71-5.88.15-.05 1.59.54 3.21 1.32l2.95 1.41-1.25.5c-.68.27-1.28.54-1.33.58-.15.15 1.39 2.26 2.71 3.7 2.43 2.66 6.82 5.37 10.24 6.31 2.57.71 2.49.64 2.49 2.47 0 1.89.09 1.86-2.67 1.13M0 56.3V39.94h29.72v20.73h-5.25v11.99H0Zm47.7 2.31-3.12-1.5 1.54-.53c.85-.29 1.62-.61 1.72-.71.25-.25-1.52-2.53-3.36-4.32-2.87-2.79-6.5-4.76-10.69-5.8l-1.57-.39v-3.48l1.16.18c3.25.49 7.87 2.52 10.96 4.81 2.19 1.62 4.64 4.16 6.14 6.36l.97 1.42 1.03-.36c.56-.2 1.12-.36 1.23-.36.19 0-2.39 5.7-2.72 6.02-.1.09-1.57-.52-3.29-1.34" style="fill:#bddbf4;stroke:none;stroke-width:.200146;stroke-linecap:butt"/></g><g transform="translate(.004 -.004)"><title>path1646</title><path d="M26.72 79.9V63.42h29.72v32.96H26.72Zm-4.87 13.98c-2.29-.59-5.52-2.03-7.72-3.43-2.11-1.35-6.14-5.32-7.59-7.47l-1.03-1.54-1.29.49c-.71.27-1.38.45-1.49.41-.24-.08 2.4-5.78 2.73-5.89.13-.04 1.56.56 3.19 1.34l2.96 1.41-1.31.5c-.72.28-1.31.58-1.31.67.01.39 2.65 3.61 3.9 4.76 2.63 2.4 6.07 4.33 9.32 5.23.97.27 1.87.56 2.01.65.14.08.25.88.25 1.76 0 1.86.1 1.82-2.62 1.11M0 56.3V39.94h29.72v20.73h-5.24l-.06 5.93-.07 5.93-12.18.07L0 72.66Zm47.89 2.41c-1.62-.76-2.94-1.45-2.94-1.54 0-.08.63-.36 1.39-.61.76-.26 1.44-.57 1.51-.68.2-.33-1.29-2.31-3.06-4.07-2.97-2.94-6.96-5.17-10.76-6.02l-1.81-.4v-1.73c0-1.3.08-1.72.34-1.72.19 0 1.45.29 2.79.64 6.01 1.56 11.62 5.51 15.13 10.66.54.79 1.02 1.44 1.07 1.44s.5-.18 1.02-.39c.51-.22.99-.33 1.06-.25.13.12-2.32 5.58-2.66 5.91-.08.08-1.47-.48-3.08-1.24" style="fill:#add2f1;stroke:none;stroke-width:.200146;stroke-linecap:butt"/></g><g transform="translate(.004 -.004)"><title>path1644</title><path d="M26.72 79.9V63.42h29.72v32.96H26.72Zm-3.87 14.2c-2.96-.68-6.26-2.09-8.99-3.82-1.88-1.2-5.95-5.26-7.33-7.32l-1.05-1.55-1.27.5c-.71.28-1.36.47-1.47.43-.23-.09 2.51-5.94 2.79-5.94.11 0 1.53.63 3.14 1.39l2.94 1.4-1.31.49c-.72.28-1.31.59-1.31.71 0 .44 2.32 3.27 3.81 4.65 2.63 2.43 6.39 4.56 9.43 5.34.61.16 1.32.34 1.56.41.36.11.43.43.43 1.86 0 .95-.08 1.72-.18 1.71-.11-.02-.64-.13-1.19-.26M0 56.3V39.94h29.72v20.73h-5.5v11.99H0Zm47.89 2.4c-1.62-.77-2.94-1.45-2.94-1.53 0-.07.73-.39 1.61-.7l1.61-.58-.92-1.29c-2.93-4.11-7.81-7.42-12.85-8.72l-2.18-.56V41.9l1.06.18c6.59 1.11 13.21 5.39 16.98 10.97.56.83 1.05 1.54 1.09 1.59.04.06.54-.09 1.11-.32.58-.23 1.1-.36 1.17-.29.12.12-2.35 5.6-2.66 5.91-.08.09-1.47-.47-3.08-1.24" style="fill:#9dcaef;stroke:none;stroke-width:.200146;stroke-linecap:butt"/></g><g transform="translate(.004 -.004)"><title>path1642</title><path d="M26.89 96.21c-.09-.09-.17-7.51-.17-16.48V63.42h29.72v32.96H41.75c-8.08 0-14.77-.08-14.86-.17m-4.79-2.32c-3.58-.96-6.93-2.57-9.55-4.58-2.44-1.88-5.7-5.57-6.95-7.86-.02-.04-.63.16-1.36.45-.72.28-1.39.48-1.49.44-.21-.08 2.49-5.94 2.75-5.94.09 0 1.51.63 3.14 1.4l2.97 1.4-1.31.49c-.72.27-1.31.58-1.31.7 0 .42 2.23 3.18 3.65 4.52 3.11 2.93 6.19 4.61 10.52 5.72l1.06.27v1.74c0 .96-.08 1.73-.18 1.73-.11-.01-.98-.23-1.94-.48M0 56.3V39.94h29.72v20.73h-5.5v11.99H0Zm47.64 2.29c-1.48-.7-2.69-1.34-2.69-1.41 0-.08.73-.4 1.61-.71l1.62-.58-.68-.93c-2.27-3.1-4.45-5.06-7.7-6.91-1.91-1.09-4.81-2.18-6.65-2.5l-.93-.17V41.9l1.06.17c.58.1 1.96.46 3.06.8 5.68 1.78 10.77 5.5 13.92 10.18.56.83 1.05 1.55 1.1 1.6.04.06.55-.08 1.13-.31.57-.22 1.08-.36 1.14-.31.05.05-.5 1.4-1.23 2.99-.86 1.88-1.46 2.89-1.7 2.87-.21-.01-1.59-.59-3.06-1.3" style="fill:#8ec1ec;stroke:none;stroke-width:.200146;stroke-linecap:butt"/></g><g transform="translate(.004 -.004)"><title>path1640</title><path d="M26.84 96.07c-.07-.18-.09-7.56-.06-16.42l.07-16.11 14.79-.06 14.8-.07v32.97H41.7c-11.57 0-14.77-.07-14.86-.31m-4.74-2.19c-3.54-.92-6.92-2.57-9.76-4.76-2.33-1.8-5.53-5.44-6.74-7.67-.02-.04-.68.17-1.46.46-.79.29-1.46.49-1.5.45-.12-.15 2.67-5.96 2.86-5.96.09 0 1.51.63 3.14 1.41l2.97 1.41-1.43.48-1.44.49 1.04 1.48c2.82 4.03 7.48 7.3 12.44 8.73l2 .58v1.7c0 .93-.08 1.69-.18 1.68-.11-.01-.98-.23-1.94-.48M.17 72.49C.07 72.4 0 65.04 0 56.13V39.94h29.72v20.73h-5.5v11.99H12.28c-6.57 0-12.02-.08-12.11-.17m47.6-13.9c-1.54-.71-2.81-1.36-2.81-1.44-.01-.08.47-.29 1.05-.46 2.41-.72 2.39-.65.59-2.91-3.29-4.1-7.64-6.79-13.39-8.26l-.87-.23-.07-1.67c-.04-.92-.02-1.68.04-1.68.47 0 3.78.81 4.92 1.21 5.27 1.83 10.55 5.92 13.34 10.34.41.65.84 1.19.95 1.19.1 0 .6-.17 1.1-.38.49-.21.95-.33 1.01-.27.18.18-2.54 5.87-2.81 5.87-.14-.01-1.51-.59-3.05-1.31" style="fill:#59b4d9;stroke:none;stroke-width:.200146;stroke-linecap:butt"/></g><g transform="translate(.004 -.004)"><title>path1638</title><path d="M26.84 96.07c-.07-.18-.09-7.56-.06-16.42l.07-16.11 14.79-.06 14.8-.07v32.97H41.7c-11.57 0-14.77-.07-14.86-.31m24.48-21.41-1.13-1.13-6.05 6.06c-3.33 3.33-6.17 6.05-6.3 6.05s-1.04-.79-2.01-1.75l-1.76-1.75-1.11 1.13-1.1 1.13 2.98 2.99 2.99 3 7.31-7.31 7.3-7.3zM22.1 93.88c-3.54-.92-6.92-2.57-9.76-4.76-2.33-1.8-5.53-5.44-6.74-7.67-.02-.04-.68.17-1.46.46-.79.29-1.46.49-1.5.45-.12-.15 2.67-5.96 2.86-5.96.09 0 1.51.63 3.14 1.41l2.97 1.41-1.43.48-1.44.49 1.04 1.48c2.82 4.03 7.48 7.3 12.44 8.73l2 .58v1.7c0 .93-.08 1.69-.18 1.68-.11-.01-.98-.23-1.94-.48M.17 72.49C.07 72.4 0 65.04 0 56.13V39.94h29.72v20.73h-5.5v11.99H12.28c-6.57 0-12.02-.08-12.11-.17m21.51-14.63c-.07-8.07-.11-8.62-.6-9.69-1.56-3.37-4.89-4.95-8.4-3.97-1.83.51-4.18 2.84-4.58 4.55-.16.68-.15.68 1.11.68 1.15 0 1.3-.07 1.65-.73 1.22-2.37 4.51-2.97 6.54-1.2 1.15 1.01 1.58 2.05 1.58 3.8v1.38H7.74v13.73h14.03zm-8.33 2.7c-.75-.75-.78-1.61-.1-2.48.87-1.1 2.56-.86 3.11.42.84 2.02-1.47 3.6-3.01 2.06m34.42-1.97c-1.54-.71-2.81-1.36-2.81-1.44-.01-.08.47-.29 1.05-.46 2.41-.72 2.39-.65.59-2.91-3.29-4.1-7.64-6.79-13.39-8.26l-.87-.23-.07-1.67c-.04-.92-.02-1.68.04-1.68.47 0 3.78.81 4.92 1.21 5.27 1.83 10.55 5.92 13.34 10.34.41.65.84 1.19.95 1.19.1 0 .6-.17 1.1-.38.49-.21.95-.33 1.01-.27.18.18-2.54 5.87-2.81 5.87-.14-.01-1.51-.59-3.05-1.31" style="fill:#80bbea;stroke:none;stroke-width:.200146;stroke-linecap:butt"/></g><g transform="translate(.004 -.254)"><title>path1636</title><path d="m26.78 80.08.07-16.29 14.79-.06 14.8-.07v32.72H26.72Zm24.54-5.17-1.13-1.13-6.05 6.06c-3.33 3.33-6.17 6.05-6.3 6.05s-1.04-.79-2.01-1.75l-1.76-1.75-1.11 1.13-1.1 1.13 2.98 2.99 2.99 3 7.31-7.31 7.3-7.3zm-29.5 19.11c-2.68-.7-5.35-1.88-7.87-3.52-2.25-1.44-6.06-5.2-7.34-7.23-.51-.83-.96-1.53-.99-1.56-.02-.04-.68.15-1.46.42s-1.41.4-1.41.29c0-.2 2.46-5.54 2.64-5.74.13-.15 5.85 2.55 5.85 2.75 0 .1-.56.36-1.25.59l-1.25.42 1.05 1.5c1.42 2.02 4.6 4.97 6.71 6.23 1.99 1.18 4.54 2.26 6.41 2.7l1.31.31v1.73c0 .94-.02 1.71-.06 1.71-.03-.01-1.08-.28-2.34-.6M.17 72.74C.07 72.65 0 65.29 0 56.38V40.19h29.72v20.73h-5.5V72.9H12.28c-6.57 0-12.02-.07-12.11-.16m21.51-14.63c-.07-8.07-.11-8.62-.6-9.69-1.56-3.37-4.89-4.95-8.4-3.97-1.83.51-4.18 2.84-4.58 4.54-.16.69-.15.69 1.11.69 1.15 0 1.3-.07 1.65-.73 1.22-2.37 4.51-2.97 6.54-1.2 1.15 1.01 1.58 2.05 1.58 3.8v1.38H7.74v13.73h14.03zm-8.33 2.7c-.75-.75-.78-1.61-.1-2.48.87-1.1 2.56-.87 3.11.42.84 2.02-1.47 3.6-3.01 2.06m34.36-2.02-2.87-1.35.88-.36c.49-.21 1.19-.45 1.56-.54.37-.1.72-.25.79-.35.22-.36-3.17-4.26-4.95-5.69-2.36-1.9-5.8-3.67-8.57-4.4l-2.21-.59-.07-1.66c-.04-.91-.02-1.66.04-1.66.47 0 3.78.81 4.92 1.21 4.98 1.73 10.2 5.68 12.97 9.81.59.87 1.11 1.63 1.15 1.68s.58-.08 1.21-.3c.62-.21 1.13-.34 1.13-.29 0 .33-2.76 5.87-2.92 5.86-.11-.01-1.49-.62-3.06-1.37" style="fill:#49defb;stroke:none;stroke-width:.200146;stroke-linecap:butt"/></g><g transform="translate(.004 -.254)"><title>path1634</title><path d="m26.78 80.08.07-16.29 14.79-.06 14.8-.07v32.72H26.72Zm24.48-5.24-1.18-1.19-6.12 6.12-6.13 6.12-1.81-1.81-1.81-1.81-1.18 1.19-1.18 1.18 2.99 3 2.99 3 7.3-7.3 7.31-7.3zM21.82 94.02c-2.68-.7-5.35-1.88-7.87-3.52-2.25-1.44-6.06-5.2-7.34-7.23-.51-.83-.96-1.53-.99-1.56-.02-.04-.68.15-1.46.42s-1.41.4-1.41.29c0-.2 2.46-5.54 2.64-5.74.13-.15 5.85 2.55 5.85 2.75 0 .1-.56.36-1.25.59l-1.25.42 1.05 1.5c1.42 2.02 4.6 4.97 6.71 6.23 1.99 1.18 4.54 2.26 6.41 2.7l1.31.31v1.73c0 .94-.02 1.71-.06 1.71-.03-.01-1.08-.28-2.34-.6M.17 72.74C.07 72.65 0 65.29 0 56.38V40.19h29.72v20.73h-5.5V72.9H12.28c-6.57 0-12.02-.07-12.11-.16m21.51-14.63c-.09-9.81-.07-9.7-1.86-11.69-1.32-1.45-3.05-2.23-4.99-2.23-2.78 0-4.83 1.12-6.11 3.35-1.08 1.89-1 2.14.61 2.14 1.27 0 1.37-.04 1.67-.77.17-.42.72-1.04 1.22-1.37 1.83-1.21 3.72-1.1 5.27.31 1.08.97 1.49 2.04 1.49 3.89v1.19H7.74v13.98h14.02zm-7.89 3.14c-.54-.22-1.08-1.53-.91-2.21.52-2.06 3.6-1.67 3.6.46 0 1.37-1.38 2.28-2.69 1.75m33.92-2.46-2.87-1.35.88-.36c.49-.21 1.19-.45 1.56-.54.37-.1.72-.25.79-.35.22-.36-3.17-4.26-4.95-5.69-2.36-1.9-5.8-3.67-8.57-4.4l-2.21-.59-.07-1.66c-.04-.91-.02-1.66.04-1.66.47 0 3.78.81 4.92 1.21 4.98 1.73 10.2 5.68 12.97 9.81.59.87 1.11 1.63 1.15 1.68s.58-.08 1.21-.3c.62-.21 1.13-.34 1.13-.29 0 .33-2.76 5.87-2.92 5.86-.11-.01-1.49-.62-3.06-1.37" style="fill:#7cb9e9;stroke:none;stroke-width:.200146;stroke-linecap:butt"/></g><g transform="translate(.004 -.254)"><title>path1632</title><path d="m26.78 80.08.07-16.29 14.79-.06 14.8-.07v32.72H26.72Zm24.48-5.24-1.18-1.19-6.12 6.12-6.13 6.12-1.81-1.81-1.81-1.81-1.18 1.19-1.18 1.18 2.99 3 2.99 3 7.3-7.3 7.31-7.3zM21.82 94.02c-2.68-.7-5.35-1.88-7.87-3.52-2.25-1.44-6.06-5.2-7.34-7.23-.51-.83-.96-1.53-.99-1.56-.02-.04-.68.15-1.46.42s-1.41.4-1.41.29c0-.2 2.46-5.54 2.64-5.74.13-.15 5.85 2.55 5.85 2.75 0 .1-.56.36-1.25.59l-1.25.42 1.05 1.5c1.42 2.02 4.6 4.97 6.71 6.23 1.99 1.18 4.54 2.26 6.41 2.7l1.31.31v1.73c0 .94-.02 1.71-.06 1.71-.03-.01-1.08-.28-2.34-.6M.17 72.74C.07 72.65 0 65.29 0 56.38V40.19h29.72v20.73h-5.5V72.9H12.28c-6.57 0-12.02-.07-12.11-.16m21.51-14.63c-.09-9.81-.07-9.7-1.86-11.69-1.32-1.45-3.05-2.23-4.99-2.23-2.78 0-4.83 1.12-6.11 3.35-1.08 1.89-1 2.14.61 2.14 1.27 0 1.37-.04 1.67-.77.17-.42.72-1.04 1.22-1.37 1.83-1.21 3.72-1.1 5.27.31 1.08.97 1.49 2.04 1.49 3.89v1.19H7.74v13.98h14.02zm-7.89 3.14c-.54-.22-1.08-1.53-.91-2.21.52-2.06 3.6-1.67 3.6.46 0 1.37-1.38 2.28-2.69 1.75m33.92-2.46-2.87-1.35.88-.36c.49-.21 1.19-.45 1.56-.54.37-.1.72-.25.79-.35.22-.36-3.17-4.26-4.95-5.69-2.36-1.9-5.8-3.67-8.57-4.4l-2.21-.59-.07-1.66c-.04-.91-.02-1.66.04-1.66.47 0 3.78.81 4.92 1.21 4.98 1.73 10.2 5.68 12.97 9.81.59.87 1.11 1.63 1.15 1.68s.58-.08 1.21-.3c.62-.21 1.13-.34 1.13-.29 0 .33-2.76 5.87-2.92 5.86-.11-.01-1.49-.62-3.06-1.37" style="fill:#6eb1e8;stroke:none;stroke-width:.200146;stroke-linecap:butt"/></g><g transform="translate(.253 -.254)"><title>path1630</title><path d="M26.47 80.15V63.92h29.72v32.46H26.47Zm24.54-5.31-1.18-1.19-6.12 6.12-6.13 6.12-1.81-1.81-1.81-1.81-1.18 1.19-1.18 1.18 2.99 3 2.99 3 7.3-7.3 7.31-7.3zM22.1 94.14c-6.61-1.7-12.05-5.46-15.62-10.79-.59-.87-1.09-1.62-1.13-1.67-.04-.04-.7.15-1.46.44-.77.28-1.39.42-1.39.31 0-.19 2.45-5.54 2.63-5.74.11-.13 5.84 2.56 5.85 2.75 0 .09-.55.35-1.24.58l-1.25.42.8 1.16c1.16 1.71 3.85 4.43 5.61 5.7 1.94 1.39 5.21 2.92 7.39 3.47l1.68.42v1.72c0 .95-.02 1.71-.06 1.7-.03-.01-.85-.22-1.81-.47M0 56.55V40.19h29.47v20.73h-5.5V72.9H0Zm21.43 1.56c-.09-9.81-.07-9.7-1.86-11.69-1.32-1.45-3.05-2.23-4.99-2.23-2.77 0-4.83 1.12-6.11 3.35-1.08 1.89-1 2.14.61 2.14 1.27 0 1.37-.04 1.67-.77.17-.42.72-1.04 1.22-1.37 1.83-1.21 3.72-1.1 5.27.31 1.08.97 1.49 2.04 1.49 3.89v1.19H7.49v13.98h14.02zm-7.89 3.14c-.54-.22-1.08-1.53-.91-2.21.52-2.06 3.6-1.67 3.6.46 0 1.37-1.38 2.28-2.69 1.75m33.93-2.45-2.84-1.34.94-.39c.52-.22.98-.4 1.02-.4s.37-.11.73-.25l.66-.25-.56-.81c-3.22-4.61-8.23-8.09-13.5-9.39l-1.83-.44-.07-1.67c-.04-.92.03-1.67.16-1.67s1.34.29 2.69.63c5.92 1.53 11.53 5.37 14.95 10.25.67.95 1.25 1.77 1.28 1.82.04.05.58-.08 1.21-.3.62-.21 1.13-.34 1.13-.29 0 .33-2.76 5.87-2.92 5.86-.11-.01-1.48-.62-3.05-1.36" style="fill:#40d0f6;stroke:none;stroke-width:.200146;stroke-linecap:butt"/></g><g transform="translate(.253 -.254)"><title>path1628</title><path d="M26.47 80.15V63.92h29.72v32.46H26.47Zm24.54-5.31-1.18-1.19-6.12 6.12-6.13 6.12-1.81-1.81-1.81-1.81-1.18 1.19-1.18 1.18 2.99 3 2.99 3 7.3-7.3 7.31-7.3zM22.1 94.14c-6.61-1.7-12.05-5.46-15.62-10.79-.59-.87-1.09-1.62-1.13-1.67-.04-.04-.7.15-1.46.44-.77.28-1.39.42-1.39.31 0-.19 2.45-5.54 2.63-5.74.11-.13 5.84 2.56 5.85 2.75 0 .09-.55.35-1.24.58l-1.25.42.8 1.16c1.16 1.71 3.85 4.43 5.61 5.7 1.94 1.39 5.21 2.92 7.39 3.47l1.68.42v1.72c0 .95-.02 1.71-.06 1.7-.03-.01-.85-.22-1.81-.47M0 56.55V40.19h29.47v20.73h-5.5V72.9H0Zm21.43 1.56c-.08-8.54-.09-8.84-.64-9.94-1.24-2.53-3.66-4.04-6.41-4.03-2.6.02-4.64 1.19-5.91 3.4-1.08 1.89-1.01 2.14.63 2.14 1.12 0 1.38-.08 1.51-.48.29-.92 2.02-2.22 3.19-2.39 1.17-.18 2.61.26 3.52 1.07.76.67 1.4 2.32 1.4 3.61l.01 1.19H7.49v14.23h14.02zm-7.97 2.99c-1.08-.83-1.15-2.35-.14-3.06 1.89-1.32 4.06 1.44 2.25 2.86-.73.58-1.51.65-2.11.2m34.01-2.3-2.84-1.34.94-.39c.52-.22.98-.4 1.02-.4s.37-.11.73-.25l.66-.25-.56-.81c-3.22-4.61-8.23-8.09-13.5-9.39l-1.83-.44-.07-1.67c-.04-.92.03-1.67.16-1.67s1.34.29 2.69.63c5.92 1.53 11.53 5.37 14.95 10.25.67.95 1.25 1.77 1.28 1.82.04.05.58-.08 1.21-.3.62-.21 1.13-.34 1.13-.29 0 .33-2.76 5.87-2.92 5.86-.11-.01-1.48-.62-3.05-1.36" style="fill:#38c5f2;stroke:none;stroke-width:.200146;stroke-linecap:butt"/></g><g transform="translate(.253 -.254)"><title>path1626</title><path d="M26.47 80.15V63.92h29.72v32.46H26.47Zm24.54-5.31-1.18-1.19-6.12 6.12-6.13 6.12-1.81-1.81-1.81-1.81-1.18 1.19-1.18 1.18 2.99 3 2.99 3 7.3-7.3 7.31-7.3zM22.1 94.14c-6.61-1.7-12.05-5.46-15.62-10.79-.59-.87-1.09-1.62-1.13-1.67-.04-.04-.7.15-1.46.44-.77.28-1.39.42-1.39.31 0-.19 2.45-5.54 2.63-5.74.11-.13 5.84 2.56 5.85 2.75 0 .09-.55.35-1.24.58l-1.25.42.8 1.16c1.16 1.71 3.85 4.43 5.61 5.7 1.94 1.39 5.21 2.92 7.39 3.47l1.68.42v1.72c0 .95-.02 1.71-.06 1.7-.03-.01-.85-.22-1.81-.47M0 56.55V40.19h29.47v20.73h-5.5V72.9H0Zm21.43 1.56c-.07-8.35-.11-8.86-.61-9.94-1.99-4.31-7.53-5.43-11.14-2.26-.84.74-1.67 2.13-2.06 3.46-.15.53-.1.56 1.22.56 1.27 0 1.42-.06 1.76-.72.89-1.73 3.08-2.76 4.85-2.28 2.01.54 3.26 2.29 3.27 4.56l.01 1.19H7.49v14.23H21.5zm-8.04 2.75c-.93-.83-.97-1.88-.11-2.68.7-.65 1.46-.65 2.29.01.48.38.66.75.66 1.36 0 .6-.18.98-.66 1.35-.84.67-1.41.65-2.18-.04m34.08-2.06-2.84-1.34.94-.39c.52-.22.98-.4 1.02-.4s.37-.11.73-.25l.66-.25-.56-.81c-3.22-4.61-8.23-8.09-13.5-9.39l-1.83-.44-.07-1.67c-.04-.92.03-1.67.16-1.67s1.34.29 2.69.63c5.92 1.53 11.53 5.37 14.95 10.25.67.95 1.25 1.77 1.28 1.82.04.05.58-.08 1.21-.3.62-.21 1.13-.34 1.13-.29 0 .33-2.76 5.87-2.92 5.86-.11-.01-1.48-.62-3.05-1.36" style="fill:#60aae5;stroke:none;stroke-width:.200146;stroke-linecap:butt"/></g><g transform="translate(.253 -.254)"><title>path1624</title><path d="M26.47 80.15V63.92h29.72v32.46H26.47Zm24.54-5.31-1.18-1.19-6.12 6.12-6.13 6.12-1.81-1.81-1.81-1.81-1.18 1.19-1.18 1.18 2.99 3 2.99 3 7.3-7.3 7.31-7.3zM22.05 94.12C15.54 92.44 10 88.61 6.47 83.33c-.58-.86-1.08-1.6-1.12-1.65-.04-.04-.7.15-1.46.44-.77.28-1.39.44-1.39.35 0-.15 2.48-5.6 2.62-5.77.1-.11 5.85 2.55 5.86 2.71.01.08-.55.34-1.24.59l-1.24.44.79 1.17c1.16 1.7 3.85 4.43 5.61 5.69 1.94 1.39 5.32 2.98 7.44 3.5l1.63.41v1.71c0 .94-.02 1.7-.06 1.69-.03-.01-.87-.23-1.86-.49M0 56.55V40.19h29.47v20.73h-5.5V72.9H0Zm21.43 1.56c-.07-8.35-.11-8.86-.61-9.94-1.99-4.31-7.53-5.43-11.14-2.26-.84.74-1.67 2.13-2.06 3.46-.15.53-.1.56 1.22.56 1.27 0 1.42-.06 1.76-.72.89-1.73 3.08-2.76 4.85-2.28 2.01.54 3.26 2.29 3.27 4.56l.01 1.19H7.49v14.23H21.5zm-8.04 2.75c-.93-.83-.97-1.88-.11-2.68.7-.65 1.46-.65 2.29.01.48.38.66.75.66 1.36 0 .6-.18.98-.66 1.35-.84.67-1.41.65-2.18-.04m34.25-2.01c-1.48-.7-2.69-1.34-2.69-1.42 0-.09.42-.31.94-.49.51-.18 1.19-.43 1.51-.55l.57-.21-.8-1.19c-1.22-1.78-4.11-4.56-6.17-5.92a23 23 0 0 0-7.1-3.1l-1.81-.44-.07-1.69c-.07-1.53-.03-1.68.37-1.56.25.07.84.2 1.32.28 1.47.28 4.76 1.38 6.1 2.05 3.89 1.94 7.99 5.43 10.14 8.63.61.92 1.25 1.67 1.4 1.68.16 0 .69-.16 1.19-.37s.9-.34.9-.28c0 .34-2.76 5.9-2.92 5.88-.11-.02-1.41-.6-2.88-1.3" style="fill:#57a6e4;stroke:none;stroke-width:.200146;stroke-linecap:butt"/></g><g transform="translate(.253 -.254)"><title>path1622</title><path d="M26.47 80.15V63.92h29.72v32.46H26.47Zm24.54-5.31-1.18-1.19-6.12 6.12-6.13 6.12-1.81-1.81-1.81-1.81-1.18 1.19-1.18 1.18 2.99 3 2.99 3 7.3-7.3 7.31-7.3zM22.05 94.12C15.54 92.44 10 88.61 6.47 83.33c-.58-.86-1.08-1.6-1.12-1.65-.04-.04-.7.15-1.46.44-.77.28-1.39.44-1.39.35 0-.15 2.48-5.6 2.62-5.77.1-.11 5.85 2.55 5.86 2.71.01.08-.55.34-1.24.59l-1.24.44.79 1.17c1.16 1.7 3.85 4.43 5.61 5.69 1.94 1.39 5.32 2.98 7.44 3.5l1.63.41v1.71c0 .94-.02 1.7-.06 1.69-.03-.01-.87-.23-1.86-.49M0 56.55V40.19h29.47v20.73h-5.5V72.9H0Zm21.43 1.56c-.07-8.35-.11-8.86-.61-9.94-1.99-4.31-7.53-5.43-11.14-2.26-.84.74-1.67 2.13-2.06 3.46-.15.53-.1.56 1.22.56 1.27 0 1.42-.06 1.76-.72.89-1.73 3.08-2.76 4.85-2.28 2.01.54 3.26 2.29 3.27 4.56l.01 1.19H7.49v14.23H21.5zm-8.04 2.75c-.93-.83-.97-1.88-.11-2.68.7-.65 1.46-.65 2.29.01.48.38.66.75.66 1.36 0 .6-.18.98-.66 1.35-.84.67-1.41.65-2.18-.04m34.25-2.01c-1.48-.7-2.69-1.34-2.69-1.42 0-.09.42-.31.94-.49.51-.18 1.19-.43 1.51-.55l.57-.21-.8-1.19c-1.22-1.78-4.11-4.56-6.17-5.92a23 23 0 0 0-7.1-3.1l-1.81-.44-.07-1.69c-.07-1.53-.03-1.68.37-1.56.25.07.84.2 1.32.28 1.47.28 4.76 1.38 6.1 2.05 3.89 1.94 7.99 5.43 10.14 8.63.61.92 1.25 1.67 1.4 1.68.16 0 .69-.16 1.19-.37s.9-.34.9-.28c0 .34-2.76 5.9-2.92 5.88-.11-.02-1.41-.6-2.88-1.3" style="fill:#31bbee;stroke:none;stroke-width:.200146;stroke-linecap:butt"/></g><g transform="translate(.253 -.254)"><title>path1620</title><path d="M26.47 80.15V63.92h29.72v32.46H26.47Zm24.54-5.31-1.18-1.19-6.13 6.12-6.12 6.12-1.74-1.75c-.96-.96-1.85-1.75-1.99-1.75-.13 0-.73.48-1.32 1.06l-1.07 1.05 3.06 3.07 3.06 3.07 7.3-7.3 7.31-7.3zM22.05 94.12C15.54 92.44 10 88.61 6.47 83.33c-.58-.86-1.08-1.6-1.12-1.65-.04-.04-.7.15-1.46.44-.77.28-1.39.44-1.39.35 0-.15 2.48-5.6 2.62-5.77.1-.11 5.85 2.55 5.86 2.71.01.08-.55.34-1.24.59l-1.24.44.79 1.17c1.16 1.7 3.85 4.43 5.61 5.69 1.94 1.39 5.32 2.98 7.44 3.5l1.63.41v1.71c0 .94-.02 1.7-.06 1.69-.03-.01-.87-.23-1.86-.49M0 56.55V40.19h29.47v20.73h-5.5V72.9H0Zm21.43 1.56c-.07-8.35-.11-8.86-.61-9.94-1.96-4.25-7.41-5.42-11.02-2.37-.9.76-1.91 2.37-2.16 3.44-.16.69-.15.69 1.21.69 1.26 0 1.41-.06 1.75-.72 1.19-2.31 4.33-3.09 6.35-1.59.98.74 1.78 2.46 1.78 3.85v1.21H7.49v14.23H21.5zm-8.04 2.75c-.93-.83-.97-1.88-.11-2.68.73-.68 1.59-.64 2.34.11.83.83.81 1.93-.05 2.61-.84.67-1.41.65-2.18-.04m34.25-2.01c-1.48-.7-2.69-1.34-2.69-1.42 0-.09.42-.31.94-.49.51-.18 1.19-.43 1.51-.55l.57-.21-.8-1.19c-1.22-1.78-4.11-4.56-6.17-5.92a23 23 0 0 0-7.1-3.1l-1.81-.44-.07-1.69c-.07-1.53-.03-1.68.37-1.56.25.07.84.2 1.32.28 1.47.28 4.76 1.38 6.1 2.05 3.89 1.94 7.99 5.43 10.14 8.63.61.92 1.25 1.67 1.4 1.68.16 0 .69-.16 1.19-.37s.9-.34.9-.28c0 .34-2.76 5.9-2.92 5.88-.11-.02-1.41-.6-2.88-1.3" style="fill:#4ea1e3;stroke:none;stroke-width:.200146;stroke-linecap:butt"/></g><g transform="translate(.253 -.254)"><title>path1618</title><path d="M26.47 80.15V63.92h29.72v32.46H26.47Zm24.54-5.31-1.18-1.19-6.13 6.12-6.12 6.12-1.74-1.75c-.96-.96-1.85-1.75-1.99-1.75-.13 0-.73.48-1.32 1.06l-1.07 1.05 3.06 3.07 3.06 3.07 7.3-7.3 7.31-7.3zM22.85 94.33c-3.38-.82-6.75-2.27-9.49-4.07-1.96-1.29-5.49-4.82-6.86-6.87-.59-.89-1.11-1.66-1.15-1.71-.04-.04-.7.15-1.46.44-.77.28-1.39.45-1.39.38 0-.13 2.49-5.62 2.63-5.8.03-.04 1.39.56 3.02 1.34l2.96 1.41-1.3.5-1.31.51.43.75c.71 1.23 4.28 4.89 5.92 6.06 2.01 1.43 5.24 2.97 7.39 3.53l1.73.44v1.7c0 .93-.02 1.68-.06 1.66-.03-.01-.51-.13-1.06-.27M0 56.55V40.19h29.47v20.73h-5.5V72.9H0Zm21.43 1.56c-.07-8.35-.11-8.86-.61-9.94-1.96-4.25-7.41-5.42-11.02-2.37-.9.76-1.91 2.37-2.16 3.44-.16.69-.15.69 1.21.69 1.26 0 1.41-.06 1.75-.72 1.19-2.31 4.33-3.09 6.35-1.59.98.74 1.78 2.46 1.78 3.85v1.21H7.49v14.23H21.5zm-8.04 2.75c-.93-.83-.97-1.88-.11-2.68.73-.68 1.59-.64 2.34.11.83.83.81 1.93-.05 2.61-.84.67-1.41.65-2.18-.04m34.25-2.01c-1.48-.7-2.69-1.35-2.69-1.45 0-.09.26-.24.58-.32s.99-.32 1.5-.53l.93-.39-.77-1.13c-2.98-4.33-8.03-7.77-13.29-9.06l-1.81-.44-.07-1.65-.08-1.65 2.09.46c4.22.92 8.01 2.8 11.56 5.74 1.6 1.33 4.09 4.17 5.01 5.74.52.86.69.9 1.94.38l.91-.39-.35.82c-1.11 2.57-2.43 5.19-2.59 5.17-.1-.02-1.4-.6-2.87-1.3" style="fill:#2cb4eb;stroke:none;stroke-width:.200146;stroke-linecap:butt"/></g><g transform="translate(.253 -.254)"><title>path1616</title><path d="M26.47 80.15V63.92h29.72v32.46H26.47Zm18.42 3.17 7.31-7.3-1.19-1.18-1.2-1.18-6.11 6.11-6.11 6.12-1.88-1.88-1.89-1.87-1.23 1.25-1.24 1.26 2.99 2.99c1.64 1.65 3.05 2.99 3.12 2.99s3.42-3.28 7.43-7.31M22.85 94.33c-3.38-.82-6.75-2.27-9.49-4.07-1.96-1.29-5.49-4.82-6.86-6.87-.59-.89-1.11-1.66-1.15-1.71-.04-.04-.7.15-1.46.44-.77.28-1.39.45-1.39.38 0-.13 2.49-5.62 2.63-5.8.03-.04 1.39.56 3.02 1.34l2.96 1.41-1.3.5-1.31.51.43.75c.71 1.23 4.28 4.89 5.92 6.06 2.01 1.43 5.24 2.97 7.39 3.53l1.73.44v1.7c0 .93-.02 1.68-.06 1.66-.03-.01-.51-.13-1.06-.27M0 56.55V40.19h29.47v20.73h-5.5V72.9H0Zm21.48 1.88c0-7.93-.04-8.57-.51-9.84-.62-1.65-2.11-3.26-3.7-3.98-1.43-.66-4.19-.7-5.59-.08-1.83.8-3.62 2.89-4.04 4.71l-.16.69h1.49c1.32 0 1.5-.06 1.66-.56.43-1.44 2.09-2.49 3.9-2.47 2.34.01 3.83 1.55 4.11 4.25l.16 1.53H7.49v14.23h13.99zm-7.49 2.81c-1.4-.51-1.71-2.17-.58-3.06 1.12-.88 2.82-.06 2.82 1.37 0 1.05-1.29 2.03-2.24 1.69m33.65-2.39c-1.48-.7-2.69-1.35-2.69-1.45 0-.09.26-.24.58-.32s.99-.32 1.5-.53l.93-.39-.77-1.13c-2.98-4.33-8.03-7.77-13.29-9.06l-1.81-.44-.07-1.65-.08-1.65 2.09.46c4.22.92 8.01 2.8 11.56 5.74 1.6 1.33 4.09 4.17 5.01 5.74.52.86.69.9 1.94.38l.91-.39-.35.82c-1.11 2.57-2.43 5.19-2.59 5.17-.1-.02-1.4-.6-2.87-1.3" style="fill:#4099e0;stroke:none;stroke-width:.200146;stroke-linecap:butt"/></g><g transform="translate(.253 -.254)"><title>path1614</title><path d="M26.47 80.15V63.92h29.72v32.46H26.47Zm18.42 3.17 7.31-7.3-1.19-1.18-1.2-1.18-6.11 6.11-6.11 6.12-1.88-1.88-1.89-1.87-1.23 1.25-1.24 1.26 2.99 2.99c1.64 1.65 3.05 2.99 3.12 2.99s3.42-3.28 7.43-7.31M20.77 93.74c-2.36-.7-5.21-2.04-7.41-3.48-1.96-1.29-5.73-5.09-6.99-7.05-.55-.86-1.08-1.56-1.19-1.56-.1 0-.74.21-1.43.47s-1.25.42-1.25.36c0-.11 2.5-5.62 2.63-5.78.03-.04 1.39.56 3.02 1.34l2.96 1.41-1.25.44c-.77.28-1.21.57-1.16.78.27 1.12 4.32 5.38 6.58 6.92 1.78 1.22 5.03 2.71 6.96 3.21l1.73.44v1.57c0 1.87 0 1.87-3.2.93M0 56.42V40.19h29.47v20.73h-5.5v11.74H0Zm21.48 2.01c0-7.93-.04-8.57-.51-9.84-.62-1.65-2.11-3.26-3.7-3.98-1.43-.66-4.19-.7-5.59-.08-1.83.8-3.62 2.89-4.04 4.71l-.16.69h1.49c1.32 0 1.5-.06 1.66-.56.43-1.44 2.09-2.49 3.9-2.47 2.34.01 3.83 1.55 4.11 4.25l.16 1.53H7.49v14.23h13.99zm-7.49 2.81c-1.4-.51-1.71-2.17-.58-3.06 1.12-.88 2.82-.06 2.82 1.37 0 1.05-1.29 2.03-2.24 1.69m33.65-2.39c-1.48-.7-2.69-1.34-2.69-1.42 0-.09.63-.37 1.39-.62.76-.26 1.43-.55 1.49-.65.18-.29-2.21-3.28-3.84-4.78-2.76-2.56-7.4-4.98-10.68-5.59-.53-.1-1.05-.3-1.15-.45s-.19-.91-.19-1.69v-1.41l2.07.45c4.21.92 8 2.8 11.55 5.74 1.6 1.33 4.09 4.17 5.01 5.74.52.86.69.9 1.94.38l.91-.39-.35.82c-1.01 2.32-2.45 5.19-2.6 5.17-.1-.02-1.39-.6-2.86-1.3" style="fill:#3f99e0;stroke:none;stroke-width:.200146;stroke-linecap:butt"/></g><g transform="translate(.253 -.254)"><title>path1612</title><path d="M26.47 80.15V63.92h29.72v32.46H26.47Zm18.42 3.17 7.31-7.3-1.19-1.18-1.2-1.18-6.11 6.11-6.11 6.12-1.88-1.88-1.89-1.87-1.23 1.25-1.24 1.26 2.99 2.99c1.64 1.65 3.05 2.99 3.12 2.99s3.42-3.28 7.43-7.31M20.77 93.74c-2.36-.7-5.21-2.04-7.41-3.48-1.96-1.29-5.73-5.09-6.99-7.05-.55-.86-1.08-1.56-1.19-1.56-.1 0-.74.21-1.43.47s-1.25.42-1.25.36c0-.07.61-1.41 1.35-2.97l1.36-2.85 2.7 1.26c1.49.69 2.79 1.35 2.9 1.46.12.11-.31.34-.94.51-.63.18-1.19.4-1.25.5-.2.32 1.56 2.66 3.28 4.36 2.91 2.87 6.74 5.1 10.41 6.06l1.66.44v1.57c0 1.86 0 1.86-3.2.92M0 56.42V40.19h29.47v20.73h-5.5v11.74H0Zm21.48 2.01c0-7.93-.04-8.57-.51-9.84-.62-1.65-2.11-3.26-3.7-3.98-1.43-.66-4.19-.7-5.59-.08-1.83.8-3.62 2.89-4.04 4.71l-.16.69h1.49c1.32 0 1.5-.06 1.66-.56.43-1.44 2.09-2.49 3.9-2.47 2.34.01 3.83 1.55 4.11 4.25l.16 1.53H7.49v14.23h13.99zm-7.49 2.81c-1.4-.51-1.71-2.17-.58-3.06 1.12-.88 2.82-.06 2.82 1.37 0 1.05-1.29 2.03-2.24 1.69m33.65-2.39c-1.48-.7-2.69-1.34-2.69-1.42 0-.09.63-.37 1.39-.62.76-.26 1.43-.55 1.49-.65.19-.3-2.27-3.34-3.95-4.87-.89-.82-2.53-2.03-3.64-2.7-1.98-1.2-6.36-2.9-7.46-2.9-.53 0-.56-.11-.56-1.63 0-1.9-.07-1.87 2.82-1.13 5.81 1.48 11.52 5.44 14.83 10.29.64.94 1.3 1.71 1.46 1.71.17 0 .71-.18 1.21-.38l.91-.39-.35.82c-1.01 2.32-2.45 5.19-2.6 5.17-.1-.02-1.39-.6-2.86-1.3" style="fill:#22a7e8;stroke:none;stroke-width:.200146;stroke-linecap:butt"/></g><g transform="translate(.253 -.254)"><title>path1610</title><path d="M26.47 80.15V63.92h29.72v32.46H26.47Zm18.42 3.17 7.31-7.3-1.19-1.18-1.2-1.18-6.11 6.11-6.11 6.12-1.88-1.88-1.89-1.87-1.23 1.25-1.24 1.26 2.99 2.99c1.64 1.65 3.05 2.99 3.12 2.99s3.42-3.28 7.43-7.31M20.77 93.74c-2.36-.7-5.21-2.04-7.41-3.48-1.96-1.29-5.73-5.09-6.99-7.05-.55-.86-1.08-1.56-1.19-1.56-.1 0-.74.21-1.43.47s-1.25.42-1.25.36c0-.07.61-1.41 1.35-2.97l1.36-2.85 2.7 1.26c1.49.69 2.79 1.35 2.9 1.46.12.11-.31.34-.94.51-.63.18-1.19.4-1.25.5-.2.32 1.56 2.66 3.28 4.36 2.91 2.87 6.74 5.1 10.41 6.06l1.66.44v1.57c0 1.86 0 1.86-3.2.92M0 56.42V40.19h29.47v20.73h-5.5v11.74H0Zm21.48 1.79v-8.7l-.77-1.53c-1.16-2.32-3.06-3.65-5.68-3.96-2.72-.32-5.74 1.43-6.95 4.03-.84 1.81-.81 1.88.85 1.88 1.4 0 1.45-.02 1.93-.93 1.09-2.02 3.58-2.68 5.66-1.51 1.31.73 1.93 1.8 2.12 3.66l.16 1.53H7.24v6.95c0 3.82.08 7.02.17 7.12.09.09 3.29.16 7.12.16h6.95zm-7.49 3.01c-1.27-.4-1.69-2.07-.75-2.93 1.47-1.33 3.68.37 2.75 2.12-.28.52-1.44.99-2 .81m33.65-2.37c-1.48-.7-2.69-1.34-2.69-1.42 0-.09.63-.37 1.39-.62.76-.26 1.43-.55 1.49-.65.19-.3-2.27-3.34-3.95-4.87-.89-.82-2.53-2.03-3.64-2.7-1.98-1.2-6.36-2.9-7.46-2.9-.53 0-.56-.11-.56-1.63 0-1.9-.07-1.87 2.82-1.13 5.81 1.48 11.52 5.44 14.83 10.29.64.94 1.3 1.71 1.46 1.71.17 0 .71-.18 1.21-.38l.91-.39-.35.82c-1.01 2.32-2.45 5.19-2.6 5.17-.1-.02-1.39-.6-2.86-1.3" style="fill:#3493de;stroke:none;stroke-width:.200146;stroke-linecap:butt"/></g><g transform="translate(.253 -.254)"><title>path1608</title><path d="M26.72 80.15V63.92h29.47v32.46H26.72Zm18.17 3.17 7.31-7.3-1.19-1.18-1.2-1.18-6.11 6.11-6.11 6.12-1.88-1.88-1.89-1.87-1.23 1.25-1.24 1.26 2.99 2.99c1.64 1.65 3.05 2.99 3.12 2.99s3.42-3.28 7.43-7.31M20.77 93.74c-2.36-.7-5.21-2.04-7.41-3.48-1.96-1.29-5.73-5.09-6.99-7.05-.55-.86-1.08-1.56-1.19-1.56-.1 0-.74.21-1.43.47s-1.25.42-1.25.36c0-.07.61-1.41 1.35-2.97l1.36-2.85 2.7 1.26c1.49.69 2.79 1.35 2.9 1.46.12.11-.31.34-.94.51-.63.18-1.19.4-1.25.5-.2.32 1.56 2.66 3.28 4.36 2.91 2.87 6.74 5.1 10.41 6.06l1.66.44v1.57c0 1.86 0 1.86-3.2.92M0 56.42V40.19h29.47v20.73h-5.5v11.74H0Zm21.48 1.79v-8.7l-.77-1.53c-1.16-2.32-3.06-3.65-5.68-3.96-2.72-.32-5.74 1.43-6.95 4.03-.84 1.81-.81 1.88.85 1.88 1.4 0 1.45-.02 1.93-.93 1.09-2.02 3.58-2.68 5.66-1.51 1.31.73 1.93 1.8 2.12 3.66l.16 1.53H7.24v6.95c0 3.82.08 7.02.17 7.12.09.09 3.29.16 7.12.16h6.95zm-7.49 3.01c-1.27-.4-1.69-2.07-.75-2.93 1.47-1.33 3.68.37 2.75 2.12-.28.52-1.44.99-2 .81m33.65-2.37c-1.48-.7-2.69-1.34-2.69-1.42 0-.09.63-.37 1.39-.62.76-.26 1.43-.55 1.49-.65.19-.3-2.27-3.34-3.95-4.87-.89-.82-2.53-2.03-3.64-2.7-1.98-1.2-6.36-2.9-7.46-2.9-.53 0-.56-.11-.56-1.63 0-1.9-.07-1.87 2.82-1.13 5.81 1.48 11.52 5.44 14.83 10.29.64.94 1.3 1.71 1.46 1.71.17 0 .71-.18 1.21-.38l.91-.39-.35.82c-1.01 2.32-2.45 5.19-2.6 5.17-.1-.02-1.39-.6-2.86-1.3" style="fill:#1da0e5;stroke:none;stroke-width:.200146;stroke-linecap:butt"/></g><g transform="translate(.253 -.254)"><title>path1606</title><path d="M26.72 80.15V63.92h29.47v32.46H26.72Zm18.29 3.31c3.95-3.95 7.18-7.3 7.18-7.44 0-.15-.5-.76-1.12-1.37l-1.13-1.11-6.06 6.05c-3.33 3.33-6.16 6.05-6.29 6.05s-1.04-.79-2-1.75l-1.77-1.75-1.23 1.25-1.24 1.26 2.99 2.99c1.64 1.65 3.1 2.99 3.24 2.99s3.48-3.23 7.43-7.17M20.77 93.74c-2.36-.7-5.21-2.04-7.41-3.48-1.96-1.29-5.73-5.09-6.99-7.05-.55-.86-1.08-1.56-1.19-1.56-.1 0-.74.21-1.43.47s-1.25.42-1.25.36c0-.07.61-1.41 1.35-2.97l1.36-2.85 2.7 1.26c1.49.69 2.79 1.35 2.9 1.46.12.11-.31.34-.94.51-.63.18-1.19.4-1.25.5-.2.32 1.56 2.66 3.28 4.36 2.91 2.87 6.74 5.1 10.41 6.06l1.66.44v1.57c0 1.86 0 1.86-3.2.92M0 56.42V40.19h29.47v20.73h-5.5v11.74H0Zm21.42 1.56-.07-8.92-.62-1.21c-1.55-3.04-5.27-4.61-8.44-3.56-1.65.55-3.47 2.18-4.21 3.76-.84 1.81-.81 1.88.85 1.88 1.39 0 1.45-.03 1.93-.92.73-1.32 1.63-1.89 3.23-2.02 1.15-.1 1.55-.01 2.47.53 1.3.76 1.9 1.85 2.1 3.8l.14 1.36H7.24v14.23H21.5zm-7.43 3.24c-1.27-.4-1.69-2.07-.75-2.93 1.47-1.33 3.68.37 2.75 2.12-.28.52-1.44.99-2 .81m33.65-2.37c-1.48-.7-2.69-1.34-2.69-1.42 0-.09.63-.37 1.39-.62.76-.26 1.43-.55 1.49-.65.19-.3-2.27-3.34-3.95-4.87-.89-.82-2.53-2.03-3.64-2.7-1.98-1.2-6.36-2.9-7.46-2.9-.53 0-.56-.11-.56-1.63 0-1.9-.07-1.87 2.82-1.13 5.81 1.48 11.52 5.44 14.83 10.29.64.94 1.3 1.71 1.46 1.71.17 0 .71-.18 1.21-.38l.91-.39-.35.82c-1.01 2.32-2.45 5.19-2.6 5.17-.1-.02-1.39-.6-2.86-1.3" style="fill:#2f90de;stroke:none;stroke-width:.200146;stroke-linecap:butt"/></g><g transform="translate(.253 -.254)"><title>path1604</title><path d="M26.72 80.15V63.92h29.47v32.46H26.72Zm18.29 3.31c3.95-3.95 7.18-7.3 7.18-7.44 0-.15-.5-.76-1.12-1.37l-1.13-1.11-6.06 6.05c-3.33 3.33-6.16 6.05-6.29 6.05s-1.04-.79-2-1.75l-1.77-1.75-1.23 1.25-1.24 1.26 2.99 2.99c1.64 1.65 3.1 2.99 3.24 2.99s3.48-3.23 7.43-7.17M21.12 93.85C15.36 92.21 9.55 88.02 6.5 83.31c-.59-.92-1.15-1.67-1.25-1.67-.09 0-.7.19-1.35.41s-1.22.36-1.26.31c-.05-.05.51-1.35 1.24-2.89l1.32-2.81 2.71 1.27c1.49.69 2.79 1.34 2.9 1.45.12.11-.31.34-.94.51-.63.18-1.19.4-1.25.5-.14.22.91 1.78 2.34 3.47 2.8 3.3 8.03 6.4 12.08 7.16l.93.17v1.59c0 1.88-.01 1.88-2.85 1.07M0 56.42V40.19h29.47v20.73h-5.5v11.74H0Zm21.42 1.56-.07-8.92-.62-1.21c-1.55-3.04-5.27-4.61-8.44-3.56-1.65.55-3.47 2.18-4.21 3.76-.84 1.81-.81 1.88.85 1.88 1.39 0 1.45-.03 1.93-.92.73-1.32 1.63-1.89 3.23-2.02 1.15-.1 1.55-.01 2.47.53 1.3.76 1.9 1.85 2.1 3.8l.14 1.36H7.24v14.23H21.5zm-7.43 3.24c-1.27-.4-1.69-2.07-.75-2.93 1.47-1.33 3.68.37 2.75 2.12-.28.52-1.44.99-2 .81m33.58-2.42-2.74-1.32.88-.39c.49-.21 1.2-.46 1.57-.55s.67-.26.67-.37c0-.44-2.27-3.22-3.77-4.62-2.9-2.69-5.8-4.31-9.78-5.46l-2.06-.6-.07-1.55-.08-1.56 1.18.18c2.83.42 6.7 2.02 9.71 4.01 2.12 1.39 5.39 4.6 6.79 6.65 1.25 1.83 1.4 1.9 2.91 1.31.4-.15.44-.09.3.36-.33 1.04-2.42 5.28-2.59 5.26-.09-.01-1.41-.62-2.92-1.35" style="fill:#1393e0;stroke:none;stroke-width:.200146;stroke-linecap:butt"/></g><g transform="translate(.253 -.254)"><title>path1602</title><path d="M26.72 80.15V63.92h29.47v32.46H26.72Zm25.47-4.11c0-.33-2.03-2.39-2.36-2.39-.14 0-2.98 2.73-6.31 6.06l-6.06 6.05-1.82-1.81-1.82-1.81-1.23 1.25-1.24 1.26 3.12 3.12 3.11 3.12 7.31-7.31c4.02-4.01 7.3-7.41 7.3-7.54M21.12 93.85C15.36 92.21 9.55 88.02 6.5 83.31c-.59-.92-1.15-1.67-1.25-1.67-.09 0-.7.19-1.35.41s-1.22.36-1.26.31c-.05-.05.51-1.35 1.24-2.89l1.32-2.81 2.71 1.27c1.49.69 2.79 1.34 2.9 1.45.12.11-.31.34-.94.51-.63.18-1.19.4-1.25.5-.14.22.91 1.78 2.34 3.47 2.8 3.3 8.03 6.4 12.08 7.16l.93.17v1.59c0 1.88-.01 1.88-2.85 1.07M0 56.42V40.19h29.47v20.73h-5.5v11.74H0Zm21.42 1.56c-.07-8.86-.07-8.93-.67-10.1-.73-1.42-1.77-2.46-3.27-3.23-1.55-.81-4.64-.83-6.13-.04-1.77.94-3.29 2.84-3.76 4.71-.15.6-.12.61 1.31.6 1.45 0 1.47-.01 2.11-1.07 1.12-1.85 3.28-2.42 5.35-1.42 1.39.68 2.12 2 2.12 3.85v1.4H7.24v14.23H21.5zm-8.27 2.73c-.83-.91-.31-2.64.84-2.8 1.03-.14 1.5.05 1.87.77.66 1.28-.06 2.49-1.48 2.49-.47 0-.99-.19-1.23-.46m34.42-1.91-2.74-1.32.88-.39c.49-.21 1.2-.46 1.57-.55s.67-.26.67-.37c0-.44-2.27-3.22-3.77-4.62-2.9-2.69-5.8-4.31-9.78-5.46l-2.06-.6-.07-1.55-.08-1.56 1.18.18c2.83.42 6.7 2.02 9.71 4.01 2.12 1.39 5.39 4.6 6.79 6.65 1.25 1.83 1.4 1.9 2.91 1.31.4-.15.44-.09.3.36-.33 1.04-2.42 5.28-2.59 5.26-.09-.01-1.41-.62-2.92-1.35" style="fill:#2088db;stroke:none;stroke-width:.200146;stroke-linecap:butt"/></g><g transform="translate(.253 -.254)"><title>path1600</title><path d="M26.72 80.15V63.92h29.47v32.46H26.72Zm25.47-4.11c0-.33-2.03-2.39-2.36-2.39-.14 0-2.98 2.73-6.31 6.06l-6.06 6.05-1.82-1.81-1.82-1.81-1.23 1.25-1.24 1.26 3.12 3.12 3.11 3.12 7.31-7.31c4.02-4.01 7.3-7.41 7.3-7.54M21.23 93.86c-4.01-1.05-9.46-4.32-12.13-7.29-.64-.72-1.68-2.03-2.31-2.93-.62-.89-1.22-1.72-1.32-1.84-.1-.11-.76-.02-1.47.22-.71.23-1.32.39-1.36.34s.52-1.35 1.24-2.89l1.32-2.8 2.77 1.3c1.52.71 2.77 1.37 2.77 1.46 0 .1-.42.31-.94.48-1.34.43-1.38.52-.64 1.62 3.05 4.58 8.99 8.66 13.76 9.47l1.05.18v1.6c0 1.86.1 1.83-2.74 1.08M0 56.42V40.19h29.47v20.48h-5.5v11.99H0Zm21.42 1.56c-.07-8.86-.07-8.93-.67-10.1-.73-1.42-1.77-2.46-3.27-3.23-1.55-.81-4.64-.83-6.13-.04-1.77.94-3.29 2.84-3.76 4.71-.15.6-.12.61 1.31.6 1.45 0 1.47-.01 2.11-1.07 1.12-1.85 3.28-2.42 5.35-1.42 1.39.68 2.12 2 2.12 3.85v1.4H7.24v14.23H21.5zm-8.27 2.73c-.83-.91-.31-2.64.84-2.8 1.03-.14 1.5.05 1.87.77.66 1.28-.06 2.49-1.48 2.49-.47 0-.99-.19-1.23-.46m34.63-1.86c-1.53-.71-2.73-1.38-2.67-1.48s.72-.37 1.47-.61c.75-.23 1.37-.51 1.37-.6 0-.41-2.29-3.22-3.78-4.64-2.73-2.6-6.49-4.69-9.96-5.54l-1.87-.45-.07-1.58-.08-1.57 1.18.18c2.81.42 6.66 2 9.71 3.99 1.92 1.26 5.73 5.06 7.08 7.05l1.04 1.55.9-.38c.49-.2.95-.32 1.02-.25s-.47 1.36-1.21 2.87l-1.34 2.75z" style="fill:#1683d9;stroke:none;stroke-width:.200146;stroke-linecap:butt"/></g><g transform="translate(.253 -.254)"><title>path1598</title><path d="M26.72 80.15V63.92h29.47v32.46H26.72Zm25.47-4.11c0-.33-2.03-2.39-2.36-2.39-.14 0-2.98 2.73-6.31 6.06l-6.06 6.05-1.82-1.81-1.82-1.81-1.23 1.25-1.24 1.26 3.12 3.12 3.11 3.12 7.31-7.31c4.02-4.01 7.3-7.41 7.3-7.54M21.85 94.03C15.71 92.52 9.9 88.39 6.33 83c-.5-.74-1.06-1.36-1.25-1.36s-.75.17-1.25.38c-.49.21-.94.37-.99.37-.24 0-.01-.6 1.15-3.06l1.25-2.64 2.75 1.29c1.51.7 2.75 1.35 2.75 1.43 0 .09-.45.29-.99.45-.54.17-1.06.41-1.14.54-.22.37 1.28 2.41 3.24 4.38 1.83 1.84 3.86 3.34 6.01 4.41 1.55.78 4.9 1.94 5.59 1.94.48 0 .52.15.52 1.63 0 1.83.05 1.8-2.12 1.27M0 56.42V40.19h29.47v20.48h-5.5v11.99H0Zm21.42 1.56c-.07-8.86-.07-8.93-.67-10.1-.73-1.42-1.77-2.46-3.27-3.23-1.55-.81-4.64-.83-6.13-.04-1.77.94-3.29 2.84-3.76 4.71-.15.6-.12.61 1.31.6 1.45 0 1.47-.01 2.11-1.07 1.12-1.85 3.28-2.42 5.35-1.42 1.39.68 2.12 2 2.12 3.85v1.4H7.24v14.23H21.5zm-8.27 2.73c-.83-.91-.31-2.64.84-2.8 1.03-.14 1.5.05 1.87.77.66 1.28-.06 2.49-1.48 2.49-.47 0-.99-.19-1.23-.46m34.62-1.87c-1.53-.71-2.71-1.36-2.62-1.44.1-.09.77-.36 1.49-.62.72-.25 1.31-.55 1.31-.67 0-.43-1.99-2.86-3.65-4.46-2.83-2.71-6.55-4.8-10.09-5.67l-1.87-.45-.07-1.58-.08-1.57 1.18.18c4.2.63 9.16 3.15 12.77 6.5 1.56 1.44 2.29 2.3 4.39 5.17l.67.92 1-.35c.55-.19.98-.27.97-.18-.01.1-.6 1.38-1.31 2.85l-1.29 2.67z" style="fill:#0c89dc;stroke:none;stroke-width:.200146;stroke-linecap:butt"/></g><g transform="translate(.253 -.254)"><title>path1596</title><path d="M26.72 80.15V63.92h29.47v32.46H26.72Zm24.41-5.43-1.3-1.32-6.12 6.12-6.13 6.12-1.81-1.81-1.81-1.81-1.3 1.31-1.31 1.31 3.11 3.12 3.12 3.13 7.43-7.43 7.43-7.42zM21.85 94.03C15.71 92.52 9.9 88.39 6.33 83c-.5-.74-1.06-1.36-1.25-1.36s-.75.17-1.25.38c-.49.21-.94.37-.99.37-.24 0-.01-.6 1.15-3.06l1.25-2.64 2.75 1.29c1.51.7 2.75 1.35 2.75 1.43 0 .09-.45.29-.99.45-.54.17-1.06.41-1.14.54-.22.37 1.28 2.41 3.24 4.38 1.83 1.84 3.86 3.34 6.01 4.41 1.55.78 4.9 1.94 5.59 1.94.48 0 .52.15.52 1.63 0 1.83.05 1.8-2.12 1.27M0 56.42V40.19h29.47v20.48h-5.5v11.99H0Zm21.47 1.69c0-8.7 0-8.82-.58-10.05-2.59-5.53-10.68-5.39-13.03.22-.63 1.52-.54 1.65 1.07 1.65 1.4 0 1.46-.03 1.93-.89.26-.5.96-1.18 1.56-1.53.9-.52 1.31-.62 2.34-.52 2.29.22 3.72 1.85 3.72 4.23v1.46H7.24v14.23h14.24zm-8.23 2.56c-1.02-1.01-.27-2.75 1.18-2.74.83 0 1.15.19 1.52.91.83 1.57-1.43 3.1-2.7 1.83m34.53-1.83c-1.53-.71-2.71-1.36-2.62-1.44.1-.09.77-.36 1.49-.62.72-.25 1.31-.55 1.31-.67 0-.43-1.99-2.86-3.65-4.46-2.83-2.71-6.55-4.8-10.09-5.67l-1.87-.45-.07-1.58-.08-1.57 1.18.18c4.2.63 9.16 3.15 12.77 6.5 1.56 1.44 2.29 2.3 4.39 5.17l.67.92 1-.35c.55-.19.98-.27.97-.18-.01.1-.6 1.38-1.31 2.85l-1.29 2.67z" style="fill:#047dd9;stroke:none;stroke-width:.200146;stroke-linecap:butt"/></g><g transform="translate(.253 -.254)"><title>path1594</title><path d="M26.72 80.15V63.92h29.47v32.46H26.72Zm24.41-5.43-1.3-1.32-6.13 6.12-6.12 6.13-1.74-1.76c-.96-.96-1.85-1.75-1.99-1.75-.33 0-2.38 2.04-2.38 2.36 0 .14 1.37 1.64 3.05 3.32l3.06 3.07 7.43-7.43 7.43-7.42zM21.85 94.03C15.71 92.52 9.9 88.39 6.33 83c-.5-.74-1.06-1.36-1.25-1.36s-.75.17-1.25.38c-.49.21-.94.37-.99.37-.24 0-.01-.6 1.15-3.06l1.25-2.64 2.75 1.29c1.51.7 2.75 1.35 2.75 1.43 0 .09-.45.29-.99.45-.54.17-1.06.41-1.14.54-.22.37 1.28 2.41 3.24 4.38 1.83 1.84 3.86 3.34 6.01 4.41 1.55.78 4.9 1.94 5.59 1.94.48 0 .52.15.52 1.63 0 1.83.05 1.8-2.12 1.27M0 56.42V40.19h29.47v20.48h-5.5v11.99H0Zm21.68 1.81c-.08-8.47-.1-8.7-.67-9.98-1.29-2.86-4.07-4.48-7.29-4.25-2.64.19-4.64 1.59-5.76 4.06-.77 1.69-.68 1.87.99 1.87 1.4 0 1.48-.03 2.06-.92.98-1.49 1.8-1.95 3.47-1.95 2.44 0 3.79 1.36 3.96 4l.1 1.62H7.24v14.23h14.53zm-8.44 2.44c-1.01-1.01-.23-2.75 1.24-2.75 1.11 0 1.68.76 1.51 2-.17 1.19-1.85 1.65-2.75.75m34.53-1.83c-1.53-.71-2.71-1.36-2.62-1.44.1-.09.77-.36 1.49-.62.72-.25 1.31-.55 1.31-.67 0-.43-1.99-2.86-3.65-4.46-2.83-2.71-6.55-4.8-10.09-5.67l-1.87-.45-.07-1.58-.08-1.57 1.18.18c4.2.63 9.16 3.15 12.77 6.5 1.56 1.44 2.29 2.3 4.39 5.17l.67.92 1-.35c.55-.19.98-.27.97-.18-.01.1-.6 1.38-1.31 2.85l-1.29 2.67z" style="fill:#0078d5;stroke:none;stroke-width:.200146;stroke-linecap:butt"/></g><g transform="translate(.253 -.254)"><title>path1592</title><path d="M26.72 80.15V63.92h29.47v32.46H26.72Zm24.41-5.43-1.3-1.32-6.13 6.12-6.12 6.13-1.74-1.76c-.96-.96-1.85-1.75-1.99-1.75-.33 0-2.38 2.04-2.38 2.36 0 .14 1.37 1.64 3.05 3.32l3.06 3.07 7.43-7.43 7.43-7.42zM21.58 93.77c-2.69-.7-5.36-1.88-7.88-3.52-2.25-1.44-6.06-5.2-7.34-7.23-.51-.83-.96-1.53-.98-1.56-.03-.04-.58.12-1.23.34s-1.23.35-1.29.29c-.07-.06.44-1.3 1.13-2.76l1.25-2.64 2.74 1.28c1.51.71 2.67 1.36 2.57 1.45s-.61.3-1.12.47c-.52.16-.94.41-.94.54 0 .5 1.64 2.61 3.36 4.35 1.83 1.84 3.86 3.34 6.01 4.41 1.55.78 4.9 1.94 5.59 1.94.48 0 .52.15.52 1.63 0 .89-.02 1.61-.06 1.61-.03-.01-1.08-.28-2.33-.6M0 56.42V40.19h29.47v20.48h-5.5v11.99H0Zm21.68 1.81-.08-8.67-.65-1.39c-2.15-4.58-7.54-5.78-11.27-2.51-.93.82-2.19 3.02-2.19 3.82 0 .38.22.45 1.46.45 1.4 0 1.48-.03 2.06-.92.98-1.49 1.8-1.95 3.47-1.95 2.38 0 3.77 1.36 3.95 3.86l.11 1.5-5.59.07-5.58.06-.07 7.18-.07 7.18h14.54zm-8.29 2.42c-.78-.62-.84-1.44-.14-2.18.89-.96 2.68-.53 2.76.66.06.82-.06 1.17-.57 1.6-.67.58-1.24.55-2.05-.08m34.31-2.01-2.62-1.27 1.43-.52c.79-.29 1.44-.65 1.44-.8 0-.59-3.36-4.42-5.12-5.84-2.32-1.86-6.18-3.82-8.7-4.41l-1.91-.45v-2.97l1.16.18c4.19.63 9.15 3.15 12.76 6.5 1.56 1.44 2.29 2.3 4.39 5.17l.67.92 1-.35c.55-.19.99-.31.99-.26 0 .32-2.51 5.38-2.67 5.37-.11-.01-1.38-.58-2.82-1.27" style="fill:#0077d5;stroke:none;stroke-width:.200146;stroke-linecap:butt"/></g></g></g></svg>