<svg xmlns="http://www.w3.org/2000/svg" xml:space="preserve" width="75.592" height="45.36" style="font-size:12px;overflow:visible;color-interpolation-filters:sRGB;fill-rule:evenodd;stroke-linecap:square;stroke-miterlimit:3" viewBox="0 0 56.694 34.02"><defs><linearGradient id="a" x1="0" x2="38.072" y1="82.762" y2="82.762" gradientTransform="scale(1.19956 .83364)" gradientUnits="userSpaceOnUse"><stop offset="0" stop-color="#0078d4"/><stop offset=".16" stop-color="#1380da"/><stop offset=".53" stop-color="#3c91e5"/><stop offset=".82" stop-color="#559cec"/><stop offset="1" stop-color="#5ea0ef"/></linearGradient><linearGradient id="b" x1="0" x2="38.991" y1="82.256" y2="82.256" gradientTransform="scale(1.2036 .83084)" gradientUnits="userSpaceOnUse"><stop offset="0" stop-color="#198ab3"/><stop offset="0" stop-color="#198ab3"/><stop offset=".11" stop-color="#22a5cb"/><stop offset=".23" stop-color="#29bade"/><stop offset=".37" stop-color="#2ec9eb"/><stop offset=".53" stop-color="#31d1f3"/><stop offset=".78" stop-color="#32d4f5"/></linearGradient></defs><g transform="translate(-32.698 -32.702)"><title>Page-1</title><g transform="translate(32.698 -34.016)"><title>Azure Migrate.13728</title><g transform="translate(11.024 -2.276)"><title>path30</title><path d="M45.67 90.71a10.268 10.026-180 0 0-8.91-9.63A12.945 12.64-180 0 0 23.43 69a13.291 12.979-180 0 0-12.6 8.45A12.252 11.964-180 0 0 0 89.08a12.598 12.302-180 0 0 12.85 11.65h22.61a10.362 10.119-180 0 0 10.21-10.02" style="fill:url(#a);stroke:none;stroke-width:32.69760132;stroke-linecap:butt"/></g><title>path32</title><path d="M46.93 90.55a10.551 10.303-180 0 0-9.13-9.9 13.26 12.948-180 0 0-13.71-12.3 13.638 13.317-180 0 0-13.03 8.58A12.598 12.302-180 0 0 0 88.74a12.787 12.487-180 0 0 13.23 11.99h23.12a10.646 10.395-180 0 0 10.58-10.18" style="fill:url(#b);stroke:none;stroke-width:32.69760132;stroke-linecap:butt"/><g transform="translate(12.42)"><title>path34</title><path d="M2.76 84.86h2.68a.724.707 0 0 1 .535.215l6.295 6.155a.756.738 0 0 1 0 1.076l-8.56 8.214a.756.738 0 0 1-.535.215L.62 100.73a.787.769 0 0 1-.44-1.292l7.27-7.188a.724.707-180 0 0 0-1.046L2.23 86.13a.756.738 0 0 1 .535-1.261ZM13.57 74.5h2.74a.787.769 0 0 1 .535.246l4.815 4.764a.756.738 0 0 1 0 1.046l-6.3 5.874a.756.738 0 0 1-.535.215l-2.295.005a.787.769 0 0 1-.567-1.261l4.817-4.739a.787.769-180 0 0 0-1.046l-3.75-3.684a.772.754 0 0 1 .535-1.415zm5.63 12.3h2.68a.882.861 0 0 1 .535.215l3.935 3.845a.787.769 0 0 1 0 1.046l-5.7 5.634a.724.707 0 0 1-.535.215l-2.585-.005a.756.738 0 0 1-.535-1.261l4.475-4.429a.787.769-180 0 0 0-1.046l-2.8-2.794a.756.738 0 0 1 .41-1.261z" style="fill:#fff;stroke:none;stroke-width:32.69760132;stroke-linecap:butt"/></g></g></g></svg>