<svg xmlns="http://www.w3.org/2000/svg" xml:space="preserve" width="75.591" height="75.598" style="font-size:12px;overflow:visible;color-interpolation-filters:sRGB;fill-rule:evenodd;stroke-linecap:square;stroke-miterlimit:3" viewBox="0 0 56.693 56.699"><g transform="translate(-12.24 -12.235)"><title>Page-1</title><g transform="translate(12.24 -34.016)"><title>Azure LightHouse My Role.13826</title><title>g22</title><title>path4</title><path d="M14.17 102.95H1.7a1.7 1.736 0 0 1-1.7-1.74V88.49a1.7 1.736 0 0 1 1.7-1.74h12.47a1.7 1.736 0 0 1 1.7 1.74v12.72a1.7 1.736 0 0 1-1.7 1.74" style="fill:#0072c6;stroke:none;stroke-width:12.23999977;stroke-linecap:butt"/><g transform="translate(3.402 -3.471)"><title>path6</title><path d="M0 93.693h9.071v9.256H0z" style="fill:#fff;stroke:none;stroke-width:12.23999977;stroke-linecap:butt"/></g><g transform="translate(19.276)"><title>path8</title><path d="M14.17 102.95H1.7a1.7 1.736 0 0 1-1.7-1.74V88.49a1.7 1.736 0 0 1 1.7-1.74h12.47a1.7 1.736 0 0 1 1.7 1.74v12.72a1.7 1.736 0 0 1-1.7 1.74" style="fill:#0072c6;stroke:none;stroke-width:12.23999977;stroke-linecap:butt"/></g><g transform="translate(22.677 -3.471)"><title>path10</title><path d="M0 93.693h9.071v9.256H0z" style="fill:#fff;stroke:none;stroke-width:12.23999977;stroke-linecap:butt"/></g><g transform="translate(26.079 -16.198)"><title>path12</title><path d="M0 87.908h2.268v15.041H0z" style="fill:#7a7a7a;stroke:none;stroke-width:12.23999977;stroke-linecap:butt"/></g><g transform="translate(14.74 -31.239)"><title>path14</title><path d="M24.94 90.22c0 7.03-5.58 12.73-12.47 12.73S0 97.25 0 90.22s5.58-12.73 12.47-12.73 12.47 5.7 12.47 12.73" style="fill:#804998;stroke:none;stroke-width:12.23999977;stroke-linecap:butt"/></g><g transform="translate(36.283)"><title>path16</title><path d="M16.89 77.49c0 3.66-2.99 6.62-6.69 6.62-3.69 0-6.69-2.96-6.69-6.62 0-3.65 3-6.61 6.69-6.61 3.7 0 6.69 2.96 6.69 6.61m-2.51 9.26-4.18 6.57-4.17-6.57H0v16.2h20.41v-16.2z" style="fill:#3999c6;stroke:none;stroke-width:12.23999977;stroke-linecap:butt"/></g><g transform="translate(14.766 -35.785)"><title>path18</title><path d="M20.46 86.59a11.17 11.17 0 0 0-16.03 0C0 91.1 0 98.43 4.43 102.95Z" style="fill:#fff;fill-opacity:.2;stroke:none;stroke-width:12.23999977;stroke-linecap:butt"/></g><g transform="translate(6.803 -16.198)"><title>path20</title><path d="M31.86 93.69H2.27A2.268 2.314-180 0 0 0 96.01v6.94h2.27v-6.94h29.95a7.404 7.555 0 0 1-.36-2.32" style="fill:#7a7a7a;stroke:none;stroke-width:12.23999977;stroke-linecap:butt"/></g></g></g></svg>