<svg xmlns="http://www.w3.org/2000/svg" xml:space="preserve" width="75.594" height="68.038" style="font-size:12px;overflow:visible;color-interpolation-filters:sRGB;fill-rule:evenodd;stroke-linecap:square;stroke-miterlimit:3" viewBox="0 0 56.696 51.029"><g transform="translate(-5.67 -5.097)"><title>Page-1</title><g transform="translate(5.67 -34.016)"><title>Azure Lighthouse Management.13881</title><g transform="translate(1.662 -10.776)"><title>rect848</title><path fill="none" d="M0 61.222h48.469v28.919H0z" style="fill:#0a0;fill-opacity:0;stroke:#7b30a0;stroke-width:.0737008;stroke-linecap:butt;stroke-opacity:0"/></g><g transform="translate(10.598 -11.156)"><title>g882</title><g transform="translate(0 -.131)"><title>path884</title><path fill="none" d="M0 85.79v4.35l2.52-.18v-3.54z" style="fill:#353564;fill-opacity:0;stroke:none;stroke-width:.00846873;stroke-linecap:butt"/></g><title>path892</title><path fill="none" d="m0 90.01 1.49.13 2.48-.23-1.45-.09Z" style="fill:#afafde;fill-opacity:0;stroke:none;stroke-width:.00846873;stroke-linecap:butt"/><g transform="translate(2.517 -.232)"><title>path894</title><path fill="none" d="m0 86.52 1.45-.29v3.91L0 90.06Z" style="fill:#e9e9ff;fill-opacity:0;stroke:none;stroke-width:.00846873;stroke-linecap:butt"/></g><g transform="translate(0 -3.857)"><title>path886</title><path fill="none" d="m0 89.52 1.49-.44 2.48.78-1.45.28z" style="fill:#4d4d9f;fill-opacity:0;stroke:none;stroke-width:.00846873;stroke-linecap:butt"/></g><g transform="translate(1.493)"><title>path890</title><path fill="none" d="M0 85.22v4.92l2.47-.23V86Z" style="fill:#d7d7ff;fill-opacity:0;stroke:none;stroke-width:.00846873;stroke-linecap:butt"/></g><title>path888</title><path fill="none" d="m0 85.66 1.49-.44v4.92L0 90.01Z" style="fill:#8686bf;fill-opacity:0;stroke:none;stroke-width:.00846873;stroke-linecap:butt"/></g><title>rect896</title><path d="M0 47.96h56.693v42.182H0z" style="fill:#0179d3;stroke:none;stroke-width:2.58992004;stroke-linecap:butt"/><g transform="translate(0 -41.63)"><title>rect898</title><path d="M0 89.7a.416.437-180 0 0 .416.437l55.864.003a.416.437-180 0 0 .416-.437l-.006-8.523a.416.437-180 0 0-.416-.437L.42 80.75a.416.437-180 0 0-.416.437z" style="fill:#59b4d9;stroke:none;stroke-width:.72006398;stroke-linecap:butt"/></g><g transform="translate(38.145 -6.263)"><title>rect900</title><path d="M0 61.038h7.262v29.104H0z" style="fill:#59b4d9;stroke:none;stroke-width:.95934999;stroke-linecap:butt"/></g><g transform="translate(31.321 -6.263)"><title>rect900-3</title><path d="M0 74.853h4.549v15.289H0z" style="fill:#fff;stroke:none;stroke-width:.55036402;stroke-linecap:butt"/></g><g transform="translate(26.334 -6.263)"><title>rect900-3-7</title><path d="M0 81.945h2.887v8.197H0z" style="fill:#fff;stroke:none;stroke-width:.321031;stroke-linecap:butt"/></g><g transform="translate(22.047 -6.263)"><title>rect900-3-7-6</title><path d="M0 85.445h2.45v4.697H0z" style="fill:#fff;stroke:none;stroke-width:.223851;stroke-linecap:butt"/></g><g transform="translate(18.46 -6.263)"><title>rect900-3-7-6-2</title><path d="M0 87.201h1.925v2.941H0z" style="fill:#fff;stroke:none;stroke-width:.15699901;stroke-linecap:butt"/></g><g transform="translate(15.223 -6.263)"><title>rect900-3-7-6-2-7</title><path d="M0 88.3h1.75v1.842H0z" style="fill:#fff;stroke:none;stroke-width:.118474;stroke-linecap:butt"/></g><g transform="translate(3.543 -36.813)"><title>path977</title><ellipse cx="4.887" cy="84.476" fill="none" rx="4.887" ry="5.666" style="fill:#fff;fill-opacity:0;stroke:none;stroke-width:.0737008;stroke-linecap:butt"/></g><g transform="translate(0 -34.525)"><title>rect1203</title><path d="M0 82.485h56.693v7.657H0z" style="fill:#0179d3;stroke:none;stroke-width:3.77358007;stroke-linecap:butt"/></g><g transform="translate(3.852 -45.345)"><title>path981</title><ellipse cx="1.33" cy="88.742" rx="1.33" ry="1.4" style="fill:#0179d3;stroke:none;stroke-width:.35054299;stroke-linecap:butt"/></g><g transform="translate(8.028 -45.312)"><title>path981-6</title><ellipse cx="1.33" cy="88.742" rx="1.33" ry="1.4" style="fill:#0179d3;stroke:none;stroke-width:.35054299;stroke-linecap:butt"/></g><g transform="translate(12.173 -45.377)"><title>path981-6-3</title><ellipse cx="1.33" cy="88.742" rx="1.33" ry="1.4" style="fill:#0179d3;stroke:none;stroke-width:.35054299;stroke-linecap:butt"/></g></g></g></svg>