<svg xmlns="http://www.w3.org/2000/svg" xml:space="preserve" width="71.563" height="75.596" style="font-size:12px;overflow:visible;color-interpolation-filters:sRGB;fill-rule:evenodd;stroke-linecap:square;stroke-miterlimit:3" viewBox="0 0 53.672 56.697"><defs><linearGradient id="a" x1="0" x2="37.569" y1="78.346" y2="78.346" gradientTransform="scale(.92948 1.07587)" gradientUnits="userSpaceOnUse"><stop offset="0" stop-color="#005ba1"/><stop offset="1" stop-color="#005ba1"/></linearGradient></defs><g transform="translate(-34 -33.996)"><title>Page-1</title><g transform="translate(33.907 -34.016)"><title>Azure Arc PostgreSQL Server Group.14029</title><title>Sheet.14030</title><g transform="translate(.075)"><title>Sheet.14031</title><path d="M53.61 115.83c-.5 2.22-3.24 4.4-8.19 6.1a67.547 68.271 0 0 1-37.95.06c-4.56-1.63-7.02-3.7-7.4-5.83-.07-.37 0-6.22 0-6.22l53.62-.5s-.02 6.12-.08 6.39" style="fill:#5ea0ef;stroke:none;stroke-width:34;stroke-linecap:butt"/></g><g transform="rotate(-.575 -521.93 103.433)"><title>Sheet.14032</title><ellipse cx="26.837" cy="115.331" rx="26.837" ry="9.378" style="fill:#50e6ff;stroke:none;stroke-width:34;stroke-linecap:butt"/></g><g transform="translate(7.964 -9.882)"><title>Sheet.14033</title><path d="M17.46 90.67C7.82 90.67 0 87.92 0 84.29v34.03c0 3.5 7.68 6.33 17.21 6.39h.25c9.65 0 17.46-2.76 17.46-6.39V84.29c0 3.55-7.82 6.38-17.46 6.38" style="fill:url(#a);stroke:none;stroke-width:34;stroke-linecap:butt"/></g><g transform="translate(7.964 -43.918)"><title>Sheet.14034</title><path d="M34.92 118.32c0 3.55-7.82 6.39-17.46 6.39S0 121.97 0 118.32c0-3.64 7.82-6.39 17.46-6.39 9.65 0 17.46 2.76 17.46 6.39" style="fill:#e8e8e8;stroke:none;stroke-width:34;stroke-linecap:butt"/></g><g transform="translate(12.023 -46.752)"><title>Sheet.14035</title><path d="M26.8 120.63c0 2.26-6.02 4.08-13.41 4.08-7.38 0-13.39-1.83-13.39-4.08s6.02-4.05 13.4-4.05c7.39 0 13.4 1.82 13.4 4.06z" style="fill:#50e6ff"/><path d="M26.8 120.63c0 2.26-6.02 4.08-13.41 4.08-7.38 0-13.39-1.83-13.39-4.08s6.02-4.05 13.4-4.05c7.39 0 13.4 1.82 13.4 4.06" style="stroke:none;stroke-width:34;stroke-linecap:butt"/></g><g transform="translate(14.83 -46.749)"><title>Sheet.14036</title><path d="M10.6 121.63A31.463 31.8-180 0 0 0 123.22a31.109 31.442-180 0 0 10.6 1.49 30.305 30.63-180 0 0 10.59-1.58 32.32 32.666-180 0 0-10.59-1.5" style="fill:#198ab3;stroke:none;stroke-width:34;stroke-linecap:butt"/></g><g transform="translate(13.728 -14.557)"><title>Sheet.14037</title><path d="M20.42 106.19v1.15a14.48 14.635-180 0 0-.21 1.74 4.328 4.374-180 0 0 .13 1.26 2.3 2.325 0 0 1 0 .99 4.547 4.596 0 0 1-.68 2.37.973.984-180 0 0 0 .193l.27.327a28.756 29.064-180 0 0 2.89-6.55c.76-2.61.84-4.48.24-5.28a7.022 7.098-180 0 0-7.29-2.37 8.884 8.98 0 0 1 2.47 1.85 6.2 6.266 0 0 1 2.18 4.32m-.84.22a3.13 3.163-180 0 0-2.15.24c-.79.5-.55 1.52 0 2.76a21.57 21.802-180 0 0 .94 2.34l.24.44c.14.21.22.41.31.55l.22.35a3.486 3.523-180 0 0 .49-1.79 7.166 7.243-180 0 0 0-.9 4.146 4.19-180 0 0-.13-1.35 16.42 16.596 0 0 1 .21-1.9 2.172 2.195 0 0 1-.03-.83zm-.82 1.12a1.048 1.06 0 0 1-.49.28.873.882 0 0 1-.382 0 .626.633 0 0 1-.19-.522c.002-.198.312-.358.652-.408h.52s.25 0 .25.21a.545.55 0 0 1-.247.357zM6 110v-.48a2.86 2.89-180 0 0 0-.47 14.652 14.809 0 0 1 0-2.75 13.96 14.11 0 0 1 .82-3.03 6.55 6.62 0 0 1 1.56-2.59 12.924 13.063-180 0 0-3.67-.55 5.07 5.124-180 0 0-2.99.83A5.442 5.5-180 0 0 0 105.97a33.569 33.928-180 0 0 1.36 6.16c.94 3.14 1.99 5.06 2.91 5.38.41.14.85 0 1.28-.58.77-.95 1.48-1.74 1.88-2.21a5.11 5.165 0 0 1-1.33-4.82Zm.71 1.1a5.946 6.01-180 0 0 .16 1.54 4.134 4.178-180 0 0 .71 1.21 2.707 2.736-180 0 0 2.01.91 5.661 5.722 0 0 1 .63-1.65 11.266 11.386-180 0 0 .57-1.62 18.056 18.25-180 0 0 0-3.06 1.565 1.581-180 0 0-.16-.82 1.22 1.234-180 0 0-.34-.77 1.768 1.787-180 0 0-.76-.44h-.54a4.243 4.289-180 0 0-1.31.38 5.417 5.475-180 0 0-.87.53v1.98a2.989 3.02 0 0 1 0 .41v1.07zm1.8-3.7a1.27 1.284 0 0 1 .76 0 1.684 1.702 0 0 1 .52.16c.24 0 .27.32.24.39a1.036 1.047 0 0 1-.31.36.707.715 0 0 1-.163-.11.939.949 0 0 1-.763-.77zm2.01 8.25a.626.633-180 0 0-.354.164l-.376.476c-.47.57-.66.77-1.99 1.04a1.414 1.43-180 0 0-.71.28 1.565 1.581-180 0 0 .66.31 3.22 3.255-180 0 0 1.95 0 4.75 4.801-180 0 0 1.06-.71 1.637 1.654-180 0 0 .55-.85.973.984-180 0 0-.272-.772.407.411-180 0 0-.407-.054zm12.55 0a4.41 4.457 0 0 1-3.07 0 .626.633-180 0 0-.382 0 .823.832-180 0 0-.463.386 3.183 3.217-180 0 0-.005.854 4.922 4.975-180 0 0 3-.27 3.699 3.739-180 0 0 1.3-.95zm-6.54-5.89c-.38-1.13-.94-2.75.49-3.74a3.686 3.726 0 0 1 2.44-.41 8.646 8.74-180 0 0-1.74-3.16l-.28-.28-.17-.17a1.001 1.012-180 0 0-.16-.16 6.396 6.465-180 0 0-1.83-1.16 7.17 7.246-180 0 0-3.02-.6 4.178 4.222-180 0 0-1.9.31 4.732 4.782-180 0 0-.82.32 5.699 5.76-180 0 0-2.02 2.75 16.135 16.308-180 0 0-.58 2.73 4.516 4.564 0 0 1 2.72-.64 2.288 2.312 0 0 1 2.1 2.49v.02a19.336 19.544 0 0 1 0 3.49 10.23 10.34 0 0 1-.62 1.74c-.17.47-.38.95-.49 1.34a1.361 1.376 0 0 1 1.03.39 1.806 1.825 0 0 1 .52 1.46h.06v.66a17.781 17.972-180 0 0 .65 6.71 1.436 1.452-180 0 0 .66.58 1.65 1.667-180 0 0 .84.28 3.552 3.59-180 0 0 2.73-.95 2.86 2.89-180 0 0 .78-1.82c.2-1.24.6-4.67.66-5.5a1.953 1.974 0 0 1 .24-1.21 1.712 1.73 0 0 1 .74-.66 14.592 14.749 0 0 1-2.92-4.97z" style="fill:#f2f2f2;stroke:none;stroke-width:34;stroke-linecap:butt"/></g><g transform="rotate(-40.155 10.086 67.273)"><title>Sheet.14038</title><ellipse cx="8.377" cy="118.566" rx="8.377" ry="6.142" style="fill:#76bc2d;stroke:none;stroke-width:34;stroke-linecap:butt"/></g><g transform="translate(35.687 -12.333)"><title>Sheet.14039</title><path d="M4.11 122.57a2.938 2.97 0 0 1 .12-5.03c3.13-2.27 3.33 1 .82 1.43 0 1.17 3.27 1.04 4.69-1.58 1.59-2.97-3.07-4.84-7.1-.35-2.58 2.88-2.64 6.81-.36 7.67a6.885 6.958-180 0 0 8.83-7.28c-2.19 5.13-5.28 5.87-7 5.14" style="fill:#fff;stroke:none;stroke-width:34;stroke-linecap:butt"/></g></g></g></svg>