<svg xmlns="http://www.w3.org/2000/svg" xml:space="preserve" width="64.688" height="75.586" style="font-size:12px;overflow:visible;color-interpolation-filters:sRGB;fill-rule:evenodd;stroke-linecap:square;stroke-miterlimit:3" viewBox="0 0 48.516 56.69"><defs><linearGradient id="a" x1="-.156" x2="46.325" y1="83.689" y2="83.689" gradientTransform="scale(1.04378 .95805)" gradientUnits="userSpaceOnUse"><stop offset="0" stop-color="#0078d4"/><stop offset=".16" stop-color="#1380da"/><stop offset=".53" stop-color="#3c91e5"/><stop offset=".82" stop-color="#559cec"/><stop offset="1" stop-color="#5ea0ef"/></linearGradient></defs><g transform="translate(-33.999 -34.004)"><title>Page-1</title><g transform="translate(34.162 -34.016)"><title>Azure Lighthouse.13744</title><title>Icon471-AzureLighthouse</title><title>Sheet.13746</title><path d="M48.19 122.21 36.88 92.38a.882.896-180 0 0-.819-.576L28 91.8v-7.11a4.094 4.162-180 1 0-8.16 0v7.11h-7.27a.913.928-180 0 0-.85.576L0 122.21a1.732 1.76-180 0 0 1.42 2.5h45.35a1.732 1.76-180 0 0 1.42-2.5" style="fill:url(#a);stroke:none;stroke-width:34;stroke-linecap:butt"/><g transform="translate(1.417)"><title>Sheet.13747</title><path d="M4.94 105.95 32.13 91.8h2.36a.882.896 0 0 1 .85.608l2.61 6.882L0 118.75Zm19.44 18.69 18.9-11.52 3.43 9.09a1.764 1.793 0 0 1-1.45 2.5z" style="fill:#83b9f9;stroke:none;stroke-width:34;stroke-linecap:butt"/></g><g transform="translate(10.457 -32.908)"><title>Sheet.13748</title><path d="M13.23 100.96.25 108.61a.504.512-180 0 0-.252.448L0 110.24a.504.512-180 0 0 .504.512l1.956-.002v13.96h2.45v-13.96h17.14v13.96h2.42v-13.96h1.99a.504.512-180 0 0 .504-.512l-.004-1.188a.504.512-180 0 0-.252-.448L13.64 100.96a.693.704-180 0 0-.41 0" style="fill:#0078d4;stroke:none;stroke-width:34;stroke-linecap:butt"/></g></g></g></svg>