<svg xmlns="http://www.w3.org/2000/svg" xml:space="preserve" width="71.563" height="75.596" style="font-size:12px;overflow:visible;color-interpolation-filters:sRGB;fill-rule:evenodd;stroke-linecap:square;stroke-miterlimit:3" viewBox="0 0 53.672 56.697"><defs><linearGradient id="a" x1="0" x2="37.575" y1="78.357" y2="78.357" gradientTransform="scale(.92961 1.07572)" gradientUnits="userSpaceOnUse"><stop offset="0" stop-color="#005ba1"/><stop offset=".52" stop-color="#0078d4"/><stop offset="1" stop-color="#005ba1"/></linearGradient></defs><g transform="translate(-34 -33.996)"><title>Page-1</title><g transform="translate(33.907 -34.016)"><title>Azure Arc SQL Server.13975</title><title>Sheet.13976</title><g transform="translate(.075)"><title>Sheet.13977</title><path d="M53.61 115.83c-.5 2.22-3.24 4.4-8.19 6.1a67.547 68.271 0 0 1-37.95.06c-4.56-1.63-7.02-3.7-7.4-5.83-.07-.37 0-6.22 0-6.22l53.62-.5s-.02 6.12-.08 6.39" style="fill:#5ea0ef;stroke:none;stroke-width:34;stroke-linecap:butt"/></g><g transform="rotate(-.575 -521.93 103.433)"><title>Sheet.13978</title><ellipse cx="26.837" cy="115.331" rx="26.837" ry="9.378" style="fill:#50e6ff;stroke:none;stroke-width:34;stroke-linecap:butt"/></g><g transform="translate(9.463 -9.882)"><title>Sheet.13979</title><path d="M17.46 90.67C7.82 90.67 0 87.92 0 84.29v34.03c0 3.5 7.69 6.33 17.21 6.39h.25c9.65 0 17.47-2.76 17.47-6.39V84.29c.01 3.55-7.81 6.38-17.47 6.38" style="fill:url(#a);stroke:none;stroke-width:34;stroke-linecap:butt"/></g><g transform="translate(9.475 -43.918)"><title>Sheet.13980</title><path d="M34.93 118.32c0 3.55-7.83 6.39-17.47 6.39-9.63 0-17.46-2.74-17.46-6.39 0-3.64 7.82-6.39 17.45-6.39s17.46 2.76 17.46 6.39z" style="fill:#e8e8e8"/><path d="M34.93 118.32c0 3.55-7.83 6.39-17.47 6.39-9.63 0-17.46-2.74-17.46-6.39 0-3.64 7.82-6.39 17.45-6.39s17.46 2.76 17.46 6.39" style="stroke:none;stroke-width:34;stroke-linecap:butt"/></g><g transform="translate(13.534 -46.752)"><title>Sheet.13981</title><path d="M26.81 120.63c0 2.26-6.02 4.08-13.4 4.08-7.39 0-13.41-1.83-13.41-4.08s6.02-4.05 13.39-4.05c7.38 0 13.41 1.81 13.41 4.05z" style="fill:#50e6ff"/><path d="M26.81 120.63c0 2.26-6.02 4.08-13.4 4.08-7.39 0-13.41-1.83-13.41-4.08s6.02-4.05 13.39-4.05c7.38 0 13.41 1.81 13.41 4.05" style="stroke:none;stroke-width:34;stroke-linecap:butt"/></g><g transform="translate(16.328 -46.746)"><title>Sheet.13982</title><path d="M10.6 121.63A31.478 31.816-180 0 0 0 123.21a31.128 31.461-180 0 0 10.6 1.5 30.327 30.652-180 0 0 10.6-1.58 32.333 32.679-180 0 0-10.6-1.5" style="fill:#198ab3;stroke:none;stroke-width:34;stroke-linecap:butt"/></g></g></g></svg>