<svg xmlns="http://www.w3.org/2000/svg" xmlns:xlink="http://www.w3.org/1999/xlink" xml:space="preserve" width="75.585" height="71.808" style="font-size:12px;overflow:visible;color-interpolation-filters:sRGB;fill-rule:evenodd;stroke-linecap:square;stroke-miterlimit:3" viewBox="0 0 56.689 53.856"><defs><linearGradient id="a" x1="0" x2="1" y1="0" y2="0" gradientTransform="rotate(90 .5 .5)"><stop offset="0" stop-color="#5ea0ef"/><stop offset="1" stop-color="#0078d4"/></linearGradient><linearGradient xlink:href="#a" id="b" x1="0" x2="22.299" y1="138.607" y2="138.607" gradientTransform="scale(1.34492 .74354)" gradientUnits="userSpaceOnUse"/><linearGradient xlink:href="#a" id="c" x1="0" x2="22.299" y1="138.607" y2="138.607" gradientTransform="scale(1.34492 .74354)" gradientUnits="userSpaceOnUse"/></defs><g transform="translate(-31.765 -31.769)"><title>Page-1</title><g transform="translate(31.765 -34.016)"><title>Azure Monitor Data sources.13678</title><title>g26</title><g transform="translate(7.389 -5.171)"><title>path2</title><path d="M4.58 89.57v-8.05a.894.898 0 0 1 .894-.895l17.246-.005v-4.49H1.79A1.789 1.795-180 0 0 0 77.93v11.75ZM0 105.66v12.18a1.789 1.795-180 0 0 1.79 1.8h20.83v-4.49H5.47a.894.898 0 0 1-.894-.895l.004-8.705Z" style="fill:#5ea0ef;stroke:none;stroke-width:31.76539993;stroke-linecap:butt"/></g><g transform="translate(0 -16.57)"><title>path4</title><path d="M0 100.94v16.84a1.855 1.862-180 0 0 1.86 1.86h16.78a1.852 1.859-180 0 0 1.86-1.84v-16.86a1.855 1.862-180 0 0-1.84-1.87H1.86A1.855 1.862-180 0 0 0 100.93Zm15.81 1.61a1.228 1.233 0 0 1 1.23 1.23v11.17a1.232 1.236 0 0 1-1.23 1.23H4.67a1.232 1.236 0 0 1-1.22-1.23v-11.18a1.232 1.236 0 0 1 1.22-1.23z" style="fill:#83b9f9;stroke:none;stroke-width:31.76539993;stroke-linecap:butt"/></g><g transform="translate(26.7)"><title>path6</title><path d="M28.5 103.06H1.49A1.49 1.495-180 0 0 0 104.55v13.59a1.49 1.495-180 0 0 1.49 1.5H28.5a1.49 1.495-180 0 0 1.49-1.49v-13.59a1.49 1.495-180 0 0-1.49-1.5" style="fill:url(#b);stroke:none;stroke-width:31.76539993;stroke-linecap:butt"/></g><g transform="translate(26.7 -37.276)"><title>path8</title><path d="M28.5 103.06H1.49A1.49 1.495-180 0 0 0 104.55v13.59a1.49 1.495-180 0 0 1.49 1.5H28.5a1.49 1.495-180 0 0 1.49-1.49v-13.6a1.49 1.495-180 0 0-1.49-1.49" style="fill:url(#c);stroke:none;stroke-width:31.76539993;stroke-linecap:butt"/></g><g transform="translate(32.17 -4.251)"><title>rect10</title><path d="M0 119.29a.35.35-180 0 0 .35.35h4.1a.35.35-180 0 0 .35-.35v-3.06a.35.35-180 0 0-.35-.35H.35a.35.35-180 0 0-.35.35z" style="fill:#fff;stroke:none;stroke-width:31.76539993;stroke-linecap:butt"/></g><g transform="translate(39.175 -4.251)"><title>rect12</title><path d="M0 119.22a.416.417-180 0 0 .416.417l3.964.003a.416.417-180 0 0 .416-.417l.004-4.553a.416.417-180 0 0-.416-.417l-3.964.007a.416.417-180 0 0-.416.417z" style="fill:#fff;stroke:none;stroke-width:31.76539993;stroke-linecap:butt"/></g><g transform="translate(46.18 -4.251)"><title>rect14</title><path d="M0 119.13a.507.509-180 0 0 .507.509l3.783.001a.507.509-180 0 0 .507-.509l.003-6.911a.507.509-180 0 0-.507-.509L.51 111.71a.507.509-180 0 0-.507.509z" style="fill:#fff;stroke:none;stroke-width:31.76539993;stroke-linecap:butt"/></g><g transform="translate(36.74 -44.806)"><title>circle16</title><ellipse cx="1.773" cy="117.86" rx="1.773" ry="1.78" style="fill:#fff;stroke:none;stroke-width:31.76539993;stroke-linecap:butt"/></g><g transform="translate(42.935 -40.914)"><title>circle18</title><ellipse cx="1.773" cy="117.86" rx="1.773" ry="1.78" style="fill:#fff;stroke:none;stroke-width:31.76539993;stroke-linecap:butt"/></g><g transform="translate(47.858 -47.67)"><title>circle20</title><ellipse cx="1.773" cy="117.86" rx="1.773" ry="1.78" style="fill:#fff;stroke:none;stroke-width:31.76539993;stroke-linecap:butt"/></g><g transform="translate(31.587 -40.364)"><title>circle22</title><ellipse cx="1.773" cy="117.86" rx="1.773" ry="1.78" style="fill:#fff;stroke:none;stroke-width:31.76539993;stroke-linecap:butt"/></g><g transform="translate(32.513 -41.243)"><title>path24</title><path d="M1.06 119.64 0 118.55l5.87-5.71 6.16 4.34 4.81-6.44 1.21.92-5.69 7.61-6.34-4.47z" style="fill:#fff;stroke:none;stroke-width:31.76539993;stroke-linecap:butt"/></g></g></g></svg>