<svg xmlns="http://www.w3.org/2000/svg" xml:space="preserve" width="64.248" height="75.592" style="font-size:12px;overflow:visible;color-interpolation-filters:sRGB;fill-rule:evenodd;stroke-linecap:square;stroke-miterlimit:3" viewBox="0 0 48.186 56.694"><g transform="translate(-12.24 -12.24)"><title>Page-1</title><g transform="translate(12.24 -34.016)"><title>Azure LightHouse My Request.13837</title><title>g24</title><g transform="translate(0 -8.268)"><title>path4</title><path d="M34.99 102.95H1.72A1.721 1.772 0 0 1 0 101.18V59.84a1.721 1.772 0 0 1 1.72-1.77h33.27a1.721 1.772 0 0 1 1.73 1.77v41.34a1.721 1.772 0 0 1-1.73 1.77" style="fill:#ff8c00;stroke:none;stroke-width:12.23999977;stroke-linecap:butt"/></g><g transform="translate(0 -8.268)"><title>path6</title><path d="M34.99 102.95H1.72A1.721 1.772 0 0 1 0 101.18V59.84a1.721 1.772 0 0 1 1.72-1.77h33.27a1.721 1.772 0 0 1 1.73 1.77v41.34a1.721 1.772 0 0 1-1.73 1.77" style="fill:#000;fill-opacity:.4;stroke:none;stroke-width:12.23999977;stroke-linecap:butt"/></g><g transform="translate(3.442 -11.811)"><title>path8</title><path d="M0 65.153h29.831v37.795H0z" style="fill:#fff;stroke:none;stroke-width:12.23999977;stroke-linecap:butt"/></g><g transform="translate(9.179 -47.244)"><title>path10</title><path d="M18.36 102.95H0v-5.67a3.672 3.78 0 0 1 3.67-3.78h11.02a3.672 3.78 0 0 1 3.67 3.78z" style="fill:#a0a1a2;stroke:none;stroke-width:12.23999977;stroke-linecap:butt"/></g><g transform="translate(9.179 -47.244)"><title>path12</title><path d="M9.18 93.5H3.67A3.672 3.78-180 0 0 0 97.28v5.67h9.18z" style="fill:#fff;fill-opacity:.2;stroke:none;stroke-width:12.23999977;stroke-linecap:butt"/></g><g transform="translate(16.063 -18.898)"><title>path14</title><path d="M0 81.69h12.62v2.36H0Zm0 9.45h12.62v2.36H0Zm0 9.45h12.62v2.36H0Z" style="fill:#59b4d9;stroke:none;stroke-width:12.23999977;stroke-linecap:butt"/></g><g transform="translate(26.39 -8.268)"><title>path16</title><path d="M5.74 93.5H0v9.45h8.61a1.721 1.772-180 0 0 1.72-1.77V90.9c-2.56-.55-4.48-2.88-4.48-5.67s1.92-5.12 4.48-5.66v-2.39c-3.83.57-6.77 3.96-6.77 8.05 0 2.33.95 4.42 2.47 5.91h-.29Z" style="fill:#fff;fill-opacity:.4;stroke:none;stroke-width:12.23999977;stroke-linecap:butt"/></g><g transform="translate(27.537)"><title>path18</title><path d="M17.1 76.96a6.77 6.97 0 1 1-13.54 0 6.77 6.97 0 0 1 13.54 0m-2.55 9.45-4.22 6.71-4.23-6.71H0v16.54h20.65V86.41Z" style="fill:#3999c6;stroke:none;stroke-width:12.23999977;stroke-linecap:butt"/></g><g transform="translate(6.884 -16.535)"><title>path20</title><path d="M0 78.15h5.74v5.9H0Zm0 9.44h5.74v5.91H0Zm0 9.45h5.74v5.91H0Z" style="fill:#59b4d9;stroke:none;stroke-width:12.23999977;stroke-linecap:butt"/></g><g transform="translate(8.318 -18.012)"><title>path22</title><path d="M0 81.1h2.87v2.95H0Zm0 9.45h2.87v2.95H0ZM0 100h2.87v2.95H0Z" style="fill:#fff;stroke:none;stroke-width:12.23999977;stroke-linecap:butt"/></g></g></g></svg>