<svg xmlns="http://www.w3.org/2000/svg" xml:space="preserve" width="76.478" height="76.498" style="font-size:12px;overflow:visible;color-interpolation-filters:sRGB;fill-rule:evenodd;stroke-linecap:square;stroke-miterlimit:3" viewBox="0 0 57.358 57.373"><defs><linearGradient id="a" x1="0" x2="45.915" y1="79.359" y2="79.359" gradientTransform="scale(.99924 1.00076)" gradientUnits="userSpaceOnUse"><stop offset="0" stop-color="#005ba1"/><stop offset="1" stop-color="#0078d4"/></linearGradient></defs><g transform="translate(-34.006 -34)"><title>Page-1</title><g transform="translate(34.325 -34.334)"><title>Azure Monitor Workspace.13637</title><title>Sheet.13638</title><title>Sheet.13639</title><path d="M35.33 125.31 2.6 110.56a4.99 4.995 0 0 1-2.49-6.57l14.73-32.66a4.99 4.995 0 0 1 6.57-2.58l.17.08 32.47 14.74a4.99 4.995 0 0 1 2.57 6.58l-.08.17-14.73 32.49a4.994 4.998 0 0 1-6.48 2.5" style="fill:#50e6ff;stroke:none;stroke-width:34;stroke-linecap:butt"/><g transform="translate(5.299 -5.323)"><title>Sheet.13640</title><path d="M40.89 125.37H4.99A5.024 5.029 0 0 1 0 120.38V84.41a5.018 5.022 0 0 1 4.99-4.99h35.9a4.99 4.995 0 0 1 4.99 4.99v35.97a4.99 4.995 0 0 1-4.99 4.99" style="fill:url(#a);stroke:none;stroke-width:34;stroke-linecap:butt"/></g><g transform="translate(8.866 -18.156)"><title>Sheet.13641</title><path d="M19.37 101.67c11.67 0 18.8 8.69 19.37 20.55a3.007 3.009 0 0 1-2.84 3.15H3.01a3.003 3.006 0 0 1-3.01-3v-.16c.59-11.84 7.72-20.54 19.37-20.54" style="fill:#50e6ff;stroke:none;stroke-width:34;stroke-linecap:butt"/></g><g transform="translate(10.87 -20.132)"><title>Sheet.13642</title><path d="M1 125.35a.992.993 0 0 1-.725-.3A1 1 0 0 1 0 124.3c.56-11.35 8.38-18.63 17.37-18.63s16.83 7.3 17.37 18.64a1.01 1.01 0 0 1-.96 1.06h-.04z" style="fill:#fff;stroke:none;stroke-width:34;stroke-linecap:butt"/></g><g transform="translate(18.847 -28.96)"><title>Sheet.13643</title><path d="M18.79 120.75a14.065 14.076-180 0 0-8.41-3.59v6.54a7.835 7.842 0 0 1 3.9 1.67zm-18.79 0 4.5 4.62a7.835 7.842 0 0 1 3.9-1.67v-6.54a14.065 14.076-180 0 0-8.4 3.59" style="fill:#32bedd;stroke:none;stroke-width:34;stroke-linecap:butt"/></g><g transform="translate(34.551 -23.492)"><title>Sheet.13644</title><path d="M0 121.35a8.288 8.294 0 0 1 1.63 4.02h6.35a14.908 14.92-180 0 0-3.48-8.64Z" style="fill:#50e6ff;stroke:none;stroke-width:34;stroke-linecap:butt"/></g><g transform="translate(13.94 -23.492)"><title>Sheet.13645</title><path d="m7.98 121.35-4.5-4.62A14.911 14.924-180 0 0 0 125.37h6.37a8.301 8.308 0 0 1 1.61-4.02" style="fill:#32bedd;stroke:none;stroke-width:34;stroke-linecap:butt"/></g><g transform="translate(29.28 -23.904)"><title>Sheet.13646</title><path d="M10.65 120.34a1.01 1.01-180 0 0-1.3-.57L0 123.5l.73 1.87 9.36-3.74a1.01 1.01-180 0 0 .56-1.29" style="fill:#0078d4;stroke:none;stroke-width:34;stroke-linecap:butt"/></g><g transform="translate(25.508 -21.689)"><title>Sheet.13647</title><ellipse cx="2.73" cy="122.638" rx="2.73" ry="2.732" style="fill:#b3b3b3;stroke:none;stroke-width:34;stroke-linecap:butt"/></g></g></g></svg>