<svg xmlns="http://www.w3.org/2000/svg" xml:space="preserve" width="75.59" height="60.466" style="font-size:12px;overflow:visible;color-interpolation-filters:sRGB;fill-rule:evenodd;stroke-linecap:square;stroke-miterlimit:3" viewBox="0 0 56.692 45.35"><g transform="translate(-9.563 -9.564)"><title>Page-1</title><g transform="translate(9.563 -34.016)"><title>Azure CLI.13903</title><title>Sheet.13904</title><title>Sheet.13905</title><path d="M56.69 47.21v41.72H0V47.21a3.543 3.628 0 0 1 3.54-3.63h49.61a3.543 3.628 0 0 1 3.54 3.63" style="fill:#80bceb;stroke:none;stroke-width:9.5625;stroke-linecap:butt"/><g transform="translate(3.543 -39.005)"><title>Sheet.13906</title><ellipse cx="1.772" cy="87.118" rx="1.772" ry="1.814" style="fill:#414042;stroke:none;stroke-width:9.5625;stroke-linecap:butt"/></g><g transform="translate(8.858 -39.005)"><title>Sheet.13907</title><ellipse cx="1.772" cy="87.118" rx="1.772" ry="1.814" style="fill:#414042;stroke:none;stroke-width:9.5625;stroke-linecap:butt"/></g><g transform="translate(14.173 -39.005)"><title>Sheet.13908</title><ellipse cx="1.772" cy="87.118" rx="1.772" ry="1.814" style="fill:#414042;stroke:none;stroke-width:9.5625;stroke-linecap:butt"/></g><g transform="translate(18.602 -6.35)"><title>Sheet.13909</title><path d="M38.09 53.56v35.37l-3.54-3.63-1.77-22.67-21.26-.91L0 49.93h34.55a3.543 3.628 0 0 1 3.54 3.63" style="fill:#aad2f2;stroke:none;stroke-width:9.5625;stroke-linecap:butt"/></g><g transform="translate(2.657 -2.721)"><title>Sheet.13910</title><path d="M0 54.463h51.378v34.469H0z" style="fill:#231f20;stroke:none;stroke-width:9.5625;stroke-linecap:butt"/></g><g transform="translate(6.121 -23.693)"><title>Sheet.13911</title><path d="M2.81 87.18v1.25h-.7v-1.2a3.81 3.9 0 0 1-2.03-.5v-1.32a2.808 2.875-180 0 0 .93.51 3.384 3.465-180 0 0 1.1.21V83.6a4.721 4.835 0 0 1-1.72-1.16A1.975 2.023 0 0 1 0 81.19a2.002 2.05 0 0 1 .59-1.48 2.516 2.576 0 0 1 1.52-.76v-1.03h.69v1.02a3.543 3.628 0 0 1 1.63.32v1.24a2.861 2.93-180 0 0-1.62-.53v2.72a5.023 5.143 0 0 1 1.7 1.1 1.913 1.96 0 0 1-.12 2.67 2.773 2.84 0 0 1-1.58.72m-.69-4.86v-2.3a1.187 1.216-180 0 0-.68.38.966.989-180 0 0-.248.69 1.08 1.107-180 0 0 .208.69 2.17 2.222-180 0 0 .71.54Zm.69 1.6v2.21c.64-.14.95-.48.95-1.02 0-.53-.31-.93-.95-1.19m7.55 5.01H5.58v-.68h4.78z" style="fill:#fff;stroke:none;stroke-width:9.5625;stroke-linecap:butt"/></g><g transform="translate(26.575 -9.07)"><title>Sheet.13912</title><path d="M27.46 60.81v28.12L0 60.81Z" style="fill:#414042;stroke:none;stroke-width:9.5625;stroke-linecap:butt"/></g></g></g></svg>