<svg xmlns="http://www.w3.org/2000/svg" xml:space="preserve" width="75.623" height="75.593" style="font-size:12px;overflow:visible;color-interpolation-filters:sRGB;fill-rule:evenodd;stroke-linecap:square;stroke-miterlimit:3" viewBox="0 0 56.717 56.695"><defs><linearGradient id="a" x1="-.019" x2="33.82" y1="82.716" y2="82.716" gradientTransform="scale(1.20933 .8269)" gradientUnits="userSpaceOnUse"><stop offset=".1" stop-color="#54aef0"/><stop offset="1" stop-color="#1988d9"/></linearGradient><linearGradient id="b" x1="0" x2="26.19" y1="71.368" y2="71.368" gradientTransform="scale(1.01225 .9879)" gradientUnits="userSpaceOnUse"><stop offset=".1" stop-color="#54aef0"/><stop offset="1" stop-color="#1988d9"/></linearGradient><linearGradient id="c" x1="-.001" x2="25.018" y1="72.487" y2="72.487" gradientTransform="scale(1.01168 .98846)" gradientUnits="userSpaceOnUse"><stop offset="0" stop-color="#76bc2d"/><stop offset=".6" stop-color="#81ce31"/><stop offset=".82" stop-color="#86d633"/></linearGradient></defs><g transform="translate(-5.646 -5.67)"><title>Page-1</title><g transform="translate(5.67 -34.016)"><title>Azure-Lighthouse-Service-Provider</title><g transform="translate(0 -5.898)"><title>path23</title><path d="M29.73 77.73a1.657 1.617 0 0 1 1.65-1.61h9.52a21.215 20.705-180 0 0-17.25-7.71C9.1 68.41 1.46 77.32 0 91.88a4.191 4.09-180 0 0 3.77 4.5h25.99z" style="fill:url(#a);stroke:none;stroke-width:2.52453995;stroke-linecap:butt"/></g><g transform="translate(16.472 -14.744)"><title>path25</title><path d="M7.18 80.33A13.288 12.968 0 0 1 0 78.27l7.12 18.11 7.05-18.01a12.996 12.683 0 0 1-6.99 1.96" style="fill:#fff;fill-opacity:.8;stroke:none;stroke-width:2.52453995;stroke-linecap:butt"/></g><g transform="translate(10.396 -30.82)"><title>circle27</title><ellipse cx="13.255" cy="83.441" rx="13.255" ry="12.937" style="fill:url(#b);stroke:none;stroke-width:2.52453995;stroke-linecap:butt"/></g><g transform="translate(31.384)"><title>path29</title><path d="M8.87 88.96h7.6v7.42h-7.6ZM0 79.07h7.6v-7.42H1.1a1.072 1.046-180 0 0-1.07 1.04zm1.07 17.31h6.5v-7.42H0v6.34a1.072 1.046-180 0 0 1.07 1.08M0 87.72h7.6v-7.35H0Zm17.71 8.66h6.49a1.04 1.015-180 0 0 1.04-1.05v-6.34h-7.53Zm-8.84-8.66h7.6v-7.35h-7.6zm8.84 0h7.6v-7.35h-7.6zm0-16.07v7.42h7.6v-6.35a1.04 1.015-180 0 0-1.04-1.04zm-8.84 7.42h7.6v-7.42h-7.6z" style="fill:url(#c);stroke:none;stroke-width:2.52453995;stroke-linecap:butt"/></g></g></g></svg>