<svg xmlns="http://www.w3.org/2000/svg" xml:space="preserve" width="68.057" height="75.594" style="font-size:12px;overflow:visible;color-interpolation-filters:sRGB;fill-rule:evenodd;stroke-linecap:square;stroke-miterlimit:3" viewBox="0 0 51.043 56.695"><defs><linearGradient id="a" x1="-.024" x2="53.771" y1="64.535" y2="64.535" gradientTransform="scale(.94884 1.05392)" gradientUnits="userSpaceOnUse"><stop offset="0" stop-color="#32d4f5"/><stop offset=".21" stop-color="#30cff0"/><stop offset=".465" stop-color="#2bc0e3"/><stop offset=".75" stop-color="#23a7cd"/><stop offset="1" stop-color="#198ab3"/></linearGradient></defs><g transform="translate(-34 -34)"><title>Page-1</title><g transform="translate(34.023 -34.016)"><title>Azure LightHouse My Permission.13849</title><title>g6</title><title>path2</title><path d="M50.99 119.59c-1.46-11.79-7.18-21.77-17.74-25.01a14.297 14.428-180 1 0-15.64-.12C6.97 97.34 1.3 106.38 0 119.63a4.565 4.607-180 0 0 4.06 5.04 4.459 4.5-180 0 0 .47.04h41.94a4.54 4.581-180 0 0 4.55-4.56 4.596 4.638-180 0 0-.03-.56" style="fill:url(#a);stroke:none;stroke-width:34;stroke-linecap:butt"/><g transform="translate(17.79 -9.897)"><title>path4</title><path d="M7.75 106.78a14.24 14.371 0 0 1-7.75-2.3l7.67 20.23 7.62-20.09a14.234 14.365 0 0 1-7.54 2.16" style="fill:#fff;fill-opacity:.8;stroke:none;stroke-width:34;stroke-linecap:butt"/></g></g></g></svg>