<svg xmlns="http://www.w3.org/2000/svg" xml:space="preserve" width="71.563" height="75.587" style="font-size:12px;overflow:visible;color-interpolation-filters:sRGB;fill-rule:evenodd;stroke-linecap:square;stroke-miterlimit:3" viewBox="0 0 53.672 56.69"><defs><linearGradient id="a" x1="0" x2="37.553" y1="78.282" y2="78.282" gradientTransform="scale(.92883 1.07662)" gradientUnits="userSpaceOnUse"><stop offset="0" stop-color="#005ba1"/><stop offset=".07" stop-color="#0060a9"/><stop offset=".36" stop-color="#0071c8"/><stop offset=".52" stop-color="#0078d4"/><stop offset=".64" stop-color="#0074cd"/><stop offset=".82" stop-color="#006abb"/><stop offset="1" stop-color="#005ba1"/></linearGradient></defs><g transform="translate(-34 -34.002)"><title>Page-1</title><g transform="translate(33.907 -34.016)"><title>Azure Arc Data Controller.14061</title><title>Data_controller</title><g transform="translate(.073)"><title>Sheet.14063</title><path d="M53.61 115.82c-.5 2.22-3.24 4.41-8.19 6.11a67.547 68.363 0 0 1-37.95.05c-4.56-1.62-7.02-3.7-7.4-5.82-.07-.38 0-6.23 0-6.23l53.62-.51s-.02 6.13-.08 6.4" style="fill:#5ea0ef;stroke:none;stroke-width:34;stroke-linecap:butt"/></g><g transform="rotate(-.575 -522.664 103.417)"><title>Sheet.14064</title><ellipse cx="26.837" cy="115.318" rx="26.837" ry="9.391" style="fill:#50e6ff;stroke:none;stroke-width:34;stroke-linecap:butt"/></g><g transform="translate(9.49 -9.895)"><title>Sheet.14065</title><path d="M17.44 90.67C7.81 90.67 0 87.92 0 84.28v34.04c0 3.48 7.67 6.33 17.21 6.39h.23c9.63 0 17.44-2.76 17.44-6.39V84.28c0 3.56-7.81 6.39-17.44 6.39" style="fill:url(#a);stroke:none;stroke-width:34;stroke-linecap:butt"/></g><g transform="translate(9.49 -43.932)"><title>Sheet.14066</title><path d="M34.88 118.32c0 3.55-7.82 6.39-17.44 6.39S0 121.96 0 118.32s7.81-6.37 17.44-6.37 17.44 2.75 17.44 6.39z" style="fill:#e8e8e8"/><path d="M34.88 118.32c0 3.55-7.82 6.39-17.44 6.39S0 121.96 0 118.32s7.81-6.37 17.44-6.37 17.44 2.75 17.44 6.39" style="stroke:none;stroke-width:34;stroke-linecap:butt"/></g><g transform="translate(13.542 -46.767)"><title>Sheet.14067</title><path d="M26.77 120.63c0 2.26-6.01 4.08-13.38 4.08-7.38 0-13.39-1.82-13.39-4.08s6.01-4.05 13.39-4.05c7.37 0 13.38 1.82 13.38 4.05" style="fill:#50e6ff;stroke:none;stroke-width:34;stroke-linecap:butt"/></g><g transform="translate(16.346 -46.767)"><title>Sheet.14068</title><path d="M10.58 121.65A31.394 31.773-180 0 0 0 123.22a31.043 31.418-180 0 0 10.58 1.49 30.39 30.756-180 0 0 10.59-1.58 32.167 32.555-180 0 0-10.59-1.48" style="fill:#198ab3;stroke:none;stroke-width:34;stroke-linecap:butt"/></g><g transform="translate(17.413 -17.268)"><title>Sheet.14069</title><path d="M19.03 116.03v-2.18h-.32l-2.31-.76-.6-1.49 1.16-2.54-1.5-1.52-.31.16-2.38.98-1.5-.6-.94-2.66H8.29v.32l-.75 2.34-1.47.6-2.69-1.2-1.5 1.55.15.29 1.35 2.18-.63 1.49L0 114.13v2.15h.28l2.32.76.59 1.49-1.16 2.54 1.51 1.52h.31l2.16-1.11 1.47.6.94 2.63h2.16v-.29l.75-2.34 1.47-.6 2.5 1.17 1.5-1.52-.15-.32-1.1-2.18.6-1.49zm-9.39 3.17a4.162 4.212 0 1 1 4.13-4.25v.04a4.137 4.187 0 0 1-4.1 4.21h-.22Z" style="fill:#fff;stroke:none;stroke-width:34;stroke-linecap:butt"/></g></g></g></svg>