<svg xmlns="http://www.w3.org/2000/svg" xmlns:xlink="http://www.w3.org/1999/xlink" xml:space="preserve" width="75.587" height="56.704" style="font-size:12px;overflow:visible;color-interpolation-filters:sRGB;fill-rule:evenodd;stroke-linecap:square;stroke-miterlimit:3" viewBox="0 0 56.69 42.528"><defs><linearGradient id="a" x1="0" x2="1" y1="0" y2="0" gradientTransform="rotate(-180 .5 .5)"><stop offset="0" stop-color="#32bedd"/><stop offset="1" stop-color="#9cebff"/></linearGradient><linearGradient id="d" x1="0" x2="18.183" y1="50.089" y2="50.089" gradientTransform="scale(.61762 1.61912)" gradientUnits="userSpaceOnUse"><stop offset="0" stop-color="#005ba1"/><stop offset="1" stop-color="#005ba1"/></linearGradient><linearGradient id="e" x1=".035" x2="27.081" y1="112.984" y2="112.984" gradientTransform="scale(1.26678 .7894)" gradientUnits="userSpaceOnUse"><stop offset="0" stop-color="#005ba1"/><stop offset=".975" stop-color="#32bedd"/></linearGradient><linearGradient xlink:href="#a" id="b" x1="0" x2="18.183" y1="50.089" y2="50.089" gradientTransform="scale(.61762 1.61912)" gradientUnits="userSpaceOnUse"/><linearGradient xlink:href="#a" id="c" x1="0" x2="18.183" y1="50.089" y2="50.089" gradientTransform="scale(.61762 1.61912)" gradientUnits="userSpaceOnUse"/></defs><g transform="translate(-34 -33.996)"><title>Page-1</title><g transform="translate(34 -34.016)"><title>Azure Arc Service.13992</title><title>Sheet.13993</title><g transform="translate(0 -29.438)"><title>Sheet.13994</title><path d="m22.46 104-11.23 6.54L0 103.99l11.23-6.54Z" style="fill:#5ea0ef;stroke:none;stroke-width:34;stroke-linecap:butt"/></g><g transform="translate(11.232 -.022)"><title>Sheet.13995</title><path d="M11.23 104 0 97.5v13.04z" style="fill:#005ba1;stroke:none;stroke-width:34;stroke-linecap:butt"/></g><title>Sheet.13996</title><path d="M11.23 81.1v-.01zL0 74.56V104l11.23 6.54L22.46 104v-.03l-11.23 6.54V97.48l11.23 6.49V74.56Z" style="fill:#0078d4;stroke:none;stroke-width:34;stroke-linecap:butt"/><g transform="translate(34.23 -29.438)"><title>Sheet.13997</title><path d="m0 104 11.23 6.54 11.23-6.55-11.23-6.54z" style="fill:#9cebff;stroke:none;stroke-width:34;stroke-linecap:butt"/></g><g transform="translate(34.23 -.022)"><title>Sheet.13998</title><path d="m0 104 11.23-6.5v13.04z" style="fill:#32bedd;stroke:none;stroke-width:34;stroke-linecap:butt"/></g><g transform="translate(34.23 -6.561)"><title>Sheet.13999</title><path d="M11.23 87.64v16.38L0 110.54V81.1Z" style="fill:url(#b);stroke:none;stroke-width:34;stroke-linecap:butt"/></g><g transform="translate(34.23 -29.438)"><title>Sheet.14000</title><path d="m0 104 11.23 6.54 11.23-6.55-11.23-6.54z" style="fill:#9cebff;stroke:none;stroke-width:34;stroke-linecap:butt"/></g><g transform="translate(34.23)"><title>Sheet.14001</title><path d="M11.23 81.1 0 74.56v29.41l11.23-6.49v13.03L0 103.97v.03l11.23 6.54L22.46 104V74.56Z" style="fill:#50e6ff;stroke:none;stroke-width:34;stroke-linecap:butt"/></g><g transform="translate(34.23 -.022)"><title>Sheet.14002</title><path d="m0 104 11.23-6.5v13.04z" style="fill:#32bedd;stroke:none;stroke-width:34;stroke-linecap:butt"/></g><g transform="translate(34.23 -6.561)"><title>Sheet.14003</title><path d="M11.23 87.64v16.38L0 110.54V81.1Z" style="fill:url(#c);stroke:none;stroke-width:34;stroke-linecap:butt"/></g><g transform="translate(11.232 -6.54)"><title>Sheet.14004</title><path d="M0 87.63v16.39l11.23 6.52V81.1Z" style="fill:url(#d);stroke:none;stroke-width:34;stroke-linecap:butt"/></g><g transform="translate(11.153 -9.98)"><title>Sheet.14005</title><path d="M34.27 102.38c-1.96 4.91-9.65 8.16-16.84 8.16h-.51c-7.18 0-14.88-3.25-16.84-8.16 0 0-.08-4.92 0-5.4 1.43 5.48 8.92 9.53 16.67 9.53h.85c7.74 0 15.24-4.05 16.67-9.53.08.48 0 5.4 0 5.4m-3.22-13.19a20.954 20.987 0 0 1-13.45 4.65h-.85A20.964 20.996 0 0 1 3.31 89.2l-2.7 1.58c2.58 4.3 9.65 7.07 16.31 7.07h.51c6.66 0 13.75-2.78 16.32-7.1z" style="fill:url(#e);stroke:none;stroke-width:34;stroke-linecap:butt"/></g></g></g></svg>