<svg xmlns="http://www.w3.org/2000/svg" xml:space="preserve" width="75.59" height="75.59" style="font-size:12px;overflow:visible;color-interpolation-filters:sRGB;fill-rule:evenodd;stroke-linecap:square;stroke-miterlimit:3" viewBox="0 0 56.693 56.693"><defs><radialGradient id="b" cx="0" cy="116.471" r="11.225" fx="0" fy="116.471" gradientTransform="scale(.99823 1.00177)" gradientUnits="userSpaceOnUse"><stop offset=".19" stop-color="#8c8e90"/><stop offset=".35" stop-color="#848688"/><stop offset=".6" stop-color="#6e7071"/><stop offset=".91" stop-color="#4a4b4c"/><stop offset="1" stop-color="#3e3f3f"/></radialGradient><linearGradient id="a" x1="0" x2="56.693" y1="68.016" y2="68.016" gradientUnits="userSpaceOnUse"><stop offset=".18" stop-color="#5ea0ef"/><stop offset=".56" stop-color="#5c9fee"/><stop offset=".69" stop-color="#559ced"/><stop offset=".78" stop-color="#4a97e9"/><stop offset=".86" stop-color="#3990e4"/><stop offset=".93" stop-color="#2387de"/><stop offset=".99" stop-color="#087bd6"/><stop offset="1" stop-color="#0078d4"/></linearGradient></defs><g transform="translate(-34 -34)"><title>Page-1</title><g transform="translate(34 -34.016)"><title>Azure Monitor.13628</title><title>g16</title><title>ellipse2</title><circle cx="28.346" cy="96.362" r="28.346" style="fill:url(#a);stroke:none;stroke-width:34;stroke-linecap:butt"/><g transform="translate(3.668 -3.681)"><title>ellipse4</title><ellipse cx="24.678" cy="100.044" rx="24.678" ry="24.665" style="fill:#fff;stroke:none;stroke-width:34;stroke-linecap:butt"/></g><g transform="translate(7.403 -13.487)"><title>path6</title><path d="M0 111.32a20.81 20.883-180 0 0 6.07 13.39l6.67-6.69a11.772 11.814 0 0 1-3.34-6.7z" style="fill:#9cebff;stroke:none;stroke-width:34;stroke-linecap:butt"/></g><g transform="translate(14.573 -29.819)"><title>path8</title><path d="M27.55 110.35a20.843 20.917-180 0 0-12.31-5.12v9.34a11.372 11.412 0 0 1 5.7 2.34zm-27.55 0 6.67 6.69a11.372 11.412 0 0 1 5.7-2.34v-9.47A20.843 20.917-180 0 0 0 110.35m23.04 8.64a12.006 12.048 0 0 1 2.37 5.72h9.31a20.543 20.616-180 0 0-5.11-12.28z" style="fill:#32bedd;stroke:none;stroke-width:34;stroke-linecap:butt"/></g><g transform="translate(7.403 -29.819)"><title>path10</title><path d="M11.67 118.99 5 112.29a20.543 20.616-180 0 0-5 12.42h9.3a12.006 12.048 0 0 1 2.37-5.72" style="fill:#50e6ff;stroke:none;stroke-width:34;stroke-linecap:butt"/></g><g transform="translate(29.847 -27.61)"><title>path12</title><path d="M15.64 117.28a1.5 1.506-180 0 0-1.9-.84L0 122l1.07 2.71 13.74-5.46a1.467 1.473-180 0 0 .83-1.97" style="fill:#f04049;stroke:none;stroke-width:34;stroke-linecap:butt"/></g><g transform="translate(24.345 -24.33)"><title>ellipse14</title><ellipse cx="4.002" cy="120.693" rx="4.002" ry="4.016" style="fill:url(#b);stroke:none;stroke-width:34;stroke-linecap:butt"/></g></g></g></svg>