<svg xmlns="http://www.w3.org/2000/svg" xmlns:xlink="http://www.w3.org/1999/xlink" xml:space="preserve" width="75.336" height="75.584" style="font-size:12px;overflow:visible;color-interpolation-filters:sRGB;fill-rule:evenodd;stroke-linecap:square;stroke-miterlimit:3" viewBox="0 0 56.502 56.688"><defs><linearGradient id="a" x1="0" x2="1" y1="0" y2="0"><stop offset="0" stop-color="#b77af4"/><stop offset="1" stop-color="#773adc"/></linearGradient><linearGradient xlink:href="#a" id="b" x1="0" x2="14.475" y1="118.458" y2="118.458" gradientTransform="scale(1.06594 .93814)" gradientUnits="userSpaceOnUse"/><linearGradient xlink:href="#a" id="c" x1="0" x2="14.461" y1="118.343" y2="118.343" gradientTransform="scale(1.0649 .93905)" gradientUnits="userSpaceOnUse"/><linearGradient xlink:href="#a" id="d" x1="0" x2="14.475" y1="118.458" y2="118.458" gradientTransform="scale(1.06594 .93814)" gradientUnits="userSpaceOnUse"/><linearGradient xlink:href="#a" id="e" x1="0" x2="14.477" y1="118.18" y2="118.18" gradientTransform="scale(1.06373 .94009)" gradientUnits="userSpaceOnUse"/><linearGradient xlink:href="#a" id="f" x1="0" x2="14.475" y1="118.458" y2="118.458" gradientTransform="scale(1.06594 .93814)" gradientUnits="userSpaceOnUse"/><linearGradient xlink:href="#a" id="g" x1="0" x2="14.475" y1="118.458" y2="118.458" gradientTransform="scale(1.06594 .93814)" gradientUnits="userSpaceOnUse"/><linearGradient xlink:href="#a" id="h" x1="0" x2="14.475" y1="118.458" y2="118.458" gradientTransform="scale(1.06594 .93814)" gradientUnits="userSpaceOnUse"/></defs><g transform="translate(-34 -34.002)"><title>Page-1</title><g transform="translate(33.902 -34.016)"><title>Azure Arc Kubernetes.14047</title><title>Sheet.14048</title><g transform="translate(.08)"><title>Sheet.14049</title><path d="M56.42 115.46c-.52 2.31-3.41 4.59-8.62 6.36a71.128 71.181 0 0 1-39.93.05c-4.8-1.7-7.39-3.85-7.8-6.07-.07-.39 0-6.48 0-6.48l56.45-.52s-.03 6.38-.1 6.66" style="fill:#5ea0ef;stroke:none;stroke-width:34;stroke-linecap:butt"/></g><g transform="rotate(-.575 -543.819 102.441)"><title>Sheet.14050</title><ellipse cx="28.25" cy="114.935" rx="28.25" ry="9.773" style="fill:#50e6ff;stroke:none;stroke-width:34;stroke-linecap:butt"/></g><g transform="translate(12.213 -43.112)"><title>Sheet.14051</title><path d="M7.7 111.13 0 112.55v10.51l7.7 1.65 7.73-3.1v-7.84z" style="fill:url(#b);stroke:none;stroke-width:34;stroke-linecap:butt"/></g><g transform="translate(12.374 -43.249)"><title>Sheet.14052</title><path d="m7.84 124.68 7.05-2.84a.544.545-180 0 0 .315-.378l-.005-7.122a.57.57-180 0 0-.34-.485l-7.13-2.425h-.32l-7 1.28a.535.535-180 0 0-.406.485L0 122.71a.516.517-180 0 0 .406.513L7.49 124.7a.821.822-180 0 0 .35-.022z" style="fill:none;stroke:none;stroke-width:34;stroke-linecap:butt"/></g><g transform="translate(28.881 -42.976)"><title>Sheet.14053</title><path d="M7.7 111.13 0 112.55v10.51l7.7 1.65 7.7-3.13v-7.81z" style="fill:url(#c);stroke:none;stroke-width:34;stroke-linecap:butt"/></g><g transform="translate(4.323 -28.614)"><title>Sheet.14054</title><path d="M7.7 111.13 0 112.55v10.51l7.7 1.65 7.73-3.1v-7.84z" style="fill:url(#d);stroke:none;stroke-width:34;stroke-linecap:butt"/></g><g transform="translate(20.937 -28.696)"><title>Sheet.14055</title><path d="M7.7 111.1 0 112.53v10.51l7.7 1.67 7.7-3.13v-7.84z" style="fill:url(#e);stroke:none;stroke-width:34;stroke-linecap:butt"/></g><g transform="translate(37.549 -28.589)"><title>Sheet.14056</title><path d="M7.7 111.13 0 112.56v10.5l7.7 1.65 7.73-3.1v-7.84z" style="fill:url(#f);stroke:none;stroke-width:34;stroke-linecap:butt"/></g><g transform="translate(12.024 -13.956)"><title>Sheet.14057</title><path d="m7.7 111.13-7.7 1.4v10.51l7.7 1.67 7.73-3.13v-7.81z" style="fill:url(#g);stroke:none;stroke-width:34;stroke-linecap:butt"/></g><g transform="translate(12.175 -14.145)"><title>Sheet.14058</title><path d="m7.85 124.68 7.02-2.69a.49.49-180 0 0 .315-.485l.005-7.015a.538.539-180 0 0-.352-.592L7.73 111.48a.478.479-180 0 0-.315 0L.43 112.74a.51.51-180 0 0-.431.513L0 122.79a.51.51-180 0 0 .403.513l7.077 1.377a.6.6-180 0 0 .362 0z" style="fill:none;stroke:none;stroke-width:34;stroke-linecap:butt"/></g><g transform="translate(28.664 -13.849)"><title>Sheet.14059</title><path d="M7.7 111.13 0 112.55v10.51l7.7 1.65 7.73-3.1v-7.84z" style="fill:url(#h);stroke:none;stroke-width:34;stroke-linecap:butt"/></g><g transform="translate(4.298 -13.849)"><title>Sheet.14060</title><path d="M7.92 83.29V93.8l7.78 1.65V81.97Zm3.28 9.7-2.18-.43v-8.08l2.18-.35zm3.4.62-2.51-.4v-9.24l2.51-.44zm9.98-10.18v10.51l7.73 1.64V82.11Zm3.26 9.7-2.18-.43v-8.09l2.18-.35zm3.39.63-2.51-.41V84.1l2.51-.46zM0 97.8v10.42l7.78 1.64V96.39Zm3.27 9.72-2.2-.46v-8.08l2.18-.38Zm3.42.7-2.52-.41v-9.35l2.52-.43zm9.95-10.54v10.54l7.75 1.64V96.39Zm3.26 9.73-2.18-.46v-8.08l2.18-.38zm3.39.59-2.52-.4v-9.24l2.52-.44zm9.96-10.18v10.39l7.79 1.65V96.39Zm3.29 9.72-2.18-.45V99l2.18-.38zm3.39.6-2.5-.41v-9.24l2.52-.43zm-32.2 4.28v10.51l7.78 1.67v-13.69zm3.28 9.73-2.18-.46v-8.08l2.18-.38zm3.4.63-2.52-.41v-9.27l2.52-.44zm9.95-10.23v10.51l7.78 1.65v-13.48zm3.29 9.73-2.19-.46v-8.08l2.19-.38zm3.39.6-2.52-.41v-9.24l2.52-.43z" style="fill:#341a6e;stroke:none;stroke-width:34;stroke-linecap:butt"/></g></g></g></svg>