<svg xmlns="http://www.w3.org/2000/svg" xml:space="preserve" width="60.332" height="75.656" style="font-size:12px;overflow:visible;color-interpolation-filters:sRGB;fill-rule:evenodd;stroke-linecap:square;stroke-miterlimit:3" viewBox="0 0 45.249 56.741"><g transform="translate(-34 -33.999)"><title>Page-1</title><g transform="translate(33.89 -34.042)"><title>Azure Resource Mover.13620</title><title>Sheet.13621</title><g transform="translate(24.336 -6.345)"><title>Sheet.13622</title><path d="M21.02 87.01v25.11L0 124.74V99.59Z" style="fill:#32bedd;stroke:none;stroke-width:34;stroke-linecap:butt"/></g><g transform="translate(3.318 -31.459)"><title>Sheet.13623</title><path d="m42.04 112.12-21.02 12.62L0 112.12 21.02 99.5Z" style="fill:#9cebff;stroke:none;stroke-width:34;stroke-linecap:butt"/></g><g transform="translate(3.318 -6.345)"><title>Sheet.13624</title><path d="M21.02 99.62v25.12L0 112.12V87Z" style="fill:#50e6ff;stroke:none;stroke-width:34;stroke-linecap:butt"/></g><g transform="translate(3.318 -6.345)"><title>Sheet.13625</title><path d="m0 112.12 21.02-12.53v25.15z" style="fill:#9cebff;stroke:none;stroke-width:34;stroke-linecap:butt"/></g><g transform="translate(24.336 -6.345)"><title>Sheet.13626</title><path d="M21.02 112.12 0 99.59v25.15z" style="fill:#50e6ff;stroke:none;stroke-width:34;stroke-linecap:butt"/></g><title>Sheet.13627</title><path d="m35.21 114.31-10.18 10.32a.513.53 0 0 1-.873-.385l.053-5.745v-.34C12.08 118.04 0 111.22.11 99.17c1.71 2.7 10.31 9.94 24.18 10.09v-.1l.05-5.74a.513.53 0 0 1 .88-.369l9.99 10.519a.51.526 0 0 1 0 .744z" style="fill:#773adc;stroke:none;stroke-width:34;stroke-linecap:butt"/></g></g></svg>