<svg xmlns="http://www.w3.org/2000/svg" xml:space="preserve" width="68.035" height="75.597" style="font-size:12px;overflow:visible;color-interpolation-filters:sRGB;fill-rule:evenodd;stroke-linecap:square;stroke-miterlimit:3" viewBox="0 0 51.026 56.698"><g transform="translate(-12.24 -12.237)"><title>Page-1</title><g transform="translate(12.24 -34.016)"><title>Azure LightHouse My Audit History.13861</title><title>g20</title><g transform="translate(0 -8.444)"><title>path4</title><path d="M41.78 98.48h1.95V54.7H3.88C2.62 54.86 0 57.88 0 58.32l.06 42.35a2.29 2.29 0 0 0 2.3 2.28h36.51v-.7z" style="fill:#57a300;stroke:none;stroke-width:12.23999977;stroke-linecap:butt"/></g><g transform="translate(0 -8.444)"><title>path6</title><path d="M41.78 98.48h1.95V54.7H3.88C2.62 54.86 0 57.88 0 58.32l.06 42.35a2.29 2.29 0 0 0 2.3 2.28h36.51v-.7z" style="fill:#1e1e1e;fill-opacity:.15;stroke:none;stroke-width:12.23999977;stroke-linecap:butt"/></g><g transform="translate(0 -9.158)"><title>path8</title><path d="M6.47 55.41H3.88C2.62 55.58 0 58.6 0 59.03v1.21h38.88v42.71l2.9-3.76h1.95V55.41Z" style="fill:#e5e5e5;fill-opacity:.2;stroke:none;stroke-width:12.23999977;stroke-linecap:butt"/></g><g transform="translate(.965 -9.147)"><title>path10</title><path d="M4.65 57.33c-1.08 0-1.54.18-2.44.97-2.21 1.93.38 1.93 1.45 1.93H37.9v42.72l2.92-3.77V57.33Z" style="fill:#fff;stroke:none;stroke-width:12.23999977;stroke-linecap:butt"/></g><g transform="translate(38.868 -9.147)"><title>path12</title><path d="m0 102.95 2.92-3.77V57.33L0 60.23Z" style="fill:#a0a1a2;fill-opacity:.5;stroke:none;stroke-width:12.23999977;stroke-linecap:butt"/></g><g transform="translate(27.942 -8.102)"><title>path14</title><path d="m10.93 102.95 4.86-4.47V77.23a8.5 8.439-180 0 0-3.64-.82c-4.62 0-8.38 3.64-8.38 8.1 0 3.21 1.94 5.98 4.74 7.29v1.42l-.18-.26H1.82A1.822 1.81-180 0 0 0 94.77v8.18z" style="fill:#fff;fill-opacity:.4;stroke:none;stroke-width:12.23999977;stroke-linecap:butt"/></g><g transform="translate(29.156)"><title>path16</title><path d="M18.1 76.41c0 3.81-3.21 6.9-7.17 6.9s-7.16-3.09-7.16-6.9 3.2-6.89 7.16-6.89 7.17 3.08 7.17 6.89m-2.69 9.65-4.48 6.85-4.47-6.85H0v16.89h21.87V86.06Z" style="fill:#3999c6;stroke:none;stroke-width:12.23999977;stroke-linecap:butt"/></g><g transform="translate(5.397 -16.887)"><title>path18</title><path d="M11.61 78.82h13.36v2.42H11.61Zm0 9.65h13.36v2.42H11.61Zm0 9.65h13.36v2.42H11.61ZM.68 87.27v6.03h6.07v-6.03zm4.55 4.52H2.2v-3.01h3.03zM.68 96.92v6.03h6.07v-6.03zm4.55 4.52H2.2v-3.01h3.03ZM3.71 82.4l-3.6-3.62a.364.362 0 0 1 .002-.511L.89 77.5a.364.362 0 0 1 .515.002L3.66 79.78l3.47-4.43a.364.362 0 0 1 .513-.064l.857.664a.364.362 0 0 1 .064.508L3.93 82.39a.146.145 0 0 1-.22.012z" style="fill:#fff;stroke:none;stroke-width:12.23999977;stroke-linecap:butt"/></g></g></g></svg>