<svg xmlns="http://www.w3.org/2000/svg" xml:space="preserve" width="67.889" height="75.596" style="font-size:12px;overflow:visible;color-interpolation-filters:sRGB;fill-rule:evenodd;stroke-linecap:square;stroke-miterlimit:3" viewBox="0 0 50.916 56.697"><g transform="translate(-5.102 -5.668)"><title>Page-1</title><g transform="translate(5.102 -34.016)"><title>COLOUR-DEVELOPMENT_Azure-Automation-Runbook</title><g transform="translate(7.384 -14.088)"><title>path2</title><path d="M33.61 80.13H2.53C1.21 80.13 0 81.27 0 82.97v12.16l4.3 1.25V84.56h27.44v11.7l4.3-1.25V82.97c0-1.7-1.22-2.84-2.43-2.84" style="fill:#7a7a7a;stroke:none;stroke-width:.75;stroke-linecap:butt"/></g><g transform="translate(23.253 -26.245)"><title>rect4</title><path d="M0 84.562h4.298v11.816H0z" style="fill:#7a7a7a;stroke:none;stroke-width:.75;stroke-linecap:butt"/></g><g transform="translate(15.87 -37.947)"><title>path6</title><path d="M16.53 77.63H2.64C1.21 77.63 0 78.88 0 80.36v13.29c0 1.48 1.21 2.73 2.64 2.73h13.78c1.43 0 2.64-1.25 2.64-2.73V80.36c.12-1.48-1.1-2.73-2.53-2.73" style="fill:#59b4d9;stroke:none;stroke-width:.75;stroke-linecap:butt"/></g><title>path8</title><path d="M16.42 77.63H2.64C1.21 77.63 0 78.88 0 80.36v13.29c0 1.48 1.21 2.73 2.64 2.73h13.78c1.43 0 2.64-1.25 2.64-2.73V80.36c0-1.48-1.21-2.73-2.64-2.73" style="fill:#59b4d9;stroke:none;stroke-width:.75;stroke-linecap:butt"/><g transform="translate(31.848)"><title>path10</title><path d="M16.42 77.63H2.64C1.21 77.63 0 78.88 0 80.36v13.29c0 1.48 1.21 2.73 2.64 2.73h13.78c1.43 0 2.64-1.25 2.64-2.73V80.36c.12-1.48-1.1-2.73-2.64-2.73" style="fill:#59b4d9;stroke:none;stroke-width:.75;stroke-linecap:butt"/></g></g></g></svg>