<svg xmlns="http://www.w3.org/2000/svg" xml:space="preserve" width="68.034" height="75.586" style="font-size:12px;overflow:visible;color-interpolation-filters:sRGB;fill-rule:evenodd;stroke-linecap:square;stroke-miterlimit:3" viewBox="0 0 51.026 56.69"><defs><linearGradient id="a" x1="0" x2="53.783" y1="37.655" y2="37.655" gradientTransform="scale(.94873 1.05404)" gradientUnits="userSpaceOnUse"><stop offset=".18" stop-color="#5ea0ef"/><stop offset="1" stop-color="#0078d4"/></linearGradient></defs><g transform="translate(-5.322 -5.674)"><title>Page-1</title><g transform="translate(5.322 -34.016)"><title>Azure Managed Grafana.13732</title><title>Sheet.13733</title><path d="M22.73 46.16s-.02.08-.05.22c-.23.07-.46.13-.69.21-.32.1-.64.22-.96.34s-.63.25-.94.39a19.238 19.678-180 0 0-1.86.94c-.59.33-1.17.71-1.74 1.11l-.14-.07a14.377 14.706-180 0 0-10.89.46 15.778 16.138-180 0 0 2.85 10.95c-.14.38-.26.78-.38 1.17a26.716 27.327-180 0 0-.94 4.39c-.03.22-.06.44-.08.66A14.27 14.597-180 0 0 0 75.14c4.45 5.23 9.63 5.56 9.63 5.56l.02-.02a22.8 23.322-180 0 0 2.28 3.42 22.173 22.68-180 0 0 1.13 1.3 11.978 12.252-180 0 0 .23 8.69 13.826 14.142-180 0 0 8.89-2.77c.49.17.99.32 1.49.46a22.46 22.974-180 0 0 4.64.7c.39.02.78.03 1.17.02h.55l.24-.02.01.01c2.33 3.41 6.43 3.89 6.43 3.89 2.92-3.15 3.09-6.28 3.09-6.95v-.14c0-.05 0-.1-.01-.14a18.805 19.235-180 0 0 1.75-1.42 18.18 18.596-180 0 0 3.04-3.64c.08-.13.15-.25.23-.38a8.162 8.348-180 0 0 5.63-2.09 8.584 8.78-180 0 0-2.92-5.56s-.01-.02-.04-.03c-.02-.02-.04-.03-.04-.03a2.72 2.783-180 0 0-.07-.05 19.199 19.638-180 0 0 .09-1.77v-.59l-.03-.24-.01-.32-.03-.3c-.01-.1-.01-.2-.02-.29l-.04-.3-.04-.29a13.533 13.843-180 0 0-.21-1.15 14.248 14.573-180 0 0-4.48-7.65 14.06 14.382-180 0 0-3.53-2.33 13.85 14.167-180 0 0-5.87-1.24l-.24.01h-.25l-.24.02a11.864 12.135-180 0 0-1.26.16 11.012 11.264-180 0 0-6.43 3.85A10.87 11.119-180 0 0 23 66.59a10.636 10.879-180 0 0-.71 3.28 9.403 9.618-180 0 0-.02.81c0 .07 0 .14.01.2l.01.21.03.39a8.535 8.73-180 0 0 .29 1.59 8.274 8.463-180 0 0 3.29 4.64 8.05 8.233-180 0 0 2.25 1.1 7.854 8.034-180 0 0 2.24.33c.09 0 .18 0 .27-.01h.14l.13-.01c.08-.01.16-.02.23-.02.02 0 .04-.01.07-.01l.07-.01c.04-.01.09-.02.13-.02.1-.01.18-.03.26-.05.09-.01.17-.03.25-.05.17-.04.33-.09.48-.14a6.24 6.383-180 0 0 .88-.38 6.315 6.459-180 0 0 .76-.47c.07-.05.13-.1.19-.15a.568.58-180 0 0-.625-.965 3.698 3.782 0 0 1-.175.095 5.336 5.458 0 0 1-.66.28 5.661 5.79 0 0 1-.72.18c-.12.02-.25.04-.38.05a1.502 1.537 0 0 1-.19.01c-.07 0-.14.01-.19.01-.06-.01-.13 0-.19 0-.08 0-.16-.01-.24-.01h-.03l-.05-.01c-.04 0-.07-.01-.11-.01l-.2-.03a6.09 6.228 0 0 1-1.68-.5 6.002 6.139 0 0 1-1.54-1.04 5.864 5.998 0 0 1-1.21-1.54 5.676 5.805 0 0 1-.72-2.99c.01-.09.01-.19.01-.28v-.05l.01-.08c0-.04.01-.09.01-.14.02-.19.05-.38.08-.56a7.276 7.443 0 0 1 3.05-4.84 7.108 7.27 0 0 1 1.03-.6 7.273 7.44 0 0 1 1.13-.42 7.105 7.267 0 0 1 1.19-.21q.3-.03.6-.03h.14l.17.01h.16l.17.01a9.27 9.481 0 0 1 3.77 1.16 9.096 9.304 0 0 1 3.71 3.92 8.79 8.99 0 0 1 .84 2.65c.03.23.06.46.08.7l.02.17v.18c0 .06 0 .11.01.17s0 .13 0 .17v.32l-.02.41c-.02.26-.04.51-.07.77-.03.25-.07.49-.12.75-.04.25-.1.49-.16.74a11.45 11.711 0 0 1-.46 1.44 11.787 12.056 0 0 1-6.04 6.53 11.61 11.876 0 0 1-2.87.9 11.298 11.556 0 0 1-1.5.15h-.76a15.443 15.796 0 0 1-.81-.04 15.327 15.678 0 0 1-3.15-.58 15.533 15.888 0 0 1-7.85-5.37 15.744 16.104 0 0 1-1.72-2.72 15.56 15.915 0 0 1-1.13-2.99 15.33 15.68 0 0 1-.52-3.14l-.01-.2v-.18l-.01-.17v-.64c0-.12.01-.25.01-.38.02-.53.06-1.07.13-1.6.07-.54.15-1.08.26-1.62s.24-1.06.38-1.59a20.49 20.958 0 0 1 1.09-3.01 16.295 16.667 0 0 1 3.36-4.96 14.134 14.458 0 0 1 1.06-.97q.54-.45 1.14-.84a13.307 13.611 0 0 1 1.2-.72c.21-.12.42-.22.63-.32l.32-.15a16.397 16.771 0 0 1 1.64-.63c.12-.03.23-.07.34-.1.11-.04.23-.07.34-.1.22-.07.45-.12.68-.18.12-.03.23-.05.35-.08.12-.02.23-.05.35-.07l.34-.06.18-.04.18-.02c.11-.02.23-.04.35-.06.13-.02.26-.03.39-.05.11-.02.28-.04.39-.05l.25-.03.16-.01.09-.01.1-.01.39-.02.2-.02h.13l.34-.01c.45-.02.91-.02 1.34 0a18.597 19.022 0 0 1 2.61.29 18.186 18.602 0 0 1 4.73 1.61 19.083 19.519 0 0 1 3.86 2.57c.07.07.14.13.21.19s.14.12.2.18c.14.12.27.25.4.38.13.12.25.25.38.37.13.13.25.26.37.39a21.959 22.461 0 0 1 1.32 1.56 19.934 20.39 0 0 1 1.94 3.11c.03.06.06.12.09.19q.06.09.09.18c.06.13.12.25.18.37.05.13.11.24.16.36l.15.36a21.309 21.796 0 0 1 1.04 3.16.438.448-180 0 0 .863-.1 18.745 19.173-180 0 0-.623-5.27 19.856 20.31-180 0 0-1.44-3.91 20.877 21.354-180 0 0-4.12-5.77 8.07 8.255-180 0 0-.95-5.92 8.568 8.764-180 0 0-5.59 1.45 20.304 20.768-180 0 0-1.92-.73 22.03 22.534-180 0 0-1.64-.47 22.535 23.05-180 0 0-2.02-.38 10.37 10.607-180 0 0-5.03-6.03 11.013 11.265-180 0 0-4.96 6.47" style="fill:url(#a)"/><path d="M22.73 46.16s-.02.08-.05.22c-.23.07-.46.13-.69.21-.32.1-.64.22-.96.34s-.63.25-.94.39a19.238 19.678-180 0 0-1.86.94c-.59.33-1.17.71-1.74 1.11l-.14-.07a14.377 14.706-180 0 0-10.89.46 15.778 16.138-180 0 0 2.85 10.95c-.14.38-.26.78-.38 1.17a26.716 27.327-180 0 0-.94 4.39c-.03.22-.06.44-.08.66A14.27 14.597-180 0 0 0 75.14c4.45 5.23 9.63 5.56 9.63 5.56l.02-.02a22.8 23.322-180 0 0 2.28 3.42 22.173 22.68-180 0 0 1.13 1.3 11.978 12.252-180 0 0 .23 8.69 13.826 14.142-180 0 0 8.89-2.77c.49.17.99.32 1.49.46a22.46 22.974-180 0 0 4.64.7c.39.02.78.03 1.17.02h.55l.24-.02.01.01c2.33 3.41 6.43 3.89 6.43 3.89 2.92-3.15 3.09-6.28 3.09-6.95v-.14c0-.05 0-.1-.01-.14a18.805 19.235-180 0 0 1.75-1.42 18.18 18.596-180 0 0 3.04-3.64c.08-.13.15-.25.23-.38a8.162 8.348-180 0 0 5.63-2.09 8.584 8.78-180 0 0-2.92-5.56s-.01-.02-.04-.03c-.02-.02-.04-.03-.04-.03a2.72 2.783-180 0 0-.07-.05 19.199 19.638-180 0 0 .09-1.77v-.59l-.03-.24-.01-.32-.03-.3c-.01-.1-.01-.2-.02-.29l-.04-.3-.04-.29a13.533 13.843-180 0 0-.21-1.15 14.248 14.573-180 0 0-4.48-7.65 14.06 14.382-180 0 0-3.53-2.33 13.85 14.167-180 0 0-5.87-1.24l-.24.01h-.25l-.24.02a11.864 12.135-180 0 0-1.26.16 11.012 11.264-180 0 0-6.43 3.85A10.87 11.119-180 0 0 23 66.59a10.636 10.879-180 0 0-.71 3.28 9.403 9.618-180 0 0-.02.81c0 .07 0 .14.01.2l.01.21.03.39a8.535 8.73-180 0 0 .29 1.59 8.274 8.463-180 0 0 3.29 4.64 8.05 8.233-180 0 0 2.25 1.1 7.854 8.034-180 0 0 2.24.33c.09 0 .18 0 .27-.01h.14l.13-.01c.08-.01.16-.02.23-.02.02 0 .04-.01.07-.01l.07-.01c.04-.01.09-.02.13-.02.1-.01.18-.03.26-.05.09-.01.17-.03.25-.05.17-.04.33-.09.48-.14a6.24 6.383-180 0 0 .88-.38 6.315 6.459-180 0 0 .76-.47c.07-.05.13-.1.19-.15a.568.58-180 0 0-.625-.965 3.698 3.782 0 0 1-.175.095 5.336 5.458 0 0 1-.66.28 5.661 5.79 0 0 1-.72.18c-.12.02-.25.04-.38.05a1.502 1.537 0 0 1-.19.01c-.07 0-.14.01-.19.01-.06-.01-.13 0-.19 0-.08 0-.16-.01-.24-.01h-.03l-.05-.01c-.04 0-.07-.01-.11-.01l-.2-.03a6.09 6.228 0 0 1-1.68-.5 6.002 6.139 0 0 1-1.54-1.04 5.864 5.998 0 0 1-1.21-1.54 5.676 5.805 0 0 1-.72-2.99c.01-.09.01-.19.01-.28v-.05l.01-.08c0-.04.01-.09.01-.14.02-.19.05-.38.08-.56a7.276 7.443 0 0 1 3.05-4.84 7.108 7.27 0 0 1 1.03-.6 7.273 7.44 0 0 1 1.13-.42 7.105 7.267 0 0 1 1.19-.21q.3-.03.6-.03h.14l.17.01h.16l.17.01a9.27 9.481 0 0 1 3.77 1.16 9.096 9.304 0 0 1 3.71 3.92 8.79 8.99 0 0 1 .84 2.65c.03.23.06.46.08.7l.02.17v.18c0 .06 0 .11.01.17s0 .13 0 .17v.32l-.02.41c-.02.26-.04.51-.07.77-.03.25-.07.49-.12.75-.04.25-.1.49-.16.74a11.45 11.711 0 0 1-.46 1.44 11.787 12.056 0 0 1-6.04 6.53 11.61 11.876 0 0 1-2.87.9 11.298 11.556 0 0 1-1.5.15h-.76a15.443 15.796 0 0 1-.81-.04 15.327 15.678 0 0 1-3.15-.58 15.533 15.888 0 0 1-7.85-5.37 15.744 16.104 0 0 1-1.72-2.72 15.56 15.915 0 0 1-1.13-2.99 15.33 15.68 0 0 1-.52-3.14l-.01-.2v-.18l-.01-.17v-.64c0-.12.01-.25.01-.38.02-.53.06-1.07.13-1.6.07-.54.15-1.08.26-1.62s.24-1.06.38-1.59a20.49 20.958 0 0 1 1.09-3.01 16.295 16.667 0 0 1 3.36-4.96 14.134 14.458 0 0 1 1.06-.97q.54-.45 1.14-.84a13.307 13.611 0 0 1 1.2-.72c.21-.12.42-.22.63-.32l.32-.15a16.397 16.771 0 0 1 1.64-.63c.12-.03.23-.07.34-.1.11-.04.23-.07.34-.1.22-.07.45-.12.68-.18.12-.03.23-.05.35-.08.12-.02.23-.05.35-.07l.34-.06.18-.04.18-.02c.11-.02.23-.04.35-.06.13-.02.26-.03.39-.05.11-.02.28-.04.39-.05l.25-.03.16-.01.09-.01.1-.01.39-.02.2-.02h.13l.34-.01c.45-.02.91-.02 1.34 0a18.597 19.022 0 0 1 2.61.29 18.186 18.602 0 0 1 4.73 1.61 19.083 19.519 0 0 1 3.86 2.57c.07.07.14.13.21.19s.14.12.2.18c.14.12.27.25.4.38.13.12.25.25.38.37.13.13.25.26.37.39a21.959 22.461 0 0 1 1.32 1.56 19.934 20.39 0 0 1 1.94 3.11c.03.06.06.12.09.19q.06.09.09.18c.06.13.12.25.18.37.05.13.11.24.16.36l.15.36a21.309 21.796 0 0 1 1.04 3.16.438.448-180 0 0 .863-.1 18.745 19.173-180 0 0-.623-5.27 19.856 20.31-180 0 0-1.44-3.91 20.877 21.354-180 0 0-4.12-5.77 8.07 8.255-180 0 0-.95-5.92 8.568 8.764-180 0 0-5.59 1.45 20.304 20.768-180 0 0-1.92-.73 22.03 22.534-180 0 0-1.64-.47 22.535 23.05-180 0 0-2.02-.38 10.37 10.607-180 0 0-5.03-6.03 11.013 11.265-180 0 0-4.96 6.47" style="stroke:none;stroke-width:5.32174015;stroke-linecap:butt"/></g></g></svg>