<svg xmlns="http://www.w3.org/2000/svg" xml:space="preserve" width="49.134" height="75.917" style="font-size:12px;overflow:visible;color-interpolation-filters:sRGB;fill-rule:evenodd;stroke-linecap:square;stroke-miterlimit:3" viewBox="0 0 36.85 56.938"><defs><linearGradient id="a" x1="-.002" x2="19.211" y1="125.922" y2="125.922" gradientTransform="scale(1.1609 .8614)" gradientUnits="userSpaceOnUse"><stop offset=".23" stop-color="#5ea0ef"/><stop offset=".32" stop-color="#5b9fee"/><stop offset=".48" stop-color="#509aeb"/><stop offset=".57" stop-color="#3f92e6"/><stop offset=".75" stop-color="#2688df"/><stop offset=".93" stop-color="#127fd9"/></linearGradient><linearGradient id="b" x1=".092" x2="19.263" y1="125.825" y2="125.825" gradientTransform="scale(1.15978 .86223)" gradientUnits="userSpaceOnUse"><stop offset=".02" stop-color="#5ea0ef"/><stop offset=".14" stop-color="#5b9fee"/><stop offset=".23" stop-color="#5b9fee"/><stop offset=".34" stop-color="#509aeb"/><stop offset=".44" stop-color="#3f92e6"/><stop offset=".63" stop-color="#2688df"/><stop offset=".93" stop-color="#127fd9"/></linearGradient></defs><g transform="translate(-34 -34.067)"><title>Page-1</title><g transform="translate(34 -34.016)"><title>Azure Arc Private Link Scope.14022</title><title>Sheet.14023</title><g transform="translate(16.306 -22.042)"><title>Sheet.14024</title><path d="M0 98.98h3.994v26.039H0z" style="fill:#7a7a7a;stroke:none;stroke-width:34;stroke-linecap:butt"/></g><g transform="translate(14.162 -44.62)"><title>Sheet.14025</title><path d="M10 120.73a5.858 6.062 0 1 1-5.86-6.06 5.858 6.062 0 0 1 5.86 6.06" style="fill:#1490df;stroke:none;stroke-width:34;stroke-linecap:butt"/></g><g transform="translate(3.197 -6.885)"><title>Sheet.14026</title><path d="M14.31 108.47H7.92a7.988 8.266-180 0 0-1.24 16.42 8.57 8.867 0 0 1 .08-3.07 5.047 5.222 0 0 1 1.16-10.32h6.39a5.059 5.235 0 1 1 0 10.47h-1.76a3.795 3.927-180 0 0-.38 1.67 3.672 3.8-180 0 0 .25 1.38h1.89a7.992 8.27-180 0 0 0-16.54z" style="fill:url(#a);stroke:none;stroke-width:34;stroke-linecap:butt"/></g><g transform="translate(11.115)"><title>Sheet.14027</title><path d="M15.61 108.6a9.181 9.5 0 0 1 .1 1.26 8.37 8.662 0 0 1-.18 1.81 5.044 5.22 0 0 1-1.15 10.32H7.99a5.059 5.235 0 1 1 0-10.47h1.75a3.608 3.734-180 0 0 .12-3.03H7.99a7.988 8.266-180 0 0 0 16.53h6.39a7.988 8.266-180 0 0 1.22-16.43z" style="fill:url(#b);stroke:none;stroke-width:34;stroke-linecap:butt"/></g><g transform="translate(0 -40.43)"><title>Sheet.14028</title><path d="M9.84 120.35a5.766 5.967 0 0 1-1.38-3.7 4.897 5.067 0 0 1 1.33-3.45 1.353 1.4-180 0 0-1.84-2.05 7.651 7.917-180 0 0-2.19 5.5 8.471 8.766-180 0 0 2.14 5.64 1.35 1.397-180 0 0 .98.44 1.334 1.38-180 0 0 .92-.39 1.35 1.397-180 0 0 .04-1.99M3.74 125a1.34 1.387 0 0 1-1.02-.48 12.321 12.75 0 0 1-2.72-7.8 13.123 13.58 0 0 1 2.7-7.75 1.35 1.397 0 0 1 2.1 1.75 10.503 10.869-180 0 0-2.09 6.02 9.555 9.887-180 0 0 2.06 5.96 1.353 1.4 0 0 1-1.02 2.32zm24.73-13.84a1.353 1.4-180 0 0-1.84 2.04 4.897 5.067 0 0 1 1.34 3.49 5.769 5.97 0 0 1-1.39 3.7 1.353 1.4-180 0 0 1.96 1.93 8.471 8.766-180 0 0 2.13-5.66 7.651 7.917-180 0 0-2.2-5.5m4.65 13.86a1.35 1.397 0 0 1-1.02-2.32 9.686 10.023-180 0 0 2.06-5.96 10.5 10.866-180 0 0-2.09-6.02 1.353 1.4 0 0 1 2.09-1.74 13.16 13.618 0 0 1 2.69 7.76 12.324 12.753 0 0 1-2.72 7.8 1.337 1.384 0 0 1-1.01.48" style="fill:#1490df;stroke:none;stroke-width:34;stroke-linecap:butt"/></g></g></g></svg>