<svg xmlns="http://www.w3.org/2000/svg" xml:space="preserve" width="76.037" height="68.049" style="font-size:12px;overflow:visible;color-interpolation-filters:sRGB;fill-rule:evenodd;stroke-linecap:square;stroke-miterlimit:3" viewBox="0 0 57.028 51.037"><defs><linearGradient id="a" x1="0" x2="35.642" y1="107.212" y2="107.212" gradientTransform="scale(1.19998 .83335)" gradientUnits="userSpaceOnUse"><stop offset="0" stop-color="#0078d4"/><stop offset=".15" stop-color="#1882db"/><stop offset=".375" stop-color="#378fe4"/><stop offset=".595" stop-color="#4c99ea"/><stop offset=".805" stop-color="#5a9eee"/><stop offset="1" stop-color="#5ea0ef"/></linearGradient></defs><g transform="translate(-34.003 -33.998)"><title>Page-1</title><g transform="translate(34.339 -34.016)"><title>Backup Center.13588</title><title>Sheet.13589</title><g transform="translate(13.922 -21.331)"><title>Sheet.13590</title><path d="M42.77 109.75a9.604 9.407-180 0 0-8.34-9.05 12.128 11.88-180 0 0-12.47-11.35 12.432 12.178-180 0 0-11.88 7.94A11.472 11.237-180 0 0 0 108.1a11.64 11.401-180 0 0 12.05 10.94 8.175 8.007-180 0 0 1.06-.04h19.5a1.967 1.926-180 0 0 .51-.08 9.722 9.523-180 0 0 9.65-9.17" style="fill:url(#a);stroke:none;stroke-width:34;stroke-linecap:butt"/></g><g transform="translate(1.611 -4.993)"><title>Sheet.13591</title><path d="m32.39 101.63.06 1.38 1.41.19a8.325 8.155 0 0 1 7.21 7.8 8.453 8.28 0 0 1-8.35 8.03h-.14l-.11.01-.11-.02H10.72a10.594 10.377 0 0 1-4.05-.54 11.062 10.836 0 0 1-3.63-2.06 10.895 10.672 0 0 1-2.43-3.32 9.96 9.757 0 0 1 1.84-10.31 10.315 10.104 0 0 1 6.42-3.1l1.02-.12.36-.95a11.43 11.196 0 0 1 4.23-5.33 11.256 11.025 0 0 1 6.55-1.93h.09a10.941 10.717 0 0 1 11.27 10.27" style="fill:#fff;stroke:none;stroke-width:34;stroke-linecap:butt"/></g><g transform="translate(0 -3.352)"><title>Sheet.13592</title><path d="m34.05 119.04-.28-.06H12.34a12.252 12.001 0 0 1-4.59-.62 12.668 12.41 0 0 1-4.18-2.38 12.504 12.249 0 0 1-2.84-3.85 11.669 11.43 0 0 1 2.11-12.06 11.964 11.719 0 0 1 7.47-3.62v-.02a12.976 12.711 0 0 1 4.83-6.1 12.432 12.178 0 0 1 7.52-2.22 12.626 12.367 0 0 1 12.96 11.81l.05.04a9.941 9.738 0 0 1 8.63 9.34 10.089 9.882 0 0 1-9.96 9.69zM22.6 91.32a9.633 9.436-180 0 0-9.2 6.21l-.71 1.88-2.02.23a8.699 8.521-180 0 0-5.44 2.61 8.345 8.174-180 0 0-1.5 8.59 9.178 8.99-180 0 0 2.04 2.77 9.178 8.99-180 0 0 3.04 1.71 8.925 8.743-180 0 0 3.41.46h21.96a6.827 6.688-180 0 0 6.85-6.47 6.647 6.511-180 0 0-5.8-6.16l-2.76-.36-.12-2.74a9.315 9.125-180 0 0-9.57-8.73z" style="fill:#50e6ff;stroke:none;stroke-width:34;stroke-linecap:butt"/></g><g transform="translate(6.872 -10.53)"><title>Sheet.13593</title><path d="M8.52 115.31v-.97l-1-.32-.26-.67.49-1.01v-.11l-.33-.32-.37-.39h-.13l-.98.48-.69-.17-.42-1.08h-.98l-.33.98-.68.25-1.15-.53-.71.7v.12l.49.96-.27.67-1.2.41v.97h.14l1.04.34.3.66-.55 1.12.71.7h.12l.98-.5.69.27.43 1.17h.99v-.13l.35-1.04.66-.27 1.16.52.69-.68v-.13l-.43-.93.2-.68zm-4.16.89a1.4 1.37 0 1 1 .51-2.64 1.426 1.397 0 0 1 .63.5 1.4 1.37 0 0 1 .24.77 1.383 1.355 0 0 1-1.31 1.37z" style="fill:#0078d4;stroke:none;stroke-width:34;stroke-linecap:butt"/></g><g transform="translate(3.08)"><title>Sheet.13594</title><path d="M8.1 115.71a11.593 11.356 0 1 1 11.67-11.36h-3.52a8.07 7.905-180 1 0-8.08 7.9h2.57a.184.18-180 0 0 .184-.051.206.202-180 0 0 .052-.084.25.244-180 0 0 0-.096l.004-2.799a.285.28 0 0 1 .17-.215.328.321 0 0 1 .272.058l4.908 4.817a.269.263 0 0 1 0 .157.259.254 0 0 1-.088.135l-4.912 4.818a.272.266 0 0 1-.138.058.246.24 0 0 1-.144-.023.269.263 0 0 1-.115-.093.243.238 0 0 1-.045-.138l.002-2.844a.246.24-180 0 0-.072-.17.24.234-180 0 0-.177-.07z" style="fill:#0078d4;stroke:none;stroke-width:34;stroke-linecap:butt"/></g></g></g></svg>