<svg xmlns="http://www.w3.org/2000/svg" xml:space="preserve" width="75.595" height="64.261" style="font-size:12px;overflow:visible;color-interpolation-filters:sRGB;fill-rule:evenodd;stroke-linecap:square;stroke-miterlimit:3" viewBox="0 0 56.696 48.196"><defs><linearGradient id="a" x1="0" x2="34.477" y1="103.726" y2="103.726" gradientTransform="scale(1.18919 .84091)" gradientUnits="userSpaceOnUse"><stop offset="0" stop-color="#0078d4"/><stop offset=".15" stop-color="#1882db"/><stop offset=".375" stop-color="#378fe4"/><stop offset=".595" stop-color="#4c99ea"/><stop offset=".805" stop-color="#5a9eee"/><stop offset="1" stop-color="#5ea0ef"/></linearGradient><linearGradient id="b" x1="0" x2="34.331" y1="103.267" y2="103.267" gradientTransform="scale(1.18405 .84456)" gradientUnits="userSpaceOnUse"><stop offset="0" stop-color="#32bedd"/><stop offset="1" stop-color="#50e6ff"/></linearGradient></defs><g transform="translate(-34 -33.999)"><title>Page-1</title><g transform="translate(34 -34.016)"><title>Backup vault.13582</title><title>Sheet.13583</title><g transform="translate(15.697 -19.21)"><title>Sheet.13584</title><path d="M41 107.13a9.211 9.187-180 0 0-8-8.83 11.609 11.578-180 0 0-11.96-11.07 11.909 11.877-180 0 0-11.38 7.74A10.99 10.961-180 0 0 0 105.52a11.16 11.13-180 0 0 11.54 10.69c.35 0 .68 0 1.02-.04h18.69a1.948 1.943-180 0 0 .5-.08 9.32 9.295-180 0 0 9.25-8.96" style="fill:url(#a);stroke:none;stroke-width:34;stroke-linecap:butt"/></g><g transform="translate(1.435 -1.364)"><title>Sheet.13585</title><path d="m29.57 99.84.06 1.32 1.31.17a7.56 7.54 0 0 1 6.56 7.32 7.68 7.66 0 0 1-7.6 7.56H9.81A9.489 9.464 0 0 1 0 107.03a9.307 9.282 0 0 1 8.2-8.9l.95-.12.32-.9a10.254 10.227 0 0 1 9.82-6.74h.07a9.935 9.909 0 0 1 10.21 9.47" style="fill:#fff;stroke:none;stroke-width:34;stroke-linecap:butt"/></g><g transform="translate(23.651 -22.463)"><title>Sheet.13586</title><path d="m19.36 103.96-5.06-4.89c-.55-.55-1.02-.36-1.02.49v2.2a.619.617 0 0 1-.051.238.583.582 0 0 1-.344.318.619.617 0 0 1-.24.039C9.4 102.36.33 103.21 0 115.57a.638.636-180 0 0 .638.636l3.222.004a.638.636-180 0 0 .255-.054.663.661-180 0 0 .214-.15.708.706-180 0 0 .134-.225.638.636-180 0 0 .031-.258 7.608 7.587 0 0 1 8.266-9.153.638.636 0 0 1 .638.636l-.008 2.034c0 1.02.32 1.18 1.02.5l4.95-4.54a.615.614-180 0 0 .204-.229.638.636-180 0 0 0-.588.638.636-180 0 0-.204-.23Z" style="fill:#fff;stroke:none;stroke-width:34;stroke-linecap:butt"/></g><title>Sheet.13587</title><path d="M11.06 116.21A11.06 11.031 0 0 1 0 105.51v-.1a10.895 10.866 0 0 1 9.58-10.43 11.839 11.807 0 0 1 11.31-7.76A11.504 11.473 0 0 1 32.72 98.2a9.135 9.11 0 0 1 7.93 8.82v.05a9.246 9.222 0 0 1-9.16 9.12H11.45c-.13.02-.27.02-.39.02m-7.9-10.74a7.917 7.896-180 0 0 8.18 7.6h20.13a6.103 6.086-180 0 0 6.03-6.01 5.981 5.966-180 0 0-5.2-5.72l-2.62-.35-.11-2.64a8.36 8.338-180 0 0-8.59-7.98h-.1a8.672 8.65-180 0 0-8.33 5.69l-.67 1.82-1.91.23a7.732 7.711-180 0 0-6.81 7.36" style="fill:url(#b);stroke:none;stroke-width:34;stroke-linecap:butt"/></g></g></svg>