<svg xmlns="http://www.w3.org/2000/svg" xml:space="preserve" width="75.591" height="68.027" style="font-size:12px;overflow:visible;color-interpolation-filters:sRGB;fill-rule:evenodd;stroke-linecap:square;stroke-miterlimit:3" viewBox="0 0 56.693 51.02"><defs><linearGradient id="a" x1="0" x2="35.629" y1="113.186" y2="113.186" gradientTransform="scale(1.25012 .79992)" gradientUnits="userSpaceOnUse"><stop offset=".225" stop-color="#9cebff"/><stop offset="1" stop-color="#50e6ff"/></linearGradient></defs><g transform="translate(-34 -34.003)"><title>Page-1</title><g transform="translate(34 -34.016)"><title>Billing Subscription.13574</title><title>Sheet.13575</title><g transform="translate(0 -22.521)"><title>Sheet.13576</title><path d="M44.54 115.69a3.424 3.351 0 0 1-3.43 3.35H3.43A3.424 3.351 0 0 1 0 115.69v-21.8a3.427 3.354 0 0 1 3.43-3.35h37.68a3.427 3.354 0 0 1 3.43 3.35z" style="fill:#0078d4;stroke:none;stroke-width:34;stroke-linecap:butt"/></g><g transform="translate(6.85 -9.107)"><title>Sheet.13577</title><path d="M44.54 115.69a3.424 3.351 0 0 1-3.43 3.35H3.43A3.427 3.354 0 0 1 0 115.69v-21.8a3.424 3.351 0 0 1 3.43-3.35h37.68a3.42 3.348 0 0 1 3.43 3.35z" style="fill:url(#a);stroke:none;stroke-width:34;stroke-linecap:butt"/></g><g transform="translate(11.991 -14.136)"><title>Sheet.13578</title><path d="M17.99 110.65h5.14a.857.839 0 0 1 .857.839l-.007 1.681a.857.839 0 0 1-.857.839l-5.133.001a.857.839 0 0 1-.857-.839l-.003-1.681a.857.839 0 0 1 .857-.839zm8.56 0h5.14a.857.839 0 0 1 .857.839l.003 1.681a.857.839 0 0 1-.857.839l-5.143.001a.857.839 0 0 1-.857-.839l.007-1.681a.857.839 0 0 1 .857-.839zm-25.69 0h5.13a.857.839 0 0 1 .857.839l.003 1.681a.857.839 0 0 1-.857.839l-5.133.001a.857.839 0 0 1-.857-.839L0 111.49a.857.839 0 0 1 .857-.839zm0 6.71h11.99a.857.839 0 0 1 .857.839.857.839 0 0 1-.857.838l-11.99.003a.857.839 0 0 1-.857-.839.857.839 0 0 1 .857-.838Zm17.13 0h3.42a.857.839 0 0 1 .857.839.857.839 0 0 1-.857.838l-3.42.003a.857.839 0 0 1-.857-.839.857.839 0 0 1 .857-.838Zm-8.56-6.71h5.13a.857.839 0 0 1 .857.839l.003 1.681a.857.839 0 0 1-.857.839l-5.133.001a.857.839 0 0 1-.857-.839l-.003-1.681a.857.839 0 0 1 .857-.839zM8.56 106a1.399 1.369 0 0 1-1.45 1.3H1.46A1.399 1.369 0 0 1 0 106v-3.73c0-.72.65-1.68 1.46-1.68h5.66a1.399 1.369 0 0 1 1.46 1.31z" style="fill:#fff;stroke:none;stroke-width:34;stroke-linecap:butt"/></g><g transform="translate(0 -42.64)"><title>Sheet.13579</title><path d="M0 115.685h44.538v3.354H0z" style="fill:#e6e6e6;stroke:none;stroke-width:34;stroke-linecap:butt"/></g><g transform="translate(28.376)"><title>Sheet.13580</title><ellipse cx="14.158" cy="105.181" rx="14.158" ry="13.858" style="fill:#76bc2d;stroke:none;stroke-width:34;stroke-linecap:butt"/></g><g transform="translate(31.081 -4.894)"><title>Sheet.13581</title><path d="M1.34 108.77a.498.487 0 0 1-.687-.173l-.603-.987a.5.49 0 0 1 .176-.672l4.754-2.778a.504.493 0 0 1 .687.173l2.843 4.657a.5.49 0 0 1-.176.672l-1.014.588a.507.496 0 0 1-.687-.173L5.79 108.7a6.432 6.295-180 0 0-.13 2.32 5.915 5.79-180 0 0 .79 2.21 5.745 5.623-180 0 0 1.09 1.32 6.467 6.33-180 0 0 1.42.96 6.139 6.009-180 0 0 1.61.55 6.315 6.181-180 0 0 1.3.12.498.487 0 0 1 .491.444l.219 2.396a8.848 8.66 0 0 1-2.56-.14 9.323 9.126 0 0 1-2.4-.81A9.046 8.854 0 0 1 3 107.8Zm11.55-4.51a6.208 6.077 0 0 1 1.62.56 6.485 6.348 0 0 1 1.42.96 5.985 5.858 0 0 1 1.89 3.52 6.366 6.23 0 0 1-.13 2.33l-.84-1.38a.504.493-180 0 0-.687-.173l-1.013.593a.5.49-180 0 0-.173.672l2.843 4.648a.5.49-180 0 0 .687.173l4.753-2.773a.498.487-180 0 0 .176-.672l-.606-.988a.5.49-180 0 0-.687-.173l-1.643.953a9.043 8.851-180 0 0-2.54-8.84 9.097 8.904-180 0 0-2.08-1.42 9.342 9.144-180 0 0-2.4-.81 8.949 8.759-180 0 0-2.05-.17.498.487-180 0 0-.47.533l.18 1.887a.491.48-180 0 0 .491.444 5.692 5.571 0 0 1 1.259.126" style="fill:#fff;stroke:none;stroke-width:34;stroke-linecap:butt"/></g></g></g></svg>