<svg xmlns="http://www.w3.org/2000/svg" xml:space="preserve" width="70.708" height="71.495" style="font-size:12px;overflow:visible;color-interpolation-filters:sRGB;fill-rule:evenodd;stroke-linecap:square;stroke-miterlimit:3" viewBox="0 0 53.031 53.621"><g transform="translate(-12.24 -12.24)"><title>Page-1</title><g transform="translate(12.24 -34.016)"><title>Budget.13559</title><title>g30</title><g transform="translate(16.25 -50.241)"><title>circle4</title><ellipse cx="3.195" cy="99.723" rx="3.195" ry="3.226" style="fill:#ff8c00;stroke:none;stroke-width:12.23999977;stroke-linecap:butt"/></g><g transform="translate(0 -26.176)"><title>circle6</title><ellipse cx="3.195" cy="99.723" rx="3.195" ry="3.226" style="fill:#ff8c00;stroke:none;stroke-width:12.23999977;stroke-linecap:butt"/></g><g transform="translate(1.083 -37.115)"><title>circle8</title><ellipse cx="3.195" cy="99.723" rx="3.195" ry="3.226" style="fill:#ff8c00;stroke:none;stroke-width:12.23999977;stroke-linecap:butt"/></g><g transform="translate(6.5 -45.866)"><title>circle10</title><ellipse cx="3.195" cy="99.723" rx="3.195" ry="3.226" style="fill:#ff8c00;stroke:none;stroke-width:12.23999977;stroke-linecap:butt"/></g><g transform="translate(16.25 -50.241)"><title>circle12</title><ellipse cx="3.195" cy="99.723" rx="3.195" ry="3.226" style="fill:#57a300;fill-opacity:.2;stroke:none;stroke-width:12.23999977;stroke-linecap:butt"/></g><g transform="translate(0 -26.176)"><title>circle14</title><ellipse cx="3.195" cy="99.723" rx="3.195" ry="3.226" style="fill:#57a300;fill-opacity:.2;stroke:none;stroke-width:12.23999977;stroke-linecap:butt"/></g><g transform="translate(1.083 -37.115)"><title>circle16</title><ellipse cx="3.195" cy="99.723" rx="3.195" ry="3.226" style="fill:#57a300;fill-opacity:.2;stroke:none;stroke-width:12.23999977;stroke-linecap:butt"/></g><g transform="translate(6.5 -45.866)"><title>circle18</title><ellipse cx="3.195" cy="99.723" rx="3.195" ry="3.226" style="fill:#57a300;fill-opacity:.2;stroke:none;stroke-width:12.23999977;stroke-linecap:butt"/></g><g transform="translate(24.59 -42.255)"><title>circle20</title><ellipse cx="2.438" cy="100.487" rx="2.438" ry="2.461" style="fill:#57a300;stroke:none;stroke-width:12.23999977;stroke-linecap:butt"/></g><g transform="translate(24.59 -11.627)"><title>circle22</title><ellipse cx="2.438" cy="100.487" rx="2.438" ry="2.461" style="fill:#57a300;stroke:none;stroke-width:12.23999977;stroke-linecap:butt"/></g><g transform="translate(18.474 -18.069)"><title>path24</title><path d="M17.11 96.55c0 3.71-3.64 6.4-8.66 6.4-4.41 0-7.18-1.68-8.45-5.13L4.31 97c.56 1.21 1.79 2.6 4.5 2.6s3.72-1.64 3.72-2.68c0-2.16-2.57-2.9-3.68-3.12-4.7-.95-8.03-2.03-8.03-7.47 0-4.46 4.11-6.05 7.63-6.05 3.85 0 6.35 1.29 7.65 3.93l-3.72 1.19c-.79-1.34-2.12-2.05-3.87-2.05-2.55 0-3.23 1.78-3.23 2.72 0 1.29 1.28 2.43 3.26 2.89 2.48.58 4.22 1.03 5.24 1.46 1.61.68 3.33 2.65 3.33 6.13" style="fill:#57a300;stroke:none;stroke-width:12.23999977;stroke-linecap:butt"/></g><g transform="translate(5.652)"><title>path26</title><path d="M44.6 62.05c-4.43-8.87-13.86-14.45-23.22-14.83v4.18c7.81.38 15.82 5.15 19.51 12.53 5.41 10.82 1.09 24.06-9.63 29.52-9.43 4.81-21.45 1.49-27.84-6.73L0 89.17c7.56 9.9 21.82 13.78 33.13 8.02 12.78-6.51 17.91-22.24 11.47-35.14" style="fill:#57a300;stroke:none;stroke-width:12.23999977;stroke-linecap:butt"/></g><g transform="translate(2.72 -9.003)"><title>path28</title><path d="m0 102.95 1.1-13.13 11.39 4.16Z" style="fill:#57a300;stroke:none;stroke-width:12.23999977;stroke-linecap:butt"/></g></g></g></svg>