<svg xmlns="http://www.w3.org/2000/svg" xml:space="preserve" width="75.591" height="75.597" style="font-size:12px;overflow:visible;color-interpolation-filters:sRGB;fill-rule:evenodd;stroke-linecap:square;stroke-miterlimit:3" viewBox="0 0 56.693 56.698"><g transform="translate(-34 -33.996)"><title>Page-1</title><g transform="translate(34 -34.016)"><title>Bulk Operation.13548</title><title> MsPortalFx.base.images-18</title><g transform="translate(28.1 -25.079)"><title>Sheet.13550</title><path d="M13.81 101.02v15.76L0 124.71v-15.79z" style="fill:#76bc2d;stroke:none;stroke-width:34;stroke-linecap:butt"/></g><g transform="translate(14.29 -40.848)"><title>Sheet.13551</title><path d="m27.62 116.79-13.81 7.92L0 116.78l13.81-7.92Z" style="fill:#b4ec36;stroke:none;stroke-width:34;stroke-linecap:butt"/></g><g transform="translate(14.29 -25.079)"><title>Sheet.13552</title><path d="M13.81 108.94v15.77L0 116.78v-15.76z" style="fill:#86d633;stroke:none;stroke-width:34;stroke-linecap:butt"/></g><g transform="translate(13.81)"><title>Sheet.13553</title><path d="M13.81 101.02v15.77L0 124.71v-15.79z" style="fill:#76bc2d;stroke:none;stroke-width:34;stroke-linecap:butt"/></g><g transform="translate(0 -15.77)"><title>Sheet.13554</title><path d="m27.62 116.79-13.81 7.92L0 116.79l13.81-7.93Z" style="fill:#b4ec36;stroke:none;stroke-width:34;stroke-linecap:butt"/></g><title>Sheet.13555</title><path d="M13.81 108.94v15.77L0 116.79v-15.77z" style="fill:#86d633;stroke:none;stroke-width:34;stroke-linecap:butt"/><g transform="translate(42.883)"><title>Sheet.13556</title><path d="M13.81 101.02v15.77L0 124.71v-15.79z" style="fill:#76bc2d;stroke:none;stroke-width:34;stroke-linecap:butt"/></g><g transform="translate(29.073 -15.77)"><title>Sheet.13557</title><path d="m27.62 116.79-13.81 7.92L0 116.79l13.81-7.93Z" style="fill:#b4ec36;stroke:none;stroke-width:34;stroke-linecap:butt"/></g><g transform="translate(29.073)"><title>Sheet.13558</title><path d="M13.81 108.94v15.77L0 116.79v-15.77z" style="fill:#86d633;stroke:none;stroke-width:34;stroke-linecap:butt"/></g></g></g></svg>