<svg xmlns="http://www.w3.org/2000/svg" xml:space="preserve" width="75.792" height="41.573" style="font-size:12px;overflow:visible;color-interpolation-filters:sRGB;fill-rule:evenodd;stroke-linecap:square;stroke-miterlimit:3" viewBox="0 0 56.844 31.18"><defs><linearGradient id="a" x1="0" x2="42.1" y1="91.842" y2="91.842" gradientTransform="scale(1.35022 .74062)" gradientUnits="userSpaceOnUse"><stop offset="0" stop-color="#005ba1"/><stop offset="1" stop-color="#0078d4"/></linearGradient></defs><g transform="translate(-34 -34.004)"><title>Page-1</title><g transform="translate(34 -34.016)"><title>Central Service Instance for SAP.13539</title><title>Sheet.13540</title><title>Sheet.13541</title><path d="M1.92 99.2h27.36a1.914 2.005-180 0 0 1.37-.6l25.64-27.15a1.923 2.015-180 0 0-1.37-3.43h-53A1.92 2.012-180 0 0 0 70.04v27.13a1.92 2.012-180 0 0 1.92 2.03" style="fill:url(#a);stroke:none;stroke-width:34;stroke-linecap:butt"/><g transform="translate(20.174 -8.5)"><title>Sheet.13542</title><path d="M6.13 88.03v7.43L0 99.2v-7.45z" style="fill:#fff;fill-opacity:.6;stroke:none;stroke-width:34;stroke-linecap:butt"/></g><g transform="translate(14.031 -15.935)"><title>Sheet.13543</title><path d="M12.27 95.46 6.14 99.2 0 95.45l6.14-3.73Z" style="fill:#fff;fill-opacity:.9;stroke:none;stroke-width:34;stroke-linecap:butt"/></g><g transform="translate(14.031 -8.5)"><title>Sheet.13544</title><path d="M6.14 91.76v7.44L0 95.46v-7.44z" style="fill:#fff;fill-opacity:.75;stroke:none;stroke-width:34;stroke-linecap:butt"/></g><g transform="translate(20.878 -7.057)"><title>Sheet.13545</title><path d="m.17 77.82.78.44.31.18a.417.437 0 0 1 0 .754l-.31.196-.95.59a10.207 10.694 0 0 1 7.43 17.1.205.215-180 0 0-.035.073L7.01 98.66a.414.433-180 0 0 .537.533L8.7 98.87a.212.222-180 0 0 .107-.076A12.279 12.864-180 0 0 .17 77.82" style="fill:#0ff;fill-opacity:.75;stroke:none;stroke-width:34;stroke-linecap:butt"/></g><g transform="translate(9.995 -2.71)"><title>Sheet.13546</title><path d="m17.9 95.68-.35.09a.414.433 0 0 1-.508-.533l.098-.357.25-1a10.179 10.664 0 0 1-13.72.68 10.377 10.872 0 0 1-1.98-2.29.193.202-180 0 0-.076-.07L.6 91.65a.414.433-180 0 0-.603.41l.073 1.52a.243.255-180 0 0 .038.12 12.462 13.056-180 0 0 1.742 2.09 12.266 12.851-180 0 0 17.02-.37Z" style="fill:#0ff;fill-opacity:.5;stroke:none;stroke-width:34;stroke-linecap:butt"/></g><g transform="translate(8.849 -9.433)"><title>Sheet.13547</title><path d="m.49 98.06-.02-.39a.417.437 0 0 1 .603-.41l.317.17.83.45a10.204 10.69 0 0 1 5.87-15 10.248 10.737 0 0 1 2.75-.54.174.182-180 0 0 .095-.03l1.125-.71a.414.433-180 0 0-.016-.751l-1.124-.659a.196.205-180 0 0-.11-.026 12.073 12.65-180 0 0-2.76.446A12.275 12.86-180 0 0 .54 99.2Z" style="fill:#0ff;stroke:none;stroke-width:34;stroke-linecap:butt"/></g></g></g></svg>