<svg xmlns="http://www.w3.org/2000/svg" xml:space="preserve" width="75.601" height="75.59" style="font-size:12px;overflow:visible;color-interpolation-filters:sRGB;fill-rule:evenodd;stroke-linecap:square;stroke-miterlimit:3" viewBox="0 0 56.701 56.693"><g transform="translate(-38.247 -38.25)"><title>Page-1</title><g transform="translate(38.25 -38.25)"><title>Certificate Auto Renew Setting.13536</title><title>Sheet.13537</title><title>Sheet.13538</title><path d="M44.29 81.46a38 38 0 0 1 6.73 6.38 27.6 27.6 0 0 1 4.26 7.79 26.6 26.6 0 0 1 1.41 9.22 27 27 0 0 1-1.06 7.44 22.7 22.7 0 0 1-2.83 6.73 37 37 0 0 1-4.26 6.02 37 37 0 0 1-6.02 4.26 22.7 22.7 0 0 1-6.73 2.83 26.6 26.6 0 0 1-14.88 0 22.7 22.7 0 0 1-6.74-2.83 37 37 0 0 1-6.02-4.26 37 37 0 0 1-4.25-6.02 22.7 22.7 0 0 1-2.84-6.73 26.6 26.6 0 0 1 0-14.88 42 42 0 0 1 2.84-7.09 35.8 35.8 0 0 1 4.6-5.67 38.6 38.6 0 0 1 6.03-4.61H7.09V76.5h14.17v14.17h-3.54v-8.15a22 22-180 0 0-6.03 3.9 21.6 21.6-180 0 0-4.25 5.32 18.8 18.8-180 0 0-2.83 6.02 24.5 24.5-180 0 0-1.07 7.09 22.3 22.3-180 0 0 1.07 6.73 16.3 16.3-180 0 0 2.48 5.67 17.4 17.4-180 0 0 3.89 4.96 17.4 17.4-180 0 0 4.96 3.9l5.67 2.83 6.74.71 6.73-.71 5.67-2.83a17.4 17.4-180 0 0 4.96-3.9 17.4 17.4-180 0 0 3.9-4.96 28.4 28.4-180 0 0 2.83-5.67 43.6 43.6-180 0 0 .71-6.73 22 22-180 0 0-1.42-8.15 24.5 24.5-180 0 0-3.54-6.74 30.8 30.8-180 0 0-6.02-5.66 25.5 25.5-180 0 0-7.09-3.19l.71-3.55a23.4 23.4 0 0 1 8.5 3.9" style="fill:#000;stroke:none;stroke-width:38.25;stroke-linecap:butt"/></g></g></svg>