<svg xmlns="http://www.w3.org/2000/svg" xml:space="preserve" width="74.571" height="74.439" style="font-size:12px;overflow:visible;color-interpolation-filters:sRGB;fill-rule:evenodd;stroke-linecap:square;stroke-miterlimit:3" viewBox="0 0 55.928 55.83"><defs><linearGradient id="a" x1="0" x2="46.114" y1="77.801" y2="77.801" gradientTransform="scale(.99362 1.00642)" gradientUnits="userSpaceOnUse"><stop offset="0" stop-color="#5ea0ef"/><stop offset=".18" stop-color="#589eed"/><stop offset=".405" stop-color="#4897e9"/><stop offset=".66" stop-color="#2e8ce1"/><stop offset=".935" stop-color="#0a7cd7"/><stop offset="1" stop-color="#0078d4"/></linearGradient></defs><g transform="translate(-34 -33.996)"><title>Page-1</title><g transform="translate(33.232 -34.016)"><title>Certificate Timeline.13526</title><title>MsPortalFx.base.images-52</title><g transform="translate(10.875 -10.288)"><title>Sheet.13528</title><path d="M16.03 110.79h13.75v13.92H16.03ZM.01 92.23h13.73V78.3H1.91A1.909 1.933-180 0 0 0 80.24Zm1.91 32.48h11.82v-13.92H.01v11.99a1.909 1.933-180 0 0 1.9 1.93zM.01 108.47h13.73V94.55H.01Zm32.07 16.24h11.83a1.909 1.933-180 0 0 1.91-1.93v-11.99H32.07Zm-16.05-16.24h13.75V94.55H16.03Zm16.04 0h13.74V94.55H32.07Zm0-30.17v13.93h13.74V80.24a1.909 1.933-180 0 0-1.91-1.94ZM16.03 92.23h13.75V78.3H16.03Z" style="fill:url(#a);stroke:none;stroke-width:34;stroke-linecap:butt"/></g><g transform="rotate(-45 1.337 121.202)"><title>Sheet.13529</title><path d="M0 122.8a1.886 1.91-180 0 0 1.89 1.91h13.94a1.886 1.91-180 0 0 1.88-1.91v-.27a1.886 1.91-180 0 0-1.88-1.91H1.89A1.886 1.91-180 0 0 0 122.53Z" style="fill:#198ab3;stroke:none;stroke-width:34;stroke-linecap:butt"/></g><g transform="translate(6.71 -7.526)"><title>Sheet.13530</title><ellipse cx="12.152" cy="112.398" rx="12.152" ry="12.311" style="fill:#50e6ff;stroke:none;stroke-width:34;stroke-linecap:butt"/></g><g transform="translate(9.298 -10.39)"><title>Sheet.13531</title><ellipse cx="9.543" cy="115.042" rx="9.543" ry="9.667" style="fill:#fff;stroke:none;stroke-width:34;stroke-linecap:butt"/></g></g></g></svg>