<svg xmlns="http://www.w3.org/2000/svg" xmlns:xlink="http://www.w3.org/1999/xlink" xml:space="preserve" width="71.809" height="75.592" style="font-size:12px;overflow:visible;color-interpolation-filters:sRGB;fill-rule:evenodd;stroke-linecap:square;stroke-miterlimit:3" viewBox="0 0 53.857 56.694"><defs><linearGradient id="a" x1="0" x2="1" y1="0" y2="0" gradientTransform="rotate(-90 .5 .5)"><stop offset="0" stop-color="#773adc"/><stop offset="1" stop-color="#b77af4"/></linearGradient><linearGradient xlink:href="#a" id="b" x1="0" x2="8.693" y1="116.923" y2="116.923" gradientTransform="scale(1.00727 .99278)" gradientUnits="userSpaceOnUse"/><linearGradient xlink:href="#a" id="c" x1="0" x2="8.693" y1="116.923" y2="116.923" gradientTransform="scale(1.00727 .99278)" gradientUnits="userSpaceOnUse"/><linearGradient xlink:href="#a" id="d" x1="0" x2="8.693" y1="116.923" y2="116.923" gradientTransform="scale(1.00727 .99278)" gradientUnits="userSpaceOnUse"/><linearGradient xlink:href="#a" id="e" x1="0" x2="8.693" y1="116.923" y2="116.923" gradientTransform="scale(1.00727 .99278)" gradientUnits="userSpaceOnUse"/></defs><g transform="translate(-34 -34)"><title>Page-1</title><g transform="translate(34 -34.016)"><title>Cluster Metrics Configuration (Operator Nexus).13512</title><title>Sheet.13513</title><g transform="translate(.878 -12.117)"><title>Sheet.13514</title><g transform="translate(11.01)"><title>Sheet.13515</title><path d="M0 123.97a.749.734-180 0 0 .749.734l5.411.006a.749.734-180 0 0 .749-.734l.001-18.426a.749.734-180 0 0-.749-.734L.75 104.81a.749.734-180 0 0-.749.734z" style="fill:#a67af4;stroke:none;stroke-width:34;stroke-linecap:butt"/></g><g transform="translate(0 -.003)"><title>Sheet.13516</title><path d="M0 123.97a.749.734-180 0 0 .749.734l5.411.006a.749.734-180 0 0 .749-.734l.001-11.546a.749.734-180 0 0-.749-.734L.75 111.69a.749.734-180 0 0-.749.734z" style="fill:#a67af4;stroke:none;stroke-width:34;stroke-linecap:butt"/></g><g transform="translate(22.018)"><title>Sheet.13517</title><path d="M17.92 109.11V98.88a.752.737-180 0 0-.752-.737l-5.418-.003a.749.734-180 0 0-.749.737L11 115.89ZM.75 124.71H2l4.93-4.81v-7.47a.752.737-180 0 0-.749-.737L.75 111.69a.749.734-180 0 0-.749.737L0 123.97a.749.734-180 0 0 .749.737z" style="fill:#a67af4;stroke:none;stroke-width:34;stroke-linecap:butt"/></g></g><g transform="translate(25.602 -5.836)"><title>Sheet.13518</title><path d="M16.72 103.95 0 120.34l.67 1.08 2.06 3.29 17.58-17.23zm4.66 2.49 3.79-3.72-2.74-2.68a1.196 1.172-180 0 0-1.69 0l-2.95 2.89z" style="fill:#0078d4;fill-opacity:.9;stroke:none;stroke-width:34;stroke-linecap:butt"/></g><g transform="translate(28.328 -3.168)"><title>Sheet.13519</title><path d="M21.19 108.33 4.46 124.71l-1.1-.65L0 122.04l17.59-17.24Zm-2.55-4.56 3.8-3.72 2.74 2.68a1.202 1.178 0 0 1 0 1.66l-2.95 2.9z" style="fill:#0078d4;stroke:none;stroke-width:34;stroke-linecap:butt"/></g><g transform="translate(22.388)"><title>Sheet.13520</title><path d="m10.4 121.56-9.18 3.15A1.202 1.178 0 0 1 0 123.56v-.04l3.21-9 2.74 4.36z" style="fill:#83b9f9;stroke:none;stroke-width:34;stroke-linecap:butt"/></g><g transform="translate(2.565 -29.547)"><title>Sheet.13521</title><path d="m33.52 100.49-10.65 18.57-11.26-11.25L0 122.56l2.72 2.1 9.21-11.64 11.69 11.69 12.92-22.52z" style="fill:#b796f9;stroke:none;stroke-width:34;stroke-linecap:butt"/></g><g transform="translate(9.93 -39.537)"><title>Sheet.13522</title><ellipse cx="4.378" cy="120.394" rx="4.378" ry="4.315" style="fill:url(#b);stroke:none;stroke-width:34;stroke-linecap:butt"/></g><g transform="translate(21.806 -28.84)"><title>Sheet.13523</title><ellipse cx="4.378" cy="120.394" rx="4.378" ry="4.315" style="fill:url(#c);stroke:none;stroke-width:34;stroke-linecap:butt"/></g><g transform="translate(32.828 -48.063)"><title>Sheet.13524</title><ellipse cx="4.378" cy="120.394" rx="4.378" ry="4.315" style="fill:url(#d);stroke:none;stroke-width:34;stroke-linecap:butt"/></g><g transform="translate(0 -26.957)"><title>Sheet.13525</title><ellipse cx="4.378" cy="120.394" rx="4.378" ry="4.315" style="fill:url(#e);stroke:none;stroke-width:34;stroke-linecap:butt"/></g></g></g></svg>