<svg xmlns="http://www.w3.org/2000/svg" xml:space="preserve" width="60.467" height="75.6" style="font-size:12px;overflow:visible;color-interpolation-filters:sRGB;fill-rule:evenodd;stroke-linecap:square;stroke-miterlimit:3" viewBox="0 0 45.35 56.7"><defs><linearGradient id="a" x1="0" x2="50.708" y1="72.45" y2="72.45" gradientTransform="scale(.89433 1.11816)" gradientUnits="userSpaceOnUse"><stop offset="0" stop-color="#0078d4"/><stop offset=".82" stop-color="#5ea0ef"/></linearGradient></defs><g transform="translate(-40.507 -40.504)"><title>Page-1</title><g transform="translate(40.507 -40.507)"><title>Compliance.13504</title><title>g20</title><g transform="translate(.327 -.434)"><title>path11</title><path d="M25.62 81.88H1.86A1.863 1.9-180 0 0 0 83.78v52.03a1.863 1.9-180 0 0 1.86 1.9h40.98a1.863 1.9-180 0 0 1.86-1.9v-34.42a1.895 1.934-180 0 0-1.86-1.93H29.25a1.83 1.868 0 0 1-1.87-1.91V83.78a1.863 1.9-180 0 0-1.76-1.9" style="fill:#fff;stroke:none;stroke-width:40.50669861;stroke-linecap:butt"/></g><title>path13</title><path d="M24.96 83.88v13.07a4.705 4.802-180 0 0 4.71 4.77h12.91v33.12H2.78V83.88Zm.98-2.87H1.9A1.895 1.934-180 0 0 0 82.95v52.82a1.895 1.934-180 0 0 1.9 1.94h41.56a1.895 1.934-180 0 0 1.89-1.94v-34.95a1.895 1.934-180 0 0-1.89-1.93H29.67a1.895 1.934 0 0 1-1.9-1.94v-14a1.895 1.934-180 0 0-1.83-1.94" style="fill:url(#a);stroke:none;stroke-width:40.50669861;stroke-linecap:butt"/><g transform="translate(27.121 -38.351)"><title>path15</title><path d="M17.51 137.71 0 119.8v14.57a3.268 3.335-180 0 0 3.27 3.34z" style="fill:#0078d4;stroke:none;stroke-width:40.50669861;stroke-linecap:butt"/></g><g transform="translate(17.122 -8.016)"><title>a3a9e1d3-9e08-4e6c-b1f3-95c11e8</title><path d="M10.16 124.65a7.221 7.37 0 0 1-9.57 0L0 136.75a.948.967-180 0 0 1.634.734l3.656-3.834 3.73 3.74a.948.967-180 0 0 1.601-.734z" style="fill:#b31b1b;stroke:none;stroke-width:40.50669861;stroke-linecap:butt"/></g><g transform="translate(14.083 -18.575)"><title>a09a1db5-9087-43a3-902a-422185a</title><ellipse cx="8.528" cy="128.969" rx="8.528" ry="8.737" style="fill:#e62323;stroke:none;stroke-width:40.50669861;stroke-linecap:butt"/></g><g transform="translate(16.142 -20.676)"><title>ac490612-dbc7-498b-b2fc-d820fcb</title><ellipse cx="6.47" cy="131.07" rx="6.47" ry="6.636" style="fill:#ffd400;stroke:none;stroke-width:40.50669861;stroke-linecap:butt"/></g></g></g></svg>