<svg xmlns="http://www.w3.org/2000/svg" xml:space="preserve" width="75.589" height="75.597" style="font-size:12px;overflow:visible;color-interpolation-filters:sRGB;fill-rule:evenodd;stroke-linecap:square;stroke-miterlimit:3" viewBox="0 0 56.692 56.698"><defs><linearGradient id="a" x1="0" x2="39.737" y1="74.529" y2="74.529" gradientTransform="scale(.91627 1.09138)" gradientUnits="userSpaceOnUse"><stop offset="0" stop-color="#5e9624"/><stop offset=".26" stop-color="#70a828"/><stop offset=".79" stop-color="#9fd732"/><stop offset="1" stop-color="#b4ec36"/></linearGradient></defs><g transform="translate(-34 -33.998)"><title>Page-1</title><g transform="translate(34 -34.016)"><title>Conditional Access.13495</title><title>Icon-intune-336</title><g transform="translate(0 -9.407)"><title>Sheet.13497</title><path d="M39.7 99.5c0 12.71-15.79 22.94-19.21 25.01a1.176 1.167 0 0 1-1.31 0C15.75 122.44 0 112.21 0 99.5V84.19a1.243 1.234 0 0 1 1.21-1.2c12.26-.33 9.44-5.57 18.64-5.57s6.35 5.24 18.57 5.57a1.276 1.267 0 0 1 1.24 1.2z" style="fill:#86d633;stroke:none;stroke-width:34;stroke-linecap:butt"/></g><g transform="translate(1.646 -11.36)"><title>Sheet.13498</title><path d="M36.41 101.59c0 11.67-14.48 21.04-17.6 22.94a1.108 1.1 0 0 1-1.21 0C14.44 122.63 0 113.26 0 101.59V87.71a1.108 1.1 0 0 1 1.11-1.1c11.25-.46 8.8-5.27 17.09-5.27 8.3 0 5.85 4.81 17.07 5.11a1.142 1.134 0 0 1 1.14 1.1z" style="fill:url(#a);stroke:none;stroke-width:34;stroke-linecap:butt"/></g><g transform="translate(18.002)"><title>Sheet.13499</title><path d="M1.24 95.19h36.21a1.176 1.167 0 0 1 1.24 1.11v27.31a1.176 1.167 0 0 1-1.24 1.1H1.24a1.21 1.2 0 0 1-1.24-1.1V96.36a1.21 1.2 0 0 1 1.24-1.17" style="fill:#9cebff;stroke:none;stroke-width:34;stroke-linecap:butt"/></g><g transform="translate(18.002 -4.469)"><title>Sheet.13500</title><path d="M1.18 99.66h36.34a1.108 1.1 0 0 1 1.17 1.04v4.13H0v-4a1.108 1.1 0 0 1 1.18-1.03Zm32.24 15.88H9.54c-.54 0-.94.26-.94.53v1.44c0 .3.4.53.94.53h23.88c.54 0 .97-.23.97-.53v-1.34c0-.37-.54-.63-.97-.63m0-6.01H9.54c-.54 0-.94.24-.94.54v1.3c0 .3.4.53.94.53h23.88c.54 0 .97-.23.97-.53v-1.3c0-.3-.54-.54-.97-.54m0 12.78H9.54c-.54 0-.94.23-.94.53v1.34c0 .3.4.53.94.53h23.88c.54 0 .97-.23.97-.53v-1.34c0-.3-.54-.53-.97-.53" style="fill:#0078d4;stroke:none;stroke-width:34;stroke-linecap:butt"/></g><g transform="translate(21.058 -16.908)"><title>Sheet.13501</title><ellipse cx="1.579" cy="123.141" rx="1.579" ry="1.567" style="fill:#0078d4;stroke:none;stroke-width:34;stroke-linecap:butt"/></g><g transform="translate(21.058 -10.872)"><title>Sheet.13502</title><ellipse cx="1.579" cy="123.141" rx="1.579" ry="1.567" style="fill:#0078d4;stroke:none;stroke-width:34;stroke-linecap:butt"/></g><g transform="translate(21.058 -4.102)"><title>Sheet.13503</title><ellipse cx="1.579" cy="123.141" rx="1.579" ry="1.567" style="fill:#0078d4;stroke:none;stroke-width:34;stroke-linecap:butt"/></g></g></g></svg>