<svg xmlns="http://www.w3.org/2000/svg" xml:space="preserve" width="68.026" height="75.586" style="font-size:12px;overflow:visible;color-interpolation-filters:sRGB;fill-rule:evenodd;stroke-linecap:square;stroke-miterlimit:3" viewBox="0 0 51.02 56.69"><g transform="translate(-12.24 -12.244)"><title>Page-1</title><g transform="translate(12.24 -34.016)"><title>Configuration Management.13489</title><title>g12</title><title>path4</title><path d="M40.82 46.26H0v56.69h51.02V56.33Z" style="fill:#a0a1a2;stroke:none;stroke-width:12.23999977;stroke-linecap:butt"/><g transform="translate(2.551 -2.52)"><title>path6</title><path d="M36.99 51.3H0v51.65h45.92V60.11h-8.93z" style="fill:#3999c6;stroke:none;stroke-width:12.23999977;stroke-linecap:butt"/></g><g transform="translate(7.351 -8.69)"><title>path8</title><path d="M16.88 72.58c0-.7.59-1.26 1.32-1.26h15.23c.73 0 1.31.56 1.31 1.26s-.58 1.26-1.31 1.26H18.2c-.73 0-1.32-.56-1.32-1.26m0 12.6c0-.7.59-1.26 1.32-1.26h15.23c.73 0 1.31.56 1.31 1.26s-.58 1.26-1.31 1.26H18.2c-.73 0-1.32-.56-1.32-1.26M.62 71.92l-.49-.52a.34.34 0 0 1 .02-.49l1.41-1.29a.344.34 0 0 1 .491.02l3.899 4.12 6.7-8.48a.346.341 0 0 1 .491-.058l1.529 1.168a.334.33 0 0 1 .134.226.34.335 0 0 1-.075.251L6.12 77.75Zm0 12.6L.13 84a.34.34 0 0 1 .02-.49l1.41-1.3a.344.34 0 0 1 .491.02l3.899 4.13 6.7-8.48a.346.341 0 0 1 .491-.058l1.529 1.168a.334.33 0 0 1 .134.226.34.335 0 0 1-.075.251L6.12 90.35Zm16.26 13.26c0-.7.59-1.26 1.32-1.26h15.23c.73 0 1.31.56 1.31 1.26s-.58 1.26-1.31 1.26H18.2c-.73 0-1.32-.56-1.32-1.26M.62 97.12l-.49-.52a.34.34 0 0 1 .02-.49l1.41-1.3a.344.34 0 0 1 .491.02l3.899 4.13 6.7-8.48a.346.341 0 0 1 .491-.058l1.529 1.168a.334.33 0 0 1 .134.226.34.335 0 0 1-.075.251L6.12 102.95Z" style="fill:#fff;stroke:none;stroke-width:12.23999977;stroke-linecap:butt"/></g><g transform="translate(39.543 -44.094)"><title>path10</title><path d="M0 101.689h8.929v1.26H0z" style="fill:#000;fill-opacity:.2;stroke:none;stroke-width:12.23999977;stroke-linecap:butt"/></g></g></g></svg>