<svg xmlns="http://www.w3.org/2000/svg" xml:space="preserve" width="75.59" height="75.589" style="font-size:12px;overflow:visible;color-interpolation-filters:sRGB;fill-rule:evenodd;stroke-linecap:square;stroke-miterlimit:3" viewBox="0 0 56.693 56.692"><g transform="translate(-12.24 -12.241)"><title>Page-1</title><g transform="translate(12.24 -34.016)"><title>Connection Monitor.13475</title><title>g28</title><g transform="translate(9.089 -4.522)"><title>path4</title><path d="M26.61 90.81H11.17c1.85 6.69-.25 8.66-11.17 8.66v3.48h36.75v-3.5c-10.92 0-11.99-1.94-10.14-8.64" style="fill:#7a7a7a;stroke:none;stroke-width:12.23999977;stroke-linecap:butt"/></g><g transform="translate(0 -16.653)"><title>path6</title><path d="M51.09 62.91H3.1c-1.72 0-3.1 1.56-3.1 3.3v33.47c0 1.73 1.38 3.27 3.1 3.27h47.99c1.71 0 3.45-1.54 3.45-3.27V66.21c-.01-1.75-1.74-3.3-3.45-3.3" style="fill:#a0a1a2;stroke:none;stroke-width:12.23999977;stroke-linecap:butt"/></g><g transform="translate(0 -16.652)"><title>path8</title><path d="M50.96 62.91H3.09c-1.71 0-3.09 1.56-3.09 3.3v33.46c0 1.74 1.38 3.28 3.09 3.28h1.19z" style="fill:#fff;fill-opacity:.2;stroke:none;stroke-width:12.23999977;stroke-linecap:butt"/></g><g transform="translate(4.545 -20.753)"><title>path10</title><path d="M0 71.646h45.445v31.303H0z" style="fill:#59b4d9;stroke:none;stroke-width:12.23999977;stroke-linecap:butt"/></g><g transform="translate(4.479 -21.113)"><title>path12</title><path d="M0 102.95h.07V71.83l41.5-.07L0 71.83Z" style="fill:#59b4d9;stroke:none;stroke-width:12.23999977;stroke-linecap:butt"/></g><g transform="translate(9.089 -4.522)"><title>path14</title><path d="m0 99.47 36.75-.02v3.5H0Z" style="fill:#a0a1a2;stroke:none;stroke-width:12.23999977;stroke-linecap:butt"/></g><g transform="translate(26.46 -53.551)"><title>path16</title><path d="M1.61 102.13a.807.823 0 1 1-1.613 0 .807.823 0 1 1 1.613 0" style="fill:#b8d432;stroke:none;stroke-width:12.23999977;stroke-linecap:butt"/></g><g transform="translate(17.448 -37.802)"><title>path18</title><path d="M9.85 102.95a.3.306 0 0 1-.145-.042L.14 97.27a.29.297 0 0 1 0-.511l9.51-5.589a.29.296 0 0 1 .285 0L19.5 96.8a.287.293 0 0 1 .142.255.285.291 0 0 1-.142.255l-9.5 5.6a.292.298 0 0 1-.147.043z" style="fill:#fff;stroke:none;stroke-width:12.23999977;stroke-linecap:butt"/></g><g transform="translate(16.02 -23.955)"><title>path20</title><path d="M9.83 102.95a.27.276 0 0 1-.145-.04L.15 97.36a.28.285 0 0 1-.148-.253L0 85.97c0-.11.06-.2.15-.26a.29.296 0 0 1 .29 0l9.53 5.55a.297.303 0 0 1 .14.254v11.146c0 .1-.06.2-.14.25a.304.31 0 0 1-.144.04z" style="fill:#fff;fill-opacity:.7;stroke:none;stroke-width:12.23999977;stroke-linecap:butt"/></g><g transform="translate(28.403 -23.955)"><title>path22</title><path d="M.29 102.95a.31.317 0 0 1-.15-.04.293.3 0 0 1-.14-.253V91.59a.295.301 0 0 1 .14-.253l9.53-5.547a.286.292 0 0 1 .286 0 .27.27 0 0 1 .144.25V97.1a.28.285 0 0 1-.147.253L.43 102.91a.248.253 0 0 1-.139.04z" style="fill:#fff;fill-opacity:.4;stroke:none;stroke-width:12.23999977;stroke-linecap:butt"/></g><g transform="translate(29.653)"><title>circle24</title><ellipse cx="13.52" cy="89.152" rx="13.52" ry="13.796" style="fill:#804998;stroke:none;stroke-width:12.23999977;stroke-linecap:butt"/></g><g transform="translate(33.382 -3.805)"><title>path26</title><path d="M12.85 99.28a6.805 6.945 0 0 1-3.06.75 6.935 7.077 0 0 1-6.93-7.07 6.935 7.077 0 0 1 6.93-7.07c3.41 0 6.24 2.6 6.82 5.91H13.2l4.54 6.37 4.55-6.37H19.5c-.6-4.93-4.72-8.83-9.71-8.83-5.4 0-9.79 4.48-9.79 9.99s4.39 9.99 9.79 9.99a9.738 9.937-180 0 0 4.77-1.28z" style="fill:#fff;stroke:none;stroke-width:12.23999977;stroke-linecap:butt"/></g></g></g></svg>