<svg xmlns="http://www.w3.org/2000/svg" xml:space="preserve" width="68.026" height="75.596" style="font-size:12px;overflow:visible;color-interpolation-filters:sRGB;fill-rule:evenodd;stroke-linecap:square;stroke-miterlimit:3" viewBox="0 0 51.02 56.697"><g transform="translate(-12.24 -12.24)"><title>Page-1</title><g transform="translate(12.24 -34.016)"><title>Cost Management.13431</title><title>Sheet.13432</title><title>Sheet.13433</title><path d="M23.86 46.69 1.69 59.22A3.34 3.323-180 0 0 0 62.11v24.98a3.34 3.323-180 0 0 1.69 2.89l22.17 12.54a3.342 3.325-180 0 0 3.3 0l22.17-12.54a3.34 3.323-180 0 0 1.69-2.89V62.11a3.34 3.323-180 0 0-1.69-2.89L27.16 46.69a3.342 3.325-180 0 0-3.3 0" style="fill:#57a300;stroke:none;stroke-width:12.23999977;stroke-linecap:butt"/><g transform="translate(0 -4.466)"><title>Sheet.13434</title><path d="m34.22 55.14-7.06-3.98a3.342 3.325-180 0 0-3.3 0L1.69 63.69A3.34 3.323-180 0 0 0 66.58v24.98a3.34 3.323-180 0 0 1.69 2.89l15.04 8.5z" style="fill:#b8d432;fill-opacity:.4;stroke:none;stroke-width:12.23999977;stroke-linecap:butt"/></g><g transform="translate(22.149 -44.615)"><title>Sheet.13435</title><ellipse cx="3.363" cy="99.603" rx="3.363" ry="3.346" style="fill:#fff;stroke:none;stroke-width:12.23999977;stroke-linecap:butt"/></g><g transform="translate(22.149 -5.386)"><title>Sheet.13436</title><ellipse cx="3.363" cy="99.603" rx="3.363" ry="3.346" style="fill:#fff;stroke:none;stroke-width:12.23999977;stroke-linecap:butt"/></g><g transform="translate(14.21 -13.385)"><title>Sheet.13437</title><path d="M22.92 94.5c0 4.9-4.88 8.45-11.6 8.45-5.91 0-9.62-2.22-11.32-6.78l5.77-1.08c.75 1.61 2.4 3.44 6.03 3.44s4.99-2.17 4.99-3.54c0-2.85-3.45-3.83-4.94-4.12-6.3-1.25-10.76-2.68-10.76-9.86 0-5.89 5.51-7.98 10.23-7.98 5.16 0 8.51 1.69 10.25 5.18l-4.99 1.58c-1.05-1.78-2.83-2.72-5.18-2.72-3.42 0-4.32 2.35-4.32 3.59 0 1.71 1.71 3.21 4.36 3.82 3.33.77 5.66 1.36 7.02 1.93 2.16.9 4.46 3.5 4.46 8.09" style="fill:#fff;stroke:none;stroke-width:12.23999977;stroke-linecap:butt"/></g><g transform="translate(22.149 -44.615)"><title>Sheet.13438</title><ellipse cx="3.363" cy="99.603" rx="3.363" ry="3.346" style="fill:#57a300;fill-opacity:.2;stroke:none;stroke-width:12.23999977;stroke-linecap:butt"/></g><g transform="translate(22.149 -5.386)"><title>Sheet.13439</title><ellipse cx="3.363" cy="99.603" rx="3.363" ry="3.346" style="fill:#57a300;fill-opacity:.2;stroke:none;stroke-width:12.23999977;stroke-linecap:butt"/></g><g transform="translate(14.21 -13.385)"><title>Sheet.13440</title><path d="M22.92 94.5c0 4.9-4.88 8.45-11.6 8.45-5.91 0-9.62-2.22-11.32-6.78l5.77-1.08c.75 1.61 2.4 3.44 6.03 3.44s4.99-2.17 4.99-3.54c0-2.85-3.45-3.83-4.94-4.12-6.3-1.25-10.76-2.68-10.76-9.86 0-5.89 5.51-7.98 10.23-7.98 5.16 0 8.51 1.69 10.25 5.18l-4.99 1.58c-1.05-1.78-2.83-2.72-5.18-2.72-3.42 0-4.32 2.35-4.32 3.59 0 1.71 1.71 3.21 4.36 3.82 3.33.77 5.66 1.36 7.02 1.93 2.16.9 4.46 3.5 4.46 8.09" style="fill:#57a300;fill-opacity:.2;stroke:none;stroke-width:12.23999977;stroke-linecap:butt"/></g></g></g></svg>