<svg xmlns="http://www.w3.org/2000/svg" xml:space="preserve" width="75.587" height="64.256" style="font-size:12px;overflow:visible;color-interpolation-filters:sRGB;fill-rule:evenodd;stroke-linecap:square;stroke-miterlimit:3" viewBox="0 0 56.69 48.192"><defs><linearGradient id="a" x1="0" x2="40.125" y1="107.04" y2="107.04" gradientTransform="scale(1.22443 .8167)" gradientUnits="userSpaceOnUse"><stop offset=".225" stop-color="#32d4f5"/><stop offset=".475" stop-color="#31d1f3"/><stop offset=".635" stop-color="#2ec9eb"/><stop offset=".77" stop-color="#29bade"/><stop offset=".89" stop-color="#22a5cb"/><stop offset="1" stop-color="#198ab3"/><stop offset="1" stop-color="#198ab3"/></linearGradient></defs><g transform="translate(-36 -35.998)"><title>Page-1</title><g transform="translate(36 -36)"><title>Cost.13424</title><title>Icon-nameAsset 7</title><title>Sheet.13426</title><g transform="translate(0 -15.422)"><title>Sheet.13427</title><path d="M49.13 116.34a3.778 3.854 0 0 1-3.78 3.85H3.78A3.778 3.854 0 0 1 0 116.34V91.28a3.778 3.854 0 0 1 3.78-3.86h41.57a3.778 3.854 0 0 1 3.78 3.86z" style="fill:#0078d4;stroke:none;stroke-width:36;stroke-linecap:butt"/></g><g transform="translate(7.56)"><title>Sheet.13428</title><path d="M49.13 116.33a3.782 3.857 0 0 1-3.78 3.86H3.78A3.782 3.857 0 0 1 0 116.33V91.28a3.782 3.857 0 0 1 3.78-3.86h41.57a3.782 3.857 0 0 1 3.78 3.86z" style="fill:url(#a);stroke:none;stroke-width:36;stroke-linecap:butt"/></g><g transform="translate(13.23 -5.783)"><title>Sheet.13429</title><path d="M19.84 110.55h5.67a.947.966 0 0 1 .944.966l.006 1.924a.947.966 0 0 1-.944.966l-5.676.004a.947.966 0 0 1-.947-.966l.007-1.924a.947.966 0 0 1 .947-.966zm9.45 0h5.67a.947.966 0 0 1 .944.966l-.004 1.924a.947.966 0 0 1-.944.966l-5.666.004a.947.966 0 0 1-.944-.966l.004-1.924a.947.966 0 0 1 .944-.966zm-28.35 0h5.67a.947.966 0 0 1 .944.966l.006 1.924a.947.966 0 0 1-.944.966l-5.676.004a.947.966 0 0 1-.944-.966L0 111.52a.947.966 0 0 1 .944-.966zm0 7.71h13.23a.944.963 0 0 1 .944.963.947.966 0 0 1-.944.966l-13.23.001a.947.966 0 0 1-.944-.966.944.963 0 0 1 .944-.963Zm18.9 0h3.78a.944.963 0 0 1 .944.963.947.966 0 0 1-.944.966h-3.78a.947.966 0 0 1-.947-.965.947.966 0 0 1 .947-.963Zm-9.45-7.71h5.67a.947.966 0 0 1 .947.966l.003 1.924a.947.966 0 0 1-.947.966l-5.673.004a.947.966 0 0 1-.944-.966l.004-1.924a.947.966 0 0 1 .944-.966zm-.94-5.35a1.54 1.571 0 0 1-1.61 1.5H1.6a1.54 1.571 0 0 1-1.6-1.5v-4.29c0-.83.72-1.93 1.6-1.93h6.24a1.544 1.575 0 0 1 1.61 1.51z" style="fill:#fff;stroke:none;stroke-width:36;stroke-linecap:butt"/></g><g transform="translate(0 -38.553)"><title>Sheet.13430</title><path d="M0 116.335h49.133v3.854H0z" style="fill:#e6e6e6;stroke:none;stroke-width:36;stroke-linecap:butt"/></g></g></g></svg>