<svg xmlns="http://www.w3.org/2000/svg" xml:space="preserve" width="68.287" height="75.592" style="font-size:12px;overflow:visible;color-interpolation-filters:sRGB;fill-rule:evenodd;stroke-linecap:square;stroke-miterlimit:3" viewBox="0 0 51.215 56.694"><g transform="translate(-12.24 -12.24)"><title>Page-1</title><g transform="translate(12.24 -34.016)"><title>Cost Analysis.13458</title><title>g22</title><g transform="translate(9.225 -48.813)"><title>circle4</title><ellipse cx="4.028" cy="99.008" rx="4.028" ry="3.94" style="fill:#57a300;stroke:none;stroke-width:12.23999977;stroke-linecap:butt"/></g><g transform="translate(9.225 -1.948)"><title>circle6</title><ellipse cx="4.028" cy="99.008" rx="4.028" ry="3.94" style="fill:#57a300;stroke:none;stroke-width:12.23999977;stroke-linecap:butt"/></g><g transform="translate(0 -11.703)"><title>path8</title><path d="M27.45 93c0 5.76-5.84 9.95-13.89 9.95-7.09 0-11.52-2.61-13.56-7.98l6.91-1.27c.9 1.89 2.87 4.05 7.22 4.05 4.36 0 5.98-2.56 5.98-4.17 0-3.35-4.13-4.52-5.91-4.86-7.55-1.46-12.89-3.15-12.89-11.61 0-6.94 6.6-9.4 12.25-9.4 6.18 0 10.19 2 12.27 6.11l-5.97 1.85c-1.25-2.09-3.39-3.19-6.2-3.19-4.09 0-5.18 2.76-5.18 4.22 0 2.01 2.05 3.78 5.23 4.5 3.98.9 6.77 1.6 8.4 2.27 2.58 1.06 5.34 4.13 5.34 9.53" style="fill:#57a300;stroke:none;stroke-width:12.23999977;stroke-linecap:butt"/></g><g transform="translate(37.405)"><title>path10</title><path d="M11.34 102.95c-.66 0-1.28-.25-1.74-.71L0 92.86l3.49-3.42 9.6 9.39a2.47 2.415 0 0 1-1.75 4.12" style="fill:#000;stroke:none;stroke-width:12.23999977;stroke-linecap:butt"/></g><g transform="translate(38.383 -7.01)"><title>path12</title><path d="m0 100.83 3.49-3.42 2.17 2.12a13.328 13.038 0 0 1-3.49 3.42z" style="fill:#000;fill-opacity:.4;stroke:none;stroke-width:12.23999977;stroke-linecap:butt"/></g><g transform="translate(16.417 -9)"><title>circle14</title><ellipse cx="12.798" cy="90.43" rx="12.798" ry="12.519" style="fill:#fff;stroke:none;stroke-width:12.23999977;stroke-linecap:butt"/></g><g transform="translate(18.232 -10.072)"><title>path16</title><path d="M0 86.43c1.97.89 4.48 3 4.48 5.51 0 1.42-1.68 4.28-4.26 5.29.76 2.17 2.62 4.12 4.22 5.72 5.5-1.95 8.41-6.53 8.41-11.48 0-6.61-3.99-10.36-7.15-11.66-.25-.1-4.75 3.49-5.7 6.62" style="fill:#b8d432;stroke:none;stroke-width:12.23999977;stroke-linecap:butt"/></g><g transform="translate(17.48 -10.04)"><title>path18</title><path d="M11.73 81.19c5.8 0 10.51 4.61 10.51 10.28s-4.71 10.28-10.51 10.28c-5.79 0-10.5-4.61-10.5-10.28s4.71-10.28 10.5-10.28m0-1.2C5.25 79.99 0 85.13 0 91.47s5.25 11.48 11.73 11.48 11.74-5.14 11.74-11.48-5.26-11.48-11.74-11.48" style="fill:#fff;fill-opacity:.5;stroke:none;stroke-width:12.23999977;stroke-linecap:butt"/></g><g transform="translate(13.376 -6.008)"><title>path20</title><path d="M0 87.45c0 8.56 7.09 15.5 15.85 15.5 8.75 0 15.84-6.94 15.84-15.5s-7.09-15.5-15.84-15.5C7.09 71.95 0 78.89 0 87.45m4.1 0c0-6.35 5.26-11.49 11.75-11.49 6.48 0 11.74 5.14 11.74 11.49 0 6.34-5.26 11.48-11.74 11.48-6.49 0-11.75-5.14-11.75-11.48" style="fill:#000;stroke:none;stroke-width:12.23999977;stroke-linecap:butt"/></g></g></g></svg>