<svg xmlns="http://www.w3.org/2000/svg" xml:space="preserve" width="71.815" height="75.592" style="font-size:12px;overflow:visible;color-interpolation-filters:sRGB;fill-rule:evenodd;stroke-linecap:square;stroke-miterlimit:3" viewBox="0 0 53.861 56.694"><defs><radialGradient id="a" cx="0" cy="38.345" r="66.502" fx="0" fy="38.345" gradientTransform="scale(.8907 1.1227)" gradientUnits="userSpaceOnUse"><stop offset="0" stop-color="#76bc2d"/><stop offset=".41" stop-color="#74b92c"/><stop offset=".66" stop-color="#6fb12a"/><stop offset=".88" stop-color="#66a227"/><stop offset="1" stop-color="#5e9624"/></radialGradient></defs><g transform="translate(-5.386 -5.67)"><title>Page-1</title><g transform="translate(5.386 -34.016)"><title>Cost Management and Billing.13448</title><g transform="translate(21.122 -18.298)"><title>path17</title><path d="M8.95 90.51a3.172 3.333 0 0 1-.99 2.64 4.726 4.966 0 0 1-2.82 1.23v2h-1.4v-2.07a7.486 7.866 0 0 1-3.48-.93v-2.7a5.71 6-180 0 0 1.58.83 7.898 8.299-180 0 0 1.9.47v-3.47a7.676 8.066 0 0 1-2.88-1.76 3.648 3.833 0 0 1 .19-5.17 4.472 4.7 0 0 1 2.69-1.27v-1.83h1.37v1.8a7.01 7.366 0 0 1 2.92.67v2.66a7.232 7.6-180 0 0-2.92-1.03v3.8a7.422 7.799 0 0 1 2.92 1.8 3.172 3.333 0 0 1 .92 2.33m-5.21-4.76v-3.1a1.269 1.333-180 0 0-1.14 1.4c0 .7.42 1.26 1.27 1.7zm2.7 4.9c0-.64-.44-1.14-1.33-1.57v3c.89-.17 1.33-.63 1.33-1.43" style="fill:#fc0;stroke:none;stroke-width:4.91886997"/></g><g transform="translate(34.7 -6.7)"><title>path19</title><path d="M16.11 76.41H4.69a14.051 14.765 0 0 1-4.69 11l7.58 8.97a25.375 26.663-180 0 0 8.53-20z" style="fill:#ffca00"/><path d="M16.11 76.41H4.69a14.051 14.765 0 0 1-4.69 11l7.58 8.97a25.375 26.663-180 0 0 8.53-20" style="stroke:none;stroke-width:4.91886997"/></g><title>path21</title><path d="M25.37 84.51a14.052 14.765 0 0 1 0-29.53V43.05A25.375 26.663-180 0 0 0 69.71a25.375 26.663-180 0 0 25.37 26.67 25.375 26.663-180 0 0 16.94-6.67l-7.61-8.96a13.893 14.598 0 0 1-9.33 3.76" style="fill:url(#a);stroke:none;stroke-width:4.91886997"/><g transform="translate(24.201 -25.564)"><title>path23</title><path d="M0 65.25v13.86a16.145 16.965 0 0 1 16.4 17.27h13.26A29.625 31.13-180 0 0 0 65.25" style="fill:#f60;stroke:none;stroke-width:4.91886997"/></g><g transform="translate(24.201 -25.564)"><title>path25</title><path d="M16.46 96.38A16.272 17.098-180 0 0 .41 79.11H0l1.05 2.07a14.273 14.998 0 0 1 13.41 14.16z" style="fill:#a40;stroke:none;stroke-width:4.91886997"/></g></g></g></svg>