<svg xmlns="http://www.w3.org/2000/svg" xml:space="preserve" width="75.547" height="75.56" style="font-size:12px;overflow:visible;color-interpolation-filters:sRGB;fill-rule:evenodd;stroke-linecap:square;stroke-miterlimit:3" viewBox="0 0 56.66 56.67"><g transform="translate(-12.24 -12.244)"><title>Page-1</title><g transform="translate(12.24 -34.016)"><title>Cost Alert.13469</title><title>g12</title><title>path4</title><path d="M49.16 46.26H7.12C2.96 46.23 0 48.74 0 52.87v29.72c0 4.2 3.02 7.92 7.18 7.97l14.38-.1 13.61 12.47V90.46l13.87.16c4.15.03 7.56-3.32 7.56-7.47l.06-29.83c.03-4.13-3.34-7.06-7.5-7.06" style="fill:#57a300;stroke:none;stroke-width:12.23999977;stroke-linecap:butt"/><g transform="translate(25.541 -48.212)"><title>circle6</title><ellipse cx="2.791" cy="100.135" rx="2.791" ry="2.792" style="fill:#fff;fill-opacity:.9;stroke:none;stroke-width:12.23999977;stroke-linecap:butt"/></g><g transform="translate(25.541 -14.21)"><title>circle8</title><ellipse cx="2.791" cy="100.135" rx="2.791" ry="2.792" style="fill:#fff;fill-opacity:.9;stroke:none;stroke-width:12.23999977;stroke-linecap:butt"/></g><g transform="translate(18.82 -21.52)"><title>path10</title><path d="M19.02 95.88c0 4.08-4.05 7.05-9.63 7.05-4.9 0-7.98-1.85-9.39-5.66l4.79-.9c.62 1.34 1.99 2.87 5 2.87 3.02 0 4.14-1.81 4.14-2.95 0-2.38-2.86-3.2-4.09-3.44C4.61 91.81.91 90.61.91 84.63c0-4.92 4.57-6.67 8.48-6.67 4.29 0 7.07 1.42 8.51 4.33l-4.14 1.31c-.87-1.48-2.35-2.26-4.29-2.26-2.84 0-3.59 1.96-3.59 2.99 0 1.43 1.42 2.68 3.62 3.19 2.76.64 4.69 1.13 5.82 1.61 1.79.75 3.7 2.92 3.7 6.75" style="fill:#fff;fill-opacity:.9;stroke:none;stroke-width:12.23999977;stroke-linecap:butt"/></g></g></g></svg>