<svg xmlns="http://www.w3.org/2000/svg" xml:space="preserve" width="75.587" height="75.588" style="font-size:12px;overflow:visible;color-interpolation-filters:sRGB;fill-rule:evenodd;stroke-linecap:square;stroke-miterlimit:3" viewBox="0 0 56.69 56.692"><g transform="translate(-12.24 -12.243)"><title>Page-1</title><g transform="translate(12.24 -34.016)"><title>Cost Management for AWS.13441</title><title>Sheet.13442</title><g transform="translate(0 -25.881)"><title>Sheet.13443</title><path d="M38.65 85.36c.01-.19.03-.38.03-.58 0-6.98-5.57-12.64-12.43-12.64a12.424 12.654-180 0 0-11.06 6.87 11.983 12.205-180 0 0-3.2-.45C5.37 78.56 0 84.02 0 90.75c0 .14.02.27.02.4s-.02.25-.02.38c0 6.31 5.13 11.42 11.47 11.42h25.47c4.93 0 8.92-3.98 8.92-8.88 0-4.32-3.1-7.92-7.21-8.71" style="fill:#59b4d9;stroke:none;stroke-width:12.23999977;stroke-linecap:butt"/></g><g transform="translate(0 -25.881)"><title>Sheet.13444</title><path d="M38.65 85.36c.01-.19.03-.38.03-.58 0-6.98-5.57-12.64-12.43-12.64a12.424 12.654-180 0 0-11.06 6.87 11.983 12.205-180 0 0-3.2-.45C5.37 78.56 0 84.02 0 90.75c0 .14.02.27.02.4s-.02.25-.02.38c0 6.31 5.13 11.42 11.47 11.42h25.47c4.93 0 8.92-3.98 8.92-8.88 0-4.32-3.1-7.92-7.21-8.71" style="fill:#fff;fill-opacity:.2;stroke:none;stroke-width:12.23999977;stroke-linecap:butt"/></g><g transform="translate(4.9 -18.262)"><title>Sheet.13445</title><path d="M25.51 97.28 11.82 83.35c.01-.12.04-.23.04-.34 0-3.34-2.66-6.04-5.93-6.04S0 79.67 0 83.01c0 3.33 2.66 6.03 5.93 6.03.11 0 .22-.02.33-.03l13.69 13.94z" style="fill:#3999c6;fill-opacity:.4;stroke:none;stroke-width:12.23999977;stroke-linecap:butt"/></g><g transform="translate(3.69)"><title>Sheet.13446</title><path d="M8.33 82.61c0-.22-.03-.44-.03-.66 0-8.07 6.44-14.62 14.37-14.62 5.57 0 10.39 3.23 12.78 7.95a13.861 14.118 0 0 1 3.69-.52C46.8 74.76 53 81.07 53 88.85c0 .16-.02.3-.02.46 0 .15.02.29.02.44 0 7.29-5.93 13.2-13.25 13.2H10.31C4.61 102.95 0 98.35 0 92.68c0-4.99 3.59-9.15 8.33-10.07" style="fill:#3999c6;stroke:none;stroke-width:12.23999977;stroke-linecap:butt"/></g><g transform="translate(6.05 -17.914)"><title>Sheet.13447</title><path d="M20.51 92.64c-.74 0-1.45.15-2.1.41l-9-9.17a4.756 4.844-180 0 0 .15-1.16 4.78 4.868-180 1 0-9.56 0 4.78 4.868-180 0 0 4.78 4.87 4.743 4.831-180 0 0 1.24-.19l8.96 9.14a5.875 5.984-180 0 0-.4 2.14 5.93 6.039-180 1 0 5.93-6.04" style="fill:#fff;stroke:none;stroke-width:12.23999977;stroke-linecap:butt"/></g></g></g></svg>