<svg xmlns="http://www.w3.org/2000/svg" xml:space="preserve" width="75.587" height="52.913" style="font-size:12px;overflow:visible;color-interpolation-filters:sRGB;fill-rule:evenodd;stroke-linecap:square;stroke-miterlimit:3" viewBox="0 0 56.69 39.685"><defs><linearGradient id="a" x1="0" x2="47.431" y1="81.294" y2="81.294" gradientTransform="scale(1.1952 .83668)" gradientUnits="userSpaceOnUse"><stop offset=".09" stop-color="#6cc6b9"/><stop offset=".465" stop-color="#6ac4b7"/><stop offset=".635" stop-color="#62bdb0"/><stop offset=".77" stop-color="#56b1a4"/><stop offset=".88" stop-color="#439f93"/><stop offset=".975" stop-color="#2c897d"/><stop offset="1" stop-color="#258277"/></linearGradient></defs><g transform="translate(-34 -34.002)"><title>Page-1</title><g transform="translate(34 -34.016)"><title>Dashboard.13413</title><title>g10</title><title>path2</title><path d="M1.73 68.02h53.22a1.647 1.628 0 0 1 1.74 1.53v36.62a1.647 1.628 0 0 1-1.72 1.53H1.73A1.647 1.628 0 0 1 0 106.17V69.55a1.647 1.628 0 0 1 1.73-1.53" style="fill:url(#a);stroke:none;stroke-width:34;stroke-linecap:butt"/><g transform="translate(39.45 -5.57)"><title>rect4</title><path d="M0 107.22a.49.485-180 0 0 .49.485l4.13-.005a.49.485-180 0 0 .49-.485l.01-29.875a.49.485-180 0 0-.49-.485l-4.14.005a.49.485-180 0 0-.49.485z" style="fill:#f9f9f9;fill-opacity:.9;stroke:none;stroke-width:36.04339981;stroke-linecap:butt"/></g><g transform="translate(3.287 -5.534)"><title>rect6</title><path d="M0 107.18a.53.525-180 0 0 .53.525l27.56-.005a.53.525-180 0 0 .53-.525v-5.335a.53.525-180 0 0-.53-.525L.53 101.31a.53.525-180 0 0-.53.525z" style="fill:#fff;fill-opacity:.6;stroke:none;stroke-width:36.04339981;stroke-linecap:butt"/></g><g transform="translate(47.294 -5.57)"><title>rect8</title><path d="M0 107.33a.377.373-180 0 0 .377.373l4.363-.003a.377.373-180 0 0 .377-.373L5.12 89.85a.377.373-180 0 0-.377-.373L.38 89.48a.377.373-180 0 0-.377.373z" style="fill:#f2f2f2;fill-opacity:.9;stroke:none;stroke-width:36.04339981;stroke-linecap:butt"/></g><g transform="translate(5.905 -18.24)"><title>path10</title><path d="m22.39 91.39-7.11 12.51-7.53-7.57L0 106.26l1.82 1.41 6.15-7.84 7.8 7.87 8.63-15.16z" style="fill:#fff;stroke:none;stroke-width:36.04339981;stroke-linecap:butt"/></g><g transform="translate(10.823 -24.969)"><title>ellipse12</title><ellipse cx="2.925" cy="104.796" rx="2.925" ry="2.907" style="fill:#fff;stroke:none;stroke-width:36.04339981;stroke-linecap:butt"/></g><g transform="translate(18.753 -17.762)"><title>ellipse14</title><ellipse cx="2.925" cy="104.796" rx="2.925" ry="2.907" style="fill:#fff;stroke:none;stroke-width:36.04339981;stroke-linecap:butt"/></g><g transform="translate(26.115 -30.71)"><title>ellipse16</title><ellipse cx="2.925" cy="104.796" rx="2.925" ry="2.907" style="fill:#fff;stroke:none;stroke-width:36.04339981;stroke-linecap:butt"/></g><g transform="translate(4.192 -16.495)"><title>ellipse18</title><ellipse cx="2.925" cy="104.796" rx="2.925" ry="2.907" style="fill:#fff;stroke:none;stroke-width:36.04339981;stroke-linecap:butt"/></g></g></g></svg>