<svg xmlns="http://www.w3.org/2000/svg" xml:space="preserve" width="74.481" height="74.31" style="font-size:12px;overflow:visible;color-interpolation-filters:sRGB;fill-rule:evenodd;stroke-linecap:square;stroke-miterlimit:3" viewBox="0 0 55.86 55.733"><defs><linearGradient id="a" x1="0" x2="44.483" y1="71.137" y2="71.137" gradientTransform="scale(.9271 1.07863)" gradientUnits="userSpaceOnUse"><stop offset="0" stop-color="#005ba1"/><stop offset=".07" stop-color="#0060a9"/><stop offset=".36" stop-color="#0071c8"/><stop offset=".52" stop-color="#0078d4"/><stop offset=".64" stop-color="#0074cd"/><stop offset=".82" stop-color="#006abb"/><stop offset="1" stop-color="#005ba1"/></linearGradient><linearGradient id="b" x1="0" x2="9.497" y1="53.137" y2="53.137" gradientTransform="scale(.50224 1.99107)" gradientUnits="userSpaceOnUse"><stop offset="0" stop-color="#198ab3"/><stop offset=".605" stop-color="#50e6ff"/></linearGradient></defs><g transform="translate(-34 -34.002)"><title>Page-1</title><g transform="translate(34 -34.016)"><title>Database Watcher.13364</title><title>Sheet.13365</title><g transform="translate(0 -1.137)"><title>Sheet.13366</title><path d="M20.62 84.31C9.23 84.31 0 81.05 0 76.73v40.4c0 4.15 9.07 7.51 20.33 7.58h.29c11.39 0 20.62-3.27 20.62-7.58v-40.4c0 4.22-9.23 7.58-20.62 7.58" style="fill:url(#a);stroke:none;stroke-width:34;stroke-linecap:butt"/></g><g transform="translate(0 -41.532)"><title>Sheet.13367</title><path d="M41.24 117.13c0 4.21-9.23 7.58-20.62 7.58-11.38 0-20.62-3.27-20.62-7.58s9.23-7.58 20.62-7.58 20.62 3.27 20.62 7.58" style="fill:#e8e8e8;stroke:none;stroke-width:34;stroke-linecap:butt"/></g><g transform="translate(4.803 -44.894)"><title>Sheet.13368</title><path d="M31.64 119.87c0 2.68-7.11 4.84-15.82 4.84-8.72 0-15.82-2.16-15.82-4.84s7.1-4.8 15.82-4.8 15.82 2.16 15.82 4.8" style="fill:#50e6ff"/><path d="M31.64 119.87c0 2.68-7.11 4.84-15.82 4.84-8.72 0-15.82-2.16-15.82-4.84s7.1-4.8 15.82-4.8 15.82 2.16 15.82 4.8" style="stroke:none;stroke-width:34;stroke-linecap:butt"/></g><g transform="translate(8.104 -44.897)"><title>Sheet.13369</title><path d="M12.52 121.08A37.192 37.772-180 0 0 0 122.94a36.83 37.404-180 0 0 12.52 1.77 35.934 36.494-180 0 0 12.51-1.89 38.046 38.64-180 0 0-12.51-1.74" style="fill:#198ab3;stroke:none;stroke-width:34;stroke-linecap:butt"/></g><g transform="translate(25.959 -15.204)"><title>Sheet.13370</title><path d="M19.04 116.68a11.157 11.331 0 1 1-11.17-11.32h.02a11.154 11.328 0 0 1 11.15 11.32" style="fill:#fff;stroke:none;stroke-width:34;stroke-linecap:butt"/></g><g transform="rotate(-45 26.678 60.213)"><title>Sheet.13371</title><path d="M0 122.44a2.233 2.268-180 0 0 2.23 2.27h.31a2.233 2.268-180 0 0 2.23-2.27v-14.37a2.233 2.268-180 0 0-2.23-2.27h-.31A2.233 2.268-180 0 0 0 108.07Z" style="fill:url(#b);stroke:none;stroke-width:34;stroke-linecap:butt"/></g><g transform="translate(20.542 -9.697)"><title>Sheet.13372</title><path d="M26.51 108.22A13.54 13.751-180 0 0 0 113.79a13.248 13.454-180 0 0 .65 2.32 13.537 13.748-180 0 0 26.18-4.94 13.457 13.667-180 0 0-.32-2.95M13.3 122.51A11.15 11.325 0 0 1 2.15 111.6v-.43a11.144 11.318 0 0 1 11.12-11.32h.03a11.148 11.322 0 0 1 10.67 7.98 10.919 11.09 0 0 1 .47 2.51q.03.42.03.84a11.157 11.331 0 0 1-11.17 11.33" style="fill:#50e6ff;stroke:none;stroke-width:34;stroke-linecap:butt"/></g><g transform="translate(22.594 -15.788)"><title>Sheet.13373</title><path d="M22.69 114.83a.842.855-180 0 0-.794-.897l-4.766.007a.369.374-180 0 0-.34.21l-1.74 3.17-2.86-5.87-2.66 8.39-2.25-5.98-2.99 5.62a.416.423 0 0 1-.34.23H0v1.7h4.85a.407.413-180 0 0 .362-.23l1.778-3.38 2.74 6.91 2.79-8.89 2.45 5.04 2.74-4.99a.362.368 0 0 1 .34-.206l3.81-.004a.839.852-180 0 0 .83-.83" style="fill:#32bedd;stroke:none;stroke-width:34;stroke-linecap:butt"/></g></g></g></svg>