<svg xmlns="http://www.w3.org/2000/svg" xml:space="preserve" width="71.813" height="75.35" style="font-size:12px;overflow:visible;color-interpolation-filters:sRGB;fill-rule:evenodd;stroke-linecap:square;stroke-miterlimit:3" viewBox="0 0 53.86 56.512"><g transform="translate(-5.386 -5.674)"><title>Page-1</title><g transform="translate(5.386 -34.016)"><title>Datadog.13361</title><title>Sheet.13362</title><title>Sheet.13363</title><path d="m45.11 79.81-4.79-3.1-4 6.55-4.66-1.33-4.09 6.13.21 1.93 22.27-4.02-1.29-13.65zm-20.77-5.88 3.57-.48c.58.25.98.35 1.68.52 1.08.28 2.33.54 4.18-.37.43-.21 1.33-1.02 1.69-1.47l14.64-2.61 1.5 17.73-25.09 4.43Zm27.2-6.39-1.45.27-2.77-28.12L0 45.06l5.83 46.38 5.54-.79c-.44-.62-1.13-1.37-2.31-2.32-1.63-1.33-1.05-3.59-.09-5.01 1.27-2.41 7.83-5.47 7.46-9.32-.13-1.4-.36-3.22-1.69-4.47-.05.52.04 1.02.04 1.02s-.54-.68-.81-1.61c-.27-.36-.48-.47-.77-.94-.2.54-.18 1.18-.18 1.18s-.44-1.03-.51-1.9c-.27.39-.33 1.13-.33 1.13s-.58-1.62-.45-2.5c-.26-.76-1.05-2.27-.82-5.71 1.44.99 4.62.76 5.86-1.03.41-.59.69-2.21-.21-5.4-.57-2.05-2-5.09-2.56-6.24l-.07.04c.3.93.9 2.88 1.13 3.83.71 2.87.9 3.87.57 5.19-.28 1.15-.96 1.9-2.66 2.74-1.71.85-3.98-1.21-4.12-1.32-1.66-1.29-2.94-3.41-3.08-4.43-.15-1.13.66-1.8 1.07-2.72-.59.16-1.24.45-1.24.45s.78-.78 1.74-1.47c.39-.25.62-.42 1.04-.76-.6-.01-1.09.01-1.09.01s1.01-.54 2.05-.92c-.76-.04-1.5-.01-1.5-.01s2.26-.99 4.03-1.71c1.23-.49 2.42-.35 3.09.6.88 1.25 1.81 1.93 3.77 2.35 1.21-.53 1.57-.8 3.09-1.2 1.33-1.44 2.37-1.62 2.37-1.62s-.51.46-.65 1.2c.75-.59 1.58-1.07 1.58-1.07s-.32.39-.62 1l.07.1c.88-.52 1.92-.92 1.92-.92s-.3.36-.65.84c.67-.01 2.02.03 2.54.08 3.09.07 3.73-3.23 4.91-3.64 1.49-.52 2.15-.84 4.68 1.6 2.17 2.09 3.86 5.83 3.02 6.67-.7.69-2.1-.27-3.64-2.16a8.2 8.2 0 0 1-1.72-3.68c-.24-1.26-1.19-2-1.19-2s.55 1.2.55 2.26c0 .58.07 2.74 1.02 3.96-.09.18-.14.88-.24 1.01-1.1-1.3-3.47-2.24-3.85-2.51 1.3 1.05 4.3 3.46 5.46 5.76 1.09 2.19.44 4.19.99 4.71.16.15 2.35 2.82 2.77 4.16.73 2.34.04 4.8-.92 6.32l-2.68.41c-.39-.1-.66-.16-1.01-.36.19-.33.58-1.17.58-1.35l-.15-.26c-.83 1.16-2.23 2.29-3.39 2.94-1.52.84-3.28.71-4.42.36-3.24-.98-6.3-3.12-7.04-3.69 0 0-.02.45.12.56.81.9 2.69 2.53 4.49 3.67l-3.85.42 1.82 13.91c-.81.11-.93.17-1.82.29-.78-2.7-2.27-4.46-3.9-5.49-1.43-.91-3.42-1.11-5.32-.74l-.12.14c1.32-.14 2.88.05 4.48 1.04 1.57.98 2.84 3.49 3.3 5.01.6 1.93 1.01 4-.59 6.19-1.15 1.56-4.48 2.43-7.18.56.72 1.14 1.7 2.06 3.01 2.24 1.94.26 3.79-.07 5.06-1.35 1.08-1.09 1.66-3.38 1.5-5.79l1.72-.24.62 4.32 28.41-3.35zM34.26 55.81c-.08.18-.21.29-.02.87l.01.03.03.08.08.17c.34.68.71 1.32 1.33 1.64.16-.03.32-.04.49-.05.58-.03.95.06 1.18.19.02-.12.03-.28.02-.53-.05-.85.17-2.31-1.51-3.08-.63-.29-1.52-.2-1.82.16.06.01.11.02.14.03.45.16.15.31.07.49m4.7 7.99c-.22-.12-1.25-.07-1.97.01-1.38.16-2.87.63-3.19.88-.59.45-.32 1.23.11 1.55 1.23.9 2.31 1.5 3.44 1.36.7-.09 1.31-1.18 1.75-2.16.3-.68.3-1.41-.14-1.64m-12.19-6.93c.38-.36-1.94-.84-3.74.37-1.33.89-1.37 2.79-.1 3.87.13.11.23.19.33.25.37-.17.79-.35 1.28-.5.83-.26 1.51-.4 2.07-.47.27-.3.59-.82.51-1.76-.11-1.27-1.1-1.07-.35-1.76" style="fill:#632ca6;stroke:none;stroke-width:.76447397;stroke-linecap:butt"/></g></g></svg>