<svg xmlns="http://www.w3.org/2000/svg" xml:space="preserve" width="75.59" height="71.819" style="font-size:12px;overflow:visible;color-interpolation-filters:sRGB;fill-rule:evenodd;stroke-linecap:square;stroke-miterlimit:3" viewBox="0 0 56.692 53.864"><defs><linearGradient id="a" x1=".08" x2="11.064" y1="94.965" y2="94.965" gradientTransform="scale(1.00072 .99928)" gradientUnits="userSpaceOnUse"><stop offset="0" stop-color="#50e6ff"/><stop offset="1" stop-color="#32bedd"/></linearGradient><linearGradient id="b" x1="-.171" x2="10.812" y1="94.965" y2="94.965" gradientTransform="scale(1.00072 .99928)" gradientUnits="userSpaceOnUse"><stop offset="0" stop-color="#5e9624"/><stop offset=".185" stop-color="#629c25"/><stop offset=".435" stop-color="#6dae2a"/><stop offset=".725" stop-color="#7fcb30"/><stop offset=".82" stop-color="#86d633"/></linearGradient></defs><g transform="translate(-17.999 -17.997)"><title>Page-1</title><g transform="translate(18 -34.016)"><title>Data Collection Endpoint.13404</title><title>Sheet.13405</title><g transform="translate(23.208 -13.201)"><title>Sheet.13406</title><path d="M1.5 105.85a5.496 5.488-180 1 0 7.71-7.82 5.422 5.414-180 0 0-1.98-1.23V73.23H3.71v23.5a5.467 5.459-180 0 0-2.21 9.13z" style="fill:#b3b3b3;stroke:none;stroke-width:18;stroke-linecap:butt"/></g><g transform="translate(23.214 -42.884)"><title>Sheet.13407</title><path d="M5.4 105.87a5.496 5.488-180 1 0 0-10.97 5.496 5.488-180 0 0 0 10.97" style="fill:url(#a);stroke:none;stroke-width:18;stroke-linecap:butt"/></g><g transform="translate(.019 -.003)"><title>Sheet.13408</title><path d="m19.46 103.5-2.09 2.1a.948.946 0 0 1-1.342 0L.56 90.2a1.895 1.893 0 0 1 0-2.68l2.09-2.1 16.81 16.74a.95.948 0 0 1 .003 1.34z" style="fill:#50e6ff;stroke:none;stroke-width:18;stroke-linecap:butt"/></g><g transform="translate(0 -13.633)"><title>Sheet.13409</title><path d="m17.08 85.9 2.1 2.09a.948.946 0 0 1 0 1.34L2.66 105.87l-2.1-2.09a1.897 1.894 0 0 1-.01-2.68l15.18-15.2a.948.946 0 0 1 1.344 0z" style="fill:#1490df;stroke:none;stroke-width:18;stroke-linecap:butt"/></g><g transform="translate(36.936)"><title>Sheet.13410</title><path d="m17.09 85.42 2.09 2.1a1.897 1.894 0 0 1 0 2.68L3.71 105.6a.95.948 0 0 1-1.342 0L.28 103.5a.948.946 0 0 1 0-1.338z" style="fill:#50e6ff;stroke:none;stroke-width:18;stroke-linecap:butt"/></g><g transform="translate(37.24 -13.643)"><title>Sheet.13411</title><path d="m18.89 103.79-2.09 2.08L.28 89.33a.95.948 0 0 1 0-1.338l2.1-2.092a.946.945 0 0 1 1.34.002L18.9 101.11a1.897 1.894 0 0 1-.01 2.68" style="fill:#1490df;stroke:none;stroke-width:18;stroke-linecap:butt"/></g><g transform="translate(23.057 -11.638)"><title>Sheet.13412</title><path d="M5.5 105.87a5.496 5.488-180 0 0 0-10.97 5.496 5.488-180 1 0 0 10.97" style="fill:url(#b);stroke:none;stroke-width:18;stroke-linecap:butt"/></g></g></g></svg>