<svg xmlns="http://www.w3.org/2000/svg" xml:space="preserve" width="75.586" height="71.81" style="font-size:12px;overflow:visible;color-interpolation-filters:sRGB;fill-rule:evenodd;stroke-linecap:square;stroke-miterlimit:3" viewBox="0 0 56.69 53.858"><g transform="translate(-25.5 -25.497)"><title>Page-1</title><g transform="translate(25.5 -34.016)"><title>Database Migration Project.13381</title><title>Sheet.13382</title><g transform="translate(7.087 -27.798)"><title>Sheet.13383</title><path d="M37.59 103.71h-.6c.34-1.08.43-2.24.43-3.41.08-7.16-5.87-12.99-13.1-12.99a13.009 12.757-180 0 0-12.41 8.83 8.251 8.091-180 0 0-2.9-.5c-5.01 0-9.01 4-9.01 8.91a8.939 8.766-180 0 0 8.93 8.82h9.97v-6.95h-5.91l9.45-9.26 9.45 9.26h-5.91v6.95h11.95c2.63-.24 4.59-2.33 4.59-4.83a4.935 4.84-180 0 0-4.93-4.83" style="fill:#0072c6;stroke:none;stroke-width:25.5;stroke-linecap:butt"/></g><g transform="translate(4.724 -4.633)"><title>Sheet.13384</title><path d="M0 100.63v9.27c0 1.92 3.17 3.47 7.09 3.47 3.91 0 7.08-1.55 7.08-3.47v-9.27z" style="fill:#3c9be4;stroke:none;stroke-width:25.5;stroke-linecap:butt"/></g><g transform="translate(4.724 -4.633)"><title>Sheet.13385</title><path d="M7.09 100.63H0v9.27c0 1.92 3.17 3.47 7.09 3.47z" style="fill:#fff;fill-opacity:.25;stroke:none;stroke-width:25.5;stroke-linecap:butt"/></g><g transform="translate(4.724 -13.899)"><title>Sheet.13386</title><ellipse cx="7.087" cy="109.899" rx="7.087" ry="3.475" style="fill:#b8d432;stroke:none;stroke-width:25.5;stroke-linecap:butt"/></g><title>Sheet.13387</title><path d="M7.09 113.37H0V87.89h7.09v2.32H2.36v20.85h4.73zm42.52 0h7.08V87.89h-7.08v2.32h4.72v20.85h-4.72z" style="fill:#a0a1a2;stroke:none;stroke-width:25.5;stroke-linecap:butt"/><g transform="translate(7.087 -28.713)"><title>Sheet.13388</title><path d="M3.54 108.35a9.593 9.407 0 0 1 14.13-8.29 13.243 12.986 0 0 1 18.32-4.8c-2.18-4.17-6.61-7.03-11.67-7.03a13.009 12.757-180 0 0-12.41 8.83 8.251 8.091-180 0 0-2.9-.51c-5.01 0-9.01 4-9.01 8.91 0 3.52 2.06 6.49 5.04 7.91a9.494 9.31 0 0 1-1.5-5.02" style="fill:#ecf0f1;fill-opacity:.2;stroke:none;stroke-width:25.5;stroke-linecap:butt"/></g><g transform="translate(21.26 -4.633)"><title>Sheet.13389</title><path d="M0 100.63v9.27c0 1.92 3.17 3.47 7.09 3.47 3.91 0 7.08-1.55 7.08-3.47v-9.27z" style="fill:#3c9be4;stroke:none;stroke-width:25.5;stroke-linecap:butt"/></g><g transform="translate(21.26 -4.633)"><title>Sheet.13390</title><path d="M7.09 100.63H0v9.27c0 1.92 3.17 3.47 7.09 3.47z" style="fill:#fff;fill-opacity:.25;stroke:none;stroke-width:25.5;stroke-linecap:butt"/></g><g transform="translate(21.26 -13.899)"><title>Sheet.13391</title><ellipse cx="7.087" cy="109.899" rx="7.087" ry="3.475" style="fill:#b8d432;stroke:none;stroke-width:25.5;stroke-linecap:butt"/></g><g transform="translate(37.795 -4.633)"><title>Sheet.13392</title><path d="M0 100.63v9.27c0 1.92 3.17 3.47 7.09 3.47 3.91 0 7.08-1.55 7.08-3.47v-9.27z" style="fill:#3c9be4;stroke:none;stroke-width:25.5;stroke-linecap:butt"/></g><g transform="translate(37.795 -4.633)"><title>Sheet.13393</title><path d="M7.09 100.63H0v9.27c0 1.92 3.17 3.47 7.09 3.47z" style="fill:#fff;fill-opacity:.25;stroke:none;stroke-width:25.5;stroke-linecap:butt"/></g><g transform="translate(37.795 -13.899)"><title>Sheet.13394</title><ellipse cx="7.087" cy="109.899" rx="7.087" ry="3.475" style="fill:#b8d432;stroke:none;stroke-width:25.5;stroke-linecap:butt"/></g></g></g></svg>