<svg xmlns="http://www.w3.org/2000/svg" xml:space="preserve" width="71.813" height="75.609" style="font-size:12px;overflow:visible;color-interpolation-filters:sRGB;fill-rule:evenodd;stroke-linecap:square;stroke-miterlimit:3" viewBox="0 0 53.86 56.707"><defs><linearGradient id="a" x1="0" x2="44.854" y1="70.873" y2="70.873" gradientTransform="scale(1.20078 .83279)" gradientUnits="userSpaceOnUse"><stop offset="0" stop-color="#0078d4"/><stop offset=".16" stop-color="#1380da"/><stop offset=".53" stop-color="#3c91e5"/><stop offset=".82" stop-color="#559cec"/><stop offset="1" stop-color="#5ea0ef"/></linearGradient><linearGradient id="b" x1="0" x2="28.305" y1="68.848" y2="68.848" gradientTransform="scale(1.00802 .99204)" gradientUnits="userSpaceOnUse"><stop offset="0" stop-color="#32bedd"/><stop offset=".06" stop-color="#37c5e3"/><stop offset=".3" stop-color="#49ddf7"/><stop offset=".45" stop-color="#50e6ff"/><stop offset=".55" stop-color="#50e6ff"/><stop offset=".7" stop-color="#49ddf7"/><stop offset=".94" stop-color="#37c5e3"/><stop offset="1" stop-color="#32bedd"/></linearGradient></defs><g transform="translate(-5.386 -5.657)"><title>Page-1</title><g transform="translate(5.386 -34.016)"><title>Database Migration Service.13374</title><g transform="translate(0 -19.35)"><title>path34</title><path d="M53.86 84.65a12.15 11.872-180 0 0-10.51-11.38 15.222 14.874-180 0 0-15.7-14.24A15.632 15.274-180 0 0 12.7 69.04 14.437 14.107-180 0 0 0 82.58a14.676 14.34-180 0 0 15.15 13.77h25.91a1.98 1.934-180 0 0 .65 0 12.253 11.972-180 0 0 12.15-11.7" style="fill:url(#a);stroke:none;stroke-width:2.6161499;stroke-linecap:butt"/></g><g transform="translate(12.662)"><title>path36</title><path d="M14.27 72.73C6.42 72.73 0 70.73 0 68.3v23.64c0 2.44 6.31 4.4 14.1 4.44h.17c7.88 0 14.26-2 14.26-4.44V68.3c.14 2.43-6.24 4.43-14.26 4.43" style="fill:url(#b);stroke:none;stroke-width:2.6161499;stroke-linecap:butt"/></g><g transform="translate(12.799 -23.644)"><title>path38</title><path d="M28.53 91.94c0 2.44-6.38 4.44-14.26 4.44-7.89 0-14.27-2-14.27-4.44 0-2.43 6.42-4.43 14.13-4.43s14.27 1.96 14.27 4.43z" style="fill:#e8e8e8"/><path d="M28.53 91.94c0 2.44-6.38 4.44-14.26 4.44-7.89 0-14.27-2-14.27-4.44 0-2.43 6.42-4.43 14.13-4.43s14.27 1.96 14.27 4.43" style="stroke:none;stroke-width:2.6161499;stroke-linecap:butt"/></g><g transform="translate(16.144 -25.512)"><title>path40</title><path d="M21.88 93.54c0 1.57-4.92 2.84-10.96 2.84S0 95.01 0 93.54c0-1.46 4.91-2.93 10.79-2.93 5.87 0 10.95 1.27 10.95 2.83z" style="fill:#50e6ff"/><path d="M21.88 93.54c0 1.57-4.92 2.84-10.96 2.84S0 95.01 0 93.54c0-1.46 4.91-2.93 10.79-2.93 5.87 0 10.95 1.27 10.95 2.83" style="stroke:none;stroke-width:2.6161499;stroke-linecap:butt"/></g><g transform="translate(18.294 -25.612)"><title>path42</title><path d="M8.64 94.21A29.25 28.58-180 0 0 0 95.28a28.602 27.946-180 0 0 8.64 1.1 28.67 28.013-180 0 0 8.66-1.1 29.318 28.647-180 0 0-8.66-1.07" style="fill:#32bedd;stroke:none;stroke-width:2.6161499;stroke-linecap:butt"/></g><g transform="translate(17.6 -29.347)"><title>path44</title><path d="m.04 84.04 8.84-8.67a1.058 1.034 0 0 1 1.51 0l8.84 8.67a.478.467 0 0 1-.341.767l-5.429.003a.478.467-180 0 0-.478.467L12.98 96.01a.341.333 0 0 1-.239.367l-6.071.003a.341.333 0 0 1-.375-.367L6.29 85.24a.478.467-180 0 0-.375-.467L.39 84.77a.478.467 0 0 1-.341-.734Z" style="fill:#f2f2f2;stroke:none;stroke-width:2.6161499;stroke-linecap:butt"/></g></g></g></svg>