<svg xmlns="http://www.w3.org/2000/svg" xml:space="preserve" width="64.255" height="75.627" style="font-size:12px;overflow:visible;color-interpolation-filters:sRGB;fill-rule:evenodd;stroke-linecap:square;stroke-miterlimit:3" viewBox="0 0 48.192 56.72"><defs><linearGradient id="a" x1="0" x2="46.563" y1="66.438" y2="66.438" gradientTransform="scale(.90589 1.10389)" gradientUnits="userSpaceOnUse"><stop offset="0" stop-color="#5e9624"/><stop offset=".31" stop-color="#69a828"/><stop offset=".93" stop-color="#86d633"/></linearGradient></defs><g transform="translate(-34 -34.004)"><title>Page-1</title><g transform="translate(34 -34.016)"><title>Diagnostics Setting.13355</title><title>g10</title><g transform="translate(0 -.1)"><title>path2</title><path d="M45.03 68.15H5.63a1.934 1.898-180 0 0-1.49.66L0 73.51l45.41 45.14-6.79 6.09h3.39a2.41 2.364-180 0 0 1.56-.57l3.97-3.56a2.002 1.964-180 0 0 .65-1.43V70.91a2.749 2.696-180 0 0-3.16-2.76" style="fill:#5e9624;stroke:none;stroke-width:34;stroke-linecap:butt"/></g><g transform="translate(3.326 -2.364)"><title>path4</title><path d="m0 75.74 2.51-2.8a1.697 1.665 0 0 1 1.19-.6h36.92a1.765 1.731 0 0 1 1.77 1.73v45.87a1.765 1.731 0 0 1-.58 1.27l-3.9 3.53z" style="fill:#fff"/><path d="m0 75.74 2.51-2.8a1.697 1.665 0 0 1 1.19-.6h36.92a1.765 1.731 0 0 1 1.77 1.73v45.87a1.765 1.731 0 0 1-.58 1.27l-3.9 3.53" style="stroke:none;stroke-width:34;stroke-linecap:butt"/></g><g transform="translate(.068)"><title>path6</title><path d="M40.89 73.34H.17a.204.2-180 0 0-.17.2v49.93a1.29 1.265-180 0 0 1.29 1.27h39.6a1.29 1.265-180 0 0 1.29-1.27V74.64a1.29 1.265-180 0 0-1.29-1.3" style="fill:url(#a);stroke:none;stroke-width:34;stroke-linecap:butt"/></g><g transform="translate(5.294 -18.043)"><title>path8</title><path d="M30.58 110.46a1.256 1.232-180 0 0-1.26-1.3h-6.28a.543.533-180 0 0-.509.3l-2.611 4.59-4.28-8.49-3.97 12.15-3.39-8.65-4.48 8.12a.61.6 0 0 1-.509.333l-2.031-.003a1.256 1.232-180 0 0-1.26 1.1 1.256 1.232-180 0 0 1.26 1.37h3.39a.61.6-180 0 0 .543-.333l2.647-4.897 4.11 9.99 4.17-12.85 3.66 7.29 4.11-7.22a.543.533 0 0 1 .509-.3h4.921a1.256 1.232-180 0 0 1.26-1.2" style="fill:#fff;stroke:none;stroke-width:34;stroke-linecap:butt"/></g></g></g></svg>