<svg xmlns="http://www.w3.org/2000/svg" xml:space="preserve" width="71.812" height="75.596" style="font-size:12px;overflow:visible;color-interpolation-filters:sRGB;fill-rule:evenodd;stroke-linecap:square;stroke-miterlimit:3" viewBox="0 0 53.859 56.697"><defs><linearGradient id="a" x1=".001" x2="55.191" y1="40.722" y2="40.722" gradientTransform="scale(.97588 1.02471)" gradientUnits="userSpaceOnUse"><stop offset="0" stop-color="#198ab3"/><stop offset=".29" stop-color="#1786b1"/><stop offset=".59" stop-color="#1079ad"/><stop offset=".89" stop-color="#0565a5"/><stop offset="1" stop-color="#005ba1"/></linearGradient><linearGradient id="b" x1="-.195" x2="54.416" y1="40.785" y2="40.785" gradientTransform="scale(.97051 1.03038)" gradientUnits="userSpaceOnUse"><stop offset="0" stop-color="#32d4f5"/><stop offset=".23" stop-color="#31d0f1"/><stop offset=".46" stop-color="#2cc3e6"/><stop offset=".7" stop-color="#25afd4"/><stop offset=".94" stop-color="#1c92ba"/><stop offset="1" stop-color="#198ab3"/></linearGradient></defs><g transform="translate(-7.579 -7.581)"><title>Page-1</title><g transform="translate(7.578 -34.016)"><title>Diagnostics.13348</title><title>g10</title><title>g14-9</title><title>Icon691_DataBox_Gateway</title><title>Icon-intune-341</title><g transform="translate(0 -.132)"><title>path4</title><path d="m45.59 53.01.28.25a.487.494-180 0 0 .66 0l2.57-2.19 4.66-7.8a.487.494-180 0 0 0-.6l-.8-.84a.487.494-180 0 0-.591 0l-7.339 5.04-2.08 2.72a.487.494-180 0 0 0 .635l.27.285-15.15 16.02L24.94 63l-3.48 3.53a6.293 6.388 0 0 1-1.49 5.33 5.458 5.54 0 0 1-4.77 1.76L.29 88.98a.939.953-180 0 0 0 1.376l7.23 7.614a.939.953-180 0 0 1.39 0l14.53-15.38a5.98 6.07 0 0 1 1.74-5.08 5.562 5.646 0 0 1 4.76-1.77l3.48-3.53-3.02-3.42z" style="fill:url(#a);stroke:none;stroke-width:7.57834005"/></g><g transform="translate(.568)"><title>path6</title><path d="m51.04 87.82-3.48-3.78-23.22-24.17-1.15-1.27a12.933 13.128-180 0 0-3.03-12.85 11.925 12.105-180 0 0-10.74-3.53.521.53-180 0 0-.278.847l6.048 6.253a.521.53 0 0 1 0 .494L13.73 56.2a.487.494 0 0 1-.348.353L7.2 58.28a.487.494 0 0 1-.487 0L.83 51.97a.487.494-180 0 0-.834.318A12.62 12.81-180 0 0 3.48 63.5a11.716 11.893-180 0 0 11.71 3.18l.21.25 1.32 1.37 26.46 28.24a5.493 5.576-180 0 0 7.72.28l.27-.28a5.84 5.929-180 0 0 1.64-4.24 6.432 6.529-180 0 0-1.77-4.48" style="fill:url(#b);stroke:none;stroke-width:7.57834005"/></g></g></g></svg>