<svg xmlns="http://www.w3.org/2000/svg" xml:space="preserve" width="75.211" height="74.968" style="font-size:12px;overflow:visible;color-interpolation-filters:sRGB;fill-rule:evenodd;stroke-linecap:square;stroke-miterlimit:3" viewBox="0 0 56.408 56.226"><g transform="translate(-5.807 -5.905)"><title>Page-1</title><g transform="translate(5.67 -34.016)"><title>Dynatrace.13340</title><title>Sheet.13341</title><g transform="translate(.142 -6.092)"><title>Sheet.13342</title><path d="M19.08 50.7c-.72 3.83-1.65 9.48-2.13 15.21-.86 10.13-.33 16.91-.33 16.91L2.16 96.38S1.04 88.77.48 80.22C.13 74.95.03 70.26 0 67.44c0-.16.09-.32.09-.48 0-.18.24-2.08 2.12-3.83 2.06-1.94 17.08-13.55 16.87-12.43" style="fill:#1496ff;stroke:none;stroke-width:.29882801;stroke-linecap:butt"/></g><g transform="translate(.15 -34.638)"><title>Sheet.13343</title><path d="M19.07 79.25c-.72 3.83-1.65 9.48-2.13 15.21 0 0-16.02-1.88-16.94 1.92 0-.19.27-2.52 2.15-4.28 2.06-1.93 17.13-13.97 16.92-12.85" style="fill:#1284ea;stroke:none;stroke-width:.29882801;stroke-linecap:butt"/></g><g transform="translate(0 -34.638)"><title>Sheet.13344</title><path d="M.14 95.5c.01.27.01.56.01.88.17-.7.44-1.18 1.02-1.91 1.19-1.49 3.11-1.88 3.88-1.98 3.92-.5 9.7-1.12 15.54-1.3 10.31-.32 17.13.53 17.13.53l14.46-13.56s-7.59-1.42-16.23-2.42c-5.65-.66-10.64-1-13.42-1.16-.19-.02-2.2-.26-4.07 1.5-2.07 1.93-12.42 11.6-16.58 15.49C0 93.34.14 95.32.14 95.5" style="fill:#b4dc00;stroke:none;stroke-width:.29882801;stroke-linecap:butt"/></g><g transform="translate(4.49 -.267)"><title>Sheet.13345</title><path d="M47.16 78.43c-3.92.52-9.69 1.16-15.53 1.35-10.32.34-17.17-.51-17.17-.51L0 92.82s7.66 1.48 16.31 2.45c5.28.6 9.99.93 12.85 1.1.2.01.54-.17.72-.15.19 0 2.21-.36 4.08-2.12 2.06-1.94 14.35-15.82 13.2-15.67" style="fill:#6f2da8;stroke:none;stroke-width:.29882801;stroke-linecap:butt"/></g><g transform="translate(33.333 -.286)"><title>Sheet.13346</title><path d="M18.31 78.45c-3.91.52-9.69 1.16-15.53 1.35 0 0 1.12 15.85-2.78 16.57.19.01 2.84-.13 4.72-1.89 2.06-1.94 14.74-16.18 13.59-16.03" style="fill:#591f91;stroke:none;stroke-width:.29882801;stroke-linecap:butt"/></g><g transform="translate(33.333)"><title>Sheet.13347</title><path d="M.89 96.13c-.27-.02-.57-.03-.89-.05.71-.13 1.22-.37 1.99-.91 1.56-1.1 2.05-2.97 2.19-3.72.71-3.83 1.62-9.48 2.09-15.22.83-10.13.31-16.88.31-16.88L21.04 45.8s1.07 7.53 1.66 16.09c.38 5.59.49 10.51.51 13.25 0 .19.15 2.17-1.73 3.93C19.43 81.01 9.1 90.71 4.95 94.61c-1.87 1.77-3.87 1.53-4.06 1.52" style="fill:#73be28;stroke:none;stroke-width:.29882801;stroke-linecap:butt"/></g></g></g></svg>