<svg xmlns="http://www.w3.org/2000/svg" xml:space="preserve" width="75.595" height="66.845" style="font-size:12px;overflow:visible;color-interpolation-filters:sRGB;fill-rule:evenodd;stroke-linecap:square;stroke-miterlimit:3" viewBox="0 0 56.696 50.134"><defs><linearGradient id="a" x1="-.001" x2="53.313" y1="54.251" y2="54.251" gradientTransform="scale(1.06344 .94035)" gradientUnits="userSpaceOnUse"><stop offset="0" stop-color="#0a5932"/><stop offset="1" stop-color="#33990f"/></linearGradient><linearGradient id="b" x1="0" x2="38.04" y1="64.646" y2="64.646" gradientTransform="scale(.99685 1.00316)" gradientUnits="userSpaceOnUse"><stop offset="0" stop-color="#63d237"/><stop offset="1" stop-color="#37b659"/></linearGradient><linearGradient id="c" x1="0" x2="28.528" y1="74.162" y2="74.162" gradientTransform="scale(.99688 1.00313)" gradientUnits="userSpaceOnUse"><stop offset="0" stop-color="#daff70"/><stop offset="1" stop-color="#63cd13"/></linearGradient></defs><g transform="translate(-16.999 -17)"><title>Page-1</title><g transform="translate(17 -34.016)"><title>Intelligent Recommendations Account.13322</title><title>Sheet.13323</title><title>Sheet.13324</title><path d="M41.75 56.6c-7.38-7.42-19.33-7.45-26.74-.07L3.07 68.55a10.665 10.732-180 0 0 0 15.07l11.94 12.01c7.41 7.38 19.36 7.36 26.74-.07l11.82-11.89a10.665 10.732-180 0 0 0-15.18z" style="fill:url(#a);stroke:none;stroke-width:17;stroke-linecap:butt"/><g transform="translate(9.387 -7.054)"><title>Sheet.13325</title><path d="M33.55 64.85H18.96C8.49 64.85 0 73.4 0 83.93v13.1l5.63 5.66c.11.11.22.22.33.32h13c10.47 0 18.96-8.54 18.96-19.08V69.25Z" style="fill:#000;fill-opacity:.16000001;stroke:none;stroke-width:17;stroke-linecap:butt"/></g><g transform="translate(8.597 -6.26)"><title>Sheet.13326</title><path d="M33.55 63.26h-13.8C8.84 63.26 0 72.16 0 83.14v12.3l1.58 1.59V83.14c0-10.1 8.14-18.29 18.17-18.29h15.38zm4.37 4.4v15.48c0 10.1-8.14 18.28-18.17 18.28H5.95l.47.48c.39.39.8.76 1.22 1.11h12.11c10.91 0 19.75-8.9 19.75-19.87V69.25Z" style="fill:#000;fill-opacity:.12000002;stroke:none;stroke-width:17;stroke-linecap:butt"/></g><g transform="translate(9.387 -7.85)"><title>Sheet.13327</title><path d="M2.37 103.01h16.59c10.47 0 18.96-8.54 18.96-19.08V67.24a2.37 2.385-180 0 0-2.37-2.39H18.96C8.49 64.85 0 73.4 0 83.93v16.7a2.37 2.385-180 0 0 2.37 2.38" style="fill:url(#b);stroke:none;stroke-width:17;stroke-linecap:butt"/></g><g transform="translate(14.127 -11.825)"><title>Sheet.13328</title><path d="M28.44 88.7A14.22 14.31 0 1 1 0 88.7a14.22 14.31 0 0 1 28.44 0" style="fill:#000;fill-opacity:.16000001;stroke:none;stroke-width:17;stroke-linecap:butt"/></g><g transform="translate(13.337 -11.03)"><title>Sheet.13329</title><path d="M15.01 74.39a13.43 13.515-180 1 0 0 27.03 13.43 13.515-180 0 0 0-27.03M0 87.91a15.01 15.104 0 1 1 30.02 0 15.01 15.104 0 1 1-30.02 0" style="fill:#000;fill-opacity:.12000002;stroke:none;stroke-width:17;stroke-linecap:butt"/></g><g transform="translate(14.127 -12.62)"><title>Sheet.13330</title><ellipse cx="14.22" cy="88.703" rx="14.22" ry="14.309" style="fill:url(#c);stroke:none;stroke-width:17;stroke-linecap:butt"/></g></g></g></svg>