<svg xmlns="http://www.w3.org/2000/svg" xml:space="preserve" width="64.256" height="75.586" style="font-size:12px;overflow:visible;color-interpolation-filters:sRGB;fill-rule:evenodd;stroke-linecap:square;stroke-miterlimit:3" viewBox="0 0 48.192 56.69"><defs><linearGradient id="a" x1="0" x2="47.65" y1="65.755" y2="65.755" gradientTransform="scale(.90935 1.0997)" gradientUnits="userSpaceOnUse"><stop offset="0" stop-color="#5ea0ef"/><stop offset="1" stop-color="#0078d4"/></linearGradient><linearGradient id="b" x1="-.004" x2="42.095" y1="69.868" y2="69.868" gradientTransform="scale(.89781 1.11382)" gradientUnits="userSpaceOnUse"><stop offset="0" stop-color="#5ea0ef"/><stop offset="1" stop-color="#83b9f9"/></linearGradient></defs><g transform="translate(-34 -34.005)"><title>Page-1</title><g transform="translate(34 -34.016)"><title>Invoice.13316</title><title>Sheet.13317</title><g transform="translate(0 -4.29)"><title>Sheet.13318</title><path d="M0 122.96a1.77 1.748-180 0 0 1.77 1.75h39.79a1.77 1.748-180 0 0 1.77-1.75V74.05a1.77 1.748-180 0 0-1.77-1.74H1.77A1.77 1.748-180 0 0 0 74.05Z" style="fill:#005ba1;stroke:none;stroke-width:34;stroke-linecap:butt"/></g><g transform="translate(4.863)"><title>Sheet.13319</title><path d="M0 122.96a1.77 1.748-180 0 0 1.77 1.75h39.79a1.77 1.748-180 0 0 1.77-1.75V74.05a1.77 1.748-180 0 0-1.77-1.74H1.77A1.77 1.748-180 0 0 0 74.05Z" style="fill:url(#a);stroke:none;stroke-width:34;stroke-linecap:butt"/></g><g transform="translate(7.63 -2.76)"><title>Sheet.13320</title><path d="M0 124.27a.443.438-180 0 0 .443.438l36.907.002a.443.438-180 0 0 .443-.438L37.79 78.26a.443.438-180 0 0-.443-.438L.44 77.82a.443.438-180 0 0-.443.438z" style="fill:url(#b);stroke:none;stroke-width:34;stroke-linecap:butt"/></g><g transform="translate(12.825 -8.173)"><title>Sheet.13321</title><path d="M23.25 120.18h3.71a.443.438 0 0 1 .443.435l-.003 3.655a.443.438 0 0 1-.443.438l-3.707.002a.443.438 0 0 1-.443-.438l.003-3.662a.44.435 0 0 1 .443-.435zM0 120.61v3.66a.44.435-180 0 0 .44.438l18.35.002a.443.438-180 0 0 .443-.438l-.003-3.662a.44.435-180 0 0-.443-.435L.43 120.18a.44.435-180 0 0-.427.435zm22.81-9.11v3.66a.443.438-180 0 0 .443.438l3.707.002a.443.438-180 0 0 .443-.438L27.4 111.5a.443.438-180 0 0-.443-.435l-3.707-.005a.44.435-180 0 0-.443.435zM0 111.5v3.66a.44.435-180 0 0 .427.454l18.343-.004a.443.438-180 0 0 .443-.438l.007-3.672a.44.435-180 0 0-.443-.435L.43 111.06a.44.435-180 0 0-.427.435zm5.37-22.21a1.253 1.238 0 1 1-1.25-1.23 1.25 1.235 0 0 1 1.25 1.23m-.05 16.9a1.25 1.235 0 1 1-1.24-1.24 1.253 1.238 0 0 1 1.24 1.24m-5.29-2.82v-2.76a5.325 5.26-180 0 0 1.64.94 5.204 5.14-180 0 0 1.8.32 4.053 4.003-180 0 0 .94-.08 2.232 2.205-180 0 0 .67-.27 1.142 1.128-180 0 0 .39-.4 1.014 1.002-180 0 0 .14-.49 1.09 1.077-180 0 0-.21-.65 2.232 2.205-180 0 0-.57-.52 5.928 5.855-180 0 0-.86-.47c-.32-.16-.69-.32-1.07-.46a5.478 5.411 0 0 1-2.19-1.49 3.259 3.219 0 0 1-.71-2.1 3.393 3.351 0 0 1 .4-1.66 3.354 3.313 0 0 1 1.07-1.14 4.764 4.706 0 0 1 1.57-.66 8.214 8.113 0 0 1 1.89-.21 11.552 11.411 0 0 1 1.73.13 6.75 6.668 0 0 1 1.39.36v2.58a4.145 4.094-180 0 0-.68-.38 5.484 5.417-180 0 0-.76-.28 5.771 5.7-180 0 0-.78-.16 5.516 5.449-180 0 0-.74-.06 3.874 3.827-180 0 0-.87.09 2.203 2.176-180 0 0-.67.26 1.275 1.26-180 0 0-.42.39.957.945-180 0 0-.15.513.995.983-180 0 0 .166.558 1.913 1.89-180 0 0 .474.469 5.025 4.964-180 0 0 .74.43c.29.14.62.29.98.44a10.63 10.5 0 0 1 1.35.67 4.85 4.79 0 0 1 1.03.79 3.128 3.09 0 0 1 .63 1 4.072 4.022 0 0 1-.17 3.06 3.217 3.178 0 0 1-1.09 1.13 4.706 4.649 0 0 1-1.59.63 9.221 9.109 0 0 1-1.91.19 10.5 10.372 0 0 1-1.96-.18 5.969 5.896 0 0 1-1.6-.53" style="fill:#fff;stroke:none;stroke-width:34;stroke-linecap:butt"/></g></g></g></svg>