<svg xmlns="http://www.w3.org/2000/svg" xml:space="preserve" width="75.588" height="75.596" style="font-size:12px;overflow:visible;color-interpolation-filters:sRGB;fill-rule:evenodd;stroke-linecap:square;stroke-miterlimit:3" viewBox="0 0 56.691 56.697"><defs><linearGradient id="a" x1="0" x2="40.535" y1="84.098" y2="84.098" gradientTransform="scale(.99938 1.00062)" gradientUnits="userSpaceOnUse"><stop offset="0" stop-color="#773adc"/><stop offset=".155" stop-color="#7d43df"/><stop offset=".41" stop-color="#8e5be6"/><stop offset=".73" stop-color="#a981f2"/><stop offset=".88" stop-color="#b796f9"/></linearGradient><linearGradient id="b" x1="0" x2="40.525" y1="84.077" y2="84.077" gradientTransform="scale(.99914 1.00086)" gradientUnits="userSpaceOnUse"><stop offset="0" stop-color="#773adc"/><stop offset=".87" stop-color="#b796f9"/></linearGradient></defs><g transform="translate(-34 -33.997)"><title>Page-1</title><g transform="translate(34 -34.016)"><title>Log Analytics Query Pack.13310</title><title>Sheet.13311</title><g transform="translate(16.202 -16.137)"><title>Sheet.13312</title><path d="M39.2 85.44a4.41 4.413-180 0 0-3.12-1.29H4.41A4.432 4.435-180 0 0 0 88.57v31.73a4.432 4.435-180 0 0 4.41 4.41h31.67a4.41 4.413-180 0 0 4.41-4.41V88.56a4.41 4.413-180 0 0-1.29-3.12" style="fill:#773adc;stroke:none;stroke-width:34;stroke-linecap:butt"/></g><g transform="translate(7.682 -7.61)"><title>Sheet.13313</title><path d="M39.2 85.44a4.41 4.413-180 0 0-3.11-1.29H4.41A4.432 4.435-180 0 0 0 88.57v31.73a4.432 4.435-180 0 0 4.41 4.41H36.1a4.41 4.413-180 0 0 4.41-4.41V88.56a4.416 4.42-180 0 0-1.31-3.12" style="fill:url(#a);stroke:none;stroke-width:34;stroke-linecap:butt"/></g><title>Sheet.13314</title><path d="M36.08 124.7H4.41A4.432 4.435 0 0 1 0 120.29V88.56a4.432 4.435 0 0 1 4.41-4.41h31.67a4.41 4.413 0 0 1 4.41 4.41v31.74a4.41 4.413 0 0 1-4.41 4.41z" style="fill:url(#b);stroke:none;stroke-width:34;stroke-linecap:butt"/><g transform="translate(5.946 -9.435)"><title>Sheet.13315</title><path d="M8.16 120.41a1.049 1.05-180 0 0-1.02 1.07v2.15a1.049 1.05-180 0 0 1.02 1.08h19.41a1.05 1.05-180 0 0 .95-.67 1 1-180 0 0 .07-.4v-2.15a1.046 1.046-180 0 0-1.02-1.07zM0 121.46a1.04 1.04 0 0 1 1.04-1.05h2.21a1.04 1.04 0 0 1 1.04 1.05v2.2a1.043 1.043 0 0 1-1.05 1.05h-2.2A1.043 1.043 0 0 1 0 123.67Zm8.16-9.74a1.05 1.05-180 0 0-1.02 1.07v2.14A1.049 1.05-180 0 0 8.16 116h19.41a1.05 1.05-180 0 0 .95-.66 1 1-180 0 0 .07-.41v-2.14a1.049 1.05-180 0 0-1.02-1.07H8.17ZM0 112.76a1.04 1.04 0 0 1 1.04-1.04h2.21a1.04 1.04 0 0 1 1.04 1.04v2.21a1.043 1.043 0 0 1-1.04 1.04H1.04A1.04 1.04 0 0 1 0 114.97Zm8.16-9.73a1.049 1.05-180 0 0-1.02 1.07v2.14a1.05 1.05-180 0 0 1.02 1.07h19.41a1.049 1.05-180 0 0 1.02-1.07v-2.14a1.046 1.046-180 0 0-1.02-1.07H8.17ZM0 104.07a1.04 1.04 0 0 1 1.04-1.04h2.21a1.043 1.043 0 0 1 1.04 1.04v2.2a1.043 1.043 0 0 1-1.04 1.05H1.04A1.043 1.043 0 0 1 0 106.27Z" style="fill:#fff;stroke:none;stroke-width:34;stroke-linecap:butt"/></g></g></g></svg>