<svg xmlns="http://www.w3.org/2000/svg" xml:space="preserve" width="75.595" height="75.593" style="font-size:12px;overflow:visible;color-interpolation-filters:sRGB;fill-rule:evenodd;stroke-linecap:square;stroke-miterlimit:3" viewBox="0 0 56.696 56.695"><defs><linearGradient id="a" x1="0" x2="31.435" y1="93.136" y2="93.136" gradientTransform="scale(.99889 1.00111)" gradientUnits="userSpaceOnUse"><stop offset="0" stop-color="#5ea0ef"/><stop offset=".18" stop-color="#589eed"/><stop offset=".41" stop-color="#4897e9"/><stop offset=".66" stop-color="#2e8ce1"/><stop offset=".94" stop-color="#0a7cd7"/><stop offset="1" stop-color="#0078d4"/></linearGradient><linearGradient id="b" x1="-.001" x2="39.947" y1="84.689" y2="84.689" gradientTransform="scale(.9994 1.0006)" gradientUnits="userSpaceOnUse"><stop offset="0" stop-color="#198ab3"/><stop offset=".24" stop-color="#22a5cb"/><stop offset=".53" stop-color="#2bbfe2"/><stop offset=".79" stop-color="#30cff0"/><stop offset="1" stop-color="#32d4f5"/></linearGradient></defs><g transform="translate(-34 -34)"><title>Page-1</title><g transform="translate(34 -34.016)"><title>Log Analytics Solution.13305</title><title>Icon-manage-321</title><title>Sheet.13307</title><path d="M16.91 110.09H31.4v12.95a1.677 1.672 0 0 1-1.68 1.67H16.91Zm-14.9 14.45h12.48v-14.45H0v12.45a2.013 2.007-180 0 0 2.01 2M0 107.82h14.49V93.24H1.68A1.677 1.672-180 0 0 0 94.91Z" style="fill:url(#a);stroke:none;stroke-width:34;stroke-linecap:butt"/><g transform="translate(16.773 -16.724)"><title>Sheet.13308</title><path d="M19.96 84.74a19.759 19.7 0 0 1 19.96 20.07 19.759 19.7 0 0 1-19.96 19.9H0v-20.07a19.759 19.7 0 0 1 19.96-19.9" style="fill:url(#b);stroke:none;stroke-width:34;stroke-linecap:butt"/></g><g transform="translate(20.842 -24.995)"><title>Sheet.13309</title><path d="M28.17 102.01a3.355 3.345-180 0 0-3.36 3.34 3.355 3.345-180 0 0 .74 2.08l-5.6 10h-.44a3.355 3.345-180 0 0-1.77.53l-4.33-4.41a3.355 3.345-180 0 0 .27-1.31 3.44 3.43-180 0 0-6.88 0 3.355 3.345-180 0 0 .44 1.61L3.31 119a4.227 4.214-180 0 0-.94 0 3.355 3.345-180 1 0 3.36 3.34 3.355 3.345-180 0 0-.44-1.57l4.13-5.18a3.355 3.345-180 0 0 .84 0 3.522 3.512-180 0 0 1.2-.27l4.73 4.95a3.69 3.68-180 0 0 0 .6 3.355 3.345-180 0 0 6.71 0 3.69 3.68-180 0 0-.67-2l5.6-10.04h.34a3.355 3.345-180 0 0 3.35-3.34 3.355 3.345-180 0 0-3.35-3.48" style="fill:#fff;stroke:none;stroke-width:34;stroke-linecap:butt"/></g></g></g></svg>