<svg xmlns="http://www.w3.org/2000/svg" xml:space="preserve" width="75.595" height="75.595" style="font-size:12px;overflow:visible;color-interpolation-filters:sRGB;fill-rule:evenodd;stroke-linecap:square;stroke-miterlimit:3" viewBox="0 0 56.696 56.696"><defs><linearGradient id="a" x1="0" x2="31.4" y1="93.31" y2="93.31" gradientUnits="userSpaceOnUse"><stop offset="0" stop-color="#1988d9"/><stop offset=".9" stop-color="#54aef0"/></linearGradient><linearGradient id="b" x1="-.001" x2="40.007" y1="84.442" y2="84.442" gradientTransform="scale(.9979 1.0021)" gradientUnits="userSpaceOnUse"><stop offset="0" stop-color="#198ab3"/><stop offset=".01" stop-color="#198bb4"/><stop offset=".44" stop-color="#27b2d7"/><stop offset=".79" stop-color="#2fcbed"/><stop offset="1" stop-color="#32d4f5"/></linearGradient></defs><g transform="translate(-34 -33.998)"><title>Page-1</title><g transform="translate(34 -34.016)"><title>Log Analytics Workspace.13300</title><title>Sheet.13301</title><title>Sheet.13302</title><path d="M16.91 110.22H31.4v14.49H16.91Zm-14.9 14.49h12.48v-14.49H0v12.48a2.013 2.013-180 0 0 2.01 2.01M0 107.94h14.49V93.31H0Z" style="fill:url(#a);stroke:none;stroke-width:34;stroke-linecap:butt"/><g transform="translate(16.773 -16.605)"><title>Sheet.13303</title><path d="M19.96 84.62a19.76 19.76 0 0 1 19.96 20.13 19.76 19.76 0 0 1-19.96 19.96H0v-20.13a19.76 19.76 0 0 1 19.96-19.96" style="fill:url(#b);stroke:none;stroke-width:34;stroke-linecap:butt"/></g><g transform="translate(23.616 -25.898)"><title>Sheet.13304</title><path d="M0 111.02h4.56v13.69H0Zm9.12 4.57h4.57v9.12H9.12Zm9.13-9.13h4.56v18.25h-4.56z" style="fill:#fff;stroke:none;stroke-width:34;stroke-linecap:butt"/></g></g></g></svg>