<svg xmlns="http://www.w3.org/2000/svg" xml:space="preserve" width="68.027" height="75.6" style="font-size:12px;overflow:visible;color-interpolation-filters:sRGB;fill-rule:evenodd;stroke-linecap:square;stroke-miterlimit:3" viewBox="0 0 51.02 56.7"><g transform="translate(-27.818 -27.814)"><title>Page-1</title><g transform="translate(27.818 -34.016)"><title>Logz metrics data source.13297</title><title>Sheet.13298</title><title>Sheet.13299</title><path d="m0 104.35 25.51 14.18 25.51-14.18V76L25.51 61.83 1.28 75.3a1.57 1.526-180 0 0-.8 1.32c0 .54.31 1.05.8 1.32l23.13 12.85v11.23L0 88.46Zm25.51 11.72L2.2 103.13v-11l10.41 5.78 12.82 7.22 13.44-7.47V82.72l-13.44-7.47-12.29 6.83-9.83-5.46 22.2-12.34 23.3 12.95v25.9zM15.34 83.3l10.17 5.65 10.09-5.6-10.17-5.65Zm21.33 1.9-10.05 5.59v11.23l10.05-5.58z" style="fill:#053447;stroke:none;stroke-width:27.81819916;stroke-linecap:butt"/></g></g></svg>