<svg xmlns="http://www.w3.org/2000/svg" xml:space="preserve" width="75.587" height="60.501" style="font-size:12px;overflow:visible;color-interpolation-filters:sRGB;fill-rule:evenodd;stroke-linecap:square;stroke-miterlimit:3" viewBox="0 0 56.69 45.376"><g transform="translate(-12.24 -12.232)"><title>Page-1</title><g transform="translate(12.24 -34.016)"><title>Management Group.13283</title><title> ManagementGroups</title><g transform="translate(10.292 -10.12)"><title>Sheet.13285</title><path d="m29.39 74.79-.32.77-10.14-12.04-.88.71-.87-.71L7.04 75.56l-.32-.77L0 90.75l2.09.86 4.63-10.98 4.62 10.98 2.09-.86-5.4-12.85 10.02-11.91L28.08 77.9l-5.4 12.85 2.09.86 4.62-10.98 4.63 10.98 2.09-.86z" style="fill:#57a300;stroke:none;stroke-width:12.23999977;stroke-linecap:butt"/></g><g transform="translate(41.953 -7.185)"><title>Sheet.13286</title><ellipse cx="3.402" cy="88.242" rx="3.402" ry="3.368" style="fill:#3999c6;stroke:none;stroke-width:12.23999977;stroke-linecap:butt"/></g><g transform="translate(30.614 -7.185)"><title>Sheet.13287</title><ellipse cx="3.402" cy="88.242" rx="3.402" ry="3.368" style="fill:#3999c6;stroke:none;stroke-width:12.23999977;stroke-linecap:butt"/></g><g transform="translate(22.677 -31.883)"><title>Sheet.13288</title><ellipse cx="5.669" cy="85.997" rx="5.669" ry="5.613" style="fill:#804998;stroke:none;stroke-width:12.23999977;stroke-linecap:butt"/></g><g transform="translate(12.472 -19.534)"><title>Sheet.13289</title><ellipse cx="4.535" cy="87.12" rx="4.535" ry="4.491" style="fill:#0072c6;stroke:none;stroke-width:12.23999977;stroke-linecap:butt"/></g><g transform="translate(35.15 -19.534)"><title>Sheet.13290</title><ellipse cx="4.535" cy="87.12" rx="4.535" ry="4.491" style="fill:#0072c6;stroke:none;stroke-width:12.23999977;stroke-linecap:butt"/></g><g transform="translate(19.276 -7.185)"><title>Sheet.13291</title><ellipse cx="3.402" cy="88.242" rx="3.402" ry="3.368" style="fill:#3999c6;stroke:none;stroke-width:12.23999977;stroke-linecap:butt"/></g><g transform="translate(7.937 -7.185)"><title>Sheet.13292</title><ellipse cx="3.402" cy="88.242" rx="3.402" ry="3.368" style="fill:#3999c6;stroke:none;stroke-width:12.23999977;stroke-linecap:butt"/></g><title>Sheet.13293</title><path d="M10.77 91.61a2.102 2.081 0 0 1-.79-.22L2.27 86.9A4.677 4.63 0 0 1 0 83.08V54.79a4.529 4.484 0 0 1 2.27-3.82l7.71-4.49a1.654 1.638 0 0 1 1.7 2.81l-7.71 4.49a1.526 1.511-180 0 0-.57 1.01v28.29a1.526 1.511-180 0 0 .57 1.01l7.71 4.49a1.65 1.635 0 0 1 .57 2.24 1.938 1.919 0 0 1-1.48.79m35.15-45.35a2.102 2.081 0 0 1 .79.22l7.72 4.49a4.677 4.63 0 0 1 2.26 3.82v28.29a4.529 4.484 0 0 1-2.26 3.82l-7.72 4.49a1.654 1.638 0 0 1-1.7-2.81l7.71-4.49a1.526 1.511-180 0 0 .57-1.01V54.79a1.526 1.511-180 0 0-.57-1.01l-7.71-4.49a1.65 1.635 0 0 1-.56-2.25 2.142 2.12 0 0 1 1.47-.78" style="fill:#7a7a7a;stroke:none;stroke-width:12.23999977;stroke-linecap:butt"/></g></g></svg>