<svg xmlns="http://www.w3.org/2000/svg" xml:space="preserve" width="75.586" height="75.586" style="font-size:12px;overflow:visible;color-interpolation-filters:sRGB;fill-rule:evenodd;stroke-linecap:square;stroke-miterlimit:3" viewBox="0 0 56.69 56.69"><g transform="translate(-5.67 -5.674)"><title>Page-1</title><g transform="translate(5.67 -34.016)"><title>Managed Prometheus.13294</title><title>Sheet.13295</title><title>Sheet.13296</title><path d="M28.35 39.69C12.69 39.69 0 52.38 0 68.03c0 15.66 12.69 28.35 28.35 28.35 15.65 0 28.34-12.69 28.34-28.35 0-15.65-12.69-28.34-28.34-28.34m0 53.05c-4.46 0-8.07-2.98-8.07-6.65h16.13c0 3.67-3.61 6.65-8.06 6.65m13.32-8.85H15.02v-4.83h26.65zm-.1-7.32H15.1c-.09-.1-.18-.2-.26-.3-2.73-3.31-3.37-5.04-4-6.8-.01-.06 3.31.68 5.66 1.21 0 0 1.21.28 2.98.6-1.7-1.99-2.7-4.53-2.7-7.11 0-5.69 4.35-10.65 2.78-14.67 1.53.13 3.17 3.23 3.28 8.09 1.63-2.25 2.31-6.35 2.31-8.87 0-2.61 1.71-5.64 3.43-5.74-1.53 2.52.4 4.69 2.11 10.05.64 2.02.56 5.41 1.06 7.57.16-4.47.93-10.99 3.77-13.24-1.25 2.83.18 6.38 1.16 8.08 1.59 2.75 2.55 4.84 2.55 8.78 0 2.64-.98 5.13-2.62 7.08 1.87-.35 3.16-.67 3.16-.67l6.08-1.19s-.88 3.64-4.28 7.13" style="fill:#e6522c;stroke:none;stroke-width:5.30636978;stroke-linecap:butt"/></g></g></svg>