<svg xmlns="http://www.w3.org/2000/svg" xml:space="preserve" width="75.587" height="64.253" style="font-size:12px;overflow:visible;color-interpolation-filters:sRGB;fill-rule:evenodd;stroke-linecap:square;stroke-miterlimit:3" viewBox="0 0 56.69 48.19"><g transform="translate(-5.67 -4.814)"><title>Page-1</title><g transform="translate(5.67 -34.016)"><title>Microsoft Graph Data Connect.13258</title><title> graph_color256</title><g transform="translate(15.159 -24.005)"><title>Sheet.13260</title><path d="M0 64.44h26.55L4.12 72.56Zm39.89 22.58H28.97l-2.42-22.58Z" style="fill:#41a4ed;stroke:none;stroke-width:2.39061999;stroke-linecap:butt"/></g><g transform="translate(19.278 -24.005)"><title>Sheet.13261</title><path d="m0 72.56 22.43-8.12 2.42 22.58z" style="fill:#2b7cd2;stroke:none;stroke-width:2.39061999;stroke-linecap:butt"/></g><g transform="translate(19.278 -10.143)"><title>Sheet.13262</title><path d="m0 58.7.62 28.32 24.19-13.86Z" style="fill:#0358a6;stroke:none;stroke-width:2.39061999;stroke-linecap:butt"/></g><g transform="translate(1.877 -1.426)"><title>Sheet.13263</title><path d="m0 64.44 17.4-14.46.63 28.33Zm18.03 13.87 24.22-13.87-2.41 22.58Z" style="fill:#103f90;stroke:none;stroke-width:2.39061999;stroke-linecap:butt"/></g><g transform="translate(1.877 -1.425)"><title>Sheet.13264</title><path d="m0 64.44 18.03 13.87-4.75 8.71z" style="fill:#163870;stroke:none;stroke-width:2.39061999;stroke-linecap:butt"/></g><g transform="translate(15.159 -1.425)"><title>Sheet.13265</title><path d="m0 87.02 4.74-8.71 21.81 8.71z" style="fill:#112d56;stroke:none;stroke-width:2.39061999;stroke-linecap:butt"/></g><g transform="translate(1.877 -1.426)"><title>Sheet.13266</title><path d="m0 64.44 13.28-22.57 4.12 8.11Zm39.84 22.58 13.3-22.58H42.25Z" style="fill:#0078d3;stroke:none;stroke-width:2.39061999;stroke-linecap:butt"/></g><title>Sheet.13267</title><g transform="translate(41.713 -1.426)"><title>Sheet.13268</title><path d="M13.31 64.44H2.41L0 87.02Z" style="fill:#036dc0;stroke:none;stroke-width:2.39061999;stroke-linecap:butt"/></g><title>Sheet.13269</title><path d="M56.17 62.05 43.04 39.72l-.52-.89H14.17l-.52.89L.52 62.05l-.52.88.52.88 13.13 22.33.52.88h28.35l.52-.88 13.13-22.33.52-.88zm-1.9.3h-8.86a2.21 2.169-180 0 0-.78-.94l-2.03-18.9Zm-32.5 12.68a2.194 2.153-180 0 0-1.01-.55l-.52-23.19a2.2 2.16-180 0 0 1.07-.75l20.1 11.7a2.184 2.143-180 0 0-.12 1.61zm20.65-13.78L21.75 49.23a2.194 2.153-180 0 0-.09-.59l19.46-7.05 2.09 19.45a2.18 2.14-180 0 0-.79.21M20.84 47.5a2.187 2.147-180 0 0-1.29-.42c-.04 0-.07.01-.11.01l-3.28-6.49h23.73zm-2.81 3.3a2.198 2.158-180 0 0 .83.5l.53 23.28a2.196 2.155-180 0 0-.55.32L3.36 63Zm1.81 27.9a2.176 2.136-180 0 0 1.91-.57l17.83 7.13H16.27Zm21.29 5.72L22.4 76.93a2.05 2.011-180 0 0 0-.7l19.71-11.28a2.188 2.147-180 0 0 1.06.39zM14.9 41.14l3.26 6.43a2.17 2.13-180 0 0-.78 2.01L2.81 61.69ZM2.94 64.39 18.1 76.05a2.178 2.138-180 0 0 .53 2.01l-3.68 6.76zM42.63 83.3 44.59 65a2.2 2.16-180 0 0 .93-1.3h8.64z" style="fill:#fff;stroke:none;stroke-width:2.39061999;stroke-linecap:butt"/></g></g></svg>