<svg xmlns="http://www.w3.org/2000/svg" xml:space="preserve" width="68.031" height="75.595" style="font-size:12px;overflow:visible;color-interpolation-filters:sRGB;fill-rule:evenodd;stroke-linecap:square;stroke-miterlimit:3" viewBox="0 0 51.024 56.696"><defs><linearGradient id="a" x1="0" x2="10.855" y1="122.862" y2="122.862" gradientTransform="scale(.98874 1.0114)" gradientUnits="userSpaceOnUse"><stop offset=".005" stop-color="#773adc"/><stop offset=".245" stop-color="#9255e6"/><stop offset=".5" stop-color="#a669ee"/><stop offset=".755" stop-color="#b376f2"/><stop offset="1" stop-color="#b77af4"/></linearGradient></defs><g transform="translate(-39.274 -39.274)"><title>Page-1</title><g transform="translate(39.274 -39.274)"><title>Performance.13229</title><title>Icon-nameAsset 5</title><title>Sheet.13231</title><g transform="translate(3.133 -22.087)"><title>Sheet.13232</title><path d="m41.13 104.38-13.06 23.67-13.81-14.33L0 132.51l3.37 2.67 11.27-14.85L29 135.24l15.84-28.72Z" style="fill:#b796f9;stroke:none;stroke-width:39.27360153;stroke-linecap:butt"/></g><g transform="translate(12.196 -34.833)"><title>Sheet.13233</title><ellipse cx="5.366" cy="129.751" rx="5.366" ry="5.489" style="fill:url(#a);stroke:none;stroke-width:39.27360153;stroke-linecap:butt"/></g><g transform="translate(26.766 -21.173)"><title>Sheet.13234</title><ellipse cx="5.366" cy="129.751" rx="5.366" ry="5.489" style="fill:none;stroke:none;stroke-width:39.27360153;stroke-linecap:butt"/></g><g transform="translate(40.291 -45.715)"><title>Sheet.13235</title><ellipse cx="5.366" cy="129.751" rx="5.366" ry="5.489" style="fill:none;stroke:none;stroke-width:39.27360153;stroke-linecap:butt"/></g><g transform="translate(0 -18.805)"><title>Sheet.13236</title><ellipse cx="5.366" cy="129.751" rx="5.366" ry="5.489" style="fill:none;stroke:none;stroke-width:39.27360153;stroke-linecap:butt"/></g><g transform="translate(14.606)"><title>Sheet.13237</title><path d="M0 134.3a.927.944-180 0 0 .927.944l6.583-.004a.927.944-180 0 0 .927-.944L8.43 110.9a.927.944-180 0 0-.927-.944l-6.573.004a.927.944-180 0 0-.927.944z" style="fill:#0078d4;stroke:none;stroke-width:39.27360153;stroke-linecap:butt"/></g><g transform="translate(28.066)"><title>Sheet.13238</title><path d="M0 134.3a.927.944-180 0 0 .927.944l6.583-.004a.927.944-180 0 0 .927-.944L8.43 119.65a.927.944-180 0 0-.927-.944l-6.573.004a.927.944-180 0 0-.927.944z" style="fill:#005ba1;stroke:none;stroke-width:39.27360153;stroke-linecap:butt"/></g><g transform="translate(41.525)"><title>Sheet.13239</title><path d="M0 134.3a.927.944-180 0 0 .927.944l6.583-.004a.927.944-180 0 0 .927-.944L8.43 102.44a.927.944-180 0 0-.927-.944L.93 101.49a.927.944-180 0 0-.927.944z" style="fill:#005ba1;stroke:none;stroke-width:39.27360153;stroke-linecap:butt"/></g><g transform="translate(1.146)"><title>Sheet.13240</title><path d="M0 134.3a.927.944-180 0 0 .927.944l6.583-.004a.927.944-180 0 0 .927-.944L8.43 119.65a.927.944-180 0 0-.927-.944l-6.573.004a.927.944-180 0 0-.927.944z" style="fill:#5ea0ef;stroke:none;stroke-width:39.27360153;stroke-linecap:butt"/></g></g></g></svg>