<svg xmlns="http://www.w3.org/2000/svg" xml:space="preserve" width="76.862" height="76.872" style="font-size:12px;overflow:visible;color-interpolation-filters:sRGB;fill-rule:evenodd;stroke-linecap:square;stroke-miterlimit:3" viewBox="0 0 57.647 57.654"><g transform="translate(-12.24 -12.237)"><title>Page-1</title><g transform="translate(12.24 -34.016)"><title>Performance Diagnostics.13241</title><title>g64</title><g transform="translate(8.089 -15.105)"><title>path4</title><path d="M8.15 93.71c1.52 5.54.73 6.77-8.15 6.77v2.47h30.03v-2.47c-8.88 0-10.82-1.23-9.31-6.77z" style="fill:#7a7a7a;stroke:none;stroke-width:12.23999977;stroke-linecap:butt"/></g><g transform="translate(0 -24.348)"><title>path6</title><path d="M2.79 70.6C1.41 70.6 0 71.79 0 73.12v27.33c0 1.32 1.4 2.5 2.79 2.5H43.7c1.39 0 2.51-1.18 2.51-2.5V73.12c0-1.33-1.12-2.52-2.51-2.52z" style="fill:#a0a1a2;stroke:none;stroke-width:12.23999977;stroke-linecap:butt"/></g><g transform="translate(.002 -24.346)"><title>path8</title><path d="M43.45 70.6H2.51C1.12 70.6 0 71.79 0 73.12v27.33c0 1.32 1.12 2.5 2.51 2.5h.97z" style="fill:#fff;fill-opacity:.2;stroke:none;stroke-width:12.23999977;stroke-linecap:butt"/></g><g transform="translate(3.468 -27.812)"><title>path10</title><path d="M0 77.534h39.276v25.415H0z" style="fill:#59b4d9;stroke:none;stroke-width:12.23999977;stroke-linecap:butt"/></g><g transform="translate(8.087 -15.105)"><title>path12</title><path d="M0 100.64h30.03v2.31H0Z" style="fill:#a0a1a2;stroke:none;stroke-width:12.23999977;stroke-linecap:butt"/></g><g transform="translate(22.628 -54.165)"><title>path14</title><path d="M0 102.31a.647.647 0 0 1 .656-.64.647.647 0 0 1 .655.64.647.647 0 0 1-.655.64.647.647 0 0 1-.656-.64" style="fill:#b8d432;stroke:none;stroke-width:12.23999977;stroke-linecap:butt"/></g><g transform="translate(14.982 -41.56)"><title>path16</title><path d="M8.1 102.95a.26.26 0 0 1-.121-.032L.12 98.54a.228.228 0 0 1 0-.4l7.91-4.4a.25.25 0 0 1 .237 0l7.863 4.37a.23.23 0 0 1 .119.2.24.24 0 0 1-.119.2l-7.91 4.41a.25.25 0 0 1-.12.034z" style="fill:#fff;stroke:none;stroke-width:12.23999977;stroke-linecap:butt"/></g><g transform="translate(24.261 -30.437)"><title>path18</title><path d="M.23 102.95a.23.23 0 0 1-.229-.235L0 93.81c0-.09.05-.16.11-.21l7.63-4.43a.23.23 0 0 1 .232 0 .23.23 0 0 1 .118.202v8.908c0 .08-.05.16-.12.2l-7.62 4.44a.2.2 0 0 1-.117.031z" style="fill:#fff;fill-opacity:.7;stroke:none;stroke-width:12.23999977;stroke-linecap:butt"/></g><g transform="translate(13.864 -30.437)"><title>path20</title><path d="M7.85 102.95a.2.2 0 0 1-.11-.031L.12 98.48a.23.23 0 0 1-.118-.202L0 89.43a.232.232 0 0 1 .347-.202L7.97 93.66a.24.24 0 0 1 .112.202l.008 8.858a.24.24 0 0 1-.112.202.25.25 0 0 1-.12.031z" style="fill:#fff;fill-opacity:.4;stroke:none;stroke-width:12.23999977;stroke-linecap:butt"/></g><g transform="translate(40.52)"><title>path22</title><path d="m0 91.4 11.55 11.55a3.267 3.267-180 0 0 4.62-4.62L4.62 86.78Z" style="fill:#000;stroke:none;stroke-width:12.23999977;stroke-linecap:butt"/></g><g transform="translate(42.034 -7.018)"><title>path24</title><path d="M4.62 95.31 0 99.93l3.02 3.02a16.2 16.2-180 0 0 4.62-4.62z" style="fill:#000;fill-opacity:.4;stroke:none;stroke-width:12.23999977;stroke-linecap:butt"/></g><g transform="translate(20.796 -10.484)"><title>circle26</title><circle cx="12.707" cy="90.241" r="12.707" style="fill:#fff;stroke:none;stroke-width:12.23999977;stroke-linecap:butt"/></g><g transform="translate(20.206 -12.794)"><title>path28</title><path d="M4.62 96.58c0-7.51 5.23-12.7 12.71-12.7 2.32 0 4.49.63 6.36 1.72-2.2-3.79-6.29-6.35-10.98-6.35C5.69 79.25 0 84.94 0 91.96c0 4.7 2.55 8.79 6.34 10.99a12.63 12.63 0 0 1-1.72-6.37" style="fill:#000;fill-opacity:.2;stroke:none;stroke-width:12.23999977;stroke-linecap:butt"/></g><g transform="translate(17.446 -7.134)"><title>path30</title><path d="M16.06 70.83C7.19 70.83 0 78.02 0 86.89s7.19 16.06 16.06 16.06 16.05-7.19 16.05-16.06-7.18-16.06-16.05-16.06m0 27.96c-6.57 0-11.9-5.33-11.9-11.9s5.33-11.9 11.9-11.9 11.9 5.33 11.9 11.9-5.33 11.9-11.9 11.9" style="fill:#000;stroke:none;stroke-width:12.23999977;stroke-linecap:butt"/></g><g transform="translate(25.416 -17.415)"><title>path32</title><path d="M0 93.71h3.47v9.24H0Zm5.78 2.31h3.46v6.93H5.78Zm5.77-5.78h3.47v12.71h-3.47z" style="fill:#57a300;stroke:none;stroke-width:12.23999977;stroke-linecap:butt"/></g></g></g></svg>