<svg xmlns="http://www.w3.org/2000/svg" xml:space="preserve" width="75.587" height="60.467" style="font-size:12px;overflow:visible;color-interpolation-filters:sRGB;fill-rule:evenodd;stroke-linecap:square;stroke-miterlimit:3" viewBox="0 0 56.69 45.35"><g transform="translate(-12.24 -12.244)"><title>Page-1</title><g transform="translate(12.24 -34.016)"><title>Playbook.13220</title><title>g18</title><g transform="translate(15.987 -11.806)"><title>path4</title><path d="M13.49 76.41v-5.84h-2.83v5.84c0 1.06-.91 1.99-2.38 2.46l-3.86.82C1.81 80.51 0 82.61 0 84.95v6.66h2.83v-6.66c0-1.05.91-1.99 2.39-2.46l3.85-.93c2.61-.7 4.42-2.81 4.42-5.15" style="fill:#59b4d9;stroke:none;stroke-width:12.23999977;stroke-linecap:butt"/></g><g transform="translate(12.472 -6.43)"><title>path6</title><path d="M9.75 89.27V83.9c0-1.29-1.02-2.34-2.27-2.34H2.27C1.02 81.56 0 82.61 0 83.9v5.37c0 1.29 1.02 2.34 2.27 2.34h5.21c1.25 0 2.27-1.05 2.27-2.34" style="fill:#57a300;stroke:none;stroke-width:12.23999977;stroke-linecap:butt"/></g><g transform="translate(26.305 -11.572)"><title>path8</title><path d="M0 76.18v-5.84h2.83v5.84c0 1.05.91 1.99 2.39 2.45l4.76 1.06c2.61.82 4.42 2.92 4.42 5.26v6.66h-2.83v-6.66c0-1.05-.91-1.99-2.39-2.46l-4.76-1.05C1.81 80.62 0 78.52 0 76.18" style="fill:#59b4d9;stroke:none;stroke-width:12.23999977;stroke-linecap:butt"/></g><g transform="translate(34.47 -6.195)"><title>path10</title><path d="M0 89.27V83.9c0-1.29 1.02-2.34 2.27-2.34h5.21c1.25 0 2.27 1.05 2.27 2.34v5.37c0 1.29-1.02 2.34-2.27 2.34H2.27C1.02 91.61 0 90.56 0 89.27" style="fill:#57a300;stroke:none;stroke-width:12.23999977;stroke-linecap:butt"/></g><g transform="translate(26.305 -27.236)"><title>path12</title><path d="M0 85.999h3.175v5.611H0z" style="fill:#59b4d9;stroke:none;stroke-width:12.23999977;stroke-linecap:butt"/></g><g transform="translate(22.677 -30.626)"><title>path14</title><path d="M7.37 84.01v4.33h-4.2v-4.33Zm.91-3.27H2.27C1.02 80.74 0 81.79 0 83.08v6.19c0 1.29 1.02 2.34 2.27 2.34h6.01c1.24 0 2.26-1.05 2.26-2.34v-6.19c0-1.29-1.02-2.34-2.26-2.34" style="fill:#0072c6;stroke:none;stroke-width:12.23999977;stroke-linecap:butt"/></g><title>path16</title><path d="M8.96 91.61c-2.38 0-4.08-.47-5.1-1.29-1.03-.93-1.48-2.45-1.48-4.67V73.49c0-1.99-.79-3.04-2.38-3.04v-3.04c1.59 0 2.38-1.05 2.38-3.15V52.33c0-2.22.45-3.85 1.48-4.79 1.02-.93 2.72-1.28 5.1-1.28v3.03c-1.7 0-2.61.94-2.61 2.93v11.69c0 2.69-.79 4.32-2.49 5.02 1.58.7 2.49 2.34 2.49 5.03v11.57c0 1.05.23 1.87.57 2.34.45.47 1.02.7 1.92.7zc-.12 0 0 0 0 0m38.78-45.35c2.38 0 4.08.46 5.1 1.28 1.02.94 1.47 2.46 1.47 4.68v12.15c0 1.99.8 3.04 2.38 3.04v3.04c-1.58 0-2.38 1.05-2.38 3.16v11.8c0 2.23-.45 3.86-1.47 4.8-1.02.93-2.72 1.4-5.1 1.4v-3.04c1.7 0 2.6-.93 2.6-2.92V73.96c0-2.69.8-4.33 2.5-5.03-1.59-.7-2.5-2.33-2.5-5.02V52.33c0-1.05-.22-1.87-.56-2.33-.46-.47-1.02-.71-1.93-.71z" style="fill:#59b4d9;stroke:none;stroke-width:12.23999977;stroke-linecap:butt"/></g></g></svg>