<svg xmlns="http://www.w3.org/2000/svg" xml:space="preserve" width="60.466" height="75.586" style="font-size:12px;overflow:visible;color-interpolation-filters:sRGB;fill-rule:evenodd;stroke-linecap:square;stroke-miterlimit:3" viewBox="0 0 45.35 56.69"><defs><linearGradient id="a" x1="0" x2="50.704" y1="60.838" y2="60.838" gradientTransform="scale(.8944 1.11806)" gradientUnits="userSpaceOnUse"><stop offset="0" stop-color="#0078d4"/><stop offset=".82" stop-color="#5ea0ef"/></linearGradient></defs><g transform="translate(-34 -34.004)"><title>Page-1</title><g transform="translate(34 -34.016)"><title>Policy Compliance.13207</title><title>Icon-manage-309</title><g transform="translate(.327 -.434)"><title>Sheet.13209</title><path d="M25.62 68.88H1.86A1.863 1.9-180 0 0 0 70.78v52.03a1.863 1.9-180 0 0 1.86 1.9h40.98a1.863 1.9-180 0 0 1.86-1.9V88.39a1.895 1.934-180 0 0-1.86-1.93H29.25a1.83 1.868 0 0 1-1.87-1.9V70.78a1.863 1.9-180 0 0-1.76-1.9" style="fill:#fff;stroke:none;stroke-width:34;stroke-linecap:butt"/></g><title>Sheet.13210</title><path d="M24.96 70.88v13.08a4.705 4.802-180 0 0 4.71 4.77h12.91v33.11H2.78V70.88Zm.98-2.86H1.9A1.895 1.934-180 0 0 0 69.95v52.82a1.895 1.934-180 0 0 1.9 1.94h41.56a1.895 1.934-180 0 0 1.89-1.94V87.82a1.895 1.934-180 0 0-1.89-1.93H29.67a1.895 1.934 0 0 1-1.9-1.93V69.95a1.895 1.934-180 0 0-1.83-1.93" style="fill:url(#a);stroke:none;stroke-width:34;stroke-linecap:butt"/><g transform="translate(27.121 -38.351)"><title>Sheet.13211</title><path d="M17.51 124.71 0 106.8v14.57a3.268 3.335-180 0 0 3.27 3.34z" style="fill:#0078d4;stroke:none;stroke-width:34;stroke-linecap:butt"/></g><g transform="translate(17.122 -8.016)"><title>Sheet.13212</title><path d="M10.16 111.65a7.221 7.37 0 0 1-9.57 0L0 123.75a.948.967-180 0 0 1.634.734l3.656-3.834 3.73 3.74a.948.967-180 0 0 1.601-.734z" style="fill:#b31b1b;stroke:none;stroke-width:34;stroke-linecap:butt"/></g><g transform="translate(14.083 -18.575)"><title>Sheet.13213</title><ellipse cx="8.528" cy="115.971" rx="8.528" ry="8.737" style="fill:#e62323;stroke:none;stroke-width:34;stroke-linecap:butt"/></g><g transform="translate(16.142 -20.676)"><title>Sheet.13214</title><ellipse cx="6.47" cy="118.072" rx="6.47" ry="6.636" style="fill:#ffd400;stroke:none;stroke-width:34;stroke-linecap:butt"/></g></g></g></svg>