<svg xmlns="http://www.w3.org/2000/svg" xml:space="preserve" width="49.14" height="74.154" style="font-size:12px;overflow:visible;color-interpolation-filters:sRGB;fill-rule:evenodd;stroke-linecap:square;stroke-miterlimit:3" viewBox="0 0 36.855 55.615"><defs><linearGradient id="a" x1="-.003" x2="45.271" y1="55.368" y2="55.368" gradientTransform="scale(.81405 1.22842)" gradientUnits="userSpaceOnUse"><stop offset=".195" stop-color="#ffd70f"/><stop offset=".44" stop-color="#ffcb12"/><stop offset=".875" stop-color="#feac19"/><stop offset="1" stop-color="#fea11b"/></linearGradient></defs><g transform="translate(-33.998 -34)"><title>Page-1</title><g transform="translate(34 -34.016)"><title>Policy Event.13198</title><title>MsPortalFx.base.images-37</title><title>path4</title><path d="M15.53 98.95H.83a.76.738 0 0 1-.833-.618.556.54 0 0 1 .073-.263L17.71 68.39a.87.847 0 0 1 .76-.37h17.38a.756.735 0 0 1 .833.618.562.547 0 0 1-.147.368L15.84 92.22h20.18a.76.738 0 0 1 .833.618.588.572 0 0 1-.213.423L3.09 122.98c-.32.15-2.54 1.73-1.45-.66z" style="fill:url(#a);stroke:none;stroke-width:34;stroke-linecap:butt"/></g></g></svg>