<svg xmlns="http://www.w3.org/2000/svg" xml:space="preserve" width="75.587" height="75.587" style="font-size:12px;overflow:visible;color-interpolation-filters:sRGB;fill-rule:evenodd;stroke-linecap:square;stroke-miterlimit:3" viewBox="0 0 56.69 56.69"><g transform="translate(-38.25 -38.25)"><title>Page-1</title><g transform="translate(38.25 -38.25)"><title>Policy Exemption.13193</title><title>Sheet.13194</title><title>Sheet.13195</title><path d="M28.35 76.5C12.76 76.5 0 89.26 0 104.85s12.76 28.34 28.35 28.34 28.34-12.75 28.34-28.34S43.94 76.5 28.35 76.5" style="fill:#b8d432;stroke:none;stroke-width:38.25;stroke-linecap:butt"/><g transform="translate(3.543 -3.543)"><title>Sheet.13196</title><circle cx="24.803" cy="108.39" r="24.803" style="fill:#fff;stroke:none;stroke-width:38.25;stroke-linecap:butt"/></g><g transform="translate(13.819 -13.465)"><title>Sheet.13197</title><path d="m29.06 107.68-3.9-3.9c-.36-.35-1.07-.35-1.42 0L.35 127.52c-.35.36-.35 1.07 0 1.42l3.55 3.9c.35.35 1.06.35 1.41 0L28.7 109.1c.36-.36.71-1.06.36-1.42" style="fill:#b8d432;stroke:none;stroke-width:38.25;stroke-linecap:butt"/></g></g></g></svg>