<svg xmlns="http://www.w3.org/2000/svg" xml:space="preserve" width="71.805" height="75.417" style="font-size:12px;overflow:visible;color-interpolation-filters:sRGB;fill-rule:evenodd;stroke-linecap:square;stroke-miterlimit:3" viewBox="0 0 53.854 56.563"><defs><linearGradient id="a" x1="0" x2="17.443" y1="107.512" y2="107.512" gradientTransform="scale(1.00303 .99698)" gradientUnits="userSpaceOnUse"><stop offset="0" stop-color="#198ab3"/><stop offset=".16" stop-color="#1f9ac2"/><stop offset=".5" stop-color="#29bade"/><stop offset=".8" stop-color="#30cdef"/><stop offset="1" stop-color="#32d4f5"/></linearGradient></defs><g transform="translate(-34.005 -33.997)"><title>Page-1</title><g transform="translate(34 -34.016)"><title>Policy.13168</title><g transform="translate(16.344 -20.047)"><title>ellipse17</title><ellipse cx="8.748" cy="115.882" rx="8.748" ry="8.695" style="fill:url(#a);stroke:none;stroke-width:34;stroke-linecap:butt"/></g><g transform="translate(45.312 -38.07)"><title>ellipse19</title><ellipse cx="4.273" cy="120.313" rx="4.273" ry="4.264" style="fill:#32bedd;stroke:none;stroke-width:34;stroke-linecap:butt"/></g><g transform="translate(45.312 -24.145)"><title>ellipse21</title><ellipse cx="4.273" cy="120.313" rx="4.273" ry="4.264" style="fill:#32bedd;stroke:none;stroke-width:34;stroke-linecap:butt"/></g><g transform="translate(45.312 -10.253)"><title>ellipse23</title><ellipse cx="4.273" cy="120.313" rx="4.273" ry="4.264" style="fill:#32bedd;stroke:none;stroke-width:34;stroke-linecap:butt"/></g><g transform="translate(35.555 -30.941)"><title>ellipse25</title><ellipse cx="4.273" cy="120.313" rx="4.273" ry="4.264" style="fill:#50e6ff;stroke:none;stroke-width:34;stroke-linecap:butt"/></g><g transform="translate(35.555 -17.016)"><title>ellipse27</title><ellipse cx="4.273" cy="120.313" rx="4.273" ry="4.264" style="fill:#50e6ff;stroke:none;stroke-width:34;stroke-linecap:butt"/></g><g transform="translate(.026 -39.636)"><title>path29</title><path d="M4.74 124.58a.807.8 0 0 1 .303-.267L24.63 113.02c.27 0 16.82 9.26 16.82 9.26a.807.8-180 0 0 1.211-.7l-.001-3.63a.807.8-180 0 0-.404-.7c.004 0-17.356-9.73-17.596-9.6L.37 121.45l-.37.26Z" style="fill:#949494;stroke:none;stroke-width:34;stroke-linecap:butt"/></g><g transform="translate(25.091)"><title>path31</title><path d="M16.32 110.13.37 119.22a1.178 1.166 0 0 1-.37 0v5.33a.673.666-180 0 0 .37 0l16.82-9.53a.807.8-180 0 0 .404-.666l.006-3.524a.807.8-180 0 0-1.279-.7z" style="fill:#949494;stroke:none;stroke-width:34;stroke-linecap:butt"/></g><title>path33</title><path d="M25.09 119.32a1.043 1.033 0 0 1-.44 0L5.07 107.89a.74.733 0 0 1-.404-.666L4.67 85.34a.908.9 0 0 1 0-.4L.03 82.08a.942.933-180 0 0 0 .433v27.547a.807.8-180 0 0 .37.7l24.29 13.79a.807.8-180 0 0 .404 0z" style="fill:#b3b3b3;stroke:none;stroke-width:34;stroke-linecap:butt"/></g></g></svg>