<svg xmlns="http://www.w3.org/2000/svg" xml:space="preserve" width="75.59" height="75.587" style="font-size:12px;overflow:visible;color-interpolation-filters:sRGB;fill-rule:evenodd;stroke-linecap:square;stroke-miterlimit:3" viewBox="0 0 56.693 56.691"><g transform="translate(-12.24 -12.243)"><title>Page-1</title><g transform="translate(12.24 -34.016)"><title>Policy Initiative.13183</title><title>Sheet.13184</title><g transform="translate(0 -19.276)"><title>Sheet.13185</title><path d="m6.8 96.15-6.8 6.8h56.69l-6.8-6.8z" style="fill:#804998;stroke:none;stroke-width:12.23999977;stroke-linecap:butt"/></g><g transform="translate(6.803 -3.402)"><title>Sheet.13186</title><path d="m35.17 63.04-5.39-5.45-2.25-2.26H0v47.62h37.42V65.3Z" style="fill:#59b4d9;stroke:none;stroke-width:12.23999977;stroke-linecap:butt"/></g><g transform="translate(9.05 -5.67)"><title>Sheet.13187</title><path d="M25.06 59.86H0v43.09h32.92V67.8h-7.86z" style="fill:#fff;fill-opacity:.8;stroke:none;stroke-width:12.23999977;stroke-linecap:butt"/></g><g transform="translate(11.339 -9.07)"><title>Sheet.13188</title><path d="m36.3 63.04-5.39-5.45-2.25-2.26H0v47.62h38.55V65.3Z" style="fill:#59b4d9;stroke:none;stroke-width:12.23999977;stroke-linecap:butt"/></g><g transform="translate(13.586 -11.339)"><title>Sheet.13189</title><path d="M26.19 59.86H0v43.09h34.06V67.8h-7.87z" style="fill:#fff;fill-opacity:.8;stroke:none;stroke-width:12.23999977;stroke-linecap:butt"/></g><g transform="translate(20.41 -18.284)"><title>Sheet.13190</title><path d="M0 85.45v11.49c0 .09.05.17.13.22l9.95 5.74c.08.05.17.05.25 0l9.95-5.74a.25.25-180 0 0 .127-.221l.003-11.489a.26.26-180 0 0-.127-.221L10.33 79.48a.26.26-180 0 0-.255 0L.13 85.23a.26.26-180 0 0-.128.221z" style="fill:#3999c6;fill-opacity:.8;stroke:none;stroke-width:12.23999977;stroke-linecap:butt"/></g><title>Sheet.13191</title><path d="M0 83.673h56.693v19.276H0z" style="fill:#804998;stroke:none;stroke-width:12.23999977;stroke-linecap:butt"/><title>Sheet.13192</title><path d="M0 83.67v19.28h20.41l14.74-19.28Z" style="fill:#fff;fill-opacity:.2;stroke:none;stroke-width:12.23999977;stroke-linecap:butt"/></g></g></svg>