<svg xmlns="http://www.w3.org/2000/svg" xml:space="preserve" width="64.253" height="75.586" style="font-size:12px;overflow:visible;color-interpolation-filters:sRGB;fill-rule:evenodd;stroke-linecap:square;stroke-miterlimit:3" viewBox="0 0 48.19 56.69"><g transform="translate(-12.24 -12.244)"><title>Page-1</title><g transform="translate(12.24 -34.016)"><title>Policy Assignment.13215</title><title>Sheet.13216</title><title>Sheet.13217</title><path d="m45.89 54.29-5.5-5.67-2.3-2.36H0v56.69h48.19v-46.3z" style="fill:#59b4d9;stroke:none;stroke-width:12.23999977;stroke-linecap:butt"/><g transform="translate(2.295 -2.362)"><title>Sheet.13218</title><path d="M35.57 50.98H0v51.97h43.6v-43.7h-8.03z" style="fill:#fff;fill-opacity:.8;stroke:none;stroke-width:12.23999977;stroke-linecap:butt"/></g><g transform="translate(12.62 -12.391)"><title>Sheet.13219</title><path d="M0 82.71V96c0 .11.06.21.14.26l11.19 6.65a.285.293-180 0 0 .287 0L22.8 96.26a.29.298-180 0 0 .143-.256l.007-13.294a.29.298-180 0 0-.143-.256L11.62 75.8a.285.293-180 0 0-.287 0L.14 82.45a.29.298-180 0 0-.143.256z" style="fill:#3999c6;stroke:none;stroke-width:12.23999977;stroke-linecap:butt"/></g></g></g></svg>