<svg xmlns="http://www.w3.org/2000/svg" xml:space="preserve" width="64.253" height="75.586" style="font-size:12px;overflow:visible;color-interpolation-filters:sRGB;fill-rule:evenodd;stroke-linecap:square;stroke-miterlimit:3" viewBox="0 0 48.19 56.69"><g transform="translate(-12.24 -12.244)"><title>Page-1</title><g transform="translate(12.24 -34.016)"><title>Policy Definition.13201</title><title>Sheet.13202</title><title>Sheet.13203</title><path d="m45.89 54.29-5.5-5.67-2.3-2.36H0v56.69h48.19v-46.3z" style="fill:#a0a1a2;stroke:none;stroke-width:12.23999977;stroke-linecap:butt"/><g transform="translate(2.295 -2.362)"><title>Sheet.13204</title><path d="M35.57 50.98H0v51.97h43.6v-43.7h-8.03z" style="fill:#fff;stroke:none;stroke-width:12.23999977;stroke-linecap:butt"/></g><g transform="translate(2.295 -2.362)"><title>Sheet.13205</title><path d="M35.57 50.98H0v51.97h43.6v-43.7h-8.03z" style="fill:#fee087;fill-opacity:.3;stroke:none;stroke-width:12.23999977;stroke-linecap:butt"/></g><g transform="translate(12.62 -12.975)"><title>Sheet.13206</title><path d="m11.47 78.45 9.18 5.45v10.91l-9.18 5.46-9.18-5.46V83.9Zm0-2.68a.291.3-180 0 0-.143.039L.14 82.45a.29.298-180 0 0-.143.256L0 96.01a.287.295-180 0 0 .143.255l11.187 6.645a.291.3-180 0 0 .287 0L22.8 96.26a.285.293-180 0 0 .143-.255l.007-13.295a.29.298-180 0 0-.143-.256L11.62 75.8a.291.3-180 0 0-.143-.039z" style="fill:#7a7a7a;fill-opacity:.8;stroke:none;stroke-width:12.23999977;stroke-linecap:butt"/></g></g></g></svg>