<svg xmlns="http://www.w3.org/2000/svg" xml:space="preserve" width="75.586" height="52.943" style="font-size:12px;overflow:visible;color-interpolation-filters:sRGB;fill-rule:evenodd;stroke-linecap:square;stroke-miterlimit:3" viewBox="0 0 56.69 39.707"><defs><linearGradient id="a" x1="0" x2="47.445" y1="81.266" y2="81.266" gradientTransform="scale(1.19486 .83692)" gradientUnits="userSpaceOnUse"><stop offset="0" stop-color="#5ea0ef"/><stop offset="1" stop-color="#0078d4"/></linearGradient><linearGradient id="b" x1="-.054" x2="21.578" y1="59.661" y2="59.661" gradientTransform="scale(.75475 1.32495)" gradientUnits="userSpaceOnUse"><stop offset=".33" stop-color="#b4ec36"/><stop offset="1" stop-color="#86d633"/></linearGradient><linearGradient id="c" x1="-.03" x2="26.84" y1="135.167" y2="135.167" gradientTransform="scale(1.50425 .66478)" gradientUnits="userSpaceOnUse"><stop offset=".43" stop-color="#86d633"/><stop offset="1" stop-color="#76bc2d"/></linearGradient></defs><g transform="translate(-34 -33.997)"><title>Page-1</title><g transform="translate(34 -34.016)"><title>Quota.13163</title><title>Sheet.13164</title><title>Sheet.13165</title><path d="M56.69 95.28a12.891 12.734 0 0 1-11.55 12.2 12.343 12.192 0 0 1-1.24.07 2.598 2.567 0 0 1-.68.1H17.37a15.84 15.646 0 0 1-1.35.06h-.05A15.414 15.226 0 0 1 0 93.08a15.194 15.008 0 0 1 13.37-14.46 16.466 16.265 0 0 1 15.74-10.6A16.063 15.867 0 0 1 45.64 83.2a12.73 12.575 0 0 1 11.05 12.08" style="fill:url(#a);stroke:none;stroke-width:34;stroke-linecap:butt"/><g transform="translate(20.233 -.06)"><title>Sheet.13166</title><path d="M15.8 88.79h-4.08a.472.467-180 0 0-.472.467l.002 18.453H4.96V89.26a.472.467-180 0 0-.472-.467L.43 88.79a.472.467 0 0 1-.356-.772L7.75 79.21a.476.47 0 0 1 .718 0l7.692 8.8a.472.467 0 0 1-.36.784z" style="fill:url(#b);stroke:none;stroke-width:34;stroke-linecap:butt"/></g><g transform="translate(8.18 -.003)"><title>Sheet.13167</title><path d="m34.37 90.02-5.17 5.92a.472.467-180 0 0 .36.772l2.46-.002a.476.47 0 0 1 .472.47l.008 10.47h2.54a2.598 2.567-180 0 0 .68-.1 12.343 12.192-180 0 0 1.24-.07v-10.3a.476.47 0 0 1 .472-.47H39.9a.472.467-180 0 0 .36-.772l-5.17-5.908a.472.467-180 0 0-.718-.003zm-29.13 0L.07 95.94a.472.467-180 0 0 .36.772l2.47-.002a.476.47 0 0 1 .472.47l-.002 10.05a15.433 15.244-180 0 0 4.41.48h.05V97.18a.476.47 0 0 1 .472-.47h2.458a.472.467-180 0 0 .36-.772L5.96 90.02a.472.467-180 0 0-.718 0z" style="fill:url(#c);stroke:none;stroke-width:34;stroke-linecap:butt"/></g></g></g></svg>