<svg xmlns="http://www.w3.org/2000/svg" xml:space="preserve" width="62.829" height="73.964" style="font-size:12px;overflow:visible;color-interpolation-filters:sRGB;fill-rule:evenodd;stroke-linecap:square;stroke-miterlimit:3" viewBox="0 0 47.121 55.473"><g transform="translate(-12.241 -12.243)"><title>Page-1</title><g transform="translate(10.29 -34.016)"><title>Recovery Services Alert.13160</title><title>Sheet.13161</title><title>Sheet.13162</title><path d="M18.13 93.86h15.74c.33 2.44-.76 4.1-2.39 5.66-2.39 2.33-5.32 2.77-8.36 1.55-3.14-1.22-4.77-3.44-4.99-7.21m29.53-8.77c-2.82-2.88-3.15-4.65-3.48-6.43 0-.33-.1-.22-.1-.67-.22-4.88-.66-9.43-2.18-14.2-1.19-3.66-2.82-6.88-5.86-9.43-1.95-1.55-4.12-2.44-6.62-2.88v-1.33c-.11-2.78-2.71-4.55-5.21-3.66-1.63.55-2.61 1.99-2.61 3.99 0 .44.22 1-.54 1.22-5.75 1.22-9.23 4.99-11.29 10.43C7.71 67.34 7.17 73 7.06 78.66c-.44 1.78-.33 3.11-3.69 6.43-3.37 3.33.32 5.44.32 5.44h43.64c0-.11 3.69-2.22.33-5.44m-18.24-.11H21.5v-8.1h7.92zm0-13.86h-7.71V56.47h7.71z" style="fill:#ff8c00;stroke:none;stroke-width:12.23999977;stroke-linecap:butt"/></g></g></svg>