<svg xmlns="http://www.w3.org/2000/svg" xml:space="preserve" width="69.662" height="75.597" style="font-size:12px;overflow:visible;color-interpolation-filters:sRGB;fill-rule:evenodd;stroke-linecap:square;stroke-miterlimit:3" viewBox="0 0 52.247 56.698"><defs><linearGradient id="a" x1="-1.402" x2="43.09" y1="103.807" y2="103.807" gradientTransform="scale(1.1743 .85158)" gradientUnits="userSpaceOnUse"><stop offset="0" stop-color="#b77af4"/><stop offset=".405" stop-color="#9659e8"/><stop offset=".765" stop-color="#7f42df"/><stop offset=".995" stop-color="#773adc"/></linearGradient></defs><g transform="translate(-33.998 -34)"><title>Page-1</title><g transform="translate(35.222 -34.016)"><title>Recovery Services Backup Report.13146</title><title>Sheet.13147</title><g transform="translate(2.03 -22.087)"><title>Sheet.13148</title><path d="m42.07 93.84-13.35 23.68-14.13-14.33L0 121.97l3.45 2.68 11.53-14.85 14.69 14.91 16.21-28.72Z" style="fill:#b796f9;stroke:none;stroke-width:34;stroke-linecap:butt"/></g><g transform="translate(.422 -20.384)"><title>Sheet.13149</title><path d="M21.86 104.71a5.49 5.466 0 1 1-5.55-5.43 5.5 5.476 0 0 1 5.55 5.43m9.36 8.23a5.513 5.49-180 1 0 5.54 5.43 5.5 5.476-180 0 0-5.54-5.43M45.05 88.4a5.513 5.49-180 1 0 5.55 5.43 5.503 5.48-180 0 0-5.55-5.43M3.84 115.31a5.513 5.49-180 1 0 5.54 5.44 5.507 5.483-180 0 0-5.54-5.44" style="fill:url(#a);stroke:none;stroke-width:34;stroke-linecap:butt"/></g><g transform="translate(13.77)"><title>Sheet.13150</title><path d="M0 123.77a.948.944-180 0 0 .948.944l6.732-.004a.948.944-180 0 0 .948-.944l.002-23.396a.948.944-180 0 0-.948-.944L.95 99.42a.948.944-180 0 0-.948.944z" style="fill:#0078d4;stroke:none;stroke-width:34;stroke-linecap:butt"/></g><g transform="translate(27.537)"><title>Sheet.13151</title><path d="M0 123.77a.948.944-180 0 0 .948.944l6.732-.004a.948.944-180 0 0 .948-.944l.002-14.646a.948.944-180 0 0-.948-.944L.95 108.17a.948.944-180 0 0-.948.944z" style="fill:#005ba1;stroke:none;stroke-width:34;stroke-linecap:butt"/></g><g transform="translate(41.307)"><title>Sheet.13152</title><path d="M0 123.77a.948.944-180 0 0 .948.944l6.732-.004a.948.944-180 0 0 .948-.944L8.63 91.91a.948.944-180 0 0-.948-.944L.95 90.96a.948.944-180 0 0-.948.944z" style="fill:#005ba1;stroke:none;stroke-width:34;stroke-linecap:butt"/></g><title>Sheet.13153</title><path d="M0 123.77a.948.944-180 0 0 .948.944l6.732-.004a.948.944-180 0 0 .948-.944l.002-14.646a.948.944-180 0 0-.948-.944L.95 108.17a.948.944-180 0 0-.948.944z" style="fill:#5ea0ef;stroke:none;stroke-width:34;stroke-linecap:butt"/></g></g></svg>