<svg xmlns="http://www.w3.org/2000/svg" xml:space="preserve" width="75.592" height="64.24" style="font-size:12px;overflow:visible;color-interpolation-filters:sRGB;fill-rule:evenodd;stroke-linecap:square;stroke-miterlimit:3" viewBox="0 0 56.694 48.18"><defs><linearGradient id="a" x1="0" x2="36.32" y1="71.51" y2="71.51" gradientTransform="scale(1.14179 .87582)" gradientUnits="userSpaceOnUse"><stop offset="0" stop-color="#198ab3"/><stop offset=".13" stop-color="#21a0c7"/><stop offset=".31" stop-color="#28b7db"/><stop offset=".5" stop-color="#2ec7ea"/><stop offset=".72" stop-color="#31d1f2"/><stop offset="1" stop-color="#32d4f5"/></linearGradient><linearGradient id="b" x1="0" x2="38.677" y1="75.327" y2="75.327" gradientTransform="scale(1.20716 .82839)" gradientUnits="userSpaceOnUse"><stop offset="0" stop-color="#0078d4"/><stop offset=".16" stop-color="#1380da"/><stop offset=".53" stop-color="#3c91e5"/><stop offset=".82" stop-color="#559cec"/><stop offset="1" stop-color="#5ea0ef"/></linearGradient></defs><g transform="translate(-12.24 -12.244)"><title>Page-1</title><g transform="translate(12.24 -34.016)"><title>Recovery Services.13111</title><title>g8</title><g transform="translate(15.224 -16.37)"><title>path4</title><path d="M17.04 78.3c6.82 0 12.39 5.19 13.18 11.76 1.59 1.27 2.84 2.77 3.75 4.38 4.43-1.15 7.5-5.07 7.5-9.79 0-3.81-2.05-6.81-5.57-8.54v-1.26c0-6.69-5.45-12.22-12.04-12.22-3.98 0-7.61 1.96-9.89 5.07-1.47-.92-3.06-1.38-4.88-1.38C4.32 66.32.45 70 0 74.62c.68-.12 1.48-.12 2.27-.12 3.52 0 7.5.58 10.8 4.15z" style="fill:url(#a);stroke:none;stroke-width:12.23999977;stroke-linecap:butt"/></g><title>path6</title><path d="M41.47 76v-.69c0-5.08-4.09-9.23-9.09-9.23-2.54.02-2.57.19-4.53 1.21-2.61 1.96-4.22 5.02-4.33 8.25h3.97l-6.02 7.26-6.13-7.26h4.09c.11-4.38 1.82-8.53 4.77-11.18-1.93-1.27-4.2-1.96-6.59-1.96-6.7 0-12.16 5.41-12.16 12.1v1.27C2.05 77.5 0 80.5 0 84.3c0 5.76 4.54 10.14 10.45 10.14h25.79c5.91 0 10.45-4.49 10.45-10.14 0-3.69-1.81-6.57-5.22-8.3" style="fill:url(#b);stroke:none;stroke-width:12.23999977;stroke-linecap:butt"/></g></g></svg>