<svg xmlns="http://www.w3.org/2000/svg" xml:space="preserve" width="68.031" height="75.59" style="font-size:12px;overflow:visible;color-interpolation-filters:sRGB;fill-rule:evenodd;stroke-linecap:square;stroke-miterlimit:3" viewBox="0 0 51.023 56.693"><g transform="translate(-12.24 -12.24)"><title>Page-1</title><g transform="translate(12.24 -34.016)"><title>Recovery Services Plan.13141</title><title>Sheet.13142</title><title>Sheet.13143</title><path d="M0 46.256h51.024v56.693H0z" style="fill:#59b4d9;stroke:none;stroke-width:12.23999977;stroke-linecap:butt"/><g transform="translate(3.479 -3.402)"><title>Sheet.13144</title><path d="M0 53.06v49.89h44.07V53.06Zm41.75 47.62H2.32V55.33h39.43z" style="fill:#fff;stroke:none;stroke-width:12.23999977;stroke-linecap:butt"/></g><g transform="translate(8.581 -11.112)"><title>Sheet.13145</title><path d="M8.81 67.57h25.51v2.27H8.81Zm5.8 4.54h19.71v2.27H14.61Zm-5.8 9.07h25.51v2.27H8.81Zm5.8 4.53h19.71v2.27H14.61Zm-5.8 9.07h25.51v2.27H8.81Zm5.8 4.54h19.71v2.27H14.61ZM2.9 67.46h1.27v6.35h1.28v1.25H1.16v-1.25h1.28v-4.42c-.35.34-.82.68-1.28.9v-1.47c.7-.34 1.28-.79 1.74-1.36m-.93 16.78L.46 83.9c.24-1.7 1.16-2.49 2.56-2.49.81 0 1.39.22 1.73.68.47.45.58.9.58 1.58s-.23 1.25-.69 1.82c-.47.56-1.28 1.36-2.55 2.15h3.36l-.12 1.48H.35v-1.48c1.39-1.13 2.32-2.04 2.67-2.49.34-.46.57-.91.57-1.36 0-.68-.23-.91-.69-.91-.35 0-.46.11-.58.34-.23.23-.35.57-.35 1.02m-.11 13.04-1.51-.23c.35-1.24 1.27-1.92 2.55-1.92.69 0 1.27.22 1.62.56s.58.91.58 1.48c0 .79-.35 1.36-1.16 1.7.81.22 1.28.9 1.28 1.81 0 .79-.23 1.36-.7 1.7-.46.34-1.04.57-1.85.57-.7 0-1.28-.23-1.74-.45-.47-.35-.81-.91-.93-1.71l1.51-.22c.11.79.46 1.13 1.04 1.13.23 0 .47-.11.7-.23.11-.22.23-.45.23-.79 0-.68-.35-1.02-1.16-1.02h-.46v-1.47h.46c.23 0 .46 0 .58-.12.12 0 .23-.11.35-.34.11-.11.11-.34.11-.56 0-.57-.23-.91-.81-.91-.23.11-.58.34-.69 1.02" style="fill:#fff;stroke:none;stroke-width:12.23999977;stroke-linecap:butt"/></g></g></g></svg>