<svg xmlns="http://www.w3.org/2000/svg" xml:space="preserve" width="75.597" height="64.265" style="font-size:12px;overflow:visible;color-interpolation-filters:sRGB;fill-rule:evenodd;stroke-linecap:square;stroke-miterlimit:3" viewBox="0 0 56.697 48.198"><defs><linearGradient id="a" x1="0" x2="36.22" y1="102.649" y2="102.649" gradientTransform="scale(1.19491 .83688)" gradientUnits="userSpaceOnUse"><stop offset="0" stop-color="#0078d4"/><stop offset=".16" stop-color="#1380da"/><stop offset=".53" stop-color="#3c91e5"/><stop offset=".82" stop-color="#559cec"/><stop offset="1" stop-color="#5ea0ef"/></linearGradient><linearGradient id="b" x1="0" x2="37.081" y1="102.289" y2="102.289" gradientTransform="scale(1.19926 .83385)" gradientUnits="userSpaceOnUse"><stop offset="0" stop-color="#198ab3"/><stop offset=".13" stop-color="#21a0c7"/><stop offset=".31" stop-color="#28b7db"/><stop offset=".5" stop-color="#2ec7ea"/><stop offset=".72" stop-color="#31d1f2"/><stop offset="1" stop-color="#32d4f5"/></linearGradient></defs><g transform="translate(-34 -34)"><title>Page-1</title><g transform="translate(34 -34.016)"><title>Recovery Services Vault.13115</title><title>Sheet.13116</title><g transform="translate(13.417 -17.89)"><title>Sheet.13117</title><path d="M43.28 106.64a9.732 9.534-180 0 0-8.45-9.25 12.252 12.003-180 0 0-12.59-11.48 12.598 12.342-180 0 0-12.04 8.11A11.59 11.355-180 0 0 0 104.98a11.78 11.54-180 0 0 12.19 11.23h21.32a9.858 9.658-180 0 0 9.77-9.57" style="fill:url(#a);stroke:none;stroke-width:34;stroke-linecap:butt"/></g><g transform="translate(23.213 -21.962)"><title>Sheet.13118</title><path d="m22.11 102.45-5.76-5.49c-.63-.62-1.17-.4-1.17.55v2.47a.693.679 0 0 1-.724.679C10.74 100.66.38 101.62 0 115.5a.724.71-180 0 0 .724.71H4.41a.724.71-180 0 0 .724-.771 8.693 8.516 0 0 1 9.446-10.279.724.71 0 0 1 .724.71l.006 2.29c0 1.14.38 1.32 1.16.55l5.64-5.09a.724.71-180 0 0 0-1.173z" style="fill:#fff;stroke:none;stroke-width:34;stroke-linecap:butt"/></g><title>Sheet.13119</title><path d="M44.47 106.53a9.984 9.781-180 0 0-8.66-9.41A12.598 12.342-180 0 0 22.83 85.3a12.913 12.65-180 0 0-12.34 8.27A11.906 11.663-180 0 0 0 104.8a12.095 11.848-180 0 0 12.6 11.39h21.35a1.48 1.45-180 0 0 .54 0 10.11 9.905-180 0 0 9.98-9.66" style="fill:url(#b);stroke:none;stroke-width:34;stroke-linecap:butt"/></g></g></svg>