<svg xmlns="http://www.w3.org/2000/svg" xml:space="preserve" width="77.248" height="75.592" style="font-size:12px;overflow:visible;color-interpolation-filters:sRGB;fill-rule:evenodd;stroke-linecap:square;stroke-miterlimit:3" viewBox="0 0 57.937 56.694"><defs><linearGradient id="a" x1="-2.076" x2="49.542" y1="74.7" y2="74.7" gradientTransform="scale(1.0016 .9984)" gradientUnits="userSpaceOnUse"><stop offset="0" stop-color="#0078d4"/><stop offset="1" stop-color="#5ea0ef"/></linearGradient><linearGradient id="b" x1="0" x2="14.899" y1="79.516" y2="79.516" gradientTransform="scale(.75708 1.32086)" gradientUnits="userSpaceOnUse"><stop offset="0" stop-color="#32bedd"/><stop offset="1" stop-color="#9cebff"/></linearGradient><linearGradient id="c" x1="0" x2="14.899" y1="79.516" y2="79.516" gradientTransform="scale(.75708 1.32086)" gradientUnits="userSpaceOnUse"><stop offset="0" stop-color="#32bedd"/><stop offset="1" stop-color="#9cebff"/></linearGradient></defs><g transform="translate(-34.001 -34.004)"><title>Page-1</title><g transform="translate(34.909 -34.016)"><title>Recovery Services Restore Point.13120</title><title>Sheet.13121</title><title>Sheet.13122</title><path d="M25.09 68.02a26.676 26.59-180 0 0-9.56 48.3l.91-2.3a.504.502 0 0 1 .875-.126l6.595 8.486a.521.52 0 0 1-.084.722.504.502 0 0 1-.248.108l-10.588 1.5a.51.51 0 0 1-.574-.443.525.523 0 0 1 .032-.258l1.342-3.399A31.038 30.939 0 0 1 0 101.92a27.145 27.058 0 0 1 18.97-33.01 26.354 26.27 0 0 1 6.12-.89" style="fill:#86d633;stroke:none;stroke-width:34;stroke-linecap:butt"/><g transform="translate(7.407 -5.976)"><title>Sheet.13123</title><path d="M23.78 74.58A25.836 25.754-180 0 0 5.1 118.15a24.766 24.687-180 0 0 2.41 2.1l.29-.74a1.847 1.841 0 0 1 1.75-1.16 1.84 1.834 0 0 1 1.41.71l4.39 5.65a25.85 25.768-180 1 0 8.43-50.13" style="fill:url(#a);stroke:none;stroke-width:34;stroke-linecap:butt"/></g><g transform="translate(31.185 -17.605)"><title>Sheet.13124</title><path d="M11.28 105.03v13.08L0 124.71v-13.12z" style="fill:url(#b);stroke:none;stroke-width:34;stroke-linecap:butt"/></g><g transform="translate(19.907 -30.684)"><title>Sheet.13125</title><path d="m22.56 118.11-11.24 6.6L0 118.11l11.32-6.56Z" style="fill:#c3f1ff;stroke:none;stroke-width:34;stroke-linecap:butt"/></g><g transform="translate(19.907 -17.605)"><title>Sheet.13126</title><path d="M11.28 111.63v13.08L0 118.11v-13.08z" style="fill:url(#c);stroke:none;stroke-width:34;stroke-linecap:butt"/></g><g transform="translate(13.786 -14.202)"><title>Sheet.13127</title><path d="M9.91 92.47H1.92A1.917 1.91-180 0 0 0 94.38v7.99a.958.955-180 0 0 .958.959l.642.001a.958.955-180 0 0 .958-.959l.002-7.381h7.35a.958.955-180 0 0 .93-.955v-.615a.958.955-180 0 0-.93-.955Zm0 29.52H2.53v-7.33a.958.955-180 0 0-.958-.955L.96 113.7a.958.955-180 0 0-.958.955L0 122.77a1.917 1.91-180 0 0 1.89 1.94h8.02a.986.983-180 0 0 .941-1.032l-.011-.098v-.64a.958.955-180 0 0-.93-.955Zm22.83-29.43h-7.88a.958.955-180 0 0-.958.955l-.002.605a.958.955-180 0 0 .868 1.04.885.882-180 0 0 .09.003l7.352-.003v7.27a.958.955-180 0 0 .958.955l.672.005a.958.955-180 0 0 .958-.955l.002-7.965a1.917 1.91-180 0 0-1.91-1.92 2.169 2.162-180 0 0-.15.01m.98 21.2h-.6a.958.955-180 0 0-.958.955l-.002 7.355h-7.3a.958.955-180 0 0-.958.955l-.002.645a.958.955-180 0 0 .958.955l7.992-.005a1.948 1.942-180 0 0 1.95-1.91v-7.99a.958.955-180 0 0-1.077-.955z" style="fill:#fff;stroke:none;stroke-width:34;stroke-linecap:butt"/></g></g></g></svg>