<svg xmlns="http://www.w3.org/2000/svg" xml:space="preserve" width="64.253" height="75.582" style="font-size:12px;overflow:visible;color-interpolation-filters:sRGB;fill-rule:evenodd;stroke-linecap:square;stroke-miterlimit:3" viewBox="0 0 48.19 56.687"><defs><linearGradient id="a" x1="-.021" x2="44.942" y1="70.162" y2="70.162" gradientTransform="scale(.92319 1.0832)" gradientUnits="userSpaceOnUse"><stop offset="0" stop-color="#0078d4"/><stop offset=".06" stop-color="#0a7cd7"/><stop offset=".34" stop-color="#2e8ce1"/><stop offset=".59" stop-color="#4897e9"/><stop offset=".82" stop-color="#589eed"/><stop offset="1" stop-color="#5ea0ef"/></linearGradient></defs><g transform="translate(-34 -34.004)"><title>Page-1</title><g transform="translate(34 -34.016)"><title>Resource Guard.13082</title><title>Sheet.13083</title><title>Sheet.13084</title><path d="M48.19 94.48c0 15.24-19.13 27.51-23.31 30a1.447 1.418 0 0 1-1.57 0C19.13 122.02 0 109.75 0 94.48V76.15a1.498 1.468 0 0 1 1.47-1.47c14.91-.36 11.46-6.66 22.62-6.66 11.17 0 7.72 6.3 22.63 6.66a1.498 1.468 0 0 1 1.47 1.47z" style="fill:#0078d4;stroke:none;stroke-width:34;stroke-linecap:butt"/><g transform="translate(3.353 -4)"><title>Sheet.13085</title><path d="M41.48 98.73c0 13.13-16.46 23.67-20.07 25.79a1.286 1.26 0 0 1-1.34 0C16.46 122.4 0 111.86 0 98.73V83.1a1.305 1.279 0 0 1 1.06-1.48 1.183 1.16 0 0 1 .22-.02c12.82-.22 9.89-5.6 19.46-5.6 9.58 0 6.64 5.38 19.47 5.6a1.309 1.282 0 0 1 1.28 1.26z" style="fill:url(#a);stroke:none;stroke-width:34;stroke-linecap:butt"/></g><g transform="translate(24.127 -15.947)"><title>Sheet.13086</title><path d="M10.84 106.07v12.38L0 124.71v-12.45z" style="fill:#50e6ff;stroke:none;stroke-width:34;stroke-linecap:butt"/></g><g transform="translate(13.227 -28.334)"><title>Sheet.13087</title><path d="m21.73 118.45-10.83 6.26L0 118.45l10.9-6.25Z" style="fill:#c3f1ff;stroke:none;stroke-width:34;stroke-linecap:butt"/></g><g transform="translate(13.227 -15.947)"><title>Sheet.13088</title><path d="M10.9 112.32v12.39L0 118.45v-12.38z" style="fill:#9cebff;stroke:none;stroke-width:34;stroke-linecap:butt"/></g><g transform="translate(13.227 -15.947)"><title>Sheet.13089</title><path d="m0 118.45 10.9-6.19v12.45z" style="fill:#c3f1ff;stroke:none;stroke-width:34;stroke-linecap:butt"/></g><g transform="translate(24.127 -15.947)"><title>Sheet.13090</title><path d="M10.84 118.45 0 112.26v12.45z" style="fill:#9cebff;stroke:none;stroke-width:34;stroke-linecap:butt"/></g></g></g></svg>