<svg xmlns="http://www.w3.org/2000/svg" xml:space="preserve" width="56.693" height="75.589" style="font-size:12px;overflow:visible;color-interpolation-filters:sRGB;fill-rule:evenodd;stroke-linecap:square;stroke-miterlimit:3" viewBox="0 0 42.52 56.691"><g transform="translate(-49.5 -49.499)"><title>Page-1</title><g transform="translate(49.5 -49.5)"><title>Resource Lock.13079</title><title>Sheet.13080</title><title>Sheet.13081</title><path d="M42.52 123.8v31.89H0V123.8h7.09v-10.27a14.5 14.5 0 0 1 1.06-5.67 20.2 20.2 0 0 1 2.83-4.61 13.5 13.5 0 0 1 4.61-3.19A14.5 14.5 0 0 1 21.26 99a14.5 14.5 0 0 1 5.67 1.06 13.5 13.5 0 0 1 4.61 3.19 20.2 20.2 0 0 1 2.83 4.61 14.5 14.5 0 0 1 1.06 5.67v10.27zm-3.54 3.55H3.54v24.8h35.44Zm-28.35-3.55h21.26v-10.27a17.7 17.7-180 0 0-.71-4.25 12.8 12.8-180 0 0-2.48-3.55 7.8 7.8-180 0 0-3.19-2.48l-4.25-.71-4.25.71a7.8 7.8-180 0 0-3.19 2.48 12.8 12.8-180 0 0-2.48 3.55 17.7 17.7-180 0 0-.71 4.25z" style="fill:#000;stroke:none;stroke-width:49.5;stroke-linecap:butt"/></g></g></svg>