<svg xmlns="http://www.w3.org/2000/svg" xml:space="preserve" width="75.594" height="71.879" style="font-size:12px;overflow:visible;color-interpolation-filters:sRGB;fill-rule:evenodd;stroke-linecap:square;stroke-miterlimit:3" viewBox="0 0 56.695 53.909"><g transform="translate(-34 -33.998)"><title>Page-1</title><g transform="translate(34 -34.019)"><title>Resource Group.13091</title><title>Sheet.13092</title><title>Sheet.13093</title><path d="M0 115.4a.534.538-180 0 0 .267.47l3.873 2.18 6.53 3.8a.567.571-180 0 0 .767-.202l2.203-3.758a.534.538-180 0 0-.2-.706l-7.67-4.374a.567.571 0 0 1-.267-.47L5.5 77.67a.534.538 0 0 1 .267-.47l7.673-4.37a.534.538-180 0 0 .2-.706l-2.2-3.764a.567.571-180 0 0-.767-.269L4.27 71.82l-4 2.25a.534.538-180 0 0-.267.47z" style="fill:#949494;stroke:none;stroke-width:34;stroke-linecap:butt"/><g transform="translate(0 -.122)"><title>Sheet.13094</title><path d="m5.47 77.52.2-.2 7.67-4.37a.467.47-180 0 0 .2-.706l-2.2-3.764a.5.504-180 0 0-.734-.269L4.17 71.94.2 74.19s-.17 0-.2.21l3 1.71zm7.87 39.71-7.67-4.36a.734.74 0 0 1-.233-.302L.03 115.92H.2l3.84 2.19 6.66 3.73a.5.504-180 0 0 .734-.202l2.206-3.768a.467.47-180 0 0-.3-.638z" style="fill:#a3a3a3;stroke:none;stroke-width:34;stroke-linecap:butt"/></g><g transform="translate(43.015)"><title>Sheet.13095</title><path d="M13.68 115.4a.534.538 0 0 1-.267.47l-3.873 2.18-6.53 3.8a.567.571 0 0 1-.767-.202L.04 117.89a.534.538 0 0 1 .2-.706l7.67-4.374a.567.571-180 0 0 .267-.47l.003-34.67a.534.538-180 0 0-.267-.47L.24 72.83a.534.538 0 0 1-.2-.706l2.2-3.764a.567.571 0 0 1 .767-.269L9.41 71.75l4 2.26a.534.538 0 0 1 .267.47z" style="fill:#949494;stroke:none;stroke-width:34;stroke-linecap:butt"/></g><g transform="translate(43.085 -.122)"><title>Sheet.13096</title><path d="m8.14 77.52-.2-.2-7.67-4.37a.467.47 0 0 1-.2-.706l2.2-3.764a.5.504 0 0 1 .734-.269L9.44 71.88l3.97 2.25.2.2-3 1.71zM.27 117.23l7.67-4.36a.734.74-180 0 0 .233-.302l5.397 3.352-3.83 2.19-6.67 3.73a.5.504 0 0 1-.734-.202L.13 117.87a.467.47 0 0 1 .133-.638z" style="fill:#a3a3a3;stroke:none;stroke-width:34;stroke-linecap:butt"/></g><g transform="translate(28.313 -6.239)"><title>Sheet.13097</title><path d="M17.74 90.9v20.62L0 121.91v-20.67z" style="fill:#32bedd;stroke:none;stroke-width:34;stroke-linecap:butt"/></g><g transform="translate(10.605 -26.869)"><title>Sheet.13098</title><path d="m35.45 111.52-17.71 10.39L0 111.52l17.74-10.38Z" style="fill:#9cebff;stroke:none;stroke-width:34;stroke-linecap:butt"/></g><g transform="translate(10.605 -6.239)"><title>Sheet.13099</title><path d="M17.71 101.28v20.63L0 111.52V90.9Z" style="fill:#50e6ff;stroke:none;stroke-width:34;stroke-linecap:butt"/></g><g transform="translate(10.605 -6.239)"><title>Sheet.13100</title><path d="m0 111.52 17.71-10.28v20.67z" style="fill:#9cebff;stroke:none;stroke-width:34;stroke-linecap:butt"/></g><g transform="translate(28.313 -6.239)"><title>Sheet.13101</title><path d="M17.74 111.52 0 101.24v20.67z" style="fill:#50e6ff;stroke:none;stroke-width:34;stroke-linecap:butt"/></g></g></g></svg>