<svg xmlns="http://www.w3.org/2000/svg" xml:space="preserve" width="75.584" height="71.802" style="font-size:12px;overflow:visible;color-interpolation-filters:sRGB;fill-rule:evenodd;stroke-linecap:square;stroke-miterlimit:3" viewBox="0 0 56.688 53.852"><defs><linearGradient id="a" x1="0" x2="7.548" y1="49.446" y2="49.446" gradientTransform="scale(.46767 2.13828)" gradientUnits="userSpaceOnUse"><stop offset="0" stop-color="#a3a3a3"/><stop offset="1" stop-color="#999"/></linearGradient></defs><g transform="translate(-34.001 -34.003)"><title>Page-1</title><g transform="translate(34 -34.016)"><title>Resource Management Private Link.13069</title><title>Sheet.13070</title><g transform="translate(15.261 -14.838)"><title>Sheet.13071</title><path d="m0 114.42 13.02-7.44 13 7.44-13 7.45z" style="fill:#9cebff;stroke:none;stroke-width:34;stroke-linecap:butt"/></g><g transform="translate(28.265)"><title>Sheet.13072</title><path d="M13.06 99.56v14.84L0 121.87V107Z" style="fill:#32bedd;stroke:none;stroke-width:34;stroke-linecap:butt"/></g><title>Sheet.13073</title><path d="M28.27 107.03v14.84l-13.04-7.47V99.56Zm-15.68 10.08-.92.93a.63.62 0 0 1-.897 0L.38 107.83a1.26 1.24 0 0 1 0-1.77l.94-.92 11.27 11.09a.63.62 0 0 1 0 .868z" style="fill:#50e6ff;stroke:none;stroke-width:34;stroke-linecap:butt"/><g transform="translate(0 -13.021)"><title>Sheet.13074</title><path d="m11.47 109.01 1.04 1.02a.63.62 0 0 1 0 .88l-11.1 10.96-1.04-1.01a1.278 1.259 0 0 1 0-1.77l10.2-10.08a.63.62 0 0 1 .894 0z" style="fill:#1490df;stroke:none;stroke-width:34;stroke-linecap:butt"/></g><g transform="translate(43.977 -3.73)"><title>Sheet.13075</title><path d="M.18 120.78a.63.62 0 0 1 0-.862L11.4 108.9l.94.93a1.26 1.24 0 0 1 0 1.76L1.99 121.7a.63.62 0 0 1-.878 0z" style="fill:#50e6ff;stroke:none;stroke-width:34;stroke-linecap:butt"/></g><g transform="translate(44.073 -13.021)"><title>Sheet.13076</title><path d="m2.09 109.09 10.14 10.02a1.26 1.24 0 0 1 0 1.75l-1.03 1.01L.18 110.98a.649.639 0 0 1 0-.887l1.03-1.003a.63.62 0 0 1 .875 0z" style="fill:#1490df;stroke:none;stroke-width:34;stroke-linecap:butt"/></g><g transform="translate(26.622 -31.908)"><title>Sheet.13077</title><path d="M.22 121.64a2.884 2.84 0 0 1 2.9 0l.41.23v-16.14H0v16.03z" style="fill:url(#a);stroke:none;stroke-width:34;stroke-linecap:butt"/></g><g transform="translate(24.721 -45.142)"><title>Sheet.13078</title><path d="M8.85 118.26a5.186 5.106 0 1 1-5.18-5.1 5.19 5.11 0 0 1 5.18 5.1" style="fill:#1490df;stroke:none;stroke-width:34;stroke-linecap:butt"/></g></g></g></svg>