<svg xmlns="http://www.w3.org/2000/svg" xml:space="preserve" width="76.592" height="64.245" style="font-size:12px;overflow:visible;color-interpolation-filters:sRGB;fill-rule:evenodd;stroke-linecap:square;stroke-miterlimit:3" viewBox="0 0 57.444 48.184"><defs><linearGradient id="a" x1="-1.73" x2="41.469" y1="72.602" y2="72.602" gradientTransform="scale(.9863 1.01389)" gradientUnits="userSpaceOnUse"><stop offset="0" stop-color="#0078d4"/><stop offset="1" stop-color="#5ea0ef"/></linearGradient><linearGradient id="b" x1="0" x2="12.463" y1="74.152" y2="74.152" gradientTransform="scale(.7454 1.34156)" gradientUnits="userSpaceOnUse"><stop offset="0" stop-color="#32bedd"/><stop offset="1" stop-color="#9cebff"/></linearGradient><linearGradient id="c" x1="0" x2="12.463" y1="74.152" y2="74.152" gradientTransform="scale(.7454 1.34156)" gradientUnits="userSpaceOnUse"><stop offset="0" stop-color="#32bedd"/><stop offset="1" stop-color="#9cebff"/></linearGradient></defs><g transform="translate(-34 -34.004)"><title>Page-1</title><g transform="translate(34.75 -34.016)"><title>Restore Point Collection.13060</title><title>Sheet.13061</title><g transform="translate(14.356 -3.998)"><title>Sheet.13062</title><ellipse cx="21.168" cy="94.428" rx="21.168" ry="21.777" style="fill:#005ba1;stroke:none;stroke-width:34;stroke-linecap:butt"/></g><title>Sheet.13063</title><path d="M20.66 68.02a21.97 22.602-180 0 0-7.87 41.05l.75-1.94a.417.43 0 0 1 .719-.109l5.431 7.199a.43.442 0 0 1-.067.614.417.43 0 0 1-.209.09L10.7 116.2a.42.432 0 0 1-.472-.376.433.446 0 0 1 .026-.221l1.106-2.883A25.558 26.293 0 0 1 0 96.84a22.352 22.995 0 0 1 15.62-28.07 21.691 22.315 0 0 1 5.04-.75" style="fill:#86d633;stroke:none;stroke-width:34;stroke-linecap:butt"/><g transform="translate(6.1 -5.084)"><title>Sheet.13064</title><path d="M19.58 73.61A21.274 21.886-180 0 0 4.2 110.63a20.485 21.074-180 0 0 1.98 1.78l.24-.62a1.521 1.565 0 0 1 1.45-.99 1.502 1.545 0 0 1 .53.11 1.518 1.561 0 0 1 .63.49l3.61 4.8a21.287 21.9-180 1 0 6.94-42.59" style="fill:url(#a);stroke:none;stroke-width:34;stroke-linecap:butt"/></g><g transform="translate(25.683 -14.964)"><title>Sheet.13065</title><path d="M9.29 99.48v11.12L0 116.2v-11.14z" style="fill:url(#b);stroke:none;stroke-width:34;stroke-linecap:butt"/></g><g transform="translate(16.394 -26.082)"><title>Sheet.13066</title><path d="m18.58 110.6-9.26 5.6L0 110.6l9.32-5.58Z" style="fill:#c3f1ff;stroke:none;stroke-width:34;stroke-linecap:butt"/></g><g transform="translate(16.394 -14.964)"><title>Sheet.13067</title><path d="M9.29 105.09v11.11L0 110.6V99.48Z" style="fill:url(#c);stroke:none;stroke-width:34;stroke-linecap:butt"/></g><g transform="translate(11.353 -12.072)"><title>Sheet.13068</title><path d="M8.16 88.8H1.58A1.579 1.624-180 0 0 0 90.43v6.79a.79.812-180 0 0 .79.812l.53.008a.79.812-180 0 0 .79-.812L2.1 90.94h6.06a.79.812-180 0 0 .764-.815l.006-.515a.79.812-180 0 0-.767-.812Zm0 25.09H2.08v-6.23a.79.812-180 0 0-.79-.812l-.5.002a.79.812-180 0 0-.79.812v6.888a1.579 1.624-180 0 0 1.56 1.65h6.6a.815.838-180 0 0 .777-.875l-.017-.085v-.54a.79.812-180 0 0-.767-.812zm18.8-25.01h-6.48a.79.812-180 0 0-.793.812l-.007.518a.79.812-180 0 0 .716.881l.074-.001h6.06v6.18a.79.812-180 0 0 .79.812l.55.008a.79.812-180 0 0 .79-.812V90.5a1.579 1.624-180 0 0-1.57-1.63c-.05 0-.09 0-.13.01m.81 18.02h-.5a.79.812-180 0 0-.79.815v6.255h-6.01a.79.812-180 0 0-.79.812v.538a.79.812-180 0 0 .79.815l6.59.005a1.604 1.65-180 0 0 1.6-1.63v-6.8a.79.812-180 0 0-.786-.815.77.792-180 0 0-.103.003z" style="fill:#fff;stroke:none;stroke-width:34;stroke-linecap:butt"/></g></g></g></svg>