<svg xmlns="http://www.w3.org/2000/svg" xml:space="preserve" width="68.062" height="75.587" style="font-size:12px;overflow:visible;color-interpolation-filters:sRGB;fill-rule:evenodd;stroke-linecap:square;stroke-miterlimit:3" viewBox="0 0 51.046 56.69"><defs><linearGradient id="a" x1="-.016" x2="32.749" y1="121.999" y2="121.999" gradientTransform="scale(1.26844 .78837)" gradientUnits="userSpaceOnUse"><stop offset=".22" stop-color="#32d4f5"/><stop offset=".47" stop-color="#31d1f3"/><stop offset=".63" stop-color="#2ec9eb"/><stop offset=".77" stop-color="#29bade"/><stop offset=".89" stop-color="#22a5cb"/><stop offset="1" stop-color="#198ab3"/><stop offset="1" stop-color="#198ab3"/></linearGradient><linearGradient id="b" x1="0" x2="23.592" y1="96.898" y2="96.898" gradientTransform="scale(.98752 1.01264)" gradientUnits="userSpaceOnUse"><stop offset=".22" stop-color="#32d4f5"/><stop offset=".47" stop-color="#31d1f3"/><stop offset=".63" stop-color="#2ec9eb"/><stop offset=".77" stop-color="#29bade"/><stop offset=".89" stop-color="#22a5cb"/><stop offset="1" stop-color="#198ab3"/><stop offset="1" stop-color="#198ab3"/></linearGradient></defs><g transform="translate(-31.305 -31.305)"><title>Page-1</title><g transform="translate(31.324 -34.016)"><title>Review Access.13051</title><title>Icon-networking-82</title><g transform="translate(0 -9.777)"><title>path4</title><path d="M37.84 122.01a3.735 3.642-90 0 0 3.7-3.61v-.62c-1.48-11.91-8.1-21.6-20.74-21.6S1.29 104.39 0 117.78a3.827 3.732-90 0 0 3.31 4.2h34.53z" style="fill:url(#a);stroke:none;stroke-width:31.30470085;stroke-linecap:butt"/></g><g transform="translate(14.478 -17.956)"><title>path6</title><path d="M6.32 107.17A11.914 11.619 90 0 1 0 105.28l6.26 16.73 6.2-16.63a11.822 11.528 90 0 1-6.14 1.79" style="fill:#fff;fill-opacity:.8;stroke:none;stroke-width:31.30470085;stroke-linecap:butt"/></g><g transform="translate(9.15 -32.803)"><title>circle8</title><ellipse cx="11.649" cy="110.068" rx="11.649" ry="11.945" style="fill:url(#b);stroke:none;stroke-width:31.30470085;stroke-linecap:butt"/></g><g transform="translate(26.098 -7.32)"><title>circle6</title><ellipse cx="8.954" cy="112.831" rx="8.954" ry="9.182" style="fill:#fff;fill-opacity:.73999999;stroke:none;stroke-width:10.79730034;stroke-linecap:butt"/></g><g transform="translate(41.886)"><title>path10</title><path d="M7.36 122.01c.48 0 .92-.18 1.25-.52.34-.34.52-.8.53-1.28a1.803 1.759-90 0 0-.52-1.29l-6.12-6.28-2.5 2.57 6.11 6.27c.33.34.78.53 1.25.53" style="fill:#7a7a7a;stroke:none;stroke-width:10.79730034;stroke-linecap:butt"/></g><g transform="translate(42.401 -4.53)"><title>path12</title><path d="M1.7 122.01a6.042 5.892-90 0 0 2.49-2.55l.01-.02-1.7-1.74-2.5 2.57Z" style="fill:#000;fill-opacity:.4;stroke:none;stroke-width:10.79730034;stroke-linecap:butt"/></g><g transform="translate(22.698 -3.833)"><title>path14</title><path d="M12.35 96.68C5.53 96.68 0 102.35 0 109.34c0 7 5.53 12.67 12.35 12.67 6.83 0 12.36-5.67 12.36-12.67 0-6.99-5.53-12.66-12.36-12.66m0 21.85c-4.93 0-8.95-4.12-8.95-9.19 0-5.06 4.02-9.18 8.95-9.18 4.94 0 8.96 4.12 8.96 9.18 0 5.07-4.02 9.19-8.96 9.19" style="fill:#7a7a7a;stroke:none;stroke-width:10.79730034;stroke-linecap:butt"/></g></g></g></svg>