<svg xmlns="http://www.w3.org/2000/svg" xml:space="preserve" width="75.624" height="75.592" style="font-size:12px;overflow:visible;color-interpolation-filters:sRGB;fill-rule:evenodd;stroke-linecap:square;stroke-miterlimit:3" viewBox="0 0 56.718 56.694"><defs><linearGradient id="a" x1="-.025" x2="51.983" y1="66.916" y2="66.916" gradientTransform="scale(.9536 1.04865)" gradientUnits="userSpaceOnUse"><stop offset="0" stop-color="#5e9624"/><stop offset=".06" stop-color="#659d25"/><stop offset=".48" stop-color="#90c82e"/><stop offset=".805" stop-color="#aae234"/><stop offset="1" stop-color="#b4ec36"/></linearGradient></defs><g transform="translate(-34 -34)"><title>Page-1</title><g transform="translate(34.023 -34.016)"><title>Role (AzureAD).13042</title><title>Sheet.13043</title><g transform="translate(0 -2.155)"><title>Sheet.13044</title><path d="M49.55 119.79c-1.42-11.34-6.99-20.95-17.25-24.06a13.891 13.879-180 1 0-15.19-.12C6.77 98.38 1.26 107.07 0 119.82a4.434 4.43-180 0 0 3.96 4.87c.14 0 .29.02.44.02h40.74a4.414 4.41-180 0 0 4.43-4.39 4.675 4.67-180 0 0-.02-.53" style="fill:url(#a);stroke:none;stroke-width:34;stroke-linecap:butt"/></g><g transform="translate(17.284 -11.677)"><title>Sheet.13045</title><path d="M7.53 107.46A13.838 13.825 0 0 1 0 105.25l7.46 19.46 7.4-19.33a13.841 13.829 0 0 1-7.33 2.08" style="fill:#fff;stroke:none;stroke-width:34;stroke-linecap:butt"/></g><g transform="translate(44.528)"><title>Sheet.13046</title><path d="M12.16 103.46v14.14L0 124.71v-14.16z" style="fill:#32bedd;stroke:none;stroke-width:34;stroke-linecap:butt"/></g><g transform="translate(32.364 -14.146)"><title>Sheet.13047</title><path d="m24.33 117.61-12.17 7.1L0 117.6l12.16-7.1Z" style="fill:#9cebff;stroke:none;stroke-width:34;stroke-linecap:butt"/></g><g transform="translate(32.364)"><title>Sheet.13048</title><path d="M12.16 110.56v14.15L0 117.6v-14.14z" style="fill:#50e6ff;stroke:none;stroke-width:34;stroke-linecap:butt"/></g><g transform="translate(32.364)"><title>Sheet.13049</title><path d="m0 117.6 12.16-7.05v14.16z" style="fill:#9cebff;stroke:none;stroke-width:34;stroke-linecap:butt"/></g><g transform="translate(44.528)"><title>Sheet.13050</title><path d="M12.16 117.6 0 110.55v14.16z" style="fill:#50e6ff;stroke:none;stroke-width:34;stroke-linecap:butt"/></g></g></g></svg>