<svg xmlns="http://www.w3.org/2000/svg" xml:space="preserve" width="68.059" height="75.594" style="font-size:12px;overflow:visible;color-interpolation-filters:sRGB;fill-rule:evenodd;stroke-linecap:square;stroke-miterlimit:3" viewBox="0 0 51.044 56.696"><defs><linearGradient id="a" x1="-.025" x2="53.331" y1="64.008" y2="64.008" gradientTransform="scale(.9411 1.0626)" gradientUnits="userSpaceOnUse"><stop offset="0" stop-color="#5e9624"/><stop offset=".06" stop-color="#659d25"/><stop offset=".48" stop-color="#90c82e"/><stop offset=".805" stop-color="#aae234"/><stop offset="1" stop-color="#b4ec36"/></linearGradient></defs><g transform="translate(-34 -33.999)"><title>Page-1</title><g transform="translate(34.024 -34.016)"><title>Role (Custom).13035</title><title>g16</title><title>path2</title><path d="M50.16 119.59c-1.44-11.79-7.07-21.78-17.46-25.01a14.063 14.427-180 1 0-15.38-.12C6.86 97.34 1.27 106.38 0 119.63a4.49 4.606-180 0 0 4.01 5.05c.14 0 .3.03.45.03H45.7a4.47 4.585-180 0 0 4.49-4.56 4.733 4.855-180 0 0-.03-.56" style="fill:url(#a);stroke:none;stroke-width:34;stroke-linecap:butt"/><g transform="translate(17.498 -9.898)"><title>path4</title><path d="M7.63 106.78a14.01 14.372 0 0 1-7.63-2.3l7.55 20.23 7.49-20.09a14.013 14.375 0 0 1-7.41 2.16" style="fill:#fff;stroke:none;stroke-width:34;stroke-linecap:butt"/></g><g transform="translate(26.65 -16.16)"><title>path8</title><path d="M11.38 124.71h-.12l-11.14-6.6c-.12 0-.12-.13-.12-.25 0-.13.12-.26.12-.26l11.14-6.6h.37l11.14 6.6c.12 0 .12.13.12.26 0 .12-.12.25-.12.25l-11.14 6.6c-.12-.13-.25 0-.25 0" style="fill:#ff8c00;stroke:none;stroke-width:12.44369984;stroke-linecap:butt"/></g><g transform="translate(25.04 -.168)"><title>path10</title><path d="M11.38 124.71h-.12l-11.14-6.6c-.12 0-.12-.13-.12-.25v-13.33c0-.13.12-.26.12-.26h.37l11.14 6.6c.12.13.12.13.12.26v13.2c0 .13-.12.25-.12.25-.12.13-.25.13-.25.13m3.1 0h-.13c-.12 0-.12-.13-.12-.25v-13.21c0-.12.12-.25.12-.25l11.14-6.6h.37c.12 0 .12.13.12.25v13.21c0 .12-.12.25-.12.25l-11.14 6.6z" style="fill:#ffc373;stroke:none;stroke-width:12.44369984;stroke-linecap:butt"/></g><g transform="translate(39.27 -.168)"><title>path12</title><path d="M.25 124.71H.12c-.12 0-.12-.13-.12-.25v-13.21c0-.12.12-.25.12-.25l11.14-6.6h.37c.12 0 .12.13.12.25v13.21c0 .12-.12.25-.12.25l-11.14 6.6z" style="fill:#fff;fill-opacity:.5;stroke:none;stroke-width:12.44369984;stroke-linecap:butt"/></g></g></g></svg>