<svg xmlns="http://www.w3.org/2000/svg" xml:space="preserve" width="75.587" height="68.034" style="font-size:12px;overflow:visible;color-interpolation-filters:sRGB;fill-rule:evenodd;stroke-linecap:square;stroke-miterlimit:3" viewBox="0 0 56.69 51.025"><g transform="translate(-12.24 -12.239)"><title>Page-1</title><g transform="translate(12.24 -34.016)"><title>Run Command.13020</title><title>g16</title><g transform="translate(9.751)"><title>path4</title><path d="M26.99 86.65H11.57c1.81 6.42-.68 7.31-11.57 7.31v3.32h36.96v-3.32c-10.77 0-11.79-.89-9.97-7.31" style="fill:#7a7a7a;stroke:none;stroke-width:12.23999977;stroke-linecap:butt"/></g><g transform="translate(3.402 -13.282)"><title>path6</title><path d="m49.78 62.97.11 34.31H0V62.97h49.89z" style="fill:#59b4d9;stroke:none;stroke-width:12.23999977;stroke-linecap:butt"/></g><g transform="translate(0 -10.625)"><title>path8</title><path d="M53.29 56.88H3.06c-1.7 0-3.06 1.44-3.06 3.1v34.2c0 1.66 1.36 3.1 3.06 3.1h50.23c1.7 0 3.4-1.44 3.4-3.1v-34.2c0-1.66-1.7-3.1-3.4-3.1m-.91 4.21v31.87H4.31V61.09l48.07-.11z" style="fill:#a0a1a2;stroke:none;stroke-width:12.23999977;stroke-linecap:butt"/></g><g transform="translate(0 -10.625)"><title>path10</title><path d="M4.31 93.07V61.09l43.88-.11 5.1-4.1H3.06c-1.7 0-3.06 1.44-3.06 3.1v34.2c0 1.66 1.36 3.1 3.06 3.1h1.25l5.21-4.21z" style="fill:#fff;fill-opacity:.2;stroke:none;stroke-width:12.23999977;stroke-linecap:butt"/></g><g transform="translate(27.326 -47.925)"><title>path12</title><path d="M1.59 96.5c0 .45-.34.78-.8.78-.45 0-.79-.33-.79-.78 0-.44.34-.77.79-.77.46 0 .8.33.8.77" style="fill:#b8d432;stroke:none;stroke-width:12.23999977;stroke-linecap:butt"/></g><g transform="translate(17.008 -17.709)"><title>path14</title><path d="M21.54 88.42h-2.26v-2.21c0-1.83-1.53-3.32-3.4-3.32h-3.41v-3.32h2.27a1.134 1.107-180 0 0 1.13-1.11v-6.64a1.134 1.107-180 0 0-1.13-1.1h-6.8a1.134 1.107-180 0 0-1.14 1.1v6.64a1.134 1.107-180 0 0 1.14 1.11h2.26v3.32H6.8c-1.87 0-3.4 1.49-3.4 3.32v2.21H1.13A1.134 1.107-180 0 0 0 89.53v6.64a1.134 1.107-180 0 0 1.13 1.11h6.81a1.134 1.107-180 0 0 1.13-1.11v-6.64a1.134 1.107-180 0 0-1.13-1.11H5.67v-2.21c0-.61.51-1.11 1.13-1.11h9.07c.63 0 1.14.5 1.14 1.11v2.21h-2.27a1.134 1.107-180 0 0-1.13 1.11v6.64a1.134 1.107-180 0 0 1.13 1.1l6.8.01a1.134 1.107-180 0 0 1.14-1.11v-6.64a1.134 1.107-180 0 0-1.14-1.11" style="fill:#fff;stroke:none;stroke-width:12.23999977;stroke-linecap:butt"/></g></g></g></svg>