<svg xmlns="http://www.w3.org/2000/svg" xml:space="preserve" width="68.127" height="66.867" style="font-size:12px;overflow:visible;color-interpolation-filters:sRGB;fill-rule:evenodd;stroke-linecap:square;stroke-miterlimit:3" viewBox="0 0 51.095 50.15"><defs><linearGradient id="a" x1="4.221" x2="44.687" y1="77.203" y2="77.203" gradientTransform="scale(1.0095 .99059)" gradientUnits="userSpaceOnUse"><stop offset=".165" stop-color="#f2f2f2"/><stop offset="1" stop-color="#e6e6e6"/></linearGradient><linearGradient id="b" x1="-1.197" x2="24.055" y1="97.776" y2="97.776" gradientTransform="scale(1.00997 .99012)" gradientUnits="userSpaceOnUse"><stop offset="0" stop-color="#86d633"/><stop offset="1" stop-color="#76bc2d"/></linearGradient></defs><g transform="translate(-34 -34.005)"><title>Page-1</title><g transform="translate(24.99 -35.152)"><title>Savings Plan.13012</title><title>Sheet.13013</title><g transform="translate(8.131 -3.895)"><title>Sheet.13014</title><path d="M45.1 96.47c0 .6-.04 1.21-.09 1.8-11.21-5.48-24.03 7.17-18.43 18.16C11.97 118.15 0 102.47 5.72 89.21a20.21 19.811 0 0 1 3.98-6.25c1.92 3.6 2.44-2.4 3.87-3.27 14.29-8.67 32.05 1.3 31.53 16.78" style="fill:url(#a);stroke:none;stroke-width:34;stroke-linecap:butt"/></g><g transform="translate(20.093 -19.733)"><title>Sheet.13015</title><path d="M12.76 92.33h-.08a20.252 19.853-180 0 0-11.07 3.2L0 92.5a23.706 23.239 0 0 1 12.73-3.61 1.703 1.67-180 0 0-1.69 1.66v.05a1.774 1.739-180 0 0 1.72 1.73m-1.54 4.21v15.06a1.459 1.43-180 0 0 1.45 1.43h.29a1.462 1.433-180 0 0 1.46-1.43V96.54a1.462 1.433-180 0 0-1.46-1.43h-.29a1.459 1.43-180 0 0-1.45 1.43m3.99 16.14a1.459 1.43-180 0 0-2.06 0l-.21.19a1.467 1.438-180 0 0 0 2.03l3.32 3.25a13.977 13.702 0 0 1 2.25-2.23z" style="fill:#7a7a7a;stroke:none;stroke-width:34;stroke-linecap:butt"/></g><g transform="translate(29.4 -22.293)"><title>Sheet.13016</title><ellipse cx="3.369" cy="114.845" rx="3.369" ry="3.302" style="fill:#4f4f4f;stroke:none;stroke-width:34;stroke-linecap:butt"/></g><title>Sheet.13017</title><path d="M34.71 112.53c.24 1.01 2.34 2.68.6 3.24C14.05 118.15 0 92.27 15.75 76.25c-.42-.69-2.47-2.46-.72-2.9l6.81-.78c1.9.04.08 2.44-.15 3.23-.28.66-1.42 3.03-1.86 4.04-.76 1.16-1.57-.07-2.01-.77a22.086 21.65-180 0 0-1.06 1.22l-.01.02c-.13.17-.26.33-.38.5l-.03.06a19.583 19.197-180 0 0-2.47 4.43v.02c-5.84 13.66 6.41 28.61 20.84 27.21m8.6-41a.525.515-180 0 0-.184-.086A23.556 23.091-180 0 0 32.83 69.16a1.757 1.722-180 0 0 0 3.44h.38a20.4 19.998 0 0 1 19.9 21.76c3.25 1.79 3.58 2.22 3.58-1.85a23.865 23.395-180 0 0-13.38-20.98" style="fill:#76bc2d;stroke:none;stroke-width:34;stroke-linecap:butt"/><g transform="translate(35.81 -2.507)"><title>Sheet.13018</title><path d="M20.29 100.22a12.984 12.728-180 0 0-3.12-2.11 2.744 2.69-180 0 0-.18-.1A12.749 12.497-180 0 0 0 114.62a2.123 2.081-180 0 0 .11.23 12.695 12.444-180 0 0 2.1 2.97c0 .03.04.04.06.06a12.743 12.492-180 1 0 18.01-17.66z" style="fill:url(#b);stroke:none;stroke-width:34;stroke-linecap:butt"/></g><g transform="translate(43.62 -3.326)"><title>Sheet.13019</title><path d="M7.21 111.31a3.973 3.895-180 0 0-2.06-1.92 11.849 11.615 0 0 1-1.96-.95 1.025 1.004 0 0 1-.46-1.36.96.94 0 0 1 .369-.331 3.718 3.645 0 0 1 3.311.121 4.478 4.39 0 0 1 .6.33v-2.23a8.077 7.918-180 0 0-4.36-.23 3.468 3.4-180 0 0-2.25 1.45.412.403 0 0 1-.054.095A2.988 2.93-180 0 0 0 107.72a2.875 2.818-180 0 0 .62 1.82 5.018 4.919-180 0 0 1.9 1.27c.92.41 2.81.93 2.23 2.22a.925.907 0 0 1-.338.342 2.787 2.732 0 0 1-1.392.278 4.654 4.563 0 0 1-2.8-.94 2.307 2.262 0 0 1-.2-.15v2.39a5.174 5.072-180 0 0 1.44.47c.22.03.43.06.7.08 1.77.14 4.26.02 5.07-1.84a2.949 2.89-180 0 0-.02-2.35m-3.68 5.01a1.095 1.074-180 1 0 1.09 1.08 1.098 1.077-180 0 0-1.09-1.07zm.06-14.56a1.098 1.077-180 1 0 1.09 1.07 1.076 1.054-180 0 0-1.09-1.06z" style="fill:#fff;stroke:none;stroke-width:34;stroke-linecap:butt"/></g></g></g></svg>