<svg xmlns="http://www.w3.org/2000/svg" xml:space="preserve" width="75.587" height="63.968" style="font-size:12px;overflow:visible;color-interpolation-filters:sRGB;fill-rule:evenodd;stroke-linecap:square;stroke-miterlimit:3" viewBox="0 0 56.69 47.976"><g transform="translate(-12.24 -12.238)"><title>Page-1</title><g transform="translate(12.24 -34.016)"><title>Scheduler Job Collection.13000</title><title>Sheet.13001</title><g transform="translate(18.215 -13.355)"><title>Sheet.13002</title><path d="M12.86 66.63c-3.87.44-7.17 2.22-9.44 5C1.14 74.42 0 77.98.34 81.65c.46 3.78 2.28 7.01 5.12 9.24 2.85 2.22 6.49 3.34 10.25 3 3.87-.44 7.17-2.33 9.45-5.01a13.73 13.73 0 0 0 3.07-10.01c-.45-3.79-2.39-7.01-5.23-9.35-2.39-1.89-5.47-3-8.66-3-.45 0-.91 0-1.48.11" style="fill:#fff;stroke:none;stroke-width:12.23999977;stroke-linecap:butt"/></g><g transform="translate(25.387 -11.018)"><title>Sheet.13003</title><path d="M23.22 76.2c-.45-4.45-2.84-8.35-6.14-10.91-.69-.56-1.37-1-2.05-1.33l-1.26 2.44c.57.34 1.03.67 1.6 1.01 2.73 2.22 4.67 5.34 5.12 9.01.34 3.67-.8 7.12-2.96 9.79s-5.46 4.46-9.22 4.9c-2.5.22-4.89-.22-7.06-1.11L0 92.45c2.62 1.22 5.58 1.78 8.65 1.44 4.56-.44 8.43-2.67 11.04-5.9 2.62-3.11 3.99-7.34 3.53-11.79" style="fill:#3999c6;stroke:none;stroke-width:12.23999977;stroke-linecap:butt"/></g><g transform="translate(15.369 -12.799)"><title>Sheet.13004</title><path d="M8.31 90.11c-2.73-2.12-4.55-5.34-5.01-9.02-.34-3.67.8-7.12 2.96-9.79s5.47-4.45 9.22-4.9c3.08-.33 5.92.34 8.31 1.78l1.26-2.44a16.9 16.9 0 0 0-9.91-2.12c-4.55.45-8.42 2.67-11.04 5.9S0 76.87.57 81.32c.45 4.45 2.73 8.23 6.03 10.79 1.03.78 2.17 1.56 3.42 2.12l1.25-2.45c-1.14-.45-2.05-1-2.96-1.67" style="fill:#a0a1a2;stroke:none;stroke-width:12.23999977;stroke-linecap:butt"/></g><g transform="translate(15.369 -12.799)"><title>Sheet.13005</title><path d="M8.31 90.11c-2.73-2.12-4.55-5.34-5.01-9.02-.34-3.67.8-7.12 2.96-9.79s5.47-4.45 9.22-4.9c3.08-.33 5.92.34 8.31 1.78l1.26-2.44a16.9 16.9 0 0 0-9.91-2.12c-4.55.45-8.42 2.67-11.04 5.9S0 76.87.57 81.32c.45 4.45 2.73 8.23 6.03 10.79 1.03.78 2.17 1.56 3.42 2.12l1.25-2.45c-1.14-.45-2.05-1-2.96-1.67" style="fill:#59b4d9;stroke:none;stroke-width:12.23999977;stroke-linecap:butt"/></g><g transform="translate(31.762 -22.815)"><title>Sheet.13006</title><path d="m7.4 93.89-6.38-2.22C.34 91.44 0 90.67.23 90s1.02-1 1.71-.78l6.37 2.22c.68.23 1.02 1.01.8 1.67-.23.67-1.03 1.12-1.71.78" style="fill:#7a7a7a;stroke:none;stroke-width:12.23999977;stroke-linecap:butt"/></g><g transform="translate(30.737 -25.597)"><title>Sheet.13007</title><path d="M1.37 94.23c-.69 0-1.37-.56-1.37-1.34V81.98c0-.66.57-1.33 1.37-1.33.68 0 1.36.56 1.36 1.33v10.91c0 .78-.57 1.34-1.36 1.34" style="fill:#7a7a7a;stroke:none;stroke-width:12.23999977;stroke-linecap:butt"/></g><g transform="translate(30.168 -24.93)"><title>Sheet.13008</title><ellipse cx="1.935" cy="92.335" rx="1.935" ry="1.892" style="fill:#1e1e1e;stroke:none;stroke-width:12.23999977;stroke-linecap:butt"/></g><g transform="translate(8.083 -.111)"><title>Sheet.13009</title><path d="m22.43 81.43 6.71 6.12-5.92 6.68.12-4.34h-1.6C9.79 89.89 0 80.43 0 68.63s9.56-21.15 21.63-21.15c6.03 0 11.5 2.45 15.48 6.35-3.41-3.23-8.08-5.23-13.2-5.34-10.36 0-18.79 8.23-18.79 18.36 0 9.79 8.09 17.69 17.88 18.36z" style="fill:#b8d432;stroke:none;stroke-width:12.23999977;stroke-linecap:butt"/></g><g transform="translate(7.969)"><title>Sheet.13010</title><path d="M23.79 87.88C11.84 87.44 2.62 77.64 3.07 66.07c.35-7.23 4.33-13.47 10.14-17.03C5.46 52.27 0 59.84 0 68.63c0 11.69 9.68 21.26 21.74 21.26h1.6l-.12 4.34 5.92-6.68c-1.7.33-3.53.44-5.35.33" style="fill:#1e1e1e;fill-opacity:.2;stroke:none;stroke-width:12.23999977;stroke-linecap:butt"/></g><g transform="translate(0 -2.782)"><title>Sheet.13011</title><path d="M10.81 94c-.22 0-.56-.11-.79-.22l-7.74-4.45C.91 88.55 0 86.99 0 85.55V57.5c0-1.45.91-3.12 2.28-3.78l7.74-4.46c.79-.44 1.82-.22 2.27.56.46.78.23 1.78-.56 2.23L3.98 56.5c-.22.11-.56.67-.56 1v28.05c0 .33.34.89.56 1L11.73 91c.79.44 1.02 1.45.56 2.22-.34.45-.91.78-1.48.78m35.07-44.96c.23 0 .57.11.79.22l7.75 4.46c1.36.78 2.27 2.33 2.27 3.78v28.05c0 1.44-.91 3.11-2.27 3.78l-7.75 4.45c-.79.45-1.82.22-2.27-.56-.46-.77-.23-1.78.57-2.22l7.74-4.45c.23-.11.57-.67.57-1V57.5c0-.33-.34-.89-.57-1l-7.74-4.45c-.8-.45-1.03-1.45-.57-2.23.45-.44.91-.78 1.48-.78" style="fill:#7a7a7a;stroke:none;stroke-width:12.23999977;stroke-linecap:butt"/></g></g></g></svg>