<svg xmlns="http://www.w3.org/2000/svg" xmlns:xlink="http://www.w3.org/1999/xlink" xml:space="preserve" width="75.576" height="75.235" style="font-size:12px;overflow:visible;color-interpolation-filters:sRGB;fill-rule:evenodd;stroke-linecap:square;stroke-miterlimit:3" viewBox="0 0 56.682 56.426"><defs><linearGradient id="b" x1="0" x2="19.32" y1="100.209" y2="100.209" gradientTransform="scale(1.24018 .80633)" gradientUnits="userSpaceOnUse"><stop offset="0" stop-color="#8bb6e1"/><stop offset="1" stop-color="#6a9dd3"/></linearGradient><linearGradient id="c" x1="0" x2="28.708" y1="38.337" y2="38.337" gradientTransform="scale(.69563 1.43755)" gradientUnits="userSpaceOnUse"><stop offset=".15" stop-color="#8bb6e1"/><stop offset="1" stop-color="#6a9dd3"/></linearGradient><linearGradient id="d" x1="0" x2="29.809" y1="40.781" y2="40.781" gradientTransform="scale(.73241 1.36536)" gradientUnits="userSpaceOnUse"><stop offset=".19" stop-color="#6a9dd3"/><stop offset="1" stop-color="#2f76bc"/></linearGradient><linearGradient id="e" x1="0" x2="22.757" y1="76.132" y2="76.132" gradientTransform="scale(1.02604 .97462)" gradientUnits="userSpaceOnUse"><stop offset=".44" stop-color="#6a9dd3"/><stop offset="1" stop-color="#2f76bc"/></linearGradient><linearGradient id="a" x1="0" x2="1" y1="0" y2="0" gradientTransform="rotate(90 .5 .5)"><stop offset="0" stop-color="#2f76bc"/><stop offset="1" stop-color="#015ca2"/></linearGradient><linearGradient id="h" x1="0" x2="24.757" y1="71.291" y2="71.291" gradientTransform="scale(.99657 1.00344)" gradientUnits="userSpaceOnUse"><stop offset=".15" stop-color="#fff"/><stop offset="1" stop-color="#f3f3f3"/></linearGradient><linearGradient xlink:href="#a" id="f" x1="0" x2="25.639" y1="58.527" y2="58.527" gradientTransform="scale(.87327 1.14512)" gradientUnits="userSpaceOnUse"/><linearGradient xlink:href="#a" id="g" x1="0" x2="16.038" y1="75.801" y2="75.801" gradientTransform="scale(.95335 1.04893)" gradientUnits="userSpaceOnUse"/></defs><g transform="translate(-5.67 -5.938)"><title>Page-1</title><g transform="translate(5.67 -34.016)"><title>SCOM Managed Instance.12988</title><title>Sheet.12989</title><g transform="translate(21.673 -40.848)"><title>Sheet.12990</title><path d="M23.96 96.33c-2.96-.52-5.98-.49-8.92.05C11.36 90.44 6.17 85.62 0 82.44a16.05 16.05 0 0 1 7.42-1.63c8.79-.28 16.15 6.64 16.54 15.52" style="fill:url(#b);stroke:none;stroke-width:1.22644997;stroke-linecap:butt"/></g><g transform="translate(36.712)"><title>Sheet.12991</title><path d="M19.97 82.1c-.02 7.89-6.36 14.28-14.18 14.28a13.517 13.673 0 0 1-1.92-.14A39.1 39.1 0 0 0 7.5 80.43c.1-4.29-.51-8.55-1.83-12.62A50.4 50.4 0 0 0 0 55.53c2.94-.54 5.96-.56 8.92-.05 6.19.83 10.87 6.08 11.05 12.39-.08 2.39-.82 4.71-2.12 6.71 1.39 2.25 2.13 4.85 2.12 7.52" style="fill:url(#c);stroke:none;stroke-width:1.22644997;stroke-linecap:butt"/></g><g transform="translate(22.389 -.138)"><title>Sheet.12992</title><path d="M21.82 80.57a39.2 39.2 0 0 1-3.62 15.81c-.41-.06-.82-.13-1.22-.22-6.44-1.48-11.01-7.25-11.03-13.93 0-.51.02-1.03.09-1.54H4.67A56.2 56.2 0 0 0 0 63.92c1.45-1.48 3.01-2.86 4.67-4.1 2.85-2.13 6.16-3.54 9.65-4.14a50.4 50.4 0 0 1 5.67 12.28c1.32 4.06 1.94 8.33 1.83 12.61" style="fill:url(#d);stroke:none;stroke-width:1.22644997;stroke-linecap:butt"/></g><g transform="translate(13.358 -32.598)"><title>Sheet.12993</title><path d="M23.35 88.13c-3.49.6-6.8 2.01-9.65 4.13a40.6 40.6 0 0 0-4.67 4.12c-.19-.43-.4-.85-.6-1.28A38.3 38.3 0 0 0 0 83.42c1.49-4.05 4.46-7.36 8.31-9.22 6.17 3.17 11.36 7.99 15.04 13.93" style="fill:url(#e);stroke:none;stroke-width:1.22644997;stroke-linecap:butt"/></g><g transform="translate(0 -16.213)"><title>Sheet.12994</title><path d="M22.39 79.99a55.1 55.1 0 0 0-10.62 16.39C5.07 94.73.27 88.79 0 81.82c.23-7.6 5.91-13.89 13.37-14.8 3.52 3.32 6.37 7.3 8.42 11.7.2.42.39.85.6 1.27" style="fill:url(#f);stroke:none;stroke-width:1.22644997;stroke-linecap:butt"/></g><g transform="translate(11.757 -15.719)"><title>Sheet.12995</title><path d="m15.29 96.27-11.09.05c-1.41.06-2.83-.09-4.2-.42a54.7 54.7 0 0 1 10.62-16.39c2.42 5.3 4 10.96 4.67 16.76" style="fill:url(#g);stroke:none;stroke-width:1.22644997;stroke-linecap:butt"/></g><g transform="translate(30.18 -1.861)"><title>Sheet.12996</title><ellipse cx="12.336" cy="83.957" rx="12.336" ry="12.421" style="fill:url(#h);stroke:none;stroke-width:1.22644997;stroke-linecap:butt"/></g><g transform="translate(32.044 -6.802)"><title>Sheet.12997</title><path d="M0 89.63a10.63 10.63 0 0 0 3.03 6.75L6.37 93a6.04 6.04 0 0 1-1.67-3.38H0Zm17.36-8.71a10.45 10.45 0 0 0-6.16-2.58v4.7c1.05.11 2.02.53 2.85 1.18zm-13.77 0 3.34 3.38a5.67 5.67 0 0 1 2.85-1.18v-4.78c-2.29.15-4.46 1.06-6.19 2.58m11.52 4.35a6.2 6.2 0 0 1 1.18 2.88h4.66c-.15-2.29-1.05-4.47-2.56-6.18Zm-9.27 0L2.5 81.89A10.45 10.45 0 0 0 0 88.15h4.66c.13-1.04.54-2.04 1.18-2.88" style="fill:#8bb6e1;stroke:none;stroke-width:1.22644997;stroke-linecap:butt"/></g><g transform="translate(43.267 -13.915)"><title>Sheet.12998</title><path d="M7.82 92.63a.75.75 0 0 0-.95-.42L0 95.01l.53 1.37 6.88-2.75c.37-.14.58-.56.43-.95z" style="fill:#ef414a;stroke:none;stroke-width:1.22644997;stroke-linecap:butt"/></g><g transform="translate(40.518 -12.26)"><title>Sheet.12999</title><ellipse cx="1.999" cy="94.356" rx="1.999" ry="2.022" style="fill:#505050;stroke:none;stroke-width:1.22644997;stroke-linecap:butt"/></g></g></g></svg>