<svg xmlns="http://www.w3.org/2000/svg" xml:space="preserve" width="75.587" height="52.913" style="font-size:12px;overflow:visible;color-interpolation-filters:sRGB;fill-rule:evenodd;stroke-linecap:square;stroke-miterlimit:3" viewBox="0 0 56.69 39.685"><defs><linearGradient id="a" x1="0" x2="47.431" y1="81.294" y2="81.294" gradientTransform="scale(1.1952 .83668)" gradientUnits="userSpaceOnUse"><stop offset=".09" stop-color="#6cc6b9"/><stop offset=".465" stop-color="#6ac4b7"/><stop offset=".635" stop-color="#62bdb0"/><stop offset=".77" stop-color="#56b1a4"/><stop offset=".88" stop-color="#439f93"/><stop offset=".975" stop-color="#2c897d"/><stop offset="1" stop-color="#258277"/></linearGradient></defs><g transform="translate(-34 -34.002)"><title>Page-1</title><g transform="translate(34 -34.016)"><title>Shared Dashboard.12982</title><title>g10</title><title>path2</title><path d="M1.73 68.02h53.22a1.647 1.628 0 0 1 1.74 1.53v36.62a1.647 1.628 0 0 1-1.72 1.53H1.73A1.647 1.628 0 0 1 0 106.17V69.55a1.647 1.628 0 0 1 1.73-1.53" style="fill:url(#a);stroke:none;stroke-width:34;stroke-linecap:butt"/><g transform="translate(22.957 -20.15)"><title>path4</title><path d="M.49 92.84h25.48a.482.476 0 0 1 .498.46l.002 13.94a.482.476 0 0 1-.498.46H.49a.479.473 0 0 1-.494-.46L0 93.3a.479.473 0 0 1 .494-.46z" style="fill:#fff;stroke:none;stroke-width:34;stroke-linecap:butt"/></g><g transform="translate(7.033 -5.101)"><title>rect6</title><path d="M0 107.24a.47.464-180 0 0 .47.464l9.79-.004a.47.464-180 0 0 .47-.464l-.01-28.986a.47.464-180 0 0-.47-.464l-9.78.004a.47.464-180 0 0-.47.464Z" style="fill:#fff;stroke:none;stroke-width:34;stroke-linecap:butt"/></g><g transform="translate(22.957 -5.098)"><title>path8</title><path d="M16.12 96.88H26a.466.46 0 0 1 .476.448l-.006 9.922a.466.46 0 0 1-.476.451l-9.874-.001a.466.46 0 0 1-.472-.451l-.008-9.929a.463.458 0 0 1 .472-.439zm-15.67 0h9.73a.466.46 0 0 1 .466.46l-.006 9.9a.466.46 0 0 1-.466.46H.45a.454.448 0 0 1-.454-.448L0 97.32a.454.448 0 0 1 .454-.439z" style="fill:#fff;stroke:none;stroke-width:34;stroke-linecap:butt"/></g></g></g></svg>