<svg xmlns="http://www.w3.org/2000/svg" xml:space="preserve" width="71.906" height="75.6" style="font-size:12px;overflow:visible;color-interpolation-filters:sRGB;fill-rule:evenodd;stroke-linecap:square;stroke-miterlimit:3" viewBox="0 0 53.929 56.7"><g transform="translate(-11.77 -11.764)"><title>Page-1</title><g transform="translate(11.77 -34.016)"><title>Sign In.12978</title><title>g8</title><g transform="translate(3.352)"><title>path4</title><path d="M22.1 45.78c7.59 0 14.67 2.93 20.19 8.28 11.05 11.02 11.05 29.12 0 40.15-5.35 5.34-12.6 8.27-20.19 8.27-7.6 0-14.68-2.93-20.2-8.27-1.9-1.9-1.9-4.83 0-6.72 1.9-1.9 4.83-1.9 6.73 0 3.63 3.61 8.29 5.68 13.47 5.68 5.17 0 9.84-1.89 13.46-5.51 7.42-7.41 7.42-19.47 0-26.71-3.62-3.62-8.46-5.69-13.46-5.69-5.01 0-9.84 1.9-13.47 5.52-1.9 1.89-4.83 1.89-6.73 0-1.9-1.9-1.9-4.83 0-6.72 5.35-5.35 12.6-8.28 20.2-8.28" style="fill:#0072c6;stroke:none;stroke-width:11.76920033;stroke-linecap:butt"/></g><g transform="translate(0 -15.834)"><title>path6</title><path d="m28.51 86.66-9.47-10.03h7.54l12.75 12.92-12.56 12.93h-7.73l9.47-9.84H1.76A1.758 1.755 0 0 1 0 90.89v-2.47c0-.97.79-1.76 1.76-1.76z" style="fill:#57a300;stroke:none;stroke-width:11.76920033;stroke-linecap:butt"/></g></g></g></svg>