<svg xmlns="http://www.w3.org/2000/svg" xml:space="preserve" width="45.354" height="75.596" style="font-size:12px;overflow:visible;color-interpolation-filters:sRGB;fill-rule:evenodd;stroke-linecap:square;stroke-miterlimit:3" viewBox="0 0 34.015 56.697"><defs><radialGradient id="a" cx="43.919" cy="52.681" r="61.482" fx="43.919" fy="52.681" gradientTransform="scale(.77457 1.29105)" gradientUnits="userSpaceOnUse"><stop offset=".265" stop-color="#ffd70f"/><stop offset=".485" stop-color="#ffcb12"/><stop offset=".885" stop-color="#feac19"/><stop offset="1" stop-color="#fea11b"/></radialGradient></defs><g transform="translate(-34.003 -33.998)"><title>Page-1</title><g transform="translate(34 -34.016)"><title>Subscription.12974</title><title>Sheet.12975</title><title>Sheet.12976</title><path d="M32.19 90.39a6.271 6.532-180 0 0 0-9.22L21.41 69.92a6.229 6.488-180 0 0-8.82 0L1.83 81.17a6.274 6.535-180 0 0 0 9.22l8.96 9.36a1.757 1.83 0 0 1 .51 1.29v17.4a2.14 2.23-180 0 0 .62 1.57l4.09 4.27a1.415 1.474-180 0 0 2 0l3.96-4.14v-.04l2.33-2.43a.82.853-180 0 0 0-1.203l-1.68-1.757a.907.945 0 0 1 0-1.313l1.68-1.757a.82.853-180 0 0 0-1.203l-1.68-1.737a.907.945 0 0 1 0-1.313l1.69-1.757a.816.85-180 0 0 0-1.2l-2.34-2.44v-.9zM17.01 72.65a3.553 3.7 0 1 1-3.55 3.7 3.55 3.697 0 0 1 3.55-3.7" style="fill:url(#a);stroke:none;stroke-width:34;stroke-linecap:butt"/><g transform="translate(8.38 -5.75)"><title>Sheet.12977</title><path d="M5.83 124.56a.762.794-180 0 0 1.288-.605L7.11 109.88a.81.844-180 0 0-.35-.7.765.797-180 0 0-1.18.7v14.07a.81.844-180 0 0 .242.605zM.96 90.67h15.79a.955.995 0 0 1 .955.995l.005.185a.958.998 0 0 1-.958.998L.96 92.85a.955.995 0 0 1-.955-.995L0 91.67a.958.998 0 0 1 .958-.998zm0 3.54h15.79a.955.995 0 0 1 .955.995l.005.195a.955.995 0 0 1-.955.995L.96 96.39a.958.998 0 0 1-.958-.998L0 95.21a.958.998 0 0 1 .958-.998z" style="fill:#ff9300;fill-opacity:.75;stroke:none;stroke-width:34;stroke-linecap:butt"/></g></g></g></svg>