<svg xmlns="http://www.w3.org/2000/svg" xml:space="preserve" width="75.594" height="68.032" style="font-size:12px;overflow:visible;color-interpolation-filters:sRGB;fill-rule:evenodd;stroke-linecap:square;stroke-miterlimit:3" viewBox="0 0 56.695 51.024"><defs><linearGradient id="a" x1="0" x2="44.109" y1="54.198" y2="54.198" gradientTransform="scale(.93768 1.06646)" gradientUnits="userSpaceOnUse"><stop offset="0" stop-color="#0078d4"/><stop offset="1" stop-color="#83b9f9"/></linearGradient></defs><g transform="translate(-19.8 -19.8)"><title>Page-1</title><g transform="translate(19.8 -34.016)"><title>System Integrity Monitoring.12966</title><title>Sheet.12967</title><g transform="translate(15.335 -3.984)"><title>Sheet.12968</title><path d="M.03 69.56 20.69 57.8l20.67 11.76v23.52l-20.67 11.76L0 93.08V69.64Z" style="fill:url(#a);stroke:none;stroke-width:19.79999924;stroke-linecap:butt"/></g><g transform="translate(15.248 -4.37)"><title>Sheet.12969</title><path d="m.12 69.93 20.52 11.39v23.52L0 93.11l.09-23.1Z" style="fill:#0078d4;stroke:none;stroke-width:19.79999924;stroke-linecap:butt"/></g><title>Sheet.12970</title><path d="m.02 84.41 11.96-6.8 11.96 6.8v13.62l-11.96 6.81L0 98.03V84.46Z" style="fill:#9cebff;stroke:none;stroke-width:19.79999924;stroke-linecap:butt"/><g transform="translate(.016 -.022)"><title>Sheet.12971</title><path d="m.02 84.46 11.93 6.77v13.61L0 98.05V84.5Z" style="fill:#32bedd;stroke:none;stroke-width:19.79999924;stroke-linecap:butt"/></g><g transform="translate(11.962 -.022)"><title>Sheet.12972</title><path d="M11.98 84.44 0 91.23v13.61l11.98-6.79z" style="fill:#50e6ff;stroke:none;stroke-width:19.79999924;stroke-linecap:butt"/></g><g transform="translate(22.734 -24.867)"><title>Sheet.12973</title><path d="m0 94.43 19.95-11.95 6.26 3.56L6.24 97.99v6.58a.285.281 0 0 1-.362.271.288.283 0 0 1-.144-.091l-2.644-3.11a.288.283-180 0 0-.28-.092l-2.46.532a.288.283 0 0 1-.346-.275L0 94.44Z" style="fill:#fff;fill-opacity:.5;stroke:none;stroke-width:19.79999924;stroke-linecap:butt"/></g></g></g></svg>