<svg xmlns="http://www.w3.org/2000/svg" xml:space="preserve" width="75.595" height="75.589" style="font-size:12px;overflow:visible;color-interpolation-filters:sRGB;fill-rule:evenodd;stroke-linecap:square;stroke-miterlimit:3" viewBox="0 0 56.696 56.692"><defs><linearGradient id="a" x1=".002" x2="56.696" y1="68.022" y2="68.022" gradientTransform="scale(1.00004 .99996)" gradientUnits="userSpaceOnUse"><stop offset="0" stop-color="#c69aeb"/><stop offset=".09" stop-color="#bb90e4"/><stop offset=".49" stop-color="#926bc9"/><stop offset=".81" stop-color="#7854b8"/><stop offset="1" stop-color="#6f4bb2"/></linearGradient></defs><g transform="translate(-34.002 -34.004)"><title>Page-1</title><g transform="translate(34 -34.016)"><title>Tag.12962</title><title>g6</title><title>path2</title><path d="m56.15 76.34-7.68-7.74a1.862 1.893-180 0 0-1.38-.58l-14.22.55a1.67 1.697-180 0 0-1.31.56L.55 100.52a1.894 1.926-180 0 0 0 2.71l20.67 20.92a1.926 1.958-180 0 0 2.7 0l31.1-31.43a1.862 1.893-180 0 0 .55-1.21l1.12-13.67a1.83 1.86-180 0 0-.54-1.5m-9.25 5.12a3.467 3.525 0 1 1 3.47-3.49 3.435 3.492 0 0 1-3.47 3.49" style="fill:url(#a);stroke:none;stroke-width:34;stroke-linecap:butt"/><g transform="translate(42.587 -42.297)"><title>path4</title><path d="M4.31 114a6.163 6.266-180 1 0 6.2 6.27 6.196 6.299-180 0 0-6.2-6.27m3.41 6.95a3.467 3.525 0 1 1-4.08-4.14 3.467 3.525 0 0 1 4.08 4.14" style="fill:#552f99;stroke:none;stroke-width:34;stroke-linecap:butt"/></g></g></g></svg>