<svg xmlns="http://www.w3.org/2000/svg" xml:space="preserve" width="68.046" height="75.596" style="font-size:12px;overflow:visible;color-interpolation-filters:sRGB;fill-rule:evenodd;stroke-linecap:square;stroke-miterlimit:3" viewBox="0 0 51.034 56.697"><defs><linearGradient id="a" x1=".004" x2="45.565" y1="79.04" y2="79.04" gradientTransform="scale(.99913 1.00087)" gradientUnits="userSpaceOnUse"><stop offset="0" stop-color="#c69aeb"/><stop offset="1" stop-color="#6f4bb2"/></linearGradient></defs><g transform="translate(-33.992 -33.997)"><title>Page-1</title><g transform="translate(34 -34.016)"><title>Tags.12955</title><title>MsPortalFx.base.images-5</title><g transform="translate(0 -11.086)"><title>Sheet.12957</title><path d="m45.08 85.77-6.14-6.22a1.542 1.57-180 0 0-1.14-.45l-11.4.43a1.512 1.54-180 0 0-1.02.45L.44 105.24a1.512 1.54-180 0 0 0 2.19l16.62 16.83a1.522 1.55-180 0 0 2.15 0l24.96-25.3a1.493 1.52-180 0 0 .44-.96l.92-11.01a1.51 1.537-180 0 0-.45-1.22m-7.42 4.13a2.76 2.811 0 1 1 2.78-2.81 2.766 2.818 0 0 1-2.78 2.81" style="fill:#773adc;stroke:none;stroke-width:34;stroke-linecap:butt"/></g><g transform="translate(34.2 -45.13)"><title>Sheet.12958</title><path d="M3.46 116.09a4.95 5.042-180 1 0 4.98 5.04 4.96 5.052-180 0 0-4.98-5.04m2.73 5.59a2.776 2.828 0 1 1-3.28-3.31 2.75 2.801 0 0 1 3.28 3.31" style="fill:#341a6e;stroke:none;stroke-width:34;stroke-linecap:butt"/></g><g transform="translate(5.5)"><title>Sheet.12959</title><path d="m45.08 85.78-6.14-6.22a1.526 1.554-180 0 0-1.14-.45l-11.4.42a1.548 1.577-180 0 0-1.02.45L.45 105.24a1.506 1.534-180 0 0 0 2.18l16.62 16.84a1.529 1.557-180 0 0 2.15 0l24.95-25.3a1.519 1.547-180 0 0 .44-.96l.91-11a1.503 1.53-180 0 0-.44-1.22m-7.41 4.12a2.76 2.811 0 1 1 2.77-2.81 2.77 2.821 0 0 1-2.77 2.81" style="fill:url(#a);stroke:none;stroke-width:34;stroke-linecap:butt"/></g><g transform="translate(39.697 -34.047)"><title>Sheet.12960</title><path d="M3.47 116.09a4.95 5.042-180 1 0 4.97 5.05 4.963 5.056-180 0 0-4.97-5.05m2.72 5.6a2.776 2.828 0 1 1-3.27-3.31 2.757 2.808 0 0 1 3.27 3.31" style="fill:#552f99;stroke:none;stroke-width:34;stroke-linecap:butt"/></g><g transform="translate(35.706 -35.599)"><title>Sheet.12961</title><path d="M10.18 123.24a2.776 2.828 0 1 1-3.27-3.31 2.757 2.808 0 0 1 3.27 3.31m-5.5-11.09a2.776 2.828 0 1 1-3.27-3.31 2.75 2.801 0 0 1 3.27 3.31" style="fill:#fff;stroke:none;stroke-width:34;stroke-linecap:butt"/></g></g></g></svg>