<svg xmlns="http://www.w3.org/2000/svg" xml:space="preserve" width="75.587" height="52.943" style="font-size:12px;overflow:visible;color-interpolation-filters:sRGB;fill-rule:evenodd;stroke-linecap:square;stroke-miterlimit:3" viewBox="0 0 56.69 39.707"><defs><linearGradient id="a" x1="0" x2="47.445" y1="81.265" y2="81.265" gradientTransform="scale(1.19486 .83692)" gradientUnits="userSpaceOnUse"><stop offset="0" stop-color="#0078d4"/><stop offset=".815" stop-color="#5ea0ef"/></linearGradient><linearGradient id="b" x1=".211" x2="21.165" y1="88.874" y2="88.874" gradientTransform="scale(1.01967 .98071)" gradientUnits="userSpaceOnUse"><stop offset="0" stop-color="#50e6ff"/><stop offset="1" stop-color="#9cebff"/></linearGradient></defs><g transform="translate(-34 -33.997)"><title>Page-1</title><g transform="translate(34 -34.016)"><title>Test Base for Microsoft 365.12936</title><title>Sheet.12937</title><title>Sheet.12938</title><path d="M56.69 95.28a12.73 12.576-180 0 0-11.04-12.1 16.053 15.859-180 0 0-16.54-15.16 16.475 16.275-180 0 0-15.75 10.6A15.198 15.014-180 0 0 0 93.07a15.423 15.236-180 0 0 15.96 14.64q.72 0 1.41-.06h25.85a2.5 2.47-180 0 0 .68-.1 12.887 12.73-180 0 0 12.79-12.27" style="fill:url(#a);stroke:none;stroke-width:34;stroke-linecap:butt"/><g transform="translate(17.59 -8.67)"><title>Sheet.12939</title><path d="M20.8 107.71H1c-.63 0-1-1-.65-1.51l6.81-9.82a.767.758-180 0 0 .137-.439L7.3 89.44a.392.387-180 0 0-.392-.387l-.348-.003a.78.77 0 0 1-.783-.77l-.007-.34a.783.774 0 0 1 .783-.774l8.687-.006a.783.774 0 0 1 .783.774l-.003.356a.78.77 0 0 1-.783.77h-.367a.392.387-180 0 0-.392.387l.002 6.503a.793.784-180 0 0 .137.439l6.823 9.821c.36.5-.01 1.5-.64 1.5" style="fill:url(#b);stroke:none;stroke-width:34;stroke-linecap:butt"/></g><g transform="translate(21.244 -10.596)"><title>Sheet.12940</title><path d="m.03 107.05 4.91-7.08a1.808 1.786-180 0 0 .32-1v-2.85a.571.564 0 0 1 .558-.564l2.792-.006a.575.568 0 0 1 .571.564L9.18 99.16a1.188 1.174-180 0 0 .21.68l5.02 7.21a.428.422 0 0 1-.353.661L.38 107.71a.428.422 0 0 1-.353-.661z" style="fill:#fff;stroke:none;stroke-width:34;stroke-linecap:butt"/></g><g transform="translate(39.673 -21.176)"><title>Sheet.12941</title><title>Sheet.12942</title><path d="M4.45 106.25v1.46H.33a.326.322 0 0 1-.326-.322L0 105.93a.326.322 0 0 1 .326-.322l3.464.002a.653.645 0 0 1 .653.645z" style="fill:#e6e6e6;stroke:none;stroke-width:34;stroke-linecap:butt"/><title>Sheet.12943</title><path d="M4.45 106.25v1.46H.33a.326.322 0 0 1-.326-.322L0 105.93a.326.322 0 0 1 .326-.322l3.464.002a.653.645 0 0 1 .653.645z" style="fill:#e6e6e6;fill-opacity:.5;stroke:none;stroke-width:34;stroke-linecap:butt"/></g><g transform="translate(39.67 -4.089)"><title>Sheet.12944</title><title>Sheet.12945</title><path d="M4.45 105.61v1.45a.653.645 0 0 1-.653.645l-3.467.005a.326.322 0 0 1-.326-.322L0 105.93a.326.322 0 0 1 .326-.322z" style="fill:#e6e6e6;stroke:none;stroke-width:34;stroke-linecap:butt"/><title>Sheet.12946</title><path d="M4.45 105.61v1.45a.653.645 0 0 1-.653.645l-3.467.005a.326.322 0 0 1-.326-.322L0 105.93a.326.322 0 0 1 .326-.322z" style="fill:#e6e6e6;fill-opacity:.5;stroke:none;stroke-width:34;stroke-linecap:butt"/></g><g transform="translate(42.043 -4.089)"><title>Sheet.12947</title><path d="M1.43 107.71H0V88.52h1.43a.653.645 0 0 1 .653.645L2.08 107.07a.653.645 0 0 1-.653.642z" style="fill:#fff;stroke:none;stroke-width:34;stroke-linecap:butt"/></g><g transform="translate(12.577 -21.176)"><title>Sheet.12948</title><title>Sheet.12949</title><path d="M4.45 105.93v1.46a.326.322 0 0 1-.326.322L0 107.71v-1.46a.653.645 0 0 1 .653-.645l3.467.005a.326.322 0 0 1 .326.322z" style="fill:#e6e6e6;stroke:none;stroke-width:34;stroke-linecap:butt"/><title>Sheet.12950</title><path d="M4.45 105.93v1.46a.326.322 0 0 1-.326.322L0 107.71v-1.46a.653.645 0 0 1 .653-.645l3.467.005a.326.322 0 0 1 .326.322z" style="fill:#e6e6e6;fill-opacity:.5;stroke:none;stroke-width:34;stroke-linecap:butt"/></g><g transform="translate(12.577 -4.089)"><title>Sheet.12951</title><title>Sheet.12952</title><path d="M4.45 105.93v1.46a.326.322 0 0 1-.326.322L.65 107.71a.653.645 0 0 1-.653-.645L0 105.61h4.12a.326.322 0 0 1 .326.322z" style="fill:#e6e6e6;stroke:none;stroke-width:34;stroke-linecap:butt"/><title>Sheet.12953</title><path d="M4.45 105.93v1.46a.326.322 0 0 1-.326.322L.65 107.71a.653.645 0 0 1-.653-.645L0 105.61h4.12a.326.322 0 0 1 .326.322z" style="fill:#e6e6e6;fill-opacity:.5;stroke:none;stroke-width:34;stroke-linecap:butt"/></g><g transform="translate(12.57 -4.089)"><title>Sheet.12954</title><path d="M.65 88.52h1.42v19.19H.65a.653.645 0 0 1-.653-.645L0 89.16a.653.645 0 0 1 .653-.642z" style="fill:#fff;stroke:none;stroke-width:34;stroke-linecap:butt"/></g></g></g></svg>