<svg xmlns="http://www.w3.org/2000/svg" xml:space="preserve" width="75.587" height="68.026" style="font-size:12px;overflow:visible;color-interpolation-filters:sRGB;fill-rule:evenodd;stroke-linecap:square;stroke-miterlimit:3" viewBox="0 0 56.69 51.019"><g transform="translate(-12.24 -12.245)"><title>Page-1</title><g transform="translate(12.24 -34.016)"><title>Update Management.12919</title><title>g18</title><g transform="translate(9.449)"><title>path4</title><path d="M25.98 85.41H11.81c1.86 6.89-.68 8.31-11.81 8.31v3.56h37.8v-3.56c-11.13 0-13.67-1.42-11.82-8.31" style="fill:#a0a1a2;stroke:none;stroke-width:12.23999977;stroke-linecap:butt"/></g><g transform="translate(0 -10.68)"><title>path6</title><path d="M53.15 56.94H3.19C1.42 56.94 0 58.6 0 60.38v33.58c0 1.78 1.42 3.32 3.19 3.32h49.96c1.77 0 3.54-1.54 3.54-3.32V60.38c0-1.78-1.77-3.44-3.54-3.44" style="fill:#a0a1a2;stroke:none;stroke-width:12.23999977;stroke-linecap:butt"/></g><g transform="translate(4.724 -15.426)"><title>path8</title><path d="M0 66.428h47.244V97.28H0z" style="fill:#0072c6;stroke:none;stroke-width:12.23999977;stroke-linecap:butt"/></g><g transform="translate(0 -10.68)"><title>path10</title><path d="M43.7 56.94h9.45H3.19C1.42 56.94 0 58.6 0 60.38v33.58c0 1.78 1.42 3.32 3.19 3.32h5.08z" style="fill:#fff;fill-opacity:.2;stroke:none;stroke-width:12.23999977;stroke-linecap:butt"/></g><g transform="translate(9.449)"><title>path12</title><path d="M0 93.72h37.795v3.56H0z" style="fill:#fafdff;fill-opacity:.2;stroke:none;stroke-width:12.23999977;stroke-linecap:butt"/></g><g transform="translate(17.716 -19.375)"><title>path14</title><path d="M10.34 97.28c5.06 0 9.49-4.02 9.92-9.11H17.3c-.42 3.39-3.37 6.15-6.96 6.15-2.11 0-4.22-1.06-5.28-2.76l3.17-3.38H0v8.89l2.95-3.39c1.9 2.12 4.44 3.6 7.39 3.6m.59-18.81c2.11 0 4.22 1.05 5.28 2.75l-3.17 3.39h8.23v-8.9l-2.95 3.18c-1.69-2.12-4.43-3.39-7.39-3.39-5.27 0-9.49 4.03-9.91 9.11h2.95c.42-3.6 3.38-6.14 6.96-6.14" style="fill:#fff;stroke:none;stroke-width:12.23999977;stroke-linecap:butt"/></g><g transform="translate(22.44 -9.493)"><title>path16</title><path d="M0 96.093h11.811v1.187H0z" style="fill:#1e1e1e;fill-opacity:.15;stroke:none;stroke-width:12.23999977;stroke-linecap:butt"/></g></g></g></svg>