<svg xmlns="http://www.w3.org/2000/svg" xmlns:xlink="http://www.w3.org/1999/xlink" xml:space="preserve" width="75.586" height="75.586" style="font-size:12px;overflow:visible;color-interpolation-filters:sRGB;fill-rule:evenodd;stroke-linecap:square;stroke-miterlimit:3" viewBox="0 0 56.69 56.69"><defs><linearGradient id="b" x1="0" x2="56.69" y1="66.52" y2="66.52" gradientUnits="userSpaceOnUse"><stop offset=".22" stop-color="#0078d4"/><stop offset="1" stop-color="#005ba1"/></linearGradient><linearGradient id="c" x1="0" x2="28.908" y1="93.922" y2="93.922" gradientTransform="scale(.9969 1.0031)" gradientUnits="userSpaceOnUse"><stop offset=".19" stop-color="#005ba1"/><stop offset="1" stop-color="#003067"/></linearGradient><linearGradient id="a" x1="0" x2="1" y1="0" y2="0"><stop offset=".315" stop-color="#9cebff"/><stop offset="1" stop-color="#50e6ff"/></linearGradient><linearGradient id="e" x1="0" x2="21.102" y1="92.812" y2="92.812" gradientTransform="scale(.9244 1.08178)" gradientUnits="userSpaceOnUse"><stop offset=".355" stop-color="#50e6ff"/><stop offset="1" stop-color="#32bedd"/></linearGradient><linearGradient id="g" x1="-.042" x2="21.058" y1="92.823" y2="92.823" gradientTransform="scale(.92459 1.08156)" gradientUnits="userSpaceOnUse"><stop offset=".355" stop-color="#50e6ff"/><stop offset="1" stop-color="#32bedd"/></linearGradient><linearGradient xlink:href="#a" id="d" x1="-.021" x2="11.656" y1="207.838" y2="207.838" gradientTransform="scale(1.78112 .56144)" gradientUnits="userSpaceOnUse"/><linearGradient xlink:href="#a" id="f" x1="0" x2="11.684" y1="207.714" y2="207.714" gradientTransform="scale(1.78024 .56172)" gradientUnits="userSpaceOnUse"/></defs><g transform="translate(-32.502 -32.504)"><title>Page-1</title><g transform="translate(32.502 -34.016)"><title>Update Management Center.12928</title><title>g14</title><title>path2</title><path d="M56.69 96.83v-3.86a1.77 1.781-180 0 0-1.21-1.69l-6.39-2.14a.894.9 0 0 1-.545-.526L47.17 85.01a.898.903 0 0 1 .035-.72l2.915-5.9a1.77 1.781-180 0 0-.33-2.05l-2.86-2.87a1.767 1.778-180 0 0-2.04-.34l-5.86 2.94a.876.881 0 0 1-.712.032L34.73 74.71a.872.878 0 0 1-.51-.517l-2.44-6.523a1.773 1.784-180 0 0-1.66-1.15h-3.84a1.776 1.787-180 0 0-1.68 1.2l-2.13 6.16a.882.887 0 0 1-.466.517L18.4 76.07a.891.897 0 0 1-.765 0l-5.815-2.94a1.773 1.784-180 0 0-2.04.32l-2.87 2.88a1.78 1.79-180 0 0-.33 2.06l2.92 5.9a.898.903 0 0 1 .035.72L8.15 88.63a.888.894 0 0 1-.517.513L1.15 91.59A1.767 1.778-180 0 0 0 93.26v3.85a1.767 1.778-180 0 0 1.21 1.69l6.4 2.15a.888.894 0 0 1 .545.526l1.385 3.604a.898.903 0 0 1-.035.72l-2.925 5.87a1.776 1.787-180 0 0 .31 2.06l2.87 2.89a1.767 1.778-180 0 0 2.04.31l5.85-2.94a.872.878 0 0 1 .715-.035l3.605 1.395a.891.897 0 0 1 .507.51l2.413 6.22a1.77 1.781-180 0 0 1.65 1.13h3.87a1.773 1.784-180 0 0 1.68-1.22l2.13-6.43a.891.897 0 0 1 .523-.551l3.577-1.379a.876.881 0 0 1 .712.032l5.858 2.928a1.773 1.784-180 0 0 2.04-.33l2.83-2.85a1.77 1.781-180 0 0 .32-2.09l-2.88-5.53a.888.894 0 0 1-.041-.732l1.381-3.618a.891.897 0 0 1 .517-.517l6.473-2.433a1.77 1.781-180 0 0 1.16-1.66m-28.3 12.54a14.41 14.499 0 1 1 14.4-14.5 14.413 14.502 0 0 1-14.4 14.5" style="fill:url(#b);stroke:none;stroke-width:32.50189972;stroke-linecap:butt"/><g transform="translate(13.978 -13.84)"><title>circle4</title><ellipse cx="14.409" cy="108.712" rx="14.409" ry="14.499" style="fill:url(#c);stroke:none;stroke-width:32.50189972;stroke-linecap:butt"/></g><g transform="translate(19.473 -38.853)"><title>path6</title><path d="M20.76 122.13a16.236 16.337-180 0 0-.71-.36 14.68 14.771-180 0 0-12.33-.42 12.47 12.547-180 0 0-5.15 1.76 1.002 1.008 0 0 1-1.39-.41l-1.11-2.22a1.005 1.011 0 0 1 .38-1.32 15.118 15.212 0 0 1 14.97-.89 17.676 17.785 0 0 1 5.34 3.86" style="fill:url(#d);stroke:none;stroke-width:32.50189972;stroke-linecap:butt"/></g><g transform="translate(27.19 -19.072)"><title>path8</title><path d="m12.31 122.68-3.08-6.18a1.005 1.011 0 0 1 1.11-1.43l1.84.39a10.633 10.699-180 0 0-2.18-9.64 11.178 11.247-180 0 0-10-4.25 14.68 14.771 0 0 1 12.34.42c.24.11.47.23.7.36A15.89 15.988 0 0 1 17 114.31c-.03.69-.08 1.39-.17 2.12l.4.08 1.48.31a1.005 1.011 0 0 1 .43 1.77l-4.22 3.51-1.08.9a1.002 1.008 0 0 1-1.53-.32" style="fill:url(#e);stroke:none;stroke-width:32.50189972;stroke-linecap:butt"/></g><g transform="translate(16.123 -11.329)"><title>path10</title><path d="M0 117.8c.23.12.46.24.71.35a14.68 14.771-180 0 0 12.33.43 12.457 12.534-180 0 0 5.15-1.77 1.002 1.008 0 0 1 1.39.42l1.11 2.21a1.005 1.011 0 0 1-.38 1.33 15.118 15.212 0 0 1-14.97.89A17.713 17.823 0 0 1 0 117.8" style="fill:url(#f);stroke:none;stroke-width:32.50189972;stroke-linecap:butt"/></g><g transform="translate(9.693 -14.804)"><title>path12</title><path d="m7.16 100.95 3.07 6.17a1.005 1.011 0 0 1-1.1 1.43l-1.84-.39a10.633 10.699-180 0 0 2.18 9.64 11.178 11.247-180 0 0 10 4.25 14.68 14.771 0 0 1-12.33-.42 14.728 14.819 0 0 1-.71-.35 15.874 15.973 0 0 1-3.95-11.97c.02-.69.07-1.39.16-2.12l-.39-.08-1.48-.31a1.002 1.008 0 0 1-.44-1.77l4.22-3.51 1.08-.9a1.005 1.011 0 0 1 1.53.33" style="fill:url(#g);stroke:none;stroke-width:32.50189972;stroke-linecap:butt"/></g></g></g></svg>