<svg xmlns="http://www.w3.org/2000/svg" xml:space="preserve" width="75.587" height="64.25" style="font-size:12px;overflow:visible;color-interpolation-filters:sRGB;fill-rule:evenodd;stroke-linecap:square;stroke-miterlimit:3" viewBox="0 0 56.69 48.188"><g transform="translate(-12.24 -12.241)"><title>Page-1</title><g transform="translate(12.24 -34.016)"><title>Usage and Quota.12901</title><title>g36</title><title>path4</title><path d="M0 82.97h56.69v11.47H0Z" style="fill:#e5e5e5;stroke:none;stroke-width:12.23999977;stroke-linecap:butt"/><g transform="translate(2.268 -2.293)"><title>path6</title><path d="M0 87.63h52.16v6.81H0Z" style="fill:#57a300;stroke:none;stroke-width:12.23999977;stroke-linecap:butt"/></g><g transform="translate(22.677 -2.295)"><title>path8</title><path d="M0 87.56h31.75v6.88H0Z" style="fill:#fff;fill-opacity:.6;stroke:none;stroke-width:12.23999977;stroke-linecap:butt"/></g><g transform="translate(20.41)"><title>path10</title><path d="M0 82.973h4.535v11.472H0z" style="fill:#7a7a7a;stroke:none;stroke-width:12.23999977;stroke-linecap:butt"/></g><g transform="translate(20.41 -.001)"><title>path12</title><path d="M0 82.972h2.268v11.473H0z" style="fill:#fff;fill-opacity:.7;stroke:none;stroke-width:12.23999977;stroke-linecap:butt"/></g><g transform="translate(0 -18.356)"><title>path14</title><path d="M0 82.97h56.69v11.47H0Z" style="fill:#e5e5e5;stroke:none;stroke-width:12.23999977;stroke-linecap:butt"/></g><g transform="translate(2.268 -20.651)"><title>path16</title><path d="M0 87.63h52.16v6.81H0Z" style="fill:#57a300;stroke:none;stroke-width:12.23999977;stroke-linecap:butt"/></g><g transform="translate(40.819 -20.657)"><title>path18</title><path d="M0 87.558h13.606v6.887H0z" style="fill:#fff;fill-opacity:.6;stroke:none;stroke-width:12.23999977;stroke-linecap:butt"/></g><g transform="translate(38.551 -18.357)"><title>path20</title><path d="M0 82.973h4.535v11.472H0z" style="fill:#7a7a7a;stroke:none;stroke-width:12.23999977;stroke-linecap:butt"/></g><g transform="translate(38.551 -18.358)"><title>path22</title><path d="M0 82.972h2.268v11.473H0z" style="fill:#fff;fill-opacity:.7;stroke:none;stroke-width:12.23999977;stroke-linecap:butt"/></g><g transform="translate(0 -36.712)"><title>path24</title><path d="M0 82.97h56.69v11.47H0Z" style="fill:#e5e5e5;stroke:none;stroke-width:12.23999977;stroke-linecap:butt"/></g><g transform="translate(2.268 -39.008)"><title>path26</title><path d="M0 87.63h52.16v6.81H0Z" style="fill:#57a300;stroke:none;stroke-width:12.23999977;stroke-linecap:butt"/></g><g transform="translate(22.677 -39.007)"><title>path28</title><path d="M0 87.56h31.75v6.88H0Z" style="fill:#fff;fill-opacity:.6;stroke:none;stroke-width:12.23999977;stroke-linecap:butt"/></g><g transform="translate(20.41 -36.714)"><title>path30</title><path d="M0 82.973h4.535v11.472H0z" style="fill:#7a7a7a;stroke:none;stroke-width:12.23999977;stroke-linecap:butt"/></g><g transform="translate(20.41 -36.715)"><title>path32</title><path d="M0 82.972h2.268v11.473H0z" style="fill:#fff;fill-opacity:.7;stroke:none;stroke-width:12.23999977;stroke-linecap:butt"/></g><g transform="translate(24.945 -.001)"><title>path34</title><path d="M0 82.97h2.27v11.47H0Zm0-36.68h2.27v11.48H0Zm18.14 18.32h2.27v11.47h-2.27z" style="fill:#1e1e1e;fill-opacity:.2;stroke:none;stroke-width:12.23999977;stroke-linecap:butt"/></g></g></g></svg>