<svg xmlns="http://www.w3.org/2000/svg" xml:space="preserve" width="75.587" height="68.034" style="font-size:12px;overflow:visible;color-interpolation-filters:sRGB;fill-rule:evenodd;stroke-linecap:square;stroke-miterlimit:3" viewBox="0 0 56.69 51.026"><defs><linearGradient id="a" x1="0" x2="45.687" y1="102.021" y2="102.021" gradientTransform="scale(1.24083 .80591)" gradientUnits="userSpaceOnUse"><stop offset="0" stop-color="#0078d4"/><stop offset=".8" stop-color="#5ea0ef"/></linearGradient><linearGradient id="b" x1="0" x2="20.071" y1="148.07" y2="148.07" gradientTransform="scale(1.41247 .70798)" gradientUnits="userSpaceOnUse"><stop offset="0" stop-color="#ccc"/><stop offset="1" stop-color="#707070"/></linearGradient></defs><g transform="translate(-34 -33.999)"><title>Page-1</title><g transform="translate(34 -34.016)"><title>Virtual Machine Best Practices.12895</title><title>Sheet.12896</title><g transform="translate(0 -14.206)"><title>Sheet.12897</title><path d="M0 117.2a1.89 1.84-180 0 0 1.89 1.84H54.8a1.89 1.84-180 0 0 1.89-1.84V84.06a1.89 1.84-180 0 0-1.89-1.84H1.89A1.89 1.84-180 0 0 0 84.06Z" style="fill:url(#a);stroke:none;stroke-width:34;stroke-linecap:butt"/></g><g transform="translate(14.173)"><title>Sheet.12898</title><path d="M25.54 115.97c-5.6-.86-5.82-4.79-5.82-11.14H8.6c0 6.35-.19 10.28-5.8 11.14a3.15 3.068-180 0 0-2.8 3.07h28.35a3.15 3.068-180 0 0-2.81-3.07" style="fill:url(#b);stroke:none;stroke-width:34;stroke-linecap:butt"/></g><g transform="translate(13.121 -19.397)"><title>Sheet.12899</title><path d="M18.72 92a.874.85-180 1 0-.425 1.65A12.935 12.601 0 1 1 4.16 99.28l.35.24 2.46 1.67a.151.147-180 0 0 .157-.172L6.55 94.5a.151.147-180 0 0-.173-.12L.11 96.36a.151.147-180 0 0-.107.206L2.59 98.22l.14.1a14.636 14.258-180 1 0 16-6.32z" style="fill:#fff;fill-opacity:.8;stroke:none;stroke-width:34;stroke-linecap:butt"/></g><g transform="translate(18.45 -23.511)"><title>Sheet.12900</title><path d="m16.77 107.22-1.05-1.78.57-3.24-2.67-1.5-2.6 2.1h-2.1l-2.6-2.1-2.67 1.5.58 3.26-1.06 1.76L0 108.36v3.01l3.17 1.14 1.05 1.77-.57 3.26 2.67 1.5 2.6-2.1h2.1l2.6 2.1 2.67-1.5-.57-3.25 1.05-1.77 3.17-1.14v-3.01zm-6.8 7.2a4.665 4.544 0 1 1 4.65-4.55 4.665 4.544 0 0 1-4.65 4.55" style="fill:#fff;stroke:none;stroke-width:34;stroke-linecap:butt"/></g></g></g></svg>