<svg xmlns="http://www.w3.org/2000/svg" xml:space="preserve" width="71.814" height="75.597" style="font-size:12px;overflow:visible;color-interpolation-filters:sRGB;fill-rule:evenodd;stroke-linecap:square;stroke-miterlimit:3" viewBox="0 0 53.86 56.698"><defs><linearGradient id="a" x1="0" x2="40.357" y1="38.955" y2="38.955" gradientTransform="scale(.8229 1.21522)" gradientUnits="userSpaceOnUse"><stop offset="0" stop-color="#b3b2b3"/><stop offset=".375" stop-color="#afaeaf"/><stop offset=".765" stop-color="#a2a2a2"/><stop offset="1" stop-color="#979797"/></linearGradient><linearGradient id="b" x1="0" x2="26.29" y1="92.782" y2="92.782" gradientTransform="scale(1.23544 .80943)" gradientUnits="userSpaceOnUse"><stop offset="0" stop-color="#5ea0ef"/><stop offset="1" stop-color="#0078d4"/></linearGradient><linearGradient id="c" x1="0" x2="11.18" y1="145.891" y2="145.891" gradientTransform="scale(1.62971 .6136)" gradientUnits="userSpaceOnUse"><stop offset="0" stop-color="#3b3b3b"/><stop offset=".39" stop-color="#373737"/><stop offset=".79" stop-color="#2a2a2a"/><stop offset=".995" stop-color="#212121"/></linearGradient></defs><g transform="translate(-5.386 -5.666)"><title>Page-1</title><g transform="translate(5.386 -34.016)"><title>Windows Admin Center.12875</title><title>Page-1</title><title>WAC</title><title>Sheet.12878</title><g transform="translate(0 -7.657)"><title>Sheet.12879</title><title>Sheet.12880</title><path d="M33.21 94.71a1.836 1.76 0 0 1-1.91 1.67H1.91A1.836 1.76 0 0 1 0 94.71V49a1.836 1.76 0 0 1 1.91-1.66H31.3A1.836 1.76 0 0 1 33.21 49Z" style="fill:url(#a);stroke:none;stroke-width:.74999899;stroke-linecap:butt"/></g><g transform="translate(4.883 -31.916)"><title>Sheet.12881</title><title>Sheet.12882</title><path d="M0 92.56a3.806 3.647 0 0 1 3.61-3.8h16.53a3.806 3.647 0 0 1 3.62 3.8 3.81 3.65 0 0 1-3.61 3.82H3.61A3.81 3.65 0 0 1 0 92.56" style="fill:#003067;stroke:none;stroke-width:.74999899;stroke-linecap:butt"/></g><g transform="translate(4.883 -43.243)"><title>Sheet.12883</title><title>Sheet.12884</title><path d="M0 92.56a3.806 3.647 0 0 1 3.61-3.81h16.53a3.806 3.647 0 0 1 3.62 3.81 3.81 3.65 0 0 1-3.61 3.82H3.61A3.81 3.65 0 0 1 0 92.56" style="fill:#003067;stroke:none;stroke-width:.74999899;stroke-linecap:butt"/></g><g transform="translate(6.86 -44.495)"><title>Sheet.12885</title><title>Sheet.12886</title><ellipse cx="2.67" cy="93.819" rx="2.67" ry="2.559" style="fill:#50e6ff;stroke:none;stroke-width:.74999899;stroke-linecap:butt"/></g><g transform="translate(6.86 -33.168)"><title>Sheet.12887</title><title>Sheet.12888</title><ellipse cx="2.67" cy="93.819" rx="2.67" ry="2.559" style="fill:#50e6ff;stroke:none;stroke-width:.74999899;stroke-linecap:butt"/></g><g transform="translate(21.32)"><title>Sheet.12889</title><title>Sheet.12890</title><path d="M0 96.38V77.11a2.1 2.013 0 0 1 2.09-2.01h28.29a2.1 2.013 0 0 1 2.1 2.01v19.27z" style="fill:url(#b);stroke:none;stroke-width:.74999899;stroke-linecap:butt"/></g><g transform="translate(28.482 -21.283)"><title>Sheet.12891</title><title>Sheet.12892</title><path d="M18.22 96.38h-2.45v-3.39a1.146 1.099-180 0 0-1.16-1.11H3.62a1.143 1.095-180 0 0-1.16 1.11l.01 3.39H0v-3.39a3.58 3.43 0 0 1 3.62-3.47H14.6a3.58 3.43 0 0 1 3.62 3.47z" style="fill:url(#c);stroke:none;stroke-width:.74999899;stroke-linecap:butt"/></g><g transform="translate(21.32 -9.35)"><title>Sheet.12893</title><title>Sheet.12894</title><path d="M32.54 91.88H0v1.5h12.94v2.09a.944.904-180 0 0 .94.901l5.18.009a.944.904-180 0 0 .94-.901V93.38h12.54z" style="fill:#fff;stroke:none;stroke-width:.74999899;stroke-linecap:butt"/></g></g></g></svg>