<svg xmlns="http://www.w3.org/2000/svg" xml:space="preserve" width="75.591" height="75.591" style="font-size:12px;overflow:visible;color-interpolation-filters:sRGB;fill-rule:evenodd;stroke-linecap:square;stroke-miterlimit:3" viewBox="0 0 56.693 56.693"><defs><linearGradient id="a" x1="0" x2="55.165" y1="67.766" y2="67.766" gradientTransform="scale(1.0001 .9999)" gradientUnits="userSpaceOnUse"><stop offset="0" stop-color="#33c2e1"/><stop offset="1" stop-color="#6fd8ef"/></linearGradient></defs><g transform="translate(-32.21 -32.21)"><title>Page-1</title><g transform="translate(32.21 -34.016)"><title>Workflow Automation.12858</title><title>Sheet.12859</title><g transform="translate(29.115)"><title>Sheet.12860</title><circle cx="13.789" cy="109.13" r="13.789" style="fill:#308ce2;stroke:none;stroke-width:32.21049881;stroke-linecap:butt"/></g><g transform="translate(39.827 -7.644)"><title>Sheet.12861</title><path d="m9.09 116.62-8.62-5.98H.15c0 .15-.15.15-.15.31v11.65c0 .16 0 .16.15.32h.32l8.62-5.82a.29.29-180 0 0 0-.476z" style="fill:#fff;stroke:none;stroke-width:32.21049881;stroke-linecap:butt"/></g><g transform="translate(0 -1.534)"><title>Sheet.12862</title><path d="M26.49 110.66a16.2 16.2 0 0 1 1.16-5.95h-.07a9.38 9.38 0 1 1 9.38-9.38v.07a16.1 16.1 0 0 1 17.12 3.31l1.09-.4v-6.3l-.89-.31-6.72-2.21-1.77-4.3 3.42-7.28-4.41-4.41-.88.44-6.3 3.2-4.3-1.76-2.77-7.62h-6.3l-.31.88-2.21 6.73-4.3 1.77-7.17-3.42-4.41 4.41.44.88 3.2 6.3-1.76 4.3L0 92.36v6.3l.88.33 6.73 2.21 1.77 4.3-3.42 7.27 4.41 4.41.88-.44 6.3-3.2 4.3 1.77 2.76 7.61h6.3l.3-.8a16.35 16.35 0 0 1-4.72-11.46" style="fill:url(#a);stroke:none;stroke-width:32.21049881;stroke-linecap:butt"/></g></g></g></svg>