<svg xmlns="http://www.w3.org/2000/svg" xml:space="preserve" width="71.805" height="75.588" style="font-size:12px;overflow:visible;color-interpolation-filters:sRGB;fill-rule:evenodd;stroke-linecap:square;stroke-miterlimit:3" viewBox="0 0 53.854 56.691"><g transform="translate(-12.24 -12.243)"><title>Page-1</title><g transform="translate(12.24 -34.016)"><title>Workbook.12863</title><title>g24</title><g transform="translate(5.984 -1.181)"><title>path4</title><path d="M8.38 47.44C4.79 47.44 0 50.98 0 50.98h2.39v49.61h41.89v2.36l3.59-3.54V47.44Z" style="fill:#fcd116;stroke:none;stroke-width:12.23999977;stroke-linecap:butt"/></g><g transform="translate(5.984 -1.181)"><title>path6</title><path d="M8.38 47.44C4.79 47.44 0 50.98 0 50.98h2.39v49.61h41.89v2.36l3.59-3.54V47.44Z" style="fill:#68217a;fill-opacity:.4;stroke:none;stroke-width:12.23999977;stroke-linecap:butt"/></g><g transform="translate(8.378 -2.362)"><title>path8</title><path d="M7.18 49.8C5.39 49.8 0 52.16 0 52.16h1.2v50.79h40.69l2.39-2.36V49.8Z" style="fill:#fff;fill-opacity:.75;stroke:none;stroke-width:12.23999977;stroke-linecap:butt"/></g><g transform="translate(9.575 -53.15)"><title>path10</title><path d="M5.98 100.59c-2.39 0-5.98 2.36-5.98 2.36h40.69l2.4-2.36z" style="fill:#fff;fill-opacity:.8;stroke:none;stroke-width:12.23999977;stroke-linecap:butt"/></g><g transform="translate(4.787)"><title>path12</title><path d="M0 102.95v-3.54h2.39l1.2-1.19v-1.18l-1.2-1.18H0v-3.54h2.39l1.2-1.18v-1.18l-1.2-1.18H0v-3.55h2.39l1.2-1.18v-1.18l-1.2-1.18H0v-3.54h2.39l1.2-1.19v-1.18l-1.2-1.18H0v-3.54h2.39l1.2-1.18V68.7l-1.2-1.18H0v-3.55h2.39l1.2-1.18v-1.18l-1.2-1.18H0v-3.54h2.39l1.2-1.19v-1.18l-1.2-1.18H0V49.8h45.48v53.15z" style="fill:#fcd116;stroke:none;stroke-width:12.23999977;stroke-linecap:butt"/></g><g transform="translate(4.787)"><title>path14</title><path d="M0 102.95v-3.54h2.39l1.2-1.19v-1.18l-1.2-1.18H0v-3.54h2.39l1.2-1.18v-1.18l-1.2-1.18H0v-3.55h2.39l1.2-1.18v-1.18l-1.2-1.18H0v-3.54h2.39l1.2-1.19v-1.18l-1.2-1.18H0v-3.54h2.39l1.2-1.18V68.7l-1.2-1.18H0v-3.55h2.39l1.2-1.18v-1.18l-1.2-1.18H0v-3.54h2.39l1.2-1.19v-1.18l-1.2-1.18H0V49.8h45.48v53.15z" style="fill:#68217a;fill-opacity:.4;stroke:none;stroke-width:12.23999977;stroke-linecap:butt"/></g><g transform="translate(4.787)"><title>path16</title><path d="M0 102.95v-3.54h2.39l1.2-1.19v-1.18l-1.2-1.18H0v-3.54h2.39l1.2-1.18v-1.18l-1.2-1.18H0v-3.55h2.39l1.2-1.18v-1.18l-1.2-1.18H0v-3.54h2.39l1.2-1.19v-1.18l-1.2-1.18H0v-3.54h2.39l1.2-1.18V68.7l-1.2-1.18H0v-3.55h2.39l1.2-1.18v-1.18l-1.2-1.18H0v-3.54h2.39l1.2-1.19v-1.18l-1.2-1.18H0V49.8h37.1L8.38 102.95Z" style="fill:#fff;fill-opacity:.09800002;stroke:none;stroke-width:12.23999977;stroke-linecap:butt"/></g><g transform="translate(20.346 -30.709)"><title>path18</title><path d="M0 95.862h19.15v7.087H0z" style="fill:#fff;stroke:none;stroke-width:12.23999977;stroke-linecap:butt"/></g><g transform="translate(0 -4.724)"><title>path20</title><path d="M0 59.25h5.98v1.18H0Zm0 7.08h5.98v1.19H0Zm0 7.09h5.98v1.18H0Zm0 7.09h5.98v1.18H0Zm0 7.08h5.98v1.19H0Zm0 7.09h5.98v1.18H0Zm0 7.09h5.98v1.18H0Z" style="fill:#000;stroke:none;stroke-width:12.23999977;stroke-linecap:butt"/></g><g transform="translate(0 -5.906)"><title>path22</title><path d="M1.8 56.89h2.99v1.18H1.8ZM.6 58.07h1.2v1.18H.6ZM0 59.25h1.2v1.18H0Zm1.8 4.72h2.99v1.18H1.8ZM.6 65.15h1.2v1.18H.6ZM0 66.33h1.2v1.19H0Zm1.8 4.73h2.99v1.18H1.8ZM.6 72.24h1.2v1.18H.6ZM0 73.42h1.2v1.18H0Zm1.8 4.73h2.99v1.18H1.8ZM.6 79.33h1.2v1.18H.6ZM0 80.51h1.2v1.18H0Zm1.8 4.72h2.99v1.18H1.8ZM.6 86.41h1.2v1.18H.6ZM0 87.59h1.2v1.19H0Zm1.8 4.73h2.99v1.18H1.8ZM.6 93.5h1.2v1.18H.6ZM0 94.68h1.2v1.18H0Zm1.8 4.73h2.99v1.18H1.8Zm-1.2 1.18h1.2v1.18H.6Zm-.6 1.18h1.2v1.18H0Z" style="fill:#000;fill-opacity:.5;stroke:none;stroke-width:12.23999977;stroke-linecap:butt"/></g></g></g></svg>