<svg xmlns="http://www.w3.org/2000/svg" width="18" height="18" viewBox="0 0 18 18"><defs><linearGradient id="a" x1="8.94" x2="8.91" y1="18.11" y2="13.59" gradientUnits="userSpaceOnUse"><stop offset="0" stop-color="#32bedd"/><stop offset=".36" stop-color="#34c1e0"/><stop offset=".63" stop-color="#3ccbe8"/><stop offset=".88" stop-color="#48dbf6"/><stop offset="1" stop-color="#50e6ff"/></linearGradient></defs><title>Icon-Blockchain-363</title><path fill="#773adc" d="M15.43 3.76v7.48L9 15V7.51z"/><path fill="#b796f9" d="M15.43 3.76 9 7.52 2.57 3.76 9 0z"/><path fill="#a67af4" d="M9 7.52V15l-6.43-3.76V3.76z"/><path fill="#fff" d="M11.89 9 9.06 6.12a.15.15 0 0 0-.21 0L6 9a.14.14 0 0 0 .11.24h1.67a.15.15 0 0 1 .15.15V12a.15.15 0 0 0 .14.15h1.76A.15.15 0 0 0 10 12V9.35a.15.15 0 0 1 .14-.15h1.67a.14.14 0 0 0 .08-.2"/><rect width="7.02" height="6.19" x="5.41" y="11.81" fill="url(#a)" rx=".37"/><path fill="#fff" d="m8.1 16.3-1.41-1.41 1.38-1.38a.1.1 0 0 0 0-.14l-.22-.22a.12.12 0 0 0-.14 0l-1.6 1.6a.22.22 0 0 0 0 .22.2.2 0 0 0 0 .07l1.62 1.62a.1.1 0 0 0 .14 0l.22-.22a.1.1 0 0 0 .01-.14m3.9-1.55-1.59-1.6a.12.12 0 0 0-.14 0l-.22.22a.1.1 0 0 0 0 .14l1.37 1.38L10 16.3a.1.1 0 0 0 0 .14l.22.22a.1.1 0 0 0 .14 0L12 15a.2.2 0 0 0 0-.25"/></svg>