<svg xmlns="http://www.w3.org/2000/svg" width="18" height="18" viewBox="0 0 18 18"><defs><linearGradient id="a" x1="-603.563" x2="-606.6" y1="-218.378" y2="-206.22" gradientTransform="matrix(1 0 0 -1 617.126 -205.758)" gradientUnits="userSpaceOnUse"><stop offset="0" stop-color="#712575"/><stop offset=".09" stop-color="#9a2884"/><stop offset=".18" stop-color="#bf2c92"/><stop offset=".27" stop-color="#da2e9c"/><stop offset=".34" stop-color="#eb30a2"/><stop offset=".4" stop-color="#f131a5"/><stop offset=".5" stop-color="#ec30a3"/><stop offset=".61" stop-color="#df2f9e"/><stop offset=".72" stop-color="#c92d96"/><stop offset=".83" stop-color="#aa2a8a"/><stop offset=".95" stop-color="#83267c"/><stop offset="1" stop-color="#712575"/></linearGradient><linearGradient id="b" x1="-602.412" x2="-602.412" y1="-206.025" y2="-223.175" gradientTransform="matrix(1 0 0 -1 617.126 -205.758)" gradientUnits="userSpaceOnUse"><stop offset="0" stop-color="#da7ed0"/><stop offset=".08" stop-color="#b17bd5"/><stop offset=".19" stop-color="#8778db"/><stop offset=".3" stop-color="#6276e1"/><stop offset=".41" stop-color="#4574e5"/><stop offset=".54" stop-color="#2e72e8"/><stop offset=".67" stop-color="#1d71eb"/><stop offset=".81" stop-color="#1471ec"/><stop offset="1" stop-color="#1171ed"/></linearGradient><linearGradient id="c" x1="-603.438" x2="-614.807" y1="-206.414" y2="-224.644" gradientTransform="matrix(1 0 0 -1 617.126 -205.758)" gradientUnits="userSpaceOnUse"><stop offset="0" stop-color="#da7ed0"/><stop offset=".05" stop-color="#b77bd4"/><stop offset=".11" stop-color="#9079da"/><stop offset=".18" stop-color="#6e77df"/><stop offset=".25" stop-color="#5175e3"/><stop offset=".33" stop-color="#3973e7"/><stop offset=".42" stop-color="#2772e9"/><stop offset=".54" stop-color="#1a71eb"/><stop offset=".68" stop-color="#1371ec"/><stop offset="1" stop-color="#1171ed"/></linearGradient></defs><path fill="url(#a)" fill-rule="evenodd" d="M12.061.012c.534 0 1.008.401 1.178.984s1.166 4.19 1.166 4.19v7.166h-3.607L10.871 0h1.19z"/><path fill="url(#b)" d="M17.356 5.611a.45.45 0 0 0-.449-.449h-2.126a2.71 2.71 0 0 0-2.709 2.709v4.494h2.575a2.71 2.71 0 0 0 2.709-2.709z"/><path fill="url(#c)" fill-rule="evenodd" d="M12.061.012a.736.736 0 0 0-.741.741l-.073 13.64A3.607 3.607 0 0 1 7.64 18H1.093a.447.447 0 0 1-.425-.595L5.915 2.429A3.61 3.61 0 0 1 9.316.012h2.757z"/></svg>