<svg xmlns="http://www.w3.org/2000/svg" xml:space="preserve" width="56.85" height="57.007" style="font-size:12px;overflow:visible;color-interpolation-filters:sRGB;fill-rule:evenodd;stroke-linecap:square;stroke-miterlimit:3" viewBox="0 0 56.85 57.007"><g transform="translate(-12 -11.998)"><title>Page-1</title><g transform="translate(12.079 -34.016)"><title>Azure OpenAI.20092</title><title>Sheet.20093</title><title>Sheet.20094</title><path d="M53.04 69.34a14.372 14.215-180 0 0-1.24-11.66 14.52 14.36-180 0 0-15.63-6.89 14.565 14.406-180 0 0-24.68 5.16 14.372 14.215-180 0 0-9.6 6.89 14.52 14.36-180 0 0 1.78 16.85A14.36 14.204-180 0 0 4.9 91.36a14.531 14.372-180 0 0 15.65 6.88 14.372 14.215-180 0 0 10.82 4.78 14.543 14.383-180 0 0 13.86-9.99 14.384 14.226-180 0 0 9.6-6.89 14.543 14.383-180 0 0-1.79-16.8M31.37 99.29a10.748 10.63 0 0 1-6.9-2.47l.34-.19 11.47-6.56a1.909 1.888-180 0 0 .94-1.61v-16l4.86 2.77a.17.169 0 0 1 .09.124V88.61a10.816 10.698 0 0 1-10.8 10.68m-23.2-9.8a10.737 10.619 0 0 1-1.28-7.16l.34.2 11.49 6.56a1.852 1.832-180 0 0 1.87 0l14.03-8v5.54a.193.191 0 0 1-.08.146L22.92 93.4a10.805 10.686 0 0 1-14.75-3.91M5.15 64.77a10.77 10.653 0 0 1 5.68-4.69v13.49a1.84 1.82-180 0 0 .93 1.6l13.97 7.97-4.86 2.78a.182.18 0 0 1-.17 0L9.1 79.3a10.816 10.698 0 0 1-3.95-14.59Zm39.86 9.16L31 65.88l4.84-2.76a.182.18 0 0 1 .17 0l11.6 6.63A10.793 10.675 0 0 1 45.98 89V75.51a1.897 1.877-180 0 0-.97-1.58m4.83-7.18-.35-.21-11.46-6.6a1.863 1.843-180 0 0-1.89 0l-14.02 8V62.4a.16.157 0 0 1 .068-.146L33.79 55.63A10.805 10.686 0 0 1 49.84 66.7Zm-30.36 9.82-4.85-2.77a.193.191 0 0 1-.09-.135V60.44a10.805 10.686 0 0 1 17.71-8.2l-.34.19-11.48 6.55a1.909 1.888-180 0 0-.94 1.62zm2.63-5.62 6.25-3.56 6.26 3.56v7.12l-6.24 3.57-6.26-3.57z" style="fill:#000;stroke:none;stroke-width:12;stroke-linecap:butt"/></g></g></svg>