<svg xmlns="http://www.w3.org/2000/svg" xml:space="preserve" width="56.696" height="45.36" style="font-size:12px;overflow:visible;color-interpolation-filters:sRGB;fill-rule:evenodd;stroke-linecap:square;stroke-miterlimit:3" viewBox="0 0 56.696 45.36"><defs><linearGradient id="a" x1="-.004" x2="36.53" y1="70.117" y2="70.117" gradientTransform="scale(1.27102 .78677)" gradientUnits="userSpaceOnUse"><stop offset="0" stop-color="#d2ebff"/><stop offset="1" stop-color="#f0fffd"/></linearGradient><linearGradient id="b" x1="-.006" x2="29.78" y1="38.558" y2="38.558" gradientTransform="scale(.81448 1.22778)" gradientUnits="userSpaceOnUse"><stop offset="0" stop-color="#0078d4"/><stop offset=".17" stop-color="#1c84dc"/><stop offset=".38" stop-color="#3990e4"/><stop offset=".59" stop-color="#4d99ea"/><stop offset=".8" stop-color="#5a9eee"/><stop offset="1" stop-color="#5ea0ef"/></linearGradient><linearGradient id="c" x1="-.001" x2="24.059" y1="44.61" y2="44.61" gradientTransform="scale(.81839 1.22191)" gradientUnits="userSpaceOnUse"><stop offset="0" stop-color="#d2ebff"/><stop offset="1" stop-color="#f0fffd"/></linearGradient></defs><g transform="translate(-5.67 -4.534)"><title>Page-1</title><g transform="translate(5.67 -34.016)"><title>Azure Percept Device.20084</title><g transform="translate(0 -11.58)"><title>rect25</title><path d="M0 82.2a1.89 1.707-180 0 0 1.89 1.71h48.76a1.89 1.707-180 0 0 1.89-1.71V51.84a1.89 1.707-180 0 0-1.89-1.71H1.89A1.89 1.707-180 0 0 0 51.84Z" style="fill:#0078d4;stroke:none;stroke-width:.75;stroke-linecap:butt"/></g><g transform="translate(3.055 -14.255)"><title>rect27</title><path d="M0 83.05a.945.854-180 0 0 .945.854l44.535.006a.945.854-180 0 0 .945-.854l.005-27.036a.945.854-180 0 0-.945-.854L.94 55.17a.945.854-180 0 0-.945.854z" style="fill:url(#a);stroke:none;stroke-width:.75;stroke-linecap:butt"/></g><g transform="translate(32.44)"><title>rect29</title><path d="M0 83.05a.945.854-180 0 0 .945.854l22.365.006a.945.854-180 0 0 .945-.854L24.25 48.2a.945.854-180 0 0-.945-.854L.94 47.34a.945.854-180 0 0-.945.854z" style="fill:url(#b);stroke:none;stroke-width:.75;stroke-linecap:butt"/></g><g transform="translate(41.795 -34.656)"><title>rect31</title><path d="M0 83.59a.346.313-180 0 0 .346.313l4.884.007a.346.313-180 0 0 .346-.313l-.006-.057a.346.313-180 0 0-.346-.313L.35 83.22a.346.313-180 0 0-.346.313z" style="fill:#f2f2f2;stroke:none;stroke-width:.75;stroke-linecap:butt"/></g><g transform="translate(34.74 -4.097)"><title>rect33</title><path d="M0 83.51a.441.398-180 0 0 .44.398l18.8.002a.441.398-180 0 0 .44-.398l.01-28.602a.441.398-180 0 0-.44-.398L.44 54.51a.441.398-180 0 0-.44.398z" style="fill:url(#c);stroke:none;stroke-width:.75;stroke-linecap:butt"/></g><g transform="translate(23.56 -43.619)"><title>rect35</title><path d="M0 83.59a.346.313-180 0 0 .346.313l4.884.007a.346.313-180 0 0 .346-.313l-.006-.057a.346.313-180 0 0-.346-.313L.35 83.22a.346.313-180 0 0-.346.313z" style="fill:#f2f2f2;stroke:none;stroke-width:.75;stroke-linecap:butt"/></g><g transform="translate(43.213 -.797)"><title>rect37</title><path d="M0 83.34a.63.57-180 0 0 .63.57h1.45a.63.57-180 0 0 .63-.57v-.94a.63.57-180 0 0-.63-.57H.63a.63.57-180 0 0-.63.57Z" style="fill:#f2f2f2;stroke:none;stroke-width:.75;stroke-linecap:butt"/></g></g></g></svg>