<svg xmlns="http://www.w3.org/2000/svg" xml:space="preserve" width="58.305" height="54.703" style="font-size:12px;overflow:visible;color-interpolation-filters:sRGB;fill-rule:evenodd;stroke-linecap:square;stroke-miterlimit:3" viewBox="0 0 58.305 54.703"><defs><linearGradient id="a" x1="0" x2="51.492" y1="69.306" y2="69.306" gradientTransform="scale(.99619 1.00383)" gradientUnits="userSpaceOnUse"><stop offset="0" stop-color="#5ea0ef"/><stop offset=".815" stop-color="#0078d4"/></linearGradient></defs><g transform="translate(-32.544 -32.541)"><title>Page-1</title><g transform="translate(34.153 -34.016)"><title>Azure Percept Studio.20067</title><title>layer1</title><g transform="translate(3.902 -1.508)"><title>circle2</title><ellipse cx="25.648" cy="95.415" rx="25.648" ry="25.844" style="fill:url(#a);stroke:none;stroke-width:32.54059982;stroke-linecap:butt"/></g><g transform="translate(10.356)"><title>path4-9</title><path d="M19.19 121.26a27.352 27.144 90 1 1 27.15-27.35 27.381 27.173 90 0 1-27.15 27.35m0-51.69a24.337 24.152-90 1 0 24.15 24.34 24.36 24.174-90 0 0-24.15-24.34" style="fill:#e6e6e6;stroke:none;stroke-width:32.54059982;stroke-linecap:butt"/></g><g transform="translate(0 -3.11)"><title>path6</title><path d="M46.78 99.37a7.801 7.742-90 0 0-6.72-7.51 9.834 9.76-90 0 0-10.04-9.4 10.088 10.012-90 0 0-9.59 6.58 9.305 9.235-90 0 0-8.1 8.96 9.462 9.39-90 0 0 9.72 9.08c.29 0 .57 0 .85-.04h15.72a1.472 1.46-90 0 0 .41-.06 7.89 7.83-90 0 0 7.75-7.61M9.4 97.02a5.547 5.504 90 1 1-5.51-5.55 5.547 5.504 90 0 1 5.51 5.55m35.38-26.51a5.547 5.504-90 1 0 5.5 5.55 5.547 5.504-90 0 0-5.5-5.55m0 41.28a5.547 5.504-90 1 0 5.5 5.55 5.547 5.504-90 0 0-5.5-5.55" style="fill:#50e6ff;stroke:none;stroke-width:32.54059982;stroke-linecap:butt"/></g></g></g></svg>