<svg xmlns="http://www.w3.org/2000/svg" xml:space="preserve" width="56.693" height="45.431" style="font-size:12px;overflow:visible;color-interpolation-filters:sRGB;fill-rule:evenodd;stroke-linecap:square;stroke-miterlimit:3" viewBox="0 0 56.693 45.431"><defs><linearGradient id="a" x1="0" x2="43.09" y1="49.292" y2="49.292" gradientTransform="scale(1.10002 .90907)" gradientUnits="userSpaceOnUse"><stop offset="0" stop-color="#5ea0ef"/><stop offset="1" stop-color="#0078d4"/></linearGradient></defs><g transform="translate(-5.67 -4.535)"><title>Page-1</title><g transform="translate(5.67 -34.016)"><title>Azure Percept Speech.20072</title><title>a6a92309-3633-4dc9-b48f-6bfbef8</title><title>Sheet.20074</title><path d="M47.4 47.16v28.47a2.746 2.349 0 0 1-2.75 2.35H30.9a.457.39-180 0 0-.457.39l-.003 4.83a.917.784 0 0 1-1.47.622l-8.8-5.762a.44.377-180 0 0-.277-.08H2.75A2.76 2.36 0 0 1 0 75.63V47.16a2.75 2.352 0 0 1 2.75-2.35h41.89a2.756 2.357 0 0 1 2.76 2.35" style="fill:url(#a);stroke:none;stroke-width:.75;stroke-linecap:butt"/><g transform="translate(10.56 -14.137)"><title>Sheet.20075</title><g transform="translate(0 -5.05)"><title>Sheet.20076</title><path d="M1.03 83.91a1.024.875 0 0 1-1.027-.875L0 76.01a1.027.878 0 0 1 2.054 0l-.004 7.02a1.024.875 0 0 1-1.027.875z" style="fill:#fff;fill-opacity:.8;stroke:none;stroke-width:.75;stroke-linecap:butt"/></g><g transform="translate(4.844 -1.425)"><title>Sheet.20077</title><path d="M1.03 83.91a1.027.878 0 0 1-1.027-.878L0 69.48a1.027.878 0 1 1 2.054 0L2.05 83.03a1.027.878 0 0 1-1.027.878z" style="fill:#fff;fill-opacity:.8;stroke:none;stroke-width:.75;stroke-linecap:butt"/></g><g transform="translate(14.532)"><title>Sheet.20078</title><path d="M1.03 83.91a1.027.878 0 0 1-1.027-.878L0 66.5a1.027.878 0 0 1 2.054 0L2.05 83.03a1.027.878 0 0 1-1.027.878z" style="fill:#fff;fill-opacity:.6;stroke:none;stroke-width:.75;stroke-linecap:butt"/></g><g transform="translate(19.38 -2.788)"><title>Sheet.20079</title><path d="M1.03 83.91a1.024.875 0 0 1-1.027-.875L0 72.14a1.027.878 0 1 1 2.05 0v10.9a1.02.873 0 0 1-1.024.862z" style="fill:#fff;fill-opacity:.4;stroke:none;stroke-width:.75;stroke-linecap:butt"/></g><g transform="translate(9.688 -4.143)"><title>Sheet.20080</title><path d="M1.03 83.91a1.027.878 0 0 1-1.027-.878L0 73.5a1.027.878 0 0 1 2.054 0l-.004 9.53a1.027.878 0 0 1-1.027.878z" style="fill:#fff;fill-opacity:.6;stroke:none;stroke-width:.75;stroke-linecap:butt"/></g><g transform="translate(24.224 -.956)"><title>Sheet.20081</title><path d="M1.03 83.91a1.024.875 0 0 1-1.027-.875L0 68.69a1.027.878 0 1 1 2.05 0v14.34a1.02.873 0 0 1-1.024.878z" style="fill:#fff;fill-opacity:.4;stroke:none;stroke-width:.75;stroke-linecap:butt"/></g></g><g transform="translate(27.124 -20.066)"><title>Sheet.20082</title><ellipse cx="14.784" cy="71.261" rx="14.784" ry="12.644" style="fill:#50e6ff;stroke:none;stroke-width:.75;stroke-linecap:butt"/></g><g transform="translate(34.252 -26.181)"><title>Sheet.20083</title><path d="M15.2 77.66a10.428 8.919 0 0 1-.21 1.78 11.118 9.509 0 0 1-.6 1.7 9.9 8.466 0 0 1-.98 1.56 11.745 10.045 0 0 1-1 1.08.463.396 0 0 1-.67 0l-.09-.08a.47.401 0 0 1 0-.558 9.175 7.847-180 0 0 .88-.952 9.354 8-180 0 0 1.42-2.94 9.59 8.202-180 0 0 0-3.21 9.043 7.734-180 0 0-.54-1.52 9.764 8.35-180 0 0-.88-1.41 9.005 7.701-180 0 0-.88-.97.476.407 0 0 1 0-.56l.09-.08a.466.399 0 0 1 .67 0 10.57 9.04 0 0 1 1 1.08 10.192 8.717 0 0 1 .97 1.56 11.402 9.751 0 0 1 .61 1.7 9.685 8.283 0 0 1 .21 1.82m-3.51-2.44a7.56 6.465-180 0 0-1.28-1.76.46.393-180 0 0-.674 0l-.096.08a.463.396-180 0 0-.028.539 6.375 5.452 0 0 1-.002 7.191.46.393-180 0 0 .028.539l.092.081a.466.399-180 0 0 .674 0 7.56 6.465-180 0 0 1.286-1.77 7.487 6.403-180 0 0 0-4.87zM8 75.98a3.216 2.75 0 0 1 .43.63 3.216 2.75 0 0 1 0 2.1 3.077 2.632 0 0 1-.43.63.463.396-180 0 0 .044.52l.096.07a.472.404-180 0 0 .7-.024 3.984 3.408-180 0 0 .58-.846 4.258 3.642-180 0 0 .31-1.39 4.375 3.742-180 0 0-.31-1.39 4.145 3.545-180 0 0-.58-.85.47.401-180 0 0-.7-.035l-.09.075a.46.393-180 0 0-.05.51m-5.94-1.05H.94a.945.808-180 0 0-.945.808L0 79.59a.945.808-180 0 0 .945.808l1.115.002a.945.808 0 0 1 .661.234L5.51 83.01a.47.401-180 0 0 .33.119.554.474-180 0 0 .555-.477L6.39 72.68a.564.482-180 0 0-.56-.482.46.393-180 0 0-.331.118L2.72 74.7a.945.808 0 0 1-.661.232z" style="fill:#fff;stroke:none;stroke-width:.75;stroke-linecap:butt"/></g></g></g></svg>