<svg xmlns="http://www.w3.org/2000/svg" xml:space="preserve" width="56.697" height="56.697" style="font-size:12px;overflow:visible;color-interpolation-filters:sRGB;fill-rule:evenodd;stroke-linecap:square;stroke-miterlimit:3" viewBox="0 0 56.697 56.697"><defs><linearGradient id="a" x1="0" x2="43.546" y1="52.831" y2="52.831" gradientUnits="userSpaceOnUse"><stop offset="0" stop-color="#5ea0ef"/><stop offset="1" stop-color="#0078d4"/></linearGradient></defs><g transform="translate(-5.67 -5.667)"><title>Page-1</title><g transform="translate(5.67 -34.016)"><title>Azure Percept Vision.20058</title><title>aecfdb5d-21ee-4a1d-bdd3-f59c1b4</title><g transform="translate(3.077 -3.15)"><title>Sheet.20060</title><circle cx="25.197" cy="71.181" r="25.197" style="fill:#0078d4;stroke:none;stroke-width:.75;stroke-linecap:butt"/></g><g transform="translate(25.197)"><title>Sheet.20061</title><path d="M3.15 96.38a3.15 3.15 0 1 1 0-6.3A22.07 22.07-180 0 0 25.2 68.03a3.15 3.15 0 0 1 6.3 0A28.38 28.38 0 0 1 3.15 96.38" style="fill:#50e6ff;stroke:none;stroke-width:.75;stroke-linecap:butt"/></g><g transform="translate(0 -25.197)"><title>Sheet.20062</title><path d="M3.15 96.38A3.15 3.15 0 0 1 0 93.23a28.38 28.38 0 0 1 28.35-28.35 3.15 3.15 0 1 1 0 6.3A22.07 22.07-180 0 0 6.3 93.23a3.15 3.15 0 0 1-3.15 3.15" style="fill:#50e6ff;stroke:none;stroke-width:.75;stroke-linecap:butt"/></g><g transform="translate(6.5 -6.091)"><title>Sheet.20063</title><circle cx="21.773" cy="74.605" r="21.773" style="fill:url(#a);stroke:none;stroke-width:.75;stroke-linecap:butt"/></g><g transform="translate(10.498 -10.45)"><title>Sheet.20064</title><circle cx="17.776" cy="78.602" r="17.776" style="fill:#5ea0ef;stroke:none;stroke-width:.75;stroke-linecap:butt"/></g><g transform="translate(18.558 -18.438)"><title>Sheet.20065</title><circle cx="9.789" cy="86.589" r="9.789" style="fill:#005ba1;stroke:none;stroke-width:.75;stroke-linecap:butt"/></g><g transform="translate(29.13 -22.778)"><title>Sheet.20066</title><circle cx="2.567" cy="93.811" r="2.567" style="fill:#fff;stroke:none;stroke-width:.75;stroke-linecap:butt"/></g></g></g></svg>