<svg xmlns="http://www.w3.org/2000/svg" xml:space="preserve" width="39.681" height="56.654" style="font-size:12px;overflow:visible;color-interpolation-filters:sRGB;fill-rule:evenodd;stroke-linecap:square;stroke-miterlimit:3" viewBox="0 0 39.681 56.654"><g transform="translate(-12.24 -12.24)"><title>Page-1</title><g transform="translate(12.24 -34.016)"><title>Batch AI.20051</title><title>Sheet.20052</title><g transform="translate(13.195)"><title>Sheet.20053</title><path d="M0 93.81h13.24v3.41H0Zm3.31 9.1h5.52l4.02-3.41H.15Z" style="fill:#7a7a7a;stroke:none;stroke-width:12.23999977;stroke-linecap:butt"/></g><g transform="translate(.11 -11.486)"><title>Sheet.20054</title><path d="M13.28 102.91a.453.466 0 0 1-.462-.446C12.63 96.35 9.34 92.43 6.16 88.64 2.99 84.86 0 81.29 0 75.8c0-11.46 7.18-18.04 19.71-18.04 12.52 0 19.7 6.58 19.7 18.04 0 5.49-2.99 9.06-6.15 12.84-3.18 3.79-6.47 7.72-6.66 13.82a.453.466 0 0 1-.462.446z" style="fill:#fff;stroke:none;stroke-width:12.23999977;stroke-linecap:butt"/></g><g transform="translate(0 -11.372)"><title>Sheet.20055</title><path d="M18.71 58.77c0-.65-.53-1.18-1.16-1.14C6.18 58.4 0 65.03 0 75.68c0 11.18 12.44 14.65 12.81 26.67a.566.583-180 0 0 .574.556l4.226.004a1.104 1.137-180 0 0 1.1-1.14z" style="fill:#59b4d9;stroke:none;stroke-width:12.23999977;stroke-linecap:butt"/></g><g transform="translate(20.971 -11.372)"><title>Sheet.20056</title><path d="M0 58.77c0-.65.54-1.18 1.17-1.14 11.36.77 17.54 7.4 17.54 18.05 0 11.18-12.44 14.65-12.81 26.67a.566.583 0 0 1-.574.556l-4.226.004a1.104 1.137 0 0 1-1.1-1.14Z" style="fill:#3999c6;stroke:none;stroke-width:12.23999977;stroke-linecap:butt"/></g><g transform="translate(3.184 -17.613)"><title>Sheet.20057</title><path d="m23.36 81.6-.99-2.03-5.74 2.95-5.73-2.95-.99 2.03 6.04 3.11h1.37zm-.22 18.31-.99-2.03-5.52 2.84-5.51-2.84-.99 2.03 5.82 3h1.37zm-12.21-26.7-.7-2.16-4.79 1.65-3.75-3.87c-.54.53-1.03 1.1-1.48 1.7l3.67 3.78-1.6 4.93 2.1.72 1.64-5.06zm21.64-3.32a14.603 15.045-180 0 0-1.58-1.59l-4.27 4.4-4.79-1.65-.7 2.16 4.92 1.69 1.63 5.06 2.1-.72-1.6-4.93zm.7 21.16-5.09-2.01-.43-5.05-2.2.2.46 5.32-3.86 3.56 1.48 1.7 3.85-3.57 4.37 1.72a37.87 39.017-180 0 0 1.42-1.87m-22.16 2.02-3.85-3.56.46-5.32-2.2-.2-.43 5.05L0 91.05c.45.64.92 1.26 1.42 1.87l4.36-1.72 3.86 3.57z" style="fill:#fff;stroke:none;stroke-width:12.23999977;stroke-linecap:butt"/></g></g></g></svg>