<svg xmlns="http://www.w3.org/2000/svg" xml:space="preserve" width="56.698" height="53.855" style="font-size:12px;overflow:visible;color-interpolation-filters:sRGB;fill-rule:evenodd;stroke-linecap:square;stroke-miterlimit:3" viewBox="0 0 56.698 53.855"><g transform="translate(-5.666 -5.389)"><title>Page-1</title><g transform="translate(5.67 -34.016)"><title>Bonsai.20040</title><title> bonsai-logomark</title><title>Sheet.20042</title><g transform="translate(8.085 -32.842)"><title>Sheet.20043</title><path d="M3.74 81.98a.316.31-180 0 0 .313-.31l-.003-1.84a.316.31 0 0 1 .313-.31l7.517.01a.316.31-180 0 0 .313-.31l-.003-.32a.316.31-180 0 0-.313-.31H8.42a.316.31 0 0 1-.313-.306l.003-.914a.316.31 0 0 1 .313-.31h5.147a.316.31 0 0 1 .313.31l-.003 3.39a.316.31 0 0 1-.313.31H10.12a.316.31-180 0 0-.313.31L9.8 84.13a.316.31-180 0 0 .313.31h4.797a.316.31 0 0 1 .313.31l-.003.93a.316.31 0 0 1-.313.31H7.09a.316.31 0 0 1-.313-.31l.003-.92a.316.31 0 0 1 .313-.31h.697a.316.31-180 0 0 .313-.31l.007-2.75a.316.31-180 0 0-.313-.31H6.06a.316.31-180 0 0-.313.31l.003 1.82a.316.31 0 0 1-.313.306L.31 83.52a.316.31 0 0 1-.313-.306L0 82.28a.316.31 0 0 1 .313-.31zm20.22 2.06a.316.31-180 0 0 .313.31h7.177a.316.31-180 0 0 .313-.31l-.003-.32a.316.31-180 0 0-.313-.31H29.38a.313.306 0 0 1-.313-.306l.003-.924a.316.31 0 0 1 .313-.31h3.757a.316.31 0 0 1 .313.31l-.003 3.4a.316.31 0 0 1-.313.31H29.71a.316.31-180 0 0-.313.31l.003.29a.316.31-180 0 0 .313.31h6.117a.316.31 0 0 1 .313.31l.007 4.33a.316.31-180 0 0 .313.31h2.757a.316.31 0 0 1 .313.306l-.003.894a.316.31 0 0 1-.313.31H34.8a.316.31 0 0 1-.313-.31l.003-4.31a.316.31-180 0 0-.313-.31H28.02a.316.31 0 0 1-.313-.31l.003-1.82a.316.31-180 0 0-.313-.31H27a.316.31-180 0 0-.313.31l.003 1.82a.316.31 0 0 1-.313.31H25.32a.316.31 0 0 1-.313-.31l.003-1.82a.316.31-180 0 0-.313-.31H22.63a.316.31 0 0 1-.313-.31l.003-1.85a.316.31-180 0 0-.313-.31h-.397a.316.31-180 0 0-.313.31l.003 1.85a.316.31 0 0 1-.313.31H17.89a.316.31 0 0 1-.313-.31l.003-.93a.316.31 0 0 1 .313-.31l1.407.01a.316.31-180 0 0 .313-.31l-.003-1.86a.316.31 0 0 1 .313-.31h3.707a.316.31 0 0 1 .313.31zm-4.11 6.93a.316.31-180 0 0-.313.31l.003.62a.313.306 0 0 1-.313.306l-3.797.004a.313.306 0 0 1-.313-.306l.003-.924a.316.31 0 0 1 .313-.31h2.107a.316.31-180 0 0 .313-.31l-.003-.62a.316.31 0 0 1 .313-.306l3.097-.004a.316.31 0 0 1 .313.306l-.003.924a.316.31 0 0 1-.313.31z" style="fill:#52a646;stroke:none;stroke-width:3.77778006;stroke-linecap:butt"/></g><g transform="translate(12.304 -30.206)"><title>Sheet.20044</title><path d="M2.01 73.52a.316.31-180 0 0-.313.31l.003 1.86a.316.31 0 0 1-.313.31L.31 75.99a.316.31 0 0 1-.313-.31L0 72.31a.316.31 0 0 1 .313-.3H6.13a.316.31 0 0 1 .313.31l.007.9a.316.31 0 0 1-.313.31zm14.52-1.75a.316.31-180 0 0 .313.31h2.107a.316.31 0 0 1 .313.31l-.003.9a.316.31 0 0 1-.313.306l-3.767.004a.316.31 0 0 1-.313-.306l-.007-1.834a.316.31-180 0 0-.313-.31H10.1a.316.31-180 0 0-.313.31l-.007.32a.316.31-180 0 0 .313.313l2.067-.003a.316.31 0 0 1 .313.31l.007 1.82a.316.31-180 0 0 .313.306l6.797.004a.316.31 0 0 1 .313.31l-.003 3.39a.316.31 0 0 1-.313.31H18.53a.316.31 0 0 1-.313-.31l.003-1.85a.316.31-180 0 0-.313-.31H11.09a.316.31 0 0 1-.313-.31l.003-1.86a.316.31-180 0 0-.313-.31H8.4a.313.306 0 0 1-.313-.306l.003-3.364a.316.31 0 0 1 .313-.31h7.807a.316.31 0 0 1 .313.31zm14.05 6.96a.316.31-180 0 0-.313-.31l-7.177.01a.316.31-180 0 0-.313.31l-.007 1.83a.316.31 0 0 1-.313.31H21.41a.316.31 0 0 1-.313-.31l-.007-3.38a.316.31 0 0 1 .313-.31l3.457.01a.313.306-180 0 0 .313-.306l-.003-.324a.313.306-180 0 0-.313-.306L22.1 75.95a.316.31 0 0 1-.313-.31l.003-.91a.313.306 0 0 1 .313-.306l4.427-.004a.313.306 0 0 1 .313.306l-.003 1.854a.316.31-180 0 0 .313.306l4.787.004a.316.31 0 0 1 .313.31l-.003 2.13a.316.31 0 0 1-.313.306l-1.047.004a.316.31 0 0 1-.313-.306zm2.69 3.73a.316.31-180 0 0-.313-.31H30.9a.316.31 0 0 1-.313-.31l-.007-.92a.316.31 0 0 1 .313-.31h3.757a.316.31 0 0 1 .313.31l.007 4.6a.316.31 0 0 1-.313.306l-1.057.004a.316.31 0 0 1-.313-.306zm7.25 8.63a.316.31-180 0 0-.313-.31H38.09a.316.31 0 0 1-.313-.31l.003-1.82a.316.31-180 0 0-.313-.31H33.36a.316.31 0 0 1-.313-.306l-.007-.924a.316.31 0 0 1 .313-.31h5.827a.316.31 0 0 1 .313.31l.007 1.85a.316.31-180 0 0 .313.31h2.057a.316.31 0 0 1 .313.306l-.003 3.374a.316.31 0 0 1-.313.31H40.82a.316.31 0 0 1-.313-.31z" style="fill:#52a646;stroke:none;stroke-width:3.77778006;stroke-linecap:butt"/></g><g transform="translate(20.39 -20.112)"><title>Sheet.20045</title><path d="M29.06 83.73a.316.31-180 0 0-.313.31l.003 1.22a.316.31 0 0 1-.313.31H27.38a.316.31 0 0 1-.313-.31l.003-2.75a.316.31 0 0 1 .313-.31h3.787a.316.31 0 0 1 .313.31l-.003.93a.316.31 0 0 1-.313.31zM6.73 68.28a.316.31-180 0 0-.313.31l.003 1.83a.313.306 0 0 1-.313.306L.31 70.72a.316.31 0 0 1-.313-.306L0 69.49a.316.31 0 0 1 .313-.31H4.43a.316.31-180 0 0 .313-.31l.007-.29a.316.31-180 0 0-.313-.31H3.7a.316.31 0 0 1-.313-.31l.003-.92a.316.31 0 0 1 .313-.31H7.46a.316.31 0 0 1 .313.31l-.003.93a.316.31 0 0 1-.313.31zm15.7 17.4a.316.31-180 0 0-.313.31l.003 1.85a.316.31 0 0 1-.313.31H20.75a.316.31 0 0 1-.313-.31l.003-3.37a.316.31 0 0 1 .313-.31h3.427a.316.31-180 0 0 .313-.306l-.003-.314a.316.31-180 0 0-.313-.306l-5.467-.004a.316.31 0 0 1-.313-.31l.003-4.3a.316.31-180 0 0-.313-.31h-.377a.316.31-180 0 0-.313.31l.003 5.24a.316.31 0 0 1-.313.306l-3.797-.006a.316.31 0 0 1-.313-.306l.003-4.004a.316.31-180 0 0-.302-.303l-2.068.003a.316.31 0 0 1-.313-.306l.003-3.094a.313.306-180 0 0-.313-.306L3.13 75.84a.316.31 0 0 1-.313-.31l-.007-.92a.316.31 0 0 1 .313-.31h8.497a.316.31 0 0 1 .313.31l-.003 3.09a.316.31-180 0 0 .313.31h2.117a.316.31 0 0 1 .313.31l-.003 3.84a.316.31-180 0 0 .313.306l.397-.006a.313.306-180 0 0 .313-.306l.007-5.074a.316.31 0 0 1 .313-.306l5.117-.004a.313.306 0 0 1 .313.306L21.44 78a.316.31 0 0 1-.313.31h-.717a.316.31-180 0 0-.313.31l.003 2.75a.316.31-180 0 0 .313.31h5.477a.313.306 0 0 1 .313.306L26.2 85.36a.316.31 0 0 1-.313.31zm5.85 3.26a.316.31-180 0 0-.313.31l.003 3.7a.316.31 0 0 1-.313.31H26.6a.316.31 0 0 1-.313-.31l.003-3.69a.316.31-180 0 0-.313-.31H23.87a.316.31 0 0 1-.313-.31l-.007-.93a.316.31 0 0 1 .313-.31h6.147a.313.306-180 0 0 .313-.306l.007-1.834a.316.31 0 0 1 .313-.31h1.047a.316.31 0 0 1 .313.31l.007 3.38a.316.31 0 0 1-.313.31z" style="fill:#52a646;stroke:none;stroke-width:3.77778006;stroke-linecap:butt"/></g><g transform="translate(2.812 -14.625)"><title>Sheet.20046</title><path d="M48.78 85.89a.316.31-180 0 0-.313.31l.003.28a.316.31-180 0 0 .313.31h4.787a.316.31 0 0 1 .313.306L53.88 90.5a.316.31 0 0 1-.313.31H50.47a.316.31 0 0 1-.313-.31l.003-.92a.316.31 0 0 1 .313-.31h1.407a.316.31-180 0 0 .313-.306l-.003-.324a.316.31-180 0 0-.313-.31H48.79a.316.31-180 0 0-.313.31l-.007 1.86a.316.31 0 0 1-.313.31H46.05a.313.306-180 0 0-.313.306l.003.314a.316.31-180 0 0 .313.31H52.2a.316.31 0 0 1 .313.31l-.003.9a.316.31 0 0 1-.313.31H44.39a.316.31 0 0 1-.313-.31l.003-1.83a.316.31-180 0 0-.313-.306l-2.107-.004a.316.31 0 0 1-.313-.31l-.007-1.85a.316.31-180 0 0-.313-.31H37.22a.316.31 0 0 1-.313-.31l.003-3.38a.313.306 0 0 1 .313-.306l4.147.006a.316.31 0 0 1 .313.306l.007.924a.316.31 0 0 1-.313.31H38.94a.316.31-180 0 0-.313.31l-.007.28a.316.31-180 0 0 .313.31h3.797a.316.31 0 0 1 .313.306l.007 1.864c0 .17.14.3.31.3h3.09a.316.31-180 0 0 .313-.306l.007-4.304a.313.306 0 0 1 .313-.306l3.447.006a.316.31-180 0 0 .313-.31l.007-1.86a.316.31 0 0 1 .313-.31h1.047a.316.31 0 0 1 .313.31l.007 3.4a.316.31 0 0 1-.313.31zM1.98 67.94a.316.31-180 0 0-.313.31l.003.29a.316.31-180 0 0 .313.31H5.43a.316.31 0 0 1 .313.31l.007 1.85a.316.31-180 0 0 .313.31H9.15a.316.31-180 0 0 .313-.31l.007-4.3a.316.31 0 0 1 .31-.31h1.05a.313.306 0 0 1 .313.306l-.003 1.834a.316.31-180 0 0 .313.31h4.817a.316.31 0 0 1 .313.31l-.003 3.4a.316.31 0 0 1-.313.31H13.84a.316.31 0 0 1-.313-.31l.003-.93a.316.31 0 0 1 .313-.31h.727a.316.31-180 0 0 .313-.31l-.003-.32a.316.31-180 0 0-.313-.31H11.48a.316.31-180 0 0-.313.31l-.007 1.86a.316.31 0 0 1-.313.31H6.06a.316.31-180 0 0-.313.31l.003 1.23a.316.31 0 0 1-.313.31H4.38a.316.31 0 0 1-.313-.31l.003-3.7a.316.31-180 0 0-.313-.31H.31a.316.31 0 0 1-.313-.31L0 66.71a.316.31 0 0 1 .313-.306l7.817.006a.313.306 0 0 1 .313.306l-.003.924a.316.31 0 0 1-.313.31zm17.29 6.72a.316.31-180 0 0 .313.31h2.067a.316.31 0 0 1 .313.31l-.003.92a.316.31 0 0 1-.313.31H17.89a.316.31 0 0 1-.313-.31l.003-7.08a.316.31 0 0 1 .313-.31h1.047a.316.31 0 0 1 .313.31z" style="fill:#52a646;stroke:none;stroke-width:3.77778006;stroke-linecap:butt"/></g><g transform="translate(2.812 -31.443)"><title>Sheet.20047</title><path d="M1.99 89.57a.316.31-180 0 0-.313.31l.003 3.07a.316.31 0 0 1-.313.31H.31a.316.31 0 0 1-.313-.31L0 88.34a.316.31 0 0 1 .313-.306l2.397-.004a.316.31 0 0 1 .313.306l-.003.924a.316.31 0 0 1-.313.31z" style="fill:#52a646;stroke:none;stroke-width:3.77778006;stroke-linecap:butt"/></g><g transform="translate(0 -24.107)"><title>Sheet.20048</title><path d="M1.69 86.48a.316.31-180 0 0 .313.31H5.11a.316.31-180 0 0 .313-.31l.007-.62a.316.31 0 0 1 .313-.31h4.767a.313.306-180 0 0 .313-.306l.007-1.834a.316.31 0 0 1 .313-.31h7.847a.316.31 0 0 1 .313.31l-.003 3.07a.316.31-180 0 0 .313.31h2.107a.316.31 0 0 1 .313.31l-.003.93a.316.31 0 0 1-.313.31H17.92a.316.31 0 0 1-.313-.31l.003-.63a.316.31-180 0 0-.313-.31H15.23a.316.31 0 0 1-.313-.306l.003-.924a.316.31 0 0 1 .313-.31h2.057a.316.31-180 0 0 .313-.306l.007-.314a.316.31-180 0 0-.313-.306l-4.447-.004a.316.31-180 0 0-.313.306l.003 4.304a.316.31 0 0 1-.313.31H10.15a.313.306-180 0 0-.313.306L9.83 91.71a.316.31 0 0 1-.313.31H4.7a.316.31-180 0 0-.313.31l.003.62a.316.31 0 0 1-.313.31H3.02a.316.31 0 0 1-.313-.31l.003-3.4a.316.31 0 0 1 .313-.31H4.07a.316.31 0 0 1 .313.31l.007.62a.316.31-180 0 0 .313.306l3.117.004a.316.31-180 0 0 .313-.306L8.13 88.34a.316.31 0 0 1 .313-.31h2.067a.316.31-180 0 0 .313-.31l.007-.32a.316.31-180 0 0-.313-.31H7.42a.316.31-180 0 0-.313.31l.003.62a.316.31 0 0 1-.313.31H.31a.316.31 0 0 1-.313-.31L0 83.41a.316.31 0 0 1 .313-.31H1.37a.316.31 0 0 1 .313.31zm30.31-2v1.23a.316.31 0 0 1-.313.306l-4.657.004a.313.306 0 0 1-.313-.306l.003-1.234Z" style="fill:#52a646"/><path d="M1.69 86.48a.316.31-180 0 0 .313.31H5.11a.316.31-180 0 0 .313-.31l.007-.62a.316.31 0 0 1 .313-.31h4.767a.313.306-180 0 0 .313-.306l.007-1.834a.316.31 0 0 1 .313-.31h7.847a.316.31 0 0 1 .313.31l-.003 3.07a.316.31-180 0 0 .313.31h2.107a.316.31 0 0 1 .313.31l-.003.93a.316.31 0 0 1-.313.31H17.92a.316.31 0 0 1-.313-.31l.003-.63a.316.31-180 0 0-.313-.31H15.23a.316.31 0 0 1-.313-.306l.003-.924a.316.31 0 0 1 .313-.31h2.057a.316.31-180 0 0 .313-.306l.007-.314a.316.31-180 0 0-.313-.306l-4.447-.004a.316.31-180 0 0-.313.306l.003 4.304a.316.31 0 0 1-.313.31H10.15a.313.306-180 0 0-.313.306L9.83 91.71a.316.31 0 0 1-.313.31H4.7a.316.31-180 0 0-.313.31l.003.62a.316.31 0 0 1-.313.31H3.02a.316.31 0 0 1-.313-.31l.003-3.4a.316.31 0 0 1 .313-.31H4.07a.316.31 0 0 1 .313.31l.007.62a.316.31-180 0 0 .313.306l3.117.004a.316.31-180 0 0 .313-.306L8.13 88.34a.316.31 0 0 1 .313-.31h2.067a.316.31-180 0 0 .313-.31l.007-.32a.316.31-180 0 0-.313-.31H7.42a.316.31-180 0 0-.313.31l.003.62a.316.31 0 0 1-.313.31H.31a.316.31 0 0 1-.313-.31L0 83.41a.316.31 0 0 1 .313-.31H1.37a.316.31 0 0 1 .313.31zm30.31-2v1.23a.316.31 0 0 1-.313.306l-4.657.004a.313.306 0 0 1-.313-.306l.003-1.234" style="stroke:none;stroke-width:3.77778006;stroke-linecap:butt"/></g><g transform="translate(15.826 -4.734)"><title>Sheet.20049</title><path d="M28.84 81.97c0-.13-3.25-.51-5.3-1.14a18.952 18.534 0 0 1-3.3-1.31c-.5-.26-.17-.79.02-.99.71-.73 2.44-1.96 2.33-2.12-.1-.15-2.02 1.29-3.45 2.15a.97.949 0 0 1-.802.1c-3.678-1.11-8.378-2.43-8.378-4.35s2.96-2.3 7.17-2.23c1.41.02 4.09-.8 5.13-1.27.07-.03.05-.15-.03-.12-1.51.46-3.77 1.01-5.59.79-3.14-.38-3.71-.61-4.75-.32-.16.04-.26-.12-.18-.27.46-.87 1.43-1.76 3.56-2.54.06-.02 0-.1-.05-.09-1.9.31-3.94.83-4.9 1.8a.123.12 0 0 1-.2-.083C9.98 68.6 8.14 67.96 7.6 67.86c-.05 0-.11.04-.06.07.75.45 2.18 1.8 1.33 3.09-2.21 3.39-6.33 4.05-7.09 7.02-.65 2.55 5.77 6.59 5.77 8.96 0 3.57-7.39 5.71-7.39 5.71a.295.289-180 0 0 .123.55H23.53a.373.364-180 0 0 .376-.492C22.14 86.66 9.84 82.59 7.3 80.36c-.63-.56-1.14-1.17-.78-1.93 1.2-2.56 13.1 2.46 17.87 3.29 1.02.17 4.44.37 4.44.24z" style="fill:#473a4b"/><path d="M28.84 81.97c0-.13-3.25-.51-5.3-1.14a18.952 18.534 0 0 1-3.3-1.31c-.5-.26-.17-.79.02-.99.71-.73 2.44-1.96 2.33-2.12-.1-.15-2.02 1.29-3.45 2.15a.97.949 0 0 1-.802.1c-3.678-1.11-8.378-2.43-8.378-4.35s2.96-2.3 7.17-2.23c1.41.02 4.09-.8 5.13-1.27.07-.03.05-.15-.03-.12-1.51.46-3.77 1.01-5.59.79-3.14-.38-3.71-.61-4.75-.32-.16.04-.26-.12-.18-.27.46-.87 1.43-1.76 3.56-2.54.06-.02 0-.1-.05-.09-1.9.31-3.94.83-4.9 1.8a.123.12 0 0 1-.2-.083C9.98 68.6 8.14 67.96 7.6 67.86c-.05 0-.11.04-.06.07.75.45 2.18 1.8 1.33 3.09-2.21 3.39-6.33 4.05-7.09 7.02-.65 2.55 5.77 6.59 5.77 8.96 0 3.57-7.39 5.71-7.39 5.71a.295.289-180 0 0 .123.55H23.53a.373.364-180 0 0 .376-.492C22.14 86.66 9.84 82.59 7.3 80.36c-.63-.56-1.14-1.17-.78-1.93 1.2-2.56 13.1 2.46 17.87 3.29 1.02.17 4.44.37 4.44.24" style="stroke:none;stroke-width:3.77778006;stroke-linecap:butt"/></g><g transform="translate(11.952)"><title>Sheet.20050</title><path d="M7.41 69.57c-1.05-1.07-3.42-3.06-4.17-3.68a.05.049-180 1 0-.077.062c.587.988 1.297 2.288 1.647 2.838a.158.155 0 0 1-.144.237C3.66 68.97 1.38 68.9.06 68.86a.06.058-180 0 0 0 .117 29.62 28.968 0 0 1 6.12 1.713.327.32-180 0 0 .323-.038q.414-.302.877-.602a.32.313-180 0 0 .053-.471zm20.72 23.69c1.63 0 2.98-1.4 3.17-3.2a.422.413-180 0 0-.418-.46H1.12a.422.413-180 0 0-.415.457C.91 91.85 2.25 93.26 3.87 93.26Z" style="fill:#473a4b"/><path d="M7.41 69.57c-1.05-1.07-3.42-3.06-4.17-3.68a.05.049-180 1 0-.077.062c.587.988 1.297 2.288 1.647 2.838a.158.155 0 0 1-.144.237C3.66 68.97 1.38 68.9.06 68.86a.06.058-180 0 0 0 .117 29.62 28.968 0 0 1 6.12 1.713.327.32-180 0 0 .323-.038q.414-.302.877-.602a.32.313-180 0 0 .053-.471M28.13 93.26c1.63 0 2.98-1.4 3.17-3.2a.422.413-180 0 0-.418-.46H1.12a.422.413-180 0 0-.415.457C.91 91.85 2.25 93.26 3.87 93.26z" style="stroke:none;stroke-width:3.77778006;stroke-linecap:butt"/></g></g></g></svg>