<svg xmlns="http://www.w3.org/2000/svg" xml:space="preserve" width="62.059" height="61.948" style="font-size:12px;overflow:visible;color-interpolation-filters:sRGB;fill-rule:evenodd;stroke-linecap:square;stroke-miterlimit:3" viewBox="0 0 62.059 61.948"><defs><radialGradient id="a" cx="-9.081" cy="75.548" r="86.805" fx="-9.081" fy="75.548" gradientTransform="scale(1.0009 .9991)" gradientUnits="userSpaceOnUse"><stop offset=".67" stop-color="#6bb9f2"/><stop offset=".74" stop-color="#61b4f1"/><stop offset=".85" stop-color="#47a8ef"/><stop offset=".99" stop-color="#1d94eb"/><stop offset="1" stop-color="#1b93eb"/></radialGradient></defs><g transform="translate(-33.202 -33.205)"><title>Page-1</title><g transform="translate(38.57 -38.459)"><title>Bot Service.20033</title><g transform="translate(3.722 -3.817)"><title>f6a29e1b-194b-4d8d-8529-49edea7</title><path d="M21.94 75.48a31.03 30.974-180 1 0 31.03 30.97 31.03 30.974-180 0 0-31.03-30.97" style="fill:url(#a);stroke:none;stroke-width:33.20330048;stroke-linecap:butt"/></g><title>circle18</title><ellipse cx="25.663" cy="102.737" rx="25.663" ry="25.617" style="fill:#fff;stroke:none;stroke-width:33.20330048;stroke-linecap:butt"/><g transform="translate(16.712 -23.42)"><title>circle20</title><ellipse cx="2.811" cy="125.549" rx="2.811" ry="2.806" style="fill:#32bedd;stroke:none;stroke-width:33.20330048;stroke-linecap:butt"/></g><g transform="translate(9.082 -10.192)"><title>path22</title><path d="M2.45 104.3H1.06A1.059 1.057-180 0 0 0 105.36v20.84a2.154 2.15-180 0 0 2.15 2.15h20.34a1.059 1.057-180 0 0 1.06-1.09v-1.38a1.059 1.057-180 0 0-1.06-1.06H4.23a.511.51 0 0 1-.511-.547l.001-18.913a1.059 1.057-180 0 0-1.27-1.06" style="fill:#32bedd;stroke:none;stroke-width:33.20330048;stroke-linecap:butt"/></g><g transform="translate(28.029 -23.42)"><title>circle24</title><ellipse cx="2.811" cy="125.549" rx="2.811" ry="2.806" style="fill:#32bedd;stroke:none;stroke-width:33.20330048;stroke-linecap:butt"/></g><g transform="translate(17.661 -18.21)"><title>path26</title><path d="M20 104.3H1.06A1.059 1.057-180 0 0 0 105.4v1.38a1.059 1.057-180 0 0 1.06 1.06h18.25a.548.547 0 0 1 .548.547l.002 18.913a1.059 1.057-180 0 0 1.06 1.05h1.38a1.059 1.057-180 0 0 1.06-1.05v-20.85a2.154 2.15-180 0 0-2.11-2.15z" style="fill:#32bedd;stroke:none;stroke-width:33.20330048;stroke-linecap:butt"/></g></g></g></svg>