<svg xmlns="http://www.w3.org/2000/svg" xml:space="preserve" width="56.703" height="53.801" style="font-size:12px;overflow:visible;color-interpolation-filters:sRGB;fill-rule:evenodd;stroke-linecap:square;stroke-miterlimit:3" viewBox="0 0 56.703 53.801"><defs><linearGradient id="a" x1="-7.583" x2="43.73" y1="68.328" y2="68.328" gradientTransform="scale(.98165 1.0187)" gradientUnits="userSpaceOnUse"><stop offset="0" stop-color="#5ea0ef"/><stop offset="1" stop-color="#0078d4"/></linearGradient></defs><g transform="translate(-33.995 -34.061)"><title>Page-1</title><g transform="translate(34 -34.016)"><title>Cognitive Services Anomaly Detector.20027</title><title>Sheet.20028</title><g transform="translate(13.77)"><title>Sheet.20029</title><path d="m42.17 117.14-9.23-9.32a22.933 23.177-180 1 0-4.09 3.8l9.39 9.49a2.595 2.623-180 0 0 3.67 0l.25-.26a2.589 2.617-180 0 0 .01-3.71" style="fill:url(#a);stroke:none;stroke-width:34;stroke-linecap:butt"/></g><g transform="translate(11.504 -10.892)"><title>Sheet.20030</title><ellipse cx="17.843" cy="103.841" rx="17.843" ry="18.033" style="fill:#fff;stroke:none;stroke-width:34;stroke-linecap:butt"/></g><g transform="translate(10.084 -15.371)"><title>Sheet.20031</title><path d="m28.18 109.84-5.13 12.03-5.17-15.5-4.59 8.83-5.31-9.1H0a17.991 18.183 0 0 1 .7-3h8.98l3.46 5.91 5.34-10.28 4.91 14.72 2.78-7.53h3.28l3.97 7.28h2.94a18.382 18.578 0 0 1-.94 3.02h-3.77z" style="fill:#50e6ff;stroke:none;stroke-width:34;stroke-linecap:butt"/></g><g transform="translate(0 -9.509)"><title>Sheet.20032</title><path d="M42.55 98.06h-6.86a13.1 13.24-180 0 0-2.48-6.44 13.298 13.44-180 0 0-8.17-5.12v-7.05a1.9 1.921-180 0 0-3.8 0v6.9A13.059 13.198-180 0 0 9.5 98.06H1.9a1.905 1.925-180 1 0 0 3.85h7.74a12.996 13.134-180 0 0 2.37 5.73 13.298 13.44-180 0 0 8.69 5.2v7.11a1.905 1.925-180 0 0 3.81 0v-7.11a13.115 13.255-180 0 0 11.1-10.94h6.93a1.9 1.921-180 1 0 0-3.84zm-14.1 9.47a9.764 9.868 0 1 1 1.97-13.82 9.707 9.81 0 0 1-1.97 13.82" style="fill:#faa21d;stroke:none;stroke-width:34;stroke-linecap:butt"/></g></g></g></svg>