<svg xmlns="http://www.w3.org/2000/svg" xml:space="preserve" width="56.688" height="56.698" style="font-size:12px;overflow:visible;color-interpolation-filters:sRGB;fill-rule:evenodd;stroke-linecap:square;stroke-miterlimit:3" viewBox="0 0 56.688 56.698"><g transform="translate(-5.67 -5.666)"><title>Page-1</title><g transform="translate(5.67 -34.016)"><title>Cognitive Services Bot.19970</title><g transform="translate(2.67 -2.657)"><title>Sheet.19971</title><path d="m0 45 51.37 51.38Z" style="fill:none"/><path d="m0 45 51.37 51.38" style="stroke:#50e6ff;stroke-width:.75;stroke-linecap:butt"/></g><g transform="translate(2.657 -2.657)"><title>Sheet.19972</title><path d="M0 96.38 51.38 45Z" style="fill:none"/><path d="M0 96.38 51.38 45" style="stroke:#50e6ff;stroke-width:.75;stroke-linecap:butt"/></g><g transform="translate(2.657 -28.36)"><title>Sheet.19973</title><path d="M0 96.38h51.38Z" style="fill:none"/><path d="M0 96.38h51.38" style="stroke:#50e6ff;stroke-width:.75;stroke-linecap:butt"/></g><g transform="translate(28.341 -2.658)"><title>Sheet.19974</title><path d="M0 44.94v51.44Z" style="fill:none"/><path d="M0 44.94v51.44" style="stroke:#50e6ff;stroke-width:.75;stroke-linecap:butt"/></g><g transform="translate(2.657 -2.657)"><title>Sheet.19975</title><path d="m0 96.38 51.38-25.7Z" style="fill:none"/><path d="m0 96.38 51.38-25.7" style="stroke:#50e6ff;stroke-width:.75;stroke-linecap:butt"/></g><g transform="translate(2.657 -2.657)"><title>Sheet.19976</title><path d="M51.38 96.38 0 70.68Z" style="fill:none"/><path d="M51.38 96.38 0 70.68" style="stroke:#50e6ff;stroke-width:.75;stroke-linecap:butt"/></g><g transform="translate(2.67 -28.36)"><title>Sheet.19977</title><path d="m0 70.7 51.37 25.68Z" style="fill:none"/><path d="m0 70.7 51.37 25.68" style="stroke:#50e6ff;stroke-width:.75;stroke-linecap:butt"/></g><g transform="translate(2.657 -28.36)"><title>Sheet.19978</title><path d="M51.38 70.7 0 96.38Z" style="fill:none"/><path d="M51.38 70.7 0 96.38" style="stroke:#50e6ff;stroke-width:.75;stroke-linecap:butt"/></g><g transform="translate(28.346 -28.36)"><title>Sheet.19979</title><path d="m0 70.7 25.69 25.68Z" style="fill:none"/><path d="m0 70.7 25.69 25.68" style="stroke:#50e6ff;stroke-width:.75;stroke-linecap:butt"/></g><g transform="translate(2.657 -28.36)"><title>Sheet.19980</title><path d="M25.68 70.64 0 96.38Z" style="fill:none"/><path d="M25.68 70.64 0 96.38" style="stroke:#50e6ff;stroke-width:.75;stroke-linecap:butt"/></g><g transform="translate(28.346 -2.657)"><title>Sheet.19981</title><path d="m0 96.38 25.69-25.7Z" style="fill:none"/><path d="m0 96.38 25.69-25.7" style="stroke:#50e6ff;stroke-width:.75;stroke-linecap:butt"/></g><g transform="translate(2.547 -2.658)"><title>Sheet.19982</title><path d="M25.8 96.38 0 70.63Z" style="fill:none"/><path d="M25.8 96.38 0 70.63" style="stroke:#50e6ff;stroke-width:.75;stroke-linecap:butt"/></g><g transform="translate(0 -51.378)"><title>Sheet.19983</title><path d="M5.31 93.72c0 1.47-1.19 2.66-2.65 2.66-1.47 0-2.66-1.19-2.66-2.66s1.19-2.66 2.66-2.66c1.46 0 2.65 1.19 2.65 2.66" style="fill:#50e6ff;stroke:none;stroke-width:.75;stroke-linecap:butt"/></g><g transform="translate(0 -25.702)"><title>Sheet.19984</title><path d="M5.31 93.72c0 1.47-1.19 2.66-2.65 2.66-1.47 0-2.66-1.19-2.66-2.66s1.19-2.66 2.66-2.66c1.46 0 2.65 1.19 2.65 2.66" style="fill:#0078d4;stroke:none;stroke-width:.75;stroke-linecap:butt"/></g><title>Sheet.19985</title><path d="M5.31 93.72c0 1.47-1.19 2.66-2.65 2.66-1.47 0-2.66-1.19-2.66-2.66s1.19-2.66 2.66-2.66c1.46 0 2.65 1.19 2.65 2.66" style="fill:#0078d4;stroke:none;stroke-width:.75;stroke-linecap:butt"/><g transform="translate(25.689 -51.378)"><title>Sheet.19986</title><path d="M5.31 93.72c0 1.47-1.19 2.66-2.65 2.66-1.47 0-2.66-1.19-2.66-2.66s1.19-2.66 2.66-2.66c1.46 0 2.65 1.19 2.65 2.66" style="fill:#0078d4;stroke:none;stroke-width:.75;stroke-linecap:butt"/></g><g transform="translate(25.689 -25.689)"><title>Sheet.19987</title><path d="M5.31 93.72c0 1.47-1.19 2.66-2.65 2.66-1.47 0-2.66-1.19-2.66-2.66s1.19-2.66 2.66-2.66c1.46 0 2.65 1.19 2.65 2.66" style="fill:#50e6ff;stroke:none;stroke-width:.75;stroke-linecap:butt"/></g><g transform="translate(25.689)"><title>Sheet.19988</title><path d="M5.31 93.72c0 1.47-1.19 2.66-2.65 2.66-1.47 0-2.66-1.19-2.66-2.66s1.19-2.66 2.66-2.66c1.46 0 2.65 1.19 2.65 2.66" style="fill:#0078d4;stroke:none;stroke-width:.75;stroke-linecap:butt"/></g><g transform="translate(51.378 -51.378)"><title>Sheet.19989</title><path d="M5.31 93.72c0 1.47-1.19 2.66-2.65 2.66-1.47 0-2.66-1.19-2.66-2.66s1.19-2.66 2.66-2.66c1.46 0 2.65 1.19 2.65 2.66" style="fill:#0078d4;stroke:none;stroke-width:.75;stroke-linecap:butt"/></g><g transform="translate(51.378 -25.702)"><title>Sheet.19990</title><path d="M5.31 93.72c0 1.47-1.19 2.66-2.65 2.66-1.47 0-2.66-1.19-2.66-2.66s1.19-2.66 2.66-2.66c1.46 0 2.65 1.19 2.65 2.66" style="fill:#0078d4;stroke:none;stroke-width:.75;stroke-linecap:butt"/></g><g transform="translate(51.378)"><title>Sheet.19991</title><path d="M5.31 93.72c0 1.47-1.19 2.66-2.65 2.66-1.47 0-2.66-1.19-2.66-2.66s1.19-2.66 2.66-2.66c1.46 0 2.65 1.19 2.65 2.66" style="fill:#50e6ff;stroke:none;stroke-width:.75;stroke-linecap:butt"/></g></g></g></svg>