<svg xmlns="http://www.w3.org/2000/svg" xml:space="preserve" width="59.474" height="47.017" style="font-size:12px;overflow:visible;color-interpolation-filters:sRGB;fill-rule:evenodd;stroke-linecap:square;stroke-miterlimit:3" viewBox="0 0 59.474 47.017"><defs><linearGradient id="a" x1="0" x2="23.743" y1="129.742" y2="129.742" gradientTransform="scale(1.3343 .74946)" gradientUnits="userSpaceOnUse"><stop offset="0" stop-color="#0078d4"/><stop offset="1" stop-color="#005ba1"/></linearGradient><linearGradient id="b" x1="-2.688" x2="42.947" y1="73.841" y2="73.841" gradientTransform="scale(1.03364 .96745)" gradientUnits="userSpaceOnUse"><stop offset=".3" stop-color="#0078d4"/><stop offset="1" stop-color="#5ea0ef"/></linearGradient><linearGradient id="c" x1="0" x2="13.587" y1="103.106" y2="103.106" gradientTransform="scale(1.01445 .98576)" gradientUnits="userSpaceOnUse"><stop offset=".225" stop-color="#32bedd"/><stop offset="1" stop-color="#198ab3"/></linearGradient><linearGradient id="d" x1="0" x2="17.28" y1="99.413" y2="99.413" gradientTransform="scale(1.01445 .98576)" gradientUnits="userSpaceOnUse"><stop offset=".225" stop-color="#50e6ff"/><stop offset="1" stop-color="#32bedd"/></linearGradient></defs><g transform="translate(-33.998 -33.997)"><title>Page-1</title><g transform="translate(36.776 -34.016)"><title>Cognitive Services Personaliser.19751</title><title>Sheet.19752</title><g transform="translate(11.847 -29.223)"><title>Sheet.19753</title><path d="M8.98 104.12a16.535 16.067 0 0 1 15.65 10.91l7.05-1.11A23.595 22.928-180 0 0 0 98.96l1.01 7.15a16.393 15.93 0 0 1 7.97-1.99" style="fill:url(#a);stroke:none;stroke-width:34;stroke-linecap:butt"/></g><g transform="translate(0 -1.769)"><title>Sheet.19754</title><path d="M36.38 87.38a16.327 15.865 0 0 1 .95 5.32 16.518 16.051 0 1 1-29.57-9.81s1.16-1.58 1.69-2.16a.42.408 0 0 1 .416.039l.254.171 3.78 2.63a.43.417-180 0 0 .66-.408L12.71 72.22a.965.937-180 0 0-1.107-.77L.35 73.26a.43.417-180 0 0-.178.751L3.95 76.64a23.585 22.918-180 1 0 39.14 8.52z" style="fill:url(#b);stroke:none;stroke-width:34;stroke-linecap:butt"/></g><g transform="translate(32.142 -3.255)"><title>Sheet.19755</title><path d="M22.35 115.03a2.184 2.122-180 0 0 2.2-2.12 1.804 1.753-180 0 0 0-.25c-.86-6.68-4.78-12.11-12.25-12.11-7.6 0-11.54 4.6-12.3 12.13a2.197 2.135-180 0 0 1.96 2.34h.22z" style="fill:#32bedd;stroke:none;stroke-width:34;stroke-linecap:butt"/></g><g transform="translate(37.53 -16.15)"><title>Sheet.19756</title><ellipse cx="6.891" cy="108.334" rx="6.891" ry="6.697" style="fill:url(#c);stroke:none;stroke-width:34;stroke-linecap:butt"/></g><g transform="translate(15.832)"><title>Sheet.19757</title><path d="M28.45 115.03a2.778 2.7-180 0 0 2.79-2.69 2.825 2.745-180 0 0-.02-.32c-1.1-8.49-6.08-15.41-15.59-15.41-9.67 0-14.66 5.85-15.63 15.41A2.792 2.713-180 0 0 2.49 115a2.623 2.549-180 0 0 .28 0z" style="fill:#50e6ff;stroke:none;stroke-width:34;stroke-linecap:butt"/></g><g transform="translate(22.7 -16.398)"><title>Sheet.19758</title><ellipse cx="8.765" cy="106.514" rx="8.765" ry="8.517" style="fill:url(#d);stroke:none;stroke-width:34;stroke-linecap:butt"/></g></g></g></svg>