<svg xmlns="http://www.w3.org/2000/svg" xml:space="preserve" width="56.693" height="53.862" style="font-size:12px;overflow:visible;color-interpolation-filters:sRGB;fill-rule:evenodd;stroke-linecap:square;stroke-miterlimit:3" viewBox="0 0 56.693 53.862"><defs><linearGradient id="a" x1="0" x2="31.208" y1="50.955" y2="50.955" gradientTransform="scale(.67419 1.48327)" gradientUnits="userSpaceOnUse"><stop offset="0" stop-color="#ccc"/><stop offset="1" stop-color="#f0f0f0"/></linearGradient><linearGradient id="b" x1="0" x2="24.442" y1="97.078" y2="97.078" gradientTransform="scale(.9971 1.0029)" gradientUnits="userSpaceOnUse"><stop offset="0" stop-color="#42e8ca"/><stop offset="1" stop-color="#3cd4c2"/></linearGradient></defs><g transform="translate(-34 -33.996)"><title>Page-1</title><g transform="translate(34 -34.016)"><title>Cognitive Services Immersive Reader.19820</title><title>Sheet.19821</title><g transform="translate(0 -7.54)"><title>Sheet.19822</title><path d="M30.55 117.16a13.918 14 0 0 1 22.07-11.38V83.37a2.107 2.12-180 0 0-2.21-2.03H2.2A2.11 2.123-180 0 0 0 83.37v36.48a2.11 2.123-180 0 0 2.2 2.02h29.19a13.858 13.939 0 0 1-.84-4.71" style="fill:#5ea0ef;stroke:none;stroke-width:34;stroke-linecap:butt"/></g><g transform="translate(26.227 -7.54)"><title>Sheet.19823</title><path d="M4.32 117.16a13.918 14 0 0 1 22.07-11.38V83.37a2.01 2.021-180 0 0-2-2.03H0v40.53h5.17a13.858 13.939 0 0 1-.85-4.71" style="fill:#0078d4;stroke:none;stroke-width:34;stroke-linecap:butt"/></g><g transform="translate(5.276 -7.568)"><title>Sheet.19824</title><path d="M16.83 75.58H1.05A1.055 1.061-180 0 0 0 76.65v40.38a1.058 1.064-180 0 0 1.05 1.07h15.78a3.84 3.862 0 0 1 4.21 3.77V79.84a4.217 4.242-180 0 0-4.21-4.26" style="fill:#f2f2f2;stroke:none;stroke-width:34;stroke-linecap:butt"/></g><g transform="translate(26.315 -7.568)"><title>Sheet.19825</title><path d="M4.24 117.19a13.934 14.015 0 0 1 16.8-13.73V76.65a1.052 1.058-180 0 0-1.06-1.07H4.21A4.217 4.242-180 0 0 0 79.84v42.03a3.84 3.862 0 0 1 4.21-3.77h.09c-.02-.31-.06-.61-.06-.91" style="fill:url(#a);stroke:none;stroke-width:34;stroke-linecap:butt"/></g><g transform="translate(32.321)"><title>Sheet.19826</title><ellipse cx="12.186" cy="109.617" rx="12.186" ry="12.257" style="fill:url(#b);stroke:none;stroke-width:34;stroke-linecap:butt"/></g><g transform="translate(9.575 -16.777)"><title>Sheet.19827</title><path d="M12.44 95.08v1.16a.466.469 0 0 1-.466.469L.46 96.71a.463.466 0 0 1-.463-.469L0 95.08a.463.466 0 0 1 .463-.466l11.517-.004a.466.469 0 0 1 .466.466zm-.46 5.82H.46a.463.466-180 0 0-.463.469L0 102.53a.463.466-180 0 0 .463.469L11.98 103a.466.469-180 0 0 .466-.469l-.006-1.161a.466.469-180 0 0-.466-.469zm0-12.58H.46a.463.466-180 0 0-.463.469L0 89.95a.463.466-180 0 0 .463.469l11.517.001a.466.469-180 0 0 .466-.469l-.006-1.161a.466.469-180 0 0-.466-.469zm0 18.87H.46a.466.469-180 0 0-.463.469L0 108.82a.463.466-180 0 0 .463.469l11.517.001a.466.469-180 0 0 .466-.469l-.006-1.161a.466.469-180 0 0-.466-.469zm0 6.3H.46a.466.469-180 0 0-.463.469L0 115.11a.463.466-180 0 0 .463.469l11.517.001a.466.469-180 0 0 .466-.469l-.006-1.161a.466.469-180 0 0-.466-.469zm-6.22 6.29H.46a.466.469-180 0 0-.463.472L0 121.41a.463.466-180 0 0 .463.469l5.297-.009a.463.466-180 0 0 .463-.469l-.003-1.151a.466.469-180 0 0-.463-.472z" style="fill:#b3b3b3;stroke:none;stroke-width:34;stroke-linecap:butt"/></g><g transform="translate(37.48 -4.63)"><title>Sheet.19828</title><path d="M15.28 114.46a10.56 10.622 0 0 1-.21 2.12 11.121 11.186 0 0 1-.6 2.01 9.666 9.722 0 0 1-.99 1.85 12.284 12.355 0 0 1-1 1.29.47.472 0 0 1-.68 0l-.09-.09a.476.478 0 0 1 0-.662 9.512 9.567-180 0 0 .89-1.128 9.345 9.4-180 0 0 .89-1.67 9.562 9.618-180 0 0 .54-1.81 9.883 9.941-180 0 0 0-3.8 9.36 9.415-180 0 0-.54-1.8 9.657 9.713-180 0 0-.89-1.67 9.134 9.187-180 0 0-.89-1.15.476.478 0 0 1 0-.662l.1-.098a.472.475 0 0 1 .677 0 10.904 10.967 0 0 1 1.003 1.29 10.347 10.407 0 0 1 .98 1.86 11.654 11.721 0 0 1 .61 2.01 9.802 9.859 0 0 1 .2 2.11m-3.52-2.88a7.61 7.654-180 0 0-1.29-2.09.466.469-180 0 0-.677 0l-.103.09a.466.469-180 0 0-.031.634A6.334 6.37 0 0 1 10.77 112a6.4 6.437 0 0 1-1.11 6.73.466.469-180 0 0 .031.634l.099.096a.466.469-180 0 0 .677 0 7.59 7.635-180 0 0 1.293-2.09 7.515 7.559-180 0 0 0-5.77zm-3.71.9a3.285 3.304 0 0 1 .43.75 3.263 3.282 0 0 1 0 2.48 3.21 3.228 0 0 1-.43.74.466.469-180 0 0 .04.634l.09.086a.472.475-180 0 0 .702-.035 3.956 3.979-180 0 0 .588-1.005 4.255 4.28-180 0 0 .32-1.65 4.39 4.416-180 0 0-.32-1.65 4.258 4.283-180 0 0-.58-1 .476.478-180 0 0-.706-.038l-.094.088a.463.466-180 0 0-.047.599zm-5.99-1.25H.94a.945.95-180 0 0-.945.95L0 116.75a.945.95-180 0 0 .945.95H2.07a.945.95 0 0 1 .665.276L5.54 120.8a.47.472-180 0 0 .33.14.56.564-180 0 0 .561-.564L6.43 108.57a.57.573-180 0 0-.567-.57.472.475-180 0 0-.334.14l-2.799 2.81a.945.95 0 0 1-.674.279z" style="fill:#fff;stroke:none;stroke-width:34;stroke-linecap:butt"/></g></g></g></svg>