<svg xmlns="http://www.w3.org/2000/svg" xml:space="preserve" width="56.693" height="56.693" style="font-size:12px;overflow:visible;color-interpolation-filters:sRGB;fill-rule:evenodd;stroke-linecap:square;stroke-miterlimit:3" viewBox="0 0 56.693 56.693"><g transform="translate(-5.67 -5.67)"><title>Page-1</title><g transform="translate(5.67 -34.016)"><title>Cognitive Services Decision.19885</title><g transform="translate(43.3 -43.108)"><title>path11-0-5</title><ellipse cx="6.611" cy="89.614" rx="6.611" ry="6.764" style="fill:#3176bc"/></g><g transform="translate(45.867 -45.802)"><title>path836-7-85</title><ellipse cx="3.997" cy="92.288" rx="3.997" ry="4.09" style="fill:#fff"/></g><g transform="translate(0 -43.166)"><title>path11-0-5-8</title><ellipse cx="6.611" cy="89.614" rx="6.611" ry="6.764" style="fill:#3176bc"/></g><g transform="translate(2.568 -45.86)"><title>path836-7-85-6</title><ellipse cx="3.997" cy="92.288" rx="3.997" ry="4.09" style="fill:#fff"/></g><g transform="translate(22.232 -43.135)"><title>path11-0-5-8-9</title><ellipse cx="6.611" cy="89.614" rx="6.611" ry="6.764" style="fill:#3176bc"/></g><g transform="translate(24.8 -45.828)"><title>path836-7-85-6-9</title><ellipse cx="3.997" cy="92.288" rx="3.997" ry="4.09" style="fill:#fff"/></g><g transform="translate(43.47)"><title>path11-0-5-5</title><ellipse cx="6.611" cy="89.614" rx="6.611" ry="6.764" style="fill:#3176bc"/></g><g transform="translate(46.038 -2.693)"><title>path836-7-85-5</title><ellipse cx="3.997" cy="92.288" rx="3.997" ry="4.09" style="fill:#fff"/></g><g transform="translate(.17 -.057)"><title>path11-0-5-8-1</title><ellipse cx="6.611" cy="89.614" rx="6.611" ry="6.764" style="fill:#3176bc"/></g><g transform="translate(2.738 -2.75)"><title>path836-7-85-6-5</title><ellipse cx="3.997" cy="92.288" rx="3.997" ry="4.09" style="fill:#fff"/></g><g transform="translate(22.402 -.026)"><title>path11-0-5-8-9-3</title><ellipse cx="6.611" cy="89.614" rx="6.611" ry="6.764" style="fill:#3176bc"/></g><g transform="translate(24.97 -2.72)"><title>path836-7-85-6-9-8</title><ellipse cx="3.997" cy="92.288" rx="3.997" ry="4.09" style="fill:#fff"/></g><g transform="translate(43.39 -21.464)"><title>path11-0-5-9</title><ellipse cx="6.611" cy="89.614" rx="6.611" ry="6.764" style="fill:#3176bc"/></g><g transform="translate(45.959 -24.158)"><title>path836-7-85-8</title><ellipse cx="3.997" cy="92.288" rx="3.997" ry="4.09" style="fill:#fff"/></g><g transform="translate(.091 -21.522)"><title>path11-0-5-8-0</title><ellipse cx="6.611" cy="89.614" rx="6.611" ry="6.764" style="fill:#3176bc"/></g><g transform="translate(2.659 -24.215)"><title>path836-7-85-6-8</title><ellipse cx="3.997" cy="92.288" rx="3.997" ry="4.09" style="fill:#fff"/></g><g transform="translate(22.323 -21.49)"><title>path11-0-5-8-9-1</title><ellipse cx="6.611" cy="89.614" rx="6.611" ry="6.764" style="fill:#3176bc"/></g><g transform="translate(24.89 -24.184)"><title>path836-7-85-6-9-80</title><ellipse cx="3.997" cy="92.288" rx="3.997" ry="4.09" style="fill:#fff"/></g><g transform="translate(9.758 -31.534)"><title>path990</title><path d="M13.57 80.86 0 93.75l2.77 2.63L16.53 83.3Z" style="fill:#3176bc;stroke:none;stroke-width:1.62563002;stroke-linecap:butt"/></g><g transform="translate(31.533 -31.676)"><title>path990-5</title><path d="m2.95 80.86 13.58 12.89-2.77 2.63L0 83.3Z" style="fill:#3176bc;stroke:none;stroke-width:1.62563002;stroke-linecap:butt"/></g><g transform="translate(9.599 -9.55)"><title>path990-9</title><path d="M13.57 96.38 0 83.48l2.77-2.62 13.76 13.07Z" style="fill:#3176bc;stroke:none;stroke-width:1.62563002;stroke-linecap:butt"/></g><g transform="translate(31.374 -9.409)"><title>path990-5-1</title><path d="m2.95 96.38 13.58-12.9-2.77-2.62L0 93.93Z" style="fill:#3176bc;stroke:none;stroke-width:1.62563002;stroke-linecap:butt"/></g></g></g></svg>