<svg xmlns="http://www.w3.org/2000/svg" xml:space="preserve" width="56.69" height="41.141" style="font-size:12px;overflow:visible;color-interpolation-filters:sRGB;fill-rule:evenodd;stroke-linecap:square;stroke-miterlimit:3" viewBox="0 0 56.69 41.141"><g transform="translate(-10.033 -10.033)"><title>Page-1</title><g transform="translate(10.033 -34.016)"><title>Cognitive Services Custom Vision.19939</title><title>Sheet.19940</title><path d="M28.38 85.09C16.73 86.42 0 74.17 0 64.72c0-9.23 14.87-20.82 28.38-20.67 14.66.15 28.31 12.4 28.31 20.67 0 8.71-15.51 21.26-28.31 20.37m0-37.13c-5.15 0-11.65 1.85-16.73 5.98C7.15 57.56 3 62.5 3.72 65.09c2.07 7.82 13.44 16.24 24.59 16.31 12.37.08 24.59-11.07 24.59-16.68 0-5.32-12.22-16.76-24.52-16.76" style="fill:#0078d4;stroke:none;stroke-width:10.03279972;stroke-linecap:butt"/><g transform="translate(18.66 -11.664)"><title>Sheet.19941</title><path d="M19.37 77.64v-2.66l-2.5-.66c-.14-.67-.43-1.26-.78-1.85l1.35-2.29-1.78-1.84-2.29 1.4c-.57-.3-1.14-.59-1.79-.74l-.64-2.66H8.36L7.79 69c-.64.15-1.21.44-1.78.74l-2.29-1.4-1.79 1.84 1.36 2.36c-.29.59-.57 1.19-.72 1.85L0 75.05v2.66l2.57.67c.15.66.43 1.25.72 1.84l-1.36 2.36 1.79 1.85 2.21-1.4c.58.37 1.15.59 1.79.73l.64 2.66h2.58l.64-2.58c.65-.15 1.29-.44 1.79-.74l2.22 1.4 1.78-1.84-1.36-2.29c.36-.59.58-1.18.79-1.92zm-9.65 2.73c-2.14 0-3.93-1.85-3.93-4.06 0-2.22 1.79-4.06 3.93-4.06 2.15 0 3.93 1.84 3.93 4.06 0 2.21-1.78 4.06-3.93 4.06" style="fill:#0078d4;stroke:none;stroke-width:10.03279972;stroke-linecap:butt"/></g></g></g></svg>