<svg xmlns="http://www.w3.org/2000/svg" xml:space="preserve" width="56.693" height="56.693" style="font-size:12px;overflow:visible;color-interpolation-filters:sRGB;fill-rule:evenodd;stroke-linecap:square;stroke-miterlimit:3" viewBox="0 0 56.693 56.693"><g transform="translate(-67.89 -67.717)"><title>Page-1</title><g transform="translate(67.89 -67.6)"><title>Cognitive Services Health Bot.19829</title><title>Page-1</title><title>Sheet.19831</title><title>path1448</title><title>Sheet.19833</title><circle cx="28.346" cy="163.664" r="28.346" style="fill:#0071c6;stroke:none;stroke-width:38.81420135;stroke-linecap:butt"/><g transform="translate(2.192 -2.48)"><title>path1450</title><title>Sheet.19835</title><circle cx="25.924" cy="166.086" r="25.924" style="fill:#fff;stroke:none;stroke-width:70.08100128;stroke-linecap:butt"/></g><g transform="translate(6.182 -10.102)"><title>path1425-4-0-5-2-5</title><title>Sheet.19837</title><path d="M12.77 157.91h-.6s-8.25-.16-10.7 9.44c0 0-1.47 6.25 3.93 11.11l16.54 13.55v-3.37c-3.65-2.85-12.54-10.28-12.54-10.28-7.38-4.79-5.24-10.95-5.24-10.95 1.55-6.61 7.66-6.93 7.66-6.93s6.31-.98 10.12 6.82v-4.37s-3.06-4.91-9.17-5.02m9.17 30.73.01 3.37 16.54-13.55c5.4-4.86 3.92-11.11 3.92-11.11-2.44-9.6-10.7-9.44-10.7-9.44-6.51-.21-9.76 5.02-9.76 5.02v4.37c3.8-7.8 10.11-6.82 10.11-6.82s6.12.32 7.67 6.93c0 0 2.13 6.16-5.24 10.95 0 0-8.9 7.43-12.55 10.28" style="fill:#0071c6;stroke:none;stroke-width:1"/></g><g transform="translate(26.305 -26.818)"><title>path1470-58</title><title>Sheet.19839</title><circle cx="1.874" cy="190.136" r="1.874" style="fill:#0071c6;stroke:none;stroke-width:39.36700058;stroke-linecap:butt"/></g><g transform="translate(32.555 -26.818)"><title>path1470-58.86</title><title>Sheet.19841</title><circle cx="1.874" cy="190.136" r="1.874" style="fill:#0071c6;stroke:none;stroke-width:39.36700058;stroke-linecap:butt"/></g><g transform="translate(20.305 -26.818)"><title>path1470-58.87</title><title>Sheet.19843</title><circle cx="1.874" cy="190.136" r="1.874" style="fill:#0071c6;stroke:none;stroke-width:39.36700058;stroke-linecap:butt"/></g></g></g></svg>