<svg xmlns="http://www.w3.org/2000/svg" xml:space="preserve" width="53.86" height="56.655" style="font-size:12px;overflow:visible;color-interpolation-filters:sRGB;fill-rule:evenodd;stroke-linecap:square;stroke-miterlimit:3" viewBox="0 0 53.86 56.655"><g transform="translate(-5.386 -5.71)"><title>Page-1</title><g transform="translate(5.386 -34.016)"><title>Cognitive Services Intelligence.19795</title><title>Sheet.19796</title><g transform="translate(16.457 -23.325)"><title>Sheet.19797</title><path d="M.94 93.52c0-.28-.19-.47-.47-.47s-.47.19-.47.47v2.38c0 .29.19.48.47.48s.47-.19.47-.48z" style="fill:#389cd6;stroke:none;stroke-width:5.31712008;stroke-linecap:butt"/></g><g transform="translate(20.524 -35.225)"><title>Sheet.19798</title><path d="M.47 93.05c-.28 0-.47.19-.47.47v2.38c0 .29.19.48.47.48s.47-.19.47-.48v-2.38c0-.28-.24-.47-.47-.47" style="fill:#389cd6;stroke:none;stroke-width:5.31712008;stroke-linecap:butt"/></g><g transform="translate(20.524 -39.985)"><title>Sheet.19799</title><path d="M.47 93.05c-.28 0-.47.19-.47.47v2.38c0 .29.19.48.47.48s.47-.19.47-.48v-2.38c0-.28-.24-.47-.47-.47" style="fill:#389cd6;stroke:none;stroke-width:5.31712008;stroke-linecap:butt"/></g><g transform="translate(16.457 -28.085)"><title>Sheet.19800</title><path d="M.47 96.38c.28 0 .47-.19.47-.48v-2.38c0-.28-.19-.47-.47-.47s-.47.19-.47.47v2.38c0 .29.19.48.47.48" style="fill:#389cd6;stroke:none;stroke-width:5.31712008;stroke-linecap:butt"/></g><g transform="translate(20.524 -16.09)"><title>Sheet.19801</title><path d="M.47 96.38c.28 0 .47-.19.47-.48v-2.38c0-.28-.19-.47-.47-.47s-.47.19-.47.47v2.38c0 .24.19.48.47.48" style="fill:#389cd6;stroke:none;stroke-width:5.31712008;stroke-linecap:butt"/></g><g transform="translate(17.252 -32.369)"><title>Sheet.19802</title><path d="M.51 96.38c.1 0 .14 0 .24-.05l2.01-1.19c.23-.14.28-.43.19-.67-.14-.23-.43-.28-.66-.19L.28 95.47c-.23.15-.28.43-.19.67.1.19.24.24.42.24" style="fill:#389cd6;stroke:none;stroke-width:5.31712008;stroke-linecap:butt"/></g><g transform="translate(17.298 -20.23)"><title>Sheet.19803</title><path d="M2.52 96.38c.14 0 .33-.1.43-.24.14-.24.04-.52-.14-.67L.79 94.24c-.23-.15-.51-.05-.65.14-.14.24-.05.52.14.67l2.01 1.23c.05.1.14.1.23.1" style="fill:#389cd6;stroke:none;stroke-width:5.31712008;stroke-linecap:butt"/></g><g transform="translate(18.186 -43.317)"><title>Sheet.19804</title><path d="M1.03 95.81c.47.38.98.57 1.59.57h.23c1.36-.14 2.39-1.38 2.25-2.76-.05-.67-.38-1.29-.89-1.72a2.6 2.6 0 0 0-1.83-.57C1.03 91.48 0 92.71.14 94.09c.05.67.37 1.29.89 1.72m.75-2.67c.18-.24.42-.38.74-.38h.1c.23 0 .47.1.7.24.23.19.37.43.37.76.05.62-.37 1.14-.98 1.19s-1.12-.38-1.17-1c-.04-.29.05-.57.24-.81" style="fill:#389cd6;stroke:none;stroke-width:5.31712008;stroke-linecap:butt"/></g><g transform="translate(18.233 -8.663)"><title>Sheet.19805</title><path d="M4.16 91.9c-.28-.23-.61-.38-.93-.47v-.62c0-.29-.19-.48-.47-.48s-.47.19-.47.48v.52C.94 91.48 0 92.71.09 94.09c.14 1.29 1.22 2.29 2.48 2.29h.24a2.536 2.536 0 0 0 2.24-2.76c-.09-.67-.37-1.29-.89-1.72M2.66 95c-.28.05-.56-.05-.79-.24A.94.94 0 0 1 1.5 94c0-.34.04-.57.23-.81.14-.19.33-.29.56-.38.05 0 .14-.05.19-.05h.09c.24 0 .47.1.66.24 0 0 .04 0 .04.05.24.19.38.42.38.76.04.57-.38 1.09-.99 1.19" style="fill:#389cd6;stroke:none;stroke-width:5.31712008;stroke-linecap:butt"/></g><title>Sheet.19806</title><path d="m53.44 61.11-7.16-4.29v-8.66c0-.24-.14-.48-.32-.62l-12.63-7.71c-.23-.14-.51-.14-.7 0l-5.75 3.52-5.7-3.52c-.24-.14-.52-.14-.7 0L7.85 47.54c-.23.14-.32.38-.32.62v8.66L.37 61.11c-.23.14-.37.38-.37.61v13.76c0 .24.14.48.33.62l7.15 4.43v6.8c0 .24.14.48.33.62l13.6 8.33c.1.05.24.1.38.1s.28-.05.42-.14l4.72-3.43 4.72 3.43c.14.09.28.14.42.14s.24-.05.38-.1l13.6-8.33c.23-.14.33-.38.33-.62v-6.8l7.15-4.43c.19-.14.33-.38.33-.62V61.72a.95.95 0 0 0-.42-.61m-31.7 33.7-12.86-7.9v-6.38l2.99-1.86c.43.33.99.57 1.55.57 1.35 0 2.48-1.14 2.48-2.52s-1.13-2.52-2.48-2.52c-1.36 0-2.48 1.14-2.48 2.52 0 .28.05.52.14.76l-2.9 1.81L1.4 75.1v-6h4.26c.28 1.1 1.26 1.91 2.38 1.91 1.36 0 2.48-1.15 2.48-2.53s-1.12-2.52-2.48-2.52c-1.07 0-2.01.71-2.34 1.71H1.4v-5.52l6.83-4.09 2.85 1.76c-.09.24-.14.52-.14.76 0 1.38 1.12 2.52 2.48 2.52 1.35 0 2.48-1.14 2.48-2.52s-1.13-2.52-2.48-2.52c-.61 0-1.12.24-1.55.57l-2.99-1.81v-8.23L20.8 41.3l5.38 3.24v23.32h-1.59c-.28-1.09-1.26-1.9-2.38-1.9-1.36 0-2.48 1.14-2.48 2.52s1.12 2.53 2.48 2.53c1.07 0 2.01-.72 2.33-1.72h1.64v22.33zm-9.4-18.09c0-.62.52-1.1 1.08-1.1.61 0 1.07.48 1.07 1.1s-.46 1.09-1.07 1.09h-.19c-.47-.09-.89-.57-.89-1.09m-5.37-8.24c0-.33.14-.62.37-.81.19-.19.47-.28.75-.28.61 0 1.07.47 1.07 1.09s-.46 1.1-1.07 1.1c-.38 0-.7-.19-.89-.48-.14-.19-.23-.38-.23-.62m5.37-7.85c0-.57.42-1 .94-1.1h.14c.61 0 1.07.48 1.07 1.1s-.46 1.09-1.07 1.09c-.56 0-1.08-.47-1.08-1.09m10.94 7.85c0 .62-.47 1.1-1.07 1.1-.61 0-1.08-.48-1.08-1.1s.47-1.09 1.08-1.09c.6 0 1.07.47 1.07 1.09m29.13 6.62-6.78 4.19-2.9-1.81c.09-.24.14-.52.14-.76 0-1.38-1.12-2.52-2.48-2.52-1.35 0-2.47 1.14-2.47 2.52s1.12 2.52 2.47 2.52c.61 0 1.13-.24 1.55-.57l2.99 1.86v6.42l-12.86 7.9-4.44-3.23V69.29h1.64c.32 1 1.26 1.72 2.33 1.72 1.36 0 2.48-1.15 2.48-2.53s-1.12-2.52-2.48-2.52c-1.16 0-2.15.81-2.38 1.9h-1.59V44.54l5.33-3.28 11.92 7.28v8.23l-2.99 1.86c-.42-.33-.98-.57-1.54-.57-1.36 0-2.48 1.14-2.48 2.52s1.12 2.52 2.48 2.52c1.35 0 2.47-1.14 2.47-2.52 0-.28-.04-.52-.14-.76l2.86-1.76 6.82 4.09v5.52h-4.35c-.32-1-1.26-1.71-2.33-1.71-1.36 0-2.48 1.14-2.48 2.52s1.12 2.53 2.48 2.53c1.17 0 2.15-.81 2.38-1.91h4.26v6zm-10.94 1.62c0 .57-.42 1-.94 1.09h-.18c-.61 0-1.08-.47-1.08-1.09s.47-1.1 1.08-1.1c.6-.04 1.07.48 1.12 1.1m-10.94-8.24c0-.62.47-1.09 1.07-1.09.61 0 1.08.47 1.08 1.09s-.47 1.1-1.08 1.1c-.6 0-1.07-.48-1.07-1.1m10.94-7.85c0 .62-.47 1.09-1.08 1.09-.6 0-1.07-.47-1.07-1.09s.47-1.1 1.07-1.1h.14c.52.1.94.53.94 1.1m5.33 7.85c0 .24-.05.43-.19.62-.19.29-.51.48-.89.48-.6 0-1.07-.48-1.07-1.1s.47-1.09 1.07-1.09c.28 0 .52.09.75.28.19.19.33.48.33.81" style="fill:#389cd6;stroke:none;stroke-width:5.31712008;stroke-linecap:butt"/><g transform="translate(32.352 -16.09)"><title>Sheet.19807</title><path d="M.47 96.38c.28 0 .47-.19.47-.48v-2.38c0-.28-.19-.47-.47-.47s-.47.19-.47.47v2.38c0 .24.23.48.47.48" style="fill:#389cd6;stroke:none;stroke-width:5.31712008;stroke-linecap:butt"/></g><g transform="translate(32.352 -35.225)"><title>Sheet.19808</title><path d="M.47 93.05c-.28 0-.47.19-.47.47v2.38c0 .29.19.48.47.48s.47-.19.47-.48v-2.38c0-.28-.19-.47-.47-.47" style="fill:#389cd6;stroke:none;stroke-width:5.31712008;stroke-linecap:butt"/></g><g transform="translate(32.352 -39.985)"><title>Sheet.19809</title><path d="M.47 93.05c-.28 0-.47.19-.47.47v2.38c0 .29.19.48.47.48s.47-.19.47-.48v-2.38c0-.28-.19-.47-.47-.47" style="fill:#389cd6;stroke:none;stroke-width:5.31712008;stroke-linecap:butt"/></g><g transform="translate(36.42 -23.325)"><title>Sheet.19810</title><path d="M.47 93.05c-.28 0-.47.19-.47.47v2.38c0 .29.19.48.47.48s.47-.19.47-.48v-2.38c0-.24-.24-.47-.47-.47" style="fill:#389cd6;stroke:none;stroke-width:5.31712008;stroke-linecap:butt"/></g><g transform="translate(36.42 -28.085)"><title>Sheet.19811</title><path d="M.47 93.05c-.28 0-.47.19-.47.47v2.38c0 .29.19.48.47.48s.47-.19.47-.48v-2.38c0-.24-.24-.47-.47-.47" style="fill:#389cd6;stroke:none;stroke-width:5.31712008;stroke-linecap:butt"/></g><g transform="translate(33.428 -20.183)"><title>Sheet.19812</title><path d="M2.29 94.24.28 95.47c-.23.15-.28.43-.14.67.09.14.23.24.42.24.09 0 .19 0 .23-.05l2.02-1.24c.23-.14.28-.43.14-.66-.14-.29-.43-.34-.66-.19" style="fill:#389cd6;stroke:none;stroke-width:5.31712008;stroke-linecap:butt"/></g><g transform="translate(33.474 -32.369)"><title>Sheet.19813</title><path d="M2.57 96.38c.14 0 .33-.1.42-.24.14-.24.05-.52-.18-.67L.79 94.28c-.23-.14-.51-.04-.65.19-.14.24-.05.53.19.67l2.01 1.19c.04.05.14.05.23.05" style="fill:#389cd6;stroke:none;stroke-width:5.31712008;stroke-linecap:butt"/></g><g transform="translate(30.389 -43.317)"><title>Sheet.19814</title><path d="M5.1 94.09c.04-.66-.14-1.33-.57-1.85a2.37 2.37 0 0 0-1.68-.91c-1.35-.14-2.57.86-2.71 2.29s.84 2.62 2.24 2.76h.24c.56 0 1.12-.19 1.59-.57.47-.43.79-1.05.89-1.72m-1.83.62c-.18.14-.46.24-.79.24-.28-.05-.56-.19-.75-.38-.19-.24-.28-.52-.23-.81.04-.29.18-.57.37-.76.19-.14.42-.24.7-.24h.09c.61.05 1.03.62.99 1.19 0 .29-.14.57-.38.76" style="fill:#389cd6;stroke:none;stroke-width:5.31712008;stroke-linecap:butt"/></g><g transform="translate(30.389 -8.616)"><title>Sheet.19815</title><path d="M2.9 91.33v-.52c0-.29-.19-.48-.47-.48s-.47.19-.47.48v.62c-.32.09-.65.24-.93.47-.52.43-.84 1.05-.89 1.72a2.5 2.5 0 0 0 2.24 2.76h.24c.56 0 1.12-.19 1.59-.57.51-.43.84-1.05.89-1.72.04-.66-.14-1.33-.57-1.85-.42-.53-.98-.86-1.63-.91m-.42 3.62c-.28-.05-.56-.19-.75-.38-.19-.24-.28-.52-.23-.81.04-.33.18-.62.42-.76.18-.14.42-.24.65-.24h.09c.05 0 .15 0 .19.05.52.14.84.62.8 1.19-.05.28-.19.57-.38.76-.18.09-.46.19-.79.19" style="fill:#389cd6;stroke:none;stroke-width:5.31712008;stroke-linecap:butt"/></g></g></g></svg>