<svg xmlns="http://www.w3.org/2000/svg" xml:space="preserve" width="56.694" height="56.699" style="font-size:12px;overflow:visible;color-interpolation-filters:sRGB;fill-rule:evenodd;stroke-linecap:square;stroke-miterlimit:3" viewBox="0 0 56.694 56.699"><g transform="translate(-12.49 -12.486)"><title>Page-1</title><g transform="translate(12.49 -34.016)"><title>Cognitive Services Model Optimisation.19770</title><g transform="translate(42.274 -42.289)"><title>Sheet.19771</title><path d="M0 88.79h14.42v14.41H8.45v-8.45H0Z" style="fill:#0078d4;stroke:none;stroke-width:12.48980045;stroke-linecap:butt"/></g><g transform="translate(0 -42.289)"><title>Sheet.19772</title><path d="M5.97 103.2H0V88.79h14.42v5.96H5.97Z" style="fill:#0078d4;stroke:none;stroke-width:12.48980045;stroke-linecap:butt"/></g><g transform="translate(42.274)"><title>Sheet.19773</title><path d="M8.45 88.79h5.97v14.41H0v-5.96h8.45z" style="fill:#0078d4;stroke:none;stroke-width:12.48980045;stroke-linecap:butt"/></g><title>Sheet.19774</title><path d="M0 103.2V88.79h5.97v8.45h8.45v5.96z" style="fill:#0078d4;stroke:none;stroke-width:12.48980045;stroke-linecap:butt"/><g transform="translate(11.442 -8.515)"><title>Sheet.19775</title><path d="M0 103.2c0-9.45 7.65-17.09 17.11-17.09s17.11 7.64 17.11 17.09z" style="fill:#50e6ff;stroke:none;stroke-width:12.48980045;stroke-linecap:butt"/></g><g transform="translate(18.967 -30.235)"><title>Sheet.19776</title><path d="M19.14 93.64c0 5.27-4.29 9.56-9.57 9.56S0 98.91 0 93.64c0-5.28 4.29-9.56 9.57-9.56s9.57 4.28 9.57 9.56" style="fill:#50e6ff;stroke:none;stroke-width:12.48980045;stroke-linecap:butt"/></g></g></g></svg>