<svg xmlns="http://www.w3.org/2000/svg" xml:space="preserve" width="51.024" height="56.69" style="font-size:12px;overflow:visible;color-interpolation-filters:sRGB;fill-rule:evenodd;stroke-linecap:square;stroke-miterlimit:3" viewBox="0 0 51.024 56.69"><g transform="translate(-5.102 -5.674)"><title>Page-1</title><g transform="translate(5.102 -34.016)"><title>Cognitive Services OCR.19759</title><title>Sheet.19760</title><title>Sheet.19761</title><path d="M42.14 95.1H1.25v-5.97c.29.04.58.09.88.09 2.41 0 4.37-2.01 4.37-4.48s-1.96-4.56-4.37-4.56c-.3 0-.59.04-.88.09v-7.34c.29.05.58.09.88.09 2.41 0 4.37-2 4.37-4.48 0-2.47-1.96-4.47-4.37-4.47-.3 0-.59.04-.88.08v-7.33c.29.04.58.09.88.09 2.41 0 4.37-2.01 4.37-4.48s-1.96-4.52-4.37-4.52c-.3 0-.59.04-.88.09v-7.04h40.89v23.41h1.26V40.32c0-.34-.3-.63-.63-.63H.63a.64.64 0 0 0-.63.63v8.53c0 .21.13.43.29.55.17.13.42.13.59.05.41-.17.83-.26 1.25-.26 1.75 0 3.12 1.45 3.12 3.2s-1.41 3.19-3.12 3.19c-.42 0-.84-.08-1.25-.25-.21-.09-.42-.09-.59.04-.16.17-.29.34-.29.56v9.08c0 .21.13.42.29.55.17.13.42.13.59.04.41-.17.83-.25 1.25-.25 1.75 0 3.12 1.45 3.12 3.19 0 1.75-1.41 3.2-3.12 3.2-.42 0-.84-.09-1.25-.26-.21-.08-.42-.08-.59.05-.16.12-.29.34-.29.55v9.08c0 .21.13.43.29.55.17.13.42.13.59.05.41-.17.83-.26 1.25-.26 1.75 0 3.12 1.45 3.12 3.2s-1.41 3.2-3.12 3.2c-.42 0-.84-.09-1.25-.26-.21-.09-.42-.09-.59.04-.16.13-.29.3-.29.56v7.5c0 .34.29.64.63.64h42.14c.33 0 .63-.3.63-.64V83.72h-1.26z" style="fill:#389cd6;stroke:none;stroke-width:5;stroke-linecap:butt"/><g transform="translate(9.254 -12.02)"><title>Sheet.19762</title><path d="M41.14 96.38H.63a.65.65 0 0 1-.63-.64V76.39c0-.34.29-.64.63-.64h40.51c.34 0 .63.3.63.64v19.35c0 .34-.29.64-.63.64M1.25 95.1h39.27V77.03H1.25Z" style="fill:#389cd6;stroke:none;stroke-width:5;stroke-linecap:butt"/></g><g transform="rotate(-30.252 7.368 12.67)"><title>Sheet.19763</title><path d="M0 95.099h8.712v1.279H0z" style="fill:#389cd6;stroke:none;stroke-width:4.99990988;stroke-linecap:butt"/></g><g transform="translate(20.343 -16.667)"><title>Sheet.19764</title><path d="M0 85.849h1.251v10.529H0z" style="fill:#389cd6;stroke:none;stroke-width:5;stroke-linecap:butt"/></g><g transform="translate(16.966 -26.599)"><title>Sheet.19765</title><path d="M0 95.099h7.67v1.279H0z" style="fill:#389cd6;stroke:none;stroke-width:5;stroke-linecap:butt"/></g><g transform="translate(38.768 -16.795)"><title>Sheet.19766</title><path d="M0 85.849h1.251v10.529H0z" style="fill:#389cd6;stroke:none;stroke-width:5;stroke-linecap:butt"/></g><g transform="translate(35.683 -26.599)"><title>Sheet.19767</title><path d="M0 95.099h7.67v1.279H0z" style="fill:#389cd6;stroke:none;stroke-width:5;stroke-linecap:butt"/></g><g transform="rotate(-38.353 -6.929 39.448)"><title>Sheet.19768</title><path d="M0 82.908h1.251v13.47H0z" style="fill:#389cd6;stroke:none;stroke-width:4.99996996;stroke-linecap:butt"/></g><g transform="rotate(-51.5 -4.025 60.624)"><title>Sheet.19769</title><path d="M0 95.099h13.173v1.279H0z" style="fill:#389cd6;stroke:none;stroke-width:4.99991989;stroke-linecap:butt"/></g></g></g></svg>