<svg xmlns="http://www.w3.org/2000/svg" xml:space="preserve" width="39.69" height="56.691" style="font-size:12px;overflow:visible;color-interpolation-filters:sRGB;fill-rule:evenodd;stroke-linecap:square;stroke-miterlimit:3" viewBox="0 0 39.69 56.691"><g transform="translate(-3.969 -5.673)"><title>Page-1</title><g transform="translate(3.969 -34.016)"><title>Cognitive Services Enterprise Bot.19873</title><title>Sheet.19874</title><path d="M39.69 55.14h-3.8v10.73H3.86V55.14H0v41.24h39.69z" style="fill:#0078d4;stroke:none;stroke-width:.75;stroke-linecap:butt"/><g transform="translate(3.661 -4.454)"><title>Sheet.19875</title><path d="M32.36 74.85H0v21.53h32.3V74.85Z" style="fill:#50e6ff;stroke:none;stroke-width:.75;stroke-linecap:butt"/></g><g transform="translate(5.034 -12.756)"><title>Sheet.19876</title><path d="M1.5 96.38 0 95.37l.13-.21c1.24-1.89 3.4-3.03 5.69-3.03 2.35 0 4.51 1.14 5.69 3.03l.13.21-1.57.94-.13-.2c-.85-1.35-2.42-2.23-4.19-2.23-1.7 0-3.27.88-4.18 2.23z" style="fill:#0078d4;stroke:none;stroke-width:.75;stroke-linecap:butt"/></g><g transform="translate(23.079 -12.756)"><title>Sheet.19877</title><path d="M11.51 95.16c-1.18-1.89-3.34-3.03-5.69-3.03S1.37 93.27.13 95.16l-.13.21 1.5 1.01.13-.2c.85-1.35 2.49-2.23 4.19-2.23 1.76 0 3.33.88 4.18 2.23l.13.2 1.57-.95z" style="fill:#0078d4;stroke:none;stroke-width:.75;stroke-linecap:butt"/></g><g transform="translate(26.151 -33.07)"><title>Sheet.19878</title><path d="M4.9 81.19v9.25c-.19 0-.45.07-.58.27-.14.13-.27.4-.27.61 0 .2.07.47.27.6.13.14.39.27.58.27v4.19H0V81.19Z" style="fill:#50e6ff;stroke:none;stroke-width:.75;stroke-linecap:butt"/></g><g transform="translate(19.614 -48.257)"><title>Sheet.19879</title><path d="M3.27 94.69H0v1.69h3.27z" style="fill:#0078d4;stroke:none;stroke-width:.75;stroke-linecap:butt"/></g><g transform="translate(9.807 -43.195)"><title>Sheet.19880</title><path d="M4.9 94.69H0v1.69h4.9z" style="fill:#0078d4;stroke:none;stroke-width:.75;stroke-linecap:butt"/></g><g transform="translate(9.807 -39.82)"><title>Sheet.19881</title><path d="M4.9 94.69H0v1.69h4.9z" style="fill:#0078d4;stroke:none;stroke-width:.75;stroke-linecap:butt"/></g><g transform="translate(9.807 -36.446)"><title>Sheet.19882</title><path d="M4.9 94.69H0v1.69h4.9z" style="fill:#0078d4;stroke:none;stroke-width:.75;stroke-linecap:butt"/></g><g transform="translate(6.538 -33.07)"><title>Sheet.19883</title><path d="M4.9 72.76v8.43H0v15.19h19.61V72.76Zm4.91 21.93H1.63V82.88h8.18Zm1.63-15.18H8.17v-3.38h3.27zm4.9 15.18h-3.26v-3.37h3.26zm0-5.06h-3.26v-3.38h3.26zm0-5.06h-3.26v-3.38h3.26zm0-5.06h-3.26v-3.38h3.26z" style="fill:#0078d4;stroke:none;stroke-width:.75;stroke-linecap:butt"/></g><g transform="translate(28.505 -33.003)"><title>Sheet.19884</title><path d="M4.97 91.25c0-.47-.13-.95-.33-1.35-.19-.41-.59-.74-.98-.95-.39-.2-.85-.33-1.31-.27-.45 0-.85.21-1.24.48s-.65.6-.85 1.08c-.19.4-.26.87-.19 1.35.06.47.26.87.52 1.28.26.34.65.61 1.11.81v2.7h1.63v-2.7c.46-.2.92-.47 1.18-.95.33-.47.46-1.01.46-1.48m-2.42.81c-.13 0-.33-.07-.46-.14a.64.64 0 0 1-.32-.4c-.07-.14-.07-.34-.07-.47 0-.14.13-.34.2-.41.13-.13.26-.2.39-.2s.33 0 .46.07c.13.06.26.13.39.33.06.14.13.27.13.48 0 .2-.07.47-.26.6-.07.07-.26.14-.46.14" style="fill:#0078d4;stroke:none;stroke-width:.75;stroke-linecap:butt"/></g></g></g></svg>