<svg xmlns="http://www.w3.org/2000/svg" xml:space="preserve" width="56.69" height="39.692" style="font-size:12px;overflow:visible;color-interpolation-filters:sRGB;fill-rule:evenodd;stroke-linecap:square;stroke-miterlimit:3" viewBox="0 0 56.69 39.692"><defs><linearGradient id="a" x1="0" x2="47.436" y1="81.281" y2="81.281" gradientTransform="scale(1.1951 .83676)" gradientUnits="userSpaceOnUse"><stop offset="0" stop-color="#0078d4"/><stop offset=".16" stop-color="#1380da"/><stop offset=".53" stop-color="#3c91e5"/><stop offset=".82" stop-color="#559cec"/><stop offset="1" stop-color="#5ea0ef"/></linearGradient></defs><g transform="translate(-34 -33.997)"><title>Page-1</title><g transform="translate(34 -34.016)"><title>Cognitive Services.19689</title><title>Icon-machinelearning-162</title><title>Sheet.19691</title><path d="M56.69 95.25a12.598 12.433-180 0 0-11.05-12.06A16.063 15.852-180 0 0 29.1 68.02a16.535 16.318-180 0 0-15.81 10.51A15.118 14.92-180 0 0 0 93.04a15.433 15.23-180 0 0 15.97 14.64h27.24a2.457 2.424-180 0 0 .7 0 12.913 12.744-180 0 0 12.78-12.43" style="fill:url(#a);stroke:none;stroke-width:34;stroke-linecap:butt"/><g transform="translate(7.52 -.024)"><title>Sheet.19692</title><path d="M9.55 92.2H6.78a3.433 3.388-180 1 0 0 1.52h2.77a.63.622 0 0 1 .63.622v13.368h1.54V94.34a2.173 2.145-180 0 0-2.17-2.14m-6.14 2.73a2.016 1.99 0 1 1 2.01-1.99 2.016 1.99 0 0 1-2.01 1.99" style="fill:#9cebff;stroke:none;stroke-width:34;stroke-linecap:butt"/></g><g transform="translate(18.898 -9.051)"><title>Sheet.19693</title><path d="M9.26 101.91V98.8a2.205 2.176-180 0 0-2.2-2.18H2.17a.63.622 0 0 1-.63-.622V79.5l-.72.37-.82.44v15.54a2.173 2.145-180 0 0 2.17 2.14h4.89a.661.653 0 0 1 .661.653l-.001 3.107a3.402 3.357-180 0 0-2.68 3.3 3.433 3.388-180 1 0 4.22-3.3zm-.79 5.28a2.016 1.99 0 1 1 2.02-1.99 2.016 1.99 0 0 1-2.02 1.99" style="fill:#f2f2f2;stroke:none;stroke-width:34;stroke-linecap:butt"/></g><g transform="translate(26.564 -.024)"><title>Sheet.19694</title><path d="M19.2 86.32a3.433 3.388-180 0 0-.79 6.69v.62a.661.653 0 0 1-.661.653l-6.299-.003V83.34a2.173 2.145-180 0 0-2.17-2.14H6.03a3.402 3.357-180 0 0-3.33-2.65 3.433 3.388-180 1 0 3.33 4.17H9.4a.63.622 0 0 1 .63.622v24.368h1.55V95.8h6.3a2.205 2.176-180 0 0 2.2-2.17v-.62a3.433 3.388-180 0 0 2.68-3.3 3.433 3.388-180 0 0-3.56-3.39M2.7 83.93a2.016 1.99 0 1 1 2.01-1.99 2.016 1.99 0 0 1-2.01 1.99m16.5 7.77a2.016 1.99 0 1 1 1.98-1.99 2.016 1.99 0 0 1-1.98 1.99" style="fill:#9cebff;stroke:none;stroke-width:34;stroke-linecap:butt"/></g></g></g></svg>