<svg xmlns="http://www.w3.org/2000/svg" xml:space="preserve" width="56.695" height="56.693" style="font-size:12px;overflow:visible;color-interpolation-filters:sRGB;fill-rule:evenodd;stroke-linecap:square;stroke-miterlimit:3" viewBox="0 0 56.695 56.693"><g transform="translate(-12.49 -12.491)"><title>Page-1</title><g transform="translate(12.49 -34.016)"><title>Cognitive Services Customised Experience.19915</title><g transform="translate(42.271 -42.269)"><title>Sheet.19916</title><path d="M0 88.78h14.42v14.42H8.45v-8.45H0Z" style="fill:#0078d4;stroke:none;stroke-width:12.48980045;stroke-linecap:butt"/></g><g transform="translate(16.903 -42.273)"><title>Sheet.19917</title><path d="M5.97 103.2H0V88.78h14.42v5.97H5.97Z" style="fill:#0078d4;stroke:none;stroke-width:12.48980045;stroke-linecap:butt"/></g><g transform="translate(42.271 -16.95)"><title>Sheet.19918</title><path d="M8.45 88.78h5.97v14.42H0v-5.97h8.45z" style="fill:#0078d4;stroke:none;stroke-width:12.48980045;stroke-linecap:butt"/></g><g transform="translate(16.903 -16.94)"><title>Sheet.19919</title><path d="M0 103.2V88.78h5.97v8.45h8.45v5.97z" style="fill:#0078d4;stroke:none;stroke-width:12.48980045;stroke-linecap:butt"/></g><g transform="translate(25.363 -33.813)"><title>Sheet.19920</title><path d="M2.98 103.2c-1.65 0-2.98-1.33-2.98-2.98 0-1.66 1.33-2.99 2.98-2.99s2.99 1.33 2.99 2.99c0 1.64-1.35 2.98-2.99 2.98" style="fill:#50e6ff;stroke:none;stroke-width:12.48980045;stroke-linecap:butt"/></g><g transform="translate(33.817 -42.265)"><title>Sheet.19921</title><path d="M2.98 103.2c-1.65 0-2.98-1.33-2.98-2.98 0-1.66 1.33-2.99 2.98-2.99s2.99 1.33 2.99 2.99c0 1.64-1.35 2.98-2.99 2.98" style="fill:#50e6ff;stroke:none;stroke-width:12.48980045;stroke-linecap:butt"/></g><g transform="translate(42.271 -33.813)"><title>Sheet.19922</title><path d="M2.98 103.2c-1.65 0-2.98-1.33-2.98-2.98 0-1.66 1.33-2.99 2.98-2.99s2.99 1.33 2.99 2.99c0 1.64-1.35 2.98-2.99 2.98" style="fill:#50e6ff;stroke:none;stroke-width:12.48980045;stroke-linecap:butt"/></g><g transform="translate(33.817 -25.36)"><title>Sheet.19923</title><path d="M2.98 103.2c-1.65 0-2.98-1.33-2.98-2.98 0-1.66 1.33-2.99 2.98-2.99s2.99 1.33 2.99 2.99c0 1.64-1.35 2.98-2.99 2.98" style="fill:#50e6ff;stroke:none;stroke-width:12.48980045;stroke-linecap:butt"/></g><g transform="translate(33.817 -33.813)"><title>Sheet.19924</title><path d="M2.98 103.2c-1.65 0-2.98-1.33-2.98-2.98 0-1.66 1.33-2.99 2.98-2.99s2.99 1.33 2.99 2.99c0 1.64-1.35 2.98-2.99 2.98" style="fill:#50e6ff;stroke:none;stroke-width:12.48980045;stroke-linecap:butt"/></g><g transform="translate(0 -50.722)"><title>Sheet.19925</title><path d="M2.98 103.2c-1.65 0-2.98-1.33-2.98-2.98 0-1.66 1.33-2.99 2.98-2.99s2.99 1.33 2.99 2.99c0 1.64-1.35 2.98-2.99 2.98" style="fill:#50e6ff;stroke:none;stroke-width:12.48980045;stroke-linecap:butt"/></g><g transform="translate(8.454 -50.722)"><title>Sheet.19926</title><path d="M5.97 97.23H0v5.97h5.97z" style="fill:#50e6ff;stroke:none;stroke-width:12.48980045;stroke-linecap:butt"/></g><g transform="translate(0 -42.265)"><title>Sheet.19927</title><path d="M5.97 97.23H0v5.97h5.97z" style="fill:#50e6ff;stroke:none;stroke-width:12.48980045;stroke-linecap:butt"/></g><g transform="translate(8.454 -42.265)"><title>Sheet.19928</title><path d="M5.97 97.23H0v5.97h5.97z" style="fill:#50e6ff;stroke:none;stroke-width:12.48980045;stroke-linecap:butt"/></g><g transform="translate(0 -33.813)"><title>Sheet.19929</title><path d="M5.97 97.23H0v5.97h5.97z" style="fill:#50e6ff;stroke:none;stroke-width:12.48980045;stroke-linecap:butt"/></g><g transform="translate(8.454 -33.813)"><title>Sheet.19930</title><path d="M2.98 103.2c-1.65 0-2.98-1.33-2.98-2.98 0-1.66 1.33-2.99 2.98-2.99s2.99 1.33 2.99 2.99c0 1.64-1.35 2.98-2.99 2.98" style="fill:#50e6ff;stroke:none;stroke-width:12.48980045;stroke-linecap:butt"/></g><g transform="translate(0 -16.909)"><title>Sheet.19931</title><path d="M5.97 97.23H0v5.97h5.97z" style="fill:#50e6ff;stroke:none;stroke-width:12.48980045;stroke-linecap:butt"/></g><g transform="translate(8.454 -8.457)"><title>Sheet.19932</title><path d="M5.97 97.23H0v5.97h5.97z" style="fill:#50e6ff;stroke:none;stroke-width:12.48980045;stroke-linecap:butt"/></g><g transform="translate(50.725)"><title>Sheet.19933</title><path d="M2.98 103.2c-1.65 0-2.98-1.33-2.98-2.98 0-1.66 1.33-2.99 2.98-2.99s2.99 1.33 2.99 2.99c0 1.64-1.35 2.98-2.99 2.98" style="fill:#50e6ff;stroke:none;stroke-width:12.48980045;stroke-linecap:butt"/></g><g transform="translate(33.817)"><title>Sheet.19934</title><path d="M5.97 97.23H0v5.97h5.97z" style="fill:#50e6ff;stroke:none;stroke-width:12.48980045;stroke-linecap:butt"/></g><g transform="translate(42.271 -8.457)"><title>Sheet.19935</title><path d="M5.97 97.23H0v5.97h5.97z" style="fill:#50e6ff;stroke:none;stroke-width:12.48980045;stroke-linecap:butt"/></g><g transform="translate(16.909)"><title>Sheet.19936</title><path d="M2.98 103.2c-1.65 0-2.98-1.33-2.98-2.98 0-1.66 1.33-2.99 2.98-2.99s2.99 1.33 2.99 2.99c0 1.64-1.35 2.98-2.99 2.98" style="fill:#50e6ff;stroke:none;stroke-width:12.48980045;stroke-linecap:butt"/></g><g transform="translate(8.454)"><title>Sheet.19937</title><path d="M5.97 97.23H0v5.97h5.97z" style="fill:#50e6ff;stroke:none;stroke-width:12.48980045;stroke-linecap:butt"/></g><g transform="translate(25.363 -8.457)"><title>Sheet.19938</title><path d="M5.97 97.23H0v5.97h5.97z" style="fill:#50e6ff;stroke:none;stroke-width:12.48980045;stroke-linecap:butt"/></g></g></g></svg>