<svg xmlns="http://www.w3.org/2000/svg" xml:space="preserve" width="51.046" height="56.695" style="font-size:12px;overflow:visible;color-interpolation-filters:sRGB;fill-rule:evenodd;stroke-linecap:square;stroke-miterlimit:3" viewBox="0 0 51.046 56.695"><defs><linearGradient id="a" x1="-.019" x2="39.62" y1="120.962" y2="120.962" gradientTransform="scale(1.2878 .77652)" gradientUnits="userSpaceOnUse"><stop offset=".22" stop-color="#32d4f5"/><stop offset=".47" stop-color="#31d1f3"/><stop offset="1" stop-color="#198ab3"/></linearGradient><linearGradient id="b" x1="0" x2="28.571" y1="96.245" y2="96.245" gradientTransform="scale(1.00086 .99914)" gradientUnits="userSpaceOnUse"><stop offset=".22" stop-color="#32d4f5"/><stop offset=".47" stop-color="#31d1f3"/><stop offset="1" stop-color="#198ab3"/></linearGradient><linearGradient id="c" x1="0" x2="12.501" y1="56.147" y2="56.147" gradientTransform="scale(.55047 1.81662)" gradientUnits="userSpaceOnUse"><stop offset=".22" stop-color="#b4ec36"/><stop offset=".52" stop-color="#b1eb36"/><stop offset=".71" stop-color="#a9e735"/><stop offset=".86" stop-color="#9ae034"/><stop offset="1" stop-color="#86d633"/></linearGradient></defs><g transform="translate(-34 -34)"><title>Page-1</title><g transform="translate(34.023 -34.016)"><title>Cognitive Services Bot Profile.20012</title><title>Sheet.20013</title><g transform="translate(0 -.6)"><title>Sheet.20014</title><path d="M46.47 124.71a4.51 4.502-180 0 0 4.54-4.4 3.34 3.335-180 0 0 0-.57c-1.77-14.24-10.02-25.81-25.45-25.81-15.44 0-23.99 9.7-25.56 25.74a4.577 4.569-180 0 0 4.08 5.01h42.39z" style="fill:url(#a);stroke:none;stroke-width:34;stroke-linecap:butt"/></g><g transform="translate(17.739 -11.139)"><title>Sheet.20015</title><path d="M7.75 107.5A14.866 14.84 0 0 1 0 105.33l7.75 19.38 7.62-19.14a14.465 14.44 0 0 1-7.62 1.93" style="fill:#fff;fill-opacity:.8;stroke:none;stroke-width:34;stroke-linecap:butt"/></g><g transform="translate(11.225 -28.146)"><title>Sheet.20016</title><ellipse cx="14.298" cy="110.435" rx="14.298" ry="14.273" style="fill:url(#b);stroke:none;stroke-width:34;stroke-linecap:butt"/></g><g transform="rotate(31.8 27.92 176.956)"><title>Sheet.20017</title><path d="M0 101.998h6.882v22.711H0z" style="fill:url(#c);stroke:none;stroke-width:34;stroke-linecap:butt"/></g><g transform="translate(42.757 -21.293)"><title>Sheet.20018</title><path d="m1.51 118.66 5.83 3.65-1.51 2.4L0 121.06Z" style="fill:#0078d4;stroke:none;stroke-width:34;stroke-linecap:butt"/></g><g transform="translate(30.934)"><title>Sheet.20019</title><path d="m0 119.91.23 4.8 4.35-1.9a3.34 3.335-180 0 0 1.7-1.44l-5.71-3.66a3.909 3.902-180 0 0-.57 2.2" style="fill:#f2f2f2;stroke:none;stroke-width:34;stroke-linecap:butt"/></g><g transform="translate(44.447 -23.694)"><title>Sheet.20020</title><path d="m4.55 119.67.54.33a3.113 3.108 0 0 1 1 4.28l-.27.43L0 121.08l.27-.42a3.113 3.108 0 0 1 4.28-.99" style="fill:#5ea0ef;stroke:none;stroke-width:34;stroke-linecap:butt"/></g><g transform="translate(31.035)"><title>Sheet.20021</title><path d="m0 122.14 2.51 1.57-2.38 1z" style="fill:#0078d4;stroke:none;stroke-width:34;stroke-linecap:butt"/></g></g></g></svg>