<svg xmlns="http://www.w3.org/2000/svg" xml:space="preserve" width="53.86" height="56.692" style="font-size:12px;overflow:visible;color-interpolation-filters:sRGB;fill-rule:evenodd;stroke-linecap:square;stroke-miterlimit:3" viewBox="0 0 53.86 56.692"><defs><linearGradient id="a" x1="0" x2="50.722" y1="63.067" y2="63.067" gradientTransform="scale(.91243 1.09598)" gradientUnits="userSpaceOnUse"><stop offset="0" stop-color="#0078d4"/><stop offset=".815" stop-color="#5ea0ef"/></linearGradient></defs><g transform="translate(-34 -34.002)"><title>Page-1</title><g transform="translate(34 -34.016)"><title>Cognitive Services Form Recogniser.19855</title><title>Sheet.19856</title><g transform="translate(.33 -1.512)"><title>Sheet.19857</title><path d="M26.03 69.94H1.9A1.907 1.87-180 0 0 0 71.81v51.03a1.907 1.87-180 0 0 1.9 1.87h41.82a1.907 1.87-180 0 0 1.9-1.87V89.07a1.907 1.87-180 0 0-1.9-1.87H29.84a1.907 1.87 0 0 1-1.91-1.87V71.81a1.904 1.868-180 0 0-1.9-1.87" style="fill:#83b9f9;stroke:none;stroke-width:34;stroke-linecap:butt"/></g><g transform="translate(0 -1.102)"><title>Sheet.19858</title><path d="M25.48 71.92v12.82a4.798 4.706-180 0 0 4.79 4.7h13.16v32.47H2.84V71.92Zm.92-2.8H1.93A1.927 1.89-180 0 0 0 71.01v51.81a1.927 1.89-180 0 0 1.93 1.89h42.43a1.927 1.89-180 0 0 1.92-1.89V88.54a1.927 1.89-180 0 0-1.92-1.89H30.27a1.927 1.89 0 0 1-1.93-1.89V71.01a1.927 1.89-180 0 0-1.92-1.89z" style="fill:url(#a);stroke:none;stroke-width:34;stroke-linecap:butt"/></g><g transform="translate(27.67 -38.794)"><title>Sheet.19859</title><path d="M17.88 124.71 0 107.23v14.24a3.282 3.219-180 0 0 3.26 3.24z" style="fill:#0078d4;stroke:none;stroke-width:34;stroke-linecap:butt"/></g><g transform="translate(6.65 -26.176)"><title>Sheet.19860</title><path d="M0 122.92a1.82 1.786-180 0 0 1.82 1.79h27.55a1.82 1.786-180 0 0 1.82-1.79v-.71a1.82 1.786-180 0 0-1.82-1.78H1.82A1.82 1.786-180 0 0 0 122.21Z" style="fill:#fff;stroke:none;stroke-width:34;stroke-linecap:butt"/></g><g transform="translate(6.65 -17.502)"><title>Sheet.19861</title><path d="M0 122.92a1.82 1.786-180 0 0 1.82 1.79h27.55a1.82 1.786-180 0 0 1.82-1.79v-.71a1.82 1.786-180 0 0-1.82-1.78H1.82A1.82 1.786-180 0 0 0 122.21Z" style="fill:#fff;fill-opacity:.8;stroke:none;stroke-width:34;stroke-linecap:butt"/></g><g transform="translate(6.65 -8.825)"><title>Sheet.19862</title><path d="M0 122.92a1.82 1.786-180 0 0 1.82 1.79h27.55a1.82 1.786-180 0 0 1.82-1.79v-.71a1.82 1.786-180 0 0-1.82-1.78H1.82A1.82 1.786-180 0 0 0 122.21Z" style="fill:#fff;fill-opacity:.6;stroke:none;stroke-width:34;stroke-linecap:butt"/></g><g transform="translate(16.329)"><title>Sheet.19863</title><g transform="translate(1.13 -.67)"><title>Sheet.19864</title><path d="M21.38 124.71c-6.67 0-12.15-5.04-15.04-13.86A146.36 143.553-180 0 0 0 97.4c4.24.05 19.06.2 21.89.2 6.79 0 12.04 7.95 12.04 14.81a12.569 12.328 0 0 1-12.55 12.3" style="fill:#50e6ff;stroke:none;stroke-width:34;stroke-linecap:butt"/></g><title>Sheet.19865</title><path d="M2.25 97.42c5.28.05 18.16.18 20.77.18 6.4 0 11.36 7.59 11.36 14.12a11.881 11.654 0 0 1-11.89 11.66c-6.34 0-11.59-4.89-14.39-13.4a132.533 129.991-180 0 0-5.85-12.56M0 96.05s5.58 10.6 6.81 14.33c2.82 8.58 8.39 14.33 15.7 14.33a13.24 12.986-180 0 0 13.24-12.99c0-7.17-5.41-15.46-12.73-15.46-3.31 0-23.02-.21-23.02-.21" style="fill:#50e6ff;stroke:none;stroke-width:34;stroke-linecap:butt"/></g><g transform="translate(24.852)"><title>Sheet.19866</title><ellipse cx="14.502" cy="110.485" rx="14.502" ry="14.224" style="fill:#fff;stroke:none;stroke-width:34;stroke-linecap:butt"/></g><g transform="translate(26.39 -4.164)"><title>Sheet.19867</title><path d="M12.96 101.93A12.967 12.718 0 1 1 0 114.65a12.98 12.73 0 0 1 12.96-12.72m0-1.51a14.505 14.227-180 1 0 14.51 14.23 14.502 14.224-180 0 0-14.51-14.23" style="fill:#50e6ff;stroke:none;stroke-width:34;stroke-linecap:butt"/></g><g transform="translate(32.918 -8.006)"><title>Sheet.19868</title><path d="M4.68 116.65H0v-4.6h4.68zm8.19-4.59H8.19v4.59h4.68zm-8.19 8.06H0v4.59h4.68zm8.19 0H8.19v4.59h4.68z" style="fill:#50e6ff;stroke:none;stroke-width:34;stroke-linecap:butt"/></g></g></g></svg>