<svg xmlns="http://www.w3.org/2000/svg" xml:space="preserve" width="56.69" height="53.865" style="font-size:12px;overflow:visible;color-interpolation-filters:sRGB;fill-rule:evenodd;stroke-linecap:square;stroke-miterlimit:3" viewBox="0 0 56.69 53.865"><defs><linearGradient id="a" x1="0" x2="46.942" y1="98.606" y2="98.606" gradientTransform="scale(1.20766 .82805)" gradientUnits="userSpaceOnUse"><stop offset="0" stop-color="#0078d4"/><stop offset=".815" stop-color="#5ea0ef"/></linearGradient><linearGradient id="b" x1="0" x2="20.622" y1="145.066" y2="145.066" gradientTransform="scale(1.37477 .7274)" gradientUnits="userSpaceOnUse"><stop offset=".15" stop-color="#ccc"/><stop offset="1" stop-color="#707070"/></linearGradient></defs><g transform="translate(-32.644 -32.64)"><title>Page-1</title><g transform="translate(32.644 -34.016)"><title>Cognitive Services Content Moderator.19945</title><title>g12</title><g transform="translate(0 -14.995)"><title>rect2</title><path d="M0 118.57a1.893 1.946-180 0 0 1.89 1.95H54.8a1.893 1.946-180 0 0 1.89-1.95V83.6a1.893 1.946-180 0 0-1.89-1.95H1.89A1.893 1.946-180 0 0 0 83.6Z" style="fill:url(#a);stroke:none;stroke-width:32.64419937;stroke-linecap:butt"/></g><g transform="translate(14.183)"><title>path4</title><path d="M25.53 117.28c-5.6-.9-5.82-5.06-5.81-11.76H8.6c0 6.7-.2 10.86-5.81 11.76A3.294 3.388-180 0 0 0 120.52h28.35a3.313 3.407-180 0 0-2.82-3.24" style="fill:url(#b);stroke:none;stroke-width:32.64419937;stroke-linecap:butt"/></g><g transform="translate(4.668 -20.63)"><title>path6</title><path d="M12.2 120.52H.94a.945.972 0 0 1-.945-.972L0 93.89a.945.972 0 0 1 .945-.972l11.255.002a.945.972 0 0 1 .945.972l-.005 25.658a.945.972 0 0 1-.945.972zm18.05-.97V93.89a.945.972-180 0 0-.945-.972l-11.255.002a.945.972-180 0 0-.945.972l.005 25.658a.945.972-180 0 0 .945.972l11.245-.002a.945.972-180 0 0 .945-.972z" style="fill:#fff;fill-opacity:.3;stroke:none;stroke-width:32.64419937;stroke-linecap:butt"/></g><g transform="translate(38.885 -20.63)"><title>rect8</title><path d="M0 119.55a.945.972-180 0 0 .945.972l11.255-.002a.945.972-180 0 0 .945-.972L13.14 93.89a.945.972-180 0 0-.945-.972L.94 92.92a.945.972-180 0 0-.945.972z" style="fill:#faa21d;stroke:none;stroke-width:32.64419937;stroke-linecap:butt"/></g><g transform="translate(6.585 -19.998)"><title>path10</title><path d="M40.03 110.15h-2.3a.52.534 0 0 1-.539-.492L36.95 98.89a.513.528 0 0 1 .539-.515l2.791.005a.517.531 0 0 1 .539.515l-.249 10.765a.52.534 0 0 1-.539.492zm-1.15 1.34a1.836 1.888-180 1 0 1.84 1.88 1.836 1.888-180 0 0-1.85-1.87zm-12.8-8.14a.296.304-180 0 0-.419 0l-5.361 5.51-2.03-2.09a.296.304-180 0 0-.419 0l-.481.48a.296.304-180 0 0 0 .43l2.71 2.79a.315.324-180 0 0 .422 0l6.048-6.22a.296.304-180 0 0 0-.43zm-17.33 0a.296.304-180 0 0-.419 0l-5.351 5.51-2.01-2.12a.315.324-180 0 0-.422 0l-.468.48a.315.324-180 0 0 0 .43l2.71 2.79h.01a.296.304-180 0 0 .419 0l6.011-6.19a.296.304-180 0 0 0-.43zm35.74 17.17H33.25a1.54 1.584 0 0 1-1.54-1.58V93.26a1.54 1.584 0 0 1 1.54-1.58H44.5a1.54 1.584 0 0 1 1.53 1.58v25.66a1.54 1.584 0 0 1-1.53 1.58ZM33.25 92.9a.36.37-180 0 0-.356.366l-.004 25.654a.36.37-180 0 0 .356.366l11.254-.006a.36.37-180 0 0 .356-.366L44.85 93.26a.36.37-180 0 0-.356-.366z" style="fill:#fff;stroke:none;stroke-width:32.64419937;stroke-linecap:butt"/></g></g></g></svg>