<svg xmlns="http://www.w3.org/2000/svg" xml:space="preserve" width="56.69" height="56.69" style="font-size:12px;overflow:visible;color-interpolation-filters:sRGB;fill-rule:evenodd;stroke-linecap:square;stroke-miterlimit:3" viewBox="0 0 56.69 56.69"><defs><linearGradient id="a" x1="0" x2="51.17" y1="73.54" y2="73.54" gradientUnits="userSpaceOnUse"><stop offset="0" stop-color="#5ea0ef"/><stop offset="1" stop-color="#0078d4"/></linearGradient></defs><g transform="translate(-34 -34.004)"><title>Page-1</title><g transform="translate(34 -34.016)"><title>Cognitive Services Language Understanding.19785</title><title>Sheet.19786</title><title>Sheet.19787</title><path d="M0 96.36a28.347 28.347-180 0 0 28.35 28.35 28.347 28.347-180 0 0 28.34-28.35 28.347 28.347-180 0 0-28.34-28.34A28.347 28.347-180 0 0 0 96.36" style="fill:#0078d4;stroke:none;stroke-width:34;stroke-linecap:butt"/><g transform="translate(2.762 -2.765)"><title>Sheet.19788</title><path d="M0 99.13a25.58 25.58-180 0 0 25.58 25.58 25.58 25.58-180 0 0 25.59-25.58v-.01a25.58 25.58-180 0 0-25.59-25.58A25.58 25.58-180 0 0 0 99.12Z" style="fill:url(#a);stroke:none;stroke-width:34;stroke-linecap:butt"/></g><g transform="translate(13.364 -11.56)"><title>Sheet.19789</title><path d="M6.83 124.7a6.4 6.4 0 0 1-3.89-.95 4.4 4.4 0 0 1-1.13-3.46v-9c0-1.47-.6-2.24-1.81-2.24v-2.25c1.21 0 1.81-.78 1.81-2.34v-8.82a4.6 4.6 0 0 1 1.13-3.55 5.86 5.86 0 0 1 3.89-.94v2.25c-1.3 0-1.99.69-1.99 2.16v8.64c0 1.99-.6 3.2-1.89 3.72a3.6 3.6 0 0 1 1.89 3.72v8.56a3 3-180 0 0 .44 1.73 1.9 1.9-180 0 0 1.46.52zm14.89-33.56a6.4 6.4 0 0 1 3.89.95 4.4 4.4 0 0 1 1.12 3.46v9c0 1.47.61 2.25 1.82 2.25v2.25c-1.21 0-1.82.77-1.82 2.33v8.74a4.6 4.6 0 0 1-1.12 3.55 5.82 5.82 0 0 1-3.89 1.04v-2.25c1.29 0 1.99-.69 1.99-2.16v-8.66c0-1.99.6-3.2 1.89-3.72a3.6 3.6 0 0 1-1.89-3.72v-8.56a3 3-180 0 0-.44-1.73 1.9 1.9-180 0 0-1.47-.52Z" style="fill:#fff;stroke:none;stroke-width:34;stroke-linecap:butt"/></g></g></g></svg>