<svg xmlns="http://www.w3.org/2000/svg" xml:space="preserve" width="45.35" height="56.69" style="font-size:12px;overflow:visible;color-interpolation-filters:sRGB;fill-rule:evenodd;stroke-linecap:square;stroke-miterlimit:3" viewBox="0 0 45.35 56.69"><defs><linearGradient id="a" x1="0" x2="50.704" y1="60.838" y2="60.838" gradientTransform="scale(.8944 1.11806)" gradientUnits="userSpaceOnUse"><stop offset="0" stop-color="#0078d4"/><stop offset=".815" stop-color="#5ea0ef"/></linearGradient></defs><g transform="translate(-34 -34.004)"><title>Page-1</title><g transform="translate(34 -34.016)"><title>Cognitive Services Text Analytics.19712</title><title>Sheet.19713</title><g transform="translate(.33 -.422)"><title>Sheet.19714</title><path d="M25.5 68.86H1.87A1.867 1.906-180 0 0 0 70.77v52.03a1.867 1.906-180 0 0 1.87 1.91h40.96a1.867 1.906-180 0 0 1.85-1.91V88.37a1.867 1.906-180 0 0-1.85-1.91h-13.6a1.867 1.906 0 0 1-1.85-1.91V70.77a1.851 1.89-180 0 0-1.88-1.91" style="fill:#5ea0ef;stroke:none;stroke-width:34;stroke-linecap:butt"/></g><title>Sheet.19715</title><path d="M24.97 70.88v13.06a4.702 4.8-180 0 0 4.69 4.8h12.9v33.11H2.8V70.88Zm.9-2.86H1.89A1.894 1.934-180 0 0 0 69.95v52.82a1.894 1.934-180 0 0 1.89 1.94h41.57a1.894 1.934-180 0 0 1.89-1.94V87.81a1.894 1.934-180 0 0-1.89-1.93h-13.8a1.894 1.934 0 0 1-1.89-1.94V69.95a1.894 1.934-180 0 0-1.9-1.93" style="fill:url(#a);stroke:none;stroke-width:34;stroke-linecap:butt"/><g transform="translate(27.114 -38.444)"><title>Sheet.19716</title><path d="M17.52 124.71 0 106.88v14.53a3.212 3.279-180 0 0 3.19 3.3z" style="fill:#0078d4;stroke:none;stroke-width:34;stroke-linecap:butt"/></g><g transform="translate(6.52 -24.488)"><title>Sheet.19717</title><path d="M0 123.63a1.052 1.074-180 0 0 1.05 1.08h27.39a1.052 1.074-180 0 0 1.05-1.08v-.03a1.052 1.074-180 0 0-1.05-1.07H1.05A1.052 1.074-180 0 0 0 123.6Z" style="fill:#9cebff;stroke:none;stroke-width:34;stroke-linecap:butt"/></g><g transform="translate(6.52 -18.35)"><title>Sheet.19718</title><path d="M0 123.63a1.052 1.074-180 0 0 1.05 1.08h27.39a1.052 1.074-180 0 0 1.05-1.08v-.03a1.052 1.074-180 0 0-1.05-1.07H1.05A1.052 1.074-180 0 0 0 123.6Z" style="fill:#9cebff;fill-opacity:.8;stroke:none;stroke-width:34;stroke-linecap:butt"/></g><g transform="translate(6.52 -12.208)"><title>Sheet.19719</title><path d="M0 123.63a1.052 1.074-180 0 0 1.05 1.08h27.39a1.052 1.074-180 0 0 1.05-1.08v-.03a1.052 1.074-180 0 0-1.05-1.07H1.05A1.052 1.074-180 0 0 0 123.6Z" style="fill:#9cebff;fill-opacity:.6;stroke:none;stroke-width:34;stroke-linecap:butt"/></g><g transform="translate(18.358 -8.07)"><title>Sheet.19720</title><path d="M.93 111.74a.926.945 0 0 1-.926-.945L0 102.92a.926.945 0 0 1 .926-.945l7.714-.005a.933.953 0 0 1 0 1.906l-6.77.004v6.91a.926.945 0 0 1-.941.948zm21.42-.95v-7.87a.926.945-180 0 0-.926-.945l-7.714-.005a.933.953-180 0 0 0 1.906l6.77.004v6.91a.935.954-180 1 0 1.87 0m0 12.97v-7.88a.935.954-180 1 0-1.87 0v6.91h-6.76a.926.945-180 1 0 0 1.89h7.72a.926.945-180 0 0 .923-.93zm-12.79 0a.926.945-180 0 0-.926-.945l-6.764-.005v-6.92a.933.953-180 1 0-1.867 0L0 123.76a.926.945-180 0 0 .926.945l7.714.005a.926.945-180 0 0 .926-.954z" style="fill:#fff;stroke:none;stroke-width:34;stroke-linecap:butt"/></g></g></g></svg>