<svg xmlns="http://www.w3.org/2000/svg" xml:space="preserve" width="56.69" height="56.76" style="font-size:12px;overflow:visible;color-interpolation-filters:sRGB;fill-rule:evenodd;stroke-linecap:square;stroke-miterlimit:3" viewBox="0 0 56.69 56.76"><defs><linearGradient id="a" x1="0" x2="35.2" y1="90.019" y2="90.019" gradientTransform="scale(1.01647 .9838)" gradientUnits="userSpaceOnUse"><stop offset="0" stop-color="#5ea0ef"/><stop offset="1" stop-color="#0078d4"/></linearGradient></defs><g transform="translate(-32.414 -32.418)"><title>Page-1</title><g transform="translate(32.414 -34.016)"><title>Cognitive Services Speech.19721</title><title>g8</title><g transform="translate(20.92)"><title>path2</title><path d="M2.07 88.56H33.7a2.076 2.078 0 0 1 2.07 2.08v25.17a2.079 2.081 0 0 1-2.07 2.07H20.75a.34.34-180 0 0-.211.073L13.9 123.05a.69.69 0 0 1-1.112-.549l.002-4.271a.346.347-180 0 0-.343-.347L2.07 117.88A2.076 2.078 0 0 1 0 115.81V90.64a2.079 2.081 0 0 1 2.07-2.08" style="fill:#50e6ff;stroke:none;stroke-width:32.4137001;stroke-linecap:butt"/></g><g transform="translate(0 -22.126)"><title>path4</title><path d="M35.78 90.63v25.17a2.076 2.078 0 0 1-2.08 2.08H23.31a.346.347-180 0 0-.343.347l-.007 4.273a.693.694 0 0 1-1.112.549l-6.618-5.099a.34.34-180 0 0-.211-.063L2.08 117.88A2.079 2.081 0 0 1 0 115.8V90.63a2.076 2.078 0 0 1 2.08-2.07H33.7a2.079 2.081 0 0 1 2.08 2.07" style="fill:url(#a);stroke:none;stroke-width:32.4137001;stroke-linecap:butt"/></g><g transform="translate(9.449 -17.72)"><title>path6</title><path d="M16.06 97.58a10.96 10.975 0 0 1-.22 2.21 11.616 11.63 0 0 1-.63 2.11 10.233 10.246 0 0 1-1.03 1.94 12.693 12.709 0 0 1-1.06 1.34.491.492 0 0 1-.712 0l-.098-.1a.5.501 0 0 1 0-.694 10.27 10.284-180 0 0 .94-1.186 9.965 9.978-180 0 0 1.51-3.64 10.211 10.224-180 0 0 0-3.98 9.858 9.87-180 0 0-.57-1.89 10.428 10.442-180 0 0-.95-1.74 9.786 9.798-180 0 0-.94-1.2.504.505 0 0 1 0-.694l.1-.096a.491.492 0 0 1 .709 0 11.197 11.211 0 0 1 1.051 1.35 10.876 10.89 0 0 1 1.03 1.94 11.843 11.858 0 0 1 .63 2.1 10.394 10.407 0 0 1 .24 2.23m-3.7-3.02A7.924 7.934-180 0 0 11 92.37a.488.489-180 0 0-.712 0l-.098.1a.485.486-180 0 0-.031.665 6.746 6.755 0 0 1 .001 8.905.488.489-180 0 0 .032.669l.098.101a.488.489-180 0 0 .712 0 8.019 8.03-180 0 0 1.358-2.19 7.906 7.916-180 0 0 0-6.04zm-3.9.94a3.572 3.576 0 0 1 .45.79 3.427 3.431 0 0 1 0 2.59 3.184 3.188 0 0 1-.45.78.491.492-180 0 0 .044.646l.096.094a.5.501-180 0 0 .74-.038 4.476 4.481-180 0 0 .63-1.052 4.548 4.554-180 0 0 .34-1.73 4.68 4.686-180 0 0-.35-1.72 4.28 4.286-180 0 0-.61-1.05.498.498-180 0 0-.743-.041l-.107.101a.482.483-180 0 0-.044.63Zm-6.3-1.3H.99a.989.99-180 0 0-.989.987L0 99.98a.992.993-180 0 0 .989.99H2.17a.989.99 0 0 1 .7.29l2.95 2.94a.507.508-180 0 0 .35.145.589.59-180 0 0 .589-.59L6.76 91.4a.595.596-180 0 0-.595-.596.5.5-180 0 0-.353.145L2.87 93.93a.992.993 0 0 1-.7.278zm36.3 24.43a2.617 2.62 0 1 1-2.61 2.61 2.614 2.617 0 0 1 2.61-2.61m-10.96 2.63a2.617 2.62-180 1 0 2.62-2.61 2.617 2.62-180 0 0-2.62 2.61m-8.34 0a2.617 2.62-180 1 0 2.61-2.61 2.617 2.62-180 0 0-2.61 2.61" style="fill:#fff;stroke:none;stroke-width:32.4137001;stroke-linecap:butt"/></g></g></g></svg>