<svg xmlns="http://www.w3.org/2000/svg" xml:space="preserve" width="55.54" height="51.02" style="font-size:12px;overflow:visible;color-interpolation-filters:sRGB;fill-rule:evenodd;stroke-linecap:square;stroke-miterlimit:3" viewBox="0 0 55.54 51.02"><g transform="translate(-10.032 -10.034)"><title>Page-1</title><g transform="translate(9.456 -34.016)"><title>Cognitive Services Speaker Recognition.19726</title><title>Sheet.19727</title><path d="m8.73 69.29 9.19 9.37 25.61-26.17 3.13 3.19-28.81 29.36L5.47 72.42Zm41.9 20.93c-2.15-.06-4.04-1.59-4.36-3.65-.39-2.39 1.3-4.59 3.84-4.98 2.48-.34 5.28.93 5.93 4.25.65 4.78-3 8.7-8.47 9.23-.2 0-.26-.06-.26-.06l-.26-1.47s0-.13.13-.2c1.56-.53 2.93-1.26 3.45-3.12m-12.31 0c-2.15-.06-4.04-1.59-4.37-3.65-.39-2.39 1.3-4.59 3.85-4.98 2.47-.34 5.27.93 5.93 4.25.65 4.78-3 8.7-8.48 9.23-.19 0-.26-.06-.26-.06l-.26-1.47s0-.13.13-.2c1.63-.53 3-1.26 3.46-3.12M18.31 48.9c2.15.06 4.04 1.59 4.37 3.65.39 2.39-1.31 4.59-3.85 4.99-2.47.33-5.28-.93-5.93-4.26-.65-4.78 3-8.7 8.47-9.23.2 0 .26.06.26.06l.27 1.47s0 .13-.14.2c-1.56.46-2.93 1.19-3.45 3.12m-12.25 0c2.15.06 4.04 1.59 4.37 3.65.39 2.39-1.31 4.59-3.85 4.99-2.47.33-5.28-.93-5.93-4.26-.65-4.78 3-8.7 8.47-9.23.2 0 .26.06.26.06l.26 1.47s0 .13-.13.2c-1.63.46-2.93 1.19-3.45 3.12" style="fill:#0078d4;stroke:none;stroke-width:10.03279972;stroke-linecap:butt"/></g></g></svg>