<svg xmlns="http://www.w3.org/2000/svg" xml:space="preserve" width="56.69" height="56.69" style="font-size:12px;overflow:visible;color-interpolation-filters:sRGB;fill-rule:evenodd;stroke-linecap:square;stroke-miterlimit:3" viewBox="0 0 56.69 56.69"><defs><linearGradient id="a" x1="0" x2="56.69" y1="56.2" y2="56.2" gradientUnits="userSpaceOnUse"><stop offset="0" stop-color="#5ea0ef"/><stop offset="1" stop-color="#0078d4"/></linearGradient><linearGradient id="b" x1="0" x2="18.207" y1="88.521" y2="88.521" gradientTransform="scale(.94544 1.05771)" gradientUnits="userSpaceOnUse"><stop offset="0" stop-color="#fff"/><stop offset="1" stop-color="#fff"/></linearGradient><linearGradient id="c" x1=".247" x2="18.448" y1="88.458" y2="88.458" gradientTransform="scale(.9448 1.05842)" gradientUnits="userSpaceOnUse"><stop offset="0" stop-color="#fff"/><stop offset="1" stop-color="#fff"/></linearGradient></defs><g transform="translate(-22.18 -22.184)"><title>Page-1</title><g transform="translate(22.18 -34.016)"><title>Cognitive Services Text Translator.19705</title><title>g12</title><title>rect2</title><path d="M0 111a1.89 1.89-180 0 0 1.89 1.89H54.8a1.89 1.89-180 0 0 1.89-1.89V58.09a1.89 1.89-180 0 0-1.89-1.89H1.89A1.89 1.89-180 0 0 0 58.09Z" style="fill:url(#a);stroke:none;stroke-width:22.18029976;stroke-linecap:butt"/><g transform="translate(33.94 -6.866)"><title>path4</title><path d="M7.89 94a11.2 11.2-180 0 0-6.13 1.69v2.96a8.88 8.88 0 0 1 5.88-2.21c2.48 0 3.72 1.54 3.72 4.6l-5.41.76c-3.97.55-5.95 2.51-5.95 5.88a4.94 4.94-180 0 0 1.52 3.78 5.93 5.93-180 0 0 4.22 1.43 6.05 6.05-180 0 0 5.55-3.24h.07v2.82h2.89v-11.74c0-4.49-2.12-6.73-6.36-6.73m3.46 11.13a5.37 5.37 0 0 1-1.4 3.81 4.63 4.63 0 0 1-3.54 1.51 3.64 3.64 0 0 1-2.52-.84 2.75 2.75 0 0 1-.95-2.15 2.88 2.88 0 0 1 1.02-2.52A7.1 7.1 0 0 1 7 103.93l4.35-.6z" style="fill:#fff;stroke:none;stroke-width:22.18029976;stroke-linecap:butt"/></g><g transform="translate(31.33 -28.442)"><title>path6</title><path d="m12.08 112.64 4.84-4.98c.53-.52.33-.97-.5-.97h-2.16a.63.63 0 0 1-.63-.63c.07-3.21-.83-12.12-13-12.43a.63.63-180 0 0-.63.63v3.15a.63.63-180 0 0 .68.63 7.474 7.474 0 0 1 9.02 8.02.63.63 0 0 1-.63.63H7.1c-1.02 0-1.19.31-.51.97l4.49 4.98a.63.63-180 0 0 1.002 0z" style="fill:url(#b);stroke:none;stroke-width:22.18029976;stroke-linecap:butt"/></g><g transform="translate(8.866 -6.403)"><title>path8</title><path d="M5.37 93.88.53 98.86c-.53.52-.34.98.5.98h2.15a.63.63 0 0 1 .63.63c-.08 3.21.82 12.12 12.99 12.42a.63.63-180 0 0 .63-.63v-3.15a.63.63-180 0 0-.677-.63 7.474 7.474 0 0 1-9.013-8.04.63.63 0 0 1 .63-.63h1.99c1.01 0 1.18-.31.5-.97l-4.48-4.96a.63.63-180 0 0-1.011 0z" style="fill:url(#c);stroke:none;stroke-width:22.18029976;stroke-linecap:butt"/></g><g transform="translate(7.065 -29.014)"><title>path10</title><path d="M13.82 99.07a8.25 8.25 0 0 1 4.46 2.35 6.3 6.3 0 0 1-.05 9.13 9.56 9.56 0 0 1-6.03 2.34l-.89-2.03a8.6 8.6-180 0 0 5.04-1.45 4.1 4.1-180 0 0 1.78-3.39 4.47 4.47-180 0 0-1.38-3.23 6.44 6.44-180 0 0-3.45-1.8 20.4 20.4 0 0 1-3.58 7.24 7 7-180 0 0 .82 1.44l-1.68 1.17a7 7 0 0 1-.69-1.04 7.3 7.3 0 0 1-4.55 2 3.6 3.6 0 0 1-2.58-1A3.92 3.92 0 0 1 0 107.85a7.5 7.5 0 0 1 1.68-4.59 10.45 10.45 0 0 1 4.3-3.34c.05-1.68.11-2.86.17-3.53-1.75.07-3.14.1-4.15.1l-.34-1.95c1.09.04 2.64.03 4.64-.05a38 38 0 0 1 .66-4.29l1.95.28-.54 3.86a76 76-180 0 0 8.16-.97l.41 1.89a85 85 0 0 1-8.75 1.01 22 22-180 0 0-.18 2.92 12.8 12.8 0 0 1 2.94-.38c.26 0 .51 0 .77.02a7.6 7.6-180 0 0 .36-1.61l2 .29a12 12 0 0 1-.26 1.56m-6.55 8.73a22 22 0 0 1-1.2-5.74 7.8 7.8-180 0 0-2.87 2.52 5.55 5.55-180 0 0-1.06 3.15 2.17 2.17-180 0 0 .45 1.6 1.37 1.37-180 0 0 .92.41 5 5-180 0 0 1.65-.43 6.15 6.15-180 0 0 2.11-1.51m3.91-6.96a11.7 11.7-180 0 0-3.07.46 18 18-180 0 0 .72 4.61 18.9 18.9-180 0 0 2.35-5.07" style="fill:#fff;stroke:none;stroke-width:22.18029976;stroke-linecap:butt"/></g></g></g></svg>