<svg xmlns="http://www.w3.org/2000/svg" xml:space="preserve" width="51.024" height="56.693" style="font-size:12px;overflow:visible;color-interpolation-filters:sRGB;fill-rule:evenodd;stroke-linecap:square;stroke-miterlimit:3" viewBox="0 0 51.024 56.693"><g transform="translate(-12.49 -12.491)"><title>Page-1</title><g transform="translate(12.49 -34.016)"><title>Cognitive Services Content Extraction.19952</title><g transform="translate(20.78 -10.43)"><title>Sheet.19953</title><path d="M30.22 73.61H0v29.59h30.22z" style="fill:#50e6ff;stroke:none;stroke-width:12.48980045;stroke-linecap:butt"/></g><g transform="translate(20.723 -9.996)"><title>Sheet.19954</title><path d="M.02 93.01v10.19h30.25v-6.23.06l-4.8-4.72-4.78 4.72L8.05 84.94 0 92.84Z" style="fill:#0078d4;stroke:none;stroke-width:12.48980045;stroke-linecap:butt"/></g><g transform="translate(39.12 -28.774)"><title>Sheet.19955</title><path d="M7.87 99.34c0 2.14-1.76 3.86-3.94 3.86-2.17 0-3.93-1.73-3.93-3.86s1.73-3.89 3.9-3.89c2.18 0 3.97 1.74 3.97 3.89" style="fill:#0078d4;stroke:none;stroke-width:12.48980045;stroke-linecap:butt"/></g><g transform="translate(.022 -42.583)"><title>Sheet.19956</title><path d="M17 89.09H0v11.56h2.62v2.55l2.62-2.55H17Z" style="fill:#0078d4;stroke:none;stroke-width:12.48980045;stroke-linecap:butt"/></g><g transform="translate(0 -.023)"><title>Sheet.19957</title><path d="M16.99 83.28H0v19.92h16.99z" style="fill:#50e6ff;stroke:none;stroke-width:12.48980045;stroke-linecap:butt"/></g><g transform="translate(20.734)"><title>Sheet.19958</title><path d="M30.29 96.53H0v6.67h30.29z" style="fill:#0078d4;stroke:none;stroke-width:12.48980045;stroke-linecap:butt"/></g><g transform="translate(20.78 -51.75)"><title>Sheet.19959</title><path d="M30.23 98.31H0v4.89h30.23z" style="fill:#0078d4;stroke:none;stroke-width:12.48980045;stroke-linecap:butt"/></g><g transform="translate(.08 -35.919)"><title>Sheet.19960</title><path d="M16.94 99.12H0v4.08h16.94z" style="fill:#0078d4;stroke:none;stroke-width:12.48980045;stroke-linecap:butt"/></g><g transform="translate(.08 -30.464)"><title>Sheet.19961</title><path d="M16.94 99.12H0v4.08h16.94z" style="fill:#0078d4;stroke:none;stroke-width:12.48980045;stroke-linecap:butt"/></g><g transform="translate(.08 -25.01)"><title>Sheet.19962</title><path d="M16.94 99.12H0v4.08h16.94z" style="fill:#50e6ff;stroke:none;stroke-width:12.48980045;stroke-linecap:butt"/></g><g transform="translate(20.78 -45.141)"><title>Sheet.19963</title><path d="M30.23 98.31H0v4.89h30.23z" style="fill:#0078d4;stroke:none;stroke-width:12.48980045;stroke-linecap:butt"/></g></g></g></svg>