<svg xmlns="http://www.w3.org/2000/svg" xml:space="preserve" width="53.86" height="56.483" style="font-size:12px;overflow:visible;color-interpolation-filters:sRGB;fill-rule:evenodd;stroke-linecap:square;stroke-miterlimit:3" viewBox="0 0 53.86 56.483"><g transform="translate(-5.386 -5.667)"><title>Page-1</title><g transform="translate(5.386 -34.016)"><title>Cognitive Services QnA Bot.19746</title><g transform="translate(0 -2.708)"><title>Sheet.19747</title><path d="M26.93 96.38c14.87 0 26.93-12.09 26.93-26.99 0-14.91-12.06-27-26.93-27S0 54.48 0 69.39c0 14.9 12.06 26.99 26.93 26.99" style="fill:#0078d4;stroke:none;stroke-width:.75;stroke-linecap:butt"/></g><g transform="translate(4.535)"><title>Sheet.19748</title><path d="M11.66 77.26 4.1 85.67.27 95.04c-.27.67.4 1.34 1.07 1.06l14.01-5.83 5.18-8.13z" style="fill:#0078d4;stroke:none;stroke-width:.75;stroke-linecap:butt"/></g><g transform="translate(14.65 -17.387)"><title>Sheet.19749</title><path d="M0 96.38c0-6.81 5.49-12.31 12.28-12.31s12.28 5.5 12.28 12.31z" style="fill:#50e6ff;stroke:none;stroke-width:.75;stroke-linecap:butt"/></g><g transform="translate(19.963 -31.643)"><title>Sheet.19750</title><path d="M13.93 89.4c0 3.85-3.12 6.98-6.96 6.98C3.12 96.38 0 93.25 0 89.4c0-3.86 3.12-6.99 6.97-6.99 3.84 0 6.96 3.13 6.96 6.99" style="fill:#50e6ff;stroke:none;stroke-width:.75;stroke-linecap:butt"/></g></g></g></svg>