<svg xmlns="http://www.w3.org/2000/svg" xml:space="preserve" width="56.691" height="56.036" style="font-size:12px;overflow:visible;color-interpolation-filters:sRGB;fill-rule:evenodd;stroke-linecap:square;stroke-miterlimit:3" viewBox="0 0 56.691 56.036"><g transform="translate(-10.033 -10.035)"><title>Page-1</title><g transform="translate(10.033 -34.016)"><title>Cognitive Services Ink Recogniser.19816</title><g transform="translate(16.623)"><title>Sheet.19817</title><path d="m31.21 45.81-3-1.45a3.06 3.06 0 0 0-4.02 1.28l-1.12 2.09c-.8-.29-1.72.04-2.11.82l-2.02 3.95-2.12-1.05c-1.57-.78-3.5-.16-4.27 1.39L5.79 66.18c-.42.81-.09 1.81.73 2.22.84.44 1.88.11 2.31-.72l6.7-13.02 1.84.92L1.2 87.36l-.02 5.01c0 .9.28 1.71.75 2.39l-1.5 2.83c-.43.84-.09 1.88.77 2.31.85.43 1.89.09 2.32-.75l1.34-2.59c.82.11 1.68 0 2.5-.41l5.33-2.63 19.85-39.25c.42-.83.1-1.81-.72-2.24l.91-1.9c.78-1.61.09-3.54-1.52-4.32M10.08 90.9l-4.26 2.19c-.51.26-1.13-.11-1.13-.68l-.03-4.15 18.58-36.6 5.42 2.68zm18.6-40.43-2.47-1.21.82-1.63 2.49 1.23z" style="fill:#0078d4;stroke:none;stroke-width:10.03279972;stroke-linecap:butt"/></g><g transform="translate(41.771 -21.267)"><title>Sheet.19818</title><path d="M7.93 86.41c-.93.02-1.69.78-1.69 1.7 0 .93.78 1.7 1.73 1.7.04 0 .1 0 .15-.02 1.88.13 3.37 1.66 3.37 3.54 0 1.95-1.6 3.54-3.57 3.56H1.77L0 100.33h7.92c3.87-.01 7-3.17 7-7s-3.12-6.9-6.99-6.92" style="fill:#0078d4;stroke:none;stroke-width:10.03279972;stroke-linecap:butt"/></g><g transform="translate(0 -.289)"><title>Sheet.19819</title><path d="M13.73 96.87h-1.26c-4.91 0-8.9-3.92-8.9-8.78 0-4.83 3.99-8.77 8.9-8.77h4.44l1.8-3.43h-6.32C5.54 75.89 0 81.36 0 88.11s5.54 12.22 12.39 12.22h1.34c-.25-.52-.38-1.1-.38-1.73-.01-.61.13-1.19.38-1.73" style="fill:#0078d4;stroke:none;stroke-width:10.03279972;stroke-linecap:butt"/></g></g></g></svg>