<svg xmlns="http://www.w3.org/2000/svg" xml:space="preserve" width="56.69" height="56.692" style="font-size:12px;overflow:visible;color-interpolation-filters:sRGB;fill-rule:evenodd;stroke-linecap:square;stroke-miterlimit:3" viewBox="0 0 56.69 56.692"><defs><linearGradient id="a" x1="-.001" x2="32.686" y1="83.683" y2="83.683" gradientTransform="scale(.93313 1.07166)" gradientUnits="userSpaceOnUse"><stop offset="0" stop-color="#ffb34d"/><stop offset="1" stop-color="#faa21d"/></linearGradient><linearGradient id="b" x1="0" x2="27.094" y1="109.704" y2="109.704" gradientTransform="scale(1.09693 .91163)" gradientUnits="userSpaceOnUse"><stop offset="0" stop-color="#50e6ff"/><stop offset="1" stop-color="#32bedd"/></linearGradient></defs><g transform="translate(-34 -34.002)"><title>Page-1</title><g transform="translate(34 -34.016)"><title>Cognitive Services Language.19777</title><title>Sheet.19778</title><title>Sheet.19779</title><path d="M1.14 77.9A1.14 1.14 0 0 1 0 76.76v-7.61a1.14 1.14 0 0 1 1.14-1.13h7.14a1.137 1.137 0 1 1 0 2.27h-6v6.47a1.143 1.143 0 0 1-1.14 1.14m55.55-1.14v-7.61a1.14 1.14-180 0 0-1.14-1.13h-7.13a1.137 1.137-180 1 0 0 2.27h5.98v6.47a1.14 1.14-180 1 0 2.28 0zM9.42 123.57a1.137 1.137-180 0 0-1.14-1.14h-6v-6.46a1.14 1.14-180 0 0-2.28 0v7.6a1.14 1.14-180 0 0 1.14 1.14h7.14a1.14 1.14-180 0 0 1.14-1.14m47.27 0v-7.6a1.14 1.14-180 1 0-2.28 0v6.46h-5.98a1.14 1.14-180 0 0 0 2.28h7.14a1.14 1.14-180 0 0 1.12-1.14" style="fill:#faa21d;stroke:none;stroke-width:34;stroke-linecap:butt"/><g transform="translate(22.047 -14.306)"><title>Sheet.19780</title><path d="M30.5 90.72v32.95a1 1 0 0 1-.94 1.04H11.43a.885.885 0 0 1-.885-.885l-.005-15.465a2.976 2.976-180 0 0-2.93-2.73H.88a.885.885 0 0 1-.879-.882L0 90.72a.995.995 0 0 1 .945-1.04H29.54a1 1 0 0 1 .96 1.04" style="fill:url(#a);stroke:none;stroke-width:34;stroke-linecap:butt"/></g><g transform="translate(41.08 -36.52)"><title>Sheet.19781</title><path d="M6.54 124.71H.9a1.03 1.03 0 0 1-.9-1.12 1.033 1.033 0 0 1 .9-1.13h5.64a1.033 1.033 0 0 1 .9 1.13 1.03 1.03 0 0 1-.9 1.12" style="fill:#f78d1e;stroke:none;stroke-width:34;stroke-linecap:butt"/></g><g transform="translate(1.54 -7.357)"><title>Sheet.19782</title><path d="M28.11 100.01H1.61a1.67 1.67-180 0 0-1.61 1.5v17.92a1.65 1.65-180 0 0 1.61 1.5h8.77a.25.25 0 0 1 .255.249l-.005 3.011a.6.6-180 0 0 .655.517.6.6-180 0 0 .271-.11l.874-.567 2.43-1.61 2.2-1.47a.35.35 0 0 1 .164-.053l10.886.003a1.603 1.603-180 0 0 1.61-1.47v-17.92a1.647 1.647-180 0 0-1.61-1.5" style="fill:url(#b);stroke:none;stroke-width:34;stroke-linecap:butt"/></g><g transform="translate(5.178 -17.6)"><title>Sheet.19783</title><path d="M5.22 124.71H.9c-.5 0-.9-.54-.9-1.2s.4-1.19.9-1.19h4.32c.49 0 .9.53.9 1.19s-.4 1.2-.9 1.2" style="fill:#9cebff;stroke:none;stroke-width:34;stroke-linecap:butt"/></g><g transform="translate(4.954 -17.6)"><title>Sheet.19784</title><path d="M33.22 105.79h-11.2a1.125 1.125 0 1 1 0-2.25h11.2a1.125 1.125 0 1 1 0 2.25m10.57 4.88a1.124 1.124-180 0 0-1.13-1.12H31.95a1.125 1.125-180 1 0 0 2.25h10.71a1.124 1.124-180 0 0 1.13-1.13m-30.34 6.91a1.12 1.12-180 0 0-1.13-1.12H1.12a1.121 1.121-180 1 0 0 2.24h11.2a1.12 1.12-180 0 0 1.13-1.12m9.45 6a1.124 1.124-180 0 0-1.13-1.12H9.26a1.125 1.125-180 1 0 0 2.25h12.51a1.124 1.124-180 0 0 1.12-1.13z" style="fill:#f2f2f2;stroke:none;stroke-width:34;stroke-linecap:butt"/></g></g></g></svg>