<svg xmlns="http://www.w3.org/2000/svg" xml:space="preserve" width="57.906" height="57.919" style="font-size:12px;overflow:visible;color-interpolation-filters:sRGB;fill-rule:evenodd;stroke-linecap:square;stroke-miterlimit:3" viewBox="0 0 57.906 57.919"><defs><linearGradient id="a" x1="-2.336" x2="33.237" y1="92.657" y2="92.657" gradientTransform="scale(.99837 1.00163)" gradientUnits="userSpaceOnUse"><stop offset="0" stop-color="#5ea0ef"/><stop offset="1" stop-color="#0078d4"/></linearGradient></defs><g transform="translate(-34.003 -33.997)"><title>Page-1</title><g transform="translate(35.22 -35.223)"><title>Cognitive Services Bot Channel.20022</title><title>Sheet.20023</title><g transform="translate(2.915 -1.907)"><title>Sheet.20024</title><path d="M13.72 87.54 6.03 76.06l2.25-1.52 7.69 11.48Zm2.5 27.46-2.19-1.61-7.98 10.91 2.2 1.61zM8.67 98.84l-8.61-.2-.06 2.74 8.61.2zm35.82-22.75-2.21-1.58-8.18 11.48 2.2 1.58zm0 48.21-8.19-11.2-2.19 1.61 8.19 11.21zm6.05-22.92-.06-2.73-8.71.2.07 2.73z" style="fill:#83b9f9;stroke:none;stroke-width:34;stroke-linecap:butt"/></g><g transform="translate(12.499 -12.317)"><title>Sheet.20025</title><path d="M29.62 99.88A17.79 17.84-180 0 0 4.73 96.4l-.18.14a17.77 17.818-180 1 0 21.78 28.16 17.84 17.888-180 0 0 3.29-24.82M0 109.47a15.523 15.565 0 0 1 1.72-6.04h4.3a28.855 28.934-180 0 0-.82 6.04zm8.41-6.04h5.89v6.04H7.48a26.38 26.453 0 0 1 .93-6.04m8.17 0h5.89a26.38 26.453 0 0 1 .93 6.04h-6.82zm-2.28 8.33v6.05H8.41a26.407 26.479 0 0 1-.93-6.05zm2.28 0h6.82a26.407 26.479 0 0 1-.92 6.05h-5.9zm9.11 0h5.17a15.62 15.662 0 0 1-1.7 6.05h-4.3a29.132 29.211-180 0 0 .82-6.05zm0-2.29a29.07 29.15-180 0 0-.83-6.04h4.31a15.375 15.417 0 0 1 1.7 6.04zm2.01-8.33h-3.54a17.308 17.356-180 0 0-2.5-4.74 15.362 15.404 0 0 1 6.04 4.74m-6 0h-5.12v-5.81a9.25 9.275 0 0 1 5.12 5.81m-7.4-5.81v5.81H9.19a9.253 9.278 0 0 1 5.11-5.81m-8.36 3.02.16-.11a15.555 15.598 0 0 1 3.13-1.84 17.292 17.34-180 0 0-2.51 4.74H3.18a15.513 15.556 0 0 1 2.76-2.8zM0 111.76h5.2a28.916 28.995-180 0 0 .82 6.05H1.71A15.442 15.485 0 0 1 0 111.76m3.22 8.39-.03-.04h3.54a17.402 17.45-180 0 0 2.51 4.74 15.381 15.423 0 0 1-6.04-4.72zm5.98-.04h5.1v5.81a9.272 9.297 0 0 1-5.11-5.83zm7.4 5.81v-5.81h5.1a9.265 9.29 0 0 1-5.12 5.8zm8.37-3.03a15.442 15.485 0 0 1-3.29 1.96 17.318 17.365-180 0 0 2.51-4.75h3.54a15.356 15.398 0 0 1-2.81 2.79z" style="fill:url(#a);stroke:none;stroke-width:34;stroke-linecap:butt"/></g><title>Sheet.20026</title><path d="M56.69 98.3a4.163 4.174 0 1 1-4.15-4.18 4.163 4.174 0 0 1 4.15 4.18M2.94 94.12a4.163 4.174-180 1 0 4.17 4.18 4.163 4.174-180 0 0-4.17-4.18m7.13 24.67a4.163 4.174-180 1 0 4.16 4.17 4.163 4.174-180 0 0-4.16-4.17m35.62 0a4.163 4.174-180 1 0 4.16 4.17 4.163 4.174-180 0 0-4.17-4.17zM10.07 69.22a4.163 4.174-180 1 0 4.16 4.17 4.16 4.171-180 0 0-4.16-4.17m35.92 0a4.163 4.174-180 1 0 4.17 4.17 4.163 4.174-180 0 0-4.17-4.17" style="fill:#a67af4;stroke:none;stroke-width:34;stroke-linecap:butt"/></g></g></svg>