<svg xmlns="http://www.w3.org/2000/svg" xml:space="preserve" width="56.695" height="56.76" style="font-size:12px;overflow:visible;color-interpolation-filters:sRGB;fill-rule:evenodd;stroke-linecap:square;stroke-miterlimit:3" viewBox="0 0 56.695 56.76"><defs><linearGradient id="a" x1="0" x2="35.584" y1="91.682" y2="91.682" gradientTransform="scale(1.02771 .97304)" gradientUnits="userSpaceOnUse"><stop offset="0" stop-color="#32bedd"/><stop offset="1" stop-color="#50e6ff"/></linearGradient><linearGradient id="b" x1="0" x2="35.582" y1="91.662" y2="91.662" gradientTransform="scale(1.02749 .97325)" gradientUnits="userSpaceOnUse"><stop offset="0" stop-color="#5ea0ef"/><stop offset="1" stop-color="#0078d4"/></linearGradient></defs><g transform="translate(-33.057 -33.059)"><title>Page-1</title><g transform="translate(33.057 -34.016)"><title>Cognitive Services QnA Maker.19731</title><title>g8</title><g transform="translate(20.125)"><title>path2</title><path d="M2.13 89.21h32.32a2.12 2.078 0 0 1 2.12 2.07v25.17a2.124 2.081 0 0 1-2.12 2.08H21.22a.35.344-180 0 0-.216.072l-6.784 5.088a.705.69 0 0 1-1.136-.549l.006-4.271a.354.347-180 0 0-.35-.347l-10.62.007A2.12 2.078 0 0 1 0 116.45V91.28a2.124 2.081 0 0 1 2.13-2.07" style="fill:url(#a);stroke:none;stroke-width:33.05659866;stroke-linecap:butt"/></g><g transform="translate(0 -22.136)"><title>path4</title><path d="M36.56 91.29v25.16a2.12 2.078 0 0 1-2.12 2.08h-10.6a.354.347-180 0 0-.35.347v4.273a.708.694 0 0 1-1.136.549L15.56 118.6a.35.344-180 0 0-.216-.063l-13.224.003A2.124 2.081 0 0 1 0 116.46V91.29a2.12 2.078 0 0 1 2.12-2.08h32.32a2.124 2.081 0 0 1 2.12 2.08" style="fill:url(#b);stroke:none;stroke-width:33.05659866;stroke-linecap:butt"/></g><g transform="translate(13.18 -31.843)"><title>path6</title><path d="M2.83 118a5.535 5.424 0 0 1-.21-.89 6.165 6.042 0 0 1-.1-1.07 3.45 3.38 0 0 1 .34-1.51 6.436 6.307 0 0 1 .85-1.26 14.207 13.923 0 0 1 1.09-1.14c.4-.36.77-.71 1.1-1.06a6.046 5.926-180 0 0 .85-1.09 2.516 2.466-180 0 0 .35-1.26 2.275 2.23-180 0 0-.26-1.07 2.253 2.208-180 0 0-.68-.75 3.144 3.081-180 0 0-1-.46 4.55 4.46-180 0 0-1.21-.15A5.606 5.494-180 0 0 0 108.1v-3.15a9.229 9.045 0 0 1 4.72-1.3 7.5 7.351 0 0 1 2.12.28 5.316 5.21 0 0 1 1.76.85 4.074 3.992 0 0 1 1.18 1.39 4.302 4.216 0 0 1 .43 1.93 4.76 4.664 0 0 1-.36 1.87 7.054 6.913 0 0 1-.91 1.51 8.576 8.404 0 0 1-1.18 1.22 23.16 22.696-180 0 0-1.18 1.06 6.162 6.04-180 0 0-.91 1.1 2.407 2.359-180 0 0-.36 1.26 3.559 3.488-180 0 0 .15 1.07 6.787 6.65-180 0 0 .31.8zm1.58 5.77a2.05 2.009 0 0 1-1.4-.54 1.693 1.659 0 0 1-.59-1.28 1.664 1.63 0 0 1 .59-1.28 2.034 1.993 0 0 1 2.79 0 1.66 1.627 0 0 1 .58 1.29 1.69 1.656 0 0 1-.58 1.28 2.034 1.993 0 0 1-1.39.53" style="fill:#fff;stroke:none;stroke-width:33.05659866;stroke-linecap:butt"/></g></g></g></svg>