<svg xmlns="http://www.w3.org/2000/svg" xml:space="preserve" width="56.69" height="56.69" style="font-size:12px;overflow:visible;color-interpolation-filters:sRGB;fill-rule:evenodd;stroke-linecap:square;stroke-miterlimit:3" viewBox="0 0 56.69 56.69"><defs><linearGradient id="a" x1=".791" x2="45.514" y1="68.31" y2="68.31" gradientTransform="scale(.90637 1.1033)" gradientUnits="userSpaceOnUse"><stop offset=".225" stop-color="#5ea0ef"/><stop offset="1" stop-color="#0078d4"/></linearGradient></defs><g transform="translate(-34 -34.004)"><title>Page-1</title><g transform="translate(34 -34.016)"><title>Cognitive Services Face API.19869</title><title>Sheet.19870</title><g transform="translate(7.558 -3.266)"><title>Sheet.19871</title><path d="M41.03 101.83c-.55-1.26-3.16-1.89-2.6-4.83a20.77 20.712-180 0 0-.45-12.66 16.06 16.016-180 0 0-13.49-8.82 39.954 39.843-180 0 0-7.01 0 16.067 16.022-180 0 0-13.49 8.82A20.744 20.687-180 0 0 3.54 97c.56 2.94-2.05 3.57-2.59 4.83-.95 2.18 1.26 7.23 1.96 9.36s3.95 1.02 4.77 2.89c2.61 5.9 5.94 10.15 12.44 10.58a4.362 4.35-180 0 0 .61.05h.51a4.292 4.28-180 0 0 .61-.05c6.51-.43 9.83-4.68 12.44-10.58.82-1.87 4.08-.76 4.78-2.89.69-2.14 2.88-7.19 1.96-9.36" style="fill:url(#a);stroke:none;stroke-width:34;stroke-linecap:butt"/></g><title>Sheet.19872</title><path d="M1.82 83.47A1.813 1.808 0 0 1 0 81.67V69.82a1.813 1.808 0 0 1 1.82-1.8h11.11a1.816 1.811 0 0 1 0 3.61H3.64v10.04a1.813 1.808 0 0 1-1.82 1.8m53.06 0a1.813 1.808 0 0 1-1.82-1.8V71.63h-9.31a1.816 1.811 0 0 1 0-3.61h11.13a1.813 1.808 0 0 1 1.81 1.8v11.85a1.813 1.808 0 0 1-1.81 1.8m-41.94 41.24H1.82A1.813 1.808 0 0 1 0 122.9v-11.84a1.816 1.811 0 0 1 3.63 0v10.03h9.31a1.816 1.811 0 0 1 0 3.62m41.94 0H43.76a1.816 1.811 0 0 1 0-3.62h9.3v-10.03a1.816 1.811 0 0 1 3.63 0v11.84a1.813 1.808 0 0 1-1.81 1.81" style="fill:#50e6ff;stroke:none;stroke-width:34;stroke-linecap:butt"/></g></g></svg>