<svg xmlns="http://www.w3.org/2000/svg" xml:space="preserve" width="56.683" height="56.695" style="font-size:12px;overflow:visible;color-interpolation-filters:sRGB;fill-rule:evenodd;stroke-linecap:square;stroke-miterlimit:3" viewBox="0 0 56.683 56.695"><g transform="translate(-12.75 -12.75)"><title>Page-1</title><g transform="translate(12.75 -34.016)"><title>Cognitive Services QnA Extracter.19736</title><g transform="translate(41.723 -41.577)"><title>Sheet.19737</title><path d="M7.48 103.46c-4.13 0-7.48-3.35-7.48-7.49 0-4.13 3.35-7.48 7.48-7.48s7.48 3.35 7.48 7.48a7.47 7.47 0 0 1-7.48 7.49" style="fill:#50e6ff;stroke:none;stroke-width:12.75;stroke-linecap:butt"/></g><g transform="translate(41.723 -20.803)"><title>Sheet.19738</title><path d="M7.48 103.46c-4.13 0-7.48-3.35-7.48-7.49 0-4.13 3.35-7.48 7.48-7.48s7.48 3.35 7.48 7.48c.01 4.13-3.34 7.49-7.48 7.49" style="fill:#50e6ff;stroke:none;stroke-width:12.75;stroke-linecap:butt"/></g><g transform="translate(0 -20.872)"><title>Sheet.19739</title><path d="M14.89 88.56H0v14.9h14.89z" style="fill:#0078d4;stroke:none;stroke-width:12.75;stroke-linecap:butt"/></g><g transform="translate(0 -41.795)"><title>Sheet.19740</title><path d="M14.89 88.56H0v14.9h14.89z" style="fill:#0078d4;stroke:none;stroke-width:12.75;stroke-linecap:butt"/></g><title>Sheet.19741</title><path d="M14.89 88.56H0v14.9h14.89z" style="fill:#0078d4;stroke:none;stroke-width:12.75;stroke-linecap:butt"/><g transform="translate(41.723 -.042)"><title>Sheet.19742</title><path d="M7.48 103.46c-4.13 0-7.48-3.35-7.48-7.49 0-4.13 3.35-7.48 7.48-7.48s7.48 3.35 7.48 7.48a7.47 7.47 0 0 1-7.48 7.49" style="fill:#50e6ff;stroke:none;stroke-width:12.75;stroke-linecap:butt"/></g><g transform="translate(22.46 -1.256)"><title>Sheet.19743</title><path d="M14.86 97.41 8.8 91.34v3.03H0v6.06h8.8v3.03z" style="fill:#0078d4;stroke:none;stroke-width:12.75;stroke-linecap:butt"/></g><g transform="translate(22.46 -22.123)"><title>Sheet.19744</title><path d="M14.86 97.41 8.8 91.34v3.03H0v6.06h8.8v3.03z" style="fill:#0078d4;stroke:none;stroke-width:12.75;stroke-linecap:butt"/></g><g transform="translate(22.46 -43.059)"><title>Sheet.19745</title><path d="M14.86 97.4 8.8 91.33v3.03H0v6.07h8.8v3.03z" style="fill:#0078d4;stroke:none;stroke-width:12.75;stroke-linecap:butt"/></g></g></g></svg>