<svg xmlns="http://www.w3.org/2000/svg" xml:space="preserve" width="48.19" height="56.694" style="font-size:12px;overflow:visible;color-interpolation-filters:sRGB;fill-rule:evenodd;stroke-linecap:square;stroke-miterlimit:3" viewBox="0 0 48.19 56.694"><defs><linearGradient id="a" x1="0" x2=".045" y1="100.641" y2="100.641" gradientTransform="scale(.89443 1.11803)" gradientUnits="userSpaceOnUse"><stop offset="0" stop-color="#faa21d"/><stop offset=".28" stop-color="#f99e1b"/><stop offset=".575" stop-color="#f69113"/><stop offset=".87" stop-color="#f27d07"/><stop offset="1" stop-color="#ef7100"/></linearGradient><linearGradient id="b" x1="0" x2=".045" y1="100.641" y2="100.641" gradientTransform="scale(.89443 1.11803)" gradientUnits="userSpaceOnUse"><stop offset="0" stop-color="#faa21d"/><stop offset=".28" stop-color="#f99e1b"/><stop offset=".575" stop-color="#f69113"/><stop offset=".87" stop-color="#f27d07"/><stop offset="1" stop-color="#ef7100"/></linearGradient><linearGradient id="c" x1="0" x2="26.747" y1="57.805" y2="57.805" gradientTransform="scale(.75111 1.33136)" gradientUnits="userSpaceOnUse"><stop offset="0" stop-color="#50e6ff"/><stop offset=".185" stop-color="#84edff"/><stop offset=".37" stop-color="#b0f4ff"/><stop offset=".55" stop-color="#d2f9ff"/><stop offset=".72" stop-color="#ebfcff"/><stop offset=".875" stop-color="#fafeff"/><stop offset="1" stop-color="#fff"/></linearGradient></defs><g transform="translate(-21.857 -21.852)"><title>Page-1</title><g transform="translate(21.857 -34.016)"><title>Cognitive Services Bot Web App.19992</title><title>Sheet.19993</title><title>Sheet.19994</title><path d="M47.08 69.24 25.2 56.18a2.22 2.264-180 0 0-2.25 0L1.11 69.24A2.253 2.297-180 0 0 0 71.23v26c0 .81.42 1.58 1.11 1.97l21.86 13.05a2.22 2.264-180 0 0 2.25 0L47.08 99.2c.69-.41 1.11-1.16 1.11-1.97v-26c0-.83-.42-1.58-1.11-1.99" style="fill:#0078d4;stroke:none;stroke-width:21.85709953;stroke-linecap:butt"/><g transform="translate(24.084 -28.229)"><title>Sheet.19995</title><path d="m.02 112.57-.02-.03.02-.02.02.02z" style="fill:url(#a);stroke:none;stroke-width:21.85709953;stroke-linecap:butt"/></g><g transform="translate(24.084 -28.229)"><title>Sheet.19996</title><path d="m.02 112.57-.02-.03.02-.02.02.02z" style="fill:url(#b);stroke:none;stroke-width:21.85709953;stroke-linecap:butt"/></g><g transform="translate(4.017 -4.531)"><title>Sheet.19997</title><path d="M20.09 88.82v23.75L0 100.66v-23.7z" style="fill:url(#c);stroke:none;stroke-width:21.85709953;stroke-linecap:butt"/></g><g transform="translate(2.115 -2.299)"><title>Sheet.19998</title><path d="M43.96 73.59v25.94l-21.97 13.04L0 99.53V73.61l21.97-13.03Z" style="fill:#fff;stroke:none;stroke-width:21.85709953;stroke-linecap:butt"/></g><g transform="translate(27.636 -14.666)"><title>Sheet.19999</title><path d="M14.27 104.5c1.05-1.43 1.27-3.08.47-3.69-.79-.61-2.29.06-3.35 1.49-1.05 1.43-1.27 3.09-.47 3.69.79.61 2.29-.06 3.35-1.49m-10.13 5.97c1.06-1.44 1.27-3.09.48-3.7s-2.29.06-3.35 1.49c-1.06 1.44-1.27 3.09-.48 3.7.8.61 2.3-.06 3.35-1.49" style="fill:#0078d4;stroke:none;stroke-width:21.85709953;stroke-linecap:butt"/></g><g transform="translate(2.115 -28.294)"><title>Sheet.20000</title><path d="m43.96 99.59-21.97 12.98L0 99.61l21.97-13.04Z" style="fill:#9cebff;stroke:none;stroke-width:21.85709953;stroke-linecap:butt"/></g><g transform="translate(2.053 -2.173)"><title>Sheet.20001</title><path d="M0 73.45v26.03l22.07 13.09V86.49Z" style="fill:#32bedd;stroke:none;stroke-width:21.85709953;stroke-linecap:butt"/></g><g transform="translate(2.053 -2.173)"><title>Sheet.20002</title><path d="m0 99.48 22.07-12.99v26.08z" style="fill:#50e6ff;stroke:none;stroke-width:21.85709953;stroke-linecap:butt"/></g></g></g></svg>