<svg xmlns="http://www.w3.org/2000/svg" xml:space="preserve" width="56.69" height="56.69" style="font-size:12px;overflow:visible;color-interpolation-filters:sRGB;fill-rule:evenodd;stroke-linecap:square;stroke-miterlimit:3" viewBox="0 0 56.69 56.69"><g transform="translate(-5.67 -5.674)"><title>Page-1</title><g transform="translate(5.67 -34.016)"><title>Cognitive Services Search.19728</title><title>g6</title><title>path4</title><path d="M24.7 40.37c1.71.45 3.19 1.13 4.67 1.92 1.37.91 2.73 1.93 3.87 3.06 1.14 1.25 2.16 2.5 3.08 3.97.79 1.48 1.48 2.95 1.93 4.65.46 1.7.68 3.4.68 5.22 0 2.27-.34 4.53-1.13 6.57-.8 2.04-1.94 4.09-3.42 5.79l21.74 21.77c.35.34.57.79.57 1.24 0 .46-.22.91-.57 1.25-.34.34-.79.57-1.25.57-.45 0-.91-.23-1.25-.57L31.99 74.15a21.7 21.7 0 0 1-5.81 3.41c-2.16.79-4.32 1.13-6.6 1.13-1.82 0-3.53-.23-5.24-.68-1.7-.45-3.18-1.13-4.66-1.93-1.48-.79-2.74-1.81-3.99-3.06-1.14-1.25-2.16-2.49-3.07-3.97-.8-1.47-1.48-2.95-1.94-4.65C.23 62.7 0 61 0 59.19c0-1.82.23-3.52.68-5.22.46-1.7 1.14-3.17 1.94-4.65.8-1.36 1.82-2.72 2.96-3.97 1.14-1.13 2.5-2.15 3.98-3.06 1.48-.79 2.96-1.47 4.67-1.92 1.71-.46 3.42-.68 5.24-.68s3.53.22 5.23.68m1.03 33.44a15.4 15.4 0 0 0 5.12-3.4q2.22-2.205 3.42-5.1c.79-1.93 1.25-3.97 1.25-6.24 0-2.15-.46-4.3-1.25-6.23q-1.2-2.895-3.42-5.1a15.6 15.6 0 0 0-5.12-3.41 16.3 16.3 0 0 0-6.26-1.24c-2.28 0-4.33.45-6.26 1.24-1.94 1.02-3.65 2.16-5.01 3.63-1.37 1.48-2.62 3.06-3.53 4.99-.8 1.93-1.25 3.97-1.25 6.24 0 2.15.45 4.31 1.25 6.23.79 1.93 1.93 3.63 3.41 5.11a15.7 15.7 0 0 0 5.13 3.4c1.93.79 3.98 1.24 6.26 1.24 2.27 0 4.21-.45 6.26-1.36" style="fill:#3176bc;stroke:none;stroke-width:.95381099;stroke-linecap:butt"/></g></g></svg>