<svg xmlns="http://www.w3.org/2000/svg" xml:space="preserve" width="56.69" height="56.69" style="font-size:12px;overflow:visible;color-interpolation-filters:sRGB;fill-rule:evenodd;stroke-linecap:square;stroke-miterlimit:3" viewBox="0 0 56.69 56.69"><g transform="translate(-6.31 -6.314)"><title>Page-1</title><g transform="translate(6.31 -34.016)"><title>Cognitive Services Health and Life Science.19844</title><title>Sheet.19845</title><path d="M28.35 40.33C12.69 40.33 0 53.02 0 68.67c0 15.66 12.69 28.35 28.35 28.35 15.65 0 28.34-12.69 28.34-28.35 0-15.65-12.69-28.34-28.34-28.34m0 .44c15.38 0 27.9 12.52 27.9 27.9 0 15.39-12.52 27.91-27.9 27.91C12.96 96.58.44 84.06.44 68.67c0-15.38 12.52-27.9 27.91-27.9" style="fill:#0078d4;stroke:none;stroke-width:6.30927992;stroke-linecap:butt"/><g transform="translate(6.644 -6.644)"><title>Sheet.19846</title><path d="M21.7 53.61C9.72 53.61 0 63.33 0 75.32c0 11.98 9.72 21.7 21.7 21.7 11.99 0 21.71-9.72 21.71-21.7 0-11.99-9.72-21.71-21.71-21.71m0 .44c11.73 0 21.26 9.54 21.26 21.27 0 11.72-9.53 21.26-21.26 21.26C9.98 96.58.44 87.04.44 75.32c0-11.73 9.54-21.27 21.26-21.27" style="fill:#0078d4;stroke:none;stroke-width:6.30927992;stroke-linecap:butt"/></g><g transform="translate(12.845 -12.845)"><title>Sheet.19847</title><path d="M15.28 66.46C6.84 66.46 0 73.3 0 81.74s6.84 15.28 15.28 15.28 15.28-6.84 15.28-15.28-6.84-15.28-15.28-15.28m0 .44c8.18 0 14.84 6.66 14.84 14.84s-6.66 14.83-14.84 14.83S.44 89.92.44 81.74 7.1 66.9 15.28 66.9" style="fill:#0078d4;stroke:none;stroke-width:6.30927992;stroke-linecap:butt"/></g><g transform="translate(23.032 -23.032)"><title>Sheet.19848</title><path d="M10.63 91.7a5.316 5.316 0 1 1-10.629.009A5.316 5.316 0 0 1 10.63 91.7" style="fill:#0078d4;stroke:none;stroke-width:6.30927992;stroke-linecap:butt"/></g><g transform="translate(38.09 -17.716)"><title>Sheet.19849</title><path d="M5.31 94.36c0 1.47-1.19 2.66-2.65 2.66-1.47 0-2.66-1.19-2.66-2.66s1.19-2.66 2.66-2.66c1.46 0 2.65 1.19 2.65 2.66" style="fill:#0078d4;stroke:none;stroke-width:6.30927992;stroke-linecap:butt"/></g><g transform="translate(10.63 -24.803)"><title>Sheet.19850</title><path d="M5.31 94.36c0 1.47-1.19 2.66-2.65 2.66-1.47 0-2.66-1.19-2.66-2.66s1.19-2.66 2.66-2.66c1.46 0 2.65 1.19 2.65 2.66" style="fill:#0078d4;stroke:none;stroke-width:6.30927992;stroke-linecap:butt"/></g><g transform="translate(30.118 -46.063)"><title>Sheet.19851</title><path d="M5.31 94.36c0 1.47-1.19 2.66-2.65 2.66-1.47 0-2.66-1.19-2.66-2.66s1.19-2.66 2.66-2.66c1.46 0 2.65 1.19 2.65 2.66" style="fill:#50e6ff;stroke:none;stroke-width:6.30927992;stroke-linecap:butt"/></g><g transform="translate(40.748 -1.772)"><title>Sheet.19852</title><path d="M5.31 94.36c0 1.47-1.19 2.66-2.65 2.66-1.47 0-2.66-1.19-2.66-2.66s1.19-2.66 2.66-2.66c1.46 0 2.65 1.19 2.65 2.66" style="fill:#0078d4;stroke:none;stroke-width:6.30927992;stroke-linecap:butt"/></g><g transform="translate(3.543 -8.858)"><title>Sheet.19853</title><path d="M5.31 94.36c0 1.47-1.19 2.66-2.65 2.66-1.47 0-2.66-1.19-2.66-2.66s1.19-2.66 2.66-2.66c1.46 0 2.65 1.19 2.65 2.66" style="fill:#50e6ff;stroke:none;stroke-width:6.30927992;stroke-linecap:butt"/></g><g transform="translate(47.835 -42.52)"><title>Sheet.19854</title><path d="M5.31 94.36c0 1.47-1.19 2.66-2.65 2.66-1.47 0-2.66-1.19-2.66-2.66s1.19-2.66 2.66-2.66c1.46 0 2.65 1.19 2.65 2.66" style="fill:#0078d4;stroke:none;stroke-width:6.30927992;stroke-linecap:butt"/></g></g></g></svg>