<svg xmlns="http://www.w3.org/2000/svg" xml:space="preserve" width="56.69" height="56.69" style="font-size:12px;overflow:visible;color-interpolation-filters:sRGB;fill-rule:evenodd;stroke-linecap:square;stroke-miterlimit:3" viewBox="0 0 56.69 56.69"><defs><linearGradient id="a" x1="0" x2="45.945" y1="57.244" y2="57.244" gradientTransform="scale(.9999 1.0001)" gradientUnits="userSpaceOnUse"><stop offset="0" stop-color="#50e6ff"/><stop offset="1" stop-color="#32bedd"/></linearGradient></defs><g transform="translate(-12.49 -12.494)"><title>Page-1</title><g transform="translate(12.49 -34.016)"><title>Computer Vision.19681</title><title>Sheet.19682</title><g transform="translate(1.74 -1.785)"><title>Sheet.19683</title><path d="M26.58 103.2c14.69 0 26.59-11.9 26.59-26.59 0-14.68-11.9-26.58-26.59-26.58C11.9 50.03 0 61.93 0 76.61 0 91.3 11.9 103.2 26.58 103.2" style="fill:#32bedd;stroke:none;stroke-width:12.48980045;stroke-linecap:butt"/></g><g transform="translate(5.352 -4.886)"><title>Sheet.19684</title><path d="M22.97 103.2c12.69 0 22.97-10.29 22.97-22.97 0-12.69-10.28-22.98-22.97-22.98C10.29 57.25 0 67.54 0 80.22c0 12.69 10.29 22.97 22.97 22.97z" style="fill:url(#a);stroke:none;stroke-width:12.48980045;stroke-linecap:butt"/></g><g transform="translate(9.57 -9.488)"><title>Sheet.19685</title><path d="M18.75 103.2c10.36 0 18.76-8.4 18.76-18.76s-8.4-18.75-18.76-18.75C8.4 65.69 0 74.08 0 84.44s8.4 18.76 18.75 18.76" style="fill:#50e6ff;stroke:none;stroke-width:12.48980045;stroke-linecap:butt"/></g><g transform="translate(15.859 -15.651)"><title>Sheet.19686</title><path d="M12.47 103.2c6.88 0 12.46-5.58 12.46-12.47 0-6.88-5.58-12.46-12.46-12.46C5.58 78.27 0 83.85 0 90.73c0 6.89 5.58 12.47 12.47 12.47" style="fill:#005ba1;stroke:none;stroke-width:12.48980045;stroke-linecap:butt"/></g><g transform="translate(20.478 -26.331)"><title>Sheet.19687</title><path d="M3.75 100.57a3.745 3.745-180 0 0 0-7.49 3.745 3.745-180 0 0 0 7.49m4.1 2.63a1.66 1.66-180 1 0 0-3.32 1.66 1.66-180 0 0 0 3.32" style="fill:#9cebff;stroke:none;stroke-width:12.48980045;stroke-linecap:butt"/></g><title>Sheet.19688</title><path d="M1.14 56.39A1.14 1.14 0 0 1 0 55.26v-7.62c0-.14.03-.29.09-.43a1.14 1.14 0 0 1 1.05-.7h7.14a1.139 1.139 0 0 1 0 2.27h-6v6.47a1.14 1.14 0 0 1-1.13 1.14zm55.55-1.14v-7.61a1.14 1.14-180 0 0-1.14-1.13h-7.14a1.14 1.14-180 0 0-1.13 1.13 1.14 1.14-180 0 0 1.13 1.14h6v6.47a1.14 1.14-180 0 0 1.14 1.14 1.14 1.14-180 0 0 1.14-1.14M9.42 102.06a1.1 1.1-180 0 0-.09-.44 1.14 1.14-180 0 0-1.05-.7h-6v-6.46a1.14 1.14-180 0 0-1.14-1.14A1.14 1.14-180 0 0 0 94.46v7.6a1.136 1.136-180 0 0 1.14 1.14h7.13a1.14 1.14-180 0 0 1.14-1.14zm47.26 0v-7.6a1.14 1.14-180 0 0-1.14-1.14 1.14 1.14-180 0 0-1.14 1.14v6.46h-5.98a1.14 1.14-180 0 0-1.14 1.14 1.14 1.14-180 0 0 1.14 1.14h7.13a1.14 1.14-180 0 0 1.14-1.14z" style="fill:#0078d4;stroke:none;stroke-width:12.48980045;stroke-linecap:butt"/></g></g></svg>