<svg xmlns="http://www.w3.org/2000/svg" xmlns:xlink="http://www.w3.org/1999/xlink" xml:space="preserve" width="56.69" height="56.695" style="font-size:12px;overflow:visible;color-interpolation-filters:sRGB;fill-rule:evenodd;stroke-linecap:square;stroke-miterlimit:3" viewBox="0 0 56.69 56.695"><defs><linearGradient id="b" x1="0" x2="18.19" y1="182.629" y2="182.629" gradientTransform="scale(1.61222 .62026)" gradientUnits="userSpaceOnUse"><stop offset="0" stop-color="#76bc2d"/><stop offset="1" stop-color="#86d633"/></linearGradient><linearGradient id="a" x1="0" x2="1" y1="0" y2="0"><stop offset="0" stop-color="#e6e6e6"/><stop offset="1" stop-color="#999"/></linearGradient><linearGradient id="d" x1="0" x2="16.422" y1="108.293" y2="108.293" gradientTransform="scale(1.00003 .99997)" gradientUnits="userSpaceOnUse"><stop offset="0" stop-color="#86d633"/><stop offset="1" stop-color="#76bc2d"/></linearGradient><linearGradient id="f" x1="0" x2="16.422" y1="108.293" y2="108.293" gradientTransform="scale(1.00003 .99997)" gradientUnits="userSpaceOnUse"><stop offset="0" stop-color="#faa21d"/><stop offset="1" stop-color="#f78d1e"/></linearGradient><linearGradient id="g" x1=".138" x2="17.036" y1="96.889" y2="96.889" gradientTransform="scale(.91241 1.096)" gradientUnits="userSpaceOnUse"><stop offset="0" stop-color="#50e6ff"/><stop offset="1" stop-color="#9cebff"/></linearGradient><linearGradient xlink:href="#a" id="c" x1="0" x2="19.259" y1="114.395" y2="114.395" gradientTransform="scale(1.07172 .93308)" gradientUnits="userSpaceOnUse"/><linearGradient xlink:href="#a" id="e" x1="0" x2="19.264" y1="114.353" y2="114.353" gradientTransform="scale(1.07142 .93334)" gradientUnits="userSpaceOnUse"/></defs><g transform="translate(-34 -34)"><title>Page-1</title><g transform="translate(34 -34.016)"><title>Content Safety.19672</title><title>Sheet.19673</title><g transform="translate(23.326 -36.07)"><title>Sheet.19674</title><path d="m29.02 118.39-8.71-5.03a.611.611-180 0 0-.917.53l.007 2.59H0v4.88h19.4v2.59c0 .47.5.76.91.53l8.71-5.03a.611.611-180 0 0 0-1.058z" style="fill:url(#b);stroke:none;stroke-width:34;stroke-linecap:butt"/></g><g transform="translate(9.143 -26.408)"><title>Sheet.19675</title><path d="M5.01 124.71H0v-14.59a3.37 3.37 0 0 1 3.36-3.38h17.28v5.01H5.02v12.96z" style="fill:url(#c);stroke:none;stroke-width:34;stroke-linecap:butt"/></g><g transform="translate(21.569 -33.986)"><title>Sheet.19676</title><circle cx="8.211" cy="116.501" r="8.211" style="fill:url(#d);stroke:none;stroke-width:34;stroke-linecap:butt"/></g><g transform="translate(9.14 -11.341)"><title>Sheet.19677</title><path d="M20.64 124.71H3.37A3.37 3.37 0 0 1 0 121.34v-14.61h5.01v12.96h15.63z" style="fill:url(#e);stroke:none;stroke-width:34;stroke-linecap:butt"/></g><g transform="translate(21.569 -6.29)"><title>Sheet.19678</title><circle cx="8.211" cy="116.501" r="8.211" style="fill:url(#f);stroke:none;stroke-width:34;stroke-linecap:butt"/></g><g transform="translate(3.915 -18.594)"><title>Sheet.19679</title><path d="M11.86 124.71H1.43c-.86 0-1.43-.95-1.28-2.12l1.84-14.28c.15-1.17.97-2.12 1.82-2.12h10.43c.86 0 1.43.95 1.28 2.12l-1.84 14.28c-.15 1.17-.97 2.12-1.82 2.12" style="fill:url(#g);stroke:none;stroke-width:34;stroke-linecap:butt"/></g><title>Sheet.19680</title><path d="M1.14 77.9A1.14 1.14 0 0 1 0 76.76v-7.6c0-.63.51-1.14 1.14-1.14h7.14a1.14 1.14 0 1 1 0 2.27h-6v6.47a1.14 1.14 0 0 1-1.14 1.14m55.55-1.14v-7.6a1.14 1.14-180 0 0-1.14-1.14h-7.13a1.14 1.14-180 1 0 0 2.27h5.99v6.47a1.14 1.14-180 0 0 2.28 0M9.42 123.57a1.14 1.14-180 0 0-1.14-1.14h-6v-6.46a1.14 1.14-180 0 0-2.28 0v7.6c0 .63.51 1.14 1.14 1.14h7.14c.63 0 1.14-.51 1.14-1.14m47.27 0v-7.6a1.14 1.14-180 0 0-2.28 0v6.46h-5.99a1.14 1.14-180 1 0 0 2.28h7.13a1.14 1.14-180 0 0 1.14-1.13z" style="fill:#76bc2d;stroke:none;stroke-width:34;stroke-linecap:butt"/></g></g></svg>