<svg xmlns="http://www.w3.org/2000/svg" xml:space="preserve" width="56.807" height="56.693" style="font-size:12px;overflow:visible;color-interpolation-filters:sRGB;fill-rule:evenodd;stroke-linecap:square;stroke-miterlimit:3" viewBox="0 0 56.807 56.693"><defs><linearGradient id="a" x1="-7.061" x2="41.145" y1="76.547" y2="76.547" gradientTransform="scale(1.00035 .99965)" gradientUnits="userSpaceOnUse"><stop offset="0" stop-color="#5ea0ef"/><stop offset="1" stop-color="#0078d4"/></linearGradient></defs><g transform="translate(-33.995 -34.002)"><title>Page-1</title><g transform="translate(34.114 -34.016)"><title>Custom Vision.19663</title><title>Sheet.19664</title><g transform="translate(0 -1.393)"><title>Sheet.19665</title><path d="M27.85 69.41a27.902 27.882-180 1 0 5 55.3l-.82-.71-2.4-2.44a1.42 1.42 0 0 1-.28-1.59l1.59-3.37-.48-1.17-2.97-.97-.48-.14a1.42 1.42 0 0 1-1.02-1.36v-3.42a1.41 1.41 0 0 1 .94-1.33l3.53-1.26.48-1.16-1.45-2.82-.23-.46a1.419 1.418 0 0 1 .27-1.65l2.41-2.38a1.42 1.42 0 0 1 1.61-.27l3.39 1.64 1.18-.44.95-2.84a1.4 1.4 0 0 1 .34-.55l.17-.17a1.42 1.42 0 0 1 1-.41h3.38a1.419 1.418 0 0 1 1.32.9l1.23 3.15 1.13.31 2.92-1.49.46-.23a1.4 1.4 0 0 1 .63-.15 1.4 1.4 0 0 1 1 .41l1.32 1.32 1.07 1.09a1.4 1.4 0 0 1 .39.73 28.217 28.197-180 0 0 .32-4.18 27.902 27.882-180 0 0-27.9-27.89" style="fill:#0078d4;stroke:none;stroke-width:34;stroke-linecap:butt"/></g><g transform="translate(10.807 -4.18)"><title>Sheet.19666</title><path d="M18.82 124.35a1.42 1.42 0 0 1-.27-1.59l1.59-3.38-.48-1.16-2.97-.97-.49-.14a1.42 1.42 0 0 1-1.02-1.36v-3.42a1.41 1.41 0 0 1 .95-1.33l3.52-1.26.48-1.16-1.44-2.82-.23-.46a1.419 1.418 0 0 1 .26-1.65l2.41-2.38a1.42 1.42 0 0 1 1.62-.27l3.38 1.64 1.18-.44.95-2.84a1.4 1.4 0 0 1 .34-.55l.17-.17a1.42 1.42 0 0 1 1.01-.41h3.38a1.419 1.418 0 0 1 1.32.89l1.23 3.15 1.12.32 2.92-1.49.46-.23a1.15 1.15 0 0 1 .95-.1v-.15a24.112 24.095-180 1 0-24.12 24.09c.68 0 1.36-.05 2.03-.11z" style="fill:url(#a);stroke:none;stroke-width:34;stroke-linecap:butt"/></g><g transform="translate(14.758 -8.995)"><title>Sheet.19667</title><path d="m16.19 124.2-.49-1.17-2.97-.97-.48-.14a1.42 1.42 0 0 1-1.02-1.36v-3.42a1.41 1.41 0 0 1 .95-1.33l3.52-1.26.48-1.16-1.44-2.81-.23-.46a1.419 1.418 0 0 1 .26-1.66l2.41-2.38a1.42 1.42 0 0 1 1.61-.26l3.39 1.63 1.18-.44.95-2.84a1.4 1.4 0 0 1 .34-.54l.17-.18a1.42 1.42 0 0 1 1-.41h3.38a1.419 1.418 0 0 1 1.32.9l1.23 3.15.87.24a19.68 19.665-180 1 0-19.54 17.38 19.42 19.407-180 0 0 2.98-.25z" style="fill:#5ea0ef;stroke:none;stroke-width:34;stroke-linecap:butt"/></g><g transform="translate(18.495 -15.614)"><title>Sheet.19668</title><path d="M7.49 123.76a1.41 1.41 0 0 1 .95-1.33l3.52-1.26.49-1.16-1.45-2.82-.23-.46a1.419 1.418 0 0 1 .26-1.65l2.41-2.38a1.42 1.42 0 0 1 1.62-.27l3.38 1.64 1.19-.44.94-2.84a1.4 1.4 0 0 1 .34-.55l.17-.17a1.42 1.42 0 0 1 1.01-.41h.15a13.074 13.065-180 1 0-14.75 15.05Z" style="fill:#005ba1;stroke:none;stroke-width:34;stroke-linecap:butt"/></g><g transform="translate(19.61 -29.435)"><title>Sheet.19669</title><ellipse cx="3.928" cy="120.783" rx="3.928" ry="3.925" style="fill:#83b9f9;stroke:none;stroke-width:34;stroke-linecap:butt"/></g><g transform="translate(26.102 -26.669)"><title>Sheet.19670</title><ellipse cx="1.743" cy="122.967" rx="1.743" ry="1.742" style="fill:#83b9f9;stroke:none;stroke-width:34;stroke-linecap:butt"/></g><g transform="translate(27.43)"><title>Sheet.19671</title><path d="M29.26 111.4V108l-.18-.17-3.47-1.17-.9-2.34 1.73-3.57.18-.41-1.08-1.08-1.32-1.31-.45.23-3.41 1.74-2.34-.66-1.48-3.8h-3.38l-.18.17-1.17 3.47-2.38.89L5.5 98.1l-2.4 2.37.23.44 1.74 3.4-.97 2.34-4.1 1.48v3.43l.49.14 3.63 1.2.97 2.34-1.86 3.94 2.4 2.43.46-.23 3.41-1.74 2.34.97 1.49 4.1h3.4l.14-.49 1.2-3.63 2.32-.97 3.98 1.86 2.4-2.4-.23-.46-1.74-3.4.67-2.38zm-14.33 3.15a4.776 4.773 0 1 1 4.75-4.8v.03a4.783 4.78 0 0 1-4.75 4.77" style="fill:#50e6ff;stroke:none;stroke-width:34;stroke-linecap:butt"/></g></g></g></svg>