<svg xmlns="http://www.w3.org/2000/svg" xml:space="preserve" width="28.413" height="56.892" style="font-size:12px;overflow:visible;color-interpolation-filters:sRGB;fill-rule:evenodd;stroke-linecap:square;stroke-miterlimit:3" viewBox="0 0 28.413 56.892"><g transform="translate(-10.194 -10.126)"><title>Page-1</title><g transform="translate(10.23 -34.016)"><title>Genomics Account.19659</title><title> Microsoft Genomics icon</title><g transform="translate(.293)"><title>Sheet.19661</title><path d="M10.68 80.74c-.23-.14-.41-.24-.57-.37-1.32-1.07-2.7-2.06-3.92-3.24a6.4 6.596 0 0 1-1.15-7.45 11.725 12.085 0 0 1 3.05-3.41 48.03 49.508 0 0 1 8.61-5.37 28.744 29.629-180 0 0 5.78-3.59 15.404 15.878-180 0 0 5.42-9.19 11.195 11.54-180 0 0 .15-1.17 2.326 2.398-180 1 0-4.61-.61c-.65 4.11-3.04 6.92-6.38 8.95-1.6.97-3.29 1.76-4.92 2.66a37.374 38.525-180 0 0-8.26 5.81C2.31 65.3.83 66.92.22 69.15A10.728 11.058-180 0 0 3 80.62c.84.88 1.79 1.66 2.7 2.46a.69.71-180 0 0 .59.147c1.45-.787 2.88-1.617 4.39-2.487m6.31 8.63c.5.33.97.63 1.43.93a9.713 10.012 0 0 1 4.79 7.34c.06.4.08.82.15 1.22a2.306 2.377-180 0 0 2.51 2.07 2.258 2.328-180 0 0 2.08-2.4 13.264 13.672-180 0 0-3.17-8.79 31.583 32.555-180 0 0-2.7-2.63.674.695-180 0 0-.589-.137c-1.481.767-2.951 1.567-4.501 2.397" style="fill:#ff8c00;stroke:none;stroke-width:10.19999981;stroke-linecap:butt"/></g><g transform="translate(0 -.003)"><title>Sheet.19662</title><path d="M5.25 49.3a9.197 9.48-180 0 0 1.59 3.06h10.03a17.528 18.067 0 0 1-1.68 1.15c-.32.2-.65.38-.98.57H8.54a12.434 12.817-180 0 0 1.09.79c.46.3.93.6 1.43.93-1.56.83-3.02 1.63-4.5 2.4a.675.696 0 0 1-.589-.137A31.523 32.493 0 0 1 3.27 55.43 13.264 13.672 0 0 1 .1 46.64a2.258 2.328 0 0 1 2.08-2.4 2.306 2.377 0 0 1 2.51 2.06c.07.41.1.83.15 1.23 0 .02 0 .03.01.05h15.82v.06a10.976 11.313 0 0 1-.92 1.66zM.15 97.05a15.404 15.878 0 0 1 5.43-9.2 28.738 29.622 0 0 1 5.77-3.58 48.054 49.533-180 0 0 8.61-5.37c.3-.26.59-.51.88-.77h-9.93a20.691 21.328 0 0 1-1.03-.92 4.951 5.104 0 0 1-.66-.8h13.2a7.06 7.278-180 0 0 .59-.92 5.519 5.689-180 0 0 .6-2.18H8.13a6.66 6.865 0 0 1 .03-1.72h15.41a6.235 6.427-180 0 0-1.25-3.01H9.52a13.338 13.749 0 0 1 1.67-1.72h9.31c-.85-.69-1.71-1.37-2.56-2.06-.16-.13-.34-.23-.57-.38 1.51-.86 2.94-1.69 4.39-2.49a.69.71 0 0 1 .59.146c.91.804 1.85 1.584 2.69 2.474a10.728 11.058 0 0 1 2.8 11.46c-.61 2.24-2.1 3.86-3.67 5.39a37.378 38.528 0 0 1-8.25 5.81c-1.63.9-3.33 1.69-4.92 2.66a17.123 17.65-180 0 0-2.01 1.44h6.7l.11.07a11.607 11.964 0 0 1 2.03 1.65H7.25a11.108 11.45-180 0 0-1.88 3.09h14.51a9.743 10.043 0 0 1 .54 1.72H4.83c-.08.32-.16.64-.22.98a2.326 2.398 0 1 1-4.61-.6 11.208 11.552 0 0 1 .15-1.17" style="fill:#59b4d9;stroke:none;stroke-width:10.19999981;stroke-linecap:butt"/></g></g></g></svg>