<svg xmlns="http://www.w3.org/2000/svg" xml:space="preserve" width="56.693" height="56.693" style="font-size:12px;overflow:visible;color-interpolation-filters:sRGB;fill-rule:evenodd;stroke-linecap:square;stroke-miterlimit:3" viewBox="0 0 56.693 56.693"><g transform="translate(-15.3 -15.3)"><title>Page-1</title><g transform="translate(15.3 -34.016)"><title>Health Decision Support.19655</title><title>Sheet.19656</title><title>Sheet.19657</title><path d="M0 49.316h56.693v56.693H0z" style="fill:#0071c6;stroke:none;stroke-width:15.30000019;stroke-linecap:butt"/><g transform="translate(11.146 -8.34)"><title>Sheet.19658</title><path d="M15.45 104.22a5.6 5.6 0 0 1-2.06.68 5.3 5.3 0 0 1-2.03-.14 7 7 0 0 1-1.93-.86 8.3 8.3 0 0 1-1.73-1.47c-.41-.46-.83-.96-1.26-1.51a13 13 0 0 1-1.17-1.76 8 8 0 0 1-.77-1.92 5 5 0 0 1-.09-1.99c.02-.1.04-.19.07-.27a7 7 0 0 1 .1-.28 6.7 6.7 0 0 1-1.08-.75 13 13 0 0 1-.98-.92 11 11 0 0 1-1.29-1.8 9.8 9.8 0 0 1-.95-2.19 6 6 0 0 1-.23-2.29 3.77 3.77 0 0 1 .84-2.03 6.6 6.6 0 0 1-.84-2.51 8.5 8.5 0 0 1 .1-2.6 8 8 0 0 1 .89-2.44 9.8 9.8 0 0 1 1.52-2.05 3.9 3.9 0 0 1 1.65-1.02 3.63 3.63 0 0 1 1.92-.02 4.2 4.2 0 0 1 .12-2.02 4.2 4.2 0 0 1 1.05-1.68c.59-.59 1.27-1.09 2.02-1.49a7.8 7.8 0 0 1 2.37-.82 7 7 0 0 1 2.46.02 5.9 5.9 0 0 1 2.35 1.02 3.16 3.16 0 0 1 1.96-.76 5.8 5.8 0 0 1 2.15.35c.72.26 1.4.63 2.04 1.09a10.6 10.6 0 0 1 1.65 1.46c.3.34.58.7.84 1.06.25.37.47.77.64 1.19.65-.24 1.31-.28 1.98-.1.67.17 1.32.47 1.95.88.63.42 1.23.89 1.79 1.41s1.05 1.02 1.45 1.49c.53.57.96 1.2 1.31 1.86q.525.99.72 2.07a6.4 6.4 0 0 1-.72 4.29c.53.83.91 1.72 1.15 2.68a9.3 9.3 0 0 1 .27 2.87 9 9 0 0 1-.61 2.78 6.9 6.9 0 0 1-1.56 2.36 5.2 5.2 0 0 1-1.31.96q-.72.36-1.53.57a5.8 5.8 0 0 1-1.64.16 15 15 0 0 1-1.64-.16c.08.57.1 1.14.08 1.72q-.03.885-.27 1.71a9 9 0 0 1-.59 1.58q-.36.75-.99 1.35a6.65 6.65 0 0 1-2.31 1.52 7.4 7.4 0 0 1-2.66.51 8.35 8.35 0 0 1-5.2-1.79m9.43-7.71L12.61 82.92l-1.71 1.71c.15.34.24.69.28 1.04a4.3 4.3 0 0 1-.03 1.06 2.9 2.9 0 0 1-.33.99 4.2 4.2 0 0 1-.61.85 3.13 3.13 0 0 1-2.34.92 3.4 3.4 0 0 1-1.27-.31 3 3 0 0 1-1.07-.8 3.5 3.5 0 0 1-.71-1.17 3.7 3.7 0 0 1 .03-2.65c.17-.43.41-.8.73-1.11a3.1 3.1 0 0 1 1.8-.9c.33-.05.66-.04.99.01.34.06.66.18.99.37l1.71-1.72-3.18-3.52a5 5-180 0 0-.8-.71 3.7 3.7-180 0 0-1.01-.51 2.5 2.5-180 0 0-1.05-.12c-.34.03-.65.19-.93.47a6.7 6.7-180 0 0-1.16 1.6 6.3 6.3-180 0 0-.67 1.93 5.5 5.5-180 0 0 .03 2c.13.67.44 1.28.94 1.83.21.23.31.51.3.83a1.12 1.12 0 0 1-.32.81 1.2 1.2 0 0 1-.3.22c-.1.05-.21.13-.32.22a.94.94-180 0 0-.235.363 3 3 0 0 0-.095.457 3.3 3.3-180 0 0 .07 1.14c.09.4.23.79.41 1.19a8.5 8.5-180 0 0 1.34 2.03c.36.4.72.72 1.07.98.36.25.79.45 1.3.6.11.04.21.08.3.13a1 1 0 0 1 .265.217L8.28 92.12c.46-.46.99-.8 1.59-1.01a5.1 5.1 0 0 1 1.87-.3c.64.02 1.26.16 1.85.44.59.27 1.11.65 1.58 1.15l.58.64a2.9 2.9 0 0 1 .97-.27 3.7 3.7 0 0 1 1.02.06c.34.06.65.19.94.37s.57.41.82.67c.31.35.55.74.71 1.18a3.7 3.7 0 0 1-.03 2.64 3 3 0 0 1-.74 1.11 3.13 3.13 0 0 1-2.33.92 3.4 3.4 0 0 1-1.27-.31 3 3 0 0 1-1.07-.8 3.6 3.6 0 0 1-.91-1.91 3.8 3.8 0 0 1-.01-1.05 3.2 3.2 0 0 1 .32-1.03l-.52-.57a2.78 2.78-180 0 0-1.93-.92c-.34-.01-.69.04-1.05.17-.36.12-.66.32-.92.59l-2.76 2.76a1.6 1.6 0 0 1-.32.24q.165.525.45 1.05c.19.35.41.69.66 1.04a24 24-180 0 0 1.5 1.87c.48.52 1 .95 1.57 1.3.57.34 1.22.49 1.93.45.15-.02.31-.03.49-.06a3.1 3.1-180 0 0 1.04-.36c.16-.08.3-.18.42-.29a1 1 0 0 1 .78-.3c.31.01.57.14.78.37.2.22.44.42.71.6.28.19.57.34.87.47.31.14.62.26.94.36.31.11.61.18.9.22.81.13 1.6.09 2.35-.12a4.6 4.6-180 0 0 2.02-1.22c.3-.29.54-.65.72-1.07.19-.42.32-.87.4-1.36a6.5 6.5-180 0 0 .07-1.42 7.2 7.2-180 0 0-.28-1.64 1 1-180 0 0-.11-.27m6.5-17.76a39 39-180 0 0-.77-.82 12 12-180 0 0-1.87-1.58 6 6-180 0 0-.99-.54 2.15 2.15-180 0 0-.94-.17c-.3.03-.58.17-.86.43a1 1 0 0 1-.78.3 1.07 1.07 0 0 1-.78-.36 1.25 1.25 0 0 1-.3-.62 4.8 4.8-180 0 0-.51-1.37 8 8-180 0 0-.87-1.2 8 8-180 0 0-1.85-1.5 5 5-180 0 0-1.1-.49 3.5 3.5-180 0 0-1.1-.15 2.4 2.4-180 0 0-.41.08 1.1 1.1-180 0 0-.38.23 1.3 1.3-180 0 0-.23.3 2 2 0 0 1-.22.33.98.98 0 0 1-.6.296 1.03 1.03 0 0 1-.96-.366q-.735-.81-1.65-1.08a4.7 4.7-180 0 0-1.92-.14c-.65.08-1.28.29-1.88.61-.6.33-1.12.71-1.57 1.15a1.68 1.68-180 0 0-.5.95 2.7 2.7-180 0 0 .06 1.08c.09.36.24.73.44 1.08.2.36.41.67.63.92l13.96 15.45 1.18-1.18c.27-.27.48-.59.61-.94.13-.36.2-.71.21-1.07a3.4 3.4-180 0 0-.18-1.11 2.56 2.56-180 0 0-.59-.99l-2.83-3.13a2.9 2.9 0 0 1-.97.27 3.7 3.7 0 0 1-1.02-.05 2.7 2.7 0 0 1-.94-.38 4.4 4.4 0 0 1-.82-.67 3.5 3.5 0 0 1-.71-1.17 3.72 3.72 0 0 1 .03-2.64 3 3 0 0 1 .73-1.12 3.13 3.13 0 0 1 2.34-.92c.42.02.85.12 1.27.31s.77.46 1.07.8a3.6 3.6 0 0 1 .91 1.91c.05.36.05.71.01 1.06a3.2 3.2 0 0 1-.32 1.02l2.89 3.2c.46.52.81 1.09 1.03 1.74a5.64 5.64 0 0 1-.1 3.92c-.25.62-.61 1.18-1.08 1.66l-1.18 1.19 1.49 1.65a1 1-180 0 0 .255.126q.216.08.275.094c.38.15.8.24 1.24.29.45.04.91.03 1.37-.02.46-.06.89-.17 1.29-.34.4-.16.77-.39 1.08-.7.6-.59 1.01-1.27 1.25-2.05a6.6 6.6-180 0 0 .25-2.48 7 7-180 0 0-.17-.93 14 14-180 0 0-.27-1.01 4.8 4.8-180 0 0-.42-.96 5.5 5.5-180 0 0-.54-.78 1.18 1.18 0 0 1-.31-.83 1.12 1.12 0 0 1 .33-.81c.11-.1.21-.24.3-.39.09-.17.16-.34.22-.54a10 10-180 0 0 .15-.55c.05-.18.08-.36.1-.53.08-.72-.03-1.4-.33-2.02a7.7 7.7-180 0 0-1.15-1.75m-22.7 6.47a1.06 1.06-180 0 0-.77-.36 1 1-180 0 0-.78.3 1.12 1.12-180 0 0-.33.8 1.18 1.18-180 0 0 .31.84c.2.23.46.35.77.36a1 1-180 0 0 .78-.3 1.1 1.1-180 0 0 .33-.81 1.18 1.18-180 0 0-.31-.83m12.55-6.06a1.07 1.07-180 0 0-.77-.36 1 1-180 0 0-.79.3 1.12 1.12-180 0 0-.32.81 1.18 1.18-180 0 0 .3.83c.21.23.47.35.78.37a1 1-180 0 0 .78-.31 1.1 1.1-180 0 0 .33-.8 1.18 1.18-180 0 0-.31-.84m-3.31 16.29a1.07 1.07-180 0 0-.77-.36 1 1-180 0 0-.79.3 1.12 1.12-180 0 0-.32.81c-.01.32.1.6.3.83.21.23.47.35.78.37a1 1-180 0 0 .78-.31 1.1 1.1-180 0 0 .33-.8 1.18 1.18-180 0 0-.31-.84" style="fill:#fff;stroke:none;stroke-width:15.30000019;stroke-linecap:butt"/></g></g></g></svg>