<svg xmlns="http://www.w3.org/2000/svg" xml:space="preserve" width="56.508" height="56.91" style="font-size:12px;overflow:visible;color-interpolation-filters:sRGB;fill-rule:evenodd;stroke-linecap:square;stroke-miterlimit:3" viewBox="0 0 56.508 56.91"><defs><linearGradient id="a" x1=".362" x2="35.733" y1="92.322" y2="92.322" gradientTransform="scale(1.01174 .9884)" gradientUnits="userSpaceOnUse"><stop offset="0" stop-color="#32d4f5"/><stop offset=".32" stop-color="#31d1f3"/><stop offset=".53" stop-color="#2ec9eb"/><stop offset=".7" stop-color="#29bade"/><stop offset=".86" stop-color="#22a5cb"/><stop offset="1" stop-color="#198ab3"/><stop offset="1" stop-color="#198ab3"/></linearGradient></defs><g transform="translate(-34.65 -34.65)"><title>Page-1</title><g transform="translate(34.283 -34.65)"><title>Machine Learning Studio.19621</title><g transform="translate(20.105 -19.518)"><title>path19</title><path d="M28.8 126.21A20.841 20.921 0 0 1 3.27 93.15l.23-.16a20.841 20.921 0 0 1 25.3 33.22" style="fill:#f2f2f2;stroke:none;stroke-width:34.65019989;stroke-linecap:butt"/></g><g transform="translate(18.045 -18.014)"><title>path21</title><path d="M34.72 95.69a20.841 20.921-180 0 0-29.16-4.21l-.23.17a20.841 20.921-180 0 0 25.53 33.05 20.941 21.022-180 0 0 3.86-29.01M0 106.82a18.145 18.214 0 0 1 2.03-7.08h5.03a35.756 35.894-180 0 0-.97 7.08zm9.99-7.08h6.92v7.08H8.79a30.763 30.88 0 0 1 1.06-7.08zm9.59 0h6.92a30.763 30.88 0 0 1 1.07 7.08h-7.99zm-2.67 9.76v7.11H9.85a31.329 31.449 0 0 1-1.06-7.11Zm2.67 0h7.99a31.329 31.449 0 0 1-1.07 7.11h-7.06zm10.68 0h6.06a18.844 18.916 0 0 1-2 7.11h-5.19a33.726 33.855-180 0 0 1-7.11zm0-2.68a33.293 33.42-180 0 0-1-7.08h5.06a17.845 17.914 0 0 1 2 7.08zm2.37-9.79h-4.3a20.675 20.754-180 0 0-2.93-5.55 18.311 18.381 0 0 1 7.09 5.55zm-7.06 0h-5.99v-6.68a10.887 10.929 0 0 1 5.86 6.68zm-8.66-6.68v6.68h-6.12a10.887 10.929 0 0 1 5.99-6.82zm-9.92 3.4a17.778 17.847 0 0 1 3.66-2.13 20.175 20.253-180 0 0-2.76 5.41H3.73a16.813 16.877 0 0 1 3.26-3.28M0 109.5h6.09a36.09 36.228-180 0 0 .97 7.11H2.03A17.512 17.58 0 0 1 0 109.5m3.76 10.02h4.13a20.375 20.453-180 0 0 2.93 5.58 18.111 18.18 0 0 1-7.06-5.74zm7.03 0h5.99v6.69a10.887 10.929 0 0 1-5.99-6.92zm8.65 6.69v-6.69h6a10.887 10.929 0 0 1-6 6.59zm9.79-3.78a16.913 16.978 0 0 1-3.86 2.31 19.11 19.184-180 0 0 2.96-5.59h4.16a18.91 18.983 0 0 1-3.26 3.28" style="fill:#0078d4;stroke:none;stroke-width:34.65019989;stroke-linecap:butt"/></g><title>path23</title><path d="M34.82 126.21H1.66c-1.03 0-1.66-1.71-1.06-2.58l11.42-16.71a1.199 1.203-180 0 0 .23-.73V95.13a.666.668-180 0 0-.666-.668l-.594-.002a1.265 1.27 0 0 1-1.3-1.31v-.6a1.298 1.303 0 0 1 1.3-1.3h14.55a1.332 1.337 0 0 1 1.29 1.3v.6a1.298 1.303 0 0 1-1.29 1.24h-.64a.633.635-180 0 0-.633.668l.003 11.092a1.199 1.203-180 0 0 .23.74l11.42 16.71c.6.87-.03 2.61-1.1 2.61" style="fill:url(#a);stroke:none;stroke-width:34.65019989;stroke-linecap:butt"/><g transform="translate(6.089 -3.275)"><title>path25</title><path d="m.07 125.07 8.22-12.03a2.863 2.874-180 0 0 .54-1.71v-4.84a.965.97 0 0 1 .965-.97h4.655a.965.97 0 0 1 .965.97l.005 5.18a1.964 1.972-180 0 0 .33 1.13l8.42 12.27a.732.735 0 0 1-.6 1.136l-22.9.004a.7.702 0 0 1-.6-1.136z" style="fill:#fff;stroke:none;stroke-width:34.65019989;stroke-linecap:butt"/></g></g></g></svg>