<svg xmlns="http://www.w3.org/2000/svg" xml:space="preserve" width="56.333" height="56.695" style="font-size:12px;overflow:visible;color-interpolation-filters:sRGB;fill-rule:evenodd;stroke-linecap:square;stroke-miterlimit:3" viewBox="0 0 56.333 56.695"><defs><linearGradient id="a" x1="-.004" x2="34.465" y1="129.915" y2="129.915" gradientTransform="scale(1.31813 .75865)" gradientUnits="userSpaceOnUse"><stop offset="0" stop-color="#fff"/><stop offset=".56" stop-color="#fbfbfb"/><stop offset="1" stop-color="#f2f2f2"/></linearGradient><linearGradient id="b" x1=".364" x2="35.3" y1="90.729" y2="90.729" gradientTransform="scale(1.00765 .9924)" gradientUnits="userSpaceOnUse"><stop offset="0" stop-color="#32d4f5"/><stop offset=".32" stop-color="#31d1f3"/><stop offset=".53" stop-color="#2ec9eb"/><stop offset=".7" stop-color="#29bade"/><stop offset=".86" stop-color="#22a5cb"/><stop offset="1" stop-color="#198ab3"/><stop offset="1" stop-color="#198ab3"/></linearGradient></defs><g transform="translate(-34.002 -33.999)"><title>Page-1</title><g transform="translate(33.635 -34.016)"><title>Machine Learning Studio Web Service Plan (classic).19638</title><title>Icon-machinelearning-168</title><g transform="translate(5.865 -25.245)"><title>Sheet.19640</title><path d="M25.41 93.26c15.31 0 24.66 11.67 25.42 27.26a3.943 3.99 0 0 1-3.94 4.19H3.81A3.91 3.956 0 0 1 0 120.52c.76-15.59 10.11-27.26 25.41-27.26" style="fill:#0078d4;stroke:none;stroke-width:34;stroke-linecap:butt"/></g><g transform="translate(8.648 -27.894)"><title>Sheet.19641</title><path d="M1.13 124.71A1.292 1.308 0 0 1 0 123.3c.56-15.05 10.8-24.74 22.63-24.74s22.07 9.69 22.8 24.74a1.557 1.576 0 0 1-.37 1.01 1.458 1.475 0 0 1-.96.4z" style="fill:url(#a);stroke:none;stroke-width:34;stroke-linecap:butt"/></g><g transform="translate(32.571 -39.46)"><title>Sheet.19642</title><path d="M11.03 118.44A18.622 18.842-180 0 0 0 113.68v8.82a10.172 10.293 0 0 1 5.14 2.21z" style="fill:#5ea0ef;stroke:none;stroke-width:34;stroke-linecap:butt"/></g><g transform="translate(18.953 -39.594)"><title>Sheet.19643</title><path d="m0 118.57 5.9 6.14a9.94 10.058 0 0 1 5.1-2.08v-8.82a18.456 18.674-180 0 0-11 4.76" style="fill:#0078d4;stroke:none;stroke-width:34;stroke-linecap:butt"/></g><g transform="translate(39.562 -32.353)"><title>Sheet.19644</title><path d="M0 119.41a10.868 10.997 0 0 1 2.22 5.3h8.35A19.55 19.78-180 0 0 6 113.28Z" style="fill:#5ea0ef;stroke:none;stroke-width:34;stroke-linecap:butt"/></g><g transform="translate(12.525 -32.353)"><title>Sheet.19645</title><path d="m10.47 119.41-5.9-6.13A19.35 19.58-180 0 0 0 124.71h8.32a11.233 11.365 0 0 1 2.15-5.3m23.63-1.91a1.392 1.408-180 0 0-1.73-.77l-12.29 4.96.96 2.48 12.29-4.96a1.359 1.375-180 0 0 .77-1.71" style="fill:#005ba1;stroke:none;stroke-width:34;stroke-linecap:butt"/></g><g transform="translate(27.7 -29.939)"><title>Sheet.19646</title><ellipse cx="3.579" cy="121.088" rx="3.579" ry="3.621" style="fill:#767676;stroke:none;stroke-width:34;stroke-linecap:butt"/></g><title>Sheet.19647</title><path d="M34.26 124.71H1.66c-1.03 0-1.66-1.68-1.06-2.55l11.36-16.56a1.26 1.274-180 0 0 0-.74V93.9a.663.67-180 0 0-.53-.805l-.63-.005a1.292 1.308 0 0 1-1.29-1.3v-.44a1.292 1.308 0 0 1 1.29-1.31h14.42a1.26 1.274 0 0 1 1.29 1.31v.57a1.26 1.274 0 0 1-1.29 1.17h-.7a.663.67-180 0 0-.663.67l.003 10.97a1.359 1.375-180 0 0 .23.73l11.26 16.57c.57 1-.03 2.68-1.09 2.68" style="fill:url(#b);stroke:none;stroke-width:34;stroke-linecap:butt"/><g transform="translate(5.917 -3.688)"><title>Sheet.19648</title><path d="m.05 123.6 8.15-12.07a2.85 2.883-180 0 0 .53-1.71v-4.89a.96.972 0 0 1 .96-.972l4.64.002a.928.939 0 0 1 .928.972l.002 5.258a1.988 2.012-180 0 0 .36 1.14l8.35 12.27a.696.704 0 0 1-.596 1.106L.61 124.71a.696.704 0 0 1-.563-1.106z" style="fill:#fff;stroke:none;stroke-width:34;stroke-linecap:butt"/></g></g></g></svg>