<svg xmlns="http://www.w3.org/2000/svg" xml:space="preserve" width="56.578" height="56.961" style="font-size:12px;overflow:visible;color-interpolation-filters:sRGB;fill-rule:evenodd;stroke-linecap:square;stroke-miterlimit:3" viewBox="0 0 56.578 56.961"><defs><linearGradient id="a" x1=".363" x2="35.74" y1="90.768" y2="90.768" gradientTransform="scale(1.00932 .99077)" gradientUnits="userSpaceOnUse"><stop offset="0" stop-color="#32d4f5"/><stop offset=".32" stop-color="#31d1f3"/><stop offset=".53" stop-color="#2ec9eb"/><stop offset=".7" stop-color="#29bade"/><stop offset=".86" stop-color="#22a5cb"/><stop offset="1" stop-color="#198ab3"/><stop offset="1" stop-color="#198ab3"/></linearGradient></defs><g transform="translate(-34 -34.003)"><title>Page-1</title><g transform="translate(33.634 -34.016)"><title>Machine Learning Studio Web Service (classic).19649</title><title>Icon-machinelearning-163</title><g transform="translate(19.649 -19.524)"><title>Sheet.19651</title><path d="M29.15 124.98A20.778 20.875 0 1 1 3.67 92l.23-.16a20.77 20.867 0 0 1 25.25 33.14" style="fill:#f2f2f2;stroke:none;stroke-width:34;stroke-linecap:butt"/></g><g transform="translate(16.246 -15.018)"><title>Sheet.19652</title><path d="M36.41 91.4a20.795 20.892-180 0 0-29.1-4.1l-.24.16a20.795 20.892-180 0 0 12.79 37.52 20.463 20.558-180 0 0 12.69-4.38 20.862 20.959-180 0 0 3.86-29.2M1.76 102.65a18.437 18.523 0 0 1 2.03-7.11H8.8a36.01 36.177-180 0 0-.96 7.11zm9.96-7.11h6.91v7.11h-8.1a31.259 31.405 0 0 1 1.06-7.11zm9.57 0h6.91a31.259 31.405 0 0 1 1.06 7.11h-7.97zm-2.66 9.78v7.07h-7.04a30.694 30.838 0 0 1-1.06-7.07zm2.66 0h7.97a30.694 30.838 0 0 1-1.06 7.07h-7.04zm10.66 0H38a18.636 18.723 0 0 1-1.99 7.07h-5.18a33.219 33.374-180 0 0 .99-7.07zm0-2.67a33.65 33.808-180 0 0-.99-7.11h5.05a17.971 18.055 0 0 1 1.99 7.11zm2.36-9.78h-4.28a19.666 19.757-180 0 0-2.92-5.54 17.938 18.022 0 0 1 7.07 5.54zm-7.04 0h-5.98V86.2a10.863 10.913 0 0 1 5.85 6.67zm-8.64-6.67v6.67h-6.11a10.863 10.913 0 0 1 5.98-6.81zm-9.9 3.4a17.905 17.989 0 0 1 3.66-2.17A20.33 20.425-180 0 0 9.47 93H5.48a16.776 16.854 0 0 1 3.25-3.4m-6.97 15.72h6.08a35.677 35.844-180 0 0 .96 7.07H3.79a17.34 17.421 0 0 1-2.03-7.07m3.75 9.81h4.12a20.13 20.225-180 0 0 2.93 5.54 17.772 17.855 0 0 1-7.05-5.54m7.01 0h5.98v6.68a10.863 10.913 0 0 1-5.98-6.85zm8.64 6.68v-6.85h5.98a10.863 10.913 0 0 1-5.98 6.95zm9.77-3.51a16.61 16.687 0 0 1-3.86 2.27 19.333 19.424-180 0 0 2.96-5.61h4.15a18.868 18.956 0 0 1-3.25 3.34" style="fill:#0078d4;stroke:none;stroke-width:34;stroke-linecap:butt"/></g><title>Sheet.19653</title><path d="M34.75 124.98H1.66c-1.03 0-1.66-1.71-1.06-2.57l11.39-16.69a1.296 1.302-180 0 0 .23-.77V93.94a.664.667-180 0 0-.664-.667l-.596-.003a1.296 1.302 0 0 1-1.29-1.3v-.6a1.296 1.302 0 0 1 1.29-1.44h14.52a1.329 1.335 0 0 1 1.29 1.34v.6a1.329 1.335 0 0 1-1.29 1.4h-.63a.631.634-180 0 0-.631.667l.001 11.043a1.13 1.135-180 0 0 .23.74l11.39 16.69c.6.9-.03 2.57-1.09 2.57" style="fill:url(#a);stroke:none;stroke-width:34;stroke-linecap:butt"/><g transform="translate(6.112 -3.27)"><title>Sheet.19654</title><path d="m.03 123.84 8.21-12.01a2.89 2.904-180 0 0 .53-1.74v-4.84a.963.968 0 0 1 .963-.934l4.647.004a.963.968 0 0 1 .963.934l.007 5.166a1.993 2.002-180 0 0 .33 1.17l8.4 12.25a.73.734 0 0 1-.598 1.135L.63 124.98a.73.734 0 0 1-.598-1.135z" style="fill:#fff;stroke:none;stroke-width:34;stroke-linecap:butt"/></g></g></g></svg>