<svg xmlns="http://www.w3.org/2000/svg" xml:space="preserve" width="56.333" height="56.697" style="font-size:12px;overflow:visible;color-interpolation-filters:sRGB;fill-rule:evenodd;stroke-linecap:square;stroke-miterlimit:3" viewBox="0 0 56.333 56.697"><defs><linearGradient id="a" x1=".365" x2="35.392" y1="90.17" y2="90.17" gradientTransform="scale(1.0039 .99611)" gradientUnits="userSpaceOnUse"><stop offset="0" stop-color="#32d4f5"/><stop offset=".32" stop-color="#31d1f3"/><stop offset=".53" stop-color="#2ec9eb"/><stop offset=".7" stop-color="#29bade"/><stop offset=".86" stop-color="#22a5cb"/><stop offset="1" stop-color="#198ab3"/><stop offset="1" stop-color="#198ab3"/></linearGradient></defs><g transform="translate(-34.002 -33.998)"><title>Page-1</title><g transform="translate(33.635 -34.016)"><title>Machine Learning Studio Workspace (classic).19626</title><title>Icon-machinelearning-167</title><g transform="translate(17.309 -25.41)"><title>Sheet.19628</title><path d="M1.26 93.43h36.8a1.225 1.249 0 0 1 1.26 1.14v28.99a1.191 1.215 0 0 1-1.26 1.15H1.26A1.191 1.215 0 0 1 0 123.56V94.57a1.225 1.249 0 0 1 1.26-1.14" style="fill:#e6e6e6;stroke:none;stroke-width:34;stroke-linecap:butt"/></g><g transform="translate(17.177 -51.226)"><title>Sheet.19629</title><path d="M1.19 119.24h37.07a1.158 1.181 0 0 1 1.19 1.08v4.39H0v-4.39a1.158 1.181 0 0 1 1.19-1.08" style="fill:#5ea0ef;stroke:none;stroke-width:34;stroke-linecap:butt"/></g><g transform="translate(17.177 -38.301)"><title>Sheet.19630</title><path d="M0 111.785h13.172v12.925H0z" style="fill:#83b9f9;stroke:none;stroke-width:34;stroke-linecap:butt"/></g><g transform="translate(30.283 -38.301)"><title>Sheet.19631</title><path d="M0 111.785h13.172v12.925H0z" style="fill:#0078d4;stroke:none;stroke-width:34;stroke-linecap:butt"/></g><g transform="translate(43.455 -38.301)"><title>Sheet.19632</title><path d="M0 111.785h13.172v12.925H0z" style="fill:#83b9f9;stroke:none;stroke-width:34;stroke-linecap:butt"/></g><g transform="translate(43.455 -25.276)"><title>Sheet.19633</title><path d="M11.29 124.71H0v-13.06h13.24v11a1.886 1.924 0 0 1-1.95 2.06" style="fill:#0078d4;stroke:none;stroke-width:34;stroke-linecap:butt"/></g><g transform="translate(30.382 -25.41)"><title>Sheet.19634</title><path d="M0 111.785h13.172v12.925H0z" style="fill:#83b9f9;stroke:none;stroke-width:34;stroke-linecap:butt"/></g><g transform="translate(17.21 -25.41)"><title>Sheet.19635</title><path d="M0 111.785h13.172v12.925H0z" style="fill:#0078d4;stroke:none;stroke-width:34;stroke-linecap:butt"/></g><title>Sheet.19636</title><path d="M34.22 124.71H1.65c-1.02 0-1.65-1.69-1.05-2.57l11.22-16.87a1.125 1.147-180 0 0 .13-.57V93.66a.662.675-180 0 0-.53-.675l-.63.005a1.29 1.316 0 0 1-1.29-1.32v-.57a1.29 1.316 0 0 1 1.29-1.28h14.4a1.258 1.282 0 0 1 1.29 1.28v.61a1.258 1.282 0 0 1-1.29 1.28h-.7a.662.675-180 0 0-.662.641l.002 11.069a1.357 1.384-180 0 0 .23.74l11.25 16.67c.57.91-.03 2.6-1.09 2.6" style="fill:url(#a);stroke:none;stroke-width:34;stroke-linecap:butt"/><g transform="translate(5.881 -3.577)"><title>Sheet.19637</title><path d="m.08 123.56 8.14-12.11a2.846 2.902-180 0 0 .53-1.72v-5.07a.96.979 0 0 1 .96-.979l4.63.009a.927.945 0 0 1 .927.979l.003 5.391a1.986 2.025-180 0 0 .36 1.15l8.34 12.35a.695.709 0 0 1-.596 1.147L.64 124.71a.695.709 0 0 1-.563-1.147z" style="fill:#fff;stroke:none;stroke-width:34;stroke-linecap:butt"/></g></g></g></svg>