<svg xmlns="http://www.w3.org/2000/svg" xml:space="preserve" width="57.172" height="56.665" style="font-size:12px;overflow:visible;color-interpolation-filters:sRGB;fill-rule:evenodd;stroke-linecap:square;stroke-miterlimit:3" viewBox="0 0 57.172 56.665"><defs><linearGradient id="a" x1="-.469" x2="22.492" y1="92.323" y2="92.323" gradientTransform="scale(1.1146 .89718)" gradientUnits="userSpaceOnUse"><stop offset=".055" stop-color="#2aac94"/><stop offset=".155" stop-color="#239c87"/><stop offset=".37" stop-color="#177e71"/><stop offset=".59" stop-color="#0e6961"/><stop offset=".8" stop-color="#095d57"/><stop offset="1" stop-color="#085954"/></linearGradient><linearGradient id="b" x1="0" x2="34.607" y1="89.307" y2="89.307" gradientTransform="scale(1.19746 .8351)" gradientUnits="userSpaceOnUse"><stop offset=".04" stop-color="#abe88e"/><stop offset=".55" stop-color="#2aaa92"/><stop offset=".905" stop-color="#117865"/></linearGradient><linearGradient id="c" x1="0" x2="40.993" y1="92.454" y2="92.454" gradientTransform="scale(1.28959 .77544)" gradientUnits="userSpaceOnUse"><stop offset=".045" stop-color="#25ffd4"/><stop offset=".875" stop-color="#55ddb9"/></linearGradient></defs><g transform="translate(-12.75 -12.749)"><title>Page-1</title><g transform="translate(13.149 -34.016)"><title>Microsoft Fabric.19609</title><title>g24</title><g transform="translate(.123)"><title>path4</title><path d="M1.82 85.86.98 88.9c-.31.97-.74 2.4-.98 3.67a8.046 7.974-180 0 0 6.63 10.75c1.13.16 2.41.15 3.85-.06l6.59-.9a4.18 4.142-180 0 0 3.46-3.01l4.54-16.52z" style="fill:url(#a);stroke:none;stroke-width:12.75;stroke-linecap:butt"/></g><g transform="translate(0 -10.57)"><title>path6</title><path d="M8.38 97.21C1.43 98.28 0 103.48 0 103.48l6.66-24.24 34.78-4.66-4.74 17.07a2.439 2.417 0 0 1-1.99 1.76l-.19.03-26.34 3.81z" style="fill:url(#b);stroke:none;stroke-width:12.75;stroke-linecap:butt"/></g><g transform="translate(3.908 -24.928)"><title>path10</title><path d="m8.41 96.11 38.51-5.64a2.283 2.262-180 0 0 1.89-1.66l3.97-14.25a2.28 2.26-180 0 0-2.48-2.85l-36.74 5.38a10.27 10.178-180 0 0-8.26 7.36L0 103.48c1.06-3.85 1.72-6.17 8.41-7.37" style="fill:url(#c);stroke:none;stroke-width:12.75;stroke-linecap:butt"/></g></g></g></svg>