<svg xmlns="http://www.w3.org/2000/svg" xml:space="preserve" width="56.69" height="56.69" style="font-size:12px;overflow:visible;color-interpolation-filters:sRGB;fill-rule:evenodd;stroke-linecap:square;stroke-miterlimit:3" viewBox="0 0 56.69 56.69"><defs><linearGradient id="a" x1="0" x2="28.488" y1="81.863" y2="81.863" gradientTransform="scale(.88486 1.13012)" gradientUnits="userSpaceOnUse"><stop offset="0" stop-color="#42e8ca"/><stop offset="1" stop-color="#37c2b1"/></linearGradient></defs><g transform="translate(-34 -34.004)"><title>Page-1</title><g transform="translate(34 -34.016)"><title>Object Anchors Account.19600</title><title>Sheet.19601</title><g transform="translate(23.64 -17.087)"><title>Sheet.19602</title><path d="m1.06 113.86 10.56-20.73a1.128 1.124 0 0 1 2-.02l10.53 19.82a7.084 7.065 0 0 1 1.05 4.05c0 4.27-5.64 7.73-12.6 7.73S0 121.25 0 116.98a5.34 5.326 0 0 1 1.06-3.12" style="fill:url(#a);stroke:none;stroke-width:34;stroke-linecap:butt"/></g><g transform="translate(20.293 -8.661)"><title>Sheet.19603</title><path d="M12.94 102.27v14.94L0 124.71v-14.96z" style="fill:#50e6ff;stroke:none;stroke-width:34;stroke-linecap:butt"/></g><g transform="translate(7.35 -8.661)"><title>Sheet.19604</title><path d="M12.94 109.77v14.94L0 117.21v-14.94z" style="fill:#9cebff;stroke:none;stroke-width:34;stroke-linecap:butt"/></g><g transform="translate(7.35 -23.597)"><title>Sheet.19605</title><path d="m25.89 117.21-12.94 7.5L0 117.21l12.95-7.51Z" style="fill:#c3f1ff;stroke:none;stroke-width:34;stroke-linecap:butt"/></g><g transform="translate(6.459 -7.874)"><title>Sheet.19606</title><path d="m27.22 101.74.44-.25-.44-.26v-.52l-.44.26-12.95-7.5-12.95 7.5-.44-.26v.52l-.44.25.44.26v14.93l12.95 7.51v.53l.45-.26.44.26v-.52l12.95-7.5zm-13.39-7.25 12.06 6.99-12.07 6.98-2.99-1.73-9.05-5.25zM1.34 116.16v-13.9l12.05 6.98v13.91zm12.95 6.99v-13.91l12.05-6.98v13.9z" style="fill:#32bedd;stroke:none;stroke-width:34;stroke-linecap:butt"/></g><title>Sheet.19607</title><path d="M1.82 83.47A1.813 1.808 0 0 1 0 81.67V69.82a1.813 1.808 0 0 1 1.82-1.8h11.11a1.816 1.811 0 0 1 0 3.61H3.64v10.04a1.813 1.808 0 0 1-1.82 1.8m53.06 0a1.813 1.808 0 0 1-1.82-1.8V71.63h-9.31a1.816 1.811 0 0 1 0-3.61h11.13a1.813 1.808 0 0 1 1.81 1.8v11.85a1.813 1.808 0 0 1-1.81 1.8m-41.94 41.24H1.82A1.813 1.808 0 0 1 0 122.9v-11.84a1.816 1.811 0 0 1 3.63 0v10.03h9.31a1.816 1.811 0 0 1 0 3.62m41.94 0H43.76a1.816 1.811 0 0 1 0-3.62h9.3v-10.03a1.816 1.811 0 0 1 3.63 0v11.84a1.813 1.808 0 0 1-1.81 1.81" style="fill:#50e6ff;stroke:none;stroke-width:34;stroke-linecap:butt"/><g transform="translate(6.42 -7.624)"><title>Sheet.19608</title><path d="M2.52 101.31a1.475 1.47 0 1 1-1.47-1.46 1.475 1.47 0 0 1 1.47 1.46m11.35-8.98a1.472 1.468-180 1 0 1.48 1.47 1.469 1.465-180 0 0-1.48-1.47m12.92 7.52a1.475 1.47-180 1 0 1.48 1.46 1.472 1.468-180 0 0-1.48-1.46m-12.92 7.42a1.475 1.47-180 1 0 1.48 1.47 1.472 1.468-180 0 0-1.48-1.47m-12.82 7.59a1.475 1.47-180 1 0 1.47 1.47 1.475 1.47-180 0 0-1.47-1.47m12.82 7.34a1.472 1.468-180 1 0 1.48 1.47 1.472 1.468-180 0 0-1.48-1.47m12.92-7.34a1.475 1.47-180 1 0 1.48 1.47 1.475 1.47-180 0 0-1.48-1.47" style="fill:#198ab3;stroke:none;stroke-width:34;stroke-linecap:butt"/></g></g></g></svg>