<svg xmlns="http://www.w3.org/2000/svg" xml:space="preserve" width="45.154" height="56.616" style="font-size:12px;overflow:visible;color-interpolation-filters:sRGB;fill-rule:evenodd;stroke-linecap:square;stroke-miterlimit:3" viewBox="0 0 45.154 56.616"><defs><linearGradient id="a" x1="0" x2="33.354" y1="24.832" y2="24.832" gradientTransform="scale(.59054 1.69336)" gradientUnits="userSpaceOnUse"><stop offset="0" stop-color="#e6ad10"/><stop offset="1" stop-color="#c87e0e"/></linearGradient><linearGradient id="b" x1="0" x2="28.865" y1="38.37" y2="38.37" gradientTransform="scale(.68238 1.46545)" gradientUnits="userSpaceOnUse"><stop offset="0" stop-color="#f6d751"/><stop offset="1" stop-color="#e6ad10"/></linearGradient><linearGradient id="c" x1="0" x2="23.626" y1="58.516" y2="58.516" gradientTransform="scale(.83368 1.1995)" gradientUnits="userSpaceOnUse"><stop offset="0" stop-color="#f9e589"/><stop offset="1" stop-color="#f6d751"/></linearGradient></defs><g transform="translate(-5.592 -7.898)"><title>Page-1</title><g transform="translate(5.592 -34.016)"><title>Power BI Embedded.19595</title><title>layer1</title><g transform="translate(25.457 -.136)"><title>path2-9-0-3-4</title><path d="m19.68 42.83-.03 51.91s.08 3.74-1.84 3.69l-15.97.1s-1.8-.47-1.78-3.25L0 45.83s0-3.77 1.75-3.78l16.25.02c1.9-.1 1.69 3.32 1.69 3.32z" style="fill:url(#a);stroke:none;stroke-width:7.89394999;stroke-linecap:butt"/></g><g transform="translate(12.596 -.074)"><title>path2-9-0-3</title><path d="m19.68 56.82-.03 38.87s.08 2.8-1.84 2.76l-15.97.08S.04 98.18.06 96.1L0 59.06s0-2.82 1.75-2.83l16.25.02c1.9-.07 1.69 2.49 1.69 2.49z" style="fill:url(#b);stroke:none;stroke-width:6.83093023;stroke-linecap:butt"/></g><title>path2-9-0</title><path d="m19.68 70.58-.03 26.05s.08 1.87-1.84 1.85l-15.97.05S.04 98.29.06 96.9L0 72.08s0-1.89 1.75-1.89L18 70.2c1.9-.05 1.69 1.67 1.69 1.67z" style="fill:url(#c);stroke:none;stroke-width:5.59174013;stroke-linecap:butt"/></g></g></svg>