<svg xmlns="http://www.w3.org/2000/svg" xml:space="preserve" width="56.69" height="42.528" style="font-size:12px;overflow:visible;color-interpolation-filters:sRGB;fill-rule:evenodd;stroke-linecap:square;stroke-miterlimit:3" viewBox="0 0 56.69 42.528"><g transform="translate(-9.221 -9.216)"><title>Page-1</title><g transform="translate(9.221 -34.016)"><title>Power BI.19591</title><title>Layer_1-2</title><g transform="translate(0 -5.668)"><title>path6</title><path d="M48.72 85.76v-2.64H50c2.44 0 4.04-1.97 4.04-4.38V55.61A3.853 3.817-180 0 0 50 51.54H6.69a3.853 3.817-180 0 0-4.03 4.07v23.13c0 2.41 1.59 4.38 4.03 4.38h1.28v2.64H6.69C2.99 85.76 0 82.4 0 78.74V55.61a6.768 6.703 0 0 1 6.69-6.71H50a6.768 6.703 0 0 1 6.69 6.71v23.13c0 3.66-2.99 7.02-6.69 7.02z" style="fill:#f2c811;stroke:none;stroke-width:9.22097969;stroke-linecap:butt"/></g><g transform="translate(10.63)"><title>path8</title><path d="M3.1 85.76A3.198 3.167 0 0 1 0 82.49v-7.51a3.198 3.167 0 0 1 3.1-3.26 3.198 3.167 0 0 1 3.1 3.25v7.52a3.198 3.167 0 0 1-3.09 3.27zm9.74-.29a3.118 3.089 0 0 1-3.1-3.1V64.01a3.1 3.071 0 1 1 6.2 0v18.36a3.11 3.08 0 0 1-3.09 3.11zm19.52.07a3.127 3.097 0 0 1-3.13-3.13V56.2a3.1 3.071 0 1 1 6.2 0v26.21a3.11 3.08 0 0 1-3.07 3.13m-9.76.08a3.145 3.115 0 0 1-3.11-3.16V68.59a3.1 3.071 0 1 1 6.2 0v13.87a3.136 3.106 0 0 1-3.09 3.15z" style="fill:#f2c811"/><path d="M3.1 85.76A3.198 3.167 0 0 1 0 82.49v-7.51a3.198 3.167 0 0 1 3.1-3.26 3.198 3.167 0 0 1 3.1 3.25v7.52a3.198 3.167 0 0 1-3.09 3.27zm9.74-.29a3.118 3.089 0 0 1-3.1-3.1V64.01a3.1 3.071 0 1 1 6.2 0v18.36a3.11 3.08 0 0 1-3.09 3.11m19.51.06a3.127 3.097 0 0 1-3.13-3.13V56.2a3.1 3.071 0 1 1 6.2 0v26.21a3.11 3.08 0 0 1-3.07 3.13m-9.76.08a3.145 3.115 0 0 1-3.11-3.16V68.59a3.1 3.071 0 1 1 6.2 0v13.87a3.136 3.106 0 0 1-3.09 3.15" style="stroke:none;stroke-width:9.22097969;stroke-linecap:butt"/></g></g></g></svg>