<svg xmlns="http://www.w3.org/2000/svg" xml:space="preserve" width="56.69" height="39.708" style="font-size:12px;overflow:visible;color-interpolation-filters:sRGB;fill-rule:evenodd;stroke-linecap:square;stroke-miterlimit:3" viewBox="0 0 56.69 39.708"><defs><linearGradient id="a" x1="0" x2="47.445" y1="81.265" y2="81.265" gradientTransform="scale(1.19486 .83692)" gradientUnits="userSpaceOnUse"><stop offset="0" stop-color="#0078d4"/><stop offset=".155" stop-color="#1380da"/><stop offset=".53" stop-color="#3c91e5"/><stop offset=".82" stop-color="#559cec"/><stop offset="1" stop-color="#5ea0ef"/></linearGradient><linearGradient id="b" x1="0" x2="19.968" y1="76.131" y2="76.131" gradientTransform="scale(.8922 1.12082)" gradientUnits="userSpaceOnUse"><stop offset="0" stop-color="#c3f1ff"/><stop offset=".105" stop-color="#beeffe"/><stop offset=".765" stop-color="#32bedd"/></linearGradient></defs><g transform="translate(-34 -33.997)"><title>Page-1</title><g transform="translate(34 -34.016)"><title>Remote Rendering Account.19581</title><title>Sheet.19582</title><title>Sheet.19583</title><path d="M56.69 95.28a12.74 12.585-180 0 0-11.05-12.1A16.053 15.856-180 0 0 29.1 68.02a16.468 16.267-180 0 0-15.74 10.6A15.2 15.014-180 0 0 0 93.07a15.427 15.238-180 0 0 15.97 14.64q.705 0 1.41-.06h25.85a2.52 2.49-180 0 0 .68-.1 12.89 12.733-180 0 0 12.78-12.27" style="fill:url(#a);stroke:none;stroke-width:34;stroke-linecap:butt"/><g transform="translate(25.596 -10.398)"><title>Sheet.19584</title><path d="m.74 100.09 7.35-14.26a.939.928 0 0 1 1.667 0l7.313 13.63a5.018 4.956 0 0 1 .74 2.83c0 3-3.99 5.42-8.91 5.42-4.91 0-8.9-2.42-8.9-5.42a3.766 3.72 0 0 1 .74-2.2" style="fill:url(#b);stroke:none;stroke-width:34;stroke-linecap:butt"/></g><g transform="translate(25.587 -10.424)"><title>Sheet.19585</title><path d="M.75 100.24c-.6 1.2-.75 1.4-.75 2.18a3.772 3.726-180 0 0 .04.46v.17h.04c.45 2.32 3.3 4.19 6.99 4.66v-.47c-3.51-.46-6.21-2.21-6.55-4.37.15-2.17 2.81-4.5 6.55-5.02v-.27l-.07.04-.32-.18a9.368 9.253-180 0 0-5.39 2.78l.05-.1 2.28-4.42-.41-.23-2.46 4.79z" style="fill:#fff;stroke:none;stroke-width:34;stroke-linecap:butt"/></g><g transform="translate(22.971 -4.114)"><title>Sheet.19586</title><path d="M9.67 91.09v11.06L0 107.71V96.63Z" style="fill:#9cebff;fill-opacity:.8;stroke:none;stroke-width:34;stroke-linecap:butt"/></g><g transform="translate(13.296 -15.2)"><title>Sheet.19587</title><path d="m19.35 102.16-9.68 5.55L0 102.15l9.67-5.55Z" style="fill:#9cebff;fill-opacity:.85;stroke:none;stroke-width:34;stroke-linecap:butt"/></g><g transform="translate(13.296 -4.13)"><title>Sheet.19588</title><path d="M9.67 96.65v11.06L0 102.15V91.09Z" style="fill:#9cebff;stroke:none;stroke-width:34;stroke-linecap:butt"/></g><g transform="translate(13.07 -3.846)"><title>Sheet.19589</title><path d="M9.9 107.71 0 102.03V90.69l9.9-5.67 9.9 5.67v11.33zm-9.44-5.96 9.44 5.42 9.44-5.42V90.96L9.9 85.54.46 90.96Z" style="fill:#fff;stroke:none;stroke-width:34;stroke-linecap:butt"/></g><g transform="translate(28.797 -10.424)"><title>Sheet.19590</title><path d="M14.6 102.29a5.018 4.956-180 0 0-.74-2.83L6.54 85.83a.939.928-180 0 0-1.667 0L0 95.33l.41.23 4.89-9.5a.457.451 0 0 1 .418-.256.46.454 0 0 1 .416.247L13.45 99.68v.04a3.877 3.83 0 0 1 .57 1.46 10.515 10.386-180 0 0-8.62-4.02 11.236 11.099-180 0 0-1.94.16l.32.18.07-.04v.27a11.233 11.096 0 0 1 1.56-.11c4.71 0 8.51 2.77 8.68 5.14-.4 2.53-4.01 4.48-8.4 4.48a13.846 13.676 0 0 1-1.84-.12v.47a14.494 14.317-180 0 0 1.84.12c4.57 0 8.33-2.09 8.84-4.78h.05c0-.05 0-.11-.02-.16a3.465 3.423-180 0 0 .04-.48" style="fill:#fff;stroke:none;stroke-width:34;stroke-linecap:butt"/></g></g></g></svg>