<svg xmlns="http://www.w3.org/2000/svg" xml:space="preserve" width="56.693" height="56.693" style="font-size:12px;overflow:visible;color-interpolation-filters:sRGB;fill-rule:evenodd;stroke-linecap:square;stroke-miterlimit:3" viewBox="0 0 56.693 56.693"><defs><linearGradient id="a" x1="0" x2="48.357" y1="97.839" y2="97.839" gradientTransform="scale(1.17233 .853)" gradientUnits="userSpaceOnUse"><stop offset=".18" stop-color="#5ea0ef"/><stop offset="1" stop-color="#0078d4"/></linearGradient></defs><g transform="translate(-34 -34)"><title>Page-1</title><g transform="translate(34 -34.016)"><title>Search Service.19575</title><title>Azure-Search</title><g transform="translate(0 -8.133)"><title>Sheet.19577</title><path d="M56.69 111.8a12.976 12.976-180 0 0-11.05-12.6A16.22 16.22-180 0 0 29.1 83.46a16.535 16.535-180 0 0-15.75 10.99A15.31 15.31-180 0 0 0 109.5a15.75 15.75-180 0 0 15.97 15.18h27.24a2.5 2.5-180 0 0 .7 0 13.01 13.01-180 0 0 12.78-12.88" style="fill:url(#a);stroke:none;stroke-width:34;stroke-linecap:butt"/></g><g transform="translate(14.101 -14.394)"><title>Sheet.19578</title><path d="M24.73 103.17a9.67 9.67-180 0 0-17.67 2.67 9.95 9.95-180 0 0 1.04 7.15l-7.37 7.47a2.49 2.49-180 0 0 0 3.52 2.46 2.46-180 0 0 1.77.73 2.4 2.4-180 0 0 1.76-.73l7.34-7.43a10 10-180 0 0 2.55 1.04 9.7 9.7-180 0 0 10.58-14.42m-1.7 6.61a6.8 6.8 0 0 1-6.58 5.2 5.6 5.6 0 0 1-1.61-.22 5.9 5.9 0 0 1-2.2-1.01 6.7 6.7 0 0 1-1.77-1.77 6.84 6.84 0 0 1-.97-5.44 6.74 6.74 0 0 1 6.55-5.23 7.3 7.3 0 0 1 1.64.19 6.87 6.87 0 0 1 4.15 3.15 6.7 6.7 0 0 1 .79 5.13" style="fill:#f2f2f2;stroke:none;stroke-width:34;stroke-linecap:butt"/></g><g transform="translate(23.748 -24.126)"><title>Sheet.19579</title><ellipse cx="6.772" cy="117.906" rx="6.772" ry="6.803" style="fill:#83b9f9;stroke:none;stroke-width:34;stroke-linecap:butt"/></g><title>Sheet.19580</title><path d="M0 68.016h56.693v56.693H0z" style="fill:none;stroke:none;stroke-width:34;stroke-linecap:butt"/></g></g></svg>