<svg xmlns="http://www.w3.org/2000/svg" xml:space="preserve" width="53.856" height="56.698" style="font-size:12px;overflow:visible;color-interpolation-filters:sRGB;fill-rule:evenodd;stroke-linecap:square;stroke-miterlimit:3" viewBox="0 0 53.856 56.698"><g transform="translate(-12.24 -12.235)"><title>Page-1</title><g transform="translate(12.24 -34.016)"><title>Spatial Anchors Account.19563</title><title>Sheet.19564</title><g transform="translate(1.348 -2.497)"><title>Sheet.19565</title><path d="m0 85.07 23.39-16.74 23.4 16.74-23.4 17.88z" style="fill:#3999c6;stroke:none;stroke-width:12.23999977;stroke-linecap:butt"/></g><g transform="translate(7.074 -6.784)"><title>Sheet.19566</title><path d="M0 89.44 17.67 76.8l17.66 12.64-17.66 13.51Z" style="fill:#fff;stroke:none;stroke-width:12.23999977;stroke-linecap:butt"/></g><g transform="translate(7.074 -6.784)"><title>Sheet.19567</title><path d="M0 89.44 17.67 76.8l17.66 12.64-17.66 13.51Z" style="fill:#59b4d9;fill-opacity:.4;stroke:none;stroke-width:12.23999977;stroke-linecap:butt"/></g><g transform="translate(36.152 -12.523)"><title>Sheet.19568</title><ellipse cx="7.795" cy="95.094" rx="7.795" ry="7.855" style="fill:#fff;stroke:none;stroke-width:12.23999977;stroke-linecap:butt"/></g><g transform="translate(36.152 -12.523)"><title>Sheet.19569</title><path d="M7.8 90.65c2.42 0 4.4 2 4.4 4.44 0 2.45-1.98 4.44-4.4 4.44-2.43 0-4.41-1.99-4.41-4.44 0-2.44 1.98-4.44 4.41-4.44m0-3.41a7.795 7.855-180 1 0 0 15.71 7.795 7.855-180 0 0 0-15.71" style="fill:#3999c6;stroke:none;stroke-width:12.23999977;stroke-linecap:butt"/></g><g transform="translate(34.036 -19.24)"><title>Sheet.19570</title><path d="M19.82 76.25c0-5.87-4.44-10.76-9.91-10.76S0 70.18 0 76.25c0 6.08 9.91 22.71 9.91 26.7 0-3.99 9.91-20.82 9.91-26.7" style="fill:#804998;stroke:none;stroke-width:12.23999977;stroke-linecap:butt"/></g><g transform="translate(39.541 -42.121)"><title>Sheet.19571</title><ellipse cx="4.406" cy="98.509" rx="4.406" ry="4.44" style="fill:#fff;stroke:none;stroke-width:12.23999977;stroke-linecap:butt"/></g><g transform="translate(19.206 -28.46)"><title>Sheet.19572</title><ellipse cx="5.536" cy="97.37" rx="5.536" ry="5.578" style="fill:#804998;stroke:none;stroke-width:12.23999977;stroke-linecap:butt"/></g><g transform="translate(0 -14.8)"><title>Sheet.19573</title><ellipse cx="5.536" cy="97.37" rx="5.536" ry="5.578" style="fill:#804998;stroke:none;stroke-width:12.23999977;stroke-linecap:butt"/></g><g transform="translate(19.206)"><title>Sheet.19574</title><ellipse cx="5.536" cy="97.37" rx="5.536" ry="5.578" style="fill:#804998;stroke:none;stroke-width:12.23999977;stroke-linecap:butt"/></g></g></g></svg>