<svg xmlns="http://www.w3.org/2000/svg" xmlns:xlink="http://www.w3.org/1999/xlink" xml:space="preserve" width="56.69" height="56.69" style="font-size:12px;overflow:visible;color-interpolation-filters:sRGB;fill-rule:evenodd;stroke-linecap:square;stroke-miterlimit:3" viewBox="0 0 56.69 56.69"><defs><linearGradient id="a" x1="0" x2="1" y1="0" y2="0"><stop offset="0" stop-color="#773adc"/><stop offset="1" stop-color="#50e6ff"/></linearGradient><linearGradient id="b" x1="0" x2="1" y1="0" y2="0"><stop offset="0" stop-color="#50e6ff"/><stop offset="1" stop-color="#773adc"/></linearGradient><linearGradient xlink:href="#a" id="c" x1="0" x2="12.307" y1="23.5" y2="23.5" gradientTransform="scale(.34696 2.88215)" gradientUnits="userSpaceOnUse"/><linearGradient xlink:href="#a" id="d" x1="0" x2="8.567" y1="42.867" y2="42.867" gradientTransform="scale(.4984 2.00643)" gradientUnits="userSpaceOnUse"/><linearGradient xlink:href="#a" id="e" x1="0" x2="6.376" y1="62.74" y2="62.74" gradientTransform="scale(.66972 1.49315)" gradientUnits="userSpaceOnUse"/><linearGradient xlink:href="#b" id="f" x1="0" x2="12.307" y1="23.5" y2="23.5" gradientTransform="scale(.34696 2.88215)" gradientUnits="userSpaceOnUse"/><linearGradient xlink:href="#b" id="g" x1="0" x2="8.567" y1="42.867" y2="42.867" gradientTransform="scale(.4984 2.00643)" gradientUnits="userSpaceOnUse"/><linearGradient xlink:href="#b" id="h" x1="0" x2="6.376" y1="62.74" y2="62.74" gradientTransform="scale(.66972 1.49315)" gradientUnits="userSpaceOnUse"/></defs><g transform="translate(-12.49 -12.494)"><title>Page-1</title><g transform="translate(12.49 -34.016)"><title>Speech Service.19553</title><title>Sheet.19554</title><g transform="translate(26.59 -1.493)"><title>Sheet.19555</title><path d="M1.84 49.49c-1.02 0-1.84.74-1.84 1.66v50.39c0 .92.83 1.66 1.84 1.66.98 0 1.8-.74 1.84-1.66V51.15c0-.92-.83-1.66-1.84-1.66" style="fill:#50e6ff;stroke:none;stroke-width:12.48980045;stroke-linecap:butt"/></g><g transform="translate(17.854 -10.732)"><title>Sheet.19556</title><path d="M2.14 67.73c-1.18 0-2.14.88-2.14 1.96v31.55c0 1.08.96 1.96 2.14 1.96 1.17 0 2.13-.88 2.13-1.96V69.69c0-1.08-.96-1.96-2.13-1.96" style="fill:url(#c);stroke:none;stroke-width:12.48980045;stroke-linecap:butt"/></g><g transform="translate(9.525 -19.872)"><title>Sheet.19557</title><path d="M2.14 86.01c-1.18 0-2.14.87-2.14 1.95v13.28c0 1.08.96 1.96 2.14 1.96 1.17 0 2.09-.83 2.13-1.96V87.96c0-1.08-.96-1.95-2.13-1.95" style="fill:url(#d);stroke:none;stroke-width:12.48980045;stroke-linecap:butt"/></g><g transform="translate(1.195 -23.685)"><title>Sheet.19558</title><path d="M2.14 93.68c-1.18 0-2.14.88-2.14 1.96v5.6c0 1.08.96 1.96 2.14 1.96 1.13 0 2.09-.87 2.13-1.96v-5.6c0-1.08-.96-1.96-2.13-1.96" style="fill:url(#e);stroke:none;stroke-width:12.48980045;stroke-linecap:butt"/></g><g transform="translate(34.541 -10.732)"><title>Sheet.19559</title><path d="M2.14 67.73c-1.18 0-2.14.88-2.14 1.96v31.55c0 1.08.96 1.96 2.14 1.96 1.17 0 2.13-.88 2.13-1.96V69.69c0-1.08-.96-1.96-2.13-1.96" style="fill:url(#f);stroke:none;stroke-width:12.48980045;stroke-linecap:butt"/></g><g transform="translate(42.874 -19.872)"><title>Sheet.19560</title><path d="M2.14 86.01c-1.18 0-2.14.87-2.14 1.95v13.3c.04 1.1.95 1.94 2.14 1.94 1.18 0 2.13-.88 2.13-1.96V87.96c0-1.08-.96-1.95-2.13-1.95" style="fill:url(#g);stroke:none;stroke-width:12.48980045;stroke-linecap:butt"/></g><g transform="translate(51.232 -23.685)"><title>Sheet.19561</title><path d="M2.13 93.68c-1.18 0-2.13.88-2.13 1.96v5.6c0 1.08.96 1.96 2.13 1.96 1.18 0 2.14-.88 2.14-1.96v-5.6c0-1.08-.96-1.96-2.14-1.96" style="fill:url(#h);stroke:none;stroke-width:12.48980045;stroke-linecap:butt"/></g><title>Sheet.19562</title><path d="M1.23 56.37a1.13 1.13 0 0 1-.8-.33 1.13 1.13 0 0 1-.34-.8v-7.6a1.14 1.14 0 0 1 1.14-1.13h7.13c.3 0 .59.11.8.33a1.134 1.134 0 0 1 0 1.61 1.13 1.13 0 0 1-.81.33H2.37v6.45a1.15 1.15 0 0 1-.33.81 1.15 1.15 0 0 1-.81.34zm55.46-1.13v-7.6a1.13 1.13-180 0 0-.34-.8 1.15 1.15-180 0 0-.8-.33h-7.13a1.13 1.13-180 0 0-.8.33 1.134 1.134-180 0 0 0 1.61 1.14 1.14-180 0 0 .8.33h5.98v6.45a1.14 1.14-180 0 0 1.14 1.15 1.14 1.14-180 0 0 1.14-1.15zM9.41 102.06a1.1 1.1-180 0 0-.09-.43 1.13 1.13-180 0 0-1.05-.7H2.28v-6.46a1.14 1.14-180 0 0-1.14-1.14A1.14 1.14-180 0 0 0 94.47v7.59a1.14 1.14-180 0 0 1.14 1.13h7.13a1.13 1.13-180 0 0 .8-.33 1.13 1.13-180 0 0 .33-.8zm47.28 0v-7.59a1.14 1.14-180 0 0-1.14-1.14 1.14 1.14-180 0 0-1.14 1.14v6.46h-5.97a1.1 1.1-180 0 0-.44.09 1.133 1.133-180 0 0-.61 1.48 1.13 1.13-180 0 0 1.05.7h7.12a1.13 1.13-180 0 0 .8-.34 1.13 1.13-180 0 0 .33-.8" style="fill:#773adc;stroke:none;stroke-width:12.48980045;stroke-linecap:butt"/></g></g></svg>