<svg xmlns="http://www.w3.org/2000/svg" xml:space="preserve" width="56.689" height="42.526" style="font-size:12px;overflow:visible;color-interpolation-filters:sRGB;fill-rule:evenodd;stroke-linecap:square;stroke-miterlimit:3" viewBox="0 0 56.689 42.526"><defs><linearGradient id="a" x1="0" x2="37.525" y1="107.055" y2="107.055" gradientTransform="scale(1.30794 .76456)" gradientUnits="userSpaceOnUse"><stop offset="0" stop-color="#773adc"/><stop offset=".23" stop-color="#7b3fde"/><stop offset=".505" stop-color="#864ee4"/><stop offset=".81" stop-color="#9867ed"/><stop offset="1" stop-color="#a67af4"/></linearGradient><linearGradient id="b" x1="0" x2="21.568" y1="97.339" y2="97.339" gradientTransform="scale(1.07569 .92964)" gradientUnits="userSpaceOnUse"><stop offset="0" stop-color="#50e6ff"/><stop offset="1" stop-color="#32bedd"/></linearGradient></defs><g transform="translate(-34 -33.998)"><title>Page-1</title><g transform="translate(34 -34.016)"><title>Virtual Visits Builder.19535</title><title>Sheet.19536</title><g transform="translate(0 -3.5)"><title>Sheet.19537</title><path d="M0 81.85h49.08v27.06a1.641 1.623 0 0 1-1.64 1.63H1.64A1.641 1.623 0 0 1 0 108.91Z" style="fill:url(#a);stroke:none;stroke-width:34;stroke-linecap:butt"/></g><g transform="translate(0 -32.186)"><title>Sheet.19538</title><path d="M1.65 100.2h45.78a1.638 1.62 0 0 1 1.64 1.63v8.71H0v-8.71a1.641 1.623 0 0 1 1.64-1.63z" style="fill:#773adc;stroke:none;stroke-width:34;stroke-linecap:butt"/></g><g transform="translate(5.767 -15.313)"><title>Sheet.19539</title><path d="M0 109.97V98.01c0-.31.19-.57.42-.57h16.85c.24 0 .43.25.43.57v11.96c0 .31-.19.57-.43.57H.42c-.23 0-.42-.26-.42-.57" style="fill:#f2f2f2;stroke:none;stroke-width:34;stroke-linecap:butt"/></g><g transform="translate(5.767 -7.255)"><title>Sheet.19540</title><path d="M16.73 110.54H.97c-.54 0-.97-.26-.97-.57v-3.98c0-.31.43-.57.97-.57h15.76c.53 0 .97.26.97.57v3.96c0 .32-.44.59-.97.59m21.63-16.43H22.03c-.55 0-1-.25-1-.56v-3.93c0-.31.45-.57 1-.57h16.33c.56 0 1.01.26 1.01.57v3.93c-.01.31-.46.56-1.01.56" style="fill:#b796f9;stroke:none;stroke-width:34;stroke-linecap:butt"/></g><g transform="translate(44.55 -3.016)"><title>Sheet.19541</title><path d="M11.08 110.4.74 105.64a1.203 1.19 0 0 1-.74-1.22v-1.64a1.218 1.205 0 0 1 .74-1.22l10.34-4.75c.55-.14 1.06.44 1.06 1.21v11.16c0 .77-.51 1.36-1.06 1.22" style="fill:#32bedd;stroke:none;stroke-width:34;stroke-linecap:butt"/></g><g transform="translate(26.907)"><title>Sheet.19542</title><path d="M0 109.33a1.215 1.202-180 0 0 1.22 1.21h20.77a1.215 1.202-180 0 0 1.21-1.21V91.69a1.215 1.202-180 0 0-1.21-1.2H1.22A1.215 1.202-180 0 0 0 91.69Z" style="fill:url(#b);stroke:none;stroke-width:34;stroke-linecap:butt"/></g><g transform="translate(33.997 -4.611)"><title>Sheet.19543</title><path d="M0 105.2v-4.31a1.206 1.193 0 0 1 1.81-1.03l3.79 2.15 3.77 2.15a1.209 1.196 0 0 1 0 2.07l-3.77 2.15-3.79 2.16A1.206 1.193 0 0 1 0 109.5Z" style="fill:#c3f1ff;stroke:none;stroke-width:34;stroke-linecap:butt"/></g></g></g></svg>