<svg xmlns="http://www.w3.org/2000/svg" viewBox="0 0 512 512"><path fill="none" d="M0 0h512v512H0z"/><path fill="#ea4335" d="M442.54 458.45c-5.87 0-11.52-3.24-14.33-8.85L241.73 76.61c-3.95-7.9-.75-17.52 7.16-21.47s17.52-.75 21.47 7.16l186.49 372.99c3.95 7.9.75 17.52-7.16 21.47-2.3 1.15-4.74 1.69-7.14 1.69Z"/><path fill="#fbbc04" d="M69.53 458.45c-2.4 0-4.85-.55-7.14-1.69-7.9-3.95-11.11-13.57-7.16-21.47L241.73 62.3c3.95-7.9 13.55-11.08 21.47-7.16 6.19 3.07 7.59 8.08 10.73 14.31L83.86 449.6c-2.8 5.61-8.46 8.85-14.33 8.85"/><path fill="#fbbc04" d="M69.54 458.44c-3.97 0-7.95-1.47-11.05-4.43-6.39-6.1-6.63-16.23-.53-22.63l186.49-195.37c6.1-6.39 16.23-6.63 22.63-.53 6.39 6.1 6.63 16.23.53 22.63L81.12 453.48a15.97 15.97 0 0 1-11.58 4.95Z"/><path fill="#ea4335" d="M442.53 458.44c-4.22 0-8.43-1.66-11.58-4.95L233.91 247.07c4.29-4.5 6.12-6.6 11.07-11.58 6.39-6.1 16.52-5.87 22.63.53L454.1 431.39c6.1 6.39 5.87 16.52-.53 22.63-3.1 2.96-7.08 4.43-11.05 4.43Z"/><path fill="#4285f4" d="m449.41 427.99-186.49-88.81c-7.98-3.8-17.53-.41-21.33 7.57s-.41 17.53 7.57 21.33l122.55 58.36H240.04v32.01h202.49c5.98 0 11.72-3.37 14.46-9.13 3.8-7.98.41-17.53-7.57-21.33Z"/><path fill="#34a853" d="m293.26 353.63-30.34-14.45c-4.2-1.99-9.23-2.16-13.76 0L62.67 427.99c-7.98 3.8-11.37 13.35-7.57 21.33 2.74 5.76 8.48 9.13 14.46 9.13h186.48v-32.01H140.37l152.89-72.8Z"/></svg>