<svg xmlns="http://www.w3.org/2000/svg" viewBox="0 0 512 512"><path fill="none" d="M0 0h512v512H0z"/><path fill="#9aa0a6" d="M256 490.245h-.118c-.011-.003-.018 0-.025 0h-.132a.1.1 0 0 0-.033 0h-.169q-.015.002-.033 0a.1.1 0 0 1-.034-.002c-.011 0-.025-.003-.033 0-.011 0-.025-.002-.032 0a16 16 0 0 1-7.4-2.14q-1.531-.885-.002 0L61.996 381.223a16 16 0 0 1-8.028-13.873v-223.5a16 16 0 0 1 .918-5.653 15.93 15.93 0 0 1 7.207-8.586L248.092 23.846a16 16 0 0 1 15.858.024l183.963 105.338c5.93 2.342 10.124 8.124 10.124 14.887V367.34a16 16 0 0 1-8.028 13.873l-185.993 106.88h-.002a16 16 0 0 1-7.434 2.141h-.032c-.012 0-.012.002-.034.002h-.2q-.017-.002-.035 0h-.132q-.011-.002-.025 0h-.118zm16-225.749v182.102l154.037-88.518V172.147zM85.963 358.08 240 446.598V264.481L85.963 171.825v186.256Zm15.687-214.163 154.363 92.854 154.053-92.358-154.094-88.237z"/><path fill="#4285f4" d="m447.99 129.251-6.614-3.787-12.965 7.949-172.397 103.356L85.963 134.48l-15.708-9.524-7.046 4.066a16 16 0 0 0-2.285 1.319l-.13.075.013.002a15.9 15.9 0 0 0-6.825 13.431l-.02-.01v8.899l12.18 7.162 181.612 109.244c.05.03.103.055.153.085a16 16 0 0 0 2.026 1.006q.2.08.4.155.31.12.622.225.13.042.261.081.377.12.758.221l.123.029a16 16 0 0 0 .895.201q.999.192 2.004.255l.13.004c.286.015.573.028.858.028h.032c.288 0 .576-.013.864-.028l.123-.004c.969-.06 1.938-.214 2.896-.455l.122-.029q.38-.1.756-.221l.26-.08c.207-.069.413-.146.618-.223q.203-.075.404-.156.243-.1.483-.21a15 15 0 0 0 1.537-.789c.05-.029.101-.053.15-.083l161.81-97.009v185.934l-170.037 97.71L85.965 358.08l-.011-.006-31.989-17.958v27.224h.011c.006 5.536 2.873 10.917 8.017 13.873L248.03 488.118q.444.255.903.48l.054.029c.203.099.411.187.617.277a15.9 15.9 0 0 0 6.383 1.345h.03c2.186 0 4.394-.457 6.488-1.392.169-.075.339-.146.505-.227l.137-.072q.416-.206.82-.435l.007-.004 186.037-106.905a16 16 0 0 0 8.028-13.873V144.096c0-6.731-4.161-12.48-10.047-14.843z"/></svg>