<svg xmlns="http://www.w3.org/2000/svg" viewBox="0 0 512 512"><path d="M0 0h512v512H0z" style="fill:none"/><path d="M256 459c-2.7 0-5.4-.7-7.8-2L82 363.5c-5-2.8-8.2-8.2-8.2-14v-187c0-5.8 3.1-11.1 8.2-13.9L248.2 55c4.9-2.7 10.8-2.7 15.7 0l166.2 93.5c5 2.8 8.2 8.2 8.2 13.9v187c0 5.8-3.1 11.1-8.2 14l-166.2 93.5c-2.4 1.4-5.1 2-7.8 2ZM105.8 340.1 256 424.6l150.2-84.5V171.8L256 87.3l-150.2 84.5zm316.4 9.4" style="fill:#34a853"/><path d="M89.8 178.5c-5.6 0-11-2.9-14-8.2-4.3-7.7-1.6-17.5 6.1-21.8L248.2 55c7.7-4.3 17.5-1.6 21.8 6.1s1.6 17.5-6.1 21.8L97.7 176.4c-2.5 1.4-5.2 2.1-7.8 2.1Z"/><path d="M422.2 178.5c-2.7 0-5.4-.7-7.8-2.1L248.2 82.9c-7.7-4.3-10.4-14.1-6.1-21.8s14.1-10.4 21.8-6.1l166.2 93.5c7.7 4.3 10.4 14.1 6.1 21.8-2.9 5.2-8.4 8.2-14 8.2"/><path d="M256 178.5c-8.8 0-16-7.2-16-16V69c0-8.8 7.2-16 16-16s16 7.2 16 16v93.5c0 8.8-7.2 16-16 16M81.7 363.3c-4.9-2.9-7.9-8.1-7.9-13.8v-187c0-6 3.3-11.2 8.2-13.9 2.3-1.3 23.8-13.4 23.8-13.4v187l59.3-33.3c7.7-4.3 17.5-1.6 21.8 6.1s1.6 17.5-6.1 21.8L89.9 368s-5.6-3.1-8.1-4.5Zm340.5 4.6-90.9-51.2c-7.7-4.3-10.4-14.1-6.1-21.8s14.1-10.4 21.8-6.1l59.3 33.3v-187s21.5 12.1 23.9 13.4c.8.5 1.6 1 2.3 1.6 3.6 2.9 5.8 7.4 5.8 12.4v187c0 5.7-3 10.9-7.9 13.8-2.5 1.5-8.1 4.5-8.1 4.5Z"/><path d="M339.1 225.2c-2.7 0-5.4-.7-7.8-2.1L256 180.8l-75.3 42.3c-7.7 4.3-17.5 1.6-21.8-6.1s-1.6-17.5 6.1-21.8l83.1-46.8c4.9-2.7 10.8-2.7 15.7 0l83.1 46.8c7.7 4.3 10.4 14.1 6.1 21.8-2.9 5.2-8.4 8.2-14 8.2Z"/><path d="M256 365.5c-5.6 0-11-2.9-14-8.2-4.3-7.7-1.6-17.5 6.1-21.8l75-42.2v-84.1c0-8.8 7.2-16 16-16s16 7.2 16 16v93.5c0 5.8-3.1 11.1-8.2 14l-83.1 46.8c-2.5 1.4-5.2 2.1-7.8 2.1Z"/><path d="M256 365.5c-2.7 0-5.4-.7-7.8-2l-83.1-46.8c-5-2.8-8.2-8.2-8.2-14v-93.5c0-8.8 7.2-16 16-16s16 7.2 16 16v84.1l51.1 28.8V256c0-8.8 7.2-16 16-16s16 7.2 16 16v102.9s-3 1.6-7.9 4.5c-2.5 1.5-5.3 2.2-8.1 2.2Z"/><path d="M256 272c-5.6 0-11-2.9-14-8.2-4.3-7.7-1.6-17.5 6.1-21.8l91-51.2 7.9 4.4c2.1 1.1 4.2 2.8 6.1 6.1 4.3 7.7 1.6 17.5-6.1 21.8l-83.1 46.8c-2.5 1.4-5.2 2.1-7.8 2.1Z"/><path d="m256 237.6-75.3-42.3c-7.7-4.3-17.5-1.6-21.8 6.1-1.4 2.5-2.1 5.2-2.1 7.8v9.4l91.3 51.3c2.5 1.4 5.2 2.1 7.8 2.1v-34.4Z"/></svg>