<svg xmlns="http://www.w3.org/2000/svg" viewBox="0 0 512 512"><path fill="none" d="M0 0h512v512H0z"/><path fill="#9aa0a6" d="M458.329 235.129c0-17.645-14.355-32-32-32h-170.6c-17.645 0-32 14.355-32 32V330.4c0 .111.014.219.017.33-.002.111-.017.219-.017.33v95.27c0 17.645 14.355 32 32 32h170.6c17.645 0 32-14.355 32-32v-95.27c0-.111-.014-.219-.017-.33.002-.111.017-.219.017-.33zm-202.6 0h170.6V314.4h-170.6zm170.6 191.2h-170.6v-79.27h170.604l.017 79.269z"/><path fill="#9aa0a6" d="M143.299 232.268c-8.837 0-16-7.163-16-16 0-89.293 72.646-161.938 161.938-161.938 28.928 0 57.324 7.725 82.12 22.34a162.8 162.8 0 0 1 58.137 58.606c4.426 7.648 1.812 17.437-5.836 21.861-7.646 4.425-17.436 1.813-21.861-5.836-23.188-40.076-66.318-64.972-112.56-64.972-71.648 0-129.938 58.29-129.938 129.938 0 8.837-7.163 16-16 16Z"/><path fill="#2b80f8" d="M255.729 458.325c-17.673 0-32-14.327-32-32V314.399h202.6V203.126c17.673 0 32 14.327 32 32v111.273h-202.6zm-92.194-87.796h-8.03c-38.144 0-69.176-31.012-69.176-69.131 0-34.164 25.469-63.58 59.241-68.425 8.271-1.187 14.143-8.502 13.697-16.69l.031-.016c.012-8.895 1.248-18.035 1.248-18.035-8.317.896-29.311 4.906-32.769 5.891l-.028.007a101.3 101.3 0 0 0-48.452 30.747 101.03 101.03 0 0 0-24.968 66.521c0 55.764 45.388 101.131 101.176 101.131h8.03c8.837 0 16-7.163 16-16s-7.163-16-16-16"/></svg>