<svg xmlns="http://www.w3.org/2000/svg" xml:space="preserve" width="60.473" height="75.598" style="font-size:12px;overflow:visible;color-interpolation-filters:sRGB;fill-rule:evenodd;stroke-linecap:square;stroke-miterlimit:3" viewBox="0 0 45.355 56.699"><defs><linearGradient id="a" x1="0" x2="39.664" y1="54.612" y2="54.612" gradientTransform="scale(.75535 1.32388)" gradientUnits="userSpaceOnUse"><stop offset="0" stop-color="#949494"/><stop offset=".53" stop-color="#a2a2a2"/><stop offset="1" stop-color="#b3b3b3"/></linearGradient><linearGradient id="b" x1="0" x2="24.491" y1="90.425" y2="90.425" gradientTransform="scale(.92073 1.0861)" gradientUnits="userSpaceOnUse"><stop offset="0" stop-color="#005ba1"/><stop offset=".07" stop-color="#0060a9"/><stop offset=".36" stop-color="#0071c8"/><stop offset=".52" stop-color="#0078d4"/><stop offset=".64" stop-color="#0074cd"/><stop offset=".82" stop-color="#006abb"/><stop offset="1" stop-color="#005ba1"/></linearGradient></defs><g transform="translate(-35.96 -34.096)"><title>Page-1</title><g transform="translate(35.96 -34.016)"><title>Active Directory Lightweight Directory Services.17455</title><title>Page-1</title><title>Sheet.17457</title><g transform="translate(0 -2.328)"><title>Sheet.17458</title><title>Sheet.17459</title><title>Icon-databases-136.149</title><title>path4-5</title><title>Sheet.17462</title><title>Sheet.17463</title><path d="M29.96 123.02a1.822 1.77 90 0 1-1.73 1.79H1.74A1.79 1.74 90 0 1 0 123.02V74.09a1.759 1.709 90 0 1 1.74-1.79h26.49a1.79 1.74 90 0 1 1.73 1.79z" style="fill:url(#a);stroke:none;stroke-width:35.95959854;stroke-linecap:butt"/><g transform="translate(4.394 -30.745)"><title>path6-7</title><title>Sheet.17465</title><title>Sheet.17466</title><path d="M0 121.45a3.36 3.265 90 0 1 3.24-3.33h14.94a3.36 3.265 90 0 1 3.36 3.33 3.36 3.265 90 0 1-3.36 3.36H3.24A3.36 3.265 90 0 1 0 121.45m0-9.92a3.36 3.265 90 0 1 3.24-3.36h14.94a3.36 3.265 90 0 1 3.36 3.36 3.36 3.265 90 0 1-3.36 3.33H3.24A3.36 3.265 90 0 1 0 111.53" style="fill:#003067;stroke:none;stroke-width:35.95959854;stroke-linecap:butt"/></g><g transform="translate(5.614 -41.764)"><title>circle8-5</title><title>Sheet.17468</title><title>Sheet.17469</title><ellipse cx="2.197" cy="122.545" rx="2.197" ry="2.261" style="fill:#50e6ff;stroke:none;stroke-width:35.95959854;stroke-linecap:butt"/></g><g transform="translate(5.614 -31.84)"><title>circle10-2</title><title>Sheet.17471</title><title>Sheet.17472</title><ellipse cx="2.197" cy="122.545" rx="2.197" ry="2.261" style="fill:#50e6ff;stroke:none;stroke-width:35.95959854;stroke-linecap:butt"/></g><g transform="translate(21.841 -32.851)"><title>Sheet.17473</title><g transform="translate(.014)"><title>Sheet.17474</title><title>Sheet.17475</title><path d="M11.75 103.29 0 119.96l11.75 4.85 11.75-4.85z" style="fill:#773adc;stroke:none;stroke-width:33.99990082;stroke-linecap:butt"/></g><title>Sheet.17476</title><title>Sheet.17477</title><path d="M11.75 103.29 0 119.96l11.75 4.85z" style="fill:#f9f9f9;fill-opacity:.5;stroke:none;stroke-width:33.99990082;stroke-linecap:butt"/></g></g><g transform="translate(18.86)"><title>SQL Database</title><title>Sheet.17479</title><title>Sheet.17480</title><title>Sheet.17481</title><path d="M11.28 102.41C5.05 102.41 0 100.6 0 98.21v22.39c0 2.31 4.96 4.17 11.12 4.21h.16c6.22 0 11.27-1.81 11.27-4.21V98.21c0 2.34-5.05 4.2-11.27 4.2" style="fill:url(#b);stroke:none;stroke-width:33.99990082;stroke-linecap:butt"/><g transform="translate(0 -22.396)"><title>Sheet.17482</title><title>Sheet.17483</title><path d="M22.55 120.6c0 2.34-5.05 4.21-11.27 4.21C5.05 124.81 0 123 0 120.6c0-2.39 5.05-4.19 11.28-4.19 6.22 0 11.27 1.8 11.27 4.19" style="fill:#e8e8e8;stroke:none;stroke-width:33.99990082;stroke-linecap:butt"/></g><g transform="translate(2.621 -24.262)"><title>Sheet.17484</title><title>Sheet.17485</title><path d="M17.32 122.13c0 1.48-3.89 2.68-8.67 2.68-4.76 0-8.65-1.2-8.65-2.68 0-1.49 3.89-2.67 8.65-2.67 4.78 0 8.67 1.2 8.67 2.67" style="fill:#50e6ff;stroke:none;stroke-width:33.99990082;stroke-linecap:butt"/></g><g transform="translate(4.434 -24.262)"><title>Sheet.17486</title><title>Sheet.17487</title><path d="M6.84 122.8A20.928 20.32-90 0 0 0 123.83a20.693 20.092-90 0 0 6.84.98 20.203 19.617-90 0 0 6.85-1.05 21.454 20.83-90 0 0-6.85-.96" style="fill:#198ab3;stroke:none;stroke-width:33.99990082;stroke-linecap:butt"/></g></g></g></g></svg>