<svg xmlns="http://www.w3.org/2000/svg" xml:space="preserve" width="60.473" height="75.591" style="font-size:12px;overflow:visible;color-interpolation-filters:sRGB;fill-rule:evenodd;stroke-linecap:square;stroke-miterlimit:3" viewBox="0 0 45.355 56.693"><defs><linearGradient id="a" x1="0" x2="39.664" y1="54.612" y2="54.612" gradientTransform="scale(.75535 1.32388)" gradientUnits="userSpaceOnUse"><stop offset="0" stop-color="#949494"/><stop offset=".53" stop-color="#a2a2a2"/><stop offset="1" stop-color="#b3b3b3"/></linearGradient><linearGradient id="b" x1=".076" x2="27.792" y1="84.561" y2="84.561" gradientTransform="scale(.89959 1.11162)" gradientUnits="userSpaceOnUse"><stop offset="0" stop-color="#5e9624"/><stop offset=".18" stop-color="#629c25"/><stop offset=".44" stop-color="#6dae2a"/><stop offset=".73" stop-color="#7fcb30"/><stop offset=".82" stop-color="#86d633"/></linearGradient></defs><g transform="translate(-35.96 -34.101)"><title>Page-1</title><g transform="translate(35.96 -34.016)"><title>Active Directory Rights Management Server.17429</title><title>Page-1</title><title>Sheet.17431</title><g transform="translate(0 -2.327)"><title>Sheet.17432</title><title>Icon-databases-136.149</title><title>path4-5</title><title>Sheet.17435</title><title>Sheet.17436</title><path d="M29.96 123.02a1.821 1.77 90 0 1-1.73 1.79H1.74A1.79 1.74 90 0 1 0 123.02V74.09a1.758 1.709 90 0 1 1.74-1.79h26.49a1.79 1.74 90 0 1 1.73 1.79z" style="fill:url(#a);stroke:none;stroke-width:35.95970154;stroke-linecap:butt"/><g transform="translate(4.394 -30.74)"><title>path6-7</title><title>Sheet.17438</title><title>Sheet.17439</title><path d="M0 121.45a3.36 3.265 90 0 1 3.24-3.34h14.94a3.36 3.265 90 0 1 3.36 3.34 3.36 3.265 90 0 1-3.36 3.36H3.24A3.36 3.265 90 0 1 0 121.45m0-9.93a3.36 3.265 90 0 1 3.24-3.35h14.94a3.36 3.265 90 0 1 3.36 3.35 3.36 3.265 90 0 1-3.36 3.33H3.24A3.36 3.265 90 0 1 0 111.52" style="fill:#003067;stroke:none;stroke-width:35.95970154;stroke-linecap:butt"/></g><g transform="translate(5.614 -41.762)"><title>circle8-5</title><title>Sheet.17441</title><title>Sheet.17442</title><ellipse cx="2.197" cy="122.546" rx="2.197" ry="2.261" style="fill:#50e6ff;stroke:none;stroke-width:35.95970154;stroke-linecap:butt"/></g><g transform="translate(5.614 -31.84)"><title>circle10-2</title><title>Sheet.17444</title><title>Sheet.17445</title><ellipse cx="2.197" cy="122.546" rx="2.197" ry="2.261" style="fill:#50e6ff;stroke:none;stroke-width:35.95970154;stroke-linecap:butt"/></g></g><g transform="translate(21.571 -2.102)"><title>Sheet.17446</title><title>Sheet.17447</title><path d="M0 111.157h16.942v13.649H0z" style="fill:#fff;stroke:#fff;stroke-width:.75;stroke-linecap:round;stroke-linejoin:round"/></g><g transform="translate(17.265)"><title>Azure Rights Management</title><title>Sheet.17449</title><path d="M24.37 106.58H22.7v-2.08c0-2.85-1.04-5.49-2.7-7.37-1.74-1.95-4.79-3.13-7.43-3.13s-5.76 1.25-7.43 3.13c-1.74 1.88-2.78 4.52-2.78 7.37v2.08H.7c-.7 0-.63.56-.63 1.33v15.57c0 .7.55 1.33 1.25 1.33h22.42c.7 0 1.26-.56 1.26-1.33v-15.57c0-.7.06-1.33-.63-1.33m-9.31 11.48c.36-.21.7-.35 1.12-.35 1.04 0 1.88.84 1.88 1.88s-.84 1.87-1.88 1.87a1.87 1.87 0 0 1-1.88-1.87v-.15l-4.86-2.5c-.34.36-.76.5-1.32.5a1.87 1.87 0 0 1-1.87-1.88c0-1.05.83-1.88 1.87-1.88.49 0 .98.21 1.26.49l4.85-2.51v-.07c0-1.04.83-1.88 1.88-1.88 1.04 0 1.87.84 1.87 1.88 0 1.05-.83 1.88-1.87 1.88-.41 0-.84-.14-1.18-.41l-4.86 2.5zm3.13-11.48H6.81v-2.5c0-1.66.55-2.71 1.53-3.76.96-1.03 2.84-1.59 4.23-1.59s3.19.56 4.17 1.59a6.42 6.42 0 0 1 1.52 4.18v2.08z" style="fill:url(#b);stroke:none;stroke-width:34;stroke-linecap:butt"/></g><g transform="translate(21.841 -35.173)"><title>Sheet.17450</title><g transform="translate(.014)"><title>Sheet.17451</title><title>Sheet.17452</title><path d="M11.75 103.29 0 119.95l11.75 4.86 11.75-4.86z" style="fill:#773adc;stroke:none;stroke-width:34;stroke-linecap:butt"/></g><title>Sheet.17453</title><title>Sheet.17454</title><path d="M11.75 103.29 0 119.95l11.75 4.86z" style="fill:#f9f9f9;fill-opacity:.5;stroke:none;stroke-width:34;stroke-linecap:butt"/></g></g></g></svg>