<svg xmlns="http://www.w3.org/2000/svg" xmlns:xlink="http://www.w3.org/1999/xlink" xml:space="preserve" width="64.189" height="75.325" style="font-size:12px;overflow:visible;color-interpolation-filters:sRGB;fill-rule:evenodd;stroke-linecap:square;stroke-miterlimit:3" viewBox="0 0 48.142 56.494"><defs><linearGradient id="b" x1="0" x2="41.5" y1="73.216" y2="73.216" gradientTransform="scale(.76867 1.30095)" gradientUnits="userSpaceOnUse"><stop offset="0" stop-color="#949494"/><stop offset=".53" stop-color="#a2a2a2"/><stop offset="1" stop-color="#b3b3b3"/></linearGradient><linearGradient id="c" x1="0" x2="32.385" y1="117.664" y2="117.664" gradientTransform="scale(1.00542 .99461)" gradientUnits="userSpaceOnUse"><stop offset="0" stop-color="#0879e2"/><stop offset=".325" stop-color="#0a7de4"/><stop offset=".62" stop-color="#1088eb"/><stop offset=".91" stop-color="#199af6"/><stop offset="1" stop-color="#1da2fa"/></linearGradient><linearGradient id="a" x1="0" x2="1" y1="0" y2="0"><stop offset="0" stop-color="#0379d5"/><stop offset="1" stop-color="#5c9fee"/></linearGradient><linearGradient id="f" x1=".254" x2="22.693" y1="141.015" y2="141.015" gradientTransform="scale(1.09597 .91244)" gradientUnits="userSpaceOnUse"><stop offset="0" stop-color="#0078d4"/><stop offset=".16" stop-color="#1380da"/><stop offset=".53" stop-color="#3c91e5"/><stop offset=".82" stop-color="#559cec"/><stop offset="1" stop-color="#5ea0ef"/></linearGradient><linearGradient xlink:href="#a" id="d" x1="0" x2="15.371" y1="195.46" y2="195.46" gradientTransform="scale(1.4127 .70787)" gradientUnits="userSpaceOnUse"/><linearGradient xlink:href="#a" id="e" x1="0" x2="15.371" y1="195.46" y2="195.46" gradientTransform="scale(1.4127 .70787)" gradientUnits="userSpaceOnUse"/></defs><g transform="translate(-42.564 -34.925)"><title>Page-1</title><g transform="translate(42.564 -57.821)"><title>Active Directory Federation Proxy.17518</title><title>Page-1</title><title>Sheet.17520</title><g transform="translate(0 -1.468)"><title>Sheet.17521</title><title>Icon-databases-136.149</title><title>path4-5</title><title>Sheet.17524</title><title>Sheet.17525</title><path d="M31.9 147.41a1.884 1.873-180 0 1-1.85 1.83H1.85A1.851 1.84-180 0 1 0 147.41V97.09a1.819 1.809-180 0 1 1.85-1.84h28.2a1.851 1.84-180 0 1 1.85 1.84z" style="fill:url(#b);stroke:none;stroke-width:35.95959854;stroke-linecap:butt"/><g transform="translate(4.677 -31.617)"><title>path6-7</title><title>Sheet.17527</title><title>Sheet.17528</title><path d="M0 145.79a3.475 3.456-180 0 1 3.45-3.43h15.91a3.475 3.456-180 0 1 3.57 3.43 3.475 3.456-180 0 1-3.57 3.45H3.45A3.475 3.456-180 0 1 0 145.79m0-10.21a3.475 3.456-180 0 1 3.45-3.45h15.91a3.475 3.456-180 0 1 3.57 3.45 3.475 3.456-180 0 1-3.57 3.43H3.45A3.475 3.456-180 0 1 0 135.58" style="fill:#003067;stroke:none;stroke-width:35.95959854;stroke-linecap:butt"/></g><g transform="translate(5.976 -42.946)"><title>circle8-5</title><title>Sheet.17530</title><title>Sheet.17531</title><ellipse cx="2.339" cy="146.915" rx="2.339" ry="2.325" style="fill:#50e6ff;stroke:none;stroke-width:35.95959854;stroke-linecap:butt"/></g><g transform="translate(5.976 -32.74)"><title>circle10-2</title><title>Sheet.17533</title><title>Sheet.17534</title><ellipse cx="2.339" cy="146.915" rx="2.339" ry="2.325" style="fill:#50e6ff;stroke:none;stroke-width:35.95959854;stroke-linecap:butt"/></g></g><g transform="translate(15.582)"><title>Sheet.17535</title><title>Sheet.17536</title><title>g8</title><title>path6</title><title>Sheet.17539</title><path d="M16.28 117.03c-9.05 0-16.28 7.34-16.28 16.1 0 8.96 7.42 16.11 16.28 16.11 8.85 0 16.28-7.34 16.28-16.11 0-8.76-7.23-16.1-16.28-16.1m0 2.12c7.81 0 14.12 6.25 14.12 13.98 0 7.74-6.38 13.99-14.12 13.99-7.75 0-14.13-6.32-14.13-13.99 0-7.66 6.32-13.98 14.13-13.98" style="fill:url(#c);stroke:none;stroke-width:33.99990082;stroke-linecap:butt"/><g transform="translate(1.4 -1.381)"><title>Sheet.17540</title><title>Sheet.17541</title><ellipse cx="14.879" cy="134.517" rx="14.879" ry="14.723" style="fill:#fff;stroke:none;stroke-width:.74999702;stroke-linecap:round;stroke-linejoin:round"/></g><g transform="translate(5.301 -5.654)"><title>Sheet.17542</title><title>Sheet.17543</title><title>path33</title><g transform="matrix(1 0 0 -1 0 287.631)"><title>Sheet.17545</title><path d="m21.49 143.48-6.21-5.05a.332.27 0 0 0-.554.225l.014 3.065a.332.27-180 0 1-.332.27H0v3.75h14.4a.332.27-180 0 1 .332.27l.008 3.11a.332.27 0 0 0 .554 0l6.196-4.83a.665.541 0 0 0 0-.812z" style="fill:url(#d);stroke:none;stroke-width:63.44710159;stroke-linecap:butt"/></g><g transform="translate(0 -9.097)"><title>path33.668</title><g transform="matrix(-1 0 0 1 21.717 0)"><title>Sheet.17547</title><path d="m21.49 143.48-6.21-5.05a.332.27 0 0 0-.554.225l.014 3.065a.332.27-180 0 1-.332.27H0v3.75h14.4a.332.27-180 0 1 .332.27l.008 3.11a.332.27 0 0 0 .554 0l6.196-4.83a.665.541 0 0 0 0-.812z" style="fill:url(#e);stroke:none;stroke-width:63.44710159;stroke-linecap:butt"/></g></g></g></g><g transform="translate(23.04 -35.922)"><title>Sheet.17548</title><g transform="translate(1.977 -1.207)"><title>Sheet.17549</title><title>Sheet.17550</title><path d="m0 149.24 10.6-17.6 10.65 17.6z" style="fill:#fff;stroke:none;stroke-width:.74999702;stroke-linecap:round;stroke-linejoin:round"/></g><title>Page-1</title><title>ADFS</title><title>Sheet.17553</title><title>Sheet.17554</title><title>Sheet.17555</title><title>path14-5-6</title><title>Sheet.17557</title><path d="m24.66 147.77-11.2-18.51c-.5-.79-1.28-.79-1.77 0L.49 147.77c-.49.78-.1 1.36.89 1.36h22.39c.99.11 1.38-.58.89-1.36m-5.5-.39h-4.92v-2.93h1.98v-1.96H9.34v1.96h1.96v2.93H6.39v-2.93h1.97v-2.93h3.91v-1.97h-1.96v-2.92h4.91v2.92h-1.98v1.97h3.94v2.93h1.97v2.93z" style="fill:url(#f);stroke:none;stroke-width:9.52775955;stroke-linecap:butt"/><g transform="translate(10.31 -9.687)"><title>rect1197</title><title>Sheet.17559</title><path d="M0 146.312h4.91v2.928H0z" style="fill:#fff;stroke:none;stroke-width:.99999702"/><title>Sheet.17560</title></g></g></g></g></svg>