<svg xmlns="http://www.w3.org/2000/svg" xml:space="preserve" width="67.509" height="75.427" style="font-size:12px;overflow:visible;color-interpolation-filters:sRGB;fill-rule:evenodd;stroke-linecap:square;stroke-miterlimit:3" viewBox="0 0 50.632 56.57"><defs><linearGradient id="a" x1="0" x2="43.455" y1="55.246" y2="55.246" gradientTransform="scale(.76816 1.30181)" gradientUnits="userSpaceOnUse"><stop offset="0" stop-color="#949494"/><stop offset=".53" stop-color="#a2a2a2"/><stop offset="1" stop-color="#b3b3b3"/></linearGradient><linearGradient id="b" x1=".355" x2="31.964" y1="108.982" y2="108.982" gradientTransform="scale(1.09533 .91297)" gradientUnits="userSpaceOnUse"><stop offset="0" stop-color="#0078d4"/><stop offset=".16" stop-color="#1380da"/><stop offset=".53" stop-color="#3c91e5"/><stop offset=".82" stop-color="#559cec"/><stop offset="1" stop-color="#5ea0ef"/></linearGradient></defs><g transform="translate(-35.96 -35.96)"><title>Page-1</title><g transform="translate(35.96 -35.836)"><title>Active Directory Federation Services.17488</title><title>Page-1</title><title>Sheet.17490</title><g transform="translate(0 -.124)"><title>Sheet.17491</title><title>Icon-databases-136.149</title><title>path4-5</title><title>Sheet.17494</title><title>Sheet.17495</title><path d="M33.38 126.56a1.971 1.963-180 0 1-1.94 1.93H1.93A1.937 1.929-180 0 1 0 126.56V73.85a1.903 1.895-180 0 1 1.93-1.93h29.51a1.937 1.929-180 0 1 1.94 1.93z" style="fill:url(#a);stroke:none;stroke-width:35.95970154;stroke-linecap:butt"/><g transform="translate(4.894 -33.127)"><title>path6-7</title><title>Sheet.17497</title><title>Sheet.17498</title><path d="M0 124.88a3.637 3.62-180 0 1 3.61-3.6h16.64a3.637 3.62-180 0 1 3.74 3.6 3.637 3.62-180 0 1-3.74 3.61H3.61A3.637 3.62-180 0 1 0 124.88m0-10.7a3.637 3.62-180 0 1 3.61-3.61h16.64a3.637 3.62-180 0 1 3.74 3.61 3.637 3.62-180 0 1-3.74 3.59H3.61A3.637 3.62-180 0 1 0 114.18" style="fill:#003067;stroke:none;stroke-width:35.95970154;stroke-linecap:butt"/></g><g transform="translate(6.254 -44.999)"><title>circle8-5</title><title>Sheet.17500</title><title>Sheet.17501</title><ellipse cx="2.447" cy="126.052" rx="2.447" ry="2.436" style="fill:#50e6ff;stroke:none;stroke-width:35.95970154;stroke-linecap:butt"/></g><g transform="translate(6.254 -34.306)"><title>circle10-2</title><title>Sheet.17503</title><title>Sheet.17504</title><ellipse cx="2.447" cy="126.052" rx="2.447" ry="2.436" style="fill:#50e6ff;stroke:none;stroke-width:35.95970154;stroke-linecap:butt"/></g></g><g transform="translate(15.62)"><title>Sheet.17505</title><g transform="translate(2.783 -1.7)"><title>Sheet.17506</title><title>Sheet.17507</title><path d="m0 128.49 14.92-24.82 14.99 24.82z" style="fill:#fff;stroke:none;stroke-width:.75000101;stroke-linecap:round;stroke-linejoin:round"/></g><title>Page-1</title><title>ADFS</title><title>Sheet.17510</title><title>Sheet.17511</title><title>Sheet.17512</title><title>path14-5-6</title><title>Sheet.17514</title><path d="m34.72 126.42-15.77-26.09c-.7-1.11-1.81-1.11-2.49 0L.68 126.42c-.68 1.1-.13 1.92 1.25 1.92h31.54c1.38.15 1.93-.82 1.25-1.92m-7.75-.55h-6.92v-4.14h2.77v-2.76h-9.68v2.76h2.76v4.14H8.99v-4.14h2.78v-4.13h5.5v-2.76h-2.76v-4.13h6.91v4.13h-2.78v2.76h5.54v4.13h2.77v4.14z" style="fill:url(#b);stroke:none;stroke-width:9.52779961;stroke-linecap:butt"/><g transform="translate(14.512 -13.655)"><title>rect1197</title><title>Sheet.17516</title><path d="M0 124.363h6.911v4.126H0z" style="fill:#fff;stroke:none;stroke-width:1"/><title>Sheet.17517</title></g></g></g></g></svg>