<svg xmlns="http://www.w3.org/2000/svg" xml:space="preserve" width="68.032" height="75.589" style="font-size:12px;overflow:visible;color-interpolation-filters:sRGB;fill-rule:evenodd;stroke-linecap:square;stroke-miterlimit:3" viewBox="0 0 51.024 56.692"><defs><linearGradient id="a" x1="0" x2="43.355" y1="55.87" y2="55.87" gradientTransform="scale(.77684 1.28727)" gradientUnits="userSpaceOnUse"><stop offset="0" stop-color="#949494"/><stop offset=".53" stop-color="#a2a2a2"/><stop offset="1" stop-color="#b3b3b3"/></linearGradient></defs><g transform="translate(-35.96 -35.96)"><title>Page-1</title><g transform="translate(35.96 -35.078)"><title>Active Directory Domain Services.17561</title><title>Page-1</title><title>Sheet.17563</title><title>Sheet.17564</title><g transform="translate(0 -.881)"><title>Sheet.17565</title><title>Icon-databases-136.149</title><title>path4-5</title><title>Sheet.17568</title><title>Sheet.17569</title><path d="M33.68 125.83a1.99 1.936-180 0 1-1.95 1.9H1.95a1.955 1.903-180 0 1-1.95-1.9V73.82a1.92 1.87-180 0 1 1.95-1.9h29.78a1.955 1.903-180 0 1 1.95 1.9z" style="fill:url(#a);stroke:none;stroke-width:35.95959854;stroke-linecap:butt"/><g transform="translate(4.94 -32.683)"><title>path6-7</title><title>Sheet.17571</title><title>Sheet.17572</title><path d="M0 124.17a3.67 3.572-180 0 1 3.64-3.55h16.8a3.67 3.572-180 0 1 3.77 3.55 3.67 3.572-180 0 1-3.77 3.56H3.64A3.67 3.572-180 0 1 0 124.17m0-10.56a3.67 3.572-180 0 1 3.64-3.56h16.8a3.67 3.572-180 0 1 3.77 3.56 3.67 3.572-180 0 1-3.77 3.55H3.64A3.67 3.572-180 0 1 0 113.61" style="fill:#003067;stroke:none;stroke-width:35.95959854;stroke-linecap:butt"/></g><g transform="translate(6.311 -44.396)"><title>circle8-5</title><title>Sheet.17574</title><title>Sheet.17575</title><ellipse cx="2.47" cy="125.327" rx="2.47" ry="2.404" style="fill:#50e6ff;stroke:none;stroke-width:35.95959854;stroke-linecap:butt"/></g><g transform="translate(6.311 -33.847)"><title>circle10-2</title><title>Sheet.17577</title><title>Sheet.17578</title><ellipse cx="2.47" cy="125.327" rx="2.47" ry="2.404" style="fill:#50e6ff;stroke:none;stroke-width:35.95959854;stroke-linecap:butt"/></g></g><g transform="translate(16.284)"><title>Sheet.17579</title><g transform="translate(.02)"><title>Sheet.17580</title><title>Sheet.17581</title><path d="M17.36 97.67 0 120.96l17.36 6.77 17.36-6.77z" style="fill:#773adc;stroke:none;stroke-width:33.99990082;stroke-linecap:butt"/></g><title>Sheet.17582</title><title>Sheet.17583</title><path d="M17.36 97.67 0 120.96l17.36 6.77z" style="fill:#f9f9f9;fill-opacity:.5;stroke:none;stroke-width:33.99990082;stroke-linecap:butt"/></g></g></g></svg>