<svg xmlns="http://www.w3.org/2000/svg" xml:space="preserve" width="68.037" height="75.587" style="font-size:12px;overflow:visible;color-interpolation-filters:sRGB;fill-rule:evenodd;stroke-linecap:square;stroke-miterlimit:3" viewBox="0 0 51.028 56.69"><defs><linearGradient id="a" x1="0" x2="43.78" y1="55.542" y2="55.542" gradientTransform="scale(.77227 1.29488)" gradientUnits="userSpaceOnUse"><stop offset="0" stop-color="#949494"/><stop offset=".53" stop-color="#a2a2a2"/><stop offset="1" stop-color="#b3b3b3"/></linearGradient><linearGradient id="b" x1="0" x2="26.383" y1="143.017" y2="143.017" gradientTransform="scale(1.31715 .75921)" gradientUnits="userSpaceOnUse"><stop offset="0" stop-color="#32bedd"/><stop offset=".18" stop-color="#32caea"/><stop offset=".41" stop-color="#32d2f2"/><stop offset=".78" stop-color="#32d4f5"/></linearGradient></defs><g transform="translate(-35.96 -35.96)"><title>Page-1</title><g transform="translate(35.96 -35.96)"><title>Application Server.17405</title><title>Page-1</title><title>Sheet.17407</title><title>Sheet.17408</title><title>Icon-databases-136.149</title><title>path4-5</title><title>Sheet.17411</title><title>Sheet.17412</title><path d="M33.81 126.68a1.997 1.967-180 0 1-1.96 1.93H1.96A1.962 1.933-180 0 1 0 126.68V73.85a1.928 1.899-180 0 1 1.96-1.93h29.89a1.962 1.933-180 0 1 1.96 1.93z" style="fill:url(#a);stroke:none;stroke-width:35.95949936;stroke-linecap:butt"/><g transform="translate(4.957 -33.2)"><title>path6-7</title><title>Sheet.17414</title><title>Sheet.17415</title><path d="M0 124.99a3.684 3.629-180 0 1 3.65-3.6h16.87a3.684 3.629-180 0 1 3.78 3.6 3.684 3.629-180 0 1-3.78 3.62H3.65A3.684 3.629-180 0 1 0 124.99m0-10.72a3.684 3.629-180 0 1 3.65-3.62h16.87a3.684 3.629-180 0 1 3.78 3.62 3.684 3.629-180 0 1-3.78 3.6H3.65a3.684 3.629-180 0 1-3.65-3.6" style="fill:#003067;stroke:none;stroke-width:35.95949936;stroke-linecap:butt"/></g><g transform="translate(6.334 -45.097)"><title>circle8-5</title><title>Sheet.17417</title><title>Sheet.17418</title><ellipse cx="2.479" cy="126.171" rx="2.479" ry="2.442" style="fill:#50e6ff;stroke:none;stroke-width:35.95949936;stroke-linecap:butt"/></g><g transform="translate(6.334 -34.382)"><title>circle10-2</title><title>Sheet.17420</title><title>Sheet.17421</title><ellipse cx="2.479" cy="126.171" rx="2.479" ry="2.442" style="fill:#50e6ff;stroke:none;stroke-width:35.95949936;stroke-linecap:butt"/></g><g transform="translate(16.278 -.974)"><title>Sheet.17422</title><title>Sheet.17423</title><title>Sheet.17424</title><path d="M0 108.58h34.75v18.9a1.165 1.136-180 0 1-1.17 1.13H1.16A1.165 1.136-180 0 1 0 127.48Z" style="fill:url(#b);stroke:none;stroke-width:33.99990082;stroke-linecap:butt"/><g transform="translate(0 -20.034)"><title>Sheet.17425</title><title>Sheet.17426</title><path d="M1.16 121.4h32.42a1.165 1.136-180 0 1 1.17 1.13v6.08H0v-6.1a1.165 1.136-180 0 1 1.16-1.11" style="fill:#005ba1;stroke:none;stroke-width:33.99990082;stroke-linecap:butt"/></g><g transform="translate(4.68 -22.186)"><title>Sheet.17427</title><title>Sheet.17428</title><path d="M0 128.05a.572.558 0 0 0 .572.558l24.258.002a.572.558 0 0 0 .572-.558l-.002-1.792a.572.558 0 0 0-.572-.558L.57 125.7a.572.558 0 0 0-.572.558z" style="fill:#f2f2f2;stroke:none;stroke-width:33.99990082;stroke-linecap:butt"/></g></g></g></g></svg>