<svg xmlns="http://www.w3.org/2000/svg" xml:space="preserve" width="64.246" height="75.583" style="font-size:12px;overflow:visible;color-interpolation-filters:sRGB;fill-rule:evenodd;stroke-linecap:square;stroke-miterlimit:3" viewBox="0 0 48.184 56.687"><defs><linearGradient id="a" x1="0" x2="41.04" y1="56.258" y2="56.258" gradientTransform="scale(.77802 1.28532)" gradientUnits="userSpaceOnUse"><stop offset="0" stop-color="#949494"/><stop offset=".53" stop-color="#a2a2a2"/><stop offset="1" stop-color="#b3b3b3"/></linearGradient><linearGradient id="b" x1="0" x2="31.535" y1="95.725" y2="95.725" gradientTransform="scale(1.0176 .98271)" gradientUnits="userSpaceOnUse"><stop offset="0" stop-color="#0879e2"/><stop offset=".325" stop-color="#0a7de4"/><stop offset=".62" stop-color="#1088eb"/><stop offset=".91" stop-color="#199af6"/><stop offset="1" stop-color="#1da2fa"/></linearGradient><linearGradient id="c" x1="0" x2="13.527" y1="81.885" y2="81.885" gradientTransform="scale(.76293 1.31073)" gradientUnits="userSpaceOnUse"><stop offset="0" stop-color="#1988d9"/><stop offset=".9" stop-color="#54aef0"/></linearGradient><linearGradient id="d" x1="0" x2="10.762" y1="134.734" y2="134.734" gradientTransform="scale(1.1634 .85955)" gradientUnits="userSpaceOnUse"><stop offset=".1" stop-color="#54aef0"/><stop offset=".29" stop-color="#4fabee"/><stop offset=".51" stop-color="#41a2e9"/><stop offset=".74" stop-color="#2a93e0"/><stop offset=".88" stop-color="#1988d9"/></linearGradient><linearGradient id="e" x1="0" x2="18.912" y1="101.573" y2="101.573" gradientTransform="scale(.96342 1.03797)" gradientUnits="userSpaceOnUse"><stop offset="0" stop-color="#5e9624"/><stop offset=".18" stop-color="#629c25"/><stop offset=".44" stop-color="#6dae2a"/><stop offset=".73" stop-color="#7fcb30"/><stop offset=".82" stop-color="#86d633"/></linearGradient></defs><g transform="translate(-35.96 -34.357)"><title>Page-1</title><g transform="translate(35.96 -34.016)"><title>Azure Active Directory Sync Primary.17362</title><title>Page-1</title><title>Sheet.17364</title><g transform="translate(0 -2.339)"><title>Sheet.17365</title><title>Icon-databases-136.149</title><title>path4-5</title><title>Sheet.17368</title><title>Sheet.17369</title><path d="M31.93 123.27a1.886 1.83-180 0 1-1.85 1.79H1.85A1.853 1.799-180 0 1 0 123.27V74.11a1.82 1.767-180 0 1 1.85-1.8h28.23a1.853 1.799-180 0 1 1.85 1.8z" style="fill:url(#a);stroke:none;stroke-width:35.95949936;stroke-linecap:butt"/><g transform="translate(4.681 -30.89)"><title>path6-7</title><title>Sheet.17371</title><title>Sheet.17372</title><path d="M0 121.7a3.479 3.376-180 0 1 3.45-3.35h15.92a3.479 3.376-180 0 1 3.58 3.35 3.479 3.376-180 0 1-3.58 3.36H3.45A3.479 3.376-180 0 1 0 121.7m0-9.98a3.479 3.376-180 0 1 3.45-3.38h15.92a3.479 3.376-180 0 1 3.58 3.38 3.479 3.376-180 0 1-3.58 3.35H3.45A3.479 3.376-180 0 1 0 111.72" style="fill:#003067;stroke:none;stroke-width:35.95949936;stroke-linecap:butt"/></g><g transform="translate(5.982 -41.963)"><title>circle8-5</title><title>Sheet.17374</title><title>Sheet.17375</title><ellipse cx="2.341" cy="122.792" rx="2.341" ry="2.272" style="fill:#50e6ff;stroke:none;stroke-width:35.95949936;stroke-linecap:butt"/></g><g transform="translate(5.982 -31.992)"><title>circle10-2</title><title>Sheet.17377</title><title>Sheet.17378</title><ellipse cx="2.341" cy="122.792" rx="2.341" ry="2.272" style="fill:#50e6ff;stroke:none;stroke-width:35.95949936;stroke-linecap:butt"/></g></g><g transform="translate(15.961)"><title>Sheet.17379</title><title>Sheet.17380</title><title>g8</title><title>path6</title><title>Sheet.17383</title><path d="M16.04 94.07C7.12 94.07 0 101.14 0 109.57c0 8.62 7.31 15.49 16.04 15.49s16.05-7.06 16.05-15.49-7.13-15.5-16.05-15.5m0 2.05c7.71 0 13.93 6.01 13.93 13.45s-6.29 13.45-13.93 13.45c-7.63 0-13.92-6.08-13.92-13.45 0-7.38 6.22-13.45 13.92-13.45" style="fill:url(#b);stroke:none;stroke-width:33.99990082;stroke-linecap:butt"/><g transform="translate(1.38 -1.332)"><title>Sheet.17384</title><title>Sheet.17385</title><ellipse cx="14.664" cy="110.901" rx="14.664" ry="14.163" style="fill:#fff;stroke:none;stroke-width:.74999702;stroke-linecap:round;stroke-linejoin:round"/></g></g><g transform="translate(23.334 -35.094)"><title>Azure Active Directory.2479</title><title>Sheet.17387</title><title>Sheet.17388</title><title>Sheet.17389</title><path d="m1.4 115.83 10.93 6.78 11.13-6.8 1.39 1.55-12.52 7.7L0 117.36Z" style="fill:#50e6ff;stroke:none;stroke-width:33.99990082;stroke-linecap:butt"/><g transform="translate(2.223 -3.864)"><title>Sheet.17390</title><title>Sheet.17391</title><path d="m0 118.83 10.11-11.5 10.31 11.51-10.31 6.22z" style="fill:#fff;stroke:none;stroke-width:33.99990082;stroke-linecap:butt"/></g><g transform="translate(2.223 -3.864)"><title>Sheet.17392</title><title>Sheet.17393</title><path d="M10.11 107.33v17.73L0 118.83Z" style="fill:#50e6ff;stroke:none;stroke-width:33.99990082;stroke-linecap:butt"/></g><g transform="translate(12.329 -3.864)"><title>Sheet.17394</title><title>Sheet.17395</title><path d="M0 107.33v17.73l10.32-6.22z" style="fill:url(#c);stroke:none;stroke-width:33.99990082;stroke-linecap:butt"/></g><g transform="translate(12.329 -3.864)"><title>Sheet.17396</title><title>Sheet.17397</title><path d="m0 116.49 10.32 2.35L0 125.06Z" style="fill:#53b1e0;stroke:none;stroke-width:33.99990082;stroke-linecap:butt"/></g><g transform="translate(2.223 -3.864)"><title>Sheet.17398</title><title>Sheet.17399</title><path d="M10.11 125.06 0 118.83l10.11-2.34Z" style="fill:#9cebff;stroke:none;stroke-width:33.99990082;stroke-linecap:butt"/></g><g transform="translate(12.329)"><title>Sheet.17400</title><title>Sheet.17401</title><path d="m0 125.06 12.52-7.7-1.39-1.55L0 122.61z" style="fill:url(#d);stroke:none;stroke-width:33.99990082;stroke-linecap:butt"/></g></g><g transform="rotate(45 27.369 140.065)"><title>g8.2492</title><title>path6</title><g transform="matrix(-1 0 0 1 18.217 0)"><title>Sheet.17404</title><path d="M8.78 106.65h-.1c-2.07 0-3.99.7-5.54 1.81L0 105.43v7.98h8.26l-3.12-3.01a5.847 5.647 0 0 1 3.64-1.18c3.1 0 5.67 2.1 6.21 4.85h2.73a9.023 8.715-180 0 0-8.94-7.42m9.34 10.41H9.96l.04.03h-.04l3.02 2.91c-1.02.7-2.25 1.06-3.64 1.06-2.79 0-5.17-1.82-5.99-4.28H.5a9.038 8.73-180 0 0 8.84 6.86h.1c2.04 0 3.93-.68 5.47-1.77l3.31 3.19v-8z" style="fill:url(#e);stroke:none;stroke-width:33.99990082;stroke-linecap:butt"/></g></g></g></g></svg>