<svg xmlns="http://www.w3.org/2000/svg" xml:space="preserve" width="64.252" height="75.213" style="font-size:12px;overflow:visible;color-interpolation-filters:sRGB;fill-rule:evenodd;stroke-linecap:square;stroke-miterlimit:3" viewBox="0 0 48.189 56.409"><defs><linearGradient id="a" x1="0" x2="41.581" y1="54.812" y2="54.812" gradientTransform="scale(.76212 1.31213)" gradientUnits="userSpaceOnUse"><stop offset="0" stop-color="#949494"/><stop offset=".53" stop-color="#a2a2a2"/><stop offset="1" stop-color="#b3b3b3"/></linearGradient><linearGradient id="b" x1="-.002" x2="28.366" y1="119.494" y2="119.494" gradientTransform="scale(1.169 .85544)" gradientUnits="userSpaceOnUse"><stop offset="0" stop-color="#32d4f5"/><stop offset=".23" stop-color="#31d0f1"/><stop offset=".46" stop-color="#2cc3e6"/><stop offset=".7" stop-color="#25afd4"/><stop offset=".94" stop-color="#1c92ba"/><stop offset="1" stop-color="#198ab3"/></linearGradient><linearGradient id="c" x1="0" x2="15.965" y1="110.08" y2="110.08" gradientTransform="scale(.99656 1.00345)" gradientUnits="userSpaceOnUse"><stop offset="0" stop-color="#0879e2"/><stop offset=".325" stop-color="#0a7de4"/><stop offset=".62" stop-color="#1088eb"/><stop offset=".91" stop-color="#199af6"/><stop offset="1" stop-color="#1da2fa"/></linearGradient><linearGradient id="d" x1="0" x2="9.579" y1="109.785" y2="109.785" gradientTransform="scale(.94374 1.05962)" gradientUnits="userSpaceOnUse"><stop offset="0" stop-color="#5e9624"/><stop offset=".18" stop-color="#629c25"/><stop offset=".44" stop-color="#6dae2a"/><stop offset=".73" stop-color="#7fcb30"/><stop offset=".82" stop-color="#86d633"/></linearGradient><linearGradient id="e" x1=".293" x2="16.904" y1="75.269" y2="75.269" gradientTransform="scale(.72644 1.37658)" gradientUnits="userSpaceOnUse"><stop offset="0" stop-color="#0c3f76"/><stop offset=".99" stop-color="#0667ba"/></linearGradient><linearGradient id="f" x1=".346" x2="9.034" y1="128.015" y2="128.015" gradientTransform="scale(1.08096 .9251)" gradientUnits="userSpaceOnUse"><stop offset="0"/><stop offset=".33" stop-color="#0266b0"/><stop offset=".99" stop-color="#0078d4"/></linearGradient><linearGradient id="g" x1="0" x2="19.187" y1="86.279" y2="86.279" gradientTransform="scale(.83404 1.19898)" gradientUnits="userSpaceOnUse"><stop offset="0" stop-color="#3ac5ef"/><stop offset="1" stop-color="#2994e0"/></linearGradient></defs><g transform="translate(-35.96 -34.436)"><title>Page-1</title><g transform="translate(35.96 -35.642)"><title>Azure File Sync Server.17267</title><title>Page-1</title><title>Sheet.17269</title><g transform="translate(0 -.318)"><title>Sheet.17270</title><title>Icon-databases-136.149</title><title>path4-5</title><title>Sheet.17273</title><title>Sheet.17274</title><path d="M31.69 124.62a1.892 1.871 90 0 1-1.84 1.86H1.84A1.86 1.84 90 0 1 0 124.62V73.78a1.827 1.807 90 0 1 1.84-1.86h28.01a1.86 1.84 90 0 1 1.84 1.86z" style="fill:url(#a);stroke:none;stroke-width:35.95949936;stroke-linecap:butt"/><g transform="translate(4.646 -31.943)"><title>path6-7</title><title>Sheet.17276</title><title>Sheet.17277</title><path d="M0 122.98a3.491 3.453 90 0 1 3.42-3.46h15.81a3.491 3.453 90 0 1 3.55 3.46 3.491 3.453 90 0 1-3.55 3.5H3.42a3.491 3.453 90 0 1-3.42-3.5m0-10.31a3.491 3.453 90 0 1 3.42-3.48h15.81a3.491 3.453 90 0 1 3.55 3.48 3.491 3.453 90 0 1-3.55 3.46H3.42A3.491 3.453 90 0 1 0 112.67" style="fill:#003067;stroke:none;stroke-width:35.95949936;stroke-linecap:butt"/></g><g transform="translate(5.937 -43.398)"><title>circle8-5</title><title>Sheet.17279</title><title>Sheet.17280</title><ellipse cx="2.323" cy="124.127" rx="2.323" ry="2.349" style="fill:#50e6ff;stroke:none;stroke-width:35.95949936;stroke-linecap:butt"/></g><g transform="translate(5.937 -33.087)"><title>circle10-2</title><title>Sheet.17282</title><title>Sheet.17283</title><ellipse cx="2.323" cy="124.127" rx="2.323" ry="2.349" style="fill:#50e6ff;stroke:none;stroke-width:35.95949936;stroke-linecap:butt"/></g></g><g transform="translate(15.029)"><title>Sheet.17284</title><g transform="translate(5.301 -20.874)"><title>path10</title><title>Sheet.17286</title><path d="m21.82 122.36-18.15-2.65h-.36a2.639 2.625-90 0 0-2.63 2.3L0 126.48h23.99v-1.09a2.639 2.625-90 0 0-2.17-3.03" style="fill:#0078d4;stroke:none;stroke-width:33.99990082;stroke-linecap:butt"/></g><g transform="translate(6.417 -20.966)"><title>path12</title><title>Sheet.17288</title><path d="m20.48 123.49-18.12-2.64h-.24a1.53 1.523-90 0 0-1.49 1.33l-.63 4.3h21.58l.18-1.24a1.53 1.523-90 0 0-1.28-1.75" style="fill:#fff;stroke:none;stroke-width:33.99990082;stroke-linecap:butt"/></g><title>path14.2825</title><title>Sheet.17290</title><path d="M.68 102.22h15.88a.87.866 90 0 1 .551.238l2.639 2.642a.765.761-90 0 0 .551.238l12.069.002a.792.788 90 0 1 .788.765l.002 19.605a.792.788 90 0 1-.788.765L.87 126.48a.765.761 90 0 1-.866-.765L0 103.07a.792.788 90 0 1 .683-.844z" style="fill:url(#b);stroke:none;stroke-width:33.99990082;stroke-linecap:butt"/></g><g transform="translate(23.335 -2.44)"><title>Sheet.17291</title><title>Sheet.17292</title><title>Sheet.17293</title><title>g8</title><title>path6</title><title>Sheet.17296</title><path d="M7.96 110.46c-4.43 0-7.96 3.65-7.96 8 0 4.46 3.62 8.02 7.96 8.02 4.33 0 7.95-3.66 7.95-8.02 0-4.35-3.53-8-7.95-8m0 1.05c3.81 0 6.9 3.11 6.9 6.95 0 3.85-3.12 6.96-6.9 6.96-3.79 0-6.91-3.14-6.91-6.96 0-3.81 3.09-6.95 6.91-6.95" style="fill:url(#c);stroke:none;stroke-width:33.99990082;stroke-linecap:butt"/><g transform="translate(.684 -.693)"><title>Sheet.17297</title><title>Sheet.17298</title><ellipse cx="7.272" cy="119.159" rx="7.272" ry="7.318" style="fill:#fff;stroke:none;stroke-width:.74999702;stroke-linecap:round;stroke-linejoin:round"/></g><g transform="rotate(45 9.757 124.093)"><title>g8.2492</title><title>path6</title><g transform="matrix(-1 0 0 1 9.036 0)"><title>Sheet.17301</title><path d="M4.35 116.96H4.3c-1.02 0-1.98.36-2.74.93L0 116.33v4.12h4.09l-1.54-1.56a2.9 2.918 0 0 1 1.8-.6c1.54 0 2.81 1.09 3.08 2.51h1.36a4.475 4.503-180 0 0-4.44-3.84m4.64 5.38H4.94l.02.01h-.02l1.5 1.51c-.51.36-1.11.55-1.8.55-1.39 0-2.57-.95-2.98-2.22H.25a4.482 4.51-180 0 0 4.39 3.55h.05c1 0 1.95-.36 2.71-.92l1.64 1.66v-4.14z" style="fill:url(#d);stroke:none;stroke-width:33.99990082;stroke-linecap:butt"/></g></g></g><g transform="translate(18.559 -33.37)"><title>Sheet.17302</title><title>Page-1</title><title>Azure v2.8134</title><title>Page-1</title><title>g841</title><g transform="translate(0 -.134)"><title>path910</title><title>Sheet.17308</title><title>Sheet.17309</title><title>Sheet.17310</title><path d="m.36 124.6 6.86-20.07c.47-1.24 1.78-1.19 2.19-.04l2.87 8.49-3.96 11.77c-.4 1.14-.36 1.69-1.82 1.73H1.2c-.89-.02-1.2-.81-.84-1.88" style="fill:url(#e);stroke:none;stroke-width:.74999702;stroke-linecap:butt"/></g><g transform="translate(7.187 -.012)"><title>path922</title><title>Sheet.17312</title><title>Sheet.17313</title><title>Sheet.17314</title><path d="m7.41 118.46-6.04-.03c-1.37-.06-1.1.89-.53 1.38l6.3 5.93.4.36c.38.36.66.36.66.36.53.01.73 0 .73 0 .72.02 1.01-.61.73-1.5z" style="fill:url(#f);stroke:none;stroke-width:.74999702;stroke-linecap:butt"/></g><g transform="translate(8.245)"><title>path920-4</title><title>Sheet.17316</title><title>Sheet.17317</title><title>Sheet.17318</title><path d="M0 103.47s6.75-.02 7.41-.02c1.28-.04 1.41.33 2 2.05l6.38 19c.16.64.36 1.25.05 1.6-.31.36-1.08.32-1.85.32 0 0-5.51.04-7.13.03 0 0 .72.03 1.04-.15.78-.38.39-.88.19-1.56l-6.83-19.9C.85 103.39 0 103.47 0 103.47" style="fill:url(#g);stroke:none;stroke-width:.74999702;stroke-linecap:butt"/></g></g></g></g></svg>