<svg xmlns="http://www.w3.org/2000/svg" xml:space="preserve" width="68.038" height="75.656" style="font-size:12px;overflow:visible;color-interpolation-filters:sRGB;fill-rule:evenodd;stroke-linecap:square;stroke-miterlimit:3" viewBox="0 0 51.029 56.742"><defs><linearGradient id="a" x1="0" x2="43.298" y1="55.877" y2="55.877" gradientTransform="scale(.77693 1.28711)" gradientUnits="userSpaceOnUse"><stop offset="0" stop-color="#949494"/><stop offset=".53" stop-color="#a2a2a2"/><stop offset="1" stop-color="#b3b3b3"/></linearGradient><linearGradient id="b" x1="0" x2="28.581" y1="127.467" y2="127.467" gradientTransform="scale(1.22247 .81801)" gradientUnits="userSpaceOnUse"><stop offset="0" stop-color="#5e9624"/><stop offset=".18" stop-color="#629c25"/><stop offset=".44" stop-color="#6dae2a"/><stop offset=".73" stop-color="#7fcb30"/><stop offset=".82" stop-color="#86d633"/></linearGradient></defs><g transform="translate(-35.96 -35.96)"><title>Page-1</title><g transform="translate(35.96 -34.998)"><title>Certification Authority Standalone.17052</title><title>Page-1</title><title>Sheet.17054</title><g transform="translate(0 -.962)"><title>Sheet.17055</title><title>Icon-databases-136.149</title><title>path4-5</title><title>Sheet.17058</title><title>Sheet.17059</title><path d="M33.64 125.75a1.987 1.934-180 0 1-1.95 1.9H1.95a1.952 1.9-180 0 1-1.95-1.9V73.82a1.918 1.867-180 0 1 1.95-1.9h29.74a1.952 1.9-180 0 1 1.95 1.9z" style="fill:url(#a);stroke:none;stroke-width:35.95970154;stroke-linecap:butt"/><g transform="translate(4.932 -32.636)"><title>path6-7</title><title>Sheet.17061</title><title>Sheet.17062</title><path d="M0 124.09a3.665 3.567-180 0 1 3.63-3.54h16.78a3.665 3.567-180 0 1 3.77 3.54 3.665 3.567-180 0 1-3.77 3.56H3.63A3.665 3.567-180 0 1 0 124.09m0-10.54a3.665 3.567-180 0 1 3.63-3.56h16.78a3.665 3.567-180 0 1 3.77 3.56 3.665 3.567-180 0 1-3.77 3.54H3.63A3.665 3.567-180 0 1 0 113.55" style="fill:#003067;stroke:none;stroke-width:35.95970154;stroke-linecap:butt"/></g><g transform="translate(6.302 -44.332)"><title>circle8-5</title><title>Sheet.17064</title><title>Sheet.17065</title><ellipse cx="2.466" cy="125.25" rx="2.466" ry="2.4" style="fill:#50e6ff;stroke:none;stroke-width:35.95970154;stroke-linecap:butt"/></g><g transform="translate(6.302 -33.798)"><title>circle10-2</title><title>Sheet.17067</title><title>Sheet.17068</title><ellipse cx="2.466" cy="125.25" rx="2.466" ry="2.4" style="fill:#50e6ff;stroke:none;stroke-width:35.95970154;stroke-linecap:butt"/></g></g><g transform="translate(16.088)"><title>Sheet.17069</title><g transform="translate(0 -6.633)"><title>rect2</title><title>Sheet.17071</title><title>Sheet.17072</title><path d="M0 126.56a1.164 1.1 0 0 0 1.16 1.09h32.61a1.164 1.1 0 0 0 1.17-1.09v-21.2a1.164 1.1 0 0 0-1.17-1.09H1.16A1.164 1.1 0 0 0 0 105.36Z" style="fill:url(#b);stroke:none;stroke-width:34;stroke-linecap:butt"/></g><g transform="translate(2.038 -8.88)"><title>rect4</title><title>Sheet.17074</title><title>Sheet.17075</title><path d="M0 127.1a.582.55 0 0 0 .582.55l29.698-.01a.582.55 0 0 0 .582-.55l-.002-18.16a.582.55 0 0 0-.582-.55l-29.688.01a.582.55 0 0 0-.582.55z" style="fill:#fff;stroke:none;stroke-width:33.99980164;stroke-linecap:butt"/></g><g transform="translate(6.721 -13.943)"><title>path6</title><title>Sheet.17077</title><title>Sheet.17078</title><path d="M22.29 127.12a.563.532 0 0 1-.563.532L9.12 127.65a.563.532 0 1 1 0-1.062l12.6.012a.56.53 0 0 1 .563.53zm0-3.28a.56.53 0 0 1-.563.53l-12.607-.01a.563.532 0 1 1 0-1.062l12.6-.008a.563.532 0 0 1 .563.532zm0-4.8a.563.532 0 0 1-.563.532L.6 119.57a.563.532 0 1 1 0-1.062l21.12.002a.56.53 0 0 1 .563.53z" style="fill:#59d100;stroke:none;stroke-width:33.99980164;stroke-linecap:butt"/></g><g transform="translate(3.002)"><title>path8</title><title>Sheet.17080</title><title>Sheet.17081</title><path d="M6.95 119.33a4.9 4.632 0 0 1-6.54 0l-.41 7.7a.646.61 0 0 0 1.106.459l2.514-2.429 2.55 2.45a.646.61 0 0 0 1.114-.446z" style="fill:#5e9624;stroke:none;stroke-width:33.99980164;stroke-linecap:butt"/></g><g transform="translate(.904 -6.708)"><title>ellipse10</title><title>Sheet.17083</title><title>Sheet.17084</title><ellipse cx="5.847" cy="122.104" rx="5.847" ry="5.546" style="fill:#14b414;stroke:none;stroke-width:33.99980164;stroke-linecap:butt"/></g><g transform="translate(2.315 -8.047)"><title>ellipse12</title><title>Sheet.17086</title><title>Sheet.17087</title><ellipse cx="4.436" cy="123.444" rx="4.436" ry="4.207" style="fill:#84e600;stroke:none;stroke-width:33.99980164;stroke-linecap:butt"/></g></g></g></g></svg>