<svg xmlns="http://www.w3.org/2000/svg" xml:space="preserve" width="60.472" height="75.596" style="font-size:12px;overflow:visible;color-interpolation-filters:sRGB;fill-rule:evenodd;stroke-linecap:square;stroke-miterlimit:3" viewBox="0 0 45.354 56.697"><defs><linearGradient id="a" x1="0" x2="39.603" y1="54.549" y2="54.549" gradientTransform="scale(.75449 1.3254)" gradientUnits="userSpaceOnUse"><stop offset="0" stop-color="#949494"/><stop offset=".53" stop-color="#a2a2a2"/><stop offset="1" stop-color="#b3b3b3"/></linearGradient><linearGradient id="b" x1="0" x2="19.809" y1="128.297" y2="128.297" gradientTransform="scale(1.18684 .84257)" gradientUnits="userSpaceOnUse"><stop offset="0" stop-color="#e27908"/><stop offset=".325" stop-color="#e47d0a"/><stop offset=".62" stop-color="#eb8810"/><stop offset=".91" stop-color="#f69a19"/><stop offset="1" stop-color="#faa21d"/></linearGradient><radialGradient id="c" cx="0" cy="114.32" r="13.345" fx="0" fy="114.32" gradientTransform="scale(.99247 1.00758)" gradientUnits="userSpaceOnUse"><stop offset=".185" stop-color="#5ea0ef"/><stop offset="1" stop-color="#0078d4"/></radialGradient></defs><g transform="translate(-35.96 -34.082)"><title>Page-1</title><g transform="translate(35.96 -34.016)"><title>Certification Authority Policy Web Service.17088</title><title>Page-1</title><title>Sheet.17090</title><g transform="translate(0 -2.323)"><title>Sheet.17091</title><title>Icon-databases-136.149</title><title>path4-5</title><title>Sheet.17094</title><title>Sheet.17095</title><path d="M29.88 123a1.821 1.765 90 0 1-1.73 1.79H1.73A1.79 1.734 90 0 1 0 123V74.08a1.758 1.704 90 0 1 1.73-1.78h26.42a1.79 1.734 90 0 1 1.73 1.78z" style="fill:url(#a);stroke:none;stroke-width:35.95970154;stroke-linecap:butt"/><g transform="translate(4.382 -30.74)"><title>path6-7</title><title>Sheet.17097</title><title>Sheet.17098</title><path d="M0 121.44a3.36 3.256 90 0 1 3.23-3.33h14.9a3.36 3.256 90 0 1 3.35 3.33 3.36 3.256 90 0 1-3.35 3.35H3.23A3.36 3.256 90 0 1 0 121.44m0-9.94a3.36 3.256 90 0 1 3.23-3.35h14.9a3.36 3.256 90 0 1 3.35 3.35 3.36 3.256 90 0 1-3.35 3.35H3.23A3.36 3.256 90 0 1 0 111.5" style="fill:#003067;stroke:none;stroke-width:35.95970154;stroke-linecap:butt"/></g><g transform="translate(5.599 -41.76)"><title>circle8-5</title><title>Sheet.17100</title><title>Sheet.17101</title><ellipse cx="2.191" cy="122.53" rx="2.191" ry="2.261" style="fill:#50e6ff;stroke:none;stroke-width:35.95970154;stroke-linecap:butt"/></g><g transform="translate(5.599 -31.838)"><title>circle10-2</title><title>Sheet.17103</title><title>Sheet.17104</title><ellipse cx="2.191" cy="122.53" rx="2.191" ry="2.261" style="fill:#50e6ff;stroke:none;stroke-width:35.95970154;stroke-linecap:butt"/></g></g><g transform="translate(21.844 -35.139)"><title>Management Certificate.208</title><title>g14</title><g transform="translate(0 -4.864)"><title>rect2</title><title>Sheet.17108</title><title>Sheet.17109</title><path d="M0 124.01a.785.784-90 0 0 .78.78h21.94a.785.784-90 0 0 .788-.78l.002-15.13a.785.784-90 0 0-.788-.78H.78a.785.784-90 0 0-.78.78z" style="fill:url(#b);stroke:none;stroke-width:33.99980164;stroke-linecap:butt"/></g><g transform="translate(1.371 -6.338)"><title>rect4</title><title>Sheet.17111</title><title>Sheet.17112</title><path d="M0 124.4a.393.392-90 0 0 .392.393l19.988-.003a.393.392-90 0 0 .392-.393l-.002-12.967a.393.392-90 0 0-.392-.393L.4 111.05a.393.392-90 0 0-.392.393z" style="fill:#fff;stroke:none;stroke-width:33.99980164;stroke-linecap:butt"/></g><g transform="translate(4.517 -9.946)"><title>path6</title><title>Sheet.17114</title><title>Sheet.17115</title><path d="M15 124.41a.38.379 90 0 1-.379.38H6.14a.38.379 90 1 1 0-.758l8.48.008a.378.377 90 0 1 .379.378zm0-2.34a.378.377 90 0 1-.379.378l-8.481-.008a.38.379 90 1 1 0-.758l8.48-.002a.38.379 90 0 1 .379.38zm0-3.43a.38.379 90 0 1-.379.38H.4a.38.379 90 1 1 0-.758l14.22-.002a.378.377 90 0 1 .379.378z" style="fill:#d15900;stroke:none;stroke-width:33.99980164;stroke-linecap:butt"/></g><g transform="translate(2.02)"><title>path8</title><title>Sheet.17117</title><title>Sheet.17118</title><path d="M4.68 118.86a3.305 3.298 90 0 1-4.41 0L0 124.35a.436.435-90 0 0 .744.327l1.696-1.727 1.72 1.74a.436.435-90 0 0 .75-.318z" style="fill:#b31b1b;stroke:none;stroke-width:33.99980164;stroke-linecap:butt"/></g><g transform="translate(.609 -4.786)"><title>ellipse10</title><title>Sheet.17120</title><title>Sheet.17121</title><ellipse cx="3.935" cy="120.834" rx="3.935" ry="3.957" style="fill:#e62323;stroke:none;stroke-width:33.99980164;stroke-linecap:butt"/></g><g transform="translate(1.558 -5.742)"><title>ellipse12</title><title>Sheet.17123</title><title>Sheet.17124</title><ellipse cx="2.986" cy="121.789" rx="2.986" ry="3.002" style="fill:#ffb34d;stroke:none;stroke-width:33.99980164;stroke-linecap:butt"/></g></g><g transform="translate(15.29)"><title>Sheet.17125</title><g transform="translate(24.357 -21.015)"><title>ellipse19</title><title>Sheet.17127</title><ellipse cx="2.297" cy="122.437" rx="2.297" ry="2.354" style="fill:#32bedd;stroke:none;stroke-width:34;stroke-linecap:butt"/></g><g transform="translate(24.357 -13.327)"><title>ellipse21</title><title>Sheet.17129</title><ellipse cx="2.297" cy="122.437" rx="2.297" ry="2.354" style="fill:#32bedd;stroke:none;stroke-width:34;stroke-linecap:butt"/></g><g transform="translate(24.357 -5.658)"><title>ellipse23</title><title>Sheet.17131</title><ellipse cx="2.297" cy="122.437" rx="2.297" ry="2.354" style="fill:#32bedd;stroke:none;stroke-width:34;stroke-linecap:butt"/></g><g transform="translate(19.111 -17.08)"><title>ellipse25</title><title>Sheet.17133</title><ellipse cx="2.297" cy="122.437" rx="2.297" ry="2.354" style="fill:#50e6ff;stroke:none;stroke-width:34;stroke-linecap:butt"/></g><g transform="translate(19.111 -9.391)"><title>ellipse27</title><title>Sheet.17135</title><ellipse cx="2.297" cy="122.437" rx="2.297" ry="2.354" style="fill:#50e6ff;stroke:none;stroke-width:34;stroke-linecap:butt"/></g><g transform="translate(.01 -21.878)"><title>path29</title><title>Sheet.17137</title><path d="M2.55 124.79a.441.434 90 0 1 .163-.147l10.527-6.233c.14 0 9.04 5.11 9.04 5.11a.441.434-90 0 0 .651-.386l.009-2.004a.441.434-90 0 0-.217-.386c-.003-.004-9.343-5.374-9.473-5.294L.2 123.06l-.2.15Z" style="fill:#32bedd;stroke:none;stroke-width:34;stroke-linecap:butt"/></g><g transform="translate(13.485)"><title>path31</title><title>Sheet.17139</title><path d="M8.77 116.81.2 121.83a.644.633 90 0 1-.199 0L0 124.78a.368.362-90 0 0 .199 0l9.041-5.26a.441.434-90 0 0 .217-.368l.003-1.952a.441.434-90 0 0-.687-.386z" style="fill:#32bedd;stroke:none;stroke-width:34;stroke-linecap:butt"/></g><title>path33</title><title>Sheet.17141</title><path d="M13.49 121.89a.57.56 90 0 1-.235 0L2.72 115.58a.405.398 90 0 1-.217-.368L2.5 103.13a.497.488 90 0 1 0-.22l-2.49-1.58a.515.506-90 0 0 0 .24v15.21a.441.434-90 0 0 .199.386l13.061 7.614a.441.434-90 0 0 .217 0z" style="fill:#50e6ff;stroke:none;stroke-width:34;stroke-linecap:butt"/><g transform="translate(8.503 -10.746)"><title>Application Service</title><title>g22</title><title>path59</title><title>Sheet.17145</title><title>Sheet.17146</title><ellipse cx="4.73" cy="119.989" rx="4.73" ry="4.802" style="fill:url(#c);stroke:none;stroke-width:35.4333992;stroke-linecap:butt"/><g transform="translate(.659 -1.489)"><title>path4-3</title><title>Sheet.17148</title><title>Sheet.17149</title><path d="M.46 122.42c-.19.48-.34.99-.46 1.5.1.18.22.33.34.5.1.12.2.25.31.37.13-.67.34-1.33.6-1.96-.29-.06-.57-.2-.79-.41m.54-2.56c-.19-.53-.32-1.09-.39-1.66q-.33.375-.6.81c.07.46.17.92.31 1.35.18-.23.42-.39.68-.5" style="fill:#83b9f9;stroke:none;stroke-width:35.4333992;stroke-linecap:butt"/></g><g transform="translate(2.454 -1.28)"><title>path8-3</title><title>Sheet.17151</title><title>Sheet.17152</title><path d="M1.93 123.92c0-.27.11-.53.3-.72-.51-.29-.99-.64-1.4-1.04-.23.23-.51.4-.83.45.24.27.51.51.8.74.35.26.74.5 1.14.7-.01-.05-.01-.09-.01-.13m3.49.12c-.51 0-1.02-.06-1.52-.18v.06c0 .26-.09.51-.28.69.62.13 1.28.18 1.91.15.23-.23.45-.5.64-.77-.25.03-.51.05-.74.05z" style="fill:#83b9f9;stroke:none;stroke-width:35.4333992;stroke-linecap:butt"/></g><g transform="translate(2.709 -4.826)"><title>path12-4</title><title>Sheet.17154</title><title>Sheet.17155</title><path d="M2.39 122.63a7.54 7.54 0 0 1 3.32-.82c-.24-.31-.52-.57-.82-.82-.9.06-1.8.28-2.63.63-.18.09-.36.18-.53.27-.42-.51-.82-1.07-1.13-1.65-.2.06-.38.13-.57.23.31.62.7 1.22 1.14 1.76-.42.28-.82.61-1.17.99.31.11.57.33.75.62.32-.33.68-.62 1.06-.87.63.66 1.33 1.27 2.06 1.82.05-.22.17-.41.34-.55-.65-.49-1.25-1.02-1.82-1.61" style="fill:#83b9f9;stroke:none;stroke-width:35.4333992;stroke-linecap:butt"/></g><g transform="translate(6.567 -3.572)"><title>circle14-8</title><title>Sheet.17157</title><title>Sheet.17158</title><ellipse cx="1.046" cy="123.729" rx="1.046" ry="1.062" style="fill:#f2f2f2;stroke:none;stroke-width:35.4333992;stroke-linecap:butt"/></g><g transform="translate(.657 -3.425)"><title>circle18-3</title><title>Sheet.17160</title><title>Sheet.17161</title><ellipse cx="1.516" cy="123.252" rx="1.516" ry="1.539" style="fill:#f2f2f2;stroke:none;stroke-width:35.4333992;stroke-linecap:butt"/></g><g transform="translate(4.383 -1.154)"><title>circle20-2</title><title>Sheet.17163</title><title>Sheet.17164</title><ellipse cx=".985" cy="123.791" rx=".985" ry="1" style="fill:#f2f2f2;stroke:none;stroke-width:35.4333992;stroke-linecap:butt"/></g></g></g></g></g></svg>