<svg xmlns="http://www.w3.org/2000/svg" xmlns:xlink="http://www.w3.org/1999/xlink" xml:space="preserve" width="60.47" height="75.584" style="font-size:12px;overflow:visible;color-interpolation-filters:sRGB;fill-rule:evenodd;stroke-linecap:square;stroke-miterlimit:3" viewBox="0 0 45.352 56.688"><defs><linearGradient id="b" x1="0" x2="39.82" y1="54.613" y2="54.613" gradientTransform="scale(.7559 1.32294)" gradientUnits="userSpaceOnUse"><stop offset="0" stop-color="#949494"/><stop offset=".53" stop-color="#a2a2a2"/><stop offset="1" stop-color="#b3b3b3"/></linearGradient><linearGradient id="c" x1="0" x2="19.704" y1="128.82" y2="128.82" gradientTransform="scale(1.18881 .84118)" gradientUnits="userSpaceOnUse"><stop offset="0" stop-color="#e27908"/><stop offset=".325" stop-color="#e47d0a"/><stop offset=".62" stop-color="#eb8810"/><stop offset=".91" stop-color="#f69a19"/><stop offset="1" stop-color="#faa21d"/></linearGradient><linearGradient id="d" x1="0" x2="30.603" y1="92.886" y2="92.886" gradientTransform="scale(.98847 1.01167)" gradientUnits="userSpaceOnUse"><stop offset="0" stop-color="#0879e2"/><stop offset=".325" stop-color="#0a7de4"/><stop offset=".62" stop-color="#1088eb"/><stop offset=".91" stop-color="#199af6"/><stop offset="1" stop-color="#1da2fa"/></linearGradient><linearGradient id="a" x1="0" x2="1" y1="0" y2="0"><stop offset="0" stop-color="#5e9624"/><stop offset=".18" stop-color="#629c25"/><stop offset=".44" stop-color="#6dae2a"/><stop offset=".73" stop-color="#7fcb30"/><stop offset=".82" stop-color="#86d633"/></linearGradient><linearGradient xlink:href="#a" id="e" x1="0" x2="7.195" y1="185.704" y2="185.704" gradientTransform="scale(1.54406 .64764)" gradientUnits="userSpaceOnUse"/><linearGradient xlink:href="#a" id="f" x1="0" x2="9.907" y1="255.678" y2="255.678" gradientTransform="scale(2.12587 .4704)" gradientUnits="userSpaceOnUse"/></defs><g transform="translate(-35.96 -34.226)"><title>Page-1</title><g transform="translate(35.96 -34.016)"><title>Certification Authority Online Responder.17165</title><title>Page-1</title><title>Sheet.17167</title><g transform="translate(0 -2.27)"><title>Sheet.17168</title><title>Sheet.17169</title><title>Icon-databases-136.149</title><title>path4-5</title><title>Sheet.17172</title><title>Sheet.17173</title><path d="M30.1 123.14a1.828 1.778 90 0 1-1.75 1.79H1.74A1.796 1.747 90 0 1 0 123.14V74.03a1.765 1.716 90 0 1 1.74-1.78h26.61a1.796 1.747 90 0 1 1.75 1.78z" style="fill:url(#b);stroke:none;stroke-width:35.95970154;stroke-linecap:butt"/><g transform="translate(4.413 -30.854)"><title>path6-7</title><title>Sheet.17175</title><title>Sheet.17176</title><path d="M0 121.57a3.372 3.28 90 0 1 3.25-3.35h15.01a3.372 3.28 90 0 1 3.37 3.35 3.372 3.28 90 0 1-3.37 3.36H3.25A3.372 3.28 90 0 1 0 121.57m0-9.96a3.372 3.28 90 0 1 3.25-3.38h15.01a3.372 3.28 90 0 1 3.37 3.38 3.372 3.28 90 0 1-3.37 3.34H3.25A3.372 3.28 90 0 1 0 111.61" style="fill:#003067;stroke:none;stroke-width:35.95970154;stroke-linecap:butt"/></g><g transform="translate(5.64 -41.914)"><title>circle8-5</title><title>Sheet.17178</title><title>Sheet.17179</title><ellipse cx="2.207" cy="122.664" rx="2.207" ry="2.269" style="fill:#50e6ff;stroke:none;stroke-width:35.95970154;stroke-linecap:butt"/></g><g transform="translate(5.64 -31.955)"><title>circle10-2</title><title>Sheet.17181</title><title>Sheet.17182</title><ellipse cx="2.207" cy="122.664" rx="2.207" ry="2.269" style="fill:#50e6ff;stroke:none;stroke-width:35.95970154;stroke-linecap:butt"/></g><g transform="translate(21.926 -33.022)"><title>Management Certificate.1159</title><title>g14</title><g transform="translate(0 -4.827)"><title>rect2</title><title>Sheet.17186</title><title>Sheet.17187</title><path d="M0 124.16a.78.78 0 0 0 .778.775l21.862-.005a.78.78 0 0 0 .785-.775l-.005-15.015a.78.78 0 0 0-.785-.775L.78 108.36a.78.78 0 0 0-.778.775z" style="fill:url(#c);stroke:none;stroke-width:33.99980164;stroke-linecap:butt"/></g><g transform="translate(1.366 -6.287)"><title>rect4</title><title>Sheet.17189</title><title>Sheet.17190</title><path d="M0 124.54a.39.39 0 0 0 .39.39l19.91-.01a.39.39 0 0 0 .39-.39l.01-12.86a.39.39 0 0 0-.39-.39H.39a.39.39 0 0 0-.39.39z" style="fill:#fff;stroke:none;stroke-width:33.99980164;stroke-linecap:butt"/></g><g transform="translate(4.505 -9.874)"><title>path6</title><title>Sheet.17192</title><title>Sheet.17193</title><path d="M14.94 124.55a.377.377 0 0 1-.377.377l-8.443.003a.377.377 0 1 1 0-.753l8.45.013a.376.376 0 0 1 .377.376zm0-2.32a.376.376 0 0 1-.377.376L6.12 122.6a.377.377 0 1 1 0-.753l8.45.003a.377.377 0 0 1 .377.377zm0-3.4a.377.377 0 0 1-.377.377L.4 119.21a.377.377 0 1 1 0-.753l14.17-.007a.376.376 0 0 1 .377.376z" style="fill:#d15900;stroke:none;stroke-width:33.99980164;stroke-linecap:butt"/></g><g transform="translate(2.013)"><title>path8</title><title>Sheet.17195</title><title>Sheet.17196</title><path d="M4.67 119.04a3.286 3.282 0 0 1-4.4 0L0 124.5a.433.433 0 0 0 .742.325L2.43 123.1l1.71 1.73a.433.433 0 0 0 .747-.316z" style="fill:#b31b1b;stroke:none;stroke-width:33.99980164;stroke-linecap:butt"/></g><g transform="translate(.606 -4.75)"><title>ellipse10</title><title>Sheet.17198</title><title>Sheet.17199</title><ellipse cx="3.921" cy="121.004" rx="3.921" ry="3.929" style="fill:#e62323;stroke:none;stroke-width:33.99980164;stroke-linecap:butt"/></g><g transform="translate(1.552 -5.699)"><title>ellipse12</title><title>Sheet.17201</title><title>Sheet.17202</title><ellipse cx="2.975" cy="121.952" rx="2.975" ry="2.98" style="fill:#ffb34d;stroke:none;stroke-width:33.99980164;stroke-linecap:butt"/></g></g></g><g transform="translate(15.102)"><title>Sheet.17203</title><title>g8</title><title>path6</title><title>Sheet.17206</title><path d="M15.12 93.97C6.71 93.97 0 101.04 0 109.46c0 8.6 6.89 15.47 15.12 15.47s15.13-7.05 15.13-15.47-6.72-15.49-15.13-15.49m0 2.05c7.27 0 13.13 6 13.13 13.44 0 7.42-5.93 13.43-13.13 13.43-7.19 0-13.12-6.07-13.12-13.43 0-7.37 5.87-13.44 13.12-13.44" style="fill:url(#d);stroke:none;stroke-width:34;stroke-linecap:butt"/><g transform="translate(1.3 -1.332)"><title>Sheet.17207</title><title>Sheet.17208</title><ellipse cx="13.824" cy="110.786" rx="13.824" ry="14.146" style="fill:#fff;stroke:none;stroke-width:.74999899;stroke-linecap:round;stroke-linejoin:round"/></g><g transform="rotate(-45 -1.916 107.866)"><title>Sheet.17209</title><g transform="rotate(-90 2.238 122.565)"><title>Rounded process.1213</title><title>Sheet.17211</title><path d="M0 122.6a2.276 2.33-180 0 0 2.28 2.33h6.55a2.276 2.33-180 0 0 2.28-2.33 2.276 2.33-180 0 0-2.28-2.33H2.28A2.276 2.33-180 0 0 0 122.6" style="fill:url(#e);stroke:none;stroke-width:34;stroke-linecap:butt"/></g><title>Rounded process</title><title>Sheet.17213</title><path d="M0 122.6a2.276 2.33-180 0 0 2.28 2.33h16.5a2.276 2.33-180 0 0 2.28-2.33 2.276 2.33-180 0 0-2.28-2.33H2.28A2.276 2.33-180 0 0 0 122.6" style="fill:url(#f);stroke:none;stroke-width:34;stroke-linecap:butt"/></g></g></g></g></svg>