<svg xmlns="http://www.w3.org/2000/svg" xml:space="preserve" width="68.035" height="75.65" style="font-size:12px;overflow:visible;color-interpolation-filters:sRGB;fill-rule:evenodd;stroke-linecap:square;stroke-miterlimit:3" viewBox="0 0 51.026 56.738"><defs><linearGradient id="a" x1="0" x2="43.297" y1="55.995" y2="55.995" gradientTransform="scale(.77858 1.28439)" gradientUnits="userSpaceOnUse"><stop offset="0" stop-color="#949494"/><stop offset=".53" stop-color="#a2a2a2"/><stop offset="1" stop-color="#b3b3b3"/></linearGradient><linearGradient id="b" x1="0" x2="28.477" y1="127.726" y2="127.726" gradientTransform="scale(1.22483 .81644)" gradientUnits="userSpaceOnUse"><stop offset="0" stop-color="#e27908"/><stop offset=".325" stop-color="#e47d0a"/><stop offset=".62" stop-color="#eb8810"/><stop offset=".91" stop-color="#f69a19"/><stop offset="1" stop-color="#faa21d"/></linearGradient></defs><g transform="translate(-35.96 -35.96)"><title>Page-1</title><g transform="translate(35.96 -34.88)"><title>Certification Authority.16955</title><title>Page-1</title><title>Sheet.16957</title><g transform="translate(0 -1.079)"><title>Sheet.16958</title><title>Icon-databases-136.149</title><title>path4-5</title><title>Sheet.16961</title><title>Sheet.16962</title><path d="M33.71 125.64a1.99 1.93-180 0 1-1.96 1.89H1.95A1.956 1.896-180 0 1 0 125.64V73.81a1.922 1.863-180 0 1 1.95-1.89h29.8a1.956 1.896-180 0 1 1.96 1.89z" style="fill:url(#a);stroke:none;stroke-width:35.95949936;stroke-linecap:butt"/><g transform="translate(4.943 -32.568)"><title>path6-7</title><title>Sheet.16964</title><title>Sheet.16965</title><path d="M0 123.98a3.673 3.56-180 0 1 3.64-3.53h16.81a3.673 3.56-180 0 1 3.78 3.53 3.673 3.56-180 0 1-3.78 3.55H3.64A3.673 3.56-180 0 1 0 123.98m0-10.51a3.673 3.56-180 0 1 3.64-3.56h16.81a3.673 3.56-180 0 1 3.78 3.56 3.673 3.56-180 0 1-3.78 3.53H3.64A3.673 3.56-180 0 1 0 113.47" style="fill:#003067;stroke:none;stroke-width:35.95949936;stroke-linecap:butt"/></g><g transform="translate(6.316 -44.24)"><title>circle8-5</title><title>Sheet.16967</title><title>Sheet.16968</title><ellipse cx="2.471" cy="125.138" rx="2.471" ry="2.395" style="fill:#50e6ff;stroke:none;stroke-width:35.95949936;stroke-linecap:butt"/></g><g transform="translate(6.316 -33.727)"><title>circle10-2</title><title>Sheet.16970</title><title>Sheet.16971</title><ellipse cx="2.471" cy="125.138" rx="2.471" ry="2.395" style="fill:#50e6ff;stroke:none;stroke-width:35.95949936;stroke-linecap:butt"/></g></g><g transform="translate(16.146)"><title>Management Certificate</title><title>g14</title><g transform="translate(0 -6.785)"><title>rect2</title><title>Sheet.16975</title><title>Sheet.16976</title><path d="M0 126.44a1.163 1.095 0 0 0 1.16 1.09h32.56a1.163 1.095 0 0 0 1.16-1.09v-21.07a1.163 1.095 0 0 0-1.16-1.09H1.16A1.163 1.095 0 0 0 0 105.37Z" style="fill:url(#b);stroke:none;stroke-width:33.99959946;stroke-linecap:butt"/></g><g transform="translate(2.033 -8.831)"><title>rect4</title><title>Sheet.16978</title><title>Sheet.16979</title><path d="M0 126.99a.581.547 0 0 0 .581.547l29.649-.007a.581.547 0 0 0 .581-.547l.009-18.053a.581.547 0 0 0-.581-.547L.58 108.39a.581.547 0 0 0-.581.547z" style="fill:#fff;stroke:none;stroke-width:33.99959946;stroke-linecap:butt"/></g><g transform="translate(6.703 -13.864)"><title>path6</title><title>Sheet.16981</title><title>Sheet.16982</title><path d="M22.26 127a.562.529 0 0 1-.562.529l-12.578.001a.562.529 0 1 1 0-1.056l12.57.006a.56.527 0 0 1 .562.527zm0-3.25a.56.527 0 0 1-.562.527L9.12 124.27a.562.529 0 1 1 0-1.056l12.57-.004a.562.529 0 0 1 .562.529zm0-4.78a.562.529 0 0 1-.562.529L.59 119.5a.562.529 0 1 1 0-1.056l21.1-.004a.56.527 0 0 1 .562.527z" style="fill:#d15900;stroke:none;stroke-width:33.99959946;stroke-linecap:butt"/></g><g transform="translate(2.998)"><title>path8</title><title>Sheet.16984</title><title>Sheet.16985</title><path d="M6.95 119.26a4.893 4.606 0 0 1-6.54 0L0 126.91a.645.607 0 0 0 1.104.456l2.516-2.406 2.54 2.43a.645.607 0 0 0 1.112-.443z" style="fill:#b31b1b;stroke:none;stroke-width:33.99959946;stroke-linecap:butt"/></g><g transform="translate(.903 -6.67)"><title>ellipse10</title><title>Sheet.16987</title><title>Sheet.16988</title><ellipse cx="5.838" cy="122.019" rx="5.838" ry="5.515" style="fill:#e62323;stroke:none;stroke-width:33.99959946;stroke-linecap:butt"/></g><g transform="translate(2.312 -8)"><title>ellipse12</title><title>Sheet.16990</title><title>Sheet.16991</title><ellipse cx="4.43" cy="123.351" rx="4.43" ry="4.183" style="fill:#ffb34d;stroke:none;stroke-width:33.99959946;stroke-linecap:butt"/></g></g></g></g></svg>