<svg xmlns="http://www.w3.org/2000/svg" xml:space="preserve" width="56.688" height="75.594" style="font-size:12px;overflow:visible;color-interpolation-filters:sRGB;fill-rule:evenodd;stroke-linecap:square;stroke-miterlimit:3" viewBox="0 0 42.516 56.695"><defs><linearGradient id="a" x1="0" x2="40.926" y1="54.37" y2="54.37" gradientTransform="scale(.75233 1.32921)" gradientUnits="userSpaceOnUse"><stop offset="0" stop-color="#949494"/><stop offset=".53" stop-color="#a2a2a2"/><stop offset="1" stop-color="#b3b3b3"/></linearGradient><linearGradient id="b" x1="0" x2="25.27" y1="90.874" y2="90.874" gradientTransform="scale(.9169 1.09063)" gradientUnits="userSpaceOnUse"><stop offset="0" stop-color="#005ba1"/><stop offset=".07" stop-color="#0060a9"/><stop offset=".36" stop-color="#0071c8"/><stop offset=".52" stop-color="#0078d4"/><stop offset=".64" stop-color="#0074cd"/><stop offset=".82" stop-color="#006abb"/><stop offset="1" stop-color="#005ba1"/></linearGradient><radialGradient id="c" cx="6.753" cy="167.404" r="9.86" fx="6.753" fy="167.404" gradientTransform="scale(1.3749 .72733)" gradientUnits="userSpaceOnUse"><stop offset="0" stop-color="#f2f2f2"/><stop offset=".58" stop-color="#eee"/><stop offset="1" stop-color="#e6e6e6"/></radialGradient></defs><g transform="translate(-35.96 -35.959)"><title>Page-1</title><g transform="translate(35.96 -34.016)"><title>Database Server SQL.16899</title><title>Page-1</title><title>Sheet.16901</title><g transform="translate(0 -2.295)"><title>Sheet.16902</title><title>Icon-databases-136.149</title><title>path4-5</title><title>Sheet.16905</title><title>Sheet.16906</title><path d="M30.79 124.82a1.887 1.819 90 0 1-1.78 1.85H1.78A1.855 1.787 90 0 1 0 124.82v-50.7a1.822 1.756 90 0 1 1.78-1.85h27.23a1.855 1.787 90 0 1 1.78 1.85z" style="fill:url(#a);stroke:none;stroke-width:35.95970154;stroke-linecap:butt"/><g transform="translate(4.515 -31.855)"><title>path6-7</title><title>Sheet.16908</title><title>Sheet.16909</title><path d="M0 123.19a3.482 3.355 90 0 1 3.33-3.45h15.36a3.482 3.355 90 0 1 3.44 3.45 3.482 3.355 90 0 1-3.44 3.48H3.33A3.482 3.355 90 0 1 0 123.19m0-10.28a3.482 3.355 90 0 1 3.33-3.48h15.36a3.482 3.355 90 0 1 3.44 3.48 3.482 3.355 90 0 1-3.44 3.45H3.33A3.482 3.355 90 0 1 0 112.91" style="fill:#003067;stroke:none;stroke-width:35.95970154;stroke-linecap:butt"/></g><g transform="translate(5.77 -43.274)"><title>circle8-5</title><title>Sheet.16911</title><title>Sheet.16912</title><ellipse cx="2.258" cy="124.326" rx="2.258" ry="2.343" style="fill:#50e6ff;stroke:none;stroke-width:35.95970154;stroke-linecap:butt"/></g><g transform="translate(5.77 -32.992)"><title>circle10-2</title><title>Sheet.16914</title><title>Sheet.16915</title><ellipse cx="2.258" cy="124.326" rx="2.258" ry="2.343" style="fill:#50e6ff;stroke:none;stroke-width:35.95970154;stroke-linecap:butt"/></g></g><g transform="translate(19.346)"><title>SQL Database</title><title>Sheet.16917</title><title>Sheet.16918</title><title>Sheet.16919</title><path d="M11.59 103.47C5.18 103.47 0 101.59 0 99.11v23.2c0 2.39 5.1 4.32 11.43 4.36h.16c6.4 0 11.58-1.88 11.58-4.36v-23.2c0 2.42-5.18 4.36-11.58 4.36" style="fill:url(#b);stroke:none;stroke-width:34;stroke-linecap:butt"/><g transform="translate(0 -23.204)"><title>Sheet.16920</title><title>Sheet.16921</title><path d="M23.17 122.31c0 2.43-5.18 4.36-11.58 4.36-6.41 0-11.59-1.88-11.59-4.36 0-2.47 5.18-4.35 11.59-4.35 6.4 0 11.58 1.88 11.58 4.35" style="fill:#e8e8e8;stroke:none;stroke-width:34;stroke-linecap:butt"/></g><g transform="translate(2.694 -25.138)"><title>Sheet.16922</title><title>Sheet.16923</title><path d="M17.79 123.89c0 1.54-3.99 2.78-8.9 2.78-4.89 0-8.89-1.24-8.89-2.78s4-2.76 8.89-2.76c4.91 0 8.9 1.24 8.9 2.76" style="fill:#50e6ff;stroke:none;stroke-width:34;stroke-linecap:butt"/></g><g transform="translate(4.556 -25.138)"><title>Sheet.16924</title><title>Sheet.16925</title><path d="M7.03 124.59A21.683 20.882-90 0 0 0 125.65a21.44 20.647-90 0 0 7.03 1.02 20.932 20.16-90 0 0 7.04-1.09 22.228 21.407-90 0 0-7.04-.99" style="fill:#198ab3;stroke:none;stroke-width:34;stroke-linecap:butt"/></g><g transform="translate(2.893 -8.11)"><title>Sheet.16926</title><title>Sheet.16927</title><path d="M15.75 123.33v-6.38h-1.63v7.75h4.45v-1.37zm-12.92-3.14a3.436 3.309 90 0 1-.92-.58.826.796 90 0 1-.217-.6.638.615 90 0 1 .271-.564 1.277 1.23 90 0 1 .766-.226 3.041 2.929 90 0 1 1.8.54v-1.61a4.844 4.665-90 0 0-1.8-.3 3.079 2.965-90 0 0-1.97.64 2.028 1.953-90 0 0-.76 1.67c0 .95.58 1.71 1.81 2.27a5.407 5.207 90 0 1 1.12.68.788.76 90 0 1 .271.6.713.687 90 0 1-.29.583 1.52 1.464 90 0 1-.811.197 3.116 3.001 90 0 1-1.97-.78v1.74a4.074 3.923-90 0 0 1.93.45 3.53 3.399-90 0 0 2.13-.61 2.028 1.953-90 0 0 .6-1.71 1.971 1.898-90 0 0-.45-1.31 4.543 4.375-90 0 0-1.51-1.08m9.48 2.99a4.393 4.23-90 0 0 .6-2.36 4.355 4.195-90 0 0-.6-2 3.398 3.272-90 0 0-1.26-1.4 3.755 3.616-90 0 0-1.81-.49 3.961 3.815-90 0 0-1.96.5 3.492 3.363-90 0 0-1.31 1.39 4.618 4.448-90 0 0-.47 2.14 4.243 4.086-90 0 0 .43 1.88 3.304 3.182-90 0 0 1.24 1.39 3.867 3.724-90 0 0 1.82.56l1.55 1.88h2.19l-2.23-2.06a3.36 3.236-90 0 0 1.81-1.43m-1.81-.47a1.765 1.7 90 0 1-1.37.66 1.727 1.663 90 0 1-1.37-.68 2.854 2.748 90 0 1-.53-1.87 2.872 2.766 90 0 1 .53-1.89 1.877 1.808 90 0 1 1.41-.69 1.633 1.573 90 0 1 1.35.69 3.041 2.929 90 0 1 .49 1.89 2.74 2.64 90 0 1-.51 1.89" style="fill:url(#c);stroke:none;stroke-width:34;stroke-linecap:butt"/></g></g></g></g></svg>