<svg xmlns="http://www.w3.org/2000/svg" xml:space="preserve" width="56.688" height="75.594" style="font-size:12px;overflow:visible;color-interpolation-filters:sRGB;fill-rule:evenodd;stroke-linecap:square;stroke-miterlimit:3" viewBox="0 0 42.516 56.695"><defs><linearGradient id="a" x1="0" x2="40.926" y1="54.37" y2="54.37" gradientTransform="scale(.75233 1.32921)" gradientUnits="userSpaceOnUse"><stop offset="0" stop-color="#949494"/><stop offset=".53" stop-color="#a2a2a2"/><stop offset="1" stop-color="#b3b3b3"/></linearGradient><linearGradient id="b" x1="0" x2="25.27" y1="90.874" y2="90.874" gradientTransform="scale(.9169 1.09063)" gradientUnits="userSpaceOnUse"><stop offset="0" stop-color="#005ba1"/><stop offset=".07" stop-color="#0060a9"/><stop offset=".36" stop-color="#0071c8"/><stop offset=".52" stop-color="#0078d4"/><stop offset=".64" stop-color="#0074cd"/><stop offset=".82" stop-color="#006abb"/><stop offset="1" stop-color="#005ba1"/></linearGradient></defs><g transform="translate(-35.96 -35.959)"><title>Page-1</title><g transform="translate(35.96 -34.016)"><title>Database Server Generic.16928</title><title>Page-1</title><title>Sheet.16930</title><g transform="translate(0 -2.295)"><title>Sheet.16931</title><title>Icon-databases-136.149</title><title>path4-5</title><title>Sheet.16934</title><title>Sheet.16935</title><path d="M30.79 124.82a1.887 1.819 90 0 1-1.78 1.85H1.78A1.855 1.787 90 0 1 0 124.82v-50.7a1.822 1.756 90 0 1 1.78-1.85h27.23a1.855 1.787 90 0 1 1.78 1.85z" style="fill:url(#a);stroke:none;stroke-width:35.95970154;stroke-linecap:butt"/><g transform="translate(4.515 -31.855)"><title>path6-7</title><title>Sheet.16937</title><title>Sheet.16938</title><path d="M0 123.19a3.482 3.355 90 0 1 3.33-3.45h15.36a3.482 3.355 90 0 1 3.44 3.45 3.482 3.355 90 0 1-3.44 3.48H3.33A3.482 3.355 90 0 1 0 123.19m0-10.28a3.482 3.355 90 0 1 3.33-3.48h15.36a3.482 3.355 90 0 1 3.44 3.48 3.482 3.355 90 0 1-3.44 3.45H3.33A3.482 3.355 90 0 1 0 112.91" style="fill:#003067;stroke:none;stroke-width:35.95970154;stroke-linecap:butt"/></g><g transform="translate(5.77 -43.274)"><title>circle8-5</title><title>Sheet.16940</title><title>Sheet.16941</title><ellipse cx="2.258" cy="124.326" rx="2.258" ry="2.343" style="fill:#50e6ff;stroke:none;stroke-width:35.95970154;stroke-linecap:butt"/></g><g transform="translate(5.77 -32.992)"><title>circle10-2</title><title>Sheet.16943</title><title>Sheet.16944</title><ellipse cx="2.258" cy="124.326" rx="2.258" ry="2.343" style="fill:#50e6ff;stroke:none;stroke-width:35.95970154;stroke-linecap:butt"/></g></g><g transform="translate(19.346)"><title>SQL Database</title><title>Sheet.16946</title><title>Sheet.16947</title><title>Sheet.16948</title><path d="M11.59 103.47C5.18 103.47 0 101.59 0 99.11v23.2c0 2.39 5.1 4.32 11.43 4.36h.16c6.4 0 11.58-1.88 11.58-4.36v-23.2c0 2.42-5.18 4.36-11.58 4.36" style="fill:url(#b);stroke:none;stroke-width:34;stroke-linecap:butt"/><g transform="translate(0 -23.204)"><title>Sheet.16949</title><title>Sheet.16950</title><path d="M23.17 122.31c0 2.43-5.18 4.36-11.58 4.36-6.41 0-11.59-1.88-11.59-4.36 0-2.47 5.18-4.35 11.59-4.35 6.4 0 11.58 1.88 11.58 4.35" style="fill:#e8e8e8;stroke:none;stroke-width:34;stroke-linecap:butt"/></g><g transform="translate(2.694 -25.138)"><title>Sheet.16951</title><title>Sheet.16952</title><path d="M17.79 123.89c0 1.54-3.99 2.78-8.9 2.78-4.89 0-8.89-1.24-8.89-2.78s4-2.76 8.89-2.76c4.91 0 8.9 1.24 8.9 2.76" style="fill:#50e6ff;stroke:none;stroke-width:34;stroke-linecap:butt"/></g><g transform="translate(4.556 -25.138)"><title>Sheet.16953</title><title>Sheet.16954</title><path d="M7.03 124.59A21.683 20.882-90 0 0 0 125.65a21.44 20.647-90 0 0 7.03 1.02 20.932 20.16-90 0 0 7.04-1.09 22.228 21.407-90 0 0-7.04-.99" style="fill:#198ab3;stroke:none;stroke-width:34;stroke-linecap:butt"/></g></g></g></g></svg>