<svg xmlns="http://www.w3.org/2000/svg" xml:space="preserve" width="64.25" height="75.584" style="font-size:12px;overflow:visible;color-interpolation-filters:sRGB;fill-rule:evenodd;stroke-linecap:square;stroke-miterlimit:3" viewBox="0 0 48.188 56.688"><defs><linearGradient id="a" x1="0" x2="41.43" y1="55.22" y2="55.22" gradientTransform="scale(.7678 1.30243)" gradientUnits="userSpaceOnUse"><stop offset="0" stop-color="#949494"/><stop offset=".53" stop-color="#a2a2a2"/><stop offset="1" stop-color="#b3b3b3"/></linearGradient><linearGradient id="b" x1="0" x2="20.601" y1="130.818" y2="130.818" gradientTransform="scale(1.20288 .83134)" gradientUnits="userSpaceOnUse"><stop offset="0" stop-color="#0879e2"/><stop offset=".325" stop-color="#0a7de4"/><stop offset=".62" stop-color="#1088eb"/><stop offset=".91" stop-color="#199af6"/><stop offset="1" stop-color="#1da2fa"/></linearGradient></defs><g transform="translate(-35.96 -34.085)"><title>Page-1</title><g transform="translate(35.96 -35.108)"><title>Enterprise Certification Authority Subordinate.16777</title><title>Page-1</title><title>Sheet.16779</title><title>Sheet.16780</title><g transform="translate(0 -.852)"><title>Sheet.16781</title><title>Icon-databases-136.149</title><title>path4-5</title><title>Sheet.16784</title><title>Sheet.16785</title><path d="M31.81 124.05a1.879 1.872-180 0 1-1.84 1.83H1.84A1.846 1.84-180 0 1 0 124.05v-50.3a1.814 1.808-180 0 1 1.84-1.83h28.13a1.846 1.84-180 0 1 1.84 1.83z" style="fill:url(#a);stroke:none;stroke-width:35.95959854;stroke-linecap:butt"/><g transform="translate(4.665 -31.6)"><title>path6-7</title><title>Sheet.16787</title><title>Sheet.16788</title><path d="M0 122.44a3.466 3.454-180 0 1 3.44-3.43H19.3a3.466 3.454-180 0 1 3.57 3.43 3.466 3.454-180 0 1-3.57 3.44H3.44A3.466 3.454-180 0 1 0 122.44m0-10.22a3.466 3.454-180 0 1 3.44-3.44H19.3a3.466 3.454-180 0 1 3.57 3.44 3.466 3.454-180 0 1-3.57 3.44H3.44A3.466 3.454-180 0 1 0 112.22" style="fill:#003067;stroke:none;stroke-width:35.95959854;stroke-linecap:butt"/></g><g transform="translate(5.96 -42.929)"><title>circle8-5</title><title>Sheet.16790</title><title>Sheet.16791</title><ellipse cx="2.332" cy="123.558" rx="2.332" ry="2.324" style="fill:#50e6ff;stroke:none;stroke-width:35.95959854;stroke-linecap:butt"/></g><g transform="translate(5.96 -32.729)"><title>circle10-2</title><title>Sheet.16793</title><title>Sheet.16794</title><ellipse cx="2.332" cy="123.558" rx="2.332" ry="2.324" style="fill:#50e6ff;stroke:none;stroke-width:35.95959854;stroke-linecap:butt"/></g></g><g transform="translate(15.379)"><title>Sheet.16795</title><g transform="translate(.019)"><title>Sheet.16796</title><title>Sheet.16797</title><path d="M16.4 96.81 0 119.33l16.4 6.55 16.39-6.55z" style="fill:#773adc;stroke:none;stroke-width:33.99990082;stroke-linecap:butt"/></g><title>Sheet.16798</title><title>Sheet.16799</title><path d="M16.4 96.81 0 119.33l16.4 6.55z" style="fill:#f9f9f9;fill-opacity:.5;stroke:none;stroke-width:33.99990082;stroke-linecap:butt"/></g><g transform="translate(23.255 -34.575)"><title>g14</title><g transform="translate(0 -4.987)"><title>rect2</title><title>Sheet.16802</title><path d="M0 125.07a.826.806 0 0 0 .826.806l23.124.004a.826.806 0 0 0 .826-.806l.004-15.514a.826.806 0 0 0-.826-.806L.83 108.76a.826.806 0 0 0-.826.806z" style="fill:url(#b);stroke:none;stroke-width:33.99990082;stroke-linecap:butt"/></g><g transform="translate(1.446 -6.495)"><title>rect4</title><title>Sheet.16804</title><path d="M0 125.48a.413.403 0 0 0 .413.403l21.057-.003a.413.403 0 0 0 .413-.403l.007-13.307a.413.403 0 0 0-.413-.403L.41 111.77a.413.403 0 0 0-.413.403z" style="fill:#fff;stroke:none;stroke-width:33.99990082;stroke-linecap:butt"/></g><g transform="translate(4.766 -10.2)"><title>path6</title><title>Sheet.16806</title><path d="M15.81 125.49a.4.39-180 0 1-.4.39H6.47a.4.39-180 1 1 0-.778l8.94-.002a.398.388-180 0 1 .4.388zm0-2.41a.398.388-180 0 1-.4.388l-8.94.002a.4.39-180 1 1 0-.778l8.94-.002a.4.39-180 0 1 .4.39m0-3.51a.4.39-180 0 1-.4.39H.42a.4.39-180 1 1 0-.778l14.99-.002a.398.388-180 0 1 .4.388z" style="fill:#0059d1;stroke:none;stroke-width:33.99990082;stroke-linecap:butt"/></g><g transform="translate(2.13)"><title>path8</title><title>Sheet.16808</title><path d="M4.93 119.8a3.476 3.392-180 0 1-4.64 0L0 125.43a.458.447 0 0 0 .785.336l1.785-1.776 1.81 1.79a.458.447 0 0 0 .79-.326z" style="fill:#1b1bb3;stroke:none;stroke-width:33.99990082;stroke-linecap:butt"/></g><g transform="translate(.642 -4.907)"><title>ellipse10</title><title>Sheet.16810</title><ellipse cx="4.148" cy="121.821" rx="4.148" ry="4.061" style="fill:#2323e6;stroke:none;stroke-width:33.99990082;stroke-linecap:butt"/></g><g transform="translate(1.643 -5.888)"><title>ellipse12</title><title>Sheet.16812</title><ellipse cx="3.147" cy="122.802" rx="3.147" ry="3.08" style="fill:#4db3ff;stroke:none;stroke-width:33.99990082;stroke-linecap:butt"/></g></g></g></g></svg>