<svg xmlns="http://www.w3.org/2000/svg" xml:space="preserve" width="64.248" height="75.592" style="font-size:12px;overflow:visible;color-interpolation-filters:sRGB;fill-rule:evenodd;stroke-linecap:square;stroke-miterlimit:3" viewBox="0 0 48.186 56.694"><defs><linearGradient id="a" x1="0" x2="41.371" y1="55.372" y2="55.372" gradientTransform="scale(.76841 1.30139)" gradientUnits="userSpaceOnUse"><stop offset="0" stop-color="#949494"/><stop offset=".53" stop-color="#a2a2a2"/><stop offset="1" stop-color="#b3b3b3"/></linearGradient><linearGradient id="b" x1="0" x2="20.47" y1="131.744" y2="131.744" gradientTransform="scale(1.209 .82712)" gradientUnits="userSpaceOnUse"><stop offset="0" stop-color="#e27908"/><stop offset=".325" stop-color="#e47d0a"/><stop offset=".62" stop-color="#eb8810"/><stop offset=".91" stop-color="#f69a19"/><stop offset="1" stop-color="#faa21d"/></linearGradient></defs><g transform="translate(-35.96 -34.323)"><title>Page-1</title><g transform="translate(35.96 -34.883)"><title>Enterprise Certification Authority Offline Root.16855</title><title>Page-1</title><title>Sheet.16857</title><g transform="translate(0 -1.214)"><title>Sheet.16858</title><title>Icon-databases-136.149</title><title>path4-5</title><title>Sheet.16861</title><title>Sheet.16862</title><path d="M31.79 124.06a1.878 1.868-180 0 1-1.84 1.84H1.84A1.845 1.835-180 0 1 0 124.06V73.89a1.813 1.803-180 0 1 1.84-1.83h28.11a1.845 1.835-180 0 1 1.84 1.83z" style="fill:url(#a);stroke:none;stroke-width:35.95970154;stroke-linecap:butt"/><g transform="translate(4.662 -31.522)"><title>path6-7</title><title>Sheet.16864</title><title>Sheet.16865</title><path d="M0 122.46a3.464 3.445-180 0 1 3.43-3.43h15.86a3.464 3.445-180 0 1 3.56 3.43 3.464 3.445-180 0 1-3.56 3.44H3.43A3.464 3.445-180 0 1 0 122.46m0-10.19a3.464 3.445-180 0 1 3.43-3.44h15.86a3.464 3.445-180 0 1 3.56 3.44 3.464 3.445-180 0 1-3.56 3.42H3.43A3.464 3.445-180 0 1 0 112.27" style="fill:#003067;stroke:none;stroke-width:35.95970154;stroke-linecap:butt"/></g><g transform="translate(5.957 -42.824)"><title>circle8-5</title><title>Sheet.16867</title><title>Sheet.16868</title><ellipse cx="2.331" cy="123.577" rx="2.331" ry="2.318" style="fill:#50e6ff;stroke:none;stroke-width:35.95970154;stroke-linecap:butt"/></g><g transform="translate(5.957 -32.65)"><title>circle10-2</title><title>Sheet.16870</title><title>Sheet.16871</title><ellipse cx="2.331" cy="123.577" rx="2.331" ry="2.318" style="fill:#50e6ff;stroke:none;stroke-width:35.95970154;stroke-linecap:butt"/></g></g><g transform="translate(0 -1.077)"><title>Sheet.16872</title><title>Sheet.16873</title><path d="M31.79 124.06a1.878 1.868-180 0 1-1.84 1.84H1.84A1.845 1.835-180 0 1 0 124.06V73.89a1.813 1.803-180 0 1 1.84-1.83h28.11a1.845 1.835-180 0 1 1.84 1.83z" style="fill:#fff;fill-opacity:.75;stroke:none;stroke-width:35.95970154;stroke-linecap:butt"/></g><g transform="translate(23.12 -34.828)"><title>Management Certificate.1189</title><title>g14</title><g transform="translate(0 -4.935)"><title>rect2</title><title>Sheet.16877</title><title>Sheet.16878</title><path d="M0 125.1a.825.797 0 0 0 .821.792l23.099.008a.825.797 0 0 0 .829-.792l-.009-15.348a.825.797 0 0 0-.829-.792L.83 108.97a.825.797 0 0 0-.821.792z" style="fill:url(#b);stroke:none;stroke-width:33.99980164;stroke-linecap:butt"/></g><g transform="translate(1.443 -6.423)"><title>rect4</title><title>Sheet.16880</title><title>Sheet.16881</title><path d="M0 125.5a.412.398 0 0 0 .412.398l21.028-.008a.412.398 0 0 0 .412-.398l.008-13.142a.412.398 0 0 0-.412-.398L.41 111.95a.412.398 0 0 0-.412.398z" style="fill:#fff;stroke:none;stroke-width:33.99980164;stroke-linecap:butt"/></g><g transform="translate(4.759 -10.088)"><title>path6</title><title>Sheet.16883</title><title>Sheet.16884</title><path d="M15.78 125.51a.399.385 0 0 1-.399.385l-8.911.005a.399.385 0 1 1 0-.769h8.92a.397.384 0 0 1 .399.383zm0-2.38a.397.384 0 0 1-.399.384l-8.911-.004a.399.385 0 1 1 0-.769h8.92a.399.385 0 0 1 .399.384zm0-3.47a.399.385 0 0 1-.399.385L.42 120.04a.399.385 0 1 1 0-.769h14.97a.397.384 0 0 1 .399.383z" style="fill:#d15900;stroke:none;stroke-width:33.99980164;stroke-linecap:butt"/></g><g transform="translate(2.126)"><title>path8</title><title>Sheet.16886</title><title>Sheet.16887</title><path d="M4.93 119.88a3.47 3.353 0 0 1-4.64 0L0 125.44a.458.442 0 0 0 .784.332l1.786-1.742 1.8 1.76a.458.442 0 0 0 .789-.323z" style="fill:#b31b1b;stroke:none;stroke-width:33.99980164;stroke-linecap:butt"/></g><g transform="translate(.64 -4.854)"><title>ellipse10</title><title>Sheet.16889</title><title>Sheet.16890</title><ellipse cx="4.142" cy="121.881" rx="4.142" ry="4.014" style="fill:#e62323;stroke:none;stroke-width:33.99980164;stroke-linecap:butt"/></g><g transform="translate(1.64 -5.823)"><title>ellipse12</title><title>Sheet.16892</title><title>Sheet.16893</title><ellipse cx="3.142" cy="122.851" rx="3.142" ry="3.045" style="fill:#ffb34d;stroke:none;stroke-width:33.99980164;stroke-linecap:butt"/></g></g><g transform="translate(15.397)"><title>Sheet.16894</title><g transform="translate(.019)"><title>Sheet.16895</title><title>Sheet.16896</title><path d="M16.39 96.9 0 119.36l16.39 6.54 16.38-6.54z" style="fill:#773adc;stroke:none;stroke-width:34;stroke-linecap:butt"/></g><title>Sheet.16897</title><title>Sheet.16898</title><path d="M16.39 96.9 0 119.36l16.39 6.54Z" style="fill:#f9f9f9;fill-opacity:.5;stroke:none;stroke-width:34;stroke-linecap:butt"/></g></g></g></svg>