<svg xmlns="http://www.w3.org/2000/svg" xml:space="preserve" width="64.25" height="75.582" style="font-size:12px;overflow:visible;color-interpolation-filters:sRGB;fill-rule:evenodd;stroke-linecap:square;stroke-miterlimit:3" viewBox="0 0 48.188 56.686"><defs><linearGradient id="a" x1="0" x2="41.469" y1="55.169" y2="55.169" gradientTransform="scale(.76709 1.30363)" gradientUnits="userSpaceOnUse"><stop offset="0" stop-color="#949494"/><stop offset=".53" stop-color="#a2a2a2"/><stop offset="1" stop-color="#b3b3b3"/></linearGradient><linearGradient id="b" x1="0" x2="20.516" y1="131.528" y2="131.528" gradientTransform="scale(1.20684 .8286)" gradientUnits="userSpaceOnUse"><stop offset="0" stop-color="#e27908"/><stop offset=".325" stop-color="#e47d0a"/><stop offset=".62" stop-color="#eb8810"/><stop offset=".91" stop-color="#f69a19"/><stop offset="1" stop-color="#faa21d"/></linearGradient></defs><g transform="translate(-35.96 -34.188)"><title>Page-1</title><g transform="translate(35.96 -35.106)"><title>Enterprise Certification Authority Root.16813</title><title>Page-1</title><title>Sheet.16815</title><g transform="translate(0 -.854)"><title>Sheet.16816</title><title>Icon-databases-136.149</title><title>path4-5</title><title>Sheet.16819</title><title>Sheet.16820</title><path d="M31.81 124.14a1.879 1.876-180 0 1-1.84 1.84H1.84A1.846 1.843-180 0 1 0 124.14V73.76a1.814 1.811-180 0 1 1.84-1.84h28.13a1.846 1.843-180 0 1 1.84 1.84z" style="fill:url(#a);stroke:none;stroke-width:35.95959854;stroke-linecap:butt"/><g transform="translate(4.665 -31.66)"><title>path6-7</title><title>Sheet.16822</title><title>Sheet.16823</title><path d="M0 122.53a3.466 3.46-180 0 1 3.44-3.43H19.3a3.466 3.46-180 0 1 3.57 3.43 3.466 3.46-180 0 1-3.57 3.45H3.44A3.466 3.46-180 0 1 0 122.53m0-10.22a3.466 3.46-180 0 1 3.44-3.45H19.3a3.466 3.46-180 0 1 3.57 3.45 3.466 3.46-180 0 1-3.57 3.43H3.44A3.466 3.46-180 0 1 0 112.31" style="fill:#003067;stroke:none;stroke-width:35.95959854;stroke-linecap:butt"/></g><g transform="translate(5.96 -43.007)"><title>circle8-5</title><title>Sheet.16825</title><title>Sheet.16826</title><ellipse cx="2.332" cy="123.655" rx="2.332" ry="2.328" style="fill:#50e6ff;stroke:none;stroke-width:35.95959854;stroke-linecap:butt"/></g><g transform="translate(5.96 -32.787)"><title>circle10-2</title><title>Sheet.16828</title><title>Sheet.16829</title><ellipse cx="2.332" cy="123.655" rx="2.332" ry="2.328" style="fill:#50e6ff;stroke:none;stroke-width:35.95959854;stroke-linecap:butt"/></g></g><g transform="translate(15.379)"><title>Sheet.16830</title><g transform="translate(.019)"><title>Sheet.16831</title><title>Sheet.16832</title><path d="M16.4 96.87 0 119.42l16.4 6.56 16.39-6.56z" style="fill:#773adc;stroke:none;stroke-width:33.99990082;stroke-linecap:butt"/></g><title>Sheet.16833</title><title>Sheet.16834</title><path d="M16.4 96.87 0 119.42l16.4 6.56z" style="fill:#f9f9f9;fill-opacity:.5;stroke:none;stroke-width:33.99990082;stroke-linecap:butt"/></g><g transform="translate(23.253 -34.738)"><title>Management Certificate.741</title><title>g14</title><g transform="translate(0 -4.953)"><title>rect2</title><title>Sheet.16838</title><title>Sheet.16839</title><path d="M0 125.19a.825.8 0 0 0 .822.795l23.108-.005a.825.8 0 0 0 .83-.795V109.78a.825.8 0 0 0-.83-.795l-23.1.005a.825.8 0 0 0-.822.795z" style="fill:url(#b);stroke:none;stroke-width:33.99969864;stroke-linecap:butt"/></g><g transform="translate(1.444 -6.45)"><title>rect4</title><title>Sheet.16841</title><title>Sheet.16842</title><path d="M0 125.58a.413.4 0 0 0 .413.4H21.45a.413.4 0 0 0 .413-.4l.017-13.21a.413.4 0 0 0-.413-.4l-21.057.01a.413.4 0 0 0-.413.4z" style="fill:#fff;stroke:none;stroke-width:33.99969864;stroke-linecap:butt"/></g><g transform="translate(4.762 -10.127)"><title>path6</title><title>Sheet.16844</title><title>Sheet.16845</title><path d="M15.79 125.6a.399.387 0 0 1-.399.387l-8.921-.007a.399.387 0 1 1 0-.772l8.93.012a.397.385 0 0 1 .399.385zm0-2.39a.397.385 0 0 1-.399.385l-8.921-.015a.399.387 0 1 1 0-.772l8.93.002a.399.387 0 0 1 .399.387zm0-3.5a.399.387 0 0 1-.399.387L.42 120.1a.399.387 0 1 1 0-.772l14.98.002a.397.385 0 0 1 .399.385z" style="fill:#d15900;stroke:none;stroke-width:33.99969864;stroke-linecap:butt"/></g><g transform="translate(2.128)"><title>path8</title><title>Sheet.16847</title><title>Sheet.16848</title><path d="M4.93 119.94a3.473 3.368 0 0 1-4.64 0l-.29 5.6a.458.444 0 0 0 .784.333l1.786-1.763 1.81 1.77a.458.444 0 0 0 .79-.324z" style="fill:#b31b1b;stroke:none;stroke-width:33.99969864;stroke-linecap:butt"/></g><g transform="translate(.64 -4.87)"><title>ellipse10</title><title>Sheet.16850</title><title>Sheet.16851</title><ellipse cx="4.144" cy="121.952" rx="4.144" ry="4.032" style="fill:#e62323;stroke:none;stroke-width:33.99969864;stroke-linecap:butt"/></g><g transform="translate(1.64 -5.844)"><title>ellipse12</title><title>Sheet.16853</title><title>Sheet.16854</title><ellipse cx="3.144" cy="122.926" rx="3.144" ry="3.058" style="fill:#ffb34d;stroke:none;stroke-width:33.99969864;stroke-linecap:butt"/></g></g></g></g></svg>