<svg xmlns="http://www.w3.org/2000/svg" xml:space="preserve" width="64.256" height="75.593" style="font-size:12px;overflow:visible;color-interpolation-filters:sRGB;fill-rule:evenodd;stroke-linecap:square;stroke-miterlimit:3" viewBox="0 0 48.192 56.695"><defs><linearGradient id="a" x1="0" x2="41.812" y1="72.83" y2="72.83" gradientTransform="scale(.76174 1.31278)" gradientUnits="userSpaceOnUse"><stop offset="0" stop-color="#949494"/><stop offset=".53" stop-color="#a2a2a2"/><stop offset="1" stop-color="#b3b3b3"/></linearGradient><linearGradient id="b" x1="0" x2="18.311" y1="243.145" y2="243.145" gradientTransform="scale(1.73725 .57562)" gradientUnits="userSpaceOnUse"><stop offset="0" stop-color="#005ba1"/><stop offset=".26" stop-color="#00589d"/><stop offset=".53" stop-color="#004f90"/><stop offset=".8" stop-color="#003f7c"/><stop offset="1" stop-color="#003067"/></linearGradient></defs><g transform="translate(-47.72 -34.159)"><title>Page-1</title><g transform="translate(47.72 -59.646)"><title>Exchange Hub Transport Server.16529</title><title>Page-1</title><title>Sheet.16531</title><title>Sheet.16532</title><title>Icon-databases-136.149</title><title>path4-5</title><title>Sheet.16535</title><title>Sheet.16536</title><path d="M31.85 148.64a1.905 1.881 90 0 1-1.84 1.86H1.85A1.872 1.849 90 0 1 0 148.64V97.47a1.839 1.816 90 0 1 1.85-1.86h28.16a1.872 1.849 90 0 1 1.84 1.86z" style="fill:url(#a);stroke:none;stroke-width:35.95970154;stroke-linecap:butt"/><g transform="translate(4.67 -32.147)"><title>path6-7</title><title>Sheet.16538</title><title>Sheet.16539</title><path d="M0 147a3.514 3.47 90 0 1 3.44-3.49h15.89a3.514 3.47 90 0 1 3.56 3.49 3.514 3.47 90 0 1-3.56 3.5H3.44A3.514 3.47 90 0 1 0 147m0-10.38a3.514 3.47 90 0 1 3.44-3.51h15.89a3.514 3.47 90 0 1 3.56 3.51 3.514 3.47 90 0 1-3.56 3.48H3.44A3.514 3.47 90 0 1 0 136.62" style="fill:#003067;stroke:none;stroke-width:35.95970154;stroke-linecap:butt"/></g><g transform="translate(5.968 -43.666)"><title>circle8-5</title><title>Sheet.16541</title><title>Sheet.16542</title><ellipse cx="2.335" cy="148.138" rx="2.335" ry="2.364" style="fill:#50e6ff;stroke:none;stroke-width:35.95970154;stroke-linecap:butt"/></g><g transform="translate(5.968 -33.29)"><title>circle10-2</title><title>Sheet.16544</title><title>Sheet.16545</title><ellipse cx="2.335" cy="148.138" rx="2.335" ry="2.364" style="fill:#50e6ff;stroke:none;stroke-width:35.95970154;stroke-linecap:butt"/></g><g transform="translate(15.727 -3.801)"><title>Data Share Invitation.1683</title><title>Icon-integration-214</title><title>path4</title><title>Sheet.16549</title><title>Sheet.16550</title><path d="M31.85 129.4h-.04v-.08h-.07l-16.51.09-15.16-.09H0v21.18h31.81v-21.1z" style="fill:#50e6ff;stroke:none;stroke-width:63.44720078;stroke-linecap:butt"/><title>path6</title><title>Sheet.16552</title><title>Sheet.16553</title><path d="M0 129.4v21.1l15.93-10.54z" style="fill:#32bedd;stroke:none;stroke-width:63.44720078;stroke-linecap:butt"/><g transform="translate(15.924)"><title>path8</title><title>Sheet.16555</title><title>Sheet.16556</title><path d="M15.89 129.4 0 139.96l15.89 10.54Z" style="fill:#198ab3;stroke:none;stroke-width:63.44720078;stroke-linecap:butt"/></g><title>path10</title><title>Sheet.16558</title><title>Sheet.16559</title><path d="M15.89 139.96 0 150.47v.03h31.81v-.03z" style="fill:url(#b);stroke:none;stroke-width:63.44720078;stroke-linecap:butt"/></g><g transform="translate(23.2 -34.605)"><title>Sheet.16560</title><g transform="translate(3.181)"><title>Sheet.16561</title><title>Sheet.16562</title><title>Sheet.16563</title><path d="M20.21 128.41h-5.53c-.43 0-.84.18-1.13.48L.46 142.14c-.29.31-.46.71-.46 1.15v5.6c0 .9.71 1.61 1.59 1.61h5.54c.42 0 .83-.15 1.13-.46l13.09-13.27c.29-.3.46-.7.46-1.13v-5.62a1.6 1.6 0 0 0-1.6-1.61" style="fill:#28a8ea;stroke:none;stroke-width:16.1053009;stroke-linecap:butt"/></g><g transform="translate(14.079)"><title>Sheet.16564</title><title>Sheet.16565</title><title>Sheet.16566</title><path d="M9.32 150.5H3.77c-.43 0-.82-.15-1.13-.46L0 147.35v-5.02c0-1.58 1.27-2.87 2.84-2.87h4.94l2.67 2.68c.29.31.46.71.46 1.15v5.6c0 .9-.72 1.61-1.59 1.61" style="fill:#0078d4;stroke:none;stroke-width:16.1053009;stroke-linecap:butt"/></g><g transform="translate(3.181 -11.045)"><title>Sheet.16567</title><title>Sheet.16568</title><title>Sheet.16569</title><path d="M1.59 139.46h5.54c.42 0 .83.17 1.13.47l2.65 2.69v5.02a2.85 2.85 0 0 1-2.85 2.86H3.12l-2.66-2.67c-.29-.3-.46-.71-.46-1.14v-5.63c0-.89.71-1.6 1.59-1.6" style="fill:#50d9ff;stroke:none;stroke-width:16.1053009;stroke-linecap:butt"/></g><g transform="translate(3.181 -3.224)"><title>Sheet.16570</title><title>Sheet.16571</title><title>Sheet.16572</title><path d="M0 146.51v3.99h8.94c.52 0 .95-.37 1.04-.87-.27.26-.65.41-1.04.43H0Z" style="fill:#2086bb;stroke:none;stroke-width:16.1053009;stroke-linecap:butt"/></g><g transform="translate(13.156 -4.12)"><title>Sheet.16573</title><title>Sheet.16574</title><title>Sheet.16575</title><path d="M.47 142.27c-.12.2-.28.38-.44.54v7.52c0 .07-.02.12-.03.17.29-.27.47-.66.47-1.09z" style="fill:#2497d2;stroke:none;stroke-width:16.1053009;stroke-linecap:butt"/></g><g transform="translate(3.181 -11.812)"><title>Sheet.16576</title><title>Sheet.16577</title><title>Sheet.16578</title><path d="M8.94 144.37H0v.45h8.94c.57 0 1.05.48 1.05 1.07v4.61c.17-.14.32-.34.46-.53v-4.07c0-.85-.69-1.53-1.51-1.53" style="fill:#48c3e5;stroke:none;stroke-width:16.1053009;stroke-linecap:butt"/></g><g transform="translate(3.181 -3.688)"><title>Sheet.16579</title><title>Sheet.16580</title><title>Sheet.16581</title><path d="M0 146.98v3.52h8.94c.39 0 .77-.15 1.04-.42.01-.06.02-.11.02-.18v-.92c0 .58-.48 1.06-1.06 1.08H0Z" style="fill:#1d78a8;stroke:none;stroke-width:16.1053009;stroke-linecap:butt"/></g><g transform="translate(13.176 -5.216)"><title>Sheet.16582</title><title>Sheet.16583</title><title>Sheet.16584</title><path d="M0 143.91v6.59z" style="fill:#1d79a8;stroke:none;stroke-width:16.1053009;stroke-linecap:butt"/></g><g transform="translate(3.181 -4.146)"><title>Sheet.16585</title><title>Sheet.16586</title><title>Sheet.16587</title><path d="M10 142.83c-.15.13-.29.25-.47.36v6.25c0 .59-.47 1.06-1.04 1.06H0v-3.08 3.08h8.94c.58 0 1.06-.47 1.06-1.06z" style="fill:#176086;stroke:none;stroke-width:16.1053009;stroke-linecap:butt"/></g><g transform="translate(11.662 -11.469)"><title>Sheet.16588</title><title>Sheet.16589</title><title>Sheet.16590</title><path d="M.45 144.48H0c.58 0 1.05.48 1.05 1.07v4.95c.17-.1.31-.21.46-.34v-4.61c0-.59-.47-1.07-1.06-1.07" style="fill:#2e7d92;stroke:none;stroke-width:16.1053009;stroke-linecap:butt"/></g><g transform="translate(3.181 -17.5)"><title>Sheet.16591</title><title>Sheet.16592</title><title>Sheet.16593</title><path d="M8.49 150.5H0Z" style="fill:#41afce;stroke:none;stroke-width:16.1053009;stroke-linecap:butt"/></g><g transform="translate(3.181 -7.229)"><title>Sheet.16594</title><title>Sheet.16595</title><title>Sheet.16596</title><path d="M0 142.86v7.64c0-.4.17-.82.46-1.12l2.66-2.69L.46 144c-.29-.3-.46-.71-.46-1.14" style="fill:#838383;stroke:none;stroke-width:16.1053009;stroke-linecap:butt"/></g><g transform="translate(3.181 -4.146)"><title>Sheet.16597</title><title>Sheet.16598</title><title>Sheet.16599</title><path d="M9.53 143.19c-.43.26-.92.42-1.47.42H3.12l-2.66 2.68c-.29.31-.46.71-.46 1.13v3.08h8.49c.57 0 1.04-.47 1.04-1.06z" style="fill:#155678;stroke:none;stroke-width:.99999899"/><title>Sheet.16600</title><title>Sheet.16601</title><path d="M9.53 143.19c-.43.26-.92.42-1.47.42H3.12l-2.66 2.68c-.29.31-.46.71-.46 1.13v3.08h8.49c.57 0 1.04-.47 1.04-1.06z" style="fill:none;stroke:none;stroke-width:16.1053009;stroke-linecap:butt"/></g><g transform="translate(3.181 -11.052)"><title>Sheet.16602</title><title>Sheet.16603</title><title>Sheet.16604</title><path d="M8.49 144.07H0v2.62c0 .42.17.84.46 1.14l2.66 2.67h4.94c.55 0 1.05-.14 1.47-.4v-4.96c0-.59-.47-1.07-1.04-1.07" style="fill:#297083;stroke:none;stroke-width:16.1053009;stroke-linecap:butt"/></g><g transform="translate(0 -4.604)"><title>Sheet.16605</title><title>Sheet.16606</title><title>Sheet.16607</title><path d="M1.07 137.61h10.6c.57 0 1.06.49 1.06 1.09v10.74c0 .59-.48 1.06-1.06 1.06H1.07c-.59 0-1.07-.47-1.07-1.06V138.7c0-.6.48-1.09 1.07-1.09" style="fill:#0078d4;stroke:none;stroke-width:16.1053009;stroke-linecap:butt"/></g><g transform="translate(4.117 -7.558)"><title>Sheet.16608</title><title>Sheet.16609</title><title>Sheet.16610</title><path d="M4.32 144.66H1.36v1.77h2.78v1.12H1.36v1.84h3.13v1.11H0v-6.97h4.32z" style="fill:#fff;stroke:none;stroke-width:16.1053009;stroke-linecap:butt"/></g></g></g></g></svg>