<svg xmlns="http://www.w3.org/2000/svg" xmlns:xlink="http://www.w3.org/1999/xlink" xml:space="preserve" width="64.256" height="75.598" style="font-size:12px;overflow:visible;color-interpolation-filters:sRGB;fill-rule:evenodd;stroke-linecap:square;stroke-miterlimit:3" viewBox="0 0 48.192 56.699"><defs><linearGradient id="b" x1="0" x2="41.495" y1="55.203" y2="55.203" gradientTransform="scale(.76757 1.30282)" gradientUnits="userSpaceOnUse"><stop offset="0" stop-color="#949494"/><stop offset=".53" stop-color="#a2a2a2"/><stop offset="1" stop-color="#b3b3b3"/></linearGradient><linearGradient id="a" x1="0" x2="1" y1="0" y2="0" gradientTransform="rotate(-90 .5 .5)"><stop offset="0" stop-color="#d2ebff"/><stop offset="1" stop-color="#f0fffd"/></linearGradient><linearGradient id="d" x1="0" x2="18.148" y1="78.942" y2="78.942" gradientTransform="scale(.77062 1.29766)" gradientUnits="userSpaceOnUse"><stop offset="0" stop-color="#0078d4"/><stop offset=".17" stop-color="#1c84dc"/><stop offset=".38" stop-color="#3990e4"/><stop offset=".59" stop-color="#4d99ea"/><stop offset=".8" stop-color="#5a9eee"/><stop offset="1" stop-color="#5ea0ef"/></linearGradient><linearGradient xlink:href="#a" id="c" x1="0" x2="22.264" y1="129.281" y2="129.281" gradientTransform="scale(1.20284 .83137)" gradientUnits="userSpaceOnUse"/><linearGradient xlink:href="#a" id="e" x1="-.001" x2="14.657" y1="82.912" y2="82.912" gradientTransform="scale(.77447 1.2912)" gradientUnits="userSpaceOnUse"/></defs><g transform="translate(-35.96 -34.19)"><title>Page-1</title><g transform="translate(35.96 -35.102)"><title>Exchange Client Access Server.16691</title><title>Page-1</title><title>Sheet.16693</title><g transform="translate(0 -.858)"><title>Sheet.16694</title><title>Icon-databases-136.149</title><title>path4-5</title><title>Sheet.16697</title><title>Sheet.16698</title><path d="M31.85 124.14a1.881 1.876-180 0 1-1.84 1.84H1.85A1.849 1.843-180 0 1 0 124.14V73.76a1.816 1.811-180 0 1 1.85-1.84h28.16a1.849 1.843-180 0 1 1.84 1.84z" style="fill:url(#b);stroke:none;stroke-width:35.95970154;stroke-linecap:butt"/><g transform="translate(4.67 -31.66)"><title>path6-7</title><title>Sheet.16700</title><title>Sheet.16701</title><path d="M0 122.53a3.47 3.46-180 0 1 3.44-3.43h15.89a3.47 3.46-180 0 1 3.56 3.43 3.47 3.46-180 0 1-3.56 3.45H3.44A3.47 3.46-180 0 1 0 122.53m0-10.22a3.47 3.46-180 0 1 3.44-3.45h15.89a3.47 3.46-180 0 1 3.56 3.45 3.47 3.46-180 0 1-3.56 3.43H3.44A3.47 3.46-180 0 1 0 112.31" style="fill:#003067;stroke:none;stroke-width:35.95970154;stroke-linecap:butt"/></g><g transform="translate(5.968 -43.007)"><title>circle8-5</title><title>Sheet.16703</title><title>Sheet.16704</title><ellipse cx="2.335" cy="123.656" rx="2.335" ry="2.328" style="fill:#50e6ff;stroke:none;stroke-width:35.95970154;stroke-linecap:butt"/></g><g transform="translate(5.968 -32.788)"><title>circle10-2</title><title>Sheet.16706</title><title>Sheet.16707</title><ellipse cx="2.335" cy="123.656" rx="2.335" ry="2.328" style="fill:#50e6ff;stroke:none;stroke-width:35.95970154;stroke-linecap:butt"/></g></g><g transform="translate(23.2 -34.94)"><title>Sheet.16708</title><g transform="translate(3.181)"><title>Sheet.16709</title><title>Sheet.16710</title><title>Sheet.16711</title><path d="M20.21 104.23h-5.53c-.43 0-.84.17-1.13.47L.46 117.75c-.29.3-.46.69-.46 1.13v5.52c0 .88.71 1.58 1.59 1.58h5.54c.42 0 .83-.16 1.13-.45l13.09-13.07c.29-.29.46-.69.46-1.11v-5.54c0-.87-.71-1.58-1.6-1.58" style="fill:#28a8ea;stroke:none;stroke-width:16.1053009;stroke-linecap:butt"/></g><g transform="translate(14.079)"><title>Sheet.16712</title><title>Sheet.16713</title><title>Sheet.16714</title><path d="M9.32 125.98H3.77c-.43 0-.82-.16-1.13-.45L0 122.88v-4.94c0-1.56 1.27-2.83 2.84-2.83h4.94l2.67 2.64c.29.3.46.69.46 1.13v5.52c0 .88-.72 1.58-1.59 1.58" style="fill:#0078d4;stroke:none;stroke-width:16.1053009;stroke-linecap:butt"/></g><g transform="translate(3.181 -10.878)"><title>Sheet.16715</title><title>Sheet.16716</title><title>Sheet.16717</title><path d="M1.59 115.11h5.54c.42 0 .83.16 1.13.46l2.65 2.65v4.94c0 1.57-1.27 2.82-2.85 2.82H3.12l-2.66-2.63c-.29-.3-.46-.69-.46-1.13v-5.53c0-.88.71-1.58 1.59-1.58" style="fill:#50d9ff;stroke:none;stroke-width:16.1053009;stroke-linecap:butt"/></g><g transform="translate(3.181 -3.175)"><title>Sheet.16718</title><title>Sheet.16719</title><title>Sheet.16720</title><path d="M0 122.05v3.93h8.94c.52 0 .95-.37 1.04-.86-.27.26-.65.41-1.04.42H0Z" style="fill:#2086bb;stroke:none;stroke-width:16.1053009;stroke-linecap:butt"/></g><g transform="translate(13.156 -4.057)"><title>Sheet.16721</title><title>Sheet.16722</title><title>Sheet.16723</title><path d="M.47 117.88c-.12.19-.28.37-.44.52v7.41c0 .07-.02.13-.03.17.29-.26.47-.65.47-1.07z" style="fill:#2497d2;stroke:none;stroke-width:16.1053009;stroke-linecap:butt"/></g><g transform="translate(3.181 -11.633)"><title>Sheet.16724</title><title>Sheet.16725</title><title>Sheet.16726</title><path d="M8.94 119.95H0v.44h8.94c.57 0 1.05.47 1.05 1.05v4.54c.17-.14.32-.33.46-.53v-4c0-.83-.69-1.5-1.51-1.5" style="fill:#48c3e5;stroke:none;stroke-width:16.1053009;stroke-linecap:butt"/></g><g transform="translate(3.181 -3.632)"><title>Sheet.16727</title><title>Sheet.16728</title><title>Sheet.16729</title><path d="M0 122.5v3.48h8.94c.39 0 .77-.16 1.04-.42a1 1 0 0 0 .02-.17v-.9c0 .57-.48 1.04-1.06 1.05H0Z" style="fill:#1d78a8;stroke:none;stroke-width:16.1053009;stroke-linecap:butt"/></g><g transform="translate(13.176 -5.137)"><title>Sheet.16730</title><title>Sheet.16731</title><title>Sheet.16732</title><path d="M0 119.48v6.5z" style="fill:#1d79a8;stroke:none;stroke-width:16.1053009;stroke-linecap:butt"/></g><g transform="translate(3.181 -4.083)"><title>Sheet.16733</title><title>Sheet.16734</title><title>Sheet.16735</title><path d="M10 118.43c-.15.13-.29.25-.47.34v6.17c0 .58-.47 1.04-1.04 1.04H0v-3.03 3.03h8.94c.58 0 1.06-.46 1.06-1.04z" style="fill:#176086;stroke:none;stroke-width:16.1053009;stroke-linecap:butt"/></g><g transform="translate(11.662 -11.295)"><title>Sheet.16736</title><title>Sheet.16737</title><title>Sheet.16738</title><path d="M.45 120.05H0c.58 0 1.05.48 1.05 1.06v4.87c.17-.09.31-.21.46-.33v-4.54c0-.58-.47-1.06-1.06-1.06" style="fill:#2e7d92;stroke:none;stroke-width:16.1053009;stroke-linecap:butt"/></g><g transform="translate(3.181 -17.235)"><title>Sheet.16739</title><title>Sheet.16740</title><title>Sheet.16741</title><path d="M8.49 125.98H0Z" style="fill:#41afce;stroke:none;stroke-width:16.1053009;stroke-linecap:butt"/></g><g transform="translate(3.181 -7.12)"><title>Sheet.16742</title><title>Sheet.16743</title><title>Sheet.16744</title><path d="M0 118.46v7.52c0-.41.17-.81.46-1.11l2.66-2.65-2.66-2.63c-.29-.3-.46-.71-.46-1.13" style="fill:#838383;stroke:none;stroke-width:16.1053009;stroke-linecap:butt"/></g><g transform="translate(3.181 -4.083)"><title>Sheet.16745</title><title>Sheet.16746</title><title>Sheet.16747</title><path d="M9.53 118.77c-.43.27-.92.41-1.47.41H3.12l-2.66 2.66c-.29.29-.46.69-.46 1.11v3.03h8.49c.57 0 1.04-.46 1.04-1.04z" style="fill:#155678;stroke:none;stroke-width:1"/><title>Sheet.16748</title><title>Sheet.16749</title><path d="M9.53 118.77c-.43.27-.92.41-1.47.41H3.12l-2.66 2.66c-.29.29-.46.69-.46 1.11v3.03h8.49c.57 0 1.04-.46 1.04-1.04z" style="fill:none;stroke:none;stroke-width:16.1053009;stroke-linecap:butt"/></g><g transform="translate(3.181 -10.884)"><title>Sheet.16750</title><title>Sheet.16751</title><title>Sheet.16752</title><path d="M8.49 119.64H0v2.58c0 .43.17.83.46 1.13l2.66 2.63h4.94c.55 0 1.05-.14 1.47-.41v-4.87c0-.58-.47-1.06-1.04-1.06" style="fill:#297083;stroke:none;stroke-width:16.1053009;stroke-linecap:butt"/></g><g transform="translate(0 -4.534)"><title>Sheet.16753</title><title>Sheet.16754</title><title>Sheet.16755</title><path d="M1.07 113.29h10.6c.57 0 1.06.47 1.06 1.07v10.58c0 .58-.48 1.04-1.06 1.04H1.07c-.59 0-1.07-.46-1.07-1.04v-10.58c0-.6.48-1.07 1.07-1.07" style="fill:#0078d4;stroke:none;stroke-width:16.1053009;stroke-linecap:butt"/></g><g transform="translate(4.117 -7.444)"><title>Sheet.16756</title><title>Sheet.16757</title><title>Sheet.16758</title><path d="M4.32 120.22H1.36v1.75h2.78v1.11H1.36v1.81h3.13v1.09H0v-6.86h4.32z" style="fill:#fff;stroke:none;stroke-width:16.1053009;stroke-linecap:butt"/></g></g><g transform="translate(15.495)"><title>Intune Device.1900</title><title>layer1</title><g transform="translate(0 -7.46)"><title>rect25</title><title>Sheet.16762</title><path d="M0 124.89a1.099 1.09-90 0 0 1.09 1.09h28.12a1.099 1.09-90 0 0 1.08-1.09v-19.54a1.099 1.09-90 0 0-1.08-1.1H1.09a1.099 1.09-90 0 0-1.09 1.1Z" style="fill:#0078d4;stroke:none;stroke-width:30.98800087;stroke-linecap:butt"/></g><g transform="translate(1.762 -9.177)"><title>rect27</title><title>Sheet.16764</title><path d="M0 125.44a.55.545-90 0 0 .545.55l25.685-.01a.55.545-90 0 0 .545-.55l.005-17.4a.55.545-90 0 0-.545-.55H.55a.55.545-90 0 0-.545.55z" style="fill:url(#c);stroke:none;stroke-width:30.98800087;stroke-linecap:butt"/></g><g transform="translate(18.707)"><title>rect29</title><title>Sheet.16766</title><path d="M0 125.44a.55.545-90 0 0 .545.55l12.895-.01a.55.545-90 0 0 .545-.55l-.005-22.44a.55.545-90 0 0-.545-.55H.55a.55.545-90 0 0-.545.55z" style="fill:url(#d);stroke:none;stroke-width:30.98800087;stroke-linecap:butt"/></g><g transform="translate(24.101 -22.314)"><title>rect31</title><title>Sheet.16768</title><path d="M0 125.78a.201.2-90 0 0 .2.201l2.82-.001a.201.2-90 0 0 .2-.201l-.01-.039a.201.2-90 0 0-.2-.201l-2.81.001a.201.2-90 0 0-.2.201z" style="fill:#f2f2f2;stroke:none;stroke-width:30.98800087;stroke-linecap:butt"/></g><g transform="translate(20.029 -2.643)"><title>rect33</title><title>Sheet.16770</title><path d="M0 125.73a.256.254-90 0 0 .254.256l10.846-.006a.256.254-90 0 0 .254-.256l-.004-18.404a.256.254-90 0 0-.254-.256L.25 107.06a.256.254-90 0 0-.254.256z" style="fill:none;stroke:none;stroke-width:30.98800087;stroke-linecap:butt"/></g><g transform="translate(13.586 -28.084)"><title>rect35</title><title>Sheet.16772</title><path d="M0 125.78a.201.2-90 0 0 .2.201l2.82-.001a.201.2-90 0 0 .2-.201l-.01-.039a.201.2-90 0 0-.2-.201l-2.81.001a.201.2-90 0 0-.2.201z" style="fill:#f2f2f2;stroke:none;stroke-width:30.98800087;stroke-linecap:butt"/></g><g transform="translate(24.919 -.515)"><title>rect37</title><title>Sheet.16774</title><path d="M0 125.62a.366.363-90 0 0 .363.366l.837-.006a.366.363-90 0 0 .363-.366l.007-.604a.366.363-90 0 0-.363-.366l-.837.006a.366.363-90 0 0-.363.366z" style="fill:#f2f2f2;stroke:none;stroke-width:30.98800087;stroke-linecap:butt"/></g><g transform="translate(20.032 -2.638)"><title>rect30</title><title>Sheet.16776</title><path d="M0 125.72a.263.261-90 0 0 .261.263l10.829-.003a.263.261-90 0 0 .261-.263l-.001-18.397a.263.261-90 0 0-.261-.263L.26 107.06a.263.261-90 0 0-.261.263z" style="fill:url(#e);stroke:none;stroke-width:23.45100021;stroke-linecap:butt"/></g></g></g></g></svg>