<svg xmlns="http://www.w3.org/2000/svg" xmlns:xlink="http://www.w3.org/1999/xlink" xml:space="preserve" width="64.253" height="75.588" style="font-size:12px;overflow:visible;color-interpolation-filters:sRGB;fill-rule:evenodd;stroke-linecap:square;stroke-miterlimit:3" viewBox="0 0 48.19 56.691"><defs><linearGradient id="b" x1="0" x2="41.064" y1="69.675" y2="69.675" gradientTransform="scale(.77246 1.29457)" gradientUnits="userSpaceOnUse"><stop offset="0" stop-color="#949494"/><stop offset=".53" stop-color="#a2a2a2"/><stop offset="1" stop-color="#b3b3b3"/></linearGradient><linearGradient id="c" x1="0" x2="31.558" y1="113.263" y2="113.263" gradientTransform="scale(1.0102 .98991)" gradientUnits="userSpaceOnUse"><stop offset="0" stop-color="#0879e2"/><stop offset=".325" stop-color="#0a7de4"/><stop offset=".62" stop-color="#1088eb"/><stop offset=".91" stop-color="#199af6"/><stop offset="1" stop-color="#1da2fa"/></linearGradient><linearGradient id="a" x1="0" x2="1" y1="0" y2="0" gradientTransform="rotate(90 .5 .5)"><stop offset="0" stop-color="#005ba1"/><stop offset=".26" stop-color="#00589d"/><stop offset=".53" stop-color="#004f90"/><stop offset=".8" stop-color="#003f7c"/><stop offset="1" stop-color="#003067"/></linearGradient><linearGradient xlink:href="#a" id="d" x1="0" x2="11.886" y1="191.773" y2="191.773" gradientTransform="scale(1.42058 .70394)" gradientUnits="userSpaceOnUse"/><linearGradient xlink:href="#a" id="e" x1="0" x2="11.886" y1="191.773" y2="191.773" gradientTransform="scale(1.42058 .70394)" gradientUnits="userSpaceOnUse"/></defs><g transform="translate(-42.863 -34.723)"><title>Page-1</title><g transform="translate(42.863 -51.946)"><title>Exchange Edge Transport Server.16611</title><title>Page-1</title><title>Sheet.16613</title><g transform="translate(0 -2.29)"><title>Sheet.16614</title><title>Icon-databases-136.149</title><title>path4-5</title><title>Sheet.16617</title><title>Sheet.16618</title><path d="M31.72 141.55a1.874 1.845-180 0 1-1.84 1.81H1.84A1.841 1.813-180 0 1 0 141.55V92a1.809 1.78-180 0 1 1.84-1.8h28.04a1.841 1.813-180 0 1 1.84 1.8z" style="fill:url(#b);stroke:none;stroke-width:35.95970154;stroke-linecap:butt"/><g transform="translate(4.652 -31.134)"><title>path6-7</title><title>Sheet.16620</title><title>Sheet.16621</title><path d="M0 139.97a3.456 3.403-180 0 1 3.43-3.38h15.82a3.456 3.403-180 0 1 3.55 3.38 3.456 3.403-180 0 1-3.55 3.39H3.43A3.456 3.403-180 0 1 0 139.97m0-10.06a3.456 3.403-180 0 1 3.43-3.4h15.82a3.456 3.403-180 0 1 3.55 3.4 3.456 3.403-180 0 1-3.55 3.38H3.43A3.456 3.403-180 0 1 0 129.91" style="fill:#003067;stroke:none;stroke-width:35.95970154;stroke-linecap:butt"/></g><g transform="translate(5.944 -42.295)"><title>circle8-5</title><title>Sheet.16623</title><title>Sheet.16624</title><ellipse cx="2.326" cy="141.074" rx="2.326" ry="2.29" style="fill:#50e6ff;stroke:none;stroke-width:35.95970154;stroke-linecap:butt"/></g><g transform="translate(5.944 -32.246)"><title>circle10-2</title><title>Sheet.16626</title><title>Sheet.16627</title><ellipse cx="2.326" cy="141.074" rx="2.326" ry="2.29" style="fill:#50e6ff;stroke:none;stroke-width:35.95970154;stroke-linecap:butt"/></g></g><g transform="translate(15.704)"><title>Sheet.16628</title><title>Sheet.16629</title><title>g8</title><title>path6</title><title>Sheet.16632</title><path d="M15.94 112.12C7.07 112.12 0 119.25 0 127.75c0 8.68 7.27 15.61 15.94 15.61s15.94-7.11 15.94-15.61-7.08-15.63-15.94-15.63m0 2.07c7.66 0 13.84 6.06 13.84 13.56 0 7.49-6.25 13.55-13.84 13.55-7.58 0-13.83-6.12-13.83-13.55 0-7.44 6.18-13.56 13.83-13.56" style="fill:url(#c);stroke:none;stroke-width:34;stroke-linecap:butt"/><g transform="translate(1.37 -1.344)"><title>Sheet.16633</title><title>Sheet.16634</title><ellipse cx="14.57" cy="129.088" rx="14.57" ry="14.275" style="fill:#fff;stroke:none;stroke-width:.75000101;stroke-linecap:round;stroke-linejoin:round"/></g><g transform="translate(4.88 -11.52)"><title>Sheet.16635</title><g transform="translate(5.268 -.003)"><title>path33</title><g transform="matrix(1 0 0 -1 0 278.377)"><title>Sheet.16637</title><path d="m16.71 138.93-4.82-3.88a.258.208 0 0 0-.43.174v2.356a.258.208-180 0 1-.258.208L0 137.78v2.88h11.2a.258.208-180 0 1 .258.208l.002 2.402a.258.208 0 0 0 .43 0l4.82-3.71a.517.417 0 0 0 0-.625z" style="fill:url(#d);stroke:none;stroke-width:63.44739914;stroke-linecap:butt"/></g></g><title>path33.668</title><g transform="matrix(-1 0 0 1 16.888 0)"><title>Sheet.16639</title><path d="m16.71 138.93-4.82-3.88a.258.208 0 0 0-.43.174v2.356a.258.208-180 0 1-.258.208L0 137.78v2.88h11.2a.258.208-180 0 1 .258.208l.002 2.402a.258.208 0 0 0 .43 0l4.82-3.71a.517.417 0 0 0 0-.625z" style="fill:url(#e);stroke:none;stroke-width:63.44739914;stroke-linecap:butt"/></g></g></g><g transform="translate(23.301 -35.291)"><title>Sheet.16640</title><g transform="translate(3.168)"><title>Sheet.16641</title><title>Sheet.16642</title><title>Sheet.16643</title><path d="M20.13 121.96h-5.51c-.42 0-.84.17-1.12.47L.46 135.26c-.29.29-.46.68-.46 1.11v5.44c0 .86.71 1.55 1.58 1.55H7.1c.42 0 .83-.16 1.12-.45l13.04-12.85c.3-.29.46-.68.46-1.09v-5.45c0-.86-.71-1.56-1.59-1.56" style="fill:#28a8ea;stroke:none;stroke-width:16.1053009;stroke-linecap:butt"/></g><g transform="translate(14.022)"><title>Sheet.16644</title><title>Sheet.16645</title><title>Sheet.16646</title><path d="M9.29 143.36H3.75c-.42 0-.81-.16-1.12-.45L0 140.31v-4.86c0-1.54 1.26-2.78 2.83-2.78h4.92l2.65 2.59c.29.29.46.68.46 1.11v5.44c0 .86-.71 1.55-1.57 1.55" style="fill:#0078d4;stroke:none;stroke-width:16.1053009;stroke-linecap:butt"/></g><g transform="translate(3.168 -10.697)"><title>Sheet.16647</title><title>Sheet.16648</title><title>Sheet.16649</title><path d="M1.58 132.67H7.1c.42 0 .83.16 1.12.45l2.64 2.61v4.86c0 1.53-1.26 2.77-2.83 2.77H3.11l-2.65-2.59c-.29-.3-.46-.68-.46-1.11v-5.44c0-.87.71-1.55 1.58-1.55" style="fill:#50d9ff;stroke:none;stroke-width:16.1053009;stroke-linecap:butt"/></g><g transform="translate(3.168 -3.122)"><title>Sheet.16650</title><title>Sheet.16651</title><title>Sheet.16652</title><path d="M0 139.49v3.87h8.9c.52 0 .95-.36 1.04-.85-.27.25-.65.4-1.04.41H0Z" style="fill:#2086bb;stroke:none;stroke-width:16.1053009;stroke-linecap:butt"/></g><g transform="translate(13.103 -3.99)"><title>Sheet.16653</title><title>Sheet.16654</title><title>Sheet.16655</title><path d="M.47 135.38c-.13.2-.28.37-.44.53v7.28c0 .06-.02.13-.03.17.29-.27.47-.64.47-1.06z" style="fill:#2497d2;stroke:none;stroke-width:16.1053009;stroke-linecap:butt"/></g><g transform="translate(3.168 -11.44)"><title>Sheet.16656</title><title>Sheet.16657</title><title>Sheet.16658</title><path d="M8.9 137.42H0v.44h8.9c.58 0 1.05.46 1.05 1.03v4.47c.17-.15.32-.32.45-.52v-3.93c0-.84-.67-1.49-1.5-1.49" style="fill:#48c3e5;stroke:none;stroke-width:16.1053009;stroke-linecap:butt"/></g><g transform="translate(3.168 -3.572)"><title>Sheet.16659</title><title>Sheet.16660</title><title>Sheet.16661</title><path d="M0 139.94v3.42h8.9c.39 0 .77-.16 1.04-.41.01-.06.02-.11.02-.17v-.89c0 .56-.47 1.02-1.06 1.03H0Z" style="fill:#1d78a8;stroke:none;stroke-width:16.1053009;stroke-linecap:butt"/></g><g transform="translate(13.123 -5.052)"><title>Sheet.16662</title><title>Sheet.16663</title><title>Sheet.16664</title><path d="M0 136.97v6.39z" style="fill:#1d79a8;stroke:none;stroke-width:16.1053009;stroke-linecap:butt"/></g><g transform="translate(3.168 -4.015)"><title>Sheet.16665</title><title>Sheet.16666</title><title>Sheet.16667</title><path d="M9.96 135.94c-.15.12-.29.24-.46.33v6.06c0 .57-.47 1.03-1.05 1.03H0v-2.98 2.98h8.9c.59 0 1.06-.46 1.06-1.03z" style="fill:#176086;stroke:none;stroke-width:16.1053009;stroke-linecap:butt"/></g><g transform="translate(11.615 -11.107)"><title>Sheet.16668</title><title>Sheet.16669</title><title>Sheet.16670</title><path d="M.45 137.53H0c.57 0 1.04.46 1.04 1.03v4.8c.18-.09.32-.2.46-.32v-4.48c0-.57-.47-1.03-1.05-1.03" style="fill:#2e7d92;stroke:none;stroke-width:16.1053009;stroke-linecap:butt"/></g><g transform="translate(3.168 -16.948)"><title>Sheet.16671</title><title>Sheet.16672</title><title>Sheet.16673</title><path d="M8.45 143.36H0Z" style="fill:#41afce;stroke:none;stroke-width:16.1053009;stroke-linecap:butt"/></g><g transform="translate(3.168 -7)"><title>Sheet.16674</title><title>Sheet.16675</title><title>Sheet.16676</title><path d="M0 135.95v7.41c0-.4.17-.8.46-1.09l2.65-2.61-2.65-2.59c-.29-.3-.46-.7-.46-1.12" style="fill:#838383;stroke:none;stroke-width:16.1053009;stroke-linecap:butt"/></g><g transform="translate(3.168 -4.015)"><title>Sheet.16677</title><title>Sheet.16678</title><title>Sheet.16679</title><path d="M9.5 136.27c-.44.26-.92.41-1.47.41H3.11l-2.65 2.6c-.29.29-.46.69-.46 1.1v2.98h8.45c.58 0 1.05-.46 1.05-1.03z" style="fill:#155678;stroke:none;stroke-width:1"/><title>Sheet.16680</title><title>Sheet.16681</title><path d="M9.5 136.27c-.44.26-.92.41-1.47.41H3.11l-2.65 2.6c-.29.29-.46.69-.46 1.1v2.98h8.45c.58 0 1.05-.46 1.05-1.03z" style="fill:none;stroke:none;stroke-width:16.1053009;stroke-linecap:butt"/></g><g transform="translate(3.168 -10.703)"><title>Sheet.16682</title><title>Sheet.16683</title><title>Sheet.16684</title><path d="M8.45 137.13H0v2.53c0 .41.17.81.46 1.11l2.65 2.59h4.92c.55 0 1.04-.15 1.47-.4v-4.8c0-.57-.47-1.03-1.05-1.03" style="fill:#297083;stroke:none;stroke-width:16.1053009;stroke-linecap:butt"/></g><g transform="translate(0 -4.459)"><title>Sheet.16685</title><title>Sheet.16686</title><title>Sheet.16687</title><path d="M1.06 130.88h10.56c.57 0 1.06.46 1.06 1.04v10.41c0 .57-.48 1.03-1.06 1.03H1.06c-.58 0-1.06-.46-1.06-1.03v-10.41c0-.58.48-1.04 1.06-1.04" style="fill:#0078d4;stroke:none;stroke-width:16.1053009;stroke-linecap:butt"/></g><g transform="translate(4.1 -7.32)"><title>Sheet.16688</title><title>Sheet.16689</title><title>Sheet.16690</title><path d="M4.31 137.7H1.35v1.72h2.78v1.08H1.35v1.78h3.12v1.08H0v-6.76h4.31z" style="fill:#fff;stroke:none;stroke-width:16.1053009;stroke-linecap:butt"/></g></g></g></g></svg>