<svg xmlns="http://www.w3.org/2000/svg" xmlns:xlink="http://www.w3.org/1999/xlink" xml:space="preserve" width="64.256" height="75.598" style="font-size:12px;overflow:visible;color-interpolation-filters:sRGB;fill-rule:evenodd;stroke-linecap:square;stroke-miterlimit:3" viewBox="0 0 48.192 56.699"><defs><linearGradient id="b" x1="0" x2="41.816" y1="74.324" y2="74.324" gradientTransform="scale(.76167 1.3129)" gradientUnits="userSpaceOnUse"><stop offset="0" stop-color="#949494"/><stop offset=".53" stop-color="#a2a2a2"/><stop offset="1" stop-color="#b3b3b3"/></linearGradient><linearGradient id="a" x1="0" x2="1" y1="0" y2="0" gradientTransform="rotate(90 .5 .5)"><stop offset="0" stop-color="#005ba1"/><stop offset=".26" stop-color="#00589d"/><stop offset=".53" stop-color="#004f90"/><stop offset=".8" stop-color="#003f7c"/><stop offset="1" stop-color="#003067"/></linearGradient><linearGradient xlink:href="#a" id="c" x1="0" x2="2.26" y1="148.934" y2="148.934" gradientTransform="scale(.99157 1.0085)" gradientUnits="userSpaceOnUse"/><linearGradient xlink:href="#a" id="d" x1="0" x2="14.27" y1="239.62" y2="239.62" gradientTransform="scale(1.66507 .60057)" gradientUnits="userSpaceOnUse"/><linearGradient xlink:href="#a" id="e" x1="0" x2="14.27" y1="239.62" y2="239.62" gradientTransform="scale(1.66507 .60057)" gradientUnits="userSpaceOnUse"/><linearGradient xlink:href="#a" id="f" x1="0" x2="14.27" y1="239.62" y2="239.62" gradientTransform="scale(1.66507 .60057)" gradientUnits="userSpaceOnUse"/><linearGradient xlink:href="#a" id="g" x1="0" x2="9.867" y1="83.469" y2="83.469" gradientTransform="scale(.61212 1.63367)" gradientUnits="userSpaceOnUse"/><linearGradient xlink:href="#a" id="h" x1="0" x2="2.82" y1="148.047" y2="148.047" gradientTransform="scale(.98942 1.0107)" gradientUnits="userSpaceOnUse"/><linearGradient xlink:href="#a" id="i" x1="0" x2="16.403" y1="234.104" y2="234.104" gradientTransform="scale(1.64289 .60868)" gradientUnits="userSpaceOnUse"/></defs><g transform="translate(-48.224 -34.158)"><title>Page-1</title><g transform="translate(48.224 -61.623)"><title>Exchange Mailbox Server.16404</title><title>Page-1</title><title>Sheet.16406</title><title>Sheet.16407</title><title>Icon-databases-136.149</title><title>path4-5</title><title>Sheet.16410</title><title>Sheet.16411</title><path d="M31.85 150.61a1.904 1.881 90 0 1-1.84 1.87H1.85A1.871 1.849 90 0 1 0 150.61V99.45a1.839 1.816 90 0 1 1.85-1.87h28.16a1.871 1.849 90 0 1 1.84 1.87z" style="fill:url(#b);stroke:none;stroke-width:35.95959854;stroke-linecap:butt"/><g transform="translate(4.67 -32.141)"><title>path6-7</title><title>Sheet.16413</title><title>Sheet.16414</title><path d="M0 148.96a3.513 3.47 90 0 1 3.44-3.48h15.89a3.513 3.47 90 0 1 3.56 3.48 3.513 3.47 90 0 1-3.56 3.52H3.44A3.513 3.47 90 0 1 0 148.96m0-10.37a3.513 3.47 90 0 1 3.44-3.51h15.89a3.513 3.47 90 0 1 3.56 3.51 3.513 3.47 90 0 1-3.56 3.48H3.44A3.513 3.47 90 0 1 0 138.59" style="fill:#003067;stroke:none;stroke-width:35.95959854;stroke-linecap:butt"/></g><g transform="translate(5.968 -43.667)"><title>circle8-5</title><title>Sheet.16416</title><title>Sheet.16417</title><ellipse cx="2.335" cy="150.115" rx="2.335" ry="2.364" style="fill:#50e6ff;stroke:none;stroke-width:35.95959854;stroke-linecap:butt"/></g><g transform="translate(5.968 -33.293)"><title>circle10-2</title><title>Sheet.16419</title><title>Sheet.16420</title><ellipse cx="2.335" cy="150.115" rx="2.335" ry="2.364" style="fill:#50e6ff;stroke:none;stroke-width:35.95959854;stroke-linecap:butt"/></g><g transform="translate(23.2 -34.599)"><title>Sheet.16421</title><g transform="translate(3.181)"><title>Sheet.16422</title><title>Sheet.16423</title><title>Sheet.16424</title><path d="M20.21 130.38h-5.53c-.43 0-.84.18-1.13.48L.46 144.11c-.29.3-.46.71-.46 1.15v5.6c0 .9.71 1.62 1.59 1.62h5.54c.42 0 .83-.17 1.13-.47l13.09-13.27c.29-.3.46-.7.46-1.12v-5.63a1.6 1.6 0 0 0-1.6-1.61" style="fill:#28a8ea;stroke:none;stroke-width:16.1053009;stroke-linecap:butt"/></g><g transform="translate(14.079)"><title>Sheet.16425</title><title>Sheet.16426</title><title>Sheet.16427</title><path d="M9.32 152.48H3.77c-.43 0-.82-.17-1.13-.47L0 149.32v-5.02c0-1.58 1.27-2.87 2.84-2.87h4.94l2.67 2.68c.29.3.46.71.46 1.15v5.6c0 .9-.72 1.62-1.59 1.62" style="fill:#0078d4;stroke:none;stroke-width:16.1053009;stroke-linecap:butt"/></g><g transform="translate(3.181 -11.043)"><title>Sheet.16428</title><title>Sheet.16429</title><title>Sheet.16430</title><path d="M1.59 141.43h5.54c.42 0 .83.17 1.13.47l2.65 2.69v5.01c0 1.59-1.27 2.88-2.85 2.88H3.12L.46 149.8c-.29-.3-.46-.71-.46-1.15v-5.62c0-.89.71-1.6 1.59-1.6" style="fill:#50d9ff;stroke:none;stroke-width:16.1053009;stroke-linecap:butt"/></g><g transform="translate(3.181 -3.223)"><title>Sheet.16431</title><title>Sheet.16432</title><title>Sheet.16433</title><path d="M0 148.48v4h8.94c.52 0 .95-.38 1.04-.88-.27.26-.65.41-1.04.42H0Z" style="fill:#2086bb;stroke:none;stroke-width:16.1053009;stroke-linecap:butt"/></g><g transform="translate(13.156 -4.118)"><title>Sheet.16434</title><title>Sheet.16435</title><title>Sheet.16436</title><path d="M.47 144.24c-.12.2-.28.38-.44.54v7.51c0 .07-.02.13-.03.19.29-.28.47-.67.47-1.1z" style="fill:#2497d2;stroke:none;stroke-width:16.1053009;stroke-linecap:butt"/></g><g transform="translate(3.181 -11.81)"><title>Sheet.16437</title><title>Sheet.16438</title><title>Sheet.16439</title><path d="M8.94 146.34H0v.46h8.94c.57 0 1.05.47 1.05 1.06v4.62c.17-.16.32-.34.46-.54v-4.07c0-.85-.69-1.53-1.51-1.53" style="fill:#48c3e5;stroke:none;stroke-width:16.1053009;stroke-linecap:butt"/></g><g transform="translate(3.181 -3.688)"><title>Sheet.16440</title><title>Sheet.16441</title><title>Sheet.16442</title><path d="M0 148.94v3.54h8.94c.39 0 .77-.17 1.04-.44.01-.06.02-.1.02-.17v-.92c0 .58-.48 1.06-1.06 1.07H0Z" style="fill:#1d78a8;stroke:none;stroke-width:16.1053009;stroke-linecap:butt"/></g><g transform="translate(13.176 -5.215)"><title>Sheet.16443</title><title>Sheet.16444</title><title>Sheet.16445</title><path d="M0 145.88v6.6z" style="fill:#1d79a8;stroke:none;stroke-width:16.1053009;stroke-linecap:butt"/></g><g transform="translate(3.181 -4.145)"><title>Sheet.16446</title><title>Sheet.16447</title><title>Sheet.16448</title><path d="M10 144.8c-.15.13-.29.25-.47.36v6.24c0 .59-.47 1.08-1.04 1.08H0v-3.09 3.09h8.94c.58 0 1.06-.49 1.06-1.08z" style="fill:#176086;stroke:none;stroke-width:16.1053009;stroke-linecap:butt"/></g><g transform="translate(11.662 -11.467)"><title>Sheet.16449</title><title>Sheet.16450</title><title>Sheet.16451</title><path d="M.45 146.46H0c.58 0 1.05.47 1.05 1.06v4.96c.17-.11.31-.21.46-.34v-4.62c0-.59-.47-1.06-1.06-1.06" style="fill:#2e7d92;stroke:none;stroke-width:16.1053009;stroke-linecap:butt"/></g><g transform="translate(3.181 -17.496)"><title>Sheet.16452</title><title>Sheet.16453</title><title>Sheet.16454</title><path d="M8.49 152.48H0Z" style="fill:#41afce;stroke:none;stroke-width:16.1053009;stroke-linecap:butt"/></g><g transform="translate(3.181 -7.227)"><title>Sheet.16455</title><title>Sheet.16456</title><title>Sheet.16457</title><path d="M0 144.83v7.65c0-.42.17-.83.46-1.13l2.66-2.7-2.66-2.68c-.29-.3-.46-.71-.46-1.14" style="fill:#838383;stroke:none;stroke-width:16.1053009;stroke-linecap:butt"/></g><g transform="translate(3.181 -4.145)"><title>Sheet.16458</title><title>Sheet.16459</title><title>Sheet.16460</title><path d="M9.53 145.16c-.43.26-.92.42-1.47.42H3.12l-2.66 2.69c-.29.3-.46.69-.46 1.12v3.09h8.49c.57 0 1.04-.49 1.04-1.08z" style="fill:#155678;stroke:none;stroke-width:.99999797"/><title>Sheet.16461</title><title>Sheet.16462</title><path d="M9.53 145.16c-.43.26-.92.42-1.47.42H3.12l-2.66 2.69c-.29.3-.46.69-.46 1.12v3.09h8.49c.57 0 1.04-.49 1.04-1.08z" style="fill:none;stroke:none;stroke-width:16.1053009;stroke-linecap:butt"/></g><g transform="translate(3.181 -11.05)"><title>Sheet.16463</title><title>Sheet.16464</title><title>Sheet.16465</title><path d="M8.49 146.04H0v2.61c0 .43.17.85.46 1.15l2.66 2.68h4.94c.55 0 1.05-.16 1.47-.42v-4.95c0-.6-.47-1.07-1.04-1.07" style="fill:#297083;stroke:none;stroke-width:16.1053009;stroke-linecap:butt"/></g><g transform="translate(0 -4.603)"><title>Sheet.16466</title><title>Sheet.16467</title><title>Sheet.16468</title><path d="M1.07 139.58h10.6c.57 0 1.06.49 1.06 1.09v10.73c0 .59-.48 1.08-1.06 1.08H1.07c-.59 0-1.07-.49-1.07-1.08v-10.73c0-.6.48-1.09 1.07-1.09" style="fill:#0078d4;stroke:none;stroke-width:16.1053009;stroke-linecap:butt"/></g><g transform="translate(4.117 -7.557)"><title>Sheet.16469</title><title>Sheet.16470</title><title>Sheet.16471</title><path d="M4.32 146.63H1.36v1.77h2.78v1.12H1.36v1.84h3.13v1.12H0v-6.98h4.32z" style="fill:#fff;stroke:none;stroke-width:16.1053009;stroke-linecap:butt"/></g></g><g transform="translate(15.223 -1.824)"><title>Sheet.16472</title><g transform="translate(30.724 -13.84)"><title>Sheet.16473</title><g transform="matrix(1 0 0 -1 0 302.678)"><title>Sheet.16474</title><path d="M0 150.2h2.241v2.279H0z" style="fill:url(#c);stroke:none;stroke-width:63.44710159;stroke-linecap:butt"/></g></g><g transform="translate(7.78 -6.263)"><title>Sheet.16475</title><title>Sheet.16476</title><title>Sheet.16477</title><path d="M0 134.609h24.515v17.869H0z" style="fill:#000;stroke:none;stroke-width:.74999797;stroke-linecap:round;stroke-linejoin:round"/><g transform="translate(.364 -.333)"><title>Icon-integration-214</title><title>path4</title><title>Sheet.16480</title><title>Sheet.16481</title><path d="M23.79 135.34h-.03v-.06h-.05l-12.33.07-11.33-.07H0v17.2h23.76v-17.14z" style="fill:#50e6ff;stroke:none;stroke-width:63.44710159;stroke-linecap:butt"/><title>path6</title><title>Sheet.16483</title><title>Sheet.16484</title><path d="M0 135.34v17.14l11.9-8.57z" style="fill:#32bedd;stroke:none;stroke-width:63.44710159;stroke-linecap:butt"/><g transform="translate(11.894)"><title>path8</title><title>Sheet.16486</title><title>Sheet.16487</title><path d="M11.86 135.34 0 143.91l11.86 8.57z" style="fill:#198ab3;stroke:none;stroke-width:63.44710159;stroke-linecap:butt"/></g><title>path10</title><title>Sheet.16489</title><title>Sheet.16490</title><path d="M11.86 143.91 0 152.45v.03h23.76v-.03z" style="fill:url(#d);stroke:none;stroke-width:63.44710159;stroke-linecap:butt"/></g></g><g transform="translate(5.421 -4.852)"><title>Sheet.16491</title><title>Sheet.16492</title><title>Sheet.16493</title><path d="M0 134.609h24.515v17.869H0z" style="fill:#000;stroke:none;stroke-width:.74999797;stroke-linecap:round;stroke-linejoin:round"/><g transform="translate(.364 -.333)"><title>Icon-integration-214</title><title>path4</title><title>Sheet.16496</title><title>Sheet.16497</title><path d="M23.79 135.34h-.03v-.06h-.05l-12.33.07-11.33-.07H0v17.2h23.76v-17.14z" style="fill:#50e6ff;stroke:none;stroke-width:63.44710159;stroke-linecap:butt"/><title>path6</title><title>Sheet.16499</title><title>Sheet.16500</title><path d="M0 135.34v17.14l11.9-8.57z" style="fill:#32bedd;stroke:none;stroke-width:63.44710159;stroke-linecap:butt"/><g transform="translate(11.894)"><title>path8</title><title>Sheet.16502</title><title>Sheet.16503</title><path d="M11.86 135.34 0 143.91l11.86 8.57z" style="fill:#198ab3;stroke:none;stroke-width:63.44710159;stroke-linecap:butt"/></g><title>path10</title><title>Sheet.16505</title><title>Sheet.16506</title><path d="M11.86 143.91 0 152.45v.03h23.76v-.03z" style="fill:url(#e);stroke:none;stroke-width:63.44710159;stroke-linecap:butt"/></g></g><g transform="translate(2.824 -3.224)"><title>Sheet.16507</title><title>Sheet.16508</title><title>Sheet.16509</title><path d="M0 134.609h24.515v17.869H0z" style="fill:#000;stroke:none;stroke-width:.74999797;stroke-linecap:round;stroke-linejoin:round"/><g transform="translate(.364 -.333)"><title>Icon-integration-214</title><title>path4</title><title>Sheet.16512</title><title>Sheet.16513</title><path d="M23.79 135.34h-.03v-.06h-.05l-12.33.07-11.33-.07H0v17.2h23.76v-17.14z" style="fill:#50e6ff;stroke:none;stroke-width:63.44710159;stroke-linecap:butt"/><title>path6</title><title>Sheet.16515</title><title>Sheet.16516</title><path d="M0 135.34v17.14l11.9-8.57z" style="fill:#32bedd;stroke:none;stroke-width:63.44710159;stroke-linecap:butt"/><g transform="translate(11.894)"><title>path8</title><title>Sheet.16518</title><title>Sheet.16519</title><path d="M11.86 135.34 0 143.91l11.86 8.57z" style="fill:#198ab3;stroke:none;stroke-width:63.44710159;stroke-linecap:butt"/></g><title>path10</title><title>Sheet.16521</title><title>Sheet.16522</title><path d="M11.86 143.91 0 152.45v.03h23.76v-.03z" style="fill:url(#f);stroke:none;stroke-width:63.44710159;stroke-linecap:butt"/></g></g><g transform="translate(26.924)"><title>Sheet.16523</title><title>Sheet.16524</title><path d="M0 152.48v-9.95l6.04-6.17v9.95z" style="fill:url(#g);stroke:none;stroke-width:63.44710159;stroke-linecap:butt"/></g><g transform="translate(.013 -9.973)"><title>Sheet.16525</title><title>Sheet.16526</title><path d="m0 152.48 2.79-2.85v2.85z" style="fill:url(#h);stroke:none;stroke-width:63.44710159;stroke-linecap:butt"/></g><g transform="translate(0 -.004)"><title>Sheet.16527</title><title>Sheet.16528</title><path d="M0 142.495h26.948v9.984H0z" style="fill:url(#i);stroke:none;stroke-width:63.44710159;stroke-linecap:butt"/></g></g></g></g></svg>