<svg xmlns="http://www.w3.org/2000/svg" xml:space="preserve" width="68.027" height="75.597" style="font-size:12px;overflow:visible;color-interpolation-filters:sRGB;fill-rule:evenodd;stroke-linecap:square;stroke-miterlimit:3" viewBox="0 0 51.02 56.698"><defs><linearGradient id="a" x1="0" x2="43.534" y1="55.475" y2="55.475" gradientTransform="scale(.77134 1.29644)" gradientUnits="userSpaceOnUse"><stop offset="0" stop-color="#949494"/><stop offset=".53" stop-color="#a2a2a2"/><stop offset="1" stop-color="#b3b3b3"/></linearGradient><linearGradient id="b" x1="-.002" x2="29.699" y1="122.187" y2="122.187" gradientTransform="scale(1.18322 .84515)" gradientUnits="userSpaceOnUse"><stop offset="0" stop-color="#32d4f5"/><stop offset=".23" stop-color="#31d0f1"/><stop offset=".46" stop-color="#2cc3e6"/><stop offset=".7" stop-color="#25afd4"/><stop offset=".94" stop-color="#1c92ba"/><stop offset="1" stop-color="#198ab3"/></linearGradient></defs><g transform="translate(-35.96 -35.96)"><title>Page-1</title><g transform="translate(35.96 -35.71)"><title>File Server.16380</title><title>Page-1</title><title>Sheet.16382</title><g transform="translate(0 -.25)"><title>Sheet.16383</title><title>Icon-databases-136.149</title><title>path4-5</title><title>Sheet.16386</title><title>Sheet.16387</title><path d="M33.58 126.44a1.983 1.958-180 0 1-1.94 1.92H1.95A1.95 1.924-180 0 1 0 126.44v-52.6a1.915 1.89-180 0 1 1.95-1.92h29.69a1.95 1.924-180 0 1 1.94 1.92z" style="fill:url(#a);stroke:none;stroke-width:35.95970154;stroke-linecap:butt"/><g transform="translate(4.924 -33.053)"><title>path6-7</title><title>Sheet.16389</title><title>Sheet.16390</title><path d="M0 124.76a3.66 3.613-180 0 1 3.63-3.59h16.75a3.66 3.613-180 0 1 3.76 3.59 3.66 3.613-180 0 1-3.76 3.6H3.63a3.66 3.613-180 0 1-3.63-3.6m0-10.67a3.66 3.613-180 0 1 3.63-3.61h16.75a3.66 3.613-180 0 1 3.76 3.61 3.66 3.613-180 0 1-3.76 3.58H3.63A3.66 3.613-180 0 1 0 114.09" style="fill:#003067;stroke:none;stroke-width:35.95970154;stroke-linecap:butt"/></g><g transform="translate(6.292 -44.899)"><title>circle8-5</title><title>Sheet.16392</title><title>Sheet.16393</title><ellipse cx="2.462" cy="125.932" rx="2.462" ry="2.431" style="fill:#50e6ff;stroke:none;stroke-width:35.95970154;stroke-linecap:butt"/></g><g transform="translate(6.292 -34.23)"><title>circle10-2</title><title>Sheet.16395</title><title>Sheet.16396</title><ellipse cx="2.462" cy="125.932" rx="2.462" ry="2.431" style="fill:#50e6ff;stroke:none;stroke-width:35.95970154;stroke-linecap:butt"/></g></g><g transform="translate(15.88)"><title>Sheet.16397</title><g transform="translate(5.618 -21.605)"><title>path10</title><title>Sheet.16399</title><path d="m23.13 124.1-19.24-2.73h-.38a2.782 2.73 0 0 0-2.79 2.38L0 128.36h25.43v-1.11a2.782 2.73 0 0 0-2.3-3.15" style="fill:#0078d4;stroke:none;stroke-width:34;stroke-linecap:butt"/></g><g transform="translate(6.8 -21.7)"><title>path12</title><title>Sheet.16401</title><path d="M21.71 125.28 2.5 122.55h-.25a1.614 1.584 0 0 0-1.58 1.36L0 128.36h22.87l.19-1.28a1.614 1.584 0 0 0-1.35-1.8" style="fill:#fff;stroke:none;stroke-width:34;stroke-linecap:butt"/></g><title>path14.2825</title><title>Sheet.16403</title><path d="M.72 103.27h16.83a.918.901-180 0 1 .584.246l2.796 2.724a.807.792 0 0 0 .584.246l12.786-.006a.835.82-180 0 1 .835.792l.005 20.298a.835.82-180 0 1-.835.792L.92 128.36a.807.792-180 0 1-.918-.792L0 104.14a.835.82-180 0 1 .723-.874z" style="fill:url(#b);stroke:none;stroke-width:34;stroke-linecap:butt"/></g></g></g></svg>