<svg xmlns="http://www.w3.org/2000/svg" xml:space="preserve" width="68.026" height="75.586" style="font-size:12px;overflow:visible;color-interpolation-filters:sRGB;fill-rule:evenodd;stroke-linecap:square;stroke-miterlimit:3" viewBox="0 0 51.019 56.69"><defs><linearGradient id="a" x1="0" x2="43.413" y1="62.393" y2="62.393" gradientTransform="scale(.77787 1.28556)" gradientUnits="userSpaceOnUse"><stop offset="0" stop-color="#949494"/><stop offset=".53" stop-color="#a2a2a2"/><stop offset="1" stop-color="#b3b3b3"/></linearGradient><linearGradient id="b" x1="0" x2="27.484" y1="144.396" y2="144.396" gradientTransform="scale(1.26364 .79137)" gradientUnits="userSpaceOnUse"><stop offset="0" stop-color="#32bedd"/><stop offset=".175" stop-color="#32caea"/><stop offset=".41" stop-color="#32d2f2"/><stop offset=".775" stop-color="#32d4f5"/></linearGradient></defs><g transform="translate(-35.96 -35.958)"><title>Page-1</title><g transform="translate(35.96 -43.372)"><title>FTP Server.16342</title><title>Page-1</title><title>Sheet.16344</title><g transform="translate(0 -.88)"><title>Sheet.16345</title><title>Icon-databases-136.149</title><title>path4-5</title><title>Sheet.16348</title><title>Sheet.16349</title><path d="M33.77 134.12a1.994 1.936-180 0 1-1.96 1.9H1.96a1.96 1.903-180 0 1-1.96-1.9V82.1a1.925 1.87-180 0 1 1.96-1.89h29.85a1.96 1.903-180 0 1 1.96 1.89z" style="fill:url(#a);stroke:none;stroke-width:35.95959854;stroke-linecap:butt"/><g transform="translate(4.951 -32.684)"><title>path6-7</title><title>Sheet.16351</title><title>Sheet.16352</title><path d="M0 132.46a3.679 3.572-180 0 1 3.65-3.54h16.84a3.679 3.572-180 0 1 3.78 3.54 3.679 3.572-180 0 1-3.78 3.56H3.65A3.679 3.572-180 0 1 0 132.46m0-10.56a3.679 3.572-180 0 1 3.65-3.57h16.84a3.679 3.572-180 0 1 3.78 3.57 3.679 3.572-180 0 1-3.78 3.55H3.65A3.679 3.572-180 0 1 0 121.9" style="fill:#003067;stroke:none;stroke-width:35.95959854;stroke-linecap:butt"/></g><g transform="translate(6.327 -44.402)"><title>circle8-5</title><title>Sheet.16354</title><title>Sheet.16355</title><ellipse cx="2.476" cy="133.621" rx="2.476" ry="2.404" style="fill:#50e6ff;stroke:none;stroke-width:35.95959854;stroke-linecap:butt"/></g><g transform="translate(6.327 -33.852)"><title>circle10-2</title><title>Sheet.16357</title><title>Sheet.16358</title><ellipse cx="2.476" cy="133.621" rx="2.476" ry="2.404" style="fill:#50e6ff;stroke:none;stroke-width:35.95959854;stroke-linecap:butt"/></g></g><g transform="translate(16.076)"><title>Sheet.16359</title><title>path20-6</title><title>Sheet.16361</title><title>Sheet.16362</title><path d="M17.44 106.01 0 129.26l17.44 6.76z" style="fill:#f9f9f9;fill-opacity:.5;stroke:none;stroke-width:43.37189865;stroke-linecap:butt"/><g transform="translate(.213 -.216)"><title>Sheet.16363</title><title>Sheet.16364</title><title>Sheet.16365</title><title>Sheet.16366</title><path d="M0 114.27h34.73v20.53a1.231 1.162 90 0 1-1.15 1.22H1.16A1.231 1.162 90 0 1 0 134.8Z" style="fill:url(#b);stroke:none;stroke-width:.74999702;stroke-linecap:butt"/><g transform="translate(0 -21.763)"><title>Sheet.16367</title><title>Sheet.16368</title><title>Sheet.16369</title><path d="M1.16 128.18h32.41a1.231 1.162 90 0 1 1.16 1.23v6.61H0v-6.61a1.231 1.162 90 0 1 1.16-1.23" style="fill:#0078d4;stroke:none;stroke-width:.74999702;stroke-linecap:butt"/></g><g transform="translate(4.888 -24.174)"><title>Sheet.16370</title><title>Sheet.16371</title><title>Sheet.16372</title><path d="M0 135.42a.605.571-90 0 0 .571.605l23.819-.005a.605.571-90 0 0 .571-.605l-.001-1.885a.605.571-90 0 0-.571-.605L.57 132.93a.605.571-90 0 0-.571.605z" style="fill:#f2f2f2;stroke:none;stroke-width:.74999702;stroke-linecap:butt"/></g><g transform="translate(8.312 -4.118)"><title>Sheet.16373</title><title>Sheet.16374</title><title>Sheet.16375</title><title>Sheet.16376</title><path d="m3.87 135.62 4.45-12.76a.621.586-90 0 0-.55-.835l-2.76-.005a.619.584-90 0 0-.547.405L0 135.19a.619.584-90 0 0 .547.833l2.773-.003a.621.586-90 0 0 .55-.403z" style="fill:#f2f2f2;stroke:none;stroke-width:.74999702;stroke-linecap:butt"/><g transform="translate(9.781)"><title>Sheet.16377</title><title>Sheet.16378</title><title>Sheet.16379</title><path d="m3.87 135.62 4.45-12.76a.619.584-90 0 0-.547-.835l-2.763-.005a.619.584-90 0 0-.55.405L0 135.19a.619.584-90 0 0 .55.833l2.78-.003a.619.584-90 0 0 .547-.403z" style="fill:#f2f2f2;stroke:none;stroke-width:.74999702;stroke-linecap:butt"/></g></g></g></g></g></g></svg>