<svg xmlns="http://www.w3.org/2000/svg" xml:space="preserve" width="64.253" height="75.587" style="font-size:12px;overflow:visible;color-interpolation-filters:sRGB;fill-rule:evenodd;stroke-linecap:square;stroke-miterlimit:3" viewBox="0 0 48.19 56.69"><defs><linearGradient id="a" x1="0" x2="42.765" y1="72.026" y2="72.026" gradientTransform="scale(.75436 1.32562)" gradientUnits="userSpaceOnUse"><stop offset="0" stop-color="#949494"/><stop offset=".53" stop-color="#a2a2a2"/><stop offset="1" stop-color="#b3b3b3"/></linearGradient><linearGradient id="b" x1="0" x2="18.732" y1="243.013" y2="243.013" gradientTransform="scale(1.72008 .58137)" gradientUnits="userSpaceOnUse"><stop offset="0" stop-color="#005ba1"/><stop offset=".26" stop-color="#00589d"/><stop offset=".53" stop-color="#004f90"/><stop offset=".8" stop-color="#003f7c"/><stop offset="1" stop-color="#003067"/></linearGradient></defs><g transform="translate(-47.517 -35.958)"><title>Page-1</title><g transform="translate(47.518 -59.522)"><title>Generic Email Server.16311</title><title>Page-1</title><title>Sheet.16313</title><title>Sheet.16314</title><title>Icon-databases-136.149</title><title>path4-5</title><title>Sheet.16317</title><title>Sheet.16318</title><path d="M32.26 150.25a1.967 1.905 90 0 1-1.87 1.92H1.87A1.933 1.872 90 0 1 0 150.25V97.41a1.899 1.84 90 0 1 1.87-1.93h28.52a1.933 1.872 90 0 1 1.87 1.93z" style="fill:url(#a);stroke:none;stroke-width:35.95970154;stroke-linecap:butt"/><g transform="translate(4.73 -33.2)"><title>path6-7</title><title>Sheet.16320</title><title>Sheet.16321</title><path d="M0 148.55a3.629 3.515 90 0 1 3.48-3.6h16.1a3.629 3.515 90 0 1 3.61 3.6 3.629 3.515 90 0 1-3.61 3.62H3.48A3.629 3.515 90 0 1 0 148.55m0-10.72a3.629 3.515 90 0 1 3.48-3.62h16.1a3.629 3.515 90 0 1 3.61 3.62 3.629 3.515 90 0 1-3.61 3.6H3.48a3.629 3.515 90 0 1-3.48-3.6" style="fill:#003067;stroke:none;stroke-width:35.95970154;stroke-linecap:butt"/></g><g transform="translate(6.044 -45.096)"><title>circle8-5</title><title>Sheet.16323</title><title>Sheet.16324</title><ellipse cx="2.365" cy="149.733" rx="2.365" ry="2.442" style="fill:#50e6ff;stroke:none;stroke-width:35.95970154;stroke-linecap:butt"/></g><g transform="translate(6.044 -34.38)"><title>circle10-2</title><title>Sheet.16326</title><title>Sheet.16327</title><ellipse cx="2.365" cy="149.733" rx="2.365" ry="2.442" style="fill:#50e6ff;stroke:none;stroke-width:35.95970154;stroke-linecap:butt"/></g><g transform="translate(15.93 -3.926)"><title>Data Share Invitation.316</title><title>Icon-integration-214</title><title>path4</title><title>Sheet.16331</title><title>Sheet.16332</title><path d="M32.26 130.38h-.04v-.08h-.07l-16.72.09-15.36-.09H0v21.87h32.22v-21.79z" style="fill:#50e6ff;stroke:none;stroke-width:63.44720078;stroke-linecap:butt"/><title>path6</title><title>Sheet.16334</title><title>Sheet.16335</title><path d="M0 130.38v21.79l16.13-10.89z" style="fill:#32bedd;stroke:none;stroke-width:63.44720078;stroke-linecap:butt"/><g transform="translate(16.128)"><title>path8</title><title>Sheet.16337</title><title>Sheet.16338</title><path d="M16.09 130.38 0 141.28l16.09 10.89Z" style="fill:#198ab3;stroke:none;stroke-width:63.44720078;stroke-linecap:butt"/></g><title>path10</title><title>Sheet.16340</title><title>Sheet.16341</title><path d="M16.09 141.28 0 152.14v.03h32.22v-.03z" style="fill:url(#b);stroke:none;stroke-width:63.44720078;stroke-linecap:butt"/></g></g></g></svg>