<svg xmlns="http://www.w3.org/2000/svg" xml:space="preserve" width="60.469" height="75.595" style="font-size:12px;overflow:visible;color-interpolation-filters:sRGB;fill-rule:evenodd;stroke-linecap:square;stroke-miterlimit:3" viewBox="0 0 45.352 56.696"><defs><linearGradient id="a" x1="0" x2="40.574" y1="72.541" y2="72.541" gradientTransform="scale(.749 1.3351)" gradientUnits="userSpaceOnUse"><stop offset="0" stop-color="#949494"/><stop offset=".53" stop-color="#a2a2a2"/><stop offset="1" stop-color="#b3b3b3"/></linearGradient><linearGradient id="b" x1="0" x2="31.282" y1="115.432" y2="115.432" gradientTransform="scale(.97149 1.02935)" gradientUnits="userSpaceOnUse"><stop offset="0" stop-color="#5e9624"/><stop offset=".18" stop-color="#629c25"/><stop offset=".44" stop-color="#6dae2a"/><stop offset=".73" stop-color="#7fcb30"/><stop offset=".82" stop-color="#86d633"/></linearGradient></defs><g transform="translate(-42.375 -35.959)"><title>Page-1</title><g transform="translate(42.375 -58.365)"><title>Proxy Server.16234</title><title>Page-1</title><title>Sheet.16236</title><g transform="translate(0 -2.526)"><title>Sheet.16237</title><title>Icon-databases-136.149</title><title>path4-5</title><title>Sheet.16240</title><title>Sheet.16241</title><path d="M30.39 149.17a1.88 1.795 90 0 1-1.76 1.85H1.76A1.847 1.764 90 0 1 0 149.17V98.69a1.814 1.733 90 0 1 1.76-1.84h26.87a1.847 1.764 90 0 1 1.76 1.84z" style="fill:url(#a);stroke:none;stroke-width:35.95970154;stroke-linecap:butt"/><g transform="translate(4.457 -31.72)"><title>path6-7</title><title>Sheet.16243</title><title>Sheet.16244</title><path d="M0 147.56a3.467 3.311 90 0 1 3.28-3.44h15.16a3.467 3.311 90 0 1 3.41 3.44 3.467 3.311 90 0 1-3.41 3.46H3.28A3.467 3.311 90 0 1 0 147.56m0-10.24a3.467 3.311 90 0 1 3.28-3.47h15.16a3.467 3.311 90 0 1 3.41 3.47 3.467 3.311 90 0 1-3.41 3.44H3.28A3.467 3.311 90 0 1 0 137.32" style="fill:#003067;stroke:none;stroke-width:35.95970154;stroke-linecap:butt"/></g><g transform="translate(5.694 -43.091)"><title>circle8-5</title><title>Sheet.16246</title><title>Sheet.16247</title><ellipse cx="2.228" cy="148.685" rx="2.228" ry="2.333" style="fill:#50e6ff;stroke:none;stroke-width:35.95970154;stroke-linecap:butt"/></g><g transform="translate(5.694 -32.853)"><title>circle10-2</title><title>Sheet.16249</title><title>Sheet.16250</title><ellipse cx="2.228" cy="148.685" rx="2.228" ry="2.333" style="fill:#50e6ff;stroke:none;stroke-width:35.95970154;stroke-linecap:butt"/></g></g><g transform="translate(14.962)"><title>Sheet.16251</title><title>Sheet.16252</title><title>Sheet.16253</title><path d="M15.16 151.02a3.024 2.848 90 0 1-2-.91L.84 137.04a3.029 2.853 90 0 1-.84-2.12 3.024 2.848 90 0 1 .85-2.12l12.31-13.08c.55-.58 1.28-.9 2.01-.9.72 0 1.46.32 2 .9l12.37 13.13c.55.59.85 1.29.85 2.13a3.024 2.848 90 0 1-.85 2.13l-12.37 13a3.024 2.848 90 0 1-2.01.91" style="fill:url(#b);stroke:none;stroke-width:34;stroke-linecap:butt"/><g transform="translate(3.864 -2.835)"><title>Sheet.16254</title><title>Sheet.16255</title><path d="m11.28 124.48-4.01 4.26h2.86v6.18h2.37v-6.18h2.79zm0 26.54 4.01-4.25h-2.85v-6.05h-2.37v6.05h-2.8zm1.88-13.26 4.01 4.24v-2.96h5.39v-2.57h-5.39v-2.97zm-3.7 0-4-4.26v2.97H0v2.57h5.46V142Z" style="fill:#fff;stroke:none;stroke-width:61.20009995;stroke-linecap:butt"/></g></g></g></g></svg>