<svg xmlns="http://www.w3.org/2000/svg" xmlns:xlink="http://www.w3.org/1999/xlink" xml:space="preserve" width="75.585" height="71.813" style="font-size:12px;overflow:visible;color-interpolation-filters:sRGB;fill-rule:evenodd;stroke-linecap:square;stroke-miterlimit:3" viewBox="0 0 56.689 53.86"><defs><linearGradient id="a" x1="0" x2="1" y1="0" y2="0" gradientTransform="rotate(-90 .5 .5)"><stop offset="0" stop-color="#0879e2"/><stop offset=".325" stop-color="#0a7de4"/><stop offset=".62" stop-color="#1088eb"/><stop offset=".91" stop-color="#199af6"/><stop offset="1" stop-color="#1da2fa"/></linearGradient><linearGradient id="d" x1="0" x2="39.653" y1="56.148" y2="56.148" gradientTransform="scale(.77371 1.29247)" gradientUnits="userSpaceOnUse"><stop offset="0" stop-color="#949494"/><stop offset=".53" stop-color="#a2a2a2"/><stop offset="1" stop-color="#b3b3b3"/></linearGradient><linearGradient xlink:href="#a" id="b" x1="0" x2="31.366" y1="66.02" y2="66.02" gradientTransform="scale(.78651 1.27143)" gradientUnits="userSpaceOnUse"/><linearGradient xlink:href="#a" id="c" x1="0" x2="31.366" y1="66.02" y2="66.02" gradientTransform="scale(.78651 1.27143)" gradientUnits="userSpaceOnUse"/></defs><g transform="translate(-34 -34)"><title>Page-1</title><g transform="translate(34 -35.96)"><title>Server Cluster.16191</title><title>Page-1</title><title>Sheet.16193</title><g transform="translate(32.019 -13.98)"><title>Sheet.16194</title><title>path4-5</title><title>Sheet.16196</title><title>Sheet.16197</title><path d="M24.67 122.46a1.457 1.384 0 0 1-1.44 1.36H1.44A1.432 1.36 0 0 1 0 122.46V85.3a1.407 1.336 0 0 1 1.44-1.36h21.79a1.432 1.36 0 0 1 1.44 1.36z" style="fill:url(#b);stroke:none;stroke-width:33.99990082;stroke-linecap:butt"/><g transform="translate(3.2 -23.802)"><title>path6-7</title><title>Sheet.16199</title><title>Sheet.16200</title><path d="M0 121.26a2.688 2.552 0 0 1 2.66-2.52h12.32a2.688 2.552 0 0 1 2.76 2.52 2.688 2.552 0 0 1-2.76 2.56H2.66A2.688 2.552 0 0 1 0 121.26m0-7.53a2.688 2.552 0 0 1 2.66-2.56h12.32a2.688 2.552 0 0 1 2.76 2.56 2.688 2.552 0 0 1-2.76 2.52H2.66A2.688 2.552 0 0 1 0 113.73" style="fill:#003067;stroke:none;stroke-width:35.95949936;stroke-linecap:butt"/></g><g transform="translate(4.177 -32.15)"><title>circle10-2</title><title>Sheet.16202</title><title>Sheet.16203</title><ellipse cx="1.809" cy="122.1" rx="1.809" ry="1.717" style="fill:#50e6ff;stroke:none;stroke-width:35.95949936;stroke-linecap:butt"/></g><g transform="translate(4.177 -24.509)"><title>circle10-2.416</title><title>Sheet.16205</title><title>Sheet.16206</title><ellipse cx="1.809" cy="122.1" rx="1.809" ry="1.717" style="fill:#50e6ff;stroke:none;stroke-width:35.95949936;stroke-linecap:butt"/></g></g><g transform="translate(0 -13.98)"><title>Sheet.16207</title><title>path4-5</title><title>Sheet.16209</title><title>Sheet.16210</title><path d="M24.67 122.46a1.457 1.384 0 0 1-1.44 1.36H1.44A1.432 1.36 0 0 1 0 122.46V85.3a1.407 1.336 0 0 1 1.44-1.36h21.79a1.432 1.36 0 0 1 1.44 1.36z" style="fill:url(#c);stroke:none;stroke-width:33.99990082;stroke-linecap:butt"/><g transform="translate(3.2 -23.802)"><title>path6-7</title><title>Sheet.16212</title><title>Sheet.16213</title><path d="M0 121.26a2.688 2.552 0 0 1 2.66-2.52h12.32a2.688 2.552 0 0 1 2.76 2.52 2.688 2.552 0 0 1-2.76 2.56H2.66A2.688 2.552 0 0 1 0 121.26m0-7.53a2.688 2.552 0 0 1 2.66-2.56h12.32a2.688 2.552 0 0 1 2.76 2.56 2.688 2.552 0 0 1-2.76 2.52H2.66A2.688 2.552 0 0 1 0 113.73" style="fill:#003067;stroke:none;stroke-width:35.95949936;stroke-linecap:butt"/></g><g transform="translate(4.177 -32.15)"><title>circle10-2</title><title>Sheet.16215</title><title>Sheet.16216</title><ellipse cx="1.809" cy="122.1" rx="1.809" ry="1.717" style="fill:#50e6ff;stroke:none;stroke-width:35.95949936;stroke-linecap:butt"/></g><g transform="translate(4.177 -24.509)"><title>circle10-2.416</title><title>Sheet.16218</title><title>Sheet.16219</title><ellipse cx="1.809" cy="122.1" rx="1.809" ry="1.717" style="fill:#50e6ff;stroke:none;stroke-width:35.95949936;stroke-linecap:butt"/></g></g><g transform="translate(13.792)"><title>Sheet.16220</title><title>Icon-databases-136.149</title><title>path4-5</title><title>Sheet.16223</title><title>Sheet.16224</title><path d="M30.68 122.07a1.812 1.778-180 0 1-1.77 1.75H1.78A1.78 1.747-180 0 1 0 122.07V74.31a1.75 1.716-180 0 1 1.78-1.74h27.13a1.78 1.747-180 0 1 1.77 1.74z" style="fill:url(#d);stroke:none;stroke-width:35.95949936;stroke-linecap:butt"/><g transform="translate(4.5 -30.006)"><title>path6-7</title><title>Sheet.16226</title><title>Sheet.16227</title><path d="M0 120.55a3.343 3.28-180 0 1 3.31-3.27h15.31a3.343 3.28-180 0 1 3.43 3.27 3.343 3.28-180 0 1-3.43 3.27H3.31A3.343 3.28-180 0 1 0 120.55m0-9.7a3.343 3.28-180 0 1 3.31-3.27h15.31a3.343 3.28-180 0 1 3.43 3.27 3.343 3.28-180 0 1-3.43 3.25H3.31A3.343 3.28-180 0 1 0 110.85" style="fill:#003067;stroke:none;stroke-width:35.95949936;stroke-linecap:butt"/></g><g transform="translate(5.749 -40.765)"><title>circle8-5</title><title>Sheet.16229</title><title>Sheet.16230</title><ellipse cx="2.25" cy="121.611" rx="2.25" ry="2.207" style="fill:#50e6ff;stroke:none;stroke-width:35.95949936;stroke-linecap:butt"/></g><g transform="translate(5.749 -31.08)"><title>circle10-2</title><title>Sheet.16232</title><title>Sheet.16233</title><ellipse cx="2.25" cy="121.611" rx="2.25" ry="2.207" style="fill:#50e6ff;stroke:none;stroke-width:35.95949936;stroke-linecap:butt"/></g></g></g></g></svg>