<svg xmlns="http://www.w3.org/2000/svg" xml:space="preserve" width="64.252" height="75.592" style="font-size:12px;overflow:visible;color-interpolation-filters:sRGB;fill-rule:evenodd;stroke-linecap:square;stroke-miterlimit:3" viewBox="0 0 48.189 56.694"><defs><radialGradient id="b" cx="0" cy="97.073" r="45.384" fx="0" fy="97.073" gradientTransform="scale(1.01097 .98915)" gradientUnits="userSpaceOnUse"><stop offset=".185" stop-color="#5ea0ef"/><stop offset="1" stop-color="#0078d4"/></radialGradient><linearGradient id="a" x1="0" x2="41.547" y1="56.894" y2="56.894" gradientTransform="scale(.76853 1.30118)" gradientUnits="userSpaceOnUse"><stop offset="0" stop-color="#949494"/><stop offset=".53" stop-color="#a2a2a2"/><stop offset="1" stop-color="#b3b3b3"/></linearGradient></defs><g transform="translate(-35.96 -35.958)"><title>Page-1</title><g transform="translate(35.96 -35.433)"><title>WEB Server.16151</title><title>Page-1</title><title>Sheet.16153</title><g transform="translate(0 -2.638)"><title>Sheet.16154</title><title>Icon-databases-136.149</title><title>path4-5</title><title>Sheet.16157</title><title>Sheet.16158</title><path d="M31.93 126.25a1.886 1.875-180 0 1-1.85 1.84H1.85A1.853 1.843-180 0 1 0 126.25V75.87a1.82 1.81-180 0 1 1.85-1.84h28.23a1.853 1.843-180 0 1 1.85 1.84z" style="fill:url(#a);stroke:none;stroke-width:35.95949936;stroke-linecap:butt"/><g transform="translate(4.682 -31.654)"><title>path6-7</title><title>Sheet.16160</title><title>Sheet.16161</title><path d="M0 124.63a3.479 3.46-180 0 1 3.45-3.43h15.93a3.479 3.46-180 0 1 3.57 3.43 3.479 3.46-180 0 1-3.57 3.46H3.45A3.479 3.46-180 0 1 0 124.63m0-10.22a3.479 3.46-180 0 1 3.45-3.45h15.93a3.479 3.46-180 0 1 3.57 3.45 3.479 3.46-180 0 1-3.57 3.44H3.45A3.479 3.46-180 0 1 0 114.41" style="fill:#003067;stroke:none;stroke-width:35.95949936;stroke-linecap:butt"/></g><g transform="translate(5.982 -43)"><title>circle8-5</title><title>Sheet.16163</title><title>Sheet.16164</title><ellipse cx="2.341" cy="125.758" rx="2.341" ry="2.328" style="fill:#50e6ff;stroke:none;stroke-width:35.95949936;stroke-linecap:butt"/></g><g transform="translate(5.982 -32.783)"><title>circle10-2</title><title>Sheet.16166</title><title>Sheet.16167</title><ellipse cx="2.341" cy="125.758" rx="2.341" ry="2.328" style="fill:#50e6ff;stroke:none;stroke-width:35.95949936;stroke-linecap:butt"/></g></g><g transform="translate(15.416)"><title>Application Service.568</title><title>g22</title><title>path59</title><title>Sheet.16171</title><title>Sheet.16172</title><ellipse cx="16.386" cy="112.053" rx="16.386" ry="16.033" style="fill:url(#b);stroke:none;stroke-width:35.43320084;stroke-linecap:butt"/><g transform="translate(2.282 -4.978)"><title>path4-3</title><title>Sheet.16174</title><title>Sheet.16175</title><path d="M1.6 120.18c-.67 1.6-1.19 3.32-1.6 5 .36.6.75 1.12 1.19 1.68.33.42.68.84 1.05 1.23.48-2.24 1.18-4.45 2.1-6.55a5.2 5.2 0 0 1-2.74-1.36m1.88-8.53c-.69-1.79-1.13-3.66-1.34-5.56-.8.83-1.49 1.71-2.09 2.7.22 1.51.59 3.07 1.09 4.52.6-.77 1.41-1.33 2.34-1.66" style="fill:#83b9f9;stroke:none;stroke-width:35.43320084;stroke-linecap:butt"/></g><g transform="translate(8.5 -4.28)"><title>path8-3</title><title>Sheet.16177</title><title>Sheet.16178</title><path d="M6.69 125.18c0-.91.37-1.77 1.04-2.4-1.78-.95-3.4-2.12-4.86-3.49-.77.81-1.77 1.34-2.87 1.55.86.88 1.79 1.7 2.78 2.42 1.23.9 2.55 1.7 3.94 2.35-.02-.15-.03-.29-.03-.43m12.1.4c-1.78 0-3.55-.21-5.28-.61 0 .07.01.13.01.21 0 .87-.35 1.7-.98 2.33 2.15.42 4.41.58 6.6.47.82-.76 1.57-1.64 2.23-2.55-.84.09-1.73.15-2.57.15z" style="fill:#83b9f9;stroke:none;stroke-width:35.43320084;stroke-linecap:butt"/></g><g transform="translate(9.385 -16.12)"><title>path12-4</title><title>Sheet.16180</title><title>Sheet.16181</title><path d="M8.29 120.9a26.8 26.8 0 0 1 11.49-2.77c-.83-1.02-1.79-1.92-2.85-2.72-3.1.2-6.23.94-9.09 2.12-.63.27-1.24.57-1.85.89-1.46-1.7-2.82-3.58-3.89-5.53-.71.22-1.35.45-2.02.76 1.11 2.07 2.46 4.09 3.99 5.88-1.48.96-2.85 2.05-4.07 3.3a5.15 5.15 0 0 1 2.59 2.07 22 22 0 0 1 3.7-2.89c2.19 2.23 4.57 4.26 7.11 6.08.18-.73.59-1.37 1.18-1.85-2.25-1.62-4.35-3.4-6.29-5.34" style="fill:#83b9f9;stroke:none;stroke-width:35.43320084;stroke-linecap:butt"/></g><g transform="translate(22.75 -11.925)"><title>circle14-8</title><title>Sheet.16183</title><title>Sheet.16184</title><ellipse cx="3.624" cy="124.54" rx="3.624" ry="3.546" style="fill:#f2f2f2;stroke:none;stroke-width:35.43320084;stroke-linecap:butt"/></g><g transform="translate(2.275 -11.436)"><title>circle18-3</title><title>Sheet.16186</title><title>Sheet.16187</title><ellipse cx="5.252" cy="122.947" rx="5.252" ry="5.139" style="fill:#f2f2f2;stroke:none;stroke-width:35.43320084;stroke-linecap:butt"/></g><g transform="translate(15.185 -3.852)"><title>circle20-2</title><title>Sheet.16189</title><title>Sheet.16190</title><ellipse cx="3.413" cy="124.747" rx="3.413" ry="3.339" style="fill:#f2f2f2;stroke:none;stroke-width:35.43320084;stroke-linecap:butt"/></g></g></g></g></svg>