<svg xmlns="http://www.w3.org/2000/svg" xml:space="preserve" width="76.021" height="75.257" style="font-size:12px;overflow:visible;color-interpolation-filters:sRGB;fill-rule:evenodd;stroke-linecap:square;stroke-miterlimit:3" viewBox="0 0 57.016 56.442"><g transform="translate(-7.675 -7.678)"><title>Page-1</title><g transform="translate(7.835 -34.016)"><title>Activity.18202</title><title>Page-1</title><title>Activity</title><g transform="translate(4.823 -4.652)"><title>path7</title><title>path10</title><path d="M21.05 51.28a23.559 23.325-180 0 0-15.91 8.56A23.57 23.336-180 0 0 0 77.03a23.566 23.332-180 0 0 8.65 15.74A23.67 23.67 0 0 0 26 97.86c6.5-.68 12.09-3.89 15.91-8.56 3.81-4.66 5.82-10.74 5.13-17.18-.68-6.49-4.01-12.05-8.8-15.88-4.02-3.23-9.16-5.1-14.66-5.1-.83 0-1.68.05-2.53.14" style="fill:#fff;stroke:none;stroke-width:7.67604017;stroke-linecap:butt"/></g><g transform="translate(16.337)"><title>path9</title><title>path15</title><path d="M40.36 66.96c-.83-7.83-4.87-14.54-10.58-19.11-1.11-.88-2.3-1.66-3.53-2.37l-2.24 4.27a22.599 22.374 0 0 1 2.71 1.84c4.8 3.83 8.12 9.38 8.81 15.87.69 6.44-1.32 12.53-5.13 17.19a23.63 23.63 0 0 1-15.91 8.56c-4.36.45-8.54-.31-12.26-1.99L0 95.49c4.53 2.08 9.67 3.05 15 2.49a28.407 28.125-180 0 0 19.16-10.31 28.4 28.118-180 0 0 6.2-20.71" style="fill:#3999c6;stroke:none;stroke-width:7.67604017;stroke-linecap:butt"/></g><g transform="translate(0 -3.058)"><title>path11</title><title>path20</title><path d="M13.46 91.18a23.561 23.327 0 0 1-8.63-15.75 23.561 23.327 0 0 1 5.13-17.19 23.552 23.318 0 0 1 15.91-8.55c5.26-.55 10.28.64 14.48 3.11l2.23-4.26a28.32 28.038-180 0 0-17.22-3.63A28.441 28.159-180 0 0 6.19 55.22l-.01.01A28.437 28.154-180 0 0 0 75.93a28.43 28.149-180 0 0 10.42 18.98c1.8 1.45 3.8 2.65 5.92 3.63l2.23-4.26a23.732 23.496 0 0 1-5.11-3.1" style="fill:#a0a1a2;stroke:none;stroke-width:7.67604017;stroke-linecap:butt"/></g><g transform="translate(0 -3.058)"><title>path13</title><title>path25</title><path d="M13.46 91.18a23.561 23.327 0 0 1-8.63-15.75 23.561 23.327 0 0 1 5.13-17.19 23.552 23.318 0 0 1 15.91-8.55c5.26-.55 10.28.64 14.48 3.11l2.23-4.26a28.32 28.038-180 0 0-17.22-3.63A28.441 28.159-180 0 0 6.19 55.22l-.01.01A28.437 28.154-180 0 0 0 75.93a28.43 28.149-180 0 0 10.42 18.98c1.8 1.45 3.8 2.65 5.92 3.63l2.23-4.26a23.732 23.496 0 0 1-5.11-3.1" style="fill:#59b4d9;stroke:none;stroke-width:7.67604017;stroke-linecap:butt"/></g><g transform="translate(27.94 -21.222)"><title>path15</title><title>path30</title><path d="M12.38 98.54 1.43 94.68a2.28 2.258 0 1 1 1.53-4.25l10.95 3.86a2.28 2.258 0 1 1-1.53 4.25" style="fill:#7a7a7a;stroke:none;stroke-width:7.67604017;stroke-linecap:butt"/></g><g transform="translate(25.84 -25.494)"><title>path17</title><title>path35</title><path d="M2.28 98.54A2.28 2.258 0 0 1 0 96.28V77.07a2.28 2.258 0 1 1 4.56 0v19.21a2.28 2.258 0 0 1-2.28 2.26" style="fill:#7a7a7a;stroke:none;stroke-width:7.67604017;stroke-linecap:butt"/></g><g transform="translate(24.79 -24.459)"><title>circle19</title><title>ellipse40</title><ellipse cx="3.331" cy="95.245" rx="3.331" ry="3.297" style="fill:#000;stroke:none;stroke-width:7.67604017;stroke-linecap:butt"/></g><g transform="translate(13.415 -14.18)"><title>path21</title><title>path45</title><path d="m.93 69.31 2.86 2.83-.92.92L0 70.22Zm13.34-5.44h1.3v4.02h-1.3zm14.51 5.57.93.91-2.87 2.84-.92-.91zm2.18 13.99h4.05v1.3h-4.05zm-4.31 11.36 2.87 2.84-.92.91-2.87-2.84z" style="fill:#7a7a7a;stroke:none;stroke-width:7.67604017;stroke-linecap:butt"/></g><g transform="translate(13.415 -8.81)"><title>path23</title><title>path50</title><path d="m26.65 89.41 2.87 2.84-.92.92-2.87-2.84zm-12.38 5.11h1.3v4.02h-1.3zM.93 63.94l2.86 2.84-.92.91L0 64.86Zm2.14 25.6.92.9-2.87 2.84-.92-.9z" style="fill:#7a7a7a;stroke:none;stroke-width:7.67604017;stroke-linecap:butt"/></g><g transform="translate(7.995 -14.062)"><title>path25</title><title>path55</title><path d="m8.49 94.79.92.91-2.86 2.84-.93-.91ZM0 83.32h4.06v1.29H0Z" style="fill:#7a7a7a;stroke:none;stroke-width:7.67604017;stroke-linecap:butt"/></g></g></g></svg>