<svg xmlns="http://www.w3.org/2000/svg" xml:space="preserve" width="64.255" height="75.6" style="font-size:12px;overflow:visible;color-interpolation-filters:sRGB;fill-rule:evenodd;stroke-linecap:square;stroke-miterlimit:3" viewBox="0 0 48.191 56.7"><defs><linearGradient id="a" x1="-.004" x2="46.615" y1="66.501" y2="66.501" gradientTransform="scale(.907 1.10254)" gradientUnits="userSpaceOnUse"><stop offset="0" stop-color="#1988d9"/><stop offset=".9" stop-color="#54aef0"/></linearGradient></defs><g transform="translate(-34 -34.004)"><title>Page-1</title><g transform="translate(34 -34.016)"><title>Activity Log.18225</title><title>Sheet.18226</title><g transform="translate(0 -.266)"><title>Sheet.18227</title><path d="m.07 73.66 4.11-4.7a2.005 1.964 0 0 1 1.53-.66h39.45a2.753 2.696 0 0 1 3.03 2.76v48.27a1.937 1.898 0 0 1-.68 1.43l-4.42 3.96H2.75L0 123.62Z" style="fill:#005ba1;stroke:none;stroke-width:34;stroke-linecap:butt"/></g><g transform="translate(3.398 -2.364)"><title>Sheet.18228</title><path d="m0 75.72 2.51-2.8a1.7 1.665 0 0 1 1.19-.6h37.01a1.767 1.731 0 0 1 1.77 1.73v45.88a1.767 1.731 0 0 1-.58 1.3l-3.94 3.49z" style="fill:#fff;stroke:none;stroke-width:34;stroke-linecap:butt"/></g><g transform="translate(.102)"><title>Sheet.18229</title><path d="M40.98 73.32H.2a.204.2-180 0 0-.204.2L0 123.46a1.325 1.298-180 0 0 1.33 1.26h39.65a1.291 1.265-180 0 0 1.3-1.26V74.62a1.325 1.298-180 0 0-1.3-1.3" style="fill:url(#a);stroke:none;stroke-width:34;stroke-linecap:butt"/></g><g transform="translate(9.55 -29.795)"><title>Sheet.18230</title><path d="M0 123.79a.952.932-180 0 0 .952.932l20.458-.002a.952.932-180 0 0 .952-.932l-.002-6.058a.952.932-180 0 0-.952-.932L.95 116.8a.952.932-180 0 0-.952.932z" style="fill:#fff;stroke:none;stroke-width:34;stroke-linecap:butt"/></g></g></g></svg>