<svg xmlns="http://www.w3.org/2000/svg" xml:space="preserve" width="75.86" height="60.513" style="font-size:12px;overflow:visible;color-interpolation-filters:sRGB;fill-rule:evenodd;stroke-linecap:square;stroke-miterlimit:3" viewBox="0 0 56.895 45.385"><g transform="translate(-40.8 -40.795)"><title>Page-1</title><g transform="translate(40.836 -40.8)"><title>Adaptive Application Control.18194</title><title>Sheet.18195</title><g transform="translate(0 -6.962)"><title>Sheet.18196</title><path d="M5.98 88.58h34.88a5.94 5.778 0 0 1 5.66 6.03v26.8c0 .8-1.9 2.47-2.44 2.99-.53.52-1.71 2.58-2.5 2.58H3.04A2.97 2.889 0 0 1 0 124.09V94.61a5.94 5.778 0 0 1 5.98-6.03" style="fill:#c5c7c7;stroke:none;stroke-width:40.79999924;stroke-linecap:butt"/></g><g transform="translate(3.578 -10.373)"><title>Sheet.18197</title><path d="M5.76 95.48h28.13a5.725 5.57 0 0 1 5.47 5.84v22.8a2.863 2.785 0 0 1-2.83 2.86H2.97A2.863 2.785 0 0 1 0 124.09v-22.77a5.725 5.57 0 0 1 5.76-5.84" style="fill:#f7fafa;stroke:none;stroke-width:40.79999924;stroke-linecap:butt"/></g><g transform="translate(0 -34.912)"><title>Sheet.18198</title><path d="M5.98 116.53h34.88a5.51 5.36 0 0 1 5.66 5.96v4.49H0v-4.49a5.51 5.36 0 0 1 5.98-5.96" style="fill:#0072c6;stroke:none;stroke-width:40.79999924;stroke-linecap:butt"/></g><g transform="translate(7.335 -17.508)"><title>Sheet.18199</title><path d="M10.56 121.44v1.05l-9.2 4.49L0 124.96l6.44-3.13L0 118.66l1.36-2.02 7.8 4.04.86.45.54.28z" style="fill:#4e5d69;stroke:none;stroke-width:40.79999924;stroke-linecap:butt"/></g><g transform="translate(22.67)"><title>Sheet.18200</title><path d="m33.36 105.99-13.84 18.79a6.011 5.848 0 0 1-4.37 2.2 7.872 7.658 0 0 1-4.18-2.02l-8.59-6.62a6.476 6.3 0 0 1-.97-8.87c3.58-4.42 6.94-1.74 9.7 0l3 2.16 8.56-12.12a5.976 5.813 0 0 1 8.73-2.05 6.834 6.648 0 0 1 1.96 8.53" style="fill:#fff;stroke:none;stroke-width:40.79999924;stroke-linecap:butt"/></g><g transform="translate(25.458 -3.655)"><title>Sheet.18201</title><path d="m27.68 108.22-12.74 17.75a3.578 3.48 0 0 1-2.93 1.01 3.363 3.272 0 0 1-2.44-.8l-8.44-6.51a3.292 3.202 0 0 1-.36-4.49 3.578 3.48 0 0 1 4.76-.28l5.94 4.56 11.09-15.42a3.578 3.48 0 0 1 4.76-.28 3.256 3.167 0 0 1 .39 4.46z" style="fill:#98ce07;stroke:none;stroke-width:40.79999924;stroke-linecap:butt"/></g></g></g></svg>