<svg xmlns="http://www.w3.org/2000/svg" xml:space="preserve" width="74.748" height="75.594" style="font-size:12px;overflow:visible;color-interpolation-filters:sRGB;fill-rule:evenodd;stroke-linecap:square;stroke-miterlimit:3" viewBox="0 0 56.061 56.696"><g transform="translate(-27.818 -27.819)"><title>Page-1</title><g transform="translate(27.818 -34.016)"><title>Adaptive Network Hardening.18185</title><title> ASC_Adaptive-network-hardening</title><g transform="translate(.787 -1.221)"><title>Sheet.18187</title><path d="m19.82 118.52 10.69-20.38.46-12.41v-.46h8.21v-9.5a1.223 1.21-180 0 0-1.24-1.23h-.31c-.77.16-1.7.16-2.48.16-6.19 0-11.76-3.53-14.4-9.2-.31-.3-.62-.3-1.08-.3h-.16c-.31 0-1.08.3-1.08.3-2.63 5.52-8.36 9.04-14.56 9.04-.77 0-1.54 0-2.32-.15h-.31c-.78 0-1.24.46-1.24 1.23v23.75c0 1.69.31 3.07 1.08 4.45l.31.15a35.221 34.848-180 0 0 16.88 14.1s.78.15 1.55.46z" style="fill:#c7e4f0;stroke:none;stroke-width:27.81819916;stroke-linecap:butt"/></g><g transform="translate(25.41 -.152)"><title>Sheet.18188</title><path d="M30.2 115.16 20.75 98v-6.9h.16c1.08 0 2.01-.92 2.01-2.15 0-1.22-.93-2.14-2.01-2.14H10.53c-1.08 0-2.01.92-2.01 2.14 0 1.23.93 2.15 2.01 2.15h.16V98l-9.61 17.16C0 117 .93 118.53 2.94 118.53h25.25c2.16 0 3.09-1.53 2.01-3.37" style="fill:#59b4d9;stroke:none;stroke-width:27.81819916;stroke-linecap:butt"/></g><g transform="translate(30.52 -3.83)"><title>Sheet.18189</title><path d="M3.87 111.48 0 118.53h21.22l-4.03-7.05z" style="fill:#b8d432;stroke:none;stroke-width:27.81819916;stroke-linecap:butt"/></g><g transform="translate(39.661 -5.666)"><title>Sheet.18190</title><path d="M1.86 116.07c1.08 0 1.85-.92 1.85-1.99 0-.31 0-.61-.15-.92H.15c-.15.31-.15.61-.15.92 0 1.23.93 1.99 1.86 1.99m3.4 1.54a.93.92 0 0 1-1.858 0 .93.92 0 1 1 1.858 0" style="fill:#57a300;stroke:none;stroke-width:27.81819916;stroke-linecap:butt"/></g><g transform="translate(25.563)"><title>Sheet.18191</title><path d="m.93 115 9.45-17.16v-6.89h-.16c-1.08 0-2.01-.92-2.01-2.15s.93-2.14 2.01-2.14h4.49v11.18l-4.95 20.69H2.94C.77 118.37 0 116.84.93 115" style="fill:#fff;fill-opacity:.25;stroke:none;stroke-width:27.81819916;stroke-linecap:butt"/></g><g transform="translate(0 -1.066)"><title>Sheet.18192</title><path d="m20.45 118.52 1.55-2.75s-.46.15-1.08.3l-.93-.3c-6.97-2.76-12.55-7.36-16.26-13.64l-.16-.16c-.62-1.22-.93-2.29-.93-3.67V74.54h.16c.77.16 1.7.16 2.32.16 6.5 0 12.54-3.68 15.49-9.35h.46c2.79 5.82 8.83 9.5 15.33 9.5.78 0 1.71 0 2.48-.15h.31v10.42h2.48V74.7a2.445 2.42-180 0 0-2.48-2.45h-.47c-.61.15-1.54.15-2.17.15-5.73 0-10.84-3.37-13.32-8.43l-.31-.3a2.564 2.537-180 0 0-1.86-.77h-.31c-.46 0-.93.15-1.24.31l-1.08 1.07c-2.48 4.9-7.74 8.12-13.32 8.12-.77 0-1.39 0-2.17-.15h-.46A2.445 2.42-180 0 0 0 74.7v23.75c0 1.84.46 3.37 1.24 5.06l.15.31c4.03 6.58 10.07 11.49 17.51 14.4.31-.31 1.08 0 1.54.31z" style="fill:#429ec9;stroke:none;stroke-width:27.81819916;stroke-linecap:butt"/></g><g transform="translate(2.332 -3.83)"><title>Sheet.18193</title><path d="M0 94.78v5.97c0 1.54.31 3.07.93 4.29l.15.16c3.57 5.97 8.98 10.26 15.49 12.87 0 0 .62.15 1.24.46V94.77H0Zm29.43-6.59v-.46h7.43l.16-9.04v-.31c0-.77-.31-1.53-1.09-1.53h-.46c-.78.15-1.86.15-2.64.15-6.19 0-11.15-3.68-14.09-9.8-.31 0-.31 0-.62.15v27.73h11.31z" style="fill:#74b7d7;stroke:none;stroke-width:27.81819916;stroke-linecap:butt"/></g></g></g></svg>