<svg xmlns="http://www.w3.org/2000/svg" xml:space="preserve" width="60.467" height="75.581" style="font-size:12px;overflow:visible;color-interpolation-filters:sRGB;fill-rule:evenodd;stroke-linecap:square;stroke-miterlimit:3" viewBox="0 0 45.35 56.686"><defs><linearGradient id="a" x1="0" x2="44.095" y1="62.411" y2="62.411" gradientTransform="scale(.88151 1.13441)" gradientUnits="userSpaceOnUse"><stop offset="0" stop-color="#5e9624"/><stop offset=".32" stop-color="#639d26"/><stop offset=".795" stop-color="#6fb12a"/><stop offset="1" stop-color="#76bc2d"/></linearGradient></defs><g transform="translate(-30.11 -30.114)"><title>Page-1</title><g transform="translate(30.11 -34.016)"><title>Azure Defender.18178</title><title>path4</title><path d="M45.35 90.59c0 15.24-18.01 27.51-21.93 30.01a1.427 1.469 0 0 1-1.49 0C18.01 118.11 0 105.84 0 90.59V72.25c0-.38.15-.75.41-1.02a1.402 1.443 0 0 1 .98-.44c14.01-.38 10.79-6.66 21.29-6.66s7.27 6.28 21.29 6.66a1.402 1.443 0 0 1 .97.43 1.432 1.474 0 0 1 .41 1.03z" style="fill:#76bc2d;stroke:none;stroke-width:30.10930061;stroke-linecap:butt"/><g transform="translate(3.029 -3.654)"><title>path6-0-7</title><path d="M38.87 94.15c0 13.45-15.44 24.27-18.79 26.48a1.194 1.23 0 0 1-1.28 0C15.44 118.43 0 107.61 0 94.15V77.97c0-.34.12-.67.35-.91a1.184 1.219 0 0 1 .84-.38c12.01-.33 9.25-5.88 18.25-5.88s6.23 5.55 18.24 5.88a1.184 1.219 0 0 1 .84.38c.22.24.35.56.35.9z" style="fill:url(#a);stroke:none;stroke-width:30.10930061;stroke-linecap:butt"/></g><g transform="translate(13.79 -22.635)"><title>path8-3-4-0-3</title><path d="M16.6 113.8c-.93 1.17-1.86 2.34-2.52 3.69l-1.26 2.61a1.267 1.304 0 0 1-1.14.72H5.86a1.267 1.304 0 0 1-1.14-.72l-1.26-2.62c-.66-1.34-1.59-2.52-2.52-3.69-.31-.4-.63-.8-.94-1.21a11.084 11.41 0 1 1 17.54 0c-.31.41-.62.81-.94 1.22M1.36 102.79a1.3 1.339-180 0 0 2.33 1.19 7.787 8.017 0 0 1 3.47-3.59A1.3 1.338-180 0 0 5.99 98a10.383 10.69-180 0 0-4.63 4.79" style="fill:#fff"/></g><g transform="translate(16.983 -19.184)"><title>rect944-0</title><path d="M0 119.91a.88.906-180 0 0 .88.906l9.37.004a.88.906-180 0 0 .88-.906v-.184a.88.906-180 0 0-.88-.906l-9.37-.004a.88.906-180 0 0-.88.906z" style="fill:#fff;stroke:none;stroke-width:20.47410011;stroke-linecap:butt"/></g><g transform="translate(17.01 -16.389)"><title>rect944-5-9</title><path d="M0 119.91a.88.906-180 0 0 .88.906l9.37.004a.88.906-180 0 0 .88-.906v-.184a.88.906-180 0 0-.88-.906l-9.37-.004a.88.906-180 0 0-.88.906z" style="fill:#fff;stroke:none;stroke-width:20.47410011;stroke-linecap:butt"/></g><g transform="translate(19.303 -12.963)"><title>path15-9-5-3</title><path d="M0 118.91a3.694 3.803-180 0 0 6.4 0z" style="fill:#fff"/></g></g></g></svg>