<svg xmlns="http://www.w3.org/2000/svg" xml:space="preserve" width="75.586" height="64.252" style="font-size:12px;overflow:visible;color-interpolation-filters:sRGB;fill-rule:evenodd;stroke-linecap:square;stroke-miterlimit:3" viewBox="0 0 56.69 48.189"><defs><linearGradient id="a" x1="0" x2="37.189" y1="68.897" y2="68.897" gradientTransform="scale(.91291 1.0954)" gradientUnits="userSpaceOnUse"><stop offset=".26" stop-color="#76bc2d"/><stop offset=".685" stop-color="#81ce31"/><stop offset="1" stop-color="#86d633"/></linearGradient><linearGradient id="b" x1="0" x2="34.749" y1="154.821" y2="154.821" gradientTransform="scale(1.63141 .61297)" gradientUnits="userSpaceOnUse"><stop offset="0" stop-color="#5ea0ef"/><stop offset="1" stop-color="#0078d4"/></linearGradient></defs><g transform="translate(-34 -33.995)"><title>Page-1</title><g transform="translate(34 -34.016)"><title>Azure Key Vault Managed HSM.18071</title><title>Sheet.18072</title><g transform="translate(2.954 -7.46)"><title>Sheet.18073</title><path d="M33.95 94.5c0 10.94-13.47 19.76-16.4 21.55a1.08 1.08 0 0 1-1.12 0C13.49 114.26 0 105.44 0 94.5V81.32c0-.58.47-1.05 1.05-1.05 10.48-.28 8.07-4.8 15.93-4.8 7.85 0 5.44 4.53 15.93 4.8.57 0 1.04.47 1.04 1.05z" style="fill:url(#a);stroke:none;stroke-width:34;stroke-linecap:butt"/></g><title>Sheet.18074</title><path d="M55.32 94.9H36.2c-1.25 2.43-3.06 4.86-5.45 7.29a52.183 52.2 0 0 1-9.56 7.54 2.41 2.41 0 0 1-2.5 0c-2.18-1.32-10.95-7-15-14.83H1.37A1.37 1.37-180 0 0 0 96.27v18.56c0 .76.61 1.37 1.37 1.37h53.95c.76 0 1.37-.61 1.37-1.37V96.27a1.37 1.37-180 0 0-1.37-1.37" style="fill:url(#b);stroke:none;stroke-width:34;stroke-linecap:butt"/><g transform="translate(36.642 -13.734)"><title>Sheet.18075</title><path d="M14.08 112.8h2.46a.472.473 0 0 1 .472.473l-.002 2.457a.472.473 0 0 1-.472.473l-2.458-.003a.472.473 0 0 1-.472-.473l.002-2.457a.472.473 0 0 1 .472-.466zm-6.8 0h2.45a.472.473 0 0 1 .472.473l-.002 2.457a.472.473 0 0 1-.472.473L7.28 116.2a.472.473 0 0 1-.472-.473L6.8 113.27a.472.473 0 0 1 .472-.466zm-6.81 0h2.46a.472.473 0 0 1 .472.473L3.4 115.73a.472.473 0 0 1-.472.473L.47 116.2a.472.473 0 0 1-.472-.473L0 113.27a.472.473 0 0 1 .472-.466z" style="fill:#c3f1ff;stroke:none;stroke-width:34;stroke-linecap:butt"/></g><g transform="translate(15.354 -16.037)"><title>Sheet.18076</title><path d="M10.92 96.98a6.346 6.349-180 1 0-7.87 6.15v7.32a.25.25 0 0 1-.255.255l-2.535.005a.25.25-180 0 0-.255.255L0 113.5a.25.25-180 0 0 .255.255l2.545.005a.25.25 0 0 1 .255.255l-.005 1.935a.25.25-180 0 0 .255.255l2.545-.005a.25.25-180 0 0 .255-.255L6.1 103.13a6.346 6.349-180 0 0 4.83-6.15zm-5.91 3.3a3.332 3.334 0 0 1-.87-6.61 3.332 3.334 0 0 1 .87 6.61" style="fill:#fff;stroke:none;stroke-width:34;stroke-linecap:butt"/></g></g></g></svg>