<svg xmlns="http://www.w3.org/2000/svg" xml:space="preserve" width="64.224" height="76.874" style="font-size:12px;overflow:visible;color-interpolation-filters:sRGB;fill-rule:evenodd;stroke-linecap:square;stroke-miterlimit:3" viewBox="0 0 48.168 57.655"><g transform="translate(-12.322 -12.317)"><title>Page-1</title><g transform="translate(13.716 -34.016)"><title>Azure Firewall Virtual Hub.18114</title><title>layer1</title><g transform="translate(5.677 -9.247)"><title>path4</title><path d="M34.05 69.18a4.212 4.19 0 0 1-1.73-1.69l-7.88 7.9h3.41zM18.3 64.83c-.42.12-.85.18-1.29.19a5.37 5.342 0 0 1-1.22-.19v10.56h2.51ZM1.7 67.49A4.566 4.543 0 0 1 0 69.18l6.24 6.21h3.44l-7.97-7.9zm14.15 36.5c.38-.11.77-.17 1.16-.19.41.01.82.08 1.22.19V93.43h-2.38ZM0 99.77c.71.4 1.3.99 1.7 1.69l8.08-8.03H6.37Zm34.02 0-6.43-6.4h-3.34l8.07 8.03c.42-.68 1.01-1.24 1.7-1.63" style="fill:#666;stroke:none;stroke-width:12.31890011;stroke-linecap:butt"/></g><title>path6</title><path d="M23.97 55.58a4.663 4.64-180 0 0 3.51-4.51 4.728 4.704-180 1 0-5.95 4.51c.38.11.77.17 1.16.19.43 0 .86-.07 1.28-.19M7.38 58.24c.42-.69.65-1.47.68-2.27a4.728 4.704-180 1 0-4.67 4.6 4.513 4.49-180 0 0 3.99-2.33m14.15 36.5a4.728 4.704-180 1 0 2.44 0 5.107 5.081-180 0 0-1.28-.19c-.39.02-.78.09-1.16.19m18.2-34.81c.7.43 1.5.65 2.31.64a4.728 4.704-180 1 0-4.72-4.6c0 .83.23 1.65.67 2.36.42.69 1.02 1.25 1.74 1.6M5.68 90.52a4.535 4.512-180 0 0-2.29-.67 4.728 4.704-180 1 0 4.73 4.7 4.533 4.51-180 0 0-.67-2.34 4.566 4.543-180 0 0-1.77-1.69m36.3-.67a4.511 4.489-180 0 0-2.35.67 4.825 4.8-180 0 0-1.7 1.69 4.533 4.51-180 0 0-.68 2.34 4.728 4.704-180 1 0 4.73-4.7" style="fill:#a0a1a2;stroke:none;stroke-width:12.31890011;stroke-linecap:butt"/><g transform="translate(7.277 -31.874)"><title>path10</title><path d="M9.46 99.81H.04L0 103.96l9.61.03-.15-4.19Z" style="fill:#e62323;stroke:none;stroke-width:12.31890011;stroke-linecap:butt"/></g><g transform="translate(18.026 -31.71)"><title>path12</title><path d="M9.55 99.64H.13L0 103.77l9.68.22z" style="fill:#ff7381;stroke:none;stroke-width:12.31890011;stroke-linecap:butt"/></g><g transform="translate(7.314 -26.909)"><title>path14</title><path d="M31.1 94.84h-9.43l-.02 4.41 9.99-.07-.41-4.34zm-27.17 5.25H0v3.9h3.92v-3.9z" style="fill:#e62323;stroke:none;stroke-width:12.31890011;stroke-linecap:butt"/></g><g transform="translate(12.653 -26.909)"><title>path16</title><path d="M25.76 100.09h-3.93v3.9h3.93zm-16.34 0H0v3.9h9.42z" style="fill:#ff7381;stroke:none;stroke-width:12.31890011;stroke-linecap:butt"/></g><g transform="translate(7.148 -21.484)"><title>path18</title><path d="M25.77 94.66h-9.43v3.91l10.43.08-.43-4zM9.58 99.67l-9.44.01-.14 4.31 9.64-.03.24-4.29Z" style="fill:#e62323;stroke:none;stroke-width:12.31890011;stroke-linecap:butt"/></g><g transform="translate(17.965 -21.42)"><title>path20</title><path d="m9.61 99.78-9.52-.15-.09 4.32 9.77.04z" style="fill:#ff7381;stroke:none;stroke-width:12.31890011;stroke-linecap:butt"/></g><g transform="translate(28.72 -21.483)"><title>path22</title><path d="M0 99.681h9.87v4.309H0z" style="fill:#e62323;stroke:none;stroke-width:13.24890041;stroke-linecap:butt"/></g><g transform="translate(5.258 -19.805)"><title>path8-5</title><path d="M33.51 103.99a1.321 1.314-180 0 0 1.35-1.28V87.23a1.321 1.314-180 0 0-1.35-1.29H1.35A1.32 1.313-180 0 0 0 87.23v15.48a1.32 1.313-180 0 0 1.35 1.28zm-.36-7.11h-3.92v-3.9h3.92v3.91zm-9.29-9.15h9.42v4.04h-9.42zm3.92 5.25v3.9h-9.55v-3.9zM12.9 87.73h9.42v4.04H12.9Zm3.92 5.25v3.9H7.4v-3.9zM2.06 87.73h9.42v4.04H2.06Zm0 5.25h3.89v3.9H2.06Zm9.42 9.18H2.06v-3.99h9.42zm10.84 0H12.9v-3.99h9.42zm1.41 0v-3.99h9.42v3.93z" style="fill:#821010;stroke:none;stroke-width:12.31890011;stroke-linecap:butt"/></g></g></g></svg>