<svg xmlns="http://www.w3.org/2000/svg" xml:space="preserve" width="75.597" height="77.356" style="font-size:12px;overflow:visible;color-interpolation-filters:sRGB;fill-rule:evenodd;stroke-linecap:square;stroke-miterlimit:3" viewBox="0 0 56.697 58.017"><defs><linearGradient id="a" x1="-4.057" x2="41.193" y1="80.223" y2="80.223" gradientTransform="scale(.98706 1.01311)" gradientUnits="userSpaceOnUse"><stop offset="0" stop-color="#5ea0ef"/><stop offset="1" stop-color="#0078d4"/></linearGradient></defs><g transform="translate(-34 -33.998)"><title>Page-1</title><g transform="translate(34 -34.016)"><title>Azure Firewall TLS Inspection.18126</title><title>Sheet.18127</title><g transform="translate(4.025 -13.26)"><title>Sheet.18128</title><path d="M25.14 123.24a4.013 4.116 0 0 1 .02-.52 3.798 3.897 0 0 1 2.93-3.44v-3.15a12.728 13.057 0 0 1 3.42-9.11 11.685 11.988 0 0 1 .66-.67 11.817 12.123 0 0 1 8.05-3.23c.15 0 .29.04.44.05a22.343 22.922-180 1 0-15.52 22.86z" style="fill:url(#a);stroke:none;stroke-width:34;stroke-linecap:butt"/></g><g transform="translate(31.715)"><title>Sheet.18129</title><path d="M23.68 108.55h-1.57v-5.72a10.28 10.546-180 0 0-2.75-7.29 9.304 9.545-180 0 0-13.14-.52 9.928 10.185-180 0 0-.52.52 10.258 10.524-180 0 0-2.75 7.29v5.72H1.38A1.26 1.292-180 0 0 0 109.71a1.112 1.14-180 0 0 0 .21v14.82a1.26 1.292-180 0 0 1.26 1.29h22.42a1.26 1.292-180 0 0 1.3-1.25v-14.86a1.26 1.292-180 0 0-1.18-1.37zm-6.08 0H7.39v-5.8A5.61 5.755 0 0 1 9 98.73a4.67 4.792 0 0 1 6.6-.41 4.608 4.727 0 0 1 .39.41 6.025 6.181 0 0 1 .63.8 5.483 5.625 0 0 1 .98 3.18z" style="fill:#37c2b1;stroke:none;stroke-width:34;stroke-linecap:butt"/></g><g transform="translate(31.73 -.407)"><title>Sheet.18130</title><path d="M1.29 108.96h22.37a1.26 1.292 0 0 1 .82.32L.47 126.03a1.285 1.318 0 0 1-.47-.97v-14.73a1.26 1.292 0 0 1 1.17-1.37z" style="fill:#3cd4c2;stroke:none;stroke-width:34;stroke-linecap:butt"/></g><g transform="translate(32.208 -.407)"><title>Sheet.18131</title><path d="M23.19 108.96H.83a1.238 1.27-180 0 0-.83.32l24.01 16.75a1.172 1.202-180 0 0 .47-.97v-14.73a1.26 1.292-180 0 0-1.17-1.37z" style="fill:#42e8ca;fill-opacity:.5;stroke:none;stroke-width:34;stroke-linecap:butt"/></g><g transform="translate(0 -25.041)"><title>Sheet.18132</title><path d="m28.42 115.67-9.19-9.63a.457.469-180 0 0-.646-.042.44.452-180 0 0-.154.365v5.567a.491.504 0 0 1-.488.5H.29a22.397 22.977-180 0 0-.29 3.52 22.743 23.332-180 0 0 .26 3.31h17.69a.488.5 0 0 1 .472.51l.008 5.78a.457.469-180 0 0 .444.481.466.478-180 0 0 .36-.158l9.186-9.523a.425.436-180 0 0 .054-.62z" style="fill:#fff;fill-opacity:.8;stroke:none;stroke-width:34;stroke-linecap:butt"/></g></g></g></svg>