<svg xmlns="http://www.w3.org/2000/svg" xml:space="preserve" width="73.589" height="75.588" style="font-size:12px;overflow:visible;color-interpolation-filters:sRGB;fill-rule:evenodd;stroke-linecap:square;stroke-miterlimit:3" viewBox="0 0 55.192 56.691"><defs><linearGradient id="a" x1="-1.373" x2="48.117" y1="75.604" y2="75.604" gradientTransform="scale(1.00307 .99694)" gradientUnits="userSpaceOnUse"><stop offset="0" stop-color="#5ea0ef"/><stop offset="1" stop-color="#0078d4"/></linearGradient><linearGradient id="b" x1="0" x2="23.906" y1="101.14" y2="101.14" gradientTransform="scale(1.0027 .99731)" gradientUnits="userSpaceOnUse"><stop offset=".245" stop-color="#faa21d"/><stop offset="1" stop-color="#f78d1e"/></linearGradient></defs><g transform="translate(-33.997 -34.003)"><title>Page-1</title><g transform="translate(35.327 -34.016)"><title>Azure Firewall Web Category.18097</title><title>Sheet.18098</title><g transform="translate(.397 -7.087)"><title>Sheet.18099</title><path d="M48.17 102.16H32.12a4.021 4-180 0 0-3.83 3.05 5.402 5.373-180 0 0-.1 1.42h-.6a3.99 3.969-180 0 0-3.95 3.94v14.14a24.76 24.63 0 0 1-15.42-44.1l.25-.18a24.763 24.633 0 0 1 39.7 21.73" style="fill:url(#a);stroke:none;stroke-width:34;stroke-linecap:butt"/></g><g transform="translate(0 -6.74)"><title>Sheet.18100</title><path d="m46.51 89.21-.25-.47a25.051 24.92-180 0 0-19.09-13.73 6.985 6.948-180 0 0-1.17-.13c-.73-.06-1.46-.12-2.22-.12a23.183 23.061-180 0 0-2.57.12 6.434 6.4-180 0 0-1.36.22A25.143 25.011-180 0 0 1.3 88.74h-.05v.03a25.013 24.882-180 0 0 11.37 33.32 24.437 24.309-180 0 0 8.01 2.4.402.4-180 0 0 .19.032 26.685 26.545-180 0 0 3.2.188v-14.49a3.93 3.909 0 0 1 1.04-2.64V91.14h10.26a36.095 35.906 0 0 1 1.05 8.6c-.03.69-.07 1.38-.13 2.08h2.44c.06-.7.09-1.39.09-2.08a39.54 39.332-180 0 0-.98-8.6h6.94a22.376 22.258 0 0 1 1.61 10.68h2.44c.06-.7.09-1.39.09-2.08a24.82 24.69-180 0 0-2.36-10.53M2.82 91.13H9.4a39.54 39.332-180 0 0-.98 8.6 30.155 29.997-180 0 0 1.21 8H2.6a22.363 22.246 0 0 1 .22-16.59Zm1.17-2.39a22.692 22.573 0 0 1 10.96-9.79 29.338 29.184-180 0 0-4.91 9.79zm6.36 21.39a34.398 34.217-180 0 0 6.18 10.96 22.642 22.523 0 0 1-12.86-10.96zm2.6 0h9.72v12.12c-.41-.03-.82-.03-1.23-.06a24.731 24.602 0 0 1-8.49-12.06m-.79-2.4a27.746 27.6 0 0 1-1.3-8 34.512 34.33 0 0 1 1.01-8.6h10.8v16.6zm.38-18.99a18.51 18.413 0 0 1 7.95-11.31 17.025 16.935 0 0 1 2.18-.22v11.53Zm12.54-.03V77.24c.5 0 .98.07 1.49.1 2.56.94 6.04 5.04 8.1 11.37zm12.09.03a28.62 28.47-180 0 0-5.06-9.98 22.892 22.772 0 0 1 11.46 9.98z" style="fill:#8bc1fd;stroke:none;stroke-width:34;stroke-linecap:butt"/></g><g transform="translate(25.362)"><title>Sheet.18101</title><path d="M28.5 99.01v18.64a2.609 2.595 0 0 1-2.6 2.59h-1.93v1.89a2.615 2.602 0 0 1-2.63 2.58H2.63A2.634 2.62 0 0 1 0 122.13v-18.74a2.644 2.63 0 0 1 1.93-2.4 1.703 1.694 0 0 1 .7-.12h1.93v-1.86a2.634 2.62 0 0 1 2.6-2.62H25.9a2.514 2.5 0 0 1 1.84.79 2.612 2.598 0 0 1 .76 1.83" style="fill:#fff;stroke:none;stroke-width:34;stroke-linecap:butt"/></g><g transform="translate(29.922 -4.472)"><title>Sheet.18102</title><path d="M23.94 103.48v18.65a2.609 2.595 0 0 1-2.6 2.58H2.6a2.552 2.539 0 0 1-2.09-1.07 2.504 2.491 0 0 1-.51-1.51v-18.65a2.634 2.62 0 0 1 2.6-2.61h18.74a2.514 2.5 0 0 1 1.84.78 2.612 2.598 0 0 1 .76 1.83" style="fill:#d15900;stroke:none;stroke-width:34;stroke-linecap:butt"/></g><g transform="translate(25.362)"><title>Sheet.18103</title><path d="M23.97 103.48v18.65a2.615 2.602 0 0 1-2.63 2.58H2.63A2.634 2.62 0 0 1 0 122.13v-18.74a2.644 2.63 0 0 1 1.93-2.4 1.703 1.694 0 0 1 .7-.12h18.71a1.843 1.833 0 0 1 .6.09.46.457 0 0 1 .222.063 2.596 2.583 0 0 1 1.808 2.457" style="fill:url(#b);stroke:none;stroke-width:34;stroke-linecap:butt"/></g><g transform="translate(28.874 -5.54)"><title>Sheet.18104</title><path d="M16.32 122.19a.633.63 0 0 1 .602.63l-.002 1.26a.633.63 0 0 1-.605.63H4.84a.633.63 0 0 1-.602-.63l.002-1.26a.633.63 0 0 1 .605-.63zM.02 124.1a.614.611-180 0 0 .614.611l1.306-.001a.614.611-180 0 0 .614-.63l-.004-1.3a.614.611-180 0 0-.633-.611l-1.307.001a.614.611-180 0 0-.614.611zm4.82-7.03a.633.63-180 0 0-.605.63l.005 1.26a.633.63-180 0 0 .605.63H16.32a.633.63-180 0 0 .605-.63l-.005-1.26a.633.63-180 0 0-.605-.63zm-4.82 1.92a.614.611-180 0 0 .614.611l1.296-.001a.633.63-180 0 0 .633-.611l.007-1.299a.633.63-180 0 0-.633-.63H.63a.633.63-180 0 0-.614.63zm4.82-7.02a.633.63-180 0 0-.605.63l.005 1.26a.633.63-180 0 0 .605.63H16.32a.633.63-180 0 0 .605-.63l-.005-1.26a.633.63-180 0 0-.602-.63zm-4.82 1.89a.614.611-180 0 0 .614.63H1.93a.633.63-180 0 0 .633-.63l.007-1.3a.633.63-180 0 0-.633-.611l-1.307.001a.614.611-180 0 0-.614.611z" style="fill:#fff;stroke:none;stroke-width:34;stroke-linecap:butt"/></g></g></g></svg>