<svg xmlns="http://www.w3.org/2000/svg" xml:space="preserve" width="75.591" height="64.252" style="font-size:12px;overflow:visible;color-interpolation-filters:sRGB;fill-rule:evenodd;stroke-linecap:square;stroke-miterlimit:3" viewBox="0 0 56.693 48.189"><defs><linearGradient id="a" x1="0" x2="28.722" y1="61.668" y2="61.668" gradientTransform="scale(.91009 1.0988)" gradientUnits="userSpaceOnUse"><stop offset="0" stop-color="#ffd70f"/><stop offset=".12" stop-color="#fc1"/><stop offset=".44" stop-color="#feb517"/><stop offset=".75" stop-color="#fea61a"/><stop offset="1" stop-color="#fea11b"/></linearGradient></defs><g transform="translate(-17.116 -17.114)"><title>Page-1</title><g transform="translate(17.116 -34.016)"><title>Azure Firewall.18085</title><title>layer1</title><g transform="translate(0 -22.258)"><title>path4</title><path d="M45.48 73.39H1.92A1.828 1.817-180 0 0 0 75.24v22.27a1.828 1.817-180 0 0 1.86 1.81h24.12v-8.77a1.542 1.534 0 0 1 1.08-1.47h.4a15.4 15.312-180 0 0 10.05-3.63 7.308 7.266 0 0 1 2.18-.79 12.598 12.525 0 0 1 2.64-.37 12.347 12.277 0 0 1 2.65.25c.81.15 1.6.44 2.33.84V75.24a1.824 1.814-180 0 0-1.83-1.85M32.19 91.06v5.76h12.79v-5.76z" style="fill:#821010;stroke:none;stroke-width:17.11619949;stroke-linecap:butt"/></g><g transform="translate(2.678 -39.983)"><title>path6</title><path d="M0 93.685h12.818v5.637H0z" style="fill:#e62323;stroke:none;stroke-width:17.11619949;stroke-linecap:butt"/></g><g transform="translate(17.418 -39.983)"><title>path8</title><path d="M0 93.685h12.818v5.637H0z" style="fill:#ff7381;stroke:none;stroke-width:17.11619949;stroke-linecap:butt"/></g><g transform="translate(2.678 -32.434)"><title>path10</title><path d="M42.33 86.14H29.51v5.63h12.82ZM5.32 93.68H0v5.64h5.32z" style="fill:#e62323;stroke:none;stroke-width:17.11619949;stroke-linecap:butt"/></g><g transform="translate(9.953 -32.434)"><title>path12</title><path d="M35.02 93.68v1.13a12.347 12.277-180 0 0-2.64-.34 12.6 12.527-180 0 0-2.65.25v-1.03zm-22.2 0H0v5.64h12.82z" style="fill:#ff7381;stroke:none;stroke-width:17.11619949;stroke-linecap:butt"/></g><g transform="translate(2.678 -24.856)"><title>path14</title><path d="M34.83 86.11v1.91a15.4 15.312 0 0 1-10.04 3.63h-2.77v-5.54h12.82Zm-22.01 7.57H0v5.64h12.82z" style="fill:#e62323;stroke:none;stroke-width:17.11619949;stroke-linecap:butt"/></g><g transform="translate(17.418 -24.887)"><title>path16</title><path d="M8.57 93.68H0v5.64h8.57z" style="fill:#ff7381;stroke:none;stroke-width:17.11619949;stroke-linecap:butt"/></g><g transform="translate(28.063)"><title>path18</title><path d="M28.63 80.82c0 9.4-11.34 16.85-13.79 18.38a1.007 1.001 0 0 1-.95 0C11.34 97.7 0 90.22 0 80.82V69.64a.914.909 0 0 1 .882-.909C9.7 68.52 7.65 64.66 14.27 64.66c6.61 0 4.57 3.86 13.38 4.07a.914.909 0 0 1 .884.909z" style="fill:#dfa500;stroke:none;stroke-width:17.11619949;stroke-linecap:butt"/></g><g transform="translate(29.292 -1.652)"><title>path20</title><path d="M13.04 83.66v-15.9c6.08 0 4.19 3.54 12.28 3.75a.819.814 0 0 1 .819.814l.001 11.216Zm0 0H0c.79 8.05 10.45 14.44 12.6 15.66h.38z" style="fill:url(#a);stroke:none;stroke-width:17.11619949;stroke-linecap:butt"/></g><g transform="translate(29.292 -1.402)"><title>path22</title><path d="M.76 71.26c8.09-.21 6.29-3.75 12.28-3.75v15.9H0V72.08a.817.812 0 0 1 .755-.814Zm25.32 12.15H13.04v15.91h.35c2.26-1.44 11.9-7.7 12.69-15.91" style="fill:#ffd400;stroke:none;stroke-width:17.11619949;stroke-linecap:butt"/></g></g></g></svg>