<svg xmlns="http://www.w3.org/2000/svg" xml:space="preserve" width="60.466" height="75.585" style="font-size:12px;overflow:visible;color-interpolation-filters:sRGB;fill-rule:evenodd;stroke-linecap:square;stroke-miterlimit:3" viewBox="0 0 45.349 56.689"><defs><linearGradient id="a" x1="0" x2="46.509" y1="65.011" y2="65.011" gradientTransform="scale(.89424 1.11827)" gradientUnits="userSpaceOnUse"><stop offset="0" stop-color="#37c2b1"/><stop offset="1" stop-color="#258277"/></linearGradient></defs><g transform="translate(-34 -34.004)"><title>Page-1</title><g transform="translate(34 -34.016)"><title>Azure Firewall IDPS.18171</title><title>Sheet.18172</title><title>Sheet.18173</title><path d="M45.35 94.48c0 15.25-18.01 27.52-21.92 30.01a1.422 1.455 0 0 1-1.5 0C18.01 122 0 109.73 0 94.48V76.15a1.428 1.462 0 0 1 1.39-1.45c14.01-.38 10.79-6.68 21.29-6.68s7.26 6.3 21.27 6.68a1.428 1.462 0 0 1 1.4 1.45z" style="fill:#37c2b1;stroke:none;stroke-width:34;stroke-linecap:butt"/><g transform="translate(1.884 -2.329)"><title>Sheet.18174</title><path d="M41.59 96.98c0 13.99-16.52 25.24-20.11 27.53a1.299 1.33 0 0 1-1.37 0C16.51 122.22 0 110.96 0 96.98V80.16a1.302 1.332 0 0 1 1.27-1.34c12.85-.35 9.89-6.12 19.52-6.12s6.67 5.77 19.52 6.12a1.302 1.332 0 0 1 1.28 1.34z" style="fill:url(#a);stroke:none;stroke-width:34;stroke-linecap:butt"/></g><g transform="translate(6.95 -35.648)"><title>Sheet.18175</title><path d="M2.87 116.16a2.413 2.47-180 0 0-2.13 1.12A5.83 5.966-180 0 0 0 120.6a5.276 5.399-180 0 0 .71 3.05 2.266 2.318-180 0 0 1.97 1.06 2.423 2.479-180 0 0 2.11-1.11 5.458 5.585-180 0 0 .75-3.2c0-2.83-.89-4.24-2.67-4.24m-.07 7.49c-.96 0-1.45-1.04-1.45-3.11 0-2.21.49-3.32 1.48-3.32.92 0 1.39 1.09 1.39 3.27-.01 2.11-.49 3.16-1.42 3.16m7.48-7.54h.55v8.46H9.52v-6.82a4.057 4.152 0 0 1-.77.44 5.898 6.035 0 0 1-.92.31v-1.13c.22-.08.43-.15.62-.23.18-.09.4-.17.61-.27.21-.11.4-.22.62-.34s.38-.27.6-.42m6.03 0h.55v8.46h-1.31v-6.82a4.057 4.152 0 0 1-.76.44 5.898 6.035 0 0 1-.93.31v-1.13a10.79 11.04-180 0 0 1.25-.5c.21-.11.39-.22.6-.34.2-.12.39-.27.6-.42m6.43.05a2.41 2.466-180 0 0-2.13 1.12 5.83 5.966-180 0 0-.74 3.32 5.251 5.374-180 0 0 .7 3.05 2.256 2.309-180 0 0 1.97 1.06 2.429 2.485-180 0 0 2.11-1.11 5.46 5.588-180 0 0 .75-3.2c0-2.83-.89-4.24-2.66-4.24m-.09 7.49c-.97 0-1.45-1.04-1.45-3.11 0-2.21.49-3.32 1.47-3.32.93 0 1.4 1.09 1.4 3.27 0 2.11-.48 3.16-1.42 3.16m8.04-7.54v8.46h-1.31v-6.82a4.128 4.224 0 0 1-.76.44 6.116 6.259 0 0 1-.92.31v-1.13a10.79 11.04-180 0 0 1.24-.5 7.41 7.582-180 0 0 1.22-.76z" style="fill:#fff;stroke:none;stroke-width:34;stroke-linecap:butt"/></g><g transform="translate(13.91 -11.891)"><title>Sheet.18176</title><path d="M2.43 116.11h.56v8.46h-1.3v-6.82a4.128 4.224 0 0 1-.77.44 6.049 6.19 0 0 1-.92.31v-1.14a10.897 11.15-180 0 0 1.25-.5 7 7 0 0 0 .6-.33c.2-.13.37-.26.58-.42m5.41.42c-.2.12-.4.23-.59.34-.2.1-.4.18-.62.27-.22.08-.42.15-.63.23v1.14a6.049 6.19-180 0 0 .92-.32 4.128 4.224-180 0 0 .76-.44v6.83h1.31v-8.47h-.53c-.21.16-.42.3-.62.42m9.72 3.87a5.46 5.588 0 0 1-.75 3.2 2.423 2.479 0 0 1-2.11 1.11 2.26 2.312 0 0 1-1.97-1.06 5.276 5.399 0 0 1-.71-3.05 5.83 5.966 0 0 1 .74-3.32 2.413 2.47 0 0 1 2.14-1.12c1.77 0 2.66 1.41 2.66 4.24m-1.33.09c0-2.18-.47-3.27-1.4-3.27-.98 0-1.47 1.11-1.47 3.32 0 2.07.48 3.11 1.44 3.11.97 0 1.44-1.05 1.43-3.16" style="fill:#fff;fill-opacity:.8;stroke:none;stroke-width:34;stroke-linecap:butt"/></g><g transform="translate(10.001 -23.773)"><title>Sheet.18177</title><path d="M2.44 116.11H3v8.46H1.69v-6.82a4.328 4.429 0 0 1-.77.44 6.486 6.637 0 0 1-.92.32v-1.14c.22-.07.43-.15.63-.23a6.464 6.615-180 0 0 .62-.27c.19-.1.39-.21.59-.34.2-.12.39-.26.6-.42m9.1 4.29a5.458 5.585 0 0 1-.75 3.2 2.423 2.479 0 0 1-2.11 1.11 2.266 2.318 0 0 1-1.97-1.06A5.276 5.399 0 0 1 6 120.6a5.83 5.966 0 0 1 .74-3.32 2.413 2.47 0 0 1 2.13-1.12c1.78 0 2.67 1.41 2.67 4.24m-1.34.09c0-2.18-.46-3.26-1.39-3.26-.98 0-1.47 1.1-1.47 3.31 0 2.07.48 3.11 1.44 3.11s1.44-1.05 1.43-3.16zm5.45-3.96c-.2.13-.4.24-.59.34-.2.1-.4.19-.62.27s-.41.16-.63.23v1.14a6.24 6.385-180 0 0 .92-.31 4.248 4.347-180 0 0 .77-.45v6.83h1.31v-8.47h-.56c-.19.16-.4.3-.6.42m9.72 3.87a5.46 5.588 0 0 1-.75 3.2 2.429 2.485 0 0 1-2.11 1.11 2.26 2.312 0 0 1-1.97-1.06 5.276 5.399 0 0 1-.71-3.05 5.83 5.966 0 0 1 .74-3.32 2.41 2.466 0 0 1 2.13-1.12c1.78 0 2.67 1.41 2.67 4.24m-1.34.09c0-2.18-.46-3.26-1.39-3.26-.98 0-1.47 1.1-1.47 3.31 0 2.07.48 3.11 1.44 3.11s1.44-1.05 1.42-3.16" style="fill:#fff;fill-opacity:.9;stroke:none;stroke-width:34;stroke-linecap:butt"/></g></g></g></svg>