<svg xmlns="http://www.w3.org/2000/svg" xml:space="preserve" width="60.466" height="75.581" style="font-size:12px;overflow:visible;color-interpolation-filters:sRGB;fill-rule:evenodd;stroke-linecap:square;stroke-miterlimit:3" viewBox="0 0 45.349 56.686"><defs><linearGradient id="a" x1="0" x2="46.515" y1="65.018" y2="65.018" gradientTransform="scale(.89433 1.11815)" gradientUnits="userSpaceOnUse"><stop offset="0" stop-color="#42e8ca"/><stop offset="1" stop-color="#3cd4c2"/></linearGradient></defs><g transform="translate(-34 -34.004)"><title>Page-1</title><g transform="translate(34 -34.016)"><title>Azure Firewall Threat Intelligence.18133</title><title>Sheet.18134</title><title>Sheet.18135</title><path d="M45.35 94.48c0 15.25-18.01 27.52-21.93 30.01a1.42 1.452 0 0 1-1.49 0C18.01 122 0 109.73 0 94.48V76.15a1.426 1.459 0 0 1 1.39-1.46c14.01-.37 10.79-6.67 21.29-6.67 10.51 0 7.27 6.3 21.28 6.67a1.426 1.459 0 0 1 1.39 1.46z" style="fill:#3cd4c2;stroke:none;stroke-width:34;stroke-linecap:butt"/><g transform="translate(1.881 -2.335)"><title>Sheet.18136</title><path d="M41.59 96.99c0 13.98-16.52 25.23-20.11 27.52a1.293 1.323 0 0 1-1.37 0C16.52 122.22 0 110.96 0 96.99V80.16a1.306 1.336 0 0 1 1.27-1.33c12.85-.36 9.9-6.13 19.53-6.13 9.64 0 6.68 5.77 19.52 6.13a1.306 1.336 0 0 1 1.28 1.33z" style="fill:url(#a);stroke:none;stroke-width:34;stroke-linecap:butt"/></g><g transform="translate(.345 -24.312)"><title>Sheet.18137</title><path d="M28.41 113.92a4.779 4.89-180 0 0-4.66 3.83H6.81a3.08 3.15-180 0 0-1.91.69L0 122.48a21.247 21.738-180 0 0 .54 2.23l5.65-4.66a1.016 1.04 0 0 1 .63-.22h16.94a4.77 4.88-180 1 0 4.66-5.93zm0 7.67a2.734 2.798 0 1 1 2.73-2.79 2.737 2.8 0 0 1-2.73 2.79" style="fill:#fff;fill-opacity:.8;stroke:none;stroke-width:34;stroke-linecap:butt"/></g><g transform="translate(10.887 -15.23)"><title>Sheet.18138</title><path d="M28.28 121.47a3.08 3.15-180 0 0-1.91-.68H9.44a4.773 4.883-180 1 0 0 2.08h16.93a1.02 1.043 0 0 1 .64.23l1.96 1.61c.4-.56.79-1.14 1.16-1.72zm-23.49 3.15a2.734 2.798 0 1 1 2.73-2.79 2.737 2.8 0 0 1-2.73 2.8z" style="fill:#fff;stroke:none;stroke-width:34;stroke-linecap:butt"/></g><g transform="translate(9.4 -32.51)"><title>Sheet.18139</title><path d="m35.95 122.04-7.67-6.3a3.058 3.128-180 0 0-1.91-.69H9.44a4.773 4.883-180 1 0 0 2.08h16.93a1.035 1.059 0 0 1 .64.23l8.94 7.35zm-31.16-3.15a2.734 2.798 0 1 1 2.74-2.8 2.737 2.8 0 0 1-2.74 2.8" style="fill:#fff;fill-opacity:.6;stroke:none;stroke-width:34;stroke-linecap:butt"/></g></g></g></svg>