<svg xmlns="http://www.w3.org/2000/svg" xmlns:xlink="http://www.w3.org/1999/xlink" xml:space="preserve" width="60.466" height="75.588" style="font-size:12px;overflow:visible;color-interpolation-filters:sRGB;fill-rule:evenodd;stroke-linecap:square;stroke-miterlimit:3" viewBox="0 0 45.349 56.692"><defs><linearGradient id="b" x1="0" x2="50.671" y1="35.474" y2="35.474" gradientTransform="scale(.8938 1.11881)" gradientUnits="userSpaceOnUse"><stop offset=".22" stop-color="#32d4f5"/><stop offset="1" stop-color="#198ab3"/></linearGradient><linearGradient id="a" x1="0" x2="1" y1="0" y2="0" gradientTransform="rotate(-99.915 .5 .5)"><stop offset="0" stop-color="#ccc"/><stop offset="1" stop-color="#fcfcfc"/></linearGradient><linearGradient xlink:href="#a" id="c" x1="0" x2="8.103" y1="91.353" y2="91.353" gradientTransform="scale(1.03194 .96905)" gradientUnits="userSpaceOnUse"/><linearGradient xlink:href="#a" id="d" x1="0" x2="8.103" y1="91.353" y2="91.353" gradientTransform="scale(1.03194 .96905)" gradientUnits="userSpaceOnUse"/><linearGradient xlink:href="#a" id="e" x1="0" x2="8.103" y1="91.353" y2="91.353" gradientTransform="scale(1.03194 .96905)" gradientUnits="userSpaceOnUse"/></defs><g transform="translate(-4.536 -5.673)"><title>Page-1</title><g transform="translate(4.535 -34.016)"><title>Azure Information Protection.18077</title><title>Sheet.18078</title><path d="M42.95 66.92H39.6v-9.68a19.433 18.249-180 0 0-4.98-12.31 16.021 15.045-180 0 0-12.24-5.24A16.021 15.045-180 0 0 10 44.93a19.165 17.997-180 0 0-4.98 12.31v9.68H2.31A2.341 2.199-180 0 0 0 69.08v25.13a2.341 2.199-180 0 0 2.31 2.17h40.64a2.375 2.23-180 0 0 2.34-2.17V69.08a2.375 2.23-180 0 0-2.34-2.16m-11.28 0H13.08v-9.83a10.636 9.988 0 0 1 2.91-6.76 8.395 7.884 0 0 1 6.29-2.7 8.496 7.978 0 0 1 6.32 2.7 10.67 10.02 0 0 1 1.07 1.35 10.034 9.423 0 0 1 2.04 5.37z" style="fill:url(#b);stroke:none;stroke-width:.75;stroke-linecap:butt"/><g transform="translate(.87 -.66)"><title>Sheet.18079</title><path d="M42.18 67.58H1.47a2.208 2.073-180 0 0-1.47.53l43.65 28.27a2.241 2.104-180 0 0 .83-1.64V69.62a2.375 2.23-180 0 0-2.3-2.04" style="fill:#50e6ff;stroke:none;stroke-width:.75;stroke-linecap:butt"/></g><g transform="translate(.067 -.66)"><title>Sheet.18080</title><path d="M2.34 67.58h40.67a2.341 2.199 0 0 1 1.51.53L.84 96.38A2.341 2.199 0 0 1 0 94.74V69.62a2.408 2.261 0 0 1 2.34-2.04" style="fill:#fff;fill-opacity:.2;stroke:none;stroke-width:.75;stroke-linecap:butt"/></g><g transform="translate(9.967 -5.182)"><title>Sheet.18081</title><path d="M20.8 96.38 0 86.64 20.8 77l.94 1.82-16.89 7.82 16.89 7.95z" style="fill:#198ab3;stroke:none;stroke-width:.75;stroke-linecap:butt"/></g><g transform="translate(8.261 -10.93)"><title>Sheet.18082</title><ellipse cx="4.181" cy="92.452" rx="4.181" ry="3.926" style="fill:url(#c);stroke:none;stroke-width:.75;stroke-linecap:butt"/></g><g transform="translate(26.892 -19.348)"><title>Sheet.18083</title><ellipse cx="4.181" cy="92.452" rx="4.181" ry="3.926" style="fill:url(#d);stroke:none;stroke-width:.75;stroke-linecap:butt"/></g><g transform="translate(26.892 -2.167)"><title>Sheet.18084</title><ellipse cx="4.181" cy="92.452" rx="4.181" ry="3.926" style="fill:url(#e);stroke:none;stroke-width:.75;stroke-linecap:butt"/></g></g></g></svg>