<svg xmlns="http://www.w3.org/2000/svg" xml:space="preserve" width="56.693" height="75.585" style="font-size:12px;overflow:visible;color-interpolation-filters:sRGB;fill-rule:evenodd;stroke-linecap:square;stroke-miterlimit:3" viewBox="0 0 42.52 56.689"><g transform="translate(-39.6 -39.601)"><title>Page-1</title><g transform="translate(39.6 -39.6)"><title>Azure MultiFactor Authentication.18066</title><title> MFA_Icon</title><title>Sheet.18068</title><g transform="translate(7.087 -41.815)"><title>Sheet.18069</title><path d="M14.17 126.39a8.784 8.772 0 0 1 8.78 8.55c1.75.24 3.55.55 5.38.95.01-.24.02-.48.02-.72a14.175 14.154-180 1 0-28.35 0c0 .23.01.45.02.68 1.57-.34 3.38-.67 5.39-.93a8.784 8.772 0 0 1 8.76-8.53" style="fill:#0078d7;stroke:none;stroke-width:39.59999847;stroke-linecap:butt"/></g><title>Sheet.18070</title><path d="M0 98.73v5.31a34.621 34.57-180 0 0 21.26 31.85 34.621 34.57-180 0 0 21.26-31.85v-5.31a65.091 64.997-180 0 0-42.52 0m28.35 21.29H14.17v-.94a7.098 7.088 0 0 1 4.81-6.7 5.315 5.307 0 1 1 4.55 0 7.098 7.088 0 0 1 4.82 6.7z" style="fill:#0078d7;stroke:none;stroke-width:39.59999847;stroke-linecap:butt"/></g></g></svg>