<svg xmlns="http://www.w3.org/2000/svg" xml:space="preserve" width="75.107" height="41.16" style="font-size:12px;overflow:visible;color-interpolation-filters:sRGB;fill-rule:evenodd;stroke-linecap:square;stroke-miterlimit:3" viewBox="0 0 56.33 30.87"><g transform="translate(-12.239 -12.24)"><title>Page-1</title><g transform="translate(12.058 -34.016)"><title>Azure Firewall Secured Virtual Network.18154</title><title>Sheet.18155</title><title>Sheet.18156</title><path d="M56.13 62.46c.56-.53.45-1.39 0-1.93l-2.7-2.58-12.15-11.29c-.56-.54-1.35-.54-1.91 0s-.67 1.4 0 1.93l12.71 11.94c.56.54.56 1.4 0 1.93L39.15 74.83c-.57.54-.57 1.4 0 1.93.56.54 1.46.43 1.91 0l12.03-11.39.12-.11zm-55.57 0c-.56-.53-.45-1.39 0-1.93l2.7-2.58 12.15-11.29c.56-.54 1.35-.54 1.91 0 .57.54.68 1.4 0 1.93L4.84 60.53c-.57.54-.57 1.4 0 1.93l12.71 12.37c.56.54.56 1.4 0 1.93-.56.54-1.46.43-1.91 0L3.37 65.48l-.11-.11Z" style="fill:#3999c6;stroke:none;stroke-width:12.23999977;stroke-linecap:butt"/><g transform="translate(13.048 -12.257)"><title>Sheet.18157</title><path d="M7.65 73.75c0 2.05-1.8 3.55-3.71 3.55C2.02 77.3 0 75.58 0 73.75c0-1.82 1.57-3.54 3.94-3.54 2.25 0 3.71 1.72 3.71 3.54m11.36 0c0 2.05-1.8 3.55-3.71 3.55s-3.94-1.72-3.94-3.55c0-1.82 1.8-3.54 3.94-3.54s3.71 1.72 3.71 3.54" style="fill:#57a300;stroke:none;stroke-width:12.23999977;stroke-linecap:butt"/></g><g transform="translate(36.108 -12.257)"><title>Sheet.18158</title><ellipse cx="3.712" cy="73.754" rx="3.712" ry="3.548" style="fill:#57a300;stroke:none;stroke-width:12.23999977;stroke-linecap:butt"/></g></g></g></svg>