<svg xmlns="http://www.w3.org/2000/svg" xml:space="preserve" width="75.591" height="64.25" style="font-size:12px;overflow:visible;color-interpolation-filters:sRGB;fill-rule:evenodd;stroke-linecap:square;stroke-miterlimit:3" viewBox="0 0 56.693 48.188"><defs><linearGradient id="a" x1="-.003" x2="24.165" y1="102.567" y2="102.567" gradientTransform="scale(1.17434 .85154)" gradientUnits="userSpaceOnUse"><stop offset="0" stop-color="#b3b2b3"/><stop offset=".38" stop-color="#b6b5b5"/><stop offset=".61" stop-color="#bebdbe"/><stop offset=".8" stop-color="#cccbcb"/><stop offset=".96" stop-color="#e0e0df"/><stop offset="1" stop-color="#e5e5e4"/></linearGradient></defs><g transform="translate(-25.718 -25.717)"><title>Page-1</title><g transform="translate(25.718 -34.016)"><title>Azure Firewall Security Partner Provider.18140</title><title>layer1</title><g transform="translate(3.03 -39.068)"><title>path10-7</title><path d="M14.2 101.54H.06L0 107.88l14.43.04-.23-6.39z" style="fill:#e62323;stroke:none;stroke-width:25.71789932;stroke-linecap:butt"/></g><g transform="translate(19.162 -38.816)"><title>path12-3</title><path d="M14.33 101.29H.19l-.19 6.3 14.52.33-.19-6.64z" style="fill:#ff7381;stroke:none;stroke-width:25.71789932;stroke-linecap:butt"/></g><g transform="translate(3.086 -31.489)"><title>path14-3</title><path d="M46.67 93.96H32.53l-.04 6.73 14.99-.11-.62-6.62zm-40.78 8.01H0v5.95h5.89z" style="fill:#e62323;stroke:none;stroke-width:25.71789932;stroke-linecap:butt"/></g><g transform="translate(11.098 -31.489)"><title>path16-9</title><path d="M38.66 101.97h-5.89v5.95h5.89zm-24.52 0H0v5.95h14.14z" style="fill:#ff7381;stroke:none;stroke-width:25.71789932;stroke-linecap:butt"/></g><g transform="translate(2.836 -23.209)"><title>path18-1</title><path d="M38.67 93.69H24.53v5.95l15.65.14-.65-6.11zm-24.3 7.64-14.16.02-.21 6.57 14.47-.04.36-6.55z" style="fill:#e62323;stroke:none;stroke-width:25.71789932;stroke-linecap:butt"/></g><g transform="translate(19.07 -23.111)"><title>path20-0</title><path d="m14.42 101.5-14.29-.23-.13 6.6 14.66.05Z" style="fill:#ff7381;stroke:none;stroke-width:25.71789932;stroke-linecap:butt"/></g><g transform="translate(35.212 -23.208)"><title>path22-5</title><path d="M0 101.346h14.812v6.577H0z" style="fill:#e62323;stroke:none;stroke-width:27.65950012;stroke-linecap:butt"/></g><g transform="translate(0 -20.646)"><title>path8-5</title><path d="M50.28 107.92a1.983 2.006-180 0 0 2.03-1.95V82.34a1.983 2.006-180 0 0-2.03-1.96H2.03A1.98 2.004-180 0 0 0 82.34v23.63a1.98 2.004-180 0 0 2.03 1.95zm-.52-10.84h-5.89v-5.96h5.89zM35.81 83.11h14.14v6.16H35.81Zm5.88 8.01v5.96H27.36v-5.96Zm-22.34-8.01h14.14v6.16H19.35Zm5.89 8.01v5.96H11.1v-5.96ZM3.09 83.11h14.14v6.16H3.09Zm0 8.01h5.84v5.96H3.09Zm14.14 14.02H3.09v-6.11h14.14zm16.26 0H19.35v-6.11h14.14zm2.12 0v-6.11h14.15v6.01z" style="fill:#821010;stroke:none;stroke-width:25.71789932;stroke-linecap:butt"/></g><g transform="translate(28.512 -.305)"><title>path1202-0</title><ellipse cx="14.09" cy="93.666" rx="14.09" ry="14.258" style="fill:#e5e5e4;stroke:none;stroke-width:17.38680077;stroke-linecap:butt"/></g><g transform="translate(28.303)"><title>path20-06-7</title><path d="M28.35 91.86h-8.24a.317.32-180 0 0-.319.32L19.79 96a.38.385 0 0 1-.6.255l-6.33-6.415a.319.322 0 0 1 0-.448l2.03-2.052H1.55a13.624 13.786-180 0 0-1.53 6.41 12.237 12.382-180 0 0 0 1.54h8.37a.317.32-180 0 0 .317-.353l.003-3.907a.349.353 0 0 1 .602-.224l6.328 6.404a.349.353 0 0 1 0 .482l-6.33 6.418a.38.384 0 0 1-.604-.258L8.7 100.23a.315.32-180 0 0-.315-.353l-6.935.003a14.069 14.236-180 0 0 12.67 8.04 14.1 14.268-180 0 0 14.23-14.26 13.976 14.142-180 0 0 0-1.8" style="fill:url(#a);stroke:none;stroke-width:16.88559914;stroke-linecap:butt"/></g><g transform="translate(41.005 -11.499)"><title>path40-7-8</title><path d="M8.55 98.65H7.41a.287.29 0 0 1-.302-.192.285.289 0 0 1-.015-.129L7.09 94.67a.347.351-180 0 0-.602-.224L5 95.95 2.12 98.9l-2.03 2.05a.317.32-180 0 0 0 .45l6.34 6.42a.38.384-180 0 0 .666-.322l-.006-3.818a.317.32 0 0 1 .317-.32h8.243a13.69 13.852-180 0 0-1.39-4.71z" style="fill:#e62323;stroke:none;stroke-width:16.88559914;stroke-linecap:butt"/></g><g transform="translate(28.422 -3.55)"><title>path42-1-7</title><path d="M8.59 103.78v3.81a.377.382-180 0 0 .42.33.38.384-180 0 0 .18-.074l6.34-6.406a.349.353-180 0 0 0-.48l-6.34-6.42a.347.351-180 0 0-.535.034.347.351-180 0 0-.067.19l.002 3.816a.319.322 0 0 1-.317.353L0 98.94c.16 1.63.61 3.21 1.33 4.68h6.94a.315.32 0 0 1 .319.16z" style="fill:#fff;stroke:none;stroke-width:16.88559914;stroke-linecap:butt"/></g></g></g></svg>