<svg xmlns="http://www.w3.org/2000/svg" xml:space="preserve" width="75.585" height="52.922" style="font-size:12px;overflow:visible;color-interpolation-filters:sRGB;fill-rule:evenodd;stroke-linecap:square;stroke-miterlimit:3" viewBox="0 0 56.689 39.692"><g transform="translate(-25.718 -25.713)"><title>Page-1</title><g transform="translate(25.718 -34.016)"><title>Azure Firewall Policy.18159</title><title>layer1</title><g transform="translate(2.916 -30.732)"><title>path10-7</title><path d="M13.66 93.15H.05L0 99.38l13.88.04Z" style="fill:#e62323;stroke:none;stroke-width:25.71789932;stroke-linecap:butt"/></g><g transform="translate(18.437 -30.485)"><title>path12-3</title><path d="M13.79 92.9H.18L0 99.1l13.97.32Z" style="fill:#ff7381;stroke:none;stroke-width:25.71789932;stroke-linecap:butt"/></g><g transform="translate(2.97 -23.293)"><title>path14-3</title><path d="M44.9 85.71H31.3l-.04 6.61 14.42-.11-.59-6.5zM5.67 93.57H0v5.85h5.67v-5.84z" style="fill:#e62323;stroke:none;stroke-width:25.71789932;stroke-linecap:butt"/></g><g transform="translate(10.679 -23.293)"><title>path16-9</title><path d="M37.2 93.57h-5.67v5.85h5.67v-5.84zm-23.6 0H0v5.85h13.61v-5.84z" style="fill:#ff7381;stroke:none;stroke-width:25.71789932;stroke-linecap:butt"/></g><g transform="translate(2.729 -15.166)"><title>path18-1</title><path d="M37.2 85.45H23.6v5.84l15.06.13-.62-5.99zm-23.37 7.49L.2 92.96 0 99.42l13.92-.04.35-6.44Z" style="fill:#e62323;stroke:none;stroke-width:25.71789932;stroke-linecap:butt"/></g><g transform="translate(18.349 -15.07)"><title>path20-0</title><path d="M13.88 93.11.12 92.89 0 99.36l14.1.06Z" style="fill:#ff7381;stroke:none;stroke-width:25.71789932;stroke-linecap:butt"/></g><g transform="translate(33.88 -15.165)"><title>path22-5</title><path d="M0 92.963h14.252v6.456H0z" style="fill:#e62323;stroke:none;stroke-width:27.65950012;stroke-linecap:butt"/></g><g transform="translate(0 -12.65)"><title>path8-5</title><path d="M48.38 99.42a1.908 1.97-180 0 0 1.95-1.92V74.3a1.908 1.97-180 0 0-1.95-1.92H1.95A1.905 1.967-180 0 0 0 74.3v23.2a1.905 1.967-180 0 0 1.95 1.92zm-.51-10.65h-5.66v-5.84h5.66v5.85zm-13.42-13.7h13.61v6.04H34.45Zm5.67 7.86v5.84H26.33v-5.84zm-21.5-7.86h13.6v6.04h-13.6zm5.66 7.86v5.84h-13.6v-5.84ZM2.97 75.07h13.61v6.04H2.97Zm0 7.86h5.62v5.84H2.97Zm13.61 13.75H2.97v-5.99h13.61zm15.64 0h-13.6v-5.99h13.6zm2.05 0v-5.99h13.6v5.9z" style="fill:#821010;stroke:none;stroke-width:25.71789932;stroke-linecap:butt"/></g><g transform="translate(29.539)"><title>path18</title><path d="M27.15 78.71v2.96H0v16.94a.815.84-180 0 0 .845.81H26.22a.843.87-180 0 0 .875-.808L27.09 78.71ZM2.17 85.97a1.118 1.154 0 1 1 1.12 1.15 1.145 1.182 0 0 1-1.12-1.15m1.12 10.46a1.117 1.153 0 1 1 1.12-1.15 1.147 1.184 0 0 1-1.12 1.15m0-4.92a1.145 1.182 0 0 1-1.12-1.15 1.12 1.156 0 1 1 2.24 0 1.147 1.184 0 0 1-1.12 1.18zm20.85 4.24c0 .21-.31.4-.67.4H6.73c-.36 0-.67-.19-.67-.4v-1.1c0-.18.31-.37.67-.37h16.74c.36 0 .67.19.67.37zm0-4.93c0 .22-.31.41-.67.41H6.73c-.36 0-.67-.19-.67-.41v-.96c0-.22.31-.37.67-.37h16.74c.36 0 .67.15.67.37zm0-4.39c0 .22-.31.41-.67.41H6.73c-.36 0-.67-.19-.67-.41v-.96c0-.19.31-.38.67-.38h16.74c.36 0 .67.19.67.38z" style="fill:#e6e6e6;stroke:none;stroke-width:16.71080017;stroke-linecap:butt"/></g><g transform="translate(29.539 -2.99)"><title>path20</title><path d="M.88 80.89a.757.782-180 0 0-.875.778L0 84.63h27.15V81.7a.783.808-180 0 0-.815-.747L.88 80.95Zm22.59 11.58H6.73c-.37 0-.67.16-.67.38v.96c0 .22.3.41.67.41h16.74c.37 0 .67-.19.67-.41v-.96c0-.22-.31-.38-.67-.38m0-4.39H6.73c-.37 0-.67.19-.67.38v.96c0 .22.3.41.67.41h16.74c.37 0 .67-.19.67-.41v-.96c0-.16-.31-.38-.67-.38m0 9.31H6.73c-.37 0-.67.19-.67.38v.97c0 .21.3.4.67.4h16.74c.37 0 .67-.19.67-.4v-1.1s-.31-.24-.67-.24zM3.29 90.11a1.119 1.155-180 1 0 0-2.31 1.119 1.155-180 0 0 0 2.31m0 4.39a1.119 1.155-180 1 0 0-2.31 1.119 1.155-180 0 0 0 2.31m0 4.92a1.119 1.155-180 1 0 0-2.31 1.119 1.155-180 0 0 0 2.31" style="fill:#666;stroke:none;stroke-width:16.71080017;stroke-linecap:butt"/></g></g></g></svg>