<svg xmlns="http://www.w3.org/2000/svg" xml:space="preserve" width="77.208" height="77.225" style="font-size:12px;overflow:visible;color-interpolation-filters:sRGB;fill-rule:evenodd;stroke-linecap:square;stroke-miterlimit:3" viewBox="0 0 57.906 57.919"><defs><linearGradient id="a" x1="0" x2="27.09" y1="136.436" y2="136.436" gradientTransform="scale(1.29865 .77003)" gradientUnits="userSpaceOnUse"><stop offset="0" stop-color="#0078d4"/><stop offset=".775" stop-color="#5ea0ef"/></linearGradient><linearGradient id="b" x1="0" x2="6.432" y1="251.424" y2="251.424" gradientTransform="scale(2.04045 .49009)" gradientUnits="userSpaceOnUse"><stop offset="0" stop-color="#fff"/><stop offset="1" stop-color="#fff"/></linearGradient></defs><g transform="translate(-34.003 -33.996)"><title>Page-1</title><g transform="translate(35.22 -35.224)"><title>Azure Firewall Virtual Network.18105</title><title>g16</title><g transform="translate(2.912 -2.95)"><title>path2</title><path d="M41.84 102.59v.02l8.7-.2-.06-2.72-8.65.2v-.05l-7.22-.83v-7.88l-.02-.04 5.11-13.1-2.53-.98-5.15 13.19.01.01-5.53 6.4-8.7-6.46-.12-.09-5.09-13.05-2.53.98 5.15 13.19.06-.02 4.67 10.24-11.21-1.56-.06.09v-.04l-8.61-.2-.06 2.72 8.61.2.02-.93 5.68 1.82 1.13 3.83-.11 4.42-5.14 13.19 2.53.98 5.15-13.2-.42-.16 4.06-3.95 10.57 2.51 1.32 1.12-1.25.48 5.15 13.2 2.53-.98-5.14-13.19-.1.03.76-5.48z" style="fill:#9cebff;stroke:none;stroke-width:34;stroke-linecap:butt"/></g><title>path4</title><path d="M56.69 98.3a4.163 4.174 0 1 1-4.16-4.17 4.163 4.174 0 0 1 4.16 4.17M2.94 94.13a4.163 4.174-180 1 0 4.17 4.17 4.163 4.174-180 0 0-4.17-4.17m11.2 24.66a4.163 4.174-180 1 0 4.16 4.18 4.163 4.174-180 0 0-4.16-4.18m27.92 0a4.163 4.174-180 1 0 4.16 4.18 4.163 4.174-180 0 0-4.16-4.18M13.68 69.22a4.163 4.174-180 1 0 4.17 4.18 4.16 4.171-180 0 0-4.17-4.18m28.69 0a4.163 4.174-180 1 0 4.16 4.18 4.16 4.171-180 0 0-4.16-4.18" style="fill:#86d633;stroke:none;stroke-width:34;stroke-linecap:butt"/><g transform="translate(10.148 -13.27)"><title>path6</title><path d="M0 105.06h35.18v19.68a1.174 1.178 0 0 1-1.18 1.18H1.18a1.174 1.178 0 0 1-1.17-1.18v-19.68z" style="fill:url(#a);stroke:none;stroke-width:34;stroke-linecap:butt"/></g><g transform="translate(10.154 -34.127)"><title>path8</title><path d="M1.17 118.4h32.82a1.174 1.178 0 0 1 1.18 1.18v6.34H0v-6.34a1.174 1.178 0 0 1 1.17-1.18" style="fill:#0078d4;stroke:none;stroke-width:34;stroke-linecap:butt"/></g><g transform="translate(21.231 -23.38)"><title>path10</title><path d="M11.56 123.22a1.567 1.571 0 1 1-1.57 1.57 1.567 1.571 0 0 1 1.57-1.57M5 124.81a1.567 1.571-180 1 0 1.56-1.58A1.567 1.571-180 0 0 5 124.81m-5 0a1.567 1.571-180 1 0 1.57-1.58A1.567 1.571-180 0 0 0 124.81" style="fill:url(#b);stroke:none;stroke-width:34;stroke-linecap:butt"/></g><g transform="translate(15.594 -17.194)"><title>path12</title><path d="m8.34 124.9-.89.9a.405.406 0 0 1-.573 0L.24 119.17a.808.81 0 0 1 0-1.148l.89-.902 7.21 7.2a.405.406 0 0 1 0 .574zm14.82-7.8-7.21 7.21a.402.403-180 0 0 0 .574l.9.906a.402.403-180 0 0 .573 0l6.627-6.64a.81.813-180 0 0 0-1.148l-.9-.902Z" style="fill:#fff;stroke:none;stroke-width:34;stroke-linecap:butt"/></g><g transform="translate(15.594 -23.058)"><title>path14</title><path d="m7.32 117.32.89.9a.405.406 0 0 1 0 .574l-7.07 7.126-.9-.9a.808.81 0 0 1 0-1.148l6.5-6.552a.405.406 0 0 1 .58 0M24.05 125a.808.81-180 0 0 0-1.148l-6.5-6.552a.405.406-180 0 0-.573 0l-.907.91a.405.406-180 0 0 0 .574l7.08 7.126.89-.9z" style="fill:#fff;fill-opacity:.8;stroke:none;stroke-width:34;stroke-linecap:butt"/></g></g></g></svg>