<svg xmlns="http://www.w3.org/2000/svg" xml:space="preserve" width="75.587" height="75.587" style="font-size:12px;overflow:visible;color-interpolation-filters:sRGB;fill-rule:evenodd;stroke-linecap:square;stroke-miterlimit:3" viewBox="0 0 56.69 56.69"><g transform="translate(-38.25 -38.25)"><title>Page-1</title><g transform="translate(38.25 -38.25)"><title>BitLocker Key.18063</title><title>Sheet.18064</title><title>Sheet.18065</title><path d="M18.43 101.66c0-1.07-.36-2.13-.36-2.84a7.8 7.8 0 0 1-.35-2.83 27.3 27.3 0 0 1 .71-5.32 13.5 13.5 0 0 1 2.12-4.6 15.6 15.6 0 0 1 2.84-3.9l3.89-3.19 4.61-1.77 5.31-.71 5.32.71a13.5 13.5 0 0 1 4.61 2.12l3.89 2.84 3.19 3.9a24.5 24.5 0 0 1 1.77 4.6 27.3 27.3 0 0 1 .71 5.32 27.3 27.3 0 0 1-.71 5.31 24.5 24.5 0 0 1-1.77 4.61l-3.19 3.9-3.89 3.19-4.61 1.77-5.32.71-4.6-.71-4.25-1.42v5.67h-7.09v7.09h-7.09v7.08H0v-13.11ZM3.54 129.65h7.09v-7.09h7.09v-7.08h7.08v-7.09h2.48a11.7 11.7-180 0 0 4.61 2.48 14.2 14.2-180 0 0 5.31 1.06 13.8 13.8-180 0 0 6.38-1.41 14.9 14.9-180 0 0 4.96-3.19 14.9 14.9-180 0 0 3.19-4.96 13.8 13.8-180 0 0 1.42-6.38 11.7 11.7-180 0 0-1.42-6.03 13.5 13.5-180 0 0-3.19-5.31 14.9 14.9-180 0 0-4.96-3.19 13.8 13.8-180 0 0-6.38-1.42 11.7 11.7-180 0 0-6.02 1.42 13.5 13.5-180 0 0-5.31 3.19 14.9 14.9-180 0 0-3.19 4.96 13.8 13.8-180 0 0-1.42 6.38 9.9 9.9-180 0 0 .35 3.19l1.07 3.19L3.54 121.5Zm40.4-42.17 1.06.71c.35.36.71.71.71 1.07a2.13 2.13 0 0 1 .35 1.41 2.13 2.13 0 0 1-.35 1.42L45 93.15l-1.06.71H41.1l-1.06-.71-.71-1.06a2.13 2.13 0 0 1-.35-1.42 2.13 2.13 0 0 1 .35-1.41c0-.36.36-.71.71-1.07l1.06-.71z" style="fill:#000;stroke:none;stroke-width:38.25;stroke-linecap:butt"/></g></g></svg>