<svg xmlns="http://www.w3.org/2000/svg" xml:space="preserve" width="75.591" height="71.825" style="font-size:12px;overflow:visible;color-interpolation-filters:sRGB;fill-rule:evenodd;stroke-linecap:square;stroke-miterlimit:3" viewBox="0 0 56.693 53.868"><defs><linearGradient id="a" x1="0" x2="47.888" y1="96.388" y2="96.388" gradientTransform="scale(1.1838 .84473)" gradientUnits="userSpaceOnUse"><stop offset="0" stop-color="#0078d4"/><stop offset=".06" stop-color="#0a7cd7"/><stop offset=".34" stop-color="#2e8ce1"/><stop offset=".59" stop-color="#4897e9"/><stop offset=".82" stop-color="#589eed"/><stop offset="1" stop-color="#5ea0ef"/></linearGradient></defs><g transform="translate(-34 -33.998)"><title>Page-1</title><g transform="translate(34 -34.016)"><title>Cloud NGFW.18049</title><title>Sheet.18050</title><g transform="translate(0 -13.41)"><title>Sheet.18051</title><path d="M56.69 109.19a12.787 12.864-180 0 0-11.05-12.33A16.063 16.16-180 0 0 29.1 81.43a16.472 16.571-180 0 0-15.75 10.81A15.181 15.272-180 0 0 0 106.94a15.433 15.526-180 0 0 15.97 14.92h27.24c.23.02.47.02.7 0a12.913 12.99-180 0 0 12.78-12.67" style="fill:url(#a);stroke:none;stroke-width:34;stroke-linecap:butt"/></g><g transform="translate(.507 -14.258)"><title>Sheet.18052</title><path d="M56.11 111.19h-8.78v-8.92h5.94a12.753 12.83-180 0 0-1.78-1.78H40.24v-8.91h3.39a16.12 16.216-180 0 0-.97-1.78h-9.5v-7a16.104 16.2-180 0 0-.54-.13h-1.24v7.13h-12.4v-4.62a16.47 16.568-180 0 0-1.77 1.41v3.21h-2.72a16.472 16.571-180 0 0-1 1.78H24.3v8.91H11.89v-7.25a15.181 15.272-180 0 0-1.77.44v6.81H1.59a15.181 15.272-180 0 0-.89 1.79h2.34v8.91H0c.16.6.36 1.2.59 1.78h9.53v8.91h1.77v-8.91H24.3v8.91h1.77v-8.91h12.4v8.91h1.77v-8.91h12.4v5.7c.69-.73 1.28-1.53 1.78-2.37v-3.33h1.36a12.882 12.96-180 0 0 .33-1.78m-10.55-8.92v8.92H33.15v-8.92zm-7.09-10.69h-12.4v8.91h12.4zM4.81 111.19v-8.92h12.4v8.92zm26.57-8.92h-12.4v8.92h12.4z" style="fill:#00569b;stroke:none;stroke-width:34;stroke-linecap:butt"/></g><g transform="translate(12.4 -14.258)"><title>Sheet.18053</title><path d="M41.38 102.28c1.79 2.18 2.82 4.91 2.91 7.76a12.983 13.06 0 0 1-.08 1.15h-8.78v-8.92h5.95zM7.09 85.18l.03-.02a16.472 16.571 0 0 1 5.72-2.49h6.65v7.13H7.09Zm19.49 6.4H14.17v8.91h12.41ZM0 112.97h12.4v8.91H0Z" style="fill:#82b5ef;stroke:none;stroke-width:34;stroke-linecap:butt"/></g><g transform="translate(0 -13.415)"><title>Sheet.18054</title><path d="m43.93 98.43-.06-1.48a14.293 14.379-180 0 0-14.71-13.73h-.09a14.7 14.787-180 0 0-14.06 9.64l-.37 1.02-1.07.13a13.411 13.492-180 0 0-11.8 12.93 13.663 13.745-180 0 0 14.14 13.15h27.43c.15.01.29.01.43 0h.12a11.143 11.21-180 0 0 11.03-10.89 11.017 11.083-180 0 0-9.52-10.56Zm12.76 10.76a12.913 12.99 0 0 1-12.78 12.68 4.627 4.655 0 0 1-.7 0H15.97A15.433 15.526 0 0 1 0 106.94a15.181 15.272 0 0 1 13.35-14.7 16.472 16.571 0 0 1 15.75-10.8 16.063 16.16 0 0 1 16.54 15.43 12.787 12.864 0 0 1 11.05 12.32" style="fill:#00569b;stroke:none;stroke-width:34;stroke-linecap:butt"/></g><g transform="translate(26.576)"><title>Sheet.18055</title><ellipse cx="15.058" cy="106.733" rx="15.058" ry="15.149" style="fill:#f04e23;stroke:none;stroke-width:34;stroke-linecap:butt"/></g><g transform="translate(29.084 -6.312)"><title>Sheet.18056</title><path d="M9.03 104.21 0 113.06l3.6 3.53 9.03-8.85zm10.81 3.53-3.61-3.53-3.6 3.53 1.8 1.75-9.03 8.86 3.6 3.53 3.6-3.53-1.79-1.76zm-7.24 10.61 9.03-8.85 3.6 3.53-9.03 8.85z" style="fill:#fff;stroke:none;stroke-width:34;stroke-linecap:butt"/></g></g></g></svg>