<svg xmlns="http://www.w3.org/2000/svg" xml:space="preserve" width="75.586" height="62.267" style="font-size:12px;overflow:visible;color-interpolation-filters:sRGB;fill-rule:evenodd;stroke-linecap:square;stroke-miterlimit:3" viewBox="0 0 56.69 46.7"><defs><linearGradient id="a" x1="0" x2="46.371" y1="56.212" y2="56.212" gradientTransform="scale(1.22254 .81797)" gradientUnits="userSpaceOnUse"><stop offset="0" stop-color="#0078d4"/><stop offset=".065" stop-color="#0a7cd7"/><stop offset=".34" stop-color="#2e8ce1"/><stop offset=".595" stop-color="#4897e9"/><stop offset=".82" stop-color="#589eed"/><stop offset="1" stop-color="#5ea0ef"/></linearGradient></defs><g transform="translate(-5.67 -3.194)"><title>Page-1</title><g transform="translate(5.67 -34.016)"><title>Cloud App Security.18057</title><title>g8</title><g transform="translate(18.32 -22.533)"><title>path53</title><ellipse cx="10.633" cy="72.495" rx="10.633" ry="11.411" style="fill:none;stroke:#fea11b;stroke-width:2.68274999;stroke-linecap:butt"/></g><title>path6-9</title><path d="M49.91 61.85c.04-.5.07-1 .07-1.5 0-7.94-6.6-14.37-14.7-14.37-4.81 0-9.22 2.27-11.94 5.98a11.154 11.027-180 0 0-5.88-1.64c-6.12 0-11.11 4.89-11.11 10.89l.02.87C2.23 64.15 0 67.58 0 71.88c0 6.75 5.57 12.03 12.67 12.03h31.35c7.11 0 12.67-5.28 12.67-12.03 0-4.46-2.44-8.03-6.78-10.03" style="fill:url(#a);stroke:none;stroke-width:1.12564003;stroke-linecap:butt"/><g transform="translate(26.296 -18.06)"><title>path875</title><ellipse cx="2.505" cy="81.429" rx="2.505" ry="2.476" style="fill:#000;stroke:#000;stroke-width:3.22921991;stroke-linecap:butt"/></g><g transform="translate(26.69 -1.676)"><title>rect893</title><path d="M0 72.691h4.297v11.214H0z" style="fill:#000;stroke:#000;stroke-width:2.75991011;stroke-linecap:butt"/></g></g></g></svg>