<svg xmlns="http://www.w3.org/2000/svg" xmlns:xlink="http://www.w3.org/1999/xlink" xml:space="preserve" width="75.586" height="75.597" style="font-size:12px;overflow:visible;color-interpolation-filters:sRGB;fill-rule:evenodd;stroke-linecap:square;stroke-miterlimit:3" viewBox="0 0 56.69 56.698"><defs><linearGradient id="a" x1="0" x2="1" y1="0" y2="0"><stop offset="0" stop-color="#773adc"/><stop offset="1" stop-color="#552f99"/></linearGradient><linearGradient xlink:href="#a" id="b" x1="-.018" x2="5.099" y1="72.135" y2="72.135" gradientTransform="scale(.61996 1.61302)" gradientUnits="userSpaceOnUse"/><linearGradient xlink:href="#a" id="c" x1="-.018" x2="5.097" y1="72.155" y2="72.155" gradientTransform="scale(.62013 1.61256)" gradientUnits="userSpaceOnUse"/><linearGradient xlink:href="#a" id="d" x1="-.018" x2="5.099" y1="72.134" y2="72.134" gradientTransform="scale(.61995 1.61303)" gradientUnits="userSpaceOnUse"/></defs><g transform="translate(-34 -33.996)"><title>Page-1</title><g transform="translate(34 -34.016)"><title>Confidential Ledger.18041</title><title>Sheet.18042</title><g transform="translate(0 -14.148)"><title>Sheet.18043</title><path d="m40.47 89.27-12.12 7.12-12.13-7.12 12.13-7.11Zm-21.1 25.49-2.3-1.36-4.93-2.89L0 117.59l12.13 7.12 12.12-7.12zm25.2-4.26-4.95 2.9-2.3 1.36-4.88 2.83 9.8 5.76 2.33 1.36 1.13-.66 10.99-6.46z" style="fill:#b796f9;stroke:none;stroke-width:34;stroke-linecap:butt"/></g><title>Sheet.18044</title><path d="M28.35 82.25v14.11l-4.92-2.86-2.3-1.36-4.91-2.86V75.13l10.99 6.45zM0 103.46v14.14l12.14 7.11v-14.13zm42.25 5.75v-.04l-9.8-5.73v14.18l12.13 7.09v-14.14z" style="fill:#a67af4;stroke:none;stroke-width:34;stroke-linecap:butt"/><g transform="translate(36.444 -6.088)"><title>Sheet.18045</title><path d="M1.61 116.59a3.4 3.4 0 0 1 1.55 2.95.9.9 0 0 1-.781.904l-.079-.004.65 2.87.19.88c.07.34-.11.52-.37.36l-.44-.24-.43-.26-1.53-.87a.86.86 0 0 1-.375-.819c.285-.871.555-1.761.835-2.631.02-.09.02-.14-.06-.25a3.12 3.12 0 0 1-.75-2.2c.07-.69.43-1 1.02-.91a1.7 1.7 0 0 1 .57.22" style="fill:url(#b);stroke:none;stroke-width:34;stroke-linecap:butt"/></g><g transform="translate(12.139)"><title>Sheet.18046</title><path d="M28.35 75.13v14.14l-4.92 2.87-2.3 1.35-4.92 2.87V82.21ZM2.33 109.17v.04L0 110.56v14.15l12.13-7.09v-14.17zm30.11 1.38v14.16l12.11-7.11v-14.14zm-20.33-1.31v2.67h8.19v-2.67zM9 92.14l-4.07 7.11 2.3 1.36 4.06-7.12zm14.42 0-2.3 1.35 4.06 7.12 2.3-1.36z" style="fill:#773adc;stroke:none;stroke-width:34;stroke-linecap:butt"/></g><g transform="translate(20.224 -34.406)"><title>Sheet.18047</title><path d="M1.61 116.6a3.4 3.4 0 0 1 1.55 2.94.9.9 0 0 1-.778.9H2.3l.65 2.87.19.88c.07.3-.11.52-.37.36l-.44-.24-.43-.26-1.53-.88a.86.86 0 0 1-.375-.819c.285-.871.555-1.751.835-2.631.02-.09.02-.14-.06-.25a3.12 3.12 0 0 1-.75-2.2c.07-.68.43-.99 1.02-.9a1.7 1.7 0 0 1 .57.23" style="fill:url(#c);stroke:none;stroke-width:34;stroke-linecap:butt"/></g><g transform="translate(4.003 -6.088)"><title>Sheet.18048</title><path d="M1.61 116.59a3.41 3.41 0 0 1 1.55 2.95.9.9 0 0 1-.778.904l-.082-.004.65 2.87.19.88c.08.34-.11.52-.37.36l-.44-.24-.43-.26-1.53-.87a.86.86 0 0 1-.375-.819c.285-.871.555-1.761.835-2.631.03-.09.02-.14-.06-.25a3.12 3.12 0 0 1-.75-2.2c.07-.69.43-1 1.02-.91a1.8 1.8 0 0 1 .57.22" style="fill:url(#d);stroke:none;stroke-width:34;stroke-linecap:butt"/></g></g></g></svg>