<svg xmlns="http://www.w3.org/2000/svg" xml:space="preserve" width="56.693" height="75.591" style="font-size:12px;overflow:visible;color-interpolation-filters:sRGB;fill-rule:evenodd;stroke-linecap:square;stroke-miterlimit:3" viewBox="0 0 42.52 56.693"><g transform="translate(-12.24 -12.241)"><title>Page-1</title><g transform="translate(12.24 -34.016)"><title>DDoS Protection.18023</title><title>g20</title><title>path2</title><path d="M36.18 53.01c-12.78-1.37-14.92-6.75-14.92-6.75S18.38 53.33 0 53.33v29.04c0 3.51 2 6.8 4.76 9.68 6.27 6.51 16.5 10.9 16.5 10.9s21.26-9.11 21.26-20.58V53.33c-2.36 0-4.47-.11-6.34-.32" style="fill:#57a300;stroke:none;stroke-width:12.23999977;stroke-linecap:butt"/><g transform="translate(11.98 -12.472)"><title>path4</title><path d="M18.56 101.34c0 .89-.72 1.61-1.6 1.61H1.6c-.88 0-1.6-.72-1.6-1.61V72.81c0-.89.72-1.61 1.6-1.61h15.36c.88 0 1.6.72 1.6 1.61z" style="fill:#000;stroke:none;stroke-width:12.23999977;stroke-linecap:butt"/></g><g transform="translate(14.624 -37.09)"><title>path6</title><path d="M0 100.92c0-1.12.9-2.02 2.02-2.02h9.23c1.12 0 2.02.9 2.02 2.02s-.9 2.03-2.02 2.03H2.02c-1.12 0-2.02-.91-2.02-2.03" style="fill:#000;stroke:none;stroke-width:12.23999977;stroke-linecap:butt"/></g><g transform="translate(15.374 -37.758)"><title>ellipse8</title><ellipse cx="1.354" cy="101.588" rx="1.354" ry="1.361" style="fill:#000;stroke:none;stroke-width:12.23999977;stroke-linecap:butt"/></g><g transform="translate(14.624 -31.422)"><title>path10</title><path d="M0 100.92c0-1.12.9-2.02 2.02-2.02h9.23c1.12 0 2.02.9 2.02 2.02s-.9 2.03-2.02 2.03H2.02c-1.12 0-2.02-.91-2.02-2.03" style="fill:#000;stroke:none;stroke-width:12.23999977;stroke-linecap:butt"/></g><g transform="translate(15.374 -32.088)"><title>ellipse12</title><ellipse cx="1.354" cy="101.588" rx="1.354" ry="1.361" style="fill:#000;stroke:none;stroke-width:12.23999977;stroke-linecap:butt"/></g><g transform="translate(14.624 -25.752)"><title>path14</title><path d="M0 100.92c0-1.12.9-2.02 2.02-2.02h9.23c1.12 0 2.02.9 2.02 2.02s-.9 2.03-2.02 2.03H2.02c-1.12 0-2.02-.91-2.02-2.03" style="fill:#000;stroke:none;stroke-width:12.23999977;stroke-linecap:butt"/></g><g transform="translate(15.374 -26.419)"><title>ellipse16</title><ellipse cx="1.354" cy="101.588" rx="1.354" ry="1.361" style="fill:#000;stroke:none;stroke-width:12.23999977;stroke-linecap:butt"/></g><g transform="translate(0 -10.903)"><title>path18</title><path d="m26.52 75.92 9.66-12c-12.78-1.38-14.92-6.76-14.92-6.76S18.38 64.24 0 64.24v29.03c0 3.52 2 6.8 4.76 9.68l7.14-8.87z" style="fill:#8a0;stroke:none;stroke-width:12.23999977;stroke-linecap:butt"/></g><g transform="translate(11.98 -12.472)"><title>path4-0</title><path d="M18.56 101.34c0 .89-.72 1.61-1.6 1.61H1.6c-.88 0-1.6-.72-1.6-1.61V72.81c0-.89.72-1.61 1.6-1.61h15.36c.88 0 1.6.72 1.6 1.61z" style="fill:#000;stroke:none;stroke-width:12.23999977;stroke-linecap:butt"/></g><g transform="translate(14.624 -39.118)"><title>rect45</title><path d="M0 100.546h2.458v2.402H0z" style="fill:#0f0;stroke:none;stroke-width:12.23999977;stroke-linecap:butt"/></g><g transform="translate(14.624 -35.624)"><title>rect45-7</title><path d="M0 100.546h2.458v2.402H0z" style="fill:#0f0;stroke:none;stroke-width:12.23999977;stroke-linecap:butt"/></g><g transform="translate(14.624 -32.13)"><title>rect45-7-8</title><path d="M0 100.546h2.458v2.402H0z" style="fill:#0f0;stroke:none;stroke-width:12.23999977;stroke-linecap:butt"/></g><g transform="translate(18.188 -39.118)"><title>rect45-78</title><path d="M0 100.546h9.67v2.402H0z" style="fill:#4d4d4d;stroke:none;stroke-width:24.27869987;stroke-linecap:butt"/></g><g transform="translate(18.188 -35.624)"><title>rect45-7-2</title><path d="M0 100.546h9.67v2.402H0z" style="fill:#4d4d4d;stroke:none;stroke-width:24.27869987;stroke-linecap:butt"/></g><g transform="translate(18.188 -32.13)"><title>rect45-7-8-8</title><path d="M0 100.546h9.67v2.402H0z" style="fill:#4d4d4d;stroke:none;stroke-width:24.27869987;stroke-linecap:butt"/></g></g></g></svg>