<svg xmlns="http://www.w3.org/2000/svg" xml:space="preserve" width="68.287" height="68.029" style="font-size:12px;overflow:visible;color-interpolation-filters:sRGB;fill-rule:evenodd;stroke-linecap:square;stroke-miterlimit:3" viewBox="0 0 51.215 51.022"><defs><linearGradient id="a" x1="5.551" x2="25.266" y1="98.284" y2="98.284" gradientTransform="scale(1.0064 .99364)" gradientUnits="userSpaceOnUse"><stop offset="0" stop-color="#dfa500"/><stop offset=".28" stop-color="#efb700"/><stop offset=".51" stop-color="#ffca00"/><stop offset="1" stop-color="#e1a800"/></linearGradient><linearGradient id="b" x1="0" x2="33.255" y1="66.417" y2="66.417" gradientTransform="scale(.85009 1.17635)" gradientUnits="userSpaceOnUse"><stop offset=".045" stop-color="#e2e3e4"/><stop offset="1" stop-color="#aaa"/></linearGradient></defs><g transform="translate(-32.21 -32.214)"><title>Page-1</title><g transform="translate(26.623 -34.016)"><title>Defender for Cloud Coverage.18015</title><title>Sheet.18016</title><g transform="translate(5.662)"><title>Sheet.18017</title><path d="M0 66.23h51.03v51.02H0Z" style="fill:none;stroke:none;stroke-width:32.21049881;stroke-linecap:butt"/></g><g transform="translate(0 -20.282)"><title>Sheet.18018</title><path d="M11.63 98.14a2.69 2.69 0 0 1 3.18.08l9.48 7.07a2.835 2.835 0 0 1-.04 4.57l-9.52 6.87a2.55 2.55 0 0 1-3 .06c-3.64-2.67-11.73-10.26-.1-18.65" style="fill:url(#a);stroke:none;stroke-width:32.21049881;stroke-linecap:butt"/></g><g transform="translate(26.695 -3.402)"><title>Sheet.18019</title><path d="m28.27 116.91-4.13-38.78h-20L0 117.25h28.27z" style="fill:url(#b);stroke:none;stroke-width:32.21049881;stroke-linecap:butt"/></g><g transform="translate(28.517 -38.778)"><title>Sheet.18020</title><path d="m18.87 110.11-2.76-2.04-.32-.26a5.67 5.67-180 0 0-7.01-.09l-8.16 6.26a1.823 1.823-180 0 0 1.1 3.27h20.83a1.84 1.84-180 0 0 1.15-3.27z" style="fill:#0078d4;stroke:none;stroke-width:32.21049881;stroke-linecap:butt"/></g><g transform="translate(37.378 -26.192)"><title>Sheet.18021</title><path d="M7.25 112.83a3.8 3.8-180 0 0-3.79-3.74A3.515 3.515-180 0 0 0 112.83v4.42h7.24z" style="fill:#3c3b41;stroke:none;stroke-width:32.21049881;stroke-linecap:butt"/></g><g transform="translate(24.971)"><title>Sheet.18022</title><path d="M8.28 110.11H3.57a3.572 3.572-180 1 0 0 7.14h24.58a3.572 3.572-180 1 0 0-7.14z" style="fill:#0078d4;stroke:none;stroke-width:32.21049881;stroke-linecap:butt"/></g></g></g></svg>