<svg xmlns="http://www.w3.org/2000/svg" xml:space="preserve" width="56.693" height="75.59" style="font-size:12px;overflow:visible;color-interpolation-filters:sRGB;fill-rule:evenodd;stroke-linecap:square;stroke-miterlimit:3" viewBox="0 0 42.52 56.693"><g transform="translate(-12.24 -12.241)"><title>Page-1</title><g transform="translate(12.24 -34.016)"><title>Defender for Cloud.18010</title><title>Sheet.18011</title><title>Sheet.18012</title><path d="M36.18 53.01c-12.78-1.37-14.92-6.75-14.92-6.75S18.38 53.33 0 53.33v29.04c0 3.51 2 6.8 4.76 9.68 6.27 6.51 16.5 10.9 16.5 10.9s21.26-9.1 21.26-20.58V53.33c-2.36 0-4.47-.11-6.34-.32" style="fill:#57a300;stroke:none;stroke-width:12.23999977;stroke-linecap:butt"/><g transform="translate(0 -10.903)"><title>Sheet.18013</title><path d="m26.52 75.92 9.66-12c-12.78-1.38-14.92-6.76-14.92-6.76S18.38 64.24 0 64.24v29.03c0 3.52 2 6.8 4.76 9.68l7.14-8.87z" style="fill:#b8d432;fill-opacity:.4;stroke:none;stroke-width:12.23999977;stroke-linecap:butt"/></g><g transform="translate(11.9 -16.494)"><title>Sheet.18014</title><path d="M17.79 90.48h-1.24v-4.02a7.769 7.593-180 0 0-1.93-5.05c-.05-.05-.09-.1-.13-.15a7.1 7.1 0 0 0-5.13-2.21c-2.01 0-3.84.86-5.13 2.21a7.769 7.593-180 0 0-2.07 5.19v4.03H.93a.928.907-180 0 0-.93.908v10.652c0 .5.42.91.93.91h16.86a.93.908-180 0 0 .93-.908V91.39a.93.908-180 0 0-.93-.91m-4.65 0H5.58v-4.02c0-1.16.45-2.19 1.15-2.92s1.62-1.15 2.63-1.15 1.93.42 2.63 1.15q.255.27.45.57c.44.66.7 1.46.7 2.34z" style="fill:#fff;stroke:none;stroke-width:12.23999977;stroke-linecap:butt"/></g></g></g></svg>