<svg xmlns="http://www.w3.org/2000/svg" xml:space="preserve" width="76.71" height="76.713" style="font-size:12px;overflow:visible;color-interpolation-filters:sRGB;fill-rule:evenodd;stroke-linecap:square;stroke-miterlimit:3" viewBox="0 0 57.533 57.535"><g transform="translate(-12.24 -12.24)"><title>Page-1</title><g transform="translate(12.24 -34.016)"><title>File Integrity Monitoring.17996</title><title>Sheet.17997</title><g transform="translate(0 -2.745)"><title>Sheet.17998</title><path d="m46.4 56.34-5.3-5.18L38.89 49H0v53.95h48.61V58.5Z" style="fill:#59b4d9;stroke:none;stroke-width:12.23999977;stroke-linecap:butt"/></g><g transform="translate(2.21 -4.903)"><title>Sheet.17999</title><path d="M36.46 53.32H0v49.63h44.2V60.87h-7.74z" style="fill:#fff;fill-opacity:.8;stroke:none;stroke-width:12.23999977;stroke-linecap:butt"/></g><g transform="translate(9.354 -13.21)"><title>Sheet.18000</title><path d="M19.15 101.76a1.226 1.197 0 0 1-1.21 1.19H1.25a1.219 1.19 0 1 1 0-2.38h16.69a1.226 1.197 0 0 1 1.21 1.19m11.16-16.18a1.227 1.199 0 0 1-1.21 1.18H1.25a1.216 1.187 0 0 1 0-2.37h27.74a1.254 1.225 0 0 1 1.32 1.19m0 8.09a1.227 1.199 0 0 1-1.21 1.19H1.25a1.219 1.19 0 1 1 0-2.38h27.74a1.254 1.225 0 0 1 1.32 1.19m0-16.18a1.227 1.199 0 0 1-1.21 1.18H1.25a1.216 1.187 0 0 1 0-2.37h27.74a1.254 1.225 0 0 1 1.32 1.19" style="fill:#59b4d9"/><path d="M19.15 101.76a1.226 1.197 0 0 1-1.21 1.19H1.25a1.219 1.19 0 1 1 0-2.38h16.69a1.226 1.197 0 0 1 1.21 1.19m11.16-16.18a1.227 1.199 0 0 1-1.21 1.18H1.25a1.216 1.187 0 0 1 0-2.37h27.74a1.254 1.225 0 0 1 1.32 1.19m0 8.09a1.227 1.199 0 0 1-1.21 1.19H1.25a1.219 1.19 0 1 1 0-2.38h27.74a1.254 1.225 0 0 1 1.32 1.19m0-16.18a1.227 1.199 0 0 1-1.21 1.18H1.25a1.216 1.187 0 0 1 0-2.37h27.74a1.254 1.225 0 0 1 1.32 1.19" style="stroke:none;stroke-width:12.23999977;stroke-linecap:butt"/></g><g transform="translate(27.476)"><title>Sheet.18001</title><path d="M0 87.68a11.232 10.97-180 0 0 13.6 8.03 11.032 10.773-180 0 0 2.95-1.18l8.55 8.42a2.898 2.83-180 0 0 4.12-3.98l-8.6-8.46A11.224 10.961-180 1 0 0 87.68m4.17-6.61a7.822 7.639 0 0 1 4.86-3.49 7.875 7.69 0 1 1-5.76 9.31 7.818 7.635 0 0 1 .9-5.82" style="fill:#00188f;stroke:none;stroke-width:12.23999977;stroke-linecap:butt"/></g><g transform="translate(44.027 -7.619)"><title>Sheet.18002</title><path d="m0 102.15.81.8a4.495 4.39-180 0 0 .62-.27 12.414 12.123-180 0 0 3.21-3.17c.12-.16.22-.33.33-.5l-.09-.09-.81-.79c-.14.24-.28.48-.44.71a11.229 10.966 0 0 1-2.9 2.86c-.24.16-.48.31-.73.45" style="fill:#1e1e1e;fill-opacity:.5;stroke:none;stroke-width:12.23999977;stroke-linecap:butt"/></g></g></g></svg>