<svg xmlns="http://www.w3.org/2000/svg" xml:space="preserve" width="75.592" height="60.492" style="font-size:12px;overflow:visible;color-interpolation-filters:sRGB;fill-rule:evenodd;stroke-linecap:square;stroke-miterlimit:3" viewBox="0 0 56.694 45.369"><defs><linearGradient id="a" x1="0" x2="27.565" y1="74.202" y2="74.202" gradientTransform="scale(.90557 1.10428)" gradientUnits="userSpaceOnUse"><stop offset="0" stop-color="#ffd70f"/><stop offset=".12" stop-color="#fc1"/><stop offset=".44" stop-color="#feb517"/><stop offset=".75" stop-color="#fea61a"/><stop offset="1" stop-color="#fea11b"/></linearGradient></defs><g transform="translate(-32.995 -32.994)"><title>Page-1</title><g transform="translate(32.996 -34.016)"><title>Firewall Manager.17980</title><title>g45</title><g transform="translate(0 -20.588)"><title>path17</title><path d="M24.9 102.68c0-.66.3-.98.97-.98 9.2-.36 7.21-4.24 13.8-4.24a7.91 7.847 0 0 1 5.2 1.52V89.4a1.383 1.373-180 0 0-1.5-1.79H1.86A1.744 1.73-180 0 0 0 89.4v21.19a1.955 1.94-180 0 0 1.8 1.79h23.1z" style="fill:#821010;stroke:none;stroke-width:32.99499893;stroke-linecap:butt"/></g><g transform="translate(2.767 -37.596)"><title>rect19</title><path d="M0 107.007h12.331v5.371H0z" style="fill:#e62323;stroke:none;stroke-width:32.99499893;stroke-linecap:butt"/></g><g transform="translate(16.602 -37.596)"><title>rect21</title><path d="M0 107.007h12.331v5.371H0z" style="fill:#ff7381;stroke:none;stroke-width:32.99499893;stroke-linecap:butt"/></g><g transform="translate(30.738 -37.596)"><title>rect23</title><path d="M0 107.007h12.331v5.371H0z" style="fill:#e62323;stroke:none;stroke-width:32.99499893;stroke-linecap:butt"/></g><g transform="translate(2.767 -30.137)"><title>rect25</title><path d="M0 107.007h5.113v5.371H0z" style="fill:#e62323;stroke:none;stroke-width:32.99499893;stroke-linecap:butt"/></g><g transform="translate(9.684 -30.137)"><title>rect27</title><path d="M0 107.007h12.331v5.371H0z" style="fill:#ff7381;stroke:none;stroke-width:32.99499893;stroke-linecap:butt"/></g><g transform="translate(23.52 -30.137)"><title>path29</title><path d="M0 112.38h1.38c0-.66.3-.99.97-.99 6.73-.24 7.48-2.38 9.98-3.52v-.86H0Z" style="fill:#e62323;stroke:none;stroke-width:32.99499893;stroke-linecap:butt"/></g><g transform="translate(2.767 -22.976)"><title>rect31</title><path d="M0 107.007h12.331v5.371H0z" style="fill:#e62323;stroke:none;stroke-width:32.99499893;stroke-linecap:butt"/></g><g transform="translate(16.602 -22.976)"><title>rect33</title><path d="M0 107.007h8.301v5.371H0z" style="fill:#ff7381;stroke:none;stroke-width:32.99499893;stroke-linecap:butt"/></g><g transform="translate(23.309)"><title>rect35</title><path d="M0 79.257h33.384v33.121H0z" style="fill:none;stroke:none;stroke-width:32.99499893;stroke-linecap:butt"/></g><g transform="translate(26.316 -.709)"><title>path37</title><path d="M27.37 94.74c0 8.95-10.38 16.8-13.2 17.57a1.744 1.73 0 0 1-.97 0C10.38 111.54 0 103.66 0 94.74V83.99a.812.806 0 0 1 .902-.895C9.32 82.8 7.52 79.22 13.53 79.22c6.02 0 4.21 3.58 12.64 3.88a.812.806 0 0 1 .902.895z" style="fill:#dfa500;stroke:none;stroke-width:32.99499893;stroke-linecap:butt"/></g><g transform="translate(27.52 -1.94)"><title>path39</title><path d="M12.33 97.16V81.94c5.72 0 3.91 3.29 11.73 3.58a.962.955 0 0 1 .902.895L24.96 96.86Zm0 0H0c.6 7.76 9.93 13.73 12.03 14.92l.6.3z" style="fill:url(#a);stroke:none;stroke-width:32.99499893;stroke-linecap:butt"/></g><g transform="translate(27.52 -17.008)"><title>path41</title><path d="M.6 100.74c7.82-.3 6.02-3.58 11.73-3.58v15.22H0v-10.89c0-.6.3-.75.6-.75" style="fill:#ffd400;stroke:none;stroke-width:32.99499893;stroke-linecap:butt"/></g><g transform="translate(39.85 -1.94)"><title>path43</title><path d="M12.63 96.86 0 97.16l.3 15.22h.3c2.11-1.49 11.13-7.76 12.03-15.52" style="fill:#ffd400;stroke:none;stroke-width:32.99499893;stroke-linecap:butt"/></g></g></g></svg>