<svg xmlns="http://www.w3.org/2000/svg" xml:space="preserve" width="75.592" height="75.582" style="font-size:12px;overflow:visible;color-interpolation-filters:sRGB;fill-rule:evenodd;stroke-linecap:square;stroke-miterlimit:3" viewBox="0 0 56.694 56.687"><defs><linearGradient id="a" x1="0" x2="45.84" y1="92.668" y2="92.668" gradientTransform="scale(1.03992 .9616)" gradientUnits="userSpaceOnUse"><stop offset="0" stop-color="#5ea0ef"/><stop offset="1" stop-color="#0078d4"/></linearGradient><linearGradient id="b" x1="0" x2="37.56" y1="84.603" y2="84.603" gradientTransform="scale(.9172 1.09027)" gradientUnits="userSpaceOnUse"><stop offset="0" stop-color="#5e9624"/><stop offset=".26" stop-color="#70a828"/><stop offset=".79" stop-color="#9fd732"/><stop offset="1" stop-color="#b4ec36"/></linearGradient></defs><g transform="translate(-38.25 -38.254)"><title>Page-1</title><g transform="translate(38.25 -38.25)"><title>Global Rulestack.17976</title><title>Sheet.17977</title><g transform="translate(0 -12.606)"><title>Sheet.17978</title><path d="M2.68 89.11A2.681 2.657-180 0 0 0 91.76v3.64h47.67v-3.64a2.681 2.657-180 0 0-2.69-2.65zm44.99 11.02H0V108h47.67ZM0 120.6v-7.88h47.67v7.88zm47.67 4.72H0v5.22c0 1.47 1.2 2.65 2.68 2.65h42.3a2.681 2.657-180 0 0 2.69-2.65z" style="fill:url(#a);stroke:none;stroke-width:38.25;stroke-linecap:butt"/></g><g transform="translate(22.244)"><title>Sheet.17979</title><path d="M34.45 111.36c0 11.02-13.7 19.87-16.65 21.66a1.047 1.038 0 0 1-1.15 0C13.66 131.23 0 122.38 0 111.36v-13.1a1.047 1.038 0 0 1 1.05-1.04c10.64-.44 8.32-4.98 16.17-4.98 7.86 0 5.54 4.54 16.15 4.82a1.08 1.07 0 0 1 1.08 1.04z" style="fill:url(#b);stroke:none;stroke-width:38.25;stroke-linecap:butt"/></g></g></g></svg>