<svg xmlns="http://www.w3.org/2000/svg" xml:space="preserve" width="75.603" height="75.59" style="font-size:12px;overflow:visible;color-interpolation-filters:sRGB;fill-rule:evenodd;stroke-linecap:square;stroke-miterlimit:3" viewBox="0 0 56.703 56.693"><g transform="translate(-19.119 -19.128)"><title>Page-1</title><g transform="translate(19.125 -34.016)"><title>Hunting.17972</title><title>g8</title><g transform="translate(7.937 -7.937)"><title>path4</title><path d="M20.41 69.01a20.41 20.41-180 1 0 0 40.82 20.41 20.41-180 0 0 0-40.82m0 33.86a13.551 13.551 0 0 1 0-27.09 13.551 13.551 0 0 1 0 27.09" style="fill:#0072c6;stroke:none;stroke-width:19.125;stroke-linecap:butt"/></g><title>path6</title><path d="M55.78 80.57H29.26V54.06a.914.914-180 1 0-1.829 0l-.001 26.51H.91a.914.914-180 1 0 0 1.829l26.52.001v26.52a.914.914-180 1 0 1.829 0l.001-26.52h26.52a.914.914-180 1 0 0-1.829z" style="fill:#ae0d1a;stroke:none;stroke-width:19.125;stroke-linecap:butt"/></g></g></svg>