<svg xmlns="http://www.w3.org/2000/svg" xml:space="preserve" width="75.587" height="64.255" style="font-size:12px;overflow:visible;color-interpolation-filters:sRGB;fill-rule:evenodd;stroke-linecap:square;stroke-miterlimit:3" viewBox="0 0 56.69 48.191"><g transform="translate(-15.692 -15.693)"><title>Page-1</title><g transform="translate(15.692 -34.016)"><title>Incident.17963</title><title>g18</title><g transform="translate(21.971 -19.76)"><title>path4</title><path d="M10.79 89.63H1.57c-.98 0-1.57.81-1.57 1.61v5.04c0 1.01.79 1.62 1.57 1.62h9.22c.98 0 1.57-.81 1.57-1.62v-5.04c0-.8-.79-1.61-1.57-1.61" style="fill:#fff;fill-opacity:.75;stroke:none;stroke-width:15.69229984;stroke-linecap:butt"/></g><g transform="translate(13.338 -34.881)"><title>path6</title><path d="M29.82 97.9H25.5v-7.26c0-1.21-.78-2.02-1.96-2.02H6.28c-1.18 0-1.96.81-1.96 2.02v7.26H0v-6.25c0-3.63 2.55-6.66 6.28-7.06h17.26c3.53.4 6.28 3.43 6.28 7.06z" style="fill:#0072c6;stroke:none;stroke-width:15.69229984;stroke-linecap:butt"/></g><g transform="translate(0 -24.195)"><title>path8</title><path d="M56.1 95.28H0v2.62h56.1z" style="fill:#bcbcbc;fill-opacity:.61000001;stroke:none;stroke-width:15.69229984;stroke-linecap:butt"/></g><title>path10</title><path d="M0 97.9V61.6c0-2.01 1.77-3.83 3.73-3.83h49.43a3.516 3.614 0 0 1 3.53 3.63v36.5z" style="fill:#0072c6;stroke:none;stroke-width:15.69229984;stroke-linecap:butt"/><title>path12</title><path d="M16.87 97.9H0V61.6c0-2.01 1.77-3.83 3.73-3.83h30.8z" style="fill:#1185db;stroke:none;stroke-width:15.69229984;stroke-linecap:butt"/><g transform="translate(0 -26.01)"><title>path14</title><path d="M0 95.28h56.69v2.62H0Z" style="fill:#fff;stroke:none;stroke-width:15.69229984;stroke-linecap:butt"/></g><g transform="translate(21.382 -19.76)"><title>path16</title><path d="M12.16 89.63H1.57c-.98 0-1.57.81-1.57 1.61v5.04c0 1.01.79 1.62 1.57 1.62h10.59c.98 0 1.57-.81 1.57-1.62v-5.04c0-.8-.78-1.61-1.57-1.61" style="fill:#fff;stroke:none;stroke-width:15.69229984;stroke-linecap:butt"/></g></g></g></svg>