<svg xmlns="http://www.w3.org/2000/svg" xml:space="preserve" width="77.07" height="77.881" style="font-size:12px;overflow:visible;color-interpolation-filters:sRGB;fill-rule:evenodd;stroke-linecap:square;stroke-miterlimit:3" viewBox="0 0 57.802 58.41"><defs><radialGradient id="a" cx="20.546" cy="100.667" r="42.417" fx="20.546" fy="100.667" gradientTransform="scale(.99478 1.00524)" gradientUnits="userSpaceOnUse"><stop offset=".18" stop-color="#5ea0ef"/><stop offset=".56" stop-color="#5c9fee"/><stop offset=".69" stop-color="#559ced"/><stop offset=".78" stop-color="#4a97e9"/><stop offset=".86" stop-color="#3990e4"/><stop offset=".93" stop-color="#2387de"/><stop offset=".99" stop-color="#087bd6"/><stop offset="1" stop-color="#0078d4"/></radialGradient><radialGradient id="b" cx=".003" cy="56.242" r="60.271" fx=".003" fy="56.242" gradientTransform="scale(.78547 1.27312)" gradientUnits="userSpaceOnUse"><stop offset=".27" stop-color="#ffd70f"/><stop offset=".49" stop-color="#ffcb12"/><stop offset=".88" stop-color="#feac19"/><stop offset="1" stop-color="#fea11b"/></radialGradient></defs><g transform="translate(-34.003 -34.004)"><title>Page-1</title><g transform="translate(37.944 -35.717)"><title>Key Vault.17921</title><title>Sheet.17922</title><g transform="translate(4.52 -2.268)"><title>Sheet.17923</title><path d="M20.44 71.99a28.901 29.205-180 1 0 28.9 29.2 28.935 29.24-180 0 0-28.9-29.2m0 54.42a24.957 25.22 0 1 1 24.95-25.22 24.957 25.22 0 0 1-24.95 25.22" style="fill:url(#a);stroke:none;stroke-width:34;stroke-linecap:butt"/></g><g transform="translate(0 -2.268)"><title>Sheet.17924</title><ellipse cx="24.957" cy="101.191" rx="24.957" ry="25.22" style="fill:#fff;stroke:none;stroke-width:34;stroke-linecap:butt"/></g><g transform="translate(8.049)"><title>Sheet.17925</title><path d="M32.01 93.18a6.256 6.322-180 0 0 0-8.89L21.29 73.43a6.222 6.288-180 0 0-8.77 0L1.81 84.29a6.256 6.322-180 0 0 0 8.89l8.91 9.18a1.734 1.752 0 0 1 .51 1.24v16.76a2.142 2.165-180 0 0 .61 1.51l4.08 4.13a1.394 1.409-180 0 0 1.97 0l3.95-3.99 2.31-2.33a.85.859-180 0 0 0-1.168l-1.67-1.692a.918.928 0 0 1 0-1.271l1.67-1.679a.85.859-180 0 0 0-1.168l-1.67-1.682a.918.928 0 0 1 0-1.271l1.67-1.689a.85.859-180 0 0 0-1.168l-2.31-2.372v-.86zm-15.1-17.11a3.523 3.56 0 0 1 0 7.12 3.523 3.56 0 1 1 0-7.12" style="fill:url(#b);stroke:none;stroke-width:34;stroke-linecap:butt"/></g><g transform="translate(21.93 -5.72)"><title>Sheet.17926</title><path d="M.24 126.29a.782.79-180 0 0 1.292-.584L1.53 111.96a.816.825-180 0 0-.374-.687.748.756-180 0 0-1.156.687v13.74a.952.962-180 0 0 .238.584z" style="fill:#ff9300;fill-opacity:.75;stroke:none;stroke-width:34;stroke-linecap:butt"/></g><g transform="translate(16.389 -36.421)"><title>Sheet.17927</title><path d="M0 125.45a.952.962-180 0 0 .952.962l15.678-.002a.952.962-180 0 0 .952-.962l-.002-.168a.952.962-180 0 0-.952-.962L.95 124.31a.952.962-180 0 0-.952.962z" style="fill:#ff9300;fill-opacity:.75;stroke:none;stroke-width:34;stroke-linecap:butt"/></g><g transform="translate(16.389 -33.02)"><title>Sheet.17928</title><path d="M0 125.45a.952.962-180 0 0 .952.962l15.678-.002a.952.962-180 0 0 .952-.962l-.002-.168a.952.962-180 0 0-.952-.962L.95 124.31a.952.962-180 0 0-.952.962z" style="fill:#ff9300;fill-opacity:.75;stroke:none;stroke-width:34;stroke-linecap:butt"/></g></g></g></svg>