<svg xmlns="http://www.w3.org/2000/svg" xml:space="preserve" width="75.586" height="68.035" style="font-size:12px;overflow:visible;color-interpolation-filters:sRGB;fill-rule:evenodd;stroke-linecap:square;stroke-miterlimit:3" viewBox="0 0 56.69 51.026"><g transform="translate(-10.521 -10.518)"><title>Page-1</title><g transform="translate(10.521 -34.016)"><title>Key Vault HSM.17941</title><title>layer1</title><title>path2</title><path d="M54.17 74.69H2.52A2.52 2.47-180 0 0 0 77.16v15.93c0 1.36 1.13 2.47 2.52 2.47h51.65a2.52 2.47-180 0 0 2.52-2.47V77.16c0-1.36-1.13-2.47-2.52-2.47" style="fill:#3e3e3e;stroke:none;stroke-width:10.52140045;stroke-linecap:butt"/><title>path4</title><path d="M43.97 74.69H2.52A2.52 2.47-180 0 0 0 77.16v15.93c0 1.36 1.13 2.47 2.52 2.47h9.7z" style="fill:#fff;fill-opacity:.2;stroke:none;stroke-width:10.52140045;stroke-linecap:butt"/><g transform="translate(35.15 -13.34)"><title>path6</title><path d="M13.61 92.23h3.4v3.33h-3.4zm-6.81 0h3.4v3.33H6.8Zm-6.8 0h3.4v3.33H0Z" style="fill:#b8d432;stroke:none;stroke-width:10.52140045;stroke-linecap:butt"/></g><g transform="translate(15.987 -4.446)"><title>path8</title><path d="M23.58 60.54c0-6.38-5.27-11.56-11.79-11.56C5.28 48.98 0 54.16 0 60.54c0 5.43 3.82 9.97 8.96 11.22v13.8H3.29v5.55h5.67v4.45h5.67v-23.8c5.14-1.25 8.95-5.79 8.95-11.22M11.79 66.6c-3.4 0-6.18-2.72-6.18-6.06 0-3.33 2.78-6.05 6.18-6.05 3.41 0 6.18 2.72 6.18 6.05 0 3.34-2.77 6.06-6.18 6.06" style="fill:#fcd116;stroke:none;stroke-width:10.52140045;stroke-linecap:butt"/></g></g></g></svg>