<svg xmlns="http://www.w3.org/2000/svg" xml:space="preserve" width="68.035" height="75.578" style="font-size:12px;overflow:visible;color-interpolation-filters:sRGB;fill-rule:evenodd;stroke-linecap:square;stroke-miterlimit:3" viewBox="0 0 51.026 56.683"><g transform="translate(-20.256 -20.261)"><title>Page-1</title><g transform="translate(20.256 -34.016)"><title>Key Vault Secret.17929</title><title>Sheet.17930</title><g transform="translate(8.804 -23.998)"><title>Sheet.17931</title><path d="M0 86.97h3.38v3.43H0Zm6.76 0h3.37v3.43H6.76Zm6.75 0h3.38v3.43h-3.38zm6.76 0h3.37v3.43h-3.37ZM0 93.82h3.38v3.43H0Zm6.76 0h3.37v3.43H6.76Zm6.75 0h3.38v3.43h-3.38zm6.76 0h3.37v3.43h-3.37ZM0 100.68h3.38v3.43H0Zm6.76 0h3.37v3.43H6.76Zm6.75 0h3.38v3.43h-3.38zm6.76 0h3.37v3.43h-3.37ZM0 107.54h3.38v3.42H0Zm6.76 0h3.37v3.42H6.76Zm6.75 0h3.38v3.42h-3.38zm6.76 0h3.37v3.42h-3.37z" style="fill:#59b4d9;fill-opacity:.8;stroke:none;stroke-width:20.25620079;stroke-linecap:butt"/></g><g transform="translate(0 -6.983)"><title>Sheet.17932</title><path d="M37.67 65.08v42.06H3.77V65.08Zm3.77-3.82H0v49.7h41.44z" style="fill:#3999c6;stroke:none;stroke-width:20.25620079;stroke-linecap:butt"/></g><g transform="translate(29.07 -22.284)"><title>Sheet.17933</title><path d="M11.82 106.75c0-3.6-2.77-6.53-5.91-6.53-3.13 0-5.91 2.93-5.91 6.53v4.21h11.82z" style="fill:#fff;stroke:none;stroke-width:20.25620079;stroke-linecap:butt"/></g><g transform="translate(18.936)"><title>Sheet.17934</title><path d="M10.13 84.48c0-3.59 2.78-6.51 5.91-6.51 3.14 0 5.91 2.92 5.91 6.51v4.2h5.07v-4.2c0-6.46-5.34-11.75-10.98-11.75S5.07 78.02 5.07 84.48v4.2h5.06zm21.96 7.77c0-1.97-1.64-3.57-3.65-3.57H3.65c-2.02 0-3.65 1.6-3.65 3.57v14.36c0 1.97 1.63 4.35 3.65 4.35h24.79c2.01 0 3.65-2.38 3.65-4.35z" style="fill:#fcd116;stroke:none;stroke-width:20.25620079;stroke-linecap:butt"/></g><g transform="translate(18.936)"><title>Sheet.17935</title><path d="M10.13 84.48c0-3.59 2.78-6.51 5.91-6.51 3.14 0 5.91 2.92 5.91 6.51v4.2h5.07v-4.2c0-6.46-5.34-11.75-10.98-11.75S5.07 78.02 5.07 84.48v4.2h5.06zm21.96 7.77c0-1.97-1.64-3.57-3.65-3.57H3.65c-2.02 0-3.65 1.6-3.65 3.57v14.36c0 1.97 1.63 4.35 3.65 4.35h24.79c2.01 0 3.65-2.38 3.65-4.35z" style="fill:#ff8c00;fill-opacity:.3;stroke:none;stroke-width:20.25620079;stroke-linecap:butt"/></g></g></g></svg>