<svg xmlns="http://www.w3.org/2000/svg" xmlns:xlink="http://www.w3.org/1999/xlink" xml:space="preserve" width="75.582" height="64.255" style="font-size:12px;overflow:visible;color-interpolation-filters:sRGB;fill-rule:evenodd;stroke-linecap:square;stroke-miterlimit:3" viewBox="0 0 56.686 48.191"><defs><linearGradient id="a" x1="0" x2="1" y1="0" y2="0" gradientTransform="rotate(-90 .5 .5)"><stop offset=".2" stop-color="#0078d4"/><stop offset=".285" stop-color="#1380da"/><stop offset=".76" stop-color="#5ea0ef"/></linearGradient><linearGradient xlink:href="#a" id="b" x1=".006" x2="17.625" y1="117.393" y2="117.393" gradientTransform="scale(1.1619 .86066)" gradientUnits="userSpaceOnUse"/><linearGradient xlink:href="#a" id="c" x1=".001" x2="17.623" y1="117.408" y2="117.408" gradientTransform="scale(1.16204 .86056)" gradientUnits="userSpaceOnUse"/><linearGradient xlink:href="#a" id="d" x1=".001" x2="17.621" y1="117.398" y2="117.398" gradientTransform="scale(1.1619 .86066)" gradientUnits="userSpaceOnUse"/></defs><g transform="translate(-34.002 -33.997)"><title>Page-1</title><g transform="translate(34 -34.016)"><title>Key Vault Access Policy.17955</title><title>Sheet.17956</title><g transform="translate(0 -33.023)"><title>Sheet.17957</title><path d="m20 102.43-.95-.93a1.628 1.589-180 0 0-2.3 0l-9.22 8.99-3.8-3.7a1.628 1.589-180 0 0-2.3 0l-.95.94a1.628 1.589-180 0 0 0 2.24l5.9 5.77a1.628 1.589-180 0 0 1.15.46 1.628 1.589-180 0 0 1.15-.46L20 104.68a1.628 1.589-180 0 0 0-2.25" style="fill:url(#b);stroke:none;stroke-width:34;stroke-linecap:butt"/></g><g transform="translate(22.938 -37.3)"><title>Sheet.17958</title><path d="M0 113.27a3.006 2.933-180 0 0 3.01 2.93h27.74a3.006 2.933-180 0 0 3-2.93v-.15a3.006 2.933-180 0 0-3-2.94H3.01A3.006 2.933-180 0 0 0 113.12Z" style="fill:#a3a3a3;stroke:none;stroke-width:34;stroke-linecap:butt"/></g><g transform="translate(22.938 -21.017)"><title>Sheet.17959</title><path d="M0 113.27a3.006 2.933-180 0 0 3.01 2.93h27.74a3.006 2.933-180 0 0 3-2.93v-.15a3.006 2.933-180 0 0-3-2.94H3.01A3.006 2.933-180 0 0 0 113.12Z" style="fill:#a3a3a3;stroke:none;stroke-width:34;stroke-linecap:butt"/></g><g transform="translate(22.938 -4.736)"><title>Sheet.17960</title><path d="M0 113.27a3.006 2.933-180 0 0 3.01 2.93h27.74a3.006 2.933-180 0 0 3-2.93v-.15a3.006 2.933-180 0 0-3-2.94H3.01A3.006 2.933-180 0 0 0 113.12Z" style="fill:#a3a3a3;stroke:none;stroke-width:34;stroke-linecap:butt"/></g><g transform="translate(0 -16.507)"><title>Sheet.17961</title><path d="m20 102.43-.95-.93a1.628 1.589-180 0 0-2.3 0l-9.22 8.99-3.8-3.7a1.628 1.589-180 0 0-2.3 0l-.95.93a1.628 1.589-180 0 0 0 2.25l5.9 5.77a1.628 1.589-180 0 0 1.15.46 1.628 1.589-180 0 0 1.15-.46L20 104.68a1.628 1.589-180 0 0 0-2.25" style="fill:url(#c);stroke:none;stroke-width:34;stroke-linecap:butt"/></g><title>Sheet.17962</title><path d="m20 102.44-.95-.93a1.628 1.589-180 0 0-1.15-.47 1.609 1.57-180 0 0-1.15.47l-9.22 8.98-3.8-3.69a1.628 1.589-180 0 0-2.3 0l-.95.92a1.628 1.589-180 0 0 0 2.25l5.9 5.77a1.628 1.589-180 0 0 2.3 0L20 104.68a1.628 1.589-180 0 0 0-2.24" style="fill:url(#d);stroke:none;stroke-width:34;stroke-linecap:butt"/></g></g></svg>