<svg xmlns="http://www.w3.org/2000/svg" xml:space="preserve" width="75.59" height="75.587" style="font-size:12px;overflow:visible;color-interpolation-filters:sRGB;fill-rule:evenodd;stroke-linecap:square;stroke-miterlimit:3" viewBox="0 0 56.693 56.69"><defs><linearGradient id="a" x1="-.021" x2="46.255" y1="67.663" y2="67.663" gradientTransform="scale(.91363 1.09454)" gradientUnits="userSpaceOnUse"><stop offset="0" stop-color="#0078d4"/><stop offset=".06" stop-color="#0a7cd7"/><stop offset=".34" stop-color="#2e8ce1"/><stop offset=".59" stop-color="#4897e9"/><stop offset=".82" stop-color="#589eed"/><stop offset="1" stop-color="#5ea0ef"/></linearGradient></defs><g transform="translate(-34 -34.002)"><title>Page-1</title><g transform="translate(34 -34.016)"><title>Local Rulestack for Cloud NGFW.17914</title><title>Sheet.17915</title><g transform="translate(1.887 -3.732)"><title>Sheet.17916</title><path d="M42.26 97.69c0 13.66-16.77 24.62-20.45 26.83a1.3 1.3 0 0 1-1.36 0C16.77 122.31 0 111.35 0 97.69V81.44a1.332 1.332 0 0 1 1.3-1.56c13.07-.23 10.08-5.82 19.83-5.82 9.76 0 6.77 5.59 19.83 5.82a1.33 1.33 0 0 1 1.3 1.3z" style="fill:url(#a);stroke:none;stroke-width:34;stroke-linecap:butt"/></g><g transform="translate(0 -3.657)"><title>Sheet.17917</title><path d="M46.04 93.62v3.66H0v-3.66zm0-9.15v3.66H0v-3.66Zm-12.75-9.14c2.17 1.39 5.04 2.69 11.35 2.84a1.43 1.43 0 0 1 1.26.82H.14a1.43 1.43 0 0 1 1.26-.82c6.3-.15 9.17-1.45 11.34-2.84zm10.62 31.09a24 24-180 0 0 1.37-3.66H.75c.35 1.25.81 2.47 1.37 3.66zm-3.32 5.49H5.43c.94 1.28 1.97 2.5 3.03 3.65h29.1c1.06-1.15 2.09-2.37 3.04-3.65zm-8.87 9.14H14.29c1.76 1.46 3.44 2.69 4.84 3.66h7.76c1.4-.97 3.07-2.21 4.83-3.66" style="fill:#00569b;stroke:none;stroke-width:34;stroke-linecap:butt"/></g><g transform="translate(0 -1.402)"><title>Sheet.17918</title><path d="M23.77 124.49c4-2.44 22.26-14.4 22.26-29.26V77.35a1.43 1.43-180 0 0-1.39-1.43c-7.57-.18-10.19-2.01-12.58-3.68-2.11-1.47-4.04-2.82-9.04-2.82s-6.93 1.35-9.04 2.82c-2.39 1.67-5.01 3.49-12.58 3.68A1.43 1.43-180 0 0 0 77.35v17.88c0 14.89 18.27 26.86 22.27 29.26a1.4 1.4-180 0 0 1.5 0m-.07-2.3c3.68-2.21 20.45-13.17 20.45-26.83V78.85a1.335 1.335-180 0 0-1.3-1.3c-6.97-.13-9.37-1.77-11.57-3.28-1.93-1.33-3.71-2.54-8.26-2.54s-6.33 1.22-8.25 2.54c-2.21 1.51-4.61 3.15-11.58 3.28a1.332 1.332-180 0 0-1.3 1.56v16.25c0 13.66 16.77 24.62 20.45 26.83a1.3 1.3-180 0 0 1.36 0" style="fill:#00569b;stroke:none;stroke-width:34;stroke-linecap:butt"/></g><g transform="translate(26.576)"><title>Sheet.17919</title><circle cx="15.058" cy="109.65" r="15.058" style="fill:#f04e23;stroke:none;stroke-width:34;stroke-linecap:butt"/></g><g transform="translate(29.084 -6.274)"><title>Sheet.17920</title><path d="M9.03 107.14 0 115.94l3.6 3.51 9.03-8.8zm10.81 3.51-3.61-3.51-3.6 3.51 1.8 1.74-9.03 8.81 3.6 3.51 3.6-3.51-1.79-1.75zM12.6 121.2l9.03-8.8 3.6 3.51-9.03 8.8z" style="fill:#fff;stroke:none;stroke-width:34;stroke-linecap:butt"/></g></g></g></svg>