<svg xmlns="http://www.w3.org/2000/svg" xml:space="preserve" width="60.467" height="75.583" style="font-size:12px;overflow:visible;color-interpolation-filters:sRGB;fill-rule:evenodd;stroke-linecap:square;stroke-miterlimit:3" viewBox="0 0 45.35 56.687"><defs><linearGradient id="a" x1="0" x2="50.703" y1="35.5" y2="35.5" gradientTransform="scale(.89443 1.11803)" gradientUnits="userSpaceOnUse"><stop offset="0" stop-color="#59b8ff"/><stop offset="1" stop-color="#508dfa"/></linearGradient><linearGradient id="b" x1="0" x2="46.514" y1="39.682" y2="39.682" gradientTransform="scale(.89435 1.11813)" gradientUnits="userSpaceOnUse"><stop offset="0" stop-color="#79cfff"/><stop offset="1" stop-color="#648efa"/></linearGradient></defs><g transform="translate(-4.536 -5.674)"><title>Page-1</title><g transform="translate(4.535 -34.016)"><title>Microsoft Defender EASM.17908</title><title>g12</title><title>path4</title><path d="M45.35 66.15c0 15.25-18.01 27.52-21.93 30.01a1.408 1.435 0 0 1-1.49 0C18.01 93.67 0 81.4 0 66.15V47.82a1.435 1.462 0 0 1 .41-1.02 1.423 1.449 0 0 1 .98-.44c14.01-.37 10.79-6.67 21.29-6.67s7.27 6.3 21.28 6.67a1.423 1.45 0 0 1 .99.44 1.435 1.462 0 0 1 .4 1.02z" style="fill:url(#a);stroke:none;stroke-width:2.78182006;stroke-linecap:butt"/><g transform="translate(1.878 -2.335)"><title>path6</title><path d="M41.6 68.65c0 13.99-16.52 25.24-20.12 27.53a1.283 1.306 0 0 1-1.36 0C16.52 93.89 0 82.63 0 68.65V51.83a1.318 1.342 0 0 1 .37-.93 1.306 1.33 0 0 1 .91-.4c12.85-.36 9.89-6.13 19.52-6.13s6.67 5.77 19.52 6.13a1.306 1.33 0 0 1 .9.4 1.318 1.342 0 0 1 .38.93z" style="fill:url(#b);stroke:none;stroke-width:2.78182006;stroke-linecap:butt"/></g><g transform="translate(10.72 -15.538)"><title>path8</title><path d="M9.07 75.17v-5.88a1.237 1.26-180 0 0-1.23-1.26h-6.6A1.237 1.26-180 0 0 0 69.29v6.37a1.237 1.26-180 0 0 1.24 1.26h6.11c.5 0 .9.4.9.91v8.5c0 .24-.1.41-.24.53-.15.13-.38.21-.66.21H1.24A1.237 1.26-180 0 0 0 88.33v6.79a1.237 1.26-180 0 0 1.24 1.26h6.59a1.237 1.26-180 0 0 1.24-1.26v-6.3c0-.5.4-.91.9-.91h8.86a1.237 1.26-180 0 0 1.24-1.26v-8.82c0-.51.4-.91.89-.91h3.37a1.237 1.26-180 0 0 1.23-1.26v-3.69a1.237 1.26-180 0 0-1.23-1.26h-3.85a1.237 1.26-180 0 0-1.24 1.26v3.2c0 .5-.4.91-.9.91H9.97c-.5 0-.9-.41-.9-.91" style="fill:#5191fb;stroke:none;stroke-width:11.12730026;stroke-linecap:butt"/></g><g transform="translate(11.361 -16.224)"><title>path8-7</title><path d="M7.84 75.43v-5.07c0-.61-.48-1.09-1.07-1.09h-5.7c-.59 0-1.07.48-1.07 1.08v5.5c0 .6.48 1.09 1.07 1.09h5.28c1.63 0 1.88.86 1.88 1.94v7.63c.06 1.51-1.11 1.83-1.88 1.82H1.07c-.59 0-1.07.49-1.07 1.09v5.87c0 .6.48 1.09 1.07 1.09h5.7c.59 0 1.07-.49 1.07-1.09v-5.44c0-.73.39-1.91 1.93-1.91h7.95c.62 0 1.11-.51 1.11-1.13v-7.93c0-1.1.5-1.94 1.8-1.94h2.71c.55 0 .99-.45.99-1.01v-2.97c0-.56-.44-1.01-.99-1.01h-3.1c-.55 0-.99.45-.99 1.01v2.57c0 1.58-1.12 1.78-1.96 1.78H9.77c-.83 0-1.93-.1-1.93-1.88" style="fill:#fff;stroke:none;stroke-width:11.12730026;stroke-linecap:butt"/></g></g></g></svg>