<svg xmlns="http://www.w3.org/2000/svg" xml:space="preserve" width="74.961" height="68.027" style="font-size:12px;overflow:visible;color-interpolation-filters:sRGB;fill-rule:evenodd;stroke-linecap:square;stroke-miterlimit:3" viewBox="0 0 56.22 51.02"><g transform="translate(-12.24 -12.244)"><title>Page-1</title><g transform="translate(12.009 -34.016)"><title>Network Access.17903</title><title>Sheet.17904</title><g transform="translate(26.614 -14.887)"><title>Sheet.17905</title><path d="M0 66.824h3.456v30.455H0z" style="fill:#7a7a7a;stroke:none;stroke-width:12.23999977;stroke-linecap:butt"/></g><g transform="translate(22.121 -9.205)"><title>Sheet.17906</title><path d="M12.44 91.14c0 3.33-2.84 6.14-6.22 6.14S0 94.47 0 91.14s2.84-6.13 6.22-6.13 6.22 2.8 6.22 6.13" style="fill:#57a300;stroke:none;stroke-width:12.23999977;stroke-linecap:butt"/></g><title>Sheet.17907</title><path d="M33.41 51.26c0 2.71-2.32 5-5.07 5s-5.07-2.29-5.07-5c0-2.72 2.32-5 5.07-5s5.07 2.28 5.07 5m7.06 46.01a1.59 1.568 0 0 1-1.14-.45 1.706 1.683 0 0 1 0-2.37l12.18-12.01a.986.973-180 0 0 .001-1.38L39.55 69.47A1.486 1.466 0 0 1 39 68.4c-.02-.47.18-.94.54-1.31a1.642 1.62 0 0 1 1.33-.49c.43 0 .84.18 1.16.49l11.42 10.96L56 80.56c.51.63.69 1.69 0 2.38l-2.76 2.71-11.43 11.17a1.677 1.655 0 0 1-1.17.46h.01zm-24.42 0a1.67 1.648 0 0 1-1.17-.45L3.24 85.76.69 82.92c-.69-.67-.52-1.7-.02-2.33l2.57-2.54 11.43-10.96A1.633 1.61 0 0 1 16 66.6c.42 0 .83.18 1.15.49.37.36.56.84.54 1.31a1.544 1.523 0 0 1-.56 1.09L5.4 81.06a.983.97-180 0 0-.001 1.38l11.971 12a1.713 1.69 0 0 1-.01 2.38c-.3.3-.7.46-1.13.46z" style="fill:#3999c6;stroke:none;stroke-width:12.23999977;stroke-linecap:butt"/></g></g></svg>