<svg xmlns="http://www.w3.org/2000/svg" xml:space="preserve" width="60.467" height="75.581" style="font-size:12px;overflow:visible;color-interpolation-filters:sRGB;fill-rule:evenodd;stroke-linecap:square;stroke-miterlimit:3" viewBox="0 0 45.35 56.686"><defs><linearGradient id="a" x1="0" x2="44.095" y1="62.411" y2="62.411" gradientTransform="scale(.88151 1.13441)" gradientUnits="userSpaceOnUse"><stop offset="0" stop-color="#ad8af2"/><stop offset=".16" stop-color="#9569ed"/><stop offset=".385" stop-color="#814cea"/><stop offset=".66" stop-color="#6b2be8"/><stop offset="1" stop-color="#7138e3"/></linearGradient></defs><g transform="translate(-30.11 -30.114)"><title>Page-1</title><g transform="translate(30.11 -34.016)"><title>Regulatory Compliance.17899</title><title>path4</title><path d="M45.35 90.59c0 15.24-18.01 27.51-21.93 30.01a1.427 1.469 0 0 1-1.49 0C18.01 118.11 0 105.84 0 90.59V72.25c0-.38.15-.75.41-1.02a1.402 1.443 0 0 1 .98-.44c14.01-.38 10.79-6.66 21.29-6.66s7.27 6.28 21.29 6.66a1.402 1.443 0 0 1 .97.43 1.432 1.474 0 0 1 .41 1.03z" style="fill:#7138e3;stroke:none;stroke-width:30.10930061;stroke-linecap:butt"/><g transform="translate(3.029 -3.654)"><title>path6-0-7</title><path d="M38.87 94.15c0 13.45-15.44 24.27-18.79 26.48a1.194 1.23 0 0 1-1.28 0C15.44 118.43 0 107.61 0 94.15V77.97c0-.34.12-.67.35-.91a1.184 1.219 0 0 1 .84-.38c12.01-.33 9.25-5.88 18.25-5.88s6.23 5.55 18.24 5.88a1.184 1.219 0 0 1 .84.38c.22.24.35.56.35.9z" style="fill:url(#a);stroke:none;stroke-width:30.10930061;stroke-linecap:butt"/></g><g transform="translate(9.095 -18.226)"><title>path8-3</title><path d="m28.46 112.8-.06.06c-.58.84-1.73 1.07-2.54.48l-11.52-8.27 2.14-3.15 11.57 8.27c.81.59.98 1.78.41 2.61M17.57 99.48l-5.01 7.44-6.69-4.76 5.02-7.49zm-5.99 10.35 1.26-1.84-8.06-5.77-1.27 1.84a1.534 1.58-180 0 0 .35 2.14l5.64 4.04a1.597 1.644-180 0 0 2.08-.41m8.23-12.31-1.26 1.9-8.07-5.76 1.27-1.85c.46-.71 1.38-.83 2.07-.35l5.65 4.04a1.395 1.437 0 0 1 .34 2.02m-5.53 19.73H2.42a2.435 2.507-180 0 0-2.42 2.5v1.07h16.7v-1.07a2.435 2.507-180 0 0-2.42-2.5" style="fill:#fff"/></g></g></g></svg>