<svg xmlns="http://www.w3.org/2000/svg" xml:space="preserve" width="68.03" height="75.582" style="font-size:12px;overflow:visible;color-interpolation-filters:sRGB;fill-rule:evenodd;stroke-linecap:square;stroke-miterlimit:3" viewBox="0 0 51.023 56.687"><g transform="translate(-38.25 -38.253)"><title>Page-1</title><g transform="translate(38.25 -38.25)"><title>Security Baseline.17882</title><title>Sheet.17883</title><g transform="translate(0 -10.627)"><title>Sheet.17884</title><path d="M31.01 92.62c-10.95-1.12-12.79-5.49-12.79-5.49S15.76 92.88 0 92.88v23.59c0 2.86 1.71 5.53 4.08 7.86 5.37 5.3 14.14 8.86 14.14 8.86s18.23-7.39 18.23-16.72V92.88c-2.03 0-3.83-.1-5.44-.26" style="fill:#57a300;stroke:none;stroke-width:38.25;stroke-linecap:butt"/></g><g transform="translate(0 -19.486)"><title>Sheet.17885</title><path d="m22.73 111.23 8.28-9.76c-10.95-1.11-12.79-5.48-12.79-5.48s-2.46 5.75-18.22 5.75v23.59c0 2.86 1.71 5.53 4.08 7.86l6.12-7.2z" style="fill:#b8d432;fill-opacity:.4;stroke:none;stroke-width:38.25;stroke-linecap:butt"/></g><g transform="translate(21.867 -3.377)"><title>Sheet.17886</title><path d="M0 108.22h25.51v24.8l-25.43.17z" style="fill:#fff;stroke:none;stroke-width:38.25;stroke-linecap:butt"/></g><g transform="translate(25.512 -7.087)"><title>Sheet.17887</title><path d="M7.29 115.48h10.93v3.54H7.29Zm0 7.08h10.93v3.55H7.29Zm0 7.09h10.93v3.54H7.29ZM0 115.48h3.64v3.54H0Zm0 7.08h3.64v3.55H0Zm0 7.09h3.64v3.54H0Z" style="fill:#3898c6;stroke:none;stroke-width:38.25;stroke-linecap:butt"/></g><g transform="translate(18.223)"><title>Sheet.17888</title><path d="M31.54 97.76H1.26A1.257 1.223-180 0 0 0 98.98v32.99c0 .68.56 1.22 1.26 1.22h30.27a1.261 1.226-180 0 0 1.27-1.22V98.98a1.257 1.223-180 0 0-1.26-1.22m-27.9 31.89v-24.81h25.52v24.81z" style="fill:#3999c6;stroke:none;stroke-width:38.25;stroke-linecap:butt"/></g></g></g></svg>