<svg xmlns="http://www.w3.org/2000/svg" xml:space="preserve" width="64.253" height="75.592" style="font-size:12px;overflow:visible;color-interpolation-filters:sRGB;fill-rule:evenodd;stroke-linecap:square;stroke-miterlimit:3" viewBox="0 0 48.19 56.694"><defs><linearGradient id="a" x1="0" x2="48.419" y1="64.116" y2="64.116" gradientTransform="scale(.91555 1.09224)" gradientUnits="userSpaceOnUse"><stop offset=".18" stop-color="#5ea0ef"/><stop offset="1" stop-color="#0078d4"/></linearGradient></defs><g transform="translate(-32.21 -32.214)"><title>Page-1</title><g transform="translate(32.21 -34.016)"><title>Security Alert.17889</title><title>Sheet.17890</title><title>Sheet.17891</title><path d="M48.19 92.67c0 15.23-19.15 27.51-23.26 30.02a1.446 1.417 0 0 1-1.59 0C19.15 120.25 0 107.91 0 92.67v-18.3a1.487 1.458 0 0 1 1.5-1.45c14.88-.37 11.4-6.69 22.56-6.69 11.15 0 7.75 6.32 22.62 6.7a1.54 1.51 0 0 1 1.51 1.44z" style="fill:#0078d4;stroke:none;stroke-width:32.21049881;stroke-linecap:butt"/><g transform="translate(1.93 -1.89)"><title>Sheet.17892</title><path d="M44.33 94.66c0 14.32-17.64 25.75-21.45 28.08a1.519 1.489 0 0 1-1.43 0C17.64 120.4 0 108.9 0 94.66V77.57a1.389 1.361 0 0 1 1.35-1.32c13.66-.39 10.56-6.22 20.81-6.22s7.15 5.9 20.82 6.22a1.389 1.361 0 0 1 1.35 1.32z" style="fill:url(#a);stroke:none;stroke-width:32.21049881;stroke-linecap:butt"/></g><g transform="translate(21.203 -17.008)"><title>Sheet.17893</title><path d="M2.89 122.92A2.891 2.835-180 1 0 0 120.08a2.891 2.835-180 0 0 2.89 2.84m1.45-7.56H1.45A1.41 1.383 0 0 1 0 114.02V95.91a1.41 1.383 0 0 1 1.45-1.34h2.89a1.41 1.383 0 0 1 1.44 1.34v18.11a1.41 1.383 0 0 1-1.44 1.34" style="fill:#fff;stroke:none;stroke-width:32.21049881;stroke-linecap:butt"/></g></g></g></svg>