<svg xmlns="http://www.w3.org/2000/svg" xmlns:xlink="http://www.w3.org/1999/xlink" xml:space="preserve" width="73.637" height="74.092" style="font-size:12px;overflow:visible;color-interpolation-filters:sRGB;fill-rule:evenodd;stroke-linecap:square;stroke-miterlimit:3" viewBox="0 0 55.228 55.569"><defs><linearGradient id="a" x1="0" x2="1" y1="0" y2="0" gradientTransform="rotate(-90 .5 .5)"><stop offset="0" stop-color="#005ba1"/><stop offset=".19" stop-color="#1e71b5"/><stop offset=".565" stop-color="#5598da"/><stop offset=".85" stop-color="#76b0f0"/><stop offset="1" stop-color="#83b9f9"/></linearGradient><linearGradient xlink:href="#a" id="b" x1="0" x2="43.603" y1="82.65" y2="82.65" gradientTransform="scale(1.01238 .98777)" gradientUnits="userSpaceOnUse"/><linearGradient xlink:href="#a" id="c" x1="0" x2="34.245" y1="92.008" y2="92.008" gradientTransform="scale(1.01238 .98777)" gradientUnits="userSpaceOnUse"/></defs><g transform="translate(-34 -34)"><title>Page-1</title><g transform="translate(32.536 -34.016)"><title>Security Detonation Chamber.17875</title><title>Sheet.17876</title><g transform="translate(17.244 -18.628)"><title>Sheet.17877</title><ellipse cx="17.334" cy="107.796" rx="17.334" ry="16.913" style="fill:#fff;stroke:none;stroke-width:34;stroke-linecap:butt"/></g><g transform="rotate(-45 2.893 118.669)"><title>Sheet.17878</title><path d="M0 121.37a3.425 3.342-180 0 0 3.43 3.34h25.32a3.425 3.342-180 0 0 3.42-3.34v-.47a3.425 3.342-180 0 0-3.42-3.34H3.43A3.425 3.342-180 0 0 0 120.9Z" style="fill:#767676;stroke:none;stroke-width:34;stroke-linecap:butt"/></g><g transform="translate(12.55 -13.623)"><title>Sheet.17879</title><ellipse cx="22.071" cy="103.174" rx="22.071" ry="21.535" style="fill:url(#b);stroke:none;stroke-width:34;stroke-linecap:butt"/></g><g transform="translate(17.244 -18.628)"><title>Sheet.17880</title><ellipse cx="17.334" cy="107.796" rx="17.334" ry="16.913" style="fill:url(#c);stroke:none;stroke-width:34;stroke-linecap:butt"/></g><g transform="translate(21.501 -32.314)"><title>Sheet.17881</title><path d="M26.17 118.08a5.284 5.156 0 0 1-9.9 3.6zm-16.27 3.6a5.284 5.156 0 0 1-9.9-3.6Z" style="fill:#f2f2f2;stroke:none;stroke-width:34;stroke-linecap:butt"/></g></g></g></svg>