<svg xmlns="http://www.w3.org/2000/svg" xml:space="preserve" width="60.467" height="75.586" style="font-size:12px;overflow:visible;color-interpolation-filters:sRGB;fill-rule:evenodd;stroke-linecap:square;stroke-miterlimit:3" viewBox="0 0 45.35 56.689"><defs><linearGradient id="a" x1="0" x2="46.435" y1="63.289" y2="63.289" gradientTransform="scale(.89265 1.12026)" gradientUnits="userSpaceOnUse"><stop offset="0" stop-color="#1b93eb"/><stop offset=".21" stop-color="#2095eb"/><stop offset=".44" stop-color="#2e9ced"/><stop offset=".69" stop-color="#45a7ef"/><stop offset=".95" stop-color="#64b6f1"/><stop offset="1" stop-color="#6bb9f2"/></linearGradient></defs><g transform="translate(-32.21 -32.214)"><title>Page-1</title><g transform="translate(32.21 -34.016)"><title>Secure Score.17894</title><title>Sheet.17895</title><title>Sheet.17896</title><path d="M45.35 92.61c0 15.36-17.82 27.39-21.7 30.06a1.477 1.524 0 0 1-1.62 0C18.14 120.33 0 107.99 0 92.61V74.24a1.397 1.44 0 0 1 1.3-1.34c14.25-.33 11.01-6.67 21.37-6.67 10.37 0 7.13 6.34 21.06 6.67a1.484 1.53 0 0 1 1.62 1.34z" style="fill:#1b93eb;stroke:none;stroke-width:32.21049881;stroke-linecap:butt"/><g transform="translate(1.945 -2.338)"><title>Sheet.17897</title><path d="M41.45 95.28c0 14.03-16.51 25.38-20.08 27.39a.988 1.019 0 0 1-1.295 0C16.52 120.33 0 109.31 0 95.28v-16.7a1.781 1.837 0 0 1 .97-1.67c12.63-.33 9.72-6.01 19.45-6.01s6.81 6.01 19.43 6.01a1.394 1.437 0 0 1 1.3 1.34z" style="fill:url(#a);stroke:none;stroke-width:32.21049881;stroke-linecap:butt"/></g><g transform="translate(11.516 -20.113)"><title>Sheet.17898</title><path d="M10.29 101.52a.97 1 0 0 1 1.74 0l2.71 5.66a.973 1.003-180 0 0 .731.55l6.059.91a.973 1.003 0 0 1 .539 1.709l-4.389 4.401a.966.997-180 0 0-.279.888l1.039 6.232a.97 1 0 0 1-1.41 1.054l-5.42-2.944a.973 1.003-180 0 0-.904 0l-5.426 2.94a.97 1 0 0 1-1.41-1.054l1.04-6.226a.966.997-180 0 0-.279-.888L.24 110.34a.973 1.003 0 0 1 .539-1.709l6.061-.901a.973 1.003-180 0 0 .731-.55z" style="fill:#fff;stroke:none;stroke-width:32.21049881;stroke-linecap:butt"/></g></g></g></svg>