<svg xmlns="http://www.w3.org/2000/svg" xml:space="preserve" width="64.253" height="75.6" style="font-size:12px;overflow:visible;color-interpolation-filters:sRGB;fill-rule:evenodd;stroke-linecap:square;stroke-miterlimit:3" viewBox="0 0 48.19 56.7"><g transform="translate(-21.857 -21.854)"><title>Page-1</title><g transform="translate(21.857 -34.016)"><title>Sentinel.17869</title><title>Sheet.17870</title><title>Sheet.17871</title><path d="M23.05 111.87C17.64 108.44 0 96.05 0 81.59v-18.5l1.89-.14c7.54-.49 10.47-2.5 13.05-4.28 2.2-1.49 4.1-2.8 9.16-2.8s7.04 1.37 9.13 2.81c2.59 1.77 5.53 3.81 13.07 4.29l1.89.12v18.5c0 14.46-17.65 26.85-23.06 30.3l-1.05.68z" style="fill:#0072c6;stroke:none;stroke-width:21.85709953;stroke-linecap:butt"/><g transform="translate(1.145 -6.403)"><title>Sheet.17872</title><path d="m15.91 112.56 15.81-46.32-.25-.17c-2.04-1.4-3.8-2.62-8.51-2.62s-6.4 1.18-8.52 2.63c-2.71 1.86-5.77 3.97-13.63 4.45L0 70.6v17.39c0 9.97 8.94 19.03 15.91 24.58z" style="fill:#fff;fill-opacity:.15;stroke:none;stroke-width:21.85709953;stroke-linecap:butt"/></g><g transform="translate(5.78 -28.352)"><title>Sheet.17873</title><path d="M18.32 100.76h.01a12.605 12.97 0 0 1 12.55 11.75l.01.06h5.73c-.54-9.98-8.53-17.87-18.31-17.87C8.52 94.7.53 102.59 0 112.52v.05h5.73c.6-6.65 5.99-11.81 12.55-11.81z" style="fill:#fff;stroke:none;stroke-width:21.85709953;stroke-linecap:butt"/></g><g transform="translate(17.331 -20.199)"><title>Sheet.17874</title><path d="M13.54 105.6a6.772 6.968 0 1 1-13.54 0 6.772 6.968 0 1 1 13.54 0" style="fill:#fff;stroke:none;stroke-width:21.85709953;stroke-linecap:butt"/></g></g></g></svg>