<svg xmlns="http://www.w3.org/2000/svg" xml:space="preserve" width="75.587" height="68.044" style="font-size:12px;overflow:visible;color-interpolation-filters:sRGB;fill-rule:evenodd;stroke-linecap:square;stroke-miterlimit:3" viewBox="0 0 56.69 51.033"><defs><linearGradient id="a" x1="0" x2="48.245" y1="91.656" y2="91.656" gradientTransform="scale(1.17505 .85103)" gradientUnits="userSpaceOnUse"><stop offset="0" stop-color="#0078d4"/><stop offset=".815" stop-color="#5ea0ef"/></linearGradient><linearGradient id="b" x1="-.003" x2="32.42" y1="60.706" y2="60.706" gradientTransform="scale(.78229 1.2783)" gradientUnits="userSpaceOnUse"><stop offset="0" stop-color="#32bedd"/><stop offset=".115" stop-color="#3ccce9"/><stop offset=".29" stop-color="#47dbf5"/><stop offset=".505" stop-color="#4ee3fd"/><stop offset=".835" stop-color="#50e6ff"/></linearGradient></defs><g transform="translate(-34 -33.998)"><title>Page-1</title><g transform="translate(34 -34.016)"><title>SSH key.17864</title><title>Sheet.17865</title><g transform="translate(0 -9.988)"><title>Sheet.17866</title><path d="M56.69 106.2a12.743 13.018-180 0 0-11.05-12.5A16.053 16.4-180 0 0 29.1 78.01a16.47 16.826-180 0 0-15.74 10.98A15.197 15.525-180 0 0 0 103.92a15.426 15.76-180 0 0 15.96 15.13c.48 0 .95-.03 1.41-.06h25.85a2.658 2.715-180 0 0 .68-.11 12.891 13.17-180 0 0 12.79-12.68" style="fill:url(#a);stroke:none;stroke-width:34;stroke-linecap:butt"/></g><g transform="translate(15.667)"><title>Sheet.17867</title><path d="M24 93.95a4.675 4.776-180 0 0 0-6.74L15.97 79a4.646 4.747-180 0 0-6.59 0l-8.02 8.21a4.675 4.776-180 0 0 0 6.74l6.68 6.85a1.293 1.321 0 0 1 .38.95v12.71a1.59 1.625-180 0 0 .47 1.15l3.04 3.12a1.05 1.074-180 0 0 1.49 0l2.95-3.02v-.04l1.74-1.78a.608.621-180 0 0 0-.879l-1.25-1.291a.663.677 0 0 1 0-.958l1.25-1.282a.605.618-180 0 0 0-.879l-1.25-1.281a.663.677 0 0 1 0-.958l1.25-1.282a.611.624-180 0 0 0-.879l-1.74-1.791v-.66zM12.68 80.98a2.651 2.709 0 1 1-2.64 2.71 2.642 2.699 0 0 1 2.64-2.71" style="fill:url(#b);stroke:none;stroke-width:34;stroke-linecap:butt"/></g><g transform="translate(21.912 -4.194)"><title>Sheet.17868</title><path d="M4.34 118.93a.57.581-180 0 0 .97-.443V108.19a.601.614-180 0 0-.262-.509.57.581-180 0 0-.88.509l.002 10.3a.601.614-180 0 0 .171.443zM.71 94.15h11.78a.711.727 0 0 1 .711.727l-.001.133a.711.727 0 0 1-.711.727L.71 95.74a.711.727 0 0 1-.711-.727L0 94.88a.715.73 0 0 1 .715-.73zm0 2.59h11.78a.711.727 0 0 1 .711.727l-.001.133a.715.73 0 0 1-.715.73H.71a.711.727 0 0 1-.711-.727L0 97.47a.715.73 0 0 1 .711-.73z" style="fill:#0078d4;fill-opacity:.75;stroke:none;stroke-width:34;stroke-linecap:butt"/></g></g></g></svg>