<svg xmlns="http://www.w3.org/2000/svg" xml:space="preserve" width="76.716" height="77.767" style="font-size:12px;overflow:visible;color-interpolation-filters:sRGB;fill-rule:evenodd;stroke-linecap:square;stroke-miterlimit:3" viewBox="0 0 57.537 58.325"><defs><radialGradient id="a" cx="-5.977" cy="74.939" r="78.334" fx="-5.977" fy="74.939" gradientTransform="scale(.98844 1.0117)" gradientUnits="userSpaceOnUse"><stop offset=".185" stop-color="#5ea0ef"/><stop offset="1" stop-color="#0078d4"/></radialGradient><linearGradient id="b" x1="0" x2="17.816" y1="107.305" y2="107.305" gradientTransform="scale(.98934 1.01078)" gradientUnits="userSpaceOnUse"><stop offset="0" stop-color="#ccc"/><stop offset=".125" stop-color="#d7d7d7"/><stop offset=".42" stop-color="#ebebeb"/><stop offset=".715" stop-color="#f8f8f8"/><stop offset="1" stop-color="#fcfcfc"/></linearGradient></defs><g transform="translate(-34.006 -34.13)"><title>Page-1</title><g transform="translate(37.689 -34.016)"><title>WAF policy.17844</title><title>Icon-362Artboard 1</title><g transform="translate(2.226 -7.67)"><title>Sheet.17846</title><path d="M38.9 126.47A27.784 28.387 0 0 1 4.63 81.78l.33-.33a27.814 28.417 0 0 1 33.94 45.02" style="fill:url(#a);stroke:none;stroke-width:34;stroke-linecap:butt"/></g><g transform="translate(0 -10.672)"><title>Sheet.17847</title><path d="M2.61 112.8A84.293 86.12-180 0 0 0 121.47l1.96 3 1.96 2a46.51 47.519 0 0 1 3.59-11.67 8.255 8.434 0 0 1-4.9-2m3.27-15.34a44.572 45.538 0 0 1-2.29-9.67A24.648 25.182-180 0 0 0 92.45a34.43 35.176-180 0 0 1.96 8.01 8.911 9.104 0 0 1 3.92-3" style="fill:#83b9f9;stroke:none;stroke-width:34;stroke-linecap:butt"/></g><g transform="translate(0 -22.01)"><title>Sheet.17848</title><ellipse cx="8.813" cy="117.466" rx="8.813" ry="9.004" style="fill:url(#b);stroke:none;stroke-width:34;stroke-linecap:butt"/></g><g transform="translate(10.445 -9.63)"><title>Sheet.17849</title><path d="M11.42 121.76a6.874 7.023 0 0 1 1.64-4.33 30.03 30.68 0 0 1-8.16-6.34 8.98 9.174 0 0 1-4.9 2.67 62.671 64.03-180 0 0 4.9 4.67 26.684 27.263-180 0 0 6.52 4zm20.57.67a43.508 44.45 0 0 1-9.14-1v.33a5.405 5.523 0 0 1-1.63 4 42.326 43.243-180 0 0 11.09.67c1.31-1.33 2.62-3 3.92-4.34a17.244 17.618 0 0 1-4.24.34" style="fill:#83b9f9;stroke:none;stroke-width:34;stroke-linecap:butt"/></g><g transform="translate(21.87 -8.337)"><title>Sheet.17850</title><ellipse cx="5.875" cy="120.467" rx="5.875" ry="6.003" style="fill:none;stroke:none;stroke-width:34;stroke-linecap:butt"/></g><g transform="translate(12.077 -30.347)"><title>Sheet.17851</title><path d="M14.04 113.8a43.961 44.914 0 0 1 19.25-4.67 21.968 22.444-180 0 0-4.89-4.67 50.056 51.14-180 0 0-15.34 3.67 30.193 30.848-180 0 0-3.27 1.67 61.114 62.439 0 0 1-6.53-9.68 6.202 6.336-180 0 0-2.93 1 68.948 70.443-180 0 0 6.85 10.34A32.122 32.819-180 0 0 0 117.13a9.303 9.504 0 0 1 4.24 3.67 29.25 29.884 0 0 1 6.21-5 72.996 74.578-180 0 0 12.07 10.67 6.773 6.92 0 0 1 1.96-3.34 91.043 93.016 0 0 1-10.44-9.33" style="fill:#83b9f9;stroke:none;stroke-width:34;stroke-linecap:butt"/></g><g transform="translate(34.6 -22.677)"><title>Sheet.17852</title><ellipse cx="6.202" cy="120.134" rx="6.202" ry="6.336" style="fill:#f2f2f2;stroke:none;stroke-width:34;stroke-linecap:butt"/></g><g transform="translate(44.719 -21.343)"><title>Sheet.17853</title><path d="M6.53 123.13c-.33-.33-.65-.33-.98-.66-.33-.34-.65-.34-.98-.67h-.33l-.98-.67h-.32l-.98-.66a4.753 4.856 0 0 1-1.96 3c.33.33.65.33 1.31.67h.32c.33.33.65.33.98.66.98.67 1.96 1 2.94 1.67.33-1 .65-2.33.98-3.34" style="fill:#83b9f9;stroke:none;stroke-width:34;stroke-linecap:butt"/></g><g transform="translate(0 -22.01)"><title>Sheet.17854</title><ellipse cx="8.813" cy="117.466" rx="8.813" ry="9.004" style="fill:#f2f2f2;stroke:none;stroke-width:34;stroke-linecap:butt"/></g><g transform="translate(21.87 -8.337)"><title>Sheet.17855</title><ellipse cx="5.875" cy="120.467" rx="5.875" ry="6.003" style="fill:#f2f2f2;stroke:none;stroke-width:34;stroke-linecap:butt"/></g><g transform="translate(11.425)"><title>Sheet.17856</title><path d="M1.31 102.13H40.8c.65 0 1.63.66 1.63 1.33v21.34a1.75 1.787 0 0 1-1.63 1.67H1.31A1.495 1.527 0 0 1 0 124.8v-21.01a1.495 1.527 0 0 1 1.31-1.66" style="fill:#821010;stroke:none;stroke-width:34;stroke-linecap:butt"/></g><g transform="translate(13.056 -16.34)"><title>Sheet.17857</title><path d="M0 121.134h11.751v5.336H0z" style="fill:#e62323;stroke:none;stroke-width:34;stroke-linecap:butt"/></g><g transform="translate(26.766 -16.34)"><title>Sheet.17858</title><path d="M0 121.134h11.751v5.336H0z" style="fill:#ff7381;stroke:none;stroke-width:34;stroke-linecap:butt"/></g><g transform="translate(13.056 -9.338)"><title>Sheet.17859</title><path d="M27.09 114.13h11.75v5.34H27.09Zm-27.09 7h4.9v5.34H0Z" style="fill:#e62323;stroke:none;stroke-width:34;stroke-linecap:butt"/></g><g transform="translate(19.911 -9.338)"><title>Sheet.17860</title><path d="M27.09 121.13h4.9v5.34h-4.9zm-27.09 0h11.75v5.34H0Z" style="fill:#ff7381;stroke:none;stroke-width:34;stroke-linecap:butt"/></g><g transform="translate(13.056 -2.334)"><title>Sheet.17861</title><path d="M20.24 114.13h11.75v5.34H20.24Zm-20.24 7h11.75v5.34H0Z" style="fill:#e62323;stroke:none;stroke-width:34;stroke-linecap:butt"/></g><g transform="translate(26.766 -2.334)"><title>Sheet.17862</title><path d="M0 121.134h11.751v5.336H0z" style="fill:#ff7381;stroke:none;stroke-width:34;stroke-linecap:butt"/></g><g transform="translate(40.149 -2.334)"><title>Sheet.17863</title><path d="M0 121.134h11.751v5.336H0z" style="fill:#e62323;stroke:none;stroke-width:34;stroke-linecap:butt"/></g></g></g></svg>