<svg xmlns="http://www.w3.org/2000/svg" viewBox="0 0 512 512"><path fill="none" d="M0 0h512v512H0z"/><path fill="#9aa0a6" d="m331.66 331.66-22.627-22.627c29.242-29.243 29.242-76.823 0-106.066l22.627-22.627c41.72 41.719 41.72 109.602 0 151.32m-151.32 0c-41.72-41.719-41.72-109.602 0-151.32l22.627 22.627c-29.242 29.243-29.242 76.823 0 106.066z"/><path fill="#4285f4" d="M309.033 202.967c-29.242-29.242-76.824-29.242-106.066 0L180.34 180.34C200.55 160.13 227.42 149 256 149s55.45 11.13 75.66 31.34zM256 363c-28.58 0-55.45-11.13-75.66-31.34l22.627-22.627c29.242 29.242 76.824 29.242 106.066 0l22.627 22.627C311.45 351.87 284.58 363 256 363"/><path fill="#4285f4" d="M170.229 147.603a62.2 62.2 0 0 0 8.521-31.478c0-34.531-28.094-62.625-62.625-62.625S53.5 81.594 53.5 116.125s28.094 62.625 62.625 62.625a62.2 62.2 0 0 0 31.478-8.52l45.281 45.281a75.4 75.4 0 0 1 22.627-22.627l-45.281-45.281zm-54.104-.853c-16.887 0-30.625-13.738-30.625-30.625S99.238 85.5 116.125 85.5s30.625 13.738 30.625 30.625-13.738 30.625-30.625 30.625"/><path fill="#9aa0a6" d="M215.51 319.117a75.4 75.4 0 0 1-22.627-22.627l-45.281 45.281a62.2 62.2 0 0 0-31.478-8.52c-34.531 0-62.625 28.094-62.625 62.625s28.094 62.625 62.625 62.625 62.625-28.094 62.625-62.625a62.2 62.2 0 0 0-8.521-31.478l45.281-45.281ZM116.125 426.5c-16.887 0-30.625-13.738-30.625-30.625s13.738-30.625 30.625-30.625 30.625 13.738 30.625 30.625-13.738 30.625-30.625 30.625"/><path fill="#4285f4" d="M395.875 333.25a62.2 62.2 0 0 0-31.478 8.52l-45.281-45.281a75.4 75.4 0 0 1-22.627 22.627l45.281 45.281a62.2 62.2 0 0 0-8.521 31.478c0 34.531 28.094 62.625 62.625 62.625s62.625-28.094 62.625-62.625-28.094-62.625-62.625-62.625zm0 93.25c-16.887 0-30.625-13.738-30.625-30.625s13.738-30.625 30.625-30.625 30.625 13.738 30.625 30.625-13.738 30.625-30.625 30.625"/><path fill="#9aa0a6" d="M395.875 53.5c-34.531 0-62.625 28.094-62.625 62.625a62.24 62.24 0 0 0 8.764 31.902l-45.118 45.118a75.4 75.4 0 0 1 22.481 22.773l45.444-45.444a62.2 62.2 0 0 0 31.054 8.276c34.531 0 62.625-28.094 62.625-62.625S430.406 53.5 395.875 53.5m0 93.25c-16.887 0-30.625-13.738-30.625-30.625S378.988 85.5 395.875 85.5 426.5 99.238 426.5 116.125s-13.738 30.625-30.625 30.625"/></svg>