<svg xmlns="http://www.w3.org/2000/svg" width="18" height="18" viewBox="0 0 18 18"><defs><linearGradient id="a" x1="9" x2="9" y1="11.06" y2="7.53" gradientUnits="userSpaceOnUse"><stop offset="0" stop-color="#e26708"/><stop offset="1" stop-color="#f78d1e"/></linearGradient><linearGradient id="b" x1="9" x2="9" y1="17.7" y2=".3" gradientUnits="userSpaceOnUse"><stop offset="0" stop-color="#e26708"/><stop offset=".005" stop-color="#e26808"/><stop offset=".117" stop-color="#ec7912"/><stop offset=".257" stop-color="#f28419"/><stop offset=".454" stop-color="#f68b1d"/><stop offset="1" stop-color="#f78d1e"/></linearGradient></defs><path fill="#e27908" d="m9 9.7-2.5 2.5c0-.2-.2-.4-.3-.6s-.2-.2-.3-.2L8.3 9 5.7 6.4a1.2 1.2 0 0 0 .7-.7L9 8.3l2.6-2.6c.1.2.1.3.3.4a1.4 1.4 0 0 1 .4.3L9.7 9l2.5 2.5a.87.87 0 0 0-.6.8Zm-3.5 3.9 2.2 2.2v-.1a1.6 1.6 0 0 1 .5-1.1l-1.8-1.8a1.06 1.06 0 0 1-.9.8m-3.3-3.4 2.1 2.2a1 1 0 0 1 .7-.9L3.3 9.7a1.6 1.6 0 0 1-1.1.5m2.1-4.6L2.5 7.4a1.45 1.45 0 0 1 1 .7l1.7-1.7-.6-.3c-.1-.2-.2-.3-.3-.5m3.4-3.4L5.6 4.3a1.09 1.09 0 0 1 .8.8l1.8-1.8a1.43 1.43 0 0 1-.5-1.1m4.8 2.1-2-2a1.33 1.33 0 0 1-.6 1l1.8 1.8a1.09 1.09 0 0 1 .8-.8m3.2 3.2-1.9-1.9a1.09 1.09 0 0 1-.8.8l1.8 1.8a1.11 1.11 0 0 1 .9-.7m-.9 2.3-1.7 1.7c.2.1.3.1.4.3a.9.9 0 0 1 .3.7l2.1-2.1a2 2 0 0 1-1.1-.6m-3.1 3.1L10 14.6l.1.1a1.28 1.28 0 0 1 .4 1l2.1-2.1a.9.9 0 0 1-.7-.3.76.76 0 0 1-.2-.4"/><circle cx="5.4" cy="5.4" r="1.5" fill="#f78d1e"/><circle cx="12.6" cy="5.4" r="1.5" fill="#f78d1e"/><circle cx="5.4" cy="12.6" r="1.5" fill="#f78d1e"/><circle cx="12.6" cy="12.6" r="1.5" fill="#f78d1e"/><path fill="url(#a)" d="M2.2 7.1A1.9 1.9 0 1 1 .3 9a1.9 1.9 0 0 1 1.9-1.9m13.6 0A1.9 1.9 0 1 1 13.9 9a1.9 1.9 0 0 1 1.9-1.9"/><path fill="url(#b)" d="M9 .3a1.9 1.9 0 1 1-1.9 1.9A1.9 1.9 0 0 1 9 .3m0 13.6a1.9 1.9 0 1 1-1.9 1.9A1.9 1.9 0 0 1 9 13.9"/></svg>