<svg xmlns="http://www.w3.org/2000/svg" width="18" height="18" viewBox="0 0 18 18"><defs><linearGradient id="a" x1="9" x2="9" y1="17.44" y2="11.44" gradientUnits="userSpaceOnUse"><stop offset="0" stop-color="#0078d4"/><stop offset=".82" stop-color="#5ea0ef"/></linearGradient></defs><title>Icon-compute-39</title><rect width="9.97" height="12.48" x="5.62" y=".56" fill="#005ba1" rx=".42"/><rect width="9.97" height="12.48" x="4.11" y="1.91" fill="#0078d4" rx=".42"/><rect width="9.97" height="12.48" x="2.58" y="3.27" fill="#32bedd" rx=".42"/><path fill="#50e6ff" d="M10.48 6.99v3.39l-2.91 1.7V8.69z"/><path fill="#c3f1ff" d="M10.48 6.99 7.57 8.7 4.66 6.99l2.91-1.7z"/><path fill="#9cebff" d="M7.57 8.7v3.38l-2.91-1.7V6.99z"/><path fill="#c3f1ff" d="m4.66 10.38 2.91-1.69v3.39z"/><path fill="#9cebff" d="M10.48 10.38 7.57 8.69v3.39z"/><rect width="16.87" height="5.99" x=".56" y="11.44" fill="url(#a)" rx=".56"/><rect width="4.81" height=".87" x="6.6" y="12.92" fill="#f2f2f2" rx=".43"/></svg>