<svg xmlns="http://www.w3.org/2000/svg" xmlns:xlink="http://www.w3.org/1999/xlink" xml:space="preserve" width="56.696" height="53.854" style="font-size:12px;overflow:visible;color-interpolation-filters:sRGB;fill-rule:evenodd;stroke-linecap:square;stroke-miterlimit:3" viewBox="0 0 56.696 53.854"><defs><linearGradient id="a" x1="0" x2="1" y1="0" y2="0" gradientTransform="rotate(90 .5 .5)"><stop offset="0" stop-color="#a67af4"/><stop offset="1" stop-color="#773adc"/></linearGradient><linearGradient xlink:href="#a" id="b" x1="0" x2="15.43" y1="106.836" y2="106.836" gradientTransform="scale(1.00325 .99676)" gradientUnits="userSpaceOnUse"/><linearGradient xlink:href="#a" id="c" x1="0" x2="15.435" y1="106.87" y2="106.87" gradientTransform="scale(1.00357 .99644)" gradientUnits="userSpaceOnUse"/></defs><g transform="translate(-34 -34)"><title>Page-1</title><g transform="translate(34 -34.016)"><title>AKS Service and Ingress.12783</title><title>Sheet.12784</title><g transform="translate(5.446 -15.343)"><title>Sheet.12785</title><path d="M25.37 110.29v-6.67h-4.73v6.67a.945.94 0 0 1-.945.94H1.89A1.89 1.879-180 0 0 0 113.11v8.66h4.72v-4.79a.945.94 0 0 1 .945-.94H40.12a.945.94 0 0 1 .945.94l.005 4.89h4.72v-8.76a1.89 1.879-180 0 0-1.89-1.88H26.31a.945.94 0 0 1-.945-.94z" style="fill:#a3a3a3;stroke:none;stroke-width:34;stroke-linecap:butt"/></g><g transform="translate(17.442 -32.334)"><title>Sheet.12786</title><path d="M19.69 100.35H1.96A1.96 1.948-180 0 0 0 102.3v17.61a1.96 1.948-180 0 0 1.94 1.96h17.75a1.96 1.948-180 0 0 1.96-1.93v-17.65a1.956 1.945-180 0 0-1.95-1.94zm-1.7 16.6a1.298 1.29 0 0 1-1.3 1.29H4.94a1.3 1.293 0 0 1-1.3-1.29v-11.7a1.298 1.29 0 0 1 1.3-1.29h11.77a1.294 1.287 0 0 1 1.29 1.29z" style="fill:#773adc;stroke:none;stroke-width:34;stroke-linecap:butt"/></g><title>Sheet.12787</title><path d="M15.48 120.31v-12.26a1.575 1.566-180 0 0-1.57-1.56H1.57A1.575 1.566-180 0 0 0 108.05v12.26a1.575 1.566-180 0 0 1.57 1.56h12.34a1.575 1.566-180 0 0 1.57-1.56" style="fill:url(#b);stroke:none;stroke-width:34;stroke-linecap:butt"/><g transform="translate(41.206)"><title>Sheet.12788</title><path d="M15.49 120.31v-12.26a1.575 1.566-180 0 0-1.58-1.56H1.57A1.575 1.566-180 0 0 0 108.05v12.26a1.575 1.566-180 0 0 1.57 1.56h12.34a1.575 1.566-180 0 0 1.58-1.56" style="fill:url(#c);stroke:none;stroke-width:34;stroke-linecap:butt"/></g></g></g></svg>