<svg xmlns="http://www.w3.org/2000/svg" xml:space="preserve" width="51.022" height="56.696" style="font-size:12px;overflow:visible;color-interpolation-filters:sRGB;fill-rule:evenodd;stroke-linecap:square;stroke-miterlimit:3" viewBox="0 0 51.022 56.696"><defs><linearGradient id="a" x1="0" x2="36.795" y1="65.192" y2="65.192" gradientTransform="scale(.81778 1.22283)" gradientUnits="userSpaceOnUse"><stop offset="0" stop-color="#773adc"/><stop offset="1" stop-color="#a67af4"/></linearGradient><linearGradient id="b" x1="0" x2="36.785" y1="65.227" y2="65.227" gradientTransform="scale(.818 1.2225)" gradientUnits="userSpaceOnUse"><stop offset="0" stop-color="#0078d4"/><stop offset="1" stop-color="#5ea0ef"/></linearGradient></defs><g transform="translate(-34 -33.999)"><title>Page-1</title><g transform="translate(34 -34.016)"><title>AKS Storage.12775</title><title>Sheet.12776</title><g transform="translate(0 -11.704)"><title>Sheet.12777</title><path d="M18.86 92.86a3.749 3.638 0 0 1 3.81-3.43h7.42v-8.18a1.662 1.613-180 0 0-1.74-1.53H1.73A1.659 1.61-180 0 0 0 81.25v41.94a1.662 1.613-180 0 0 1.74 1.52h17.12z" style="fill:url(#a);stroke:none;stroke-width:34;stroke-linecap:butt"/></g><g transform="translate(4.414 -33.962)"><title>Sheet.12778</title><path d="M3.27 114.33h11.31a3.8 3.688 0 0 1 3.67-2.64h3.14a3.389 3.288-180 0 0 .13-.87 3.45 3.348-180 0 0-3.27-3.49H3.27A3.45 3.348-180 0 0 0 110.82a3.45 3.348-180 0 0 3.27 3.51m11.18 3.38H3.27a3.447 3.345-180 0 0-3.27 3.5 3.447 3.345-180 0 0 3.27 3.5h11.18z" style="fill:#341a6e;stroke:none;stroke-width:34;stroke-linecap:butt"/></g><g transform="translate(7.368 -35.829)"><title>Sheet.12779</title><path d="M4.11 112.69a2.408 2.337 0 1 1-2.4-2.34 2.405 2.334 0 0 1 2.4 2.34m0 10.37a2.408 2.337 0 1 1-2.4-2.34 2.408 2.337 0 0 1 2.4 2.34" style="fill:#b796f9;stroke:none;stroke-width:34;stroke-linecap:butt"/></g><g transform="translate(20.932)"><title>Sheet.12780</title><path d="M1.66 124.71h26.78a1.659 1.61-180 0 0 1.65-1.52V81.26a1.659 1.61-180 0 0-1.65-1.52H1.66A1.662 1.613-180 0 0 0 81.26v41.93a1.662 1.613-180 0 0 1.66 1.52" style="fill:url(#b);stroke:none;stroke-width:34;stroke-linecap:butt"/></g><g transform="translate(25.356 -22.242)"><title>Sheet.12781</title><path d="M21.52 121.21a3.45 3.348 0 0 1-3.27 3.5H3.27a3.45 3.348 0 0 1-3.27-3.5 3.45 3.348 0 0 1 3.27-3.5h14.98a3.45 3.348 0 0 1 3.27 3.5m0-10.4a3.45 3.348-180 0 0-3.27-3.5H3.27A3.45 3.348-180 0 0 0 110.82a3.454 3.351-180 0 0 3.27 3.51h14.98a3.454 3.351-180 0 0 3.27-3.51z" style="fill:#003067;stroke:none;stroke-width:34;stroke-linecap:butt"/></g><g transform="translate(28.309 -24.1)"><title>Sheet.12782</title><path d="M4.11 112.68a2.408 2.337 0 1 1-2.41-2.33 2.408 2.337 0 0 1 2.41 2.33m-2.41 8.04a2.408 2.337-180 1 0 2.41 2.33 2.405 2.334-180 0 0-2.41-2.33" style="fill:#83b9f9;stroke:none;stroke-width:34;stroke-linecap:butt"/></g></g></g></svg>