<svg xmlns="http://www.w3.org/2000/svg" xmlns:xlink="http://www.w3.org/1999/xlink" xml:space="preserve" width="56.693" height="51.019" style="font-size:12px;overflow:visible;color-interpolation-filters:sRGB;fill-rule:evenodd;stroke-linecap:square;stroke-miterlimit:3" viewBox="0 0 56.693 51.019"><defs><linearGradient id="a" x1="0" x2="1" y1="0" y2="0" gradientTransform="rotate(-90 .5 .5)"><stop offset="0" stop-color="#50e6ff"/><stop offset="1" stop-color="#9cebff"/></linearGradient><linearGradient xlink:href="#a" id="b" x1="0" x2="12.442" y1="106.441" y2="106.441" gradientTransform="scale(.9987 1.0013)" gradientUnits="userSpaceOnUse"/><linearGradient xlink:href="#a" id="c" x1="0" x2="12.442" y1="106.441" y2="106.441" gradientTransform="scale(.9987 1.0013)" gradientUnits="userSpaceOnUse"/></defs><g transform="translate(-34 -34.005)"><title>Page-1</title><g transform="translate(34 -34.016)"><title>AKS Hybrid Cluster.12816</title><title>Sheet.12817</title><g transform="translate(11.532 -36.99)"><title>Sheet.12818</title><path d="m8.14 119.01 7.34-2.98a.564.565-180 0 0 .333-.395l-.003-7.425a.597.599-180 0 0-.333-.508L8.04 105.17h-.33l-7.29 1.34a.564.565-180 0 0-.42.508v9.942a.53.532-180 0 0 .42.535l7.39 1.545a.96.963-180 0 0 .333-.03z" style="fill:#000;stroke:none;stroke-width:34;stroke-linecap:butt"/></g><g transform="translate(11.359 -36.71)"><title>Sheet.12819</title><path d="M16.07 107.48v8.18l-8.05 3.24L0 117.18v-10.96l8.02-1.49zm9.31-2.61-8.02 1.49v10.96l8.02 1.72 8.02-3.26v-8.16z" style="fill:#835ef7;stroke:none;stroke-width:34;stroke-linecap:butt"/></g><g transform="translate(3.145 -21.697)"><title>Sheet.12820</title><path d="M8.02 104.84 0 106.33v10.97l8.02 1.71 8.05-3.23v-8.18zm17.3-.11-8.02 1.49v10.96l8.02 1.75 8.02-3.26v-8.19zm17.3.14-8.02 1.49v10.96l8.02 1.72 8.05-3.23v-8.19z" style="fill:#7841e5;stroke:none;stroke-width:34;stroke-linecap:butt"/></g><g transform="translate(11.162 -10.048)"><title>Sheet.12821</title><path d="M33.4 119.04v-7.68l-8.05-2.76-8.02 1.49v8.95zm-33.01 0h15.68v-7.79l-8.05-2.76L0 109.95v8.36a7.747 7.767 0 0 1 .39.73" style="fill:#773adc;stroke:none;stroke-width:34;stroke-linecap:butt"/></g><g transform="translate(3.115 -21.807)"><title>Sheet.12822</title><path d="M8.24 91.31v10.97l8.11 1.72V89.95Zm3.43 10.13-2.28-.45v-8.44l2.28-.37zm3.53.65-2.61-.43v-9.64l2.61-.46Zm10.41-10.64v10.97l8.04 1.72V90.09ZM29 101.58l-2.27-.45v-8.44l2.27-.37Zm3.53.64-2.61-.42v-9.64l2.61-.48zM0 106.43v10.89l8.1 1.72V105Zm3.39 10.16-2.27-.46v-8.45l2.27-.39zm3.57.73-2.61-.42v-9.76l2.61-.45zm10.37-10.99v10.99l8.08 1.72V105Zm3.39 10.15-2.27-.48v-8.43l2.27-.4zm3.54.62-2.61-.42v-9.65l2.61-.45zm10.37-10.63v10.85l8.11 1.72V105Zm3.42 10.15-2.27-.49v-8.42l2.27-.4zm3.54.62-2.61-.44v-9.63l2.61-.45z" style="fill:#341a6e;stroke:none;stroke-width:34;stroke-linecap:butt"/></g><g transform="translate(12.089 -4.216)"><title>Sheet.12823</title><path d="M32.18 117.03a6.356 6.373 0 0 1 .13-1.27 1.23 1.234 0 0 1-.41.12H.22a6.42 6.436 0 0 1 .11 1.15 6.12 6.136 0 0 1-.33 1.88 1.264 1.267 0 0 1 .25-.07H31.9a1.274 1.277 0 0 1 .64.2 6.17 6.186 0 0 1-.36-2.01" style="fill:#5ea0ef;stroke:none;stroke-width:34;stroke-linecap:butt"/></g><g transform="translate(11.165 -10.048)"><title>Sheet.12824</title><path d="M18.45 119.04v-7.71l2.27-.4v8.11h.93v-8.25l2.6-.44v8.69h1.16V108.6l-8.11 1.49v8.95zm-17.33 0v-7.85l2.27-.4v8.25h.96v-8.39l2.6-.45v8.84H8.1v-10.55L0 109.95v9.09z" style="fill:#341a6e;stroke:none;stroke-width:34;stroke-linecap:butt"/></g><g transform="translate(44.267)"><title>Sheet.12825</title><ellipse cx="6.213" cy="112.81" rx="6.213" ry="6.229" style="fill:url(#b);stroke:none;stroke-width:34;stroke-linecap:butt"/></g><title>Sheet.12826</title><ellipse cx="6.213" cy="112.81" rx="6.213" ry="6.229" style="fill:url(#c);stroke:none;stroke-width:34;stroke-linecap:butt"/></g></g></svg>