<svg xmlns="http://www.w3.org/2000/svg" xml:space="preserve" width="56.695" height="45.354" style="font-size:12px;overflow:visible;color-interpolation-filters:sRGB;fill-rule:evenodd;stroke-linecap:square;stroke-miterlimit:3" viewBox="0 0 56.695 45.354"><defs><linearGradient id="a" x1="0" x2="32" y1="162.745" y2="162.745" gradientTransform="scale(1.7178 .58214)" gradientUnits="userSpaceOnUse"><stop offset="0" stop-color="#773adc"/><stop offset="1" stop-color="#552f99"/></linearGradient><linearGradient id="b" x1=".001" x2="41.308" y1="109.525" y2="109.525" gradientTransform="scale(1.33046 .75162)" gradientUnits="userSpaceOnUse"><stop offset="0" stop-color="#a67af4"/><stop offset="1" stop-color="#773adc"/></linearGradient></defs><g transform="translate(-33.995 -33.999)"><title>Page-1</title><g transform="translate(34 -34.016)"><title>AKS Open Service Mesh.12789</title><title>Sheet.12790</title><g transform="translate(.858)"><title>Sheet.12791</title><path d="m54.22 95.79-24.81 14.05a4.054 3.953 0 0 1-3.67 0L.77 95.79a1.298 1.265 0 0 1-.76-1.05L0 97.84a1.3 1.268-180 0 0 .77 1.05l24.96 14.05a4.05 3.95-180 0 0 3.67 0l24.81-14.06a1.291 1.26-180 0 0 .76-1.02v-3.11a1.291 1.26 0 0 1-.75 1.04" style="fill:url(#a);stroke:none;stroke-width:34;stroke-linecap:butt"/></g><g transform="translate(.868 -3.099)"><title>Sheet.12792</title><path d="M54.2 96.81a1.124 1.096 0 0 1 .01 2.07L29.4 112.94a4.05 3.95 0 0 1-3.67 0L.76 98.88a1.124 1.096 0 0 1-.01-2.07l24.81-14.06a4.05 3.95 0 0 1 3.67 0z" style="fill:url(#b);stroke:none;stroke-width:34;stroke-linecap:butt"/></g><g transform="translate(.868 -13.513)"><title>Sheet.12793</title><path d="M54.2 96.81a1.124 1.096 0 0 1 .01 2.07L29.4 112.94a4.05 3.95 0 0 1-3.67 0L.76 98.88a1.124 1.096 0 0 1-.01-2.07l24.81-14.06a4.05 3.95 0 0 1 3.67 0z" style="fill:#9cebff;fill-opacity:.5;stroke:none;stroke-width:34;stroke-linecap:butt"/></g><g transform="translate(0 -12.625)"><title>Sheet.12794</title><path d="M28.43 113.37a4.611 4.496 0 0 1-2.26-.54l-1.85-1.04a.864.842 0 1 1 .863-1.459l1.847 1.039a3.37 3.286-180 0 0 2.41.17.864.843 0 1 1 .542 1.6 5.017 4.892 0 0 1-1.552.23m5.93-2.75a.863.842 0 0 1-.435-1.57l4.615-2.61a.864.842 0 0 1 .87 1.456l-4.61 2.614a.86.838 0 0 1-.435.114zm-14.23-1.32a.857.835 0 0 1-.428-.114l-4.622-2.596a.864.842 0 1 1 .863-1.459l4.617 2.599a.863.842 0 0 1-.431 1.572zm23.46-3.91a.863.842 0 0 1-.431-1.572l4.611-2.608a.864.842 0 0 1 .87 1.456l-4.61 2.614a.857.835 0 0 1-.431.114zm-32.71-1.29a.86.838 0 0 1-.428-.114L5.82 101.38a.863.842 0 1 1 .863-1.456l4.627 2.596a.863.842 0 0 1-.435 1.572zm41.95-3.94a.863.842 0 0 1-.435-1.57l2.245-1.28c.27-.15.33-.28.33-.3 0-.03-.07-.16-.34-.32l.85-1.46.01.01a1.972 1.923 0 0 1 .02 3.53l-2.25 1.27a.86.838 0 0 1-.431.114zM1.2 98.78l-.01-.01a1.972 1.923 0 0 1-.01-3.53l2.24-1.27a.863.842 0 1 1 .866 1.453L2.05 96.7c-.27.15-.33.27-.33.3s.07.16.34.31zm49.22-4.58a.857.835 0 0 1-.431-.114L45.37 91.48a.864.842 0 0 1 .863-1.459l4.627 2.599a.863.842 0 0 1-.431 1.572zM8.47 92.93a.863.842 0 0 1-.435-1.57l4.625-2.62a.863.842 0 0 1 .866 1.456L8.91 92.81a.857.835 0 0 1-.435.114Zm32.71-3.94a.86.838 0 0 1-.431-.114L36.12 86.28a.864.842 0 0 1 .863-1.459l4.627 2.599a.863.842 0 0 1-.431 1.572zm-23.47-1.3a.863.842 0 0 1-.435-1.57l4.615-2.61a.864.842 0 1 1 .87 1.456l-4.62 2.614a.857.835 0 0 1-.435.114zm14.22-3.9a.857.835 0 0 1-.435-.114L29.66 82.64a3.358 3.274-180 0 0-2.43-.17.863.842 0 0 1-.542-1.597 5.02 4.895 0 0 1 1.562-.233 4.611 4.496 0 0 1 2.27.54l1.84 1.04a.863.842 0 0 1-.431 1.572z" style="fill:#50e6ff;stroke:none;stroke-width:34;stroke-linecap:butt"/></g></g></g></svg>