<svg xmlns="http://www.w3.org/2000/svg" xmlns:xlink="http://www.w3.org/1999/xlink" xml:space="preserve" width="56.694" height="53.873" style="font-size:12px;overflow:visible;color-interpolation-filters:sRGB;fill-rule:evenodd;stroke-linecap:square;stroke-miterlimit:3" viewBox="0 0 56.694 53.873"><defs><linearGradient id="a" x1="0" x2="1" y1="0" y2="0"><stop offset="0" stop-color="#b77af4"/><stop offset=".995" stop-color="#773adc"/></linearGradient><linearGradient xlink:href="#a" id="b" x1="0" x2="14.709" y1="116.144" y2="116.144" gradientTransform="scale(1.07362 .93143)" gradientUnits="userSpaceOnUse"/><linearGradient xlink:href="#a" id="c" x1="0" x2="14.699" y1="116.071" y2="116.071" gradientTransform="scale(1.07294 .93202)" gradientUnits="userSpaceOnUse"/><linearGradient xlink:href="#a" id="d" x1="0" x2="14.699" y1="116.071" y2="116.071" gradientTransform="scale(1.07294 .93202)" gradientUnits="userSpaceOnUse"/></defs><g transform="translate(-33.997 -33.998)"><title>Page-1</title><g transform="translate(34 -34.016)"><title>AKS Node Pool.12795</title><title>Sheet.12796</title><g transform="translate(10.783 -13.713)"><title>Sheet.12797</title><path d="M7.87 108.18 0 109.61v10.6l7.87 1.67 7.49-2.97a.687.677-180 0 0 .431-.621l-.001-6.959a.693.683-180 0 0-.466-.643z" style="fill:url(#b);stroke:none;stroke-width:34;stroke-linecap:butt"/></g><g transform="translate(10.774 -13.713)"><title>Sheet.12798</title><path d="M0 109.61v10.6l7.96 1.67v-13.7zm3.34 9.8-2.23-.44v-8.17l2.23-.37zm3.48.63-2.56-.41v-9.32l2.56-.44z" style="fill:#341a6e;stroke:none;stroke-width:34;stroke-linecap:butt"/></g><g transform="translate(20.678 -30.64)"><title>Sheet.12799</title><path d="M7.87 108.18 0 109.62v10.59l7.87 1.67 7.47-2.97a.69.68-180 0 0 .431-.621l-.001-6.959a.683.674-180 0 0-.466-.643z" style="fill:url(#c);stroke:none;stroke-width:34;stroke-linecap:butt"/></g><g transform="translate(20.665 -30.64)"><title>Sheet.12800</title><path d="M0 109.62v10.59l7.96 1.67v-13.7zm3.34 9.8-2.23-.45v-8.17l2.23-.37zm3.47.62-2.56-.41v-9.31l2.56-.45z" style="fill:#341a6e;stroke:none;stroke-width:34;stroke-linecap:butt"/></g><g transform="translate(30.51 -13.713)"><title>Sheet.12801</title><path d="M7.87 108.18 0 109.61v10.6l7.87 1.67 7.47-2.97a.687.677-180 0 0 .431-.621l-.001-6.959a.693.683-180 0 0-.466-.643z" style="fill:url(#d);stroke:none;stroke-width:34;stroke-linecap:butt"/></g><g transform="translate(30.5 -13.713)"><title>Sheet.12802</title><path d="M0 109.61v10.6l7.96 1.67v-13.7zm3.34 9.8-2.23-.44v-8.17l2.23-.37zm3.48.63-2.56-.41v-9.32l2.56-.44z" style="fill:#341a6e;stroke:none;stroke-width:34;stroke-linecap:butt"/></g><g transform="translate(0 -.026)"><title>Sheet.12803</title><path d="M0 115.43a.548.54-180 0 0 .27.466l3.85 2.204 6.53 3.73a.535.528-180 0 0 .737-.196l2.203-3.774a.548.54-180 0 0-.198-.733L5.75 112.76a.539.531 0 0 1-.27-.463V77.65a.539.531 0 0 1 .27-.463l7.64-4.377a.545.537-180 0 0 .198-.73l-2.198-3.77a.539.531-180 0 0-.737-.199L4.25 71.78.27 74.05a.545.537-180 0 0-.27.463z" style="fill:#949494;stroke:none;stroke-width:34;stroke-linecap:butt"/></g><title>Sheet.12804</title><path d="m13.59 72.06-2.2-3.77a.535.528-180 0 0-.548-.26.523.515-180 0 0-.27.064L4.17 71.75.19 74.03a.58.571-180 0 0-.192.186l.062.034a.545.537-180 0 0-.063.24l5.483 3.14a.535.528 0 0 1 .27-.463l7.64-4.377a.545.537-180 0 0 .198-.73zm0 45.79-2.21 3.77a.539.531 0 0 1-.548.26.523.515 0 0 1-.27-.064L4.16 118.15l-3.97-2.27a.56.553 0 0 1-.192-.19l.062-.04a.548.54 0 0 1-.063-.242l5.483-3.128a.539.531-180 0 0 .27.463l7.64 4.367a.548.54 0 0 1 .198.733z" style="fill:#a3a3a3;stroke:none;stroke-width:34;stroke-linecap:butt"/><g transform="translate(43.041 -.013)"><title>Sheet.12805</title><path d="M13.65 74.51a.548.54-180 0 0-.27-.466L9.53 71.84 2.99 68.1a.535.528-180 0 0-.737.196L.05 72.07a.548.54-180 0 0 .198.733L7.89 77.18a.539.531 0 0 1 .27.463v34.647a.539.531 0 0 1-.27.463L.25 117.13a.545.537-180 0 0-.198.73l2.208 3.77a.539.531-180 0 0 .737.199L9.4 118.16l3.97-2.27a.545.537-180 0 0 .27-.463z" style="fill:#949494;stroke:none;stroke-width:34;stroke-linecap:butt"/></g><g transform="translate(43.048 -.003)"><title>Sheet.12806</title><path d="m.05 117.85 2.21 3.77a.535.528-180 0 0 .548.26.523.515-180 0 0 .27-.064l6.402-3.666 3.97-2.27a.58.571-180 0 0 .192-.186l-.062-.044a.545.537-180 0 0 .063-.24l-5.473-3.13a.535.528 0 0 1-.27.463L.26 117.12a.545.537-180 0 0-.205.73zm0-45.79 2.21-3.77a.539.531 0 0 1 .548-.26.523.515 0 0 1 .27.064L9.48 71.75l3.97 2.28a.56.553 0 0 1 .186.19l-.056.03a.548.54 0 0 1 .063.242L8.16 77.63a.539.531-180 0 0-.27-.463L.25 72.79a.548.54 0 0 1-.198-.733Z" style="fill:#a3a3a3;stroke:none;stroke-width:34;stroke-linecap:butt"/></g></g></g></svg>