<svg xmlns="http://www.w3.org/2000/svg" xml:space="preserve" width="45.35" height="56.69" style="font-size:12px;overflow:visible;color-interpolation-filters:sRGB;fill-rule:evenodd;stroke-linecap:square;stroke-miterlimit:3" viewBox="0 0 45.35 56.69"><defs><linearGradient id="a" x1="0" x2="50.704" y1="60.838" y2="60.838" gradientTransform="scale(.8944 1.11806)" gradientUnits="userSpaceOnUse"><stop offset="0" stop-color="#a67af4"/><stop offset="1" stop-color="#773adc"/></linearGradient></defs><g transform="translate(-34 -34.004)"><title>Page-1</title><g transform="translate(34 -34.016)"><title>AKS Configuration.12839</title><title>Sheet.12840</title><title>Sheet.12841</title><path d="M0 122.82a1.85 1.89-180 0 0 1.85 1.89H43.5a1.85 1.89-180 0 0 1.85-1.89V69.91a1.85 1.89-180 0 0-1.85-1.89H1.85A1.85 1.89-180 0 0 0 69.91Z" style="fill:url(#a);stroke:none;stroke-width:34;stroke-linecap:butt"/><g transform="translate(5.805 -40.287)"><title>Sheet.12842</title><path d="M0 123.5a1.184 1.21-180 0 0 1.18 1.21h4.16a1.184 1.21-180 0 0 1.19-1.21v-2.94a1.184 1.21-180 0 0-1.19-1.21H1.18A1.184 1.21-180 0 0 0 120.56Z" style="fill:#fff;fill-opacity:.8;stroke:none;stroke-width:34;stroke-linecap:butt"/></g><g transform="translate(16.772 -40.287)"><title>Sheet.12843</title><path d="M0 123.54a1.147 1.172-180 0 0 1.15 1.17h20.17a1.147 1.172-180 0 0 1.14-1.17v-3.01a1.147 1.172-180 0 0-1.14-1.18H1.15A1.147 1.172-180 0 0 0 120.53Z" style="fill:#fff;stroke:none;stroke-width:34;stroke-linecap:butt"/></g><g transform="translate(12.642 -30.453)"><title>Sheet.12844</title><path d="M0 123.66a1.023 1.046-180 0 0 1.02 1.05h4.51a1.023 1.046-180 0 0 1.02-1.05v-3.26a1.023 1.046-180 0 0-1.02-1.05H1.02A1.023 1.046-180 0 0 0 120.4Z" style="fill:#fff;fill-opacity:.8;stroke:none;stroke-width:34;stroke-linecap:butt"/></g><g transform="translate(23.671 -30.453)"><title>Sheet.12845</title><path d="M0 123.69a.993 1.014-180 0 0 .993 1.014l13.697.006a.993 1.014-180 0 0 .993-1.014l-.003-3.326a.993 1.014-180 0 0-.993-1.014L.99 119.35a.993 1.014-180 0 0-.993 1.014z" style="fill:#fff;stroke:none;stroke-width:34;stroke-linecap:butt"/></g><g transform="translate(12.617 -20.617)"><title>Sheet.12846</title><path d="M0 123.66a1.023 1.046-180 0 0 1.02 1.05h4.53a1.023 1.046-180 0 0 1.03-1.05v-3.26a1.023 1.046-180 0 0-1.03-1.05H1.02A1.023 1.046-180 0 0 0 120.4Z" style="fill:#fff;fill-opacity:.8;stroke:none;stroke-width:34;stroke-linecap:butt"/></g><g transform="translate(23.671 -20.617)"><title>Sheet.12847</title><path d="M0 123.69a.993 1.014-180 0 0 .993 1.014l13.697.006a.993 1.014-180 0 0 .993-1.014l-.003-3.326a.993 1.014-180 0 0-.993-1.014L.99 119.35a.993 1.014-180 0 0-.993 1.014z" style="fill:#fff;stroke:none;stroke-width:34;stroke-linecap:butt"/></g><g transform="translate(5.919 -10.784)"><title>Sheet.12848</title><path d="M0 123.5a1.184 1.21-180 0 0 1.18 1.21h4.16a1.184 1.21-180 0 0 1.19-1.21v-2.94a1.184 1.21-180 0 0-1.19-1.21H1.18A1.184 1.21-180 0 0 0 120.56Z" style="fill:#fff;fill-opacity:.8;stroke:none;stroke-width:34;stroke-linecap:butt"/></g><g transform="translate(16.887 -10.784)"><title>Sheet.12849</title><path d="M0 123.54a1.147 1.172-180 0 0 1.15 1.17h20.17a1.147 1.172-180 0 0 1.14-1.17v-3.01a1.147 1.172-180 0 0-1.14-1.18H1.15A1.147 1.172-180 0 0 0 120.53Z" style="fill:#fff;stroke:none;stroke-width:34;stroke-linecap:butt"/></g></g></g></svg>