<svg xmlns="http://www.w3.org/2000/svg" xml:space="preserve" width="56.692" height="45.35" style="font-size:12px;overflow:visible;color-interpolation-filters:sRGB;fill-rule:evenodd;stroke-linecap:square;stroke-miterlimit:3" viewBox="0 0 56.692 45.35"><defs><linearGradient id="a" x1="0" x2="47.775" y1="86.754" y2="86.754" gradientTransform="scale(1.18663 .84272)" gradientUnits="userSpaceOnUse"><stop offset="0" stop-color="#a67af4"/><stop offset="1" stop-color="#773adc"/></linearGradient></defs><g transform="translate(-34 -34.004)"><title>Page-1</title><g transform="translate(34 -34.016)"><title>AKS Namespace.12807</title><title>Sheet.12808</title><title>Sheet.12809</title><path d="M55.36 73.05H30.65a1.128 1.105 0 0 1-.73-.23l-7.08-4.61a1.436 1.407-180 0 0-.73-.19H1.34A1.335 1.309-180 0 0 0 69.29v42.81a1.335 1.309-180 0 0 1.34 1.27h54.02a1.33 1.302-180 0 0 1.33-1.27V74.35a1.332 1.305-180 0 0-1.33-1.3" style="fill:#773adc;stroke:none;stroke-width:34;stroke-linecap:butt"/><g transform="translate(5.168 -40.355)"><title>Sheet.12810</title><path d="M0 112.85a.532.522-180 0 0 .532.522l11.808-.002a.532.522-180 0 0 .532-.522l-.002-1.468a.532.522-180 0 0-.532-.522L.53 110.85a.532.522-180 0 0-.532.522z" style="fill:#fff;fill-opacity:.6;stroke:none;stroke-width:34;stroke-linecap:butt"/></g><g transform="translate(0 -.13)"><title>Sheet.12811</title><path d="M55.36 73.11H28.35a1.21 1.185-180 0 0-.95.39l-4.49 4.25a1.443 1.413 0 0 1-.94.36H1.34A1.335 1.309-180 0 0 0 79.42v32.68a1.339 1.312-180 0 0 1.34 1.27h54.02a1.332 1.305-180 0 0 1.33-1.27V74.48a1.332 1.305-180 0 0-1.26-1.37z" style="fill:url(#a);stroke:none;stroke-width:34;stroke-linecap:butt"/></g><g transform="translate(10.318 -20.43)"><title>Sheet.12812</title><path d="M0 112.16a1.238 1.213-180 0 0 1.24 1.21h4.53A1.238 1.213-180 0 0 7 112.16v-2.82a1.238 1.213-180 0 0-1.23-1.22H1.24A1.238 1.213-180 0 0 0 109.34Z" style="fill:#fff;fill-opacity:.8;stroke:none;stroke-width:34;stroke-linecap:butt"/></g><g transform="translate(21.266 -20.43)"><title>Sheet.12813</title><path d="M0 112.19a1.2 1.176-180 0 0 1.2 1.18h22.53a1.2 1.176-180 0 0 1.2-1.18v-2.89a1.2 1.176-180 0 0-1.2-1.18H1.2A1.2 1.176-180 0 0 0 109.3Z" style="fill:#fff;stroke:none;stroke-width:34;stroke-linecap:butt"/></g><g transform="translate(10.318 -11.144)"><title>Sheet.12814</title><path d="M0 112.16a1.238 1.213-180 0 0 1.24 1.21h4.53A1.238 1.213-180 0 0 7 112.16v-2.82a1.238 1.213-180 0 0-1.23-1.22H1.24A1.238 1.213-180 0 0 0 109.34Z" style="fill:#fff;fill-opacity:.8;stroke:none;stroke-width:34;stroke-linecap:butt"/></g><g transform="translate(21.266 -11.144)"><title>Sheet.12815</title><path d="M0 112.19a1.2 1.176-180 0 0 1.2 1.18h22.53a1.2 1.176-180 0 0 1.2-1.18v-2.89a1.2 1.176-180 0 0-1.2-1.18H1.2A1.2 1.176-180 0 0 0 109.3Z" style="fill:#fff;stroke:none;stroke-width:34;stroke-linecap:butt"/></g></g></g></svg>