<svg xmlns="http://www.w3.org/2000/svg" xmlns:xlink="http://www.w3.org/1999/xlink" xml:space="preserve" width="45.359" height="56.69" style="font-size:12px;overflow:visible;color-interpolation-filters:sRGB;fill-rule:evenodd;stroke-linecap:square;stroke-miterlimit:3" viewBox="0 0 45.359 56.69"><defs><linearGradient id="b" x1="0" x2="16.967" y1="39.776" y2="39.776" gradientTransform="scale(.455 2.1978)" gradientUnits="userSpaceOnUse"><stop offset=".17" stop-color="#50e6ff"/><stop offset=".635" stop-color="#3dcdea"/><stop offset="1" stop-color="#32bedd"/></linearGradient><linearGradient id="a" x1="0" x2="1" y1="0" y2="0" gradientTransform="rotate(-90 .5 .5)"><stop offset=".17" stop-color="#50e6ff"/><stop offset=".635" stop-color="#3dcdea"/><stop offset="1" stop-color="#32bedd"/></linearGradient><linearGradient xlink:href="#a" id="c" x1="0" x2="9.54" y1="91.374" y2="91.374" gradientTransform="scale(.8092 1.2358)" gradientUnits="userSpaceOnUse"/><linearGradient xlink:href="#a" id="d" x1="0" x2="16.967" y1="39.776" y2="39.776" gradientTransform="scale(.455 2.1978)" gradientUnits="userSpaceOnUse"/></defs><g transform="translate(-34 -34.004)"><title>Page-1</title><g transform="translate(34 -34.016)"><title>AVD RDP Property.12748</title><title>MsPortalFx.base.images-29</title><g transform="translate(1.866)"><title>Sheet.12750</title><path d="M0 122.83a1.845 1.877-180 0 0 1.84 1.88h4.03a1.845 1.877-180 0 0 1.85-1.88V69.89a1.845 1.877-180 0 0-1.85-1.87H1.84A1.845 1.877-180 0 0 0 69.89Z" style="fill:#0078d4;stroke:none;stroke-width:34;stroke-linecap:butt"/></g><g transform="translate(18.632)"><title>Sheet.12751</title><path d="M0 122.83a1.845 1.877-180 0 0 1.84 1.88h4.03a1.845 1.877-180 0 0 1.85-1.88V69.89a1.845 1.877-180 0 0-1.85-1.87H1.84A1.845 1.877-180 0 0 0 69.89Z" style="fill:#0078d4;stroke:none;stroke-width:34;stroke-linecap:butt"/></g><g transform="translate(35.667)"><title>Sheet.12752</title><path d="M0 122.83a1.845 1.877-180 0 0 1.84 1.88h4.03a1.845 1.877-180 0 0 1.85-1.88V69.89a1.845 1.877-180 0 0-1.85-1.87H1.84A1.845 1.877-180 0 0 0 69.89Z" style="fill:#0078d4;stroke:none;stroke-width:34;stroke-linecap:butt"/></g><g transform="translate(1.866)"><title>Sheet.12753</title><path d="M0 122.83a1.845 1.877-180 0 0 1.84 1.88h4.03a1.845 1.877-180 0 0 1.85-1.88V89.3a1.845 1.877-180 0 0-1.85-1.88H1.84A1.845 1.877-180 0 0 0 89.3Z" style="fill:url(#b);stroke:none;stroke-width:34;stroke-linecap:butt"/></g><g transform="translate(18.632)"><title>Sheet.12754</title><path d="M0 122.83a1.845 1.877-180 0 0 1.84 1.88h4.03a1.845 1.877-180 0 0 1.85-1.88v-8.04a1.845 1.877-180 0 0-1.85-1.87H1.84A1.845 1.877-180 0 0 0 114.79Z" style="fill:url(#c);stroke:none;stroke-width:34;stroke-linecap:butt"/></g><g transform="translate(35.667)"><title>Sheet.12755</title><path d="M0 122.83a1.845 1.877-180 0 0 1.84 1.88h4.03a1.845 1.877-180 0 0 1.85-1.88V89.3a1.845 1.877-180 0 0-1.85-1.88H1.84A1.845 1.877-180 0 0 0 89.3Z" style="fill:url(#d);stroke:none;stroke-width:34;stroke-linecap:butt"/></g><g transform="translate(0 -33.978)"><title>Sheet.12756</title><path d="M0 122.85a1.823 1.855-180 0 0 1.82 1.86h8.01a1.823 1.855-180 0 0 1.83-1.86A1.823 1.855-180 0 0 9.83 121H1.82A1.823 1.855-180 0 0 0 122.85" style="fill:#e6e6e6;stroke:none;stroke-width:34;stroke-linecap:butt"/></g><g transform="translate(16.825 -8.998)"><title>Sheet.12757</title><path d="M0 122.85a1.823 1.855-180 0 0 1.82 1.86h8.01a1.823 1.855-180 0 0 1.83-1.86A1.823 1.855-180 0 0 9.83 121H1.82A1.823 1.855-180 0 0 0 122.85" style="fill:#e6e6e6;stroke:none;stroke-width:34;stroke-linecap:butt"/></g><g transform="translate(33.699 -33.978)"><title>Sheet.12758</title><path d="M0 122.85a1.823 1.855-180 0 0 1.82 1.86h8.01a1.823 1.855-180 0 0 1.83-1.86A1.823 1.855-180 0 0 9.83 121H1.82A1.823 1.855-180 0 0 0 122.85" style="fill:#e6e6e6;stroke:none;stroke-width:34;stroke-linecap:butt"/></g></g></g></svg>