<svg xmlns="http://www.w3.org/2000/svg" xml:space="preserve" width="56.693" height="56.693" style="font-size:12px;overflow:visible;color-interpolation-filters:sRGB;fill-rule:evenodd;stroke-linecap:square;stroke-miterlimit:3" viewBox="0 0 56.693 56.693"><defs><linearGradient id="a" x1="0" x2="56.693" y1="68.016" y2="68.016" gradientUnits="userSpaceOnUse"><stop offset="0" stop-color="#005ba1"/><stop offset=".17" stop-color="#0063ae"/><stop offset=".575" stop-color="#0072ca"/><stop offset=".815" stop-color="#0078d4"/></linearGradient></defs><g transform="translate(-34 -34)"><title>Page-1</title><g transform="translate(34 -34.016)"><title>AVD Workspace.12735</title><title>Workspaces</title><title>Sheet.12737</title><circle cx="28.346" cy="96.362" r="28.346" style="fill:url(#a);stroke:none;stroke-width:34;stroke-linecap:butt"/><g transform="translate(25.435 -25.385)"><title>Sheet.12738</title><path d="M2.51 107.37A2.51 2.51-180 0 0 0 109.88v12.32a2.51 2.51-180 0 0 2.51 2.51h12.32a2.51 2.51-180 0 0 2.5-2.51v-12.32a2.51 2.51-180 0 0-2.5-2.51zm2.26 3.27a1.504 1.504-180 0 0-1.51 1.5v7.8a1.507 1.507-180 0 0 1.51 1.51h7.81a1.504 1.504-180 0 0 1.51-1.51v-7.8a1.504 1.504-180 0 0-1.51-1.5z" style="fill:#7de2fb;stroke:none;stroke-width:34;stroke-linecap:butt"/></g><g transform="translate(13.923 -13.973)"><title>Sheet.12739</title><path d="M0 105.33a1.504 1.504 0 0 1 1.5-1.5h6.18a1.504 1.504 0 0 1 1.5 1.5v6.21a1.504 1.504 0 0 1-1.5 1.5H1.5a1.504 1.504 0 0 1-1.5-1.5Zm0 11.7a1.504 1.504 0 0 1 1.5-1.5h6.18a1.504 1.504 0 0 1 1.5 1.5v6.17a1.504 1.504 0 0 1-1.5 1.51H1.5A1.504 1.504 0 0 1 0 123.2Zm11.51-.15a1.504 1.504 0 0 1 1.51-1.5h6.17a1.507 1.507 0 0 1 1.51 1.5v6.17a1.507 1.507 0 0 1-1.51 1.51h-6.17a1.504 1.504 0 0 1-1.51-1.51z" style="fill:#fff;stroke:none;stroke-width:34;stroke-linecap:butt"/></g></g></g></svg>