<svg xmlns="http://www.w3.org/2000/svg" xml:space="preserve" width="56.69" height="56.69" style="font-size:12px;overflow:visible;color-interpolation-filters:sRGB;fill-rule:evenodd;stroke-linecap:square;stroke-miterlimit:3" viewBox="0 0 56.69 56.69"><defs><linearGradient id="a" x1="0" x2="45.33" y1="78.804" y2="78.804" gradientTransform="scale(.99538 1.00464)" gradientUnits="userSpaceOnUse"><stop offset="0" stop-color="#773adc"/><stop offset="1" stop-color="#a67af4"/></linearGradient></defs><g transform="translate(-34 -34.004)"><title>Page-1</title><g transform="translate(34 -34.016)"><title>Azure Compute Gallery.12710</title><title>Sheet.12711</title><title>Sheet.12712</title><path d="M24.74 75.97h-1.91a1.357 1.357 0 0 1-1.36-1.34v-5.26a1.357 1.357 0 0 1 1.36-1.35h1.91a1.354 1.354 0 0 1 1.35 1.35v5.26a1.354 1.354 0 0 1-1.35 1.34m9.84-1.34v-5.26a1.357 1.357-180 0 0-1.36-1.35h-1.91a1.357 1.357-180 0 0-1.36 1.35v5.26a1.357 1.357-180 0 0 1.36 1.36h1.91a1.357 1.357-180 0 0 1.36-1.36m-8.49 48.86v-4.02a1.22 1.22-180 0 0-1.21-1.22h-2.2a1.22 1.22-180 0 0-1.22 1.22v4.02a1.22 1.22-180 0 0 1.22 1.22h2.2a1.22 1.22-180 0 0 1.21-1.22m8.49 0v-4.02a1.22 1.22-180 0 0-1.22-1.22h-2.18a1.22 1.22-180 0 0-1.22 1.22v4.02a1.22 1.22-180 0 0 1.22 1.22h2.18a1.22 1.22-180 0 0 1.22-1.22M49.7 94.78h5.59a1.4 1.4-180 0 0 1.4-1.4v-1.87a1.4 1.4-180 0 0-1.4-1.4h-5.6a1.4 1.4-180 0 0-1.4 1.4v1.87a1.4 1.4-180 0 0 1.4 1.41zm0 8.56h5.59a1.4 1.4-180 0 0 1.4-1.4v-1.87a1.4 1.4-180 0 0-1.4-1.4h-5.6a1.4 1.4-180 0 0-1.4 1.4v1.87a1.4 1.4-180 0 0 1.4 1.4zM1.21 94.79h3.88a1.213 1.213-180 0 0 1.21-1.22v-2.25a1.213 1.213-180 0 0-1.21-1.21H1.21A1.213 1.213-180 0 0 0 91.32v2.25a1.213 1.213-180 0 0 1.21 1.22m0 8.56h3.88a1.213 1.213-180 0 0 1.21-1.22v-2.24a1.213 1.213-180 0 0-1.21-1.22H1.21A1.213 1.213-180 0 0 0 99.89v2.24a1.213 1.213-180 0 0 1.21 1.21z" style="fill:#773adc;stroke:none;stroke-width:34;stroke-linecap:butt"/><g transform="translate(5.461 -5.213)"><title>Sheet.12713</title><path d="M0 121.94a2.77 2.77-180 0 0 2.77 2.77h39.58a2.77 2.77-180 0 0 2.77-2.77v-40a2.77 2.77-180 0 0-2.77-2.77H2.77A2.77 2.77-180 0 0 0 81.94Z" style="fill:url(#a);stroke:none;stroke-width:34;stroke-linecap:butt"/></g><g transform="translate(28.36 -16.97)"><title>Sheet.12714</title><path d="M9.74 107.66v11.35L0 124.71v-11.38z" style="fill:#50e6ff;stroke:none;stroke-width:34;stroke-linecap:butt"/></g><g transform="translate(18.592 -28.321)"><title>Sheet.12715</title><path d="m19.51 119.01-9.74 5.7-9.77-5.7 9.77-5.7z" style="fill:#c3f1ff;stroke:none;stroke-width:34;stroke-linecap:butt"/></g><g transform="translate(18.592 -16.97)"><title>Sheet.12716</title><path d="M9.77 113.36v11.35L0 119.01v-11.35z" style="fill:#9cebff;stroke:none;stroke-width:34;stroke-linecap:butt"/></g><g transform="translate(18.592 -16.97)"><title>Sheet.12717</title><path d="m0 119.01 9.77-5.68v11.38z" style="fill:#c3f1ff;stroke:none;stroke-width:34;stroke-linecap:butt"/></g><g transform="translate(28.36 -16.97)"><title>Sheet.12718</title><path d="M9.74 119.01 0 113.33v11.38z" style="fill:#9cebff;stroke:none;stroke-width:34;stroke-linecap:butt"/></g></g></g></svg>