<svg xmlns="http://www.w3.org/2000/svg" xml:space="preserve" width="56.709" height="56.695" style="font-size:12px;overflow:visible;color-interpolation-filters:sRGB;fill-rule:evenodd;stroke-linecap:square;stroke-miterlimit:3" viewBox="0 0 56.709 56.695"><defs><linearGradient id="a" x1="-.015" x2="31.34" y1="89.381" y2="89.381" gradientTransform="scale(1.25271 .79827)" gradientUnits="userSpaceOnUse"><stop offset=".225" stop-color="#a67af4"/><stop offset="1" stop-color="#773adc"/></linearGradient><linearGradient id="b" x1="0" x2="22.579" y1="71.451" y2="71.451" gradientTransform="scale(.97564 1.02497)" gradientUnits="userSpaceOnUse"><stop offset=".225" stop-color="#a67af4"/><stop offset="1" stop-color="#773adc"/></linearGradient><linearGradient id="c" x1="0" x2="27.246" y1="71.624" y2="71.624" gradientTransform="scale(1.02583 .97482)" gradientUnits="userSpaceOnUse"><stop offset="0" stop-color="#1988d9"/><stop offset=".9" stop-color="#54aef0"/></linearGradient></defs><g transform="translate(-5.65 -5.67)"><title>Page-1</title><g transform="translate(5.67 -34.016)"><title>Azure Stack Multi-Tenant.12623</title><title>Sheet.12624</title><g transform="translate(0 -11.26)"><title>Sheet.12625</title><g transform="translate(27.499 -7.334)"><title>Sheet.12626</title><path d="M23.88 96.38a2.331 2.45-180 0 0 2.33-2.45 1.676 1.76-180 0 0 0-.29c-.93-7.7-5.11-13.96-13.08-13.96C5.01 79.68.82 84.99 0 93.67a2.347 2.466-180 0 0 2.09 2.7 1.979 2.079-180 0 0 .24 0z" style="fill:#773adc;stroke:none;stroke-width:.75;stroke-linecap:butt"/></g><g transform="translate(33.261 -22.22)"><title>Sheet.12627</title><ellipse cx="7.357" cy="88.649" rx="7.357" ry="7.729" style="fill:#773adc;stroke:none;stroke-width:.75;stroke-linecap:butt"/></g><title>Sheet.12628</title><path d="M35.76 96.38a3.494 3.67-180 0 0 3.5-3.66 3.15 3.31-180 0 0-.02-.44c-1.38-11.53-7.64-20.93-19.59-20.93C7.5 71.35 1.22 79.29 0 92.31a3.513 3.69-180 0 0 3.13 4.05 3.311 3.479-180 0 0 .35.02z" style="fill:url(#a);stroke:none;stroke-width:.75;stroke-linecap:butt"/><g transform="translate(13.876 -7.93)"><title>Sheet.12629</title><path d="M5.95 82.02A10.967 11.522 0 0 1 0 80.18l5.9 16.2 5.86-16.11a10.927 11.479 0 0 1-5.81 1.75" style="fill:#fff;fill-opacity:.8;stroke:none;stroke-width:.75;stroke-linecap:butt"/></g><g transform="translate(8.743 -22.29)"><title>Sheet.12630</title><ellipse cx="11.015" cy="84.806" rx="11.015" ry="11.572" style="fill:url(#b);stroke:none;stroke-width:.75;stroke-linecap:butt"/></g></g><g transform="translate(28.74)"><title>Sheet.12631</title><path d="M13.98 69.82 0 90.38l13.98 6 13.97-6z" style="fill:url(#c);stroke:none;stroke-width:.75;stroke-linecap:butt"/></g><g transform="translate(28.74)"><title>Sheet.12632</title><path d="M13.98 69.82 0 90.38l13.98 6z" style="fill:#50e6ff;stroke:none;stroke-width:.75;stroke-linecap:butt"/></g></g></g></svg>