<svg xmlns="http://www.w3.org/2000/svg" xml:space="preserve" width="56.708" height="56.693" style="font-size:12px;overflow:visible;color-interpolation-filters:sRGB;fill-rule:evenodd;stroke-linecap:square;stroke-miterlimit:3" viewBox="0 0 56.708 56.693"><defs><linearGradient id="a" x1="-.008" x2="56.692" y1="68.179" y2="68.179" gradientTransform="scale(1.00013 .99987)" gradientUnits="userSpaceOnUse"><stop offset="0" stop-color="#0078d4"/><stop offset=".16" stop-color="#1380da"/><stop offset=".53" stop-color="#3c91e5"/><stop offset=".82" stop-color="#559cec"/><stop offset="1" stop-color="#5ea0ef"/></linearGradient></defs><g transform="translate(-34.076 -34.086)"><title>Page-1</title><g transform="translate(34.084 -34.084)"><title>Azure Stack Offer.12618</title><title>g23</title><title>path17</title><path d="m56.09 76.48-7.76-7.74a2.033 2.07-180 0 0-1.4-.57l-14.06.54a1.766 1.798-180 0 0-1.2.68L.57 100.66a1.833 1.866-180 0 0 0 2.72l20.67 20.93a1.9 1.933-180 0 0 2.66 0l31.09-31.45a1.766 1.798-180 0 0 .57-1.19l1.13-13.56a1.933 1.967-180 0 0-.6-1.63m-9.23 5.12a3.332 3.392 0 1 1 3.33-3.39 3.332 3.392 0 0 1-3.33 3.39" style="fill:url(#a);stroke:none;stroke-width:34.08409882;stroke-linecap:butt"/><g transform="translate(42.548 -42.305)"><title>path19</title><path d="M4.31 114.14a6.165 6.275-180 1 0 6.2 6.27 6.165 6.275-180 0 0-6.2-6.27m3.34 6.95a3.401 3.462 0 1 1-6.67-1.36 3.332 3.392 0 0 1 2.7-2.74 3.332 3.392 0 0 1 4.03 4.1z" style="fill:#005ba1;stroke:none;stroke-width:34.08409882;stroke-linecap:butt"/></g><g transform="translate(8.106 -7.984)"><title>path21</title><path d="m22.69 91.65-1.26-1.29-1.2 1.29-1.64-1.66 2.8-2.95 2.9 2.95zM7.33 104.68l-1.63-1.66 3.6-3.67.93.85-.83-.85 1.53 1.77zm8.4-11.81 1.63 1.7-3.53 3.6-1.63-1.67ZM2.9 111.8 0 108.85 2.9 106l1.63 1.66-1.26 1.19 1.26 1.29zm4.66 1.43 3.87 3.97-1.67 1.66-3.86-3.94zm8.14 11.63-2.9-2.95 1.76-1.66 1.14 1.19 1.2-1.09 1.63 1.66zm7.86-11.09 1.67 1.66-3.7 3.6-1.64-1.67zm4.5-1.26-1.73-1.66 3.6-3.66 1.63 1.66-3.33 3.66-.8-.81zm6.43-6.51-1.77-1.49zm0 0-1.77-1.49 1.17-1.32-1.17-1.16 1.64-1.79 2.9 2.95zm-7.06-12.85 3.86 3.93-1.66 1.7-3.87-3.94z" style="fill:#fff;stroke:none;stroke-width:34.08409882;stroke-linecap:butt"/></g></g></g></svg>