<svg xmlns="http://www.w3.org/2000/svg" xml:space="preserve" width="56.744" height="56.694" style="font-size:12px;overflow:visible;color-interpolation-filters:sRGB;fill-rule:evenodd;stroke-linecap:square;stroke-miterlimit:3" viewBox="0 0 56.744 56.694"><defs><linearGradient id="a" x1="-.09" x2="33.73" y1="56.665" y2="56.665" gradientTransform="scale(.93882 1.06516)" gradientUnits="userSpaceOnUse"><stop offset="0" stop-color="#9cebff"/><stop offset="1" stop-color="#50e6ff"/></linearGradient></defs><g transform="translate(-5.676 -5.672)"><title>Page-1</title><g transform="translate(5.67 -34.016)"><title>Azure Stack Update.12602</title><title>Sheet.12603</title><g transform="translate(17.667 -12.033)"><title>Sheet.12604</title><path d="M23.94 51.72H1.48a1.444 1.46-180 0 0-1.45 1.46v33.08a28.237 28.541 0 0 1 3.63-2.69h4.27l2.37 3.24v4.99l-2.98 4.03-4.11-.55L0 94.01v.88a1.444 1.46-180 0 0 1.44 1.49h22.47a1.444 1.46-180 0 0 1.44-1.49V53.18a1.444 1.46-180 0 0-1.41-1.46" style="fill:#0078d4;stroke:none;stroke-width:.75;stroke-linecap:butt"/></g><g transform="translate(20.716 -34.476)"><title>ad507295-c076-421c-9034-1cdfff6</title><path d="M.35 80.03h4.17a.353.357 0 0 1 .385.357L4.91 85.9a.385.39 0 0 1-.385.39H.35a.353.357 0 0 1-.353-.39L0 80.39a.353.357 0 0 1 .353-.357zm7.38 0h4.14a.353.357 0 0 1 .353.357l.007 5.513a.353.357 0 0 1-.353.39H7.73a.353.357 0 0 1-.353-.39l.003-5.51a.353.357 0 0 1 .353-.357zm7.29 0h4.1a.353.357 0 0 1 .353.357l.007 5.513a.353.357 0 0 1-.353.39H14.89a.385.39 0 0 1-.385-.39l-.005-5.51a.353.357 0 0 1 .385-.357zM.35 90.05h4.17a.353.357 0 0 1 .385.357l.005 5.613a.353.357 0 0 1-.385.292L.35 96.31a.353.357 0 0 1-.353-.292L0 90.41a.353.357 0 0 1 .353-.357zm7.38 0h4.14a.353.357 0 0 1 .353.357l.007 5.613a.353.357 0 0 1-.353.357l-4.147.003a.353.357 0 0 1-.481-.357l.001-5.613a.353.357 0 0 1 .481-.357zm7.29 0h4.1a.353.357 0 0 1 .353.357l.007 5.613a.353.357 0 0 1-.353.357l-4.237.003a.353.357 0 0 1-.385-.357L14.5 90.41a.353.357 0 0 1 .385-.357z" style="fill:#f2f2f2;stroke:none;stroke-width:.75;stroke-linecap:butt"/></g><g transform="translate(7.496 -16.52)"><title>Sheet.12606</title><path d="M14.92 91.2a3.209 3.243-180 0 0-3.21 2.47H.19A9.85 9.957-180 0 0 0 95.38v.17h11.71a3.209 3.243-180 1 0 3.21-4.35" style="fill:#50e6ff;stroke:none;stroke-width:.75;stroke-linecap:butt"/></g><g transform="translate(7.688 -9.827)"><title>Sheet.12607</title><path d="M23.58 83.05a8.471 8.562-180 0 0-8.6-8.27 8.567 8.66-180 0 0-8.21 5.77 8.246 8.335-180 0 0-6.42 5.32h10.46a4.396 4.443 0 0 1 3.92-2.47 4.524 4.573 0 1 1-3.92 6.49H0a8.182 8.27-180 0 0 8.12 6.49h14.57a6.58 6.65-180 0 0 .89-13.27z" style="fill:#32bedd;stroke:none;stroke-width:.75;stroke-linecap:butt"/></g><g transform="translate(0 -16.488)"><title>Sheet.12608</title><path d="M22.42 91.17a3.209 3.243-180 0 0-3.21 2.46H7.69a6.16 6.227 0 0 1-1.19-.16 5.904 5.968 0 0 1 .64-11.77h.55l.19-.55a6.417 6.487 0 0 1 6.42-4.41 6.674 6.746 0 0 1 5.84 3.24 9.273 9.373 0 0 1 1.89-.2 8.535 8.627-180 0 0-7.86-4.99 8.439 8.53-180 0 0-7.83 5.16 7.765 7.849-180 0 0-.67 15.27 4.845 4.897-180 0 0 1.89.33h11.65a3.209 3.243-180 1 0 3.21-4.35z" style="fill:#50e6ff;stroke:none;stroke-width:.75;stroke-linecap:butt"/></g><g transform="translate(25.084)"><title>Sheet.12609</title><path d="m.16 75.46 14.44-14.6a1.733 1.751 0 0 1 2.43 0l14.41 14.6a.77.778 0 0 1-.545 1.33H22.17a.77.778-180 0 0-.77.778V95.76a.61.616 0 0 1-.61.616l-9.63.004a.578.584 0 0 1-.61-.616V77.57a.77.778-180 0 0-.77-.778L.83 76.79a.77.778 0 0 1-.674-1.33Z" style="fill:url(#a);stroke:none;stroke-width:.75;stroke-linecap:butt"/></g></g></g></svg>