<svg xmlns="http://www.w3.org/2000/svg" xml:space="preserve" width="56.69" height="45.362" style="font-size:12px;overflow:visible;color-interpolation-filters:sRGB;fill-rule:evenodd;stroke-linecap:square;stroke-miterlimit:3" viewBox="0 0 56.69 45.362"><defs><linearGradient id="a" x1="0" x2="47.819" y1="86.604" y2="86.604" gradientTransform="scale(1.1855 .84352)" gradientUnits="userSpaceOnUse"><stop offset="0" stop-color="#0078d4"/><stop offset="1" stop-color="#5ea0ef"/></linearGradient><linearGradient id="b" x1="0" x2="20.143" y1="196.335" y2="196.335" gradientTransform="scale(1.90932 .52375)" gradientUnits="userSpaceOnUse"><stop offset="0" stop-color="#76bc2d"/><stop offset=".815" stop-color="#86d633"/></linearGradient></defs><g transform="translate(-34 -34.002)"><title>Page-1</title><g transform="translate(34 -34.016)"><title>Azure VMware Solution.12573</title><title>Sheet.12574</title><g transform="translate(0 -5.035)"><title>Sheet.12575</title><path d="M56.69 100.75a12.74 12.785-180 0 0-11.05-12.29 16.063 16.119-180 0 0-16.53-15.4 16.466 16.524-180 0 0-15.74 10.78A15.203 15.256-180 0 0 0 98.5a15.433 15.487-180 0 0 15.96 14.88q.72 0 1.41-.06h25.85a2.56 2.57-180 0 0 .7-.09 12.888 12.933-180 0 0 12.77-12.48" style="fill:url(#a);stroke:none;stroke-width:34;stroke-linecap:butt"/></g><g transform="translate(24.53 -8.17)"><title>Sheet.12576</title><path d="M12 96.06a7.978 8.006-180 1 0-11.87 6.95v10.37h7.66v-10.29A7.953 7.98-180 0 0 12 96.06m-6.58 14.93H2.49v-7.08a8.189 8.218-180 0 0 1.53.16 7.918 7.946-180 0 0 1.4-.15zm0-9.5a5.578 5.597 0 0 1-1.4.2 5.477 5.496 0 0 1-1.53-.24zm2.37-1.26-7.66-.12a5.622 5.642 0 1 1 7.66.11z" style="fill:#fff;stroke:none;stroke-width:34;stroke-linecap:butt"/></g><g transform="translate(9.298)"><title>Sheet.12577</title><path d="M0 112.09a1.285 1.29-180 0 0 1.29 1.29h35.88a1.285 1.29-180 0 0 1.29-1.29v-7.97a1.285 1.29-180 0 0-1.29-1.29H1.29A1.285 1.29-180 0 0 0 104.12Z" style="fill:url(#b);stroke:none;stroke-width:34;stroke-linecap:butt"/></g><g transform="translate(41.93 -5.822)"><title>Sheet.12578</title><path d="M0 112.73a.643.645-180 0 0 .643.645l1.587.005a.643.645-180 0 0 .643-.645l-.003-1.595a.643.645-180 0 0-.643-.645L.64 110.49a.643.645-180 0 0-.643.645z" style="fill:#fff;stroke:none;stroke-width:34;stroke-linecap:butt"/></g><g transform="translate(41.93 -1.846)"><title>Sheet.12579</title><path d="M0 112.73a.643.645-180 0 0 .643.645l1.587.005a.643.645-180 0 0 .643-.645l-.003-1.595a.643.645-180 0 0-.643-.645L.64 110.49a.643.645-180 0 0-.643.645z" style="fill:#fff;fill-opacity:.6;stroke:none;stroke-width:34;stroke-linecap:butt"/></g><g transform="translate(25.159 -10.556)"><title>Sheet.12580</title><path d="M9 98.45a5.616 5.635-180 1 0-7.14 5.39v9.54h2.93v-9.48A5.603 5.623-180 0 0 9 98.45" style="fill:#76bc2d;stroke:none;stroke-width:34;stroke-linecap:butt"/></g></g></g></svg>