<svg xmlns="http://www.w3.org/2000/svg" xml:space="preserve" width="56.69" height="56.705" style="font-size:12px;overflow:visible;color-interpolation-filters:sRGB;fill-rule:evenodd;stroke-linecap:square;stroke-miterlimit:3" viewBox="0 0 56.69 56.705"><defs><linearGradient id="a" x1="0" x2="48.097" y1="98.915" y2="98.915" gradientTransform="scale(1.17865 .84843)" gradientUnits="userSpaceOnUse"><stop offset="0" stop-color="#0078d4"/><stop offset="1" stop-color="#5ea0ef"/></linearGradient></defs><g transform="translate(-34 -33.996)"><title>Page-1</title><g transform="translate(34 -34.016)"><title>Azure Stack HCI.12639</title><title>Sheet.12640</title><g transform="translate(1.704)"><title>Sheet.12641</title><path d="M53.63 115.8c-.51 2.24-3.25 4.42-8.19 6.13a67.575 68.588 0 0 1-37.96.05c-4.57-1.64-7.03-3.71-7.41-5.85-.07-.38 0-6.25 0-6.25l53.66-.5s-.04 6.15-.1 6.42" style="fill:#5ea0ef;stroke:none;stroke-width:34;stroke-linecap:butt"/></g><g transform="rotate(-.575 -523.635 -58.609)"><title>Sheet.12642</title><ellipse cx="26.85" cy="115.295" rx="26.85" ry="9.421" style="fill:#50e6ff;stroke:none;stroke-width:34;stroke-linecap:butt"/></g><g transform="translate(0 -15.911)"><title>Sheet.12643</title><path d="M56.69 111.94a12.737 12.928-180 0 0-11.05-12.42A16.063 16.304-180 0 0 29.1 83.93a16.466 16.713-180 0 0-15.75 10.9A15.2 15.428-180 0 0 0 109.67a15.433 15.664-180 0 0 15.96 15.05c.48 0 .95-.03 1.41-.06h25.85a2.58 2.618-180 0 0 .68-.11 12.891 13.085-180 0 0 12.79-12.61" style="fill:url(#a);stroke:none;stroke-width:34;stroke-linecap:butt"/></g><g transform="translate(14.079 -29.37)"><title>Sheet.12644</title><path d="M0 123.76a.945.96-180 0 0 .945.959l26.375.001a.945.96-180 0 0 .945-.959l-.005-5.931a.945.96-180 0 0-.945-.959L.94 116.87a.945.96-180 0 0-.945.959z" style="fill:#9cebff;stroke:none;stroke-width:34;stroke-linecap:butt"/></g><g transform="translate(14.079 -20.24)"><title>Sheet.12645</title><path d="M0 123.76a.945.96-180 0 0 .945.959l26.375.001a.945.96-180 0 0 .945-.959l-.005-5.931a.945.96-180 0 0-.945-.959L.94 116.87a.945.96-180 0 0-.945.959z" style="fill:#50e6ff;stroke:none;stroke-width:34;stroke-linecap:butt"/></g><g transform="translate(14.079 -10.956)"><title>Sheet.12646</title><path d="M0 123.76a.945.96-180 0 0 .945.959l26.375.001a.945.96-180 0 0 .945-.959l-.005-5.931a.945.96-180 0 0-.945-.959L.94 116.87a.945.96-180 0 0-.945.959z" style="fill:#32bedd;stroke:none;stroke-width:34;stroke-linecap:butt"/></g><g transform="translate(37.953 -12.327)"><title>Sheet.12647</title><path d="M1.63 103.35H.47a.472.48 0 0 1-.472-.48L0 101.68a.472.48 0 0 1 .472-.48H1.64a.472.48 0 0 1 .472.48l-.002 1.19a.472.48 0 0 1-.476.48zm.48 2.47v-1.18a.472.48-180 0 0-.472-.48H.47a.472.48-180 0 0-.472.48L0 105.82a.472.48-180 0 0 .472.48H1.64a.472.48-180 0 0 .47-.48m0 6.18v-1.19a.472.48-180 0 0-.472-.48H.47a.472.48-180 0 0-.472.48L0 111.99a.472.48-180 0 0 .472.48H1.64a.472.48-180 0 0 .47-.473zm0 2.95v-1.18a.472.48-180 0 0-.472-.48H.47a.472.48-180 0 0-.472.48L0 114.96a.472.48-180 0 0 .472.48H1.64a.472.48-180 0 0 .47-.48zm0 6.33v-1.18a.472.48-180 0 0-.472-.48H.47a.472.48-180 0 0-.472.48L0 121.28a.472.48-180 0 0 .472.48H1.64a.472.48-180 0 0 .47-.48m0 2.96v-1.19a.472.48-180 0 0-.472-.48H.47a.472.48-180 0 0-.472.48L0 124.24a.472.48-180 0 0 .472.48H1.64a.472.48-180 0 0 .47-.483z" style="fill:#fff;stroke:none;stroke-width:34;stroke-linecap:butt"/></g></g></g></svg>