<svg xmlns="http://www.w3.org/2000/svg" xml:space="preserve" width="56.722" height="56.696" style="font-size:12px;overflow:visible;color-interpolation-filters:sRGB;fill-rule:evenodd;stroke-linecap:square;stroke-miterlimit:3" viewBox="0 0 56.722 56.696"><defs><linearGradient id="a" x1="-.019" x2="38.996" y1="118.197" y2="118.197" gradientTransform="scale(1.26712 .78919)" gradientUnits="userSpaceOnUse"><stop offset=".22" stop-color="#32d4f5"/><stop offset="1" stop-color="#198ab3"/></linearGradient><linearGradient id="b" x1="0" x2="28.102" y1="94.417" y2="94.417" gradientTransform="scale(.98746 1.0127)" gradientUnits="userSpaceOnUse"><stop offset=".22" stop-color="#32d4f5"/><stop offset="1" stop-color="#198ab3"/></linearGradient><radialGradient id="c" cx="26.098" cy="97.248" r="36.531" fx="26.098" fy="97.248" gradientTransform="scale(.78376 1.2759)" gradientUnits="userSpaceOnUse"><stop offset=".27" stop-color="#ffd70f"/><stop offset="1" stop-color="#fea11b"/></radialGradient></defs><g transform="translate(-33.366 -33.366)"><title>Page-1</title><g transform="translate(33.39 -34.016)"><title>Azure Stack User Subscription.12591</title><title>g35</title><g transform="translate(0 -.856)"><title>g27</title><title>path21</title><path d="M44.99 124.07a4.416 4.53-180 0 0 4.41-4.49 2.67 2.738-180 0 0 0-.54c-1.74-14.2-9.62-25.76-24.68-25.76S1.52 103.09 0 119.07a4.416 4.53-180 0 0 3.92 4.97h41.07z" style="fill:url(#a);stroke:none;stroke-width:33.36600113;stroke-linecap:butt"/><g transform="translate(17.237 -9.768)"><title>path23</title><path d="M7.48 106.43A13.48 13.824 0 0 1 0 104.17l7.42 19.9 7.38-19.77a13.743 14.094 0 0 1-7.32 2.13" style="fill:#fff;fill-opacity:.8;stroke:none;stroke-width:33.36600113;stroke-linecap:butt"/></g><g transform="translate(10.843 -27.378)"><title>circle25</title><ellipse cx="13.875" cy="109.845" rx="13.875" ry="14.23" style="fill:url(#b);stroke:none;stroke-width:33.36600113;stroke-linecap:butt"/></g></g><g transform="translate(36.244)"><title>g33</title><title>f2ddd4d7-46fc-4e48-ae24-8fde036</title><path d="M19.36 104.09a3.724 3.82-180 0 0 0-5.41l-6.4-6.76a3.691 3.786-180 0 0-5.27 0L1.1 98.48a3.757 3.853-180 0 0 0 5.44l5.3 5.54a1.022 1.048 0 0 1 .3.75v10.14a1.186 1.217-180 0 0 .4.94l2.4 2.54a.89.913-180 0 0 1.22 0l2.37-2.44 1.39-1.45a.461.473-180 0 0 0-.676l-1.02-1.044a.56.575 0 0 1 0-.777l1.02-1.053a.428.44-180 0 0 0-.676l-.99-1.044a.56.575 0 0 1 0-.777l1.02-1.053a.461.473-180 0 0 0-.676l-1.38-1.454v-.37zm-9-10.51a2.175 2.23 0 0 1 2.11 2.19 2.076 2.13 0 0 1-2.15 2.17 2.142 2.197 0 0 1 0-4.36z" style="fill:url(#c);stroke:none;stroke-width:33.36600113;stroke-linecap:butt"/><g transform="translate(8.446 -3.218)"><title>e15034b6-eebb-4253-ac69-86068a1</title><path d="M.13 123.97a.461.473-180 0 0 .791-.338L.92 115.35a.527.54-180 0 0-.198-.44.461.473-180 0 0-.725.406L0 123.63a.428.44-180 0 0 .132.338z" style="fill:#ff9300;fill-opacity:.75;stroke:none;stroke-width:33.36600113;stroke-linecap:butt"/></g><g transform="rotate(-89.65 -3.128 105.108)"><title>f3d2a589-08f4-4e99-9635-cc67aba</title><path d="M0 123.5a.56.575-180 0 0 .56.575l.13-.005a.56.575-180 0 0 .56-.575V113.8a.56.575-180 0 0-.56-.575l-.13.005a.56.575-180 0 0-.56.575z" style="fill:#ff9300;fill-opacity:.75;stroke:none;stroke-width:33.36600113;stroke-linecap:butt"/></g><g transform="rotate(-89.65 -2.084 106.179)"><title>bc7793e0-f7bc-4cc4-abb0-181c6c6</title><path d="M0 123.5a.56.575-180 0 0 .56.575l.13-.005a.56.575-180 0 0 .56-.575V113.8a.56.575-180 0 0-.56-.575l-.13.005a.56.575-180 0 0-.56.575z" style="fill:#ff9300;fill-opacity:.75;stroke:none;stroke-width:33.36600113;stroke-linecap:butt"/></g></g></g></g></svg>