<svg xmlns="http://www.w3.org/2000/svg" xml:space="preserve" width="56.69" height="53.859" style="font-size:12px;overflow:visible;color-interpolation-filters:sRGB;fill-rule:evenodd;stroke-linecap:square;stroke-miterlimit:3" viewBox="0 0 56.69 53.859"><defs><linearGradient id="a" x1="0" x2="46.93" y1="100.286" y2="100.286" gradientTransform="scale(1.20797 .82783)" gradientUnits="userSpaceOnUse"><stop offset="0" stop-color="#76bc2d"/><stop offset=".815" stop-color="#86d633"/></linearGradient><linearGradient id="b" x1="0" x2="20.622" y1="146.922" y2="146.922" gradientTransform="scale(1.37477 .7274)" gradientUnits="userSpaceOnUse"><stop offset=".15" stop-color="#ccc"/><stop offset="1" stop-color="#707070"/></linearGradient></defs><g transform="translate(-34 -33.995)"><title>Page-1</title><g transform="translate(34 -34.016)"><title>Azure VMware Solution Virtual Machine.12581</title><title>Sheet.12582</title><g transform="translate(0 -15.009)"><title>Sheet.12583</title><path d="M0 119.93a1.893 1.946-180 0 0 1.89 1.94H54.8a1.893 1.946-180 0 0 1.89-1.94V84.97a1.893 1.946-180 0 0-1.89-1.95H1.89A1.893 1.946-180 0 0 0 84.97Z" style="fill:url(#a);stroke:none;stroke-width:34;stroke-linecap:butt"/></g><g transform="translate(18.891 -23.102)"><title>Sheet.12584</title><g transform="translate(.006 -11.302)"><title>Sheet.12585</title><path d="m18.9 116.2-9.45 5.67L0 116.19l9.45-5.68Z" style="fill:#fff;stroke:none;stroke-width:34;stroke-linecap:butt"/></g><g transform="translate(.006 -5.678)"><title>Sheet.12586</title><path d="M0 110.57v11.3l9.44-5.63z" style="fill:#fff;fill-opacity:.8;stroke:none;stroke-width:34;stroke-linecap:butt"/></g><g transform="translate(0 -.003)"><title>Sheet.12587</title><path d="m0 116.2 9.45 5.67v-11.3l-.01-.01z" style="fill:#fff;stroke:none;stroke-width:34;stroke-linecap:butt"/></g><g transform="translate(9.455 -5.678)"><title>Sheet.12588</title><path d="m0 116.23 9.45 5.64v-11.3z" style="fill:#fff;fill-opacity:.6;stroke:none;stroke-width:34;stroke-linecap:butt"/></g><g transform="translate(9.455)"><title>Sheet.12589</title><path d="m0 121.87 9.45-5.67L0 110.56Z" style="fill:#fff;fill-opacity:.8;stroke:none;stroke-width:34;stroke-linecap:butt"/></g></g><g transform="translate(14.173)"><title>Sheet.12590</title><path d="M25.53 118.62c-5.6-.9-5.82-5.06-5.8-11.75H8.6c0 6.69-.2 10.85-5.8 11.75a3.3 3.393-180 0 0-2.8 3.25h28.35a3.317 3.409-180 0 0-2.82-3.25" style="fill:url(#b);stroke:none;stroke-width:34;stroke-linecap:butt"/></g></g></g></svg>