<svg xmlns="http://www.w3.org/2000/svg" xml:space="preserve" width="56.69" height="56.698" style="font-size:12px;overflow:visible;color-interpolation-filters:sRGB;fill-rule:evenodd;stroke-linecap:square;stroke-miterlimit:3" viewBox="0 0 56.69 56.698"><defs><linearGradient id="a" x1="0" x2="47.441" y1="67.735" y2="67.735" gradientTransform="scale(1.19495 .83685)" gradientUnits="userSpaceOnUse"><stop offset="0" stop-color="#5ea0ef"/><stop offset=".18" stop-color="#559cec"/><stop offset=".47" stop-color="#3c91e5"/><stop offset=".84" stop-color="#1380da"/><stop offset="1" stop-color="#0078d4"/></linearGradient><linearGradient id="b" x1="0" x2="21.36" y1="173.931" y2="173.931" gradientTransform="scale(2.02622 .49353)" gradientUnits="userSpaceOnUse"><stop offset="0" stop-color="#0078d4"/><stop offset=".16" stop-color="#1380da"/><stop offset=".53" stop-color="#3c91e5"/><stop offset=".82" stop-color="#559cec"/><stop offset="1" stop-color="#5ea0ef"/></linearGradient></defs><g transform="translate(-5.67 -5.668)"><title>Page-1</title><g transform="translate(5.67 -34.016)"><title>Icon-484-EdgeManagementArtboard 1</title><title>bc5f08d8-e18b-48db-a908-1aa1ac8</title><g transform="translate(0 -17)"><title>Sheet.12650</title><path d="M56.69 83.93a12.813 12.448-180 0 0-11.03-12.08A16.139 15.679-180 0 0 29.1 56.69a16.517 16.046-180 0 0-15.72 10.57A15.42 14.981-180 0 0 0 81.69a15.572 15.128-180 0 0 15.99 14.69h27.25l.6-.33a13.002 12.631-180 0 0 12.85-12.12" style="fill:url(#a);stroke:none;stroke-width:.75;stroke-linecap:butt"/></g><g transform="translate(10.998 -7.49)"><title>Sheet.12651</title><path d="M33.64 89.11H18.52V70.75h-2.27v18.36H1.13A1.134 1.102-180 0 0 0 90.21v4.3a1.134 1.102-180 0 0 1.13 1.1 1.096 1.065-180 0 0 1.1-1.1v-3.24h14.02v2.24h2.23v-2.24h14.06v4.01a1.134 1.102-180 0 0 1.1 1.1 1.172 1.138-180 0 0 1.13-1.1v-5.07a1.134 1.102-180 0 0-1.13-1.1" style="fill:#949494;stroke:none;stroke-width:.75;stroke-linecap:butt"/></g><g transform="translate(6.614)"><title>Sheet.12652</title><path d="M41.88 96.38h-7.86a1.36 1.322 0 0 1-1.4-1.36V87.2a1.398 1.359 0 0 1 1.4-1.36h7.86a1.436 1.395 0 0 1 1.4 1.36v7.82a1.398 1.359 0 0 1-1.4 1.36m-14.89-1.36V87.2a1.436 1.395-180 0 0-1.4-1.36h-7.86a1.398 1.359-180 0 0-1.4 1.36v7.82a1.36 1.322-180 0 0 1.4 1.36h7.86a1.398 1.359-180 0 0 1.4-1.36m-16.22 0V87.2a1.436 1.395-180 0 0-1.4-1.36H1.4A1.436 1.395-180 0 0 0 87.2v7.82a1.398 1.359-180 0 0 1.4 1.36h7.9a1.398 1.359-180 0 0 1.47-1.36" style="fill:url(#b);stroke:none;stroke-width:.75;stroke-linecap:butt"/></g><g transform="translate(17.084 -27.098)"><title>Sheet.12653</title><path d="M22.98 86.32v-2.54h-.38l-2.8-.88-.71-1.72 1.4-2.94-1.82-1.76-.38.18-2.87 1.14-1.81-.7-1.14-3.08h-2.45v.36l-.91 2.72-1.78.7-3.25-1.4-1.81 1.8.19.33 1.62 2.54-.75 1.72L0 84.11v2.5h.34l2.8.88.72 1.73-1.4 2.94 1.81 1.76h.38l2.61-1.29 1.77.7 1.14 3.05h2.6v-.33l.91-2.72 1.78-.7 3.02 1.36 1.82-1.76-.19-.37-1.33-2.53.72-1.73zm-11.34 3.67a5.027 4.884 0 1 1 4.99-4.88 4.989 4.847 0 0 1-5.22 4.88z" style="fill:#fff;stroke:none;stroke-width:.75;stroke-linecap:butt"/></g></g></g></svg>