<svg xmlns="http://www.w3.org/2000/svg" xml:space="preserve" width="45.351" height="56.696" style="font-size:12px;overflow:visible;color-interpolation-filters:sRGB;fill-rule:evenodd;stroke-linecap:square;stroke-miterlimit:3" viewBox="0 0 45.351 56.696"><defs><linearGradient id="a" x1="0" x2="41.14" y1="29.539" y2="29.539" gradientTransform="scale(.73334 1.36362)" gradientUnits="userSpaceOnUse"><stop offset="0" stop-color="#949494"/><stop offset=".53" stop-color="#a2a2a2"/><stop offset="1" stop-color="#b3b3b3"/></linearGradient><linearGradient id="b" x1="0" x2="21.698" y1="64.22" y2="64.22" gradientTransform="scale(.89145 1.12177)" gradientUnits="userSpaceOnUse"><stop offset="0" stop-color="#005ba1"/><stop offset=".07" stop-color="#0060a9"/><stop offset=".36" stop-color="#0071c8"/><stop offset=".52" stop-color="#0078d4"/><stop offset=".64" stop-color="#0074cd"/><stop offset=".82" stop-color="#006abb"/><stop offset="1" stop-color="#005ba1"/></linearGradient></defs><g transform="translate(-4.535 -5.668)"><title>Page-1</title><g transform="translate(4.535 -34.016)"><title>Azure Stack Backup.12668</title><title>Sheet.12669</title><g transform="translate(21.98 -24.306)"><title>Sheet.12670</title><path d="M6.76 94.23A20.373 22.253-180 0 0 0 95.29a20.13 21.988-180 0 0 6.76 1.09 19.888 21.724-180 0 0 6.76-1.09 20.1 21.955-180 0 0-6.76-1.06" style="fill:#198ab3;stroke:none;stroke-width:.75;stroke-linecap:butt"/></g><g transform="translate(0 -.596)"><title>Sheet.12671</title><title>Sheet.12672</title><path d="M30.17 94.49a1.728 1.888 0 0 1-1.76 1.89H1.73A1.698 1.854 0 0 1 0 94.49V42.14a1.728 1.888 0 0 1 1.73-1.86h26.68a1.758 1.92 0 0 1 1.76 1.89z" style="fill:url(#a);stroke:none;stroke-width:.75;stroke-linecap:butt"/><g transform="translate(4.487 -32.817)"><title>Sheet.12673</title><path d="M0 92.77a3.274 3.576 0 0 1 3.21-3.58h14.98a3.274 3.576 0 0 1 3.27 3.58 3.274 3.576 0 0 1-3.27 3.61H3.21A3.274 3.576 0 0 1 0 92.77" style="fill:#003067;stroke:none;stroke-width:.75;stroke-linecap:butt"/></g><g transform="translate(4.487 -43.48)"><title>Sheet.12674</title><path d="M0 92.8a3.274 3.576 0 0 1 3.21-3.57h14.98a3.274 3.576 0 0 1 3.27 3.57 3.274 3.576 0 0 1-3.27 3.58H3.21A3.274 3.576 0 0 1 0 92.8" style="fill:#003067;stroke:none;stroke-width:.75;stroke-linecap:butt"/></g><g transform="translate(5.639 -44.639)"><title>Sheet.12675</title><ellipse cx="2.213" cy="93.961" rx="2.213" ry="2.417" style="fill:#50e6ff;stroke:none;stroke-width:.75;stroke-linecap:butt"/></g><g transform="translate(5.639 -34.01)"><title>Sheet.12676</title><ellipse cx="2.213" cy="93.961" rx="2.213" ry="2.417" style="fill:#50e6ff;stroke:none;stroke-width:.75;stroke-linecap:butt"/></g></g><g transform="translate(25.89)"><title>Sheet.12677</title><path d="M9.73 75.91C4.37 75.91 0 74.16 0 72.04v20.5c0 2.08 4.31 3.8 9.61 3.84 5.4 0 9.73-1.72 9.73-3.84v-20.5c.12 2.12-4.21 3.87-9.61 3.87" style="fill:url(#b);stroke:none;stroke-width:.75;stroke-linecap:butt"/></g><g transform="translate(25.89 -20.465)"><title>Sheet.12678</title><path d="M19.46 92.5c0 2.12-4.33 3.88-9.73 3.88C4.34 96.38 0 94.62 0 92.5s4.37-3.84 9.73-3.84c5.37 0 9.73 1.72 9.73 3.84" style="fill:#e6e6e6;stroke:none;stroke-width:.75;stroke-linecap:butt"/></g><g transform="translate(28.165 -22.187)"><title>Sheet.12679</title><path d="M14.92 93.93c0 1.36-3.34 2.45-7.46 2.45-4.13 0-7.46-1.09-7.46-2.45s3.33-2.45 7.46-2.45c4.12 0 7.46 1.09 7.46 2.45" style="fill:#50e6ff;stroke:none;stroke-width:.75;stroke-linecap:butt"/></g><g transform="translate(27.68 -29.371)"><title>Sheet.12680</title><path d="m9.19 96.28 6.45-7.06a.333.364-180 0 0-.243-.63H11.64c0-8.51-4.15-16.98-11.64-16.98a20.252 22.12 0 0 1 6.06 16.98H2.49a.333.364-180 0 0-.243.63L8.7 96.28a.364.397-180 0 0 .485 0z" style="fill:#50e6ff;stroke:none;stroke-width:.75;stroke-linecap:butt"/></g></g></g></svg>