<svg xmlns="http://www.w3.org/2000/svg" xml:space="preserve" width="56.693" height="56.693" style="font-size:12px;overflow:visible;color-interpolation-filters:sRGB;fill-rule:evenodd;stroke-linecap:square;stroke-miterlimit:3" viewBox="0 0 56.693 56.693"><defs><linearGradient id="a" x1="0" x2="37.648" y1="49.087" y2="49.087" gradientTransform="scale(.8999 1.11123)" gradientUnits="userSpaceOnUse"><stop offset="0" stop-color="#8bb6e1"/><stop offset=".8" stop-color="#2e76bc"/></linearGradient></defs><g transform="translate(-5.67 -5.67)"><title>Page-1</title><g transform="translate(5.67 -34.016)"><title>Azure Edge Hardware Center.12701</title><title>Sheet.12702</title><title>Sheet.12703</title><path d="M0 39.685h56.693v56.693H0z" style="fill:none;stroke:none;stroke-width:5.32174015;stroke-linecap:butt"/><g transform="translate(30.077 -2.396)"><title>Sheet.12704</title><path d="m0 75.91 11.82-6.92 11.96 6.92V89.6l-11.96 6.78L0 89.6Z" style="fill:#ccebf8;stroke:none;stroke-width:5.32174015;stroke-linecap:butt"/></g><g transform="translate(30.077 -2.396)"><title>Sheet.12705</title><path d="m0 75.91 11.82 6.78v13.69L0 89.6Z" style="fill:#b3e3f6;stroke:none;stroke-width:5.32174015;stroke-linecap:butt"/></g><g transform="translate(41.894 -2.396)"><title>Sheet.12706</title><path d="M11.96 75.91 0 82.69v13.69l11.96-6.78Z" style="fill:#75d0eb;stroke:none;stroke-width:5.32174015;stroke-linecap:butt"/></g><g transform="translate(34.11 -14.504)"><title>Sheet.12707</title><path d="m.29 90.32 11.53-7.05 3.61 2.02-11.54 7.06v4.03h-.43L1.88 94.5h-.29l-1.44.3H0Z" style="fill:#e9f7fe;stroke:none;stroke-width:5.32174015;stroke-linecap:butt"/></g><g transform="translate(2.83 -10.614)"><title>Sheet.12708</title><path d="M31.92 54.55H1.97A1.87 1.87-180 0 0 0 56.32v38.29a1.87 1.87-180 0 0 1.97 1.77h24.16V83.56l7.75-4.62V56.32a1.87 1.87-180 0 0-1.96-1.77" style="fill:url(#a);stroke:none;stroke-width:5.32174015;stroke-linecap:butt"/></g><g transform="translate(6.438 -32.083)"><title>Sheet.12709</title><path d="M8.21 85.28a1.444 1.444 0 0 1 1.45-1.44h15.71a1.444 1.444 0 0 1 1.44 1.44v1.44a1.444 1.444 0 0 1-1.44 1.44H9.66a1.45 1.45 0 0 1-1.45-1.44Zm-2.59 9.66a1.444 1.444 0 0 1-1.44 1.44H1.45A1.444 1.444 0 0 1 0 94.94v-1.45a1.444 1.444 0 0 1 1.45-1.44h2.74a1.444 1.444 0 0 1 1.44 1.44zm0-8.22a1.444 1.444 0 0 1-1.44 1.44H1.45a1.444 1.444 0 0 1-1.44-1.44v-1.44a1.444 1.444 0 0 1 1.44-1.44h2.74a1.444 1.444 0 0 1 1.44 1.44zm2.59 8.22v-1.45a1.444 1.444 0 0 1 1.45-1.44h15.71a1.444 1.444 0 0 1 1.44 1.44v1.45a1.444 1.444 0 0 1-1.44 1.44H9.66a1.36 1.36 0 0 1-1.45-1.44" style="fill:#f3f3f3;stroke:none;stroke-width:5.32174015;stroke-linecap:butt"/></g></g></g></svg>