<svg xmlns="http://www.w3.org/2000/svg" xml:space="preserve" width="45.355" height="56.692" style="font-size:12px;overflow:visible;color-interpolation-filters:sRGB;fill-rule:evenodd;stroke-linecap:square;stroke-miterlimit:3" viewBox="0 0 45.355 56.692"><defs><linearGradient id="a" x1="0" x2="40.184" y1="28.485" y2="28.485" gradientTransform="scale(.71248 1.40355)" gradientUnits="userSpaceOnUse"><stop offset="0" stop-color="#949494"/><stop offset=".53" stop-color="#a2a2a2"/><stop offset="1" stop-color="#b3b3b3"/></linearGradient><linearGradient id="b" x1="0" x2="17.292" y1="122.66" y2="122.66" gradientTransform="scale(1.45211 .68865)" gradientUnits="userSpaceOnUse"><stop offset="0" stop-color="#0078d4"/><stop offset=".02" stop-color="#0d7ed8"/><stop offset=".08" stop-color="#2b8ae0"/><stop offset=".15" stop-color="#4194e7"/><stop offset=".22" stop-color="#519beb"/><stop offset=".29" stop-color="#5b9fee"/><stop offset=".4" stop-color="#5ea0ef"/><stop offset=".55" stop-color="#5b9fee"/><stop offset=".68" stop-color="#509aeb"/><stop offset=".8" stop-color="#3f92e6"/><stop offset=".91" stop-color="#2688df"/><stop offset=".99" stop-color="#127fd9"/></linearGradient></defs><g transform="translate(-4.535 -5.673)"><title>Page-1</title><g transform="translate(4.535 -34.016)"><title>Azure Stack Capacity.12654</title><title>Sheet.12655</title><g transform="translate(0 -.291)"><title>Sheet.12656</title><title>Sheet.12657</title><path d="M28.63 94.47a1.678 1.942 0 0 1-1.65 1.91H1.65A1.65 1.91 0 0 1 0 94.47V41.89a1.622 1.877 0 0 1 1.65-1.91h25.33a1.65 1.91 0 0 1 1.65 1.91z" style="fill:url(#a);stroke:none;stroke-width:.75;stroke-linecap:butt"/><g transform="translate(4.194 -33.006)"><title>Sheet.12658</title><path d="M0 92.75a3.132 3.624 0 0 1 3.13-3.59h14.23a3.104 3.592 0 0 1 3.11 3.59 3.104 3.592 0 0 1-3.11 3.63H3.13A3.132 3.624 0 0 1 0 92.75" style="fill:#003067;stroke:none;stroke-width:.75;stroke-linecap:butt"/></g><g transform="translate(4.194 -43.717)"><title>Sheet.12659</title><path d="M0 92.79a3.104 3.592 0 0 1 3.13-3.47h14.23a3.076 3.56 0 0 1 3.11 3.47 3.104 3.592 0 0 1-3.11 3.59H3.13A3.132 3.624 0 0 1 0 92.79" style="fill:#003067;stroke:none;stroke-width:.75;stroke-linecap:butt"/></g><g transform="translate(5.34 -44.882)"><title>Sheet.12660</title><ellipse cx="2.097" cy="93.951" rx="2.097" ry="2.427" style="fill:#50e6ff;stroke:none;stroke-width:.75;stroke-linecap:butt"/></g><g transform="translate(5.34 -34.203)"><title>Sheet.12661</title><ellipse cx="2.097" cy="93.951" rx="2.097" ry="2.427" style="fill:#50e6ff;stroke:none;stroke-width:.75;stroke-linecap:butt"/></g></g><g transform="translate(20.244 -3.333)"><title>Sheet.12662</title><ellipse cx="12.555" cy="90.424" rx="12.555" ry="5.954" style="fill:#76bc2d;stroke:none;stroke-width:.75;stroke-linecap:butt"/></g><g transform="translate(28.94 -8.025)"><title>Sheet.12663</title><ellipse cx="4.166" cy="95.051" rx="4.166" ry="1.327" style="fill:#5e9624;stroke:none;stroke-width:.75;stroke-linecap:butt"/></g><g transform="translate(20.244 -16.568)"><title>Sheet.12664</title><ellipse cx="12.555" cy="90.424" rx="12.555" ry="5.954" style="fill:url(#b);stroke:none;stroke-width:.75;stroke-linecap:butt"/></g><g transform="translate(28.94 -21.26)"><title>Sheet.12665</title><ellipse cx="4.166" cy="95.051" rx="4.166" ry="1.327" style="fill:#005ba1;stroke:none;stroke-width:.75;stroke-linecap:butt"/></g><g transform="translate(20.244)"><title>Sheet.12666</title><path d="M12.55 92.95c6.94 0 12.56-2.69 12.56-5.99v3.66c-.25 3.23-5.76 5.76-12.56 5.76C5.76 96.38 0 93.72 0 90.42v-3.23c0 3.07 5.62 5.76 12.55 5.76" style="fill:#5e9624;stroke:none;stroke-width:.75;stroke-linecap:butt"/></g><g transform="translate(20.244 -13.364)"><title>Sheet.12667</title><path d="M12.55 93.04c6.94 0 12.56-2.65 12.56-5.95v3.53c-.25 3.23-5.76 5.76-12.56 5.76C5.76 96.38 0 93.69 0 90.39v-3.23c0 3.23 5.62 5.88 12.55 5.88" style="fill:#0078d4;stroke:none;stroke-width:.75;stroke-linecap:butt"/></g></g></g></svg>