<svg xmlns="http://www.w3.org/2000/svg" xml:space="preserve" width="56.69" height="56.694" style="font-size:12px;overflow:visible;color-interpolation-filters:sRGB;fill-rule:evenodd;stroke-linecap:square;stroke-miterlimit:3" viewBox="0 0 56.69 56.694"><defs><linearGradient id="a" x1="0" x2="43.799" y1="53.066" y2="53.066" gradientTransform="scale(.77672 1.28746)" gradientUnits="userSpaceOnUse"><stop offset="0" stop-color="#5ea0ef"/><stop offset=".18" stop-color="#559cec"/><stop offset=".47" stop-color="#3c91e5"/><stop offset=".84" stop-color="#1380da"/><stop offset="1" stop-color="#0078d4"/></linearGradient><linearGradient id="b" x1="0" x2="32.651" y1="117.919" y2="117.919" gradientTransform="scale(1.20733 .82828)" gradientUnits="userSpaceOnUse"><stop offset="0" stop-color="#198ab3"/><stop offset="0" stop-color="#198ab3"/><stop offset=".14" stop-color="#22a5cb"/><stop offset=".3" stop-color="#29bade"/><stop offset=".47" stop-color="#2ec9eb"/><stop offset=".68" stop-color="#31d1f3"/><stop offset="1" stop-color="#32d4f5"/></linearGradient></defs><g transform="translate(-34 -34.003)"><title>Page-1</title><g transform="translate(34 -34.016)"><title>Azure Stack Hub.12633</title><g transform="translate(22.67 -.301)"><title>Sheet.12634</title><path d="M32.1 68.32H1.96A1.96 1.909-180 0 0 0 70.19v41.79a36.018 35.06 0 0 1 4.88-3.34h5.72l3.16 4.08v6.2l-3.99 2.81-5.54-.67L0 117.17v5.66a1.96 1.909-180 0 0 1.96 1.88H32.1a1.926 1.875-180 0 0 1.92-1.88V70.19a1.926 1.875-180 0 0-1.92-1.87" style="fill:url(#a);stroke:none;stroke-width:34;stroke-linecap:butt"/></g><g transform="translate(26.695 -1.607)"><title>Sheet.12635</title><path d="M.48 75.48h5.54a.482.469 0 0 1 .482.469L6.5 82.92a.482.469 0 0 1-.482.469L.48 83.39a.482.469 0 0 1-.482-.469L0 75.95a.482.469 0 0 1 .482-.469zm9.74 0h5.54a.482.469 0 0 1 .482.469l-.002 6.971a.482.469 0 0 1-.482.469l-5.538.001a.482.469 0 0 1-.482-.469l.002-6.971a.482.469 0 0 1 .482-.469zm9.77 0h5.54a.482.469 0 0 1 .482.469l-.002 6.971a.482.469 0 0 1-.482.469l-5.538.001a.482.469 0 0 1-.482-.469l.002-6.971a.482.469 0 0 1 .482-.469zM.48 88.07h5.54a.482.469 0 0 1 .482.469L6.5 95.58a.482.469 0 0 1-.482.469L.48 96.04a.482.469 0 0 1-.482-.469L0 88.61a.482.469 0 0 1 .482-.536zm9.74 0h5.54a.482.469 0 0 1 .482.469l-.002 7.041a.482.469 0 0 1-.482.469l-5.538-.009a.482.469 0 0 1-.482-.469l.002-6.961a.482.469 0 0 1 .482-.536zm9.77 0h5.54a.482.469 0 0 1 .482.469l-.002 7.041a.482.469 0 0 1-.482.469l-5.538-.009a.482.469 0 0 1-.482-.469l.002-6.961a.482.469 0 0 1 .482-.536zM.48 100.8h5.54a.482.469 0 0 1 .482.469L6.5 108.17a.482.469 0 0 1-.482.469l-5.538.001a.482.469 0 0 1-.482-.469L0 101.27a.482.469 0 0 1 .482-.469zm9.74 0h5.54a.482.469 0 0 1 .482.469l-.002 6.901a.482.469 0 0 1-.482.469l-5.538.001a.482.469 0 0 1-.482-.469l.002-6.901a.482.469 0 0 1 .482-.469zm0 12.66h5.54a.482.469 0 0 1 .482.469l-.002 10.311a.482.469 0 0 1-.482.469l-5.538.001a.482.469 0 0 1-.482-.469l.002-10.311a.482.469 0 0 1 .482-.469zm9.77-12.66h5.54a.482.469 0 0 1 .482.469l-.002 6.901a.482.469 0 0 1-.482.469l-5.538.001a.482.469 0 0 1-.482-.469l.002-6.901a.482.469 0 0 1 .482-.469z" style="fill:#f2f2f2;stroke:none;stroke-width:34;stroke-linecap:butt"/></g><g transform="translate(10.045 -7.946)"><title>Sheet.12636</title><path d="M20.02 117.85a4.472 4.353-180 0 0-4.26 3.35H.28a9.701 9.443-180 0 0-.28 2.18v.2h15.76a4.438 4.32-180 1 0 4.26-5.73" style="fill:#50e6ff;stroke:none;stroke-width:34;stroke-linecap:butt"/></g><g transform="translate(10.286)"><title>Sheet.12637</title><path d="M31.82 108.1a11.215 10.917-180 0 0-11.7-10.42 11.49 11.185-180 0 0-11 7.31 10.94 10.649-180 0 0-8.74 6.69h14.24a5.917 5.76 0 1 1 5.16 8.27 5.951 5.793 0 0 1-5.26-3.35H0a11.008 10.716-180 0 0 10.94 8.11h19.54a9.047 8.807-180 0 0 8.94-8.11 8.944 8.707-180 0 0-7.6-8.5" style="fill:url(#b);stroke:none;stroke-width:34;stroke-linecap:butt"/></g><g transform="translate(0 -7.906)"><title>Sheet.12638</title><path d="M30.07 117.81a4.472 4.353-180 0 0-4.27 3.35H10.32a7.637 7.434 0 0 1-1.62-.2 7.981 7.769 0 0 1-6.26-7.33 8.015 7.802 0 0 1 7.12-7.67h.76l.24-.67a8.807 8.573 0 0 1 8.46-5.73 9.082 8.84 0 0 1 7.85 4.26 10.596 10.314 0 0 1 2.58-.31 11.421 11.118-180 0 0-10.32-6.32 11.284 10.984-180 0 0-10.63 6.53 10.32 10.046-180 0 0-8.5 9.77A10.32 10.046-180 0 0 7.71 123a6.88 6.697-180 0 0 2.51.41H25.8a4.438 4.32-180 1 0 4.27-5.6" style="fill:#50e6ff;stroke:none;stroke-width:34;stroke-linecap:butt"/></g></g></g></svg>