<svg xmlns="http://www.w3.org/2000/svg" xml:space="preserve" width="56.692" height="56.698" style="font-size:12px;overflow:visible;color-interpolation-filters:sRGB;fill-rule:evenodd;stroke-linecap:square;stroke-miterlimit:3" viewBox="0 0 56.692 56.698"><g transform="translate(-34 -33.996)"><title>Page-1</title><g transform="translate(34 -34.016)"><title>Azure Blockchain Service.12719</title><title>Sheet.12720</title><g transform="translate(28.913 -27.424)"><title>Sheet.12721</title><path d="M12.44 102.76v14.63L0 124.71v-14.64z" style="fill:#773adc;stroke:none;stroke-width:34;stroke-linecap:butt"/></g><g transform="translate(32.913 -33.787)"><title>Sheet.12722</title><path d="M3.15 116.44c1.73-1.02 3.15-.23 3.15 1.78a6.866 6.936 0 0 1-3.15 5.47c-1.73 1.02-3.15.22-3.15-1.81a6.835 6.904 0 0 1 3.15-5.44" style="fill:#552f99;stroke:none;stroke-width:34;stroke-linecap:butt"/></g><g transform="translate(12.44 -.064)"><title>Sheet.12723</title><path d="M12.44 102.76v14.63L0 124.71v-14.64z" style="fill:#773adc;stroke:none;stroke-width:34;stroke-linecap:butt"/></g><g transform="translate(15.496 -5.663)"><title>Sheet.12724</title><path d="M3.15 116.41c1.73-.96 3.15-.2 3.15 1.81a6.93 7 0 0 1-3.15 5.47c-1.73 1.02-3.15.19-3.15-1.81a6.93 7 0 0 1 3.15-5.47" style="fill:#552f99;stroke:none;stroke-width:34;stroke-linecap:butt"/></g><g transform="translate(0 -.064)"><title>Sheet.12725</title><path d="M12.44 110.07v14.64L0 117.39v-14.63z" style="fill:#a67af4;stroke:none;stroke-width:34;stroke-linecap:butt"/></g><g transform="translate(44.252 -.064)"><title>Sheet.12726</title><path d="M12.44 102.76v14.63L0 124.71v-14.64z" style="fill:#773adc;stroke:none;stroke-width:34;stroke-linecap:butt"/></g><g transform="translate(35.323 -27.456)"><title>Sheet.12727</title><path d="M.9 114.88a13.134 13.267 0 0 1 7.46 8.3l.63-.32 3.15 1.85a16.41 16.575-180 0 0-9.92-12.92 1.702 1.72-180 1 0-1.29 3.18z" style="fill:#32bedd;stroke:none;stroke-width:34;stroke-linecap:butt"/></g><g transform="translate(31.811)"><title>Sheet.12728</title><path d="M12.44 110.07v14.64L0 117.39v-14.7l12.44 7.32z" style="fill:#a67af4;stroke:none;stroke-width:34;stroke-linecap:butt"/></g><g transform="translate(35.465 -5.886)"><title>Sheet.12729</title><path d="M2.96 116.85c-1.64-.95-2.96-.16-2.96 1.72a6.551 6.617-180 0 0 2.96 5.18c1.64.96 2.96.2 2.96-1.71a6.551 6.617-180 0 0-2.96-5.19" style="fill:#552f99;stroke:none;stroke-width:34;stroke-linecap:butt"/></g><g transform="translate(18.446 -5.79)"><title>Sheet.12730</title><path d="M10.53 124.71a17.197 17.37 0 0 1-10.01-3.18 1.732 1.75 0 1 1 2.01-2.83 13.732 13.871-180 0 0 15.15.57 1.74 1.758 0 0 1 1.83 2.99 17.449 17.625 0 0 1-8.98 2.45" style="fill:#32bedd;stroke:none;stroke-width:34;stroke-linecap:butt"/></g><g transform="translate(16.504 -42.058)"><title>Sheet.12731</title><path d="m24.85 117.39-12.38 7.32L0 117.39l12.47-7.32 12.41 7.32z" style="fill:#b796f9;stroke:none;stroke-width:34;stroke-linecap:butt"/></g><g transform="translate(9.07 -27.424)"><title>Sheet.12732</title><path d="M7.43 111.98A16.535 16.703-180 0 0 0 124.71l3.53-1.91v.16a13.228 13.362 0 0 1 3.9-6.59z" style="fill:#32bedd;stroke:none;stroke-width:34;stroke-linecap:butt"/></g><g transform="translate(0 -14.698)"><title>Sheet.12733</title><path d="m56.69 117.39-12.44 7.32-12.44-7.32 12.44-7.32zm-31.81 0-12.44 7.32L0 117.39l12.44-7.32Z" style="fill:#b796f9;stroke:none;stroke-width:34;stroke-linecap:butt"/></g><g transform="translate(16.504 -27.424)"><title>Sheet.12734</title><path d="M12.41 110.07v14.64L0 117.39v-14.63z" style="fill:#a67af4;stroke:none;stroke-width:34;stroke-linecap:butt"/></g></g></g></svg>