<svg xmlns="http://www.w3.org/2000/svg" xml:space="preserve" width="45.43" height="56.693" style="font-size:12px;overflow:visible;color-interpolation-filters:sRGB;fill-rule:evenodd;stroke-linecap:square;stroke-miterlimit:3" viewBox="0 0 45.43 56.693"><defs><linearGradient id="a" x1="0" x2="30.856" y1="59.516" y2="59.516" gradientTransform="scale(.72466 1.37996)" gradientUnits="userSpaceOnUse"><stop offset="0" stop-color="#773adc"/><stop offset="1" stop-color="#a67af4"/></linearGradient><linearGradient id="b" x1="0" x2="43.816" y1="83.468" y2="83.468" gradientTransform="scale(1.02063 .97978)" gradientUnits="userSpaceOnUse"><stop offset="0" stop-color="#552f99"/><stop offset="1" stop-color="#773adc"/></linearGradient><linearGradient id="c" x1="0" x2="38.737" y1="55.69" y2="55.69" gradientTransform="scale(.75717 1.32072)" gradientUnits="userSpaceOnUse"><stop offset="0" stop-color="#a67af4"/><stop offset="1" stop-color="#773adc"/></linearGradient></defs><g transform="translate(-34 -33.999)"><title>Page-1</title><g transform="translate(34.051 -34.016)"><title>Azure Quantum.12694</title><title>Sheet.12695</title><g transform="translate(.274 -.441)"><title>Sheet.12696</title><path d="m7.63 82.13 7.72 4.01 7.01 38.57L0 111.78Z" style="fill:url(#a);stroke:none;stroke-width:34;stroke-linecap:butt"/></g><g transform="translate(.274 -13.366)"><title>Sheet.12697</title><path d="m37.71 85.78-7.71-4L8.04 94.81a1.157 1.16-180 0 0-.53.71L0 124.71l22.36-13.28 22.36 12.92Z" style="fill:url(#b);stroke:none;stroke-width:34;stroke-linecap:butt"/></g><g transform="translate(15.623 -1.235)"><title>Sheet.12698</title><path d="m0 86.94 22.36-13.29 7.01 38.56-20.92 12.44a1.16 1.163 0 0 1-1.74-.79Z" style="fill:#773adc;stroke:none;stroke-width:34;stroke-linecap:butt"/></g><g transform="translate(15.334 -1.43)"><title>Sheet.12699</title><path d="m22.59 108.43 5.73-3.33-.05-.28-5.72 3.33v-8.16l5.42 3.15-.06-.33-5.35-3.12v-.19l-.17.1 4.48-2.6-.05-.27-4.34 2.52v-8.23l3.69 2.14-.06-.31-3.5-2.03 2.83-1.65-.05-.26-2.91 1.69v-8.3l1.92 1.13-.06-.33-1.89-1.11v-8.22a1.425 1.427-180 0 0-.24-.22l-.79.47.78-.45v8.27l-7.01-4.09-.47.27v8.11l-6.91-4.01-2.37 1.41 1.92-1.12v8.19L.38 86.54l-.38.23.25 1.35v-1.36l7.05 4.1v.02l-5.88 3.44.06.32 6-3.5v8.22l-5.72-3.31.08.42 5.41 3.15-4.34 2.52.05.29 4.43-2.57v8.2l-3.77-2.21.06.34 3.59 2.08-2.88 1.67.06.31 2.9-1.68v8.32l-1.86-1.09.07.34 1.57.92-1.26.72.05.28 1.34-.77v7.21a1.18 1.182-180 0 0 .26.21v-7.41l6.96 4.03.25-.15-7.08-4.09 7.09-4.12v8.22l.25-.15v-8.07l6.88 3.99.25-.15-6.99-4.06 7.07-4.12v8.11l.25-.15v-7.94l6.72 3.9a1.204 1.207-180 0 0 .16-.21zm-7.62-30.52 7.04 4.12-7.04 4.1zm-.23 8.91v8.15l-6.92-4.03.06-.04-.1-.04Zm0 8.46-7.01 4.08V91.2ZM7.62 82.3l7.08 4.13v.1l-7.08 4.13zm7.11 21.67-7.09 4.09v-8.2zM7.59 116.8v-8.16l7.01 4.1zm7.24-4.25-7.17-4.18 7.17-4.15zm.04-8.8-7.08-4.1 7.08-4.11zm.1-17.3 7.23-4.21v8.54l-7.23-4.23zm.17 8.9.12-.07-.06-.01 7-4.1v8.28zm6.99 4.35-7.01 4.07v-8.14zm-7.16-12.86 7.07 4.12-7.07 4.12zm.09 25.63v-8.12l6.98 4.07zm7.23-4.21-7.15-4.17 7.15-4.15z" style="fill:url(#c);stroke:none;stroke-width:34;stroke-linecap:butt"/></g><title>Sheet.12700</title><path d="M38.53 72.52c0-.08-.1-.11-.14-.18a.708.709-180 0 0-.314-.498L31.07 68.2a1.673 1.676-180 0 0-1.62.05L7.66 81.2a.513.514-180 0 0-.252.454l.002.016c0 .03-.05.04-.06.07L0 110.31a1.686 1.689-180 0 0 .78 1.87l21.6 12.48h.04a.49.492-180 0 0 .21.047.519.52-180 0 0 .262-.072L44.56 111.8a1.676 1.68-180 0 0 .79-1.75zm-8.54-3.39a.629.63 0 0 1 .629-.019l6.311 3.299-15.06 8.94-5.95 3.53a.654.655 0 0 1-.629.016L8.96 81.61ZM1.3 111.29a.657.659 0 0 1-.314-.731L8.21 82.39l6.61 3.42.07.03a.654.655 0 0 1 .34.463l.04.237 4.54 24.96 2.13 11.72zm42.74-.38L23.01 123.4l-6.74-37.04a.66.662 0 0 1 .314-.677L37.62 73.19l6.74 37.05a.654.655 0 0 1-.314.677z" style="fill:#552f99;stroke:none;stroke-width:34;stroke-linecap:butt"/></g></g></svg>