<svg xmlns="http://www.w3.org/2000/svg" xmlns:xlink="http://www.w3.org/1999/xlink" xml:space="preserve" width="56.69" height="56.696" style="font-size:12px;overflow:visible;color-interpolation-filters:sRGB;fill-rule:evenodd;stroke-linecap:square;stroke-miterlimit:3" viewBox="0 0 56.69 56.696"><defs><linearGradient id="c" x1="0" x2="56.69" y1="49.32" y2="49.32" gradientUnits="userSpaceOnUse"><stop offset="0" stop-color="#008bf1"/><stop offset=".22" stop-color="#0086ec"/><stop offset=".495" stop-color="#0078dd"/><stop offset=".79" stop-color="#0061c4"/><stop offset="1" stop-color="#004dae"/></linearGradient><linearGradient id="d" x1="0" x2="10.247" y1="219.417" y2="219.417" gradientTransform="scale(2.16644 .46159)" gradientUnits="userSpaceOnUse"><stop offset="0" stop-color="#00315c"/><stop offset=".785" stop-color="#0080e5"/></linearGradient><linearGradient id="e" x1="0" x2="10.247" y1="219.417" y2="219.417" gradientTransform="scale(2.16644 .46159)" gradientUnits="userSpaceOnUse"><stop offset="0" stop-color="#00315c"/><stop offset=".785" stop-color="#0080e5"/></linearGradient><linearGradient id="a" x1="0" x2="1" y1="0" y2="0" gradientTransform="rotate(-90 .5 .5)"><stop offset="0" stop-color="#00315c"/><stop offset=".785" stop-color="#008af0"/></linearGradient><linearGradient id="b" x1="0" x2="1" y1="0" y2="0" gradientTransform="rotate(90 .5 .5)"><stop offset="0" stop-color="#00294f"/><stop offset=".705" stop-color="#005ba6"/><stop offset=".83" stop-color="#0457ac"/><stop offset="1" stop-color="#0050b2"/></linearGradient><linearGradient id="j" x1="0" x2="10.247" y1="219.417" y2="219.417" gradientTransform="scale(2.16644 .46159)" gradientUnits="userSpaceOnUse"><stop offset="0" stop-color="#00315c"/><stop offset=".58" stop-color="#0e71c7"/><stop offset="1" stop-color="#0a75d5"/></linearGradient><linearGradient id="k" x1="0" x2="10.247" y1="219.417" y2="219.417" gradientTransform="scale(2.16644 .46159)" gradientUnits="userSpaceOnUse"><stop offset="0" stop-color="#00315c"/><stop offset=".58" stop-color="#0e71c7"/><stop offset="1" stop-color="#0a75d5"/></linearGradient><linearGradient xlink:href="#a" id="f" x1="0" x2="10.202" y1="38.845" y2="38.845" gradientTransform="scale(.46267 2.1614)" gradientUnits="userSpaceOnUse"/><linearGradient xlink:href="#a" id="g" x1="0" x2="10.202" y1="38.845" y2="38.845" gradientTransform="scale(.46267 2.1614)" gradientUnits="userSpaceOnUse"/><linearGradient xlink:href="#b" id="h" x1="0" x2="10.202" y1="38.845" y2="38.845" gradientTransform="scale(.46267 2.1614)" gradientUnits="userSpaceOnUse"/><linearGradient xlink:href="#b" id="i" x1="0" x2="10.202" y1="38.845" y2="38.845" gradientTransform="scale(.46267 2.1614)" gradientUnits="userSpaceOnUse"/></defs><g transform="translate(-15.3 -15.299)"><title>Page-1</title><g transform="translate(15.3 -34.016)"><title>Azure Spring Cloud.12681</title><title>Sheet.12682</title><title>Sheet.12683</title><path d="M26.77 76.09H0V49.32h26.77ZM4.72 71.36h17.33V54.04H4.72Zm51.97 4.73H29.92V49.32h26.77Zm-22.04-4.73h17.32V54.04H34.65Zm-7.88 34.65H0V79.24h26.77Zm-22.05-4.73h17.33V83.96H4.72Zm51.97 4.73H29.92V79.24h26.77Zm-22.04-4.73h17.32V83.96H34.65Z" style="fill:url(#c);stroke:none;stroke-width:15.30000019;stroke-linecap:butt"/><g transform="translate(34.488 -29.921)"><title>Sheet.12684</title><path d="M22.2 101.28v4.73H0v-4.73z" style="fill:url(#d);stroke:none;stroke-width:15.30000019;stroke-linecap:butt"/></g><g transform="translate(0 -29.921)"><title>Sheet.12685</title><path d="M0 106.01v-4.73h22.2v4.73z" style="fill:url(#e);stroke:none;stroke-width:15.30000019;stroke-linecap:butt"/></g><g transform="translate(22.047 -34.646)"><title>Sheet.12686</title><path d="M0 83.96h4.72v22.05H0Z" style="fill:url(#f);stroke:none;stroke-width:15.30000019;stroke-linecap:butt"/></g><g transform="translate(29.921 -34.646)"><title>Sheet.12687</title><path d="M0 83.96h4.72v22.05H0Z" style="fill:url(#g);stroke:none;stroke-width:15.30000019;stroke-linecap:butt"/></g><g transform="translate(29.921)"><title>Sheet.12688</title><path d="M4.72 106.01H0V83.96h4.72z" style="fill:url(#h);stroke:none;stroke-width:15.30000019;stroke-linecap:butt"/></g><g transform="translate(22.047)"><title>Sheet.12689</title><path d="M4.72 106.01H0V83.96h4.72z" style="fill:url(#i);stroke:none;stroke-width:15.30000019;stroke-linecap:butt"/></g><g transform="translate(34.488 -22.047)"><title>Sheet.12690</title><path d="M22.2 101.28v4.73H0v-4.73z" style="fill:url(#j);stroke:none;stroke-width:15.30000019;stroke-linecap:butt"/></g><g transform="translate(0 -22.047)"><title>Sheet.12691</title><path d="M0 106.01v-4.73h22.2v4.73z" style="fill:url(#k);stroke:none;stroke-width:15.30000019;stroke-linecap:butt"/></g><g transform="translate(9.449 -9.449)"><title>Sheet.12692</title><path d="M37.8 86.8c0-4.41-1.26-9.93-3.47-16.38-.47 1.26-1.26 2.36-1.89 3.31-3.62-3.47-8.35-5.52-13.54-5.52C8.5 68.21 0 76.72 0 87.11s8.5 18.9 18.9 18.9c10.39 0 18.9-8.51 18.9-18.9z" style="fill:#5fb832;stroke:none;stroke-width:15.30000019;stroke-linecap:butt"/></g><g transform="translate(13.228 -13.7)"><title>Sheet.12693</title><path d="M30.39 99.87c-4.72 6.14-14.64 4.09-20.94 4.41 0 0-1.1 0-2.21.15l.95-.31c4.41-1.58 6.61-1.89 9.29-3.31 5.2-2.68 10.24-8.34 11.18-14.33-1.89 5.83-7.87 10.71-13.23 12.6-3.62 1.42-10.39 2.68-10.39 2.68l-.32-.16C.16 99.39 0 89.47 8.19 86.32c3.62-1.41 7.09-.63 11.02-1.57 4.25-1.1 8.98-4.1 11.03-8.19 2.36 6.77 4.88 17.01.15 23.31m-26.61 6.14a1.575 1.575-180 0 0 0-3.15 1.575 1.575-180 1 0 0 3.15" style="fill:#fff;stroke:none;stroke-width:15.30000019;stroke-linecap:butt"/></g></g></g></svg>