<svg xmlns="http://www.w3.org/2000/svg" xml:space="preserve" width="45.35" height="56.701" style="font-size:12px;overflow:visible;color-interpolation-filters:sRGB;fill-rule:evenodd;stroke-linecap:square;stroke-miterlimit:3" viewBox="0 0 45.35 56.701"><defs><linearGradient id="a" x1="0" x2="50.709" y1="76.715" y2="76.715" gradientTransform="scale(.89432 1.11816)" gradientUnits="userSpaceOnUse"><stop offset="0" stop-color="#0078d4"/><stop offset=".82" stop-color="#5ea0ef"/></linearGradient></defs><g transform="translate(-42.892 -42.888)"><title>Page-1</title><g transform="translate(42.892 -42.892)"><title>Azure Stack Plan.12610</title><title>g23</title><title>g17</title><g transform="translate(.33 -.405)"><title>path11</title><path d="M25.65 86.59H1.88A1.884 1.926-180 0 0 0 88.52v52.03a1.884 1.926-180 0 0 1.88 1.93h40.93a1.884 1.926-180 0 0 1.88-1.93v-34.43a1.884 1.926-180 0 0-1.88-1.92H29.22a1.851 1.892 0 0 1-1.85-1.89V88.52a1.851 1.892-180 0 0-1.72-1.93" style="fill:#fff;stroke:none;stroke-width:42.89160156;stroke-linecap:butt"/></g><title>path13</title><path d="M24.96 88.62v13.08a4.694 4.798-180 0 0 4.69 4.79h12.86v33.15H2.84V88.62h22.15zm1.02-2.84H1.92A1.884 1.926-180 0 0 0 87.71v52.84a1.884 1.926-180 0 0 1.92 1.93h41.52a1.884 1.926-180 0 0 1.91-1.93v-34.97a1.884 1.926-180 0 0-1.91-1.92H29.65a1.884 1.926 0 0 1-1.88-1.96V87.71a1.884 1.926-180 0 0-1.79-1.93" style="fill:url(#a)"/><path d="M24.96 88.62v13.08a4.694 4.798-180 0 0 4.69 4.79h12.86v33.15H2.84V88.62h22.15m.99-2.84H1.92A1.884 1.926-180 0 0 0 87.71v52.84a1.884 1.926-180 0 0 1.92 1.93h41.52a1.884 1.926-180 0 0 1.91-1.93v-34.97a1.884 1.926-180 0 0-1.91-1.92H29.65a1.884 1.926 0 0 1-1.88-1.96V87.71a1.884 1.926-180 0 0-1.79-1.93" style="stroke:none;stroke-width:42.89160156;stroke-linecap:butt"/><g transform="translate(27.107 -38.482)"><title>path15</title><path d="M17.52 142.48 0 124.67v14.43a3.306 3.379-180 0 0 3.31 3.38z" style="fill:#0078d4;stroke:none;stroke-width:42.89160156;stroke-linecap:butt"/></g><g transform="translate(14.5 -10.778)"><title>path19</title><path d="M22.26 123.18H1.57a1.36 1.39-180 0 0 0 2.78h20.82a1.36 1.39-180 0 0 0-2.78zm0 8.25H1.57a1.355 1.385-180 1 0 0 2.74h20.82a1.355 1.385-180 1 0 0-2.74zm0 8.28H1.57a1.355 1.385-180 0 0 0 2.77h20.82a1.355 1.385-180 0 0 0-2.77z" style="fill:#83b9f9;stroke:none;stroke-width:42.89160156;stroke-linecap:butt"/></g><g transform="translate(7.405 -8.184)"><title>path21</title><path d="M1.36 124.75v-4.46a2.05 2.095 0 0 1-.63.23l-.73.21v-1.39a7.57 7.737-180 0 0 1.02-.4 4.231 4.325-180 0 0 1.03-.48h1.06v6.29zm-1.29 8.78v-.51a3.306 3.379 0 0 1 0-.87 7.47 7.636 0 0 1 .36-.75 6.149 6.284 0 0 1 .93-.88 2.876 2.94-180 0 0 .69-.57s0-.24.23-.3a.463.473-180 0 0 0-.372c0-.448-.23-.648-.73-.648a2.215 2.264-180 0 0-1.42.58v-1.52a3.57 3.649 0 0 1 .93-.38 4.165 4.257 0 0 1 .92 0 2.314 2.365 0 0 1 1.52.51 1.686 1.723 0 0 1 .57 1.32 2.48 2.534 0 0 1-.3 1.15 3.802 3.885 0 0 1-1.06.94l-.66.41a.595.608-180 0 0-.198.338l2.408.002v1.42zm4.1 7.03a1.488 1.52 0 0 1-.63 1.38 3.041 3.108 0 0 1-1.75.51 3.636 3.716 0 0 1-.86 0l-.76-.24v-1.45a1.62 1.656-180 0 0 .62.24 2.38 2.433-180 0 0 .73 0 1.983 2.027-180 0 0 .69 0 .628.642-180 0 0 .231-.44.496.507-180 0 0-.396-.506 3.306 3.379-180 0 0-.785-.174H.79v-1.31h.5a.992 1.014-180 0 0 .76-.203.397.405-180 0 0 .232-.439c-.002-.008-.002-.308-.002-.378s-.3 0-.56 0a2.578 2.635-180 0 0-1.16.34v-1.39a4.066 4.156 0 0 1 1.52-.33 2.678 2.737 0 0 1 1.62.44 1.256 1.284 0 0 1 .53 1.14 1.488 1.52 0 0 1-.3.95 1.488 1.52 0 0 1-.86.51 1.388 1.419 0 0 1 1 .5 1.917 1.96 0 0 1 .1.85" style="fill:#0078d4;stroke:none;stroke-width:42.89160156;stroke-linecap:butt"/></g></g></g></svg>