<svg xmlns="http://www.w3.org/2000/svg" xml:space="preserve" width="57.36" height="53.774" style="font-size:12px;overflow:visible;color-interpolation-filters:sRGB;fill-rule:evenodd;stroke-linecap:square;stroke-miterlimit:3" viewBox="0 0 57.36 53.774"><defs><linearGradient id="a" x1="0" x2="12.898" y1="148.38" y2="148.38" gradientTransform="scale(1.32423 .75515)" gradientUnits="userSpaceOnUse"><stop offset="0" stop-color="#005ba1"/><stop offset=".15" stop-color="#0063af"/><stop offset=".44" stop-color="#006fc3"/><stop offset=".725" stop-color="#0076d0"/><stop offset="1" stop-color="#0078d4"/></linearGradient></defs><g transform="translate(-34.004 -34)"><title>Page-1</title><g transform="translate(34.334 -34.016)"><title>BareMetal Instances.12560</title><title>Sheet.12561</title><g transform="translate(27.99 -4.329)"><title>Sheet.12562</title><path d="M0 111.692h3.765v10.102H0z" style="fill:#76bc2d;stroke:none;stroke-width:34;stroke-linecap:butt"/></g><g transform="rotate(90 26.722 94.738)"><title>Sheet.12563</title><path d="M0 119.88a1.89 1.913-180 0 0 1.89 1.91h9.75a1.89 1.913-180 0 0 1.89-1.91V66.35a1.89 1.913-180 0 0-1.89-1.92H1.89A1.89 1.913-180 0 0 0 66.35Z" style="fill:#5ea0ef;stroke:none;stroke-width:34;stroke-linecap:butt"/></g><g transform="rotate(90 20.02 101.44)"><title>Sheet.12564</title><path d="M0 119.88a1.89 1.913-180 0 0 1.89 1.91h9.75a1.89 1.913-180 0 0 1.89-1.91V66.35a1.89 1.913-180 0 0-1.89-1.92H1.89A1.89 1.913-180 0 0 0 66.35Z" style="fill:#0078d4;stroke:none;stroke-width:34;stroke-linecap:butt"/></g><g transform="rotate(90 13.22 108.24)"><title>Sheet.12565</title><path d="M0 119.88a1.89 1.913-180 0 0 1.89 1.91h9.75a1.89 1.913-180 0 0 1.89-1.91V66.35a1.89 1.913-180 0 0-1.89-1.92H1.89A1.89 1.913-180 0 0 0 66.35Z" style="fill:#005ba1;stroke:none;stroke-width:34;stroke-linecap:butt"/></g><g transform="translate(5.943 -44.232)"><title>Sheet.12566</title><ellipse cx="3.111" cy="118.646" rx="3.111" ry="3.148" style="fill:#f2f2f2;stroke:none;stroke-width:34;stroke-linecap:butt"/></g><g transform="translate(15.524 -44.232)"><title>Sheet.12567</title><ellipse cx="3.111" cy="118.646" rx="3.111" ry="3.148" style="fill:#f2f2f2;stroke:none;stroke-width:34;stroke-linecap:butt"/></g><g transform="translate(5.943 -31.12)"><title>Sheet.12568</title><ellipse cx="3.111" cy="118.646" rx="3.111" ry="3.148" style="fill:#83b9f9;stroke:none;stroke-width:34;stroke-linecap:butt"/></g><g transform="translate(15.524 -31.12)"><title>Sheet.12569</title><ellipse cx="3.111" cy="118.646" rx="3.111" ry="3.148" style="fill:#83b9f9;stroke:none;stroke-width:34;stroke-linecap:butt"/></g><g transform="translate(5.943 -18.136)"><title>Sheet.12570</title><ellipse cx="3.111" cy="118.646" rx="3.111" ry="3.148" style="fill:#83b9f9;stroke:none;stroke-width:34;stroke-linecap:butt"/></g><g transform="translate(15.524 -18.136)"><title>Sheet.12571</title><ellipse cx="3.111" cy="118.646" rx="3.111" ry="3.148" style="fill:#83b9f9;stroke:none;stroke-width:34;stroke-linecap:butt"/></g><g transform="translate(21.283)"><title>Sheet.12572</title><path d="M0 116.93a4.812 4.869-180 0 0 4.81 4.86h7.46a4.812 4.869-180 0 0 4.81-4.86v-.01a4.812 4.869-180 0 0-4.81-4.87H4.81A4.812 4.869-180 0 0 0 116.92Z" style="fill:url(#a);stroke:none;stroke-width:34;stroke-linecap:butt"/></g></g></g></svg>