<svg xmlns="http://www.w3.org/2000/svg" xml:space="preserve" width="39.69" height="56.698" style="font-size:12px;overflow:visible;color-interpolation-filters:sRGB;fill-rule:evenodd;stroke-linecap:square;stroke-miterlimit:3" viewBox="0 0 39.69 56.698"><defs><linearGradient id="a" x1="0" x2="20.552" y1="130.867" y2="130.867" gradientTransform="scale(1.05393 .94883)" gradientUnits="userSpaceOnUse"><stop offset="0" stop-color="#32bedd"/><stop offset=".36" stop-color="#34c1e0"/><stop offset=".63" stop-color="#3ccbe8"/><stop offset=".88" stop-color="#48dbf6"/><stop offset="1" stop-color="#50e6ff"/></linearGradient></defs><g transform="translate(-43.488 -43.484)"><title>Page-1</title><g transform="translate(43.488 -43.488)"><title>Blockchain Application.12544</title><title>layer1</title><g transform="translate(19.843 -9.449)"><title>polygon17</title><path d="m0 120.08 19.84-11.81v23.56L0 143.67Z" style="fill:#773adc;stroke:none;stroke-width:43.48809814;stroke-linecap:butt"/></g><g transform="translate(0 -33.008)"><title>polygon19</title><path d="m19.84 119.98 19.85 11.85-19.85 11.84L0 131.83Z" style="fill:#b796f9;stroke:none;stroke-width:43.48809814;stroke-linecap:butt"/></g><g transform="translate(0 -9.449)"><title>polygon21</title><path d="m0 108.27 19.84 11.84v23.56L0 131.83Z" style="fill:#a67af4;stroke:none;stroke-width:43.48809814;stroke-linecap:butt"/></g><g transform="translate(10.492 -18.425)"><title>path23</title><path d="m18.27 133.75-8.73-9.07a.463.472-180 0 0-.648 0L.09 133.75a.432.44-180 0 0 .34.756l5.16-.006a.463.472 0 0 1 .463.473L6.05 143.2a.463.472-180 0 0 .432.473l5.428-.003a.463.472-180 0 0 .525-.473l.005-8.347a.463.472 0 0 1 .432-.473l5.148.003a.432.44-180 0 0 .247-.63z" style="fill:#fff;stroke:none;stroke-width:43.48809814;stroke-linecap:butt"/></g><g transform="translate(8.764)"><title>g31</title><title>rect25</title><path d="M0 142.5a1.142 1.165-180 0 0 1.14 1.17h19.38a1.142 1.165-180 0 0 1.14-1.17v-17.16a1.142 1.165-180 0 0-1.14-1.17H1.14A1.142 1.165-180 0 0 0 125.34Z" style="fill:url(#a);stroke:none;stroke-width:43.48809814;stroke-linecap:butt"/><g transform="translate(2.07 -4.13)"><title>path27</title><path d="M6.23 142.45 1.88 138l4.26-4.34a.309.315-180 0 0 0-.441l-.68-.699a.37.378-180 0 0-.432 0L.09 137.56a.679.693-180 0 0 0 .693.555.567-180 0 0 0 .22l5 5.107a.309.315-180 0 0 .432 0l.678-.69a.309.315-180 0 0 .03-.441z" style="fill:#fff;stroke:none;stroke-width:43.48809814;stroke-linecap:butt"/></g><g transform="translate(14.076 -4.13)"><title>path29</title><path d="m6.26 137.56-4.91-5.04a.37.378-180 0 0-.432 0l-.678.7a.309.315-180 0 0 0 .44L4.47 138l-4.38 4.45a.309.315-180 0 0 0 .44l.68.69a.309.315-180 0 0 .432 0l5.058-5.23a.617.63-180 0 0 0-.787z" style="fill:#fff;stroke:none;stroke-width:43.48809814;stroke-linecap:butt"/></g></g></g></g></svg>