<svg xmlns="http://www.w3.org/2000/svg" xml:space="preserve" width="56.697" height="56.692" style="font-size:12px;overflow:visible;color-interpolation-filters:sRGB;fill-rule:evenodd;stroke-linecap:square;stroke-miterlimit:3" viewBox="0 0 56.697 56.692"><g transform="translate(-5.67 -5.673)"><title>Page-1</title><g transform="translate(5.67 -34.016)"><title>Blockchain Consortium.12513</title><title>Sheet.12514</title><g transform="translate(28.024 -32.35)"><title>Sheet.12515</title><path d="M10.31 78.12v12.17L0 96.38V84.21Z" style="fill:#773adc;stroke:none;stroke-width:.75;stroke-linecap:butt"/></g><g transform="translate(31.568 -37.981)"><title>Sheet.12516</title><path d="M2.25 90.2c1.42-.85 2.26-.29 2.26 1.4a5.72 5.689 0 0 1-2.26 3.94c-1.13.84-2.25.28-2.25-1.41a5.72 5.689 0 0 1 2.25-3.93" style="fill:#552f99;stroke:none;stroke-width:.75;stroke-linecap:butt"/></g><g transform="translate(17.394 -44.522)"><title>Sheet.12517</title><path d="m20.94 90.29-10.31 6.09L0 90.29l10.63-6.08Z" style="fill:#b796f9;stroke:none;stroke-width:.75;stroke-linecap:butt"/></g><g transform="translate(17.394 -32.35)"><title>Sheet.12518</title><path d="M10.63 84.21v12.17L0 90.29V78.12Z" style="fill:#a67af4;stroke:none;stroke-width:.75;stroke-linecap:butt"/></g><g transform="translate(19.7 -38.116)"><title>Sheet.12519</title><path d="M2.58 90.29c-1.29-.64-2.58 0-2.58 1.28a4.642 4.616-180 0 0 2.58 4.17c1.29.64 2.57 0 2.57-1.28a5.325 5.295-180 0 0-2.57-4.17" style="fill:#773adc;stroke:none;stroke-width:.75;stroke-linecap:butt"/></g><g transform="translate(46.385 -16.335)"><title>Sheet.12520</title><path d="M10.31 78.12v12.17L0 96.38V84.21Z" style="fill:#5e9624;stroke:none;stroke-width:.75;stroke-linecap:butt"/></g><g transform="translate(36.077 -16.335)"><title>Sheet.12521</title><path d="M10.31 84.21v12.17L0 90.29V78.12Z" style="fill:#76bc2d;stroke:none;stroke-width:.75;stroke-linecap:butt"/></g><g transform="translate(38.976 -21.46)"><title>Sheet.12522</title><path d="M2.58 90.29c-1.29-.64-2.58 0-2.58 1.28a4.642 4.616-180 0 0 2.58 4.17c1.29.64 2.57 0 2.57-1.28a5.325 5.295-180 0 0-2.57-4.17" style="fill:#5e9624;stroke:none;stroke-width:.75;stroke-linecap:butt"/></g><g transform="translate(33.178 -30.749)"><title>Sheet.12523</title><g transform="translate(0 -5.39)"><title>Sheet.12524</title><path d="M8.49 94.8a16.592 16.499-180 0 0-6.24-4.56A1.665 1.656-180 0 0 0 91.2a1.437 1.429-180 0 0 .97 1.92 13.71 13.632 0 0 1 4.7 3.26z" style="fill:#32bedd;stroke:none;stroke-width:.75;stroke-linecap:butt"/></g><g transform="translate(8.485)"><title>Sheet.12525</title><path d="M0 95.83c.06.19.16.36.21.55l.39-.19Z" style="fill:#32bedd;stroke:none;stroke-width:.75;stroke-linecap:butt"/></g></g><g transform="translate(10.308 -16.015)"><title>Sheet.12526</title><path d="M10.63 78.44v11.85L0 96.38V84.53Z" style="fill:#258277;stroke:none;stroke-width:.75;stroke-linecap:butt"/></g><g transform="translate(0 -16.015)"><title>Sheet.12527</title><path d="M10.31 84.53v11.85L0 90.29V78.44Z" style="fill:#37c2b1;stroke:none;stroke-width:.75;stroke-linecap:butt"/></g><g transform="translate(14.63 -35.62)"><title>Sheet.12528</title><path d="M8.56 90.68a2.158 2.146-180 0 0-2.58-.96A21.26 21.14-180 0 0 0 94.44l3.41 1.94a14.966 14.881 0 0 1 4.19-3.14 2.158 2.146-180 0 0 .96-2.56" style="fill:#32bedd;stroke:none;stroke-width:.75;stroke-linecap:butt"/></g><g transform="translate(28.99)"><title>Sheet.12529</title><path d="M10.31 78.12v12.17L0 96.38V84.21Z" style="fill:#d15900;stroke:none;stroke-width:.75;stroke-linecap:butt"/></g><g transform="translate(18.683)"><title>Sheet.12530</title><path d="M10.31 84.21v12.17L0 90.29V78.12Z" style="fill:#f78d1e;stroke:none;stroke-width:.75;stroke-linecap:butt"/></g><g transform="translate(34.985 -18.968)"><title>Sheet.12531</title><path d="M6.89 90.36a1.678 1.669-180 0 0-2.58.32A16.944 16.848 0 0 1 0 94.54l3.11 1.84a19.237 19.128-180 0 0 4.1-3.45 1.678 1.669-180 0 0-.32-2.57" style="fill:#32bedd;stroke:none;stroke-width:.75;stroke-linecap:butt"/></g><g transform="translate(13.61 -21.105)"><title>Sheet.12532</title><path d="M2.54 89.74c1.46-.8 2.53-.13 2.53 1.46a5.827 5.794 0 0 1-2.53 4.38c-1.47.8-2.54.13-2.54-1.46a5.476 5.445 0 0 1 2.54-4.38" style="fill:#207067;stroke:none;stroke-width:.75;stroke-linecap:butt"/></g><g transform="translate(14.705 -18.785)"><title>Sheet.12533</title><path d="M8.56 94.2a13.735 13.658 0 0 1-5.23-4.02 1.704 1.694-180 0 0-2.57-.32 1.704 1.694-180 0 0-.33 2.56 17.794 17.693-180 0 0 4.45 3.96Z" style="fill:#32bedd;stroke:none;stroke-width:.75;stroke-linecap:butt"/></g><g transform="translate(18.683 -12.171)"><title>Sheet.12534</title><path d="m20.62 90.29-10.31 6.09L0 90.29l10.31-6.08Z" style="fill:#ffb34d;stroke:none;stroke-width:.75;stroke-linecap:butt"/></g><g transform="translate(0 -27.866)"><title>Sheet.12535</title><path d="m20.94 90.29-10.63 6.09L0 90.29l10.31-6.08Z" style="fill:#42e8ca;stroke:none;stroke-width:.75;stroke-linecap:butt"/></g><g transform="translate(36.077 -28.507)"><title>Sheet.12536</title><path d="m20.62 90.29-10.31 6.09L0 90.29l10.31-5.76Z" style="fill:#b4ec36;stroke:none;stroke-width:.75;stroke-linecap:butt"/></g></g></g></svg>