<svg xmlns="http://www.w3.org/2000/svg" xml:space="preserve" width="48.398" height="56.694" style="font-size:12px;overflow:visible;color-interpolation-filters:sRGB;fill-rule:evenodd;stroke-linecap:square;stroke-miterlimit:3" viewBox="0 0 48.398 56.694"><g transform="translate(-36.616 -36.62)"><title>Page-1</title><g transform="translate(36.616 -36.616)"><title>Blockchain Token.12479</title><title>layer1</title><g transform="translate(18.689 -12.043)"><title>path2</title><path d="M18.69 96.47v22.27L0 129.93v-22.31z" style="fill:#773adc;stroke:none;stroke-width:36.61640167;stroke-linecap:butt"/></g><g transform="translate(.031 -34.314)"><title>path4</title><path d="m37.35 118.74-18.69 11.19L0 118.74l18.66-11.19Z" style="fill:#b796f9;stroke:none;stroke-width:36.61640167;stroke-linecap:butt"/></g><g transform="translate(0 -12.043)"><title>path6</title><path d="M18.69 107.66v22.27L0 118.74V96.47Z" style="fill:#a67af4;stroke:none;stroke-width:36.61640167;stroke-linecap:butt"/></g><g transform="translate(12.757 -5.333)"><title>path8</title><path d="M19.6 119.99c0 .1-.02.21-.04.31-.02.11-.03.18-.05.26l-.09.3c-.03.1-.06.16-.09.24l-.15.32a4.46 4.566 0 0 1-.25.43l-.04.06a4.762 4.875 0 0 1-.31.41l-.06.08-.42.42a3.204 3.28 0 0 1-.31.25l-.28.22-.35.25-.37.24a10.333 10.578 0 0 1-.93.48l-.32.12-.77.3-.31.1-.51.15-.39.1-.54.12-.37.08-1.12.16c-.12 0-.24.02-.36.03l-.66.05H9.17l-.5-.02-.92-.11-.44-.07-.52-.09-.41-.09-.62-.15-.33-.1-1.06-.36-.5-.21-.25-.12-.72-.38a4.921 5.037 0 0 1-2.9-4.14v4.48a4.921 5.037-180 0 0 2.9 4.14l.72.38c.08.04.17.08.26.11l.43.2.06.02 1.14.39c.08.03.17.04.25.07l.62.15.16.04.25.04.52.1.21.03c.08 0 .15.02.23.03l.49.06c.08 0 .15.02.23.03h.23l.49.03h1.42c.22-.02.44-.03.66-.05h.35l1.12-.16h.06l.31-.07.55-.12.38-.1.51-.15.11-.03c.05-.02.11-.05.17-.07l.78-.3.31-.12.93-.47.13-.08c.09-.05.16-.11.25-.17l.35-.24.27-.22.32-.26.05-.05q.195-.18.36-.36l.06-.08.19-.22a2.115 2.165-180 0 0 .13-.19l.04-.07.22-.35.04-.07a3.356 3.436-180 0 0 .14-.32l.08-.19.03-.06a3.142 3.216-180 0 0 .08-.3l.06-.2v-.06a3.39 3.47-180 0 0 .03-.32c.01-.1.03-.14.03-.2v-4.61l-.04.32z" style="fill:#32bedd;stroke:none;stroke-width:36.61640167;stroke-linecap:butt"/></g><g transform="translate(11.762 -9.786)"><title>path10</title><path d="M17.72 119.98c3.85 2.28 3.87 5.97.04 8.24a15.32 15.682 0 0 1-13.89 0c-3.85-2.28-3.87-5.97-.04-8.24a15.304 15.667 0 0 1 13.89 0" style="fill:#50e6ff;stroke:none;stroke-width:36.61640167;stroke-linecap:butt"/></g><g transform="translate(28.49)"><title>path12</title><path d="M19.65 119.98c0 .11-.01.21-.04.32-.01.11-.04.17-.05.26l-.09.3c-.03.09-.06.16-.09.24l-.14.32c-.06.11-.16.32-.25.43l-.05.06-.31.42-.06.07-.41.42a4.541 4.649 0 0 1-.32.25l-.27.23c-.09.07-.23.15-.36.23l-.37.25a9.574 9.801 0 0 1-.93.48l-.31.13-.77.3-.28.09-.51.15-.39.11-.54.11-.37.08-1.12.16-.36.03-.66.05H9.19c-.17 0-.34 0-.5-.03-.16-.04-.31-.03-.45-.04l-.49-.06-.44-.06-.52-.1-.41-.08-.62-.15-.33-.1-1.06-.37-.5-.21-.25-.11-.72-.39a4.918 5.034 0 0 1-2.9-4.14v4.48a4.921 5.037-180 0 0 2.9 4.14l.72.38.25.11.44.2.06.02c.35.13.7.26 1.06.36l.08.03.25.07.62.16c.06 0 .11.03.17.03l.25.05.52.09c.07 0 .13.03.2.04l.24.03.49.06.23.02h.22c.16 0 .33.02.5.03h1.41c.22 0 .44-.04.67-.05.08 0 .17 0 .26-.02h.08l1.12-.16h.06l.31-.07.54-.12.39-.1.51-.15.1-.03.18-.07.77-.3.31-.12a10.333 10.578-180 0 0 .93-.48l.13-.07c.09-.06.17-.12.25-.18l.35-.24.28-.22.31-.26.06-.05a4.765 4.878-180 0 0 .35-.36l.06-.08.19-.22.13-.19.05-.06.21-.32.04-.08c.06-.1.09-.2.14-.32l.09-.18v-.06c.03-.11.05-.21.08-.31l.06-.2v-.06c.02-.1.02-.21.03-.31.01-.11.03-.14.03-.21v-4.55c.02.08 0 .18-.01.28z" style="fill:#32bedd;stroke:none;stroke-width:36.61640167;stroke-linecap:butt"/></g><g transform="translate(27.517 -4.435)"><title>path14</title><path d="M17.72 119.98a4.252 4.353 0 0 1 .04 8.24 15.307 15.67 0 0 1-13.89 0c-3.85-2.28-3.87-5.97-.04-8.24a15.31 15.673 0 0 1 13.9 0z" style="fill:#50e6ff;stroke:none;stroke-width:36.61640167;stroke-linecap:butt"/></g><g transform="translate(28.447 -9.753)"><title>path16</title><path d="M19.72 119.69q0 .15-.03.3l-.03.32c-.02.1-.05.17-.06.25l-.08.3c-.04.09-.06.16-.1.24l-.14.32c-.06.11-.15.32-.25.43l-.05.06-.31.42-.06.07a6.408 6.56 0 0 1-.41.42 4.541 4.649 0 0 1-.31.26l-.28.22-.35.24-.38.25a9.926 10.16 0 0 1-.93.47l-.31.13-.78.3-.31.1-.5.15-.39.1-.54.12-.38.08-1.12.15-.35.04-.66.04H9.2c-.17 0-.34 0-.5-.03-.17-.03-.31-.02-.45-.04l-.5-.06-.43-.06-.52-.1-.41-.08-.62-.16-.34-.09c-.36-.11-.71-.23-1.05-.37l-.5-.21-.26-.11-.72-.39a4.924 5.04 0 0 1-2.9-4.14v4.48a4.924 5.04-180 0 0 2.9 4.14l.72.38.25.11.45.2.04.02 1.06.36.09.04.24.06.63.15c.05 0 .1.04.16.04l.24.05.52.09c.08 0 .14.03.21.04l.23.03.49.06.24.02h.22c.16 0 .33.02.49.03h1.41c.23 0 .45-.03.67-.05.08 0 .18 0 .27-.02h.08l1.12-.16h.06l.31-.07.54-.12.39-.1.51-.15.1-.03c.06-.02.12-.05.17-.07l.78-.3.31-.12a9.954 10.19-180 0 0 .94-.48l.11-.07.26-.18.35-.24.28-.22.31-.25.06-.06a5.444 5.572-180 0 0 .35-.36l.06-.08.19-.23.13-.18.05-.07a3.67 3.757-180 0 0 .22-.35l.03-.07c.06-.11.1-.21.15-.32l.08-.18v-.07a3.204 3.28-180 0 0 .08-.3l.06-.2v-.05c.02-.11.02-.22.03-.32.01-.11.03-.14.03-.21v-.09z" style="fill:#32bedd;stroke:none;stroke-width:36.61640167;stroke-linecap:butt"/></g><g transform="rotate(-89.838 17.023 98.518)"><title>ellipse18</title><ellipse cx="5.692" cy="119.867" rx="5.692" ry="10.059" style="fill:#50e6ff;stroke:none;stroke-width:36.61640167;stroke-linecap:butt"/></g></g></g></svg>