<svg xmlns="http://www.w3.org/2000/svg" xml:space="preserve" width="56.693" height="56.689" style="font-size:12px;overflow:visible;color-interpolation-filters:sRGB;fill-rule:evenodd;stroke-linecap:square;stroke-miterlimit:3" viewBox="0 0 56.693 56.689"><defs><linearGradient id="a" x1="-.114" x2="27.983" y1="66.521" y2="66.521" gradientTransform="scale(.98173 1.01861)" gradientUnits="userSpaceOnUse"><stop offset="0" stop-color="#32d4f5"/><stop offset="1" stop-color="#198ab3"/></linearGradient></defs><g transform="translate(-5.67 -5.67)"><title>Page-1</title><g transform="translate(5.67 -34.016)"><title>Blockchain DevKit.12497</title><title>Sheet.12498</title><g transform="translate(0 -3.844)"><title>Sheet.12499</title><g transform="translate(22.793)"><title>Sheet.12500</title><path d="M22.8 56.78v26.35L0 96.38v-26.4z" style="fill:#773adc;stroke:none;stroke-width:.75;stroke-linecap:butt"/></g><g transform="translate(0 -26.36)"><title>Sheet.12501</title><path d="M45.59 83.14 22.8 96.38 0 83.13l22.8-13.24Z" style="fill:#b796f9;stroke:none;stroke-width:.75;stroke-linecap:butt"/></g><title>Sheet.12502</title><path d="M22.79 70.02v26.36L0 83.13V56.77Z" style="fill:#a67af4;stroke:none;stroke-width:.75;stroke-linecap:butt"/></g><g transform="translate(28.646)"><title>b27129ef-d9eb-4579-8bb0-024170d</title><path d="m23.78 73.26.14.13a.251.25-180 0 0 .33 0l1.32-1.11 2.44-3.98a.255.253-180 0 0-.036-.31l-.384-.38a.255.253-180 0 0-.33-.03l-3.82 2.53-1.08 1.39a.248.247-180 0 0 .023.329l.147.151-7.94 8.12-1.64-1.69-1.81 1.87a3.253 3.232 0 0 1-.85 2.59 2.869 2.85 0 0 1-2.48.9L.14 91.62a.503.5-180 0 0 0 .697l3.78 3.903a.503.5-180 0 0 .728 0l7.612-7.86a3.11 3.09 0 0 1 .91-2.59 2.879 2.86 0 0 1 2.48-.9L17.47 83l-1.64-1.68Z" style="fill:#198ab3;stroke:none;stroke-width:.75;stroke-linecap:butt"/></g><g transform="translate(28.931 -.039)"><title>Sheet.12504</title><path d="m26.62 91.15-1.89-1.93-12.04-12.36-.6-.64a6.717 6.675-180 0 0-1.57-6.57 6.228 6.188-180 0 0-5.6-1.79.251.25-180 0 0-.136.424L7.94 71.47a.255.253 0 0 1 .066.237L7.16 74.98a.255.253 0 0 1-.179.18l-3.221.89a.255.253 0 0 1-.248-.069L.43 72.81a.255.253-180 0 0-.433.132A6.618 6.576-180 0 0 1.74 78.69a6.125 6.086-180 0 0 6.12 1.63l.12.11.66.7 13.8 14.35a2.856 2.838-180 0 0 4.04.13c.05-.04.09-.08.14-.13a3.008 2.989-180 0 0 .85-2.17 3.29 3.268-180 0 0-.85-2.16" style="fill:url(#a);stroke:none;stroke-width:.75;stroke-linecap:butt"/></g></g></g></svg>