<svg xmlns="http://www.w3.org/2000/svg" xml:space="preserve" width="56.705" height="48.185" style="font-size:12px;overflow:visible;color-interpolation-filters:sRGB;fill-rule:evenodd;stroke-linecap:square;stroke-miterlimit:3" viewBox="0 0 56.705 48.185"><g transform="translate(-34 -34)"><title>Page-1</title><g transform="translate(34.003 -34.016)"><title>Blockchain Data Manager.12505</title><title> Icon-Icon-208</title><g transform="translate(26.718 -8.564)"><title>Sheet.12507</title><path d="M16.85 86.5v19.75L0 116.2V96.39Z" style="fill:#773adc;stroke:none;stroke-width:34;stroke-linecap:butt"/></g><g transform="translate(9.832 -28.344)"><title>Sheet.12508</title><path d="m33.74 106.28-16.85 9.92L0 106.28l16.89-9.92Z" style="fill:#b796f9;stroke:none;stroke-width:34;stroke-linecap:butt"/></g><g transform="translate(9.832 -8.564)"><title>Sheet.12509</title><path d="M16.89 96.42v19.78L0 106.25V86.5Z" style="fill:#a67af4;stroke:none;stroke-width:34;stroke-linecap:butt"/></g><g transform="translate(31.22 -17.715)"><title>Sheet.12510</title><path d="M3.99 105.64c2.23-1.28 4.02-.26 4.02 2.31a8.842 8.895 0 0 1-3.99 6.97c-2.23 1.28-4.02.26-4.02-2.31a8.842 8.895 0 0 1 3.99-6.97" style="fill:#552f99;stroke:none;stroke-width:34;stroke-linecap:butt"/></g><g transform="translate(34.348 -21.408)"><title>Sheet.12511</title><path d="M12.07 116.2H2.01a2.011 2.023 0 0 1 0-4.04h10.06a6.576 6.615-180 0 0 6.38-6.84 6.576 6.615-180 0 0-6.38-6.87 2.013 2.025 0 0 1 0-4.05 10.566 10.629 0 0 1 10.28 10.92 10.566 10.629 0 0 1-10.28 10.88" style="fill:#50e6ff;stroke:none;stroke-width:34;stroke-linecap:butt"/></g><title>Sheet.12512</title><path d="m37.73 107.77-7.76-7.8a.415.417-180 0 0-.638 0l.008 6H10.18A6.576 6.615 0 0 1 3.8 99.1a6.608 6.647 0 0 1 6.03-6.78v-4.04A10.63 10.693-180 0 0 0 99.16a10.598 10.66-180 0 0 10.28 10.92h19.15v5.97a.415.417-180 0 0 .638 0l7.662-7.86a.351.353-180 0 0 0-.417z" style="fill:#32bedd;stroke:none;stroke-width:34;stroke-linecap:butt"/></g></g></svg>