<svg xmlns="http://www.w3.org/2000/svg" xml:space="preserve" width="48.19" height="56.686" style="font-size:12px;overflow:visible;color-interpolation-filters:sRGB;fill-rule:evenodd;stroke-linecap:square;stroke-miterlimit:3" viewBox="0 0 48.19 56.686"><defs><linearGradient id="a" x1="0" x2="13.761" y1="104.439" y2="104.439" gradientTransform="scale(.87565 1.142)" gradientUnits="userSpaceOnUse"><stop offset=".1" stop-color="#773adc"/><stop offset="1" stop-color="#403457"/></linearGradient></defs><g transform="translate(-39.7 -39.704)"><title>Page-1</title><g transform="translate(39.7 -39.7)"><title>Blockchain ABS Member.12554</title><title>g19</title><g transform="translate(24.095)"><title>polygon11</title><path d="M0 136.09v-28.18l24.09-14.42V122Z" style="fill:#773adc;stroke:none;stroke-width:39.69960022;stroke-linecap:butt"/></g><g transform="translate(31.522 -12.012)"><title>path13</title><path d="M6.02 120.09c3.49-1.93 6.03-.33 6.03 3.51a13.828 13.97 0 0 1-6.03 10.57c-3.48 1.92-6.02.33-6.02-3.52a12.983 13.116 0 0 1 6.02-10.56" style="fill:url(#a);stroke:none;stroke-width:39.69960022;stroke-linecap:butt"/></g><g transform="translate(0 -28.186)"><title>polygon15</title><path d="m0 121.68 24.09-14.09 24.1 14.09-24.1 14.41z" style="fill:#b796f9;stroke:none;stroke-width:39.69960022;stroke-linecap:butt"/></g><title>polygon17</title><path d="M0 122V93.49l24.09 14.42v28.18z" style="fill:#a67af4;stroke:none;stroke-width:39.69960022;stroke-linecap:butt"/></g></g></svg>