<svg xmlns="http://www.w3.org/2000/svg" xml:space="preserve" width="56.705" height="45.349" style="font-size:12px;overflow:visible;color-interpolation-filters:sRGB;fill-rule:evenodd;stroke-linecap:square;stroke-miterlimit:3" viewBox="0 0 56.705 45.349"><g transform="translate(-5.666 -4.537)"><title>Page-1</title><g transform="translate(5.67 -34.016)"><title>Blockchain Streaming.12490</title><g transform="translate(26.718 -8.06)"><title>Sheet.12491</title><path d="M16.85 55.95v18.59L0 83.91V65.26Z" style="fill:#773adc;stroke:none;stroke-width:.75;stroke-linecap:butt"/></g><g transform="translate(9.832 -26.677)"><title>Sheet.12492</title><path d="m33.74 74.57-16.85 9.34L0 74.57l16.89-9.34Z" style="fill:#b796f9;stroke:none;stroke-width:.75;stroke-linecap:butt"/></g><g transform="translate(9.832 -8.06)"><title>Sheet.12493</title><path d="M16.89 65.29v18.62L0 74.54V55.95Z" style="fill:#a67af4;stroke:none;stroke-width:.75;stroke-linecap:butt"/></g><g transform="translate(31.22 -16.673)"><title>Sheet.12494</title><path d="M3.99 73.96c2.23-1.21 4.02-.24 4.02 2.18a8.842 8.372 0 0 1-3.99 6.56C1.79 83.91 0 82.94 0 80.52a8.842 8.372 0 0 1 3.99-6.56" style="fill:#552f99;stroke:none;stroke-width:.75;stroke-linecap:butt"/></g><g transform="translate(34.348 -20.149)"><title>Sheet.12495</title><path d="M12.07 83.91H2.01a2.012 1.905 0 0 1 0-3.81h10.06a6.576 6.226-180 0 0 6.38-6.44 6.576 6.226-180 0 0-6.38-6.47 2.012 1.905 0 0 1 0-3.81 10.566 10.004 0 0 1 10.28 10.28 10.566 10.004 0 0 1-10.28 10.25" style="fill:#50e6ff;stroke:none;stroke-width:.75;stroke-linecap:butt"/></g><title>Sheet.12496</title><path d="m37.73 75.97-7.76-7.35a.415.393-180 0 0-.638 0l.008 5.65H10.18a6.576 6.226 0 0 1-6.38-6.46 6.608 6.256 0 0 1 6.03-6.38v-3.81A10.63 10.064-180 0 0 0 67.87a10.598 10.034-180 0 0 10.28 10.27h19.15v5.62a.415.393-180 0 0 .638 0l7.662-7.4a.351.332-180 0 0 0-.393z" style="fill:#32bedd;stroke:none;stroke-width:.75;stroke-linecap:butt"/></g></g></svg>