<svg xmlns="http://www.w3.org/2000/svg" xml:space="preserve" width="56.418" height="51.029" style="font-size:12px;overflow:visible;color-interpolation-filters:sRGB;fill-rule:evenodd;stroke-linecap:square;stroke-miterlimit:3" viewBox="0 0 56.418 51.029"><g transform="translate(-31.963 -31.683)"><title>Page-1</title><g transform="translate(31.688 -34.016)"><title>Blockchain Connection.12537</title><title>layer1</title><g transform="translate(28.416 -9.924)"><title>polygon4</title><path d="M17.73 85.93v20.52L0 116.73V96.21Z" style="fill:#773adc;stroke:none;stroke-width:31.68810081;stroke-linecap:butt"/></g><g transform="translate(10.688 -30.411)"><title>polygon6</title><path d="m35.46 106.42-17.73 10.31L0 106.42l17.73-10.31Z" style="fill:#b796f9;stroke:none;stroke-width:31.68810081;stroke-linecap:butt"/></g><g transform="translate(10.688 -9.924)"><title>polygon8</title><path d="M17.73 96.24v20.49L0 106.45V85.93Z" style="fill:#a67af4;stroke:none;stroke-width:31.68810081;stroke-linecap:butt"/></g><g transform="translate(14.837 -19.168)"><title>path10</title><path d="M4.21 105.77c-2.32-1.32-4.21-.25-4.21 2.4a9.21 9.15-180 0 0 4.21 7.21c2.3 1.35 4.21.29 4.21-2.37a9.43 9.37-180 0 0-4.21-7.24" style="fill:#773adc;stroke:none;stroke-width:31.68810081;stroke-linecap:butt"/></g><title>path12</title><path d="m56.58 107.93-8.14-8.12a.44.437-180 0 0-.66 0v6.24H10.56a6.287 6.246 0 1 1 0-12.49h7.51a2.137 2.124-180 0 0 2.11-2.12 2.106 2.092-180 0 0-2.11-2.09h-7.51a10.561 10.494-180 0 0 0 20.98h37.09v6.25a.44.437-180 0 0 .66 0l8.27-8.09a.409.406-180 0 0 0-.562z" style="fill:#32bedd;stroke:none;stroke-width:31.68810081;stroke-linecap:butt"/></g></g></svg>