<svg xmlns="http://www.w3.org/2000/svg" xml:space="preserve" width="48.185" height="56.696" style="font-size:12px;overflow:visible;color-interpolation-filters:sRGB;fill-rule:evenodd;stroke-linecap:square;stroke-miterlimit:3" viewBox="0 0 48.185 56.696"><g transform="translate(-34 -33.999)"><title>Page-1</title><g transform="translate(34 -34.016)"><title>Capacity Reservation Group.12470</title><title>Sheet.12471</title><g transform="translate(4.098 -13.926)"><title>Sheet.12472</title><path d="m39.99 112.8-5.32 3.18-5.34 3.15-9.35 5.58-9.32-5.58-5.32-3.15L0 112.8l4.19-2.48 15.79 9.38 15.81-9.38z" style="fill:#a33a85;stroke:none;stroke-width:34;stroke-linecap:butt"/></g><g transform="translate(4.098 -8.51)"><title>Sheet.12473</title><path d="M39.99 107.39v5.41l-20.01 11.91L0 112.8v-5.41l5.34 3.18 5.32 3.15 9.32 5.57 9.35-5.57 5.34-3.15z" style="fill:#59285f;stroke:none;stroke-width:34;stroke-linecap:butt"/></g><g transform="translate(4.098 -24.382)"><title>Sheet.12474</title><path d="m39.99 112.84-5.32 3.14-3.45 2.05-1.89 1.14-9.35 5.54-9.32-5.54-1.9-1.14-3.42-2.05L0 112.84l19.98-11.94Z" style="fill:#a33a85;stroke:none;stroke-width:34;stroke-linecap:butt"/></g><g transform="translate(4.098 -18.934)"><title>Sheet.12475</title><path d="M39.99 107.39v5.41l-4.2 2.52-15.81 9.39-15.79-9.39L0 112.8v-5.41l5.34 3.15 3.42 2.04 1.9 1.14 9.32 5.54 9.35-5.54 1.89-1.14 3.45-2.04z" style="fill:#59285f;stroke:none;stroke-width:34;stroke-linecap:butt"/></g><g transform="translate(24.095)"><title>Sheet.12476</title><path d="M24.09 83.12v26.5a1.755 1.78 0 0 1-.87 1.55L.89 124.46a1.759 1.783 0 0 1-.89.25V96.43l23.86-14.2a1.768 1.792 0 0 1 .23.89" style="fill:#a33a85;fill-opacity:.6;stroke:none;stroke-width:34;stroke-linecap:butt"/></g><g transform="translate(.233 -28.275)"><title>Sheet.12477</title><path d="m47.72 110.51-23.86 14.16v.04L0 110.5a1.712 1.735 0 0 1 .64-.66l22.35-13.31a1.768 1.792 0 0 1 1.77 0l22.33 13.31a1.762 1.786 0 0 1 .63.67" style="fill:#dc92bf;fill-opacity:.6;stroke:none;stroke-width:34;stroke-linecap:butt"/></g><title>Sheet.12478</title><path d="M24.09 96.43v28.28a1.7 1.723 0 0 1-.88-.24L.87 111.17a1.755 1.78 0 0 1-.87-1.55V83.11a1.752 1.776 0 0 1 .23-.88z" style="fill:#ce74b6;fill-opacity:.6;stroke:none;stroke-width:34;stroke-linecap:butt"/></g></g></svg>