<svg xmlns="http://www.w3.org/2000/svg" xml:space="preserve" width="56.69" height="56.69" style="font-size:12px;overflow:visible;color-interpolation-filters:sRGB;fill-rule:evenodd;stroke-linecap:square;stroke-miterlimit:3" viewBox="0 0 56.69 56.69"><g transform="translate(-5.67 -5.674)"><title>Page-1</title><g transform="translate(5.67 -34.016)"><title>Citrix Virtual Desktop Essentials.12466</title><title>g8</title><title>path4</title><path d="M44.35 96.34c-4.07 0-7.91-2.04-10.22-5.45a6.87 6.87 0 0 0-5.76-3.09c-2.35 0-4.43 1.13-5.76 3.09-2.28 3.41-6.08 5.49-10.23 5.49C5.56 96.38.04 90.85.04 84.04c0-4.08 2.04-7.92 5.45-10.23a6.89 6.89 0 0 0 3.09-5.76c0-2.35-1.14-4.43-3.09-5.76A12.25 12.25 0 0 1 0 52.07c0-6.82 5.52-12.35 12.34-12.35 4.08 0 7.92 2.04 10.23 5.45a6.87 6.87 0 0 0 5.76 3.1c2.31 0 4.46-1.18 5.76-3.1 2.27-3.41 6.07-5.48 10.22-5.48 6.82 0 12.34 5.52 12.34 12.34 0 4.07-2.03 7.91-5.44 10.22a6.88 6.88 0 0 0-3.1 5.76c0 2.35 1.14 4.43 3.1 5.76 3.41 2.27 5.48 6.07 5.48 10.23 0 6.81-5.52 12.34-12.34 12.34M28.37 84.47c3.4 0 6.58 1.68 8.5 4.54 1.72 2.51 4.5 4 7.48 4 4.98 0 9.01-4.04 9.01-9.01 0-3.02-1.49-5.8-3.99-7.49-2.86-1.92-4.59-5.13-4.59-8.54s1.69-6.58 4.55-8.5c2.5-1.72 3.99-4.5 3.99-7.48 0-4.98-4.03-9.01-9.01-9.01-3.01 0-5.8 1.48-7.48 3.99-1.92 2.86-5.13 4.59-8.5 4.59s-6.59-1.69-8.51-4.55c-1.72-2.51-4.5-3.99-7.48-3.99-4.97 0-9.01 4.03-9.01 9.01 0 3.01 1.49 5.8 4 7.48 2.86 1.92 4.58 5.13 4.58 8.5 0 3.41-1.68 6.58-4.54 8.5-2.51 1.73-4 4.51-4 7.49 0 4.97 4.03 9.01 9.01 9.01 3.02 0 5.8-1.49 7.48-4 1.92-2.86 5.1-4.54 8.51-4.54" style="fill:#000;stroke:none;stroke-width:3.37748003;stroke-linecap:butt"/><g transform="translate(13.282 -14.222)"><title>path6</title><path d="M15.08 96.38c-2.5 0-5.01-.94-6.93-2.82l-4.27-4.23C.04 85.49 0 79.22 3.8 75.34l4.23-4.27c3.84-3.84 10.11-3.88 13.99-.08l4.27 4.23a9.75 9.75 0 0 1 2.94 6.97c0 2.67-1.02 5.14-2.86 7.02l-4.23 4.27c-1.92 1.92-4.47 2.9-7.06 2.9m-.04-24.96c-1.68 0-3.4.63-4.7 1.92l-4.19 4.31c-2.55 2.59-2.51 6.74.04 9.32l4.27 4.24c2.59 2.54 6.74 2.5 9.33-.04l4.23-4.27a6.55 6.55 0 0 0 1.92-4.67c0-1.76-.71-3.4-1.96-4.62l-4.27-4.23a6.46 6.46 0 0 0-4.67-1.96" style="fill:#000;stroke:none;stroke-width:3.37748003;stroke-linecap:butt"/></g></g></g></svg>