<svg xmlns="http://www.w3.org/2000/svg" xml:space="preserve" width="56.697" height="49.001" style="font-size:12px;overflow:visible;color-interpolation-filters:sRGB;fill-rule:evenodd;stroke-linecap:square;stroke-miterlimit:3" viewBox="0 0 56.697 49.001"><defs><linearGradient id="a" x1="0" x2="43.393" y1="90.703" y2="90.703" gradientTransform="scale(1.16216 .86046)" gradientUnits="userSpaceOnUse"><stop offset="0" stop-color="#5ea0ef"/><stop offset="1" stop-color="#0078d4"/></linearGradient><linearGradient id="b" x1="-3.6" x2="21.032" y1="93.53" y2="93.53" gradientTransform="scale(.99278 1.00727)" gradientUnits="userSpaceOnUse"><stop offset="0" stop-color="#faa21d"/><stop offset=".4" stop-color="#f79415"/><stop offset="1" stop-color="#ef7100"/></linearGradient></defs><g transform="translate(-33.193 -33.19)"><title>Page-1</title><g transform="translate(33.193 -36.83)"><title>Cloud Service.12452</title><title>g16</title><g transform="translate(0 -8.027)"><title>path2</title><path d="M30.35 114.64a14.132 14.339 0 0 1 14.12-14.32 13.94 14.144 0 0 1 5.96 1.38 11.565 11.734-180 0 0-9.66-9.37A14.463 14.674-180 0 0 26 78.05a14.803 15.02-180 0 0-14.07 9.91A13.707 13.907-180 0 0 0 101.67a13.9 14.102-180 0 0 14.26 13.71h16.17c-.01-.25-.08-.49-.08-.74" style="fill:url(#a);stroke:none;stroke-width:33.19250107;stroke-linecap:butt"/></g><g transform="translate(11.518 -19.937)"><title>circle4</title><ellipse cx="2.069" cy="113.28" rx="2.069" ry="2.099" style="fill:#e3e3e3;stroke:none;stroke-width:33.19250107;stroke-linecap:butt"/></g><g transform="translate(6.186 -14.463)"><title>path6</title><path d="M14.69 108.6v-1.68h-.24l-1.78-.59-.46-1.15.9-1.94-1.16-1.19h-.24l-1.66.87-1.12-.47-.73-2.04H6.53v.24l-.59 1.8-1.22.47-1.89-.92-1.17 1.18v.24l.85 1.68-.47 1.16-2.04.73v1.84h.23l1.78.59.47 1.17-.91 1.95 1.17 1.18h.23l1.66-.86 1.14.47.73 2.05h1.66v-.24l.58-1.8 1.14-.48 1.92.92 1.17-1.18v-.24l-.85-1.68.47-1.15zm-7.29 2.46a3.175 3.221 0 1 1 .06 0z" style="fill:#fff;stroke:none;stroke-width:33.19250107;stroke-linecap:butt"/></g><g transform="translate(25.011 -28.6)"><title>circle8</title><ellipse cx="2.447" cy="112.897" rx="2.447" ry="2.483" style="fill:#e3e3e3;stroke:none;stroke-width:33.19250107;stroke-linecap:butt"/></g><g transform="translate(18.715 -22.126)"><title>path10</title><path d="M17.49 107.38v-2.02h-.27l-2.15-.68-.5-1.51 1.08-2.37-1.4-1.4h-.26l-2.01 1.03-1.34-.56-.88-2.46H7.69v.3L7 99.87l-1.37.56-2.28-1.1-1.4 1.42.15.27.81 2.19-.46 1.48-2.45.8v2.15h.29l2.13.7.49 1.34-1.07 2.36 1.45 1.51.29-.15 1.99-1.03 1.37.56.87 2.45h1.98v-.29l.7-2.16 1.37-.56 2.3 1.09 1.4-1.42-.14-.27-.85-2.13.55-1.39zm-8.75 2.94a3.846 3.902 0 1 1 3.85-3.89 3.817 3.873 0 0 1-3.78 3.9z" style="fill:#fff;stroke:none;stroke-width:33.19250107;stroke-linecap:butt"/></g><g transform="translate(35.817)"><title>path12</title><path d="M8.66 94.21a12.227 12.405-180 1 0 12.22 12.4 12.227 12.405-180 0 0-12.23-12.4Z" style="fill:url(#b);stroke:none;stroke-width:33.19250107;stroke-linecap:butt"/></g><g transform="translate(37.628 -1.84)"><title>path14</title><path d="m13.08 101.53-7.21.04a.425.431-180 0 0-.315.741l2.595 2.579-4.83 4.92-2.54-2.63a.428.435-180 0 0-.734.3L0 114.79a.576.585-180 0 0 .576.585l7.204-.045a.425.431-180 0 0 .425-.435.438.444-180 0 0-.126-.32L5.49 112l4.85-4.92 2.54 2.63a.431.438-180 0 0 .734-.3l.046-7.31a.576.585-180 0 0-.576-.572z" style="fill:#fff;stroke:none;stroke-width:33.19250107;stroke-linecap:butt"/></g></g></g></svg>