<svg xmlns="http://www.w3.org/2000/svg" xml:space="preserve" width="56.69" height="56.69" style="font-size:12px;overflow:visible;color-interpolation-filters:sRGB;fill-rule:evenodd;stroke-linecap:square;stroke-miterlimit:3" viewBox="0 0 56.69 56.69"><g transform="translate(-5.67 -5.674)"><title>Page-1</title><g transform="translate(5.67 -34.016)"><title>Cloud Simple Service.12418</title><title>g11</title><title>rect5</title><path d="M0 94.02a2.36 2.36-180 0 0 2.36 2.36h51.97a2.36 2.36-180 0 0 2.36-2.36V42.05a2.36 2.36-180 0 0-2.36-2.36H2.36A2.36 2.36-180 0 0 0 42.05Z" style="fill:#e4e4e4;stroke:none;stroke-width:.97254199;stroke-linecap:butt"/><g transform="translate(4.889 -12.765)"><title>path7</title><path d="M26.3 93.45c-.32.23-.76.5-1.34.83-.58.32-1.31.64-2.18.95-.88.31-1.91.58-3.1.81s-2.53.34-4.03.34c-2.12 0-4.13-.32-6.02-.96-1.9-.63-3.56-1.59-4.99-2.86-1.42-1.27-2.55-2.85-3.39-4.75C.42 85.92 0 83.71 0 81.19c0-2.46.4-4.64 1.21-6.55.8-1.91 1.91-3.52 3.31-4.83 1.4-1.32 3.04-2.32 4.92-3.01 1.88-.7 3.91-1.04 6.08-1.04 1.16 0 2.21.07 3.14.21s1.76.32 2.48.55a12.6 12.6 0 0 1 1.85.72c.51.26.92.48 1.23.68.65.48 1.11.98 1.4 1.51.28.52.42 1.06.42 1.63 0 .54-.1 1.05-.32 1.53a6 6 0 0 1-.76 1.29 7.6 7.6 0 0 1-.89.97 4.6 4.6 0 0 1-.74.58c-.29-.29-.65-.62-1.09-1a7.6 7.6-180 0 0-1.58-1.04 12 12-180 0 0-2.15-.8c-.8-.23-1.7-.34-2.69-.34-1.24 0-2.37.2-3.39.61a7.6 7.6-180 0 0-2.65 1.78q-1.125 1.17-1.74 2.82c-.41 1.11-.62 2.35-.62 3.73 0 1.42.23 2.66.68 3.74.45 1.07 1.08 1.97 1.87 2.69a7.9 7.9-180 0 0 2.82 1.63c1.09.37 2.27.56 3.54.56 1.58 0 2.95-.2 4.09-.6q1.725-.585 2.61-1.23l3.18 5.47z" style="fill:#81ba33;stroke:none;stroke-width:.97254199;stroke-linecap:butt"/></g><g transform="translate(25.724 -12.765)"><title>path9</title><path d="M2.93 87.3q.255.21 1.14.66c.6.3 1.34.59 2.25.89.9.3 1.95.57 3.14.81s2.47.36 3.86.36c1.13 0 2.03-.08 2.71-.24.68-.15 1.2-.36 1.57-.61.37-.26.61-.54.72-.87s.17-.66.17-1c0-.68-.28-1.23-.83-1.67s-1.57-.79-3.07-1.04l-4.33-.77a25 25 0 0 1-3.39-.84 10.7 10.7 0 0 1-3.03-1.53 7.65 7.65 0 0 1-2.19-2.5q-.84-1.53-.84-3.78c0-1.3.24-2.52.72-3.67a7.96 7.96 0 0 1 2.2-2.99c.99-.84 2.24-1.52 3.75-2.01 1.52-.5 3.29-.74 5.33-.74 1.47 0 2.75.07 3.86.23 1.1.16 2.05.35 2.84.57.79.23 1.43.46 1.93.68.49.23.85.41 1.08.55.48.29.94.67 1.38 1.17.44.49.66 1.08.66 1.76 0 .48-.09.94-.26 1.38a6.5 6.5 0 0 1-.61 1.21c-.24.36-.5.68-.79.95a7 7 0 0 1-.72.61c-.28-.28-.71-.6-1.27-.95a10.5 10.5-180 0 0-2.04-.95c-.79-.29-1.69-.53-2.71-.72a17 17-180 0 0-3.27-.3c-1.1 0-1.98.09-2.63.27-.65.19-1.13.42-1.46.68-.33.27-.54.58-.64.92a3.4 3.4-180 0 0-.15.93c0 .25.04.49.11.72s.24.44.51.66c.27.21.65.41 1.15.59.49.18 1.16.36 2.01.53l4.5.89q2.37.465 4.17 1.17c1.2.46 2.22 1.04 3.04 1.71a6.4 6.4 0 0 1 1.84 2.47c.41.96.61 2.1.61 3.43 0 2.97-1.1 5.29-3.32 6.96-2.22 1.66-5.35 2.5-9.4 2.5-1.84 0-3.52-.16-5.07-.47q-2.31-.465-4.05-1.08c-1.15-.41-2.1-.8-2.82-1.17C.57 93.3.14 93.04 0 92.9Z" style="fill:#486385;stroke:none;stroke-width:.97254199;stroke-linecap:butt"/></g></g></g></svg>