<svg xmlns="http://www.w3.org/2000/svg" xml:space="preserve" width="58.329" height="58.327" style="font-size:12px;overflow:visible;color-interpolation-filters:sRGB;fill-rule:evenodd;stroke-linecap:square;stroke-miterlimit:3" viewBox="0 0 58.329 58.327"><g transform="translate(-4.996 -4.996)"><title>Page-1</title><g transform="translate(5.67 -34.016)"><title>Cloud Simple Node.12423</title><title>g59</title><g transform="translate(11.809)"><title>g11</title><g transform="translate(21.159 -4.77)"><title>path5</title><path d="M0 96.38v-5.9z" style="fill:#81ba33"/><path d="M0 96.38v-5.9" style="stroke:#81ba33;stroke-width:2.88423991;stroke-linecap:butt"/></g><g transform="translate(0 -2.429)"><title>path7</title><path d="M41.08 96.38H26.29Zm-26.29 0H0Z" style="fill:#81ba33"/><path d="M41.08 96.38H26.29m-11.5 0H0" style="stroke:#81ba33;stroke-width:2.88423991;stroke-linecap:round;stroke-linejoin:round"/></g><g transform="translate(16.01)"><title>path9</title><path d="M0 91.816h10.297v4.562H0z" style="fill:#fff;stroke:#81ba33;stroke-width:1.92282999;stroke-linecap:butt"/></g></g><g transform="translate(9.265 -11.075)"><title>path13</title><path d="M45.6 84.59H1.83C.8 84.59 0 85.23 0 86.05v8.87c0 .82.8 1.46 1.82 1.46H45.6c1.03 0 1.83-.64 1.83-1.46v-8.87c0-.82-.8-1.46-1.83-1.46z" style="fill:#eaeaea;stroke:#486385;stroke-width:1.92282999;stroke-linecap:butt"/></g><g transform="translate(13.428 -15.412)"><title>path15</title><path d="M1.71 96.38C.8 96.38 0 95.65 0 94.82s.8-1.56 1.71-1.56 1.71.73 1.71 1.56-.8 1.56-1.71 1.56z" style="fill:none;stroke:#486385;stroke-width:.96141499;stroke-linecap:butt"/></g><g transform="translate(43.273 -14)"><title>g23</title><title>rect17</title><path d="M0 95.67a.729.707-180 0 0 .729.707l7.291.003a.729.707-180 0 0 .729-.707.729.707-180 0 0-.729-.708L.73 94.96a.729.707-180 0 0-.729.707Z" style="fill:#486385;stroke:none;stroke-width:.96141499;stroke-linecap:butt"/><g transform="translate(0 -2.402)"><title>rect19</title><path d="M0 95.67a.729.707-180 0 0 .729.707l7.291.003a.729.707-180 0 0 .729-.707.729.707-180 0 0-.729-.708L.73 94.96a.729.707-180 0 0-.729.707Z" style="fill:#486385;stroke:none;stroke-width:.96141499;stroke-linecap:butt"/></g><g transform="translate(0 -4.76)"><title>rect21</title><path d="M0 95.67a.729.707-180 0 0 .729.707l7.291.003a.729.707-180 0 0 .729-.707.729.707-180 0 0-.729-.708L.73 94.96a.729.707-180 0 0-.729.707Z" style="fill:#486385;stroke:none;stroke-width:.96141499;stroke-linecap:butt"/></g></g><g transform="translate(9.265 -25.962)"><title>path25</title><path d="M45.6 84.59H1.83C.8 84.59 0 85.23 0 86.05v8.87c0 .82.8 1.46 1.82 1.46H45.6c1.03 0 1.83-.64 1.83-1.46v-8.87c0-.82-.8-1.46-1.83-1.46z" style="fill:#eaeaea;stroke:#486385;stroke-width:1.92282999;stroke-linecap:butt"/></g><g transform="translate(13.428 -30.3)"><title>path27</title><path d="M1.71 96.38C.8 96.38 0 95.65 0 94.82s.8-1.56 1.71-1.56 1.71.73 1.71 1.56-.8 1.56-1.71 1.56z" style="fill:none;stroke:#486385;stroke-width:.96141499;stroke-linecap:butt"/></g><g transform="translate(43.273 -28.888)"><title>g35</title><title>rect29</title><path d="M0 95.67a.729.707-180 0 0 .729.707l7.291.003a.729.707-180 0 0 .729-.707.729.707-180 0 0-.729-.708L.73 94.96a.729.707-180 0 0-.729.707Z" style="fill:#486385;stroke:none;stroke-width:.96141499;stroke-linecap:butt"/><g transform="translate(0 -2.402)"><title>rect31</title><path d="M0 95.67a.729.707-180 0 0 .729.707l7.291.003a.729.707-180 0 0 .729-.707.729.707-180 0 0-.729-.708L.73 94.96a.729.707-180 0 0-.729.707Z" style="fill:#486385;stroke:none;stroke-width:.96141499;stroke-linecap:butt"/></g><g transform="translate(0 -4.76)"><title>rect33</title><path d="M0 95.67a.729.707-180 0 0 .729.707l7.291.003a.729.707-180 0 0 .729-.707.729.707-180 0 0-.729-.708L.73 94.96a.729.707-180 0 0-.729.707Z" style="fill:#486385;stroke:none;stroke-width:.96141499;stroke-linecap:butt"/></g></g><g transform="translate(9.265 -40.851)"><title>path37</title><path d="M45.6 84.59H1.83C.8 84.59 0 85.23 0 86.05v8.87c0 .82.8 1.46 1.82 1.46H45.6c1.03 0 1.83-.64 1.83-1.46v-8.87c0-.82-.8-1.46-1.83-1.46z" style="fill:#eaeaea;stroke:#486385;stroke-width:1.92282999;stroke-linecap:butt"/></g><g transform="translate(13.428 -45.189)"><title>path39</title><path d="M1.71 96.38C.8 96.38 0 95.65 0 94.82s.8-1.56 1.71-1.56 1.71.73 1.71 1.56-.8 1.56-1.71 1.56z" style="fill:none;stroke:#486385;stroke-width:.96141499;stroke-linecap:butt"/></g><g transform="translate(43.273 -43.776)"><title>g47</title><title>rect41</title><path d="M0 95.67a.729.707-180 0 0 .729.707l7.291.003a.729.707-180 0 0 .729-.707.729.707-180 0 0-.729-.708L.73 94.96a.729.707-180 0 0-.729.707Z" style="fill:#486385;stroke:none;stroke-width:.96141499;stroke-linecap:butt"/><g transform="translate(0 -2.402)"><title>rect43</title><path d="M0 95.67a.729.707-180 0 0 .729.707l7.291.003a.729.707-180 0 0 .729-.707.729.707-180 0 0-.729-.708L.73 94.96a.729.707-180 0 0-.729.707Z" style="fill:#486385;stroke:none;stroke-width:.96141499;stroke-linecap:butt"/></g><g transform="translate(0 -4.76)"><title>rect45</title><path d="M0 95.67a.729.707-180 0 0 .729.707l7.291.003a.729.707-180 0 0 .729-.707.729.707-180 0 0-.729-.708L.73 94.96a.729.707-180 0 0-.729.707Z" style="fill:#486385;stroke:none;stroke-width:.96141499;stroke-linecap:butt"/></g></g><g transform="translate(7.994 -9.591)"><title>path49</title><path d="M48.6 52.49H2.81C1.25 52.49 0 54.1 0 55.91v37.08c0 1.79 1.25 3.39 2.81 3.39H3.9Z" style="fill:#fff;fill-opacity:.2;stroke:none;stroke-width:.96141499;stroke-linecap:butt"/></g><g transform="translate(0 -28.384)"><title>g57</title><title>circle51</title><ellipse cx="14.587" cy="82.224" rx="14.587" ry="14.154" style="fill:#f7f7f7;stroke:#81ba33;stroke-width:1.34598005;stroke-linecap:butt"/><g transform="translate(3.072 -7.523)"><title>path53</title><path d="M12.06 95.08a6.554 6.36 0 0 1-1.62.79 9.724 9.436 0 0 1-3.26.51c-.98 0-1.9-.14-2.77-.43a6.507 6.314 0 0 1-2.28-1.27 6.236 6.05 0 0 1-1.56-2.12Q0 91.3 0 89.62c0-1.09.18-2.06.55-2.91s.88-1.57 1.52-2.16a6.573 6.379 0 0 1 2.26-1.34 8.01 7.773 0 0 1 2.79-.46c.53 0 1.01.03 1.44.1.43.06.8.14 1.13.24a5.773 5.602 0 0 1 1.41.63c.3.21.52.43.65.66.13.24.19.48.19.73 0 .24-.05.47-.14.68-.1.21-.22.41-.35.58a3.496 3.392 0 0 1-.41.43 2.107 2.044 0 0 1-.34.26 10.053 9.755-180 0 0-.5-.45 3.462 3.36-180 0 0-.73-.46 5.555 5.39-180 0 0-.98-.36 4.565 4.43-180 0 0-1.24-.15c-.57 0-1.08.09-1.55.27a3.467 3.364-180 0 0-1.22.8 3.69 3.58-180 0 0-.79 1.25 4.884 4.74-180 0 0-.29 1.66c0 .63.11 1.18.31 1.66.21.48.5.88.86 1.2a3.609 3.502-180 0 0 1.29.73c.5.16 1.04.24 1.63.24.72 0 1.35-.09 1.87-.26.53-.18.93-.36 1.2-.55l1.46 2.44z" style="fill:#81ba33;stroke:none;stroke-width:.96141499;stroke-linecap:butt"/></g><g transform="translate(12.626 -7.523)"><title>path55</title><path d="M1.34 92.34c.08.06.26.16.53.29s.61.27 1.03.4q.615.195 1.44.36c.54.1 1.13.16 1.77.16.52 0 .93-.04 1.24-.11q.465-.105.72-.27a.826.802-180 0 0 .33-.387c.05-.143.08-.293.08-.443a.94.911-180 0 0-.38-.745c-.25-.195-.72-.355-1.41-.465l-1.98-.34a11.373 11.036 0 0 1-1.56-.38 4.915 4.77 0 0 1-1.39-.67 3.507 3.403 0 0 1-1-1.12q-.39-.675-.39-1.68c0-.58.11-1.12.33-1.63a3.6 3.6 0 0 1 1.01-1.33c.46-.38 1.03-.68 1.72-.9.7-.22 1.51-.33 2.44-.33.68 0 1.27.04 1.77.11a9.903 9.61 0 0 1 1.31.25c.36.1.65.2.88.3s.39.18.5.25c.22.12.43.3.63.52a1.177 1.142 0 0 1 .3.78c0 .21-.04.42-.12.61a2.965 2.877 0 0 1-.28.54c-.11.17-.23.31-.36.43a3.247 3.15 0 0 1-.33.27 3.374 3.274-180 0 0-.58-.42 4.826 4.683-180 0 0-.94-.43 8.596 8.342-180 0 0-1.24-.32 7.842 7.61-180 0 0-1.5-.13c-.5 0-.91.04-1.2.12-.3.08-.53.18-.67.3a.854.829-180 0 0-.292.406 1.538 1.493-180 0 0-.068.414c0 .12.01.22.04.32.04.1.11.2.24.3.12.09.3.18.52.26q.345.12.93.24l2.06.39a11.378 11.04 0 0 1 1.91.52c.56.21 1.02.46 1.39.77.38.3.66.66.85 1.09s.28.94.28 1.53c0 1.32-.51 2.35-1.52 3.09-1.02.75-2.46 1.12-4.31 1.12a11.763 11.414 0 0 1-2.33-.21 13.805 13.396 0 0 1-1.85-.48 10.991 10.666 0 0 1-1.3-.52c-.33-.16-.53-.28-.59-.34Z" style="fill:#486385;stroke:none;stroke-width:.96141499;stroke-linecap:butt"/></g></g></g></g></svg>