<svg xmlns="http://www.w3.org/2000/svg" xml:space="preserve" width="56.69" height="48.18" style="font-size:12px;overflow:visible;color-interpolation-filters:sRGB;fill-rule:evenodd;stroke-linecap:square;stroke-miterlimit:3" viewBox="0 0 56.69 48.18"><g transform="translate(-12.24 -12.244)"><title>Page-1</title><g transform="translate(12.24 -34.016)"><title>Cloud service (classic).12461</title><title>Sheet.12462</title><title>Sheet.12463</title><path d="M49.14 62.9c.22-1.03.33-2.02.33-3 0-7.52-6.12-13.64-13.65-13.64a13.606 13.628-180 0 0-12.25 7.65 9.82 9.836-180 0 0-6.94-2.87c-5.4 0-9.79 4.4-9.79 9.81 0 .73.08 1.47.25 2.23C2.64 64.9 0 68.66 0 73.24c0 6.18 5.04 11.01 11.47 11.01h.73c.12 5.64 4.74 10.19 10.39 10.19a10.361 10.377-180 0 0 9.07-5.31 7.54 7.552-180 0 0 4.94 1.85c3.88 0 7.09-2.94 7.54-6.73h1.09c6.43 0 11.46-4.83 11.46-11.01 0-4.77-2.88-8.69-7.55-10.34" style="fill:#59b4d9;stroke:none;stroke-width:12.23999977;stroke-linecap:butt"/><g transform="translate(13.307 -8.05)"><title>Sheet.12464</title><path d="m31.41 76.1.83-1.98-.24-.21-1.82-1.58.01-1.61 2.05-1.84-.8-1.99-.32.03-2.41.17-1.13-1.14.16-2.76-1.98-.84-.21.24-1.58 1.83-1.6-.01-1.84-2.06-1.99.81.03.32.17 2.41-1.14 1.13-2.75-.15-.84 1.97.24.21 1.83 1.59-.01 1.6-2.06 1.84.81 1.99.32-.02 2.41-.17 1.12 1.14-.15 2.76 1.97.83.21-.24 1.58-1.83 1.61.02 1.83 2.05 1.99-.8-.02-.32-.17-2.42 1.14-1.12zm-9.99-.57a4.39 4.397 0 1 1 3.41-8.1 4.39 4.397 0 0 1-3.41 8.1m-2.57 10.51v-2.15l-.31-.09-2.29-.76-.61-1.48 1.18-2.49-1.52-1.52-.28.14-2.16 1.09-1.48-.61-.92-2.6H8.31l-.1.3-.75 2.3-1.48.61-2.49-1.18-1.51 1.52.14.29 1.09 2.15-.61 1.48-2.6.93v2.15l.3.1 2.3.75.61 1.48-1.18 2.5 1.52 1.52.28-.15 2.16-1.09 1.47.61.93 2.6h2.14l.1-.3.76-2.3 1.47-.61 2.49 1.18 1.52-1.52-.14-.28-1.09-2.16.61-1.48zM9.42 89.4a4.39 4.398 0 1 1 .01-8.79 4.39 4.398 0 0 1-.01 8.79" style="fill:#fff;stroke:none;stroke-width:12.23999977;stroke-linecap:butt"/></g><g transform="translate(19.882 -14.633)"><title>Sheet.12465</title><path d="M19.18 79.18a2.85 2.854 0 1 1-5.25-2.22 2.85 2.854 0 0 1 5.25 2.22M5.7 91.59a2.85 2.854 0 0 1-5.7 0 2.85 2.854 0 0 1 5.7 0" style="fill:#b8d432;stroke:none;stroke-width:12.23999977;stroke-linecap:butt"/></g></g></g></svg>