<svg xmlns="http://www.w3.org/2000/svg" xml:space="preserve" width="56.714" height="39.719" style="font-size:12px;overflow:visible;color-interpolation-filters:sRGB;fill-rule:evenodd;stroke-linecap:square;stroke-miterlimit:3" viewBox="0 0 56.714 39.719"><g transform="translate(-5.666 -3.936)"><title>Page-1</title><g transform="translate(5.67 -34.016)"><title>Cloud Simple Virtual Machine.12414</title><g transform="translate(0 -.029)"><title>path7</title><path d="M31.5 73.93a17.432 18.85 0 0 1-2.04 1.23 22.795 24.65 0 0 1-2.76 1.2 24.94 26.969 0 0 1-3.53.93 25.933 28.042 0 0 1-4.46.38 21.95 23.736 0 0 1-7.26-1.28 17.043 18.429 0 0 1-5.94-3.77 16.493 17.834 0 0 1-4.02-6.16A19.269 20.836 0 0 1 0 58.01a20.234 21.88 0 0 1 1.45-8.53 16.372 17.704 0 0 1 4.02-6.28 17.083 18.472 0 0 1 6.05-3.85 22.795 24.65 0 0 1 7.49-1.31 25.933 28.042 0 0 1 5.77.6 15.058 16.283 0 0 1 3.87 1.45 9.748 10.541 0 0 1 1.08.77 3.755 4.06 0 0 1 1.49 5.08 2.387 2.58 0 0 1-.39.73c-1.34 1.87-4.12.78-5.7 0a14.012 15.152-180 0 0-5.81-1.16 13.57 14.674-180 0 0-4.38.74 9.386 10.15-180 0 0-3.53 2.28 10.057 10.875-180 0 0-2.35 3.81 13.168 14.239-180 0 0-.85 5.42 13.409 14.5-180 0 0 .89 5.61 9.386 10.15-180 0 0 2.5 3.82 10.19 11.02-180 0 0 3.67 2.2 14.75 15.95-180 0 0 4.49.68 13.919 15.05-180 0 0 5.57-1.01 25.061 27.1-180 0 0 2.87-1.54z" style="fill:#83bc41;stroke:none;stroke-width:1.09898996;stroke-linecap:butt"/></g><g transform="translate(23.21)"><title>path9</title><path d="M3 67.24a10.58 11.44-180 0 0 1.73.98 30.948 33.465-180 0 0 3.07 1.23 31.739 34.32-180 0 0 4.19 1.09 29.352 31.74-180 0 0 5.12.45 15.688 16.964-180 0 0 5.87-1.02 3.272 3.538-180 0 0 2.28-3.48 3.352 3.625-180 0 0-1.45-3.18 12.068 13.05-180 0 0-5.19-1.53l-5.36-.68a25.303 27.36 0 0 1-5.05-1.09 13.007 14.065 0 0 1-4.03-2.13 8.796 9.512 0 0 1-2.58-3.34 9.56 10.338 0 0 1-.93-4.74 10.312 11.15 0 0 1 .86-4.52 9.386 10.15 0 0 1 2.68-3.77 13.556 14.659 0 0 1 4.88-2.58 26.71 28.883 0 0 1 7.3-.95 31.109 33.639 0 0 1 11.17 1.72 11.116 12.02 0 0 1 2.3 1.36 3.245 3.509 0 0 1 1.34 4.71c-1.19 2.42-3.71 1.28-3.94 1.15a16.68 18.037-180 0 0-1.82-.87 25.33 27.39-180 0 0-8.92-1.61c-5.36 0-8.05 1.52-8.05 4.56a3.017 3.262-180 0 0 1.52 2.9 10.969 11.86-180 0 0 4.36 1.37l7.04 1a18.773 20.3 0 0 1 8.91 3.42 8.206 8.874 0 0 1 3.18 7.64 9.882 10.686 0 0 1-4.11 8.98c-2.75 2.24-6.7 3.36-11.86 3.36a38.028 41.12 0 0 1-6.82-.61A41.112 44.455 0 0 1 5.4 75.7a26.295 28.434 0 0 1-3.6-1.55A10.955 11.846 0 0 1 0 73.03Z" style="fill:#496487;stroke:none;stroke-width:1.09898996;stroke-linecap:butt"/></g><g transform="translate(23.17 -2.03)"><title>path11</title><path d="m4.77 70.23-.53-.25c-.69.4-1.34.76-2.11 1.09L.94 73.09 0 75.06a8.3 8.975-180 0 0 1.73 1.16 8.823 9.54-180 0 0 3.51 1.45l1.02-.49a17.432 18.85-180 0 0 2.04-1.24l-2.78-5.35Z" style="fill:#83bc41;stroke:none;stroke-width:1.09898996;stroke-linecap:butt"/></g></g></g></svg>