<svg xmlns="http://www.w3.org/2000/svg" xml:space="preserve" width="56.689" height="39.694" style="font-size:12px;overflow:visible;color-interpolation-filters:sRGB;fill-rule:evenodd;stroke-linecap:square;stroke-miterlimit:3" viewBox="0 0 56.689 39.694"><defs><linearGradient id="a" x1="0" x2="44.052" y1="85.4" y2="85.4" gradientTransform="scale(1.20175 .83212)" gradientUnits="userSpaceOnUse"><stop offset="0" stop-color="#0078d4"/><stop offset=".82" stop-color="#5ea0ef"/></linearGradient></defs><g transform="translate(-34 -34.001)"><title>Page-1</title><g transform="translate(34 -34.016)"><title>Cluster Manager (Operator Nexus).12394</title><title>Sheet.12395</title><g transform="translate(3.748 -3.046)"><title>Sheet.12396</title><path d="M52.94 96.23a11.874 11.598-180 0 0-10.33-11.16 14.96 14.613-180 0 0-15.43-14 15.402 15.043-180 0 0-14.77 9.78A14.11 13.782-180 0 0 0 94.2a14.394 14.059-180 0 0 14.9 13.51h26.11a12 11.72-180 0 0 11.93-11.48" style="fill:url(#a);stroke:none;stroke-width:34;stroke-linecap:butt"/></g><title>Sheet.12397</title><path d="M0 96.05a11.843 11.567 0 0 1 11.97-11.69 11.874 11.598 0 0 1 11.97 11.69v11.66H11.97A11.843 11.567 0 0 1 0 96.05" style="fill:#50e6ff;stroke:none;stroke-width:34;stroke-linecap:butt"/><g transform="translate(4.189 -4.092)"><title>Sheet.12398</title><path d="M15.24 100.91v-1.72l-1.79-.62-.44-1.17.88-1.81v-.19l-.57-.55-.66-.74h-.25l-1.76.92-1.2-.33-.79-1.94H6.93l-.6 1.75-1.32.52-2.05-.95-1.23 1.2v.22l.92 1.72-.54 1.29-2.11.77V101h.25l1.86.62.5 1.17-.94 2 1.23 1.23h.25l1.73-.86 1.23.49.76 2.06h1.76v-.25l.6-1.84 1.2-.5 2.07.96 1.23-1.2v-.25l-.88-1.72.35-1.2zm-7.4 1.6a2.488 2.43 0 0 1 0-4.83 2.457 2.4 0 0 1 2.49 2.4 2.457 2.4 0 0 1-2.49 2.43" style="fill:#fff;stroke:none;stroke-width:34;stroke-linecap:butt"/></g></g></g></svg>