<svg xmlns="http://www.w3.org/2000/svg" xmlns:xlink="http://www.w3.org/1999/xlink" xml:space="preserve" width="56.694" height="42.521" style="font-size:12px;overflow:visible;color-interpolation-filters:sRGB;fill-rule:evenodd;stroke-linecap:square;stroke-miterlimit:3" viewBox="0 0 56.694 42.521"><defs><linearGradient id="a" x1="0" x2="1" y1="0" y2="0" gradientTransform="rotate(-92.766 .5 .5)"><stop offset="0" stop-color="#0078d4"/><stop offset=".16" stop-color="#1380da"/><stop offset=".53" stop-color="#3c91e5"/><stop offset=".82" stop-color="#559cec"/><stop offset="1" stop-color="#5ea0ef"/></linearGradient><linearGradient xlink:href="#a" id="b" x1="0" x2="39.05" y1="71.52" y2="71.52" gradientTransform="scale(1.18206 .84598)" gradientUnits="userSpaceOnUse"/><linearGradient xlink:href="#a" id="c" x1="0" x2="39.05" y1="71.52" y2="71.52" gradientTransform="scale(1.18206 .84598)" gradientUnits="userSpaceOnUse"/><linearGradient xlink:href="#a" id="d" x1="0" x2="39.05" y1="71.52" y2="71.52" gradientTransform="scale(1.18206 .84598)" gradientUnits="userSpaceOnUse"/><linearGradient xlink:href="#a" id="e" x1="0" x2="39.05" y1="71.52" y2="71.52" gradientTransform="scale(1.18206 .84598)" gradientUnits="userSpaceOnUse"/><linearGradient xlink:href="#a" id="f" x1="0" x2="39.05" y1="71.52" y2="71.52" gradientTransform="scale(1.18206 .84598)" gradientUnits="userSpaceOnUse"/><linearGradient xlink:href="#a" id="g" x1="0" x2="39.05" y1="71.52" y2="71.52" gradientTransform="scale(1.18206 .84598)" gradientUnits="userSpaceOnUse"/><linearGradient xlink:href="#a" id="h" x1="0" x2="39.05" y1="71.52" y2="71.52" gradientTransform="scale(1.18206 .84598)" gradientUnits="userSpaceOnUse"/><linearGradient xlink:href="#a" id="i" x1="0" x2="39.05" y1="71.52" y2="71.52" gradientTransform="scale(1.18206 .84598)" gradientUnits="userSpaceOnUse"/><linearGradient xlink:href="#a" id="j" x1="0" x2="39.05" y1="71.52" y2="71.52" gradientTransform="scale(1.18206 .84598)" gradientUnits="userSpaceOnUse"/></defs><g transform="translate(-17 -17.003)"><title>Page-1</title><g transform="translate(17 -34.016)"><title>Clusters (Operator Nexus).12329</title><title>Sheet.12330</title><g transform="translate(10.534 -9.486)"><title>Sheet.12331</title><path d="M43.49 76.4a10.507 10.276-180 0 0-6.46-3.38A13.454 13.157-180 0 0 32.82 64a13.178 12.888-180 0 0-9.42-3.49 13.53 13.231-180 0 0-7.94 2.37 13.747 13.444-180 0 0-5.07 6.48 12.487 12.212-180 0 0-7.77 3.94A12.666 12.387-180 0 0 0 77.73h19.03v15.81H35.6a10.608 10.374-180 0 0 7.44-3.08 10.822 10.584-180 0 0 3.12-7.35 10.693 10.457-180 0 0-2.67-6.71" style="fill:url(#b);stroke:none;stroke-width:17;stroke-linecap:butt"/></g><g transform="translate(0 -18.871)"><title>Sheet.12332</title><path d="M29.68 86.07H0v7.47h29.68z" style="fill:#0078d4;stroke:none;stroke-width:17;stroke-linecap:butt"/></g><g transform="translate(2.753 -20.829)"><title>Sheet.12333</title><path d="M1.76 93.54a1.815 1.775-180 1 0 0-3.55 1.815 1.775-180 0 0 0 3.55" style="fill:#50e6ff;stroke:none;stroke-width:17;stroke-linecap:butt"/></g><g transform="translate(0 -9.483)"><title>Sheet.12334</title><path d="M29.68 86.08H0v7.46h29.68z" style="fill:#0078d4;stroke:none;stroke-width:17;stroke-linecap:butt"/></g><g transform="translate(2.7 -11.438)"><title>Sheet.12335</title><path d="M1.81 93.54a1.815 1.775-180 1 0 0-3.55 1.815 1.775-180 0 0 0 3.55" style="fill:#50e6ff;stroke:none;stroke-width:17;stroke-linecap:butt"/></g><title>Sheet.12336</title><path d="M29.68 86.08H0v7.46h29.68z" style="fill:#0078d4;stroke:none;stroke-width:17;stroke-linecap:butt"/><g transform="translate(2.7 -1.957)"><title>Sheet.12337</title><path d="M1.81 93.54a1.815 1.775-180 1 0 0-3.55 1.815 1.775-180 0 0 0 3.55" style="fill:#50e6ff;stroke:none;stroke-width:17;stroke-linecap:butt"/></g><g transform="translate(10.534 -9.486)"><title>Sheet.12338</title><path d="M43.49 76.4a10.507 10.276-180 0 0-6.46-3.38A13.454 13.157-180 0 0 32.82 64a13.178 12.888-180 0 0-9.42-3.49 13.53 13.231-180 0 0-7.94 2.37 13.747 13.444-180 0 0-5.07 6.48 12.487 12.212-180 0 0-7.77 3.94A12.666 12.387-180 0 0 0 77.73h19.03v15.81H35.6a10.608 10.374-180 0 0 7.44-3.08 10.822 10.584-180 0 0 3.12-7.35 10.693 10.457-180 0 0-2.67-6.71" style="fill:url(#c);stroke:none;stroke-width:17;stroke-linecap:butt"/></g><g transform="translate(0 -18.871)"><title>Sheet.12339</title><path d="M29.68 86.07H0v7.47h29.68z" style="fill:#0078d4;stroke:none;stroke-width:17;stroke-linecap:butt"/></g><g transform="translate(2.753 -20.829)"><title>Sheet.12340</title><path d="M1.76 93.54a1.815 1.775-180 1 0 0-3.55 1.815 1.775-180 0 0 0 3.55" style="fill:#50e6ff;stroke:none;stroke-width:17;stroke-linecap:butt"/></g><g transform="translate(0 -9.483)"><title>Sheet.12341</title><path d="M29.68 86.08H0v7.46h29.68z" style="fill:#0078d4;stroke:none;stroke-width:17;stroke-linecap:butt"/></g><g transform="translate(2.7 -11.438)"><title>Sheet.12342</title><path d="M1.81 93.54a1.815 1.775-180 1 0 0-3.55 1.815 1.775-180 0 0 0 3.55" style="fill:#50e6ff;stroke:none;stroke-width:17;stroke-linecap:butt"/></g><title>Sheet.12343</title><path d="M29.68 86.08H0v7.46h29.68z" style="fill:#0078d4;stroke:none;stroke-width:17;stroke-linecap:butt"/><g transform="translate(2.7 -1.957)"><title>Sheet.12344</title><path d="M1.81 93.54a1.815 1.775-180 1 0 0-3.55 1.815 1.775-180 0 0 0 3.55" style="fill:#50e6ff;stroke:none;stroke-width:17;stroke-linecap:butt"/></g><g transform="translate(10.534 -9.486)"><title>Sheet.12345</title><path d="M43.49 76.4a10.507 10.276-180 0 0-6.46-3.38A13.454 13.157-180 0 0 32.82 64a13.178 12.888-180 0 0-9.42-3.49 13.53 13.231-180 0 0-7.94 2.37 13.747 13.444-180 0 0-5.07 6.48 12.487 12.212-180 0 0-7.77 3.94A12.666 12.387-180 0 0 0 77.73h19.03v15.81H35.6a10.608 10.374-180 0 0 7.44-3.08 10.822 10.584-180 0 0 3.12-7.35 10.693 10.457-180 0 0-2.67-6.71" style="fill:url(#d);stroke:none;stroke-width:17;stroke-linecap:butt"/></g><g transform="translate(0 -18.871)"><title>Sheet.12346</title><path d="M29.68 86.07H0v7.47h29.68z" style="fill:#0078d4;stroke:none;stroke-width:17;stroke-linecap:butt"/></g><g transform="translate(2.753 -20.829)"><title>Sheet.12347</title><path d="M1.76 93.54a1.815 1.775-180 1 0 0-3.55 1.815 1.775-180 0 0 0 3.55" style="fill:#50e6ff;stroke:none;stroke-width:17;stroke-linecap:butt"/></g><g transform="translate(0 -9.483)"><title>Sheet.12348</title><path d="M29.68 86.08H0v7.46h29.68z" style="fill:#0078d4;stroke:none;stroke-width:17;stroke-linecap:butt"/></g><g transform="translate(2.7 -11.438)"><title>Sheet.12349</title><path d="M1.81 93.54a1.815 1.775-180 1 0 0-3.55 1.815 1.775-180 0 0 0 3.55" style="fill:#50e6ff;stroke:none;stroke-width:17;stroke-linecap:butt"/></g><title>Sheet.12350</title><path d="M29.68 86.08H0v7.46h29.68z" style="fill:#0078d4;stroke:none;stroke-width:17;stroke-linecap:butt"/><g transform="translate(2.7 -1.957)"><title>Sheet.12351</title><path d="M1.81 93.54a1.815 1.775-180 1 0 0-3.55 1.815 1.775-180 0 0 0 3.55" style="fill:#50e6ff;stroke:none;stroke-width:17;stroke-linecap:butt"/></g><g transform="translate(10.534 -9.486)"><title>Sheet.12352</title><path d="M43.49 76.4a10.507 10.276-180 0 0-6.46-3.38A13.454 13.157-180 0 0 32.82 64a13.178 12.888-180 0 0-9.42-3.49 13.53 13.231-180 0 0-7.94 2.37 13.747 13.444-180 0 0-5.07 6.48 12.487 12.212-180 0 0-7.77 3.94A12.666 12.387-180 0 0 0 77.73h19.03v15.81H35.6a10.608 10.374-180 0 0 7.44-3.08 10.822 10.584-180 0 0 3.12-7.35 10.693 10.457-180 0 0-2.67-6.71" style="fill:url(#e);stroke:none;stroke-width:17;stroke-linecap:butt"/></g><g transform="translate(0 -18.871)"><title>Sheet.12353</title><path d="M29.68 86.07H0v7.47h29.68z" style="fill:#0078d4;stroke:none;stroke-width:17;stroke-linecap:butt"/></g><g transform="translate(2.753 -20.829)"><title>Sheet.12354</title><path d="M1.76 93.54a1.815 1.775-180 1 0 0-3.55 1.815 1.775-180 0 0 0 3.55" style="fill:#50e6ff;stroke:none;stroke-width:17;stroke-linecap:butt"/></g><g transform="translate(0 -9.483)"><title>Sheet.12355</title><path d="M29.68 86.08H0v7.46h29.68z" style="fill:#0078d4;stroke:none;stroke-width:17;stroke-linecap:butt"/></g><g transform="translate(2.7 -11.438)"><title>Sheet.12356</title><path d="M1.81 93.54a1.815 1.775-180 1 0 0-3.55 1.815 1.775-180 0 0 0 3.55" style="fill:#50e6ff;stroke:none;stroke-width:17;stroke-linecap:butt"/></g><title>Sheet.12357</title><path d="M29.68 86.08H0v7.46h29.68z" style="fill:#0078d4;stroke:none;stroke-width:17;stroke-linecap:butt"/><g transform="translate(2.7 -1.957)"><title>Sheet.12358</title><path d="M1.81 93.54a1.815 1.775-180 1 0 0-3.55 1.815 1.775-180 0 0 0 3.55" style="fill:#50e6ff;stroke:none;stroke-width:17;stroke-linecap:butt"/></g><g transform="translate(10.534 -9.486)"><title>Sheet.12359</title><path d="M43.49 76.4a10.507 10.276-180 0 0-6.46-3.38A13.454 13.157-180 0 0 32.82 64a13.178 12.888-180 0 0-9.42-3.49 13.53 13.231-180 0 0-7.94 2.37 13.747 13.444-180 0 0-5.07 6.48 12.487 12.212-180 0 0-7.77 3.94A12.666 12.387-180 0 0 0 77.73h19.03v15.81H35.6a10.608 10.374-180 0 0 7.44-3.08 10.822 10.584-180 0 0 3.12-7.35 10.693 10.457-180 0 0-2.67-6.71" style="fill:url(#f);stroke:none;stroke-width:17;stroke-linecap:butt"/></g><g transform="translate(0 -18.871)"><title>Sheet.12360</title><path d="M29.68 86.07H0v7.47h29.68z" style="fill:#0078d4;stroke:none;stroke-width:17;stroke-linecap:butt"/></g><g transform="translate(2.753 -20.829)"><title>Sheet.12361</title><path d="M1.76 93.54a1.815 1.775-180 1 0 0-3.55 1.815 1.775-180 0 0 0 3.55" style="fill:#50e6ff;stroke:none;stroke-width:17;stroke-linecap:butt"/></g><g transform="translate(0 -9.483)"><title>Sheet.12362</title><path d="M29.68 86.08H0v7.46h29.68z" style="fill:#0078d4;stroke:none;stroke-width:17;stroke-linecap:butt"/></g><g transform="translate(2.7 -11.438)"><title>Sheet.12363</title><path d="M1.81 93.54a1.815 1.775-180 1 0 0-3.55 1.815 1.775-180 0 0 0 3.55" style="fill:#50e6ff;stroke:none;stroke-width:17;stroke-linecap:butt"/></g><title>Sheet.12364</title><path d="M29.68 86.08H0v7.46h29.68z" style="fill:#0078d4;stroke:none;stroke-width:17;stroke-linecap:butt"/><g transform="translate(2.7 -1.957)"><title>Sheet.12365</title><path d="M1.81 93.54a1.815 1.775-180 1 0 0-3.55 1.815 1.775-180 0 0 0 3.55" style="fill:#50e6ff;stroke:none;stroke-width:17;stroke-linecap:butt"/></g><g transform="translate(10.534 -9.486)"><title>Sheet.12366</title><path d="M43.49 76.4a10.507 10.276-180 0 0-6.46-3.38A13.454 13.157-180 0 0 32.82 64a13.178 12.888-180 0 0-9.42-3.49 13.53 13.231-180 0 0-7.94 2.37 13.747 13.444-180 0 0-5.07 6.48 12.487 12.212-180 0 0-7.77 3.94A12.666 12.387-180 0 0 0 77.73h19.03v15.81H35.6a10.608 10.374-180 0 0 7.44-3.08 10.822 10.584-180 0 0 3.12-7.35 10.693 10.457-180 0 0-2.67-6.71" style="fill:url(#g);stroke:none;stroke-width:17;stroke-linecap:butt"/></g><g transform="translate(0 -18.871)"><title>Sheet.12367</title><path d="M29.68 86.07H0v7.47h29.68z" style="fill:#0078d4;stroke:none;stroke-width:17;stroke-linecap:butt"/></g><g transform="translate(2.753 -20.829)"><title>Sheet.12368</title><path d="M1.76 93.54a1.815 1.775-180 1 0 0-3.55 1.815 1.775-180 0 0 0 3.55" style="fill:#50e6ff;stroke:none;stroke-width:17;stroke-linecap:butt"/></g><g transform="translate(0 -9.483)"><title>Sheet.12369</title><path d="M29.68 86.08H0v7.46h29.68z" style="fill:#0078d4;stroke:none;stroke-width:17;stroke-linecap:butt"/></g><g transform="translate(2.7 -11.438)"><title>Sheet.12370</title><path d="M1.81 93.54a1.815 1.775-180 1 0 0-3.55 1.815 1.775-180 0 0 0 3.55" style="fill:#50e6ff;stroke:none;stroke-width:17;stroke-linecap:butt"/></g><title>Sheet.12371</title><path d="M29.68 86.08H0v7.46h29.68z" style="fill:#0078d4;stroke:none;stroke-width:17;stroke-linecap:butt"/><g transform="translate(2.7 -1.957)"><title>Sheet.12372</title><path d="M1.81 93.54a1.815 1.775-180 1 0 0-3.55 1.815 1.775-180 0 0 0 3.55" style="fill:#50e6ff;stroke:none;stroke-width:17;stroke-linecap:butt"/></g><g transform="translate(10.534 -9.486)"><title>Sheet.12373</title><path d="M43.49 76.4a10.507 10.276-180 0 0-6.46-3.38A13.454 13.157-180 0 0 32.82 64a13.178 12.888-180 0 0-9.42-3.49 13.53 13.231-180 0 0-7.94 2.37 13.747 13.444-180 0 0-5.07 6.48 12.487 12.212-180 0 0-7.77 3.94A12.666 12.387-180 0 0 0 77.73h19.03v15.81H35.6a10.608 10.374-180 0 0 7.44-3.08 10.822 10.584-180 0 0 3.12-7.35 10.693 10.457-180 0 0-2.67-6.71" style="fill:url(#h);stroke:none;stroke-width:17;stroke-linecap:butt"/></g><g transform="translate(0 -18.871)"><title>Sheet.12374</title><path d="M29.68 86.07H0v7.47h29.68z" style="fill:#0078d4;stroke:none;stroke-width:17;stroke-linecap:butt"/></g><g transform="translate(2.753 -20.829)"><title>Sheet.12375</title><path d="M1.76 93.54a1.815 1.775-180 1 0 0-3.55 1.815 1.775-180 0 0 0 3.55" style="fill:#50e6ff;stroke:none;stroke-width:17;stroke-linecap:butt"/></g><g transform="translate(0 -9.483)"><title>Sheet.12376</title><path d="M29.68 86.08H0v7.46h29.68z" style="fill:#0078d4;stroke:none;stroke-width:17;stroke-linecap:butt"/></g><g transform="translate(2.7 -11.438)"><title>Sheet.12377</title><path d="M1.81 93.54a1.815 1.775-180 1 0 0-3.55 1.815 1.775-180 0 0 0 3.55" style="fill:#50e6ff;stroke:none;stroke-width:17;stroke-linecap:butt"/></g><title>Sheet.12378</title><path d="M29.68 86.08H0v7.46h29.68z" style="fill:#0078d4;stroke:none;stroke-width:17;stroke-linecap:butt"/><g transform="translate(2.7 -1.957)"><title>Sheet.12379</title><path d="M1.81 93.54a1.815 1.775-180 1 0 0-3.55 1.815 1.775-180 0 0 0 3.55" style="fill:#50e6ff;stroke:none;stroke-width:17;stroke-linecap:butt"/></g><g transform="translate(10.534 -9.486)"><title>Sheet.12380</title><path d="M43.49 76.4a10.507 10.276-180 0 0-6.46-3.38A13.454 13.157-180 0 0 32.82 64a13.178 12.888-180 0 0-9.42-3.49 13.53 13.231-180 0 0-7.94 2.37 13.747 13.444-180 0 0-5.07 6.48 12.487 12.212-180 0 0-7.77 3.94A12.666 12.387-180 0 0 0 77.73h19.03v15.81H35.6a10.608 10.374-180 0 0 7.44-3.08 10.822 10.584-180 0 0 3.12-7.35 10.693 10.457-180 0 0-2.67-6.71" style="fill:url(#i);stroke:none;stroke-width:17;stroke-linecap:butt"/></g><g transform="translate(0 -18.871)"><title>Sheet.12381</title><path d="M29.68 86.07H0v7.47h29.68z" style="fill:#0078d4;stroke:none;stroke-width:17;stroke-linecap:butt"/></g><g transform="translate(2.753 -20.829)"><title>Sheet.12382</title><path d="M1.76 93.54a1.815 1.775-180 1 0 0-3.55 1.815 1.775-180 0 0 0 3.55" style="fill:#50e6ff;stroke:none;stroke-width:17;stroke-linecap:butt"/></g><g transform="translate(0 -9.483)"><title>Sheet.12383</title><path d="M29.68 86.08H0v7.46h29.68z" style="fill:#0078d4;stroke:none;stroke-width:17;stroke-linecap:butt"/></g><g transform="translate(2.7 -11.438)"><title>Sheet.12384</title><path d="M1.81 93.54a1.815 1.775-180 1 0 0-3.55 1.815 1.775-180 0 0 0 3.55" style="fill:#50e6ff;stroke:none;stroke-width:17;stroke-linecap:butt"/></g><title>Sheet.12385</title><path d="M29.68 86.08H0v7.46h29.68z" style="fill:#0078d4;stroke:none;stroke-width:17;stroke-linecap:butt"/><g transform="translate(2.7 -1.957)"><title>Sheet.12386</title><path d="M1.81 93.54a1.815 1.775-180 1 0 0-3.55 1.815 1.775-180 0 0 0 3.55" style="fill:#50e6ff;stroke:none;stroke-width:17;stroke-linecap:butt"/></g><g transform="translate(10.534 -9.486)"><title>Sheet.12387</title><path d="M43.49 76.4a10.507 10.276-180 0 0-6.46-3.38A13.454 13.157-180 0 0 32.82 64a13.178 12.888-180 0 0-9.42-3.49 13.53 13.231-180 0 0-7.94 2.37 13.747 13.444-180 0 0-5.07 6.48 12.487 12.212-180 0 0-7.77 3.94A12.666 12.387-180 0 0 0 77.73h19.03v15.81H35.6a10.608 10.374-180 0 0 7.44-3.08 10.822 10.584-180 0 0 3.12-7.35 10.693 10.457-180 0 0-2.67-6.71" style="fill:url(#j);stroke:none;stroke-width:17;stroke-linecap:butt"/></g><g transform="translate(0 -18.871)"><title>Sheet.12388</title><path d="M29.68 86.07H0v7.47h29.68z" style="fill:#50e6ff;stroke:none;stroke-width:17;stroke-linecap:butt"/></g><g transform="translate(2.753 -20.829)"><title>Sheet.12389</title><path d="M1.76 93.54a1.815 1.775-180 1 0 0-3.55 1.815 1.775-180 0 0 0 3.55" style="fill:#fff;stroke:none;stroke-width:17;stroke-linecap:butt"/></g><g transform="translate(0 -9.483)"><title>Sheet.12390</title><path d="M29.68 86.08H0v7.46h29.68z" style="fill:#50e6ff;stroke:none;stroke-width:17;stroke-linecap:butt"/></g><g transform="translate(2.7 -11.438)"><title>Sheet.12391</title><path d="M1.81 93.54a1.815 1.775-180 1 0 0-3.55 1.815 1.775-180 0 0 0 3.55" style="fill:#fff;stroke:none;stroke-width:17;stroke-linecap:butt"/></g><title>Sheet.12392</title><path d="M29.68 86.08H0v7.46h29.68z" style="fill:#50e6ff;stroke:none;stroke-width:17;stroke-linecap:butt"/><g transform="translate(2.7 -1.957)"><title>Sheet.12393</title><path d="M1.81 93.54a1.815 1.775-180 1 0 0-3.55 1.815 1.775-180 0 0 0 3.55" style="fill:#fff;stroke:none;stroke-width:17;stroke-linecap:butt"/></g></g></g></svg>