<svg xmlns="http://www.w3.org/2000/svg" xml:space="preserve" width="56.693" height="56.689" style="font-size:12px;overflow:visible;color-interpolation-filters:sRGB;fill-rule:evenodd;stroke-linecap:square;stroke-miterlimit:3" viewBox="0 0 56.693 56.689"><g transform="translate(-19.125 -19.125)"><title>Page-1</title><g transform="translate(19.127 -34.016)"><title>Compute and App.12315</title><title> Dashboard_computeapps-pathfind</title><g transform="translate(8.38 -11.808)"><title>path6</title><path d="M20.07 109.1v-.05c0-3.2.97-6.17 2.62-8.65l-.04.06H9.96c1.59 5.61-.54 6.4-9.96 6.4v2.97h20.07z" style="fill:#7c7b7b;stroke:none;stroke-width:19.125;stroke-linecap:butt"/></g><g transform="translate(0 -21.18)"><title>path8</title><path d="M44.2 102.73a15.606 15.58 0 0 1 4.63.7l-.12-.03V77.16a3.018 3.013-180 0 0-2.94-2.84H2.65A2.762 2.758-180 0 0 0 77.17v-.01 29.96a2.733 2.73-180 0 0 2.64 2.71H31.1c2.84-4.28 7.65-7.07 13.1-7.1" style="fill:#9fa0a2;stroke:none;stroke-width:19.125;stroke-linecap:butt"/></g><g transform="translate(0 -21.18)"><title>path10</title><path d="M45.77 74.32H2.65A2.762 2.758-180 0 0 0 77.17v-.01 29.96a2.733 2.73-180 0 0 2.64 2.71h1.03L45.8 74.32Z" style="fill:#fff;fill-opacity:.2;stroke:none;stroke-width:19.125;stroke-linecap:butt"/></g><g transform="translate(3.7 -24.903)"><title>path12</title><path d="M40.51 106.45h.71V81.79H0v28.04h30.77a15.547 15.522 0 0 1 9.73-3.38z" style="fill:#5bb4da;stroke:none;stroke-width:19.125;stroke-linecap:butt"/></g><g transform="translate(3.7 -24.889)"><title>path14</title><path d="M0 109.83h.04V81.78l37.69-.06L0 81.78Z" style="fill:#5bb4da;stroke:none;stroke-width:19.125;stroke-linecap:butt"/></g><g transform="translate(23.461 -53.966)"><title>path16</title><path d="M1.39 109.14v.01a.683.682 0 0 1-.683.682.711.71 0 1 1 0-1.42.68.68 0 0 1 .683.688Z" style="fill:#b8d433;stroke:none;stroke-width:19.125;stroke-linecap:butt"/></g><g transform="translate(16.091 -39.773)"><title>path18</title><path d="M8.79 109.83h-.13l-8.53-4.94a.31.31 0 0 1-.128-.225L0 104.66c0-.09.05-.18.13-.23l8.53-4.91a.27.27 0 0 1 .258.002l.002-.002 8.54 4.94c.07.06.12.14.13.23a.27.27 0 0 1-.126.227l-.004.003-8.54 4.91h-.14Z" style="fill:#fff;stroke:none;stroke-width:19.125;stroke-linecap:butt"/></g><g transform="translate(14.868 -27.745)"><title>path20</title><path d="M8.79 109.82c-.02.01-.04.01-.06.01s-.05 0-.07-.01l-8.53-4.91a.31.31 0 0 1-.128-.225L0 94.74c0-.1.05-.18.13-.23.04-.03.08-.04.13-.04s.1.01.14.04l8.53 4.93a.269.268 0 0 1 .128.227l.002 9.943a.274.273 0 0 1-.126.213l-.004-.003a.242.241 0 0 1-.13 0h.01Z" style="fill:#fff;fill-opacity:.7;stroke:none;stroke-width:19.125;stroke-linecap:butt"/></g><g transform="translate(25.823 -27.758)"><title>path22</title><path d="M.26 109.83H.11a.25.25 0 0 1-.114-.213L0 99.73c0-.08.04-.16.11-.21h.01l8.53-4.93a.3.3 0 0 1 .272.002l-.002-.002c.07.06.12.14.13.23v9.83a.315.314 0 0 1-.128.227L.39 109.79a.242.241 0 0 1-.13 0Z" style="fill:#fff;fill-opacity:.4;stroke:none;stroke-width:19.125;stroke-linecap:butt"/></g><g transform="translate(32.381)"><title>path24</title><path d="M19.36 107.12a12.718 12.697 0 0 1-7.89 2.71A12.805 12.784 0 1 1 21.66 89.3l.02.03a12.634 12.614 0 0 1 2.63 7.73 12.702 12.681 0 0 1-4.92 10.04z" style="fill:#5bb4da;stroke:none;stroke-width:19.125;stroke-linecap:butt"/></g><g transform="translate(33.15 -2.976)"><title>path26</title><path d="M16.25 102.28a2.844 2.84-180 0 0 3.86.51h-.01l.16-.17 2.58 1.79c.11-.28.22-.64.32-1.02l.02-.07a68.299 68.19 0 0 1-2.19-1.72 2.717 2.713-180 0 0-3.93-3.32h.01a154.75 154.503 0 0 1-4.27-4 14.827 14.803 0 0 1 8.13-2.15h-.01c-.58-.71-1.21-1.34-1.9-1.9l-.02-.02a13.523 13.502-180 0 0-8.61 1.62l.07-.03a112.708 112.528 0 0 1-3.57-3.93c-.67.22-1.23.45-1.77.72l.07-.03a27.786 27.742-180 0 0 3.47 4.36h-.01a23.98 23.942-180 0 0-3.53 3.04l-.01.01-.43.49a3.655 3.649-180 0 0-2.13.15l.03-.01a9.173 9.159 0 0 1-.98-4.14q0-.735.12-1.44l-.01.05c-.51.5-.98 1.04-1.4 1.62l-.02.04a8.02 8.008-180 0 0-.21 1.82c0 1.2.26 2.35.73 3.37l-.03-.05c-.48.64-.78 1.46-.78 2.34s.3 1.69.79 2.35l-.01-.01c.09.11.19.21.29.32a18.256 18.227-180 0 0-.74 4.42v.04c.11.16.11.3.24.46.63.76 1.33 1.43 2.09 2.02l.03.02a13.879 13.857 0 0 1 .9-5.89l-.03.1a3.829 3.823-180 0 0 1.8-.29h-.02l1.04.87c1.08.87 2.3 1.65 3.59 2.31l.12.05a2.605 2.601-180 0 0 .5 1.81v-.01a2.541 2.537-180 0 0 3.56.47h-.01a2.97 2.965-180 0 0 .57-.61v-.01c1.47.33 3.15.52 4.87.52h.13c.65-.55 1.2-1.17 1.67-1.87l.02-.03a12.942 12.921 0 0 1-2.26.19 13.312 13.29 0 0 1-4.11-.64l.1.02a2.39 2.386-180 0 0-.46-1.01 2.532 2.528-180 0 0-3.38-.57l.01-.01c-1.31-.71-2.44-1.47-3.48-2.32l.04.03c-.24-.18-.49-.36-.7-.56a3.9 3.9 0 0 0 .15-3.86l.01.02c.14-.16.3-.3.44-.44A26.533 26.49 0 0 1 11 95.47l.09-.05-.13-.2c.03.04.07.08.11.11 1.6 1.42 3.29 2.84 4.88 4.11a2.725 2.72-180 0 0 .3 2.84" style="fill:#fff;stroke:none;stroke-width:19.125;stroke-linecap:butt"/></g><g transform="translate(8.437 -11.806)"><title>path28</title><path d="M20.02 109.1a16.433 16.407 0 0 1 .18-2.3l-.01.09H0v2.94h20.02z" style="fill:#9fa0a2;stroke:none;stroke-width:19.125;stroke-linecap:butt"/></g></g></g></svg>