<svg xmlns="http://www.w3.org/2000/svg" xml:space="preserve" width="56.689" height="56.673" style="font-size:12px;overflow:visible;color-interpolation-filters:sRGB;fill-rule:evenodd;stroke-linecap:square;stroke-miterlimit:3" viewBox="0 0 56.689 56.673"><defs><linearGradient id="a" x1="0" x2="32.894" y1="82.818" y2="82.818" gradientTransform="scale(.92814 1.07742)" gradientUnits="userSpaceOnUse"><stop offset="0" stop-color="#005ea5"/><stop offset=".535" stop-color="#0078d4"/><stop offset="1" stop-color="#005ba1"/></linearGradient><linearGradient id="b" x1="0" x2="32.775" y1="79.342" y2="79.342" gradientTransform="scale(.89917 1.11214)" gradientUnits="userSpaceOnUse"><stop offset="0" stop-color="#a67af4"/><stop offset="1" stop-color="#773adc"/></linearGradient></defs><g transform="translate(-34 -34.001)"><title>Page-1</title><g transform="translate(34 -34.016)"><title>Container Registry Cache.12262</title><title>Sheet.12263</title><g transform="translate(0 -15.652)"><title>Sheet.12264</title><path d="M15.28 94.87C6.88 94.85.07 92.32.08 89.23L0 119.02c0 3.09 6.69 5.58 15.01 5.65h.21c8.41.02 15.23-2.47 15.24-5.57l.07-29.79c-.01 3.09-6.84 5.58-15.25 5.56" style="fill:url(#a);stroke:none;stroke-width:34;stroke-linecap:butt"/></g><g transform="translate(.067 -45.453)"><title>Sheet.12265</title><path d="M30.46 119.11c0 3.09-6.83 5.58-15.23 5.56-8.41-.02-15.23-2.54-15.22-5.64.01-3.09 6.83-5.58 15.24-5.56 8.4.02 15.22 2.54 15.21 5.64" style="fill:#e8e8e8"/><path d="M30.46 119.11c0 3.09-6.83 5.58-15.23 5.56-8.41-.02-15.23-2.54-15.22-5.64.01-3.09 6.83-5.58 15.24-5.56 8.4.02 15.22 2.54 15.21 5.64" style="stroke:none;stroke-width:34;stroke-linecap:butt"/></g><g transform="translate(3.628 -47.941)"><title>Sheet.12266</title><path d="M23.34 121.14c0 1.96-5.23 3.55-11.67 3.53C5.24 124.65 0 123.05 0 121.08s5.24-3.55 11.67-3.54c6.44.02 11.67 1.63 11.67 3.6" style="fill:#50e6ff;stroke:none;stroke-width:34;stroke-linecap:butt"/></g><g transform="translate(6.05 -47.961)"><title>Sheet.12267</title><path d="M9.25 121.94A28.156 28.43-180 0 0 0 123.27a27.193 27.458-180 0 0 9.24 1.42 27.12 27.383-180 0 0 9.25-1.35 28.123 28.397-180 0 0-9.24-1.4" style="fill:#198ab3;stroke:none;stroke-width:34;stroke-linecap:butt"/></g><g transform="translate(27.443 -.276)"><title>Sheet.12268</title><path d="M16.58 88.79H1.2A1.2 1.212-180 0 0 0 90v33.46a1.204 1.216-180 0 0 1.19 1.23h26.63a1.204 1.216-180 0 0 1.21-1.22v-22.13a1.204 1.216-180 0 0-1.21-1.21h-8.83a1.214 1.226 0 0 1-1.21-1.23v-8.88a1.217 1.23-180 0 0-1.2-1.23" style="fill:#fff;stroke:none;stroke-width:34;stroke-linecap:butt"/></g><g transform="translate(27.22)"><title>Sheet.12269</title><path d="M16.8 88.24H1.23A1.234 1.246-180 0 0 0 89.49v33.95a1.234 1.246-180 0 0 1.23 1.25h27.01a1.234 1.246-180 0 0 1.23-1.25v-22.47a1.234 1.246-180 0 0-1.23-1.24h-8.96a1.23 1.243 0 0 1-1.23-1.25v-8.99a1.234 1.246-180 0 0-1.25-1.25" style="fill:url(#b);stroke:none;stroke-width:34;stroke-linecap:butt"/></g><g transform="translate(44.837 -24.713)"><title>Sheet.12270</title><path d="M11.39 124.69 0 113.24v9.33a2.094 2.115-180 0 0 2.08 2.12z" style="fill:#773adc;stroke:none;stroke-width:34;stroke-linecap:butt"/></g><g transform="translate(13.776 -19.544)"><title>Sheet.12271</title><path d="m24.93 117.36-7.14 7.19a.333.337 0 0 1-.49.064.364.367 0 0 1-.134-.317l.004-4.197C8.58 120.1 0 115.48 0 107.11a22.564 22.784-180 0 0 17.17 6.81v-4.02a.377.38 0 0 1 .38-.374.367.37 0 0 1 .244.098l7.136 7.206a.427.431 0 0 1 0 .529z" style="fill:#fff;stroke:none;stroke-width:34;stroke-linecap:butt"/></g><g transform="translate(41.773 -6.576)"><title>Sheet.12272</title><path d="M7.68 111.13v9.02L0 124.69v-9.04z" style="fill:#50e6ff;stroke:none;stroke-width:34;stroke-linecap:butt"/></g><g transform="translate(34.093 -15.594)"><title>Sheet.12273</title><path d="m15.36 120.15-7.68 4.54L0 120.15l7.68-4.55Z" style="fill:#c3f1ff;stroke:none;stroke-width:34;stroke-linecap:butt"/></g><g transform="translate(34.093 -6.576)"><title>Sheet.12274</title><path d="M7.68 115.67v9.02L0 120.15v-9.02z" style="fill:#9cebff;stroke:none;stroke-width:34;stroke-linecap:butt"/></g></g></g></svg>