<svg xmlns="http://www.w3.org/2000/svg" xml:space="preserve" width="56.682" height="37.115" style="font-size:12px;overflow:visible;color-interpolation-filters:sRGB;fill-rule:evenodd;stroke-linecap:square;stroke-miterlimit:3" viewBox="0 0 56.682 37.115"><g transform="translate(-12.76 -12.73)"><title>Page-1</title><g transform="translate(12.75 -34.016)"><title>Container Registry Repository.12225</title><title>Sheet.12226</title><g transform="translate(.012 -.11)"><title>Sheet.12227</title><path d="M56.68 77.07a6.62 6.87-180 0 0-6.58-6.89 5.933 6.155-180 0 0-.81 0 18.023 18.7-180 0 0 .63-4.92 17.56 18.22-180 0 0-34.25-5.85 11.782 12.224-180 0 0-3.92-.7 12.126 12.581-180 0 0 0 25.15h38.88a6.62 6.87-180 0 0 6.05-6.79" style="fill:#59b4d9;stroke:none;stroke-width:12.75;stroke-linecap:butt"/></g><title>Sheet.12228</title><path d="M18.13 83.86a12.126 12.581 0 0 1 5.72-21.19 11.77 12.212 0 0 1 3.97-.22 17.656 18.318 0 0 1 9.85-14.77 17.513 18.17-180 0 0-22 11.68 11.782 12.224-180 0 0-3.92-.7 12.126 12.581-180 0 0 0 25.15h6.38z" style="fill:#fff;fill-opacity:.2;stroke:none;stroke-width:12.75;stroke-linecap:butt"/><g transform="translate(7.748 -3.742)"><title>Sheet.12229</title><path d="M0 82.63a1.187 1.231-180 0 0 1.19 1.23h4.74a1.187 1.231-180 0 0 1.19-1.23V77.7a1.187 1.231-180 0 0-1.19-1.23H1.19A1.187 1.231-180 0 0 0 77.7Z" style="fill:#fff;fill-opacity:.8;stroke:none;stroke-width:12.75;stroke-linecap:butt"/></g><g transform="translate(17.24 -3.742)"><title>Sheet.12230</title><path d="M0 82.63a1.187 1.231-180 0 0 1.19 1.23h4.74a1.187 1.231-180 0 0 1.19-1.23V77.7a1.187 1.231-180 0 0-1.19-1.23H1.19A1.187 1.231-180 0 0 0 77.7Z" style="fill:#fff;fill-opacity:.8;stroke:none;stroke-width:12.75;stroke-linecap:butt"/></g><g transform="translate(26.733 -3.742)"><title>Sheet.12231</title><path d="M0 82.63a1.187 1.231-180 0 0 1.19 1.23h4.74a1.187 1.231-180 0 0 1.19-1.23V77.7a1.187 1.231-180 0 0-1.19-1.23H1.19A1.187 1.231-180 0 0 0 77.7Z" style="fill:#fff;fill-opacity:.8;stroke:none;stroke-width:12.75;stroke-linecap:butt"/></g><g transform="translate(36.225 -3.742)"><title>Sheet.12232</title><path d="M0 82.63a1.187 1.231-180 0 0 1.19 1.23h4.74a1.187 1.231-180 0 0 1.19-1.23V77.7a1.187 1.231-180 0 0-1.19-1.23H1.19A1.187 1.231-180 0 0 0 77.7Z" style="fill:#fff;fill-opacity:.8;stroke:none;stroke-width:12.75;stroke-linecap:butt"/></g><g transform="translate(17.24 -13.59)"><title>Sheet.12233</title><path d="M0 82.63a1.187 1.231-180 0 0 1.19 1.23h4.74a1.187 1.231-180 0 0 1.19-1.23V77.7a1.187 1.231-180 0 0-1.19-1.23H1.19A1.187 1.231-180 0 0 0 77.7Z" style="fill:#fff;fill-opacity:.6;stroke:none;stroke-width:12.75;stroke-linecap:butt"/></g><g transform="translate(26.733 -13.59)"><title>Sheet.12234</title><path d="M0 82.63a1.187 1.231-180 0 0 1.19 1.23h4.74a1.187 1.231-180 0 0 1.19-1.23V77.7a1.187 1.231-180 0 0-1.19-1.23H1.19A1.187 1.231-180 0 0 0 77.7Z" style="fill:#fff;fill-opacity:.6;stroke:none;stroke-width:12.75;stroke-linecap:butt"/></g><g transform="translate(36.225 -13.59)"><title>Sheet.12235</title><path d="M0 82.63a1.187 1.231-180 0 0 1.19 1.23h4.74a1.187 1.231-180 0 0 1.19-1.23V77.7a1.187 1.231-180 0 0-1.19-1.23H1.19A1.187 1.231-180 0 0 0 77.7Z" style="fill:#fff;fill-opacity:.6;stroke:none;stroke-width:12.75;stroke-linecap:butt"/></g><g transform="translate(26.733 -23.44)"><title>Sheet.12236</title><path d="M0 82.63a1.187 1.231-180 0 0 1.19 1.23h4.74a1.187 1.231-180 0 0 1.19-1.23V77.7a1.187 1.231-180 0 0-1.19-1.23H1.19A1.187 1.231-180 0 0 0 77.7Z" style="fill:#fff;fill-opacity:.5;stroke:none;stroke-width:12.75;stroke-linecap:butt"/></g></g></g></svg>