<svg xmlns="http://www.w3.org/2000/svg" xml:space="preserve" width="56.694" height="56.694" style="font-size:12px;overflow:visible;color-interpolation-filters:sRGB;fill-rule:evenodd;stroke-linecap:square;stroke-miterlimit:3" viewBox="0 0 56.694 56.694"><g transform="translate(-12.24 -12.24)"><title>Page-1</title><g transform="translate(12.24 -34.016)"><title>Container Registry Task.12185</title><title>Sheet.12186</title><g transform="translate(2.656 -11.586)"><title>Sheet.12187</title><path d="m0 78.19 4.65 24.76-.7-19.36 21.76-6.73-2.03-6.06Z" style="fill:#0072c6;stroke:none;stroke-width:12.23999977;stroke-linecap:butt"/></g><g transform="translate(2.67 -33.553)"><title>Sheet.12188</title><path d="M1.15 102.95a1.169 1.16 0 0 1-.34-2.27l21.05-6.37a1.17 1.16 0 0 1 .68 2.22L1.49 102.9a1.155 1.145 0 0 1-.34.05" style="fill:#59b4d9;stroke:none;stroke-width:12.23999977;stroke-linecap:butt"/></g><g transform="translate(1.167 -30.11)"><title>Sheet.12189</title><ellipse cx="3.703" cy="99.276" rx="3.703" ry="3.672" style="fill:#0072c6;stroke:none;stroke-width:12.23999977;stroke-linecap:butt"/></g><g transform="translate(0 -28.953)"><title>Sheet.12190</title><path d="M4.87 94.45a3.703 3.672 0 1 1 0 7.34 3.703 3.672 0 0 1 0-7.34m0-1.16C2.19 93.29 0 95.46 0 98.12s2.18 4.83 4.87 4.83 4.87-2.17 4.87-4.83-2.18-4.83-4.87-4.83" style="fill:#59b4d9;stroke:none;stroke-width:12.23999977;stroke-linecap:butt"/></g><g transform="rotate(-82.877 -14.183 83.467)"><title>Sheet.12191</title><ellipse cx="2.369" cy="100.599" rx="2.369" ry="2.35" style="fill:#59b4d9;stroke:none;stroke-width:12.23999977;stroke-linecap:butt"/></g><g transform="translate(28.323 -11.586)"><title>Sheet.12192</title><path d="m25.71 78.19-4.65 24.76.7-19.36L0 76.86l2.03-6.06Z" style="fill:#0072c6;stroke:none;stroke-width:12.23999977;stroke-linecap:butt"/></g><g transform="translate(30.744 -33.553)"><title>Sheet.12193</title><path d="M22.13 102.95a1.169 1.16-180 0 0 .33-2.27L1.42 94.31a1.17 1.16-180 0 0-.68 2.22l21.04 6.37c.12.03.23.05.35.05" style="fill:#59b4d9;stroke:none;stroke-width:12.23999977;stroke-linecap:butt"/></g><g transform="translate(48.12 -30.11)"><title>Sheet.12194</title><ellipse cx="3.703" cy="99.276" rx="3.703" ry="3.672" style="fill:#0072c6;stroke:none;stroke-width:12.23999977;stroke-linecap:butt"/></g><g transform="translate(46.954 -28.953)"><title>Sheet.12195</title><path d="M4.87 94.45a3.703 3.672 0 1 1 0 7.34 3.703 3.672 0 0 1 0-7.34m0-1.16C2.19 93.29 0 95.46 0 98.12s2.18 4.83 4.87 4.83 4.87-2.17 4.87-4.83-2.19-4.83-4.87-4.83" style="fill:#59b4d9;stroke:none;stroke-width:12.23999977;stroke-linecap:butt"/></g><g transform="rotate(-7.115 -225.684 -312.853)"><title>Sheet.12196</title><ellipse cx="2.369" cy="100.599" rx="2.369" ry="2.35" style="fill:#59b4d9;stroke:none;stroke-width:12.23999977;stroke-linecap:butt"/></g><g transform="translate(24.912 -43.529)"><title>Sheet.12197</title><path d="M0 89.784h6.811v13.164H0z" style="fill:#0072c6;stroke:none;stroke-width:12.23999977;stroke-linecap:butt"/></g><g transform="translate(28.323 -42.91)"><title>Sheet.12198</title><path d="M0 89.165h2.341v13.783H0z" style="fill:#59b4d9;stroke:none;stroke-width:12.23999977;stroke-linecap:butt"/></g><g transform="translate(7.434)"><title>Sheet.12199</title><path d="M0 75.181h41.888v27.768H0z" style="fill:#a0a1a2;stroke:none;stroke-width:12.23999977;stroke-linecap:butt"/></g><g transform="translate(9.656 -3.471)"><title>Sheet.12200</title><path d="M0 82.9h2.33v20.05H0Zm14-.53h2.33v19.42H14Zm-7-.25h2.33v20.05H7Zm14 0h2.33v20.44H21Zm7 0h2.33v20.83H28Zm7 0h2.33v20.83H35Z" style="fill:#7a7a7a;fill-opacity:.5;stroke:none;stroke-width:12.23999977;stroke-linecap:butt"/></g><g transform="translate(9.723 -2.314)"><title>Sheet.12201</title><path d="M0 79.81h37.27v2.31H0Zm0 20.82h37.27v2.32H0Z" style="fill:#7a7a7a;stroke:none;stroke-width:12.23999977;stroke-linecap:butt"/></g><g transform="translate(7.323)"><title>Sheet.12202</title><path d="M42 77.98 0 102.95h42z" style="fill:#fff;fill-opacity:.15;stroke:none;stroke-width:12.23999977;stroke-linecap:butt"/></g><g transform="translate(19.924 -33.782)"><title>Sheet.12203</title><ellipse cx="8.077" cy="94.939" rx="8.077" ry="8.01" style="fill:#fff;stroke:none;stroke-width:12.23999977;stroke-linecap:butt"/></g><g transform="translate(19.834 -33.693)"><title>Sheet.12204</title><ellipse cx="8.166" cy="94.85" rx="8.166" ry="8.099" style="fill:#57a300;stroke:none;stroke-width:12.23999977;stroke-linecap:butt"/></g><g transform="translate(21.813 -35.6)"><title>Sheet.12205</title><path d="M0 101.36v.04h.03zm6.26-6.17a1.566 1.553-180 1 0 0 3.1 1.566 1.553-180 0 0 0-3.1m-4.93 5.33c.33.42.7.79 1.12 1.11l1.54-1.19c.38.23.79.41 1.24.51l.24 1.92c.26.03.52.08.79.08s.53-.05.79-.08l.24-1.92a4.389 4.353-180 0 0 1.24-.51l1.55 1.19c.41-.32.79-.69 1.11-1.11L9.99 99c.23-.38.41-.8.52-1.24l1.93-.24c.03-.26.08-.51.08-.78s-.05-.52-.08-.78l-1.93-.24a4.303 4.267-180 0 0-.52-1.24l1.2-1.53a6.294 6.242-180 0 0-1.11-1.1l-1.55 1.19a4.31 4.274-180 0 0-1.24-.51l-.24-1.92c-.26-.03-.52-.08-.79-.08s-.53.05-.79.08l-.24 1.92a4.324 4.288-180 0 0-1.24.51l-1.54-1.19a6.294 6.242-180 0 0-1.12 1.1l1.2 1.53c-.23.38-.41.79-.52 1.24l-1.93.24c-.03.26-.08.51-.08.78s.05.52.08.78l1.93.24c.11.44.29.86.52 1.24Zm4.93-.68a3.131 3.105 0 1 1 0-6.21 3.131 3.105 0 0 1 0 6.21" style="fill:#fff"/><path d="M0 101.36v.04h.03zm6.26-6.17a1.566 1.553-180 1 0 0 3.1 1.566 1.553-180 0 0 0-3.1m-4.93 5.33c.33.42.7.79 1.12 1.11l1.54-1.19c.38.23.79.41 1.24.51l.24 1.92c.26.03.52.08.79.08s.53-.05.79-.08l.24-1.92a4.389 4.353-180 0 0 1.24-.51l1.55 1.19c.41-.32.79-.69 1.11-1.11L9.99 99c.23-.38.41-.8.52-1.24l1.93-.24c.03-.26.08-.51.08-.78s-.05-.52-.08-.78l-1.93-.24a4.303 4.267-180 0 0-.52-1.24l1.2-1.53a6.294 6.242-180 0 0-1.11-1.1l-1.55 1.19a4.31 4.274-180 0 0-1.24-.51l-.24-1.92c-.26-.03-.52-.08-.79-.08s-.53.05-.79.08l-.24 1.92a4.324 4.288-180 0 0-1.24.51l-1.54-1.19a6.294 6.242-180 0 0-1.12 1.1l1.2 1.53c-.23.38-.41.79-.52 1.24l-1.93.24c-.03.26-.08.51-.08.78s.05.52.08.78l1.93.24c.11.44.29.86.52 1.24m3.73.84a3.131 3.105 0 1 1 0-6.21 3.131 3.105 0 0 1 0 6.21" style="stroke:none;stroke-width:12.23999977;stroke-linecap:butt"/></g></g></g></svg>