<svg xmlns="http://www.w3.org/2000/svg" xml:space="preserve" width="56.623" height="45.357" style="font-size:12px;overflow:visible;color-interpolation-filters:sRGB;fill-rule:evenodd;stroke-linecap:square;stroke-miterlimit:3" viewBox="0 0 56.623 45.357"><g transform="translate(-38.139 -38.246)"><title>Page-1</title><g transform="translate(38.25 -38.25)"><title>Container Registry Scope Map.12206</title><title>Sheet.12207</title><g transform="translate(21.43 -13.955)"><title>Sheet.12208</title><path d="M16.09 121.85a3.76 3.72 0 0 1-2.81-1.24L0 105.84l2-2.82 13.87 15.29c.1.07.22.1.34.1h13.81l.07 3.44z" style="fill:#a0a1a2;stroke:none;stroke-width:38.25;stroke-linecap:butt"/></g><g transform="translate(10.85 -7.675)"><title>Sheet.12209</title><path d="M0 94.64h38.79v3.49H0Zm10.58 6.28v20.93H7.05v-20.93z" style="fill:#a0a1a2;stroke:none;stroke-width:38.25;stroke-linecap:butt"/></g><g transform="translate(14.377)"><title>Sheet.12210</title><path d="M5.29 121.85a5.29 5.233-180 0 0 0-10.46 5.29 5.233-180 1 0 0 10.46m31.74-27.91a5.29 5.233-180 0 0 0-10.46 5.29 5.233-180 1 0 0 10.46" style="fill:#ff8c00;stroke:none;stroke-width:38.25;stroke-linecap:butt"/></g><g transform="translate(9.817 -17.576)"><title>Sheet.12211</title><path d="M14.03 121.85a14.038 13.889-180 0 0 .02-27.77 14.038 13.889-180 1 0-.02 27.77" style="fill:#dd5900;stroke:none;stroke-width:38.25;stroke-linecap:butt"/></g><g transform="translate(8.273 -17.576)"><title>Sheet.12212</title><path d="M14.04 121.85a14.038 13.889-180 0 0 0-27.77 14.038 13.889-180 1 0 0 27.77" style="fill:#ff8c00;stroke:none;stroke-width:38.25;stroke-linecap:butt"/></g><g transform="translate(11.894 -21.142)"><title>Sheet.12213</title><path d="M10.42 121.85a10.417 10.306-180 0 0 0-20.61 10.417 10.306-180 1 0 0 20.61" style="fill:#fff;stroke:none;stroke-width:38.25;stroke-linecap:butt"/></g><g transform="translate(1.805 -17.576)"><title>Sheet.12214</title><path d="M14.03 121.85a14.038 13.889-180 0 0 .02-27.77 14.038 13.889-180 1 0-.02 27.77" style="fill:#dd5900;stroke:none;stroke-width:38.25;stroke-linecap:butt"/></g><g transform="translate(.268 -17.576)"><title>Sheet.12215</title><path d="M14.04 121.85a14.038 13.889-180 0 0 0-27.77 14.038 13.889-180 1 0 0 27.77" style="fill:#ff8c00;stroke:none;stroke-width:38.25;stroke-linecap:butt"/></g><g transform="translate(4.081 -21.142)"><title>Sheet.12216</title><path d="M10.23 121.85a10.417 10.306-180 1 0 0-20.6 10.417 10.306-180 0 0 0 20.6" style="fill:#fff;stroke:none;stroke-width:38.25;stroke-linecap:butt"/></g><g transform="translate(7.469 -24.034)"><title>Sheet.12217</title><path d="m13.17 110.07-2.23-1.24-4.36 2.57-4.35-2.57L0 110.07v2.5l4.33 2.58v5.46l2.26 1.24 2.23-1.24v-5.46l4.32-2.57z" style="fill:#57a300;stroke:none;stroke-width:38.25;stroke-linecap:butt"/></g><g transform="translate(0 -17.584)"><title>Sheet.12218</title><path d="M14.03 94.08a14.035 13.885-180 1 0 0 27.77z" style="fill:#fff;fill-opacity:.3;stroke:none;stroke-width:38.25;stroke-linecap:butt"/></g><g transform="translate(46.114 -10.466)"><title>Sheet.12219</title><path d="M5.29 121.85a5.29 5.233-180 0 0 0-10.46 5.29 5.233-180 1 0 0 10.46" style="fill:#ff8c00;stroke:none;stroke-width:38.25;stroke-linecap:butt"/></g></g></g></svg>