<svg xmlns="http://www.w3.org/2000/svg" xml:space="preserve" width="56.698" height="39.69" style="font-size:12px;overflow:visible;color-interpolation-filters:sRGB;fill-rule:evenodd;stroke-linecap:square;stroke-miterlimit:3" viewBox="0 0 56.698 39.69"><g transform="translate(-5.648 -3.964)"><title>Page-1</title><g transform="translate(5.67 -34.016)"><title>Container Registry Token.12174</title><title>layer1</title><g transform="translate(14.376)"><title>path4</title><path d="M21.14 77.67a21.161 19.845-180 1 0 0-39.69 21.161 19.845-180 0 0 0 39.69" style="fill:#dd5900;stroke:none;stroke-width:2.29056001;stroke-linecap:butt"/></g><g transform="translate(12.062)"><title>path6</title><path d="M21.14 77.67a21.161 19.845-180 1 0 0-39.69 21.161 19.845-180 0 0 0 39.69" style="fill:#ff8c00;stroke:none;stroke-width:2.29056001;stroke-linecap:butt"/></g><g transform="translate(17.516 -5.12)"><title>path8</title><path d="M15.69 77.67a15.702 14.725-180 1 0 0-29.45 15.702 14.725-180 0 0 0 29.45" style="fill:#fff;stroke:none;stroke-width:2.29056001;stroke-linecap:butt"/></g><g transform="translate(22.962 -10.24)"><title>path10</title><path d="m20.48 67.79-7.53 1.24 5.29 6.05-3.9 2.59-4.09-6.87-4.06 6.87-3.93-2.59 5.3-6.05L0 67.79l1.57-4.23 7.06 2.72-.88-7.82h5.01l-.89 7.82 7.07-2.71z" style="fill:#57a300;stroke:none;stroke-width:2.29056001;stroke-linecap:butt"/></g><g transform="translate(2.314)"><title>path12</title><path d="M21.14 77.67a21.161 19.845-180 1 0 0-39.69 21.161 19.845-180 0 0 0 39.69" style="fill:#dd5900;stroke:none;stroke-width:2.29056001;stroke-linecap:butt"/></g><title>path14</title><path d="M21.14 77.67a21.161 19.845-180 1 0 0-39.69 21.161 19.845-180 0 0 0 39.69" style="fill:#ff8c00;stroke:none;stroke-width:2.29056001;stroke-linecap:butt"/><g transform="translate(.208 -5.12)"><title>path16</title><path d="M20.93 77.67c20.93 0 20.93-29.45 0-29.45S0 77.67 20.93 77.67" style="fill:#fff;stroke:none;stroke-width:2.29056001;stroke-linecap:butt"/></g><g transform="translate(10.828 -9.226)"><title>path18</title><path d="m19.85 60.83-3.36-1.77-6.57 3.68-6.56-3.68L0 60.83v3.58l6.53 3.68v7.8l3.43 1.78 3.36-1.78v-7.8l6.51-3.68z" style="fill:#57a300;stroke:none;stroke-width:2.29056001;stroke-linecap:butt"/></g><g transform="translate(.201 -.01)"><title>path20</title><path d="M20.61 38a21.159 19.843-180 0 0 0 39.67z" style="fill:#fff;fill-opacity:.3;stroke:none;stroke-width:2.29056001;stroke-linecap:butt"/></g></g></g></svg>