<svg xmlns="http://www.w3.org/2000/svg" xml:space="preserve" width="53.86" height="56.705" style="font-size:12px;overflow:visible;color-interpolation-filters:sRGB;fill-rule:evenodd;stroke-linecap:square;stroke-miterlimit:3" viewBox="0 0 53.86 56.705"><defs><linearGradient id="a" x1="0" x2="45.015" y1="102.267" y2="102.267" gradientTransform="scale(1.1965 .83577)" gradientUnits="userSpaceOnUse"><stop offset="0" stop-color="#0078d4"/><stop offset=".16" stop-color="#1380da"/><stop offset=".53" stop-color="#3c91e5"/><stop offset=".82" stop-color="#559cec"/><stop offset="1" stop-color="#5ea0ef"/></linearGradient></defs><g transform="translate(-32.383 -32.384)"><title>Page-1</title><g transform="translate(32.383 -34.016)"><title>Container Instance.12292</title><g transform="translate(0 -19.072)"><title>path17</title><path d="M53.86 111.31a12.054 11.892-180 0 0-10.49-11.45 15.21 15.007-180 0 0-15.69-14.38 15.657 15.447-180 0 0-14.92 10.03A14.445 14.252-180 0 0 0 109.2a14.636 14.44-180 0 0 15.15 13.87h25.83a2.04 2.014-180 0 0 .63 0 12.245 12.081-180 0 0 12.25-11.76" style="fill:url(#a);stroke:none;stroke-width:32.38270187;stroke-linecap:butt"/></g><g transform="translate(18.452 -24.634)"><title>path19</title><path d="m.11 111.36 8.22-8.11a.989.975 0 0 1 1.403 0L18 111.4a.446.44 0 0 1-.319.755l-5.071-.005a.415.409-180 0 0-.446.409l-.004 10.191a.35.346 0 0 1-.35.346l-5.55.004a.35.346 0 0 1-.35-.346V112.69a.415.409-180 0 0-.287-.566L.39 112.12a.446.44 0 0 1-.287-.755z" style="fill:#f2f2f2;stroke:none;stroke-width:32.38270187;stroke-linecap:butt"/></g><g transform="translate(27.073 -.063)"><title>path21</title><path d="M15.69 102.24a.446.44-180 0 0-.287-.409L.41 96.83H0v26.27h.41l15.02-5.92a.415.409-180 0 0 .255-.409z" style="fill:#a67af4;stroke:none;stroke-width:32.38270187;stroke-linecap:butt"/></g><g transform="translate(12.213)"><title>path23</title><path d="M14.76 96.86.38 99.47a.446.44-180 0 0-.383.409L0 119.51a.446.44-180 0 0 .35.44l14.41 3.15a.446.44-180 0 0 .51-.44V97.49a.446.44-180 0 0-.51-.63" style="fill:#552f99;stroke:none;stroke-width:32.38270187;stroke-linecap:butt"/></g><g transform="translate(20.312 -3.272)"><title>polygon25</title><path d="m5.01 103.18-5.01.85v18.28l5.01.79z" style="fill:#b77af4;fill-opacity:.75;stroke:none;stroke-width:32.38270187;stroke-linecap:butt"/></g><g transform="translate(14.158 -4.467)"><title>polygon27</title><path d="m4.37 105.51-4.37.73v15.98l4.37.88z" style="fill:#b77af4;fill-opacity:.75;stroke:none;stroke-width:32.38270187;stroke-linecap:butt"/></g></g></g></svg>