<svg xmlns="http://www.w3.org/2000/svg" xml:space="preserve" width="53.159" height="49.288" style="font-size:12px;overflow:visible;color-interpolation-filters:sRGB;fill-rule:evenodd;stroke-linecap:square;stroke-miterlimit:3" viewBox="0 0 53.159 49.288"><g transform="translate(-12.24 -12.244)"><title>Page-1</title><g transform="translate(10.482 -34.016)"><title>Container Registry Webhook.12170</title><title>Sheet.12171</title><title>Sheet.12172</title><path d="m37.73 84.61-10.89-.03c-.47 3.53-2.54 7.14-5.82 9.14-5.85 3.56-13.62 1.76-17.32-4.01a12.1 12.1 0 0 1 3.89-16.92 12.235 11.923 0 0 1 5.46-1.76L12 74.23a9.444 9.203-180 0 0-2.82 1.15 9.458 9.216-180 0 0-3.01 12.7c2.77 4.31 8.73 5.81 13.04 2.93 4.4-2.95 4.5-9.79 4.5-9.79h14.02Zm-8.87-38.35c-6.98 0-12.66 5.46-12.66 12.18 0 3.77 2.25 7.53 5.07 9.78l-6.53 10.7a4.588 4.47 0 0 1 2.8 1.67l8.34-13.43-.29-.18c-3.55-1.33-6.07-4.67-6.07-8.6a9.458 9.216 0 1 1 18.91 0c0 1.03-.18 2.02-.5 2.94l2.24 2.56a12.233 11.92-180 0 0 1.35-5.44c0-6.72-5.68-12.18-12.66-12.18m20.01 25.71c-3.32-1.93-7.79-1.98-11.22-.77l-5.07-9.93a4.586 4.469 0 0 1-3.34 1.44c.14 0 .27 0 .41-.01l6.57 12.9.31-.15c2.99-2.29 7.23-2.69 10.69-.68a9.457 9.215 0 0 1 3.27 12.64 9.457 9.215 0 0 1-12.97 3.19 9.283 9.045 0 0 1-1.93-1.53l-3.39.73a12.166 11.855-180 0 0 3.69 3.36c5.92 3.44 13.64 1.49 17.22-4.35s1.68-13.4-4.24-16.84" style="fill:#57a300;stroke:none;stroke-width:12.23999977;stroke-linecap:butt"/><g transform="translate(9.505 -9.755)"><title>Sheet.12173</title><path d="M37.05 92.53a4.615 4.497 0 1 1-9.23 0 4.615 4.497 0 1 1 9.23 0M4.62 88.28a4.618 4.5-180 1 0 0 9 4.618 4.5-180 0 0 0-9m14.96-24.6a4.618 4.5-180 1 0 0 9 4.618 4.5-180 0 0 0-9" style="fill:#0072c6;stroke:none;stroke-width:12.23999977;stroke-linecap:butt"/></g></g></g></svg>