<svg xmlns="http://www.w3.org/2000/svg" xml:space="preserve" width="56.69" height="56.69" style="font-size:12px;overflow:visible;color-interpolation-filters:sRGB;fill-rule:evenodd;stroke-linecap:square;stroke-miterlimit:3" viewBox="0 0 56.69 56.69"><g transform="translate(-12.24 -12.244)"><title>Page-1</title><g transform="translate(12.24 -34.016)"><title>Container.12139</title><title>Sheet.12140</title><title>Sheet.12141</title><path d="M.94 46.26c-.56 0-.94.37-.94.94v11.34c0 .57.38.94.94.94h5.67c.57 0 .95-.37.95-.94v-4.72h41.57v4.72c0 .57.38.94 1.14.94h5.48c.56 0 .94-.37.94-.94V47.2c0-.57-.37-.94-.94-.94zm54.81 56.69c.57 0 .94-.38.94-.95V90.85c0-.56-.37-.94-.94-.94h-5.48c-.57 0-.95.38-.95.94v4.54H7.56v-4.72c0-.57-.38-.95-1.13-.95H.94c-.56 0-.94.38-.94 1.13V102c0 .57.38.95.94.95z" style="fill:#59b4d9;stroke:none;stroke-width:12.23999977;stroke-linecap:butt"/><g transform="translate(8.504 -14.603)"><title>Sheet.12142</title><path d="M28.05 84.33 18.62 88V72.82l9.43 3.3zm-17.88-8.94v9.92l6.98 2.7V72.94Zm.73 9.19-.37-.13v-8.2l.37-.13.37-.12.37-.12v8.94l-.37-.12Zm1.84.49-.49-.13v-9.18l.49-.13.49-.12.49-.12v10.04l-.49-.12zm2.2.73-.61-.24V75.14l.61-.12.62-.24.73-.25v11.64l-.73-.25zm24.75 13.6-9.31 3.55V87.88l9.31 3.31zM21.8 90.33v9.92l6.98 2.7V87.88Zm.74 9.19-.37-.12v-8.21l.37-.12.37-.13.36-.12v8.94l-.36-.12zm1.83.61-.49-.12v-9.19l.49-.12.49-.12.49-.13v10.05l-.49-.12zm2.21.74-.61-.25V90.21l.61-.12.61-.25.74-.24v11.63l-.74-.24zm-8.7-1.47-9.31 3.55V87.88l9.31 3.31zM0 90.33v9.92l6.98 2.7V87.88Zm.73 9.19-.36-.12v-8.21l.36-.12.37-.13.37-.12v8.94l-.37-.12Zm1.84.61-.49-.12v-9.19l.49-.12.49-.12.49-.13v10.05l-.49-.12zm2.21.74-.62-.25V90.21l.62-.12.61-.25.73-.24v11.63l-.73-.24z" style="fill:#804998;stroke:none;stroke-width:12.23999977;stroke-linecap:butt"/></g><g transform="translate(17.078 -14.604)"><title>Sheet.12143</title><path d="m19.48 84.33-9.44 3.68V72.82l9.44 3.3zM31.11 99.4l-9.31 3.55V87.88l9.31 3.31zm-21.8 0L0 102.95V87.88l9.31 3.31z" style="fill:#fff;fill-opacity:.2;stroke:none;stroke-width:12.23999977;stroke-linecap:butt"/></g></g></g></svg>