<svg xmlns="http://www.w3.org/2000/svg" xml:space="preserve" width="56.694" height="48.203" style="font-size:12px;overflow:visible;color-interpolation-filters:sRGB;fill-rule:evenodd;stroke-linecap:square;stroke-miterlimit:3" viewBox="0 0 56.694 48.203"><defs><linearGradient id="a" x1="0" x2="46.264" y1="88.229" y2="88.229" gradientTransform="scale(1.1832 .84517)" gradientUnits="userSpaceOnUse"><stop offset="0" stop-color="#0078d4"/><stop offset=".16" stop-color="#1380da"/><stop offset=".53" stop-color="#3c91e5"/><stop offset=".82" stop-color="#559cec"/><stop offset="1" stop-color="#5ea0ef"/></linearGradient><linearGradient id="b" x1="0" x2="15.613" y1="215.154" y2="215.154" gradientTransform="scale(2.03033 .49253)" gradientUnits="userSpaceOnUse"><stop offset="0" stop-color="#333132"/><stop offset="1" stop-color="#5b5a5c"/></linearGradient></defs><g transform="translate(-31.438 -31.441)"><title>Page-1</title><g transform="translate(31.438 -34.016)"><title>Container Registry.12151</title><g transform="translate(0 -9.11)"><title>path22</title><path d="M51.12 93.05a13.204 13.301-180 0 0-7-3.55 15.473 15.587-180 0 0-16.07-14.92 15.977 16.095-180 0 0-15.26 10.44A14.56 14.666-180 0 0 0 99.24a14.906 15.015-180 0 0 15.41 14.42h26.98a12.605 12.698-180 0 0 12.35-12.1 11.566 11.65-180 0 0-3.59-8.35z" style="fill:url(#a)"/><path d="M51.12 93.05a13.204 13.301-180 0 0-7-3.55 15.473 15.587-180 0 0-16.07-14.92 15.977 16.095-180 0 0-15.26 10.44A14.56 14.666-180 0 0 0 99.24a14.906 15.015-180 0 0 15.41 14.42h26.98a12.605 12.698-180 0 0 12.35-12.1 11.566 11.65-180 0 0-3.59-8.35" style="stroke:none;stroke-width:31.4382;stroke-linecap:butt"/></g><g transform="translate(31.734 -14.666)"><title>polygon24</title><path d="M24.96 104.2 0 94.74l.03 13.58 24.93 5.34z" style="fill:#767676;stroke:none;stroke-width:31.4382;stroke-linecap:butt"/></g><g transform="translate(24.99 -16.825)"><title>polyline26</title><path d="M6.74 96.89 0 101.02v12.64l6.78-3.18z" style="fill:#999"/><path d="M6.74 96.89 0 101.02v12.64l6.78-3.18" style="stroke:none;stroke-width:31.4382;stroke-linecap:butt"/></g><g transform="translate(43.11 -19.174)"><title>polygon28</title><path d="M0 105.46v7.56l2.27.64v-7.4z" style="fill:#a3a3a3;stroke:none;stroke-width:31.4382;stroke-linecap:butt"/></g><g transform="translate(38.573 -20.38)"><title>polygon30</title><path d="M2.27 113.66v-7.72L0 105.12v7.9z" style="fill:#a3a3a3;stroke:none;stroke-width:31.4382;stroke-linecap:butt"/></g><g transform="translate(47.648 -17.968)"><title>polygon32</title><path d="M0 105.85v7.2l2.21.61.06-7.05z" style="fill:#a3a3a3;stroke:none;stroke-width:31.4382;stroke-linecap:butt"/></g><g transform="translate(34.066 -21.618)"><title>polygon34</title><path d="M0 104.86v8.22l2.27.58v-8.04z" style="fill:#a3a3a3;stroke:none;stroke-width:31.4382;stroke-linecap:butt"/></g><g transform="translate(52.155 -16.73)"><title>polygon36</title><path d="M2.27 113.66v-6.73l-2.27-.8v6.89z" style="fill:#a3a3a3;stroke:none;stroke-width:31.4382;stroke-linecap:butt"/></g><g transform="translate(26.156 -19.555)"><title>a8719886-8ecb-4bb1-abaf-d5d3808</title><path d="m1.13 112.99-1.13.67v-8.99l1.13-.6zm2.24-10.22-1.16.76v8.73l1.16-.64z" style="fill:#b3b3b3;stroke:none;stroke-width:31.4382;stroke-linecap:butt"/></g><g transform="translate(24.99 -12.317)"><title>polygon39</title><path d="m6.78 105.97 24.92 5.34-6.8 2.35L0 109.15Z" style="fill:url(#b);stroke:none;stroke-width:31.4382;stroke-linecap:butt"/></g><g transform="translate(31.64 -.19)"><title>polygon41</title><path d="M25.05 100.58v8.28L0 113.66l.13-17.75Z" style="fill:#767676;stroke:none;stroke-width:31.4382;stroke-linecap:butt"/></g><g transform="translate(34.066 -3.111)"><title>polygon43</title><path d="m2.27 113.27-2.27.39v-11.27l2.27.28z" style="fill:#a3a3a3;stroke:none;stroke-width:31.4382;stroke-linecap:butt"/></g><g transform="translate(38.573 -3.841)"><title>polygon45</title><path d="M2.27 104.04v9.2l-2.27.42v-9.97z" style="fill:#a3a3a3;stroke:none;stroke-width:31.4382;stroke-linecap:butt"/></g><g transform="translate(43.11 -4.603)"><title>polygon47</title><path d="m2.27 113.24-2.27.42v-8.64l2.27.29z" style="fill:#a3a3a3;stroke:none;stroke-width:31.4382;stroke-linecap:butt"/></g><g transform="translate(47.648 -5.397)"><title>polygon49</title><path d="M2.24 106.73v6.51l-2.24.42v-7.27z" style="fill:#a3a3a3;stroke:none;stroke-width:31.4382;stroke-linecap:butt"/></g><g transform="translate(52.155 -6.127)"><title>polygon51</title><path d="m2.17 107.97.16 5.27-2.33.42v-5.97z" style="fill:#a3a3a3;stroke:none;stroke-width:31.4382;stroke-linecap:butt"/></g><g transform="translate(24.99)"><title>b8a4c988-6241-4bdc-bddf-c20634c</title><path d="M0 109.4V99.05l6.81-3.17v17.78z" style="fill:#999;stroke:none;stroke-width:31.4382;stroke-linecap:butt"/></g><g transform="translate(26.125 -2.984)"><title>b623bcd9-1396-4807-80b7-64d0fc8</title><path d="m1.01 112.35-1.01-.5v-8.77l1.01-.47zm2.42-10.95-1.19.6v11.05l1.16.61V101.4Z" style="fill:#b3b3b3;stroke:none;stroke-width:31.4382;stroke-linecap:butt"/></g></g></g></svg>