<svg xmlns="http://www.w3.org/2000/svg" xml:space="preserve" width="56.688" height="51.072" style="font-size:12px;overflow:visible;color-interpolation-filters:sRGB;fill-rule:evenodd;stroke-linecap:square;stroke-miterlimit:3" viewBox="0 0 56.688 51.072"><defs><linearGradient id="a" x1="0" x2="46.656" y1="95.876" y2="95.876" gradientTransform="scale(1.19705 .83539)" gradientUnits="userSpaceOnUse"><stop offset="0" stop-color="#0078d4"/><stop offset=".155" stop-color="#1380da"/><stop offset=".53" stop-color="#3c91e5"/><stop offset=".82" stop-color="#559cec"/><stop offset="1" stop-color="#5ea0ef"/></linearGradient><linearGradient id="b" x1="0" x2="5.2" y1="119.06" y2="119.06" gradientTransform="scale(0)" gradientUnits="userSpaceOnUse"><stop offset="0" stop-color="#0078d4"/><stop offset=".155" stop-color="#1380da"/><stop offset=".53" stop-color="#3c91e5"/><stop offset=".82" stop-color="#559cec"/><stop offset="1" stop-color="#5ea0ef"/></linearGradient></defs><g transform="translate(-34 -33.995)"><title>Page-1</title><g transform="translate(34 -34.033)"><title>Container Registry Connected Registry.12251</title><title>Sheet.12252</title><g transform="translate(0 -12.066)"><title>Sheet.12253</title><path d="m16.24 119.04 6.91-6.8a1.812 1.784 0 0 1 3.09 1.27v4.13h9.54a1.589 1.565 0 0 1 .32.07 1.518 1.495 0 0 1 .32-.07h9.52v-4.13a1.815 1.787 0 0 1 1.82-1.79 1.802 1.775 0 0 1 1.29.53l3.06 3.02a12.643 12.45-180 0 0 3.74-8.4 12.536 12.346-180 0 0-10.91-11.86A15.823 15.583-180 0 0 28.67 80.1a16.217 15.971-180 0 0-15.5 10.41A14.958 14.73-180 0 0 0 104.71a15.194 14.963-180 0 0 15.72 14.35c.18 0 .36-.01.52-.02" style="fill:url(#a);stroke:none;stroke-width:34;stroke-linecap:butt"/></g><g transform="translate(37.414 -12.142)"><title>Sheet.12254</title><path d="M5.2 119.06H0h5.14Z" style="fill:url(#b);stroke:none;stroke-width:34;stroke-linecap:butt"/></g><g transform="translate(12.258 -16.985)"><title>Sheet.12255</title><path d="M0 118.39a.681.671-180 0 0 .681.671l6.749-.001a.681.671-180 0 0 .681-.671l.009-6.649a.681.671-180 0 0-.681-.671l-6.759.001a.681.671-180 0 0-.681.671z" style="fill:#9cebff;stroke:none;stroke-width:34;stroke-linecap:butt"/></g><g transform="translate(35.338 -16.985)"><title>Sheet.12256</title><path d="M0 118.39a.681.671-180 0 0 .681.671l6.749-.001a.681.671-180 0 0 .681-.671l.009-6.649a.681.671-180 0 0-.681-.671l-6.759.001a.681.671-180 0 0-.681.671z" style="fill:#9cebff;stroke:none;stroke-width:34;stroke-linecap:butt"/></g><g transform="translate(23.8 -28.434)"><title>Sheet.12257</title><path d="M0 118.39a.681.671-180 0 0 .681.671l6.749-.001a.681.671-180 0 0 .681-.671l.009-6.649a.681.671-180 0 0-.681-.671l-6.759.001a.681.671-180 0 0-.681.671z" style="fill:#fff;fill-opacity:.8;stroke:none;stroke-width:34;stroke-linecap:butt"/></g><g transform="translate(12.258 -28.434)"><title>Sheet.12258</title><path d="M0 118.39a.681.671-180 0 0 .681.671l6.749-.001a.681.671-180 0 0 .681-.671l.009-6.649a.681.671-180 0 0-.681-.671l-6.759.001a.681.671-180 0 0-.681.671z" style="fill:#fff;fill-opacity:.8;stroke:none;stroke-width:34;stroke-linecap:butt"/></g><g transform="translate(36.068 -.003)"><title>Sheet.12259</title><path d="m11.98 101.13 8.35 8.22a.998.983 0 0 1 0 1.387l-8.35 8.233a.446.439 0 0 1-.762-.318l.002-5.052a.442.436-180 0 0-.442-.439L.36 113.16a.355.35 0 0 1-.355-.35L0 107.28a.355.35 0 0 1 .355-.35H10.8a.442.436-180 0 0 .442-.439l-.002-5.051a.446.439 0 0 1 .74-.312z" style="fill:#50e6ff;stroke:none;stroke-width:34;stroke-linecap:butt"/></g><g transform="translate(15.462)"><title>Sheet.12260</title><path d="m8.66 118.96-8.37-8.22a.991.976 0 0 1 0-1.387l8.37-8.233a.446.439 0 0 1 .759.318l.001 5.062a.446.439-180 0 0 .446.439l10.444.001a.355.35 0 0 1 .355.35l.005 5.52a.355.35 0 0 1-.355.35H9.86a.446.439-180 0 0-.446.439l.006 5.061a.442.436 0 0 1-.759.308z" style="fill:#005ba1;stroke:none;stroke-width:34;stroke-linecap:butt"/></g><g transform="translate(23.793 -16.992)"><title>Sheet.12261</title><path d="M.64 116.64a1.815 1.787 0 0 1 1.81 1.79v.63h4.99a.685.674-180 0 0 .685-.671l-.005-6.639a.681.671-180 0 0-.685-.671l-6.755.001a.678.668-180 0 0-.681.671L0 116.76a1.808 1.78 0 0 1 .64-.12" style="fill:#9cebff;stroke:none;stroke-width:34;stroke-linecap:butt"/></g></g></g></svg>