<svg xmlns="http://www.w3.org/2000/svg" xml:space="preserve" width="56.33" height="56.553" style="font-size:12px;overflow:visible;color-interpolation-filters:sRGB;fill-rule:evenodd;stroke-linecap:square;stroke-miterlimit:3" viewBox="0 0 56.33 56.553"><g transform="translate(-12.239 -12.241)"><title>Page-1</title><g transform="translate(12.058 -34.016)"><title>Container Registry Networking.12237</title><title>Sheet.12238</title><g transform="translate(0 -23.893)"><title>Sheet.12239</title><path d="M56.13 87.2c.56-.57.45-1.47 0-2.04l-2.7-2.71-12.15-11.88c-.56-.56-1.35-.56-1.91 0-.56.57-.67 1.47 0 2.04l12.71 12.55c.57.57.57 1.47 0 2.04l-12.93 13.01a1.43 1.436-180 0 0 0 2.03c.56.57 1.46.45 1.91 0L53.1 90.25l.11-.11Zm-55.57 0c-.56-.57-.45-1.47 0-2.04l2.7-2.71 12.15-11.88c.56-.56 1.35-.56 1.91 0 .56.57.68 1.47 0 2.04L4.84 85.16a1.43 1.436-180 0 0 0 2.04l12.71 13.01c.56.56.56 1.47 0 2.03-.57.57-1.47.45-1.92 0L3.37 90.37l-.11-.12Z" style="fill:#3999c6;stroke:none;stroke-width:12.23999977;stroke-linecap:butt"/></g><g transform="translate(13.104 -36.985)"><title>Sheet.12240</title><path d="M7.65 99.07c0 2.15-1.8 3.74-3.71 3.74S0 101 0 99.07c0-1.92 1.57-3.73 3.94-3.73 2.25 0 3.71 1.81 3.71 3.73m11.36 0c0 2.15-1.8 3.74-3.71 3.74s-3.94-1.81-3.94-3.74c0-1.92 1.8-3.73 3.94-3.73s3.71 1.81 3.71 3.73" style="fill:#57a300;stroke:none;stroke-width:12.23999977;stroke-linecap:butt"/></g><g transform="translate(36.164 -36.985)"><title>Sheet.12241</title><ellipse cx="3.712" cy="99.075" rx="3.712" ry="3.732" style="fill:#57a300;stroke:none;stroke-width:12.23999977;stroke-linecap:butt"/></g><g transform="translate(27.22)"><title>Sheet.12242</title><path d="M21.09 72.91c-7.45-.82-8.7-4.05-8.7-4.05S10.72 73.1 0 73.1v17.39c0 2.1 1.16 4.07 2.77 5.79 3.66 3.9 9.62 6.53 9.62 6.53s12.4-5.45 12.4-12.32V73.1c-1.38 0-2.61-.07-3.7-.19" style="fill:#57a300;stroke:none;stroke-width:12.23999977;stroke-linecap:butt"/></g><g transform="translate(27.22 -6.626)"><title>Sheet.12243</title><path d="m15.31 86.77 5.58-7.11c-7.38-.82-8.61-4.01-8.61-4.01s-1.66 4.2-12.28 4.2v17.22c0 2.08 1.15 4.03 2.75 5.74l4.12-5.26z" style="fill:#b8d432;fill-opacity:.4;stroke:none;stroke-width:12.23999977;stroke-linecap:butt"/></g><g transform="translate(33.98 -10.162)"><title>Sheet.12244</title><path d="M10.7 94.89h-.56v-2.28a4.506 4.524-180 0 0-9.01 0v2.28H.56a.57.572-180 0 0-.564.577L0 102.23c0 .32.25.58.56.58H10.7a.57.572-180 0 0 .564-.577l.006-6.763a.572.575-180 0 0-.566-.578Zm-5.07-4.54c1.25 0 2.26 1.01 2.26 2.26v2.28H3.38v-2.28c0-1.25 1.01-2.26 2.25-2.26" style="fill:#fff;stroke:none;stroke-width:12.23999977;stroke-linecap:butt"/></g></g></g></svg>