<svg xmlns="http://www.w3.org/2000/svg" xmlns:xlink="http://www.w3.org/1999/xlink" xml:space="preserve" width="56.695" height="51.02" style="font-size:12px;overflow:visible;color-interpolation-filters:sRGB;fill-rule:evenodd;stroke-linecap:square;stroke-miterlimit:3" viewBox="0 0 56.696 51.02"><defs><linearGradient id="a" x1="0" x2="1" y1="0" y2="0"><stop offset="0" stop-color="#b77af4"/><stop offset="1" stop-color="#773adc"/></linearGradient><linearGradient xlink:href="#a" id="b" x1="0" x2="17.046" y1="106.22" y2="106.22" gradientTransform="scale(1.05419 .9486)" gradientUnits="userSpaceOnUse"/><linearGradient xlink:href="#a" id="c" x1="0" x2="17.032" y1="106.132" y2="106.132" gradientTransform="scale(1.05331 .94939)" gradientUnits="userSpaceOnUse"/><linearGradient xlink:href="#a" id="d" x1="0" x2="17.046" y1="106.22" y2="106.22" gradientTransform="scale(1.05419 .9486)" gradientUnits="userSpaceOnUse"/><linearGradient xlink:href="#a" id="e" x1="0" x2="17.053" y1="105.958" y2="105.958" gradientTransform="scale(1.05201 .95056)" gradientUnits="userSpaceOnUse"/><linearGradient xlink:href="#a" id="f" x1="0" x2="17.046" y1="106.22" y2="106.22" gradientTransform="scale(1.05419 .9486)" gradientUnits="userSpaceOnUse"/><linearGradient xlink:href="#a" id="g" x1="0" x2="17.046" y1="106.22" y2="106.22" gradientTransform="scale(1.05419 .9486)" gradientUnits="userSpaceOnUse"/><linearGradient xlink:href="#a" id="h" x1="0" x2="17.046" y1="106.22" y2="106.22" gradientTransform="scale(1.05419 .9486)" gradientUnits="userSpaceOnUse"/></defs><g transform="translate(-31.89 -31.894)"><title>Page-1</title><g transform="translate(31.89 -34.016)"><title>Container Kubernetes Service.12275</title><g transform="translate(9.219 -34.85)"><title>polygon41</title><path d="M0 102.46v12.51l8.97 1.96 9-3.69v-9.34l-9-3.14z" style="fill:url(#b);stroke:none;stroke-width:31.88999939;stroke-linecap:butt"/></g><g transform="translate(9.407 -35.005)"><title>path43</title><path d="m9.12 116.89 8.22-3.4a.627.642-180 0 0 .376-.45l.004-8.47a.658.674-180 0 0-.408-.578L9 101.1h-.38l-8.15 1.54a.627.642-180 0 0-.47.578v11.332a.596.61-180 0 0 .47.61l8.25 1.76a1.003 1.027-180 0 0 .4-.03" style="fill:none;stroke:none;stroke-width:31.88999939;stroke-linecap:butt"/></g><g transform="translate(9.219 -34.85)"><title>path45</title><path d="M0 102.46v12.51l9.06 1.96v-16.05zm3.83 11.55-2.54-.51v-9.63l2.54-.42zm3.95.74-2.92-.48v-11.01l2.92-.51z" style="fill:#341a6e;stroke:none;stroke-width:31.88999939;stroke-linecap:butt"/></g><g transform="translate(28.629 -34.69)"><title>polygon47</title><path d="M0 102.46v12.51l8.97 1.96 8.97-3.72v-9.31l-8.97-3.14z" style="fill:url(#c);stroke:none;stroke-width:31.88999939;stroke-linecap:butt"/></g><g transform="translate(28.629 -34.69)"><title>path49</title><path d="M0 102.46v12.51l9 1.96v-16.05zm3.79 11.55-2.54-.51v-9.63l2.54-.42zm3.96.74-2.92-.48v-11.01l2.92-.55z" style="fill:#341a6e;stroke:none;stroke-width:31.88999939;stroke-linecap:butt"/></g><g transform="translate(.031 -17.585)"><title>polygon51</title><path d="M0 102.46v12.51l8.97 1.96 9-3.69v-9.34l-9-3.14z" style="fill:url(#d);stroke:none;stroke-width:31.88999939;stroke-linecap:butt"/></g><g transform="translate(0 -17.682)"><title>path53</title><path d="M0 102.55v12.42l9.06 1.96v-16.05zm3.79 11.59-2.54-.55v-9.63l2.54-.44zm3.99.83-2.92-.48v-11.13l2.92-.52z" style="fill:#341a6e;stroke:none;stroke-width:31.88999939;stroke-linecap:butt"/></g><g transform="translate(19.378 -17.682)"><title>polygon55</title><path d="M0 102.42v12.52l8.97 1.99 8.97-3.72v-9.34l-8.97-3.15z" style="fill:url(#e);stroke:none;stroke-width:31.88999939;stroke-linecap:butt"/></g><g transform="translate(19.378 -17.682)"><title>path57</title><path d="M0 102.42v12.55l9.03 1.96v-16.05zm3.79 11.59-2.54-.55v-9.62l2.54-.45zm3.96.71-2.92-.49v-11l2.92-.52z" style="fill:#341a6e;stroke:none;stroke-width:31.88999939;stroke-linecap:butt"/></g><g transform="translate(38.725 -17.553)"><title>polygon59</title><path d="M0 102.46v12.51l8.97 1.96 9-3.69v-9.34l-9-3.14z" style="fill:url(#f);stroke:none;stroke-width:31.88999939;stroke-linecap:butt"/></g><g transform="translate(38.725 -17.682)"><title>path61</title><path d="M0 102.58v12.39l9.06 1.96v-16.05zm3.83 11.59-2.54-.55V104l2.54-.45zm3.95.71-2.92-.49v-11l2.92-.52z" style="fill:#341a6e;stroke:none;stroke-width:31.88999939;stroke-linecap:butt"/></g><g transform="translate(9 -.128)"><title>polygon63</title><path d="M0 102.42v12.52l8.97 1.99 9-3.72v-9.31l-9-3.14z" style="fill:url(#g);stroke:none;stroke-width:31.88999939;stroke-linecap:butt"/></g><g transform="translate(9.156 -.35)"><title>path65</title><path d="m9.16 116.89 8.18-3.2a.564.578-180 0 0 .376-.578l.004-8.352a.627.642-180 0 0-.408-.706L9.03 101.17a.533.546-180 0 0-.376 0L.5 102.68a.596.61-180 0 0-.502.61L0 114.65a.596.61-180 0 0 .47.61l8.25 1.63a.721.738-180 0 0 .439 0z" style="fill:none;stroke:none;stroke-width:31.88999939;stroke-linecap:butt"/></g><g transform="translate(9 -.128)"><title>path67</title><path d="M0 102.42v12.52l9.06 1.99v-16.3zm3.83 11.59-2.54-.55v-9.62l2.54-.45zm3.95.74-2.92-.48v-11.04l2.92-.52z" style="fill:#341a6e;stroke:none;stroke-width:31.88999939;stroke-linecap:butt"/></g><g transform="translate(28.378)"><title>polygon69</title><path d="M0 102.46v12.51l8.97 1.96 9-3.69v-9.34l-9-3.14z" style="fill:url(#h);stroke:none;stroke-width:31.88999939;stroke-linecap:butt"/></g><g transform="translate(28.378)"><title>path71</title><path d="M0 102.46v12.51l9.06 1.96v-16.05zm3.83 11.58-2.54-.54v-9.63l2.54-.45zm3.95.71-2.92-.48v-11.01l2.92-.51z" style="fill:#341a6e;stroke:none;stroke-width:31.88999939;stroke-linecap:butt"/></g></g></g></svg>