<svg xmlns="http://www.w3.org/2000/svg" xml:space="preserve" width="45.35" height="56.687" style="font-size:12px;overflow:visible;color-interpolation-filters:sRGB;fill-rule:evenodd;stroke-linecap:square;stroke-miterlimit:3" viewBox="0 0 45.35 56.687"><defs><radialGradient id="b" cx=".004" cy="67.979" r="41.265" fx=".004" fy="67.979" gradientTransform="scale(.78147 1.27963)" gradientUnits="userSpaceOnUse"><stop offset=".265" stop-color="#ffd70f"/><stop offset=".485" stop-color="#ffcb12"/><stop offset=".885" stop-color="#feac19"/><stop offset="1" stop-color="#fea11b"/></radialGradient><linearGradient id="a" x1="0" x2="46.514" y1="65.019" y2="65.019" gradientTransform="scale(.89435 1.11813)" gradientUnits="userSpaceOnUse"><stop offset=".185" stop-color="#5ea0ef"/><stop offset="1" stop-color="#0078d4"/></linearGradient></defs><g transform="translate(-34 -34.004)"><title>Page-1</title><g transform="translate(34 -34.016)"><title>Container Registry Encryption.12245</title><title>Icon-Key-Artboard 271</title><title>Sheet.12247</title><path d="M45.35 94.48c0 15.25-18.01 27.52-21.93 30.01a1.413 1.446 0 0 1-1.49 0C18.01 122 0 109.73 0 94.48V76.15a1.426 1.459 0 0 1 1.39-1.46c14.01-.37 10.79-6.67 21.29-6.67s7.27 6.3 21.28 6.67a1.426 1.459 0 0 1 1.39 1.46z" style="fill:#0078d4;stroke:none;stroke-width:34;stroke-linecap:butt"/><g transform="translate(1.878 -2.335)"><title>Sheet.12248</title><path d="M41.6 96.98c0 13.99-16.52 25.24-20.12 27.53a1.287 1.317 0 0 1-1.36 0C16.52 122.22 0 110.96 0 96.98V80.16a1.309 1.339 0 0 1 1.28-1.33c12.85-.36 9.89-6.13 19.52-6.13s6.67 5.77 19.52 6.13a1.309 1.339 0 0 1 1.28 1.33z" style="fill:url(#a);stroke:none;stroke-width:34;stroke-linecap:butt"/></g><g transform="translate(10.754 -9.465)"><title>Sheet.12249</title><path d="M21.8 101.87a4.247 4.345-180 0 0 0-6.13l-7.29-7.48a4.219 4.316-180 0 0-5.98 0l-7.29 7.49a4.247 4.345-180 0 0 0 6.13l6.06 6.22a1.186 1.213 0 0 1 .35.86v11.57a1.441 1.474-180 0 0 .42 1.06l2.78 2.83a.96.983-180 0 0 1.355 0l2.675-2.75v-.02l1.58-1.62a.557.57-180 0 0 0-.8l-1.14-1.17a.616.63 0 0 1 0-.873l1.14-1.167a.554.567-180 0 0 0-.8l-1.14-1.17a.616.63 0 0 1 0-.873l1.14-1.167a.551.564-180 0 0 0-.797l-1.58-1.623v-.6zM11.52 90.08a2.408 2.464 0 1 1-2.4 2.47 2.405 2.46 0 0 1 2.4-2.47" style="fill:url(#b);stroke:none;stroke-width:34;stroke-linecap:butt"/></g><g transform="translate(16.426 -13.294)"><title>Sheet.12250</title><path d="M3.95 124.61a.514.526-180 0 0 .871-.403l-.001-9.367a.542.554-180 0 0-.237-.463.517.53-180 0 0-.798.463l-.005 9.36a.545.558-180 0 0 .163.403zm-3.3-22.54h10.69a.647.662 0 0 1 .647.662l.003.118a.65.665 0 0 1-.65.665L.65 103.51a.647.662 0 0 1-.647-.662L0 102.73a.65.665 0 0 1 .647-.668zm0 2.36h10.69a.647.662 0 0 1 .647.662l.003.118a.65.665 0 0 1-.65.665L.65 105.87a.65.665 0 0 1-.65-.665v-.115a.65.665 0 0 1 .65-.662z" style="fill:#ff9300;fill-opacity:.75;stroke:none;stroke-width:34;stroke-linecap:butt"/></g></g></g></svg>