<svg xmlns="http://www.w3.org/2000/svg" xml:space="preserve" width="56.693" height="56.696" style="font-size:12px;overflow:visible;color-interpolation-filters:sRGB;fill-rule:evenodd;stroke-linecap:square;stroke-miterlimit:3" viewBox="0 0 56.693 56.696"><g transform="translate(-38.25 -38.247)"><title>Page-1</title><g transform="translate(38.25 -38.25)"><title>Container Registry Retention.12220</title><title> ACRPolicyRetention</title><title>Sheet.12222</title><path d="M0 76.5h56.693v56.693H0z" style="fill:none;stroke:none;stroke-width:38.25;stroke-linecap:butt"/><g transform="translate(5.29 -2.122)"><title>Sheet.12223</title><path d="M45.88 117.24a4.47 4.47-180 0 0-3.94-.74l-8.82 2.59a6 6-180 0 0-.43-1.56 4.36 4.36-180 0 0-2.79-2.45l-9.36-2.76a9.96 9.96-180 0 0-5.21 0l-13.14 4.04a3.543 3.543-180 0 0-2.09 4.96l4.18 8.11a2.09 2.09-180 0 0 2.73.82c1.77-.64 1.48-.64 1.48-.64h1.03l17.72 3.54a5 5-180 0 0 1.24 0 6.3 6.3-180 0 0 2.97-.74l14.18-7.62a4.57 4.57-180 0 0 2.34-3.54 4.64 4.64-180 0 0-2.09-4.01m-1.95 4.75-14.18 7.62a2.87 2.87 0 0 1-1.94.28l-17.72-3.54a5 5-180 0 0-1.03 0 5.2 5.2-180 0 0-1.95.39l-.64.28-3.54-7.08 13.22-4.22a6.8 6.8 0 0 1 3.36 0l9.36 2.76a1.28 1.28 0 0 1 .78.82 1.06 1.06 0 0 1-.25 1.27 1.17 1.17 0 0 1-1.06.25l-7.09-2.09-.96 3.19 7.09 2.09a4.43 4.43-180 0 0 3.97-.71l11.44-3.54a1.31 1.31 0 0 1 1.21.32 1.17 1.17 0 0 1 .42 1.03 1.1 1.1 0 0 1-.49.88" style="fill:#7a7a7a;stroke:none;stroke-width:38.25;stroke-linecap:butt"/></g><g transform="translate(14.173 -24.803)"><title>Sheet.12224</title><path d="M14.17 112.96a4.43 4.43 0 1 1-4.43 4.43 4.43 4.43 0 0 1 4.43-4.43m8.72-1.49a2.232 2.232-180 1 0 2.2 2.2 2.23 2.23-180 0 0-2.2-2.2m0 7.09a2.232 2.232-180 1 0 2.2 2.2 2.23 2.23-180 0 0-2.2-2.13zm5.46-8.36a1.77 1.77-180 0 0 1.77-1.77 1.775 1.775-180 1 0-3.55 0 1.77 1.77-180 0 0 1.78 1.77m0 5.28a1.77 1.77-180 0 0-1.78 1.77 1.775 1.775-180 1 0 3.55 0 1.77 1.77-180 0 0-1.77-1.77m0 8.85a1.77 1.77-180 0 0-1.78 1.78 1.775 1.775-180 0 0 3.55 0 1.77 1.77-180 0 0-1.77-1.81zm-14.18 4.79-10.63-5.95v-11.84l10.63-5.95 5.25 3.01 3.54-2.02-8.79-5.07L0 109.28v15.94l14.17 7.97 8.86-4.99-3.61-2.09z" style="fill:#3999c6;stroke:none;stroke-width:38.25;stroke-linecap:butt"/></g></g></g></svg>