<svg xmlns="http://www.w3.org/2000/svg" xml:space="preserve" width="56.691" height="53.861" style="font-size:12px;overflow:visible;color-interpolation-filters:sRGB;fill-rule:evenodd;stroke-linecap:square;stroke-miterlimit:3" viewBox="0 0 56.691 53.861"><defs><linearGradient id="a" x1="0" x2="34.652" y1="110.648" y2="110.648" gradientTransform="scale(1.19905 .834)" gradientUnits="userSpaceOnUse"><stop offset="0" stop-color="#0078d4"/><stop offset="1" stop-color="#5ea0ef"/></linearGradient></defs><g transform="translate(-33.305 -33.304)"><title>Page-1</title><g transform="translate(33.305 -34.016)"><title>Container Batch Account.12299</title><title>g39</title><g transform="translate(35.016 -24.9)"><title>path11</title><path d="m14.87 120.79 6.24-6.36c.5-.53.33-.97-.4-.97h-3.14a.767.77 0 0 1-.9-.803c0-3.947-1-14.947-16-15.347a.767.77-180 0 0-.667.77L0 101.99a.8.803-180 0 0 .834.77 9.17 9.2 0 0 1 11.106 10.03.767.77 0 0 1-.767.77H8.27c-.73 0-.93.44-.43.97l5.8 6.36a.734.736-180 0 0 1.234-.1z" style="fill:#949494;stroke:none;stroke-width:33.30509949;stroke-linecap:butt"/></g><g transform="translate(0 -24.955)"><title>g17</title><title>rect13</title><path d="M0 119.27a1.9 1.907-180 0 0 1.9 1.91h37.75a1.9 1.907-180 0 0 1.9-1.91V94.18a1.9 1.907-180 0 0-1.9-1.9H1.9a1.9 1.907-180 0 0-1.9 1.9Z" style="fill:url(#a);stroke:none;stroke-width:33.30509949;stroke-linecap:butt"/><g transform="translate(0 -22.045)"><title>path15</title><path d="M1.9 114.32h38.29a1.367 1.372 0 0 1 1.36 1.37v5.49H0v-4.99a1.9 1.907 0 0 1 1.9-1.87" style="fill:#83b9f9;stroke:none;stroke-width:33.30509949;stroke-linecap:butt"/></g></g><g transform="translate(30.28)"><title>rect19</title><path d="M0 119.97a1.2 1.204-180 0 0 1.2 1.21h24.01a1.2 1.204-180 0 0 1.2-1.21v-15.95a1.2 1.204-180 0 0-1.2-1.21H1.2a1.2 1.204-180 0 0-1.2 1.21Z" style="fill:#005ba1;stroke:none;stroke-width:33.30509949;stroke-linecap:butt"/></g><g transform="translate(5.336 -40.042)"><title>path21</title><path d="M.63 116.9h29.58a.634.636 0 0 1 .634.602l.006 3.078a.634.636 0 0 1-.634.602L.63 121.18a.634.636 0 0 1-.634-.602L0 117.57a.634.636 0 0 1 .634-.669z" style="fill:#fff;stroke:none;stroke-width:33.30509949;stroke-linecap:butt"/></g><g transform="translate(5.37 -33.887)"><title>path23</title><path d="M.63 116.9h29.58a.634.636 0 0 1 .634.602l.006 3.108a.634.636 0 0 1-.634.569L.63 121.18a.6.602 0 0 1-.634-.569L0 117.5a.6.602 0 0 1 .634-.602z" style="fill:#fff;stroke:none;stroke-width:33.30509949;stroke-linecap:butt"/></g><g transform="translate(5.37 -27.665)"><title>path25</title><path d="M.63 116.9h29.58a.634.636 0 0 1 .634.602l.006 3.078a.634.636 0 0 1-.634.602L.63 121.18a.6.602 0 0 1-.634-.602L0 117.5a.6.602 0 0 1 .634-.602z" style="fill:#fff;stroke:none;stroke-width:33.30509949;stroke-linecap:butt"/></g><g transform="translate(25.912 -3.947)"><title>g31</title><title>rect27</title><path d="M0 119.97a1.2 1.204-180 0 0 1.2 1.21h24.01a1.2 1.204-180 0 0 1.2-1.21v-15.95a1.2 1.204-180 0 0-1.2-1.21H1.2a1.2 1.204-180 0 0-1.2 1.21Z" style="fill:#0078d4;stroke:none;stroke-width:33.30509949;stroke-linecap:butt"/><g transform="translate(0 -14.15)"><title>path29</title><path d="M1.2 116.96h24.35a.867.87 0 0 1 .867.87l-.007 3.35H0V118a1.2 1.204 0 0 1 1.2-1.04" style="fill:#83b9f9;stroke:none;stroke-width:33.30509949;stroke-linecap:butt"/></g></g><g transform="translate(29.314 -13.515)"><title>path33</title><path d="M.4 118.44h18.81a.4.401 0 0 1 .4.368v1.972a.4.401 0 0 1-.4.401L.4 121.18a.4.401 0 0 1-.4-.401V118.8a.367.368 0 0 1 .4-.368z" style="fill:#fff;stroke:none;stroke-width:33.30509949;stroke-linecap:butt"/></g><g transform="translate(29.314 -9.6)"><title>path35</title><path d="M.4 118.44h18.81a.4.401 0 0 1 .4.401v1.969a.367.368 0 0 1-.4.368L.4 121.18a.4.401 0 0 1-.4-.368v-1.972a.4.401 0 0 1 .4-.401z" style="fill:#fff;stroke:none;stroke-width:33.30509949;stroke-linecap:butt"/></g><g transform="translate(29.314 -5.653)"><title>path37</title><path d="M.4 118.44h18.81a.4.401 0 0 1 .4.401v1.969a.367.368 0 0 1-.4.368L.4 121.18a.4.401 0 0 1-.4-.368v-1.972a.4.401 0 0 1 .4-.401z" style="fill:#fff;stroke:none;stroke-width:33.30509949;stroke-linecap:butt"/></g></g></g></svg>