<svg xmlns="http://www.w3.org/2000/svg" xmlns:xlink="http://www.w3.org/1999/xlink" xml:space="preserve" width="56.693" height="53.858" style="font-size:12px;overflow:visible;color-interpolation-filters:sRGB;fill-rule:evenodd;stroke-linecap:square;stroke-miterlimit:3" viewBox="0 0 56.693 53.858"><defs><linearGradient id="b" x1="0" x2="15.921" y1="105.391" y2="105.391" gradientTransform="scale(1.0029 .9971)" gradientUnits="userSpaceOnUse"><stop offset="0" stop-color="#ef7100"/><stop offset="1" stop-color="#faa21d"/></linearGradient><linearGradient id="a" x1="0" x2="1" y1="0" y2="0" gradientTransform="rotate(-90 .5 .5)"><stop offset="0" stop-color="#ef7100"/><stop offset="1" stop-color="#faa21d"/></linearGradient><linearGradient xlink:href="#a" id="c" x1="0" x2="15.921" y1="105.391" y2="105.391" gradientTransform="scale(1.0029 .9971)" gradientUnits="userSpaceOnUse"/><linearGradient xlink:href="#a" id="d" x1="0" x2="15.921" y1="105.391" y2="105.391" gradientTransform="scale(1.0029 .9971)" gradientUnits="userSpaceOnUse"/><linearGradient xlink:href="#a" id="e" x1="0" x2="15.921" y1="105.391" y2="105.391" gradientTransform="scale(1.0029 .9971)" gradientUnits="userSpaceOnUse"/><linearGradient xlink:href="#a" id="f" x1="0" x2="15.921" y1="105.391" y2="105.391" gradientTransform="scale(1.0029 .9971)" gradientUnits="userSpaceOnUse"/></defs><g transform="translate(-33.086 -33.086)"><title>Page-1</title><g transform="translate(33.086 -34.016)"><title>Container Service Fabric Cluster.12144</title><g transform="translate(5.721 -6.234)"><title>path29</title><path d="M45.25 94.48 26.63 81.27l-4-2.92-3.95 2.89L0 94.48l7.27 21.85 1.52 4.63h27.8l1.45-4.63 7.21-21.69zm-33.1 21.85L5.69 96.34 22.63 84.2l17.06 12.18-6.46 19.99Z" style="fill:#e27908;stroke:none;stroke-width:33.0862999;stroke-linecap:butt"/></g><g transform="translate(7.66)"><title>circle31</title><ellipse cx="7.984" cy="113.023" rx="7.984" ry="7.937" style="fill:url(#b);stroke:none;stroke-width:33.0862999;stroke-linecap:butt"/></g><g transform="translate(32.613)"><title>circle33</title><ellipse cx="7.984" cy="113.023" rx="7.984" ry="7.937" style="fill:url(#c);stroke:none;stroke-width:33.0862999;stroke-linecap:butt"/></g><g transform="translate(40.726 -23.78)"><title>circle35</title><ellipse cx="7.984" cy="113.023" rx="7.984" ry="7.937" style="fill:url(#d);stroke:none;stroke-width:33.0862999;stroke-linecap:butt"/></g><g transform="translate(0 -23.78)"><title>circle37</title><ellipse cx="7.984" cy="113.023" rx="7.984" ry="7.937" style="fill:url(#e);stroke:none;stroke-width:33.0862999;stroke-linecap:butt"/></g><g transform="translate(20.363 -37.984)"><title>circle39</title><ellipse cx="7.984" cy="113.023" rx="7.984" ry="7.937" style="fill:url(#f);stroke:none;stroke-width:33.0862999;stroke-linecap:butt"/></g></g></g></svg>