<svg xmlns="http://www.w3.org/2000/svg" xml:space="preserve" width="56.69" height="53.862" style="font-size:12px;overflow:visible;color-interpolation-filters:sRGB;fill-rule:evenodd;stroke-linecap:square;stroke-miterlimit:3" viewBox="0 0 56.69 53.862"><defs><linearGradient id="a" x1="0" x2="47.346" y1="98.593" y2="98.593" gradientTransform="scale(1.19734 .83518)" gradientUnits="userSpaceOnUse"><stop offset="0" stop-color="#0078d4"/><stop offset=".16" stop-color="#1380da"/><stop offset=".53" stop-color="#3c91e5"/><stop offset=".82" stop-color="#559cec"/><stop offset="1" stop-color="#5ea0ef"/></linearGradient><linearGradient id="b" x1=".343" x2="34.293" y1="90.423" y2="90.423" gradientTransform="scale(1.02046 .97995)" gradientUnits="userSpaceOnUse"><stop offset="0" stop-color="#32d4f5"/><stop offset=".32" stop-color="#31d1f3"/><stop offset=".53" stop-color="#2ec9eb"/><stop offset=".7" stop-color="#29bade"/><stop offset=".86" stop-color="#22a5cb"/><stop offset="1" stop-color="#198ab3"/><stop offset="1" stop-color="#198ab3"/></linearGradient></defs><g transform="translate(-34 -34.002)"><title>Page-1</title><g transform="translate(34 -34.016)"><title>DevTest Lab.12134</title><title>Icon-devops-264</title><g transform="translate(0 -14.325)"><title>Sheet.12136</title><path d="M56.69 109.54a12.724 12.545-180 0 0-11.06-12.05 16.022 15.796-180 0 0-16.48-15.14 16.655 16.42-180 0 0-15.83 10.51A15.123 14.91-180 0 0 0 107.27a15.389 15.172-180 0 0 15.96 14.59 9.993 9.852-180 0 0 1.39 0h25.82a2.132 2.102-180 0 0 .67 0 12.858 12.676-180 0 0 12.85-12.32" style="fill:url(#a);stroke:none;stroke-width:34;stroke-linecap:butt"/></g><g transform="translate(13.99)"><title>Sheet.12137</title><path d="M33.74 121.88H1.63c-1.03 0-1.63-1.61-1.06-2.46l11.06-15.9a1.133 1.117-180 0 0 .23-.72V92.29a.666.657-180 0 0-.633-.624l-.597.004a1.266 1.248 0 0 1-1.27-1.25v-.56a1.266 1.248 0 0 1 1.27-1.25h14.09a1.266 1.248 0 0 1 1.26 1.25v.56a1.266 1.248 0 0 1-1.26 1.25h-.6a.633.624-180 0 0-.633.624l-.007 10.536a1.2 1.182-180 0 0 .24.73l11.06 15.86c.56.82-.04 2.46-1.04 2.46" style="fill:url(#b);stroke:none;stroke-width:34;stroke-linecap:butt"/></g><g transform="translate(19.265 -3.12)"><title>Sheet.12138</title><path d="m.05 120.73 8.4-12.08a3.131 3.087-180 0 0 .66-1.71v-4.86a.966.952 0 0 1 .966-.952l4.804.002a.966.952 0 0 1 .966.952l-.006 5.188a2.032 2.003-180 0 0 .37 1.15l8.59 12.31a.766.755 0 0 1-.6 1.15H.89a.733.722 0 0 1-.833-1.15z" style="fill:#552f99;stroke:none;stroke-width:34;stroke-linecap:butt"/></g></g></g></svg>