<svg xmlns="http://www.w3.org/2000/svg" xmlns:xlink="http://www.w3.org/1999/xlink" xml:space="preserve" width="56.692" height="56.694" style="font-size:12px;overflow:visible;color-interpolation-filters:sRGB;fill-rule:evenodd;stroke-linecap:square;stroke-miterlimit:3" viewBox="0 0 56.692 56.694"><defs><linearGradient id="a" x1="0" x2="1" y1="0" y2="0" gradientTransform="rotate(-90 .5 .5)"><stop offset=".09" stop-color="#32bedd"/><stop offset="1" stop-color="#50e6ff"/></linearGradient><linearGradient xlink:href="#a" id="b" x1="0" x2="12.495" y1="110.746" y2="110.746" gradientTransform="scale(.98823 1.0119)" gradientUnits="userSpaceOnUse"/><linearGradient xlink:href="#a" id="c" x1="0" x2="12.495" y1="110.746" y2="110.746" gradientTransform="scale(.98823 1.0119)" gradientUnits="userSpaceOnUse"/><linearGradient xlink:href="#a" id="d" x1="0" x2="12.495" y1="110.746" y2="110.746" gradientTransform="scale(.98823 1.0119)" gradientUnits="userSpaceOnUse"/></defs><g transform="translate(-34.005 -34)"><title>Page-1</title><g transform="translate(34 -34.016)"><title>HDInsight Cluster.12117</title><title>Microsoft_Azure_HDInsight_Icon</title><title>Sheet.12119</title><path d="M22.75 106.08H33.8a.934.957-180 0 0 .901-.752 12.348 12.644 0 0 1 4.469-7.338.901.923-180 0 0 .234-1.23L33.67 86.5a.901.923-180 0 0-1.135-.376 12.916 13.225 0 0 1-4.175.786 11.88 12.166 0 0 1-4.31-.78.934.957-180 0 0-1.135.444L17.18 96.82a.934.957-180 0 0 .234 1.23 12.348 12.644 0 0 1 4.436 7.32.901.923-180 0 0 .901.718zm-6.67-31.74H9.4a.901.923-180 0 0-.801.478L.13 89.75a.934.957-180 0 0 0 .957l3.1 5.463a.968.991-180 0 0 1.235.41A12.081 12.37 0 0 1 9.8 95.32a8.977 9.193 0 0 1 1.34 0 1.035 1.06-180 0 0 .93-.48l2.64-4.61 3.97-7.04a.901.923-180 0 0 0-1.06 12.181 12.473 0 0 1-2.74-7.79Zm32.1.48a.901.923-180 0 0-.801-.478l-6.669-.002a12.248 12.542 0 0 1-2.61 7.76.901.923-180 0 0 0 1.06l4.01 7.07 2.64 4.68a.934.957-180 0 0 .934.478l1.266.002a12.582 12.883 0 0 1 5.37 1.26.901.923-180 0 0 1.035-.273l3.105-5.497a.934.957-180 0 0 0-.957zm-13.91 36.73H22.29a.934.957-180 0 0-.901.615 12.148 12.439 0 0 1-4.639 6.115.968.991-180 0 0-.3 1.299l2.63 4.651a.968.991-180 0 0 .801.478l16.859.002a.968.991-180 0 0 .801-.478l2.599-4.612a.934.957-180 0 0-.3-1.299 12.281 12.576 0 0 1-4.67-6.151.934.957-180 0 0-.901-.615Z" style="fill:#0078d4;stroke:none;stroke-width:34;stroke-linecap:butt"/><g transform="translate(3.63 -10.457)"><title>Sheet.12120</title><ellipse cx="6.174" cy="118.387" rx="6.174" ry="6.322" style="fill:url(#b);stroke:none;stroke-width:34;stroke-linecap:butt"/></g><g transform="translate(40.574 -10.457)"><title>Sheet.12121</title><ellipse cx="6.174" cy="118.387" rx="6.174" ry="6.322" style="fill:url(#c);stroke:none;stroke-width:34;stroke-linecap:butt"/></g><g transform="translate(22.118 -44.049)"><title>Sheet.12122</title><ellipse cx="6.174" cy="118.387" rx="6.174" ry="6.322" style="fill:url(#d);stroke:none;stroke-width:34;stroke-linecap:butt"/></g><g transform="translate(26.957)"><title>Sheet.12123</title><path d="M19.79 87.56a19.79 20.265-180 0 0-5.84.89l1 1.78 2.64 4.68a.934.957-180 0 0 .934.478l1.266.002a12.582 12.883 0 0 1 5.37 1.26.901.923-180 0 0 1.235-.273l2.635-4.647.71-1.26a19.624 20.094-180 0 0-9.95-2.91M7.74 105.33a12.348 12.644 0 0 1 4.47-7.34.901.923-180 0 0 .234-1.23L9.11 90.74A20.024 20.504-180 0 0 0 106.08h6.87a.934.957-180 0 0 .868-.752zm.47 6.84a.934.957-180 0 0-.901-.615L.2 111.55a20.024 20.504-180 0 0 8.34 13.16h1.24a.968.991-180 0 0 .801-.478l2.599-4.612a.934.957-180 0 0-.3-1.299 12.281 12.576 0 0 1-4.8-6.151Z" style="fill:#5ea0ef;stroke:none;stroke-width:34;stroke-linecap:butt"/></g></g></g></svg>