<svg xmlns="http://www.w3.org/2000/svg" xml:space="preserve" width="49.475" height="56.693" style="font-size:12px;overflow:visible;color-interpolation-filters:sRGB;fill-rule:evenodd;stroke-linecap:square;stroke-miterlimit:3" viewBox="0 0 49.475 56.693"><defs><radialGradient id="a" cx="41.074" cy="98.132" r="57.504" fx="41.074" fy="98.132" gradientTransform="scale(1.01566 .98459)" gradientUnits="userSpaceOnUse"><stop offset="0" stop-color="#5ea0ef"/><stop offset="1" stop-color="#0078d4"/></radialGradient></defs><g transform="translate(-40.184 -40.184)"><title>Page-1</title><g transform="translate(40.184 -40.184)"><title>High Availability.12109</title><title>Icon-nameAsset 6</title><title>Sheet.12111</title><g transform="translate(18.048 -3.181)"><title>Sheet.12112</title><path d="M7.74 131.08c0-.52-2.11-.52-2.11 0A5.699 5.524 0 0 1 0 137.06h13.36a5.692 5.518 0 0 1-5.62-5.98" style="fill:#198ab3;stroke:none;stroke-width:40.18379974;stroke-linecap:butt"/></g><g transform="translate(1.483)"><title>Sheet.12113</title><path d="M38.17 82.37a1.95 1.89 0 0 1 2.78 0l.09.09A28.62 27.745 0 0 1 .66 121.58a1.95 1.89 0 0 1-.16-2.69l.08-.08a1.95 1.89 0 0 1 2.69-.08 24.692 23.937-180 0 0 34.82-33.75 1.95 1.89 0 0 1 .08-2.61m-4.78 54.69h-20.3a1.625 1.575 0 0 1-1.62-1.57 1.625 1.575 0 0 1 1.62-1.58h20.3a1.625 1.575 0 0 1 1.63 1.58 1.625 1.575 0 0 1-1.63 1.57" style="fill:#32bedd;stroke:none;stroke-width:40.18379974;stroke-linecap:butt"/></g><g transform="translate(0 -16.252)"><title>Sheet.12114</title><ellipse cx="20.859" cy="116.84" rx="20.859" ry="20.221" style="fill:url(#a);stroke:none;stroke-width:40.18379974;stroke-linecap:butt"/></g><g transform="translate(0 -16.252)"><title>Sheet.12115</title><ellipse cx="20.859" cy="116.84" rx="20.859" ry="20.221" style="fill:none;stroke:none;stroke-width:40.18379974;stroke-linecap:butt"/></g><g transform="translate(.393 -16.253)"><title>Sheet.12116</title><path d="M16.42 116.88a2.888 2.8-180 1 0-4.08 0 2.888 2.8-180 0 0 4.08 0m13.62-4.25a7.902 7.66-180 0 0 0 10.83l1.6 1.55a1.527 1.48 0 0 1-.03 2.08 1.53 1.483 0 0 1-2.17 0l.02.02a2.083 2.019-180 0 0-2.92 2.86L31 134.3a20.84 20.202-180 0 0 9.79-22.05 7.898 7.657-180 0 0-10.75.38m-18.87-6.67a4.838 4.69-180 0 0 6.84-6.63l-2.26-2.19a20.82 20.183-180 0 0-9.04 4.52zm-9 1.16A20.667 20.035-180 0 0 0 112.94l2.42 2.35a2.89 2.802-180 0 0 4.09-3.96zm10.91 28.63a20.833 20.195-180 0 0 15.04-.1l-1.22-1.18a9.006 8.73-180 0 0-12.74 0 9.237 8.954-180 0 0-1.08 1.28" style="fill:#37c2b1;stroke:none;stroke-width:40.18379974;stroke-linecap:butt"/></g></g></g></svg>