<svg xmlns="http://www.w3.org/2000/svg" xmlns:xlink="http://www.w3.org/1999/xlink" xml:space="preserve" width="56.691" height="56.692" style="font-size:12px;overflow:visible;color-interpolation-filters:sRGB;fill-rule:evenodd;stroke-linecap:square;stroke-miterlimit:3" viewBox="0 0 56.691 56.692"><defs><linearGradient id="a" x1="0" x2="1" y1="0" y2="0" gradientTransform="rotate(-90 .5 .5)"><stop offset="0" stop-color="#198ab3"/><stop offset="1" stop-color="#32d4f5"/></linearGradient><linearGradient xlink:href="#a" id="b" x1="0" x2="30.426" y1="149.15" y2="149.15" gradientTransform="scale(1.8632 .5367)" gradientUnits="userSpaceOnUse"/><linearGradient xlink:href="#a" id="c" x1="0" x2="30.345" y1="149.078" y2="149.078" gradientTransform="scale(1.86161 .53717)" gradientUnits="userSpaceOnUse"/><linearGradient xlink:href="#a" id="d" x1="0" x2="11.177" y1="93.897" y2="93.897" gradientTransform="scale(1.09023 .91723)" gradientUnits="userSpaceOnUse"/></defs><g transform="translate(-5.669 -5.67)"><title>Page-1</title><g transform="translate(5.67 -34.016)"><title>Host.12082</title><title>Sheet.12083</title><g transform="translate(26.067 -7.774)"><title>Sheet.12084</title><path d="M0 63.788h4.035v32.59H0z" style="fill:#32bedd;stroke:none;stroke-width:.75;stroke-linecap:butt"/></g><g transform="translate(0 -40.364)"><title>Sheet.12085</title><path d="M54.39 80.05H2.26A2.34 1.969-180 0 0 0 82.02v12.39a2.34 1.969-180 0 0 2.3 1.97h52.09a2.3 1.935-180 0 0 2.3-1.97V82.02a2.3 1.935-180 0 0-2.3-1.97" style="fill:url(#b);stroke:none;stroke-width:.75;stroke-linecap:butt"/></g><g transform="translate(0 -18.264)"><title>Sheet.12086</title><path d="M54.23 80.08H2.1A2.3 1.935-180 0 0 0 82.02v12.42a2.26 1.901-180 0 0 2.3 1.94h51.93a2.3 1.935-180 0 0 2.26-1.94V82.02a2.34 1.969-180 0 0-2.26-1.94" style="fill:url(#c);stroke:none;stroke-width:.75;stroke-linecap:butt"/></g><g transform="translate(22.395)"><title>Sheet.12087</title><ellipse cx="6.093" cy="91.252" rx="6.093" ry="5.126" style="fill:#7fba00;stroke:none;stroke-width:.75;stroke-linecap:butt"/></g><g transform="translate(22.233 -.034)"><title>Sheet.12088</title><ellipse cx="6.093" cy="91.252" rx="6.093" ry="5.126" style="fill:url(#d);stroke:none;stroke-width:.75;stroke-linecap:butt"/></g><g transform="translate(47.291 -43.928)"><title>Sheet.12089</title><g transform="translate(0 -6.145)"><title>Sheet.12090</title><path d="M0 95.87a.605.51-180 0 0 .605.51H3.63a.605.51-180 0 0 .605-.51l.005-2.55a.605.51-180 0 0-.605-.51H.61a.605.51-180 0 0-.605.51z" style="fill:#b4ec36;stroke:none;stroke-width:.75;stroke-linecap:butt"/></g><title>Sheet.12091</title><path d="M0 95.87a.605.51-180 0 0 .605.51H3.63a.605.51-180 0 0 .605-.51l.005-2.55a.605.51-180 0 0-.605-.51H.61a.605.51-180 0 0-.605.51z" style="fill:#b4ec36;stroke:none;stroke-width:.75;stroke-linecap:butt"/></g><g transform="translate(47.291 -21.896)"><title>Sheet.12092</title><g transform="translate(0 -6.145)"><title>Sheet.12093</title><path d="M0 95.87a.605.51-180 0 0 .605.51H3.63a.605.51-180 0 0 .605-.51l.005-2.55a.605.51-180 0 0-.605-.51H.61a.605.51-180 0 0-.605.51z" style="fill:#b4ec36;stroke:none;stroke-width:.75;stroke-linecap:butt"/></g><title>Sheet.12094</title><path d="M0 95.87a.605.51-180 0 0 .605.51H3.63a.605.51-180 0 0 .605-.51l.005-2.55a.605.51-180 0 0-.605-.51H.61a.605.51-180 0 0-.605.51z" style="fill:#b4ec36;stroke:none;stroke-width:.75;stroke-linecap:butt"/></g></g></g></svg>