<svg xmlns="http://www.w3.org/2000/svg" xmlns:xlink="http://www.w3.org/1999/xlink" xml:space="preserve" width="56.695" height="56.69" style="font-size:12px;overflow:visible;color-interpolation-filters:sRGB;fill-rule:evenodd;stroke-linecap:square;stroke-miterlimit:3" viewBox="0 0 56.695 56.69"><defs><linearGradient id="a" x1="0" x2="1" y1="0" y2="0" gradientTransform="rotate(-90 .5 .5)"><stop offset="0" stop-color="#198ab3"/><stop offset=".1" stop-color="#1c93bb"/><stop offset=".7" stop-color="#2cc2e5"/><stop offset="1" stop-color="#32d4f5"/></linearGradient><linearGradient xlink:href="#a" id="b" x1="0" x2="25.938" y1="156.803" y2="156.803" gradientTransform="scale(1.89605 .52741)" gradientUnits="userSpaceOnUse"/><linearGradient xlink:href="#a" id="c" x1="0" x2="25.938" y1="156.803" y2="156.803" gradientTransform="scale(1.89605 .52741)" gradientUnits="userSpaceOnUse"/></defs><g transform="translate(-5.67 -5.673)"><title>Page-1</title><g transform="translate(5.67 -34.016)"><title>Host Group.12095</title><title>g39</title><g transform="translate(0 -21.122)"><title>path17</title><path d="M46.75 60.81H2.54A2.505 2.28-180 0 0 0 63.09v10.32a2.542 2.313-180 0 0 2.54 2.32h44.21a2.542 2.313-180 0 0 2.54-2.32V63.09a2.542 2.313-180 0 0-2.54-2.28m0 20.65H2.54A2.505 2.28-180 0 0 0 83.74v10.32a2.542 2.313-180 0 0 2.54 2.32h44.21a2.542 2.313-180 0 0 2.54-2.32V83.74a2.505 2.28-180 0 0-2.54-2.28" style="fill:#198ab3;stroke:none;stroke-width:.75;stroke-linecap:butt"/></g><g transform="translate(28.88 -7.376)"><title>path19</title><path d="M0 61.98h3.684v34.398H0z" style="fill:#32bedd;stroke:none;stroke-width:.75;stroke-linecap:butt"/></g><g transform="translate(7.515 -38.421)"><title>path21</title><path d="M47.08 82.7H2.1A2.1 1.911-180 0 0 0 84.61v10.06a2.1 1.911-180 0 0 2.1 1.71h44.98a2.1 1.911-180 0 0 2.1-1.91V84.41a2.1 1.911-180 0 0-2.1-1.71" style="fill:url(#b);stroke:none;stroke-width:.75;stroke-linecap:butt"/></g><g transform="translate(48.626 -40.6)"><title>g27</title><g transform="translate(0 -6.068)"><title>rect23</title><path d="M0 95.88a.553.503-180 0 0 .553.503l2.767-.003a.553.503-180 0 0 .553-.503L3.87 93.36a.553.503-180 0 0-.553-.503L.55 92.86a.553.503-180 0 0-.553.503z" style="fill:#b4ec36;stroke:none;stroke-width:.75;stroke-linecap:butt"/></g><title>rect25</title><path d="M0 95.88a.553.503-180 0 0 .553.503l2.767-.003a.553.503-180 0 0 .553-.503L3.87 93.36a.553.503-180 0 0-.553-.503L.55 92.86a.553.503-180 0 0-.553.503z" style="fill:#b4ec36;stroke:none;stroke-width:.75;stroke-linecap:butt"/></g><g transform="translate(7.515 -17.568)"><title>path29</title><path d="M47.08 82.5H2.1A2.1 1.911-180 0 0 0 84.41v10.06a2.1 1.911-180 0 0 2.1 1.91h44.98a2.1 1.911-180 0 0 2.1-1.91V84.41a2.1 1.911-180 0 0-2.1-1.91" style="fill:none;stroke:none;stroke-width:.75;stroke-linecap:butt"/></g><g transform="translate(25.197)"><title>circle31</title><ellipse cx="5.562" cy="91.315" rx="5.562" ry="5.062" style="fill:none;stroke:none;stroke-width:.75;stroke-linecap:butt"/></g><g transform="translate(7.515 -17.769)"><title>path21-5</title><path d="M47.08 82.7H2.1A2.1 1.911-180 0 0 0 84.61v10.06a2.1 1.911-180 0 0 2.1 1.71h44.98a2.1 1.911-180 0 0 2.1-1.91V84.41a2.1 1.911-180 0 0-2.1-1.71" style="fill:url(#c);stroke:none;stroke-width:.75;stroke-linecap:butt"/></g><g transform="translate(48.626 -19.948)"><title>g27-1</title><g transform="translate(0 -6.068)"><title>rect23-9</title><path d="M0 95.88a.553.503-180 0 0 .553.503l2.767-.003a.553.503-180 0 0 .553-.503L3.87 93.36a.553.503-180 0 0-.553-.503L.55 92.86a.553.503-180 0 0-.553.503z" style="fill:#b4ec36;stroke:none;stroke-width:.75;stroke-linecap:butt"/></g><title>rect25-4</title><path d="M0 95.88a.553.503-180 0 0 .553.503l2.767-.003a.553.503-180 0 0 .553-.503L3.87 93.36a.553.503-180 0 0-.553-.503L.55 92.86a.553.503-180 0 0-.553.503z" style="fill:#b4ec36;stroke:none;stroke-width:.75;stroke-linecap:butt"/></g></g></g></svg>