<svg xmlns="http://www.w3.org/2000/svg" xml:space="preserve" width="45.35" height="56.688" style="font-size:12px;overflow:visible;color-interpolation-filters:sRGB;fill-rule:evenodd;stroke-linecap:square;stroke-miterlimit:3" viewBox="0 0 45.35 56.688"><defs><linearGradient id="a" x1="0" x2="46.496" y1="65.056" y2="65.056" gradientTransform="scale(.89449 1.11796)" gradientUnits="userSpaceOnUse"><stop offset="0" stop-color="#6bb9f2"/><stop offset="1" stop-color="#1b93eb"/></linearGradient><linearGradient id="b" x1="-.002" x2="34.194" y1="88.315" y2="88.315" gradientTransform="scale(.98237 1.01795)" gradientUnits="userSpaceOnUse"><stop offset="0" stop-color="#e6e6e6"/><stop offset="1" stop-color="#fff"/></linearGradient><linearGradient id="c" x1="-.005" x2="10.75" y1="147.599" y2="147.599" gradientTransform="scale(1.26978 .78754)" gradientUnits="userSpaceOnUse"><stop offset=".225" stop-color="#32d4f5"/><stop offset=".475" stop-color="#31d1f3"/><stop offset=".635" stop-color="#2ec9eb"/><stop offset="1" stop-color="#198ab3"/><stop offset="1" stop-color="#198ab3"/></linearGradient><linearGradient id="d" x1="0" x2="7.751" y1="115.557" y2="115.557" gradientTransform="scale(.98877 1.01136)" gradientUnits="userSpaceOnUse"><stop offset=".225" stop-color="#32d4f5"/><stop offset=".475" stop-color="#31d1f3"/><stop offset=".635" stop-color="#2ec9eb"/><stop offset="1" stop-color="#198ab3"/><stop offset="1" stop-color="#198ab3"/></linearGradient></defs><g transform="translate(-34 -34.004)"><title>Page-1</title><g transform="translate(34 -34.016)"><title>HPC Workbenche.12058</title><title>Sheet.12059</title><title>Sheet.12060</title><path d="M45.35 94.49c0 15.24-18.01 27.51-21.93 30a1.408 1.44 0 0 1-1.49 0C18.01 122 0 109.74 0 94.49V76.16a1.424 1.456 0 0 1 1.39-1.46c14.01-.39 10.79-6.68 21.29-6.68s7.27 6.29 21.28 6.67a1.424 1.456 0 0 1 1.39 1.46z" style="fill:#1b93eb;stroke:none;stroke-width:34;stroke-linecap:butt"/><g transform="translate(1.881 -2.351)"><title>Sheet.12061</title><path d="M41.59 96.99c0 13.98-16.52 25.24-20.11 27.52a1.295 1.325 0 0 1-1.37 0C16.52 122.23 0 110.97 0 96.99V80.17a1.308 1.337 0 0 1 1.28-1.34c12.84-.35 9.89-6.1 19.52-6.1s6.67 5.78 19.52 6.13a1.308 1.337 0 0 1 1.27 1.33z" style="fill:url(#a);stroke:none;stroke-width:34;stroke-linecap:butt"/></g><g transform="translate(5.876 -13.039)"><title>Sheet.12062</title><path d="m23.01 95.74-2.28-.96a.7.715 0 0 1-.395-.42l-1.405-3.98a.706.722-180 0 0-.662-.478L15.32 89.9a.706.722-180 0 0-.677.523L13.54 94.33a.702.718 0 0 1-.414.468l-2.026.812a.702.718 0 0 1-.57 0l-3.88-1.89a.709.725-180 0 0-.8.141L3.77 95.97a.706.722-180 0 0-.144.818l1.864 4.082a.712.728 0 0 1 .022.513l-.702 2.247a.715.731 0 0 1-.458.468L.49 105.38a.702.718-180 0 0-.492.686L0 109.18a.709.725-180 0 0 .511.693l3.799 1.117a.709.725 0 0 1 .464.436l.716 1.954a.702.718 0 0 1-.022.558L3.73 117.79a.709.725-180 0 0 .135.808l2.095 2.192a.709.725-180 0 0 .818.141l.102-.051 3.53-1.86a.7.715 0 0 1 .586-.026l2.044.846a.696.712 0 0 1 .401.423l1.399 3.967a.706.722-180 0 0 .665.475l2.775.005a.702.718-180 0 0 .677-.52l1.103-3.89a.715.731 0 0 1 .414-.468l2.026-.842a.687.702 0 0 1 .561.016l3.699 1.764a.702.718-180 0 0 .8-.141l1.96-1.999a.709.725-180 0 0 .116-.863l-.036-.087-1.51-3.81a.706.722 0 0 1 0-.542l.84-2.128a.709.725 0 0 1 .414-.407l3.786-1.433a.709.725-180 0 0 .46-.677v-2.833a.709.725-180 0 0-.517-.696l-3.763-1.074a.7.715 0 0 1-.48-.465l-.74-2.285a.696.712 0 0 1 .031-.532l1.739-3.848a.702.718-180 0 0-.141-.815L27.82 94.19a.878.898-180 0 0-.981-.183z" style="fill:url(#b);stroke:none;stroke-width:34;stroke-linecap:butt"/></g><g transform="translate(22.99 -24.806)"><title>Sheet.12063</title><path d="M9.13 123.79a4.907 5.02-180 0 0-3.17-4.55 2.562 2.62-180 1 0-2.82-.02A4.544 4.647-180 0 0 0 123.79a.815.834-180 0 0 .727.917l7.603.003a.815.834-180 0 0 .815-.83.508.52-180 0 0-.022-.087z" style="fill:#198ab3;stroke:none;stroke-width:34;stroke-linecap:butt"/></g><g transform="translate(13.697 -23.215)"><title>Sheet.12064</title><path d="M12.43 124.71a1.214 1.241-180 0 0 1.22-1.24v-.15a6.933 7.091-180 0 0-6.82-7.08c-4.22 0-6.41 2.69-6.83 7.09a1.22 1.248-180 0 0 1.09 1.37h.12z" style="fill:url(#c);stroke:none;stroke-width:34;stroke-linecap:butt"/></g><g transform="translate(18.522 -25.903)"><title>Sheet.12065</title><path d="M2.07 119.86a3.804 3.89 0 0 1-2.07-.64l2.05 5.49 2.04-5.45a3.822 3.91 0 0 1-2.02.6" style="fill:#fff;fill-opacity:.8;stroke:none;stroke-width:34;stroke-linecap:butt"/></g><g transform="translate(16.735 -30.75)"><title>Sheet.12066</title><ellipse cx="3.832" cy="120.789" rx="3.832" ry="3.919" style="fill:url(#d);stroke:none;stroke-width:34;stroke-linecap:butt"/></g></g></g></svg>