<svg xmlns="http://www.w3.org/2000/svg" xml:space="preserve" width="56.697" height="51.027" style="font-size:12px;overflow:visible;color-interpolation-filters:sRGB;fill-rule:evenodd;stroke-linecap:square;stroke-miterlimit:3" viewBox="0 0 56.697 51.027"><defs><linearGradient id="a" x1="0" x2="39.965" y1="102.506" y2="102.506" gradientTransform="scale(1.2118 .82522)" gradientUnits="userSpaceOnUse"><stop offset="0" stop-color="#0078d4"/><stop offset=".815" stop-color="#5ea0ef"/></linearGradient></defs><g transform="translate(-32.53 -32.528)"><title>Page-1</title><g transform="translate(32.53 -34.016)"><title>Image Template.12044</title><title>layer1</title><g transform="translate(6.767 -3.776)"><title>path2</title><path d="M20.2 106.87a.749.765 0 0 1-.732-.78l.002-1.26h-1.25a.749.765 0 0 1 0-1.53h1.99a.749.765 0 0 1 .748.764l.002 2.056a.749.765 0 0 1-.762.748zm-2.88 7.31a.749.765 0 0 1-.325-1.45 3.795 3.876-180 0 0 2.035-2.7.749.765 0 0 1 1.442.41 5.321 5.435 0 0 1-2.812 3.66.755.771 0 0 1-.34.075zm-2.46 3.39h-2a.745.761 0 0 1-.748-.764 3.425 3.499 0 0 1 .928-2.376.75.766 0 0 1 1.099 1.042 2.032 2.075-180 0 0-.369.568h1.09a.749.765 0 0 1 0 1.53m16.18 0h-4.05a.749.765 0 0 1 0-1.53h4.05a.749.765 0 0 1 0 1.53m6.04 0h-2a.749.765 0 0 1 0-1.53h1.08a2.061 2.105-180 0 0-.37-.56.749.765 0 0 1 1.093-1.042 3.396 3.469 0 0 1 .937 2.372.749.765 0 0 1-.746.764zm-4.47-3.39a.745.761 0 0 1-.325-.075 5.318 5.432 0 0 1-2.825-3.645.749.765 0 1 1 1.442-.414 3.811 3.893-180 0 0 2.048 2.694.749.765 0 0 1-.325 1.45zm-2.89-7.31a.749.765 0 0 1-.748-.748l.008-2.062a.752.768 0 0 1 .748-.764l1.992.004a.749.765 0 0 1 0 1.53h-1.26v1.26a.749.765 0 0 1-.732.78zm17.68-2.04h-3.92a.749.765 0 0 1 0-1.53h3.92a.749.765 0 1 1 0 1.53m-7.85 0h-3.92a.749.765 0 0 1 0-1.53h3.92a.749.765 0 0 1 0 1.53m-25.27 0h-3.93a.749.765 0 0 1 0-1.53h3.93a.749.765 0 0 1 0 1.53m-7.85 0H2.5a.749.765 0 0 1 0-1.53h3.93a.749.765 0 0 1 0 1.53m42.75-2.9a.745.761 0 0 1-.748-.764l-.002-4.006a.749.765 0 0 1 1.497 0l.003 4.01a.749.765 0 0 1-.748.764zm-48.43 0a.749.765 0 0 1-.748-.764L0 97.14a.749.765 0 0 1 1.497 0l.003 4.01a.752.768 0 0 1-.748.764zm48.43-8.01a.745.761 0 0 1-.748-.764l-.002-4.006a.749.765 0 0 1 1.497 0l.003 4a.749.765 0 0 1-.748.764zM.75 93.9a.749.765 0 0 1-.748-.764L0 89.13a.749.765 0 1 1 1.497 0l.003 4.01a.752.768 0 0 1-.748.764Zm48.43-7.99a.745.761 0 0 1-.748-.764l-.002-4.006a.749.765 0 0 1 1.497 0l.003 4a.749.765 0 0 1-.748.768zM.75 85.89a.745.761 0 0 1-.748-.764L0 81.12a.749.765 0 0 1 1.497 0l.003 4a.749.765 0 0 1-.748.764zm48.43-8a.745.761 0 0 1-.748-.764l-.002-4.006a.749.765 0 1 1 1.497 0l.003 4.01a.749.765 0 0 1-.748.764zM.75 77.87a.745.761 0 0 1-.748-.764L0 73.1a.749.765 0 1 1 1.497 0l.003 4a.749.765 0 0 1-.748.764zm45.78-6.02h-3.91a.749.765 0 0 1 0-1.53h3.91a.749.765 0 1 1 0 1.53m-7.85 0h-3.92a.749.765 0 0 1 0-1.53h3.92a.749.765 0 1 1 0 1.53m-7.84 0h-3.92a.749.765 0 0 1 0-1.53h3.92a.749.765 0 1 1 0 1.53m-7.85 0h-3.9a.749.765 0 0 1 0-1.53h3.92a.749.765 0 1 1 0 1.53zm-7.84 0h-3.91a.749.765 0 0 1 0-1.53h3.92a.749.765 0 1 1 0 1.53zm-7.85 0H3.4a.749.765 0 0 1 0-1.53h3.92a.749.765 0 0 1 0 1.53z" style="fill:#37c2b1;stroke:none;stroke-width:32.53070068;stroke-linecap:butt"/></g><g transform="translate(0 -12.737)"><title>rect4</title><path d="M0 115.92a1.617 1.652-180 0 0 1.62 1.65h45.19a1.617 1.652-180 0 0 1.62-1.65V86.24a1.617 1.652-180 0 0-1.62-1.65H1.62A1.617 1.652-180 0 0 0 86.24Z" style="fill:url(#a);stroke:none;stroke-width:32.53070068;stroke-linecap:butt"/></g><g transform="translate(12.117)"><title>path6</title><path d="M21.81 114.81c-4.79-.77-4.97-4.31-4.96-9.98h-9.5c0 5.68-.18 9.21-4.96 9.98A2.82 2.88-180 0 0 0 117.57h24.21a2.836 2.896-180 0 0-2.4-2.76" style="fill:#1f56a3;stroke:none;stroke-width:32.53070068;stroke-linecap:butt"/></g><g transform="translate(24.215 -21.085)"><title>path8</title><path d="M7.33 104.47v8.71L0 117.57v-8.73z" style="fill:#50e6ff;stroke:none;stroke-width:32.53070068;stroke-linecap:butt"/></g><g transform="translate(16.887 -29.794)"><title>path10</title><path d="m14.66 113.18-7.31 4.39L0 113.18l7.35-4.37Z" style="fill:#c3f1ff;stroke:none;stroke-width:32.53070068;stroke-linecap:butt"/></g><g transform="translate(16.887 -21.085)"><title>path12</title><path d="M7.33 108.86v8.71L0 113.18v-8.71z" style="fill:#9cebff;stroke:none;stroke-width:32.53070068;stroke-linecap:butt"/></g><g transform="translate(16.887 -21.085)"><title>path14</title><path d="m0 113.18 7.33-4.34v8.73z" style="fill:#c3f1ff;stroke:none;stroke-width:32.53070068;stroke-linecap:butt"/></g><g transform="translate(24.215 -21.085)"><title>path16</title><path d="M7.33 113.18 0 108.84v8.73z" style="fill:#9cebff;stroke:none;stroke-width:32.53070068;stroke-linecap:butt"/></g><g transform="translate(5.81 -17.844)"><title>path18</title><path d="M8.34 93.62H1.62A1.62 1.655-180 0 0 0 95.27v6.89a.807.824-180 0 0 .807.824l.533-.004a.807.824-180 0 0 .807-.824l.003-6.366h6.19a.804.82-180 0 0 .781-.824l-.001-.526a.804.82-180 0 0-.781-.824Zm0 21.61H2.12v-6.32a.804.82-180 0 0-.803-.82H.82a.807.824-180 0 0-.807.82l.007 6.99a1.62 1.655-180 0 0 1.58 1.67h6.74a.826.844-180 0 0 .791-.887l-.001-.633a.804.82-180 0 0-.791-.82Zm26.95-21.55h-6.62a.804.82-180 0 0-.807.82l-.003.54a.8.818-180 0 0 .729.893l6.261.007v6.26a.804.82-180 0 0 .807.824l.563.006a.804.82-180 0 0 .807-.824l.003-6.866a1.62 1.655-180 0 0-1.63-1.66Zm.83 14.46h-.51a.804.82-180 0 0-.807.82l-.003 6.34h-6.13a.807.824-180 0 0-.807.824l-.003.556a.807.824-180 0 0 .807.824l6.713-.004a1.637 1.672-180 0 0 1.64-1.65v-6.89a.807.824-180 0 0-.801-.828.557.57-180 0 0-.098.007z" style="fill:#fff;stroke:none;stroke-width:32.53070068;stroke-linecap:butt"/></g></g></g></svg>