<svg xmlns="http://www.w3.org/2000/svg" xml:space="preserve" width="56.698" height="56.706" style="font-size:12px;overflow:visible;color-interpolation-filters:sRGB;fill-rule:evenodd;stroke-linecap:square;stroke-miterlimit:3" viewBox="0 0 56.698 56.706"><defs><linearGradient id="a" x1="-.002" x2="37.517" y1="71.345" y2="71.345" gradientTransform="scale(.87293 1.14556)" gradientUnits="userSpaceOnUse"><stop offset="0" stop-color="#949494"/><stop offset=".53" stop-color="#a2a2a2"/><stop offset="1" stop-color="#b3b3b3"/></linearGradient><linearGradient id="b" x1="0" x2="42.087" y1="105.37" y2="105.37" gradientTransform="scale(1.18232 .8458)" gradientUnits="userSpaceOnUse"><stop offset="0" stop-color="#0078d4"/><stop offset=".16" stop-color="#1380da"/><stop offset=".53" stop-color="#3c91e5"/><stop offset=".82" stop-color="#559cec"/><stop offset="1" stop-color="#5ea0ef"/></linearGradient></defs><g transform="translate(-34 -33.997)"><title>Page-1</title><g transform="translate(34.001 -34.016)"><title>Instance Pool.12035</title><title>Sheet.12036</title><g transform="translate(13.34 -13.717)"><title>Sheet.12037</title><path d="M32.75 122.78a1.968 1.993 0 0 1-1.9 1.93H1.9a1.9 1.926 0 0 1-1.9-1.93V83.66a1.834 1.858 0 0 1 1.83-1.93h29.02a1.9 1.926 0 0 1 1.9 1.93z" style="fill:#777;stroke:none;stroke-width:34;stroke-linecap:butt"/></g><g transform="translate(6.67 -6.96)"><title>Sheet.12038</title><path d="M32.75 122.78a1.968 1.993 0 0 1-1.9 1.93H1.9a1.9 1.926 0 0 1-1.9-1.93V83.66a1.834 1.858 0 0 1 1.83-1.93h29.02a1.9 1.926 0 0 1 1.9 1.93z" style="fill:#999;stroke:none;stroke-width:34;stroke-linecap:butt"/></g><g transform="translate(0 -.203)"><title>Sheet.12039</title><path d="M32.75 122.78a1.968 1.993 0 0 1-1.9 1.93H1.9a1.934 1.96 0 0 1-1.9-1.93V83.66a1.834 1.858 0 0 1 1.83-1.93h29.02a1.9 1.926 0 0 1 1.9 1.93z" style="fill:url(#a);stroke:none;stroke-width:34;stroke-linecap:butt"/></g><g transform="translate(4.802 -30.475)"><title>Sheet.12040</title><path d="M0 121.13a3.535 3.581 0 0 1 3.53-3.62h16.35a3.568 3.615 0 0 1 3.66 3.38 3.602 3.649 0 0 1-3.6 3.82H3.53A3.602 3.649 0 0 1 0 121.13" style="fill:#003067;stroke:none;stroke-width:34;stroke-linecap:butt"/></g><g transform="translate(6.136 -31.624)"><title>Sheet.12041</title><ellipse cx="2.401" cy="122.276" rx="2.401" ry="2.433" style="fill:#50e6ff;stroke:none;stroke-width:34;stroke-linecap:butt"/></g><g transform="translate(6.937)"><title>Sheet.12042</title><path d="M49.76 113.53a11.172 11.318-180 0 0-9.71-10.88 14.04 14.224-180 0 0-14.5-13.52 14.373 14.562-180 0 0-13.81 9.39A13.34 13.514-180 0 0 0 111.53a13.54 13.717-180 0 0 14.01 13.18h24.64a11.272 11.42-180 0 0 11.11-11.18" style="fill:url(#b);stroke:none;stroke-width:34;stroke-linecap:butt"/></g><g transform="translate(14.84 -3.75)"><title>Sheet.12043</title><path d="M28.88 118.53v-11.36h-3.1v13.92h8.17v-2.56zM5.2 112.95a8.904 9.02 0 0 1-1.7-1.05 1.567 1.588 0 0 1-.4-1.08 1.067 1.081 0 0 1 .5-1.01 2.101 2.129 0 0 1 1.4-.41 5.603 5.676 0 0 1 3.34.98v-2.9a9.404 9.528-180 0 0-3.34-.51 5.67 5.744-180 0 0-3.63 1.12 3.602 3.649-180 0 0-1.37 3 4.502 4.561-180 0 0 3.13 4.06 8.37 8.48 0 0 1 2.04 1.21 1.4 1.419 0 0 1 .5 1.08 1.1 1.115 0 0 1-.5 1.02 2.601 2.635 0 0 1-1.5.4 5.37 5.44 0 0 1-3.5-1.42v3.11a7.604 7.703-180 0 0 3.33.78 6.436 6.52-180 0 0 3.84-.95 3.535 3.581-180 0 0 1.43-3.07 3.335 3.379-180 0 0-.83-2.37 7.537 7.636-180 0 0-2.74-1.99m17.21 5.34a7.77 7.872-180 0 0 1.1-4.26 7.57 7.67-180 0 0-.83-3.78 5.67 5.744-180 0 0-2.3-2.5 6.27 6.352-180 0 0-3.54-.88 7.003 7.095-180 0 0-3.33.98 6.236 6.318-180 0 0-2.44 2.6 8.304 8.413-180 0 0-.9 3.85 7.604 7.703-180 0 0 .8 3.55 6.203 6.284-180 0 0 2.27 2.5 6.903 6.994-180 0 0 3.33.98l2.84 3.38h4.1l-3.97-3.72a6.07 6.149-180 0 0 2.87-2.7m-3.1-.85a3.101 3.142 0 0 1-2.54 1.19 3.068 3.108 0 0 1-2.5-1.22 5.002 5.068 0 0 1-.93-3.38 4.769 4.831 0 0 1 .97-3.38 3.101 3.142 0 0 1 2.56-1.25 2.901 2.94 0 0 1 2.47 1.25 4.936 5 0 0 1 .94 3.38 4.902 4.967 0 0 1-.97 3.41" style="fill:#f2f2f2;stroke:none;stroke-width:34;stroke-linecap:butt"/></g></g></g></svg>