<svg xmlns="http://www.w3.org/2000/svg" xmlns:xlink="http://www.w3.org/1999/xlink" xml:space="preserve" width="56.6" height="56.689" style="font-size:12px;overflow:visible;color-interpolation-filters:sRGB;fill-rule:evenodd;stroke-linecap:square;stroke-miterlimit:3" viewBox="0 0 56.6 56.689"><defs><linearGradient id="c" x1="0" x2="19.045" y1="105.567" y2="105.567" gradientTransform="scale(.99921 1.00079)" gradientUnits="userSpaceOnUse"><stop offset="0" stop-color="#773adc"/><stop offset="1" stop-color="#a67af4"/></linearGradient><linearGradient id="a" x1="0" x2="1" y1="0" y2="0" gradientTransform="rotate(90 .5 .5)"><stop offset="0" stop-color="#a67af4"/><stop offset="1" stop-color="#773adc"/></linearGradient><linearGradient id="f" x1="0" x2="12.581" y1="126.886" y2="126.886" gradientTransform="scale(1.11833 .89419)" gradientUnits="userSpaceOnUse"><stop offset="0" stop-color="#a67af4"/><stop offset="1" stop-color="#773adc"/></linearGradient><linearGradient id="i" x1="0" x2="15.763" y1="432.025" y2="432.025" gradientTransform="scale(3.59064 .2785)" gradientUnits="userSpaceOnUse"><stop offset="0" stop-color="#83b9f9"/><stop offset="1" stop-color="#5ea0ef"/></linearGradient><linearGradient id="b" x1="0" x2="1" y1="0" y2="0" gradientTransform="rotate(90 .5 .5)"><stop offset="0" stop-color="#0078d4"/><stop offset="1" stop-color="#005ba1"/></linearGradient><linearGradient xlink:href="#a" id="d" x1="0" x2="16.861" y1="123.888" y2="123.888" gradientTransform="scale(1.12861 .88604)" gradientUnits="userSpaceOnUse"/><linearGradient xlink:href="#a" id="e" x1="0" x2="15.736" y1="95.768" y2="95.768" gradientTransform="scale(.89411 1.11843)" gradientUnits="userSpaceOnUse"/><linearGradient xlink:href="#a" id="g" x1="0" x2="12.581" y1="126.886" y2="126.886" gradientTransform="scale(1.11833 .89419)" gradientUnits="userSpaceOnUse"/><linearGradient xlink:href="#a" id="h" x1="0" x2="15.736" y1="95.768" y2="95.768" gradientTransform="scale(.89411 1.11843)" gradientUnits="userSpaceOnUse"/><linearGradient xlink:href="#b" id="j" x1=".022" x2="21.888" y1="136.486" y2="136.486" gradientTransform="scale(1.26976 .78755)" gradientUnits="userSpaceOnUse"/><linearGradient xlink:href="#b" id="k" x1="0" x2="16.443" y1="118.379" y2="118.379" gradientTransform="scale(1.08108 .925)" gradientUnits="userSpaceOnUse"/><linearGradient xlink:href="#b" id="l" x1=".019" x2="16.051" y1="115.432" y2="115.432" gradientTransform="scale(1.05415 .94863)" gradientUnits="userSpaceOnUse"/></defs><g transform="translate(-34 -34.005)"><title>Page-1</title><g transform="translate(33.984 -34.016)"><title>Kubernetes Fleet Manager.11981</title><title>Sheet.11982</title><g transform="translate(18.804 -37.63)"><title>Sheet.11983</title><path d="M0 123.45a1.26 1.263-180 0 0 1.26 1.26h16.51a1.26 1.263-180 0 0 1.26-1.26v-16.54a1.26 1.263-180 0 0-1.26-1.26H1.26A1.26 1.263-180 0 0 0 106.91Z" style="fill:url(#c);stroke:none;stroke-width:34;stroke-linecap:butt"/></g><g transform="translate(20.47 -39.299)"><title>Sheet.11984</title><path d="M15.37 124.71H.34a.336.337 0 0 1-.336-.34L0 109.32c0-.18.15-.33.34-.34h15.02c.18 0 .34.15.34.34v15.05a.34.34 0 0 1-.33.34" style="fill:#773adc;stroke:none;stroke-width:34;stroke-linecap:butt"/></g><g transform="translate(22.665 -40.725)"><title>Sheet.11985</title><path d="M0 111.84h3.95v12.87H0Zm7.35-.01h3.96v12.88H7.35Z" style="fill:#b796f9;stroke:none;stroke-width:34;stroke-linecap:butt"/></g><g transform="translate(18.804 -20.267)"><title>Sheet.11986</title><path d="M6.51 122.28a8.281 8.296 0 0 1 5.65-.02l6.87 2.45v-13.67a1.26 1.263-180 0 0-1.26-1.27H1.26A1.26 1.263-180 0 0 0 111.04v13.62z" style="fill:url(#d);stroke:none;stroke-width:34;stroke-linecap:butt"/></g><g transform="translate(20.47 -20.862)"><title>Sheet.11987</title><path d="M4.84 122.87a8.281 8.296 0 0 1 5.65-.02l5.2 1.86v-12.33a.34.34-180 0 0-.34-.34H.34a.336.337-180 0 0-.336.34L0 124.65l4.84-1.77Z" style="fill:#773adc;stroke:none;stroke-width:34;stroke-linecap:butt"/></g><g transform="translate(22.665 -21.65)"><title>Sheet.11988</title><path d="m8.3 123.63 3.01 1.08v-10.46H7.35v9.11c.32.08.64.16.95.27m-5.65.03c.42-.16.86-.27 1.3-.36v-9.04H0v10.37z" style="fill:#b796f9;stroke:none;stroke-width:34;stroke-linecap:butt"/></g><g transform="translate(2.503 -31.52)"><title>Sheet.11989</title><path d="M14.07 107.11H1.16A1.163 1.165-180 0 0 0 108.28v15.26c0 .65.52 1.17 1.16 1.17h12.91z" style="fill:url(#e);stroke:none;stroke-width:34;stroke-linecap:butt"/></g><g transform="translate(4.037 -33.063)"><title>Sheet.11990</title><path d="M12.54 110.2H.31a.314.315-180 0 0-.311.312L0 124.4c0 .17.14.31.31.31h12.22V110.2Z" style="fill:#773adc;stroke:none;stroke-width:34;stroke-linecap:butt"/></g><g transform="translate(6.065 -34.376)"><title>Sheet.11991</title><path d="M0 112.83h3.65v11.88H0Zm6.79-.01h3.65v11.89H6.79Z" style="fill:#b796f9;stroke:none;stroke-width:34;stroke-linecap:butt"/></g><g transform="translate(2.503 -18.093)"><title>Sheet.11992</title><path d="M6.34 122.38a6.703 6.715 0 0 1 4.59-.02l3.14 1.12v-10.02H1.16A1.163 1.165-180 0 0 0 114.62v10.09l6.35-2.33z" style="fill:url(#f);stroke:none;stroke-width:34;stroke-linecap:butt"/></g><g transform="translate(4.037 -18.66)"><title>Sheet.11993</title><path d="M4.81 122.95a6.703 6.715 0 0 1 4.58-.02l3.14 1.12v-8.48H.31a.314.315-180 0 0-.311.312L0 124.71l4.81-1.77Z" style="fill:#773adc;stroke:none;stroke-width:34;stroke-linecap:butt"/></g><g transform="translate(6.065 -19.34)"><title>Sheet.11994</title><path d="m7.37 123.61 3.07 1.1v-7.15H6.79v5.87c.19.05.38.11.58.18m-4.59.02c.29-.11.57-.18.87-.25v-5.81H0v7.08z" style="fill:#b796f9;stroke:none;stroke-width:34;stroke-linecap:butt"/></g><g transform="translate(39.888 -18.093)"><title>Sheet.11995</title><path d="M7.72 122.38a6.703 6.715-180 0 0-4.58-.02L0 123.48v-10.02h12.91a1.163 1.165 0 0 1 1.16 1.16v10.09z" style="fill:url(#g);stroke:none;stroke-width:34;stroke-linecap:butt"/></g><g transform="translate(39.888 -18.66)"><title>Sheet.11996</title><path d="M7.72 122.95a6.703 6.715-180 0 0-4.58-.02L0 124.05v-8.48h12.22a.314.315 0 0 1 .311.312l-.001 8.828-4.81-1.77Z" style="fill:#773adc;stroke:none;stroke-width:34;stroke-linecap:butt"/></g><g transform="translate(39.954 -19.34)"><title>Sheet.11997</title><path d="M3.07 123.61 0 124.71v-7.15h3.65v5.87a7.64 7.653-180 0 0-.58.18m4.59.02a6.348 6.359-180 0 0-.87-.25v-5.81h3.65v7.08z" style="fill:#b796f9;stroke:none;stroke-width:34;stroke-linecap:butt"/></g><g transform="translate(39.888 -31.52)"><title>Sheet.11998</title><path d="M0 107.11h12.91a1.163 1.165 0 0 1 1.16 1.17v15.26a1.163 1.165 0 0 1-1.16 1.17H0Z" style="fill:url(#h);stroke:none;stroke-width:34;stroke-linecap:butt"/></g><g transform="translate(39.888 -33.063)"><title>Sheet.11999</title><path d="M0 110.2h12.22a.314.315 0 0 1 .311.312L12.53 124.4a.311.312 0 0 1-.311.312L0 124.71Z" style="fill:#773adc;stroke:none;stroke-width:34;stroke-linecap:butt"/></g><g transform="translate(39.957 -34.376)"><title>Sheet.12000</title><path d="M6.78 112.83h3.65v11.88H6.78ZM0 112.82h3.65v11.89H0Z" style="fill:#b796f9;stroke:none;stroke-width:34;stroke-linecap:butt"/></g><g transform="translate(.016)"><title>Sheet.12001</title><path d="M56.59 121.38c-.83.53-1.66 1.06-3.32 1.06-1.65 0-2.48-.53-3.31-1.06-.82-.52-1.65-1.05-3.29-1.06h-.03c-1.65 0-2.48.53-3.3 1.06-.83.53-1.65 1.06-3.3 1.06s-2.47-.53-3.3-1.06c-.62-.4-1.24-.79-2.22-.97a6.26 6.27-180 0 0-1.09-.09h-.01c-1.65 0-2.48.53-3.3 1.06-.83.53-1.65 1.06-3.3 1.06-1.66 0-2.48-.53-3.31-1.06-.82-.53-1.65-1.06-3.3-1.06h-.01c-1.65 0-2.47.53-3.3 1.06-.82.53-1.65 1.05-3.29 1.06-1.65 0-2.47-.53-3.29-1.06-.83-.53-1.66-1.06-3.31-1.06h-.02c-1.66 0-2.48.53-3.31 1.06-.82.53-1.64 1.06-3.28 1.06-.14 0-.27-.01-.4-.01v2.28h56.6z" style="fill:url(#i);stroke:none;stroke-width:34;stroke-linecap:butt"/></g><g transform="translate(14.406 -4.05)"><title>Sheet.12002</title><path d="m.39 114.12 3.18 6.84.1.22.68 1.54c.42-.08.89-.12 1.42-.13h.1c2.14.01 3.29.75 4.21 1.34.73.47 1.21.78 2.35.78 1.13 0 1.61-.31 2.34-.78.93-.59 2.08-1.33 4.21-1.34h.1c.49 0 .93.04 1.36.12.98.17 1.7.52 2.29.86l1.18-2.36.03.01.12-.26.17-.34.15-.29 3.03-6.2s.49-1.31.36-1.61a1.157 1.159-180 0 0-.68-.66l-2.57-.92-8.62-3.08a6.36 6.371-180 0 0-4.33.02l-8.61 3.16-2.24.83a1.141 1.143-180 0 0-.67.64c-.05.11-.01.38.05.66.11.45.28.95.28.95z" style="fill:url(#j);stroke:none;stroke-width:34;stroke-linecap:butt"/></g><g transform="translate(38.829 -4.053)"><title>Sheet.12003</title><path d="M5.15 111.79c.2.48.35 1.16-.34 3.02l-.03.09-.05.09-3.04 6.2-.14.29-.17.34-.12.26-.78 1.59-.04-.02-.41.82-.03.06c.33.11.71.18 1.22.18 1.13 0 1.61-.31 2.35-.78.92-.59 2.26-1.34 4.23-1.34 2.26 0 3.91.89 5.1 1.52l.76-1.54.97-1.95.02.01.1-.2.14-.28.12-.24 2.46-5.03s.39-1.06.29-1.3a.927.93-180 0 0-.553-.53l-2.077-.75-6.99-2.5a5.162 5.171-180 0 0-3.52.02l-.97.36a3.094 3.099 0 0 1 1.49 1.61z" style="fill:url(#k);stroke:none;stroke-width:34;stroke-linecap:butt"/></g><g transform="translate(0 -4.047)"><title>Sheet.12004</title><path d="m.31 114.88 2.58 5.55.08.17.69 1.56.45 1.01c.73-.33 1.64-.58 2.9-.58h.03c2.17 0 3.32.75 4.25 1.34.73.47 1.21.78 2.34.78 1.12 0 1.61-.31 2.34-.78a13.205 13.228 0 0 1 .95-.56l-.56-1.28-.05-.09-.1-.21-3.18-6.84-.04-.09-.03-.09a11.875 11.895 0 0 1-.34-1.15c-.13-.56-.23-1.21.04-1.85a3.1 3.105 0 0 1 1.41-1.55l-1.17-.42a5.162 5.171-180 0 0-3.51.02l-6.98 2.56-1.83.67a.943.945-180 0 0-.544.523c-.036.097-.006.307.044.537.09.37.23.77.23.77" style="fill:url(#l);stroke:none;stroke-width:34;stroke-linecap:butt"/></g></g></g></svg>