<svg xmlns="http://www.w3.org/2000/svg" xmlns:xlink="http://www.w3.org/1999/xlink" xml:space="preserve" width="56.694" height="42.519" style="font-size:12px;overflow:visible;color-interpolation-filters:sRGB;fill-rule:evenodd;stroke-linecap:square;stroke-miterlimit:3" viewBox="0 0 56.694 42.519"><defs><linearGradient id="a" x1="0" x2="1" y1="0" y2="0"><stop offset="0" stop-color="#b77af4"/><stop offset="1" stop-color="#773adc"/></linearGradient><linearGradient xlink:href="#a" id="b" x1="0" x2="30.497" y1="89.26" y2="89.26" gradientTransform="scale(1.08338 .92304)" gradientUnits="userSpaceOnUse"/><linearGradient xlink:href="#a" id="c" x1="0" x2="30.497" y1="89.26" y2="89.26" gradientTransform="scale(1.08338 .92304)" gradientUnits="userSpaceOnUse"/></defs><g transform="translate(-34 -34.005)"><title>Page-1</title><g transform="translate(34 -34.016)"><title>Kubernetes Workload.11908</title><title>Sheet.11909</title><g transform="translate(0 -14.37)"><title>Sheet.11910</title><path d="M21.42 98.77a1.065 1.03 0 0 1 .87-1.02l10.75-1.92v-6.98a1.443 1.396-180 0 0-.97-1.32L16.5 82.39 0 85.33v21.78l16.5 3.43 4.91-1.92z" style="fill:url(#b);stroke:none;stroke-width:34;stroke-linecap:butt"/></g><g transform="translate(.268 -14.648)"><title>Sheet.11911</title><path d="m16.85 110.45 14.87-5.8a1.446 1.4-180 0 0 .91-1.29v-14.1a1.44 1.393-180 0 0-.98-1.32l-15.01-4.93a1.376 1.332-180 0 0-.7-.06L.91 85.63A1.109 1.073-180 0 0 0 86.69v19.72a1.102 1.067-180 0 0 .88 1.05l15.16 3.05a1.395 1.35-180 0 0 .81-.06" style="fill:none;stroke:none;stroke-width:34;stroke-linecap:butt"/></g><g transform="translate(0 -14.37)"><title>Sheet.11912</title><path d="M0 85.33v21.78l16.66 3.43V82.39Zm7 20.14-4.67-.91v-16.8L7 87.01Zm7.28 1.27-5.35-.84V86.73l5.35-.91z" style="fill:#341a6e;stroke:none;stroke-width:34;stroke-linecap:butt"/></g><g transform="translate(23.921 -.279)"><title>Sheet.11913</title><path d="m16.85 110.45 14.87-5.8a1.44 1.393-180 0 0 .91-1.29V89.25a1.44 1.393-180 0 0-.98-1.32L16.64 83a1.402 1.357-180 0 0-.7-.05L.91 85.62A1.106 1.07-180 0 0 0 86.67v19.74a1.106 1.07-180 0 0 .88 1.05l15.16 3.05a1.395 1.35-180 0 0 .81-.06" style="fill:none;stroke:none;stroke-width:34;stroke-linecap:butt"/></g><g transform="translate(23.654)"><title>Sheet.11914</title><path d="M16.5 82.39 0 85.33v21.78l16.5 3.43 15.64-6.1a1.44 1.393-180 0 0 .9-1.3V88.85a1.443 1.396-180 0 0-.98-1.32z" style="fill:url(#c);stroke:none;stroke-width:34;stroke-linecap:butt"/></g><g transform="translate(23.654)"><title>Sheet.11915</title><path d="M0 85.33v21.78l16.66 3.43V82.39Zm7 20.14-4.67-.91V87.75L7 87Zm7.28 1.26-5.35-.83V86.73l5.35-.91z" style="fill:#341a6e;stroke:none;stroke-width:34;stroke-linecap:butt"/></g></g></g></svg>