<svg xmlns="http://www.w3.org/2000/svg" xml:space="preserve" width="51.024" height="56.69" style="font-size:12px;overflow:visible;color-interpolation-filters:sRGB;fill-rule:evenodd;stroke-linecap:square;stroke-miterlimit:3" viewBox="0 0 51.024 56.69"><g transform="translate(-34 -34.004)"><title>Page-1</title><g transform="translate(34 -34.016)"><title>Kubernetes Policy.11930</title><title>Sheet.11931</title><g transform="translate(17.491 -20.46)"><title>Sheet.11932</title><ellipse cx="7.951" cy="116.835" rx="7.951" ry="7.874" style="fill:#59b4d9;stroke:none;stroke-width:34;stroke-linecap:butt"/></g><g transform="translate(34.779 -31.849)"><title>Sheet.11933</title><ellipse cx="3.893" cy="120.854" rx="3.893" ry="3.855" style="fill:#59b4d9;stroke:none;stroke-width:34;stroke-linecap:butt"/></g><g transform="translate(34.779 -17.109)"><title>Sheet.11934</title><ellipse cx="3.893" cy="120.854" rx="3.893" ry="3.855" style="fill:#59b4d9;stroke:none;stroke-width:34;stroke-linecap:butt"/></g><g transform="translate(44.383 -12.425)"><title>Sheet.11935</title><ellipse cx="3.32" cy="121.42" rx="3.32" ry="3.288" style="fill:#59b4d9;stroke:none;stroke-width:34;stroke-linecap:butt"/></g><g transform="translate(44.523 -37.76)"><title>Sheet.11936</title><ellipse cx="3.18" cy="121.559" rx="3.18" ry="3.15" style="fill:#59b4d9;stroke:none;stroke-width:34;stroke-linecap:butt"/></g><g transform="translate(44.523 -25.184)"><title>Sheet.11937</title><ellipse cx="3.18" cy="121.559" rx="3.18" ry="3.15" style="fill:#59b4d9;stroke:none;stroke-width:34;stroke-linecap:butt"/></g><g transform="translate(34.88 -45.342)"><title>Sheet.11938</title><ellipse cx="2.29" cy="122.441" rx="2.29" ry="2.268" style="fill:#3999c6;stroke:none;stroke-width:34;stroke-linecap:butt"/></g><title>Sheet.11939</title><path d="M25.51 119.49 4.58 107.9V84.83l20.93-11.6 10.44 5.79 2.31-3.92-12.75-7.08L0 82.19v28.35l25.51 14.17 12.75-7.09-2.31-3.92z" style="fill:#3999c6;stroke:none;stroke-width:34;stroke-linecap:butt"/><g transform="translate(34.88 -6.816)"><title>Sheet.11940</title><ellipse cx="2.29" cy="122.441" rx="2.29" ry="2.268" style="fill:#3999c6;stroke:none;stroke-width:34;stroke-linecap:butt"/></g></g></g></svg>