<svg xmlns="http://www.w3.org/2000/svg" xmlns:xlink="http://www.w3.org/1999/xlink" xml:space="preserve" width="56.69" height="51.791" style="font-size:12px;overflow:visible;color-interpolation-filters:sRGB;fill-rule:evenodd;stroke-linecap:square;stroke-miterlimit:3" viewBox="0 0 56.69 51.791"><defs><linearGradient id="a" x1="0" x2="1" y1="0" y2="0" gradientTransform="rotate(-90.448 .5 .5)"><stop offset="0" stop-color="#ccc"/><stop offset=".125" stop-color="#d7d7d7"/><stop offset="1" stop-color="#fcfcfc"/></linearGradient><linearGradient id="b" x1="0" x2="1" y1="0" y2="0" gradientTransform="rotate(-90 .5 .5)"><stop offset="0" stop-color="#ccc"/><stop offset=".125" stop-color="#d7d7d7"/><stop offset="1" stop-color="#fcfcfc"/></linearGradient><linearGradient xlink:href="#a" id="d" x1="0" x2="13.89" y1="105.992" y2="105.992" gradientTransform="scale(1.0009 .9991)" gradientUnits="userSpaceOnUse"/><linearGradient xlink:href="#b" id="e" x1="0" x2="9.025" y1="110.857" y2="110.857" gradientTransform="scale(1.0009 .9991)" gradientUnits="userSpaceOnUse"/><linearGradient xlink:href="#b" id="f" x1="0" x2="9.585" y1="110.296" y2="110.296" gradientTransform="scale(1.0009 .9991)" gradientUnits="userSpaceOnUse"/><linearGradient xlink:href="#a" id="g" x1="0" x2="13.89" y1="105.992" y2="105.992" gradientTransform="scale(1.0009 .9991)" gradientUnits="userSpaceOnUse"/><linearGradient xlink:href="#b" id="h" x1="0" x2="9.025" y1="110.857" y2="110.857" gradientTransform="scale(1.0009 .9991)" gradientUnits="userSpaceOnUse"/><radialGradient id="c" cx="-4.448" cy="81.228" r="59.657" fx="-4.448" fy="81.228" gradientTransform="scale(.999 1.001)" gradientUnits="userSpaceOnUse"><stop offset=".185" stop-color="#5ea0ef"/><stop offset="1" stop-color="#0078d4"/></radialGradient></defs><g transform="translate(-34 -33.963)"><title>Page-1</title><g transform="translate(34 -34.016)"><title>Kubernetes Networking.11953</title><title>MsPortalFx.base.images-20</title><g transform="translate(0 -3.056)"><title>Sheet.11955</title><path d="M0 119.77h56.69l-9.01-9.81a1.928 1.924-180 0 0-1.42-.63H11.9a1.915 1.912-180 0 0-1.31.52z" style="fill:#37c2b1;stroke:none;stroke-width:34;stroke-linecap:butt"/></g><g transform="translate(11.902 -13.33)"><title>Sheet.11956</title><path d="M29.99 119.77A21.625 21.587 0 0 1 3.5 85.66l.21-.17A21.625 21.587 0 0 1 30 119.76Z" style="fill:url(#c)"/><path d="M29.99 119.77A21.625 21.587 0 0 1 3.5 85.66l.21-.17A21.625 21.587 0 0 1 30 119.76" style="stroke:none;stroke-width:34;stroke-linecap:butt"/></g><g transform="translate(9.937 -15.56)"><title>Sheet.11957</title><path d="M2.13 109.13A47.852 47.767-180 0 0 0 115.79a23.849 23.806-180 0 0 1.57 2.34 21.266 21.228-180 0 0 1.42 1.64 45.124 45.044 0 0 1 2.75-8.8 6.93 6.917 0 0 1-3.61-1.84" style="fill:#fff;fill-opacity:.6;stroke:none;stroke-width:34;stroke-linecap:butt"/></g><g transform="translate(10 -35.505)"><title>Sheet.11958</title><path d="M4.56 117.55a30.378 30.324 0 0 1-1.76-7.48 21.449 21.41-180 0 0-2.8 3.71 34.079 34.018-180 0 0 1.45 5.99 6.986 6.973 0 0 1 3.11-2.22" style="fill:#f2f2f2;fill-opacity:.55;stroke:none;stroke-width:34;stroke-linecap:butt"/></g><g transform="translate(9.937 -24.259)"><title>Sheet.11959</title><ellipse cx="6.951" cy="112.836" rx="6.951" ry="6.939" style="fill:url(#d);stroke:none;stroke-width:34;stroke-linecap:butt"/></g><g transform="translate(18.164 -14.755)"><title>Sheet.11960</title><path d="M8.86 116a4.491 4.483 0 0 1 1.36-3.22 30.466 30.412 0 0 1-6.42-4.72 6.93 6.917 0 0 1-3.8 2.09 30.06 30.006-180 0 0 3.69 3.26 31.373 31.317-180 0 0 5.21 3.17 4.362 4.354 0 0 1-.04-.58m16.02.54a30.236 30.182 0 0 1-7-.81v.27a4.498 4.49 0 0 1-1.29 3.15 35.222 35.16-180 0 0 8.68.62 21.64 21.602-180 0 0 2.93-3.41 30.942 30.886 0 0 1-3.32.18" style="fill:#f2f2f2;fill-opacity:.55;stroke:none;stroke-width:34;stroke-linecap:butt"/></g><g transform="translate(27.02 -14.019)"><title>Sheet.11961</title><ellipse cx="4.517" cy="115.266" rx="4.517" ry="4.508" style="fill:url(#e);stroke:none;stroke-width:34;stroke-linecap:butt"/></g><g transform="translate(19.345 -30.572)"><title>Sheet.11962</title><path d="M10.99 110.05a34.491 34.43 0 0 1 15.11-3.68 21.307 21.269-180 0 0-3.78-3.67 36.661 36.596-180 0 0-11.94 2.83 31.165 31.11-180 0 0-2.44 1.19 43.326 43.249 0 0 1-5.04-7.4 21.225 21.187-180 0 0-2.77 1.07 45.354 45.273-180 0 0 5.25 7.86A31.496 31.44-180 0 0 0 112.67a6.93 6.917 0 0 1 3.43 2.8 30.139 30.085 0 0 1 4.91-3.92 69.833 69.708-180 0 0 9.41 8.22 4.693 4.685 0 0 1 1.55-2.51 67.452 67.331 0 0 1-8.31-7.21" style="fill:#f2f2f2;fill-opacity:.7;stroke:none;stroke-width:34;stroke-linecap:butt"/></g><g transform="translate(37.033 -24.92)"><title>Sheet.11963</title><ellipse cx="4.797" cy="114.986" rx="4.797" ry="4.788" style="fill:url(#f);stroke:none;stroke-width:34;stroke-linecap:butt"/></g><g transform="translate(44.825 -23.652)"><title>Sheet.11964</title><path d="m5.06 116.95-.81-.43-.08-.04-.76-.41-.13-.07-.68-.38-.18-.1-.8-.45A4.548 4.54 0 0 1 0 117.42l.94.54.22.12.88.49.09.05c.72.39 1.45.77 2.2 1.15a20.838 20.8-180 0 0 .73-2.82" style="fill:#f2f2f2;fill-opacity:.55;stroke:none;stroke-width:34;stroke-linecap:butt"/></g><g transform="translate(9.937 -24.259)"><title>Sheet.11965</title><ellipse cx="6.951" cy="112.836" rx="6.951" ry="6.939" style="fill:url(#g);stroke:none;stroke-width:34;stroke-linecap:butt"/></g><g transform="translate(27.02 -14.019)"><title>Sheet.11966</title><ellipse cx="4.517" cy="115.266" rx="4.517" ry="4.508" style="fill:url(#h);stroke:none;stroke-width:34;stroke-linecap:butt"/></g><title>Sheet.11967</title><path d="M0 116.72h56.69v1.14a1.921 1.918 0 0 1-1.92 1.91H1.92A1.921 1.918 0 0 1 0 117.86Z" style="fill:#42e8ca;stroke:none;stroke-width:34;stroke-linecap:butt"/></g></g></svg>