<svg xmlns="http://www.w3.org/2000/svg" xml:space="preserve" width="56.69" height="51.02" style="font-size:12px;overflow:visible;color-interpolation-filters:sRGB;fill-rule:evenodd;stroke-linecap:square;stroke-miterlimit:3" viewBox="0 0 56.69 51.02"><g transform="translate(-5.67 -5.104)"><title>Page-1</title><g transform="translate(5.67 -34.016)"><title>Kubernetes Cluster (Operator Nexus).12032</title><title>Sheet.12033</title><title>Sheet.12034</title><path d="M17.53 39.24c-5.35.99-7.89 1.45-8.02 1.45-.08 0-.16 2.84-.16 6.32v6.33l4.4.93 4.39.95 4.58-1.84 4.55-1.85-.03-4.66-.06-4.63-4.46-1.57c-2.46-.88-4.52-1.55-4.58-1.55-.06.02-.33.08-.61.12m-4.48 7.83v5.19l-.43-.1c-.25-.06-.77-.18-1.18-.24l-.72-.14.03-4.81.06-4.79.68-.12c.37-.08.88-.14 1.13-.16l.43-.02zm20.56-7.06c-1.93.36-3.8.72-4.15.78l-.63.12.04 6.28.06 6.3 4.35.96 4.34.95 4.52-1.87 4.52-1.86.06-4.64.04-4.65-4.52-1.55c-2.5-.84-4.68-1.53-4.83-1.51-.16.02-1.87.32-3.8.69m-1.07 7.24v5.17l-.43-.1c-.26-.06-.8-.18-1.23-.26l-.78-.16v-9.52l.68-.12c.37-.08.92-.14 1.23-.16l.53-.02zm-26.4 9.64c-1.29.24-3.2.6-4.23.8L0 58.03v6.24c0 5.75.02 6.23.33 6.33.2.05 2.22.51 4.5.99l4.15.91 4.52-1.85 4.52-1.84v-9.29l-4.56-1.55c-2.49-.88-4.63-1.57-4.77-1.55-.12 0-1.27.22-2.55.47M3.7 64.37v5.19l-.43-.1c-.25-.06-.78-.18-1.19-.24l-.72-.14.04-4.81.06-4.79.68-.12c.37-.08.88-.14 1.13-.16l.43-.02Zm19.87-7.2-3.99.72-.06 6.28-.04 6.31 1.4.31c6.57 1.48 7.64 1.67 7.93 1.5.18-.1 2.17-.96 4.41-1.87l4.09-1.69.06-4.66.04-4.65-.92-.34c-5.07-1.81-7.81-2.68-8.32-2.66-.33.02-2.4.34-4.6.75m-.39 7v5.19l-.89-.14c-.51-.06-1.04-.18-1.17-.24-.22-.07-.27-1.01-.27-4.85V59.4l.74-.12c.39-.08.81-.16.91-.2.68-.24.68-.18.68 5.09m19.91-6.92-4.13.82.04 6.26.06 6.25 4.42.97 4.43.95 4.34-1.77 4.35-1.77.05-4.73.04-4.75-4.52-1.55c-2.49-.86-4.61-1.53-4.73-1.51-.1.02-2.07.4-4.35.83m-.42 7.1c0 3.14-.08 5.17-.2 5.17-.1 0-.62-.1-1.17-.22l-.97-.22v-9.5l.45-.08c2.1-.48 1.89-1.03 1.89 4.85M14.03 74.51c-2.09.42-4.09.8-4.43.88l-.64.12v6.24c0 5.77.02 6.24.35 6.34.18.06 2.2.5 4.46 1.02l4.15.89 4.52-1.85 4.54-1.85v-9.28l-4.19-1.45c-2.29-.82-4.34-1.55-4.52-1.67-.19-.1-.37-.18-.39-.18-.03.02-1.77.37-3.85.79m-1.17 7.34v5.17l-.43-.1c-.25-.06-.8-.18-1.23-.26l-.78-.16v-9.52l.59-.12c.33-.08.87-.14 1.22-.16l.63-.02zm19.77-6.94c-2.24.42-4.11.76-4.13.78-.04 0-.06 2.8-.06 6.24v6.24l1.43.32c.76.18 2.76.62 4.46.98l3.04.67 4.56-1.85 4.53-1.87.06-4.61.04-4.63-4.42-1.55c-2.45-.84-4.66-1.54-4.93-1.52s-2.32.38-4.58.8m-.29 7.02v5.25l-.82-.18c-.47-.1-1.03-.22-1.26-.28l-.45-.1v-9.5l1.22-.2c.67-.1 1.23-.2 1.27-.22.02 0 .04 2.35.04 5.23" style="fill:#b8d432;stroke:none;stroke-width:2.10309005;stroke-linecap:butt"/></g></g></svg>