<svg xmlns="http://www.w3.org/2000/svg" xml:space="preserve" width="56.933" height="53.904" style="font-size:12px;overflow:visible;color-interpolation-filters:sRGB;fill-rule:evenodd;stroke-linecap:square;stroke-miterlimit:3" viewBox="0 0 56.933 53.904"><defs><linearGradient id="a" x1="-.134" x2="33.455" y1="42.445" y2="42.445" gradientTransform="scale(.6237 1.60335)" gradientUnits="userSpaceOnUse"><stop offset="0" stop-color="#a67af4"/><stop offset="1" stop-color="#773adc"/></linearGradient><linearGradient id="b" x1="-.004" x2="40.961" y1="54.844" y2="54.844" gradientTransform="scale(.7754 1.28966)" gradientUnits="userSpaceOnUse"><stop offset="0" stop-color="#5ea0ef"/><stop offset="1" stop-color="#0078d4"/></linearGradient></defs><g transform="translate(-33.987 -34.002)"><title>Page-1</title><g transform="translate(34.07 -34.053)"><title>Kubernetes GitOps.11977</title><title>Sheet.11978</title><title>Sheet.11979</title><path d="M12.8 101.34V88.66a10.454 10.443-180 1 0-4.82 0v12.68a10.432 10.421-180 0 0 2.41 20.57 10.173 10.162-180 0 0 1.07-.06 10.432 10.421-180 0 0 1.34-20.52zm-2.41 4.24a5.851 5.845 0 0 1 5.85 5.83 5.851 5.845 0 1 1-5.86-5.84zM4.55 78.56a5.851 5.845 0 0 1 5.84-5.86 5.855 5.848 0 1 1-5.84 5.86" style="fill:url(#a);stroke:none;stroke-width:34;stroke-linecap:butt"/><g transform="translate(25.088 -1.6)"><title>Sheet.11980</title><path d="M31.59 111.17a10.622 10.61-180 0 0-8.34-8.51V80.01a2.415 2.413-180 0 0-2.41-2.4h-9.9v-5.37a1.486 1.484-180 0 0-1.47-1.51 1.451 1.45-180 0 0-1.07.44L.45 79.13a1.739 1.737-180 0 0 .03 2.37l7.91 7.93a1.47 1.468-180 0 0 1.04.45 1.56 1.56-180 0 0 1.06-.43 1.48 1.478-180 0 0 .44-1.06v-5.97h7.54v20.39a10.565 10.554-180 1 0 13.13 8.36zm-4.45 1.67a5.848 5.842 0 1 1-5.85-5.83 5.855 5.848 0 0 1 5.85 5.83" style="fill:url(#b);stroke:none;stroke-width:34;stroke-linecap:butt"/></g></g></g></svg>