<svg xmlns="http://www.w3.org/2000/svg" xml:space="preserve" width="56.693" height="48.192" style="font-size:12px;overflow:visible;color-interpolation-filters:sRGB;fill-rule:evenodd;stroke-linecap:square;stroke-miterlimit:3" viewBox="0 0 56.693 48.192"><defs><linearGradient id="a" x1="0" x2="46.718" y1="94.297" y2="94.297" gradientTransform="scale(1.21345 .8241)" gradientUnits="userSpaceOnUse"><stop offset="0" stop-color="#0078d4"/><stop offset=".155" stop-color="#1380da"/><stop offset=".53" stop-color="#3c91e5"/><stop offset=".82" stop-color="#559cec"/><stop offset="1" stop-color="#5ea0ef"/></linearGradient></defs><g transform="translate(-34 -34.003)"><title>Page-1</title><g transform="translate(34 -34.016)"><title>Kubernetes Cluster Configuration.12024</title><title>MsPortalFx.base.images-78</title><g transform="translate(14.904 -38.17)"><title>Sheet.12026</title><path d="M27.23 116.21H24.4v-7.26a.333.324-180 0 0-.087 0H2.92a.31.302-180 0 0-.087 0l-.003 7.26H0v-7.4a2.821 2.743 0 0 1 2.92-2.62h21.39a2.821 2.743 0 0 1 2.92 2.62z" style="fill:#a3a3a3;stroke:none;stroke-width:34;stroke-linecap:butt"/></g><title>Sheet.12027</title><path d="M0 114.37a1.89 1.839-180 0 0 1.89 1.84H54.8a1.89 1.839-180 0 0 1.89-1.84V79.55a1.89 1.839-180 0 0-1.89-1.84H1.89A1.89 1.839-180 0 0 0 79.55Z" style="fill:url(#a);stroke:none;stroke-width:34;stroke-linecap:butt"/><g transform="translate(0 -24.402)"><title>Sheet.12028</title><path d="M0 111.956h56.693v4.251H0z" style="fill:#9cebff;stroke:none;stroke-width:34;stroke-linecap:butt"/></g><g transform="translate(20.4 -18.527)"><title>Sheet.12029</title><path d="M0 110.33h16.28v4.97a.937.911 0 0 1-.937.911L.94 116.21a.937.911 0 0 1-.937-.911l.007-4.969Z" style="fill:#005ba1;stroke:none;stroke-width:34;stroke-linecap:butt"/></g><g transform="translate(0 -3.414)"><title>Sheet.12030</title><path d="M0 101.67v9.71l15.49 4.83 2.9-8.81z" style="fill:#83b9f9;stroke:none;stroke-width:34;stroke-linecap:butt"/></g><g transform="translate(43.492 -2.753)"><title>Sheet.12031</title><path d="M13.2 100.52a9.064 8.813-180 1 0 0 15.69z" style="fill:#5ea0ef;stroke:none;stroke-width:34;stroke-linecap:butt"/></g></g></g></svg>