<svg xmlns="http://www.w3.org/2000/svg" xml:space="preserve" width="56.691" height="51.016" style="font-size:12px;overflow:visible;color-interpolation-filters:sRGB;fill-rule:evenodd;stroke-linecap:square;stroke-miterlimit:3" viewBox="0 0 56.691 51.016"><g transform="translate(-38.25 -38.254)"><title>Page-1</title><g transform="translate(38.25 -38.25)"><title>Kubernetes Deployment Center.12005</title><title>Sheet.12006</title><g transform="translate(1.407 -31.486)"><title>Sheet.12007</title><path d="m30.56 110.99-7.31-3L0 117.56l8.19 3.52zm8.88 3.64-22.52 10.21 6.25 2.68 23.88-9.76z" style="fill:#3999c6;stroke:none;stroke-width:38.25;stroke-linecap:butt"/></g><g transform="translate(25.66)"><title>Sheet.12008</title><path d="M10.15 116.53a11.438 11.172 0 0 1 13.52-10.98V87.76L0 97.83v29.69l11.96-4.97a11.374 11.11 0 0 1-1.81-6.02" style="fill:#59b4d9;stroke:none;stroke-width:38.25;stroke-linecap:butt"/></g><g transform="translate(25.66)"><title>Sheet.12009</title><path d="M10.15 116.53a11.438 11.172 0 0 1 13.52-10.98V87.76L0 97.83v29.69l11.96-4.97a11.374 11.11 0 0 1-1.81-6.02" style="fill:#fff;fill-opacity:.5;stroke:none;stroke-width:38.25;stroke-linecap:butt"/></g><g transform="translate(37.64 -1.807)"><title>Sheet.12010</title><path d="M9.52 108.91c-5.25 0-9.52 4.18-9.52 9.31s4.27 9.3 9.52 9.3c5.26 0 9.53-4.17 9.53-9.3 0-5.14-4.27-9.31-9.53-9.31m-4.6 13.18c-.32-.31-.35-.77 0-1.11l2.7-2.82-2.13-2.21c-.17-.17-.34-.33-.5-.5-.34-.36-.33-.82.02-1.14.29-.28.8-.27 1.12.05.96.95 1.9 1.91 2.85 2.87.15.16.31.31.46.48.33.36.34.78 0 1.12-1.13 1.09-2.26 2.18-3.4 3.26a.772.755 0 0 1-1.12 0m9.21-3.26c-1.13 1.09-2.26 2.18-3.4 3.26a.772.755 0 0 1-1.116 0c-.324-.31-.344-.77-.004-1.11l2.7-2.82-2.13-2.21c-.16-.17-.33-.33-.5-.5-.34-.36-.33-.82.03-1.14.29-.28.8-.27 1.11.05.96.95 1.9 1.91 2.85 2.87.16.16.32.31.47.48.32.36.33.78-.01 1.12" style="fill:#7a7a7a;stroke:none;stroke-width:38.25;stroke-linecap:butt"/></g><title>Sheet.12011</title><path d="M17.47 95.63v7.68l-4.67-5.62-4.7 1.79v-8.13L0 87.77v29.98l23.66 9.77V98.14Zm-1.21 15.78c-.47.31-1.12.18-1.35-.16l-2.65-3.84v8.38c0 .36-.44.93-1.07.93s-1.07-.57-1.07-.93v-9.45l-2.76 1.41c-.26.14-.96 0-1.23-.5s0-1.17.26-1.31l4.77-2.44a.684.668 0 0 1 .422-.142.709.692 0 0 1 .57.301l.038.041 4.43 6.42c.24.35.12.97-.36 1.29" style="fill:#59b4d9;stroke:none;stroke-width:38.25;stroke-linecap:butt"/><g transform="translate(37.64 -3.831)"><title>Sheet.12012</title><path d="m3.61 127.52 2.61-3.58-.18.17a.772.755 0 0 1-1.12 0c-.32-.31-.35-.76 0-1.11l2.7-2.82-2.13-2.2c-.17-.17-.34-.33-.5-.5-.34-.37-.33-.82.02-1.15.29-.27.8-.26 1.12.06.96.95 1.9 1.91 2.85 2.87l.37.38 1.05-1.44-.22-.22c-.16-.17-.33-.33-.49-.5-.35-.37-.34-.82.02-1.15.29-.27.8-.26 1.11.06l.52.51 3.28-4.51a9.46 9.241-180 0 0-5.1-1.45 9.535 9.314-180 0 0-9.52 9.3c0 2.95 1.42 5.58 3.61 7.28" style="fill:#a0a1a2;stroke:none;stroke-width:38.25;stroke-linecap:butt"/></g></g></g></svg>