<svg xmlns="http://www.w3.org/2000/svg" xml:space="preserve" width="56.39" height="56.699" style="font-size:12px;overflow:visible;color-interpolation-filters:sRGB;fill-rule:evenodd;stroke-linecap:square;stroke-miterlimit:3" viewBox="0 0 56.39 56.699"><defs><linearGradient id="a" x1="0" x2="45.336" y1="67.089" y2="67.089" gradientTransform="scale(.9015 1.10927)" gradientUnits="userSpaceOnUse"><stop offset="0" stop-color="#005ba1"/><stop offset="1" stop-color="#0078d4"/></linearGradient><linearGradient id="b" x1=".302" x2="30" y1="96.404" y2="96.404" gradientTransform="scale(1.01116 .98896)" gradientUnits="userSpaceOnUse"><stop offset="0" stop-color="#50e6ff"/><stop offset="1" stop-color="#32bedd"/></linearGradient></defs><g transform="translate(-34 -33.995)"><title>Page-1</title><g transform="translate(34 -34.016)"><title>Lab Plan.11892</title><title>Sheet.11893</title><g transform="translate(0 -6.41)"><title>Sheet.11894</title><path d="M0 123.03a1.668 1.676-180 0 0 1.67 1.68h37.54a1.668 1.676-180 0 0 1.66-1.68V76.1a1.668 1.676-180 0 0-1.66-1.68H1.67A1.668 1.676-180 0 0 0 76.1Z" style="fill:url(#a);stroke:none;stroke-width:34;stroke-linecap:butt"/></g><g transform="translate(4.971 -42.246)"><title>Sheet.11895</title><path d="M29.69 122.4H10.36a.443.445 0 0 1-.457-.452l.007-1.458a.443.445 0 0 1 .457-.432l19.343-.008a.443.445 0 0 1 .443.445l-.003 1.455a.443.445 0 0 1-.44.445zm-22.77 1.41v-5.17a.89.894-180 0 0-.89-.894l-5.14.004a.887.89-180 0 0-.887.89L0 123.81a.887.89-180 0 0 .883.894l5.147.006a.89.894-180 0 0 .89-.894z" style="fill:#fff;stroke:none;stroke-width:34;stroke-linecap:butt"/></g><g transform="translate(4.968 -28.177)"><title>Sheet.11896</title><path d="M29.7 122.4H10.37a.447.449 0 0 1-.447-.445L9.92 120.5a.443.445 0 0 1 .447-.445l19.343-.005a.443.445 0 0 1 .443.445l-.003 1.455a.45.452 0 0 1-.443.452zm-24.11-3.3H1.32v4.27h4.27zm.44-1.34a.89.894 0 0 1 .89.894v5.156a.89.894 0 0 1-.89.894l-5.14.006a.893.898 0 0 1-.89-.894v-5.176a.893.898 0 0 1 .89-.901z" style="fill:#fff;fill-opacity:.8;stroke:none;stroke-width:34;stroke-linecap:butt"/></g><g transform="translate(4.968 -14.107)"><title>Sheet.11897</title><path d="M29.7 122.4H10.37a.443.445 0 0 1-.443-.445L9.92 120.5a.447.449 0 0 1 .443-.449l19.347-.001a.447.449 0 0 1 .447.449l-.007 1.451a.443.445 0 0 1-.457.445zm-24.11-3.32H1.32v4.29h4.27zm.44-1.33a.887.89 0 0 1 .89.89v5.17a.89.894 0 0 1-.89.894l-5.14.006a.893.898 0 0 1-.89-.894v-5.186a.89.894 0 0 1 .89-.89z" style="fill:#fff;fill-opacity:.6;stroke:none;stroke-width:34;stroke-linecap:butt"/></g><g transform="translate(26.055)"><title>Sheet.11898</title><path d="M29.23 124.71H1.41c-.89 0-1.41-1.43-.91-2.16l9.59-14.04a1.1 1.105-180 0 0 .19-.62v-9.28a.552.554-180 0 0-.548-.554l-.512-.006a1.103 1.108 0 0 1-1.1-1.1v-.5a1.1 1.105 0 0 1 1.1-1.11h12.21a1.1 1.105 0 0 1 1.1 1.11v.5a1.103 1.108 0 0 1-1.1 1.11h-.52a.552.554-180 0 0-.552.554l.002 9.306a1.11 1.115-180 0 0 .2.63l9.58 13.99c.5.74-.02 2.17-.91 2.17" style="fill:url(#b);stroke:none;stroke-width:34;stroke-linecap:butt"/></g><g transform="translate(30.616 -2.74)"><title>Sheet.11899</title><path d="m.05 123.7 7.29-10.66a2.657 2.67-180 0 0 .46-1.51v-4.31a.846.85 0 0 1 .85-.85h4.13a.846.85 0 0 1 .846.85l.004 4.59a1.773 1.782-180 0 0 .31 1.02l7.45 10.88a.633.636 0 0 1-.521 1H.56a.633.636 0 0 1-.511-1.01z" style="fill:#fff;stroke:none;stroke-width:34;stroke-linecap:butt"/></g></g></g></svg>