<svg xmlns="http://www.w3.org/2000/svg" xml:space="preserve" width="53.409" height="56.7" style="font-size:12px;overflow:visible;color-interpolation-filters:sRGB;fill-rule:evenodd;stroke-linecap:square;stroke-miterlimit:3" viewBox="0 0 53.409 56.7"><defs><linearGradient id="a" x1=".487" x2="39.38" y1="74.195" y2="74.195" gradientTransform="scale(.9068 1.10277)" gradientUnits="userSpaceOnUse"><stop offset="0" stop-color="#5ea0ef"/><stop offset="1" stop-color="#0078d4"/></linearGradient><linearGradient id="b" x1=".004" x2="31.964" y1="66.145" y2="66.145" gradientTransform="scale(.78665 1.2712)" gradientUnits="userSpaceOnUse"><stop offset="0" stop-color="#ffbd02"/><stop offset="1" stop-color="#ffd400"/></linearGradient></defs><g transform="translate(-34 -33.996)"><title>Page-1</title><g transform="translate(33.557 -34.016)"><title>Lab Account.11900</title><title>Sheet.11901</title><g transform="translate(0 -13.808)"><title>Sheet.11902</title><path d="m35.71 121.64-6.59-6.67-.18-.17a5.9 5.999 0 0 1 .17-8.48l2.42-2.46-1.87-2.78a1.593 1.62 0 0 1-.28-.92V86.57a.793.806 0 0 1 .793-.806l.747.006a1.59 1.616-180 0 0 1.59-1.62v-.73a1.586 1.613-180 0 0-1.59-1.6H13.31a1.59 1.616-180 0 0-1.59 1.62v.71a1.593 1.62-180 0 0 1.59 1.62h.74a.796.81 0 0 1 .796.806l-.006 13.554a1.61 1.636 0 0 1-.27.91L.72 121.56c-.72 1.07.04 3.15 1.33 3.15h33.66z" style="fill:url(#a);stroke:none;stroke-width:34;stroke-linecap:butt"/></g><g transform="translate(28.707)"><title>Sheet.11903</title><path d="M23.76 100.14a4.5 4.575-180 0 0 .14-6.46l-.14-.14-8-8.05a4.496 4.572-180 0 0-6.37-.12l-.11.12-7.89 8.05a4.493 4.568-180 0 0-.14 6.46l.14.14 6.63 6.71a1.211 1.231 0 0 1 .38.91v12.46a1.573 1.6-180 0 0 .45 1.12l2.98 3.04a1.012 1.029-180 0 0 1.43.06l.06-.06 2.9-2.95 1.71-1.74a.634.644-180 0 0 0-.87l-1.24-1.26a.664.675 0 0 1 0-.935l1.24-1.255a.634.644-180 0 0 0-.87l-1.24-1.26a.664.675 0 0 1 0-.935l1.24-1.255a.61.62-180 0 0 0-.847l-1.71-1.763v-.64Zm-11.24-7.42a2.611 2.655 0 0 1-.05-5.3h.05a2.611 2.655 0 0 1 0 5.3" style="fill:url(#b);stroke:none;stroke-width:34;stroke-linecap:butt"/></g><g transform="translate(39 -4.203)"><title>Sheet.11904</title><path d="M.18 124.61a.564.574-180 0 0 .946-.432L1.12 114.11a.604.614-180 0 0-.269-.503.564.574-180 0 0-.856.503L0 124.18a.55.56-180 0 0 .18.432z" style="fill:#faa21d;stroke:none;stroke-width:34;stroke-linecap:butt"/></g><g transform="translate(34.906 -26.942)"><title>Sheet.11905</title><path d="M0 124a.697.709-180 0 0 .697.709l11.583.001a.697.709-180 0 0 .697-.708l.003-.142a.697.709-180 0 0-.697-.708L.7 123.15a.697.709-180 0 0-.697.709z" style="fill:#faa21d;stroke:none;stroke-width:34;stroke-linecap:butt"/></g><g transform="translate(34.906 -24.405)"><title>Sheet.11906</title><path d="M0 124a.697.709-180 0 0 .697.709l11.583.001a.697.709-180 0 0 .697-.708l.003-.142a.697.709-180 0 0-.697-.708L.7 123.15a.697.709-180 0 0-.697.709z" style="fill:#faa21d;stroke:none;stroke-width:34;stroke-linecap:butt"/></g><g transform="translate(6.59 -17.826)"><title>Sheet.11907</title><path d="M22.68 118.84a4.393 4.467 0 0 1-.18-.17 5.64 5.736 0 0 1-.07-7.89l-2.32-3.41a2.598 2.642 0 0 1-.46-1.49v-6.71a1.221 1.242-180 0 0-1.22-1.24h-5.97a1.224 1.245-180 0 0-1.23 1.24v6.28a3.859 3.924 0 0 1-.66 2.21L.06 123.25a.916.931-180 0 0 .753 1.457l27.657.003Z" style="fill:#fff;stroke:none;stroke-width:34;stroke-linecap:butt"/></g></g></g></svg>