<svg xmlns="http://www.w3.org/2000/svg" xml:space="preserve" width="56.69" height="51.027" style="font-size:12px;overflow:visible;color-interpolation-filters:sRGB;fill-rule:evenodd;stroke-linecap:square;stroke-miterlimit:3" viewBox="0 0 56.69 51.027"><defs><linearGradient id="a" x1="0" x2="37.803" y1="109.789" y2="109.789" gradientTransform="scale(1.23985 .80655)" gradientUnits="userSpaceOnUse"><stop offset="0" stop-color="#005ba1"/><stop offset="1" stop-color="#0078d4"/></linearGradient><linearGradient id="b" x1="0" x2="37.803" y1="109.789" y2="109.789" gradientTransform="scale(1.23985 .80655)" gradientUnits="userSpaceOnUse"><stop offset="0" stop-color="#0078d4"/><stop offset=".815" stop-color="#5ea0ef"/></linearGradient><linearGradient id="c" x1="0" x2="16.617" y1="151.302" y2="151.302" gradientTransform="scale(1.4106 .70891)" gradientUnits="userSpaceOnUse"><stop offset=".15" stop-color="#ccc"/><stop offset="1" stop-color="#707070"/></linearGradient><linearGradient id="d" x1=".221" x2="22.123" y1="100.258" y2="100.258" gradientTransform="scale(1.0262 .97446)" gradientUnits="userSpaceOnUse"><stop offset="0" stop-color="#9cebff"/><stop offset="1" stop-color="#50e6ff"/></linearGradient></defs><g transform="translate(-34 -33.997)"><title>Page-1</title><g transform="translate(34 -34.016)"><title>Lab.11880</title><title>Sheet.11881</title><g transform="translate(0 -20.537)"><title>Sheet.11882</title><path d="M0 117.51a1.563 1.525-180 0 0 1.56 1.53h43.75a1.563 1.525-180 0 0 1.56-1.53V90.08a1.563 1.525-180 0 0-1.56-1.53H1.56A1.563 1.525-180 0 0 0 90.08Z" style="fill:url(#a);stroke:none;stroke-width:34;stroke-linecap:butt"/></g><g transform="translate(9.82 -11.775)"><title>Sheet.11883</title><path d="M0 117.51a1.563 1.525-180 0 0 1.56 1.53h43.75a1.563 1.525-180 0 0 1.56-1.53V90.08a1.563 1.525-180 0 0-1.56-1.53H1.56A1.563 1.525-180 0 0 0 90.08Z" style="fill:url(#b);stroke:none;stroke-width:34;stroke-linecap:butt"/></g><g transform="translate(21.525)"><title>Sheet.11884</title><path d="M21.12 116.49c-4.64-.71-4.81-3.98-4.8-9.23H7.13c0 5.25-.17 8.52-4.81 9.23A2.727 2.66-180 0 0 0 119.04h23.44a2.737 2.67-180 0 0-2.32-2.55" style="fill:url(#c);stroke:none;stroke-width:34;stroke-linecap:butt"/></g><g transform="translate(21.79 -16.349)"><title>Sheet.11885</title><path d="M21.88 119.04H1.06c-.67 0-1.06-1.03-.69-1.57l7.18-10.2a.83.81-180 0 0 .146-.453l.004-6.747a.411.401-180 0 0-.415-.401l-.395.001a.823.803 0 0 1-.813-.796L6.07 98.5a.823.803 0 0 1 .813-.803l9.137.003a.823.803 0 0 1 .823.803l-.003.367a.823.803 0 0 1-.823.803l-.367-.003a.411.401-180 0 0-.415.401l-.005 6.759a.83.81-180 0 0 .146.453l7.184 10.187c.37.53-.02 1.57-.68 1.57" style="fill:url(#d);stroke:none;stroke-width:34;stroke-linecap:butt"/></g><g transform="translate(25.207 -18.343)"><title>Sheet.11886</title><path d="m.03 118.31 5.46-7.77a1.99 1.942-180 0 0 .35-1.1v-3.11a.634.618 0 0 1 .62-.612l3.09.002a.634.618 0 0 1 .634.618l.006 3.332a1.327 1.295-180 0 0 .23.74l5.57 7.9a.474.463 0 0 1-.391.725L.43 119.04a.474.463 0 0 1-.391-.731z" style="fill:#fff;stroke:none;stroke-width:34;stroke-linecap:butt"/></g></g></g></svg>