<svg xmlns="http://www.w3.org/2000/svg" xml:space="preserve" width="56.695" height="53.853" style="font-size:12px;overflow:visible;color-interpolation-filters:sRGB;fill-rule:evenodd;stroke-linecap:square;stroke-miterlimit:3" viewBox="0 0 56.695 53.853"><g transform="translate(-34 -34.003)"><title>Page-1</title><g transform="translate(34 -34.016)"><title>Proximity Placement Group.11866</title><title> ProximityPlacementGroups</title><g transform="translate(.01 -.03)"><title>Sheet.11868</title><path d="M0 115.43a.504.497-180 0 0 .283.466l3.847 2.194 6.51 3.73a.567.559-180 0 0 .756-.186l2.174-3.784a.504.497-180 0 0-.189-.714L5.73 112.76a.567.559 0 0 1-.252-.466L5.48 77.66a.567.559 0 0 1 .252-.465l7.648-4.375a.504.497-180 0 0 .189-.714L11.4 68.32a.567.559-180 0 0-.756-.186L4.35 71.79.28 74.06a.504.497-180 0 0-.283.465z" style="fill:#949494;stroke:none;stroke-width:34;stroke-linecap:butt"/></g><title>Sheet.11869</title><path d="m13.58 72.07-2.17-3.78a.567.559-180 0 0-.567-.248.346.341-180 0 0-.252 0L4.29 71.7.2 74.03l-.19.18a.756.745-180 0 0 0 .248l5.48 3.112a.567.559 0 0 1 .252-.465l7.648-4.315a.504.497-180 0 0 .189-.714zm0 45.75-2.17 3.78a.567.559 0 0 1-.567.248.346.341 0 0 1-.252 0L4.29 118.19.2 115.86l-.19-.18a.756.745 0 0 1 0-.248l5.48-3.112a.567.559-180 0 0 .252.466l7.648 4.374a.504.497 0 0 1 .189.652z" style="fill:#a3a3a3;stroke:none;stroke-width:34;stroke-linecap:butt"/><g transform="translate(43.054 -.03)"><title>Sheet.11870</title><path d="M13.64 74.52a.504.497-180 0 0-.283-.465L9.51 71.86 3 68.13a.567.559-180 0 0-.756.186L.07 72.1a.504.497-180 0 0 .189.714L7.91 77.19a.567.559 0 0 1 .252.465L8.16 112.29a.567.559 0 0 1-.252.466L.26 117.13a.504.497-180 0 0-.189.714l2.169 3.786a.567.559-180 0 0 .756.186l6.294-3.656 3.97-2.27a.504.497-180 0 0 .283-.465L13.54 74.52Z" style="fill:#949494;stroke:none;stroke-width:34;stroke-linecap:butt"/></g><g transform="translate(43.053)"><title>Sheet.11871</title><path d="m.07 117.82 2.17 3.78a.567.559-180 0 0 .567.248.346.341-180 0 0 .252 0l6.301-3.658 3.96-2.27.19-.18a.756.745-180 0 0 0-.248l-5.48-3.102a.567.559 0 0 1-.252.466L.13 117.23a.504.497-180 0 0-.063.59zm0-45.75 2.17-3.78a.567.559 0 0 1 .567-.248.346.341 0 0 1 .252 0L9.36 71.7l3.96 2.27.19.18a.756.745 0 0 1 0 .248L8.03 77.5a.567.559-180 0 0-.252-.465L.26 72.79a.504.497 0 0 1-.189-.714Z" style="fill:#a3a3a3;stroke:none;stroke-width:34;stroke-linecap:butt"/></g><g transform="translate(9.615 -13.895)"><title>Sheet.11872</title><path d="M17.23 120.97a.945.931 0 0 1-.976.9H1.01a.945.931 0 0 1-1.008-.9L0 96.61a.945.931 0 0 1 1.008-.9H16.25a.945.931 0 0 1 .976.9z" style="fill:#999;stroke:none;stroke-width:34;stroke-linecap:butt"/></g><g transform="translate(12.166 -26.836)"><title>Sheet.11873</title><path d="M0 119.83a1.952 1.924 0 0 1 1.86-2.02h8.56a1.984 1.955 0 0 1 1.89 2.02 1.984 1.955 0 0 1-1.89 2.04H1.86A1.952 1.924 0 0 1 0 119.83m0-6.02a1.984 1.955 0 0 1 1.86-2.05h8.56a2.015 1.986 0 0 1 1.89 2.05 1.984 1.955 0 0 1-1.89 2.01H1.86A1.952 1.924 0 0 1 0 113.81" style="fill:#003067;stroke:none;stroke-width:34;stroke-linecap:butt"/></g><g transform="translate(13.174 -33.54)"><title>Sheet.11874</title><ellipse cx="1.386" cy="120.509" rx="1.386" ry="1.365" style="fill:#50e6ff;stroke:none;stroke-width:34;stroke-linecap:butt"/></g><g transform="translate(13.174 -27.519)"><title>Sheet.11875</title><ellipse cx="1.386" cy="120.509" rx="1.386" ry="1.365" style="fill:#50e6ff;stroke:none;stroke-width:34;stroke-linecap:butt"/></g><g transform="translate(30.273 -13.895)"><title>Sheet.11876</title><path d="M17.23 120.97a.945.931 0 0 1-1.008.9H1.01a.945.931 0 0 1-1.008-.9L0 96.61a.945.931 0 0 1 1.008-.9H16.22a.945.931 0 0 1 1.008.9z" style="fill:#999;stroke:none;stroke-width:34;stroke-linecap:butt"/></g><g transform="translate(32.76 -26.836)"><title>Sheet.11877</title><path d="M.03 119.83a1.984 1.955 0 0 1 1.89-2.02h8.57a1.984 1.955 0 0 1 1.89 2.02 1.984 1.955 0 0 1-1.89 2.04h-8.6A1.984 1.955 0 0 1 0 119.83Zm0-6.02a2.015 1.986 0 0 1 1.89-2.05h8.57a2.015 1.986 0 0 1 1.89 2.05 1.984 1.955 0 0 1-1.89 2.01h-8.6A1.984 1.955 0 0 1 0 113.81Z" style="fill:#003067;stroke:none;stroke-width:34;stroke-linecap:butt"/></g><g transform="translate(33.831 -33.54)"><title>Sheet.11878</title><ellipse cx="1.386" cy="120.509" rx="1.386" ry="1.365" style="fill:#50e6ff;stroke:none;stroke-width:34;stroke-linecap:butt"/></g><g transform="translate(33.831 -27.519)"><title>Sheet.11879</title><ellipse cx="1.386" cy="120.509" rx="1.386" ry="1.365" style="fill:#50e6ff;stroke:none;stroke-width:34;stroke-linecap:butt"/></g></g></g></svg>