<svg xmlns="http://www.w3.org/2000/svg" xml:space="preserve" width="45.35" height="56.69" style="font-size:12px;overflow:visible;color-interpolation-filters:sRGB;fill-rule:evenodd;stroke-linecap:square;stroke-miterlimit:3" viewBox="0 0 45.35 56.69"><g transform="translate(-34 -34.004)"><title>Page-1</title><g transform="translate(34 -34.016)"><title>Quantum Workspace.11862</title><title>Sheet.11863</title><g transform="translate(.309)"><title>Sheet.11864</title><path d="M39.18 124.71q-.45 0 0 0l-11.1-6.62-5.56 3.15L0 108.02V81.24l22.21-13.22 22.53 13.22v27.09l-5.25 3.15 5.25 3.15v7.24z" style="fill:#0078d4;stroke:none;stroke-width:34;stroke-linecap:butt"/></g><title>Sheet.11865</title><path d="M45.35 108.02V81.24L22.52 68.02h-.31L0 81.24v27.09l22.52 13.23 5.56-3.15 5.55 3.15 5.55 3.15 5.56-3.15v-7.25l-5.25-3.14zc-.3 0 0 0 0 0M33.94 114v-5.67l4.94 2.84zM22.21 94.16l-4.62-2.84 4.62-2.83Zm.62-5.67 4.94 2.83-4.94 2.84zm-.92 6.3-4.63 2.83v-5.67zm.3.31v5.67l-4.62-2.83zm.62 0 4.94 2.84-4.94 2.83zm.31-.31 4.94-2.84v5.67zm0-6.62 4.94-2.83v5.67zm-5.86 2.84v-5.67l4.93 2.83zm-.62 6.61-4.94-2.83 4.94-2.84zm5.25 3.78-4.94 2.84v-5.67zm5.86-2.83v5.67l-4.94-2.84zm.62-6.62 4.93 2.84-4.93 2.83zm.3-.63 4.94-2.83v5.67zm-.3-.31v-5.67l4.93 2.83zm-5.56-3.47v-5.67l4.94 2.84zm-.62 0-4.62-2.83 4.62-2.84zm-5.55 3.47-4.94-2.84 4.94-2.83zm-.31.31-4.63 2.84v-5.67zm0 6.62-4.93 2.83V95.1Zm.31.63v5.67l-4.94-2.84zm5.55 3.15v5.67l-4.93-2.84zm.62 0 4.94 2.83-4.94 2.84zm5.56-3.15 4.93 2.83-4.93 2.84zm.3-.63 4.94-2.84v5.67zm5.25-9.45 4.94 2.83-4.94 2.84zm-5.25-3.78 4.94-2.84v5.67zm-5.55-3.15 4.94-2.84v5.67zm-5.86 2.83v-5.67l4.93 2.84zm-5.56 3.15v-5.67l4.94 2.84zm-.61 6.62-4.94-2.84 4.94-2.83zm0 6.61-4.94-2.83 4.94-2.84zm5.24 3.78-4.93 2.84v-5.67zm5.56 3.47-4.94 2.83v-5.67zm5.86-2.84v5.67l-4.94-2.83zm5.86-3.46v5.67l-4.94-2.84zm.31-6.62 4.94 2.84-4.94 2.83zm.31-.31 4.93-2.84v5.67zm0-6.62 4.93-2.83v5.67zm-.31-.63v-5.67l4.94 2.84zm-5.55-3.15v-5.67l4.93 2.84zm-5.56-3.46v-5.67l4.94 2.83zm-.62 0-4.62-2.84 4.62-2.83zm-5.55 3.46-4.94-2.83 4.94-2.84zm-5.55 3.15-4.94-2.83 4.94-2.84zm-.31.63-4.94 2.84v-5.67zm0 6.62-4.94 2.83v-5.67zm0 6.61-4.94 2.84v-5.67zm.31.32v5.67l-4.94-2.84zm5.55 3.46v5.67l-4.94-2.83zm5.55 3.15V114l-4.93-2.83zm.62 0 4.94 2.84-4.94 2.83zm5.56-3.15 4.93 2.84-4.93 2.83zm5.55-3.46 4.94 2.83-4.94 2.84zm.31-.32 4.93-2.83v5.67zm5.24-9.45 4.94 2.84-4.94 2.83zm0-6.61 4.94 2.83-4.94 2.84zm-5.24-3.78 4.93-2.84v5.67zm-5.56-3.47 4.94-2.83v5.67zm-5.55-3.15 4.94-2.83v5.67zm-5.86 2.84v-5.67l4.93 2.83zm-5.56 3.15v-5.67l4.94 2.83zm-5.86 3.46v-5.67l4.94 2.84zm-.31 6.62L.62 88.17l4.93-2.83Zm0 6.61L.62 94.79l4.93-2.84zm0 6.62L.62 101.4l4.93-2.83zm5.25 3.78-4.94 2.83v-5.67zm5.55 3.15L11.42 114v-5.67zm5.56 3.46-4.94 2.83v-5.66zm5.86-2.83v5.66l-4.94-2.83zm5.86-3.47V114l-4.94-2.83zm5.55 3.47v5.66l-4.93-2.83zm-4.93-3.78 4.93-2.84v5.67zm5.24-9.45 4.94 2.83-4.94 2.84zm.31-.63 4.94-2.84v5.67zm0-6.62 4.94-2.83v5.67zm0-6.61 4.94-2.84v5.67zm-.31-.32v-5.67l4.94 2.84zm-5.55-3.46v-5.67l4.94 2.83zm-5.55-3.15v-5.67l4.93 2.83zm-5.56-3.47v-5.66l4.94 2.83zm-.62 0-4.62-2.83 4.62-2.83zm-5.55 3.47-4.94-2.84 4.94-2.83zm-5.55 3.15-4.94-2.84 4.94-2.83zm-5.56 3.46L.62 81.56l4.93-2.84Zm-.3.32L.31 87.54v-5.67zm0 6.61L.31 94.16v-5.67zm0 6.62-4.94 2.83V95.1Zm0 6.61-4.94 2.84v-5.67zm.3.63v5.67l-4.93-2.83zm5.56 3.15V114l-4.94-2.83zm5.55 3.47v5.66l-4.94-2.83zm5.55 3.14v5.67l-4.93-2.83zm.62 0 4.94 2.84-4.94 2.83zm5.56-3.14 4.93 2.83-4.93 2.83zm10.49 5.98-4.94 2.83v-5.67zm.3.63v5.67l-4.93-2.84zm.31 0 4.94 2.83-4.94 2.84zm.31-.63 4.94-2.84v5.67zm-.31-.32v-5.66l4.94 2.83zm0-12.28 4.94 2.84-4.94 2.83zm.31-.63 4.94-2.83v5.67zm-6.17 10.39v5.67l-4.94-2.83z" style="fill:#fff;stroke:none;stroke-width:34;stroke-linecap:butt"/></g></g></svg>