<svg xmlns="http://www.w3.org/2000/svg" xml:space="preserve" width="56.705" height="56.693" style="font-size:12px;overflow:visible;color-interpolation-filters:sRGB;fill-rule:evenodd;stroke-linecap:square;stroke-miterlimit:3" viewBox="0 0 56.705 56.693"><defs><radialGradient id="b" cx="4.002" cy="120.707" r="5.843" fx="4.002" fy="120.707" gradientUnits="userSpaceOnUse"><stop offset="0" stop-color="#7f7f7f"/><stop offset="1" stop-color="#5e5e5e"/></radialGradient><linearGradient id="a" x1="-5.49" x2="51.136" y1="70.33" y2="70.33" gradientUnits="userSpaceOnUse"><stop offset="0" stop-color="#7956ba"/><stop offset=".69" stop-color="#724eb4"/><stop offset=".87" stop-color="#6f4bb2"/></linearGradient></defs><g transform="translate(-34 -34)"><title>Page-1</title><g transform="translate(34 -34.016)"><title>Reservation.11847</title><title>Sheet.11848</title><title>Sheet.11849</title><circle cx="28.346" cy="96.362" r="28.346" style="fill:#b0b0b0;stroke:none;stroke-width:34;stroke-linecap:butt"/><g transform="translate(4.202 -4.369)"><title>Sheet.11850</title><circle cx="24.078" cy="100.631" r="24.078" style="fill:#fff;stroke:none;stroke-width:34;stroke-linecap:butt"/></g><g transform="rotate(-45 -27.829 55.702)"><title>Sheet.11851</title><path d="M0 123.341h4.235v1.367H0z" style="fill:#7a7a7a;stroke:none;stroke-width:34;stroke-linecap:butt"/></g><g transform="translate(44.954 -27.68)"><title>Sheet.11852</title><path d="M0 123.341h4.235v1.367H0z" style="fill:#7a7a7a;stroke:none;stroke-width:34;stroke-linecap:butt"/></g><g transform="rotate(-45 5.404 66.902)"><title>Sheet.11853</title><path d="M0 120.473h1.367v4.235H0z" style="fill:#7a7a7a;stroke:none;stroke-width:34;stroke-linecap:butt"/></g><g transform="translate(27.513 -7.403)"><title>Sheet.11854</title><path d="M0 120.473h1.367v4.235H0z" style="fill:#7a7a7a;stroke:none;stroke-width:34;stroke-linecap:butt"/></g><g transform="rotate(-45 -40.525 85.902)"><title>Sheet.11855</title><path d="M0 120.473h1.367v4.235H0z" style="fill:#7a7a7a;stroke:none;stroke-width:34;stroke-linecap:butt"/></g><g transform="rotate(-45 -8.789 101.648)"><title>Sheet.11856</title><path d="M0 123.341h4.235v1.367H0z" style="fill:#7a7a7a;stroke:none;stroke-width:34;stroke-linecap:butt"/></g><g transform="translate(6.903 -27.68)"><title>Sheet.11857</title><path d="M0 123.341h4.235v1.367H0z" style="fill:#7a7a7a;stroke:none;stroke-width:34;stroke-linecap:butt"/></g><g transform="translate(5.57 -2.31)"><title>Sheet.11858</title><path d="M22.81 70.33a2.034 2.034-180 0 0-2.03 2.06 2.1 2.1-180 0 0 2.06 2.1 24.211 24.211 0 1 1-17.87 7.84l1.7 2.47 4.74-10.54L0 75.59l2.5 3.34a28.313 28.313-180 1 0 20.31-8.6" style="fill:url(#a);stroke:none;stroke-width:34;stroke-linecap:butt"/></g><g transform="translate(26.546 -27.446)"><title>Sheet.11859</title><path d="M0 122.97a1.734 1.734-180 0 0 1.73 1.74h.34a1.734 1.734-180 0 0 1.73-1.74v-18.24A1.734 1.734-180 0 0 2.07 103h-.34A1.734 1.734-180 0 0 0 104.73Z" style="fill:#7a7a7a;stroke:none;stroke-width:34;stroke-linecap:butt"/></g><g transform="rotate(135 21.058 116.383)"><title>Sheet.11860</title><path d="M0 122.97a1.734 1.734-180 0 0 1.73 1.74h.34a1.734 1.734-180 0 0 1.73-1.74v-10.13a1.734 1.734-180 0 0-1.73-1.74h-.34A1.734 1.734-180 0 0 0 112.84Z" style="fill:#7a7a7a;stroke:none;stroke-width:34;stroke-linecap:butt"/></g><g transform="translate(24.278 -24.345)"><title>Sheet.11861</title><circle cx="4.002" cy="120.707" r="4.002" style="fill:url(#b);stroke:none;stroke-width:34;stroke-linecap:butt"/></g></g></g></svg>