<svg xmlns="http://www.w3.org/2000/svg" xml:space="preserve" width="56.853" height="56.701" style="font-size:12px;overflow:visible;color-interpolation-filters:sRGB;fill-rule:evenodd;stroke-linecap:square;stroke-miterlimit:3" viewBox="0 0 56.853 56.701"><defs><linearGradient id="a" x1="0" x2="43.256" y1="34.753" y2="34.753" gradientTransform="scale(.80937 1.23553)" gradientUnits="userSpaceOnUse"><stop offset="0" stop-color="#b3b2b3"/><stop offset=".375" stop-color="#afaeaf"/><stop offset=".765" stop-color="#a2a2a2"/><stop offset="1" stop-color="#979797"/></linearGradient><linearGradient id="b" x1="0" x2="29.442" y1="69.497" y2="69.497" gradientTransform="scale(1.02654 .97415)" gradientUnits="userSpaceOnUse"><stop offset="0" stop-color="#0078d4"/><stop offset=".155" stop-color="#1380da"/><stop offset=".53" stop-color="#3c91e5"/><stop offset=".82" stop-color="#559cec"/><stop offset="1" stop-color="#5ea0ef"/></linearGradient></defs><g transform="translate(-5.67 -5.664)"><title>Page-1</title><g transform="translate(5.67 -34.016)"><title>Server Farm.11830</title><title>Sheet.11831</title><g transform="translate(0 -3.258)"><title>Sheet.11832</title><path d="M35.01 94.57a1.932 1.914 0 0 1-2.02 1.81H2.02A1.932 1.914 0 0 1 0 94.57V44.75a1.932 1.914 0 0 1 2.01-1.81h30.98a1.932 1.914 0 0 1 2.02 1.81z" style="fill:url(#a);stroke:none;stroke-width:.75;stroke-linecap:butt"/></g><g transform="translate(5.137 -29.68)"><title>Sheet.11833</title><path d="M0 92.21a4.016 3.979 0 0 1 3.81-4.17h17.43a4.016 3.979 0 0 1 3.8 4.17 4.016 3.979 0 0 1-3.8 4.17H3.81A4.016 3.979 0 0 1 0 92.21" style="fill:#003067;stroke:none;stroke-width:.75;stroke-linecap:butt"/></g><g transform="translate(5.137 -42.036)"><title>Sheet.11834</title><path d="M0 92.22a4.016 3.979 0 0 1 3.81-4.16h17.43a4.016 3.979 0 0 1 3.8 4.16 4.016 3.979 0 0 1-3.8 4.16H3.81A4.016 3.979 0 0 1 0 92.22" style="fill:#003067;stroke:none;stroke-width:.75;stroke-linecap:butt"/></g><g transform="translate(7.225 -43.403)"><title>Sheet.11835</title><ellipse cx="2.814" cy="93.59" rx="2.814" ry="2.788" style="fill:#50e6ff;stroke:none;stroke-width:.75;stroke-linecap:butt"/></g><g transform="translate(7.225 -31.061)"><title>Sheet.11836</title><ellipse cx="2.814" cy="93.59" rx="2.814" ry="2.788" style="fill:#50e6ff;stroke:none;stroke-width:.75;stroke-linecap:butt"/></g><g transform="translate(22.314)"><title>Sheet.11837</title><path d="M25.79 72.98 15.11 67.7 4.04 72.98 0 80.82v14.61a.963.954-180 0 0 .963.95H29.26a.963.954-180 0 0 .963-.95l-.003-14.61Z" style="fill:url(#b);stroke:none;stroke-width:.75;stroke-linecap:butt"/></g><g transform="translate(18.587 -11.339)"><title>Sheet.11838</title><path d="M1.35 96.38A1.475 1.46 0 0 1 0 94.31l4.75-10.27a1.478 1.464 0 0 1 .64-.67l12.97-6.91a1.475 1.46 0 0 1 1.42 0l12.53 6.91a1.461 1.447 0 0 1 .59.63l5.21 10.26a1.476 1.462 0 1 1-2.64 1.31l-5-9.86-11.42-6.31-11.83 6.31-4.53 9.81a1.475 1.46 0 0 1-1.34.86" style="fill:#50e6ff;stroke:none;stroke-width:.75;stroke-linecap:butt"/></g><g transform="translate(34.278 -14.07)"><title>Sheet.11839</title><path d="M0 95.43a.96.95-180 0 0 .96.95h4.1a.96.95-180 0 0 .96-.95v-4.34a.96.95-180 0 0-.96-.95H.96a.96.95-180 0 0-.96.95Z" style="fill:#005ba1;stroke:none;stroke-width:.75;stroke-linecap:butt"/></g><g transform="translate(31.046)"><title>Sheet.11840</title><g transform="translate(.42 -5.202)"><title>Sheet.11841</title><path d="m5.82 96.38 5.81-3.86a.953.944-180 0 0-.539-.163L.54 92.36a.96.95-180 0 0-.539.163z" style="fill:#005ba1;stroke:none;stroke-width:.75;stroke-linecap:butt"/></g><g transform="translate(7.127 -1.067)"><title>Sheet.11842</title><path d="M5.35 96.38v-7.1L0 92.83Z" style="fill:#005ba1;stroke:none;stroke-width:.75;stroke-linecap:butt"/></g><g transform="translate(0 -1.067)"><title>Sheet.11843</title><path d="M5.35 92.83 0 89.28v7.1z" style="fill:#005ba1;stroke:none;stroke-width:.75;stroke-linecap:butt"/></g><g transform="translate(12.433)"><title>Sheet.11844</title><path d="M0 96.38h.04v-.07Z" style="fill:#005ba1;stroke:none;stroke-width:.75;stroke-linecap:butt"/></g><title>Sheet.11845</title><path d="M0 96.31v.07h.05z" style="fill:#005ba1;stroke:none;stroke-width:.75;stroke-linecap:butt"/><g transform="translate(.172)"><title>Sheet.11846</title><path d="M0 96.38h12.13l-6.06-4.02Z" style="fill:#005ba1;stroke:none;stroke-width:.75;stroke-linecap:butt"/></g></g></g></g></svg>