<svg xmlns="http://www.w3.org/2000/svg" xml:space="preserve" width="56.69" height="56.693" style="font-size:12px;overflow:visible;color-interpolation-filters:sRGB;fill-rule:evenodd;stroke-linecap:square;stroke-miterlimit:3" viewBox="0 0 56.69 56.693"><defs><linearGradient id="a" x1="0" x2="33.781" y1="175.501" y2="175.501" gradientTransform="scale(1.67815 .5959)" gradientUnits="userSpaceOnUse"><stop offset="0" stop-color="#0078d4"/><stop offset=".82" stop-color="#5ea0ef"/></linearGradient></defs><g transform="translate(-34 -34.001)"><title>Page-1</title><g transform="translate(34 -34.016)"><title>Shared Image Gallery.11818</title><title>Icon-compute-39</title><g transform="translate(17.005 -14.753)"><title>Sheet.11820</title><path d="M0 123.3a1.41 1.41-180 0 0 1.41 1.41h30.68a1.41 1.41-180 0 0 1.41-1.41V84.18a1.41 1.41-180 0 0-1.41-1.41H1.41A1.41 1.41-180 0 0 0 84.18Z" style="fill:#005ba1;stroke:none;stroke-width:34;stroke-linecap:butt"/></g><g transform="translate(11.93 -10.216)"><title>Sheet.11821</title><path d="M0 123.3a1.41 1.41-180 0 0 1.41 1.41h30.68a1.41 1.41-180 0 0 1.41-1.41V84.18a1.41 1.41-180 0 0-1.41-1.41H1.41A1.41 1.41-180 0 0 0 84.18Z" style="fill:#0078d4;stroke:none;stroke-width:34;stroke-linecap:butt"/></g><g transform="translate(6.788 -5.646)"><title>Sheet.11822</title><path d="M0 123.3a1.41 1.41-180 0 0 1.41 1.41h30.68a1.41 1.41-180 0 0 1.41-1.41V84.18a1.41 1.41-180 0 0-1.41-1.41H1.41A1.41 1.41-180 0 0 0 84.18Z" style="fill:#32bedd;stroke:none;stroke-width:34;stroke-linecap:butt"/></g><g transform="translate(23.558 -17.98)"><title>Sheet.11823</title><path d="M9.78 107.6V119L0 124.71v-11.39z" style="fill:#50e6ff;stroke:none;stroke-width:34;stroke-linecap:butt"/></g><g transform="translate(13.778 -29.338)"><title>Sheet.11824</title><path d="m19.56 118.96-9.78 5.75L0 118.96l9.78-5.71Z" style="fill:#c3f1ff;stroke:none;stroke-width:34;stroke-linecap:butt"/></g><g transform="translate(13.778 -17.98)"><title>Sheet.11825</title><path d="M9.78 113.35v11.36L0 119v-11.4z" style="fill:#9cebff;stroke:none;stroke-width:34;stroke-linecap:butt"/></g><g transform="translate(13.778 -17.98)"><title>Sheet.11826</title><path d="m0 119 9.78-5.68v11.39z" style="fill:#c3f1ff;stroke:none;stroke-width:34;stroke-linecap:butt"/></g><g transform="translate(23.558 -17.98)"><title>Sheet.11827</title><path d="M9.78 119 0 113.32v11.39z" style="fill:#9cebff;stroke:none;stroke-width:34;stroke-linecap:butt"/></g><title>Sheet.11828</title><path d="M0 122.83a1.88 1.88-180 0 0 1.88 1.88h52.93a1.88 1.88-180 0 0 1.88-1.88v-16.37a1.88 1.88-180 0 0-1.88-1.88H1.88A1.88 1.88-180 0 0 0 106.46Z" style="fill:url(#a);stroke:none;stroke-width:34;stroke-linecap:butt"/><g transform="translate(20.298 -12.232)"><title>Sheet.11829</title><path d="M0 123.26a1.445 1.445-180 0 0 1.45 1.45h13.27a1.445 1.445-180 0 0 1.44-1.45v-.03a1.445 1.445-180 0 0-1.44-1.45H1.45A1.445 1.445-180 0 0 0 123.23Z" style="fill:#f2f2f2;stroke:none;stroke-width:34;stroke-linecap:butt"/></g></g></g></svg>