<svg xmlns="http://www.w3.org/2000/svg" xml:space="preserve" width="42.523" height="56.7" style="font-size:12px;overflow:visible;color-interpolation-filters:sRGB;fill-rule:evenodd;stroke-linecap:square;stroke-miterlimit:3" viewBox="0 0 42.523 56.7"><g transform="translate(-49.811 -49.809)"><title>Page-1</title><g transform="translate(49.815 -49.811)"><title>Virtual Machine Restart.11628</title><title>Sheet.11629</title><title>Sheet.11630</title><path d="M24.8 113.89h11.7l-3.9-3.93a17.008 17.115-180 0 0-3.9-3.21 14.528 14.619-180 0 0-3.9-2.49 14.173 14.262-180 0 0-5.31-1.07 13.819 13.906-180 0 0-6.38 1.42 11.693 11.767-180 0 0-4.96 3.57 12.047 12.123-180 0 0-3.19 4.99 11.693 11.767-180 0 0-1.42 6.06 18.07 18.185-180 0 0 1.07 6.06 25.158 25.316-180 0 0 3.54 5l23.03 23.17-2.48 2.86-23.03-23.54a23.386 23.533 0 0 1-4.25-6.06A18.425 18.541 0 0 1 0 119.23a20.906 21.037 0 0 1 .71-4.99 10.984 11.053 0 0 1 2.12-4.63 17.717 17.828 0 0 1 2.84-4.28l3.9-2.85a26.575 26.742 0 0 1 4.6-2.14l5.32-.72 4.25.72a6.732 6.775 0 0 1 3.54 1.07l3.19 1.78 2.84 2.49 2.48 2.5 3.19 3.21V99.62h3.54v17.83H24.8Z" style="fill:#000;stroke:none;stroke-width:49.81129837;stroke-linecap:butt"/></g></g></svg>