<svg xmlns="http://www.w3.org/2000/svg" xml:space="preserve" width="56.69" height="56.65" style="font-size:12px;overflow:visible;color-interpolation-filters:sRGB;fill-rule:evenodd;stroke-linecap:square;stroke-miterlimit:3" viewBox="0 0 56.69 56.65"><defs><linearGradient id="a" x1="0" x2="56.67" y1="68.084" y2="68.084" gradientTransform="scale(1.00035 .99965)" gradientUnits="userSpaceOnUse"><stop offset="0" stop-color="#0078d4"/><stop offset=".065" stop-color="#0a7cd7"/><stop offset=".34" stop-color="#2e8ce1"/><stop offset=".595" stop-color="#4897e9"/><stop offset=".82" stop-color="#589eed"/><stop offset="1" stop-color="#5ea0ef"/></linearGradient><linearGradient id="b" x1=".003" x2="38.17" y1="54.75" y2="54.75" gradientTransform="scale(.75104 1.33148)" gradientUnits="userSpaceOnUse"><stop offset="0" stop-color="#fea11b"/><stop offset=".285" stop-color="#fea51a"/><stop offset=".545" stop-color="#feb018"/><stop offset=".8" stop-color="#ffc314"/><stop offset="1" stop-color="#ffd70f"/></linearGradient></defs><g transform="translate(-34 -34)"><title>Page-1</title><g transform="translate(34 -34.016)"><title>Virtual Machine SQL Patching.11548</title><title>Sheet.11549</title><g transform="translate(0 -.045)"><title>Sheet.11550</title><path d="M56.69 99.44v-6.45l-.91-.35-6.91-2.26-1.82-4.42 3.51-7.48-4.53-4.53-.9.46-6.47 3.28-4.42-1.81-2.84-7.82h-6.46l-.34.91-2.27 6.91-4.42 1.81-7.37-3.5L6 78.71l.46.91 3.29 6.45-1.81 4.42L0 93.33v6.45l.91.34 6.91 2.27 1.82 4.42-3.51 7.48 4.53 4.53.91-.46 6.47-3.28 4.42 1.81 2.84 7.82h6.46l.34-.91 2.27-6.91 4.42-1.81 7.48 3.5 4.54-4.53-.46-.9-3.28-6.46 1.81-4.42zm-28.35 9.37a12.434 12.423 0 1 1 12.44-12.43 12.434 12.423 0 0 1-12.44 12.43" style="fill:url(#a);stroke:none;stroke-width:34;stroke-linecap:butt"/></g><g transform="translate(14.538)"><title>Sheet.11551</title><path d="M12.08 101.16H.64a.615.615 0 0 1-.638-.577.5.5 0 0 1 .058-.235L13.78 73.24a.66.66 0 0 1 .593-.34H27.9a.615.615 0 0 1 .638.577.53.53 0 0 1-.112.318L12.32 95.01h15.71a.615.615 0 0 1 .638.577.55.55 0 0 1-.166.385L2.38 123.12c-.24.14-1.99 1.59-1.13-.61z" style="fill:url(#b);stroke:none;stroke-width:34;stroke-linecap:butt"/></g></g></g></svg>