<svg xmlns="http://www.w3.org/2000/svg" xml:space="preserve" width="56.69" height="53.867" style="font-size:12px;overflow:visible;color-interpolation-filters:sRGB;fill-rule:evenodd;stroke-linecap:square;stroke-miterlimit:3" viewBox="0 0 56.69 53.867"><defs><linearGradient id="a" x1="0" x2="28.529" y1="75.202" y2="75.202" gradientTransform="scale(.85106 1.175)" gradientUnits="userSpaceOnUse"><stop offset="0" stop-color="#b3b2b3"/><stop offset=".38" stop-color="#afaeaf"/><stop offset=".76" stop-color="#a2a2a2"/><stop offset="1" stop-color="#979797"/></linearGradient><linearGradient id="b" x1="0" x2="34.401" y1="111.383" y2="111.383" gradientTransform="scale(1.1962 .83599)" gradientUnits="userSpaceOnUse"><stop offset="0" stop-color="#0078d4"/><stop offset=".16" stop-color="#1380da"/><stop offset=".53" stop-color="#3c91e5"/><stop offset=".82" stop-color="#559cec"/><stop offset="1" stop-color="#5ea0ef"/></linearGradient></defs><g transform="translate(-34 -34.001)"><title>Page-1</title><g transform="translate(34 -34.016)"><title>Virtual Cluster.11803</title><title>Icon-databases-127</title><g transform="translate(0 -20.287)"><title>path4</title><path d="M24.24 120.76a1.3 1.282 0 0 1-1.4 1.12H1.4a1.3 1.282 0 0 1-1.4-1.12V89.59a1.3 1.282 0 0 1 1.4-1.12h21.44a1.3 1.282 0 0 1 1.4 1.12z" style="fill:#949494;stroke:none;stroke-width:34;stroke-linecap:butt"/></g><g transform="translate(3.568 -36.793)"><title>path6</title><path d="M0 119.25a2.635 2.598 0 0 1 2.63-2.6h12.14a2.635 2.598 0 0 1 2.64 2.6 2.635 2.598 0 0 1-2.64 2.63H2.63a2.635 2.598 0 0 1-2.63-2.6Zm0-7.7a2.635 2.598 0 0 1 2.63-2.63h12.14a2.635 2.598 0 0 1 2.64 2.63 2.635 2.598 0 0 1-2.64 2.6H2.63a2.635 2.598 0 0 1-2.63-2.6" style="fill:#003067;stroke:none;stroke-width:34;stroke-linecap:butt"/></g><g transform="translate(4.535 -45.375)"><title>circle8</title><ellipse cx="1.767" cy="120.136" rx="1.767" ry="1.743" style="fill:#50e6ff;stroke:none;stroke-width:34;stroke-linecap:butt"/></g><g transform="translate(4.535 -37.681)"><title>circle10</title><ellipse cx="1.767" cy="120.136" rx="1.767" ry="1.743" style="fill:#50e6ff;stroke:none;stroke-width:34;stroke-linecap:butt"/></g><g transform="translate(26.746 -20.419)"><title>path12</title><path d="M24.24 120.73a1.3 1.282 0 0 1-1.4 1.15H1.4a1.3 1.282 0 0 1-1.4-1.15V89.59a1.3 1.282 0 0 1 1.4-1.15h21.44a1.3 1.282 0 0 1 1.4 1.15z" style="fill:#949494;stroke:none;stroke-width:34;stroke-linecap:butt"/></g><g transform="translate(30.314 -36.793)"><title>path14</title><path d="M0 119.12a2.635 2.598 0 0 1 2.63-2.6h12.08a2.635 2.598 0 0 1 2.63 2.6 2.635 2.598 0 0 1-2.63 2.76H2.63a2.635 2.598 0 0 1-2.63-2.6Zm0-7.73a2.635 2.598 0 0 1 2.63-2.66h12.08a2.668 2.63 0 0 1 2.63 2.59 2.635 2.598 0 0 1-2.63 2.67H2.63a2.635 2.598 0 0 1-2.63-2.6" style="fill:#003067;stroke:none;stroke-width:34;stroke-linecap:butt"/></g><g transform="translate(31.281 -45.54)"><title>circle16</title><ellipse cx="1.767" cy="120.136" rx="1.767" ry="1.743" style="fill:#50e6ff;stroke:none;stroke-width:34;stroke-linecap:butt"/></g><g transform="translate(31.281 -37.813)"><title>circle18</title><ellipse cx="1.767" cy="120.136" rx="1.767" ry="1.743" style="fill:#50e6ff;stroke:none;stroke-width:34;stroke-linecap:butt"/></g><g transform="translate(4.069)"><title>path20</title><path d="M24.28 120.73a1.3 1.282 0 0 1-1.4 1.15H1.4a1.3 1.282 0 0 1-1.4-1.15V89.59a1.3 1.282 0 0 1 1.4-1.22h21.44a1.3 1.282 0 0 1 1.44 1.22z" style="fill:url(#a);stroke:none;stroke-width:34;stroke-linecap:butt"/></g><g transform="translate(7.637 -16.539)"><title>path22</title><path d="M0 119.28a2.635 2.598 0 0 1 2.63-2.6h12.08a2.635 2.598 0 0 1 2.63 2.6h.03a2.668 2.63 0 0 1-2.63 2.6H2.63a2.635 2.598 0 0 1-2.63-2.6m0-7.79a2.635 2.598 0 0 1 2.63-2.6h12.08a2.635 2.598 0 0 1 2.66 2.6 2.668 2.63 0 0 1-2.63 2.6H2.63a2.635 2.598 0 0 1-2.63-2.6" style="fill:#003067;stroke:none;stroke-width:34;stroke-linecap:butt"/></g><g transform="translate(8.604 -25.12)"><title>circle24</title><ellipse cx="1.767" cy="120.136" rx="1.767" ry="1.743" style="fill:#50e6ff;stroke:none;stroke-width:34;stroke-linecap:butt"/></g><g transform="translate(8.604 -17.394)"><title>circle26</title><ellipse cx="1.767" cy="120.136" rx="1.767" ry="1.743" style="fill:#50e6ff;stroke:none;stroke-width:34;stroke-linecap:butt"/></g><g transform="translate(15.54 -4.744)"><title>path28</title><path d="M41.15 112.85a9.238 9.108-180 0 0-8.03-8.75 11.639 11.475-180 0 0-11.98-10.98 11.939 11.771-180 0 0-11.44 7.66A11.038 10.883-180 0 0 0 111.23a11.239 11.08-180 0 0 11.61 10.62h19.77a1.334 1.315-180 0 0 .5 0 9.338 9.207-180 0 0 9.27-9" style="fill:url(#b);stroke:none;stroke-width:34;stroke-linecap:butt"/></g></g></g></svg>