<svg xmlns="http://www.w3.org/2000/svg" xml:space="preserve" width="56.693" height="53.85" style="font-size:12px;overflow:visible;color-interpolation-filters:sRGB;fill-rule:evenodd;stroke-linecap:square;stroke-miterlimit:3" viewBox="0 0 56.693 53.85"><defs><linearGradient id="a" x1="0" x2="43.558" y1="66.12" y2="66.12" gradientTransform="scale(.89995 1.11117)" gradientUnits="userSpaceOnUse"><stop offset="0" stop-color="#32bedd"/><stop offset=".3" stop-color="#36c3e1"/><stop offset=".67" stop-color="#41d2ee"/><stop offset="1" stop-color="#50e6ff"/></linearGradient></defs><g transform="translate(-34 -34.004)"><title>Page-1</title><g transform="translate(34 -34.016)"><title>Virtual Machine Image Version.11711</title><title>Icon-compute-38</title><g transform="translate(0 -5.45)"><title>Sheet.11713</title><path d="M0 120.26a1.633 1.613-180 0 0 1.63 1.61h35.93a1.633 1.613-180 0 0 1.64-1.61V75.08a1.633 1.613-180 0 0-1.64-1.61H1.63A1.633 1.613-180 0 0 0 75.08Z" style="fill:#0078d4;stroke:none;stroke-width:34;stroke-linecap:butt"/></g><g transform="translate(5.716)"><title>Sheet.11714</title><path d="M0 120.26a1.633 1.613-180 0 0 1.63 1.61h35.93a1.633 1.613-180 0 0 1.64-1.61V75.08a1.633 1.613-180 0 0-1.64-1.61H1.63A1.633 1.613-180 0 0 0 75.08Z" style="fill:url(#a);stroke:none;stroke-width:34;stroke-linecap:butt"/></g><g transform="translate(23.845 -1.548)"><title>Sheet.11715</title><path d="m32.73 108.72-9.38-9.23a.457.452-180 0 0-.817.323l.007 5.387C11.27 105.2 0 111.13 0 121.87c1.6-2.38 9.8-8.74 22.54-8.74v5.16a.49.484-180 0 0 .817.355l9.373-9.255a.555.548-180 0 0 0-.677z" style="fill:#773adc;stroke:none;stroke-width:34;stroke-linecap:butt"/></g><g transform="translate(25.315 -14.223)"><title>Sheet.11716</title><path d="M11.43 102.14v13.12L0 121.87v-13.15z" style="fill:#50e6ff;stroke:none;stroke-width:34;stroke-linecap:butt"/></g><g transform="translate(13.882 -27.348)"><title>Sheet.11717</title><path d="m22.86 115.26-11.43 6.61L0 115.26l11.43-6.61Z" style="fill:#c3f1ff;stroke:none;stroke-width:34;stroke-linecap:butt"/></g><g transform="translate(13.882 -14.223)"><title>Sheet.11718</title><path d="M11.43 108.75v13.12L0 115.26v-13.12z" style="fill:#9cebff;stroke:none;stroke-width:34;stroke-linecap:butt"/></g><g transform="translate(13.882 -14.223)"><title>Sheet.11719</title><path d="m0 115.26 11.43-6.54v13.15z" style="fill:#c3f1ff;stroke:none;stroke-width:34;stroke-linecap:butt"/></g><g transform="translate(25.315 -14.223)"><title>Sheet.11720</title><path d="M11.43 115.26 0 108.72v13.15z" style="fill:#9cebff;stroke:none;stroke-width:34;stroke-linecap:butt"/></g></g></g></svg>