<svg xmlns="http://www.w3.org/2000/svg" xml:space="preserve" width="53.858" height="56.693" style="font-size:12px;overflow:visible;color-interpolation-filters:sRGB;fill-rule:evenodd;stroke-linecap:square;stroke-miterlimit:3" viewBox="0 0 53.858 56.693"><g transform="translate(-12.24 -12.24)"><title>Page-1</title><g transform="translate(12.24 -34.016)"><title>Virtual Machine Change Tracking.11755</title><title>Sheet.11756</title><g transform="translate(0 -19.276)"><title>Sheet.11757</title><path d="M0 65.531h32.539v37.417H0z" style="fill:#a0a1a2;stroke:none;stroke-width:12.23999977;stroke-linecap:butt"/></g><g transform="translate(2.244 -21.543)"><title>Sheet.11758</title><path d="M0 70.067h28.051v32.882H0z" style="fill:#fff;fill-opacity:.8;stroke:none;stroke-width:12.23999977;stroke-linecap:butt"/></g><g transform="translate(21.319)"><title>Sheet.11759</title><path d="M0 65.531h32.539v37.417H0z" style="fill:#a0a1a2;stroke:none;stroke-width:12.23999977;stroke-linecap:butt"/></g><g transform="translate(23.563 -2.268)"><title>Sheet.11760</title><path d="M0 70.067h28.051v32.882H0z" style="fill:#fff;fill-opacity:.8;stroke:none;stroke-width:12.23999977;stroke-linecap:butt"/></g><g transform="translate(7.854 -7.937)"><title>Sheet.11761</title><path d="M23.56 90.48h14.59v2.26H21.32Zm1.13 4.53h13.46v2.27H24.69Zm13.46-6.8H26.93l2.24-2.27h8.98zm-17.95 6.8h3.36v3.4H20.2Zm4.49 4.54h13.46v2.26H24.69ZM0 67.8h16.83v2.27H0Zm0 9.07h11.22v2.27H0Zm0-4.54h11.22v2.27H0Zm0-9.07h16.83v2.27H0Zm20.2 36.29h3.36v3.4H20.2Z" style="fill:#a0a1a2;stroke:none;stroke-width:12.23999977;stroke-linecap:butt"/></g><g transform="translate(12.345 -21.543)"><title>Sheet.11762</title><path d="m23 97.85-6.17-5.11v3.41H0v3.4h16.83v3.4z" style="fill:#0072c6;stroke:none;stroke-width:12.23999977;stroke-linecap:butt"/></g></g></g></svg>