<svg xmlns="http://www.w3.org/2000/svg" xml:space="preserve" width="56.7" height="50.744" style="font-size:12px;overflow:visible;color-interpolation-filters:sRGB;fill-rule:evenodd;stroke-linecap:square;stroke-miterlimit:3" viewBox="0 0 56.7 50.744"><defs><linearGradient id="a" x1="-.004" x2="24.357" y1="119.796" y2="119.796" gradientTransform="scale(1.2124 .8248)" gradientUnits="userSpaceOnUse"><stop offset="0" stop-color="#a8a8a8"/><stop offset="1" stop-color="#e6e6e6"/></linearGradient><linearGradient id="b" x1="0" x2="10.703" y1="153.496" y2="153.496" gradientTransform="scale(1.38098 .72413)" gradientUnits="userSpaceOnUse"><stop offset=".15" stop-color="#ccc"/><stop offset="1" stop-color="#707070"/></linearGradient><linearGradient id="c" x1="0" x2="28.515" y1="115.635" y2="115.635" gradientTransform="scale(1.21236 .82484)" gradientUnits="userSpaceOnUse"><stop offset="0" stop-color="#0078d4"/><stop offset=".82" stop-color="#5ea0ef"/></linearGradient></defs><g transform="translate(-33.995 -33.999)"><title>Page-1</title><g transform="translate(34 -34.016)"><title>Virtual Machine SQL High Availability.11552</title><title>High_availability</title><g transform="translate(3.124)"><title>Sheet.11554</title><path d="M15.05 72.33a.512.52 0 0 1 0 .738l-4.06 3.792c-.37.33-.64.21-.64-.29v-1.91a.495.504-180 0 0-.515-.48 5.877 5.977-180 0 0-6.415 7.24v.05a.495.504 0 0 1-.495.5H.47a.492.5 0 0 1-.47-.524C.23 71.66 7.27 71.01 9.8 71.01a.492.5-180 0 0 .492-.5l-.002-2.03c0-.49.28-.61.62-.28l4.05 4.07a.515.524 0 0 1 .089.067zm10.92 42.11a.512.52 0 0 1 0-.738l4.06-3.782c.36-.34.66-.22.66.28v1.91a.495.504-180 0 0 .515.48 5.877 5.977-180 0 0 6.405-7.24v-.04a.495.504 0 0 1 .495-.5h2.465a.492.5 0 0 1 .47.524c-.24 9.776-7.27 10.436-9.79 10.436h-.03a.492.5-180 0 0-.492.5l.002 2.02c0 .5-.27.61-.62.28l-4.06-4.06a.515.524 0 0 1-.082-.067z" style="fill:#83b9f9;stroke:none;stroke-width:34;stroke-linecap:butt"/></g><g transform="translate(0 -13.17)"><title>Sheet.11555</title><path d="M0 117.91a.975.991-180 0 0 .975.991l27.575-.001a.975.991-180 0 0 .975-.991L29.53 99.8a.975.991-180 0 0-.975-.991L.97 98.81a.975.991-180 0 0-.975.991z" style="fill:url(#a);stroke:none;stroke-width:34;stroke-linecap:butt"/></g><g transform="translate(14.779 -17.375)"><title>Sheet.11556</title><path d="M4.91 110.12v5.84L0 118.9v-5.85z" style="fill:#848484;stroke:none;stroke-width:34;stroke-linecap:butt"/></g><g transform="translate(9.84 -23.219)"><title>Sheet.11557</title><path d="m9.84 115.96-4.9 2.94L0 115.96l4.94-2.94Z" style="fill:#e8e8e8;stroke:none;stroke-width:34;stroke-linecap:butt"/></g><g transform="translate(9.84 -17.375)"><title>Sheet.11558</title><path d="M4.94 113.05v5.85L0 115.96v-5.84z" style="fill:#9e9e9e;stroke:none;stroke-width:34;stroke-linecap:butt"/></g><g transform="translate(9.84 -17.375)"><title>Sheet.11559</title><path d="m0 115.96 4.94-2.91v5.85z" style="fill:#e8e8e8;stroke:none;stroke-width:34;stroke-linecap:butt"/></g><g transform="translate(14.779 -17.375)"><title>Sheet.11560</title><path d="M4.91 115.96 0 113.05v5.85z" style="fill:#9e9e9e;stroke:none;stroke-width:34;stroke-linecap:butt"/></g><g transform="translate(7.39 -5.457)"><title>Sheet.11561</title><path d="M13.3 117.23c-2.92-.48-3.02-2.63-3.02-6.08H4.47c0 3.42 0 5.6-3.03 6.08A1.716 1.746-180 0 0 0 118.9h14.78a1.716 1.746-180 0 0-1.48-1.67" style="fill:url(#b);stroke:none;stroke-width:34;stroke-linecap:butt"/></g><g transform="translate(22.125 -25.942)"><title>Sheet.11562</title><path d="M0 117.74a1.142 1.161-180 0 0 1.14 1.16h32.29a1.142 1.161-180 0 0 1.14-1.16v-21.2a1.142 1.161-180 0 0-1.14-1.16H1.14A1.142 1.161-180 0 0 0 96.54Z" style="fill:url(#c);stroke:none;stroke-width:34;stroke-linecap:butt"/></g><g transform="translate(39.43 -30.862)"><title>Sheet.11563</title><path d="M5.74 108.62v6.84L0 118.9v-6.84z" style="fill:#50e6ff;stroke:none;stroke-width:34;stroke-linecap:butt"/></g><g transform="translate(33.649 -37.704)"><title>Sheet.11564</title><path d="m11.52 115.46-5.74 3.44L0 115.46l5.78-3.44Z" style="fill:#c3f1ff;stroke:none;stroke-width:34;stroke-linecap:butt"/></g><g transform="translate(33.649 -30.862)"><title>Sheet.11565</title><path d="M5.78 112.06v6.84L0 115.46v-6.84z" style="fill:#9cebff;stroke:none;stroke-width:34;stroke-linecap:butt"/></g><g transform="translate(33.649 -30.862)"><title>Sheet.11566</title><path d="m0 115.46 5.78-3.4v6.84z" style="fill:#c3f1ff;stroke:none;stroke-width:34;stroke-linecap:butt"/></g><g transform="translate(39.43 -30.862)"><title>Sheet.11567</title><path d="M5.74 115.46 0 112.06v6.84z" style="fill:#9cebff;stroke:none;stroke-width:34;stroke-linecap:butt"/></g><g transform="translate(30.778 -16.901)"><title>Sheet.11568</title><path d="M15.57 116.94c-3.42-.56-3.54-3.08-3.54-7.12h-6.8c0 4 0 6.56-3.54 7.12A2.005 2.04-180 0 0 0 118.9h17.3a2.008 2.043-180 0 0-1.73-1.96" style="fill:none;stroke:none;stroke-width:34;stroke-linecap:butt"/></g></g></g></svg>