<svg xmlns="http://www.w3.org/2000/svg" xml:space="preserve" width="56.69" height="51.026" style="font-size:12px;overflow:visible;color-interpolation-filters:sRGB;fill-rule:evenodd;stroke-linecap:square;stroke-miterlimit:3" viewBox="0 0 56.69 51.026"><defs><linearGradient id="a" x1="0" x2="45.687" y1="102.021" y2="102.021" gradientTransform="scale(1.24083 .80591)" gradientUnits="userSpaceOnUse"><stop offset="0" stop-color="#0078d4"/><stop offset=".82" stop-color="#5ea0ef"/></linearGradient><linearGradient id="b" x1="0" x2="20.071" y1="148.07" y2="148.07" gradientTransform="scale(1.41247 .70798)" gradientUnits="userSpaceOnUse"><stop offset="0" stop-color="#1490df"/><stop offset=".98" stop-color="#1f56a3"/></linearGradient></defs><g transform="translate(-34 -33.999)"><title>Page-1</title><g transform="translate(34 -34.016)"><title>Virtual Machine Image (Classic).11730</title><title>Icon-compute-27</title><g transform="translate(0 -14.206)"><title>Sheet.11732</title><path d="M0 117.2a1.89 1.84-180 0 0 1.89 1.84H54.8a1.89 1.84-180 0 0 1.89-1.84V84.06a1.89 1.84-180 0 0-1.89-1.84H1.89A1.89 1.84-180 0 0 0 84.06Z" style="fill:url(#a);stroke:none;stroke-width:34;stroke-linecap:butt"/></g><g transform="translate(3.15 -17.274)"><title>Sheet.11733</title><path d="M0 118.03a1.04 1.013-180 0 0 1.04 1.01h48.31a1.04 1.013-180 0 0 1.04-1.01V89.37a1.04 1.013-180 0 0-1.04-1.01H1.04A1.04 1.013-180 0 0 0 89.37Z" style="fill:#fff;stroke:none;stroke-width:34;stroke-linecap:butt"/></g><g transform="translate(28.346 -21.876)"><title>Sheet.11734</title><path d="M9.45 102.93v10.71L0 119.04V108.3Z" style="fill:#0078d4;stroke:none;stroke-width:34;stroke-linecap:butt"/></g><g transform="translate(18.898 -32.584)"><title>Sheet.11735</title><path d="m18.9 113.64-9.45 5.4-9.45-5.4 9.45-5.37z" style="fill:#83b9f9;stroke:none;stroke-width:34;stroke-linecap:butt"/></g><g transform="translate(18.898 -21.876)"><title>Sheet.11736</title><path d="M9.45 108.33v10.71L0 113.64v-10.71z" style="fill:#5ea0ef;stroke:none;stroke-width:34;stroke-linecap:butt"/></g><g transform="translate(18.898 -21.876)"><title>Sheet.11737</title><path d="m0 113.64 9.45-5.34v10.74z" style="fill:#83b9f9;fill-opacity:.2;stroke:none;stroke-width:34;stroke-linecap:butt"/></g><g transform="translate(28.346 -21.876)"><title>Sheet.11738</title><path d="M9.45 113.64 0 108.3v10.74z" style="fill:#5ea0ef;fill-opacity:.2;stroke:none;stroke-width:34;stroke-linecap:butt"/></g><g transform="translate(14.173)"><title>Sheet.11739</title><path d="M25.54 115.97c-5.6-.86-5.82-4.79-5.82-11.14H8.6c0 6.35-.19 10.28-5.8 11.14a3.15 3.068-180 0 0-2.8 3.07h28.35a3.15 3.068-180 0 0-2.81-3.07" style="fill:url(#b);stroke:none;stroke-width:34;stroke-linecap:butt"/></g><g transform="translate(6.898 -19.36)"><title>Sheet.11740</title><path d="M9.7 92.59H1.89A1.858 1.81-180 0 0 0 94.4v7.61a.945.92-180 0 0 .945.92h.625a.945.92-180 0 0 .945-.92l.005-7.03H9.7a.945.92-180 0 0 .945-.92l.005-.58a.945.92-180 0 0-.945-.89Zm0 23.93H2.49v-6.99a.945.92-180 0 0-.945-.92H.94a.945.92-180 0 0-.945.92L0 117.14a1.858 1.81-180 0 0 1.89 1.81H9.7a.945.92-180 0 0 .945-.89l.005-.62a.945.92-180 0 0-.945-.92Zm31.18-23.87H33.2a.913.89-180 0 0-.945.92l-.005.59a.913.89-180 0 0 .945.89h7.185v7.05a.913.89-180 0 0 .945.89h.625a.913.89-180 0 0 .913-.89l.007-7.61a1.858 1.81-180 0 0-1.99-1.84m1.07 16.02h-.6a.945.92-180 0 0-.945.92l.005 6.99H33.2a.913.89-180 0 0-.945.92l-.005.62a.945.92-180 0 0 .945.92h7.685a1.858 1.81-180 0 0 1.86-1.84v-7.61a.945.92-180 0 0-.787-.92z" style="fill:#5ea0ef;stroke:none;stroke-width:34;stroke-linecap:butt"/></g></g></g></svg>