<svg xmlns="http://www.w3.org/2000/svg" xml:space="preserve" width="56.697" height="56.693" style="font-size:12px;overflow:visible;color-interpolation-filters:sRGB;fill-rule:evenodd;stroke-linecap:square;stroke-miterlimit:3" viewBox="0 0 56.697 56.693"><defs><linearGradient id="a" x1="0" x2="27.551" y1="124.192" y2="124.192" gradientTransform="scale(1.22393 .81704)" gradientUnits="userSpaceOnUse"><stop offset="0" stop-color="#0078d4"/><stop offset=".82" stop-color="#5ea0ef"/></linearGradient><linearGradient id="b" x1="0" x2="11.952" y1="160.961" y2="160.961" gradientTransform="scale(1.39469 .717)" gradientUnits="userSpaceOnUse"><stop offset=".15" stop-color="#ccc"/><stop offset="1" stop-color="#707070"/></linearGradient></defs><g transform="translate(-33.271 -33.272)"><title>Page-1</title><g transform="translate(33.271 -34.016)"><title>Virtual Machine Scale Set.11603</title><title>layer1</title><g transform="translate(0 -34.182)"><title>rect16</title><path d="M0 122.85a1.134 1.134-180 0 0 1.13 1.13h31.45a1.134 1.134-180 0 0 1.14-1.13V102.6a1.134 1.134-180 0 0-1.14-1.13H1.13A1.134 1.134-180 0 0 0 102.6Z" style="fill:#005ba1;stroke:none;stroke-width:33.27099991;stroke-linecap:butt"/></g><g transform="translate(16.875 -38.885)"><title>polygon18</title><path d="M0 123.98v-6.54l5.6-3.3v6.57z" style="fill:#50e6ff;stroke:none;stroke-width:33.27099991;stroke-linecap:butt"/></g><g transform="translate(11.239 -45.421)"><title>polygon20</title><path d="m0 120.68 5.64-3.3 5.6 3.3-5.6 3.3z" style="fill:#c3f1ff;stroke:none;stroke-width:33.27099991;stroke-linecap:butt"/></g><g transform="translate(11.239 -38.885)"><title>polygon22</title><path d="M0 120.71v-6.57l5.64 3.3v6.54z" style="fill:#9cebff;stroke:none;stroke-width:33.27099991;stroke-linecap:butt"/></g><g transform="translate(13.24 -21.276)"><title>rect24</title><path d="M0 122.85a1.134 1.134-180 0 0 1.13 1.13h31.45a1.134 1.134-180 0 0 1.14-1.13V102.6a1.134 1.134-180 0 0-1.14-1.13H1.13A1.134 1.134-180 0 0 0 102.6Z" style="fill:#0078d4;stroke:none;stroke-width:33.27099991;stroke-linecap:butt"/></g><g transform="translate(30.114 -25.945)"><title>polygon26</title><path d="M0 123.98v-6.57l5.6-3.27v6.54z" style="fill:#50e6ff;stroke:none;stroke-width:33.27099991;stroke-linecap:butt"/></g><g transform="translate(24.478 -32.515)"><title>polygon28</title><path d="m0 120.71 5.64-3.3 5.6 3.3-5.6 3.27z" style="fill:#c3f1ff;stroke:none;stroke-width:33.27099991;stroke-linecap:butt"/></g><g transform="translate(24.478 -25.945)"><title>polygon30</title><path d="M0 120.68v-6.54l5.64 3.27v6.57z" style="fill:#9cebff;stroke:none;stroke-width:33.27099991;stroke-linecap:butt"/></g><g transform="translate(22.977 -8.737)"><title>rect32</title><path d="M0 122.85a1.134 1.134-180 0 0 1.13 1.13h31.45a1.134 1.134-180 0 0 1.14-1.13V102.6a1.134 1.134-180 0 0-1.14-1.13H1.13A1.134 1.134-180 0 0 0 102.6Z" style="fill:url(#a);stroke:none;stroke-width:33.27099991;stroke-linecap:butt"/></g><g transform="translate(39.852 -13.406)"><title>polygon34</title><path d="M0 123.98v-6.57l5.6-3.27v6.54z" style="fill:#50e6ff;stroke:none;stroke-width:33.27099991;stroke-linecap:butt"/></g><g transform="translate(34.216 -19.943)"><title>polygon36</title><path d="m0 120.68 5.64-3.3 5.6 3.3-5.6 3.3z" style="fill:#c3f1ff;stroke:none;stroke-width:33.27099991;stroke-linecap:butt"/></g><g transform="translate(34.216 -13.406)"><title>polygon38</title><path d="M0 120.68v-6.54l5.64 3.3v6.54z" style="fill:#9cebff;stroke:none;stroke-width:33.27099991;stroke-linecap:butt"/></g><g transform="translate(34.216 -13.406)"><title>polygon40</title><path d="m0 120.68 5.64-3.27v6.57z" style="fill:#c3f1ff;stroke:none;stroke-width:33.27099991;stroke-linecap:butt"/></g><g transform="translate(39.852 -13.406)"><title>polygon42</title><path d="M5.6 120.68 0 117.41v6.57z" style="fill:#9cebff;stroke:none;stroke-width:33.27099991;stroke-linecap:butt"/></g><g transform="translate(31.581)"><title>path44</title><path d="M15.01 122.08c-3.34-.53-3.34-2.94-3.34-6.67H5c0 3.87 0 6.27-3.33 6.67a1.97 1.97-180 0 0-1.67 1.9h16.67a1.97 1.97-180 0 0-1.66-1.9" style="fill:url(#b);stroke:none;stroke-width:33.27099991;stroke-linecap:butt"/></g></g></g></svg>