<svg xmlns="http://www.w3.org/2000/svg" xml:space="preserve" width="56.69" height="51.026" style="font-size:12px;overflow:visible;color-interpolation-filters:sRGB;fill-rule:evenodd;stroke-linecap:square;stroke-miterlimit:3" viewBox="0 0 56.69 51.026"><defs><linearGradient id="a" x1="0" x2="45.687" y1="102.021" y2="102.021" gradientTransform="scale(1.24083 .80591)" gradientUnits="userSpaceOnUse"><stop offset="0" stop-color="#0078d4"/><stop offset=".82" stop-color="#5ea0ef"/></linearGradient><linearGradient id="b" x1="0" x2="20.071" y1="148.07" y2="148.07" gradientTransform="scale(1.41247 .70798)" gradientUnits="userSpaceOnUse"><stop offset=".15" stop-color="#ccc"/><stop offset="1" stop-color="#707070"/></linearGradient></defs><g transform="translate(-34 -33.999)"><title>Page-1</title><g transform="translate(34 -34.016)"><title>Virtual Machine Windows.11522</title><title>g16</title><g transform="translate(0 -14.206)"><title>rect2</title><path d="M0 117.2a1.89 1.84-180 0 0 1.89 1.84H54.8a1.89 1.84-180 0 0 1.89-1.84V84.06a1.89 1.84-180 0 0-1.89-1.84H1.89A1.89 1.84-180 0 0 0 84.06Z" style="fill:url(#a);stroke:none;stroke-width:34;stroke-linecap:butt"/></g><g transform="translate(14.173)"><title>path14</title><path d="M25.54 115.97c-5.6-.86-5.82-4.79-5.82-11.14H8.6c0 6.35-.19 10.28-5.8 11.14a3.15 3.068-180 0 0-2.8 3.07h28.35a3.15 3.068-180 0 0-2.81-3.07" style="fill:url(#b);stroke:none;stroke-width:34;stroke-linecap:butt"/></g><g transform="translate(14.204 -20.537)"><title>path10</title><path d="m26.59 119.04-25.52-2.01c-.6-.04-1.07-.54-1.07-1.13V96.82c0-.59.47-1.09 1.07-1.13l25.53-2.01c.74 0 1.25.51 1.25 1.14v23.08c0 .31-.12.59-.34.81-.22.21-.51.33-.82.33z" style="fill:#804998;fill-opacity:.2;stroke:none;stroke-width:14.04889965;stroke-linecap:butt"/></g><g transform="translate(28.13 -34.103)"><title>polygon12</title><path d="M0 119.04h12.76v-10.66l-12.76 1Z" style="fill:#fff;fill-opacity:.8;stroke:none;stroke-width:14.04889965;stroke-linecap:butt"/></g><g transform="translate(15.37 -34.103)"><title>polygon14</title><path d="M0 119.04h10.94v-9.51L0 110.39Z" style="fill:#fff;fill-opacity:.8;stroke:none;stroke-width:14.04889965;stroke-linecap:butt"/></g><g transform="translate(28.13 -21.674)"><title>polygon16</title><path d="M0 108.39h12.76v10.65l-12.76-1Z" style="fill:#fff;fill-opacity:.8;stroke:none;stroke-width:14.04889965;stroke-linecap:butt"/></g><g transform="translate(15.37 -22.817)"><title>polygon18</title><path d="M0 109.53h10.94v9.51L0 118.18Z" style="fill:#fff;fill-opacity:.8;stroke:none;stroke-width:14.04889965;stroke-linecap:butt"/></g></g></g></svg>