<svg xmlns="http://www.w3.org/2000/svg" xml:space="preserve" width="56.69" height="51.026" style="font-size:12px;overflow:visible;color-interpolation-filters:sRGB;fill-rule:evenodd;stroke-linecap:square;stroke-miterlimit:3" viewBox="0 0 56.69 51.026"><defs><linearGradient id="a" x1="0" x2="45.687" y1="102.021" y2="102.021" gradientTransform="scale(1.24083 .80591)" gradientUnits="userSpaceOnUse"><stop offset="0" stop-color="#003067"/><stop offset=".035" stop-color="#00346c"/><stop offset=".24" stop-color="#004583"/><stop offset=".455" stop-color="#005194"/><stop offset=".695" stop-color="#00599e"/><stop offset="1" stop-color="#005ba1"/></linearGradient><linearGradient id="b" x1="0" x2="20.071" y1="148.07" y2="148.07" gradientTransform="scale(1.41247 .70798)" gradientUnits="userSpaceOnUse"><stop offset=".15" stop-color="#ccc"/><stop offset="1" stop-color="#707070"/></linearGradient><linearGradient id="c" x1="0" x2="31.09" y1="140.408" y2="140.408" gradientTransform="scale(1.44067 .69412)" gradientUnits="userSpaceOnUse"><stop offset="0" stop-color="#00aeef"/><stop offset=".21" stop-color="#0097dc"/><stop offset=".52" stop-color="#007cc5"/><stop offset=".79" stop-color="#006cb8"/><stop offset="1" stop-color="#0066b3"/></linearGradient></defs><g transform="translate(-34 -33.998)"><title>Page-1</title><g transform="translate(34 -34.016)"><title>Virtual Instance for SAP.11797</title><title>Sheet.11798</title><g transform="translate(0 -14.206)"><title>Sheet.11799</title><path d="M0 117.2a1.89 1.842-180 0 0 1.89 1.84H54.8a1.89 1.842-180 0 0 1.89-1.84V84.06a1.89 1.842-180 0 0-1.89-1.84H1.89A1.89 1.842-180 0 0 0 84.06Z" style="fill:url(#a);stroke:none;stroke-width:34;stroke-linecap:butt"/></g><g transform="translate(14.173)"><title>Sheet.11800</title><path d="M25.54 115.97c-5.6-.86-5.82-4.79-5.82-11.14H8.6c0 6.35-.19 10.28-5.8 11.14a3.148 3.067-180 0 0-2.8 3.07h28.35a3.148 3.067-180 0 0-2.81-3.07" style="fill:url(#b);stroke:none;stroke-width:34;stroke-linecap:butt"/></g><g transform="translate(6.426 -22.172)"><title>Sheet.11801</title><path d="M0 119.04h22.64l22.15-21.58H0Z" style="fill:url(#c);stroke:none;stroke-width:34;stroke-linecap:butt"/></g><g transform="translate(7.04 -26.019)"><title>Sheet.11802</title><path d="M25.98 105.62h-4.44l.02 10.13-3.85-10.14h-3.82l-3.29 8.47c-.35-2.16-2.63-2.9-4.43-3.45-1.19-.38-2.45-.92-2.44-1.53 0-.49.67-.95 2-.89a7.24 7.053 0 0 1 3.23.86l1.53-2.6a11.969 11.66-180 0 0-5-1.15 6.076 5.92-180 0 0-4.42 1.56 3.732 3.635-180 0 0-1.06 2.5 3.455 3.366-180 0 0 1.52 3 10.362 10.094-180 0 0 3 1.34c1.22.37 2.22.69 2.21 1.37a1.047 1.02 0 0 1-.29.67 1.938 1.887 0 0 1-1.42.44 6.086 5.929 0 0 1-3.67-1.02L0 117.81a9.478 9.233-180 0 0 4.82 1.23h.4a6.003 5.848-180 0 0 3.79-1.17l.17-.13-.16.83h3.74l.66-1.67a7.627 7.43-180 0 0 4.67.02l.47 1.65h6.7v-3.81h1.42c3.44 0 5.48-1.7 5.48-4.57 0-3.19-1.98-4.58-6.19-4.58zm-10.2 8.66a4.002 3.898 0 0 1-1.41-.24l1.39-4.3h.03l1.37 4.31a4.172 4.064 0 0 1-1.38.23m10.45-2.47h-.97v-3.46h.97c1.29 0 2.33.42 2.33 1.71s-1.03 1.75-2.33 1.75" style="fill:#fff;stroke:none;stroke-width:34;stroke-linecap:butt"/></g></g></g></svg>