<svg xmlns="http://www.w3.org/2000/svg" xml:space="preserve" width="60.472" height="60.472" style="font-size:12px;overflow:visible;color-interpolation-filters:sRGB;fill-rule:evenodd;stroke-linecap:square;stroke-miterlimit:3" viewBox="0 0 60.472 60.472"><g transform="translate(-38.247 -38.25)"><title>Page-1</title><g transform="translate(42.03 -42.03)"><title>Virtual Machine Reservation.11631</title><title>Sheet.11632</title><g transform="translate(22.677 -15.496)"><title>Sheet.11633</title><path d="M3.78 107.11v16.26l10.96 10.58-3.02 3.02L0 124.88v-17.77z" style="fill:#000;stroke:none;stroke-width:38.25;stroke-linecap:butt"/></g><title>Sheet.11634</title><path d="M26.46 84.06a26.457 26.457 0 0 1 26.45 26.46 26.457 26.457 0 0 1-26.45 26.45A26.457 26.457 0 0 1 0 110.52a26.457 26.457 0 0 1 26.46-26.46m0-3.78a30.236 30.236-180 1 0 30.23 30.24 30.236 30.236-180 0 0-30.23-30.24" style="fill:#000;stroke:none;stroke-width:38.25;stroke-linecap:butt"/></g></g></svg>