<svg xmlns="http://www.w3.org/2000/svg" xml:space="preserve" width="56.69" height="51.026" style="font-size:12px;overflow:visible;color-interpolation-filters:sRGB;fill-rule:evenodd;stroke-linecap:square;stroke-miterlimit:3" viewBox="0 0 56.69 51.026"><defs><linearGradient id="a" x1="0" x2="45.687" y1="102.021" y2="102.021" gradientTransform="scale(1.24083 .80591)" gradientUnits="userSpaceOnUse"><stop offset="0" stop-color="#0078d4"/><stop offset=".82" stop-color="#5ea0ef"/></linearGradient><linearGradient id="b" x1="0" x2="20.071" y1="148.07" y2="148.07" gradientTransform="scale(1.41247 .70798)" gradientUnits="userSpaceOnUse"><stop offset=".15" stop-color="#ccc"/><stop offset="1" stop-color="#707070"/></linearGradient></defs><g transform="translate(-34 -33.999)"><title>Page-1</title><g transform="translate(34 -34.016)"><title>Virtual Machine Linux.11680</title><title>g16</title><g transform="translate(0 -14.206)"><title>rect2</title><path d="M0 117.2a1.89 1.84-180 0 0 1.89 1.84H54.8a1.89 1.84-180 0 0 1.89-1.84V84.06a1.89 1.84-180 0 0-1.89-1.84H1.89A1.89 1.84-180 0 0 0 84.06Z" style="fill:url(#a);stroke:none;stroke-width:34;stroke-linecap:butt"/></g><g transform="translate(14.173)"><title>path14</title><path d="M25.54 115.97c-5.6-.86-5.82-4.79-5.82-11.14H8.6c0 6.35-.19 10.28-5.8 11.14a3.15 3.068-180 0 0-2.8 3.07h28.35a3.15 3.068-180 0 0-2.81-3.07" style="fill:url(#b);stroke:none;stroke-width:34;stroke-linecap:butt"/></g><g transform="translate(17.526 -20.63)"><title>Layer_3</title><g transform="translate(10.81 -18.293)"><title>path10</title><path d="m1.14 118.73-.51.31-.44-.78c-.17-.3-.19-.55-.08-.82.1-.23.3-.36.56-.36h.06c.28.02.56.31.65.56.09.27.09.9-.24 1.09" style="fill:#fff;fill-opacity:.31999996;stroke:none;stroke-width:10.72340012;stroke-linecap:butt"/></g><g transform="translate(4.493 -2.337)"><title>path12</title><path d="M2.52 117.79c0-.03-2.52-3.96-2.37-4.64 1.18-5.49 2.59-6.29 3.11-7.45s.22-2.23.84-2.25c.61-.01 2.42.12 2.87.27.44.14 1.06.57 1.41 1.52.47.87.93 1.74 1.08 2.72.01.09.05.18.11.25 1.18 1.26 1.41 2.79 1.33 4.4-.02.41-.08 1.02-.13 1.23-.06.21-1.64 5.2-4.14 5.14-2.49-.06-3.82-.97-4.11-1.19" style="fill:#fbfbf9;fill-opacity:.8;stroke:none;stroke-width:10.72340012;stroke-linecap:butt"/></g><g transform="translate(13.712 -.168)"><title>path14-9</title><path d="M6.71 114.46c-.92-.04-1.4-.58-1.4-1.09-.01-.6.25-1.35-.64-1.42-.89-.08-2.71-.17-3.19-.26-1.07-.19-1.12.23-1.14.53-.01.15.13 1.55-.01 2.1.01.24-.01.47-.05.71-.1.64-.18 1.28-.26 1.92-.01.31-.01.63-.02.94.77 1.11 2.28 1.15 3.21.19.87-.87 1.93-1.46 3.04-1.99.31-.15.61-.37.77-.8.17-.43.01-.81-.31-.83" style="fill:#ff8c00;fill-opacity:.8;stroke:none;stroke-width:10.72340012;stroke-linecap:butt"/></g><g transform="translate(3.043 -4.153)"><title>path16</title><path d="M5.24 117.91c-.13.6-.79 1.13-1.14 1.08-.21-.11-.79-.86-.92-1.04-.37-.56-2.03-2.87-2.51-2.69-.16.02-.24.13-.33.24-.03.01-.06.03-.09.04-.25-.52-.23-1.04.05-1.53.6-1.08.89-2.2 1.2-3.4.1-.41.35-.74.62-1.07.48-.6.47-1.21.97-1.8.32-.39.6-.8.57-1.29-.08-1.39-.27-2.75-.21-4.14.06-1.37 1.29-2.51 2.66-3 1.43-.51 2.77-.26 3.92.74.9.78 1.29 1.81 1.36 2.97.01.21.02.42.01.63-.1 2.18.84 3.95 2.26 5.53 1.37 1.51 1.9 3.33 2.03 5.29.03.51-.14.99-.36 1.46-.3.66-.72 1.08-1.11 1.25-.4.17-1.94.29-1.64-.7.15-.48.17-.69-.44-.81.04-.41.11-.81.13-1.22.09-1.62-.2-2.9-1.46-4.05-.39-.35-.03-.41-.04-.73-.03-.86-.55-1.73-1.02-2.6-.04-.15-.12-.3-.23-.42.04-.14-.05-.24-.1-.34.07-.28.19-.54.13-.83 0-.26-2.65-.36-2.98-.24-.14-.04-1.55-.1-1.55-.08-.19.14-.32.32-.38.54-.06.21.29.65.32.72-.01.29-.03.59-.04.88-.03.11-.06.21-.09.31-.23.34-.46.68-.68 1.02-.19.31-.42.61-.45.99-.15.39.4.9-.1 1.35s-1 2.63-1.01 3.14c-.01.55 1.02 1.81 1.42 2.18.72.66 1.38.92 1.23 1.62" style="fill:#1e1e1e;fill-opacity:.8;stroke:none;stroke-width:10.72340012;stroke-linecap:butt"/></g><g transform="translate(7.78 -1.332)"><title>path18</title><path d="M0 117.17c1.07.29 4.08.38 5.54-1.05.24-.22.49-.43.73-.65.01.24 0 .47-.04.71-.1.64-.18 1.28-.27 1.92 0 .31-.01.63-.01.94-1.35-.36-3.37-.49-3.98-.46-.6.03-1.42.18-1.9.3z" style="fill:#1e1e1e;fill-opacity:.8;stroke:none;stroke-width:10.72340012;stroke-linecap:butt"/></g><title>path20</title><g transform="translate(18.622 -7.032)"><title>path22</title><path d="M.09 119.04c-.03-.03-.06-.05-.09-.08.03.03.06.05.09.08" style="fill:#dda516;fill-opacity:.8;stroke:none;stroke-width:10.72340012;stroke-linecap:butt"/></g><g transform="translate(7.167 -4.01)"><title>path24</title><path d="M0 118.97c.01.02.03.05.04.07-.01-.02-.03-.05-.04-.07" style="fill:#8c5f07;fill-opacity:.8;stroke:none;stroke-width:10.72340012;stroke-linecap:butt"/></g><title>polygon26</title><title>path28</title><path d="M6.73 114.34c-.78-.79-1.38-1.75-1.93-2.82-.29-.56-1.17-1.01-1.5-.13-.33.89-.86 1.25-1.71 1.14-.63-.09-1.22.38-.96 1.16.29.83.61 1.48-.01 2.06s-.37 1.19.5 1.3c.88.12 3.17.63 4.5 1.31 1.32.68 2.38-.61 2.52-.99.35-.95-.63-2.25-1.41-3.03" style="fill:#ff8c00;fill-opacity:.8;stroke:none;stroke-width:10.72340012;stroke-linecap:butt"/><g transform="translate(6.934 -13.956)"><title>path30</title><path d="M2.75 119.04c-.75 0-1.24-.69-1.6-1.29 0 0-1.15-1.57-.73-2.44.06-.12.16-.33 1.34-1.04l.22-.18.21-.11.14-.05c.16-.05.35-.1.52-.1h.09l.15.04.35.11 2.88 1.04.08.42c.07.34-.02.63-.09.87l-.11.41-.25.09c-.21.08-.55.43-.83.72-.27.28-.52.55-.79.71-.09.07-.19.14-.29.22-.42.29-.8.58-1.29.58" style="fill:#1e1e1e;fill-opacity:.8;stroke:none;stroke-width:10.72340012;stroke-linecap:butt"/></g><g transform="translate(7.295 -14.027)"><title>path32</title><path d="M4.31 115.67c-.51.42-1.09.79-1.82.81q-.03.045 0 0c.01-.16 0-.31-.14-.43-.12-.1-.13-.24-.1-.36.14-.51.05-1.03.07-1.54-.13-.04-.44.07-.48.08-.07.03-.13.06-.19.09-.08.06-.15.12-.22.18-.09.06-1.07.64-1.17.84-.26.54.59 1.85.71 2 1 1.7 1.55.96 2.48.33.5-.32 1.15-1.28 1.72-1.48.07-.28.19-.54.13-.83-.35.01-.67.04-.99.31" style="fill:#ff8c00;fill-opacity:.8;stroke:none;stroke-width:10.72340012;stroke-linecap:butt"/></g><g transform="translate(9.207 -18.9)"><title>path34</title><path d="M0 119.04h.01c0-.01 0-.01-.01-.01z" style="fill:#e3a906;fill-opacity:.8;stroke:none;stroke-width:10.72340012;stroke-linecap:butt"/></g><g transform="translate(9.063 -16.066)"><title>path36</title><path d="M3.13 117.01c.21.11.41.23.41.5-.4.03-.74.05-1.09.34-.56.47-1.31 1.17-2.11 1.19.03-.25-.34-.62-.24-1.05.13-.56.15-1.23.18-1.79.36-.14.69-.01 1.03.09.15.08.29.17.43.25.25.09.49.18.74.28.2.13.43.14.65.19" style="fill:#fcd116;fill-opacity:.8;stroke:none;stroke-width:10.72340012;stroke-linecap:butt"/></g></g><g transform="translate(25.797 -39.497)"><title>rect39</title><path d="M0 118.072h.993v.968H0z" style="fill:#fff;fill-opacity:.9;stroke:none;stroke-width:10.72340012;stroke-linecap:butt"/></g><g transform="translate(28.777 -39.497)"><title>rect41</title><path d="M0 118.072h.993v.968H0z" style="fill:#fff;fill-opacity:.9;stroke:none;stroke-width:10.72340012;stroke-linecap:butt"/></g></g></g></svg>