<svg xmlns="http://www.w3.org/2000/svg" xml:space="preserve" width="56.698" height="56.687" style="font-size:12px;overflow:visible;color-interpolation-filters:sRGB;fill-rule:evenodd;stroke-linecap:square;stroke-miterlimit:3" viewBox="0 0 56.698 56.687"><g transform="translate(-12.236 -12.241)"><title>Page-1</title><g transform="translate(12.24 -34.016)"><title>Virtual Machine Redeploy.11635</title><title>Sheet.11636</title><title>Sheet.11637</title><path d="M48.48 62.58 8.81 102.24a2.405 2.405 0 0 1-3.4 0L.7 97.54a2.405 2.405 0 0 1 0-3.4l39.67-39.67a2.405 2.405 0 0 1 3.4 0l4.71 4.71a2.4 2.4 0 0 1 0 3.4" style="fill:#3999c6;stroke:none;stroke-width:12.23999977;stroke-linecap:butt"/><g transform="translate(22.249 -22.248)"><title>Sheet.11638</title><path d="m0 94.84 8.65-8.65 8.11 8.11-8.65 8.65z" style="fill:#0072c6;fill-opacity:.6;stroke:none;stroke-width:12.23999977;stroke-linecap:butt"/></g><g transform="translate(17.214 -17.215)"><title>Sheet.11639</title><path d="m15.44 64.1 23.41 23.41-15.44 15.44L0 79.54Z" style="fill:#7a7a7a;stroke:none;stroke-width:12.23999977;stroke-linecap:butt"/></g><g transform="translate(16.584 -16.583)"><title>Sheet.11640</title><path d="M.63 78.91 0 73.31l10.47-10.47 5.6.63zm38.85 7.97.63 5.6-10.47 10.47-5.6-.63z" style="fill:#a0a1a2;stroke:none;stroke-width:12.23999977;stroke-linecap:butt"/></g></g></g></svg>