<svg xmlns="http://www.w3.org/2000/svg" xml:space="preserve" width="56.69" height="51.026" style="font-size:12px;overflow:visible;color-interpolation-filters:sRGB;fill-rule:evenodd;stroke-linecap:square;stroke-miterlimit:3" viewBox="0 0 56.69 51.026"><defs><linearGradient id="a" x1="0" x2="45.687" y1="102.021" y2="102.021" gradientTransform="scale(1.24083 .80591)" gradientUnits="userSpaceOnUse"><stop offset="0" stop-color="#0078d4"/><stop offset=".82" stop-color="#5ea0ef"/></linearGradient><linearGradient id="b" x1="0" x2="20.071" y1="148.07" y2="148.07" gradientTransform="scale(1.41247 .70798)" gradientUnits="userSpaceOnUse"><stop offset="0" stop-color="#1490df"/><stop offset=".98" stop-color="#1f56a3"/></linearGradient></defs><g transform="translate(-34 -33.999)"><title>Page-1</title><g transform="translate(34 -34.016)"><title>Virtual Machine Image.11701</title><title>Icon-compute-33</title><g transform="translate(0 -14.206)"><title>Sheet.11703</title><path d="M0 117.2a1.89 1.84-180 0 0 1.89 1.84H54.8a1.89 1.84-180 0 0 1.89-1.84V84.06a1.89 1.84-180 0 0-1.89-1.84H1.89A1.89 1.84-180 0 0 0 84.06Z" style="fill:url(#a);stroke:none;stroke-width:34;stroke-linecap:butt"/></g><g transform="translate(28.346 -21.876)"><title>Sheet.11704</title><path d="M9.45 102.93v10.71L0 119.04V108.3Z" style="fill:#50e6ff;stroke:none;stroke-width:34;stroke-linecap:butt"/></g><g transform="translate(18.898 -32.584)"><title>Sheet.11705</title><path d="m18.9 113.64-9.42 5.4-9.48-5.4 9.48-5.37z" style="fill:#c3f1ff;stroke:none;stroke-width:34;stroke-linecap:butt"/></g><g transform="translate(18.898 -21.876)"><title>Sheet.11706</title><path d="M9.45 108.33v10.71L0 113.64v-10.71z" style="fill:#9cebff;stroke:none;stroke-width:34;stroke-linecap:butt"/></g><g transform="translate(18.898 -21.876)"><title>Sheet.11707</title><path d="m0 113.64 9.45-5.34v10.74z" style="fill:#c3f1ff;stroke:none;stroke-width:34;stroke-linecap:butt"/></g><g transform="translate(28.346 -21.876)"><title>Sheet.11708</title><path d="M9.45 113.64 0 108.3v10.74z" style="fill:#9cebff;stroke:none;stroke-width:34;stroke-linecap:butt"/></g><g transform="translate(14.205)"><title>Sheet.11709</title><path d="M25.51 115.97c-5.6-.86-5.82-4.79-5.79-11.14H8.47c0 6.35 0 10.28-5.7 11.14A3.15 3.068-180 0 0 0 119.04h28.35a3.339 3.252-180 0 0-2.84-3.07" style="fill:url(#b);stroke:none;stroke-width:34;stroke-linecap:butt"/></g><g transform="translate(4.63 -17.887)"><title>Sheet.11710</title><path d="M10.74 89.58H2.08A2.079 2.025-180 0 0 0 91.61v8.47a1.04 1.013-180 0 0 1.04 1.01h.69a1.04 1.013-180 0 0 1.04-1.01v-7.83h7.97a1.04 1.013-180 0 0 1.01-1.01v-.64a1.04 1.013-180 0 0-1.01-1.02m0 26.58h-8v-7.77a1.04 1.013-180 0 0-1.04-1.01h-.66A1.04 1.013-180 0 0 0 108.39v8.59a2.079 2.025-180 0 0 2.08 2.06h8.66a1.07 1.043-180 0 0 1.01-1.2v-.67a1.04 1.013-180 0 0-1.01-1.01m34.74-26.48h-8.54a1.04 1.013-180 0 0-1.03 1.01v.64a1.04 1.013-180 0 0 1.03 1.11h7.97v7.7a1.04 1.013-180 0 0 1.04 1.01h.73a1.04 1.013-180 0 0 1.04-1.01V91.7a2.079 2.025-180 0 0-2.24-2.02m1.07 17.76h-.66a1.04 1.013-180 0 0-1.04 1.01v7.8h-7.91a1.04 1.013-180 0 0-1.03 1.01v.67a1.04 1.013-180 0 0 1.03 1.02h8.67a2.11 2.056-180 0 0 2.11-2.03v-8.47a1.04 1.013-180 0 0-1.17-1.01" style="fill:#fff;stroke:none;stroke-width:34;stroke-linecap:butt"/></g></g></g></svg>