<svg xmlns="http://www.w3.org/2000/svg" xml:space="preserve" width="56.697" height="53.863" style="font-size:12px;overflow:visible;color-interpolation-filters:sRGB;fill-rule:evenodd;stroke-linecap:square;stroke-miterlimit:3" viewBox="0 0 56.697 53.863"><g transform="translate(-38.25 -38.247)"><title>Page-1</title><g transform="translate(38.251 -38.25)"><title>Virtual Machine Serial Console.11590</title><title>Sheet.11591</title><g transform="translate(0 -3.503)"><title>Sheet.11592</title><path d="M28.61 127.8a2.494 2.486 0 0 1-2.46 2.56H2.46A2.494 2.486 0 0 1 0 127.8V82.6A2.532 2.523 0 0 1 2.46 80h23.69a2.532 2.523 0 0 1 2.46 2.56z" style="fill:#7a7a7a;stroke:none;stroke-width:38.25;stroke-linecap:butt"/></g><g transform="translate(4.195 -33.709)"><title>Sheet.11593</title><path d="M0 127.27a3.1 3.088 0 0 1 3.14-3.09h14.25a3.1 3.09 0 0 1 0 6.18H3.14A3.137 3.126 0 0 1 0 127.27" style="fill:#1e1e1e;stroke:none;stroke-width:38.25;stroke-linecap:butt"/></g><g transform="translate(5.367 -34.725)"><title>Sheet.11594</title><ellipse cx="2.079" cy="128.287" rx="2.079" ry="2.071" style="fill:#59b4d9;stroke:none;stroke-width:38.25;stroke-linecap:butt"/></g><g transform="translate(4.195 -42.898)"><title>Sheet.11595</title><path d="M0 127.23a3.137 3.126 0 0 1 3.14-3.09h14.25a3.137 3.126 0 0 1 0 6.22H3.14A3.137 3.126 0 0 1 0 127.23" style="fill:#1e1e1e;stroke:none;stroke-width:38.25;stroke-linecap:butt"/></g><g transform="translate(5.367 -43.953)"><title>Sheet.11596</title><ellipse cx="2.079" cy="128.287" rx="2.079" ry="2.071" style="fill:#59b4d9;stroke:none;stroke-width:38.25;stroke-linecap:butt"/></g><g transform="translate(20.523)"><title>Sheet.11597</title><path d="M0 128.93a1.436 1.431-180 0 0 1.44 1.43h33.14a1.436 1.431-180 0 0 1.44-1.43v-22.6H0Z" style="fill:#b8d432;stroke:none;stroke-width:38.25;stroke-linecap:butt"/></g><g transform="translate(20.523 -23.163)"><title>Sheet.11598</title><path d="M34.58 122.83H1.44A1.323 1.318-180 0 0 0 123.99v6.37h36.02v-6.29a1.323 1.318-180 0 0-1.44-1.24" style="fill:#a0a1a2;stroke:none;stroke-width:38.25;stroke-linecap:butt"/></g><g transform="translate(20.523 -.075)"><title>Sheet.11599</title><path d="M1.44 99.74A1.436 1.431-180 0 0 0 101.17v27.76a1.436 1.431-180 0 0 1.44 1.43h1.58l28.39-30.62Z" style="fill:#fff;fill-opacity:.2;stroke:none;stroke-width:38.25;stroke-linecap:butt"/></g><g transform="translate(28.498 -4.218)"><title>Sheet.11600</title><path d="M9.49 127.04h10.96v2.45H9.49Zm-7.71 3.32-1.7-1.73 5.29-5.31L0 116.87l1.85-1.54 6.84 8.14z" style="fill:#fff;stroke:none;stroke-width:38.25;stroke-linecap:butt"/></g><g transform="translate(28.649 -30.695)"><title>Sheet.11601</title><path d="M13.57 130.36H9.98v-2.75a6.387 6.365-180 0 0-6.5-6.33H0v-3.58h3.48a9.978 9.943 0 0 1 9.98 9.91z" style="fill:#68217a;stroke:none;stroke-width:38.25;stroke-linecap:butt"/></g><g transform="translate(32.346 -34.876)"><title>Sheet.11602</title><path d="M24.35 127.53a2.872 2.862-180 0 0-2.88-2.9h-.34a7.181 7.156-180 0 0 .27-2.03 7.56 7.533-180 0 0-14.85-2.45 5.367 5.348-180 0 0-1.71-.3 5.291 5.273-180 0 0 0 10.51H21.7a2.872 2.862-180 0 0 2.65-2.86z" style="fill:#59b4d9"/><path d="M24.35 127.53a2.872 2.862-180 0 0-2.88-2.9h-.34a7.181 7.156-180 0 0 .27-2.03 7.56 7.533-180 0 0-14.85-2.45 5.367 5.348-180 0 0-1.71-.3 5.291 5.273-180 0 0 0 10.51H21.7a2.872 2.862-180 0 0 2.65-2.86" style="stroke:none;stroke-width:38.25;stroke-linecap:butt"/></g></g></g></svg>