<svg xmlns="http://www.w3.org/2000/svg" xml:space="preserve" width="56.69" height="51.026" style="font-size:12px;overflow:visible;color-interpolation-filters:sRGB;fill-rule:evenodd;stroke-linecap:square;stroke-miterlimit:3" viewBox="0 0 56.69 51.026"><defs><linearGradient id="a" x1="0" x2="45.687" y1="102.021" y2="102.021" gradientTransform="scale(1.24083 .80591)" gradientUnits="userSpaceOnUse"><stop offset="0" stop-color="#0078d4"/><stop offset=".82" stop-color="#5ea0ef"/></linearGradient><linearGradient id="b" x1="0" x2="20.071" y1="148.07" y2="148.07" gradientTransform="scale(1.41247 .70798)" gradientUnits="userSpaceOnUse"><stop offset="0" stop-color="#ccc"/><stop offset="1" stop-color="#707070"/></linearGradient></defs><g transform="translate(-34 -33.999)"><title>Page-1</title><g transform="translate(34 -34.016)"><title>Virtual Machine Updates.11531</title><title>Sheet.11532</title><g transform="translate(0 -14.206)"><title>Sheet.11533</title><path d="M0 117.2a1.89 1.84-180 0 0 1.89 1.84H54.8a1.89 1.84-180 0 0 1.89-1.84V84.06a1.89 1.84-180 0 0-1.89-1.84H1.89A1.89 1.84-180 0 0 0 84.06Z" style="fill:url(#a);stroke:none;stroke-width:34;stroke-linecap:butt"/></g><g transform="translate(14.173)"><title>Sheet.11534</title><path d="M25.54 115.97c-5.6-.86-5.82-4.79-5.82-11.14H8.6c0 6.35-.19 10.28-5.8 11.14a3.15 3.068-180 0 0-2.8 3.07h28.35a3.15 3.068-180 0 0-2.81-3.07" style="fill:url(#b);stroke:none;stroke-width:34;stroke-linecap:butt"/></g><g transform="translate(15.556 -20.416)"><title>Sheet.11535</title><path d="M0 107.14v7.94a.463.451-180 0 0 .463.451.47.457-180 0 0 .27-.086l2.247-1.575a13.147 12.807-180 0 0 5.11 4.06 12.863 12.53-180 0 0 5.27 1.11 12.312 11.994-180 0 0 2.15-.18 12.576 12.251-180 0 0 3.54-1.14 12.12 11.806-180 0 0 3-2.07 12.337 12.018-180 0 0 3.49-6.09.706.687-180 0 0-.482-.8.68.663-180 0 0-.208-.031.702.684-180 0 0-.674.484 10.62 10.346 0 0 1-3.446 4.977 10.035 9.775 0 0 1-5.55 2.18 9.096 8.86 0 0 1-.88.04 9.956 9.698 0 0 1-4.82-1.23 9.783 9.53 0 0 1-3.57-3.37l3.11-2.19a.463.451-180 0 0-.151-.8L.58 106.71a.403.393-180 0 0-.12 0 .46.448-180 0 0-.46.433z" style="fill:#fff;fill-opacity:.8;stroke:none;stroke-width:34;stroke-linecap:butt"/></g><g transform="translate(15.628 -32.326)"><title>Sheet.11536</title><path d="M25.52 118.58v-7.94a.466.454-180 0 0-.466-.451.46.448-180 0 0-.268.086l-2.106 1.485a13.206 12.865-180 0 0-5.36-4.16 12.958 12.622-180 0 0-5.09-1.03A12.375 12.055-180 0 0 0 116.21a.63.614-180 0 0 .428.696.709.69-180 0 0 .183.025.63.614-180 0 0 .592-.426A10.709 10.432 0 0 1 4.67 111.5a10.12 9.858 0 0 1 5.53-2.19c.29-.03.59-.05.88-.05a9.858 9.603 0 0 1 4.78 1.23A9.613 9.364 0 0 1 19.5 114l-3.02 2.12a.463.451-180 0 0 .154.8l8.296 2.1a.384.374-180 0 0 .117.015.463.451-180 0 0 .472-.463z" style="fill:#fff;stroke:none;stroke-width:34;stroke-linecap:butt"/></g></g></g></svg>