<svg xmlns="http://www.w3.org/2000/svg" xml:space="preserve" width="56.69" height="51.026" style="font-size:12px;overflow:visible;color-interpolation-filters:sRGB;fill-rule:evenodd;stroke-linecap:square;stroke-miterlimit:3" viewBox="0 0 56.69 51.026"><defs><linearGradient id="a" x1="0" x2="45.687" y1="102.021" y2="102.021" gradientTransform="scale(1.24083 .80591)" gradientUnits="userSpaceOnUse"><stop offset="0" stop-color="#804998"/><stop offset=".82" stop-color="#b482c8"/></linearGradient><linearGradient id="b" x1="0" x2="20.071" y1="148.07" y2="148.07" gradientTransform="scale(1.41247 .70798)" gradientUnits="userSpaceOnUse"><stop offset=".15" stop-color="#ccc"/><stop offset="1" stop-color="#707070"/></linearGradient></defs><g transform="translate(-34 -33.999)"><title>Page-1</title><g transform="translate(34 -34.016)"><title>Virtual Machine Non-Azure Linux.11659</title><title>g16</title><g transform="translate(0 -14.206)"><title>rect2</title><path d="M0 117.2a1.89 1.84-180 0 0 1.89 1.84H54.8a1.89 1.84-180 0 0 1.89-1.84V84.06a1.89 1.84-180 0 0-1.89-1.84H1.89A1.89 1.84-180 0 0 0 84.06Z" style="fill:url(#a);stroke:none;stroke-width:34;stroke-linecap:butt"/></g><g transform="translate(14.173)"><title>path14</title><path d="M25.54 115.97c-5.6-.86-5.82-4.79-5.82-11.14H8.6c0 6.35-.19 10.28-5.8 11.14a3.15 3.068-180 0 0-2.8 3.07h28.35a3.15 3.068-180 0 0-2.81-3.07" style="fill:url(#b);stroke:none;stroke-width:34;stroke-linecap:butt"/></g><g transform="translate(18.493 -21.253)"><title>Layer_3</title><g transform="translate(10.326 -17.473)"><title>path10</title><path d="m1.09 118.75-.49.29-.42-.75c-.16-.28-.18-.52-.07-.78.09-.22.29-.35.53-.35l.05.01c.27.02.54.29.63.53.08.26.08.86-.23 1.05" style="fill:#fff;fill-opacity:.31999996;stroke:none;stroke-width:10.24240017;stroke-linecap:butt"/></g><g transform="translate(4.291 -2.232)"><title>path12</title><path d="M2.4 117.85c0-.03-2.4-3.78-2.26-4.44 1.13-5.24 2.48-6 2.97-7.11.5-1.11.21-2.13.8-2.15.59-.01 2.32.12 2.74.25.42.14 1.02.55 1.35 1.46.45.83.89 1.66 1.03 2.6.01.09.05.17.11.23 1.12 1.21 1.35 2.67 1.27 4.21-.02.39-.07.97-.13 1.17-.05.2-1.56 4.97-3.95 4.91-2.38-.06-3.65-.92-3.93-1.13" style="fill:#fbfbf9;fill-opacity:.8;stroke:none;stroke-width:10.24240017;stroke-linecap:butt"/></g><g transform="translate(13.097 -.16)"><title>path14-9</title><path d="M6.41 114.67c-.88-.04-1.34-.56-1.34-1.04-.01-.57.24-1.29-.61-1.36-.85-.08-2.58-.17-3.05-.25-1.02-.18-1.07.22-1.08.51-.01.13.12 1.48-.02 2 .01.23 0 .45-.04.68-.1.61-.17 1.22-.25 1.83-.01.3-.01.6-.02.9.74 1.06 2.18 1.1 3.06.18.84-.82 1.85-1.4 2.91-1.9.29-.14.58-.35.74-.76s.01-.78-.3-.79" style="fill:#ff8c00;fill-opacity:.8;stroke:none;stroke-width:10.24240017;stroke-linecap:butt"/></g><g transform="translate(2.906 -3.967)"><title>path16</title><path d="M5 117.96c-.12.57-.75 1.08-1.08 1.04-.21-.11-.76-.83-.88-1-.36-.53-1.94-2.74-2.4-2.57-.15.02-.23.12-.31.23-.03.01-.06.02-.09.04-.24-.5-.22-.99.04-1.46.58-1.04.85-2.1 1.15-3.25.1-.39.34-.71.59-1.02.47-.58.46-1.16.93-1.73.31-.36.57-.76.55-1.23-.09-1.33-.26-2.62-.2-3.95.06-1.3 1.22-2.4 2.54-2.87 1.36-.49 2.65-.25 3.74.71.86.75 1.23 1.73 1.3 2.84.01.2.02.4.01.6-.1 2.08.8 3.77 2.16 5.28 1.3 1.45 1.81 3.18 1.93 5.06.03.49-.13.94-.34 1.39-.28.63-.69 1.03-1.06 1.19-.38.17-1.85.28-1.56-.66.14-.47.16-.66-.43-.78.05-.39.11-.78.13-1.17.08-1.54-.2-2.76-1.4-3.86-.37-.34-.02-.39-.03-.7-.03-.82-.53-1.65-.98-2.48-.04-.15-.11-.29-.21-.41.03-.13-.05-.22-.11-.32.07-.26.19-.52.13-.8 0-.24-2.53-.34-2.84-.22-.14-.04-1.49-.1-1.48-.07-.18.13-.31.3-.37.51-.05.2.28.62.31.68-.01.29-.03.57-.05.85-.02.1-.05.2-.08.3-.22.32-.44.64-.64.97-.19.29-.41.58-.43.94-.15.37.38.86-.1 1.29-.48.44-.96 2.51-.97 3-.01.53.98 1.73 1.36 2.08.69.64 1.31.88 1.17 1.55" style="fill:#1e1e1e;fill-opacity:.8;stroke:none;stroke-width:10.24240017;stroke-linecap:butt"/></g><g transform="translate(7.431 -1.272)"><title>path18</title><path d="M0 117.25c1.02.28 3.89.37 5.29-1 .23-.21.47-.41.7-.62.01.23 0 .45-.04.68-.1.61-.17 1.22-.25 1.83-.01.3-.01.6-.02.9-1.29-.35-3.22-.47-3.79-.44-.58.03-1.37.17-1.82.29z" style="fill:#1e1e1e;fill-opacity:.8;stroke:none;stroke-width:10.24240017;stroke-linecap:butt"/></g><g transform="translate(18.18 -5.422)"><title>path20</title><path d="m.06 119.04-.06-.09z" style="fill:#dda516;fill-opacity:.8;stroke:none;stroke-width:10.24240017;stroke-linecap:butt"/></g><g transform="translate(17.786 -6.717)"><title>path22</title><path d="M.08 119.04c-.02-.03-.05-.05-.08-.08.03.03.06.05.08.08" style="fill:#dda516;fill-opacity:.8;stroke:none;stroke-width:10.24240017;stroke-linecap:butt"/></g><g transform="translate(6.846 -3.83)"><title>path24</title><path d="M0 118.98c.01.02.03.04.04.06-.01-.02-.03-.04-.04-.06" style="fill:#8c5f07;fill-opacity:.8;stroke:none;stroke-width:10.24240017;stroke-linecap:butt"/></g><title>polygon26</title><title>path28</title><path d="M6.43 114.55c-.75-.76-1.32-1.67-1.84-2.69-.28-.54-1.12-.97-1.44-.12-.31.84-.81 1.18-1.63 1.08-.6-.08-1.17.37-.91 1.11.27.79.57 1.41-.02 1.97s-.35 1.13.48 1.24c.84.11 3.03.6 4.3 1.25 1.26.65 2.27-.58 2.4-.95.34-.9-.6-2.14-1.34-2.89" style="fill:#ff8c00;fill-opacity:.8;stroke:none;stroke-width:10.24240017;stroke-linecap:butt"/><g transform="translate(6.623 -13.33)"><title>path30</title><path d="M2.63 119.04c-.72 0-1.19-.66-1.53-1.23 0 0-1.1-1.5-.7-2.33.06-.12.15-.32 1.28-1l.21-.17.2-.1.13-.05c.16-.05.34-.1.51-.1h.07l.15.04.34.11 2.75.99.08.4c.06.32-.02.61-.09.83l-.11.4-.23.08c-.21.08-.54.41-.8.69-.26.27-.5.52-.75.68-.09.06-.19.13-.28.2-.4.29-.77.56-1.23.56" style="fill:#1e1e1e;fill-opacity:.8;stroke:none;stroke-width:10.24240017;stroke-linecap:butt"/></g><g transform="translate(6.968 -13.397)"><title>path32</title><path d="M4.12 115.82c-.49.41-1.05.76-1.74.78q-.03.03 0 0c.01-.16 0-.3-.14-.41-.11-.1-.12-.23-.09-.35.13-.49.05-.98.07-1.47-.13-.04-.43.07-.47.08l-.18.09c-.07.05-.14.11-.2.16-.09.06-1.03.61-1.12.81-.25.51.56 1.76.68 1.91.95 1.62 1.48.92 2.37.31.48-.3 1.1-1.22 1.64-1.42.06-.26.18-.51.13-.79-.35.02-.65.04-.95.3" style="fill:#ff8c00;fill-opacity:.8;stroke:none;stroke-width:10.24240017;stroke-linecap:butt"/></g><g transform="translate(8.795 -18.053)"><title>path34</title><path d="M0 119.04h.01c0-.01 0-.01-.01-.01z" style="fill:#e3a906;fill-opacity:.8;stroke:none;stroke-width:10.24240017;stroke-linecap:butt"/></g><g transform="translate(8.657 -15.346)"><title>path36</title><path d="M2.99 117.1c.2.1.39.22.39.48-.38.02-.71.05-1.04.33-.53.45-1.26 1.11-2.01 1.13.03-.24-.33-.59-.23-1 .12-.54.14-1.18.16-1.71.35-.14.67-.02 1 .08.13.08.27.16.4.24.24.09.47.18.71.27.19.12.41.13.62.18" style="fill:#fcd116;fill-opacity:.8;stroke:none;stroke-width:10.24240017;stroke-linecap:butt"/></g></g><g transform="translate(26.392 -39.272)"><title>rect39</title><path d="M0 118.115h.949v.924H0z" style="fill:#fff;fill-opacity:.9;stroke:none;stroke-width:10.24240017;stroke-linecap:butt"/></g><g transform="translate(29.239 -39.272)"><title>rect41</title><path d="M0 118.115h.949v.924H0z" style="fill:#fff;fill-opacity:.9;stroke:none;stroke-width:10.24240017;stroke-linecap:butt"/></g></g></g></svg>