<svg xmlns="http://www.w3.org/2000/svg" xml:space="preserve" width="56.69" height="53.852" style="font-size:12px;overflow:visible;color-interpolation-filters:sRGB;fill-rule:evenodd;stroke-linecap:square;stroke-miterlimit:3" viewBox="0 0 56.69 53.852"><defs><linearGradient id="a" x1="0" x2="46.827" y1="100.712" y2="100.712" gradientTransform="scale(1.21063 .82602)" gradientUnits="userSpaceOnUse"><stop offset="0" stop-color="#0078d4"/><stop offset=".82" stop-color="#5ea0ef"/></linearGradient><linearGradient id="b" x1="0" x2="20.714" y1="146.138" y2="146.138" gradientTransform="scale(1.3691 .7304)" gradientUnits="userSpaceOnUse"><stop offset=".15" stop-color="#ccc"/><stop offset="1" stop-color="#707070"/></linearGradient><radialGradient id="c" cx="12.779" cy="155.253" r="18.658" fx="12.779" fy="155.253" gradientTransform="scale(1.37878 .72528)" gradientUnits="userSpaceOnUse"><stop offset="0" stop-color="#f2f2f2"/><stop offset=".58" stop-color="#eee"/><stop offset="1" stop-color="#e6e6e6"/></radialGradient></defs><g transform="translate(-34 -34.002)"><title>Page-1</title><g transform="translate(34 -34.016)"><title>Virtual Machine SQL.11543</title><title>Sql virtual machine</title><g transform="translate(0 -15.172)"><title>rect4</title><path d="M0 119.95a1.878 1.922-180 0 0 1.88 1.92h52.94a1.878 1.922-180 0 0 1.87-1.92V85.11a1.878 1.922-180 0 0-1.87-1.92H1.88A1.878 1.922-180 0 0 0 85.11Z" style="fill:url(#a);stroke:none;stroke-width:34;stroke-linecap:butt"/></g><g transform="translate(14.182)"><title>path6</title><path d="M25.55 118.44c-5.6-.89-5.84-5.04-5.8-11.7H8.62c0 6.66-.2 10.81-5.8 11.7A3.353 3.433-180 0 0 0 121.87h28.36a3.353 3.433-180 0 0-2.81-3.43" style="fill:url(#b);stroke:none;stroke-width:34;stroke-linecap:butt"/></g><g transform="translate(11.902 -24.475)"><title>path8</title><path d="M30.11 115.52v-11.94h-3.36v14.59h8.49v-2.65zm-24.61-5.9a6.705 6.865 0 0 1-1.75-1.06 1.509 1.545 0 0 1-.43-1.17 1.207 1.236 0 0 1 .54-1.07 2.313 2.369 0 0 1 1.44-.37 5.565 5.698 0 0 1 3.35.99v-3.02a9.287 9.508-180 0 0-3.35-.58 5.8 5.938-180 0 0-3.79 1.2A3.755 3.845-180 0 0 .1 107.7a4.627 4.737-180 0 0 2.95 4.25 8.348 8.547 0 0 1 2.11 1.27 1.375 1.407 0 0 1 .54 1.14 1.341 1.373 0 0 1-.54 1.09 2.548 2.609 0 0 1-1.41.45A5.666 5.801 0 0 1 0 114.39v3.43a7.61 7.792-180 0 0 3.69.83 6.705 6.865-180 0 0 4.05-1.34 3.755 3.845-180 0 0 1.48-3.23 3.353 3.433-180 0 0-.87-2.47 8.516 8.719-180 0 0-2.85-1.99m17.9 5.63a8.046 8.238-180 0 0 1.14-4.46 8.18 8.376-180 0 0-.87-3.88 6.202 6.35-180 0 0-2.41-2.65 6.873 7.037-180 0 0-3.36-.92 7.476 7.655-180 0 0-3.72.96 6.336 6.488-180 0 0-2.55 2.74 8.281 8.479-180 0 0-1.04 4.06 8.18 8.376-180 0 0 .81 3.7 6.437 6.59-180 0 0 2.38 2.61 6.906 7.071-180 0 0 3.35 1.03l2.95 3.43h4.16l-4.06-3.98a5.968 6.11-180 0 0 3.22-2.64m-3.35-.89a3.151 3.227 0 0 1-2.62 1.23 3.084 3.158 0 0 1-2.61-1.27 5.197 5.32 0 0 1-1.01-3.43 5.264 5.39 0 0 1 1.01-3.43 3.353 3.433 0 0 1 2.68-1.27 3.017 3.09 0 0 1 2.58 1.27 5.532 5.664 0 0 1 .94 3.43 5.029 5.149 0 0 1-.84 3.47z" style="fill:url(#c);stroke:none;stroke-width:34;stroke-linecap:butt"/></g></g></g></svg>