<svg xmlns="http://www.w3.org/2000/svg" xml:space="preserve" width="57.769" height="56.7" style="font-size:12px;overflow:visible;color-interpolation-filters:sRGB;fill-rule:evenodd;stroke-linecap:square;stroke-miterlimit:3" viewBox="0 0 57.769 56.7"><defs><radialGradient id="b" cx="0" cy="118.708" r="10.429" fx="0" fy="118.708" gradientTransform="scale(1.01162 .98852)" gradientUnits="userSpaceOnUse"><stop offset="0" stop-color="#7f7f7f"/><stop offset="1" stop-color="#5e5e5e"/></radialGradient><linearGradient id="a" x1="0" x2="52.585" y1="73.572" y2="73.572" gradientTransform="scale(1.01162 .98852)" gradientUnits="userSpaceOnUse"><stop offset=".185" stop-color="#5ea0ef"/><stop offset=".555" stop-color="#5c9fee"/><stop offset=".69" stop-color="#559ced"/><stop offset=".785" stop-color="#4a97e9"/><stop offset=".86" stop-color="#3990e4"/><stop offset=".93" stop-color="#2387de"/><stop offset=".985" stop-color="#087bd6"/><stop offset="1" stop-color="#0078d4"/></linearGradient></defs><g transform="translate(-34.002 -34)"><title>Page-1</title><g transform="translate(35.078 -34.016)"><title>Virtual Machine Auto-Shutdown.11778</title><title>MsPortalFx.base.images-55</title><g transform="translate(3.497 -4.712)"><title>Sheet.11780</title><ellipse cx="26.598" cy="98.718" rx="26.598" ry="25.991" style="fill:url(#a);stroke:none;stroke-width:34;stroke-linecap:butt"/></g><g transform="translate(7.04 -8.072)"><title>Sheet.11781</title><ellipse cx="23.159" cy="102.079" rx="23.159" ry="22.63" style="fill:#fff;stroke:none;stroke-width:34;stroke-linecap:butt"/></g><g transform="translate(10.289 -11.578)"><title>Sheet.11782</title><path d="m30.67 94.16 2.8-2.74.91.88-2.81 2.74zm4.93 10.77h3.97v1.25H35.6Zm-5.11 11.85.9-.88 2.8 2.74-.9.88zm-11.22 4.05h1.28v3.88h-1.28ZM5.31 92.18l.9-.89 2.81 2.74-.91.89zm.19 26.57 2.8-2.74.91.88-2.81 2.74zM0 104.93h3.97v1.25H0Z" style="fill:#7a7a7a;stroke:none;stroke-width:34;stroke-linecap:butt"/></g><g transform="translate(28.57 -29.928)"><title>Sheet.11783</title><path d="M0 123.12a1.628 1.59-180 0 0 1.63 1.59h.31a1.628 1.59-180 0 0 1.63-1.59v-16.75a1.628 1.59-180 0 0-1.63-1.59h-.31A1.628 1.59-180 0 0 0 106.37Z" style="fill:#7a7a7a;stroke:none;stroke-width:34;stroke-linecap:butt"/></g><g transform="rotate(135 22.513 115.587)"><title>Sheet.11784</title><path d="M0 123.12a1.625 1.587-180 0 0 1.62 1.59h.32a1.625 1.587-180 0 0 1.62-1.59v-9.3a1.625 1.587-180 0 0-1.62-1.59h-.32A1.625 1.587-180 0 0 0 113.82Z" style="fill:#7a7a7a;stroke:none;stroke-width:34;stroke-linecap:butt"/></g><g transform="translate(26.446 -27.065)"><title>Sheet.11785</title><ellipse cx="3.768" cy="121.027" rx="3.768" ry="3.682" style="fill:url(#b);stroke:none;stroke-width:34;stroke-linecap:butt"/></g><title>Sheet.11786</title><path d="M24.83 68.48a26.733 26.123-180 0 0-8.63 47.89l.89-2.28a.519.507 0 0 1 .886-.145l6.934 8.215a.519.507 0 0 1-.322.825L13.81 124.71a.522.51 0 0 1-.57-.68l1.29-3.38A31.326 30.611 0 0 1 0 102.51a27.275 26.652 0 0 1 24.83-34.03" style="fill:#86d633;stroke:none;stroke-width:34;stroke-linecap:butt"/></g></g></svg>