<svg xmlns="http://www.w3.org/2000/svg" xml:space="preserve" width="56.689" height="56.69" style="font-size:12px;overflow:visible;color-interpolation-filters:sRGB;fill-rule:evenodd;stroke-linecap:square;stroke-miterlimit:3" viewBox="0 0 56.689 56.69"><defs><linearGradient id="a" x1="0" x2="50.153" y1="60.177" y2="60.177" gradientTransform="scale(.88469 1.13034)" gradientUnits="userSpaceOnUse"><stop offset="0" stop-color="#32bedd"/><stop offset=".36" stop-color="#34c1e0"/><stop offset=".63" stop-color="#3ccbe8"/><stop offset=".88" stop-color="#48dbf6"/><stop offset="1" stop-color="#50e6ff"/></linearGradient></defs><g transform="translate(-34 -34.004)"><title>Page-1</title><g transform="translate(34 -34.016)"><title>Virtual Machine Image Definition.11721</title><title>Icon-compute-37</title><title>Sheet.11723</title><path d="M0 122.83a1.842 1.88-180 0 0 1.84 1.88h40.68a1.842 1.88-180 0 0 1.85-1.88V69.9a1.842 1.88-180 0 0-1.85-1.88H1.84A1.842 1.88-180 0 0 0 69.9Z" style="fill:url(#a);stroke:none;stroke-width:34;stroke-linecap:butt"/><g transform="translate(23.614 -3.325)"><title>Sheet.11724</title><path d="m32.95 111.04-9.44-9.64a.493.504-180 0 0-.822.336l.002 5.644C11.35 107.38 0 113.56 0 124.71c1.61-2.49 9.87-9.1 22.69-9.1v5.4a.493.504-180 0 0 .822.336l9.438-9.636a.493.504-180 0 0 0-.672z" style="fill:#773adc;stroke:none;stroke-width:34;stroke-linecap:butt"/></g><g transform="translate(22.2 -16.659)"><title>Sheet.11725</title><path d="M12.92 101.6v15.38L0 124.71v-15.42z" style="fill:#50e6ff;stroke:none;stroke-width:34;stroke-linecap:butt"/></g><g transform="translate(9.242 -32.04)"><title>Sheet.11726</title><path d="m25.88 116.98-12.92 7.73L0 116.98l12.96-7.72Z" style="fill:#c3f1ff;stroke:none;stroke-width:34;stroke-linecap:butt"/></g><g transform="translate(9.242 -16.659)"><title>Sheet.11727</title><path d="M12.96 109.33v15.38L0 116.98V101.6Z" style="fill:#9cebff;stroke:none;stroke-width:34;stroke-linecap:butt"/></g><g transform="translate(9.242 -16.659)"><title>Sheet.11728</title><path d="m0 116.98 12.96-7.69v15.42z" style="fill:#c3f1ff;stroke:none;stroke-width:34;stroke-linecap:butt"/></g><g transform="translate(22.2 -16.659)"><title>Sheet.11729</title><path d="M12.92 116.98 0 109.29v15.42z" style="fill:#9cebff;stroke:none;stroke-width:34;stroke-linecap:butt"/></g></g></g></svg>