<svg xmlns="http://www.w3.org/2000/svg" xml:space="preserve" width="56.693" height="56.692" style="font-size:12px;overflow:visible;color-interpolation-filters:sRGB;fill-rule:evenodd;stroke-linecap:square;stroke-miterlimit:3" viewBox="0 0 56.693 56.692"><defs><linearGradient id="a" x1="0" x2="44.893" y1="108.033" y2="108.033" gradientTransform="scale(1.22625 .8155)" gradientUnits="userSpaceOnUse"><stop offset=".18" stop-color="#5ea0ef"/><stop offset="1" stop-color="#0078d4"/></linearGradient><linearGradient id="b" x1="0" x2="14.817" y1="117.742" y2="117.742" gradientTransform="scale(1.06294 .94079)" gradientUnits="userSpaceOnUse"><stop offset=".2" stop-color="#1f56a3"/><stop offset="1" stop-color="#1490df"/></linearGradient><linearGradient id="c" x1="0" x2="27.2" y1="97.74" y2="97.74" gradientTransform="scale(1.00184 .99816)" gradientUnits="userSpaceOnUse"><stop offset=".13" stop-color="#b796f9"/><stop offset="1" stop-color="#773adc"/></linearGradient></defs><g transform="translate(-34 -34.002)"><title>Page-1</title><g transform="translate(34 -34.016)"><title>VM Application Version.11486</title><title>Sheet.11487</title><g transform="translate(0 -20.082)"><title>Sheet.11488</title><path d="M55.05 89.94v29.82a.885.882 0 0 1-1.492.63 14.945 14.891-180 0 0-23.748 4.32H1.85A1.855 1.849 0 0 1 0 122.86V89.94a1.852 1.846 0 0 1 1.85-1.84H53.2a1.85 1.843 0 0 1 1.85 1.84" style="fill:url(#a);stroke:none;stroke-width:34;stroke-linecap:butt"/></g><g transform="translate(14.053 -6.123)"><title>Sheet.11489</title><path d="M14.81 124.71H0a3.218 3.206 0 0 1 2.72-3.1c5.45-.65 5.45-4.55 5.45-10.84h7.58a14.948 14.895-180 0 0-.13 12.69.885.882 0 0 1-.81 1.244z" style="fill:url(#b);stroke:none;stroke-width:34;stroke-linecap:butt"/></g><g transform="translate(22.104 -33.036)"><title>Sheet.11490</title><path d="M0 124.37a.335.334-180 0 0 .335.334l7.855.006a.335.334-180 0 0 .335-.334l-.005-7.826a.335.334-180 0 0-.335-.334L.34 116.21a.335.334-180 0 0-.335.334z" style="fill:#9cebff;stroke:none;stroke-width:34;stroke-linecap:butt"/></g><g transform="translate(27.632 -38.425)"><title>Sheet.11491</title><path d="M8.39 115.61H.33a.316.315-180 0 0-.332.315L0 117.39a.316.315-180 0 0 .332.315l5.928-.005a.67.668 0 0 1 .67.665v6.025a.316.315-180 0 0 .316.315l1.464.005a.316.315-180 0 0 .316-.315l.004-8.115a.664.661-180 0 0-.667-.665z" style="fill:#773adc;stroke:none;stroke-width:34;stroke-linecap:butt"/></g><g transform="translate(17.938 -29.187)"><title>Sheet.11492</title><path d="M15.25 116.89v5.28a.607.605 0 0 1-.61.605l-12.1-.005a.61.608 0 0 1-.61-.605V110.78a.61.608 0 0 1 .61-.608l6.07.008a.316.315-180 0 0 .316-.315l.004-1.265a.316.315-180 0 0-.316-.315l-8.004.005a.607.605-180 0 0-.61.602V124.1a.607.605-180 0 0 .61.605l15.98.005a.61.608-180 0 0 .61-.605v-7.215a.316.315-180 0 0-.332-.315l-1.258-.005a.316.315-180 0 0-.335.315z" style="fill:#fff;stroke:none;stroke-width:34;stroke-linecap:butt"/></g><g transform="translate(29.443)"><title>Sheet.11493</title><path d="M0 111.13a13.625 13.577-180 0 0 13.62 13.58 13.625 13.577-180 0 0 13.63-13.58 13.625 13.577-180 0 0-13.63-13.57A13.625 13.577-180 0 0 0 111.13" style="fill:url(#c);stroke:none;stroke-width:34;stroke-linecap:butt"/></g><g transform="translate(36.087 -5.64)"><title>Sheet.11494</title><path d="M13.96 124.71H0l.03-.08 2.85-6.47 4.04-9.19a.18.18 0 0 1 .2-.13c.25 0 .25 0 .35.23l4.66 11.22 1.8 4.34zm-2.74-.97-4.64-11.39-5.04 11.39z" style="fill:#fff;stroke:none;stroke-width:34;stroke-linecap:butt"/></g></g></g></svg>