<svg xmlns="http://www.w3.org/2000/svg" xml:space="preserve" width="56.69" height="51.026" style="font-size:12px;overflow:visible;color-interpolation-filters:sRGB;fill-rule:evenodd;stroke-linecap:square;stroke-miterlimit:3" viewBox="0 0 56.69 51.026"><defs><linearGradient id="a" x1="0" x2="45.687" y1="102.021" y2="102.021" gradientTransform="scale(1.24083 .80591)" gradientUnits="userSpaceOnUse"><stop offset="0" stop-color="#0078d4"/><stop offset=".82" stop-color="#5ea0ef"/></linearGradient><linearGradient id="b" x1="0" x2="20.071" y1="148.07" y2="148.07" gradientTransform="scale(1.41247 .70798)" gradientUnits="userSpaceOnUse"><stop offset="0" stop-color="#1490df"/><stop offset=".98" stop-color="#1f56a3"/></linearGradient></defs><g transform="translate(-34 -33.999)"><title>Page-1</title><g transform="translate(34 -34.016)"><title>VM Application Definition.11495</title><title>Sheet.11496</title><g transform="translate(0 -14.206)"><title>Sheet.11497</title><path d="M0 117.2a1.89 1.84-180 0 0 1.89 1.84H54.8a1.89 1.84-180 0 0 1.89-1.84V84.06a1.89 1.84-180 0 0-1.89-1.84H1.89A1.89 1.84-180 0 0 0 84.06Z" style="fill:url(#a);stroke:none;stroke-width:34;stroke-linecap:butt"/></g><g transform="translate(14.205)"><title>Sheet.11498</title><path d="M25.51 115.97c-5.6-.86-5.82-4.79-5.79-11.14H8.47c0 6.35 0 10.28-5.7 11.14A3.15 3.068-180 0 0 0 119.04h28.35a3.342 3.255-180 0 0-2.84-3.07" style="fill:url(#b);stroke:none;stroke-width:34;stroke-linecap:butt"/></g><g transform="translate(23.005 -27.067)"><title>Sheet.11499</title><path d="M0 118.7a.346.338-180 0 0 .346.338l8.104.002a.346.338-180 0 0 .346-.337l.004-7.893a.346.338-180 0 0-.346-.338L.35 110.47a.346.338-180 0 0-.346.338z" style="fill:#9cebff;stroke:none;stroke-width:34;stroke-linecap:butt"/></g><g transform="translate(28.712 -32.486)"><title>Sheet.11500</title><path d="M8.66 109.84H.34a.343.334-180 0 0-.343.331L0 111.65a.343.334-180 0 0 .343.334l6.117-.004a.687.669 0 0 1 .69.669v6.061a.34.331-180 0 0 .34.331L9 119.04a.34.331-180 0 0 .343-.331l-.003-8.189a.69.672-180 0 0-.69-.672z" style="fill:#773adc;stroke:none;stroke-width:34;stroke-linecap:butt"/></g><g transform="translate(18.7 -23.18)"><title>Sheet.11501</title><path d="M15.75 111.14v5.33a.63.614 0 0 1-.63.614l-12.49.006a.63.614 0 0 1-.63-.614V104.99a.63.614 0 0 1 .63-.614l6.26-.006a.343.334-180 0 0 .34-.334v-1.276a.343.334-180 0 0-.34-.334l-8.26.004a.63.614-180 0 0-.63.614v15.386a.63.614-180 0 0 .63.614l16.49-.004a.63.614-180 0 0 .63-.614v-7.286a.343.334-180 0 0-.343-.334l-1.317.004a.34.331-180 0 0-.343.331z" style="fill:#fff;stroke:none;stroke-width:34;stroke-linecap:butt"/></g></g></g></svg>