<svg xmlns="http://www.w3.org/2000/svg" xml:space="preserve" width="56.69" height="56.694" style="font-size:12px;overflow:visible;color-interpolation-filters:sRGB;fill-rule:evenodd;stroke-linecap:square;stroke-miterlimit:3" viewBox="0 0 56.69 56.694"><defs><linearGradient id="a" x1="0" x2="27.15" y1="97.56" y2="97.56" gradientUnits="userSpaceOnUse"><stop offset=".13" stop-color="#b796f9"/><stop offset="1" stop-color="#773adc"/></linearGradient><linearGradient id="b" x1="0" x2="44.065" y1="80.773" y2="80.773" gradientTransform="scale(1.00102 .99898)" gradientUnits="userSpaceOnUse"><stop offset="0" stop-color="#999"/><stop offset="1" stop-color="#767676"/></linearGradient><linearGradient id="c" x1=".003" x2="20.797" y1="103.936" y2="103.936" gradientTransform="scale(1.00016 .99984)" gradientUnits="userSpaceOnUse"><stop offset="0" stop-color="#b3b3b3"/><stop offset="1" stop-color="#999"/></linearGradient><linearGradient id="d" x1="0" x2="40.196" y1="60.237" y2="60.237" gradientTransform="scale(.80531 1.24176)" gradientUnits="userSpaceOnUse"><stop offset="0" stop-color="#0078d4"/><stop offset="1" stop-color="#005ba1"/></linearGradient></defs><g transform="translate(-34 -34)"><title>Page-1</title><g transform="translate(34 -34.016)"><title>VM Image Version.11464</title><title>Sheet.11465</title><g transform="translate(29.54)"><title>Sheet.11466</title><path d="M0 111.13a13.577 13.577-180 0 0 13.58 13.58 13.577 13.577-180 0 0 13.57-13.58 13.577 13.577-180 0 0-13.57-13.57A13.577 13.577-180 0 0 0 111.13" style="fill:url(#a);stroke:none;stroke-width:34;stroke-linecap:butt"/></g><g transform="translate(36.16 -5.64)"><title>Sheet.11467</title><path d="M13.92 124.71H0l.03-.08 2.84-6.47c1.34-3.06 2.68-6.13 4.02-9.19a.18.18 0 0 1 .198-.13c.262 0 .262 0 .352.23l4.65 11.22 1.79 4.34zm-2.74-.98-4.63-11.38-5.01 11.39z" style="fill:#fff;stroke:none;stroke-width:34;stroke-linecap:butt"/></g><g transform="translate(9.285 -9.836)"><title>Sheet.11468</title><path d="M44.11 102.77a22.2 22.2 0 0 1-.63 5.3.885.885 0 0 1-1.345.526A14.907 14.907-180 0 0 18.93 120.95a15 15-180 0 0 .47 3.76 22.09 22.09 0 0 1-18.31-15.08A22 22 0 0 1 0 102.77a22 22 0 0 1 .31-3.74 22 22 0 0 1 .73-3 22.07 22.07 0 0 1 21.01-15.34c.35 0 .7 0 1.04.02a22.08 22.08 0 0 1 21.02 22.06" style="fill:url(#b);stroke:none;stroke-width:34;stroke-linecap:butt"/></g><g transform="translate(20.936 -21.395)"><title>Sheet.11469</title><path d="M20.8 114.33a10.2 10.2 0 0 1-.58 3.43 14.95 14.95-180 0 0-10.73 6.95 10.4 10.4 0 0 1-7.41-4.12 10.2 10.2 0 0 1-1.63-3.23 10.44 10.44 0 0 1 0-6.04 10.39 10.39 0 0 1 9.95-7.4 10 10 0 0 1 1.04.05 10.394 10.394 0 0 1 9.36 10.36" style="fill:url(#c);stroke:none;stroke-width:34;stroke-linecap:butt"/></g><g transform="translate(0 -6.784)"><title>Sheet.11470</title><path d="M32.37 76.37v31.22a14.9 14.9-180 0 0-4.17 10.31 15 15-180 0 0 .48 3.76 15 15-180 0 0 .63 1.85.882.882 0 0 1-.825 1.203L1.57 124.71A1.575 1.575 0 0 1 0 123.13V76.37a1.575 1.575 0 0 1 1.57-1.57h29.24a1.575 1.575 0 0 1 1.56 1.57" style="fill:url(#d);stroke:none;stroke-width:34;stroke-linecap:butt"/></g><g transform="translate(16.198 -21.512)"><title>Sheet.11471</title><path d="m8.71 109.33.06 10.2-8.71 5.18L0 114.48Z" style="fill:#50e6ff;stroke:none;stroke-width:34;stroke-linecap:butt"/></g><g transform="translate(7.402 -31.716)"><title>Sheet.11472</title><path d="m17.51 119.53-8.71 5.18-8.8-5.07 8.73-5.18Z" style="fill:#c3f1ff;stroke:none;stroke-width:34;stroke-linecap:butt"/></g><g transform="translate(7.402 -21.512)"><title>Sheet.11473</title><path d="m8.8 114.5.06 10.21-8.8-5.07L0 109.43Z" style="fill:#9cebff;stroke:none;stroke-width:34;stroke-linecap:butt"/></g><g transform="translate(7.465 -21.512)"><title>Sheet.11474</title><path d="m0 119.64 8.73-5.16.07 10.23z" style="fill:#c3f1ff;stroke:none;stroke-width:34;stroke-linecap:butt"/></g><g transform="translate(16.198 -21.512)"><title>Sheet.11475</title><path d="M8.77 119.53 0 114.48l.06 10.23Z" style="fill:#9cebff;stroke:none;stroke-width:34;stroke-linecap:butt"/></g></g></g></svg>