<svg xmlns="http://www.w3.org/2000/svg" xml:space="preserve" width="56.695" height="53.85" style="font-size:12px;overflow:visible;color-interpolation-filters:sRGB;fill-rule:evenodd;stroke-linecap:square;stroke-miterlimit:3" viewBox="0 0 56.695 53.85"><defs><linearGradient id="a" x1="0" x2="47.258" y1="73.534" y2="73.534" gradientTransform="scale(.99115 1.00893)" gradientUnits="userSpaceOnUse"><stop offset="0" stop-color="#999"/><stop offset="1" stop-color="#767676"/></linearGradient><linearGradient id="b" x1="0" x2="22.278" y1="98.509" y2="98.509" gradientTransform="scale(.99108 1.009)" gradientUnits="userSpaceOnUse"><stop offset="0" stop-color="#b3b3b3"/><stop offset="1" stop-color="#999"/></linearGradient><linearGradient id="c" x1="0" x2="43.021" y1="54.342" y2="54.342" gradientTransform="scale(.7989 1.2517)" gradientUnits="userSpaceOnUse"><stop offset="0" stop-color="#0078d4"/><stop offset="1" stop-color="#005ba1"/></linearGradient></defs><g transform="translate(-34 -34.004)"><title>Page-1</title><g transform="translate(34 -34.016)"><title>VM Image Definition.11476</title><title>Sheet.11477</title><g transform="translate(9.855 -3.14)"><title>Sheet.11478</title><path d="M46.84 98.05a23.512 23.896 0 0 1-1.32 7.9 24.87 25.276 0 0 1-.6 1.55 22.381 22.747 0 0 1-1.19 2.42 23.461 23.845 0 0 1-14.63 11.27h-.05l-.19.05-.1.02a22.91 23.285 0 0 1-2.84.49 20.328 20.66 0 0 1-1.39.1h-.26c-.28 0-.56.02-.84.02a23.433 23.816 0 0 1-22.28-16.42 22.954 23.33 0 0 1-.78-3.21A23.417 23.8 0 0 1 0 98.03a23.688 24.075 0 0 1 .33-4.05 23.44 23.823 0 0 1 23.09-19.79c.36 0 .73 0 1.09.02a23.443 23.826 0 0 1 22.33 23.84" style="fill:url(#a);stroke:none;stroke-width:34;stroke-linecap:butt"/></g><g transform="translate(22.233 -15.727)"><title>Sheet.11479</title><ellipse cx="11.039" cy="110.635" rx="11.039" ry="11.239" style="fill:url(#b);stroke:none;stroke-width:34;stroke-linecap:butt"/></g><title>Sheet.11480</title><path d="M0 120.19a1.657 1.684-180 0 0 1.66 1.68h31.05a1.657 1.684-180 0 0 1.66-1.68V69.7a1.657 1.684-180 0 0-1.66-1.68H1.66A1.657 1.684-180 0 0 0 69.7Z" style="fill:url(#c);stroke:none;stroke-width:34;stroke-linecap:butt"/><g transform="translate(17.197 -15.897)"><title>Sheet.11481</title><path d="m9.25 105.28.07 11.01-9.25 5.58L0 110.84Z" style="fill:#50e6ff;stroke:none;stroke-width:34;stroke-linecap:butt"/></g><g transform="translate(7.858 -26.908)"><title>Sheet.11482</title><path d="m18.59 116.29-9.25 5.58L0 116.4l9.28-5.59Z" style="fill:#c3f1ff;stroke:none;stroke-width:34;stroke-linecap:butt"/></g><g transform="translate(7.858 -15.897)"><title>Sheet.11483</title><path d="m9.34 110.86.06 11.01-9.33-5.47L0 105.39Z" style="fill:#9cebff;stroke:none;stroke-width:34;stroke-linecap:butt"/></g><g transform="translate(7.924 -15.897)"><title>Sheet.11484</title><path d="m0 116.4 9.27-5.56.07 11.03z" style="fill:#c3f1ff;stroke:none;stroke-width:34;stroke-linecap:butt"/></g><g transform="translate(17.197 -15.897)"><title>Sheet.11485</title><path d="M9.32 116.29 0 110.84l.07 11.03Z" style="fill:#9cebff;stroke:none;stroke-width:34;stroke-linecap:butt"/></g></g></g></svg>