<svg xmlns="http://www.w3.org/2000/svg" xml:space="preserve" width="56.69" height="34.01" style="font-size:12px;overflow:visible;color-interpolation-filters:sRGB;fill-rule:evenodd;stroke-linecap:square;stroke-miterlimit:3" viewBox="0 0 56.69 34.01"><g transform="translate(-5.67 -3.404)"><title>Page-1</title><g transform="translate(5.67 -34.016)"><title>Windows 365.11461</title><title>Sheet.11462</title><title>Sheet.11463</title><path d="M45.98 51.02c1.48 0 2.86.27 4.15.8s2.43 1.25 3.41 2.15a9.6 9.6 0 0 1 2.29 3.25c.56 1.25.84 2.59.86 4.01 0 1.42-.27 2.74-.83 3.96-.55 1.22-1.31 2.3-2.27 3.24s-2.09 1.67-3.4 2.21c-1.31.53-2.69.79-4.13.79H14.17c-1.95 0-3.79-.35-5.51-1.06-1.71-.71-3.22-1.67-4.51-2.9-1.29-1.22-2.3-2.66-3.04-4.33C.37 61.48 0 59.7 0 57.83c0-1.88.37-3.64 1.11-5.29s1.74-3.09 3.01-4.33c1.28-1.24 2.78-2.22 4.52-2.93 1.73-.71 3.58-1.06 5.53-1.06q1.275 0 2.58.24c.74-1.1 1.58-2.08 2.54-2.95s2.03-1.61 3.19-2.23a15 15 0 0 1 3.65-1.38c1.28-.31 2.6-.46 3.99-.48 2.05 0 3.98.34 5.78 1.03 1.81.69 3.43 1.64 4.85 2.85 1.42 1.2 2.57 2.65 3.46 4.33.88 1.68 1.47 3.48 1.77 5.39m.08 17.01c.98 0 1.89-.18 2.74-.53s1.61-.84 2.27-1.46c.67-.62 1.18-1.34 1.53-2.15.35-.82.53-1.7.55-2.66 0-.94-.18-1.82-.55-2.63-.37-.82-.88-1.54-1.53-2.18a6.4 6.4 0 0 0-2.24-1.46c-.85-.34-1.77-.52-2.77-.53h-3.54v-1.71c0-1.64-.32-3.18-.97-4.62-.65-1.43-1.53-2.7-2.66-3.8q-1.68-1.65-3.93-2.55c-1.49-.6-3.11-.91-4.84-.93-1.29 0-2.54.18-3.74.56-1.2.37-2.3.89-3.29 1.56-1 .68-1.89 1.48-2.69 2.42-.79.94-1.41 2.01-1.85 3.19q-2.085-.93-4.38-.93c-1.47 0-2.85.27-4.12.8s-2.4 1.26-3.38 2.18-1.74 2.01-2.3 3.27a9.7 9.7 0 0 0-.83 3.96c0 1.41.28 2.73.83 3.96.56 1.22 1.31 2.3 2.27 3.24s2.09 1.67 3.38 2.2c1.29.54 2.68.8 4.15.8z" style="fill:#000;stroke:none;stroke-width:.29882801;stroke-linecap:butt"/></g></g></svg>