<svg xmlns="http://www.w3.org/2000/svg" xml:space="preserve" width="56.693" height="56.693" style="font-size:12px;overflow:visible;color-interpolation-filters:sRGB;fill-rule:evenodd;stroke-linecap:square;stroke-miterlimit:3" viewBox="0 0 56.693 56.693"><defs><radialGradient id="a" cx="28.346" cy="67.539" r="62.362" fx="28.346" fy="67.539" gradientUnits="userSpaceOnUse"><stop offset="0" stop-color="#198ab3"/><stop offset=".38" stop-color="#1a8cb5"/><stop offset=".575" stop-color="#1c94bc"/><stop offset=".725" stop-color="#21a1c8"/><stop offset=".855" stop-color="#27b4d8"/><stop offset=".97" stop-color="#2fccee"/><stop offset="1" stop-color="#32d4f5"/></radialGradient></defs><g transform="translate(-33.523 -33.523)"><title>Page-1</title><g transform="translate(33.523 -34.016)"><title>Windows Virtual Desktop.11456</title><title>layer1</title><title>circle19</title><circle cx="28.346" cy="95.885" r="28.346" style="fill:url(#a);stroke:none;stroke-width:33.52310181;stroke-linecap:butt"/><g transform="translate(3.932 -3.932)"><title>circle21</title><circle cx="24.415" cy="99.817" r="24.415" style="fill:#005ba1;stroke:none;stroke-width:33.52310181;stroke-linecap:butt"/></g><g transform="translate(15.04 -12.95)"><title>path23</title><path d="m13.64 111.96-9.45-9.38a1.69 1.69-180 0 0-2.37 0l-1.19 1.19a1.56 1.56-180 0 0-.47 1.12 1.6 1.6-180 0 0 .47 1.13l7.11 7.08-7.27 7.21a1.577 1.577-180 0 0 0 2.26l1.2 1.18a1.69 1.69-180 0 0 2.37 0l9.6-9.54a1.58 1.58-180 0 0 .47-1.13 1.56 1.56-180 0 0-.47-1.12m-1.15-7.54a1.58 1.58-180 0 0 .47 1.13l9.6 9.54a1.69 1.69-180 0 0 2.37 0l1.2-1.19a1.56 1.56-180 0 0 .47-1.12 1.58 1.58-180 0 0-.47-1.13l-7.25-7.21 7.11-7.08a1.58 1.58-180 0 0 .47-1.13 1.56 1.56-180 0 0-.47-1.12l-1.2-1.19a1.69 1.69-180 0 0-2.37 0l-9.45 9.38a1.57 1.57-180 0 0-.48 1.13z" style="fill:#f2f2f2;stroke:none;stroke-width:33.52310181;stroke-linecap:butt"/></g></g></g></svg>