<svg xmlns="http://www.w3.org/2000/svg" xml:space="preserve" width="56.69" height="45.44" style="font-size:12px;overflow:visible;color-interpolation-filters:sRGB;fill-rule:evenodd;stroke-linecap:square;stroke-miterlimit:3" viewBox="0 0 56.69 45.44"><defs><linearGradient id="a" x1="0" x2="45.949" y1="57.578" y2="57.578" gradientTransform="scale(1.23377 .81053)" gradientUnits="userSpaceOnUse"><stop offset=".09" stop-color="#5ea0ef"/><stop offset="1" stop-color="#0078d4"/></linearGradient></defs><g transform="translate(-5.67 -4.533)"><title>Page-1</title><g transform="translate(5.67 -34.016)"><title>Workspace.11450</title><g transform="translate(0 -8.12)"><title>Sheet.11451</title><path d="M1.73 46.67H55a1.665 1.549 0 0 1 1.69 1.43v34.38A1.631 1.518 0 0 1 55 83.91H1.73A1.665 1.549 0 0 1 0 82.48V48.16a1.665 1.549 0 0 1 1.73-1.49" style="fill:url(#a);stroke:none;stroke-width:.75;stroke-linecap:butt"/></g><g transform="translate(37.185)"><title>Sheet.11452</title><path d="m.73 59.27 8.86 4.78 8.89 4.73a.533.496 0 0 1 0 .836l-5.93 3.104 4.23 6.75a2.93 2.726 0 0 1-1.07 3.69l-.86.46a2.896 2.695 0 0 1-3.96-.96l-4.23-6.81-5.89 3.1a.5.465 0 0 1-.766-.434L0 59.71a.533.496 0 0 1 .732-.434z" style="fill:#50e6ff;stroke:none;stroke-width:.75;stroke-linecap:butt"/></g><g transform="translate(23.436 -30.052)"><title>Sheet.11453</title><title>Sheet.11454</title><path d="M.27 73.78h9.58a.466.434 0 0 1 .466.434l.004 9.286a.433.403 0 0 1-.433.403L.47 83.91a.466.434 0 0 1-.466-.434L0 74.18a.433.403 0 0 1 .3-.403z" style="fill:#fff;stroke:none;stroke-width:.75;stroke-linecap:butt"/></g><g transform="translate(23.436 -15.09)"><title>Sheet.11455</title><path d="M.27 73.78h9.58a.5.465 0 0 1 .466.434l.004 9.286a.433.403 0 0 1-.433.403L.47 83.91a.466.434 0 0 1-.466-.434L0 74.18a.433.403 0 0 1 .3-.403Zm17.64-14.97h9.59a.466.434 0 0 1 .466.434l-.006 9.296a.433.403 0 0 1-.433.403l-9.447-.003a.466.434 0 0 1-.466-.434l-.004-9.286a.433.403 0 0 1 .3-.403z" style="fill:#83b9f9;stroke:none;stroke-width:.75;stroke-linecap:butt"/></g></g></g></svg>