<svg xmlns="http://www.w3.org/2000/svg" viewBox="0 0 512 512"><path fill="none" d="M0 0h512v512H0z"/><path fill="#9aa0a6" d="M239.85 490c-1.54 0-3.11-.22-4.64-.69a15.97 15.97 0 0 1-11.33-15.28V308.24h-121.9c-5.9 0-11.31-3.25-14.09-8.45s-2.46-11.51.82-16.41L258.96 29.09c3.91-5.84 11.19-8.44 17.92-6.4s11.33 8.25 11.33 15.28v165.78h121.82c5.9 0 11.31 3.25 14.09 8.45s2.46 11.51-.81 16.41l-170.18 254.3a15.99 15.99 0 0 1-13.28 7.09M131.89 276.29h107.96c8.82 0 15.97 7.15 15.97 15.97v129.17l124.3-185.74H272.23c-8.82 0-15.97-7.15-15.97-15.97V90.54z"/><path fill="#2b80f8" d="M418.56 235.7H272.23c-8.82 0-15.97-7.15-15.97-15.97V33.12c1.4-2.09 3.01-5.12 5.69-7.37 2.52-2.11 6.13-3.74 10.28-3.74 8.82 0 15.97 7.15 15.97 15.97v165.78h121.82c8.82 0 15.97 7.15 15.97 15.97 0 5.33-2.4 8.46-4.12 10.98-1.46 2.14-2.34 3.52-3.33 4.99zM239.85 490c-8.82 0-15.97-7.15-15.97-15.97V276.3h15.97c8.82 0 15.97 7.15 15.97 15.97v186.61c-1.75 2.7-3.28 5.33-5.49 7.2-2.73 2.31-6.21 3.92-10.49 3.92z"/></svg>