<svg xmlns="http://www.w3.org/2000/svg" viewBox="0 0 512 512"><path d="M0 0h512v512H0z" style="fill:none"/><path d="M380.7 396.7H131.4c-8.8 0-16-7.2-16-16V131.4c0-8.8 7.2-16 16-16h249.3c8.8 0 16 7.2 16 16v249.3c0 8.8-7.2 16-16 16m-233.4-32h217.3V147.4H147.3z"/><path d="M147.3 364.7h-32V131.4c0-8.8 7.2-16 16-16h146.1v32H147.3zm295.7 0h-62.3c-8.8 0-16-7.2-16-16s7.2-16 16-16H443c8.8 0 16 7.2 16 16s-7.2 16-16 16"/><path d="M443 272h-62.3c-8.8 0-16-7.2-16-16s7.2-16 16-16H443c8.8 0 16 7.2 16 16s-7.2 16-16 16m0-93.5h-62.3c-8.8 0-16-7.2-16-16s7.2-16 16-16H443c8.8 0 16 7.2 16 16s-7.2 16-16 16m-93.5-31.2c-8.8 0-16-7.2-16-16V69c0-8.8 7.2-16 16-16s16 7.2 16 16v62.3c0 8.8-7.2 16-16 16m-93.5 0c-8.8 0-16-7.2-16-16V69c0-8.8 7.2-16 16-16s16 7.2 16 16v62.3c0 8.8-7.2 16-16 16m-93.5 0c-8.8 0-16-7.2-16-16V69c0-8.8 7.2-16 16-16s16 7.2 16 16v62.3c0 8.8-7.2 16-16 16"/><path d="M315 331H197c-8.8 0-16-7.2-16-16V197c0-8.8 7.2-16 16-16h118c8.8 0 16 7.2 16 16v118c0 8.8-7.2 16-16 16m-102-32h86v-86h-86z" style="fill:#34a853"/><path d="M396.7 332.7h-32V147.4H240.1v-32h140.6c8.8 0 16 7.2 16 16zM162.5 459c-8.8 0-16-7.2-16-16v-62.3c0-8.8 7.2-16 16-16s16 7.2 16 16V443c0 8.8-7.2 16-16 16m93.5 0c-8.8 0-16-7.2-16-16v-62.3c0-8.8 7.2-16 16-16s16 7.2 16 16V443c0 8.8-7.2 16-16 16m93.5 0c-8.8 0-16-7.2-16-16v-62.3c0-8.8 7.2-16 16-16s16 7.2 16 16V443c0 8.8-7.2 16-16 16M131.3 178.5H69c-8.8 0-16-7.2-16-16s7.2-16 16-16h62.3c8.8 0 16 7.2 16 16s-7.2 16-16 16m0 93.5H69c-8.8 0-16-7.2-16-16s7.2-16 16-16h62.3c8.8 0 16 7.2 16 16s-7.2 16-16 16m0 92.7H69c-8.8 0-16-7.2-16-16s7.2-16 16-16h62.3c8.8 0 16 7.2 16 16s-7.2 16-16 16"/></svg>