<svg xmlns="http://www.w3.org/2000/svg" viewBox="0 0 512 512"><path fill="none" d="M0 0h512v512H0z" data-name="standard_product_icon"/><path fill="#9aa0a6" d="M131.231 231.327c-8.624 0-15.615-6.991-15.615-15.615 0-77.664 63.184-140.848 140.848-140.848 50.121 0 96.865 26.977 121.989 70.403 4.319 7.465 1.769 17.017-5.696 21.336-7.463 4.318-17.018 1.769-21.336-5.696-19.561-33.809-55.947-54.812-94.958-54.812-60.443 0-109.617 49.175-109.617 109.617 0 8.624-6.991 15.615-15.615 15.615M367.043 396.54H99.846c-8.624 0-15.615-6.991-15.615-15.615s6.991-15.615 15.615-15.615h267.197c33.485 0 60.726-27.241 60.726-60.726 0-15.521-5.882-30.304-16.561-41.628-5.918-6.273-5.628-16.157.646-22.074 6.273-5.918 16.158-5.628 22.074.646C450.096 258.67 459 281.064 459 304.583c0 50.705-41.252 91.957-91.957 91.957"/><path fill="#4285f4" d="M287.229 177.923c-8.624 0-15.615-6.991-15.615-15.615s6.991-15.615 15.615-15.615h78.077V68.616c0-8.624 6.991-15.615 15.615-15.615s15.615 6.991 15.615 15.615v93.691c0 8.624-6.991 15.615-15.615 15.615zM162.306 459a15.56 15.56 0 0 1-11.042-4.574l-62.46-62.462c-6.099-6.098-6.098-15.985 0-22.083l62.462-62.462c6.098-6.098 15.985-6.098 22.083 0 6.099 6.098 6.099 15.985 0 22.083l-51.42 51.42 51.418 51.42c6.099 6.098 6.098 15.985 0 22.083a15.57 15.57 0 0 1-11.042 4.574h.001Zm271.622-217.473c-5.918-6.276-15.801-6.563-22.074-.644s-6.562 15.8-.644 22.073c10.678 11.321 16.559 26.104 16.559 41.627 0 33.485-27.24 60.726-60.723 60.726l-32.967-.002-.004 31.231 32.971.002c50.703 0 91.954-41.251 91.954-91.957 0-23.522-8.904-45.917-25.072-63.056m-286.075-40.688s-18.025-2.405-31.741 3.013c-.062.024-.114.049-.173.073a88.8 88.8 0 0 0-41.048 26.514A88.6 88.6 0 0 0 53 288.763v14.034c0 8.625 6.991 15.615 15.615 15.615s15.615-6.991 15.615-15.615v-14.034c0-28.386 21.158-52.826 49.218-56.851 8.044-1.154 13.767-8.247 13.376-16.205l.022.003s.248-10.096 1.007-14.873z"/></svg>