<svg xmlns="http://www.w3.org/2000/svg" viewBox="0 0 512 512"><path fill="none" d="M0 0h512v512H0z"/><path fill="#4285f4" d="M273.599 141.8H69.978c-8.837 0-16-7.163-16-16s7.163-16 16-16h203.621c8.837 0 16 7.163 16 16s-7.163 16-16 16m0 260.4H69.978c-8.837 0-16-7.163-16-16s7.163-16 16-16h203.621c8.837 0 16 7.163 16 16s-7.163 16-16 16M124.818 272H69.977c-8.837 0-16-7.163-16-16s7.163-16 16-16h54.841c8.837 0 16 7.163 16 16s-7.163 16-16 16"/><path fill="#9aa0a6" d="M441.978 141.8h-56.793c-8.837 0-16-7.163-16-16s7.163-16 16-16h56.793c8.837 0 16 7.163 16 16s-7.163 16-16 16"/><path fill="#4285f4" d="M329.392 197.6c-39.587 0-71.793-32.209-71.793-71.8S289.805 54 329.392 54s71.793 32.209 71.793 71.8-32.206 71.8-71.793 71.8m0-111.6c-21.942 0-39.793 17.854-39.793 39.8s17.851 39.8 39.793 39.8 39.793-17.854 39.793-39.8S351.334 86 329.392 86"/><path fill="#9aa0a6" d="M441.978 272H236.405c-8.837 0-16-7.163-16-16s7.163-16 16-16h205.573c8.837 0 16 7.163 16 16s-7.163 16-16 16"/><path fill="#4285f4" d="M180.611 327.8c-39.587 0-71.793-32.209-71.793-71.8s32.206-71.8 71.793-71.8 71.793 32.209 71.793 71.8-32.206 71.8-71.793 71.8m0-111.6c-21.942 0-39.793 17.854-39.793 39.8s17.851 39.8 39.793 39.8 39.793-17.854 39.793-39.8-17.851-39.8-39.793-39.8"/><path fill="#9aa0a6" d="M441.978 402.2h-56.793c-8.837 0-16-7.163-16-16s7.163-16 16-16h56.793c8.837 0 16 7.163 16 16s-7.163 16-16 16"/><path fill="#4285f4" d="M329.392 458c-39.587 0-71.793-32.209-71.793-71.8s32.206-71.8 71.793-71.8 71.793 32.209 71.793 71.8-32.206 71.8-71.793 71.8m0-111.6c-21.942 0-39.793 17.854-39.793 39.8S307.45 426 329.392 426s39.793-17.854 39.793-39.8-17.851-39.8-39.793-39.8"/></svg>