<svg xmlns="http://www.w3.org/2000/svg" viewBox="0 0 512 512"><path fill="none" d="M0 0h512v512H0z"/><path fill="#4285f4" d="M426.5 458.5h-341c-17.673 0-32-14.327-32-32v-341c0-17.673 14.327-32 32-32h341c17.673 0 32 14.327 32 32v341c0 17.673-14.327 32-32 32m-341-32h341v-341h-341z"/><path fill="#9aa0a6" d="M166 365c-8.837 0-16-7.163-16-16V218c0-8.837 7.163-16 16-16s16 7.163 16 16v131c0 8.837-7.163 16-16 16m180 0c-8.837 0-16-7.163-16-16v-56c0-8.837 7.163-16 16-16s16 7.163 16 16v56c0 8.837-7.163 16-16 16"/><path fill="#4285f4" d="M256 365c-8.837 0-16-7.163-16-16V162c0-8.837 7.163-16 16-16s16 7.163 16 16v187c0 8.837-7.163 16-16 16"/><path fill="#9aa0a6" d="M426.5 458.5H85.493c-17.673 0-32-14.327-32-32H426.5v-341h32v341c0 17.673-14.327 32-32 32"/></svg>