<svg xmlns="http://www.w3.org/2000/svg" viewBox="0 0 512 512"><path fill="none" d="M0 0h512v512H0z"/><circle cx="256" cy="101.667" r="16" fill="#9aa0a6"/><circle cx="410.972" cy="256" r="16" fill="#4285f4"/><circle cx="144.323" cy="144.524" r="16" fill="#9aa0a6"/><circle cx="101.667" cy="256" r="16" fill="#9aa0a6"/><path fill="#9aa0a6" d="M256 490c-62.504 0-121.267-24.34-165.463-68.537C46.34 377.267 22 318.504 22 256S46.34 134.733 90.537 90.537C134.733 46.34 193.496 22 256 22s121.267 24.34 165.463 68.537C465.66 134.733 490 193.496 490 256s-24.34 121.267-68.537 165.463C377.267 465.66 318.504 490 256 490m0-436C144.617 54 54 144.617 54 256s90.617 202 202 202 202-90.617 202-202S367.383 54 256 54"/><path fill="#4285f4" d="M378.313 133.687c-6.248-6.248-16.379-6.248-22.627 0l-61.027 61.027c-11.199-7.09-24.453-11.213-38.66-11.213-39.977 0-72.5 32.523-72.5 72.5s32.523 72.5 72.5 72.5 72.5-32.523 72.5-72.5c0-14.207-4.124-27.461-11.213-38.66l61.027-61.027c6.249-6.248 6.249-16.379 0-22.627M256 292.5c-20.126 0-36.5-16.374-36.5-36.5s16.374-36.5 36.5-36.5 36.5 16.374 36.5 36.5-16.374 36.5-36.5 36.5"/><path fill="#4285f4" d="M490 256h-32c0-111.383-90.617-202-202-202V22c62.504 0 121.267 24.34 165.463 68.537C465.66 134.733 490 193.496 490 256M256 490c-62.504 0-121.267-24.34-165.463-68.537C46.34 377.267 22 318.504 22 256h32c0 111.383 90.617 202 202 202z"/></svg>