<svg xmlns="http://www.w3.org/2000/svg" viewBox="0 0 512 512"><path fill="none" d="M0 0h512v512H0z"/><path fill="#9aa0a6" d="M423.573 362.813H146.611a15.95 15.95 0 0 1-13.898-8.123 15.97 15.97 0 0 1 .244-16.103l55.8-92.321c4.56-7.544 14.369-9.963 21.911-5.4 7.541 4.563 9.957 14.378 5.397 21.923l-41.158 68.095h248.665c8.813 0 15.956 7.147 15.956 15.965s-7.144 15.965-15.956 15.965z"/><path fill="#9aa0a6" d="M455.16 97.77c-2.98-4.3-7.89-6.87-13.12-6.87H153.683l-10.119-26.68a15.96 15.96 0 0 0-14.918-10.301H69.957c-8.813 0-15.956 7.147-15.956 15.965s7.144 15.965 15.956 15.965h47.677l10.118 26.677c.021.054.046.104.067.158l.061.166c.03.09.07.18.11.27l56.63 139.99 3 7.41c2.44 6.03 8.29 9.97 14.79 9.97h184.21c6.65 0 12.6-4.12 14.94-10.35l55.42-147.67c.11-.29.21-.58.29-.87.07-.21.14-.42.19-.64.06-.19.11-.38.14-.57.99-4.33.13-8.91-2.44-12.62m-79.59 140.79h-162.4l-46.83-115.73H419z"/><ellipse cx="165.295" cy="420.963" fill="#2b80f8" rx="36.936" ry="36.956"/><ellipse cx="405.376" cy="420.963" fill="#2b80f8" rx="36.936" ry="36.956"/><path fill="#2b80f8" d="M457.6 110.39c-.03.19-.08.38-.14.57-.05.22-.12.43-.19.64-.08.29-.18.58-.29.87l-55.42 147.67a15.955 15.955 0 0 1-14.94 10.35H211.41l-36.5 60.39-19.295 31.934c-4.502 0-3.605-.004-9.006-.004h-.01c-.65 0-1.3-.04-1.94-.12-.41-.05-.82-.11-1.23-.2-.68-.13-1.36-.32-2.03-.55q-.975-.33-1.92-.81c-.27-.14-.54-.28-.8-.43-.05-.03-.1-.05-.15-.09-.06-.03-.12-.06-.18-.1-.12-.08-.25-.15-.37-.24-.14-.08-.28-.17-.42-.28-.28-.18-.55-.38-.82-.61a5 5 0 0 1-.53-.43c-.08-.05-.15-.12-.23-.2-.2-.17-.39-.35-.57-.53-.06-.05-.13-.12-.19-.19-.23-.24-.46-.48-.67-.73-.23-.26-.46-.54-.67-.82s-.42-.57-.61-.87c-.2-.3-.38-.61-.56-.92-.17-.29-.32-.59-.46-.89-.46-.95-.83-1.95-1.09-2.97-.09-.32-.16-.65-.22-.98-.26-1.33-.34-2.7-.25-4.07.04-.71.14-1.42.29-2.13a15.8 15.8 0 0 1 .96-3.08q.435-1.005 1.02-1.98l51.66-85.48 4.14-6.84a15.9 15.9 0 0 1 4.12-4.54c.27-.2.55-.4.83-.58.18-.12.36-.23.55-.33.14-.1.29-.18.44-.26.65-.37 1.34-.69 2.04-.95.24-.09.49-.18.73-.26.32-.1.64-.2.97-.28.32-.09.65-.16.98-.22.64-.13 1.29-.21 1.95-.26.34-.02.69-.03 1.04-.03h173.16l43.43-115.73 11.99-31.93h11.05c5.23 0 10.14 2.57 13.12 6.87a15.92 15.92 0 0 1 2.44 12.62z"/></svg>