<svg xmlns="http://www.w3.org/2000/svg" viewBox="0 0 512 512"><path fill="none" d="M0 0h512v512H0z"/><path fill="#2b80f8" d="M458 426.333h-96.435c-13.908 0-26.979-5.422-36.806-15.267l-68.76-68.896-74.634 74.77a32 32 0 0 1-22.648 9.393H54c-17.673 0-32-14.327-32-32V117.667c0-17.673 14.327-32 32-32h404c17.673 0 32 14.327 32 32v276.666c0 17.673-14.327 32-32 32M256 303.52c4.249 0 8.323 1.69 11.325 4.697l85.951 86.116h104.745L458 117.668H54v276.666h104.711l85.964-86.116A16 16 0 0 1 256 303.521Z"/><path fill="#9aa0a6" d="M156 307.333c-39.149 0-71-31.851-71-71s31.851-71 71-71 71 31.851 71 71-31.851 71-71 71m0-110c-21.505 0-39 17.495-39 39s17.495 39 39 39 39-17.495 39-39-17.495-39-39-39m200 110c-39.149 0-71-31.851-71-71s31.851-71 71-71 71 31.851 71 71-31.851 71-71 71m0-110c-21.505 0-39 17.495-39 39s17.495 39 39 39 39-17.495 39-39-17.495-39-39-39"/><path fill="#9aa0a6" d="M458 426.333H353.266a32 32 0 0 1-22.648-9.393l-97.235-97.409 11.302-11.313c6.252-6.258 16.395-6.256 22.644.006l80.079 80.238c3.779 3.786 5.867 5.872 5.867 5.872h104.724v-156.5h32v156.5c0 17.673-14.327 32-32 32H458Z"/></svg>