<svg xmlns="http://www.w3.org/2000/svg" viewBox="0 0 512 512"><path fill="none" d="M0 0h512v512H0z"/><path fill="#4285f4" d="M293.243 346.487H107.025c-29.358 0-53.243-23.885-53.243-53.244V107.025c0-29.358 23.885-53.243 53.243-53.243h176.061c34.96 0 63.401 28.441 63.401 63.4v8.451c0 8.837-7.163 16-16 16s-16-7.163-16-16v-8.451c0-17.314-14.087-31.4-31.401-31.4H107.025c-11.714 0-21.243 9.529-21.243 21.243v186.218c0 11.714 9.529 21.244 21.243 21.244h186.218c11.714 0 21.244-9.53 21.244-21.244v-19.076c0-8.837 7.163-16 16-16s16 7.163 16 16v19.076c0 29.359-23.885 53.244-53.244 53.244"/><path fill="#9aa0a6" d="M404.975 458.218H228.914c-34.96 0-63.401-28.441-63.401-63.4v-8.462c0-8.837 7.163-16 16-16s16 7.163 16 16v8.462c0 17.314 14.087 31.4 31.401 31.4h176.061c11.714 0 21.243-9.529 21.243-21.243V218.757c0-11.714-9.529-21.244-21.243-21.244H228.914c-17.314 0-31.401 14.087-31.401 31.401v8.485c0 8.837-7.163 16-16 16s-16-7.163-16-16v-8.485c0-34.96 28.441-63.401 63.401-63.401h176.061c29.358 0 53.243 23.885 53.243 53.244v186.218c0 29.358-23.885 53.243-53.243 53.243"/></svg>