<svg xmlns="http://www.w3.org/2000/svg" viewBox="0 0 512 512"><path d="M0 0h512v512H0z" style="fill:none"/><path d="M377.2 216.1c-4.1 0-8.2-1.6-11.3-4.7l-65.3-65.3c-3-3-4.7-7.1-4.7-11.3s1.7-8.3 4.7-11.3l65.3-65.3c3-3 7.1-4.7 11.3-4.7s8.3 1.7 11.3 4.7l65.3 65.3c6.2 6.2 6.2 16.4 0 22.6l-65.3 65.3c-3.1 3.1-7.2 4.7-11.3 4.7m-42.6-81.3 42.6 42.6 42.6-42.6-42.6-42.7z"/><path d="M300.7 146.1c-6.2-6.2-6.2-16.4 0-22.6L366 58.2c6.2-6.2 16.4-6.2 22.6 0l53.9 54-22.6 22.6-42.6-42.7-65.3 65.3s-8.1-8.2-11.3-11.4ZM228 458.5c-6.5 0-12.4-4-14.8-10-.2-.5-20.8-51-59.8-89.9-39.1-38.9-89.3-59.3-89.8-59.5-6.1-2.4-10-8.3-10-14.9 0-6.5 4-12.4 10-14.8.5-.2 50.5-20.6 89.8-59.7 39.2-39.1 59.6-89.6 59.8-90.1 2.4-6.1 8.3-10.1 14.9-10.1s12.5 4 14.9 10.1c.2.5 20.6 51 59.8 90.1 39.3 39.1 89.3 59.5 89.8 59.7 6.1 2.4 10 8.3 10 14.9s-4 12.4-10 14.9c-.5.2-50.9 20.8-89.8 59.5s-59.6 89.4-59.9 89.9c-2.4 6-8.3 10-14.8 10ZM105.8 284.2c19.9 11 46.5 28.3 70.1 51.7 23.7 23.5 41 50.3 52.1 70.4 11.1-20 28.5-46.9 52.1-70.4 23.5-23.4 50.2-40.6 70.1-51.7-19.9-11-46.5-28.3-70.1-51.8-23.7-23.6-41-50.4-52.1-70.4-11.1 20.1-28.4 46.8-52.1 70.4s-50.2 40.8-70.1 51.8"/><path d="M392.5 269.3c-.5-.2-50.5-20.6-89.8-59.7l-.1-.1-22.6 22.6.2.2c23.7 23.6 50.2 40.8 70.1 51.8-20 11.1-46.6 28.3-70.1 51.7-23.6 23.5-41 50.3-52.1 70.4-11.1-20-28.4-46.7-52-70.2l-22.6 22.6c38.9 38.8 59.5 89.3 59.7 89.8 2.4 6.1 8.3 10 14.8 10s12.4-4 14.8-10c.2-.5 21-51.2 59.9-89.9s89.3-59.3 89.8-59.5c6.1-2.4 10-8.3 10-14.9s-4-12.4-10-14.9Z"/></svg>