<svg xmlns="http://www.w3.org/2000/svg" viewBox="0 0 512 512"><path d="M0 0h512v512H0z" style="fill:none"/><path d="M131.4 458.2c-42.8 0-77.7-35.4-77.7-78.9V132.5c0-43.5 34.8-78.9 77.7-78.9s77.7 35.4 77.7 78.9v246.8c0 43.5-34.9 78.9-77.7 78.9m0-372.4c-25.2 0-45.7 21-45.7 46.9v246.8c0 25.8 20.5 46.9 45.7 46.9s45.7-21 45.7-46.9V132.7c0-25.8-20.5-46.9-45.7-46.9"/><path d="M131.4 458.2c-42.8 0-77.7-35.4-77.7-78.9V255.9h32v123.4c0 25.8 20.5 46.9 45.7 46.9s45.7-21 45.7-46.9v-60.5h32v60.5c0 43.5-34.9 78.9-77.7 78.9m249.1 0c-42.8 0-77.7-35.4-77.7-78.9V132.5c0-43.5 34.9-78.9 77.7-78.9s77.7 35.4 77.7 78.9v246.8c0 43.5-34.9 78.9-77.7 78.9m0-372.4c-25.2 0-45.7 21-45.7 46.9v246.8c0 25.8 20.5 46.9 45.7 46.9s45.7-21 45.7-46.9V132.7c0-25.8-20.5-46.9-45.7-46.9"/><path d="M458.2 256h-32V132.6c0-25.8-20.5-46.9-45.7-46.9s-45.7 21-45.7 46.9v60.5h-32v-60.5c0-43.5 34.9-78.9 77.7-78.9s77.7 35.4 77.7 78.9z"/><path d="M379.4 333.7H132.6c-43.5 0-78.9-34.9-78.9-77.7s35.4-77.7 78.9-77.7h246.8c43.5 0 78.9 34.8 78.9 77.7s-35.4 77.7-78.9 77.7M132.6 210.3c-25.8 0-46.9 20.5-46.9 45.7s21 45.7 46.9 45.7h246.8c25.8 0 46.9-20.5 46.9-45.7s-21-45.7-46.9-45.7z" style="fill:#fbbc04"/><path d="M177.1 141.6h32v102.2h-32zm125.8 138.6h32v70.5h-32z"/></svg>