<svg xmlns="http://www.w3.org/2000/svg" viewBox="0 0 512 512"><path fill="none" d="M0 0h512v512H0z"/><path fill="#4285f4" d="m346.683 112.611-.039-75.171c-.005-8.834-7.167-15.992-16-15.992h-.008c-8.837.004-15.997 7.172-15.992 16.008l.039 75.155H118c-17.673 0-32 14.327-32 32v111.865c0 89.085 76.262 161.562 170 161.562s170-72.477 170-161.562V144.611c0-17.673-14.327-32-32-32zM394 256.477c0 71.44-61.906 129.562-138 129.562s-138-58.121-138-129.562V144.612h276z"/><path fill="#9aa0a6" d="M314.644 144.611v-32H197.35l-.039-75.171c-.005-8.834-7.167-15.992-16-15.992h-.008c-8.837.004-15.997 7.172-15.992 16.008l.039 75.155H118c-17.673 0-32 14.327-32 32v111.865c0 83.959 67.741 153.155 154.007 160.841v56.679c0 8.616 6.621 16.029 15.228 16.433 9.188.432 16.772-6.889 16.772-15.982V385.17c-6.594.627-8.014.652-16 .867H256c-76.094 0-138-58.121-138-129.562V144.61z"/></svg>