<svg xmlns="http://www.w3.org/2000/svg" viewBox="0 0 512 512"><path d="M0 0h512v512H0z" style="fill:none"/><path d="M70 253.4c-4.6 0-9.1-2-12.3-5.8-5.7-6.8-4.8-16.9 2-22.5L171.3 132c3.9-3.3 9.2-4.5 14.1-3.2l140 35L430.6 58.7c6.2-6.2 16.4-6.2 22.6 0s6.2 16.4 0 22.6L341.6 192.8c-4 4-9.7 5.6-15.2 4.2l-140.9-35.2-105.4 87.9c-3 2.5-6.6 3.7-10.2 3.7ZM70 458c-8.8 0-16-7.2-16-16v-55.8c0-8.8 7.2-16 16-16s16 7.2 16 16V442c0 8.8-7.2 16-16 16m260.4 0c-8.8 0-16-7.2-16-16v-93c0-8.8 7.2-16 16-16s16 7.2 16 16v93c0 8.8-7.2 16-16 16m-148.8 0c-8.8 0-16-7.2-16-16V311.8c0-8.8 7.2-16 16-16s16 7.2 16 16V442c0 8.8-7.2 16-16 16m260.4 0c-8.8 0-16-7.2-16-16V274.6c0-8.8 7.2-16 16-16s16 7.2 16 16V442c0 8.8-7.2 16-16 16"/><path d="M70 253.4c-4.6 0-9.1-2-12.3-5.8-5.7-6.8-4.8-16.9 2-22.5L171.3 132c4.2-3.5 8.7-4.1 12.1-3.6 2.2.3 4.9 1.1 7.5 1.7 6.9 1.6 16 4 25.1 6.3L80.2 249.7c-3 2.5-6.6 3.7-10.2 3.7m372-55.8c-8.8 0-16-7.2-16-16V86h-95.6c-8.8 0-16-7.2-16-16s7.2-16 16-16H442c8.8 0 16 7.2 16 16v111.6c0 8.8-7.2 16-16 16"/></svg>