<svg xmlns="http://www.w3.org/2000/svg" viewBox="0 0 512 512"><path d="M0 0h512v512H0z" style="fill:none"/><path d="M313.5 297c44.4 0 80.5 36.1 80.5 80.5S357.9 458 313.5 458 233 421.9 233 377.5s36.1-80.5 80.5-80.5m0-32C251.4 265 201 315.4 201 377.5S251.4 490 313.5 490 426 439.6 426 377.5 375.6 265 313.5 265" style="fill:#4285f4"/><path d="M338.1 40.9c-25.1-25.1-66.1-25.1-91.2 0-21.2 21.2-24.5 53.5-10.1 78.2l-44.3 42.3c-6.4 6.1-6.6 16.2-.5 22.6 3.1 3.3 7.4 5 11.6 5s7.9-1.5 11-4.4l44.7-42.7c10.2 6.1 21.7 9.1 33.2 9.1 16.5 0 33-6.3 45.6-18.9 25.1-25.2 25.1-66.1 0-91.2m-22.6 68.6c-12.7 12.7-33.3 12.7-46 0s-12.7-33.3 0-46c6.3-6.3 14.7-9.5 23-9.5s16.6 3.2 23 9.5c12.7 12.7 12.7 33.3 0 46" style="fill:#ea4335"/><path d="M313.5 265c-21.5 0-42.1 6-60.1 17.4s-38.6-37.9-38.6-37.9l-22.4 22.9 36.6 35.8 22.9 22.4c1.5-1.8 3-3.5 4.7-5.1 3.1-3.1 6.4-5.9 9.8-8.4 13.8-9.9 30-15.2 47.1-15.2 44.4 0 80.5 36.1 80.5 80.5h32c0-62-50.5-112.5-112.5-112.5Z" style="fill:#34a853"/><path d="M161.5 290.5c-19.3 0-38.7-7.4-53.4-22.1-29.4-29.4-29.4-77.3 0-106.8 29.4-29.4 77.3-29.4 106.8 0 29.4 29.4 29.4 77.3 0 106.8-14.7 14.7-34.1 22.1-53.4 22.1m0-119c-11.1 0-22.3 4.2-30.8 12.7-17 17-17 44.6 0 61.5 17 17 44.6 17 61.5 0 17-17 17-44.6 0-61.5-8.5-8.5-19.6-12.7-30.8-12.7Z" style="fill:#fbbc04"/></svg>