<svg xmlns="http://www.w3.org/2000/svg" width="18" height="18" viewBox="0 0 18 18"><defs><linearGradient id="b" x1="214.573" x2="222.068" y1="491.263" y2="507.151" gradientTransform="translate(-206 -490.699)" gradientUnits="userSpaceOnUse"><stop offset="0" stop-color="#e6ad10"/><stop offset="1" stop-color="#c87e0e"/></linearGradient><linearGradient id="c" x1="211.689" x2="217.993" y1="495.678" y2="507.903" gradientTransform="translate(-206 -490.699)" gradientUnits="userSpaceOnUse"><stop offset="0" stop-color="#f6d751"/><stop offset="1" stop-color="#e6ad10"/></linearGradient><linearGradient id="d" x1="209.39" x2="212.873" y1="499.368" y2="507.624" gradientTransform="translate(-206 -490.699)" gradientUnits="userSpaceOnUse"><stop offset="0" stop-color="#f9e589"/><stop offset="1" stop-color="#f6d751"/></linearGradient><clipPath id="a"><path fill="none" d="M9.71 1.185a.71.71 0 0 1 .711-.711h4.263a.71.71 0 0 1 .71.711v15.63a.71.71 0 0 1-.71.711H3.316a.71.71 0 0 1-.71-.711V9.71a.71.71 0 0 1 .71-.71h2.842V5.448a.71.71 0 0 1 .711-.711H9.71Z"/></clipPath></defs><g clip-path="url(#a)"><path fill="url(#b)" d="M15.394.474v17.052H9.71V.474Z"/><path fill="url(#c)" d="M11.842 5.448v12.078H6.158V4.737h4.973a.71.71 0 0 1 .711.711"/><path fill="url(#d)" d="M2.606 9v8.526H8.29V9.71A.71.71 0 0 0 7.579 9Z"/></g></svg>