<svg xmlns="http://www.w3.org/2000/svg" xml:space="preserve" width="75.586" height="75.586" style="font-size:12px;overflow:visible;color-interpolation-filters:sRGB;fill-rule:evenodd;stroke-linecap:square;stroke-miterlimit:3" viewBox="0 0 56.69 56.69"><g transform="translate(-12.24 -12.244)"><title>Page-1</title><g transform="translate(12.24 -34.016)"><title>Application Gateway WAF Custom Rule.19448</title><title>Sheet.19449</title><g transform="translate(9.758 -1.206)"><title>Sheet.19450</title><path d="M31.5 102.95c-2.77 0-5.56-2.07-5.56-6.03 0-1.86.69-3.54 1.91-4.83H0V58.2c0-5.5 4.25-9.65 9.88-9.65h31.64l-2.11 2.06c-1.14 1.11-2.36 3.94-2.36 6.38v38.72c0 3.34-1.45 7.24-5.55 7.24" style="fill:#fff;stroke:none;stroke-width:12.23999977;stroke-linecap:butt"/></g><g transform="translate(9.758 -1.206)"><title>Sheet.19451</title><path d="M31.5 102.95c-2.77 0-5.56-2.07-5.56-6.03 0-1.86.69-3.54 1.91-4.83H0V58.2c0-5.5 4.25-9.65 9.88-9.65h31.64l-2.11 2.06c-1.14 1.11-2.36 3.94-2.36 6.38v38.72c0 3.34-1.45 7.24-5.55 7.24" style="fill:#fff;stroke:none;stroke-width:12.23999977;stroke-linecap:butt"/></g><g transform="translate(9.758 -1.206)"><title>Sheet.19452</title><path d="M31.5 102.95c-2.77 0-5.56-2.07-5.56-6.03 0-1.86.69-3.54 1.91-4.83H0V58.2c0-5.5 4.25-9.65 9.88-9.65h31.64l-2.11 2.06c-1.14 1.11-2.36 3.94-2.36 6.38v38.72c0 3.34-1.45 7.24-5.55 7.24" style="fill:#59b4d9;fill-opacity:.2;stroke:none;stroke-width:12.23999977;stroke-linecap:butt"/></g><title>Sheet.19453</title><path d="M50.52 46.26H20.87c-7.41 0-12.35 4.7-12.35 11.94v31.48H6.67C2.96 89.68 0 92.7 0 96.31c0 3.62 2.96 6.64 6.67 6.64h35.2c4.94 0 6.18-4.83 6.18-7.24V55.78h8.15c.25-.84.49-1.68.49-2.77 0-3.74-2.71-6.75-6.17-6.75m-4.94 9.52v39.93c0 2.41-.62 4.83-4.33 4.83-2.1 0-4.32-1.57-4.32-4.83 0-3.01 2.1-5.19 4.94-5.91v-.12H10.99V56.99c0-4.82 3.71-8.44 8.65-8.44h28.65c-1.35 1.32-2.71 4.46-2.71 7.23" style="fill:#59b4d9;stroke:none;stroke-width:12.23999977;stroke-linecap:butt"/><g transform="translate(22.109 -16.887)"><title>Sheet.19454</title><path d="M0 81.24h17.29v-2.42H0Zm0 14.47h17.29V93.3H0Zm0 7.24h17.29v-2.41H0ZM0 74h17.29v-2.41H0Zm0 14.47h17.29v-2.41H0Z" style="fill:#7a7a7a;stroke:none;stroke-width:12.23999977;stroke-linecap:butt"/></g><g transform="translate(14.698 -15.681)"><title>Sheet.19455</title><path d="M0 70.38h3.71V74H0Zm0 7.24h3.71v3.62H0Zm0 7.24h3.71v3.61H0Zm0 7.23h3.71v3.62H0Zm0 7.24h3.71v3.62H0Z" style="fill:#59b4d9;stroke:none;stroke-width:12.23999977;stroke-linecap:butt"/></g></g></g></svg>