<svg xmlns="http://www.w3.org/2000/svg" xml:space="preserve" width="75.587" height="75.587" style="font-size:12px;overflow:visible;color-interpolation-filters:sRGB;fill-rule:evenodd;stroke-linecap:square;stroke-miterlimit:3" viewBox="0 0 56.69 56.69"><defs><linearGradient id="a" x1="0" x2="56.69" y1="76.98" y2="76.98" gradientUnits="userSpaceOnUse"><stop offset="0" stop-color="#b6b8ba"/><stop offset="1" stop-color="#616161"/></linearGradient></defs><g transform="translate(-38.488 -38.492)"><title>Page-1</title><g transform="translate(38.488 -38.488)"><title>Application Gateway WAF Policy Setting.19440</title><title>g8</title><title>path4</title><path d="M56.69 107.63v-4.97a1.07 1.07-180 0 0-.69-1l-.21-.08-6.45-2.12a1.07 1.07 0 0 1-.66-.6l-1.45-3.54a1.07 1.07 0 0 1 .03-.85l2.99-6.39a1.07 1.07-180 0 0-.21-1.2l-3.46-3.46a1.07 1.07-180 0 0-1.23-.2l-.22.11-6.03 3.06a1.07 1.07 0 0 1-.89.04l-3.53-1.45a1.07 1.07 0 0 1-.6-.63l-2.42-6.67a1.07 1.07-180 0 0-1-.7h-4.98a1.07 1.07-180 0 0-1 .69l-.08.21-2.11 6.45a1.07 1.07 0 0 1-.61.65l-3.53 1.45a1.07 1.07 0 0 1-.86-.02l-6.26-2.99a1.07 1.07-180 0 0-1.21.21l-3.47 3.46a1.07 1.07-180 0 0-.2 1.23l.11.22 3.07 6.03a1.06 1.06 0 0 1 .04.89l-1.45 3.53a1.07 1.07 0 0 1-.63.59l-6.78 2.43a1.07 1.07-180 0 0-.71 1.01v4.97c0 .44.28.84.69 1l.22.08 6.44 2.11a1.07 1.07 0 0 1 .66.61l1.45 3.53a1.07 1.07 0 0 1-.02.86l-3 6.38a1.07 1.07-180 0 0 .21 1.21l3.46 3.46a1.07 1.07-180 0 0 1.24.2l.22-.11 6.02-3.06a1.07 1.07 0 0 1 .89-.04l3.53 1.44c.28.12.5.34.6.63l2.42 6.68a1.06 1.06-180 0 0 1 .7h4.98a1.07 1.07-180 0 0 1-.69l.08-.22 2.11-6.45a1.07 1.07 0 0 1 .61-.65l3.53-1.45a1.07 1.07 0 0 1 .86.02l6.38 3c.41.19.89.11 1.21-.21l3.46-3.46a1.07 1.07-180 0 0 .2-1.24l-.11-.22-3.06-6.02a1.06 1.06 0 0 1-.04-.89l1.45-3.53a1.07 1.07 0 0 1 .62-.6l6.68-2.42a1.07 1.07-180 0 0 .7-1.01m-28.06 14.16c-12.7 0-21.98-14.61-11.97-27.94a1.2 1.2 0 0 1 .23-.23c13.33-10.01 27.94-.73 27.94 11.97a16.15 16.15 0 0 1-16.11 16.2z" style="fill:url(#a);stroke:none;stroke-width:38.48820114;stroke-linecap:butt"/></g></g></svg>