<svg xmlns="http://www.w3.org/2000/svg" xml:space="preserve" width="75.592" height="64.25" style="font-size:12px;overflow:visible;color-interpolation-filters:sRGB;fill-rule:evenodd;stroke-linecap:square;stroke-miterlimit:3" viewBox="0 0 56.694 48.187"><defs><linearGradient id="a" x1="-.003" x2="24.248" y1="99.216" y2="99.216" gradientTransform="scale(1.06214 .9415)" gradientUnits="userSpaceOnUse"><stop offset="0" stop-color="#773adc"/><stop offset="1" stop-color="#a67af4"/></linearGradient><linearGradient id="b" x1="0" x2="24.248" y1="99.204" y2="99.204" gradientTransform="scale(1.06202 .9416)" gradientUnits="userSpaceOnUse"><stop offset="0" stop-color="#1b93eb"/><stop offset="1" stop-color="#6bb9f2"/></linearGradient></defs><g transform="translate(-33.996 -33.997)"><title>Page-1</title><g transform="translate(34 -34.016)"><title>Application Gateway Listener.19468</title><title>MsPortalFx.base.images-64</title><g transform="translate(.884 -35.807)"><title>Sheet.19470</title><title>Sheet.19471</title><path d="M1.83 103.82h4.12v11.47a.914.91 0 0 1-.914.91H.91a.914.91 0 0 1-.914-.91L0 105.64a1.828 1.82 0 0 1 1.83-1.82" style="fill:#999;stroke:none;stroke-width:34;stroke-linecap:butt"/><title>Sheet.19472</title><path d="M1.83 103.82h4.12v11.47a.914.91 0 0 1-.914.91H.91a.914.91 0 0 1-.914-.91L0 105.64a1.828 1.82 0 0 1 1.83-1.82" style="fill:#999;fill-opacity:.5;stroke:none;stroke-width:34;stroke-linecap:butt"/></g><g transform="translate(49.26 -35.807)"><title>Sheet.19473</title><title>Sheet.19474</title><path d="M0 103.82h4.12a1.828 1.82 0 0 1 1.83 1.82v9.65a.914.91 0 0 1-.914.91H.91a.914.91 0 0 1-.914-.91z" style="fill:#999;stroke:none;stroke-width:34;stroke-linecap:butt"/><title>Sheet.19475</title><path d="M0 103.82h4.12a1.828 1.82 0 0 1 1.83 1.82v9.65a.914.91 0 0 1-.914.91H.91a.914.91 0 0 1-.914-.91z" style="fill:#999;fill-opacity:.5;stroke:none;stroke-width:34;stroke-linecap:butt"/></g><g transform="translate(.884 -42.4)"><title>Sheet.19476</title><path d="M54.33 112.22v3.98H0v-3.98a1.81 1.803 0 0 1 1.81-1.8H52.5a1.81 1.803 0 0 1 1.83 1.8" style="fill:#949494;stroke:none;stroke-width:34;stroke-linecap:butt"/></g><g transform="translate(.884 -.003)"><title>Sheet.19477</title><title>Sheet.19478</title><path d="M.91 103.82h4.13a.914.91 0 0 1 .914.91L5.95 116.2H1.83A1.828 1.82 0 0 1 0 114.38v-9.65a.914.91 0 0 1 .914-.91z" style="fill:#999;stroke:none;stroke-width:34;stroke-linecap:butt"/><title>Sheet.19479</title><path d="M.91 103.82h4.13a.914.91 0 0 1 .914.91L5.95 116.2H1.83A1.828 1.82 0 0 1 0 114.38v-9.65a.914.91 0 0 1 .914-.91z" style="fill:#999;fill-opacity:.5;stroke:none;stroke-width:34;stroke-linecap:butt"/></g><g transform="translate(49.26)"><title>Sheet.19480</title><title>Sheet.19481</title><path d="M.91 103.82h4.13a.914.91 0 0 1 .914.91l-.004 9.65a1.828 1.82 0 0 1-1.83 1.82H0v-11.47a.914.91 0 0 1 .914-.91z" style="fill:#999;stroke:none;stroke-width:34;stroke-linecap:butt"/><title>Sheet.19482</title><path d="M.91 103.82h4.13a.914.91 0 0 1 .914.91l-.004 9.65a1.828 1.82 0 0 1-1.83 1.82H0v-11.47a.914.91 0 0 1 .914-.91z" style="fill:#999;fill-opacity:.5;stroke:none;stroke-width:34;stroke-linecap:butt"/></g><g transform="translate(.884 -.003)"><title>Sheet.19483</title><path d="M0 114.4v-3.98h54.33v3.98a1.81 1.803 0 0 1-1.81 1.8H1.81A1.81 1.803 0 0 1 0 114.4" style="fill:#949494;stroke:none;stroke-width:34;stroke-linecap:butt"/></g><g transform="translate(0 -13.144)"><title>Sheet.19484</title><path d="m14.97 93.57 10.42 10.38a1.24 1.236 0 0 1 0 1.75l-10.42 10.38a.554.551 0 0 1-.947-.392l-.003-6.378a.554.551-180 0 0-.554-.555L.44 108.76a.44.438 0 0 1-.444-.442L0 101.34a.44.438 0 0 1 .444-.438l13.026-.002a.554.551-180 0 0 .554-.555l-.004-6.385a.554.551 0 0 1 .947-.385z" style="fill:url(#a);stroke:none;stroke-width:34;stroke-linecap:butt"/></g><g transform="translate(30.938 -13.144)"><title>Sheet.19485</title><path d="m14.97 93.57 10.42 10.38a1.247 1.242 0 0 1 0 1.75l-10.42 10.38a.554.551 0 0 1-.947-.392l-.003-6.378a.557.555-180 0 0-.557-.555L.44 108.76a.44.438 0 0 1-.44-.442v-6.978a.44.438 0 0 1 .44-.442l13.03.002a.557.555-180 0 0 .557-.555l-.007-6.385a.554.551 0 0 1 .947-.385z" style="fill:url(#b);stroke:none;stroke-width:34;stroke-linecap:butt"/></g></g></g></svg>