<svg xmlns="http://www.w3.org/2000/svg" xml:space="preserve" width="73.551" height="73.551" style="font-size:12px;overflow:visible;color-interpolation-filters:sRGB;fill-rule:evenodd;stroke-linecap:square;stroke-miterlimit:3" viewBox="0 0 55.163 55.163"><defs><linearGradient id="a" x1="0" x2="40.09" y1="83.85" y2="83.85" gradientUnits="userSpaceOnUse"><stop offset="0" stop-color="#5e9624"/><stop offset=".55" stop-color="#6dad2a"/><stop offset="1" stop-color="#76bc2d"/></linearGradient><linearGradient id="b" x1="0" x2="5.648" y1="118.294" y2="118.294" gradientUnits="userSpaceOnUse"><stop offset="0" stop-color="#ccc"/><stop offset=".12" stop-color="#d7d7d7"/><stop offset=".42" stop-color="#ebebeb"/><stop offset=".72" stop-color="#f8f8f8"/><stop offset="1" stop-color="#fcfcfc"/></linearGradient></defs><g transform="translate(-33.997 -33.995)"><title>Page-1</title><g transform="translate(33.234 -34.016)"><title>Application Gateway.19417</title><title>Icon-networking-76</title><g transform="rotate(-45 14.173 89.725)"><title>Sheet.19419</title><path d="M0 122.09a1.85 1.85-180 0 0 1.85 1.85h36.39a1.85 1.85-180 0 0 1.85-1.85V85.7a1.85 1.85-180 0 0-1.85-1.85H1.85A1.85 1.85-180 0 0 0 85.7Z" style="fill:url(#a);stroke:none;stroke-width:34;stroke-linecap:butt"/></g><g transform="translate(12.147 -8.551)"><title>Sheet.19420</title><g transform="translate(13.667 -14.895)"><title>Sheet.19421</title><path d="M8.7 123.94h9.22a.357.357-180 0 0 .325-.357l-.005-9.183a.325.325-180 0 0-.584-.227L15.12 116.7v.17a.325.325 0 0 1-.454 0L3.41 105.76a.325.325-180 0 0-.454 0L.1 108.62a.357.357-180 0 0 0 .487l11.06 11.073a.357.357 0 0 1 0 .487l-.16.163-2.53 2.53a.357.357-180 0 0 .227.584z" style="fill:#fff;stroke:none;stroke-width:34;stroke-linecap:butt"/></g><g transform="translate(0 -14.895)"><title>Sheet.19422</title><path d="M9.48 123.94H.26a.36.36 0 0 1-.26-.357V114.4a.325.325 0 0 1 .552-.227L3.12 116.7v.17a.325.325-180 0 0 .454 0l11.196-11.11a.325.325 0 0 1 .454 0l2.856 2.86a.357.357 0 0 1 0 .487L7.01 120.18a.357.357-180 0 0 0 .487v.163l2.53 2.53a.357.357 0 0 1-.065.584z" style="fill:#fff;stroke:none;stroke-width:34;stroke-linecap:butt"/></g><g transform="translate(9.085)"><title>Sheet.19423</title><path d="m.07 117.36 6.49 6.49a.325.325-180 0 0 .454 0l6.496-6.49a.325.325-180 0 0-.227-.552l-3.803.002a.36.36 0 0 1-.325-.325L9.16 100.9a.325.325-180 0 0-.325-.357l-4.025-.003a.357.357-180 0 0-.357.357L4.45 116.48a.325.325 0 0 1-.325.325L.3 116.81a.325.325-180 0 0-.227.552z" style="fill:#fff;stroke:none;stroke-width:34;stroke-linecap:butt"/></g></g><g transform="translate(21.636 -32.242)"><title>Sheet.19424</title><path d="M12.1 123.88a8.797 8.797 0 0 1-10.78-13.9A8.797 8.797 0 0 1 12 123.94Z" style="fill:#0078d4"/><path d="M12.1 123.88a8.797 8.797 0 0 1-10.78-13.9A8.797 8.797 0 0 1 12 123.94" style="stroke:none;stroke-width:34;stroke-linecap:butt"/></g><g transform="translate(20.782 -36.722)"><title>Sheet.19425</title><circle cx="2.824" cy="121.118" r="2.824" style="fill:url(#b);stroke:none;stroke-width:34;stroke-linecap:butt"/></g><g transform="translate(20.782 -32.989)"><title>Sheet.19426</title><path d="m.03 122.09.62.98.45.65a19.3 19.3 0 0 1 1.11-3.58 2.76 2.76 0 0 1-1.46-.74 22 22-180 0 0-.72 2.69m1.85-7.37a13 13 0 0 1-.78-3.02 8 8-180 0 0-1.1 1.5 11.4 11.4-180 0 0 .65 2.4 3.25 3.25 0 0 1 1.23-.88m3.02 4.58a2.82 2.82 0 0 1-1.56.84 15 15-180 0 0 1.5 1.34 13.4 13.4-180 0 0 2.11 1.26v-.23a1.72 1.72 0 0 1 .65-1.29 11.7 11.7 0 0 1-2.7-1.92m8.51 3.44a13.4 13.4 0 0 1-2.83-.32 1.8 1.8 0 0 1-.52 1.26 12.5 12.5-180 0 0 3.51.26 9.5 9.5-180 0 0 1.2-1.36z" style="fill:#f2f2f2;fill-opacity:.55;stroke:none;stroke-width:34;stroke-linecap:butt"/></g><g transform="translate(27.728 -32.6)"><title>Sheet.19427</title><circle cx="1.818" cy="122.125" r="1.818" style="fill:none;stroke:none;stroke-width:34;stroke-linecap:butt"/></g><g transform="translate(31.753 -36.981)"><title>Sheet.19428</title><circle cx="1.948" cy="121.995" r="1.948" style="fill:#f2f2f2;stroke:none;stroke-width:34;stroke-linecap:butt"/></g><g transform="translate(24.644 -36.137)"><title>Sheet.19429</title><path d="M4.41 116.87a13.9 13.9 0 0 1 6.11-1.37 7.3 7.3-180 0 0-1.53-1.46 14.6 14.6-180 0 0-4.84 1.14c-.32 0-.61.36-.94.52a19 19 0 0 1-2.04-3.02l-1.11.42a17.4 17.4-180 0 0 2.11 3.25A12.7 12.7-180 0 0 0 118.13a2.82 2.82 0 0 1 1.4 1.14 10.7 10.7 0 0 1 1.98-1.56 30 30-180 0 0 3.79 3.25 1.85 1.85 0 0 1 .65-1.04 27.4 27.4 0 0 1-3.41-3.05m7.6 5.42h-.58l-.33-.2a2 2 0 0 1-.65.98l.39.22.36.2.91.45a12 12-180 0 0 .29-1.13z" style="fill:#f2f2f2;fill-opacity:.55;stroke:none;stroke-width:34;stroke-linecap:butt"/></g><g transform="translate(20.782 -36.722)"><title>Sheet.19430</title><circle cx="2.824" cy="121.118" r="2.824" style="fill:#f2f2f2;stroke:none;stroke-width:34;stroke-linecap:butt"/></g><g transform="translate(27.728 -32.6)"><title>Sheet.19431</title><circle cx="1.818" cy="122.125" r="1.818" style="fill:#f2f2f2;stroke:none;stroke-width:34;stroke-linecap:butt"/></g></g></g></svg>