<svg xmlns="http://www.w3.org/2000/svg" xmlns:xlink="http://www.w3.org/1999/xlink" xml:space="preserve" width="75.591" height="71.813" style="font-size:12px;overflow:visible;color-interpolation-filters:sRGB;fill-rule:evenodd;stroke-linecap:square;stroke-miterlimit:3" viewBox="0 0 56.693 53.86"><defs><linearGradient id="b" x1="-.003" x2="53.292" y1="76.347" y2="76.347" gradientTransform="scale(1.06377 .94005)" gradientUnits="userSpaceOnUse"><stop offset="0" stop-color="#005ba1"/><stop offset="1" stop-color="#0078d4"/></linearGradient><linearGradient id="a" x1="0" x2="1" y1="0" y2="0" gradientTransform="rotate(-90 .5 .5)"><stop offset="0" stop-color="#5ea0ef"/><stop offset="1" stop-color="#83b9f9"/></linearGradient><linearGradient id="e" x1="0" x2="8.995" y1="112.281" y2="112.281" gradientTransform="scale(.9951 1.00493)" gradientUnits="userSpaceOnUse"><stop offset="0" stop-color="#5ea0ef"/><stop offset="1" stop-color="#83b9f9"/></linearGradient><linearGradient xlink:href="#a" id="d" x1="0" x2="8.995" y1="112.281" y2="112.281" gradientTransform="scale(.9951 1.00493)" gradientUnits="userSpaceOnUse"/><linearGradient xlink:href="#a" id="f" x1="0" x2="8.995" y1="112.281" y2="112.281" gradientTransform="scale(.9951 1.00493)" gradientUnits="userSpaceOnUse"/><linearGradient xlink:href="#a" id="g" x1="0" x2="8.995" y1="112.281" y2="112.281" gradientTransform="scale(.9951 1.00493)" gradientUnits="userSpaceOnUse"/><radialGradient id="c" cx="16.137" cy="118.541" r="35.502" fx="16.137" fy="118.541" gradientTransform="scale(1.23751 .80807)" gradientUnits="userSpaceOnUse"><stop offset="0" stop-color="gray"/><stop offset=".19" stop-color="#a1a1a1"/><stop offset=".4" stop-color="silver"/><stop offset=".52" stop-color="#ccc"/><stop offset=".63" stop-color="#c9c9c9"/><stop offset=".715" stop-color="#bfbfbf"/><stop offset=".785" stop-color="#afafaf"/><stop offset=".85" stop-color="#999"/><stop offset=".91" stop-color="gray"/></radialGradient></defs><g transform="translate(-33.997 -33.998)"><title>Page-1</title><g transform="translate(34 -34.016)"><title>Application Gateways for Containers.19408</title><title>Sheet.19409</title><g transform="translate(0 -3.756)"><title>Sheet.19410</title><path d="M56.69 96.83a1.95 1.969-180 0 0-.25-.96L43.22 72.74a1.924 1.943-180 0 0-1.65-.97H15.13a1.924 1.943-180 0 0-1.66.98L.25 95.85a1.928 1.947-180 0 0 0 1.93l13.22 23.12a1.924 1.943-180 0 0 1.66.97h26.44a1.924 1.943-180 0 0 1.65-.97l13.22-23.1a1.94 1.96-180 0 0 .25-.97" style="fill:url(#b)"/><path d="M56.69 96.83a1.95 1.969-180 0 0-.25-.96L43.22 72.74a1.924 1.943-180 0 0-1.65-.97H15.13a1.924 1.943-180 0 0-1.66.98L.25 95.85a1.928 1.947-180 0 0 0 1.93l13.22 23.12a1.924 1.943-180 0 0 1.66.97h26.44a1.924 1.943-180 0 0 1.65-.97l13.22-23.1a1.94 1.96-180 0 0 .25-.97" style="stroke:none;stroke-width:34;stroke-linecap:butt"/></g><g transform="translate(8.464 -4.52)"><title>Sheet.19411</title><path d="M39.94 114.8 21.8 96.49v-.2h-.19l-.35-.35-.35.35h-1.84l-.5-.5L0 114.81l2.64 2.63 15.45-15.82v20.25h3.71v-20.09l15.51 15.67z" style="fill:url(#c);stroke:none;stroke-width:34;stroke-linecap:butt"/></g><g transform="translate(23.934)"><title>Sheet.19412</title><ellipse cx="4.476" cy="117.354" rx="4.476" ry="4.52" style="fill:url(#d);stroke:none;stroke-width:34;stroke-linecap:butt"/></g><g transform="translate(20.728 -22.95)"><title>Sheet.19413</title><path d="M0 115.6a7.713 7.79-180 1 0 9.78-7.45v-5.56a4.724 4.771-180 1 0-4.34 0v5.7A7.653 7.729-180 0 0 0 115.6" style="fill:#fff;stroke:none;stroke-width:34;stroke-linecap:butt"/></g><g transform="translate(23.934 -24.672)"><title>Sheet.19414</title><ellipse cx="4.476" cy="117.354" rx="4.476" ry="4.52" style="fill:url(#e);stroke:none;stroke-width:34;stroke-linecap:butt"/></g><g transform="translate(5.308 -5.747)"><title>Sheet.19415</title><ellipse cx="4.476" cy="117.354" rx="4.476" ry="4.52" style="fill:url(#f);stroke:none;stroke-width:34;stroke-linecap:butt"/></g><g transform="translate(42.614 -5.747)"><title>Sheet.19416</title><ellipse cx="4.476" cy="117.354" rx="4.476" ry="4.52" style="fill:url(#g);stroke:none;stroke-width:34;stroke-linecap:butt"/></g></g></g></svg>