<svg xmlns="http://www.w3.org/2000/svg" xmlns:xlink="http://www.w3.org/1999/xlink" xml:space="preserve" width="75.206" height="71.865" style="font-size:12px;overflow:visible;color-interpolation-filters:sRGB;fill-rule:evenodd;stroke-linecap:square;stroke-miterlimit:3" viewBox="0 0 56.405 53.899"><defs><linearGradient id="a" x1="0" x2="1" y1="0" y2="0" gradientTransform="rotate(-90 .5 .5)"><stop offset="0" stop-color="#b31b1b"/><stop offset=".82" stop-color="#e62323"/></linearGradient><linearGradient xlink:href="#a" id="b" x1=".132" x2="55.269" y1="69.584" y2="69.584" gradientTransform="scale(1.02298 .97754)" gradientUnits="userSpaceOnUse"/><linearGradient xlink:href="#a" id="c" x1=".131" x2="55.187" y1="69.852" y2="69.852" gradientTransform="scale(1.0245 .97608)" gradientUnits="userSpaceOnUse"/></defs><g transform="translate(-33.999 -34.005)"><title>Page-1</title><g transform="translate(33.864 -34.016)"><title>Application Gateway Backend Health.19531</title><title>MsPortalFx.base.images-73</title><title>Sheet.19533</title><path d="M28.34 121.92c27.13-19.64 28.04-31.1 28.18-34.68.17-5.02-.52-18.16-13.62-19.17a14.174 14.32-180 0 0-14.56 9.57 14.174 14.32-180 0 0-14.55-9.57C.69 69.1 0 82.22.15 87.24c.12 3.58 1.04 15.04 28.19 34.68" style="fill:url(#b);stroke:none;stroke-width:34;stroke-linecap:butt"/><g transform="translate(0 -.16)"><title>Sheet.19534</title><path d="M56.52 87.4c.17-5.02-.52-18.16-13.62-19.17a14.174 14.32-180 0 0-14.56 9.57 14.174 14.32-180 0 0-14.55-9.57C.69 69.26 0 82.38.15 87.4c.12 3.58.8 14.87 27.93 34.52z" style="fill:url(#c)"/><path d="M56.52 87.4c.17-5.02-.52-18.16-13.62-19.17a14.174 14.32-180 0 0-14.56 9.57 14.174 14.32-180 0 0-14.55-9.57C.69 69.26 0 82.38.15 87.4c.12 3.58.8 14.87 27.93 34.52" style="stroke:none;stroke-width:34;stroke-linecap:butt"/></g></g></g></svg>