<svg xmlns="http://www.w3.org/2000/svg" xml:space="preserve" width="64.253" height="75.591" style="font-size:12px;overflow:visible;color-interpolation-filters:sRGB;fill-rule:evenodd;stroke-linecap:square;stroke-miterlimit:3" viewBox="0 0 48.19 56.694"><defs><linearGradient id="a" x1="-.022" x2="47.924" y1="67.176" y2="67.176" gradientTransform="scale(.92313 1.08327)" gradientUnits="userSpaceOnUse"><stop offset="0" stop-color="#0078d4"/><stop offset=".06" stop-color="#0a7cd7"/><stop offset=".34" stop-color="#2e8ce1"/><stop offset=".59" stop-color="#4897e9"/><stop offset=".82" stop-color="#589eed"/><stop offset="1" stop-color="#5ea0ef"/></linearGradient></defs><g transform="translate(-34 -34.004)"><title>Page-1</title><g transform="translate(34 -34.016)"><title>Application Gateway SSL Setting.19456</title><title>Sheet.19457</title><title>Sheet.19458</title><path d="M48.19 94.48c0 15.24-19.13 27.51-23.31 30.01a1.463 1.433 0 0 1-1.57 0C19.13 122.02 0 109.75 0 94.48V76.15a1.497 1.467 0 0 1 1.46-1.47c14.91-.36 11.47-6.66 22.63-6.66 11.17 0 7.73 6.3 22.64 6.66a1.497 1.467 0 0 1 1.46 1.47z" style="fill:#0078d4;stroke:none;stroke-width:34;stroke-linecap:butt"/><g transform="translate(1.974 -2.39)"><title>Sheet.19459</title><path d="M44.24 97.01c0 14-17.56 25.23-21.4 27.5a1.361 1.333 0 0 1-1.43 0C17.56 122.24 0 111.01 0 97.01V80.34a1.395 1.367 0 0 1 1.36-1.6c13.68-.23 10.55-5.97 20.76-5.97s7.08 5.74 20.76 5.97a1.395 1.367 0 0 1 1.36 1.33z" style="fill:url(#a);stroke:none;stroke-width:34;stroke-linecap:butt"/></g><g transform="translate(13.272 -18.357)"><title>Sheet.19460</title><path d="M20.52 110.24h-1.36v-4.73a8.916 8.734-180 0 0-2.38-6.04 8.066 7.9-180 0 0-11.85 0 8.882 8.7-180 0 0-2.38 6.04v4.73H1.19A1.089 1.067-180 0 0 0 111.37v12.27a1.089 1.067-180 0 0 1.12 1.07h19.4a1.089 1.067-180 0 0 1.12-1.07v-12.27a1.089 1.067-180 0 0-1.12-1.13m-5.27 0H6.4v-4.8a4.867 4.767 0 0 1 1.39-3.33 4.05 3.967 0 0 1 6.06 0 5.309 5.2 0 0 1 .55.66 4.764 4.667 0 0 1 .85 2.64z" style="fill:#ffbd02;stroke:none;stroke-width:34;stroke-linecap:butt"/></g><g transform="translate(13.272 -18.69)"><title>Sheet.19461</title><path d="M1.12 110.57h19.4a1.089 1.067 0 0 1 .72.27L.41 124.71a1.123 1.1 0 0 1-.41-.8v-12.2a1.089 1.067 0 0 1 1.12-1.14" style="fill:#ffe452;stroke:none;stroke-width:34;stroke-linecap:butt"/></g><g transform="translate(13.68 -18.69)"><title>Sheet.19462</title><path d="M20.11 110.57H.71a1.089 1.067-180 0 0-.71.27l20.83 13.87a1.021 1-180 0 0 .41-.8v-12.2a1.089 1.067-180 0 0-1.13-1.14" style="fill:#ffd400;fill-opacity:.5;stroke:none;stroke-width:34;stroke-linecap:butt"/></g></g></g></svg>