<svg xmlns="http://www.w3.org/2000/svg" xml:space="preserve" width="56.693" height="75.595" style="font-size:12px;overflow:visible;color-interpolation-filters:sRGB;fill-rule:evenodd;stroke-linecap:square;stroke-miterlimit:3" viewBox="0 0 42.52 56.697"><g transform="translate(-12.24 -12.237)"><title>Page-1</title><g transform="translate(12.24 -34.016)"><title>Application Gateway WAF.19432</title><title>Sheet.19433</title><title>Sheet.19434</title><path d="M36.25 53.07c-12.78-1.36-14.99-6.81-14.99-6.81S18.36 53.3 0 53.3v29.08c0 3.53 1.97 6.82 4.76 9.66 6.28 6.48 16.5 10.91 16.5 10.91s21.26-9.09 21.26-20.57V53.3c-2.32 0-4.41-.11-6.27-.23" style="fill:#3999c6;stroke:none;stroke-width:12.23999977;stroke-linecap:butt"/><g transform="translate(0 -10.907)"><title>Sheet.19435</title><path d="m26.6 75.91 9.65-11.93c-12.78-1.36-14.99-6.82-14.99-6.82S18.36 64.21 0 64.21v29.08c0 3.52 1.97 6.82 4.76 9.66l7.21-8.86z" style="fill:#59b4d9;fill-opacity:.4;stroke:none;stroke-width:12.23999977;stroke-linecap:butt"/></g><g transform="translate(4.298 -5.68)"><title>Sheet.19436</title><g transform="translate(.116)"><title>Sheet.19437</title><path d="M0 79.66v6.93c0 2.84 1.63 5.45 3.83 7.72 5 5.23 13.13 8.64 13.13 8.64V79.66Z" style="fill:#fff;fill-opacity:.3;stroke:none;stroke-width:12.23999977;stroke-linecap:butt"/></g><title>Sheet.19438</title><path d="M16.96 102.95s16.96-7.27 16.96-16.36v-6.93H16.96Zm0-45.22S14.64 63.41 0 63.41v16.25h16.96z" style="fill:#fff;fill-opacity:.7;stroke:none;stroke-width:12.23999977;stroke-linecap:butt"/><g transform="translate(16.961 -23.29)"><title>Sheet.19439</title><path d="M11.85 86.47C1.74 85.34 0 81.13 0 81.13v21.82h16.96V86.7c-1.86 0-3.6-.11-5.11-.23" style="fill:#fff;fill-opacity:.3;stroke:none;stroke-width:12.23999977;stroke-linecap:butt"/></g></g></g></g></svg>