<svg xmlns="http://www.w3.org/2000/svg" xmlns:xlink="http://www.w3.org/1999/xlink" xml:space="preserve" width="75.592" height="60.466" style="font-size:12px;overflow:visible;color-interpolation-filters:sRGB;fill-rule:evenodd;stroke-linecap:square;stroke-miterlimit:3" viewBox="0 0 56.694 45.35"><defs><linearGradient id="a" x1="0" x2="1" y1="0" y2="0"><stop offset="0" stop-color="#005ba1"/><stop offset=".07" stop-color="#0060a9"/><stop offset=".36" stop-color="#0071c8"/><stop offset=".52" stop-color="#0078d4"/><stop offset="1" stop-color="#005ba1"/></linearGradient><linearGradient xlink:href="#a" id="b" x1="0" x2="26.525" y1="87.51" y2="87.51" gradientTransform="scale(1.00586 .99417)" gradientUnits="userSpaceOnUse"/><linearGradient xlink:href="#a" id="c" x1="0" x2="26.525" y1="87.51" y2="87.51" gradientTransform="scale(1.00586 .99417)" gradientUnits="userSpaceOnUse"/><linearGradient xlink:href="#a" id="d" x1="0" x2="26.525" y1="87.51" y2="87.51" gradientTransform="scale(1.00586 .99417)" gradientUnits="userSpaceOnUse"/></defs><g transform="translate(-34 -34.004)"><title>Page-1</title><g transform="translate(34 -34.016)"><title>Azure Cache for Redis.19394</title><title>Icon-databases-137</title><g transform="translate(30.014 -14.824)"><title>Sheet.19396</title><path d="M13.34 91.18C5.97 91.18 0 89.32 0 87v22.21c0 2.26 5.87 4.13 13.17 4.16h.17c7.37 0 13.34-1.87 13.34-4.16V87c0 2.32-5.97 4.18-13.34 4.18" style="fill:url(#b);stroke:none;stroke-width:34;stroke-linecap:butt"/></g><g transform="translate(30.014 -37.01)"><title>Sheet.19397</title><path d="M26.68 109.18c0 2.32-5.97 4.19-13.34 4.19S0 111.5 0 109.18s5.97-4.15 13.34-4.15 13.34 1.86 13.34 4.15" style="fill:#e8e8e8;stroke:none;stroke-width:34;stroke-linecap:butt"/></g><g transform="translate(33.115 -38.875)"><title>Sheet.19398</title><path d="M20.48 110.72c0 1.47-4.61 2.65-10.24 2.65-5.64 0-10.24-1.18-10.24-2.65s4.6-2.65 10.24-2.65c5.63 0 10.24 1.18 10.24 2.65" style="fill:#50e6ff;stroke:none;stroke-width:34;stroke-linecap:butt"/></g><g transform="translate(35.25 -38.875)"><title>Sheet.19399</title><path d="M8.1 111.34a28.847 28.306-180 0 0-8.1.98 26.012 25.524-180 0 0 8.1 1.05 26.012 25.524-180 0 0 8.11-1.05 28.847 28.306-180 0 0-8.11-.98" style="fill:#32bedd;stroke:none;stroke-width:34;stroke-linecap:butt"/></g><g transform="translate(0 -14.824)"><title>Sheet.19400</title><path d="M13.34 91.18C5.97 91.18 0 89.32 0 87v22.21c0 2.26 5.87 4.13 13.34 4.16 7.37 0 13.34-1.87 13.34-4.16V87c0 2.32-5.97 4.18-13.34 4.18" style="fill:url(#c);stroke:none;stroke-width:34;stroke-linecap:butt"/></g><g transform="translate(0 -37.01)"><title>Sheet.19401</title><path d="M26.68 109.18c0 2.32-5.97 4.19-13.34 4.19S0 111.5 0 109.18s5.97-4.15 13.34-4.15 13.34 1.86 13.34 4.15" style="fill:#e8e8e8;stroke:none;stroke-width:34;stroke-linecap:butt"/></g><g transform="translate(3.101 -38.875)"><title>Sheet.19402</title><path d="M20.48 110.72c0 1.47-4.61 2.65-10.24 2.65-5.64 0-10.24-1.18-10.24-2.65s4.6-2.65 10.24-2.65c5.63 0 10.24 1.18 10.24 2.65" style="fill:#50e6ff;stroke:none;stroke-width:34;stroke-linecap:butt"/></g><g transform="translate(5.236 -38.875)"><title>Sheet.19403</title><path d="M8.1 111.34a28.847 28.306-180 0 0-8.1.98 26.012 25.524-180 0 0 8.1 1.05 26.012 25.524-180 0 0 8.11-1.05 28.847 28.306-180 0 0-8.11-.98" style="fill:#32bedd;stroke:none;stroke-width:34;stroke-linecap:butt"/></g><g transform="translate(15.007)"><title>Sheet.19404</title><path d="M13.34 91.18C5.97 91.18 0 89.32 0 87v22.21c0 2.29 5.87 4.13 13.17 4.16h.17c7.37 0 13.34-1.87 13.34-4.16V87c0 2.32-5.97 4.18-13.34 4.18" style="fill:url(#d);stroke:none;stroke-width:34;stroke-linecap:butt"/></g><g transform="translate(15.007 -22.186)"><title>Sheet.19405</title><path d="M26.68 109.18c0 2.32-5.97 4.19-13.34 4.19S0 111.5 0 109.18s5.97-4.15 13.34-4.15 13.34 1.86 13.34 4.15" style="fill:#e8e8e8;stroke:none;stroke-width:34;stroke-linecap:butt"/></g><g transform="translate(18.108 -24.052)"><title>Sheet.19406</title><path d="M20.48 110.72c0 1.47-4.61 2.65-10.24 2.65-5.64 0-10.24-1.18-10.24-2.65s4.6-2.52 10.24-2.52c5.63 0 10.24 1.18 10.24 2.65z" style="fill:#50e6ff"/><path d="M20.48 110.72c0 1.47-4.61 2.65-10.24 2.65-5.64 0-10.24-1.18-10.24-2.65s4.6-2.52 10.24-2.52c5.63 0 10.24 1.18 10.24 2.65" style="stroke:none;stroke-width:34;stroke-linecap:butt"/></g><g transform="translate(20.243 -24.052)"><title>Sheet.19407</title><path d="M8.1 111.47a28.847 28.306-180 0 0-8.1.98 26.012 25.524-180 0 0 8.1.92 26.012 25.524-180 0 0 8.11-1.05 28.847 28.306-180 0 0-8.11-.85" style="fill:#32bedd;stroke:none;stroke-width:34;stroke-linecap:butt"/></g></g></g></svg>