<svg xmlns="http://www.w3.org/2000/svg" xml:space="preserve" width="78.416" height="78.654" style="font-size:12px;overflow:visible;color-interpolation-filters:sRGB;fill-rule:evenodd;stroke-linecap:square;stroke-miterlimit:3" viewBox="0 0 58.812 58.991"><defs><linearGradient id="a" x1="0" x2="23.53" y1="232.115" y2="232.115" gradientTransform="scale(2.01279 .49682)" gradientUnits="userSpaceOnUse"><stop offset=".3" stop-color="#0078d4"/><stop offset="1" stop-color="#005ba1"/></linearGradient><linearGradient id="b" x1="0" x2="7.487" y1="119.476" y2="119.476" gradientTransform="scale(.99963 1.00037)" gradientUnits="userSpaceOnUse"><stop offset="0" stop-color="#9cebff"/><stop offset="1" stop-color="#50e6ff"/></linearGradient><linearGradient id="c" x1="-.075" x2="20.599" y1="106.673" y2="106.673" gradientTransform="scale(1.002 .998)" gradientUnits="userSpaceOnUse"><stop offset="0" stop-color="#5ea0ef"/><stop offset="1" stop-color="#0078d4"/></linearGradient></defs><g transform="translate(-34 -33.998)"><title>Page-1</title><g transform="translate(34.001 -34.016)"><title>Azure Orbital.19378</title><title>Sheet.19379</title><g transform="translate(.838 -.98)"><title>Sheet.19380</title><path d="M29.2 127.01a1.469 1.47 0 0 1 0-2.94 26.07 26.088-180 0 0 18.05-44.65 26.07 26.088-180 0 0-44.32 18.8 1.468 1.47 0 1 1-2.93.02 28.986 29.008 0 0 1 49.31-20.92 28.986 29.008 0 0 1-20.09 49.69Z" style="fill:#e6e6e6;stroke:none;stroke-width:34;stroke-linecap:butt"/></g><title>Sheet.19381</title><path d="M13.6 127A14.011 14.022 0 0 1 .14 115.07a13.2 13.21 0 0 1-.14-2.08c.02-.93.47-1.48 1.2-1.5.72-.01 1.32.54 1.32 1.49a10.754 10.762-180 0 0 .93 4.72 11.16 11.169-180 0 0 9.12 6.77c.53.07 1.08.1 1.61.13.86.04 1.32.42 1.32 1.17s-.46 1.18-1.28 1.23c-.21.01-.41 0-.62 0" style="fill:#b3b3b3;fill-opacity:.51000001;stroke:none;stroke-width:34;stroke-linecap:butt"/><g transform="translate(4.653 -4.613)"><title>Sheet.19382</title><path d="M9.07 127A9.27 9.276 0 0 1 0 117.51a3.666 3.669 0 0 1 .14-.91 1.099 1.1 0 0 1 1.11-.8 1.105 1.106 0 0 1 1.14.74 3.043 3.045 0 0 1 .12 1.22 6.771 6.776-180 0 0 6.73 6.7 5.94 5.944 0 0 1 .77.02 1.294 1.294 0 0 1 1.14 1.41A1.148 1.15 0 0 1 9.92 127c-.28.01-.57 0-.85 0" style="fill:#b3b3b3;fill-opacity:.51000001;stroke:none;stroke-width:34;stroke-linecap:butt"/></g><g transform="rotate(45 60.494 118.755)"><title>Sheet.19383</title><path d="M0 125.39a1.617 1.618-180 0 0 1.62 1.62h44.13a1.617 1.618-180 0 0 1.61-1.62v-8.46a1.617 1.618-180 0 0-1.61-1.61H1.62A1.617 1.618-180 0 0 0 116.93Z" style="fill:url(#a);stroke:none;stroke-width:34;stroke-linecap:butt"/></g><g transform="translate(14.685 -14.669)"><title>Sheet.19384</title><path d="m4.41 120.5 2.1 2.1-4.4 4.41L0 124.9Z" style="fill:#005ba1;stroke:none;stroke-width:34;stroke-linecap:butt"/></g><g transform="translate(9.827 -9.805)"><title>Sheet.19385</title><ellipse cx="3.742" cy="123.265" rx="3.742" ry="3.745" style="fill:url(#b);stroke:none;stroke-width:34;stroke-linecap:butt"/></g><g transform="translate(20.915 -20.9)"><title>Sheet.19386</title><path d="m2.17 113.9 10.93 10.94-2.16 2.17L0 116.07Zm16.55-11.38 5.76 5.75a.756.756 0 0 1 0 1.07l-3.32 3.32-6.82-6.82 3.31-3.32a.756.756 0 0 1 1.07 0" style="fill:#005ba1;stroke:none;stroke-width:34;stroke-linecap:butt"/></g><g transform="translate(23.043 -23.04)"><title>Sheet.19387</title><path d="m11.49 107.25 8.26 8.27a1.9 1.902 0 0 1 0 2.7l-8.78 8.79L0 116.04l8.79-8.8a1.9 1.902 0 0 1 2.7.01" style="fill:#50e6ff;stroke:none;stroke-width:34;stroke-linecap:butt"/></g><g transform="translate(11.43 -11.432)"><title>Sheet.19388</title><path d="M13.76 126.36.66 113.28a2.594 2.596 0 0 1 1.09-4.29l7.92-2.53 10.97 10.98-2.6 7.85a2.597 2.599 0 0 1-4.28 1.07" style="fill:url(#c);stroke:none;stroke-width:34;stroke-linecap:butt"/></g></g></g></svg>