<svg xmlns="http://www.w3.org/2000/svg" xml:space="preserve" width="75.587" height="68.047" style="font-size:12px;overflow:visible;color-interpolation-filters:sRGB;fill-rule:evenodd;stroke-linecap:square;stroke-miterlimit:3" viewBox="0 0 56.69 51.036"><defs><linearGradient id="a" x1="0" x2="48.26" y1="91.581" y2="91.581" gradientTransform="scale(1.17469 .8513)" gradientUnits="userSpaceOnUse"><stop offset="0" stop-color="#0078d4"/><stop offset=".82" stop-color="#5ea0ef"/></linearGradient></defs><g transform="translate(-34 -33.999)"><title>Page-1</title><g transform="translate(34 -34.016)"><title>Azure Front Door.19389</title><title>Icon-networking-73</title><g transform="translate(0 -9.948)"><title>Sheet.19391</title><path d="M56.69 106.15a12.598 12.869-180 0 0-11.05-12.32A16.063 16.407-180 0 0 29.1 77.97a16.472 16.826-180 0 0-15.75 10.97A15.213 15.539-180 0 0 0 103.87a15.433 15.764-180 0 0 15.97 15.15h27.24a2.457 2.51-180 0 0 .7 0 12.882 13.158-180 0 0 12.78-12.87" style="fill:url(#a);stroke:none;stroke-width:34;stroke-linecap:butt"/></g><g transform="translate(20.882 -10.005)"><title>Sheet.19392</title><path d="M0 96.527h15.937v22.52H0z" style="fill:#f2f2f2;stroke:none;stroke-width:34;stroke-linecap:butt"/></g><g transform="translate(27.748)"><title>Sheet.19393</title><path d="M11.97 85.07.98 78.64a.787.804-180 0 0-.976.483L0 118.24a.787.804-180 0 0 .756.804l.254.006L12 112.42a.787.804-180 0 0 .535-.74l.005-25.74a.819.836-180 0 0-.567-.869z" style="fill:#50e6ff;stroke:none;stroke-width:34;stroke-linecap:butt"/></g></g></g></svg>