<svg xmlns="http://www.w3.org/2000/svg" xml:space="preserve" width="74.627" height="74.115" style="font-size:12px;overflow:visible;color-interpolation-filters:sRGB;fill-rule:evenodd;stroke-linecap:square;stroke-miterlimit:3" viewBox="0 0 55.97 55.587"><g transform="translate(-12.241 -12.24)"><title>Page-1</title><g transform="translate(12 -34.016)"><title>Bastion.19370</title><title>Sheet.19371</title><title>Sheet.19372</title><path d="M25.13 87.71c-7.32 5-19.04 12.67-20.17 13.56-1.47 1-3.61.56-4.28-.33-.68-1-.68-3.11.79-4.11.9-.56 16.34-10.9 21.07-14.12l2.71 2.89c1.24 1.22-.12 2.11-.12 2.11m-.33-7S11.27 66.37 9.69 64.81c-1.46-1.67-.11-3.56.68-4.22.79-.67 3.16-1.67 4.39-.45C16 61.37 31.11 77.37 32.23 78.6c1.13 1.22 1.02 3.11-.9 4.44-.33.22-1.24.89-2.59 1.78-.11.11-.68.56-1.24.89 0 0 1.24-.89.34-1.89zm9.69-9.45c6.09 6.45 15.55 16.56 16.57 17.56 1.24 1.34 3.38 1.34 4.28.56s1.35-2.78.11-4.11c-.67-.78-13.41-14.23-17.24-18.35l-3.27 2.23c-1.58.89-.45 2.11-.45 2.11m1.35-6.56s16.34-11.23 18.15-12.56c1.8-1.33.9-3.45.22-4.23-.67-.77-2.7-2.33-4.17-1.33-1.46 1-19.61 13.45-20.96 14.45s-1.69 2.78 0 4.56c.22.33 1.01 1.11 2.14 2.33.11.12.56.67 1.01 1.12 0 0-1.01-1.12.12-1.89z" style="fill:#0072c6;stroke:none;stroke-width:12.23999977;stroke-linecap:butt"/></g></g></svg>