<svg xmlns="http://www.w3.org/2000/svg" xml:space="preserve" width="65.99" height="75.599" style="font-size:12px;overflow:visible;color-interpolation-filters:sRGB;fill-rule:evenodd;stroke-linecap:square;stroke-miterlimit:3" viewBox="0 0 49.493 56.699"><defs><linearGradient id="a" x1="0" x2="40.324" y1="82.102" y2="82.102" gradientTransform="scale(1.02346 .97708)" gradientUnits="userSpaceOnUse"><stop offset="0" stop-color="#0078d4"/><stop offset=".82" stop-color="#5ea0ef"/></linearGradient></defs><g transform="translate(-28.893 -28.905)"><title>Page-1</title><g transform="translate(28.893 -34.016)"><title>CDN Geo-Filtering.19344</title><title>layer1</title><g transform="translate(.04 -16.016)"><title>circle8-3</title><ellipse cx="20.9" cy="99.277" rx="20.9" ry="20.339" style="fill:#42e8ca;stroke:none;stroke-width:28.85219955;stroke-linecap:butt"/></g><g transform="translate(.016 -17.3)"><title>circle8-4</title><path d="M20.94 80.22a20.941 20.379 0 0 0-4.74.54l2.26 2.19a4.86 4.73 0 0 1 0 6.69 4.86 4.73 0 0 1-6.87 0L7.13 85.3a20.941 20.379 0 0 0-4.5 5.43l.39.38a2.898 2.82 0 0 1 0 3.99 2.898 2.82 0 0 1-2.45.8 20.941 20.379 0 0 0-.57 4.7 20.941 20.379 0 0 0 13.56 19.02 9.046 8.803 0 0 1 1.04-1.23 9.046 8.803 0 0 1 12.79-.02l1.18 1.14a20.941 20.379 0 0 0 2.88-1.34L27 113.84a2.093 2.037 0 0 1 0-2.88 2.093 2.037 0 0 1 2.94 0l-.01-.02a1.54 1.5-180 0 0 2.18 0 1.537 1.496-180 0 0 0-2.12l4.93 4.8h.01l-6.51-6.34c-3.11-3.02-3.11-7.89 0-10.91v-.01c2.95-2.87 7.61-3.02 10.73-.44a20.941 20.379 0 0 0-20.33-15.7m-6.19 15.61a2.898 2.82 0 0 1 2.13.83 2.898 2.82 0 0 1 0 3.99 2.905 2.827 0 0 1-4.1 0 2.905 2.827 0 0 1 0-3.99 2.898 2.82 0 0 1 1.97-.83" style="fill:url(#a);stroke:none;stroke-width:28.90859985;stroke-linecap:butt"/></g><g transform="translate(0 -15.933)"><title>3b4c7da4-e396-46ab-8eeb-4c87ba1</title><title>circle27-9</title><ellipse cx="20.941" cy="99.238" rx="20.941" ry="20.378" style="fill:#000;stroke:none;stroke-width:.75;stroke-linecap:butt"/></g><g transform="translate(17.938 -3.186)"><title>path4</title><path d="M7.77 113.57c0-.52-2.12-.52-2.12 0A5.72 5.566 0 0 1 0 119.62h13.41a5.716 5.563 0 0 1-5.64-6.05" style="fill:#ef7100;stroke:none;stroke-width:28.90859985;stroke-linecap:butt"/></g><g transform="translate(1.332)"><title>path6</title><path d="M38.31 64.49a1.972 1.92 0 0 1 2.79 0l.09.09A28.737 27.965 0 0 1 .65 104.01a1.969 1.916 0 0 1-.17-2.69l.09-.09a1.972 1.92 0 0 1 2.7-.1 24.792 24.126-180 0 0 34.96-34.01 1.98 1.926 0 0 1 .08-2.63m-4.8 55.13H13.13a1.644 1.6 0 0 1-1.64-1.6 1.644 1.6 0 0 1 1.64-1.6h20.38a1.644 1.6 0 0 1 1.64 1.6 1.644 1.6 0 0 1-1.64 1.6" style="fill:#f78d1e;stroke:none;stroke-width:28.90859985;stroke-linecap:butt"/></g></g></g></svg>