<svg xmlns="http://www.w3.org/2000/svg" xml:space="preserve" width="74.794" height="60.745" style="font-size:12px;overflow:visible;color-interpolation-filters:sRGB;fill-rule:evenodd;stroke-linecap:square;stroke-miterlimit:3" viewBox="0 0 56.096 45.559"><defs><linearGradient id="a" x1="0" x2="16.97" y1="35.627" y2="35.627" gradientTransform="scale(.46316 2.15907)" gradientUnits="userSpaceOnUse"><stop offset="0" stop-color="#76bc2d"/><stop offset=".31" stop-color="#72b62c"/><stop offset="1" stop-color="#5e9624"/></linearGradient><linearGradient id="b" x1="0" x2="9.544" y1="83.974" y2="83.974" gradientTransform="scale(.82351 1.21431)" gradientUnits="userSpaceOnUse"><stop offset="0" stop-color="#76bc2d"/><stop offset=".31" stop-color="#72b62c"/><stop offset="1" stop-color="#5e9624"/></linearGradient><linearGradient id="c" x1="0" x2="16.97" y1="35.627" y2="35.627" gradientTransform="scale(.46316 2.15907)" gradientUnits="userSpaceOnUse"><stop offset="0" stop-color="#76bc2d"/><stop offset=".31" stop-color="#72b62c"/><stop offset="1" stop-color="#5e9624"/></linearGradient></defs><g transform="translate(-34 -34.001)"><title>Page-1</title><g transform="translate(33.509 -34.103)"><title>CDN Origin.19326</title><title>MsPortalFx.base.images-30</title><g transform="rotate(-90 27.2 84.559)"><title>Sheet.19328</title><path d="M0 111.72a1.877 1.845-180 0 0 1.88 1.84h4.1a1.877 1.845-180 0 0 1.88-1.84V59.69a1.877 1.845-180 0 0-1.88-1.84h-4.1A1.877 1.845-180 0 0 0 59.69Z" style="fill:#5e9624;stroke:none;stroke-width:34;stroke-linecap:butt"/></g><g transform="rotate(-90 18.817 76.176)"><title>Sheet.19329</title><path d="M0 111.72a1.877 1.845-180 0 0 1.88 1.84h4.1a1.877 1.845-180 0 0 1.88-1.84V59.69a1.877 1.845-180 0 0-1.88-1.84h-4.1A1.877 1.845-180 0 0 0 59.69Z" style="fill:#5e9624;stroke:none;stroke-width:34;stroke-linecap:butt"/></g><g transform="rotate(-90 10.301 67.66)"><title>Sheet.19330</title><path d="M0 111.72a1.877 1.845-180 0 0 1.88 1.84h4.1a1.877 1.845-180 0 0 1.88-1.84V59.69a1.877 1.845-180 0 0-1.88-1.84h-4.1A1.877 1.845-180 0 0 0 59.69Z" style="fill:#5e9624;stroke:none;stroke-width:34;stroke-linecap:butt"/></g><g transform="rotate(-90 27.284 84.475)"><title>Sheet.19331</title><path d="M0 111.72a1.877 1.845-180 0 0 1.88 1.84h4.1a1.877 1.845-180 0 0 1.88-1.84V78.77a1.877 1.845-180 0 0-1.88-1.85h-4.1A1.877 1.845-180 0 0 0 78.77Z" style="fill:url(#a);stroke:none;stroke-width:34;stroke-linecap:butt"/></g><g transform="rotate(-90 19.012 75.984)"><title>Sheet.19332</title><path d="M0 111.72a1.877 1.845-180 0 0 1.88 1.84h4.1a1.877 1.845-180 0 0 1.88-1.84v-7.9a1.877 1.845-180 0 0-1.88-1.85h-4.1A1.877 1.845-180 0 0 0 103.82Z" style="fill:url(#b);stroke:none;stroke-width:34;stroke-linecap:butt"/></g><g transform="rotate(-90 10.386 67.576)"><title>Sheet.19333</title><path d="M0 111.72a1.877 1.845-180 0 0 1.88 1.84h4.1a1.877 1.845-180 0 0 1.88-1.84V78.77a1.877 1.845-180 0 0-1.88-1.85h-4.1A1.877 1.845-180 0 0 0 78.77Z" style="fill:url(#c);stroke:none;stroke-width:34;stroke-linecap:butt"/></g><g transform="rotate(-90 11.393 102.27)"><title>Sheet.19334</title><path d="M0 111.74a1.855 1.823-180 0 0 1.86 1.82h8.15a1.855 1.823-180 0 0 1.85-1.82 1.855 1.823-180 0 0-1.85-1.83H1.86A1.855 1.823-180 0 0 0 111.74" style="fill:#e6e6e6;stroke:none;stroke-width:34;stroke-linecap:butt"/></g><g transform="rotate(-90 15.47 81.368)"><title>Sheet.19335</title><path d="M0 111.74a1.855 1.823-180 0 0 1.86 1.82h8.15a1.855 1.823-180 0 0 1.85-1.82 1.855 1.823-180 0 0-1.85-1.83H1.86A1.855 1.823-180 0 0 0 111.74" style="fill:#e6e6e6;stroke:none;stroke-width:34;stroke-linecap:butt"/></g><g transform="rotate(-90 -5.456 85.42)"><title>Sheet.19336</title><path d="M0 111.74a1.855 1.823-180 0 0 1.86 1.82h8.15a1.855 1.823-180 0 0 1.85-1.82 1.855 1.823-180 0 0-1.85-1.83H1.86A1.855 1.823-180 0 0 0 111.74" style="fill:#e6e6e6;stroke:none;stroke-width:34;stroke-linecap:butt"/></g></g></g></svg>