<svg xmlns="http://www.w3.org/2000/svg" xml:space="preserve" width="75.942" height="45.352" style="font-size:12px;overflow:visible;color-interpolation-filters:sRGB;fill-rule:evenodd;stroke-linecap:square;stroke-miterlimit:3" viewBox="0 0 56.956 34.014"><defs><linearGradient id="a" x1="0" x2="39.275" y1="78.538" y2="78.538" gradientTransform="scale(1.15467 .86605)" gradientUnits="userSpaceOnUse"><stop offset=".18" stop-color="#5ea0ef"/><stop offset="1" stop-color="#0078d4"/></linearGradient></defs><g transform="translate(-34.001 -34.002)"><title>Page-1</title><g transform="translate(34.27 -34.016)"><title>CDN Profile.19320</title><title>g10</title><g transform="rotate(-90 1.945 81.915)"><title>rect2</title><path d="M0 100.34a1.638 1.691-180 0 0 1.64 1.69h.44a1.638 1.691-180 0 0 1.64-1.69V86.62a1.638 1.691-180 0 0-1.64-1.69h-.44A1.638 1.691-180 0 0 0 86.62Z" style="fill:#b3b3b3;stroke:none;stroke-width:34;stroke-linecap:butt"/></g><g transform="rotate(-90 3.217 88.415)"><title>rect4</title><path d="M0 100.34a1.638 1.691-180 0 0 1.64 1.69h.44a1.638 1.691-180 0 0 1.64-1.69V86.62a1.638 1.691-180 0 0-1.64-1.69h-.44A1.638 1.691-180 0 0 0 86.62Z" style="fill:#a3a3a3;stroke:none;stroke-width:34;stroke-linecap:butt"/></g><g transform="rotate(-90 9.718 89.687)"><title>rect6</title><path d="M0 100.34a1.638 1.691-180 0 0 1.64 1.69h.44a1.638 1.691-180 0 0 1.64-1.69V86.62a1.638 1.691-180 0 0-1.64-1.69h-.44A1.638 1.691-180 0 0 0 86.62Z" style="fill:#7a7a7a;stroke:none;stroke-width:34;stroke-linecap:butt"/></g><g transform="translate(11.339)"><title>path8</title><path d="M45.35 91.37a10.33 10.667-180 0 0-8.85-10.34 13.008 13.43-180 0 0-13.26-13.01 13.323 13.756-180 0 0-12.59 9.1A12.252 12.65-180 0 0 0 89.48a12.598 13.008-180 0 0 12.79 12.55h22.39a10.457 10.797-180 0 0 10.17-10.66" style="fill:url(#a);stroke:none;stroke-width:34;stroke-linecap:butt"/></g></g></g></svg>