<svg xmlns="http://www.w3.org/2000/svg" xml:space="preserve" width="75.591" height="56.698" style="font-size:12px;overflow:visible;color-interpolation-filters:sRGB;fill-rule:evenodd;stroke-linecap:square;stroke-miterlimit:3" viewBox="0 0 56.693 42.524"><defs><linearGradient id="a" x1="0" x2="45.378" y1="73.805" y2="73.805" gradientTransform="scale(1.07739 .92817)" gradientUnits="userSpaceOnUse"><stop offset="0" stop-color="#a67af4"/><stop offset="1" stop-color="#773adc"/></linearGradient><linearGradient id="b" x1="0" x2="26.104" y1="82.572" y2="82.572" gradientTransform="scale(.98312 1.01717)" gradientUnits="userSpaceOnUse"><stop offset="0" stop-color="#c3f1ff"/><stop offset="1" stop-color="#50e6ff"/></linearGradient></defs><g transform="translate(-34 -34.003)"><title>Page-1</title><g transform="translate(34 -34.016)"><title>Communication Service.19314</title><title>Sheet.19315</title><g transform="translate(0 -.485)"><title>Sheet.19316</title><path d="M2.83 68.51h43.23a2.658 2.75 0 0 1 2.83 2.52v30.59a2.665 2.757 0 0 1-2.83 2.52H28.37a.53.547-180 0 0-.287.088l-9.073 6.192a.945.978 0 0 1-1.515-.668l-.005-5.192a.444.46-180 0 0-.472-.42H2.83A2.661 2.754 0 0 1 0 101.62V71.03a2.665 2.757 0 0 1 2.83-2.52" style="fill:url(#a);stroke:none;stroke-width:34;stroke-linecap:butt"/></g><g transform="translate(10.92 -23.156)"><title>Sheet.19317</title><path d="M23.82 104.82a3.228 3.34 0 1 1-3.22 3.34 3.228 3.34 0 0 1 3.22-3.34M10.3 108.2a3.228 3.34-180 1 0 3.23-3.35 3.228 3.34-180 0 0-3.23 3.35m-10.3 0a3.228 3.34-180 1 0 3.23-3.35A3.228 3.34-180 0 0 0 108.2" style="fill:#fff;fill-opacity:.8;stroke:none;stroke-width:34;stroke-linecap:butt"/></g><g transform="translate(31.03)"><title>Sheet.19318</title><ellipse cx="12.832" cy="97.266" rx="12.832" ry="13.276" style="fill:url(#b);stroke:none;stroke-width:34;stroke-linecap:butt"/></g><g transform="translate(37.468 -4.209)"><title>Sheet.19319</title><path d="m13.44 108.6-1.69-2.65a.945.978-180 0 0-1.26-.326l-1.21.676a.611.632 0 0 1-.724-.11 18.898 19.552 0 0 1-2.176-2.7l-.97-1.7a18.724 19.373 0 0 1-1.15-3.31.63.652 0 0 1 .274-.704l1.176-.736a.945.978-180 0 0 .36-1.27l-1.33-2.85a.898.929-180 0 0-1.172-.433A5.424 5.612-180 0 0 1.11 95.65c-1.11 2.65.88 5.78 2.35 8.44h.02c1.47 2.66 3.07 6.01 5.84 6.37a5.414 5.602-180 0 0 3.88-.59.891.922-180 0 0 .24-1.264z" style="fill:#0078d4;stroke:none;stroke-width:34;stroke-linecap:butt"/></g></g></g></svg>