<svg xmlns="http://www.w3.org/2000/svg" xml:space="preserve" width="75.584" height="75.592" style="font-size:12px;overflow:visible;color-interpolation-filters:sRGB;fill-rule:evenodd;stroke-linecap:square;stroke-miterlimit:3" viewBox="0 0 56.688 56.694"><defs><linearGradient id="a" x1="0" x2="33.323" y1="128.948" y2="128.948" gradientTransform="scale(1.30119 .76853)" gradientUnits="userSpaceOnUse"><stop offset=".195" stop-color="#5ea0ef"/><stop offset="1" stop-color="#0078d4"/></linearGradient></defs><g transform="translate(-34 -34)"><title>Page-1</title><g transform="translate(34 -34.016)"><title>Custom IP Prefix.19299</title><title>Sheet.19300</title><g transform="translate(0 -21.244)"><title>Sheet.19301</title><path d="M44.13 90.74v27.02h-.24l-1.87.02h-.12a.908.907-180 0 0-.13 0 14.816 14.803-180 0 0-10.61 6.13c-.08.12-.16.23-.24.35a.659.658-180 0 0-.085.123 1 1-180 0 0-.073.129l-.032.068-.04.13h-2.14a1.806 1.805-180 0 0-.24-1.14 3.332 3.33-180 0 0-.58-.74l-5.16-5.62a2.128 2.126-180 0 0-.69-.57 2.1 2.098-180 0 0-.94-.23 2.065 2.063-180 0 0-1.62.78l-5.55 5.73a2.109 2.107-180 0 0-.73 1.79H1.48A1.485 1.483 0 0 1 0 123.23V90.71a1.48 1.48 0 0 1 1.48-1.45h41.17a1.485 1.483 0 0 1 1.48 1.48" style="fill:#005ba1;stroke:none;stroke-width:34;stroke-linecap:butt"/></g><g transform="translate(4.902 -16.822)"><title>Sheet.19302</title><path d="M43.36 99.1v15.08a14.816 14.803-180 0 0-19.48 10.53H1.45A1.453 1.452 0 0 1 0 123.26V99.1Z" style="fill:url(#a);stroke:none;stroke-width:34;stroke-linecap:butt"/></g><g transform="translate(4.905 -42.428)"><title>Sheet.19303</title><path d="M1.45 115.48H41.9a1.453 1.452 0 0 1 1.46 1.46v7.77H0v-7.8a1.45 1.45 0 0 1 1.45-1.43" style="fill:#0078d4;stroke:none;stroke-width:34;stroke-linecap:butt"/></g><g transform="translate(12.351 -30.192)"><title>Sheet.19304</title><path d="M25.1 118.97a3.367 3.364 0 1 1-3.37 3.36 3.367 3.364 0 0 1 3.37-3.36m-14.09 3.36a3.367 3.364-180 1 0 3.37-3.36 3.364 3.36-180 0 0-3.37 3.36m-11.01 0a3.367 3.364-180 1 0 3.36-3.36A3.364 3.36-180 0 0 0 122.33" style="fill:#fff;stroke:none;stroke-width:34;stroke-linecap:butt"/></g><g transform="translate(14.088)"><title>Sheet.19305</title><path d="M36.2 117.78h4.75a13.373 13.36-180 0 0 1.65-6.01h-5.21a16.604 16.589 0 0 1-1.19 6.01m1.19-6.96h5.21a13.328 13.317-180 0 0-1.64-6.02h-4.84a15.504 15.49 0 0 1 1.27 6.01zm-7.07 13.89a13.508 13.496-180 0 0 10.06-5.99h-4.65a16.112 16.098 0 0 1-5.41 5.99m5.32-20.87h4.73a13.492 13.48-180 0 0-10.35-5.99h-.21l.21.11a16.843 16.828 0 0 1 5.62 5.88m-6.33 0h5.29a15.122 15.109-180 0 0-.71-1.04 16.266 16.252-180 0 0-3.87-3.71c-.23-.16-.46-.32-.7-.46zm0 6.97h7.13a14.34 14.328-180 0 0-1.37-6.02h-5.76zm0 6.96h5.82a15.39 15.376-180 0 0 1.31-6.01h-7.13zm5.36.94h-5.36v5.52a15.712 15.698-180 0 0 5.36-5.51zm-6.3 0H23.4a15.52 15.506-180 0 0 4.97 5.27zm0-20.09a14.98 14.967-180 0 0-4.82 4.82l-.23.39h5.04zm0 13.12h-6.75a15.28 15.266-180 0 0 1.31 6.02h5.44zm0-6.96h-5.5a15.677 15.663-180 0 0-.83 2.52 15.418 15.405-180 0 0-.42 3.51h6.74zm-.66 19.93a16.2 16.186 0 0 1-5.38-5.99h-4.45c.05.07.09.14.14.2a12.673 12.661-180 0 0 1.12 1.43 13.518 13.506-180 0 0 8.57 4.36m.1-26.86a13.527 13.515-180 0 0-9.68 5.6c-.1.13-.18.26-.27.38h4.42l.21-.38a15.709 15.695 0 0 1 5.32-5.6M15.62 110.8h5.05a16.188 16.173 0 0 1 .39-3.51 16.91 16.895 0 0 1 .77-2.5h-4.54a13.275 13.263-180 0 0-1.06 2.52 13.631 13.619-180 0 0-.6 3.5zm1.67 6.98h4.57c-.06-.14-.11-.28-.16-.42a16.314 16.3 0 0 1-.99-4.54 14.545 14.532 0 0 1-.05-1.05h-5.04c0 .22.02.44.04.66a12.443 12.432-180 0 0 .21 1.44 13.303 13.291-180 0 0 1.42 3.91m-1.07.79a13.212 13.2 0 0 1-11.83-14.12.6.6-180 0 0-.044-.274.653.652-180 0 0-.363-.39.731.73-180 0 0-.27-.057l-2.523.001c-.97 0-1.19-.53-.57-1.16l5.6-5.76a.7.7 0 0 1 .265-.236.735.734 0 0 1 .668 0 .7.7 0 0 1 .262.236l5.185 5.63a2.44 2.438 0 0 1 .38.48c.17.3.1.48-.19.59a2.326 2.324 0 0 1-.76.1H9.71a.722.721-180 0 0-.725.724 8.647 8.64-180 0 0 5.465 9.006 14.558 14.545-180 0 0 1.77 5.22z" style="fill:#50e6ff;stroke:none;stroke-width:34;stroke-linecap:butt"/></g></g></g></svg>