<svg xmlns="http://www.w3.org/2000/svg" xml:space="preserve" width="60.466" height="75.59" style="font-size:12px;overflow:visible;color-interpolation-filters:sRGB;fill-rule:evenodd;stroke-linecap:square;stroke-miterlimit:3" viewBox="0 0 45.349 56.693"><defs><linearGradient id="a" x1="0" x2="46.502" y1="65.063" y2="65.063" gradientTransform="scale(.89458 1.11784)" gradientUnits="userSpaceOnUse"><stop offset=".18" stop-color="#5ea0ef"/><stop offset="1" stop-color="#0078d4"/></linearGradient></defs><g transform="translate(-34 -34.004)"><title>Page-1</title><g transform="translate(34 -34.016)"><title>DDoS Protection Plan.19290</title><title>Icon-networking-72</title><title>Sheet.19292</title><path d="M45.35 94.48c0 15.24-18.02 27.53-21.93 30.02a1.417 1.449 0 0 1-1.48 0C18.02 122.01 0 109.72 0 94.48V76.14a1.417 1.449 0 0 1 1.39-1.45c14.02-.37 10.78-6.67 21.29-6.67 10.5 0 7.27 6.3 21.29 6.67a1.417 1.449 0 0 1 1.38 1.45z" style="fill:#0078d4;stroke:none;stroke-width:34;stroke-linecap:butt"/><g transform="translate(1.88 -2.353)"><title>Sheet.19293</title><path d="M41.6 96.99c0 13.98-16.52 25.2-20.12 27.53a1.325 1.355 0 0 1-1.36 0C16.51 122.25 0 110.97 0 96.99V80.17a1.294 1.323 0 0 1 1.26-1.33c12.85-.34 9.89-6.11 19.54-6.11 9.64 0 6.68 5.77 19.53 6.11a1.294 1.323 0 0 1 1.27 1.33z" style="fill:url(#a);stroke:none;stroke-width:34;stroke-linecap:butt"/></g><g transform="translate(14.05 -15.742)"><title>Sheet.19294</title><path d="M17.25 123.2a1.479 1.512 0 0 1-1.47 1.51H1.48A1.479 1.512 0 0 1 0 123.2V96.17a1.479 1.512 0 0 1 1.48-1.54h14.3a1.479 1.512 0 0 1 1.47 1.54z" style="fill:#e6e6e6;stroke:none;stroke-width:34;stroke-linecap:butt"/></g><g transform="translate(16.515 -39.021)"><title>Sheet.19295</title><path d="M0 122.79a1.849 1.89 0 0 1 1.85-1.89h8.63a1.849 1.89 0 0 1 1.84 1.89 1.849 1.89 0 0 1-1.84 1.92H1.85A1.849 1.89 0 0 1 0 122.79" style="fill:#003067;stroke:none;stroke-width:34;stroke-linecap:butt"/></g><g transform="translate(17.193 -39.683)"><title>Sheet.19296</title><ellipse cx="1.263" cy="123.417" rx="1.263" ry="1.292" style="fill:#50e6ff;stroke:none;stroke-width:34;stroke-linecap:butt"/></g><g transform="translate(16.515 -33.036)"><title>Sheet.19297</title><path d="M0 122.79a1.88 1.922 0 0 1 1.85-1.92h8.63a1.88 1.922 0 0 1 1.84 1.92 1.849 1.89 0 0 1-1.84 1.92H1.85A1.849 1.89 0 0 1 0 122.79" style="fill:#003067;stroke:none;stroke-width:34;stroke-linecap:butt"/></g><g transform="translate(17.193 -33.666)"><title>Sheet.19298</title><ellipse cx="1.263" cy="123.417" rx="1.263" ry="1.292" style="fill:#50e6ff;stroke:none;stroke-width:34;stroke-linecap:butt"/></g></g></g></svg>