<svg xmlns="http://www.w3.org/2000/svg" xml:space="preserve" width="85.874" height="86.133" style="font-size:12px;overflow:visible;color-interpolation-filters:sRGB;fill-rule:evenodd;stroke-linecap:square;stroke-miterlimit:3" viewBox="0 0 64.405 64.6"><defs><linearGradient id="a" x1="-6.753" x2="57.753" y1="74.412" y2="74.412" gradientTransform="scale(.9985 1.0015)" gradientUnits="userSpaceOnUse"><stop offset=".26" stop-color="#50e6ff"/><stop offset=".42" stop-color="#79eaff"/><stop offset=".58" stop-color="#99edff"/><stop offset=".735" stop-color="#b0efff"/><stop offset=".875" stop-color="#bef1ff"/><stop offset="1" stop-color="#c3f1ff"/></linearGradient></defs><g transform="translate(-33.996 -33.762)"><title>Page-1</title><g transform="translate(38.476 -38.714)"><title>DNS Zone (Private).19270</title><title>Icon-networking-64</title><g transform="translate(2.26 -2.048)"><title>Sheet.19272</title><path d="M45.07 132.36A32.124 32.25 0 1 1 5.7 81.39l.34-.23a32.111 32.236 0 0 1 39.03 51.2" style="fill:url(#a);stroke:none;stroke-width:34;stroke-linecap:butt"/></g><title>Sheet.19273</title><path d="M27.64 75.67a29.049 29.162-180 1 0 29.05 29.16 29.087 29.2-180 0 0-29.05-29.16m19.46 9.82a27.84 27.948 0 0 1-8.12 3.03 33.355 33.485-180 0 0-4.73-10.24 27.198 27.304 0 0 1 12.85 7.21M27.64 77.3a24.894 24.99 0 0 1 4.12.34 28.256 28.365 0 0 1 5.78 11.37 57.116 57.338 0 0 1-20.59 0 27.878 27.986 0 0 1 5.71-11.14 27.727 27.835 0 0 1 4.98-.57m-7.55.98a32.94 33.068-180 0 0-4.8 10.17 21.078 21.16 0 0 1-7.18-2.92 27.765 27.872 0 0 1 11.98-7.25M7.7 123.79a19.907 19.985 0 0 1 6.72-2.88 26.745 26.849-180 0 0 5.1 10.31 27.387 27.493 0 0 1-11.82-7.43m24.21 8.34a26.745 26.849 0 0 1-4.27.23 25.8 25.9 0 0 1-5.44-.57 22.665 22.753 0 0 1-6.3-11.38 55.642 55.859 0 0 1 22.21 0 22.665 22.753 0 0 1-6.39 11.38zm2.76-.61a26.934 27.038-180 0 0 5.21-10.61 25.234 25.332 0 0 1 7.56 3.14 26.934 27.038 0 0 1-12.77 7.32zm5.59-12.21c.3-1.36.57-2.76.76-4.24l-1.74.41c-.19 1.18-.38 2.35-.64 3.45a57.531 57.755-180 0 0-23.01 0c-.26-1.02-.45-2.12-.64-3.26a1.058 1.062 0 0 1 0-.34l-1.74-.49a8.915 8.95-180 0 0 0 1.06c0 1.21.42 2.35.64 3.45a22.287 22.374-180 0 0-7.55 3.22 27.349 27.455 0 0 1 .41-35.64 23.76 23.853-180 0 0 7.86 3.26c-.26.91-.49 1.9-.68 2.88-.19.99 0 .95-.3 1.4l1.77-.41v-.65c.23-.98.46-1.93.72-2.84a56.247 56.465-180 0 0 11.52.91 56.662 56.883-180 0 0 10.51-.99c.26 1.03.52 2.13.75 3.23l1.74.41c-.28-1.36-.58-2.63-.91-3.79a29.2 29.314-180 0 0 8.69-3.45 27.274 27.38 0 0 1 .23 35.99 27.5 27.607-180 0 0-8.39-3.68z" style="fill:#5ea0ef;stroke:none;stroke-width:34;stroke-linecap:butt"/><g transform="translate(7.548 -19.302)"><title>Sheet.19274</title><path d="M.04 116.55a29.918 30.034 0 0 1 4.38-.31 9.217 9.253 0 0 1 6.46 1.97 7.555 7.584 0 0 1 2.23 5.54 8.348 8.38 0 0 1-2.31 6.22 9.821 9.86 0 0 1-7.02 2.31 34.64 34.774 0 0 1-3.78-.19Zm2.08 14.14a15.11 15.169-180 0 0 2.07 0 6.12 6.143-180 0 0 6.76-6.86 5.666 5.688-180 0 0-6.45-6.15 11.975 12.021-180 0 0-2.38 0zm13.67 1.44v-15.96h2.23l5.1 7.96a46.01 46.189 0 0 1 2.87 5.2c-.19-2.13-.23-4.06-.23-6.57v-6.59h1.89v15.96h-2.08l-4.98-8c-1.1-1.78-2.16-3.79-2.99-5.31v13.42zm15.22-2.5a7.555 7.584-180 0 0 3.78 1.02c2.12 0 3.32-1.1 3.32-2.73s-.83-2.35-2.98-3.15c-2.15-.79-4.23-2.27-4.23-4.55a4.609 4.626 0 0 1 5.17-4.32 7.555 7.584 0 0 1 3.52.76l-.61 1.71a6.157 6.181-180 0 0-3.02-.76c-2.19 0-3.02 1.29-3.02 2.39s.98 2.23 3.17 3.07c2.19.83 4.08 2.35 4.08 4.7s-1.81 4.59-5.59 4.59a8.16 8.191 0 0 1-4.04-1.03z" style="fill:#fff;stroke:none;stroke-width:34;stroke-linecap:butt"/></g></g></g></svg>