<svg xmlns="http://www.w3.org/2000/svg" xml:space="preserve" width="75.591" height="75.591" style="font-size:12px;overflow:visible;color-interpolation-filters:sRGB;fill-rule:evenodd;stroke-linecap:square;stroke-miterlimit:3" viewBox="0 0 56.693 56.693"><defs><radialGradient id="a" cx="0" cy="64.727" r="79.37" fx="0" fy="64.727" gradientUnits="userSpaceOnUse"><stop offset=".18" stop-color="#5ea0ef"/><stop offset="1" stop-color="#0078d4"/></radialGradient></defs><g transform="translate(-30.711 -30.711)"><title>Page-1</title><g transform="translate(30.711 -34.016)"><title>DNS Zone (Public).19265</title><title>layer1</title><title>path822</title><circle cx="28.346" cy="93.073" r="28.346" style="fill:url(#a);stroke:none;stroke-width:.69636202;stroke-linecap:butt"/><g transform="translate(4.111 -3.93)"><title>path11-4</title><path d="M24.42 71.53a25.664 25.664-180 1 0 25.67 25.66 25.697 25.697-180 0 0-25.67-25.66m17.19 8.64a24.6 24.6 0 0 1-7.18 2.67 29.5 29.5-180 0 0-4.17-9.01 24.03 24.03 0 0 1 11.35 6.34m-17.19-7.21a22 22 0 0 1 3.64.3 25 25 0 0 1 5.11 10.01 50.5 50.5 0 0 1-18.19 0 24.6 24.6 0 0 1 5.04-9.81 24.5 24.5 0 0 1 4.4-.5m-6.67.87a29.1 29.1-180 0 0-4.24 8.94 18.6 18.6 0 0 1-6.34-2.57 24.5 24.5 0 0 1 10.58-6.37M6.8 113.88a17.6 17.6 0 0 1 5.94-2.54 23.6 23.6-180 0 0 4.51 9.08 24.2 24.2 0 0 1-10.45-6.54m21.39 7.34a23.6 23.6 0 0 1-3.77.2 22.8 22.8 0 0 1-4.8-.5 20 20 0 0 1-5.58-10.01 49.2 49.2 0 0 1 19.63 0 20 20 0 0 1-5.64 10.01zm2.44-.53a23.8 23.8-180 0 0 4.61-9.35 22.3 22.3 0 0 1 6.67 2.77 23.8 23.8 0 0 1-11.28 6.44zm4.94-10.75c.27-1.2.5-2.44.67-3.74l-1.54.37c-.16 1.03-.33 2.07-.57 3.04a50.8 50.8-180 0 0-20.32 0c-.23-.9-.4-1.87-.57-2.87a1 1 0 0 1 0-.3l-1.53-.44a8 8-180 0 0 0 .94c0 1.06.36 2.07.56 3.03a19.7 19.7-180 0 0-6.67 2.84 24.16 24.16 0 0 1 .37-31.37 21 21-180 0 0 6.94 2.87c-.23.8-.43 1.67-.6 2.54-.17.86 0 .83-.27 1.23l1.57-.37v-.56c.2-.87.4-1.71.63-2.51a49.7 49.7-180 0 0 10.18.8 50 50-180 0 0 9.28-.86c.23.9.47 1.87.67 2.83l1.53.37c-.24-1.2-.51-2.31-.8-3.34a25.8 25.8-180 0 0 7.68-3.03 24.095 24.095 0 0 1 .2 31.67 24.3 24.3-180 0 0-7.41-3.24z" style="fill:#5ea0ef;stroke:none;stroke-width:33.58209991;stroke-linecap:butt"/></g><g transform="translate(9.35 -21.051)"><title>path13-4</title><path d="M.03 107.5a26.4 26.4 0 0 1 3.87-.26 8.14 8.14 0 0 1 5.71 1.73 6.68 6.68 0 0 1 1.97 4.87 7.38 7.38 0 0 1-2.04 5.48 8.68 8.68 0 0 1-6.2 2.03 31 31 0 0 1-3.34-.16Zm1.84 12.45a13 13-180 0 0 1.83 0 5.406 5.406-180 0 0 5.98-6.04 5.006 5.006-180 0 0-5.71-5.4 10.6 10.6-180 0 0-2.1 0zm12.08 1.27v-14.05h1.97l4.5 7.01a41 41 0 0 1 2.54 4.57c-.17-1.87-.2-3.57-.2-5.77v-5.81h1.67v14.05h-1.84l-4.4-7.04c-.97-1.57-1.9-3.34-2.64-4.67v11.81zm13.45-2.2a6.7 6.7-180 0 0 3.34.9c1.87 0 2.93-.97 2.93-2.4 0-1.44-.73-2.07-2.63-2.77-1.91-.71-3.74-2.01-3.74-4.01a4.07 4.07 0 0 1 4.57-3.8 6.7 6.7 0 0 1 3.1.66l-.53 1.5a5.44 5.44-180 0 0-2.67-.66c-1.93 0-2.67 1.13-2.67 2.1s.87 1.97 2.8 2.7c1.94.74 3.61 2.07 3.61 4.14s-1.6 4.04-4.94 4.04a7.2 7.2 0 0 1-3.57-.9Z" style="fill:#fff;stroke:none;stroke-width:33.58209991;stroke-linecap:butt"/></g></g></g></svg>