<svg xmlns="http://www.w3.org/2000/svg" xml:space="preserve" width="75.586" height="68.055" style="font-size:12px;overflow:visible;color-interpolation-filters:sRGB;fill-rule:evenodd;stroke-linecap:square;stroke-miterlimit:3" viewBox="0 0 56.689 51.041"><defs><linearGradient id="a" x1="-.001" x2="47.126" y1="70.568" y2="70.568" gradientTransform="scale(.98862 1.0115)" gradientUnits="userSpaceOnUse"><stop offset="0" stop-color="#0078d4"/><stop offset="1" stop-color="#005ba1"/></linearGradient></defs><g transform="translate(-34.001 -33.997)"><title>Page-1</title><g transform="translate(34 -34.016)"><title>DNS Private Resolver.19275</title><title>Sheet.19276</title><g transform="translate(5.198 -1.811)"><title>Sheet.19277</title><path d="M46.59 95.23a23.287 23.823 0 0 1-23.28 23.82 23.627 24.171 0 0 1-3.02-.2 22.632 23.153 0 0 1-8.89-3.15l-.25-1.91-.28-2.25-.19-1.39a2.315 2.369-180 0 0-.72-1.32 2.01 2.056-180 0 0-2.62.16l-.66.68-1.04 1.06A23.095 23.627 0 0 1 .03 96.07a7.397 7.567 0 0 1-.03-.84 23.312 23.849 0 0 1 23.31-23.85 22.846 23.372 0 0 1 11.8 3.33l.26 1.93.31 2.23.22 1.64a2.117 2.166-180 0 0 .54 1.16 2.038 2.085-180 0 0 1.38.58 1.89 1.934-180 0 0 1.39-.58L41 79.83a22.928 23.456 0 0 1 5.59 15.4" style="fill:url(#a);stroke:none;stroke-width:34;stroke-linecap:butt"/></g><g transform="translate(6.647 -3.255)"><title>Sheet.19278</title><path d="M39.06 82.92a4.606 4.712-180 0 0-.5-.61l-.79.8a1.89 1.934 0 0 1-1.38.58 2.038 2.085 0 0 1-1.39-.58 25.436 26.021 0 0 1-3.62 1.03l-.35.07-.13-.36a25.565 26.153-180 0 0-2.48-6.05l-.54-.94 1.01.39a19.828 20.284 0 0 1 5.35 3.06l-.31-2.22a22.052 22.56-180 0 0-10.74-3.74c-.41 0-.89-.04-1.33-.04s-.94.04-1.32.04a21.154 21.641-180 0 0-2.84.38 22.103 22.611-180 0 0-12.28 7.19c-.25.32-.54.64-.79 1A21.63 22.128-180 0 0 0 96.68a9.536 9.755-180 0 0 .06 1.42 21.514 22.009-180 0 0 4.57 12.34c.19.23.38.45.6.68l.66-.68a2.01 2.056 0 0 1 2.62-.16 32.477 33.224 0 0 1 3.84-1.06l.35-.1.09.36a25.763 26.356-180 0 0 2.49 6.05l.57.97-1.04-.39a19.847 20.304 0 0 1-5.39-3.12l.28 2.25a22.109 22.618-180 0 0 8 3.39c.23.03.48.09.7.13.69.09 1.42.19 2.14.22.38.03.82.07 1.32.07.51 0 .92-.04 1.33-.07a22.45 22.966-180 0 0 2.83-.35 22.02 22.528-180 0 0 12.26-7.19c.25-.32.53-.68.82-1a21.665 22.163-180 0 0 4.59-13.76 21.441 21.935-180 0 0-4.63-13.76m-20.73-6.58.1-.09.11-.04a22.26 22.772 0 0 1 3.28-.26 23.476 24.016 0 0 1 3.34.26l.12.03.07.1a19.09 19.53 0 0 1 3.97 7.73l.12.42-.44.07a47.397 48.487 0 0 1-7.15.54 48.14 49.248 0 0 1-7.18-.54l-.41-.07.12-.42a18.685 19.115 0 0 1 3.95-7.73m-6.52 28.75h.07v.36c.09.58.22 1.16.34 1.74l.07.38-.38.07a36.055 36.885-180 0 0-5.64 1.77l-.28.13-.19-.23a20.298 20.765 0 0 1-4.07-10.28 18.417 18.84 0 0 1-.12-2.35A20.364 20.832 0 0 1 5.8 84.05l.19-.26.28.13a33.67 34.446-180 0 0 5.64 1.77l.38.1-.07.38a46.656 47.73-180 0 0-1.1 10.51 46.968 48.049-180 0 0 .69 8.41m.54-20.95a28.643 29.302 0 0 1-4.73-1.41l-.56-.2.41-.45a20.417 20.887 0 0 1 7.34-4.83l1.04-.39-.57.94a26.371 26.978-180 0 0-2.49 6.05l-.09.36zm1.51 23.14-.09-.38a45.614 46.663 0 0 1-1.04-10.22 45.906 46.963 0 0 1 1.04-10.25l.09-.35.35.06a50.569 51.733-180 0 0 7.65.61 50.89 52.061-180 0 0 7.66-.61l.35-.06.06.35A44.01 45.023 0 0 1 31 96.68a43.73 44.736 0 0 1-1.07 10.22l-.06.38-.35-.06a46.527 47.598-180 0 0-7.66-.61 46.256 47.32-180 0 0-7.65.61zm11.5 9.74-.06.09h-.14a19.532 19.982 0 0 1-3.31.29 19 19.437 0 0 1-3.31-.29l-.12-.04-.1-.09a9.98 10.21 0 0 1-1.45-1.94 20.197 20.662 0 0 1-2.08-4.48 9.88 10.107 0 0 1-.41-1.28l-.12-.46.41-.06a48.2 49.31 0 0 1 7.18-.52 47.478 48.571 0 0 1 7.15.52l.44.06-.12.46a18.902 19.337 0 0 1-3.96 7.73zm10.87-5.77a20.228 20.694 0 0 1-7.34 4.86l-1.01.39.54-.97a24.257 24.816-180 0 0 2.48-6.05l.13-.36.35.1a32.092 32.83 0 0 1 4.72 1.38l.54.23zm1.67-1.94-.16.23-.28-.13a34.266 35.055-180 0 0-5.67-1.77l-.38-.07.09-.38a47.078 48.162-180 0 0 1.11-10.51 46.867 47.946-180 0 0-1.11-10.51l-.09-.38.38-.1a34.266 35.055-180 0 0 5.67-1.77l.25-.13.19.26a20.162 20.626 0 0 1 0 25.26" style="fill:#5ea0ef;stroke:none;stroke-width:34;stroke-linecap:butt"/></g><g transform="translate(25.237 -18.847)"><title>Sheet.19279</title><path d="M5.75 119.05H.77a.8.819 0 0 1-.772-1.07c.132-.47 1.312-4.48 1.772-6.03a3.292 3.368 0 1 1 2.99 0c.45 1.55 1.64 5.56 1.77 6.03a.803.822 0 0 1-.775 1.07z" style="fill:#003067;stroke:none;stroke-width:34;stroke-linecap:butt"/></g><title>Sheet.19280</title><path d="M56.69 93.39a28.17 28.818 0 0 1-8.31 20.49 1.82 1.863 0 0 1-1.26.55 1.767 1.808 0 0 1-1.26-.55 1.786 1.827 0 0 1 0-2.57 24.695 25.264-180 0 0 7.24-17.92 24.393 24.954-180 0 0-6.8-17.41l-2.84 2.9a.63.645 0 0 1-1.04-.355L41.1 68.73a.605.619 0 0 1 .693-.709l9.577 1.319a.63.645 0 0 1 .347 1.096L48.85 73.37a28.038 28.683 0 0 1 7.84 20.02m-42.18 15.14a.63.645-180 0 0-1.04-.387l-2.87 2.937a24.758 25.328 0 0 1 .21-35.61 1.77 1.811-180 0 0 0-2.61 1.786 1.827-180 0 0-2.52 0 28.41 29.063-180 0 0-.19 40.84l-2.87 2.93a.605.619-180 0 0 .347 1.064l9.573 1.356a.63.645-180 0 0 .693-.741z" style="fill:#50e6ff;stroke:none;stroke-width:34;stroke-linecap:butt"/></g></g></svg>