<svg xmlns="http://www.w3.org/2000/svg" xml:space="preserve" width="60.467" height="75.587" style="font-size:12px;overflow:visible;color-interpolation-filters:sRGB;fill-rule:evenodd;stroke-linecap:square;stroke-miterlimit:3" viewBox="0 0 45.35 56.691"><defs><linearGradient id="a" x1="0" x2="50.704" y1="60.837" y2="60.837" gradientTransform="scale(.8944 1.11806)" gradientUnits="userSpaceOnUse"><stop offset="0" stop-color="#0078d4"/><stop offset="1" stop-color="#5ea0ef"/></linearGradient></defs><g transform="translate(-34 -34.004)"><title>Page-1</title><g transform="translate(34 -34.016)"><title>DNS Forwarding Ruleset.19281</title><title>Sheet.19282</title><g transform="translate(.314 -.406)"><title>Sheet.19283</title><path d="M25.65 68.83H1.88A1.887 1.928-180 0 0 0 70.75v52.03a1.887 1.928-180 0 0 1.88 1.93h40.94a1.887 1.928-180 0 0 1.89-1.93V88.36a1.884 1.924-180 0 0-1.89-1.93H29.23a1.85 1.89 0 0 1-1.85-1.89V70.75a1.85 1.89-180 0 0-1.73-1.92" style="fill:#5ea0ef;stroke:none;stroke-width:34;stroke-linecap:butt"/></g><title>Sheet.19284</title><path d="M24.95 70.85v13.07a4.695 4.797-180 0 0 4.71 4.81h12.87v33.14H2.84V70.85h22.14zm1.01-2.83H1.92A1.884 1.924-180 0 0 0 69.91v52.87a1.884 1.924-180 0 0 1.88 1.93h41.56a1.884 1.924-180 0 0 1.91-1.89V87.81a1.884 1.924-180 0 0-1.88-1.92H29.66a1.887 1.928 0 0 1-1.88-1.93V69.94a1.884 1.924-180 0 0-1.82-1.92" style="fill:url(#a)"/><path d="M24.95 70.85v13.07a4.695 4.797-180 0 0 4.71 4.81h12.87v33.14H2.84V70.85h22.14m.98-2.83H1.92A1.884 1.924-180 0 0 0 69.91v52.87a1.884 1.924-180 0 0 1.88 1.93h41.56a1.884 1.924-180 0 0 1.91-1.89V87.81a1.884 1.924-180 0 0-1.88-1.92H29.66a1.887 1.928 0 0 1-1.88-1.93V69.94a1.884 1.924-180 0 0-1.82-1.92" style="stroke:none;stroke-width:34;stroke-linecap:butt"/><g transform="translate(27.101 -38.482)"><title>Sheet.19285</title><path d="M17.53 124.71 0 106.9v14.43a3.305 3.376-180 0 0 3.31 3.38z" style="fill:#0078d4;stroke:none;stroke-width:34;stroke-linecap:butt"/></g><g transform="translate(7.402 -23.465)"><title>Sheet.19286</title><path d="M1.34 124.68v-4.46a2.069 2.113 0 0 1-.61.24l-.73.2v-1.39a7.23 7.386-180 0 0 1.02-.4 4.22 4.312-180 0 0 1.02-.46H3.1v6.3z" style="fill:#50e6ff;stroke:none;stroke-width:34;stroke-linecap:butt"/></g><g transform="translate(14.96 -25.455)"><title>Sheet.19287</title><path d="M21.77 124.71H1.16a1.156 1.181 0 0 1 0-2.36h20.61a1.156 1.181 0 0 1 0 2.36" style="fill:#c3f1ff;stroke:none;stroke-width:34;stroke-linecap:butt"/></g><g transform="translate(7.439 -8.976)"><title>Sheet.19288</title><path d="M.03 124.71v-.51a3.348 3.42 0 0 1 0-.88 6.961 7.112 0 0 1 .36-.74 6.267 6.403 0 0 1 .93-.88 2.916 2.98-180 0 0 .69-.57.308.315 0 0 1 .231-.315.466.476-180 0 0 0-.372c-.001-.443-.231-.633-.721-.633a2.232 2.28-180 0 0-1.43.58v-1.52a3.632 3.71 0 0 1 .93-.38 4.217 4.309 0 0 1 .92 0 2.309 2.36 0 0 1 1.53.51 1.692 1.73 0 0 1 .57 1.3 2.466 2.52 0 0 1-.31 1.15 3.752 3.833 0 0 1-1.06.94l-.66.41a.595.608-180 0 0-.2.337l2.41.003v1.42z" style="fill:#50e6ff;stroke:none;stroke-width:34;stroke-linecap:butt"/></g><g transform="translate(14.96 -10.923)"><title>Sheet.19289</title><path d="M21.77 124.71H1.16a1.156 1.181 0 0 1 0-2.36h20.61a1.156 1.181 0 0 1 0 2.36" style="fill:#c3f1ff;stroke:none;stroke-width:34;stroke-linecap:butt"/></g></g></g></svg>