<svg xmlns="http://www.w3.org/2000/svg" xmlns:xlink="http://www.w3.org/1999/xlink" xml:space="preserve" width="78.592" height="74.831" style="font-size:12px;overflow:visible;color-interpolation-filters:sRGB;fill-rule:evenodd;stroke-linecap:square;stroke-miterlimit:3" viewBox="0 0 58.944 56.123"><defs><linearGradient id="b" x1="0" x2="17.876" y1="199.69" y2="199.69" gradientTransform="scale(1.75259 .57058)" gradientUnits="userSpaceOnUse"><stop offset=".16" stop-color="#50e6ff"/><stop offset="1" stop-color="#32bedd"/></linearGradient><linearGradient id="c" x1="0" x2="17.949" y1="198.392" y2="198.392" gradientTransform="scale(1.74269 .57383)" gradientUnits="userSpaceOnUse"><stop offset=".235" stop-color="#50e6ff"/><stop offset="1" stop-color="#32bedd"/></linearGradient><linearGradient id="a" x1="0" x2="1" y1="0" y2="0" gradientTransform="rotate(-90 .5 .5)"><stop offset="0" stop-color="#32bedd"/><stop offset=".765" stop-color="#50e6ff"/></linearGradient><linearGradient xlink:href="#a" id="d" x1="-.001" x2="44.984" y1="80.659" y2="80.659" gradientTransform="scale(1.01211 .98803)" gradientUnits="userSpaceOnUse"/><linearGradient xlink:href="#a" id="e" x1="-2.217" x2="49.955" y1="73.474" y2="73.474" gradientTransform="scale(1.01213 .98802)" gradientUnits="userSpaceOnUse"/></defs><g transform="translate(-33.998 -34.001)"><title>Page-1</title><g transform="translate(36.242 -34.016)"><title>Email Communication Service.19256</title><title>Sheet.19257</title><g transform="translate(25.33 -9.924)"><title>Sheet.19258</title><path d="m31.33 114.02-15.64 10.12L0 114.01a.276.269 0 0 1 .053-.068l31.207-.002a.349.34 0 0 1 .066.081z" style="fill:url(#b);stroke:none;stroke-width:34;stroke-linecap:butt"/></g><g transform="translate(25.333 -.22)"><title>Sheet.19259</title><path d="m15.7 114.27-.02.02-15.3 9.85-.01-.02a.953.93 0 0 1-.365-.713L0 104.66a.97.946 0 0 1 .103-.44z" style="fill:#a67af4;stroke:none;stroke-width:34;stroke-linecap:butt"/></g><g transform="translate(41.041 -.22)"><title>Sheet.19260</title><path d="M15.65 104.66v18.76a.996.972 0 0 1-.332.716L6.21 118.27l-2.31-1.5-3.9-2.51 15.55-10.05a.777.758 0 0 1 .106.45z" style="fill:#773adc;stroke:none;stroke-width:34;stroke-linecap:butt"/></g><g transform="translate(25.699)"><title>Sheet.19261</title><path d="M30.67 123.92h-.02a1.036 1.011 0 0 1-.64.22l-29.4-.03a.877.856 0 0 1-.591-.204L0 123.88l15.3-9.83.02.02 3.92 2.5 2.3 1.5z" style="fill:#552f99;stroke:none;stroke-width:34;stroke-linecap:butt"/></g><g transform="translate(25.357 -20.024)"><title>Sheet.19262</title><path d="M31.28 124.14H0a.82.8 0 0 1 .266-.272l14.844-9.858a.976.953 0 0 1 1.106 0l14.804 9.86a.803.784 0 0 1 .259.272z" style="fill:url(#c);stroke:none;stroke-width:34;stroke-linecap:butt"/></g><g transform="translate(1.389 -8.032)"><title>Sheet.19263</title><path d="M31.37 90.3a55.425 54.105 0 0 1 1.53 14.33l-9.08 6.04a2.776 2.71-180 0 0-.94 1.07 2.683 2.619-180 0 0-.19.51 47.904 46.763-180 0 0-9.89.94 53.622 52.345 0 0 1 .69-22.96 47.742 46.605-180 0 0 17.88.07m-19.23-.34a19.423 18.96 0 0 1-6.52-2.65 22.72 22.18-180 0 0-.34 28.82v-.02a18.593 18.15 0 0 1 6.14-2.57 55.74 54.413 0 0 1 .72-23.58m20.58.03a55.78 54.451 0 0 1 1.61 13.7l4.03-2.68a2.374 2.317 0 0 1 2.66 0l4.41 2.94a22.764 22.221-180 0 0-5.55-16.72 24.314 23.735 0 0 1-7.17 2.76Zm-18.84-1.02a47.632 46.498-180 0 0 17.13.04 23.806 23.24-180 0 0-4.84-9.07 22.727 22.186-180 0 0-7.6.14h.07a25.606 24.996-180 0 0-2.1 2.85 23.79 23.223-180 0 0-2.66 6.04m18.43-.23a22.89 22.345-180 0 0 6.64-2.47 22.783 22.24-180 0 0-10.68-5.94 28.033 27.365 0 0 1 4.02 8.41zM10.3 83.31a25.008 24.412-180 0 0-3.79 3 18.334 17.898-180 0 0 5.98 2.36 28.361 27.686 0 0 1 3.98-8.14 22.767 22.225-180 0 0-6.14 2.81zm5.72 39.87a22.246 21.716 0 0 1-4.23-8.37 17.342 16.929-180 0 0-5.6 2.33 22.783 22.24-180 0 0 9.83 6.02zm2.46.53a21.11 20.607-180 0 0 4.13.43v-10.55a46.868 45.752-180 0 0-9.52.89 18.633 18.19-180 0 0 5.26 9.09z" style="fill:url(#d);stroke:none;stroke-width:34;stroke-linecap:butt"/></g><g transform="translate(0 -4.577)"><title>Sheet.19264</title><path d="M24 121.92c-.28 0-.57 0-.85-.03h-.51l-.63-.06c-.26-.01-.51-.07-.77-.07l-.76-.1c-.25-.04-.57-.1-.75-.13a9.96 9.723 0 0 1-.55-.1l-.25-.05-.51-.12a23.072 22.523 0 0 1-14.9-10.53A22.282 21.751 0 0 1 0 98.09v-.18a24.095 23.521 0 0 1 9.35-18.15l.3-.22.11-.02a24.839 24.247 0 0 1 4.22-2.46l.48-.21a24.195 23.618 0 0 1 9.65-1.99h1.83l1.1.1.82.11c.61.1 1.23.21 1.85.35.17.05.38.09.58.15l.62.17.21.06a23.242 22.688 0 0 1 2.28.79 24.165 23.59 0 0 1 14.91 21.97 22.75 22.208 0 0 1-.14 2.83l2.01 1.34A26.403 25.774-180 1 0 24 124.14Z" style="fill:url(#e);stroke:none;stroke-width:34;stroke-linecap:butt"/></g></g></g></svg>