<svg xmlns="http://www.w3.org/2000/svg" xml:space="preserve" width="75.593" height="68.028" style="font-size:12px;overflow:visible;color-interpolation-filters:sRGB;fill-rule:evenodd;stroke-linecap:square;stroke-miterlimit:3" viewBox="0 0 56.695 51.021"><g transform="translate(-5.67 -5.103)"><title>Page-1</title><g transform="translate(5.67 -34.016)"><title>ExpressRoute Filter.19223</title><title>g18</title><g transform="translate(34.66)"><title>path4</title><path d="M12.56 78.38 9.75 90.14 0 83.95Z" style="fill:#804998;stroke:none;stroke-width:.91745198;stroke-linecap:butt"/></g><g transform="translate(26.085 -2.021)"><title>path6</title><path d="M1.13 67.87S.59 68.91 0 69.08c7.47 0 12.35 13.3 15.26 21.06l3.77-1.17c-2.97-8.42-6.57-21.1-17.9-21.1m20.01-14.96-2.82-11.77-9.75 6.19Z" style="fill:#804998;stroke:none;stroke-width:.91745198;stroke-linecap:butt"/></g><g transform="translate(26.085 -18.224)"><title>path8</title><path d="M1.13 81.64S.59 80.59 0 80.42c7.47 0 12.35-13.3 15.26-21.06l3.77 1.17c-2.97 8.43-6.57 21.11-17.9 21.11m20.42-6.07 9.06 7.28-9.06 7.29z" style="fill:#804998;stroke:none;stroke-width:.91745198;stroke-linecap:butt"/></g><g transform="translate(23.79 -23.078)"><title>path10</title><path d="M0 85.278h27.42v4.863H0z" style="fill:#804998;stroke:none;stroke-width:.91745198;stroke-linecap:butt"/></g><g transform="translate(0 -9.717)"><title>path12</title><path d="M5.39 90.14h16.13a5.386 5.774-180 0 0 5.39-5.77V64.33a5.386 5.774-180 0 0-5.39-5.77H5.39A5.385 5.773-180 0 0 0 64.33v20.04a5.385 5.773-180 0 0 5.39 5.77" style="fill:#7fba00;stroke:none;stroke-width:.91745198;stroke-linecap:butt"/></g><g transform="translate(0 -9.717)"><title>path14</title><path d="m5.39 90.14 16.13-31.58H5.39A5.385 5.773-180 0 0 0 64.33v20.04a5.385 5.773-180 0 0 5.39 5.77" style="fill:#fff;fill-opacity:.2;stroke:none;stroke-width:.91745198;stroke-linecap:butt"/></g><g transform="translate(4.532 -14.575)"><title>path16</title><path d="M11.33 75.56h6.8v7.29h-6.8zM0 68.28h6.8v7.29H0Zm0 14.57h6.8v7.29H0Z" style="fill:#fff;stroke:none;stroke-width:.91745198;stroke-linecap:butt"/></g></g></g></svg>