<svg xmlns="http://www.w3.org/2000/svg" xmlns:xlink="http://www.w3.org/1999/xlink" xml:space="preserve" width="77.317" height="77.33" style="font-size:12px;overflow:visible;color-interpolation-filters:sRGB;fill-rule:evenodd;stroke-linecap:square;stroke-miterlimit:3" viewBox="0 0 57.988 57.998"><defs><linearGradient id="a" x1="0" x2="1" y1="0" y2="0" gradientTransform="rotate(-90 .5 .5)"><stop offset="0" stop-color="#773adc"/><stop offset="1" stop-color="#a67af4"/></linearGradient><linearGradient xlink:href="#a" id="b" x1="-1.861" x2="10.841" y1="112.835" y2="112.835" gradientTransform="scale(.99624 1.00377)" gradientUnits="userSpaceOnUse"/><linearGradient xlink:href="#a" id="c" x1="-1.861" x2="10.841" y1="112.835" y2="112.835" gradientTransform="scale(.99624 1.00377)" gradientUnits="userSpaceOnUse"/><linearGradient xlink:href="#a" id="d" x1="-1.861" x2="10.841" y1="112.835" y2="112.835" gradientTransform="scale(.99624 1.00377)" gradientUnits="userSpaceOnUse"/><linearGradient xlink:href="#a" id="e" x1="-1.861" x2="10.841" y1="112.835" y2="112.835" gradientTransform="scale(.99624 1.00377)" gradientUnits="userSpaceOnUse"/></defs><g transform="translate(-34.004 -33.997)"><title>Page-1</title><g transform="translate(35.295 -34.016)"><title>ExpressRoute Peering.19205</title><title>Sheet.19206</title><g transform="translate(2.719 -4.103)"><title>Sheet.19207</title><path d="M48.82 100.29 26.39 77.35l-1.16 1.14-1.14-1.15L0 101.44l25.24 24.57 23.54-23.43-1.13-1.14ZM26.85 82.48l18.51 18.94-18.51 18.42Zm-3.22-.07v37.48l-19-18.47z" style="fill:#ccc;stroke:none;stroke-width:34;stroke-linecap:butt"/></g><g transform="translate(22.921 -46.553)"><title>Sheet.19208</title><ellipse cx="5.032" cy="120.943" rx="5.032" ry="5.07" style="fill:#fff;stroke:none;stroke-width:34;stroke-linecap:butt"/></g><g transform="translate(23.475 -45.248)"><title>Sheet.19209</title><path d="M4.48 126.01a6.327 6.375 0 1 1 6.32-6.37 6.334 6.381 0 0 1-6.32 6.37m0-10.13a3.737 3.765-180 1 0 3.73 3.76 3.74 3.768-180 0 0-3.73-3.76" style="fill:url(#b);stroke:none;stroke-width:34;stroke-linecap:butt"/></g><g transform="translate(22.921 -1.305)"><title>Sheet.19210</title><ellipse cx="5.032" cy="120.943" rx="5.032" ry="5.07" style="fill:#fff;stroke:none;stroke-width:34;stroke-linecap:butt"/></g><g transform="translate(23.475)"><title>Sheet.19211</title><path d="M4.48 126.01a6.327 6.375 0 1 1 6.32-6.37 6.334 6.381 0 0 1-6.32 6.37m0-10.14a3.737 3.765-180 1 0 3.73 3.77 3.74 3.768-180 0 0-3.73-3.77" style="fill:url(#c);stroke:none;stroke-width:34;stroke-linecap:butt"/></g><g transform="translate(45.334 -23.614)"><title>Sheet.19212</title><ellipse cx="5.032" cy="120.943" rx="5.032" ry="5.07" style="fill:#fff;stroke:none;stroke-width:34;stroke-linecap:butt"/></g><g transform="translate(45.896 -22.312)"><title>Sheet.19213</title><path d="M4.47 126.01a6.327 6.375 0 1 1 6.33-6.36 6.334 6.381 0 0 1-6.33 6.36m0-10.13a3.737 3.765-180 1 0 3.75 3.77 3.74 3.768-180 0 0-3.75-3.77" style="fill:url(#d);stroke:none;stroke-width:34;stroke-linecap:butt"/></g><g transform="translate(0 -23.614)"><title>Sheet.19214</title><ellipse cx="5.032" cy="120.943" rx="5.032" ry="5.07" style="fill:#fff;stroke:none;stroke-width:34;stroke-linecap:butt"/></g><g transform="translate(.563 -22.312)"><title>Sheet.19215</title><path d="M4.47 126.01a6.327 6.375 0 1 1 6.33-6.36 6.334 6.381 0 0 1-6.33 6.36m0-10.13a3.737 3.765-180 1 0 3.74 3.77 3.74 3.768-180 0 0-3.74-3.77" style="fill:url(#e);stroke:none;stroke-width:34;stroke-linecap:butt"/></g></g></g></svg>