<svg xmlns="http://www.w3.org/2000/svg" xml:space="preserve" width="75.586" height="75.586" style="font-size:12px;overflow:visible;color-interpolation-filters:sRGB;fill-rule:evenodd;stroke-linecap:square;stroke-miterlimit:3" viewBox="0 0 56.69 56.69"><g transform="translate(-5.67 -5.674)"><title>Page-1</title><g transform="translate(5.67 -34.016)"><title>ExpressRoute Connection.19242</title><title>g8</title><g transform="translate(13.833 -11.112)"><title>path4</title><path d="m29.03 65.65-3.74-3.74-12.14 12.24L25.29 86.4l3.74-3.51-8.28-8.4ZM0 75.97l8.28 8.28L0 92.64l3.74 3.74 12.13-12.25L3.74 71.89Z" style="fill:#b8d432;stroke:none;stroke-width:.93830502;stroke-linecap:butt"/></g><title>path6</title><path d="M28.35 39.69C12.59 39.69 0 52.61 0 68.03c0 15.76 12.93 28.35 28.35 28.35s28.34-12.93 28.34-28.35-12.58-28.34-28.34-28.34m0 3.74c13.6 0 24.6 11 24.6 24.6 0 13.61-11.11 24.61-24.6 24.61-13.5 0-24.61-11.12-24.61-24.61s11-24.6 24.61-24.6" style="fill:#59b4d9;stroke:none;stroke-width:.93830502;stroke-linecap:butt"/></g></g></svg>