<svg xmlns="http://www.w3.org/2000/svg" xml:space="preserve" width="75.589" height="65.536" style="font-size:12px;overflow:visible;color-interpolation-filters:sRGB;fill-rule:evenodd;stroke-linecap:square;stroke-miterlimit:3" viewBox="0 0 56.692 49.152"><defs><linearGradient id="a" x1="-2.349" x2="33.153" y1="88.182" y2="88.182" gradientTransform="scale(1.01137 .98875)" gradientUnits="userSpaceOnUse"><stop offset="0" stop-color="#a67af4"/><stop offset="1" stop-color="#773adc"/></linearGradient></defs><g transform="translate(-34 -34)"><title>Page-1</title><g transform="translate(34 -34.96)"><title>ExpressRoute Direct.19232</title><title>Sheet.19233</title><g transform="translate(5.313 -17.052)"><title>Sheet.19234</title><path d="m10.1 93.54 3.64 2.06-10.1 17.1L0 110.65Zm3.67 2.38 3.64-2.05 10.1 17.11-3.64 2.05zm9.93 17.12v4.11H3.5v-4.11z" style="fill:#773adc;stroke:none;stroke-width:34;stroke-linecap:butt"/></g><g transform="translate(14.167 -38.175)"><title>Sheet.19235</title><ellipse cx="5.121" cy="112.143" rx="5.121" ry="5.007" style="fill:#86d633;stroke:none;stroke-width:34;stroke-linecap:butt"/></g><g transform="translate(0 -13.804)"><title>Sheet.19236</title><ellipse cx="5.121" cy="112.143" rx="5.121" ry="5.007" style="fill:#86d633;stroke:none;stroke-width:34;stroke-linecap:butt"/></g><g transform="translate(21.918)"><title>Sheet.19237</title><ellipse cx="16.772" cy="100.753" rx="16.772" ry="16.397" style="fill:#fff;stroke:none;stroke-width:34;stroke-linecap:butt"/></g><g transform="translate(30.16 -7.051)"><title>Sheet.19238</title><path d="M.87 112.04a.945.924 0 0 1-.668-1.577L3.76 107a.945.924 0 1 1 1.335 1.302L1.54 111.77a.945.924 0 0 1-.668.271zm2.63 2.57a.945.924 0 0 1-.668-1.577l3.538-3.473a.945.924 0 1 1 1.335 1.306L4.17 114.34a.945.924 0 0 1-.674.268zm2.59 2.54a.945.924 0 0 1-.668-1.573L8.98 112.1a.945.924 0 1 1 1.339 1.306L6.77 116.89a.945.924 0 0 1-.67.256zm1.31-11.48a.945.924 0 0 1-.668-1.573l3.548-3.477a.945.924 0 0 1 1.335 1.306L8.06 105.4a.945.924 0 0 1-.668.271zm2.62 2.56a.945.924 0 0 1-.668-1.573l3.548-3.467a.945.924 0 0 1 1.339 1.306l-3.549 3.464a.945.924 0 0 1-.67.268zm2.6 2.54a.945.924 0 0 1-.668-1.577l3.558-3.473a.945.924 0 0 1 1.335 1.309L13.29 110.5a.945.924 0 0 1-.674.268z" style="fill:#773adc;stroke:none;stroke-width:34;stroke-linecap:butt"/></g><g transform="translate(22.898 -.283)"><title>Sheet.19239</title><path d="M7.4 103.11a.945.924-180 0 0-1.339 0L0 109.04a18.006 17.604-180 0 0 9.28 8.11l5.57-5.44a.945.924-180 0 0 0-1.312z" style="fill:#a67af4;stroke:none;stroke-width:34;stroke-linecap:butt"/></g><g transform="translate(39.974 -16.479)"><title>Sheet.19240</title><path d="m7.18 101.53-6.9 6.75a.945.924-180 0 0 0 1.309l7.45 7.291a.945.924-180 0 0 1.339 0l6.411-6.26a17.994 17.591-180 0 0-8.3-9.09" style="fill:#b796f9;stroke:none;stroke-width:34;stroke-linecap:butt"/></g><g transform="translate(23.162 -4.18)"><title>Sheet.19241</title><path d="M15.58 89.5A15.578 15.23 0 1 1 0 104.73 15.597 15.248 0 0 1 15.58 89.5m0-2.31a17.953 17.551-180 1 0 17.95 17.55 17.953 17.551-180 0 0-17.95-17.55" style="fill:url(#a);stroke:none;stroke-width:34;stroke-linecap:butt"/></g></g></g></svg>