<svg xmlns="http://www.w3.org/2000/svg" xml:space="preserve" width="75.586" height="75.587" style="font-size:12px;overflow:visible;color-interpolation-filters:sRGB;fill-rule:evenodd;stroke-linecap:square;stroke-miterlimit:3" viewBox="0 0 56.69 56.691"><g transform="translate(-12.24 -12.244)"><title>Page-1</title><g transform="translate(12.24 -34.016)"><title>ExpressRoute Health.19216</title><title>Sheet.19217</title><title>Sheet.19218</title><path d="M28.35 102.95a5.2 5.2 0 0 1-3.7-1.53L1.53 78.3A5.26 5.26 0 0 1 0 74.6c0-1.37.56-2.72 1.53-3.69l23.12-23.12a5.2 5.2 0 0 1 3.7-1.53 5.2 5.2 0 0 1 3.7 1.53l23.11 23.12c.99.98 1.53 2.29 1.53 3.69s-.54 2.71-1.53 3.7l-23.12 23.12a5.2 5.2 0 0 1-3.69 1.53" style="fill:#68217a;stroke:none;stroke-width:12.23999977;stroke-linecap:butt"/><g transform="translate(0 -11.56)"><title>Sheet.19219</title><path d="M32.05 59.35a5.2 5.2-180 0 0-3.7-1.53 5.2 5.2-180 0 0-3.7 1.53L1.53 82.47C.56 83.44 0 84.79 0 86.16c0 1.38.56 2.73 1.53 3.7l13.09 13.09 24.62-36.4z" style="fill:#fff;fill-opacity:.09800002;stroke:none;stroke-width:12.23999977;stroke-linecap:butt"/></g><g transform="translate(8.268 -8.268)"><title>Sheet.19220</title><title>Sheet.19221</title><path d="m29.71 88.78-6.21 6.2a4.7 4.7-180 0 0-1.99-1.24V72c1.9-.61 3.29-2.38 3.29-4.48a4.725 4.725-180 0 0-9.45 0c0 .16.04.32.05.48L5.21 78.2c-.16-.02-.32-.05-.49-.05a4.724 4.724-180 1 0 0 9.44c.17 0 .33-.03.49-.04L15.4 97.74c-.01.16-.05.32-.05.48a4.725 4.725-180 0 0 9.45 0c0-.15-.03-.3-.04-.45l8.99-8.99zm-21.72-2.5c.89-.86 1.46-2.07 1.46-3.41s-.57-2.55-1.46-3.41l8.68-8.68c.54.56 1.22.97 1.98 1.22v21.74a4.7 4.7-180 0 0-1.98 1.22z" style="fill:#fff;stroke:none;stroke-width:12.23999977;stroke-linecap:butt"/><g transform="translate(25.984 -16.535)"><title>Sheet.19222</title><path d="M0 95.86h3.54v7.09H0Zm11.81-2.36h3.54v9.45h-3.54zm-5.9-3.54h3.54v12.99H5.91Z" style="fill:#fff;stroke:none;stroke-width:12.23999977;stroke-linecap:butt"/></g></g></g></g></svg>