<svg xmlns="http://www.w3.org/2000/svg" xmlns:xlink="http://www.w3.org/1999/xlink" xml:space="preserve" width="64.252" height="75.595" style="font-size:12px;overflow:visible;color-interpolation-filters:sRGB;fill-rule:evenodd;stroke-linecap:square;stroke-miterlimit:3" viewBox="0 0 48.189 56.696"><defs><linearGradient id="b" x1="0" x2="49.365" y1="63.079" y2="63.079" gradientTransform="scale(.90165 1.10908)" gradientUnits="userSpaceOnUse"><stop offset="0" stop-color="#a67af4"/><stop offset="1" stop-color="#773adc"/></linearGradient><linearGradient id="c" x1="0" x2="10.433" y1="113.901" y2="113.901" gradientTransform="scale(.997 1.003)" gradientUnits="userSpaceOnUse"><stop offset="0" stop-color="#76bc2d"/><stop offset="1" stop-color="#86d633"/></linearGradient><linearGradient id="a" x1="0" x2="1" y1="0" y2="0" gradientTransform="rotate(-90 .5 .5)"><stop offset="0" stop-color="#76bc2d"/><stop offset="1" stop-color="#86d633"/></linearGradient><linearGradient xlink:href="#a" id="d" x1="0" x2="10.433" y1="113.901" y2="113.901" gradientTransform="scale(.997 1.003)" gradientUnits="userSpaceOnUse"/><linearGradient xlink:href="#a" id="e" x1="0" x2="21.379" y1="102.956" y2="102.956" gradientTransform="scale(.997 1.003)" gradientUnits="userSpaceOnUse"/></defs><g transform="translate(-34 -33.997)"><title>Page-1</title><g transform="translate(34 -34.016)"><title>ExpressRoute Traffic Collector.19196</title><title>Sheet.19197</title><g transform="translate(0 -1.948)"><title>Sheet.19198</title><path d="M25.35 69.96H1.82A1.81 1.82-180 0 0 0 71.78v51.1a1.813 1.824-180 0 0 1.81 1.83h40.88a1.81 1.82-180 0 0 1.82-1.82V89.1a1.856 1.868-180 0 0-1.86-1.71H29.06a1.856 1.868 0 0 1-1.86-1.85V71.83a1.856 1.868-180 0 0-1.86-1.87z" style="fill:url(#b);stroke:none;stroke-width:34;stroke-linecap:butt"/></g><g transform="translate(26.589 -38.821)"><title>Sheet.19199</title><path d="M17.26 124.71 0 107.29v14.01a3.199 3.218-180 0 0 3.2 3.22z" style="fill:#773adc;stroke:none;stroke-width:34;stroke-linecap:butt"/></g><g transform="translate(7.323 -8.027)"><title>Sheet.19200</title><path d="m0 117.95 10.25-17.86 3.7 2.14L3.7 120.09zm13.97-15.38 3.7-2.15 10.24 17.86-3.69 2.15zM3.54 120.41h20.5v4.3H3.54Z" style="fill:#6536c1;stroke:none;stroke-width:34;stroke-linecap:butt"/></g><g transform="translate(16.296 -30.054)"><title>Sheet.19201</title><ellipse cx="5.201" cy="119.476" rx="5.201" ry="5.232" style="fill:url(#c);stroke:none;stroke-width:34;stroke-linecap:butt"/></g><g transform="translate(1.93 -4.619)"><title>Sheet.19202</title><ellipse cx="5.201" cy="119.476" rx="5.201" ry="5.232" style="fill:url(#d);stroke:none;stroke-width:34;stroke-linecap:butt"/></g><g transform="translate(26.874)"><title>Sheet.19203</title><ellipse cx="10.658" cy="113.987" rx="10.658" ry="10.722" style="fill:url(#e);stroke:none;stroke-width:34;stroke-linecap:butt"/></g><g transform="translate(30.08 -4.055)"><title>Sheet.19204</title><path d="m8.67 111.47 6.03 6.06a.72.724 0 0 1 0 1.024l-6.03 6.066a.331.333 0 0 1-.454 0 .331.333 0 0 1-.093-.23l-.003-3.73a.331.333-180 0 0-.331-.333l-7.529.003a.262.263 0 0 1-.262-.263L0 115.99a.259.26 0 0 1 .262-.26H7.8a.331.333-180 0 0 .331-.333l-.001-3.707a.331.333 0 0 1 .547-.227z" style="fill:#fff;stroke:none;stroke-width:34;stroke-linecap:butt"/></g></g></g></svg>