<svg xmlns="http://www.w3.org/2000/svg" xml:space="preserve" width="65.339" height="77.177" style="font-size:12px;overflow:visible;color-interpolation-filters:sRGB;fill-rule:evenodd;stroke-linecap:square;stroke-miterlimit:3" viewBox="0 0 49.004 57.883"><g transform="translate(-10.932 -10.544)"><title>Page-1</title><g transform="translate(11.746 -34.016)"><title>Geo Replication.19189</title><title>g14</title><g transform="translate(10.4)"><title>path4</title><path d="M13.02 91.6H8.71c1.04 6.5-2.56 7.44-8.71 7.44v3.4h20.92v-3.4c-6.15 0-8.94-.93-7.9-7.44" style="fill:#ff8c00;stroke:none;stroke-width:12.23999977;stroke-linecap:butt"/></g><g transform="translate(10.403)"><title>path6</title><path d="M0 99.035h20.923v3.407H0z" style="fill:#fcd116;stroke:none;stroke-width:12.23999977;stroke-linecap:butt"/></g><g transform="translate(.599 -12.969)"><title>path8</title><path d="M22.8 93.98a2.53 2.601 0 0 1 3.58 0l-4-4.11a2.53 2.603 0 1 1 3.58-3.68l1.06 1.09.83.77 1.95 2.01a2.53 2.603-180 0 0 3.58-3.68l-1.96-2.01-1.24-1.27-5.95-6.12a2.53 2.603 0 1 1 3.58-3.68l2.61 2.68a2.53 2.601 0 1 1 3.57-3.68l6.77 6.96a20.354 20.935-180 0 0-5.96-13.88 20.36 20.941-180 0 0-12.38-6.04l3.03 3.12a3.191 3.282 0 0 1-4.51 4.64l-2.07-2.14a3.196 3.288-180 0 0-4.52 4.65l4.09 4.2a3.191 3.282 0 0 1-4.51 4.64l-4.49-4.61a3.19 3.281 0 0 1-5.16 3.68l3.27 3.36a3.191 3.282 0 0 1-4.51 4.64L0 82.4a20.357 20.938-180 0 0 5.88 12.73c5.35 5.5 12.93 7.31 19.75 5.44l-2.83-2.91a2.531 2.604 0 0 1 0-3.68z" style="fill:#59b4d9;stroke:#59b4d9;stroke-width:2.83967996;stroke-linecap:butt"/></g><g transform="translate(0 -14.843)"><title>path10</title><path d="m41.36 81.14-6.76-6.96a2.53 2.601-180 1 0-3.58 3.67l-2.61-2.68a2.53 2.603-180 1 0-3.58 3.68l5.96 6.12 1.23 1.28 1.96 2.01a2.53 2.603 0 0 1-3.58 3.68l-1.95-2.02-.83-.77-1.06-1.09a2.53 2.603-180 1 0-3.58 3.68l4 4.11a2.53 2.603-180 0 0-3.58 3.68l2.83 2.91A20.343 20.923-180 0 0 35.4 97a20.4 20.983-180 0 0 5.96-15.86M8.15 87.39a3.19 3.281-180 0 0 0-4.64l-3.27-3.36a3.19 3.281-180 1 0 5.16-3.68l4.49 4.61a3.191 3.282-180 0 0 4.51-4.64l-4.09-4.2a3.193 3.284 0 1 1 4.51-4.65l2.08 2.14a3.191 3.282-180 0 0 4.51-4.64l-3.03-3.12c-5.9-.62-12.02 1.4-16.54 6.05S0 78.2.6 84.27l3.03 3.12a3.19 3.281-180 0 0 4.52 0" style="fill:#b8d432;stroke:none;stroke-width:12.23999977;stroke-linecap:butt"/></g><g transform="translate(1.67 -7.129)"><title>path12</title><path d="M19.27 102.44c-7.28 0-14.12-2.91-19.27-8.21a1.901 1.955 0 1 1 2.69-2.76 23.293 23.957-180 0 0 16.58 7.06 23.293 23.957-180 0 0 16.58-7.06c4.43-4.56 6.87-10.61 6.87-17.05 0-6.45-2.44-12.5-6.87-17.06a1.901 1.955 0 0 1 2.69-2.76c5.14 5.29 7.98 12.33 7.98 19.82 0 7.48-2.84 14.52-7.98 19.81-5.15 5.3-11.99 8.21-19.27 8.21" style="fill:#fcd116;stroke:none;stroke-width:12.23999977;stroke-linecap:butt"/></g></g></g></svg>