<svg xmlns="http://www.w3.org/2000/svg" xml:space="preserve" width="71.809" height="75.588" style="font-size:12px;overflow:visible;color-interpolation-filters:sRGB;fill-rule:evenodd;stroke-linecap:square;stroke-miterlimit:3" viewBox="0 0 53.857 56.691"><g transform="translate(-12.24 -12.243)"><title>Page-1</title><g transform="translate(12.24 -34.016)"><title>Hybrid Connection.19181</title><title>Sheet.19182</title><g transform="translate(21.543 -39.572)"><title>Sheet.19183</title><ellipse cx="4.584" cy="98.413" rx="4.584" ry="4.535" style="fill:#57a300;stroke:none;stroke-width:12.23999977;stroke-linecap:butt"/></g><g transform="translate(21.887 -8.05)"><title>Sheet.19184</title><ellipse cx="4.584" cy="98.413" rx="4.584" ry="4.535" style="fill:#57a300;stroke:none;stroke-width:12.23999977;stroke-linecap:butt"/></g><g transform="translate(0 -10.318)"><title>Sheet.19185</title><path d="M14.9 102.95h-2.18C5.73 102.95 0 97.28 0 90.36v-11c.11-6.57 5.73-12.24 12.61-12.58h3.43c1.15 0 2.07.91 2.07 2.04s-.92 2.04-2.07 2.04h-3.32c-4.58.23-8.48 3.97-8.48 8.39v11c0 4.65 3.78 8.39 8.48 8.39h2.18c1.14 0 2.06.91 2.06 2.04 0 1.36-.92 2.27-2.06 2.27" style="fill:#59b4d9;stroke:none;stroke-width:12.23999977;stroke-linecap:butt"/></g><g transform="translate(34.607 -10.318)"><title>Sheet.19186</title><path d="M6.53 102.95H2.06c-1.14 0-2.06-.91-2.06-2.04 0-1.14.92-2.04 2.06-2.04h4.47c4.7 0 8.48-3.74 8.48-8.39v-11c0-4.65-3.78-8.39-8.48-8.39H3.21a2.04 2.04 0 0 1-2.06-2.04c0-1.14.91-2.04 2.06-2.04h3.32c6.99 0 12.72 5.66 12.72 12.58v11c0 6.8-5.73 12.36-12.72 12.36" style="fill:#804998;stroke:none;stroke-width:12.23999977;stroke-linecap:butt"/></g><g transform="translate(16.157 -31.521)"><title>Sheet.19187</title><path d="M9.74 102.95c-3.21 0-6.53-1.25-8.94-3.63-.8-.79-.8-2.15 0-2.95.8-.79 2.18-.79 2.98 0 3.32 3.29 8.71 3.29 11.92 0 3.32-3.29 3.32-8.62 0-11.79-1.61-1.59-3.78-2.49-5.96-2.49-2.29 0-4.35.9-5.96 2.49-.8.79-2.18.79-2.98 0s-.8-2.15 0-2.95c2.41-2.49 5.62-3.85 8.94-3.85 3.44 0 6.53 1.36 8.94 3.63 4.93 4.87 4.93 12.92 0 17.8-2.41 2.49-5.62 3.74-8.94 3.74" style="fill:#68217a;stroke:none;stroke-width:12.23999977;stroke-linecap:butt"/></g><g transform="translate(12.49)"><title>Sheet.19188</title><path d="M13.87 102.95c-3.44 0-6.54-1.36-8.94-3.63C0 94.44 0 86.39 4.93 81.52c2.4-2.38 5.61-3.63 8.94-3.63 3.43 0 6.53 1.36 8.93 3.63.81.79.81 2.15 0 2.95-.8.79-2.17.79-2.98 0-1.6-1.59-3.78-2.5-5.95-2.5-2.3 0-4.36.91-5.96 2.5-3.33 3.28-3.33 8.61 0 11.79 1.6 1.59 3.66 2.49 5.96 2.49 2.29 0 4.35-.9 5.95-2.49.81-.79 2.18-.79 2.98 0 .81.79.81 2.15 0 2.95-2.29 2.38-5.5 3.74-8.93 3.74" style="fill:#0072c6;stroke:none;stroke-width:12.23999977;stroke-linecap:butt"/></g></g></g></svg>