<svg xmlns="http://www.w3.org/2000/svg" xml:space="preserve" width="75.59" height="75.59" style="font-size:12px;overflow:visible;color-interpolation-filters:sRGB;fill-rule:evenodd;stroke-linecap:square;stroke-miterlimit:3" viewBox="0 0 56.692 56.693"><defs><linearGradient id="a" x1="0" x2="44.982" y1="103.133" y2="103.133" gradientTransform="scale(1.18759 .84204)" gradientUnits="userSpaceOnUse"><stop offset="0" stop-color="#0078d4"/><stop offset=".105" stop-color="#1480da"/><stop offset=".305" stop-color="#348ee3"/><stop offset=".5" stop-color="#4b98ea"/><stop offset=".68" stop-color="#599eee"/><stop offset=".84" stop-color="#5ea0ef"/></linearGradient></defs><g transform="translate(-34 -34)"><title>Page-1</title><g transform="translate(34 -34.016)"><title>Internet Analyzer Profile.19170</title><title>Icon-469-Internet-Analyzer</title><title>Sheet.19172</title><path d="M0 68.016h56.693v56.693H0z" style="fill:none;stroke:none;stroke-width:34;stroke-linecap:butt"/><title>Sheet.19173</title><path d="M0 68.016h56.693v56.693H0z" style="fill:none;stroke:none;stroke-width:34;stroke-linecap:butt"/><g transform="translate(.665 -16.611)"><title>Sheet.19174</title><path d="M53.42 112.85a12 12-180 0 0-10.41-11.53 15.12 15.12-180 0 0-15.58-14.47A15.515 15.515-180 0 0 12.6 96.96 14.32 14.32-180 0 0 0 110.74a14.535 14.535-180 0 0 15.04 13.97c.45 0 .89-.02 1.33-.06h24.35a2.4 2.4-180 0 0 .63-.1 12.14 12.14-180 0 0 12.07-11.7" style="fill:url(#a);stroke:none;stroke-width:34;stroke-linecap:butt"/></g><g transform="translate(24.513 -32.45)"><title>Sheet.19175</title><circle cx="4.151" cy="120.557" r="4.151" style="fill:#fff;stroke:none;stroke-width:34;stroke-linecap:butt"/></g><g transform="translate(36.649 -29.102)"><title>Sheet.19176</title><ellipse cx="3.329" cy="121.364" rx="3.329" ry="3.345" style="fill:#fff;stroke:none;stroke-width:34;stroke-linecap:butt"/></g><g transform="translate(30.491 -42.983)"><title>Sheet.19177</title><circle cx="2.324" cy="122.384" r="2.324" style="fill:#fff;stroke:none;stroke-width:34;stroke-linecap:butt"/></g><g transform="translate(26.148 -2.205)"><title>Sheet.19178</title><path d="M28.79 124.71H1.39c-.88 0-1.39-1.4-.9-2.11l9.45-13.77a1.1 1.1-180 0 0 .2-.63v-9.09a.545.545-180 0 0-.548-.542l-.512.002A1.083 1.083 0 0 1 8 97.48v-.49a1.083 1.083 0 0 1 1.08-1.08H21.1a1.083 1.083 0 0 1 1.08 1.08v.49a1.083 1.083 0 0 1-1.08 1.09h-.51a.54.54-180 0 0-.542.542l.002 9.118a1.07 1.07-180 0 0 .19.63l9.45 13.74c.49.7-.03 2.11-.9 2.11" style="fill:#50e6ff;stroke:none;stroke-width:34;stroke-linecap:butt"/></g><g transform="translate(30.662 -4.917)"><title>Sheet.19179</title><path d="m.03 123.73 7.18-10.46a2.6 2.6-180 0 0 .46-1.48v-4.21a.835.835 0 0 1 .835-.835l4.065-.005a.835.835 0 0 1 .835.835l-.005 4.505a1.74 1.74-180 0 0 .32.99l7.32 10.66a.63.63 0 0 1-.513.98H.55a.63.63 0 0 1-.513-.98z" style="fill:#fff;stroke:none;stroke-width:34;stroke-linecap:butt"/></g><g transform="translate(31.789 -5.836)"><title>Sheet.19180</title><path d="m5.85 121.2 1.45 3.38a.208.208-180 0 0 .39-.016l1.53-4.524a.208.208 0 0 1 .384-.031l1.236 2.371a.211.211-180 0 0 .365 0l1.665-2.8a.21.21 0 0 1 .183-.104l3.327-.006-.68-.98a.21.21-180 0 0-.173-.091l-3.087.001a.21.21-180 0 0-.183.1l-.987 1.68a.208.208 0 0 1-.365 0L9.39 117.3a.208.208-180 0 0-.384.032L7.58 121.57a.208.208 0 0 1-.39.016l-1.22-2.826a.208.208-180 0 0-.375 0l-1.725 3.15a.21.21 0 0 1-.186.107L.85 122.01a.21.21-180 0 0-.173.091L0 123.08h4.31a.21.21-180 0 0 .186-.107l.974-1.773a.208.208 0 0 1 .375.006z" style="fill:#86d633;stroke:none;stroke-width:34;stroke-linecap:butt"/></g></g></g></svg>