<svg xmlns="http://www.w3.org/2000/svg" xml:space="preserve" width="75.589" height="60.475" style="font-size:12px;overflow:visible;color-interpolation-filters:sRGB;fill-rule:evenodd;stroke-linecap:square;stroke-miterlimit:3" viewBox="0 0 56.691 45.357"><defs><linearGradient id="a" x1="0" x2="24.834" y1="120.517" y2="120.517" gradientTransform="scale(1.2821 .77997)" gradientUnits="userSpaceOnUse"><stop offset="0" stop-color="#32bedd"/><stop offset=".18" stop-color="#32caea"/><stop offset=".41" stop-color="#32d2f2"/><stop offset=".78" stop-color="#32d4f5"/></linearGradient></defs><g transform="translate(-34 -33.998)"><title>Page-1</title><g transform="translate(34 -34.016)"><title>IP Group.19155</title><title>Sheet.19156</title><g transform="translate(0 -18.983)"><title>Sheet.19157</title><path d="M0 94h31.84v18.27a1.07 1.101 0 0 1-1.07 1.1H1.07a1.07 1.101 0 0 1-1.07-1.1Z" style="fill:#83b9f9;stroke:none;stroke-width:34;stroke-linecap:butt"/></g><g transform="translate(0 -38.357)"><title>Sheet.19158</title><path d="M1.07 106.37h29.7a1.07 1.101 0 0 1 1.07 1.1v5.9H0v-5.9a1.07 1.101 0 0 1 1.07-1.1" style="fill:#1f56a3;stroke:none;stroke-width:34;stroke-linecap:butt"/></g><g transform="translate(4.282 -40.428)"><title>Sheet.19159</title><path d="M0 112.82a.537.552-180 0 0 .537.552l22.203-.002a.537.552-180 0 0 .537-.552l-.007-1.718a.537.552-180 0 0-.537-.552L.54 110.55a.537.552-180 0 0-.537.552z" style="fill:#f2f2f2;stroke:none;stroke-width:34;stroke-linecap:butt"/></g><g transform="translate(12.41 -9.526)"><title>Sheet.19160</title><path d="M0 94h31.87v18.27a1.07 1.101 0 0 1-1.07 1.1H1.07a1.07 1.101 0 0 1-1.07-1.1Z" style="fill:#83b9f9;stroke:none;stroke-width:34;stroke-linecap:butt"/></g><g transform="translate(12.442 -28.896)"><title>Sheet.19161</title><path d="M1.04 106.4h29.7a1.07 1.101 0 0 1 1.07 1.1v5.87H0v-5.87a1.07 1.101 0 0 1 1.04-1.1" style="fill:#1f56a3;stroke:none;stroke-width:34;stroke-linecap:butt"/></g><g transform="translate(16.694 -30.937)"><title>Sheet.19162</title><path d="M0 112.82a.537.552-180 0 0 .537.552l22.203-.002a.537.552-180 0 0 .537-.552l-.007-1.718a.537.552-180 0 0-.537-.552L.54 110.55a.537.552-180 0 0-.537.552z" style="fill:#f2f2f2;stroke:none;stroke-width:34;stroke-linecap:butt"/></g><g transform="translate(24.852)"><title>Sheet.19163</title><path d="M0 94h31.84v18.27a1.07 1.101 0 0 1-1.07 1.1H1.07a1.07 1.101 0 0 1-1.07-1.1Z" style="fill:url(#a);stroke:none;stroke-width:34;stroke-linecap:butt"/></g><g transform="translate(24.852 -19.374)"><title>Sheet.19164</title><path d="M1.07 106.37h29.7a1.07 1.101 0 0 1 1.07 1.1v5.9H0v-5.9a1.07 1.101 0 0 1 1.07-1.1" style="fill:#0078d4;stroke:none;stroke-width:34;stroke-linecap:butt"/></g><g transform="translate(31.024 -8.23)"><title>Sheet.19165</title><g transform="translate(14.33)"><title>Sheet.19166</title><ellipse cx="2.581" cy="110.715" rx="2.581" ry="2.655" style="fill:#0078d4;stroke:none;stroke-width:34;stroke-linecap:butt"/></g><g transform="translate(7.277)"><title>Sheet.19167</title><ellipse cx="2.581" cy="110.715" rx="2.581" ry="2.655" style="fill:#0078d4;stroke:none;stroke-width:34;stroke-linecap:butt"/></g><title>Sheet.19168</title><ellipse cx="2.581" cy="110.715" rx="2.581" ry="2.655" style="fill:#0078d4;stroke:none;stroke-width:34;stroke-linecap:butt"/></g><g transform="translate(29.134 -21.446)"><title>Sheet.19169</title><path d="M0 112.82a.537.552-180 0 0 .537.552l22.203-.002a.537.552-180 0 0 .537-.552l-.007-1.718a.537.552-180 0 0-.537-.552L.54 110.55a.537.552-180 0 0-.537.552z" style="fill:#f2f2f2;stroke:none;stroke-width:34;stroke-linecap:butt"/></g></g></g></svg>