<svg xmlns="http://www.w3.org/2000/svg" xml:space="preserve" width="75.596" height="75.594" style="font-size:12px;overflow:visible;color-interpolation-filters:sRGB;fill-rule:evenodd;stroke-linecap:square;stroke-miterlimit:3" viewBox="0 0 56.697 56.696"><g transform="translate(-12.24 -12.238)"><title>Page-1</title><g transform="translate(12.24 -34.016)"><title>Load Balancer Backend Outbound Rule.19134</title><title>Sheet.19135</title><g transform="translate(16.328 -2.948)"><title>Sheet.19136</title><path d="M37.64 85.26H2.72C1.25 85.26 0 84.01 0 82.88s1.25-2.15 2.72-2.15h34.92c1.59 0 2.73.9 2.73 2.15 0 1.13-1.25 2.38-2.73 2.38m0 17.69H2.72c-1.47 0-2.72-1.25-2.72-2.38 0-1.14 1.25-2.16 2.72-2.16h34.92c1.48 0 2.73.91 2.73 2.16 0 1.13-1.25 2.38-2.73 2.38" style="fill:#a0a1a2;stroke:none;stroke-width:12.23999977;stroke-linecap:butt"/></g><title>Sheet.19137</title><path d="m0 79.36 1.93-2.04 3.97 3.97 8.05-7.94 1.92 2.05-9.97 9.86zm0 17.58 1.93-1.93 3.97 3.97 8.05-7.94 1.92 1.93-9.97 9.98z" style="fill:#b8d432;stroke:none;stroke-width:12.23999977;stroke-linecap:butt"/><g transform="translate(18.255 -34.696)"><title>Sheet.19138</title><path d="M7.82 87.53 0 95.01v-4.08l9.41-9.98 9.41 9.98v3.97l-7.71-7.37v15.42H7.82Z" style="fill:#0072c6;stroke:none;stroke-width:12.23999977;stroke-linecap:butt"/></g></g></g></svg>