<svg xmlns="http://www.w3.org/2000/svg" xml:space="preserve" width="75.596" height="75.594" style="font-size:12px;overflow:visible;color-interpolation-filters:sRGB;fill-rule:evenodd;stroke-linecap:square;stroke-miterlimit:3" viewBox="0 0 56.697 56.696"><g transform="translate(-12.24 -12.238)"><title>Page-1</title><g transform="translate(12.24 -34.016)"><title>Load Balancer Inbound NAT Rule.19096</title><title>Sheet.19097</title><title>Sheet.19098</title><path d="M54.43 46.26H2.27C1.02 46.26 0 47.28 0 48.52v52.16c0 1.25 1.02 2.27 2.27 2.27h52.16c1.24 0 2.26-1.02 2.26-2.27V48.52a2.27 2.27 0 0 0-2.26-2.26" style="fill:#a0a1a2;stroke:none;stroke-width:12.23999977;stroke-linecap:butt"/><g transform="translate(17.348 -3.402)"><title>Sheet.19099</title><path d="M11 74.49c3.74 0 7.37 1.47 10.09 4.19 5.56 5.56 5.56 14.52 0 20.07-2.72 2.72-6.24 4.2-10.09 4.2-3.74 0-7.37-1.48-10.09-4.2-.91-.9-.91-2.38 0-3.4.9-.91 2.38-.91 3.4 0 1.81 1.82 4.19 2.72 6.69 2.72 2.49 0 4.87-1.02 6.69-2.72 3.74-3.74 3.74-9.75 0-13.38-1.82-1.81-4.2-2.72-6.69-2.72-2.5 0-4.88 1.02-6.69 2.72-.91.91-2.38.91-3.4 0-.91-.9-.91-2.38 0-3.4 2.72-2.61 6.35-4.08 10.09-4.08" style="fill:#0072c6;stroke:none;stroke-width:12.23999977;stroke-linecap:butt"/></g><g transform="translate(23.13 -12.472)"><title>Sheet.19100</title><circle cx="5.102" cy="97.846" r="5.102" style="fill:#68217a;stroke:none;stroke-width:12.23999977;stroke-linecap:butt"/></g><g transform="translate(18.822 -34.696)"><title>Sheet.19101</title><path d="m11 96.37 7.82-7.48v4.08l-9.41 9.98L0 92.97V89l7.71 7.37V80.95H11Z" style="fill:#fff;stroke:none;stroke-width:12.23999977;stroke-linecap:butt"/></g><g transform="translate(0 -15.42)"><title>Sheet.19102</title><path d="M26.65 98.19H0v4.76h26.65c1.36 0 2.38-1.02 2.38-2.38s-1.02-2.38-2.38-2.38" style="fill:#68217a;stroke:none;stroke-width:12.23999977;stroke-linecap:butt"/></g><g transform="translate(38.098 -15.42)"><title>Sheet.19103</title><path d="M18.6 98.19H2.38c-1.36 0-2.38 1.02-2.38 2.38s1.02 2.38 2.38 2.38H18.6Z" style="fill:#0072c6;stroke:none;stroke-width:12.23999977;stroke-linecap:butt"/></g><title>Sheet.19104</title><path d="M2.27 46.26C1.02 46.26 0 47.28 0 48.52v52.16c0 1.25 1.02 2.27 2.27 2.27h2.49l44.68-56.69Z" style="fill:#fff;fill-opacity:.2;stroke:none;stroke-width:12.23999977;stroke-linecap:butt"/></g></g></svg>