<svg xmlns="http://www.w3.org/2000/svg" xml:space="preserve" width="75.592" height="75.595" style="font-size:12px;overflow:visible;color-interpolation-filters:sRGB;fill-rule:evenodd;stroke-linecap:square;stroke-miterlimit:3" viewBox="0 0 56.694 56.696"><defs><linearGradient id="a" x1="0" x2="56.696" y1="68.014" y2="68.014" gradientTransform="scale(.99998 1.00002)" gradientUnits="userSpaceOnUse"><stop offset="0" stop-color="#5e9624"/><stop offset=".02" stop-color="#5f9724"/><stop offset="1" stop-color="#76bc2d"/></linearGradient></defs><g transform="translate(-34 -34)"><title>Page-1</title><g transform="translate(34 -34.016)"><title>Load Balancer.19090</title><title>Sheet.19091</title><title>Sheet.19092</title><path d="m.57 94.99 26.42-26.41a1.92 1.92 0 0 1 2.72 0l26.42 26.41a1.92 1.92 0 0 1 0 2.72l-26.45 26.45a1.89 1.89 0 0 1-2.67 0L.56 97.71a1.92 1.92 0 0 1 .01-2.72" style="fill:url(#a);stroke:none;stroke-width:34;stroke-linecap:butt"/><g transform="translate(5.895 -21.95)"><title>Sheet.19093</title><path d="m29.38 102.59-6.68-6.68a.337.337-180 0 0-.479 0l-6.691 6.68a.34.34-180 0 0 .24.58h3.93a.34.34 0 0 1 .34.34v6.32a.34.34-180 0 0 .34.34h4.15a.34.34-180 0 0 .34-.34v-6.32a.34.34 0 0 1 .34-.34h3.93a.34.34-180 0 0 .246-.576zm-22.59 8.2L.1 117.47a.343.343-180 0 0 0 .482l6.68 6.678a.337.337-180 0 0 .58-.24v-3.92a.34.34 0 0 1 .34-.34h6.33a.34.34-180 0 0 .34-.34v-4.15a.34.34-180 0 0-.34-.34H7.71a.34.34 0 0 1-.34-.34v-3.93a.34.34-180 0 0-.58-.24m31.68 13.84 6.66-6.68a.343.343-180 0 0 0-.482l-6.66-6.678a.34.34-180 0 0-.583.24l-.007 3.93a.34.34 0 0 1-.34.34h-6.32a.34.34-180 0 0-.34.34v4.15a.34.34-180 0 0 .34.34h6.32a.34.34 0 0 1 .34.34v3.92a.34.34-180 0 0 .583.24z" style="fill:#b4ec36;stroke:none;stroke-width:34;stroke-linecap:butt"/></g><g transform="translate(23.088 -6.725)"><title>Sheet.19094</title><path d="M14.06 103.05a8.776 8.774-180 1 0-11.15 8.41v2.99a5.42 5.418-180 1 0 4.94.04v-3.09a8.748 8.746-180 0 0 6.21-8.35" style="fill:#fff;stroke:none;stroke-width:34;stroke-linecap:butt"/></g><g transform="translate(23.275 -23.283)"><title>Sheet.19095</title><ellipse cx="5.098" cy="119.612" rx="5.098" ry="5.097" style="fill:#5ea0ef;stroke:none;stroke-width:34;stroke-linecap:butt"/></g></g></g></svg>