<svg xmlns="http://www.w3.org/2000/svg" xml:space="preserve" width="68.026" height="75.587" style="font-size:12px;overflow:visible;color-interpolation-filters:sRGB;fill-rule:evenodd;stroke-linecap:square;stroke-miterlimit:3" viewBox="0 0 51.02 56.691"><defs><linearGradient id="a" x1="0" x2="19.606" y1="43.51" y2="43.51" gradientTransform="scale(.61307 1.63112)" gradientUnits="userSpaceOnUse"><stop offset="0" stop-color="#32bedd"/><stop offset=".18" stop-color="#32caea"/><stop offset=".41" stop-color="#32d2f2"/><stop offset=".78" stop-color="#32d4f5"/></linearGradient><linearGradient id="b" x1="0" x2="15.42" y1="87.528" y2="87.528" gradientUnits="userSpaceOnUse"><stop offset="0" stop-color="#1b93eb"/><stop offset="1" stop-color="#6bb9f2"/></linearGradient></defs><g transform="translate(-12.24 -12.243)"><title>Page-1</title><g transform="translate(12.24 -34.016)"><title>Load Balancer Health Probe.19105</title><title>g10</title><g transform="translate(19.502)"><title>path2</title><path d="M8.39 70.97H3.63L0 102.95h12.02z" style="fill:url(#a);stroke:none;stroke-width:12.23999977;stroke-linecap:butt"/></g><g transform="translate(8.164 -16.214)"><title>path4</title><path d="M34.7 87.98c0-9.64-7.71-17.46-17.35-17.46S0 78.34 0 87.98c0 6.35 3.4 11.91 8.62 14.97.56-.91 1.02-1.82 1.47-2.61-4.19-2.49-7.03-7.03-7.03-12.36 0-7.94 6.46-14.4 14.4-14.4s14.4 6.46 14.4 14.4c0 5.22-2.83 9.87-7.03 12.36.46.79 1.02 1.7 1.48 2.61 4.98-3.06 8.39-8.62 8.39-14.97" style="fill:#000;fill-opacity:.5;stroke:none;stroke-width:12.23999977;stroke-linecap:butt"/></g><g transform="translate(0 -9.07)"><title>path6</title><path d="M12.7 102.84c.45-.91 1.02-1.82 1.47-2.73C7.48 96.26 3.06 89 3.06 80.73c0-12.25 10.09-22.34 22.45-22.34s22.45 10.09 22.45 22.45c0 8.28-4.53 15.42-11.11 19.39.45.9 1.02 1.81 1.47 2.72 7.6-4.42 12.7-12.59 12.7-22 0-14.17-11.45-25.62-25.51-25.62S0 66.78 0 80.84c0 9.3 5.22 17.57 12.7 22" style="fill:#000;fill-opacity:.2;stroke:none;stroke-width:12.23999977;stroke-linecap:butt"/></g><g transform="translate(17.802 -23.358)"><title>circle8</title><circle cx="7.71" cy="95.238" r="7.71" style="fill:url(#b);stroke:none;stroke-width:12.23999977;stroke-linecap:butt"/></g></g></g></svg>