<svg xmlns="http://www.w3.org/2000/svg" xml:space="preserve" width="75.586" height="75.593" style="font-size:12px;overflow:visible;color-interpolation-filters:sRGB;fill-rule:evenodd;stroke-linecap:square;stroke-miterlimit:3" viewBox="0 0 56.69 56.695"><g transform="translate(-12.24 -12.239)"><title>Page-1</title><g transform="translate(12.24 -34.016)"><title>Local Network Gateway.19085</title><title>Sheet.19086</title><title>Sheet.19087</title><path d="M28.29 102.95c-1.36 0-2.72-.57-3.73-1.59L1.58 78.34C.57 77.32 0 75.96 0 74.6s.57-2.72 1.58-3.74l22.98-23.02a5.3 5.3 0 0 1 3.73-1.58c1.36 0 2.72.56 3.73 1.58l23.09 23.13c1.02 1.02 1.58 2.27 1.58 3.75 0 1.36-.56 2.72-1.58 3.74l-23.09 22.9c-1.01 1.02-2.37 1.59-3.73 1.59" style="fill:#57a300;stroke:none;stroke-width:12.23999977;stroke-linecap:butt"/><g transform="translate(0 -11.565)"><title>Sheet.19088</title><path d="M32.02 59.41c-1.01-1.02-2.37-1.59-3.73-1.59s-2.72.57-3.73 1.59L1.58 82.43C.57 83.45 0 84.81 0 86.17s.57 2.72 1.58 3.74l13.02 13.04 24.55-36.4z" style="fill:#fff;fill-opacity:.15;stroke:none;stroke-width:12.23999977;stroke-linecap:butt"/></g><g transform="translate(7.242 -4.989)"><title>Sheet.19089</title><path d="m21.05 56.23-7.47 7.49h5.32V74.6h4.41V63.72h5.21zm0 46.72 7.47-7.48H23.2V84.81h-4.42v10.66h-5.2zm3.51-23.36 7.46 7.48v-5.21H42.1v-4.54H32.02v-5.21zm-6.91 0-7.47-7.48v5.21H0v4.54h10.18v5.21z" style="fill:#fff;stroke:none;stroke-width:12.23999977;stroke-linecap:butt"/></g></g></g></svg>