<svg xmlns="http://www.w3.org/2000/svg" xml:space="preserve" width="75.586" height="75.586" style="font-size:12px;overflow:visible;color-interpolation-filters:sRGB;fill-rule:evenodd;stroke-linecap:square;stroke-miterlimit:3" viewBox="0 0 56.69 56.69"><g transform="translate(-5.67 -5.674)"><title>Page-1</title><g transform="translate(5.67 -34.016)"><title>Mesh VPN.19077</title><title>Sheet.19078</title><title>Sheet.19079</title><g transform="translate(7.74 -7.764)"><title>Sheet.19080</title><path d="M19.71 55.53c-.28.14-.56.25-.61.25-.15 0-.44.18-.72.44-.15.14-.34.27-.43.3-.13.05-.17.12-.26.41-.09.33-.17.52-.46 1.05-.15.29-.16 1.3-.01 1.6l.23.45c.4.78.32 1.22-.33 1.9-.23.24-.43.46-.43.49s-.02.05-.05.05c-.08 0-3.69 3.61-3.69 3.69 0 .03-.02.05-.05.05-.06 0-3.69 3.61-3.69 3.66s-.15.2-.19.2c-.02 0-.64.61-1.38 1.35-1.53 1.53-1.52 1.52-2.21 1.4-.41-.08-.66-.17-.83-.32-.34-.31-1.52-.29-2 .03-.11.08-.41.21-.68.3-.43.14-.5.18-.57.33-.04.1-.19.3-.33.44-.3.31-.32.36-.48.83-.07.21-.2.51-.29.68-.25.48-.23.86.06 1.47.13.26.25.58.28.71.04.17.12.29.28.43.13.11.23.23.23.25 0 .1.77.78.91.81.08.02.41.1.74.2.63.17.98.2 1.3.1.48-.14 1.05-.28 1.18-.28.07 0 .18-.03.25-.06.2-.11.52-.07.81.09.44.24.48.28.48.35 0 .09.95 1.04 1.04 1.04.04 0 .12.08.18.17.13.24.95 1.05 1.09 1.1.06.02.15.1.19.19.11.2.89.98 1.09 1.08.08.05.17.13.19.19.04.14.88 1.01.97 1.01.03 0 .15.11.25.24.27.33 1 1.06 1.07 1.06.08 0 .23.15.23.23 0 .07.72.8 1.06 1.07.13.1.24.21.24.25 0 .09.87.93 1 .97.07.02.15.11.2.19.1.2.88.98 1.08 1.09.09.04.17.13.19.19s.19.26.37.44c.55.54.63 1.26.23 1.92-.28.47-.31.58-.32 1.19 0 .62-.01.61.34 1.25.07.14.14.3.14.35.01.24.24.66.39.7.08.02.26.16.41.31.28.27.47.39.87.51.27.08.73.3.76.36.05.1 1.05.04 1.2-.08.08-.06.18-.11.23-.11s.11-.02.14-.05c.03-.02.21-.09.39-.15.41-.13 1.62-1.26 1.62-1.5 0-.15.14-.64.29-1.03.1-.28.08-.75-.06-1.15-.1-.32-.23-.86-.23-1.01 0-.08-.02-.16-.06-.18-.03-.02-.05-.09-.05-.15s-.03-.11-.05-.11c-.09 0-.13-.19-.05-.25.04-.03.11-.15.15-.26s.11-.24.16-.29c.04-.05.07-.12.07-.15 0-.04.1-.13.23-.21s.25-.2.28-.27c.05-.15.19-.27.42-.38.09-.05.21-.18.27-.3s.15-.23.21-.25c.13-.05.35-.25.35-.33 0-.09.22-.3.45-.42.09-.05.22-.18.28-.29s.15-.22.22-.26c.19-.09.3-.21.36-.34.02-.08.17-.22.33-.32.15-.1.31-.25.35-.34.03-.09.15-.21.26-.28.11-.06.25-.21.32-.32.08-.12.23-.26.34-.32s.24-.19.29-.29.18-.24.29-.31.26-.22.34-.35c.08-.12.23-.26.34-.31.13-.06.25-.18.32-.32.06-.12.15-.23.2-.25.14-.05.35-.25.35-.33 0-.07.24-.31.32-.31.09 0 .27-.19.44-.44.08-.13.19-.24.23-.24.08 0 .32-.23.32-.32 0-.07.21-.26.41-.36.09-.04.2-.16.25-.26.04-.1.18-.25.3-.33.13-.08.26-.22.31-.31.05-.1.2-.24.34-.32.16-.09.27-.21.29-.29.02-.07.15-.21.29-.31.13-.09.28-.24.33-.33.09-.17.31-.33.65-.46.11-.04.23-.11.26-.15.06-.08.25-.05.25.05 0 .02.05.05.11.05s.13.02.15.05.1.06.19.06c.08 0 .42.08.74.17.63.18.98.21 1.31.11.46-.14 1.05-.28 1.16-.28.08 0 .26-.12.46-.33.53-.53.93-.96.93-1.02 0-.12.31-.96.4-1.1.11-.15.17-1.09.06-1.13-.05-.02-.4-.81-.4-.9 0-.15-.21-.5-.43-.71-.14-.13-.27-.33-.31-.44-.07-.17-.11-.2-.42-.29-.45-.13-.78-.26-.9-.38-.25-.22-1.41-.29-1.75-.1-.08.04-.25.14-.38.2-.44.25-1.05.35-1.39.24-.26-.08-.66-.36-.66-.46 0-.09-.87-.93-1.01-.97-.06-.02-.14-.11-.19-.19-.1-.2-.88-.99-1.08-1.09a.4.4 0 0 1-.19-.19c-.05-.14-.86-.96-1.1-1.09-.09-.06-.17-.14-.17-.18 0-.1-.95-1.04-1.04-1.04-.04 0-.12-.08-.18-.18-.13-.23-.95-1.04-1.09-1.09a.4.4 0 0 1-.19-.19c-.11-.2-.89-.98-1.09-1.08-.08-.05-.17-.13-.19-.2-.04-.13-.88-1-.97-1-.03 0-.15-.11-.25-.24-.27-.34-1-1.06-1.07-1.06-.09 0-.2-.13-.25-.27-.02-.06-.16-.22-.32-.35-.15-.14-.28-.28-.28-.32 0-.05-.02-.08-.04-.09-.06 0-.24-.32-.24-.42 0-.05-.03-.08-.07-.08s-.04-.03 0-.08c.03-.03.08-.21.12-.38.13-.58.24-.99.35-1.26.1-.27.08-.75-.06-1.15-.1-.29-.23-.85-.23-.98 0-.12-.71-.92-.82-.92-.03 0-.12-.08-.2-.19-.14-.19-.35-.32-.52-.32-.12 0-.41-.11-.85-.34-.5-.26-.84-.24-1.51.09m-.47 6.36c.39.11.72.36.85.66.09.22.08 9.4-.01 9.65-.15.38-.44.58-.85.59-.42 0-1.45.96-1.64 1.52-.14.44-.54 1.01-.75 1.09-.1.04-.22.09-.27.12-.14.07-8.89.07-8.89-.01 0-.03-.05-.05-.11-.05-.79 0-1.32-2.09-.62-2.4.09-.04.16-.09.16-.12 0-.11.28-.4.46-.47.15-.06.22-.14.28-.28.05-.14.15-.25.32-.35.13-.09.24-.19.25-.23 0-.1.31-.41.4-.41.11 0 .28-.14.28-.23 0-.12.24-.38.41-.44.09-.04.15-.1.15-.15 0-.13.31-.42.44-.42.08 0 .15-.07.21-.19.11-.24.34-.49.44-.5.04 0 .14-.11.23-.25.1-.16.21-.27.35-.32s.22-.13.27-.24c.08-.19.37-.49.49-.49a.07.07-180 0 0 .071-.072c-.001-.118.239-.378.449-.478.1-.06.24-.2.31-.32.07-.13.21-.27.33-.33s.21-.15.21-.19c0-.12.18-.31.38-.39.1-.05.22-.16.28-.27.1-.21.32-.42.48-.47.06-.02.12-.1.14-.17.04-.15.27-.37.4-.37.11 0 .25-.13.25-.24 0-.1.23-.36.37-.4.06-.02.16-.13.23-.25.06-.13.21-.27.35-.35.14-.07.28-.2.32-.28.08-.2.29-.41.39-.41.05 0 .14-.09.2-.21s.2-.27.33-.34c.12-.07.28-.22.36-.34.26-.38.48-.41 1.3-.2m3.87.03c.08.07.17.19.19.26s.13.17.24.22q.375.18.45.45c.02.08.1.15.22.19.14.05.21.12.3.31.08.16.17.26.3.32.23.09.34.2.44.43.05.12.12.19.18.19s.11.02.11.05.03.06.07.06c.08 0 .16.14.23.35.02.06.12.14.24.18.23.1.31.18.41.39.04.09.13.18.2.21.14.05.34.28.45.51.04.08.13.15.2.16.15.03.41.28.41.41 0 .06.1.15.24.22.18.09.27.18.32.33.05.13.13.22.25.28.26.11.35.19.46.41.06.11.17.22.26.25.11.04.21.15.28.3.08.16.17.26.3.31.22.09.27.14.38.36.05.09.16.2.26.25.18.09.32.26.37.43.02.07.13.17.25.23.29.15.33.19.42.42.05.1.12.18.18.18.13 0 .38.26.41.41.01.08.09.16.21.22.21.1.38.26.48.46.03.07.15.17.27.23.13.07.24.19.31.34.07.16.15.24.23.26.15.02.41.27.41.41 0 .05.08.13.19.18.73.35.36 2.18-.48 2.35-.09.02-.18.05-.19.08-.05.07-8.87.06-8.87-.01 0-.03-.05-.05-.11-.05-.43 0-.77-.33-.89-.84-.12-.47-.19-.64-.31-.68-.08-.04-.28-.24-.28-.29 0-.06-.26-.35-.32-.35-.03 0-.11-.08-.18-.17-.17-.22-.4-.34-.64-.34-.32 0-.65-.21-.8-.5l-.13-.26v-4.68c0-5.21-.02-4.86.39-5.19.45-.36 1.4-.5 1.69-.24m-6.44 14.4c.42.11.8.61.98 1.31.09.34.13.41.29.5.26.13.38.26.42.42.02.09.08.14.15.14.06 0 .16.02.21.05.06.03.26.11.46.18a2 2 0 0 1 .53.29c.09.08.19.16.21.16.23 0 .39 9.28.17 9.71-.41.8-1.88 1.05-2.15.36-.03-.08-.15-.19-.26-.24-.27-.13-.32-.18-.41-.41-.05-.11-.12-.18-.18-.18-.13 0-.38-.26-.41-.42-.01-.07-.09-.16-.21-.21a.98.98 0 0 1-.48-.46c-.03-.07-.15-.17-.27-.23a.76.76 0 0 1-.31-.35c-.07-.15-.15-.24-.23-.25-.15-.02-.41-.28-.41-.4 0-.06-.07-.14-.16-.18-.24-.12-.36-.23-.44-.43a.46.46 0 0 0-.26-.25c-.22-.09-.38-.25-.43-.43-.02-.08-.1-.15-.22-.19-.14-.05-.21-.13-.3-.31-.08-.17-.17-.26-.3-.32-.23-.09-.34-.21-.44-.44-.05-.11-.11-.18-.18-.18-.06 0-.11-.02-.11-.05 0-.04-.03-.06-.07-.06-.07 0-.16-.14-.23-.35-.02-.06-.12-.14-.24-.19-.23-.1-.31-.17-.41-.38a.46.46 0 0 0-.2-.21c-.14-.05-.34-.28-.45-.52-.04-.07-.13-.15-.19-.15-.16-.03-.42-.28-.42-.41 0-.06-.1-.15-.24-.22-.18-.1-.27-.19-.32-.33a.47.47 0 0 0-.25-.28c-.26-.11-.35-.19-.46-.41a.65.65 0 0 0-.26-.26c-.11-.04-.21-.14-.28-.29a.54.54 0 0 0-.3-.31c-.22-.09-.27-.14-.38-.35a.6.6 0 0 0-.23-.25c-.74-.47-.43-2 .46-2.21.38-.1 8.87-.1 9.21-.01m17.03-.01c.97.23 1.3 1.72.48 2.14-.07.03-.18.18-.24.32-.07.15-.17.26-.25.29-.15.04-.38.24-.38.32 0 .07-.12.17-.31.27-.09.04-.21.18-.28.31-.12.24-.22.34-.42.43-.07.03-.2.15-.28.27-.09.12-.23.25-.31.28-.11.04-.19.14-.25.29a.6.6 0 0 1-.27.33c-.1.05-.3.21-.44.35-.14.15-.31.3-.37.35-.07.04-.16.18-.22.3-.07.14-.17.24-.29.29-.1.04-.25.17-.32.28s-.21.24-.32.29a.7.7 0 0 0-.27.27c-.11.26-.21.37-.38.44-.08.03-.22.15-.31.28-.08.12-.23.26-.33.3a.76.76 0 0 0-.3.35c-.08.18-.16.27-.26.29-.08.02-.23.14-.34.26-.1.13-.27.29-.37.36-.1.08-.23.24-.28.36-.07.15-.17.25-.31.32a.8.8 0 0 0-.31.26c-.05.09-.18.21-.3.28-.13.07-.25.21-.32.36-.08.16-.19.27-.32.34-.11.05-.25.18-.32.29-.08.11-.22.24-.32.29-.12.06-.23.17-.31.34-.07.16-.17.28-.26.32-.08.03-.28.19-.44.36l-.28.31h-.48c-.63-.01-1.01-.18-1.24-.57l-.15-.25v-4.62c0-4.14.01-4.64.09-4.78.1-.17.58-.61.66-.61.23 0 1.08-.46 1.09-.59 0-.02.04-.08.07-.12.55-.58.63-.7.73-1.11.13-.5.34-.73.78-.83.4-.08 8.87-.09 9.25-.01" style="fill:#f4fafb;stroke:none;stroke-width:1.52999997;stroke-linecap:butt"/></g><g transform="translate(7.59 -7.628)"><title>Sheet.19081</title><path d="M19.9 55.02c-.08.02-.24.11-.37.18-.12.08-.31.18-.42.22s-.24.11-.29.15c-.04.04-.12.08-.16.08-.14 0-.9.75-.99.98-.24.57-.34.77-.38.77-.15 0-.22.39-.22 1.28v.92l.19.28c.47.71.47 1.08-.01 1.55-.12.11-.26.27-.32.35-.06.09-.14.16-.17.16s-.11.07-.17.15c-.06.09-.19.22-.28.3s-.41.4-.71.71-.59.6-.65.65c-.14.12-.32.3-.43.43-.05.06-.17.18-.26.26s-.2.2-.25.26c-.05.05-.25.24-.44.41-.19.18-.35.34-.35.36 0 .06-.15.21-.2.21s-.31.27-.31.33c0 .02-.07.09-.16.15-.17.13-.4.36-.67.66-.1.11-.23.23-.29.28-.05.05-.18.18-.27.29-.1.11-.21.21-.27.23-.05.02-.16.14-.25.25-.09.12-.19.24-.22.26-.08.05-1.11 1.08-1.22 1.21-.05.06-.16.16-.24.22-.09.07-.16.14-.16.17 0 .04-.08.13-.18.2-.21.17-1.13 1.1-1.28 1.29-.05.07-.12.13-.15.13s-.14.09-.23.21c-.09.11-.22.24-.27.29a13 13-180 0 0-.35.34c-.34.33-.48.37-.89.27-.32-.08-.61-.23-.61-.31 0-.19-1.92-.26-2.3-.08-.11.05-.2.11-.2.13s-.11.09-.24.14c-.71.31-.84.38-.9.5-.04.07-.18.25-.33.41-.14.16-.29.33-.33.4-.15.26-.49.98-.56 1.19-.14.43-.07 1.76.1 1.9.03.03.16.27.28.54.11.22.46.7.63.85a2 2 0 0 1 .25.26c.15.2.5.41.88.52.17.06.37.13.42.17.22.15.68.26 1.06.26.36 0 .58-.05 1.07-.27.1-.04.41-.14.68-.21l.48-.13.29.16c.15.09.41.32.56.5.16.18.38.41.51.52.12.11.42.4.66.65s.47.5.52.54c.1.09 1.03 1.02 1.21 1.21.06.06.29.29.53.51.23.22.51.51.62.64.11.12.4.4.63.62s.5.48.6.59.38.4.62.63c.64.62 1.07 1.04 1.52 1.53.22.23.5.51.63.62.12.11.41.39.63.63.52.54.53.55 1.04 1.03.89.86 1.11 1.19 1.05 1.56-.05.26-.25.75-.31.75-.16 0-.23.38-.23 1.28v.92l.19.27c.1.16.22.37.26.48.17.44.31.68.42.74.07.04.25.19.41.33.18.17.53.39.96.6l.68.34h.77l.76-.01.54-.28c.89-.46 1.87-1.34 1.87-1.68 0-.1.12-.4.32-.81.26-.54.23-1.68-.04-1.9-.05-.03-.28-.72-.28-.84 0-.05-.04-.15-.08-.22-.17-.32 0-.51 3.9-4.41 2.01-2.01 3.68-3.65 3.72-3.65a.06.06-180 0 0 .06-.06c0-.04.78-.85 1.74-1.81 1.92-1.92 2.14-2.09 2.51-1.95.11.03.34.11.52.16.17.05.36.12.42.16.22.15.68.26 1.05.26.36 0 .59-.05 1.06-.26.1-.04.33-.13.51-.19.47-.15.66-.26.82-.47a8 8 0 0 1 .33-.39c.35-.37.4-.46.54-.78a9 9 0 0 1 .29-.6c.2-.36.24-1.8.06-2-.06-.06-.1-.13-.1-.17s-.02-.07-.04-.07c-.03 0-.08-.08-.12-.18-.18-.44-.39-.82-.52-.95-.08-.08-.22-.24-.31-.36-.17-.22-.39-.36-.81-.49a1 1 0 0 1-.37-.2c-.39-.36-2.35-.38-2.59-.03-.34.48-1.27.4-1.74-.16a8 8-180 0 0-.5-.52c-.15-.14-.75-.74-1.34-1.33s-1.09-1.1-1.11-1.12c-.03-.02-.3-.3-.61-.61-.7-.7-.64-.64-1.34-1.33-.31-.31-.58-.59-.61-.61-.02-.03-.52-.52-1.12-1.11-.59-.59-1.15-1.16-1.25-1.26-.1-.11-.38-.39-.62-.62-.25-.24-.53-.52-.63-.63s-.38-.39-.62-.62c-.54-.51-.99-1-.99-1.08 0-.03-.02-.05-.04-.05-.1 0-.17-.28-.13-.47l.12-.44c.04-.14.15-.42.24-.62.28-.56.26-1.71-.02-1.93-.02-.02-.1-.21-.17-.43a3 3 0 0 0-.17-.48 2 2 0 0 1-.1-.2c-.05-.11-.37-.42-.44-.42-.02 0-.08-.06-.14-.14-.16-.2-.61-.51-.9-.62a2.5 2.5 0 0 1-.4-.2c-.32-.21-1.52-.32-1.99-.18m1.47.28c.45.23.73.35.85.35.17 0 .38.12.52.32.08.1.17.19.2.19.11 0 .82.79.82.92 0 .12.13.68.23.98.14.4.16.87.06 1.15-.11.27-.22.68-.35 1.26-.04.17-.09.34-.12.38-.04.05-.04.07 0 .07s.07.04.07.08c0 .1.18.43.24.43.02 0 .04.04.04.08s.13.19.28.32c.16.13.3.3.32.36.05.14.16.26.25.26.07 0 .8.73 1.07 1.07.1.13.22.23.25.23.09 0 .93.88.97 1.01.02.06.11.15.19.19.2.1.98.88 1.09 1.09.04.08.13.17.19.19.14.04.96.86 1.09 1.09.06.1.14.18.18.18.09 0 1.04.94 1.04 1.03 0 .04.08.12.17.18.24.14 1.05.95 1.1 1.09.02.07.1.15.19.2.2.1.98.88 1.08 1.08.05.09.13.17.19.19.14.04 1.01.89 1.01.97 0 .1.4.39.66.47.34.11.95 0 1.39-.24l.38-.21c.34-.18 1.5-.12 1.75.11.12.11.45.25.9.37.31.09.35.12.42.3.04.11.18.3.31.43.22.22.43.56.43.71 0 .09.35.88.41.9.1.05.04.98-.07 1.14-.09.13-.4.97-.4 1.1 0 .05-.4.49-.93 1.01-.2.21-.38.33-.46.33-.11 0-.7.14-1.16.28-.33.1-.68.07-1.31-.11-.32-.09-.66-.17-.74-.17-.09 0-.17-.02-.19-.05s-.09-.06-.15-.06-.11-.02-.11-.05c0-.09-.19-.13-.25-.05-.03.04-.15.11-.26.16-.34.13-.56.29-.65.45-.05.09-.2.24-.33.34-.14.09-.27.23-.29.31s-.13.19-.29.28c-.14.09-.29.23-.34.32s-.18.24-.31.32c-.12.08-.26.22-.3.32-.05.1-.16.22-.25.27-.2.1-.41.28-.41.36s-.24.32-.32.32c-.04 0-.15.1-.23.24-.17.25-.35.43-.44.43-.08.01-.32.24-.32.32s-.21.28-.35.33c-.05.02-.14.13-.2.25-.07.13-.19.25-.32.31-.11.05-.26.2-.34.32s-.23.28-.34.34c-.11.07-.24.21-.29.31s-.18.23-.29.29-.26.21-.34.32c-.07.11-.21.26-.32.33-.11.06-.23.19-.26.27-.04.09-.2.24-.35.35-.16.1-.31.24-.33.31-.06.14-.17.25-.36.35-.07.03-.16.15-.22.26-.06.1-.19.24-.28.29-.23.12-.45.33-.45.41s-.22.29-.35.33c-.06.02-.15.13-.21.25s-.18.26-.27.3c-.23.12-.37.24-.42.38-.03.07-.15.19-.28.27s-.23.18-.23.21c0 .04-.03.11-.07.16-.05.05-.12.18-.16.29s-.11.22-.15.25c-.08.06-.04.26.05.26.02 0 .05.05.05.11s.02.12.05.14c.04.02.06.1.06.19 0 .15.13.69.23 1 .14.4.16.88.06 1.15-.15.39-.29.88-.29 1.03 0 .25-1.21 1.37-1.62 1.5-.18.06-.36.13-.39.16-.03.02-.09.05-.14.05s-.15.05-.23.11c-.15.11-1.15.17-1.2.07-.03-.06-.49-.28-.76-.36-.4-.12-.59-.23-.87-.51-.15-.15-.33-.29-.41-.31-.15-.03-.38-.46-.39-.7 0-.05-.07-.2-.14-.35-.35-.64-.34-.62-.34-1.24.01-.62.04-.73.32-1.19.4-.66.32-1.39-.23-1.93-.18-.18-.35-.37-.37-.44a.4.4 0 0 0-.19-.19c-.2-.1-.98-.88-1.08-1.08-.05-.09-.13-.18-.2-.19-.13-.05-1-.89-1-.98 0-.03-.11-.14-.24-.25-.33-.26-1.06-1-1.06-1.07 0-.08-.15-.22-.23-.22-.07 0-.8-.73-1.07-1.07-.1-.13-.22-.24-.25-.24-.09 0-.93-.87-.97-1a.43.43 0 0 0-.19-.19c-.2-.11-.98-.89-1.09-1.09a.43.43 0 0 0-.19-.19c-.14-.04-.95-.86-1.09-1.09-.06-.1-.14-.18-.18-.18-.09 0-1.04-.94-1.04-1.03 0-.08-.04-.11-.48-.35-.29-.17-.61-.2-.81-.1-.07.04-.18.06-.25.06-.13 0-.7.14-1.18.28-.32.1-.67.07-1.3-.1-.33-.09-.66-.18-.74-.2-.14-.03-.91-.71-.91-.8 0-.03-.1-.14-.23-.25a.8.8 0 0 1-.28-.44 4 4 0 0 0-.28-.71c-.29-.61-.31-.99-.06-1.46.09-.17.22-.48.29-.68.16-.48.18-.52.48-.83.14-.15.29-.34.33-.44.07-.16.14-.2.57-.34.27-.09.58-.22.68-.29.48-.32 1.66-.34 2-.03.17.14.42.24.83.31.69.12.68.13 2.21-1.4.74-.74 1.36-1.35 1.38-1.35.04 0 .19-.15.19-.19 0-.06 3.63-3.66 3.69-3.66.03 0 .05-.03.05-.06 0-.07 3.61-3.68 3.69-3.68.03 0 .05-.03.05-.05 0-.03.2-.25.43-.5.65-.68.73-1.11.33-1.89l-.23-.45c-.15-.3-.14-1.31.01-1.6.29-.54.37-.72.46-1.05.09-.3.13-.36.26-.41.09-.03.28-.17.43-.31.28-.26.57-.43.72-.43.05 0 .33-.12.62-.26.66-.32 1-.34 1.5-.09m-2.99 6.37c-.08.04-.21.17-.29.29s-.24.27-.36.34c-.13.07-.27.21-.33.33s-.15.22-.19.22c-.11 0-.32.21-.4.4-.04.08-.18.21-.32.29s-.29.21-.35.34c-.07.12-.17.23-.23.25-.14.04-.37.3-.37.41 0 .1-.14.23-.25.23-.13 0-.36.22-.4.38-.02.07-.08.14-.14.16-.16.05-.38.27-.48.48-.06.1-.18.22-.28.26-.2.09-.38.27-.38.39 0 .05-.09.13-.21.19s-.26.2-.33.33c-.07.12-.21.27-.31.32-.21.11-.45.37-.45.49a.07.07 0 0 1-.071.072c-.119-.002-.409.288-.489.478-.05.12-.13.2-.27.25s-.25.15-.35.32c-.09.14-.19.25-.23.25-.1 0-.33.25-.44.5-.06.11-.13.18-.21.18-.13 0-.44.3-.44.43 0 .04-.06.11-.15.14-.17.07-.41.33-.41.44 0 .1-.17.23-.28.24-.09 0-.4.31-.4.4-.01.05-.12.15-.25.23-.17.1-.27.21-.32.35a.45.45 0 0 1-.28.29c-.18.07-.46.35-.46.47 0 .02-.07.08-.16.12-.7.31-.17 2.39.62 2.39.06 0 .11.03.11.06 0 .07 8.75.07 8.89 0 .05-.03.17-.08.27-.11.21-.09.61-.66.75-1.1.19-.56 1.22-1.51 1.64-1.52.41 0 .7-.21.85-.59.09-.25.1-9.42.01-9.65-.22-.5-1.4-.97-1.86-.74m3.66.1c-.34.12-.63.34-.76.58-.09.17-.1.51-.1 4.86v4.68l.13.26c.15.29.49.51.8.51.24 0 .47.12.64.33.07.1.15.17.18.17.06.01.32.29.32.35s.2.26.29.29c.11.04.18.22.3.68.12.52.46.84.89.84.06 0 .11.03.11.06 0 .07 8.82.08 8.87 0 .01-.02.1-.06.19-.08.84-.17 1.21-1.99.48-2.34-.11-.05-.19-.13-.19-.19 0-.13-.26-.39-.41-.41-.08-.01-.16-.1-.23-.25a.7.7 0 0 0-.31-.34c-.12-.06-.24-.17-.27-.24a.96.96 0 0 0-.48-.45c-.12-.06-.2-.15-.21-.22-.03-.16-.28-.42-.41-.42-.06 0-.13-.07-.18-.18-.09-.23-.13-.27-.41-.41-.13-.07-.24-.17-.26-.23a.76.76 0 0 0-.37-.44.7.7 0 0 1-.26-.25c-.11-.21-.16-.26-.38-.35a.6.6 0 0 1-.3-.31c-.07-.16-.17-.26-.28-.3a.7.7 0 0 1-.26-.25c-.11-.22-.2-.31-.46-.42a.44.44 0 0 1-.25-.28c-.05-.14-.14-.23-.32-.32-.14-.08-.24-.17-.24-.23 0-.12-.26-.38-.41-.4-.07-.01-.16-.08-.2-.16-.11-.24-.31-.46-.45-.52-.07-.02-.16-.12-.2-.2-.1-.22-.18-.29-.41-.39-.11-.05-.22-.13-.24-.18-.07-.22-.15-.36-.23-.36-.04 0-.07-.02-.07-.05s-.05-.06-.11-.06-.13-.07-.18-.18a.74.74 0 0 0-.44-.44c-.13-.05-.22-.15-.3-.32-.09-.18-.16-.26-.3-.31-.12-.04-.2-.11-.22-.19-.05-.18-.2-.33-.44-.44-.12-.06-.23-.15-.25-.23-.12-.38-.77-.51-1.41-.27m-3.04.15c.33.06.87.38 1 .58l.13.19v4.5c0 5.36.07 4.94-.82 5.23-.19.06-.42.14-.51.19-.18.08-1.05.91-1.05 1 0 .03-.03.09-.07.13s-.11.17-.16.28c-.15.36-.46.84-.63.99l-.17.14-4.49-.01c-4.26-.02-4.5-.02-4.6-.12-.13-.14-.37-.49-.37-.55 0-.03-.02-.06-.04-.06-.06 0-.18-.28-.18-.41 0-.06-.03-.21-.07-.33-.06-.22-.06-.22.19-.47.14-.14.29-.3.34-.36.04-.06.21-.22.37-.35.17-.13.3-.27.3-.32 0-.04.02-.08.05-.08.02 0 .17-.13.32-.29.49-.5.55-.56.62-.56.03 0 .15-.13.26-.27.11-.15.23-.29.27-.32.11-.07.41-.39.41-.43 0-.03.12-.13.28-.24.16-.1.28-.22.28-.25s.15-.2.33-.38c.18-.17.38-.38.44-.46s.14-.15.17-.15.26-.22.51-.49.52-.54.59-.61c.08-.06.36-.35.63-.63s.55-.56.62-.62c.47-.44 1.19-1.18 1.19-1.22 0-.02.13-.14.29-.25.16-.12.31-.26.32-.32.02-.06.05-.11.07-.11.06 0 .57-.5.57-.55 0-.03.11-.13.24-.23.13-.09.32-.27.41-.4.1-.13.2-.23.23-.24.03 0 .12-.08.2-.17.08-.1.2-.23.28-.3s.28-.27.45-.45c.27-.28.34-.32.47-.3zm4.18.14c.09.1.21.22.27.27s.34.33.64.63l.56.58c.48.46 1.11 1.1 1.25 1.26.1.11.22.2.26.2s.16.13.27.28c.1.16.22.28.25.29.03 0 .13.09.23.2.26.32.63.65.72.65.02 0 .04.03.04.06 0 .04.15.21.33.39s.38.39.44.47c.06.09.13.16.16.16s.28.23.55.52l.56.58c.39.35 1.14 1.12 1.14 1.16 0 .03.08.11.18.18.23.16.94.87 1.11 1.11.07.1.16.19.19.19.08 0 .45.35.45.43 0 .04.02.08.05.08s.18.12.33.28l.34.35.39.38c.16.16.3.32.3.35s.03.06.06.06.13.06.21.14c.26.26-.12 1.41-.57 1.71l-.19.13-4.47-.01-4.48-.02-.26-.17c-.28-.17-.34-.26-.5-.77-.08-.27-.15-.39-.37-.64l-.33-.39c-.27-.31-.75-.66-.91-.66-.34 0-.76-.32-.95-.71-.13-.29-.17-8.85-.04-9.11.33-.64 1.44-1.01 1.79-.61M7.61 76.19c-.89.22-1.2 1.74-.46 2.21.09.05.19.17.23.25.11.21.16.26.38.35.13.05.23.15.3.31s.17.26.28.3c.09.03.2.15.26.25.11.22.21.3.46.42.12.05.2.14.25.27.05.15.14.24.32.33.14.07.24.17.24.22 0 .13.26.39.42.41.06.01.15.08.19.16.11.23.31.46.45.51.07.03.16.12.2.21.1.21.18.29.41.39.12.05.22.13.24.18.07.22.16.35.23.35.04 0 .07.03.07.06s.05.06.11.06c.07 0 .13.07.18.18.1.23.21.34.44.44.13.05.22.15.3.32.09.18.17.26.3.3.12.04.2.11.22.19.05.19.21.35.43.44.12.05.22.14.26.25.08.19.2.31.44.43.09.04.16.12.16.17 0 .13.26.38.41.41.08.01.16.09.23.25.07.15.18.27.31.34.12.06.24.16.27.23.1.2.26.36.48.46.12.06.2.14.21.22.03.15.28.41.41.41.06 0 .13.08.18.19.09.23.14.27.41.4.11.06.23.16.26.24.27.69 1.74.45 2.15-.36.22-.43.06-9.71-.17-9.71-.02 0-.12-.07-.21-.16-.1-.09-.33-.22-.53-.29-.2-.06-.4-.14-.46-.17a.5.5 0 0 0-.21-.06c-.07 0-.12-.05-.15-.14-.04-.16-.16-.28-.42-.42-.16-.08-.2-.15-.29-.49-.18-.7-.56-1.2-.98-1.32-.34-.09-8.83-.08-9.21.01m16.99 0c-.44.09-.65.32-.78.82-.1.42-.18.54-.73 1.12-.03.04-.07.09-.07.12-.01.13-.86.58-1.09.58-.08 0-.56.45-.66.61-.08.14-.09.64-.09 4.78v4.62l.15.26c.23.38.61.56 1.24.56h.48l.29-.31c.15-.16.35-.33.43-.36.09-.03.19-.15.26-.31.09-.17.19-.29.31-.35.1-.05.24-.18.32-.29.07-.1.21-.24.32-.29.13-.06.24-.17.32-.34.07-.15.19-.28.32-.36.12-.06.25-.19.3-.28.06-.08.19-.2.31-.26.14-.07.24-.17.31-.32.05-.12.18-.28.28-.35.1-.08.27-.24.37-.36.11-.12.26-.24.34-.26.1-.03.18-.12.27-.3.07-.16.18-.29.29-.34.1-.05.25-.19.33-.31.09-.12.23-.25.31-.28.17-.07.27-.18.38-.43.05-.1.16-.22.27-.27s.25-.18.32-.29.22-.24.32-.28a.65.65 0 0 0 .29-.3c.06-.12.15-.25.22-.3.06-.04.23-.2.37-.34.14-.15.34-.31.44-.36.11-.06.21-.17.27-.32.06-.16.14-.26.25-.29.08-.04.22-.16.31-.28.08-.13.21-.25.28-.28.2-.08.3-.18.43-.43.06-.12.18-.26.27-.31.19-.1.31-.19.31-.26 0-.08.24-.28.38-.33.08-.02.18-.14.25-.29.06-.14.17-.28.24-.31.82-.43.49-1.92-.48-2.14-.38-.09-8.85-.08-9.25.01m-7.6.36c.1.11.18.23.18.25 0 .03.07.14.15.24.07.11.14.23.14.27 0 .05.02.11.05.14.02.03.09.17.14.31.06.14.18.31.28.39.09.08.28.25.4.38.14.13.35.27.53.33.17.06.3.13.3.16 0 .02.03.04.06.04s.16.07.28.14c.12.08.25.14.29.14.07 0 .18.11.27.27.13.24.09 8.99-.04 9.21-.37.6-1.77.87-1.77.34 0-.03-.08-.11-.18-.18-.23-.16-.94-.87-1.11-1.12-.07-.1-.16-.18-.19-.18-.08 0-.45-.35-.45-.44 0-.04-.02-.07-.05-.07s-.18-.13-.33-.28l-.34-.36-.39-.37c-.17-.17-.3-.32-.3-.35s-.03-.06-.07-.06-.15-.09-.24-.21c-.1-.11-.22-.24-.29-.29-.06-.05-.34-.34-.63-.63l-.57-.58c-.48-.47-1.11-1.1-1.25-1.26-.1-.11-.22-.2-.26-.2s-.16-.13-.26-.29c-.11-.15-.23-.28-.26-.28s-.13-.09-.23-.2c-.26-.32-.63-.65-.72-.65-.02 0-.04-.03-.04-.06 0-.04-.15-.21-.33-.39s-.37-.39-.44-.48c-.06-.08-.13-.15-.16-.15s-.28-.23-.55-.52l-.56-.58c-.04-.03-.3-.29-.58-.56l-.51-.51.04-.37c.05-.5.25-.87.59-1.1.13-.09.52-.09 4.68-.1h4.53zm17-.05c.59.52.69 1.19.23 1.62-.13.13-.28.3-.32.39-.04.08-.1.15-.13.15-.1 0-1.01.88-1.15 1.12-.06.11-.16.2-.22.22-.13.05-1.05.97-1.05 1.07 0 .03-.08.11-.18.17-.24.14-.99.89-1.03 1.03-.02.06-.13.17-.25.25-.28.19-.93.84-1.03 1.02a.64.64 0 0 1-.24.25c-.19.11-.96.86-.96.93 0 .06-.28.35-.34.35-.09 0-.86.79-.99 1.01-.06.1-.14.18-.18.18-.09 0-1.02.92-1.06 1.06-.02.06-.11.15-.21.21-.24.14-1.13 1.05-1.13 1.15 0 .03-.11.12-.25.21s-.31.23-.37.32c-.32.45-1.48.12-1.73-.5-.07-.16-.09-.85-.09-4.56v-4.36l.16-.21c.14-.2.39-.38.78-.57.09-.04.3-.14.45-.22.48-.23 1.08-.95 1.29-1.54.15-.43.25-.57.49-.75l.21-.15h4.56l4.56-.01z" style="fill:#97e2ee;stroke:none;stroke-width:1.52999997;stroke-linecap:butt"/></g><g transform="translate(7.35 -7.263)"><title>Sheet.19082</title><path d="M20.26 54.46c-.05.01-.18.04-.3.06-.12.01-.29.1-.4.19-.1.08-.33.21-.51.29-.18.07-.44.23-.58.36s-.33.3-.44.39-.22.24-.26.39c-.05.14-.1.27-.13.3a.3.3 0 0 0-.04.14c0 .05-.05.12-.11.16-.27.16-.32.42-.32 1.58 0 1.14.03 1.28.28 1.51.3.27.33.95.05.95-.06 0-.3.24-.3.31 0 .02-.09.12-.2.22l-.27.24c-.04.04-.14.16-.23.28-.09.11-.22.23-.3.26a.54.54 0 0 0-.23.2c-.13.21-.34.42-.41.42-.03 0-.1.09-.17.19-.06.11-.24.29-.4.41-.16.11-.29.22-.29.25 0 .05-.26.32-.46.48a.65.65 0 0 0-.18.21c-.02.06-.16.19-.32.3-.15.12-.28.23-.28.25 0 .06-.93 1-1.1 1.1-.08.06-.17.15-.19.2-.05.11-.28.35-.34.35-.03 0-.1.07-.16.15-.24.33-.38.47-.52.54a.54.54 0 0 0-.21.18c-.09.16-.34.41-.48.49-.07.03-.12.09-.12.13 0 .09-.33.41-.47.45-.05.02-.14.11-.19.2-.06.08-.18.22-.27.3s-.19.17-.23.22c-.08.1-.42.44-.63.63-.09.08-.23.22-.31.32-.08.09-.19.2-.24.25-.05.04-.21.2-.35.34s-.31.3-.38.37c-.08.07-.32.32-.55.55-.27.29-.45.44-.54.44-.19-.01-.53-.14-.64-.26-.41-.44-2.82-.42-3.1.03-.03.06-.11.11-.15.11-.05 0-.12.02-.15.05s-.15.08-.28.12a.73.73-180 0 0-.369.27 3.2 3.2 0 0 1-.531.57c-.05.05-.17.24-.25.41s-.2.37-.27.44c-.44.46-.39 2.77.07 3.04.04.02.08.08.08.12 0 .16.31.63.62.94.17.18.36.39.43.47.1.12.71.38.91.38.04 0 .11.04.15.1.32.44 2.23.48 2.59.05.09-.11.64-.27.92-.27.13 0 .24.08.56.41a48 48-180 0 0 .56.58l1.22 1.22.55.55c.23.22.52.51.65.65s.45.46.71.71.54.53.62.61c.12.14 1.08 1.1 1.35 1.36l1.12 1.12.64.64.66.66.53.53c.24.22.53.52.66.66s.43.43.66.65c.63.61 1.01 1.06 1.01 1.21 0 .21-.13.54-.24.62-.25.19-.3.44-.3 1.58 0 1.15.03 1.28.3 1.52.07.07.13.16.13.2 0 .05.02.11.05.14.02.03.08.15.11.27.04.12.16.28.27.37.11.08.31.26.44.39.13.14.39.32.58.41s.38.2.42.24c.52.5 2.54.45 3.07-.08.06-.05.15-.1.2-.1.06 0 .16-.05.24-.11s.17-.11.19-.11c.07 0 .96-.9 1.03-1.05.04-.06.1-.24.14-.4.04-.15.15-.37.24-.47.22-.26.24-.38.24-1.29 0-.84-.03-.99-.29-1.26a.8.8 0 0 1-.15-.31 8 8-180 0 0-.09-.39c-.08-.33.06-.53 1.09-1.55.52-.52.95-.96.95-1 0-.03.02-.05.05-.05.07 0 1.36-1.3 1.36-1.37 0-.03.03-.05.06-.05.06 0 2.27-2.19 2.27-2.26 0-.02.07-.09.15-.15.09-.06.41-.37.71-.68s.58-.59.61-.62l1.22-1.22 1.22-1.22c.56-.54 1.25-1.24 1.25-1.27 0-.07.51-.31.64-.3.31.02.79.15.85.23.34.46 2.17.48 2.62.03.07-.07.18-.13.25-.13.11 0 .23-.05.6-.21.09-.04.23-.16.31-.26s.26-.3.41-.44.27-.29.27-.33.02-.07.04-.07c.03 0 .08-.08.12-.18.13-.33.18-.41.3-.56.4-.49.37-2.35-.04-2.82-.11-.11-.19-.24-.19-.28a.6.6 0 0 0-.05-.17c-.03-.05-.09-.17-.13-.27-.04-.09-.19-.27-.32-.4s-.24-.25-.24-.28c0-.1-.26-.29-.48-.37-.13-.04-.25-.09-.28-.12a.24.24 0 0 0-.14-.05c-.05 0-.14-.05-.2-.13-.41-.44-2.78-.44-3.11.01-.28.38-.76.31-1.24-.18-.21-.22-.45-.47-.54-.55l-.61-.61c-.25-.26-.57-.58-.71-.71s-.43-.42-.65-.65a62 62-180 0 0-.54-.55 459 459 0 0 1-2.47-2.47 62 62-180 0 0-.55-.54c-.23-.22-.52-.51-.65-.65s-.45-.46-.71-.71c-.26-.26-.54-.53-.61-.61-.08-.09-.39-.4-.7-.71l-.65-.65-.5-.48c-.85-.84-1.04-1.07-1.04-1.26 0-.31.12-.7.29-.89.22-.26.24-.39.24-1.3 0-.84-.03-.98-.29-1.26-.07-.08-.13-.18-.13-.23 0-.22-.24-.72-.41-.87-.1-.09-.33-.3-.5-.47-.31-.29-.7-.54-.88-.54a.13.13 0 0 1-.12-.08c-.09-.24-1.66-.49-2.23-.34m1.5.21c.13.04.29.12.37.17s.26.14.4.19c.29.12.74.43.9.62.06.08.12.14.14.14.07 0 .39.31.44.43.03.06.07.15.1.2.03.04.11.26.18.48s.14.41.16.42c.28.23.3 1.37.02 1.93-.09.2-.2.48-.24.62l-.12.45c-.04.19.03.46.13.46.02 0 .05.03.05.06 0 .07.44.56.98 1.07.24.24.52.52.62.63s.38.39.63.62c.24.24.53.51.62.62.1.11.66.68 1.26 1.26l1.11 1.11.61.61c.7.69.64.64 1.34 1.33.31.32.58.59.61.61.02.03.52.53 1.11 1.12.59.6 1.19 1.19 1.34 1.33a8 8 0 0 1 .5.53c.47.55 1.4.64 1.74.16.12-.18.41-.23 1.27-.23.91 0 1.07.03 1.32.26.07.06.23.15.37.19.42.14.64.27.81.5.09.11.23.28.31.35.13.13.34.52.52.95.04.1.09.19.12.19.02 0 .04.03.04.06 0 .04.04.12.1.18.18.2.14 1.64-.06 2a9 9-180 0 0-.29.6c-.13.32-.19.4-.54.78a8 8-180 0 0-.33.39c-.16.2-.35.32-.82.47-.18.06-.41.14-.51.19-.47.2-.7.26-1.06.26-.37 0-.83-.11-1.05-.26a2 2 0 0 0-.42-.17 13 13 0 0 1-.52-.16c-.37-.13-.59.04-2.51 1.96-.96.96-1.74 1.77-1.74 1.8s-.03.06-.06.06-1.71 1.65-3.72 3.66c-3.9 3.9-4.07 4.09-3.89 4.4.04.07.07.17.07.22 0 .12.23.81.28.85.27.21.3 1.36.04 1.9-.2.4-.32.71-.32.81 0 .34-.98 1.22-1.87 1.68l-.54.28h-1.53l-.68-.33c-.43-.22-.78-.44-.96-.6-.16-.15-.34-.3-.41-.33-.11-.06-.25-.3-.42-.75-.04-.11-.16-.32-.26-.47l-.19-.28v-.92c0-.9.07-1.28.23-1.28.06 0 .26-.48.31-.75.06-.37-.16-.7-1.05-1.55-.51-.49-.52-.5-1.04-1.04-.22-.23-.51-.52-.63-.63-.13-.11-.41-.39-.63-.62-.45-.48-.88-.91-1.52-1.53-.24-.23-.52-.51-.62-.62s-.37-.38-.6-.6-.52-.5-.63-.62c-.11-.13-.39-.41-.62-.64-.23-.22-.47-.45-.53-.51-.18-.19-1.11-1.12-1.21-1.2-.04-.05-.28-.29-.52-.54s-.54-.55-.66-.65c-.13-.11-.35-.35-.51-.53-.15-.18-.4-.4-.56-.49l-.29-.17-.48.13c-.27.07-.57.17-.68.22-.48.21-.71.27-1.07.27-.38 0-.84-.11-1.05-.26-.06-.04-.26-.12-.43-.17-.38-.12-.72-.33-.88-.53a2 2-180 0 0-.25-.26c-.17-.14-.52-.62-.63-.85-.12-.27-.25-.51-.28-.54-.17-.13-.24-1.47-.1-1.9.07-.21.41-.92.57-1.19.03-.06.18-.24.32-.4.15-.15.29-.34.33-.41.07-.12.19-.18.9-.49.13-.06.24-.12.24-.14s.09-.08.2-.14c.38-.17 2.3-.11 2.3.08 0 .08.29.23.61.31.41.11.55.07.89-.27a13 13 0 0 1 .35-.33c.06-.05.18-.19.27-.3.1-.11.2-.2.23-.2s.1-.06.15-.13c.15-.19 1.08-1.13 1.28-1.29.1-.08.18-.17.18-.2s.07-.11.16-.17c.08-.06.19-.16.24-.22.11-.13 1.14-1.16 1.22-1.22.03-.02.13-.13.22-.25s.2-.23.25-.25c.06-.02.17-.13.27-.24.09-.11.22-.23.27-.28.06-.05.19-.18.29-.29.27-.3.5-.53.67-.65.09-.06.16-.13.16-.16 0-.05.26-.32.31-.32s.2-.16.2-.21c0-.03.16-.19.35-.36s.39-.36.44-.42.16-.17.25-.25c.09-.09.21-.2.26-.26.11-.14.29-.32.43-.44.06-.05.35-.34.65-.65s.62-.63.71-.7c.09-.08.22-.22.28-.3.06-.09.14-.16.17-.16s.11-.07.17-.15c.06-.09.2-.25.32-.36.48-.46.48-.84.01-1.55l-.19-.27v-.92c0-.9.07-1.28.22-1.28.04 0 .14-.21.38-.77.09-.24.85-.99 1-.99.03 0 .11-.03.16-.07.04-.05.17-.11.28-.16.11-.04.3-.14.43-.21.39-.24 1.45-.33 1.98-.17m-3.32 7.11c-.17.18-.37.39-.45.45-.08.07-.2.2-.28.3s-.17.18-.2.18-.13.11-.23.23c-.09.13-.27.31-.41.41-.13.09-.24.19-.24.22 0 .06-.51.56-.57.56-.02 0-.05.04-.07.1-.01.06-.16.21-.32.32-.15.12-.29.23-.29.26s-.72.77-1.19 1.21c-.07.07-.35.35-.62.63s-.55.56-.63.63c-.07.06-.34.33-.59.6s-.48.5-.51.5-.11.06-.17.14-.26.29-.44.47c-.18.17-.32.34-.33.38 0 .03-.12.14-.28.25-.15.1-.28.21-.28.23 0 .05-.3.37-.41.44-.04.02-.16.16-.27.31s-.23.27-.26.27c-.07 0-.13.06-.61.56-.16.16-.3.29-.33.29s-.05.04-.05.09c0 .04-.13.19-.3.31-.16.13-.33.29-.37.35-.05.07-.2.23-.34.37-.25.24-.25.25-.19.46.04.12.07.27.07.33 0 .13.12.42.18.42.03 0 .04.02.04.05 0 .07.24.41.37.55.1.1.34.11 4.6.12l4.49.02.17-.15c.17-.14.48-.62.63-.99.05-.11.12-.23.16-.27s.07-.1.07-.13c0-.1.87-.93 1.05-1.01.09-.04.32-.13.51-.19.89-.28.82.14.82-5.22v-4.5l-.13-.19c-.13-.21-.67-.52-.99-.59-.1-.02-.25-.05-.34-.06-.13-.03-.2.01-.47.29m4.23-.21c-.37.06-.87.41-1.03.73-.14.26-.1 8.82.03 9.11.19.4.61.71.95.71.16 0 .64.35.91.67l.33.39c.22.24.29.36.37.64.16.5.22.59.5.77l.26.17 4.48.01 4.47.02.19-.13c.45-.31.83-1.45.57-1.71-.08-.08-.17-.15-.21-.15-.03 0-.06-.02-.06-.05s-.13-.19-.3-.36l-.39-.37-.34-.36c-.15-.15-.3-.28-.33-.28s-.05-.03-.05-.07c0-.09-.37-.44-.45-.44-.03 0-.12-.08-.19-.18-.17-.25-.88-.95-1.11-1.12-.1-.07-.18-.15-.18-.18 0-.04-.75-.81-1.13-1.15-.04-.04-.29-.3-.56-.59-.28-.28-.53-.52-.56-.52s-.1-.07-.16-.15c-.06-.09-.26-.3-.44-.48-.18-.17-.33-.35-.33-.38 0-.04-.02-.07-.04-.07-.09 0-.46-.33-.72-.64-.09-.12-.2-.21-.23-.21s-.14-.13-.25-.28c-.11-.16-.23-.28-.27-.28s-.15-.1-.26-.21c-.14-.16-.77-.79-1.24-1.26-.03-.02-.28-.28-.57-.58-.29-.29-.58-.58-.64-.63s-.18-.17-.27-.27c-.16-.18-.27-.2-.75-.12m-3.32.23c.08.04.16.09.17.11.07.07.29.17.4.17.35 0 .34-.11.34 4.75 0 4.77 0 4.78-.3 4.78-.05 0-.14.06-.22.13s-.27.17-.42.21-.3.09-.33.12-.09.05-.14.05c-.15 0-.99.92-1.14 1.25-.08.17-.17.33-.21.35-.09.06-.3.46-.3.56 0 .29.17.28-4.67.28H8.05l-.13-.13a.4.4 0 0 1-.13-.24c0-.07-.07-.2-.15-.28-.31-.34-.36-1-.06-1 .07 0 .32-.29.32-.37s.21-.25.3-.25.34-.26.4-.41c.02-.06.13-.17.26-.26.12-.08.26-.24.31-.34.06-.11.16-.21.26-.25.1-.03.25-.17.37-.33.11-.16.22-.28.25-.28s.16-.13.29-.3c.13-.16.32-.33.41-.38.09-.04.24-.19.31-.31.08-.13.21-.27.3-.31.08-.03.21-.17.28-.29.07-.13.17-.25.22-.27.2-.07.41-.25.49-.43.05-.1.18-.23.28-.29.11-.05.24-.18.28-.28.1-.21.19-.3.34-.32.06-.02.19-.14.29-.27.09-.14.22-.28.28-.32.14-.07.22-.16.4-.44.08-.12.21-.23.28-.25.14-.03.33-.21.39-.37.02-.06.11-.14.19-.2.21-.13.26-.18.36-.37.04-.09.18-.22.31-.29.13-.08.29-.25.37-.37.08-.13.17-.23.2-.23.09 0 .34-.25.41-.41.04-.08.16-.2.27-.25.13-.06.27-.2.36-.35.08-.13.17-.24.2-.24.07 0 .43-.35.43-.41 0-.08.17-.23.36-.32.1-.05.21-.15.24-.22.15-.3.37-.34.76-.13m4 .04c.09.18.26.36.34.36.09 0 .31.19.31.27 0 .09.17.29.35.4.08.05.24.21.34.35.11.14.26.26.33.28.09.02.18.11.25.25.06.12.19.27.29.32.1.06.25.22.35.36.09.13.26.28.37.34.12.05.23.16.27.26a.9.9 0 0 0 .42.42c.05.02.12.1.15.17.05.14.39.43.5.43.03 0 .12.11.2.25.08.13.25.31.37.4.13.08.23.18.23.22 0 .1.21.29.43.39.09.04.18.13.19.19.01.07.1.19.21.29.24.19.3.26.54.55.1.11.22.21.27.21.1 0 .16.06.35.38.06.1.17.21.24.24.07.02.2.15.29.28.09.14.24.28.34.32.12.05.23.15.28.26.09.19.34.45.43.45.03 0 .13.1.21.23.09.13.26.29.37.34.12.07.24.18.28.28a1 1 0 0 0 .32.34c.13.09.24.21.24.25 0 .09.35.4.51.45.06.02.16.13.21.24s.19.26.31.34c.25.17.25.39.02.76-.07.11-.15.3-.19.42-.15.47.3.43-4.77.43h-4.52l-.16-.16c-.28-.27-.37-.41-.46-.69-.04-.15-.11-.34-.15-.43-.12-.21-1.01-1.16-1.1-1.16-.04 0-.12-.02-.17-.05-.06-.03-.21-.08-.34-.12a.9.9 0 0 1-.36-.21c-.07-.07-.15-.13-.18-.13-.07 0-.18-.12-.26-.3-.08-.19-.1-8.94-.02-8.94.03 0 .07-.05.08-.11.02-.07.08-.13.14-.15.16-.05.44-.21.5-.29.15-.18.76-.16.85.02M7.84 76.08c-.34.23-.54.6-.59 1.09l-.04.38.51.5c.28.28.54.53.58.56l.56.58c.27.29.52.53.55.53s.1.06.16.15c.07.08.26.3.44.47.18.18.33.36.33.39s.02.06.04.06c.09 0 .46.33.72.65.1.11.2.2.23.21.03 0 .15.13.26.28s.23.28.26.28c.04 0 .16.09.26.2.14.16.77.8 1.25 1.26.02.02.28.29.57.58.29.3.57.58.64.63.06.05.18.19.28.3.09.11.2.2.24.2s.07.03.07.06.14.19.3.35l.39.38c.04.04.2.2.34.35.15.16.3.28.33.28s.06.04.06.08c0 .08.36.43.44.43.03 0 .12.09.19.19.17.24.88.95 1.11 1.11.1.07.18.15.18.18 0 .54 1.4.27 1.77-.34.13-.22.17-8.96.04-9.2-.09-.16-.2-.27-.27-.27-.04 0-.17-.06-.29-.14a1 1 0 0 0-.28-.14c-.03 0-.06-.02-.06-.05 0-.02-.13-.09-.3-.15s-.39-.2-.53-.34c-.12-.13-.31-.29-.4-.37-.1-.08-.22-.26-.28-.4-.05-.14-.12-.28-.14-.31a.2.2 0 0 1-.05-.13c0-.05-.06-.17-.14-.27s-.14-.21-.14-.24-.09-.15-.19-.26l-.19-.21-4.53.01c-4.16 0-4.55.01-4.68.1m16.89.05c-.24.18-.34.33-.49.75-.21.6-.81 1.32-1.29 1.55-.15.07-.36.17-.45.21-.39.19-.64.37-.78.57l-.16.21v4.37c0 3.7.02 4.39.09 4.56.26.62 1.41.94 1.73.49.06-.09.23-.23.37-.32s.25-.18.25-.2c0-.11.89-1.01 1.13-1.15.1-.06.19-.16.21-.22.04-.14.97-1.05 1.06-1.05.04 0 .12-.09.18-.19.13-.21.9-1 .99-1 .06 0 .34-.29.34-.36s.77-.81.96-.92c.09-.06.2-.17.24-.25.1-.18.75-.84 1.03-1.03.12-.07.23-.19.25-.25.04-.14.79-.88 1.03-1.02.1-.06.18-.14.18-.18 0-.09.92-1.02 1.05-1.06.06-.02.16-.12.22-.22.14-.24 1.05-1.12 1.15-1.12.03 0 .09-.07.13-.16.05-.08.19-.26.32-.38.46-.44.36-1.11-.23-1.63l-.18-.15h-9.12Zm-7.62.14c.05.07.09.17.09.21 0 .05.08.19.17.32.17.23.45.77.45.88 0 .07.17.23.36.33.08.05.15.1.15.12 0 .11.29.35.58.47.17.08.37.19.43.25.13.13.33.23.56.27.38.07.36-.15.36 4.68 0 4.82.01 4.65-.34 4.73-.1.02-.26.11-.36.2-.32.27-.73.27-.92-.01a.84.84 0 0 0-.33-.3.66.66 0 0 1-.28-.27c-.09-.19-.33-.44-.43-.44-.03 0-.13-.11-.21-.24-.09-.13-.26-.28-.37-.34a.63.63 0 0 1-.28-.28c-.04-.09-.18-.24-.31-.34-.14-.09-.25-.2-.25-.24 0-.1-.35-.41-.51-.46-.06-.02-.16-.12-.21-.23s-.2-.28-.34-.37c-.13-.09-.25-.2-.25-.23 0-.09-.23-.33-.31-.33-.09 0-.31-.2-.31-.28 0-.09-.17-.29-.35-.4-.08-.05-.23-.2-.34-.34-.1-.14-.25-.27-.33-.28-.09-.03-.18-.11-.25-.25-.06-.12-.19-.27-.28-.33-.1-.06-.26-.21-.36-.35-.09-.13-.26-.29-.37-.34a.53.53 0 0 1-.27-.26c-.07-.17-.25-.36-.41-.42-.06-.02-.13-.1-.15-.17-.06-.14-.39-.44-.5-.44-.04 0-.13-.11-.21-.24-.08-.14-.24-.32-.37-.4s-.23-.19-.23-.23c0-.09-.21-.28-.43-.38-.09-.04-.17-.13-.18-.2-.01-.06-.11-.19-.22-.28-.24-.19-.3-.26-.54-.55-.09-.12-.22-.21-.27-.21-.1 0-.15-.06-.34-.38a.8.8 0 0 0-.27-.26c-.21-.1-.23-.7-.04-.89.18-.19.25-.28.25-.35 0-.29-.17-.28 4.71-.28h4.52zm17.02-.04c.04.04.08.11.08.16s.09.17.2.28c.21.22.24.4.11.58-.05.06-.09.14-.09.18s-.07.14-.15.23c-.09.09-.2.23-.24.32-.05.09-.16.2-.25.25-.27.15-.92.82-1.02 1.04-.06.13-.16.22-.24.24-.16.04-.92.79-1.06 1.04-.05.11-.16.21-.24.24-.18.07-.8.69-1 1-.09.14-.2.25-.24.25-.12 0-.91.79-1 1-.04.1-.15.2-.25.25-.2.09-1 .88-1 .99 0 .05-.1.15-.24.24-.32.21-.94.83-1 1.01-.03.08-.14.19-.24.24-.26.14-1 .89-1.04 1.05-.02.09-.12.18-.24.24-.24.11-.9.76-1.04 1.02-.06.09-.17.21-.26.25-.09.05-.23.15-.3.23-.14.14-.4.26-.67.33-.09.02-.17-.01-.25-.1a1 1 0 0 0-.34-.21c-.41-.17-.39.09-.39-4.81 0-2.89.02-4.39.06-4.39.03 0 .06-.04.06-.08 0-.05.12-.13.26-.18.14-.06.32-.16.38-.23.07-.07.29-.2.5-.28.3-.12.43-.21.59-.42.12-.14.29-.33.38-.42.2-.18.28-.31.38-.68.05-.14.17-.36.27-.47.1-.12.19-.24.19-.27 0-.2.09-.2 4.72-.2 3.85-.01 4.54.01 4.61.08" style="fill:#61d6e6;stroke:none;stroke-width:1.52999997;stroke-linecap:butt"/></g><title>Sheet.19083</title><path d="M0 68.03v28.35h56.69V39.69H0Zm29.23-20.97c.68.07 1.1.26 1.1.48 0 .04.11.1.25.14.32.1.38.15.5.41.08.16.14.22.27.25.21.04.31.18.4.55.04.18.12.34.27.49.29.31.35.59.35 1.69 0 1.04-.05 1.26-.34 1.57-.33.35-.36.76-.04.76.14 0 .22.09.35.39.07.16.14.24.22.24.15 0 .38.22.38.37 0 .09.07.15.24.23.29.13.38.21.38.34.01.15.12.28.29.33.2.07.34.2.34.35 0 .09.05.15.23.22.25.1.39.25.45.45.02.07.13.17.25.23a.83.83 0 0 1 .341.34c.079.14.169.24.239.25.16.02.4.26.42.42.01.07.09.15.16.19.23.11.4.26.4.33 0 .13.23.37.35.37.15 0 .25.11.36.39.07.18.13.23.22.23.15 0 .29.15.35.35.03.13.22.28.37.28.07 0 .28.21.28.28 0 .14.14.34.27.37.21.05.35.19.35.34 0 .1.06.15.23.22.29.12.4.22.4.37 0 .11.24.35.36.35.08 0 .22.17.33.39.04.08.13.15.2.16.15.02.4.27.42.42.01.08.11.17.24.24a.83.83 0 0 1 .34.341c.07.129.17.239.23.259.21.05.36.2.46.44.07.18.12.24.22.24.15 0 .29.14.34.35.06.23.32.23.41-.01.23-.61 3.61-.64 3.9-.03.07.15.13.19.39.25.34.08.39.12.47.38.04.11.1.17.19.18.21.03.33.22.42.64.02.1.09.18.2.22.32.14.43.61.42 1.9 0 1.35-.14 1.89-.52 2.02-.03.01-.11.15-.16.31-.09.23-.14.3-.34.39-.19.09-.25.15-.3.33-.07.24-.16.3-.56.39-.16.03-.33.11-.39.18-.34.37-.61.44-1.79.44-1.02 0-1.24-.05-1.54-.34-.33-.31-.83-.38-.83-.12 0 .11-.24.34-.35.34-.07 0-.27.24-.27.33s-.22.29-.44.39c-.11.05-.2.15-.22.22-.02.08-.16.23-.31.34-.16.11-.29.26-.31.34-.02.09-.12.19-.26.26-.12.06-.28.2-.35.31-.08.11-.23.27-.34.34-.12.08-.26.24-.32.36-.07.14-.16.23-.26.25-.08.03-.22.16-.34.32-.11.15-.26.29-.33.31-.08.02-.17.11-.22.22-.11.22-.3.43-.4.44-.09 0-.32.2-.32.27 0 .09-.24.35-.33.35-.1 0-.21.13-.32.38-.04.09-.14.19-.21.22-.21.06-.39.21-.39.32 0 .05-.13.19-.29.31-.16.11-.32.29-.37.38-.04.12-.16.23-.32.31s-.27.18-.29.26c-.02.07-.16.22-.31.33s-.3.27-.34.37-.15.2-.25.24c-.09.04-.26.2-.37.35-.1.15-.25.29-.32.3-.08.02-.18.13-.26.29-.09.17-.19.28-.31.33-.1.04-.27.2-.39.36-.11.16-.25.3-.3.3-.11 0-.26.18-.33.38-.02.07-.13.17-.25.23-.29.14-.28.41.03.74.3.31.36.59.36 1.7 0 1.04-.05 1.26-.34 1.57-.16.16-.24.3-.28.51-.08.37-.18.51-.42.59-.14.04-.22.12-.3.29-.09.2-.15.26-.39.35-.2.07-.32.16-.36.25-.31.67-3.92.61-3.92-.06 0-.05-.07-.11-.15-.12-.42-.09-.64-.29-.64-.56 0-.06-.06-.09-.16-.09-.23-.01-.34-.12-.42-.45-.04-.2-.1-.3-.18-.32-.36-.12-.49-.66-.49-2.05 0-1.23.13-1.75.45-1.9.24-.1.24-.3 0-.38-.22-.07-.34-.19-.34-.34 0-.11-.24-.35-.36-.35-.08 0-.22-.17-.33-.39-.04-.08-.13-.15-.2-.16-.15-.02-.4-.27-.42-.42-.01-.08-.11-.17-.24-.24a.83.83 0 0 1-.34-.341c-.07-.129-.17-.239-.23-.259-.21-.05-.36-.2-.46-.44-.07-.18-.12-.24-.22-.24-.14 0-.28-.13-.34-.34-.05-.17-.19-.28-.33-.28s-.22-.09-.35-.39c-.07-.16-.14-.24-.22-.24-.14 0-.38-.22-.38-.37 0-.09-.07-.15-.24-.23-.29-.13-.38-.21-.38-.34a.38.38 0 0 0-.28-.33c-.21-.06-.34-.2-.34-.35 0-.09-.06-.15-.24-.22-.25-.09-.39-.24-.45-.45-.01-.06-.13-.17-.25-.23a.83.83 0 0 1-.341-.34c-.069-.14-.169-.23-.239-.24-.16-.03-.4-.27-.42-.43-.01-.07-.08-.15-.16-.19-.23-.11-.4-.26-.4-.33 0-.12-.23-.37-.35-.37-.15 0-.25-.11-.36-.39-.07-.18-.13-.23-.22-.23-.15 0-.29-.14-.34-.35-.04-.13-.23-.28-.38-.28-.07 0-.28-.21-.28-.28 0-.14-.14-.34-.27-.37-.21-.05-.35-.19-.35-.34 0-.24-.39-.25-.61-.01-.33.37-.6.44-1.79.44-1.01 0-1.24-.05-1.54-.34-.15-.15-.3-.24-.45-.26-.34-.06-.66-.25-.66-.4 0-.14-.14-.28-.34-.34-.16-.03-.22-.13-.34-.49-.04-.12-.1-.21-.14-.21-.42 0-.65-1.44-.48-2.99.09-.75.19-.98.46-.98.06 0 .12-.1.17-.3.07-.27.11-.31.32-.41.13-.06.24-.15.24-.19.01-.23.17-.4.47-.47.25-.05.31-.09.36-.22.24-.62 3.61-.64 3.9-.02.14.28.34.27.41-.02.04-.18.09-.23.29-.33.14-.06.25-.16.26-.23.06-.22.26-.42.43-.42.13 0 .17-.05.29-.29.11-.24.18-.31.34-.36.15-.05.2-.09.21-.21.02-.19.22-.37.43-.4.14-.01.18-.06.25-.27.09-.27.17-.35.41-.4.1-.02.16-.08.21-.23.05-.18.24-.33.54-.42.07-.01.1-.08.1-.19 0-.19.18-.38.42-.44.11-.02.16-.08.19-.2.04-.19.15-.3.42-.38.17-.06.22-.11.26-.28.03-.17.09-.23.27-.32a.74.74-180 0 0 .34-.34c.09-.18.16-.24.32-.28.2-.05.33-.21.33-.4 0-.1.17-.24.35-.28.1-.02.16-.09.19-.19.06-.23.25-.41.44-.41.1 0 .17-.04.19-.1.09-.3.23-.49.42-.55.14-.04.21-.1.23-.2.04-.24.13-.33.39-.42.22-.07.26-.11.28-.24.02-.21.21-.41.4-.43.11-.02.16-.07.21-.22.05-.16.11-.22.35-.34.25-.12.29-.16.29-.29 0-.16.21-.37.43-.42.07-.02.16-.13.23-.27.09-.19.15-.25.32-.29.25-.06.31-.28.09-.35-.67-.21-.72-3.64-.06-3.94.14-.06.18-.12.24-.39.07-.33.16-.42.43-.47.07-.01.12-.07.13-.15.03-.22.15-.32.48-.39.24-.06.31-.1.37-.24.17-.38 1.39-.55 2.82-.39m-3.12 7.67c-.05.22-.23.38-.43.38-.14 0-.16.02-.2.22-.04.25-.16.38-.36.41-.11.01-.18.08-.25.24-.13.27-.24.37-.44.37-.13 0-.16.03-.19.2-.04.23-.27.48-.43.48-.07 0-.14.08-.22.25-.09.21-.15.27-.34.32-.17.06-.24.11-.26.22-.05.22-.15.32-.4.44-.16.07-.23.15-.24.25-.03.18-.21.33-.45.37-.16.03-.19.06-.19.19 0 .2-.13.38-.32.43-.21.05-.3.13-.3.28 0 .16-.17.3-.42.34-.17.04-.2.07-.23.24-.05.24-.19.41-.35.41-.14 0-.22.09-.28.3-.05.19-.22.33-.43.33-.12 0-.15.03-.18.19-.05.24-.2.42-.38.44-.1.01-.17.09-.24.25-.12.25-.23.34-.44.39-.12.03-.17.09-.22.27-.06.19-.11.24-.32.34-.17.07-.25.14-.25.22 0 .16-.26.38-.48.42-.17.04-.2.07-.2.19-.01.2-.1.32-.37.44-.16.08-.23.15-.25.25-.03.21-.16.33-.41.37-.19.03-.22.06-.22.19 0 .2-.15.38-.35.43-.15.04-.15.04-.05.16.13.14.2.31.29.75.04.19.08.37.09.41.01.06.94.07 4.48.06l4.47-.02.06-.37c.07-.45.15-.59.36-.68.13-.06.18-.14.24-.36.07-.25.11-.3.32-.4.13-.06.24-.15.24-.19 0-.21.23-.39.56-.47.19-.04.35-.1.35-.12 0-.15.48-.44.72-.44.31 0 .3.12.28-4.63l-.01-4.41-.46-.09c-.46-.09-.79-.23-.83-.35-.01-.04-.04 0-.07.09m3.65.23-.48.12-.01 4.39c-.02 4.9-.03 4.65.23 4.65.15 0 .25.05.44.24s.32.27.56.32c.39.09.47.15.58.43.06.16.13.24.23.26.22.06.31.17.41.54.07.23.17.41.31.56.14.14.23.31.25.44.05.29-.24.28 4.68.26l4.4-.02.06-.42c.04-.24.09-.53.12-.66.05-.21.05-.24-.11-.38-.08-.08-.16-.19-.16-.23 0-.11-.17-.25-.35-.29-.09-.02-.16-.06-.16-.09s-.14-.2-.32-.39a3.6 3.6 0 0 1-.43-.51c-.05-.1-.16-.2-.23-.23-.19-.07-.89-.76-1-.98a.7.7 0 0 0-.26-.27c-.22-.11-.99-.87-.99-.97 0-.11-.23-.33-.34-.33-.1-.01-.28-.14-.28-.21 0-.02-.14-.18-.31-.34-.18-.16-.32-.33-.32-.37 0-.1-.21-.3-.37-.35-.06-.02-.24-.18-.39-.35s-.3-.31-.34-.31c-.03 0-.11-.11-.17-.24a.74.74 0 0 0-.31-.34c-.23-.13-.84-.75-.98-1a.67.67 0 0 0-.32-.27c-.13-.05-.23-.12-.23-.16s-.14-.19-.32-.34c-.17-.16-.31-.31-.31-.35 0-.11-.28-.42-.39-.42s-.29-.13-.29-.21c0-.03-.14-.18-.31-.33s-.31-.31-.31-.37c0-.11-.23-.33-.36-.33-.05 0-.14-.07-.2-.15-.14-.17-.27-.17-.92 0M15.42 69.1c0 .06-.05.22-.11.36-.2.46-.22.76-.04.9.08.06.15.16.15.22 0 .11.23.34.34.34.1.01.28.14.28.21 0 .02.14.18.32.34.17.16.31.33.31.37 0 .1.21.3.37.35.06.02.24.18.39.35s.3.31.34.31c.03 0 .11.11.17.24.08.15.19.28.32.35.23.12.83.74.97.99.06.11.18.21.33.27.12.05.23.12.23.16s.14.19.31.35c.17.15.31.3.31.34 0 .11.28.42.39.42s.29.13.29.21c0 .03.14.18.31.33s.31.32.31.37c0 .11.23.34.34.34.09 0 .97.89.97.99s.17.24.35.28c.09.02.16.06.16.09s.14.2.32.39c.18.18.37.41.43.51.05.1.16.2.23.23.19.07.89.76 1 .98.05.1.17.22.28.27.1.05.23.14.28.21.09.11.1.11.6.01.28-.06.57-.11.64-.11.19 0 .19.04.19-4.57v-4.38l-.13-.03c-.07-.01-.29-.06-.48-.09-.36-.07-.5-.17-.54-.37-.01-.06-.09-.13-.19-.16-.38-.11-.56-.23-.58-.39-.01-.11-.07-.17-.24-.24-.23-.09-.32-.22-.38-.57a.3.3 0 0 0-.2-.25c-.2-.1-.29-.26-.41-.7l-.09-.32h-4.42c-4.28 0-4.42 0-4.42.1m17.01-.02c0 .16-.24.56-.44.75a.83.83 0 0 0-.25.43c-.08.33-.19.48-.4.54-.13.03-.2.09-.22.18-.05.28-.19.38-.63.48-.1.02-.16.07-.16.13 0 .16-.26.32-.67.41l-.38.09-.01 4.47-.02 4.46.16.06c.43.18 1.42.03 1.43-.21 0-.06.17-.23.28-.26.04-.01.15-.15.23-.31.11-.2.23-.32.43-.42.14-.08.3-.21.34-.3a.8.8 0 0 1 .25-.24c.09-.04.21-.19.28-.34.09-.19.18-.28.36-.37.13-.06.3-.2.37-.3s.19-.22.27-.26c.07-.05.19-.19.26-.33q.12-.255.3-.33c.1-.04.22-.12.27-.18a11 11 0 0 1 .52-.51c.06-.06.15-.19.21-.3.06-.13.19-.25.36-.34.15-.07.29-.2.33-.28s.14-.17.22-.21.2-.19.28-.33c.09-.17.2-.3.33-.37.11-.05.25-.15.3-.21a11 11 0 0 1 .52-.52c.06-.05.14-.17.18-.27.05-.11.16-.21.32-.3.14-.06.29-.18.33-.26.04-.07.16-.2.27-.27.1-.07.24-.23.3-.37.08-.18.17-.27.37-.36.15-.07.29-.19.34-.28s.15-.2.24-.24c.08-.05.22-.2.3-.35.1-.19.22-.31.42-.42.15-.09.29-.19.3-.23.04-.11.2-.28.27-.29.24 0 .37-.72.2-1.18l-.11-.32-4.43-.01c-3.96-.01-4.42-.01-4.42.07" style="fill:#04bcd4;stroke:none;stroke-width:1.52999997;stroke-linecap:butt"/><g transform="translate(7.201 -7.059)"><title>Sheet.19084</title><path d="M20.04 54.12c-.5.07-.74.18-.83.39-.06.14-.13.18-.37.24-.33.07-.45.17-.48.38-.01.09-.06.15-.13.16-.27.04-.36.14-.43.47-.06.26-.1.33-.24.39-.31.14-.44.68-.44 1.89 0 1.4.13 1.93.5 2.05.22.07.16.29-.09.35-.17.04-.23.1-.32.29-.07.14-.16.25-.23.27-.22.05-.43.26-.43.42 0 .12-.05.17-.29.29-.24.11-.31.18-.35.34-.05.15-.1.2-.21.22-.19.02-.38.22-.4.42-.02.14-.06.18-.28.25-.26.09-.35.18-.39.42-.03.1-.09.15-.23.2-.19.06-.33.25-.42.55-.02.06-.09.1-.19.1-.19 0-.38.18-.44.41-.03.1-.09.16-.19.19-.18.04-.35.18-.35.28 0 .19-.13.35-.33.4-.16.04-.23.1-.32.27a.74.74 0 0 1-.34.34c-.18.1-.24.16-.27.33-.04.17-.09.22-.26.27-.27.09-.39.2-.42.39-.03.12-.08.17-.2.2-.23.06-.41.25-.41.44 0 .11-.03.17-.1.19-.3.09-.49.24-.55.42-.04.14-.1.21-.2.23-.24.05-.32.13-.41.4-.07.21-.11.26-.25.27-.21.03-.41.21-.43.4-.01.12-.06.16-.21.21-.16.05-.23.12-.34.36-.12.24-.16.29-.29.29-.17 0-.37.2-.43.42-.02.07-.12.17-.27.23-.19.09-.24.15-.28.33-.07.29-.27.3-.41.02-.29-.62-3.66-.6-3.9.02-.05.13-.11.17-.36.22-.3.07-.47.24-.47.47 0 .04-.11.13-.24.19-.22.1-.25.14-.32.41-.05.2-.11.3-.17.3-.27 0-.37.23-.46.98-.17 1.55.06 2.98.48 2.98.03 0 .1.1.14.22.12.36.18.46.34.49.2.05.34.19.34.34s.32.34.65.4c.16.02.31.11.46.25.3.3.52.34 1.54.35 1.18 0 1.45-.07 1.79-.44.21-.24.61-.23.61.01 0 .15.14.29.35.34.13.03.27.23.27.37 0 .07.21.28.28.28.15 0 .34.15.37.28.06.2.2.35.35.35.09 0 .15.05.22.23.11.28.21.39.36.39.12 0 .35.24.35.37 0 .07.17.22.4.33.07.04.15.12.16.19.02.16.26.4.42.42.07.02.16.11.24.25a.83.83-180 0 0 .341.34c.119.06.229.16.249.23.06.2.2.35.45.45.18.07.23.13.23.22 0 .15.14.28.34.35.17.05.28.18.29.33 0 .13.09.21.38.34.17.08.24.14.24.23 0 .15.23.37.38.37.08 0 .15.08.22.24.13.3.21.38.35.39.14 0 .27.11.33.28.06.2.19.34.34.34.1 0 .15.06.22.24.1.24.25.39.46.44.06.02.16.13.23.26a.83.83-180 0 0 .34.341c.13.069.23.159.24.229.02.16.27.41.42.43.07.01.16.08.2.16.11.22.25.39.33.39.12 0 .36.24.36.35 0 .15.12.27.34.34.24.08.24.28 0 .38-.32.15-.45.67-.45 1.9 0 1.38.13 1.93.49 2.04.08.03.13.12.18.33.08.32.19.44.42.44.1.01.16.04.16.09 0 .28.22.47.64.56.08.02.15.08.15.13 0 .67 3.61.73 3.92.06.04-.1.16-.18.35-.25.25-.09.31-.15.4-.35.08-.17.16-.25.3-.29.23-.08.33-.22.42-.6.04-.2.12-.35.28-.51.29-.3.34-.52.34-1.56 0-1.11-.06-1.39-.36-1.7-.31-.33-.33-.6-.03-.74.12-.06.23-.16.25-.23.07-.21.22-.38.33-.38.05-.01.19-.14.3-.3.12-.16.29-.32.39-.36.11-.05.22-.16.31-.33.08-.16.18-.27.26-.29.07-.02.22-.15.32-.3.11-.15.28-.31.37-.35.1-.04.21-.14.25-.24s.19-.26.34-.37.29-.26.31-.33c.02-.08.13-.18.29-.26s.28-.19.32-.31c.04-.09.21-.27.37-.38.16-.12.29-.26.29-.31 0-.11.18-.26.39-.32.07-.03.17-.13.21-.22.11-.25.22-.38.32-.38.09 0 .33-.26.33-.35 0-.08.23-.27.32-.27.1-.01.29-.22.4-.45.05-.1.14-.2.22-.21.07-.02.22-.16.33-.31.11-.16.26-.3.34-.32.1-.02.19-.11.26-.25.06-.12.2-.28.31-.36.12-.07.27-.23.35-.34.07-.11.23-.25.35-.31a.5.5 0 0 0 .26-.26c.02-.08.15-.23.31-.34.15-.11.29-.26.31-.34.02-.07.11-.17.22-.22.22-.1.44-.3.44-.39s.2-.33.27-.33c.11 0 .35-.23.35-.34 0-.26.5-.19.82.12.31.29.53.33 1.55.34 1.18 0 1.45-.07 1.79-.44.06-.07.23-.15.39-.19.4-.08.49-.14.56-.39.05-.17.11-.23.3-.32s.25-.16.34-.39c.05-.16.13-.3.16-.31.68-.24.76-3.64.1-3.92a.3.3 0 0 1-.2-.22c-.09-.42-.22-.61-.42-.64-.09-.01-.15-.07-.19-.19-.08-.25-.13-.3-.47-.37-.26-.06-.32-.1-.4-.25-.29-.61-3.66-.58-3.89.03-.09.23-.35.24-.41.01-.05-.21-.19-.35-.34-.35-.1 0-.15-.06-.22-.24-.1-.24-.25-.39-.46-.44-.06-.02-.17-.14-.23-.26a.83.83-180 0 0-.34-.341c-.13-.069-.23-.159-.24-.239-.02-.15-.27-.4-.43-.42-.06-.01-.15-.08-.19-.16-.11-.22-.25-.4-.33-.4-.12 0-.37-.23-.37-.34 0-.15-.1-.26-.39-.37-.17-.07-.23-.12-.23-.22 0-.15-.14-.29-.35-.34-.13-.03-.27-.23-.27-.37 0-.07-.21-.28-.28-.28-.15 0-.34-.15-.38-.28-.05-.2-.19-.35-.34-.35-.09 0-.15-.05-.22-.23-.11-.28-.21-.39-.36-.39-.12 0-.35-.25-.35-.37 0-.07-.17-.22-.4-.33-.08-.04-.15-.12-.16-.19-.02-.16-.26-.4-.42-.43-.07-.01-.17-.1-.24-.24a.83.83-180 0 0-.341-.34c-.119-.06-.239-.16-.249-.23-.06-.21-.2-.36-.45-.45-.18-.07-.24-.13-.24-.22 0-.15-.13-.29-.34-.35a.38.38 0 0 1-.28-.33c0-.13-.09-.21-.38-.34-.17-.08-.24-.14-.24-.23 0-.15-.24-.37-.38-.37-.08 0-.15-.08-.22-.24-.13-.3-.21-.39-.36-.39-.31 0-.28-.41.05-.76.51-.53.5-2.73-.01-3.26-.15-.15-.23-.31-.28-.49-.08-.37-.18-.51-.39-.55-.13-.03-.2-.09-.27-.25-.12-.26-.18-.31-.5-.41-.14-.04-.25-.1-.25-.14 0-.42-1.61-.67-3.09-.48m2.31.28c.14.06.27.16.29.2s.07.08.12.08c.18 0 .57.24.88.54.17.17.4.37.5.46.17.15.41.66.41.88 0 .05.06.15.13.23.41.43.44 2.09.05 2.55-.17.19-.3.58-.3.9 0 .19.2.42 1.05 1.25l.5.49.65.65c.3.3.62.62.69.7.08.08.36.36.62.61.26.26.58.58.71.72.13.13.42.43.65.65a62 62 0 0 1 .55.54 459 459-180 0 0 2.46 2.46c.08.08.33.33.55.56.22.22.51.52.65.64.14.13.46.45.71.71s.53.54.61.62c.09.08.33.32.54.54.48.5.96.57 1.24.19.19-.26.43-.31 1.58-.31s1.28.03 1.52.3c.07.07.16.13.21.13.04 0 .11.02.14.05s.15.08.28.12c.22.07.48.26.48.36 0 .03.11.16.24.29s.27.31.32.4c.04.09.1.21.12.27.03.05.05.13.05.17s.09.16.19.28c.42.46.44 2.32.05 2.81-.13.16-.17.24-.3.56-.04.11-.1.19-.12.19s-.04.03-.04.07-.12.19-.27.33-.33.33-.41.44c-.08.1-.22.22-.31.26-.37.16-.5.2-.6.2-.07 0-.18.06-.25.13-.45.45-2.29.44-2.62-.02-.07-.08-.54-.22-.85-.24-.13-.01-.64.24-.64.31 0 .03-.69.73-1.25 1.27l-1.22 1.22c-.64.64-1.19 1.18-1.22 1.22-.03.03-.31.31-.61.62-.31.31-.62.62-.71.68-.08.06-.15.13-.15.15 0 .06-2.21 2.26-2.27 2.26-.03 0-.06.02-.06.05 0 .06-1.29 1.37-1.36 1.37a.055.055-180 0 0-.055.055c-.005.025-.425.475-.945.995-1.03 1.02-1.17 1.22-1.09 1.55.03.11.07.29.09.39s.09.24.15.31c.41.43.44 2.09.05 2.55-.09.1-.2.31-.24.47-.04.15-.11.33-.14.4-.07.14-.96 1.04-1.03 1.04-.03.01-.11.06-.19.12s-.19.11-.24.11c-.06 0-.15.04-.2.1-.53.52-2.55.57-3.07.08-.04-.04-.23-.15-.42-.24a2.5 2.5 0 0 1-.58-.41c-.13-.13-.33-.31-.44-.4a.86.86 0 0 1-.27-.37c-.04-.11-.09-.23-.12-.26a.3.3 0 0 1-.05-.14c0-.05-.05-.14-.12-.2-.45-.4-.45-2.77 0-3.1.11-.09.24-.42.24-.62 0-.16-.38-.61-1.02-1.21-.23-.22-.52-.51-.65-.65s-.42-.44-.66-.67c-.23-.22-.47-.46-.54-.53l-.65-.65c-.29-.29-.58-.59-.64-.64-.14-.14-.98-.99-1.12-1.12-.27-.26-1.23-1.23-1.36-1.36-.07-.09-.35-.36-.61-.61-.26-.26-.58-.58-.71-.72s-.42-.43-.65-.65a62 62 0 0 1-.55-.54l-1.22-1.23c-.09-.09-.35-.34-.56-.57-.32-.33-.43-.41-.57-.41-.27 0-.82.16-.91.27-.36.43-2.27.39-2.6-.06-.04-.05-.1-.1-.14-.1-.21 0-.81-.25-.92-.38-.06-.08-.25-.28-.43-.46-.31-.31-.61-.78-.61-.94 0-.05-.04-.1-.08-.13C.2 76.32.15 74 .59 73.55c.07-.07.19-.27.27-.44.08-.18.19-.36.25-.41.28-.26.4-.39.53-.58a.73.73 0 0 1 .369-.27 1.6 1.6 0 0 0 .281-.11c.03-.03.1-.05.14-.05.05 0 .12-.05.16-.11.17-.26.43-.32 1.58-.32 1.14 0 1.28.03 1.51.28.12.12.46.26.65.26.09 0 .27-.14.54-.43.23-.24.47-.49.54-.55.08-.07.25-.24.39-.38l.34-.34c.06-.05.16-.16.24-.25.09-.09.22-.23.31-.31.22-.19.56-.54.64-.64.03-.04.14-.14.23-.22.09-.07.21-.21.27-.3.05-.08.14-.17.19-.19.14-.05.47-.37.47-.45 0-.04.05-.1.12-.14.14-.07.39-.32.48-.48a.54.54 0 0 1 .21-.18c.14-.07.28-.21.52-.54.06-.09.13-.15.16-.15.06 0 .29-.24.34-.35.02-.06.1-.15.19-.2.17-.1 1.1-1.04 1.1-1.11 0-.02.12-.13.28-.24s.3-.25.32-.3c.02-.06.1-.15.18-.21.2-.17.46-.44.46-.49 0-.02.13-.13.29-.25.16-.11.34-.29.4-.4.07-.11.14-.2.17-.2.07 0 .28-.21.41-.41.05-.09.16-.18.23-.21.08-.03.21-.14.3-.26.09-.11.19-.23.23-.27l.27-.24c.11-.1.2-.2.2-.23 0-.06.23-.3.29-.3.29 0 .25-.68-.04-.95-.44-.4-.41-2.81.03-3.09.06-.04.11-.11.11-.16s.03-.11.05-.14c.03-.03.08-.17.12-.3.05-.15.16-.3.27-.4.1-.08.3-.25.44-.38.13-.13.4-.29.58-.37.18-.07.41-.2.51-.29.1-.08.28-.17.4-.19s.25-.04.3-.06c.3-.07 1.69.03 1.94.15m-3.48 7.13c-.04.04-.1.13-.13.2-.04.07-.14.16-.24.21-.2.1-.36.25-.36.32s-.36.41-.43.41c-.03 0-.12.11-.2.25-.09.15-.23.28-.36.34-.11.06-.24.17-.27.26-.07.16-.32.4-.41.4-.03 0-.12.11-.2.23-.08.13-.25.3-.37.37-.13.08-.27.21-.31.29-.1.19-.15.25-.36.38-.09.05-.17.14-.19.19-.06.16-.25.35-.39.38-.08.02-.2.13-.28.25-.18.27-.26.37-.4.44-.06.03-.19.18-.28.31-.1.14-.23.26-.29.27-.15.03-.24.11-.34.32-.05.1-.17.23-.28.29s-.23.19-.28.29c-.08.17-.29.36-.49.43-.05.02-.15.14-.22.26-.07.13-.2.26-.29.3-.08.04-.21.17-.29.3s-.22.27-.31.32c-.1.05-.28.22-.41.38s-.26.29-.29.29-.14.13-.25.28c-.12.16-.28.31-.37.34-.1.04-.2.13-.26.25-.05.1-.19.25-.31.34-.13.09-.24.2-.27.25-.05.15-.3.42-.39.42s-.3.17-.3.25-.26.37-.33.37c-.29 0-.24.65.07.99.08.09.15.22.15.28 0 .07.06.18.13.25l.13.12h4.48c4.83 0 4.67.01 4.67-.27 0-.1.21-.51.29-.56.04-.02.14-.19.22-.36.14-.32.99-1.24 1.14-1.24.05 0 .11-.03.14-.05.03-.03.17-.08.33-.13.15-.04.34-.13.42-.2.07-.08.17-.13.22-.13.3 0 .3-.01.3-4.79 0-4.86.01-4.74-.35-4.74-.1 0-.33-.1-.39-.17-.14-.18-.7-.3-.8-.18m3.95-.01c-.06.02-.14.06-.17.1-.06.08-.34.23-.5.29-.06.01-.12.08-.14.14-.01.06-.05.11-.08.11-.08 0-.06 8.75.02 8.95.08.18.18.3.26.3.03 0 .11.06.17.13.07.07.24.16.37.2s.28.1.34.12c.05.03.13.06.17.06.09 0 .98.94 1.09 1.16.05.08.12.27.16.42.09.28.18.42.45.69l.17.16h4.52c5.07 0 4.61.04 4.76-.42.04-.13.13-.32.2-.43.23-.36.23-.59-.02-.75a1 1 0 0 1-.31-.34c-.05-.11-.15-.22-.21-.24-.16-.05-.51-.36-.51-.46 0-.04-.11-.15-.25-.24-.13-.1-.27-.25-.31-.34a.63.63 0 0 0-.28-.28c-.11-.06-.28-.21-.37-.34s-.18-.24-.21-.24c-.1 0-.34-.25-.43-.44a.66.66 0 0 0-.28-.27.9.9 0 0 1-.34-.31c-.09-.13-.22-.26-.29-.29-.07-.02-.18-.13-.24-.23-.2-.32-.25-.39-.35-.39-.05 0-.17-.09-.27-.21-.24-.29-.3-.35-.54-.55-.11-.09-.21-.22-.22-.28 0-.07-.09-.15-.18-.2-.22-.1-.43-.28-.43-.38 0-.04-.1-.14-.23-.23-.12-.08-.29-.26-.37-.4-.08-.13-.17-.24-.21-.24-.1 0-.44-.29-.49-.43-.03-.08-.1-.16-.15-.18a.8.8 0 0 1-.42-.42.6.6 0 0 0-.27-.26c-.11-.05-.28-.2-.37-.34-.1-.13-.26-.29-.35-.35-.1-.06-.23-.2-.29-.32-.07-.14-.16-.23-.25-.25-.08-.02-.23-.15-.33-.29-.11-.14-.26-.29-.34-.34-.18-.11-.35-.31-.35-.4 0-.08-.22-.28-.31-.28-.08 0-.25-.17-.34-.35-.06-.13-.4-.19-.68-.12m-3.64.35c.1.05.38.13.63.18l.46.09.01 4.41c.02 4.75.02 4.63-.28 4.63-.25 0-.73.29-.73.44 0 .02-.15.08-.34.12-.34.08-.56.26-.56.47-.01.04-.11.13-.24.19-.21.1-.25.15-.32.4-.06.22-.11.3-.24.36-.21.09-.29.23-.36.68l-.06.37-4.47.02c-3.54.01-4.47 0-4.48-.06-.02-.04-.06-.22-.09-.41-.09-.44-.16-.62-.29-.76-.1-.11-.1-.11.04-.15.2-.05.36-.24.36-.43 0-.14.03-.16.22-.19.25-.04.38-.16.41-.37.02-.1.09-.17.25-.25.27-.13.36-.24.36-.44.01-.12.04-.15.21-.19.22-.04.48-.27.48-.42 0-.08.08-.15.25-.22.21-.1.26-.15.32-.34.05-.18.1-.24.21-.27.22-.05.32-.14.44-.4.08-.15.15-.23.25-.24.18-.03.33-.2.37-.44.03-.16.06-.19.19-.19.21 0 .38-.14.43-.33.05-.21.14-.3.28-.3.16 0 .3-.17.35-.41.03-.17.06-.2.23-.24.25-.04.42-.18.42-.34 0-.15.09-.23.3-.28.19-.05.32-.23.32-.43 0-.13.03-.16.19-.19.24-.05.42-.19.44-.38.02-.09.09-.17.25-.24.25-.12.35-.23.4-.44.02-.11.09-.16.26-.22.19-.05.25-.11.34-.32.08-.17.15-.25.22-.25.16 0 .39-.25.43-.48.03-.17.06-.2.19-.2.2 0 .31-.1.44-.37.07-.16.14-.23.24-.24.21-.03.33-.16.37-.41.04-.2.06-.23.2-.23.19 0 .38-.15.43-.37.02-.09.05-.13.07-.09.01.04.1.11.2.17m4.3.15c.06.08.15.14.2.14.12 0 .36.23.36.34 0 .05.14.22.31.37s.31.3.31.33c0 .08.18.21.29.21s.39.31.39.42c0 .04.14.19.31.34.17.16.31.31.31.35s.11.11.23.16c.15.06.27.16.33.27.14.25.74.87.98.99.12.07.23.2.31.35.06.13.14.24.17.24.04 0 .19.14.34.31s.33.33.39.35c.16.05.37.25.37.35 0 .04.14.21.31.37.18.16.32.32.32.34 0 .07.18.2.28.21.11 0 .34.22.34.33 0 .1.77.86.99.97.1.05.21.17.26.26.11.23.81.92 1 .99.07.03.18.13.23.23.06.1.25.33.43.51.17.19.32.36.32.39 0 .02.07.06.16.09.18.04.35.18.35.29 0 .04.07.15.16.23.15.14.16.16.11.38-.03.13-.09.42-.12.66l-.06.42-4.4.02c-4.92.01-4.63.03-4.68-.26-.02-.13-.12-.3-.25-.44-.14-.15-.25-.33-.31-.56-.1-.37-.19-.48-.41-.54-.1-.02-.17-.11-.23-.26-.11-.28-.19-.34-.58-.43-.24-.05-.37-.13-.56-.32s-.29-.24-.44-.24c-.26 0-.25.24-.23-4.65l.01-4.39.48-.12c.65-.17.78-.17.92 0M8.03 76.04c-.05.06-.09.14-.09.18 0 .07-.07.16-.25.35-.19.19-.17.79.04.89.09.04.21.16.27.26.19.31.24.38.34.38.05 0 .17.09.27.21.24.29.3.35.54.55.11.09.21.22.22.28 0 .06.09.15.18.2.22.1.43.28.43.38 0 .04.1.14.23.23.12.08.29.26.37.39.08.14.17.25.2.25.11 0 .45.29.5.43.03.08.1.16.15.18.17.06.35.24.42.42.04.09.15.2.27.26.11.05.28.2.37.34.1.13.26.29.35.35.1.06.23.2.29.32.07.14.16.23.25.25.07.02.22.15.33.29.11.13.26.29.34.34.18.11.35.31.35.4 0 .08.22.27.31.27.08 0 .31.24.31.33 0 .04.11.14.25.24.14.09.29.26.34.36.05.11.15.22.21.24.16.05.51.36.51.45 0 .05.11.16.24.25a1 1 0 0 1 .32.34c.04.1.16.22.28.28.11.06.28.21.36.34.09.13.19.24.22.24.09 0 .34.25.43.44.05.11.16.22.28.26.1.05.25.18.33.3.19.29.6.29.92.01.1-.08.26-.17.36-.19.35-.08.34.08.34-4.73 0-4.84.02-4.61-.36-4.68-.23-.05-.43-.15-.57-.28-.06-.06-.25-.17-.42-.24-.29-.13-.58-.37-.58-.47 0-.03-.07-.08-.15-.12-.19-.1-.36-.26-.36-.34 0-.1-.28-.65-.45-.88-.09-.12-.17-.26-.17-.31s-.04-.14-.09-.21l-.09-.13h-4.52c-4.31 0-4.53.01-4.62.1m17.01-.02c-.05.04-.1.1-.1.13s-.08.15-.18.26c-.1.12-.22.33-.27.48-.1.36-.18.5-.38.68-.09.09-.26.28-.38.42-.16.21-.29.3-.59.42-.21.08-.43.2-.5.27-.06.07-.24.18-.38.23-.15.06-.26.14-.26.18 0 .05-.03.08-.06.08-.04 0-.06 1.51-.06 4.4 0 4.9-.02 4.64.39 4.81.13.05.28.14.34.21.08.08.16.11.25.09.26-.06.52-.19.66-.32.08-.08.22-.18.31-.23s.2-.16.25-.25c.15-.26.81-.91 1.04-1.02.13-.06.22-.15.25-.24.04-.17.78-.92 1.04-1.05a.6.6 0 0 0 .23-.25c.07-.17.69-.79 1.01-1 .13-.09.24-.2.24-.24 0-.11.79-.91 1-1 .1-.04.21-.15.25-.25.09-.2.88-.99 1-.99.04 0 .15-.11.24-.25.19-.31.81-.93 1-1 .08-.03.19-.14.24-.24.13-.25.9-1 1.06-1.04.08-.02.18-.12.23-.24.11-.23.76-.89 1.03-1.04.09-.05.2-.17.24-.26.05-.08.16-.23.25-.31.08-.09.15-.19.15-.23s.04-.13.08-.19c.14-.18.11-.36-.11-.57-.11-.11-.2-.24-.2-.28 0-.25.1-.25-4.68-.25-3.68 0-4.55.02-4.63.08m-7.89.36c.12.44.21.59.41.69.12.06.18.14.2.26.06.35.15.48.38.57.17.07.22.13.24.24.02.16.2.28.58.39.1.03.18.09.19.16.04.2.18.3.54.37.19.03.41.08.48.09l.13.02v4.39c0 4.61 0 4.57-.2 4.57-.06 0-.35.05-.63.11-.5.1-.51.1-.6-.01a.9.9 0 0 0-.28-.21.66.66 0 0 1-.28-.27c-.12-.22-.81-.91-1-.98-.08-.03-.18-.14-.23-.23-.06-.1-.25-.33-.43-.51-.18-.19-.32-.36-.32-.39s-.07-.07-.16-.09c-.18-.04-.35-.18-.35-.28s-.88-1-.97-1c-.11 0-.34-.23-.34-.33 0-.06-.14-.22-.31-.37s-.31-.3-.31-.33c0-.08-.18-.21-.29-.21s-.39-.31-.39-.42c0-.04-.14-.19-.31-.35-.17-.15-.32-.3-.32-.34s-.1-.11-.23-.16a.67.67 0 0 1-.32-.27c-.14-.25-.74-.87-.98-1a.74.74 0 0 1-.31-.34c-.06-.13-.14-.24-.17-.24-.04 0-.19-.14-.34-.31s-.33-.33-.39-.35c-.16-.05-.37-.25-.37-.35 0-.04-.14-.21-.32-.37-.17-.16-.31-.32-.31-.34 0-.07-.18-.2-.28-.21-.11 0-.34-.23-.34-.34 0-.06-.07-.16-.15-.22-.18-.14-.16-.44.04-.9.06-.14.11-.3.11-.36 0-.1.14-.11 4.42-.11h4.42zm17.04.01c.17.47.04 1.19-.21 1.19-.06.01-.22.18-.26.29-.01.04-.15.14-.3.23-.2.11-.32.23-.43.42-.07.15-.21.3-.29.35-.09.04-.2.15-.24.24-.05.09-.19.21-.34.28-.2.09-.29.18-.37.36-.07.14-.2.3-.31.37-.1.07-.22.19-.26.27s-.19.2-.33.26c-.17.09-.27.18-.32.3-.04.1-.12.22-.18.27a11 11-180 0 0-.52.52c-.05.06-.19.15-.3.21-.13.07-.25.2-.33.37-.08.14-.2.29-.28.33s-.18.13-.22.21-.19.21-.33.28c-.17.09-.3.21-.36.34-.06.11-.15.24-.21.29a11 11-180 0 0-.52.52c-.05.06-.18.14-.27.18q-.18.075-.3.33c-.07.14-.19.28-.26.32-.08.05-.2.16-.27.27-.07.1-.24.24-.37.3-.18.09-.27.18-.36.37-.07.15-.19.3-.29.34-.08.05-.19.16-.24.24-.04.09-.2.22-.35.3-.19.1-.31.22-.42.42-.09.16-.19.29-.23.31-.11.03-.28.19-.28.26-.01.24-1 .39-1.43.21l-.16-.06.02-4.47.01-4.46.38-.09c.41-.09.67-.26.67-.41 0-.06.06-.11.16-.13.44-.1.58-.2.63-.48.02-.1.09-.15.22-.18.21-.06.32-.21.4-.54.03-.16.12-.31.25-.43.2-.19.44-.59.44-.75 0-.08.46-.08 4.42-.07l4.43.01z" style="fill:#28c4dc;stroke:none;stroke-width:1.52999997;stroke-linecap:butt"/></g></g></g></svg>