<svg xmlns="http://www.w3.org/2000/svg" xml:space="preserve" width="75.28" height="52.93" style="font-size:12px;overflow:visible;color-interpolation-filters:sRGB;fill-rule:evenodd;stroke-linecap:square;stroke-miterlimit:3" viewBox="0 0 56.46 39.697"><defs><linearGradient id="a" x1="0" x2="47.342" y1="46.275" y2="46.275" gradientTransform="scale(1.19259 .83851)" gradientUnits="userSpaceOnUse"><stop offset="0" stop-color="#005ba1"/><stop offset=".2" stop-color="#0068b7"/><stop offset=".42" stop-color="#0071c7"/><stop offset=".67" stop-color="#0076d1"/><stop offset="1" stop-color="#0078d4"/></linearGradient><linearGradient id="b" x1=".232" x2="29.658" y1="49.835" y2="49.835" gradientTransform="scale(1.00983 .99026)" gradientUnits="userSpaceOnUse"><stop offset="0" stop-color="#32bedd"/><stop offset="1" stop-color="#50e6ff"/></linearGradient></defs><g transform="translate(-5.902 -4.777)"><title>Page-1</title><g transform="translate(5.67 -34.016)"><title>Mobile Networks.19068</title><title>Sheet.19069</title><g transform="translate(.233 -.01)"><title>Sheet.19070</title><path d="M43.74 78.33a12.836 12.725-180 0 0 12.72-12.27 12.68 12.57-180 0 0-11.01-12.08 15.991 15.853-180 0 0-16.47-15.17 16.405 16.264-180 0 0-15.67 10.6A15.145 15.015-180 0 0 0 63.85a15.363 15.23-180 0 0 15.9 14.64Z" style="fill:url(#a)"/><path d="M43.74 78.33a12.836 12.725-180 0 0 12.72-12.27 12.68 12.57-180 0 0-11.01-12.08 15.991 15.853-180 0 0-16.47-15.17 16.405 16.264-180 0 0-15.67 10.6A15.145 15.015-180 0 0 0 63.85a15.363 15.23-180 0 0 15.9 14.64" style="stroke:none;stroke-width:4.78125;stroke-linecap:butt"/></g><title>Sheet.19071</title><path d="M29.95 78.49V63.64h-.01C29.78 55.59 23 49.36 14.8 49.35 7.17 49.35 0 56.16.24 64.2c.22 7.7 7.02 14.07 14.85 14.29Z" style="fill:url(#b);stroke:none;stroke-width:4.78125;stroke-linecap:butt"/><g transform="translate(14.012 -22.679)"><title>Sheet.19072</title><path d="M0 78.18c5.48-9.15 15.88-12.93 24.84-9.96a.222.22 0 0 1 .092.353L20.22 73.71a.204.202 0 0 1-.218.054C12.13 71.2 5.5 72.48.37 78.44a.225.223 0 1 1-.368-.257Z" style="fill:#86d633;stroke:none;stroke-width:4.78125;stroke-linecap:butt"/></g><g transform="translate(14.595 -20.58)"><title>Sheet.19073</title><path d="m15.04 77.01 3.23-3.52a.173.172-180 0 0-.065-.272C11.64 70.39 4.6 72.22 0 78.25a.182.18-180 0 0 .267.24C4.53 74.7 9.49 74.85 14.85 77.05a.16.16-180 0 0 .185-.036z" style="fill:#86d633;stroke:none;stroke-width:4.78125;stroke-linecap:butt"/></g><g transform="translate(14.526 -17.69)"><title>Sheet.19074</title><path d="m11.97 77.87 1.92-2.08a.238.236-180 0 0-.07-.365C8.97 72.99 3.77 74.06.01 78.13a.24.237-180 0 0 .305.362C3.83 76.09 7.58 76.07 11.58 77.94a.329.326-180 0 0 .388-.069z" style="fill:#86d633;stroke:none;stroke-width:4.78125;stroke-linecap:butt"/></g><g transform="translate(12.797 -17.038)"><title>Sheet.19075</title><path d="M27.33 62.44a1.39 1.377-180 0 0-.9-.97 20.696 20.517-180 0 0-6.57-1.05c-7.99 0-15.33 4.31-19.66 11.52a1.386 1.374-180 0 0-.02 1.4 1.403 1.391-180 0 0 .73.6c-.02.02-.03.04-.05.06a1.343 1.331-180 0 0-.13 1.41 1.378 1.366-180 0 0 .83.69c-.09.09-.18.17-.27.26a1.415 1.402-180 0 0 1.85 2.11c1.64-1.13 2.91-1.35 4.73-1.35a11.69 11.589 0 0 1 4.94 1.22 1.544 1.53-180 0 0 .65.15 1.5 1.487-180 0 0 1.11-.48l.07-.07 1.85-2.02a1.418 1.406-180 0 0 .34-1.19c0-.02-.01-.05-.02-.07a1.324 1.312-180 0 0 .89-.41l1.02-1.1 2.22-2.42a1.325 1.314-180 0 0 .22-1.45c.04 0 .08.02.13.02a1.38 1.369-180 0 0 1.02-.45l2-2.18 2.71-2.95a1.388 1.376-180 0 0 .31-1.28m-11.71 12.7-1.92 2.08a.317.315 0 0 1-.237.103.35.348 0 0 1-.151-.034A12.79 12.679-180 0 0 7.87 75.95a10.064 9.977-180 0 0-5.82 1.89.239.237 0 0 1-.305-.362C4.16 74.86 7.18 73.48 10.32 73.48a11.53 11.43 0 0 1 5.23 1.29.238.236 0 0 1 .07.365zm4.45-5.19-3.24 3.52a.154.152 0 0 1-.115.05.181.18 0 0 1-.07-.014A18.193 18.035-180 0 0 9.76 71.96a11.18 11.083-180 0 0-7.69 2.99.174.173 0 0 1-.118.047.183.181 0 0 1-.15-.287c3.178-4.17 7.528-6.34 12.078-6.34A15.31 15.178 0 0 1 20 69.68a.173.172 0 0 1 .065.271zm6.08-7.02-4.72 5.14a.2.198 0 0 1-.15.065.217.215 0 0 1-.068-.011A23.184 22.984-180 0 0 14 66.87c-4.77 0-8.94 1.89-12.42 5.93a.225.223 0 0 1-.366-.257C5.46 65.45 12.66 61.59 19.86 61.59a19.546 19.377 0 0 1 6.2.99.22.218 0 0 1 .092.35z" style="fill:#fff;stroke:none;stroke-width:4.78125;stroke-linecap:butt"/></g><g transform="translate(6.816 -6.207)"><title>Sheet.19076</title><path d="M0 78.04v-1.98a4.505 4.466-180 0 0 2.36.66 2.242 2.223-180 0 0 1.47-.43 1.463 1.45-180 0 0 .53-1.18c0-1.04-.76-1.56-2.27-1.56a17.105 16.957-180 0 0-1.92.12l.4-5.84h5.71v1.88H2.39l-.16 2.1c.39-.03.72-.04 1.01-.04a3.73 3.697 0 0 1 2.6.84 2.956 2.93 0 0 1 .94 2.28 3.362 3.333 0 0 1-1.12 2.59 4.365 4.327 0 0 1-3.04 1.01A6.628 6.571 0 0 1 0 78.04m16.92-.43a7.9 7.832 0 0 1-3.93.88c-1.74 0-3.11-.47-4.11-1.4s-1.5-2.22-1.5-3.85a5.37 5.324 0 0 1 1.64-4.03c1.1-1.04 2.55-1.56 4.37-1.56a9.04 8.962 0 0 1 3.02.46v2.22a6.114 6.061-180 0 0-3.05-.7 3.316 3.287-180 0 0-2.47.95 3.492 3.462-180 0 0-.95 2.55 3.498 3.467-180 0 0 .85 2.5 3.042 3.016-180 0 0 2.31.88 3.277 3.248-180 0 0 1.39-.24v-2.05h-2.16v-1.88h4.59z" style="fill:#fff;stroke:none;stroke-width:4.78125;stroke-linecap:butt"/></g></g></g></svg>