<svg xmlns="http://www.w3.org/2000/svg" xml:space="preserve" width="73.564" height="73.564" style="font-size:12px;overflow:visible;color-interpolation-filters:sRGB;fill-rule:evenodd;stroke-linecap:square;stroke-miterlimit:3" viewBox="0 0 55.173 55.173"><defs><linearGradient id="a" x1="0" x2="40.09" y1="83.86" y2="83.86" gradientUnits="userSpaceOnUse"><stop offset="0" stop-color="#238ab0"/><stop offset=".11" stop-color="#2da4c8"/><stop offset=".775" stop-color="#3ed3f2"/></linearGradient></defs><g transform="translate(-34 -34)"><title>Page-1</title><g transform="translate(33.239 -34.016)"><title>NAT Gateway.19057</title><title>Icon-310-NATService</title><g transform="rotate(-45 14.173 89.73)"><title>Sheet.19059</title><path d="M0 122.11a1.84 1.84-180 0 0 1.84 1.84h36.41a1.84 1.84-180 0 0 1.84-1.84V85.7a1.84 1.84-180 0 0-1.84-1.84H1.84A1.84 1.84-180 0 0 0 85.7Z" style="fill:url(#a);stroke:none;stroke-width:34;stroke-linecap:butt"/></g><g transform="translate(12.143 -11.043)"><title>Sheet.19060</title><path d="m32.04 109.96-1.12-1.11v-4.29h-8.88v4.73h3.98l-10 10.01-10.01-10.01h4.05v-4.73H.3v4.73h.37l-.67.67 13.99 13.99 2.03-2.03 2.03 2.03z" style="fill:#9cebff;stroke:none;stroke-width:34;stroke-linecap:butt"/></g><g transform="rotate(-45.121 -19.03 98.03)"><title>Sheet.19061</title><ellipse cx="4.903" cy="119.019" rx="4.903" ry="4.928" style="fill:#fff;stroke:none;stroke-width:34;stroke-linecap:butt"/></g><g transform="rotate(-45.061 -22.682 96.52)"><title>Sheet.19062</title><ellipse cx="2.786" cy="121.134" rx="2.786" ry="2.814" style="fill:#86d633;stroke:none;stroke-width:34;stroke-linecap:butt"/></g><g transform="rotate(-45.121 -3.423 60.47)"><title>Sheet.19063</title><ellipse cx="4.903" cy="119.019" rx="4.903" ry="4.928" style="fill:#fff;stroke:none;stroke-width:34;stroke-linecap:butt"/></g><g transform="rotate(-45.061 -7.072 58.906)"><title>Sheet.19064</title><ellipse cx="2.786" cy="121.134" rx="2.786" ry="2.814" style="fill:#86d633;stroke:none;stroke-width:34;stroke-linecap:butt"/></g><g transform="translate(21.488 -8.344)"><title>Sheet.19065</title><path d="m13.2 90.91-6.21-6.22a.466.466-180 0 0-.662 0L.1 90.91a.466.466-180 0 0 .33.8l3.53-.01a.333.333 0 0 1 .333.333L4.3 123.95h4.74V92.04a.333.333 0 0 1 .31-.333l3.51-.007a.466.466-180 0 0 .339-.8z" style="fill:#fff;stroke:none;stroke-width:34;stroke-linecap:butt"/></g><g transform="rotate(-45.121 7.574 87.326)"><title>Sheet.19066</title><ellipse cx="4.903" cy="119.019" rx="4.903" ry="4.928" style="fill:#fff;stroke:none;stroke-width:34;stroke-linecap:butt"/></g><g transform="rotate(-45.061 3.954 85.787)"><title>Sheet.19067</title><ellipse cx="2.786" cy="121.134" rx="2.786" ry="2.814" style="fill:#86d633;stroke:none;stroke-width:34;stroke-linecap:butt"/></g></g></g></svg>