<svg xmlns="http://www.w3.org/2000/svg" xml:space="preserve" width="60.466" height="75.59" style="font-size:12px;overflow:visible;color-interpolation-filters:sRGB;fill-rule:evenodd;stroke-linecap:square;stroke-miterlimit:3" viewBox="0 0 45.349 56.693"><defs><linearGradient id="a" x1="0" x2="46.458" y1="65.004" y2="65.004" gradientTransform="scale(.89377 1.11886)" gradientUnits="userSpaceOnUse"><stop offset="0" stop-color="#5ea0ef"/><stop offset=".18" stop-color="#559cec"/><stop offset=".47" stop-color="#3c91e5"/><stop offset=".84" stop-color="#1380da"/><stop offset="1" stop-color="#0078d4"/></linearGradient></defs><g transform="translate(-34 -34.004)"><title>Page-1</title><g transform="translate(34 -34.016)"><title>Network Security Group.18970</title><title>Icon-networking-67</title><title>Sheet.18972</title><path d="M45.35 94.48c0 15.24-18.02 27.53-21.93 30.02a1.417 1.449 0 0 1-1.48 0C18.02 122.01 0 109.72 0 94.48V76.14a1.417 1.449 0 0 1 1.39-1.45c14.02-.37 10.78-6.67 21.29-6.67 10.5 0 7.27 6.3 21.29 6.67a1.417 1.449 0 0 1 1.38 1.45z" style="fill:#0078d4;stroke:none;stroke-width:34;stroke-linecap:butt"/><g transform="translate(1.88 -2.353)"><title>Sheet.18973</title><path d="M41.6 96.99c0 13.98-16.52 25.2-20.12 27.53a1.325 1.355 0 0 1-1.36 0C16.51 122.25 0 110.97 0 96.99V80.17a1.294 1.323 0 0 1 1.26-1.33c12.85-.34 9.89-6.11 19.54-6.11 9.64 0 6.68 5.77 19.53 6.11a1.294 1.323 0 0 1 1.27 1.33z" style="fill:#6bb9f2;stroke:none;stroke-width:34;stroke-linecap:butt"/></g><g transform="translate(1.972 -2.355)"><title>Sheet.18974</title><path d="M20.71 98.72V72.73c9.64 0 6.68 5.77 19.53 6.11a1.325 1.355 0 0 1 1.26 1.36v16.82a15.067 15.404 0 0 1 0 1.7zm0 0H0c1.23 13.17 16.58 23.63 20.03 25.8a1.202 1.229-180 0 0 .55.19h.13z" style="fill:url(#a);stroke:none;stroke-width:34;stroke-linecap:butt"/></g><g transform="translate(1.949 -2.355)"><title>Sheet.18975</title><path d="M1.19 78.84c12.85-.34 9.89-6.11 19.54-6.11v25.99H.02a15.067 15.404 0 0 1 0-1.7V80.2a1.325 1.355 0 0 1 1.17-1.36m40.24 19.88h-20.7v25.99a1.202 1.229-180 0 0 .55-.19c3.58-2.17 18.92-12.63 20.15-25.8" style="fill:#50e6ff;stroke:none;stroke-width:34;stroke-linecap:butt"/></g></g></g></svg>