<svg xmlns="http://www.w3.org/2000/svg" xml:space="preserve" width="75.587" height="68.032" style="font-size:12px;overflow:visible;color-interpolation-filters:sRGB;fill-rule:evenodd;stroke-linecap:square;stroke-miterlimit:3" viewBox="0 0 56.69 51.024"><defs><linearGradient id="a" x1="0" x2="29.297" y1="201.051" y2="201.051" gradientTransform="scale(1.93504 .51678)" gradientUnits="userSpaceOnUse"><stop offset="0" stop-color="#a67af4"/><stop offset="1" stop-color="#773adc"/></linearGradient><linearGradient id="b" x1="0" x2="29.297" y1="201.051" y2="201.051" gradientTransform="scale(1.93504 .51678)" gradientUnits="userSpaceOnUse"><stop offset="0" stop-color="#a67af4"/><stop offset="1" stop-color="#773adc"/></linearGradient><linearGradient id="c" x1="0" x2="29.297" y1="201.051" y2="201.051" gradientTransform="scale(1.93504 .51678)" gradientUnits="userSpaceOnUse"><stop offset="0" stop-color="#a67af4"/><stop offset="1" stop-color="#773adc"/></linearGradient></defs><g transform="translate(-34 -34)"><title>Page-1</title><g transform="translate(34 -34.016)"><title>Network Function Manager Device.19046</title><title>Sheet.19047</title><g transform="translate(0 -35.884)"><title>Sheet.19048</title><path d="M0 117.19a1.897 1.853-180 0 0 1.9 1.85h52.9a1.897 1.853-180 0 0 1.89-1.85v-11.44a1.897 1.853-180 0 0-1.89-1.85H1.9a1.897 1.853-180 0 0-1.9 1.85Z" style="fill:url(#a);stroke:none;stroke-width:34;stroke-linecap:butt"/></g><g transform="translate(47.878 -44.236)"><title>Sheet.19049</title><path d="M0 118.11a.947.925-180 0 0 .947.925l2.343.005a.947.925-180 0 0 .947-.925l.003-2.285a.947.925-180 0 0-.947-.925L.95 114.9a.947.925-180 0 0-.947.925z" style="fill:#fff;stroke:none;stroke-width:34;stroke-linecap:butt"/></g><g transform="translate(47.878 -38.53)"><title>Sheet.19050</title><path d="M0 118.11a.947.925-180 0 0 .947.925l2.343.005a.947.925-180 0 0 .947-.925l.003-2.285a.947.925-180 0 0-.947-.925L.95 114.9a.947.925-180 0 0-.947.925z" style="fill:#fff;fill-opacity:.6;stroke:none;stroke-width:34;stroke-linecap:butt"/></g><g transform="translate(0 -17.94)"><title>Sheet.19051</title><path d="M0 117.19a1.897 1.853-180 0 0 1.9 1.85h52.9a1.897 1.853-180 0 0 1.89-1.85v-11.44a1.897 1.853-180 0 0-1.89-1.85H1.9a1.897 1.853-180 0 0-1.9 1.85Z" style="fill:url(#b);stroke:none;stroke-width:34;stroke-linecap:butt"/></g><g transform="translate(47.878 -26.295)"><title>Sheet.19052</title><path d="M0 118.11a.947.925-180 0 0 .947.925l2.343.005a.947.925-180 0 0 .947-.925l.003-2.285a.947.925-180 0 0-.947-.925L.95 114.9a.947.925-180 0 0-.947.925z" style="fill:#fff;stroke:none;stroke-width:34;stroke-linecap:butt"/></g><g transform="translate(47.878 -20.59)"><title>Sheet.19053</title><path d="M0 118.11a.947.925-180 0 0 .947.925l2.343.005a.947.925-180 0 0 .947-.925l.003-2.285a.947.925-180 0 0-.947-.925L.95 114.9a.947.925-180 0 0-.947.925z" style="fill:#fff;fill-opacity:.6;stroke:none;stroke-width:34;stroke-linecap:butt"/></g><title>Sheet.19054</title><path d="M0 117.19a1.897 1.853-180 0 0 1.9 1.85h52.9a1.897 1.853-180 0 0 1.89-1.85v-11.44a1.897 1.853-180 0 0-1.89-1.85H1.9a1.897 1.853-180 0 0-1.9 1.85Z" style="fill:url(#c);stroke:none;stroke-width:34;stroke-linecap:butt"/><g transform="translate(47.878 -8.355)"><title>Sheet.19055</title><path d="M0 118.11a.947.925-180 0 0 .947.925l2.343.005a.947.925-180 0 0 .947-.925l.003-2.285a.947.925-180 0 0-.947-.925L.95 114.9a.947.925-180 0 0-.947.925z" style="fill:#fff;stroke:none;stroke-width:34;stroke-linecap:butt"/></g><g transform="translate(47.878 -2.65)"><title>Sheet.19056</title><path d="M0 118.11a.947.925-180 0 0 .947.925l2.343.005a.947.925-180 0 0 .947-.925l.003-2.285a.947.925-180 0 0-.947-.925L.95 114.9a.947.925-180 0 0-.947.925z" style="fill:#fff;fill-opacity:.6;stroke:none;stroke-width:34;stroke-linecap:butt"/></g></g></g></svg>