<svg xmlns="http://www.w3.org/2000/svg" xml:space="preserve" width="75.592" height="68.027" style="font-size:12px;overflow:visible;color-interpolation-filters:sRGB;fill-rule:evenodd;stroke-linecap:square;stroke-miterlimit:3" viewBox="0 0 56.694 51.02"><defs><linearGradient id="a" x1="0" x2="48.387" y1="64.51" y2="64.51" gradientTransform="scale(.9484 1.05441)" gradientUnits="userSpaceOnUse"><stop offset="0" stop-color="#5e9641"/><stop offset=".34" stop-color="#6baa42"/><stop offset=".67" stop-color="#73b743"/><stop offset="1" stop-color="#76bb43"/></linearGradient></defs><g transform="translate(-34 -34.004)"><title>Page-1</title><g transform="translate(34 -34.016)"><title>Network Interface.19004</title><title>Sheet.19005</title><g transform="translate(51.324 -3.266)"><title>Sheet.19006</title><path d="M0 76.08h4.24a1.134 1.157 0 0 1 1.13 1.15v11.91a1.134 1.157 0 0 1-1.13 1.16H0Zm0 20.71h4.24a1.134 1.157 0 0 1 1.13 1.16v19.93a1.134 1.157 0 0 1-1.13 1.16H0Z" style="fill:#ffca00;stroke:none;stroke-width:34;stroke-linecap:butt"/></g><g transform="translate(5.436)"><title>Sheet.19007</title><path d="M0 116.69a2.301 2.347-180 0 0 2.3 2.35h41.29a2.301 2.347-180 0 0 2.3-2.35V70.36a2.301 2.347-180 0 0-2.3-2.34H2.3A2.301 2.347-180 0 0 0 70.36Z" style="fill:url(#a);stroke:none;stroke-width:34;stroke-linecap:butt"/></g><g transform="translate(15.007 -12.246)"><title>Sheet.19008</title><path d="M3 119.04H.63a.667.68 0 0 1-.634-.714L0 89.92a.634.646 0 0 1 .634-.68H7.07a.634.646 0 0 1 .634.68.667.68 0 0 1-.634.715l-5.8.005v26.97H3a.667.68 0 0 1 .634.714.7.714 0 0 1-.634.715Z" style="fill:#b4ec36;stroke:none;stroke-width:34;stroke-linecap:butt"/></g><g transform="translate(11.939 -8.776)"><title>Sheet.19009</title><path d="M6.4 119.04H1.07a.667.68 0 0 1-.634-.714L0 83.19a.667.68 0 0 1 .2-.51.534.544 0 0 1 .434-.204l9.506-.006v1.4H1.3l.4 33.74h4.7zm20.01-3.13h-5.3a.634.646 0 0 1-.467-.238.6.612 0 0 1-.2-.476L20.44 98.56a.634.646 0 0 1 .634-.68h3.036v-7.65h1.27v8.3a.667.68 0 0 1-.6.714l-3.04-.004v15.04h4.67z" style="fill:#b4ec36;stroke:none;stroke-width:34;stroke-linecap:butt"/></g><g transform="translate(21.91 -37.758)"><title>Sheet.19010</title><path d="M0 118.15a.867.884-180 0 0 .867.884l18.743.006a.867.884-180 0 0 .867-.884l.003-8.816a.867.884-180 0 0-.867-.884L.87 108.46a.867.884-180 0 0-.867.884z" style="fill:#365615;stroke:none;stroke-width:34;stroke-linecap:butt"/></g><g transform="rotate(90 21.717 121.497)"><title>Sheet.19011</title><path d="M0 118.15a.867.884-180 0 0 .867.884l14.603.006a.867.884-180 0 0 .867-.884l.003-1.936a.867.884-180 0 0-.867-.884L.87 115.33a.867.884-180 0 0-.867.884z" style="fill:#365615;stroke:none;stroke-width:34;stroke-linecap:butt"/></g><g transform="rotate(90 18.582 118.43)"><title>Sheet.19012</title><path d="M0 118.15a.867.884-180 0 0 .867.884l14.603.006a.867.884-180 0 0 .867-.884l.003-1.936a.867.884-180 0 0-.867-.884L.87 115.33a.867.884-180 0 0-.867.884z" style="fill:#365615;stroke:none;stroke-width:34;stroke-linecap:butt"/></g><g transform="rotate(90 28.553 128.4)"><title>Sheet.19013</title><path d="M0 118.15a.867.884-180 0 0 .867.884l14.603.006a.867.884-180 0 0 .867-.884l.003-1.936a.867.884-180 0 0-.867-.884L.87 115.33a.867.884-180 0 0-.867.884z" style="fill:#f2f2f2;stroke:none;stroke-width:34;stroke-linecap:butt"/></g><g transform="translate(21.91 -24.9)"><title>Sheet.19014</title><ellipse cx="3.468" cy="115.23" rx="3.468" ry="3.81" style="fill:#f2f2f2;stroke:none;stroke-width:34;stroke-linecap:butt"/></g><g transform="translate(0 -14.457)"><title>Sheet.19015</title><path d="M5.37 119.04H1.13A1.134 1.157 0 0 1 0 118.02V98.09a1.134 1.157 0 0 1 1.13-1.16h4.24z" style="fill:#3b3b3b;stroke:none;stroke-width:34;stroke-linecap:butt"/></g></g></g></svg>