<svg xmlns="http://www.w3.org/2000/svg" xml:space="preserve" width="77.224" height="77.22" style="font-size:12px;overflow:visible;color-interpolation-filters:sRGB;fill-rule:evenodd;stroke-linecap:square;stroke-miterlimit:3" viewBox="0 0 57.918 57.915"><defs><linearGradient id="a" x1="0" x2="26.339" y1="99.568" y2="99.568" gradientTransform="scale(.99996 1.00004)" gradientUnits="userSpaceOnUse"><stop offset="0" stop-color="#32bedd"/><stop offset="1" stop-color="#50e6ff"/></linearGradient></defs><g transform="translate(-33.998 -33.996)"><title>Page-1</title><g transform="translate(35.218 -35.22)"><title>Network Verifier.18952</title><title>Sheet.18953</title><g transform="translate(1.604 -1.37)"><title>Sheet.18954</title><path d="M28.32 97.2a1.361 1.361 0 0 1-1.18-2.04L39.4 74.01a1.361 1.361 0 0 1 2.35 1.36L29.49 96.53a1.36 1.36 0 0 1-1.17.67m-3.31 3.23a1.36 1.36 0 0 1-.96-.4L9.23 85.12a1.358 1.358 0 1 1 1.92-1.91l14.82 14.9a1.358 1.358 0 0 1-.96 2.32m25.92 3.11a1.3 1.3 0 0 1-.19-.01l-21.18-3.01a1.36 1.36 0 0 1-1.15-1.54 1.374 1.374 0 0 1 1.54-1.15l21.17 3.01a1.361 1.361 0 0 1-.19 2.71zm-18.92 22.37a1.364 1.364 0 0 1-1.33-1.08l-3.69-17.54a1.36 1.36 0 1 1 2.66-.56l3.69 17.54a1.358 1.358 0 0 1-1.33 1.64m-30.68-16.8a1.361 1.361 0 0 1-.43-2.65l20.36-6.86a1.361 1.361 0 1 1 .87 2.58l-20.36 6.86a1.4 1.4 0 0 1-.44.07" style="fill:#83b9f9;stroke:none;stroke-width:34;stroke-linecap:butt"/></g><g transform="translate(30.677)"><title>Sheet.18955</title><path d="M26.02 100.71a4.16 4.16 0 1 1-4.16-4.16c2.3.01 4.16 1.87 4.16 4.16M7.1 122.98a4.16 4.16 0 1 1-4.16-4.17h.01c2.3.01 4.15 1.87 4.15 4.17" style="fill:#a67af4;stroke:none;stroke-width:34;stroke-linecap:butt"/></g><g transform="translate(15.023 -14.589)"><title>Sheet.18956</title><ellipse cx="13.169" cy="112.742" rx="13.169" ry="13.17" style="fill:url(#a);stroke:none;stroke-width:34;stroke-linecap:butt"/></g><g transform="translate(19.923 -21.977)"><title>Sheet.18957</title><path d="m6.92 124.55-1.21 1.21a.53.53 0 0 1-.746 0L.15 120.95a.53.53 0 0 1 0-.747l.84-.843a.53.53 0 0 1 .746 0z" style="fill:#fff;stroke:none;stroke-width:34;stroke-linecap:butt"/></g><g transform="translate(23.7 -21.964)"><title>Sheet.18958</title><path d="M1.21 125.76 0 124.55l11.06-11.06a.53.53 0 0 1 .746 0l.834.83a.53.53 0 0 1 0 .747L1.96 125.76a.53.53 0 0 1-.746 0z" style="fill:#f0f0f0;stroke:none;stroke-width:34;stroke-linecap:butt"/></g><g transform="translate(0 -16.454)"><title>Sheet.18959</title><path d="M16.22 99.25a4.16 4.16 0 1 1-4.16-4.16h.01c2.29 0 4.15 1.86 4.15 4.16m30.19-9.41a4.16 4.16 0 1 1-4.16-4.17h.01a4.17 4.17 0 0 1 4.15 4.17M7.1 122.97a4.16 4.16 0 1 1-4.16-4.16h.01c2.29.01 4.15 1.87 4.15 4.16" style="fill:#a67af4;stroke:none;stroke-width:34;stroke-linecap:butt"/></g></g></g></svg>