<svg xmlns="http://www.w3.org/2000/svg" xml:space="preserve" width="75.594" height="75.59" style="font-size:12px;overflow:visible;color-interpolation-filters:sRGB;fill-rule:evenodd;stroke-linecap:square;stroke-miterlimit:3" viewBox="0 0 56.695 56.692"><g transform="translate(-11.334 -11.332)"><title>Page-1</title><g transform="translate(11.333 -34.016)"><title>Networking.18934</title><title>g22</title><g transform="translate(0 -22.986)"><title>path4</title><path d="M0 75.65v24.8a1.585 1.594-180 0 0 1.59 1.59h15.34l3.7-3.62c2.29-2.72 4.08-.94 4.08-.94v.07c1.85 1.74-.48 3.97-.48 3.97l-.54.52h14.1a1.585 1.594-180 0 0 1.59-1.59v-24.8z" style="fill:#59b4d9;stroke:none;stroke-width:11.33329964;stroke-linecap:butt"/></g><g transform="translate(0 -46.657)"><title>path6</title><path d="M37.79 92.01H1.59A1.575 1.583-180 0 0 0 93.6v8.44h39.38V93.6a1.585 1.594-180 0 0-1.59-1.59" style="fill:#a0a1a2;stroke:none;stroke-width:11.33329964;stroke-linecap:butt"/></g><g transform="translate(0 -22.923)"><title>path8</title><path d="M1.59 68.27A1.585 1.594-180 0 0 0 69.87v30.6a1.585 1.594-180 0 0 1.59 1.57h1.72l31.04-33.77Z" style="fill:#fff;fill-opacity:.2;stroke:none;stroke-width:11.33329964;stroke-linecap:butt"/></g><g transform="translate(10.12 -49.791)"><title>path10</title><path d="M0 98.918h26.518v3.124H0z" style="fill:#fff;stroke:none;stroke-width:11.33329964;stroke-linecap:butt"/></g><g transform="translate(2.347 -48.67)"><title>path12</title><path d="M6.56 99.3a3.842 3.862 0 1 1-3.85-3.86 3.842 3.862 0 0 1 3.85 3.86" style="fill:#59b4d9;stroke:none;stroke-width:11.33329964;stroke-linecap:butt"/></g><g transform="translate(3.128 -29.761)"><title>path14</title><path d="m1.53 80.83 1.75 1.86h-.95L0 80.45l2.32-2.23h.94l-1.73 1.84h4.24v.77zm9.06 19.67a1.417 1.425 0 0 1-.48 1.11 1.827 1.836 0 0 1-1.26.43 1.722 1.73 0 0 1-1.19-.44 1.407 1.414 0 0 1-.49-1.06 1.375 1.382 0 0 1 .49-1.05 1.816 1.826 0 0 1 1.24-.42 1.753 1.762 0 0 1 1.21.43 1.386 1.393 0 0 1 .48 1m7.02 0a1.417 1.425 0 0 1-.49 1.11 1.827 1.836 0 0 1-1.26.43 1.722 1.73 0 0 1-1.14-.44 1.407 1.414 0 0 1-.5-1.06 1.375 1.382 0 0 1 .5-1.16 1.816 1.826 0 0 1 1.24-.42 1.753 1.762 0 0 1 1.2.43 1.386 1.393 0 0 1 .45 1.11m7.01 0a1.417 1.425 0 0 1-.45 1.11 1.827 1.836 0 0 1-1.26.43 1.722 1.73 0 0 1-1.19-.44 1.407 1.414 0 0 1-.49-1.06 1.375 1.382 0 0 1 .49-1.05 1.816 1.826 0 0 1 1.24-.42 1.753 1.762 0 0 1 1.21.31 1.386 1.393 0 0 1 .45 1.12" style="fill:#fff;stroke:none;stroke-width:11.33329964;stroke-linecap:butt"/></g><g transform="translate(9.697)"><title>path16</title><path d="M46.68 89.19a1.28 1.287-180 0 0 0-1.7l-2.26-2.27-10.13-9.9a1.05 1.055-180 0 0-1.6 0 1.113 1.119-180 0 0 0 1.7L43.3 87.49a1.186 1.193 0 0 1 0 1.7l-10.79 10.84a1.186 1.193-180 0 0 0 1.69 1.165 1.171-180 0 0 1.59 0l10.04-9.99.09-.09zm-46.36 0a1.28 1.287 0 0 1 0-1.7l2.26-2.27 10.13-9.91a1.05 1.055 0 0 1 1.59 0 1.113 1.119 0 0 1 0 1.7L3.89 87.48a1.186 1.193-180 0 0 0 1.7l10.56 10.85a1.186 1.193 0 0 1 0 1.69 1.165 1.171 0 0 1-1.6 0L2.67 91.78l-.09-.09Z" style="fill:#3999c6;stroke:none;stroke-width:11.33329964;stroke-linecap:butt"/></g><g transform="translate(20.43 -10.597)"><title>path18</title><path d="M6.38 98.93a3.15 3.166 0 0 1-3.09 3.11A3.433 3.45 0 0 1 0 98.93a3.15 3.166 0 0 1 3.29-3.11 3.065 3.082 0 0 1 3.09 3.11m9.48 0a3.15 3.166 0 0 1-3.09 3.11 3.433 3.45 0 0 1-3.29-3.11 3.296 3.314 0 0 1 3.29-3.11 3.15 3.166 0 0 1 3.09 3.11" style="fill:#57a300;stroke:none;stroke-width:11.33329964;stroke-linecap:butt"/></g><g transform="translate(39.672 -10.597)"><title>circle20</title><ellipse cx="3.097" cy="98.929" rx="3.097" ry="3.113" style="fill:#57a300;stroke:none;stroke-width:11.33329964;stroke-linecap:butt"/></g></g></g></svg>