<svg xmlns="http://www.w3.org/2000/svg" xml:space="preserve" width="71.842" height="75.592" style="font-size:12px;overflow:visible;color-interpolation-filters:sRGB;fill-rule:evenodd;stroke-linecap:square;stroke-miterlimit:3" viewBox="0 0 53.882 56.694"><defs><linearGradient id="a" x1="-.016" x2="34.535" y1="118.019" y2="118.019" gradientTransform="scale(1.2234 .8174)" gradientUnits="userSpaceOnUse"><stop offset="0" stop-color="#a67af4"/><stop offset="1" stop-color="#773adc"/></linearGradient><linearGradient id="b" x1="0" x2="26.076" y1="97.881" y2="97.881" gradientTransform="scale(.99397 1.00607)" gradientUnits="userSpaceOnUse"><stop offset="0" stop-color="#a67af4"/><stop offset="1" stop-color="#773adc"/></linearGradient><linearGradient id="c" x1="0" x2="18.177" y1="218.938" y2="218.938" gradientTransform="scale(1.90133 .52595)" gradientUnits="userSpaceOnUse"><stop offset="0" stop-color="#3cd4c2"/><stop offset="1" stop-color="#37c2b1"/></linearGradient><linearGradient id="d" x1="0" x2="18.177" y1="218.938" y2="218.938" gradientTransform="scale(1.90133 .52595)" gradientUnits="userSpaceOnUse"><stop offset="0" stop-color="#3cd4c2"/><stop offset="1" stop-color="#37c2b1"/></linearGradient></defs><g transform="translate(-34 -34)"><title>Page-1</title><g transform="translate(34.02 -34.016)"><title>Network Function Manager Vendor.19025</title><title>Sheet.19026</title><g transform="translate(0 -5.341)"><title>Sheet.19027</title><path d="M17.67 121.66a2.757 2.79 0 0 1 .89-2.05 2.77 2.803 0 0 1-.89-2.04v-7.23a2.793 2.827 0 0 1 2.79-2.82h21.79a20.845 21.099-180 0 0-19.03-11.04c-14.03 0-21.7 9-23.22 23.58a4.145 4.195-180 0 0 3.7 4.58l13.97.07z" style="fill:url(#a);stroke:none;stroke-width:34;stroke-linecap:butt"/></g><g transform="translate(16.497 -14.197)"><title>Sheet.19028</title><path d="M6.91 108.44a12.874 13.03 0 0 1-6.91-2.1l6.91 18.37 6.9-18.22a13.196 13.356 0 0 1-6.9 1.95" style="fill:#fff;fill-opacity:.8;stroke:none;stroke-width:34;stroke-linecap:butt"/></g><g transform="translate(10.344 -30.459)"><title>Sheet.19029</title><ellipse cx="12.959" cy="111.592" rx="12.959" ry="13.117" style="fill:url(#b);stroke:none;stroke-width:34;stroke-linecap:butt"/></g><g transform="translate(19.303 -11.313)"><title>Sheet.19030</title><path d="M0 123.54a1.155 1.17-180 0 0 1.16 1.17H33.4a1.155 1.17-180 0 0 1.16-1.17v-7.22a1.155 1.17-180 0 0-1.16-1.17H1.16A1.155 1.17-180 0 0 0 116.32Z" style="fill:url(#c);stroke:none;stroke-width:34;stroke-linecap:butt"/></g><g transform="translate(48.49 -16.588)"><title>Sheet.19031</title><path d="M0 124.12a.578.585-180 0 0 .578.585l1.432.005a.578.585-180 0 0 .578-.585l-.008-1.445a.578.585-180 0 0-.578-.585L.58 122.09a.578.585-180 0 0-.578.585z" style="fill:#fff;stroke:none;stroke-width:34;stroke-linecap:butt"/></g><g transform="translate(48.49 -12.987)"><title>Sheet.19032</title><path d="M0 124.12a.578.585-180 0 0 .578.585l1.432.005a.578.585-180 0 0 .578-.585l-.008-1.445a.578.585-180 0 0-.578-.585L.58 122.09a.578.585-180 0 0-.578.585z" style="fill:#fff;fill-opacity:.6;stroke:none;stroke-width:34;stroke-linecap:butt"/></g><g transform="translate(19.303)"><title>Sheet.19033</title><path d="M0 123.54a1.155 1.17-180 0 0 1.16 1.17H33.4a1.155 1.17-180 0 0 1.16-1.17v-7.22a1.155 1.17-180 0 0-1.16-1.17H1.16A1.155 1.17-180 0 0 0 116.32Z" style="fill:url(#d);stroke:none;stroke-width:34;stroke-linecap:butt"/></g><g transform="translate(48.49 -5.275)"><title>Sheet.19034</title><path d="M0 124.12a.578.585-180 0 0 .578.585l1.432.005a.578.585-180 0 0 .578-.585l-.008-1.445a.578.585-180 0 0-.578-.585L.58 122.09a.578.585-180 0 0-.578.585z" style="fill:#fff;stroke:none;stroke-width:34;stroke-linecap:butt"/></g><g transform="translate(48.49 -1.67)"><title>Sheet.19035</title><path d="M0 124.12a.578.585-180 0 0 .578.585l1.432.005a.578.585-180 0 0 .578-.585l-.008-1.445a.578.585-180 0 0-.578-.585L.58 122.09a.578.585-180 0 0-.578.585z" style="fill:#fff;fill-opacity:.6;stroke:none;stroke-width:34;stroke-linecap:butt"/></g></g></g></svg>