<svg xmlns="http://www.w3.org/2000/svg" xml:space="preserve" width="74.73" height="74.75" style="font-size:12px;overflow:visible;color-interpolation-filters:sRGB;fill-rule:evenodd;stroke-linecap:square;stroke-miterlimit:3" viewBox="0 0 56.048 56.063"><defs><radialGradient id="a" cx="40.589" cy="84.677" r="57.136" fx="40.589" fy="84.677" gradientTransform="scale(1.0046 .99542)" gradientUnits="userSpaceOnUse"><stop offset="0" stop-color="#5ea0ef"/><stop offset=".28" stop-color="#5b9fee"/><stop offset=".47" stop-color="#529bec"/><stop offset=".64" stop-color="#4394e7"/><stop offset=".79" stop-color="#2d8be1"/><stop offset=".93" stop-color="#117fd9"/><stop offset="1" stop-color="#0078d4"/></radialGradient></defs><g transform="translate(-33.998 -34)"><title>Page-1</title><g transform="translate(33.13 -34.016)"><title>Network Watcher.18945</title><title>Icon-networking-66</title><g transform="rotate(-45 1.602 121.147)"><title>Sheet.18947</title><path d="M0 122.83a2.087 2.078-180 0 0 2.09 2.08h15.33a2.087 2.078-180 0 0 2.09-2.08v-.26a2.087 2.078-180 0 0-2.09-2.08H2.09A2.087 2.078-180 0 0 0 122.57Z" style="fill:#198ab3;stroke:none;stroke-width:34;stroke-linecap:butt"/></g><g transform="translate(16.14 -16.273)"><title>Sheet.18948</title><path d="M39.39 96.96a21.333 21.24-180 0 0-2.49-4.45 20.67 20.58-180 0 0-28.95-4.09l-.2.17A20.472 20.383-180 0 0 .43 99.57c0 .72-.33 1.45-.43 2.18a20.704 20.614-180 0 0 6.26 18 6.923 6.893-180 0 0 .73.66l.73.6a19.08 18.998-180 0 0 3.11 1.98l.33.19.57.23.46.24.5.19.53.2.46.17.66.19h.37l.96.27 1.06.23h.26a6.294 6.267-180 0 0 .83 0h5.04a16.894 16.82-180 0 0 2.51-.5 20.538 20.449-180 0 0 7.33-3.62 21.068 20.977-180 0 0 3.74-3.73 20.803 20.713-180 0 0 2.95-20.09m-4.81-3.06h-4.04a19.61 19.525-180 0 0-2.91-5.48 17.69 17.612 0 0 1 7.05 5.48zm-12.95-6.6a10.832 10.785 0 0 1 5.96 6.6h-5.96zm0 9.37h6.86a30.576 30.442 0 0 1 1.09 6.96h-7.95zm0 9.59h7.95a30.576 30.442 0 0 1-1.09 7h-6.76v-7.13zm-10.33-4.71a28.92 28.793 0 0 1 .92-5.02h6.86v6.96h-7.92c.04-.66.07-1.32.14-1.94m7.78-14.38v6.59h-5.93a10.7 10.653 0 0 1 5.93-6.59m-9.71 3.49a19.313 19.228 0 0 1 3.65-2.11 20.273 20.185-180 0 0-2.92 5.51H6.26a18.816 18.734 0 0 1 3.11-3.4m-4.93 5.87h5.13a30.178 30.047-180 0 0-.79 4.42c0 .83-.17 1.69-.17 2.54H2.45a21.4 21.306 0 0 1 .5-2.47 19.876 19.79 0 0 1 1.49-4.49m-1.99 9.6h6.06a30.973 30.838-180 0 0 1.06 6.99H4.44a17.756 17.678 0 0 1-1.99-6.99m3.81 9.7h4.01a19.61 19.525-180 0 0 2.91 5.47 17.59 17.513 0 0 1-6.92-5.47m12.89 6.6a10.7 10.653 0 0 1-5.93-6.6h5.93zm0-9.37h-6.93a30.609 30.475 0 0 1-1.06-6.99h7.92v7.05zm5.07 7.98a6.625 6.596 0 0 1-2.42 1.39v-6.6h5.96a14.708 14.644 0 0 1-3.61 5.28zm7.22-2.14a17.193 17.118 0 0 1-3.81 2.24 19.61 19.525-180 0 0 2.91-5.48h4.14a17.723 17.645 0 0 1-3.24 3.24m4.9-5.87h-4.97a35.246 35.093-180 0 0 .96-7h6a17.458 17.381 0 0 1-1.99 7.09zm-4.01-9.54a35.246 35.093-180 0 0-.96-6.96h5a18.352 18.272 0 0 1 1.99 6.96z" style="fill:url(#a);stroke:none;stroke-width:34;stroke-linecap:butt"/></g><g transform="translate(6.897 -9.163)"><title>Sheet.18949</title><ellipse cx="13.383" cy="111.588" rx="13.383" ry="13.325" style="fill:#50e6ff;stroke:none;stroke-width:34;stroke-linecap:butt"/></g><g transform="translate(9.746 -12.263)"><title>Sheet.18950</title><ellipse cx="10.501" cy="114.457" rx="10.501" ry="10.455" style="fill:#fff;stroke:none;stroke-width:34;stroke-linecap:butt"/></g><g transform="translate(10.64 -16.353)"><title>Sheet.18951</title><path d="m4.21 118.78 2.65 6.13 2.68-7.88 2.22 4.49 2.75-4.62h4.27a11.826 11.775-180 0 0-.39-1.55h-4.61l-1.79 3-2.75-5.21-2.55 7.49-2.32-5.31-2.85 5.17H0a8.513 8.476-180 0 0 .5 1.55h1.92z" style="fill:#76bc2d;stroke:none;stroke-width:34;stroke-linecap:butt"/></g></g></g></svg>