<svg xmlns="http://www.w3.org/2000/svg" xml:space="preserve" width="71.815" height="75.59" style="font-size:12px;overflow:visible;color-interpolation-filters:sRGB;fill-rule:evenodd;stroke-linecap:square;stroke-miterlimit:3" viewBox="0 0 53.861 56.693"><defs><linearGradient id="a" x1="0" x2="34.259" y1="89.689" y2="89.689" gradientTransform="scale(.99389 1.00615)" gradientUnits="userSpaceOnUse"><stop offset="0" stop-color="#5ea0ef"/><stop offset="1" stop-color="#0078d4"/></linearGradient></defs><g transform="translate(-33.997 -34.001)"><title>Page-1</title><g transform="translate(34 -34.016)"><title>Network Manager.18994</title><title>Sheet.18995</title><g transform="translate(28.706 -40.51)"><title>Sheet.18996</title><ellipse cx="2.873" cy="121.839" rx="2.873" ry="2.87" style="fill:#76bc2d;stroke:none;stroke-width:34;stroke-linecap:butt"/></g><g transform="translate(19.534 -40.484)"><title>Sheet.18997</title><ellipse cx="2.873" cy="121.839" rx="2.873" ry="2.87" style="fill:#76bc2d;stroke:none;stroke-width:34;stroke-linecap:butt"/></g><g transform="translate(10.366 -40.484)"><title>Sheet.18998</title><ellipse cx="2.873" cy="121.839" rx="2.873" ry="2.87" style="fill:#76bc2d;stroke:none;stroke-width:34;stroke-linecap:butt"/></g><g transform="translate(.015 -30.025)"><title>Sheet.18999</title><path d="m15.31 122.86-1.64 1.63a.741.74 0 0 1-1.05 0L.43 112.37a1.486 1.484 0 0 1 0-2.09l1.65-1.65 13.24 13.18a.747.747 0 0 1 0 1.052z" style="fill:#50e6ff;stroke:none;stroke-width:34;stroke-linecap:butt"/></g><g transform="translate(0 -40.74)"><title>Sheet.19000</title><path d="m13.43 109 1.65 1.63a.741.74 0 0 1 0 1.049l-13 13.031-1.65-1.64a1.492 1.49 0 0 1 0-2.1L12.38 109a.741.74 0 0 1 1.05 0" style="fill:#1490df;stroke:none;stroke-width:34;stroke-linecap:butt"/></g><g transform="translate(33.042 -36.675)"><title>Sheet.19001</title><path d="M1.75 124.7h3.66l5.71-5.7a1.489 1.487-180 0 0 0-2.09l-1.64-1.65L0 124.71Z" style="fill:#50e6ff;stroke:none;stroke-width:34;stroke-linecap:butt"/></g><g transform="translate(29.301 -40.755)"><title>Sheet.19002</title><path d="m14.86 123.07-1.65 1.64-13-13.02a.741.74 0 0 1 0-1.036l1.67-1.664a.741.74 0 0 1 1.05 0l11.95 11.97a1.489 1.487 0 0 1 0 2.1z" style="fill:#1490df;stroke:none;stroke-width:34;stroke-linecap:butt"/></g><g transform="translate(19.808)"><title>Sheet.19003</title><path d="M34.05 109.35v-3.86h-.51l-4.2-1.3-.96-2.89 2.1-4.53-2.73-2.73h-.51l-3.91 1.99-2.62-1.08-1.7-4.71h-4.03v.57l-1.36 4.14-2.67 1.08-4.41-2.1-2.73 2.72.29.51 1.57 4.2-.9 2.83L0 105.72v4.14h.57l4.14 1.36.96 2.55-2.1 4.53 2.84 2.89.57-.28 3.86-1.98 2.67 1.08 1.7 4.7h3.86v-.57l1.36-4.13 2.67-1.08 4.48 2.09 2.73-2.72-.29-.51-1.64-4.09 1.07-2.66zm-16.91 5.67h-.12a7.434 7.425 0 1 1 .12 0" style="fill:url(#a);stroke:none;stroke-width:34;stroke-linecap:butt"/></g></g></g></svg>