<svg xmlns="http://www.w3.org/2000/svg" xml:space="preserve" width="73.563" height="73.563" style="font-size:12px;overflow:visible;color-interpolation-filters:sRGB;fill-rule:evenodd;stroke-linecap:square;stroke-miterlimit:3" viewBox="0 0 55.172 55.172"><defs><linearGradient id="a" x1="0" x2="40.09" y1="83.86" y2="83.86" gradientUnits="userSpaceOnUse"><stop offset="0" stop-color="#0078d4"/><stop offset=".5" stop-color="#4093e6"/><stop offset=".775" stop-color="#5ea0ef"/></linearGradient></defs><g transform="translate(-34.001 -34)"><title>Page-1</title><g transform="translate(33.238 -34.016)"><title>Network Interface Effective Route.19021</title><title>MsPortalFx.base.images-14</title><g transform="rotate(-45 14.173 89.73)"><title>Sheet.19023</title><path d="M0 122.11a1.84 1.84-180 0 0 1.84 1.84h36.41a1.84 1.84-180 0 0 1.84-1.84V85.7a1.84 1.84-180 0 0-1.84-1.84H1.84A1.84 1.84-180 0 0 0 85.7Z" style="fill:url(#a);stroke:none;stroke-width:34;stroke-linecap:butt"/></g><g transform="translate(19.06 -10.623)"><title>Sheet.19024</title><path d="m26.85 105.41-5.19-4.68c-.71-.7-1.02-.52-1.02.53v2.07a.653.653 0 0 1-.653.65 7.39 7.39 0 0 1-7.817-4.56v-9.69a.89.89-180 0 0-.892-.892l-4.468.002a.89.89-180 0 0-.892.892l.002 24.458a.44.44 0 0 1-.438.438L.4 114.63a.441.441-180 0 0-.307.75l8.257 8.28a.98.98-180 0 0 1.392 0l8.278-8.26a.441.441-180 0 0-.307-.75H12.61a.44.44 0 0 1-.438-.454l-.002-8.226a13.6 13.6-180 0 0 7.81 2.14.64.64 0 0 1 .656.647L20.64 111c0 .88.47 1.07 1.02.53l5.19-5.05a.647.647-180 0 0 0-1.07" style="fill:#c3f1ff;stroke:none;stroke-width:34;stroke-linecap:butt"/></g></g></g></svg>