<svg xmlns="http://www.w3.org/2000/svg" xml:space="preserve" width="78.339" height="71.807" style="font-size:12px;overflow:visible;color-interpolation-filters:sRGB;fill-rule:evenodd;stroke-linecap:square;stroke-miterlimit:3" viewBox="0 0 58.754 53.855"><defs><linearGradient id="a" x1="-.005" x2="38.405" y1="83.301" y2="83.301" gradientTransform="scale(.9987 1.00131)" gradientUnits="userSpaceOnUse"><stop offset="0" stop-color="#9d79eb"/><stop offset="1" stop-color="#7548d6"/></linearGradient><linearGradient id="b" x1="0" x2="19.668" y1="212.819" y2="212.819" gradientTransform="scale(1.90766 .5242)" gradientUnits="userSpaceOnUse"><stop offset="0" stop-color="#3cd4c2"/><stop offset="1" stop-color="#37c2b1"/></linearGradient><linearGradient id="c" x1="0" x2="19.668" y1="212.819" y2="212.819" gradientTransform="scale(1.90766 .5242)" gradientUnits="userSpaceOnUse"><stop offset="0" stop-color="#3cd4c2"/><stop offset="1" stop-color="#37c2b1"/></linearGradient></defs><g transform="translate(-33.995 -34)"><title>Page-1</title><g transform="translate(36.053 -34.016)"><title>Network Function Manager Network Function.19036</title><title>Sheet.19037</title><g transform="translate(0 -13.296)"><title>Sheet.19038</title><path d="M11.72 84.88a24.674 24.814-180 0 0-4.15 8.36H2.45a19.29 19.4 0 0 1 9.27-8.36m-10.46 24.6H7.2a25.903 26.05 0 0 1-1-6.82 33.12 33.307 0 0 1 .83-7.36H1.45a18.981 19.089-180 0 0-.19 14.18m11.79 11.44a28.776 28.939 0 0 1-5.2-9.38H2.17a19.267 19.376-180 0 0 10.88 9.38m-3.02-9.38a20.673 20.79-180 0 0 7.17 10.31c.19.02.38.02.56.02 0-.05-.03-.1-.03-.16v-7.8a2.625 2.64 0 0 1 .5-1.49v-.88zm-1.78-8.88a24.221 24.358-180 0 0 1.11 6.82h8.9V95.3H9.11a31.24 31.417-180 0 0-.86 7.36m1.43-9.42h8.58v-9.83a18.579 18.684-180 0 0-1.85.17 15.756 15.845-180 0 0-6.73 9.66m11.86-9.72a19.257 19.366-180 0 0-1.25-.1v9.82h8.11a15.413 15.5-180 0 0-6.86-9.72m-1.25 25.96h8.43a24.349 24.487-180 0 0 1.11-6.82 31.065 31.241-180 0 0-.86-7.36h-8.68zm5.94-24.75a24.375 24.514 0 0 1 4.28 8.51h5.4a19.287 19.396-180 0 0-9.68-8.51m4.81 10.57a33.082 33.27 0 0 1 .83 7.35 25.953 26.1 0 0 1-1.01 6.83h6.23a18.981 19.089-180 0 0-.19-14.18Z" style="fill:url(#a);stroke:none;stroke-width:34;stroke-linecap:butt"/></g><g transform="translate(19.177)"><title>Sheet.19039</title><path d="M0 120.61a1.255 1.263-180 0 0 1.26 1.26h35a1.255 1.263-180 0 0 1.26-1.26v-7.79a1.255 1.263-180 0 0-1.26-1.26h-35A1.255 1.263-180 0 0 0 112.82Z" style="fill:url(#b);stroke:none;stroke-width:34;stroke-linecap:butt"/></g><g transform="translate(50.866 -5.691)"><title>Sheet.19040</title><path d="M0 121.24a.628.631-180 0 0 .628.631l1.552-.001a.628.631-180 0 0 .628-.631L2.8 119.69a.628.631-180 0 0-.628-.631l-1.542.001a.628.631-180 0 0-.628.631z" style="fill:#fff;stroke:none;stroke-width:34;stroke-linecap:butt"/></g><g transform="translate(50.866 -1.806)"><title>Sheet.19041</title><path d="M0 121.24a.628.631-180 0 0 .628.631l1.552-.001a.628.631-180 0 0 .628-.631L2.8 119.69a.628.631-180 0 0-.628-.631l-1.542.001a.628.631-180 0 0-.628.631z" style="fill:#fff;fill-opacity:.6;stroke:none;stroke-width:34;stroke-linecap:butt"/></g><g transform="translate(0 -11.17)"><title>Sheet.19042</title><path d="M17.77 119.75c-.18 0-.37 0-.56-.03a20.673 20.79 0 0 1-7.17-10.31h8.2v.89a2.655 2.67 0 0 1 2.19-1.23h18.13a20.673 20.79-180 0 0-.15-17.55l-.2-.41A21.25 21.37-180 0 0 22.05 79.4a4.488 4.513-180 0 0-.99-.12 20.556 20.672-180 0 0-4.05.01 5.82 5.853-180 0 0-1.15.18A21.267 21.388-180 0 0 .17 91.12H.13v.04a21.146 21.266-180 0 0 16.4 30.53.534.537-180 0 0 .161.024 20.371 20.486-180 0 0 2.389.156 2.662 2.677 0 0 1-1.31-2.12m19.33-12.4h-6.23a25.953 26.1-180 0 0 1.01-6.83 33.082 33.27-180 0 0-.83-7.35h5.87a18.981 19.089 0 0 1 .18 14.18m-1.19-16.23h-5.4a24.375 24.514-180 0 0-4.28-8.51 19.287 19.396 0 0 1 9.68 8.51m-15.62-9.83c.42.03.83.06 1.25.11a15.413 15.5 0 0 1 6.86 9.71h-8.11zm0 11.88h8.68a31.065 31.241 0 0 1 .86 7.36 24.349 24.487 0 0 1-1.11 6.82h-8.43zm-2.03 14.18h-8.9a24.221 24.358 0 0 1-1.11-6.82 31.24 31.417 0 0 1 .86-7.36h9.15zM16.4 81.47c.61-.09 1.22-.15 1.85-.18v9.83H9.68a15.756 15.845 0 0 1 6.72-9.65m-4.7 1.3a24.674 24.814-180 0 0-4.13 8.35H2.45a19.29 19.4 0 0 1 9.27-8.37zM1.45 93.17h5.59a33.12 33.307-180 0 0-.83 7.36 25.903 26.05-180 0 0 1 6.82H1.26a18.981 19.089 0 0 1 .19-14.18m.72 16.24h5.68a28.776 28.939-180 0 0 5.21 9.38 19.267 19.376 0 0 1-10.89-9.38" style="fill:#b796f9;stroke:none;stroke-width:34;stroke-linecap:butt"/></g><g transform="translate(19.177 -12.203)"><title>Sheet.19043</title><path d="M0 120.61a1.255 1.263-180 0 0 1.26 1.26h35a1.255 1.263-180 0 0 1.26-1.26v-7.79a1.255 1.263-180 0 0-1.26-1.26h-35A1.255 1.263-180 0 0 0 112.82Z" style="fill:url(#c);stroke:none;stroke-width:34;stroke-linecap:butt"/></g><g transform="translate(50.866 -17.897)"><title>Sheet.19044</title><path d="M0 121.24a.628.631-180 0 0 .628.631l1.552-.001a.628.631-180 0 0 .628-.631L2.8 119.69a.628.631-180 0 0-.628-.631l-1.542.001a.628.631-180 0 0-.628.631z" style="fill:#fff;stroke:none;stroke-width:34;stroke-linecap:butt"/></g><g transform="translate(50.866 -14.009)"><title>Sheet.19045</title><path d="M0 121.24a.628.631-180 0 0 .628.631l1.552-.001a.628.631-180 0 0 .628-.631L2.8 119.69a.628.631-180 0 0-.628-.631l-1.542.001a.628.631-180 0 0-.628.631z" style="fill:#fff;fill-opacity:.6;stroke:none;stroke-width:34;stroke-linecap:butt"/></g></g></g></svg>