<svg xmlns="http://www.w3.org/2000/svg" xmlns:xlink="http://www.w3.org/1999/xlink" xml:space="preserve" width="75.63" height="75.523" style="font-size:12px;overflow:visible;color-interpolation-filters:sRGB;fill-rule:evenodd;stroke-linecap:square;stroke-miterlimit:3" viewBox="0 0 56.723 56.642"><defs><linearGradient id="a" x1="0" x2="1" y1="0" y2="0" gradientTransform="rotate(90 .5 .5)"><stop offset=".165" stop-color="#50e6ff"/><stop offset="1" stop-color="#32bedd"/></linearGradient><linearGradient id="c" x1="0" x2="22.463" y1="115.095" y2="115.095" gradientTransform="scale(1.1033 .90637)" gradientUnits="userSpaceOnUse"><stop offset="0" stop-color="#32bedd"/><stop offset=".825" stop-color="#50e6ff"/></linearGradient><linearGradient xlink:href="#a" id="b" x1="-.037" x2="23.518" y1="84.293" y2="84.293" gradientTransform="scale(.86525 1.15574)" gradientUnits="userSpaceOnUse"/><linearGradient xlink:href="#a" id="d" x1="-.003" x2="23.547" y1="120.756" y2="120.756" gradientTransform="scale(1.1577 .86378)" gradientUnits="userSpaceOnUse"/></defs><g transform="translate(-34 -34.002)"><title>Page-1</title><g transform="translate(34.032 -34.033)"><title>Network Security Perimeter.18960</title><title>Sheet.18961</title><g transform="translate(8.455 -31.912)"><title>Sheet.18962</title><path d="M41.62 114.23v10.03a.44.44 0 0 1-.664.382 9.59 9.58-180 0 0-4.816-1.292h-.25a9.27 9.26-180 0 0-.95.05.44.44 0 0 1-.476-.444l-.004-13.406a1.238 1.238 0 0 1 2.01-.97.5.5 0 0 1 .065.062l4.725 4.708a1.08 1.078 0 0 1 .08.09 1.2 1.2 0 0 1 .17.27 1.215 1.214 0 0 1 .11.52m-35.8-7.69h8.86a.885.884 0 0 1 .626 1.512L9.8 113.56a.44.44 0 0 1-.324.13H1.14a1.235 1.234 0 0 1-.87-2.11l4.69-4.68a1.24 1.24 0 0 1 .86-.36" style="fill:#0078d4;stroke:none;stroke-width:34;stroke-linecap:butt"/></g><g transform="translate(0 -22.793)"><title>Sheet.18963</title><path d="M13.77 97.42v16.24a.5.499-180 0 0 .5.499l5.56.001a.48.48 0 0 1 .382.159.496.495 0 0 1-.019.702l-9.553 9.489a.496.495 0 0 1-.677 0L.32 115.03a.534.534 0 0 1 .363-1.004l5.527-.006a.454.453-180 0 0 .395-.499l.005-8.481a1.13 1.13 0 0 1 .32-.8z" style="fill:url(#b);stroke:none;stroke-width:34;stroke-linecap:butt"/></g><g transform="translate(6.586 -8.434)"><title>Sheet.18964</title><path d="M0 118.82v-8.85a.888.887 0 0 1 1.517-.625l5.513 5.505a.431.43 0 0 1 .13.324v8.336a1.235 1.234 0 0 1-2.11.87l-4.69-4.69a1.25 1.25 0 0 1-.36-.87" style="fill:#0078d4;stroke:none;stroke-width:34;stroke-linecap:butt"/></g><g transform="translate(6.586)"><title>Sheet.18965</title><path d="M0 110.9h13.79a.5.499-180 0 0 .493-.499l-.003-5.561a.49.489 0 0 1 .159-.385.496.495 0 0 1 .703.02l9.508 9.545a.496.495 0 0 1 0 .677l-9.5 9.633a.532.532 0 1 1-.998-.37l-.002-5.5a.45.45-180 0 0-.496-.401l-6.034.001a1.12 1.12 0 0 1-.79-.32z" style="fill:url(#c);stroke:none;stroke-width:34;stroke-linecap:butt"/></g><g transform="translate(22.813 -36.273)"><title>Sheet.18966</title><path d="M27.26 118.08H10.9a.46.46-180 0 0-.243.133.47.47-180 0 0-.156.353l-.001 5.564a.47.47 0 0 1-.159.385.4.4 0 0 1-.074.062.5.499 0 0 1-.623-.084L.13 114.95a.5.499 0 0 1 0-.68l9.51-9.63s.32-.41.68-.32c.28.07.32.38.32.68v5.5a.5.5-180 0 0 .049.162.43.43-180 0 0 .44.24l8.511-.002a1.076 1.075 0 0 1 .32.05l.11.04a1.296 1.295 0 0 1 .36.24l6.55 6.55z" style="fill:url(#d);stroke:none;stroke-width:34;stroke-linecap:butt"/></g><g transform="translate(32.53 -.01)"><title>Sheet.18967</title><path d="M23.72 108.37h-.01a.749.748-180 0 0-.126-.1.775.774-180 0 0-.169-.094.49.489-180 0 0-.113-.046.5.5-180 0 0-.107-.032l-1.985.002v-5.54a10.427 10.416-180 0 0-2.66-7 8.832 8.823-180 0 0-13.22 0 10.235 10.225-180 0 0-2.66 7v5.49H1.15l-.12.01a1.296 1.295-180 0 0-.41.15l-.09.06a.888.887-180 0 0-.113.087.4.4-180 0 0-.062.059l-.065.064a1.62 1.619-180 0 0-.12.17.972.971-180 0 0-.094.194.603.602-180 0 0-.032.1.541.54-180 0 0-.026.104c.002.032-.018.072-.018.112v14.27a1.212 1.21-180 0 0 .11.48.5.5-180 0 0 .045.097 1.3 1.3-180 0 0 .345.403h.03a1.296 1.295-180 0 0 .71.24h21.69a1.209 1.208-180 0 0 .75-.27 1.241 1.24-180 0 0 .48-.97v-14.13a1.245 1.243-180 0 0-.44-.91m-16.76-5.9a5.65 5.643 0 0 1 1.54-3.83 4.434 4.43 0 0 1 6.26-.48 4.132 4.128 0 0 1 .48.48 5.581 5.575 0 0 1 .58.77 5.536 5.53 0 0 1 .77 1.44 5.464 5.459 0 0 1 .3 1.62v5.58H6.96Z" style="fill:#ffbd02;stroke:none;stroke-width:34;stroke-linecap:butt"/></g><g transform="translate(32.978 -.25)"><title>Sheet.18968</title><path d="M23.69 109.52v14.16a1.241 1.24 0 0 1-.48.97l-11.56-7.99h-.02L0 108.62a1.2 1.198 0 0 1 .57-.28l.12-.02h22.04a.5.5 0 0 1 .107.032.49.489 0 0 1 .113.046.775.774 0 0 1 .169.094.749.748 0 0 1 .126.1l.025-.002a1.245 1.243 0 0 1 .42.93" style="fill:#ffe452;fill-opacity:.4;stroke:none;stroke-width:34;stroke-linecap:butt"/></g><g transform="translate(32.511 -.265)"><title>Sheet.18969</title><path d="M23.72 108.61h-.02l-11.6 8.03h-.02L.5 124.65H.48a1.206 1.204 0 0 1-.37-.42.4.4 0 0 1-.042-.097A1.232 1.23 0 0 1 0 123.74v-14.36c0-.04 0-.08.02-.11a.541.54 0 0 1 .026-.104.603.602 0 0 1 .032-.1.972.971 0 0 1 .094-.194 1.62 1.619 0 0 1 .118-.172l.06-.01a.4.4 0 0 1 .062-.058.888.887 0 0 1 .113-.088l.085-.054a1.07 1.068 0 0 1 .36-.15l.13-.02h22.08a.5.5 0 0 1 .107.032.49.489 0 0 1 .113.046.775.774 0 0 1 .169.094.749.748 0 0 1 .159.116z" style="fill:#ffe452;fill-opacity:.4;stroke:none;stroke-width:34;stroke-linecap:butt"/></g></g></g></svg>