<svg xmlns="http://www.w3.org/2000/svg" xml:space="preserve" width="68.027" height="75.593" style="font-size:12px;overflow:visible;color-interpolation-filters:sRGB;fill-rule:evenodd;stroke-linecap:square;stroke-miterlimit:3" viewBox="0 0 51.02 56.695"><g transform="translate(-9.66 -9.657)"><title>Page-1</title><g transform="translate(9.66 -34.016)"><title>NGINXaaS.18924</title><title> NGINX-hex-source-RGB-02</title><g transform="translate(47.161 -4.407)"><title>Sheet.18926</title><path d="M1.14 99.51h.37v-.81h.3a.835.817 0 0 1 .41.067.516.504 0 0 1 .197.468l-.007.165.01.07a.127.124 0 0 1 .006.026l.014.014h.34l-.01-.02a.24.235 0 0 1-.016-.105c-.014-.065-.014-.115-.014-.155v-.15a.598.584-180 0 0-.114-.32.532.52-180 0 0-.365-.2.901.881-180 0 0 .304-.097.457.446-180 0 0 .205-.405.516.504-180 0 0-.324-.52 1.611 1.575-180 0 0-.566-.078h-.74ZM2.2 98.4a.957.935 0 0 1-.352.046l-.338.004v-.75h.32a.93.91 0 0 1 .445.08.317.31 0 0 1 .138.3.322.315 0 0 1-.216.32zm1.07-1.23a1.86 1.817-180 0 0-1.36-.54 1.913 1.87-180 1 0 0 3.74 1.915 1.872-180 0 0 1.36-3.2m-.19.19a1.566 1.53 0 0 1 .48 1.14 1.643 1.606 0 0 1-2.81 1.14 1.622 1.585 0 0 1-.48-1.14 1.648 1.611 0 0 1 1.64-1.62 1.568 1.532 0 0 1 1.17.48" style="fill:#999;stroke:none;stroke-width:9.65909004;stroke-linecap:butt"/></g><title>Sheet.18927</title><path d="M.4 86.19a2.93 2.864-180 0 0 1.1 1.07l22.52 12.71a2.955 2.888-180 0 0 2.99 0l22.52-12.71a2.953 2.887-180 0 0 1.49-2.53V59.31a2.954 2.887-180 0 0-1.49-2.53L27.01 44.07a2.95 2.884-180 0 0-2.99 0L1.5 56.78A2.952 2.886-180 0 0 0 59.31v25.42a2.936 2.87-180 0 0 .39 1.46z" style="fill:#009639"/><path d="M.4 86.19a2.93 2.864-180 0 0 1.1 1.07l22.52 12.71a2.955 2.888-180 0 0 2.99 0l22.52-12.71a2.953 2.887-180 0 0 1.49-2.53V59.31a2.954 2.887-180 0 0-1.49-2.53L27.01 44.07a2.95 2.884-180 0 0-2.99 0L1.5 56.78A2.952 2.886-180 0 0 0 59.31v25.42a2.936 2.87-180 0 0 .39 1.46" style="stroke:none;stroke-width:9.65909004;stroke-linecap:butt"/><g transform="translate(6.516 -18.697)"><title>Sheet.18928</title><path d="M14.64 99.02a4.017 3.926-180 0 0 3.08 1.35 2.357 2.304-180 0 0 2.56-2.15V83a2.203 2.154-180 0 0-2.19-2.15h-.07a2.264 2.213-180 0 0-2.25 2.21v10.82a.06.058 0 0 1-.105.037L5.65 82.2a4.021 3.93-180 0 0-3.08-1.35A2.356 2.303-180 0 0 0 83v15.22a2.202 2.153-180 0 0 2.2 2.15h.06a2.264 2.213-180 0 0 2.26-2.21V87.34a.061.06 0 0 1 .107-.038Zm23.04-9.71h-4.63a.053.052 0 0 1-.053-.053L33 84.74a1.95 1.906-180 0 0-3.9 0v4.33a.252.246 0 0 1-.251.245l-4.629-.005a1.95 1.906-180 0 0 0 3.81h4.83a.053.052 0 0 1 .054.052L29.1 97.7a1.95 1.906-180 0 0 3.9 0v-4.33a.25.245 0 0 1 .25-.244l4.43-.006a1.95 1.906-180 1 0 0-3.81" style="fill:#fff"/><path d="M14.64 99.02a4.017 3.926-180 0 0 3.08 1.35 2.357 2.304-180 0 0 2.56-2.15V83a2.203 2.154-180 0 0-2.19-2.15h-.07a2.264 2.213-180 0 0-2.25 2.21v10.82a.06.058 0 0 1-.105.037L5.65 82.2a4.021 3.93-180 0 0-3.08-1.35A2.356 2.303-180 0 0 0 83v15.22a2.202 2.153-180 0 0 2.2 2.15h.06a2.264 2.213-180 0 0 2.26-2.21V87.34a.061.06 0 0 1 .107-.038zm23.04-9.71h-4.63a.053.052 0 0 1-.053-.053L33 84.74a1.95 1.906-180 0 0-3.9 0v4.33a.252.246 0 0 1-.251.245l-4.629-.005a1.95 1.906-180 0 0 0 3.81h4.83a.053.052 0 0 1 .054.052L29.1 97.7a1.95 1.906-180 0 0 3.9 0v-4.33a.25.245 0 0 1 .25-.244l4.43-.006a1.95 1.906-180 1 0 0-3.81" style="stroke:none;stroke-width:9.65909004;stroke-linecap:butt"/></g></g></g></svg>