<svg xmlns="http://www.w3.org/2000/svg" xml:space="preserve" width="68.027" height="75.593" style="font-size:12px;overflow:visible;color-interpolation-filters:sRGB;fill-rule:evenodd;stroke-linecap:square;stroke-miterlimit:3" viewBox="0 0 51.02 56.695"><g transform="translate(-9.66 -9.657)"><title>Page-1</title><g transform="translate(9.66 -34.016)"><title>NGINX Deployment.18929</title><title> NGINX-hex-source-RGB-02</title><title>Sheet.18931</title><path d="M.4 86.19a2.93 2.864-180 0 0 1.1 1.07l22.52 12.71a2.955 2.888-180 0 0 2.99 0l22.52-12.71a2.953 2.887-180 0 0 1.49-2.53V59.31a2.954 2.887-180 0 0-1.49-2.53L27.01 44.07a2.95 2.884-180 0 0-2.99 0L1.5 56.78A2.952 2.886-180 0 0 0 59.31v25.42a2.936 2.87-180 0 0 .39 1.46z" style="fill:#009639"/><path d="M.4 86.19a2.93 2.864-180 0 0 1.1 1.07l22.52 12.71a2.955 2.888-180 0 0 2.99 0l22.52-12.71a2.953 2.887-180 0 0 1.49-2.53V59.31a2.954 2.887-180 0 0-1.49-2.53L27.01 44.07a2.95 2.884-180 0 0-2.99 0L1.5 56.78A2.952 2.886-180 0 0 0 59.31v25.42a2.936 2.87-180 0 0 .39 1.46" style="stroke:none;stroke-width:9.65909004;stroke-linecap:butt"/><g transform="translate(12.51 -15.84)"><title>Sheet.18932</title><path d="M5.79 97.54a2.896 2.83 0 1 1-5.79 0V78.11c0-1.51 1.36-2.75 3.29-2.75a5.15 5.034 0 0 1 3.95 1.72l.87 1.02 12.1 14.16V78.19a2.896 2.83 0 0 1 5.79 0v19.43c0 1.5-1.36 2.75-3.29 2.75a5.147 5.03 0 0 1-3.95-1.73L5.79 83.46Z" style="fill:#fff;stroke:none;stroke-width:9.65909004;stroke-linecap:butt"/></g><g transform="translate(47.161 -4.407)"><title>Sheet.18933</title><path d="M1.14 99.51h.37v-.81h.3a.835.817 0 0 1 .41.067.516.504 0 0 1 .197.468l-.007.165.01.07a.127.124 0 0 1 .006.026l.014.014h.34l-.01-.02a.24.235 0 0 1-.016-.105c-.014-.065-.014-.115-.014-.155v-.15a.598.584-180 0 0-.114-.32.532.52-180 0 0-.365-.2.901.881-180 0 0 .304-.097.457.446-180 0 0 .205-.405.516.504-180 0 0-.324-.52 1.611 1.575-180 0 0-.566-.078h-.74ZM2.2 98.4a.957.935 0 0 1-.352.046l-.338.004v-.75h.32a.93.91 0 0 1 .445.08.317.31 0 0 1 .138.3.322.315 0 0 1-.216.32zm1.07-1.23a1.86 1.817-180 0 0-1.36-.54 1.913 1.87-180 1 0 0 3.74 1.915 1.872-180 0 0 1.36-3.2m-.19.19a1.566 1.53 0 0 1 .48 1.14 1.643 1.606 0 0 1-2.81 1.14 1.622 1.585 0 0 1-.48-1.14 1.648 1.611 0 0 1 1.64-1.62 1.568 1.532 0 0 1 1.17.48" style="fill:#999;stroke:none;stroke-width:9.65909004;stroke-linecap:butt"/></g></g></g></svg>