<svg xmlns="http://www.w3.org/2000/svg" xml:space="preserve" width="75.629" height="71.816" style="font-size:12px;overflow:visible;color-interpolation-filters:sRGB;fill-rule:evenodd;stroke-linecap:square;stroke-miterlimit:3" viewBox="0 0 56.722 53.862"><defs><linearGradient id="a" x1="0" x2="47.549" y1="96.538" y2="96.538" gradientTransform="scale(1.19224 .83876)" gradientUnits="userSpaceOnUse"><stop offset="0" stop-color="#0078d4"/><stop offset=".82" stop-color="#5ea0ef"/></linearGradient></defs><g transform="translate(-32.973 -32.977)"><title>Page-1</title><g transform="translate(33.004 -34.016)"><title>On-Premises Data Gateway.18919</title><g transform="translate(0 -13.98)"><title>path11</title><path d="M56.69 108.36A12.756 12.66-180 0 0 45.64 96.2 16.063 15.942-180 0 0 29.1 80.98a16.472 16.348-180 0 0-15.75 10.63A15.244 15.13-180 0 0 0 106.14a15.402 15.285-180 0 0 15.97 14.69 9.984 9.909-180 0 0 1.38 0h25.86a2.457 2.438-180 0 0 .7 0 12.882 12.785-180 0 0 12.78-12.47" style="fill:url(#a);stroke:none;stroke-width:32.97499847;stroke-linecap:butt"/></g><g transform="translate(4.244 -14.004)"><title>path13</title><path d="M25.58 105.79a14.93 14.817-180 1 0-14.9 15.07h14.9z" style="fill:#50e6ff;stroke:none;stroke-width:32.97499847;stroke-linecap:butt"/></g><g transform="translate(22.45)"><title>path15</title><path d="m14.72 113.73-7.09 7a.315.313 0 0 1-.504 0l-7.056-7a.378.375 0 0 1 .252-.625l4.158-.005a.346.344-180 0 0 .346-.438l.004-9.062a.346.344 0 0 1 .378-.313l4.372.003a.346.344 0 0 1 .346.344l.004 9.036a.346.344-180 0 0 .378.344l4.152-.004a.383.38 0 0 1 .252.719z" style="fill:#0078d4;stroke:none;stroke-width:32.97499847;stroke-linecap:butt"/></g><g transform="translate(22.47 -14.035)"><title>path17</title><path d="m.05 110.51 6.96-6.91a.535.531 0 0 1 .724 0l6.966 6.91a.346.344 0 0 1-.252.594l-4.158-.004a.378.375-180 0 0-.378.375l-.002 9.385h-5.1v-9.38a.378.375-180 0 0-.346-.406L.3 111.07a.346.344 0 0 1-.252-.563z" style="fill:#fff;stroke:none;stroke-width:32.97499847;stroke-linecap:butt"/></g></g></g></svg>