<svg xmlns="http://www.w3.org/2000/svg" xml:space="preserve" width="75.592" height="76.232" style="font-size:12px;overflow:visible;color-interpolation-filters:sRGB;fill-rule:evenodd;stroke-linecap:square;stroke-miterlimit:3" viewBox="0 0 56.694 57.175"><defs><linearGradient id="a" x1="0" x2="44.514" y1="81.127" y2="81.127" gradientTransform="scale(1.00372 .9963)" gradientUnits="userSpaceOnUse"><stop offset="0" stop-color="#0078d4"/><stop offset="1" stop-color="#005ba1"/></linearGradient></defs><g transform="translate(-34 -34)"><title>Page-1</title><g transform="translate(34 -34.483)"><title>Peering Service.18913</title><title>Sheet.18914</title><g transform="translate(0 -12.344)"><title>Sheet.18915</title><ellipse cx="22.34" cy="103.001" rx="22.34" ry="22.175" style="fill:url(#a);stroke:none;stroke-width:34;stroke-linecap:butt"/></g><g transform="translate(13.428)"><title>Sheet.18916</title><ellipse cx="21.389" cy="103.944" rx="21.389" ry="21.231" style="fill:#0078d4;stroke:none;stroke-width:34;stroke-linecap:butt"/></g><g transform="translate(12.924 -1.039)"><title>Sheet.18917</title><path d="M43.77 104.27h-.04a21.873 21.71-180 1 0 0 1.43h.04zm-9.07 0a25.124 24.938-180 0 0-1.76-9.04h6.86a20.324 20.174 0 0 1 2.5 9.04zM1.5 105.7h7.89a25.057 24.871-180 0 0 1.8 9.04h-7.2a20.27 20.12 0 0 1-2.49-9.04m20.1-11.9h-8a24.718 24.535 0 0 1 8-7.83zm1.44-7.83a22.702 22.534 0 0 1 7.65 7.83h-7.65zm-1.44 9.26v9.04H10.82a21.812 21.65 0 0 1 2.07-9.04zm-12.22 9.04H1.5a20.282 20.132 0 0 1 2.49-9.04h7.32a23.566 23.391-180 0 0-1.93 9.04m1.45 1.43H21.6v9.04h-8.79a23.207 23.036 0 0 1-1.98-9.04m10.77 10.48v8.29a23.876 23.7 0 0 1-8.1-8.29zm1.44 0h7.53a23.518 23.344 0 0 1-7.53 7.93zm0-1.43v-9.05h10.22a23.207 23.036 0 0 1-1.98 9.04zm0-10.48v-9.04h8.33a23.36 23.188 0 0 1 1.88 9.04zm15.88-10.48h-6.67a23.774 23.598-180 0 0-8.39-8.99 20.445 20.294 0 0 1 15.06 9zm-18.06-9.02a25.6 25.411-180 0 0-8.83 9.03H4.86a20.413 20.262 0 0 1 16-9.03m-16 31.41h7.04a24.474 24.293-180 0 0 8.19 9 20.439 20.288 0 0 1-15.23-9m19.17 8.97a24.478 24.297-180 0 0 8.15-8.97h6.72a20.449 20.297 0 0 1-14.86 8.97zm15.76-10.41h-6.9a25.057 24.871-180 0 0 1.81-9.04h7.6a20.308 20.158 0 0 1-2.5 9.04z" style="fill:#83b9f9;stroke:none;stroke-width:34;stroke-linecap:butt"/></g><g transform="translate(12.624 -17.5)"><title>Sheet.18918</title><path d="M22.22 116.74a4.922 4.885-180 0 0-2.12.49l-12.93-15.8a5.034 4.997-180 1 0-2.26 1.74l13.05 15.97a4.925 4.889-180 0 0-.73 2.54 4.983 4.946-180 1 0 4.98-4.95z" style="fill:#42e8ca;stroke:none;stroke-width:34;stroke-linecap:butt"/></g></g></g></svg>