<svg xmlns="http://www.w3.org/2000/svg" xml:space="preserve" width="75.596" height="64.765" style="font-size:12px;overflow:visible;color-interpolation-filters:sRGB;fill-rule:evenodd;stroke-linecap:square;stroke-miterlimit:3" viewBox="0 0 56.697 48.574"><defs><linearGradient id="a" x1="0" x2="37.366" y1="100.103" y2="100.103" gradientTransform="scale(1.17914 .84808)" gradientUnits="userSpaceOnUse"><stop offset="0" stop-color="#773adc"/><stop offset="1" stop-color="#a67af4"/></linearGradient></defs><g transform="translate(-33.995 -33.998)"><title>Page-1</title><g transform="translate(34 -34.382)"><title>Peering.18907</title><title>Sheet.18908</title><g transform="translate(12.632 -16.515)"><title>Sheet.18909</title><path d="M44.06 106.56a9.912 9.969-180 0 0-8.59-9.68A12.468 12.54-180 0 0 22.65 84.9a12.827 12.902-180 0 0-12.26 8.48A11.798 11.866-180 0 0 0 104.83a11.993 12.062-180 0 0 12.3 11.75h21.82a10.038 10.096-180 0 0 9.94-10.02" style="fill:url(#a);stroke:none;stroke-width:34;stroke-linecap:butt"/></g><g transform="translate(22.607 -20.768)"><title>Sheet.18910</title><path d="m22.51 102.18-5.87-5.74c-.63-.63-1.18-.42-1.18.58v2.58a.705.71 0 0 1-.705.713l-.035-.003c-3.78 0-14.34 1.01-14.72 15.52a.737.741-180 0 0 .737.744l3.753.006a.74.744-180 0 0 .743-.741l-.003-.069a8.857 8.908 0 0 1 9.62-10.75.74.744 0 0 1 .737.744l-.007 2.386c0 1.19.39 1.39 1.19.58l5.74-5.32a.737.741-180 0 0 .195-1.03.822.827-180 0 0-.195-.196z" style="fill:#fff;stroke:none;stroke-width:34;stroke-linecap:butt"/></g><g transform="translate(.406)"><title>Sheet.18911</title><ellipse cx="16.936" cy="99.542" rx="16.936" ry="17.034" style="fill:#0078d4;stroke:none;stroke-width:34;stroke-linecap:butt"/></g><g transform="translate(0 -.918)"><title>Sheet.18912</title><path d="M34.65 99.88h-.03a17.317 17.417-180 1 0 0 1.15h.03zm-7.18 0a19.93 20.046-180 0 0-1.39-7.25h5.35a15.966 16.059 0 0 1 2.03 7.25zm-26.26 1.15h6.23a19.867 19.982-180 0 0 1.43 7.26H3.25a15.954 16.046 0 0 1-2.03-7.26Zm23.09-9.54h-6.39v-6.52a18.214 18.32 0 0 1 6.39 6.52m-7.53 0h-5.98a19.304 19.416 0 0 1 5.98-6.06zm0 1.14v7.25H8.58a17.317 17.417 0 0 1 1.64-7.25zm-9.34 7.25H1.22a15.963 16.056 0 0 1 2.02-7.25h5.72a18.649 18.757-180 0 0-1.53 7.25m1.15 1.15h8.18v7.26h-6.61a18.388 18.494 0 0 1-1.57-7.26m8.18 8.41v6.43a18.7 18.808 0 0 1-6.06-6.43zm1.15 0h6.29a18.87 18.979 0 0 1-6.29 6.59zm0-1.15v-7.26h8.43a18.388 18.494 0 0 1-1.58 7.26zm0-8.41v-7.25h6.92a18.507 18.614 0 0 1 1.5 7.25zm12.9-8.39h-5.27a18.772 18.88-180 0 0-6.5-7.13 16.133 16.227 0 0 1 11.78 7.13zm-14.37-7.22a20.292 20.41-180 0 0-6.91 7.22H3.86a16.143 16.236 0 0 1 12.58-7.22M3.87 109.44h5.55a19.329 19.44-180 0 0 6.34 7.14 16.14 16.233 0 0 1-11.89-7.14m15.31 7.11a19.272 19.384-180 0 0 6.31-7.11h5.33a16.149 16.242 0 0 1-11.64 7.11m12.26-8.26h-5.39a19.801 19.916-180 0 0 1.43-7.26h5.98a15.995 16.087 0 0 1-2.02 7.26" style="fill:#83b9f9;stroke:none;stroke-width:34;stroke-linecap:butt"/></g></g></g></svg>