<svg xmlns="http://www.w3.org/2000/svg" xml:space="preserve" width="75.586" height="71.661" style="font-size:12px;overflow:visible;color-interpolation-filters:sRGB;fill-rule:evenodd;stroke-linecap:square;stroke-miterlimit:3" viewBox="0 0 56.69 53.746"><defs><linearGradient id="a" x1="-.035" x2="16.816" y1="99.651" y2="99.651" gradientTransform="scale(1.16374 .8593)" gradientUnits="userSpaceOnUse"><stop offset=".23" stop-color="#5ea0ef"/><stop offset=".32" stop-color="#5b9fee"/><stop offset=".48" stop-color="#509aeb"/><stop offset=".57" stop-color="#3f92e6"/><stop offset=".75" stop-color="#2688df"/><stop offset=".93" stop-color="#127fd9"/></linearGradient><linearGradient id="b" x1=".129" x2="16.961" y1="99.535" y2="99.535" gradientTransform="scale(1.16238 .8603)" gradientUnits="userSpaceOnUse"><stop offset=".02" stop-color="#5ea0ef"/><stop offset=".14" stop-color="#5b9fee"/><stop offset=".23" stop-color="#5b9fee"/><stop offset=".34" stop-color="#509aeb"/><stop offset=".44" stop-color="#3f92e6"/><stop offset=".63" stop-color="#2688df"/><stop offset=".93" stop-color="#127fd9"/></linearGradient></defs><g transform="translate(-12.242 -12.348)"><title>Page-1</title><g transform="translate(12.24 -34.016)"><title>Private Link.18884</title><title>Artboard 1</title><g transform="translate(25.99 -25.012)"><title>Sheet.18886</title><path d="M0 77.303h3.536v22.811H0z" style="fill:#7a7a7a;stroke:none;stroke-width:12.23999977;stroke-linecap:butt"/></g><g transform="translate(22.571 -43.237)"><title>Sheet.18887</title><path d="M10.37 94.8A5.186 5.31 0 1 1 0 94.8a5.186 5.31 0 0 1 10.37 0" style="fill:#1490df;stroke:none;stroke-width:12.23999977;stroke-linecap:butt"/></g><g transform="translate(14.395 -11.736)"><title>Sheet.18888</title><path d="M12.65 85.63H7a7.072 7.242-180 0 0-1.1 14.39 7.555 7.737 0 0 1 .07-2.69A4.467 4.574 0 0 1 7 88.29h5.65a4.479 4.586 0 0 1 0 9.17H11.1a3.371 3.452-180 0 0-.33 1.45 3.277 3.355-180 0 0 .22 1.2h1.66a7.072 7.242-180 0 0 0-14.48" style="fill:url(#a);stroke:none;stroke-width:12.23999977;stroke-linecap:butt"/></g><g transform="translate(21.392 -5.701)"><title>Sheet.18889</title><path d="M13.83 85.73a8.25 8.449 0 0 1 .08 1.11 7.378 7.555 0 0 1-.15 1.58 4.467 4.574 0 0 1-1.03 9.04H7.07a4.479 4.586 0 1 1 0-9.17h1.56a3.324 3.404-180 0 0 .33-1.45 3.277 3.355-180 0 0-.23-1.21H7.07a7.072 7.242-180 0 0 0 14.48h5.66a7.072 7.242-180 0 0 1.1-14.38" style="fill:url(#b);stroke:none;stroke-width:12.23999977;stroke-linecap:butt"/></g><g transform="translate(0 -1.055)"><title>Sheet.18890</title><path d="m17.57 98.51-1.29 1.34a.884.905 0 0 1-1.25 0L.52 85.03a1.78 1.822 0 0 1 0-2.57l1.31-1.33 15.74 16.1a.872.893 0 0 1 0 1.28" style="fill:#50e6ff;stroke:none;stroke-width:12.23999977;stroke-linecap:butt"/></g><g transform="translate(0 -14.645)"><title>Sheet.18891</title><path d="m16.01 81.44 1.45 1.49a.884.905 0 0 1 0 1.28l-15.49 15.9-1.45-1.47a1.78 1.822 0 0 1 0-2.57l14.24-14.63a.884.905 0 0 1 1.25 0" style="fill:#1490df;stroke:none;stroke-width:12.23999977;stroke-linecap:butt"/></g><g transform="translate(38.844)"><title>Sheet.18892</title><path d="M.26 98.5a.872.893 0 0 1 0-1.28l15.76-16.08 1.31 1.34a1.78 1.822 0 0 1 0 2.57L2.81 99.84a.872.893 0 0 1-1.25 0z" style="fill:#50e6ff;stroke:none;stroke-width:12.23999977;stroke-linecap:butt"/></g><g transform="translate(38.97 -13.582)"><title>Sheet.18893</title><path d="M2.95 81.44 17.2 96.07a1.768 1.81 0 0 1 0 2.56l-1.45 1.48-15.5-15.9a.908.93 0 0 1 0-1.291L1.7 81.44a.884.905 0 0 1 1.25 0" style="fill:#1490df;stroke:none;stroke-width:12.23999977;stroke-linecap:butt"/></g></g></g></svg>