<svg xmlns="http://www.w3.org/2000/svg" xml:space="preserve" width="75.598" height="45.352" style="font-size:12px;overflow:visible;color-interpolation-filters:sRGB;fill-rule:evenodd;stroke-linecap:square;stroke-miterlimit:3" viewBox="0 0 56.698 34.014"><defs><linearGradient id="a" x1="-.014" x2="17.062" y1="101.748" y2="101.748" gradientTransform="scale(1.16459 .85867)" gradientUnits="userSpaceOnUse"><stop offset=".23" stop-color="#5ea0ef"/><stop offset=".32" stop-color="#5b9fee"/><stop offset=".48" stop-color="#509aeb"/><stop offset=".57" stop-color="#3f92e6"/><stop offset=".75" stop-color="#2688df"/><stop offset=".93" stop-color="#127fd9"/></linearGradient><linearGradient id="b" x1="-.015" x2="16.938" y1="101.032" y2="101.032" gradientTransform="scale(1.15636 .86478)" gradientUnits="userSpaceOnUse"><stop offset=".02" stop-color="#5ea0ef"/><stop offset=".14" stop-color="#5b9fee"/><stop offset=".23" stop-color="#5b9fee"/><stop offset=".34" stop-color="#509aeb"/><stop offset=".44" stop-color="#3f92e6"/><stop offset=".63" stop-color="#2688df"/><stop offset=".93" stop-color="#127fd9"/></linearGradient></defs><g transform="translate(-34 -34.005)"><title>Page-1</title><g transform="translate(34 -34.016)"><title>Private link Service.18894</title><title>Sheet.18895</title><g transform="translate(14.404 -11.908)"><title>Sheet.18896</title><path d="M12.65 87.37H6.98a7.074 7.331-180 0 0-1.1 14.56 7.587 7.863 0 0 1 .09-2.73 4.466 4.629 0 0 1 1.02-9.14h5.67a4.482 4.645 0 0 1 0 9.29h-1.57a3.37 3.493-180 0 0-.31 1.46 3.206 3.323-180 0 0 .22 1.22h1.66a7.074 7.331-180 1 0 0-14.66z" style="fill:url(#a);stroke:none;stroke-width:34;stroke-linecap:butt"/></g><g transform="translate(21.542 -5.81)"><title>Sheet.18897</title><path d="M13.68 87.48a8.327 8.63 0 0 1 .08 1.13 7.269 7.534 0 0 1-.15 1.6 4.466 4.629 0 0 1-1.03 9.14H6.91a4.482 4.645 0 0 1 0-9.29h1.56a3.291 3.411-180 0 0 .32-1.46 3.238 3.356-180 0 0-.23-1.23H6.92a7.074 7.331-180 0 0 0 14.66h5.67a7.074 7.331-180 0 0 1.1-14.56z" style="fill:url(#b);stroke:none;stroke-width:34;stroke-linecap:butt"/></g><g transform="translate(0 -1.093)"><title>Sheet.18898</title><path d="m17.58 100.4-1.3 1.36a.888.92 0 0 1-1.26 0L.52 86.75a1.783 1.848 0 0 1 0-2.61l1.31-1.33 15.75 16.3a.87.9 0 0 1 0 1.276z" style="fill:#50e6ff;stroke:none;stroke-width:34;stroke-linecap:butt"/></g><g transform="translate(0 -14.853)"><title>Sheet.18899</title><path d="m16.01 83.14 1.45 1.5a.888.92 0 0 1 0 1.306L1.97 102.03l-1.45-1.49a1.783 1.848 0 0 1 0-2.61l14.24-14.79a.888.92 0 0 1 1.25 0" style="fill:#1490df;stroke:none;stroke-width:34;stroke-linecap:butt"/></g><g transform="translate(38.846)"><title>Sheet.18900</title><path d="M.27 100.37a.87.9 0 0 1-.019-1.276l.019.006 15.74-16.29 1.31 1.36a1.783 1.848 0 0 1 0 2.61L2.8 101.76a.87.9 0 0 1-1.231.02l-.019-.02Z" style="fill:#50e6ff;stroke:none;stroke-width:34;stroke-linecap:butt"/></g><g transform="translate(38.973 -13.779)"><title>Sheet.18901</title><path d="m2.95 83.14 14.26 14.8a1.773 1.838 0 0 1 0 2.59l-1.46 1.5L.26 85.93a.904.937 0 0 1 0-1.306L1.7 83.14a.888.92 0 0 1 1.25 0" style="fill:#1490df;stroke:none;stroke-width:34;stroke-linecap:butt"/></g></g></g></svg>