<svg xmlns="http://www.w3.org/2000/svg" xmlns:xlink="http://www.w3.org/1999/xlink" xml:space="preserve" width="75.587" height="60.476" style="font-size:12px;overflow:visible;color-interpolation-filters:sRGB;fill-rule:evenodd;stroke-linecap:square;stroke-miterlimit:3" viewBox="0 0 56.69 45.357"><defs><linearGradient id="b" x1="0" x2="24.834" y1="120.517" y2="120.517" gradientTransform="scale(1.2821 .77997)" gradientUnits="userSpaceOnUse"><stop offset="0" stop-color="#32bedd"/><stop offset=".18" stop-color="#32caea"/><stop offset=".41" stop-color="#32d2f2"/><stop offset=".78" stop-color="#32d4f5"/></linearGradient><linearGradient id="a" x1="0" x2="1" y1="0" y2="0" gradientTransform="rotate(90 .5 .5)"><stop offset="0" stop-color="#32bedd"/><stop offset=".18" stop-color="#32caea"/><stop offset=".41" stop-color="#32d2f2"/><stop offset=".78" stop-color="#32d4f5"/></linearGradient><linearGradient xlink:href="#a" id="c" x1="0" x2="24.846" y1="120.574" y2="120.574" gradientTransform="scale(1.2827 .7796)" gradientUnits="userSpaceOnUse"/><linearGradient xlink:href="#a" id="d" x1="0" x2="24.834" y1="120.517" y2="120.517" gradientTransform="scale(1.2821 .77997)" gradientUnits="userSpaceOnUse"/></defs><g transform="translate(-34 -33.998)"><title>Page-1</title><g transform="translate(34 -34.016)"><title>Public IP Prefix.18861</title><title>Lighthouse-GS-networking-372</title><g transform="translate(0 -18.984)"><title>Sheet.18863</title><path d="M0 94h31.84v18.27a1.07 1.101 0 0 1-1.07 1.1H1.07a1.07 1.101 0 0 1-1.07-1.1Z" style="fill:url(#b);stroke:none;stroke-width:34;stroke-linecap:butt"/></g><g transform="translate(0 -38.357)"><title>Sheet.18864</title><path d="M1.07 106.37h29.7a1.07 1.101 0 0 1 1.07 1.1v5.9H0v-5.9a1.07 1.101 0 0 1 1.07-1.1" style="fill:#767676;stroke:none;stroke-width:34;stroke-linecap:butt"/></g><g transform="translate(4.283 -40.43)"><title>Sheet.18865</title><path d="M0 112.82a.535.55-180 0 0 .535.55H22.74a.535.55-180 0 0 .535-.55l.005-1.72a.535.55-180 0 0-.535-.55H.54a.535.55-180 0 0-.535.55z" style="fill:#f2f2f2;stroke:none;stroke-width:34;stroke-linecap:butt"/></g><g transform="translate(12.41 -9.524)"><title>Sheet.18866</title><path d="M0 94h31.87v18.27a1.07 1.101 0 0 1-1.07 1.1H1.07a1.07 1.101 0 0 1-1.07-1.1Z" style="fill:url(#c);stroke:none;stroke-width:34;stroke-linecap:butt"/></g><g transform="translate(12.44 -28.897)"><title>Sheet.18867</title><path d="M1.04 106.4h29.7a1.07 1.101 0 0 1 1.07 1.11v5.86H0v-5.86a1.07 1.101 0 0 1 1.04-1.11" style="fill:#767676;stroke:none;stroke-width:34;stroke-linecap:butt"/></g><g transform="translate(16.693 -30.938)"><title>Sheet.18868</title><path d="M0 112.82a.535.55-180 0 0 .535.55H22.74a.535.55-180 0 0 .535-.55l.005-1.72a.535.55-180 0 0-.535-.55H.54a.535.55-180 0 0-.535.55z" style="fill:#f2f2f2;stroke:none;stroke-width:34;stroke-linecap:butt"/></g><g transform="translate(24.85)"><title>Sheet.18869</title><path d="M0 94h31.84v18.27a1.07 1.101 0 0 1-1.07 1.1H1.07a1.07 1.101 0 0 1-1.07-1.1Z" style="fill:url(#d);stroke:none;stroke-width:34;stroke-linecap:butt"/></g><g transform="translate(24.85 -19.373)"><title>Sheet.18870</title><path d="M1.07 106.37h29.7a1.07 1.101 0 0 1 1.07 1.1v5.9H0v-5.9a1.07 1.101 0 0 1 1.07-1.1" style="fill:#767676;stroke:none;stroke-width:34;stroke-linecap:butt"/></g><g transform="translate(31.024 -8.229)"><title>Sheet.18871</title><g transform="translate(14.33)"><title>Sheet.18872</title><ellipse cx="2.583" cy="110.714" rx="2.583" ry="2.656" style="fill:#f2f2f2;stroke:none;stroke-width:34;stroke-linecap:butt"/></g><g transform="translate(7.276)"><title>Sheet.18873</title><ellipse cx="2.583" cy="110.714" rx="2.583" ry="2.656" style="fill:#f2f2f2;stroke:none;stroke-width:34;stroke-linecap:butt"/></g><title>Sheet.18874</title><ellipse cx="2.583" cy="110.714" rx="2.583" ry="2.656" style="fill:#f2f2f2;stroke:none;stroke-width:34;stroke-linecap:butt"/></g><g transform="translate(29.134 -21.446)"><title>Sheet.18875</title><path d="M0 112.82a.535.55-180 0 0 .535.55H22.74a.535.55-180 0 0 .535-.55l.005-1.72a.535.55-180 0 0-.535-.55H.54a.535.55-180 0 0-.535.55z" style="fill:#f2f2f2;stroke:none;stroke-width:34;stroke-linecap:butt"/></g></g></g></svg>