<svg xmlns="http://www.w3.org/2000/svg" xmlns:xlink="http://www.w3.org/1999/xlink" xml:space="preserve" width="75.603" height="68.031" style="font-size:12px;overflow:visible;color-interpolation-filters:sRGB;fill-rule:evenodd;stroke-linecap:square;stroke-miterlimit:3" viewBox="0 0 56.702 51.023"><defs><linearGradient id="a" x1="0" x2="1" y1="0" y2="0" gradientTransform="rotate(-90 .5 .5)"><stop offset="0" stop-color="#6f4bb2"/><stop offset="1" stop-color="#c69aeb"/></linearGradient><linearGradient xlink:href="#a" id="b" x1="0" x2="10.319" y1="108.101" y2="108.101" gradientTransform="scale(.9948 1.00523)" gradientUnits="userSpaceOnUse"/><linearGradient xlink:href="#a" id="c" x1="0" x2="10.319" y1="108.101" y2="108.101" gradientTransform="scale(.9948 1.00523)" gradientUnits="userSpaceOnUse"/></defs><g transform="translate(-34 -34)"><title>Page-1</title><g transform="translate(34.005 -34.016)"><title>Relay.18841</title><title>Icon-integration-209</title><g transform="translate(17.665 -17.681)"><title>Sheet.18843</title><path d="m21.66 117.76-9.93-16.1-.9.57-.86-.57L0 117.76l2.03 1.25 8.8-14.25 8.83 14.28z" style="fill:#949494;stroke:none;stroke-width:34;stroke-linecap:butt"/></g><g transform="translate(23.197 -29.2)"><title>Sheet.18844</title><ellipse cx="5.133" cy="113.853" rx="5.133" ry="5.187" style="fill:#86d633;stroke:none;stroke-width:34;stroke-linecap:butt"/></g><g transform="translate(13.298 -13.202)"><title>Sheet.18845</title><ellipse cx="5.133" cy="113.853" rx="5.133" ry="5.187" style="fill:url(#b);stroke:none;stroke-width:34;stroke-linecap:butt"/></g><g transform="translate(33.13 -13.202)"><title>Sheet.18846</title><ellipse cx="5.133" cy="113.853" rx="5.133" ry="5.187" style="fill:url(#c);stroke:none;stroke-width:34;stroke-linecap:butt"/></g><g transform="translate(0 -37.922)"><title>Sheet.18847</title><title>Sheet.18848</title><path d="M1.9 105.94h4.3v12.12a.967.977 0 0 1-.967.977l-4.263.003a.967.977 0 0 1-.967-.977L0 107.96a1.9 1.92 0 0 1 1.9-2.02" style="fill:#999;stroke:none;stroke-width:34;stroke-linecap:butt"/><title>Sheet.18849</title><path d="M1.9 105.94h4.3v12.12a.967.977 0 0 1-.967.977l-4.263.003a.967.977 0 0 1-.967-.977L0 107.96a1.9 1.92 0 0 1 1.9-2.02" style="fill:#999;fill-opacity:.5;stroke:none;stroke-width:34;stroke-linecap:butt"/></g><g transform="translate(50.427 -38.023)"><title>Sheet.18850</title><title>Sheet.18851</title><path d="M.03 106.04H4.3a1.9 1.92 0 0 1 1.9 1.92v10.1a.967.977 0 0 1-.967.977l-4.263.003a.967.977 0 0 1-.967-.977L0 106.04Z" style="fill:#999;stroke:none;stroke-width:34;stroke-linecap:butt"/><title>Sheet.18852</title><path d="M.03 106.04H4.3a1.9 1.92 0 0 1 1.9 1.92v10.1a.967.977 0 0 1-.967.977l-4.263.003a.967.977 0 0 1-.967-.977L0 106.04Z" style="fill:#999;fill-opacity:.5;stroke:none;stroke-width:34;stroke-linecap:butt"/></g><g transform="translate(0 -44.86)"><title>Sheet.18853</title><path d="M56.66 114.8v4.24H0v-4.24a1.9 1.92 0 0 1 1.9-1.92h52.86a1.9 1.92 0 0 1 1.9 1.92" style="fill:#949494;stroke:none;stroke-width:34;stroke-linecap:butt"/></g><g transform="translate(0 -.034)"><title>Sheet.18854</title><title>Sheet.18855</title><path d="M.97 105.94h4.3a.967.977 0 0 1 .967.977L6.23 119.04H1.9a1.9 1.92 0 0 1-1.9-1.92v-10.1a.967.977 0 0 1 .967-1.078z" style="fill:#999;stroke:none;stroke-width:34;stroke-linecap:butt"/><title>Sheet.18856</title><path d="M.97 105.94h4.3a.967.977 0 0 1 .967.977L6.23 119.04H1.9a1.9 1.92 0 0 1-1.9-1.92v-10.1a.967.977 0 0 1 .967-1.078z" style="fill:#999;fill-opacity:.5;stroke:none;stroke-width:34;stroke-linecap:butt"/></g><g transform="translate(50.46 -.135)"><title>Sheet.18857</title><title>Sheet.18858</title><path d="M.93 106.04h4.34a.967.977 0 0 1 .967.977L6.23 117.12a1.9 1.92 0 0 1-1.9 1.92H0v-12.13a.967.977 0 0 1 .933-.876z" style="fill:#999;stroke:none;stroke-width:34;stroke-linecap:butt"/><title>Sheet.18859</title><path d="M.93 106.04h4.34a.967.977 0 0 1 .967.977L6.23 117.12a1.9 1.92 0 0 1-1.9 1.92H0v-12.13a.967.977 0 0 1 .933-.876z" style="fill:#999;fill-opacity:.5;stroke:none;stroke-width:34;stroke-linecap:butt"/></g><title>Sheet.18860</title><path d="M0 117.12v-4.24h56.66v4.24a1.9 1.92 0 0 1-1.9 1.92H1.9a1.9 1.92 0 0 1-1.9-1.92" style="fill:#949494;stroke:none;stroke-width:34;stroke-linecap:butt"/></g></g></svg>