<svg xmlns="http://www.w3.org/2000/svg" xml:space="preserve" width="75.587" height="64.248" style="font-size:12px;overflow:visible;color-interpolation-filters:sRGB;fill-rule:evenodd;stroke-linecap:square;stroke-miterlimit:3" viewBox="0 0 56.69 48.186"><g transform="translate(-12.24 -12.238)"><title>Page-1</title><g transform="translate(12.24 -34.016)"><title>Reserved IP address (classic).18833</title><title>Sheet.18834</title><title>Sheet.18835</title><path d="M0 92.18c0 1.25 1.02 2.26 2.27 2.26h52.16c1.24 0 2.26-1.01 2.26-2.26v-35.4H0Z" style="fill:#59b4d9;stroke:none;stroke-width:12.23999977;stroke-linecap:butt"/><g transform="translate(0 -33.936)"><title>Sheet.18836</title><path d="M54.43 80.19H2.27C1.02 80.19 0 81.21 0 82.45v11.99h56.69V82.45a2.27 2.27 0 0 0-2.26-2.26" style="fill:#0072c6;stroke:none;stroke-width:12.23999977;stroke-linecap:butt"/></g><g transform="translate(14.627 -38.348)"><title>Sheet.18837</title><path d="M0 90.033h38.211v4.412H0z" style="fill:#fff;stroke:none;stroke-width:12.23999977;stroke-linecap:butt"/></g><g transform="translate(1.7 -35.067)"><title>Sheet.18838</title><path d="M11.11 88.9c0 3.06-2.49 5.54-5.55 5.54C2.49 94.44 0 91.96 0 88.9c0-3.05 2.49-5.54 5.56-5.54 3.06 0 5.55 2.49 5.55 5.54" style="fill:#59b4d9;stroke:none;stroke-width:12.23999977;stroke-linecap:butt"/></g><g transform="translate(4.535 -37.33)"><title>Sheet.18839</title><path d="m2.15 91.73 2.5 2.71H3.29L0 91.28 3.29 88h1.36l-2.5 2.71h6.13v1.02z" style="fill:#fff;stroke:none;stroke-width:12.23999977;stroke-linecap:butt"/></g><g transform="translate(14.854 -9.728)"><title>Sheet.18840</title><path d="M4.88 92.3c0 .67-.23 1.13-.68 1.58-.46.45-1.03.56-1.82.56-.68 0-1.25-.22-1.7-.67-.45-.46-.68-.91-.68-1.59s.23-1.13.68-1.58 1.02-.57 1.81-.57c.68 0 1.25.23 1.71.68.45.45.68.91.68 1.59m10.09 0c0 .67-.23 1.13-.68 1.58-.46.45-1.02.56-1.82.56-.68 0-1.24-.22-1.7-.67-.45-.46-.68-.91-.68-1.59s.23-1.13.68-1.58c.46-.45 1.02-.57 1.82-.57.68 0 1.24.23 1.7.68.45.45.68.91.68 1.59m10.09 0c0 .67-.23 1.13-.68 1.58-.46.45-1.02.56-1.82.56-.68 0-1.24-.22-1.7-.67-.45-.46-.68-.91-.68-1.59s.23-1.13.68-1.58c.46-.45 1.02-.57 1.82-.57.68 0 1.24.23 1.7.68.45.45.68.91.68 1.59" style="fill:#0072c6;stroke:none;stroke-width:12.23999977;stroke-linecap:butt"/></g></g></g></svg>