<svg xmlns="http://www.w3.org/2000/svg" xml:space="preserve" width="75.595" height="45.347" style="font-size:12px;overflow:visible;color-interpolation-filters:sRGB;fill-rule:evenodd;stroke-linecap:square;stroke-miterlimit:3" viewBox="0 0 56.696 34.01"><defs><linearGradient id="a" x1="0" x2="35.272" y1="70.543" y2="70.543" gradientTransform="scale(1.0371 .96423)" gradientUnits="userSpaceOnUse"><stop offset="0" stop-color="#5e9624"/><stop offset=".01" stop-color="#5f9724"/><stop offset=".35" stop-color="#6cab29"/><stop offset=".68" stop-color="#73b82c"/><stop offset="1" stop-color="#76bc2d"/></linearGradient></defs><g transform="translate(-34 -34.004)"><title>Page-1</title><g transform="translate(34 -34.016)"><title>Route Filter.18825</title><title>Icon-networking-71</title><g transform="translate(36.58 -2.556)"><title>Sheet.18827</title><path d="m19.99 88.07-6.67 6.45a.314.304 0 0 1-.566-.243l.006-3.657a.346.335-180 0 0-.346-.304L1.41 90.32l6.86 6.39a.283.274-180 0 0 .377 0l1.913-1.89a.251.243 0 0 1 .44.183v6.667a.377.365 0 0 1-.377.365l-6.753-.005a.251.243 0 0 1-.189-.426L5.63 99.75a.283.274-180 0 0 0-.365L0 93.66V82.01l5.75-5.54a.251.243-180 0 0 0-.335L3.8 74.28a.251.243 0 0 1 .189-.426l6.881.006a.409.396 0 0 1 .377.396l.003 6.474a.251.243 0 0 1-.44.183L8.89 79.06a.283.274-180 0 0-.377 0L1.51 85.48h10.78a.346.335-180 0 0 .346-.335l-.006-3.655a.314.304 0 0 1 .566-.243l6.794 6.333a.314.304 0 0 1 0 .487z" style="fill:#0078d4;stroke:none;stroke-width:34;stroke-linecap:butt"/></g><title>Sheet.18828</title><path d="M0 100.27a1.823 1.765-180 0 0 1.82 1.76h32.94a1.823 1.765-180 0 0 1.82-1.76V69.78a1.823 1.765-180 0 0-1.82-1.76H1.82A1.823 1.765-180 0 0 0 69.78Z" style="fill:url(#a);stroke:none;stroke-width:34;stroke-linecap:butt"/><g transform="translate(7.134 -4.168)"><title>Sheet.18829</title><g transform="translate(0 -17.738)"><title>Sheet.18830</title><path d="M0 101.15a.911.882-180 0 0 .911.882l6.759-.002a.911.882-180 0 0 .911-.882L8.58 94.97a.911.882-180 0 0-.911-.882L.91 94.09a.911.882-180 0 0-.911.882z" style="fill:#fff;stroke:none;stroke-width:34;stroke-linecap:butt"/></g><g transform="translate(14.613 -8.64)"><title>Sheet.18831</title><path d="M0 101.15a.911.882-180 0 0 .911.882l6.759-.002a.911.882-180 0 0 .911-.882L8.58 94.97a.911.882-180 0 0-.911-.882L.91 94.09a.911.882-180 0 0-.911.882z" style="fill:#fff;stroke:none;stroke-width:34;stroke-linecap:butt"/></g><title>Sheet.18832</title><path d="M0 101.15a.911.882-180 0 0 .911.882l6.759-.002a.911.882-180 0 0 .911-.882L8.58 94.97a.911.882-180 0 0-.911-.882L.91 94.09a.911.882-180 0 0-.911.882z" style="fill:#fff;stroke:none;stroke-width:34;stroke-linecap:butt"/></g></g></g></svg>