<svg xmlns="http://www.w3.org/2000/svg" xml:space="preserve" width="75.59" height="75.59" style="font-size:12px;overflow:visible;color-interpolation-filters:sRGB;fill-rule:evenodd;stroke-linecap:square;stroke-miterlimit:3" viewBox="0 0 56.693 56.693"><defs><linearGradient id="a" x1="0" x2="56.693" y1="68.016" y2="68.016" gradientUnits="userSpaceOnUse"><stop offset="0" stop-color="#005ba1"/><stop offset=".15" stop-color="#0063af"/><stop offset=".44" stop-color="#006fc3"/><stop offset=".725" stop-color="#0076d0"/><stop offset="1" stop-color="#0078d4"/></linearGradient></defs><g transform="translate(-34 -34)"><title>Page-1</title><g transform="translate(34 -34.016)"><title>Route Server.18820</title><title>Sheet.18821</title><title>Sheet.18822</title><circle cx="28.346" cy="96.362" r="28.346" style="fill:url(#a);stroke:none;stroke-width:34;stroke-linecap:butt"/><g transform="translate(20.088 -3.698)"><title>Sheet.18823</title><path d="m.09 83.51 7.83-7.82a.93.93 0 0 1 1.317 0l7.823 7.82a.415.415 0 0 1-.293.711l-4.817-.001a.415.415-180 0 0-.415.419l.005 9.781a.34.34 0 0 1-.34.34H5.95a.34.34 0 0 1-.34-.34v-9.78a.415.415-180 0 0-.412-.419L.39 84.22a.419.419 0 0 1-.296-.711Zm16.97 33.1-7.83 7.82a.93.93 0 0 1-1.317 0L.09 116.61a.419.419 0 0 1 .296-.711l4.814.001a.415.415-180 0 0 .415-.419L5.61 105.7a.34.34 0 0 1 .34-.34h5.26a.34.34 0 0 1 .34.34v9.78a.415.415-180 0 0 .415.419l4.805.001a.415.415 0 0 1 .293.711z" style="fill:#9cebff;stroke:none;stroke-width:34;stroke-linecap:butt"/></g><g transform="translate(3.88 -19.703)"><title>Sheet.18824</title><path d="m37.69 124.62-7.83-7.83a.93.93 0 0 1 0-1.317l7.83-7.823a.415.415 0 0 1 .711.293l-.001 4.807a.42.42-180 0 0 .415.419l9.775.001a.34.34 0 0 1 .34.34v5.25a.34.34 0 0 1-.34.34h-9.78a.415.415-180 0 0-.415.415l.005 4.815a.419.419 0 0 1-.711.29zm-26.44-16.97 7.83 7.83a.93.93 0 0 1 0 1.317l-7.83 7.823a.419.419 0 0 1-.711-.296l.001-4.814a.415.415-180 0 0-.415-.415L.34 119.09a.34.34 0 0 1-.34-.34v-5.25a.34.34 0 0 1 .34-.34h9.78a.42.42-180 0 0 .415-.419l.005-4.801a.415.415 0 0 1 .711-.293z" style="fill:#f2f2f2;stroke:none;stroke-width:34;stroke-linecap:butt"/></g></g></g></svg>