<svg xmlns="http://www.w3.org/2000/svg" xml:space="preserve" width="75.596" height="71.8" style="font-size:12px;overflow:visible;color-interpolation-filters:sRGB;fill-rule:evenodd;stroke-linecap:square;stroke-miterlimit:3" viewBox="0 0 56.697 53.85"><defs><linearGradient id="a" x1="-.017" x2="35.699" y1="122.103" y2="122.103" gradientTransform="scale(1.29498 .77221)" gradientUnits="userSpaceOnUse"><stop offset=".22" stop-color="#32d4f5"/><stop offset=".47" stop-color="#31d1f3"/><stop offset=".63" stop-color="#2ec9eb"/><stop offset=".77" stop-color="#29bade"/><stop offset=".89" stop-color="#22a5cb"/><stop offset="1" stop-color="#198ab3"/><stop offset="1" stop-color="#198ab3"/></linearGradient><linearGradient id="b" x1="0" x2="25.719" y1="97.145" y2="97.145" gradientTransform="scale(1.00812 .99195)" gradientUnits="userSpaceOnUse"><stop offset=".22" stop-color="#32d4f5"/><stop offset=".47" stop-color="#31d1f3"/><stop offset=".63" stop-color="#2ec9eb"/><stop offset=".77" stop-color="#29bade"/><stop offset=".89" stop-color="#22a5cb"/><stop offset="1" stop-color="#198ab3"/><stop offset="1" stop-color="#198ab3"/></linearGradient></defs><g transform="translate(-33.999 -34.005)"><title>Page-1</title><g transform="translate(34 -34.016)"><title>Route Table.18814</title><title>Icon-networking-82</title><g transform="translate(10.465)"><title>Sheet.18816</title><path d="M42.11 121.87a4.053 3.988-180 0 0 4.12-3.85v-.66c-1.64-12.72-9.01-23.07-23.08-23.07S1.44 103.05 0 117.36a4.154 4.087-180 0 0 3.68 4.48h38.43z" style="fill:url(#a);stroke:none;stroke-width:34;stroke-linecap:butt"/></g><g transform="translate(26.578 -8.735)"><title>Sheet.18817</title><path d="M7.03 106.02A12.93 12.723 0 0 1 0 104.01l6.97 17.86 6.9-17.76a12.83 12.624 0 0 1-6.84 1.91" style="fill:#fff;fill-opacity:.8;stroke:none;stroke-width:34;stroke-linecap:butt"/></g><g transform="translate(20.649 -24.589)"><title>Sheet.18818</title><ellipse cx="12.964" cy="109.119" rx="12.964" ry="12.756" style="fill:url(#b);stroke:none;stroke-width:34;stroke-linecap:butt"/></g><g transform="translate(0 -26.698)"><title>Sheet.18819</title><path d="M18.3 111.36V95.28a.536.527-180 0 0-.536-.56H13.51a.57.56-180 0 0-.603.56l.003 15.52a.603.593 0 0 1-.57.56H8.59a.402.396 0 0 1-.335-.396l-.005-4.314a.368.363-180 0 0-.636-.264L.18 113.63a.536.527-180 0 0 0 .791l7.37 7.219a.37.365-180 0 0 .703-.23l-.003-4.35a.368.363 0 0 1 .335-.363l9.185.003a.57.56-180 0 0 .536-.56z" style="fill:#0078d4;stroke:none;stroke-width:34;stroke-linecap:butt"/></g></g></g></svg>