<svg xmlns="http://www.w3.org/2000/svg" xml:space="preserve" width="68.023" height="75.605" style="font-size:12px;overflow:visible;color-interpolation-filters:sRGB;fill-rule:evenodd;stroke-linecap:square;stroke-miterlimit:3" viewBox="0 0 51.017 56.703"><defs><linearGradient id="a" x1="-.471" x2="13.105" y1="230.802" y2="230.802" gradientTransform="scale(2.02975 .49267)" gradientUnits="userSpaceOnUse"><stop offset="0" stop-color="#5e9624"/><stop offset=".24" stop-color="#6fb02a"/><stop offset=".5" stop-color="#7cc52f"/><stop offset=".755" stop-color="#83d232"/><stop offset="1" stop-color="#86d633"/></linearGradient><linearGradient id="b" x1="0" x2="37.433" y1="103.404" y2="103.404" gradientTransform="scale(1.17917 .84805)" gradientUnits="userSpaceOnUse"><stop offset="0" stop-color="#198ab3"/><stop offset="0" stop-color="#198ab3"/><stop offset=".11" stop-color="#22a5cb"/><stop offset=".23" stop-color="#29bade"/><stop offset=".37" stop-color="#2ec9eb"/><stop offset=".53" stop-color="#31d1f3"/><stop offset=".78" stop-color="#32d4f5"/></linearGradient></defs><g transform="translate(-28.725 -28.719)"><title>Page-1</title><g transform="translate(28.72 -34.016)"><title>Service Endpoint.18801</title><g transform="translate(0 -25.62)"><title>g12</title><g transform="translate(.011)"><title>path4-3</title><path d="m17.51 117.26-1.88 1.92a.85.865 0 0 1-1.202 0L.5 105.06a1.701 1.73 0 0 1 0-2.45l1.88-1.92 15.12 15.34a.85.865 0 0 1 0 1.226z" style="fill:#50e6ff;stroke:none;stroke-width:28.71969986;stroke-linecap:butt"/></g><g transform="translate(0 -12.494)"><title>path6-5</title><path d="m15.36 101.11 1.9 1.92a.85.865 0 0 1 0 1.226L2.39 119.43.5 117.51a1.701 1.73 0 0 1 0-2.44l13.66-13.94a.85.865 0 0 1 1.205 0z" style="fill:#1490df;stroke:none;stroke-width:28.71969986;stroke-linecap:butt"/></g><g transform="translate(33.24 -.006)"><title>path8</title><path d="m15.38 100.69 1.88 1.92a1.701 1.73 0 0 1 0 2.44L3.33 119.18a.85.865 0 0 1-1.202 0L.25 117.25a.85.865 0 0 1 0-1.223z" style="fill:#50e6ff;stroke:none;stroke-width:28.71969986;stroke-linecap:butt"/></g><g transform="translate(33.513 -12.503)"><title>path10-7</title><path d="m17 117.51-1.88 1.92L.25 104.26a.85.865 0 0 1 0-1.223l1.9-1.927a.85.865 0 0 1 1.202 0l13.658 13.94a1.701 1.73 0 0 1 0 2.45z" style="fill:#1490df;stroke:none;stroke-width:28.71969986;stroke-linecap:butt"/></g><g transform="translate(12.79 -13.175)"><title>path2</title><path d="M26.6 117.04a3.283 3.34 0 1 1-3.28-3.33 3.28 3.336 0 0 1 3.28 3.33m-13.79-3.32a3.283 3.34-180 1 0 3.29 3.34 3.28 3.336-180 0 0-3.29-3.34m-10.49 0a3.283 3.34-180 1 0 3.29 3.35 3.283 3.34-180 0 0-3.29-3.33z" style="fill:url(#a);stroke:none;stroke-width:28.71969986;stroke-linecap:butt"/></g></g><g transform="translate(3.297)"><title>path32</title><path d="M44.14 109.45a9.924 10.094-180 0 0-8.59-9.7A12.471 12.686-180 0 0 22.66 87.7a12.827 13.047-180 0 0-12.26 8.41A11.85 12.053-180 0 0 0 107.68a12.027 12.234-180 0 0 12.44 11.75h21.75a10.013 10.185-180 0 0 9.95-9.98" style="fill:url(#b);stroke:none;stroke-width:30.0095005;stroke-linecap:butt"/></g><g transform="translate(20.936 -9.044)"><title>g24</title><title>path18-0</title><path d="M6.93 110.55V96.59c-.26-.01-.51-.04-.77-.04-1.3 0-2.57.17-3.77.48v13.61c-1.4.85-2.39 2.37-2.39 4.05 0 2.43 2.31 4.74 4.76 4.74 2.52 0 4.56-2.13 4.56-4.74a4.664 4.744-180 0 0-2.39-4.14" style="fill:#fff;stroke:none;stroke-width:11.5156002;stroke-linecap:butt"/><g transform="translate(1.372 -1.36)"><title>g1494</title><title>path20-4</title><path d="M6.59 116.08c0 1.93-1.55 3.35-3.2 3.35S0 117.8 0 116.08c0-1.73 1.55-3.36 3.39-3.36s3.2 1.63 3.2 3.36" style="fill:#57a300;stroke:none;stroke-width:11.5156002;stroke-linecap:butt"/><g transform="translate(2.16 -3.353)"><title>path22-7</title><path d="M0 95.147h2.273v24.281H0z" style="fill:#57a300;stroke:none;stroke-width:11.5156002;stroke-linecap:butt"/></g></g></g></g></g></svg>