<svg xmlns="http://www.w3.org/2000/svg" xml:space="preserve" width="60.466" height="75.586" style="font-size:12px;overflow:visible;color-interpolation-filters:sRGB;fill-rule:evenodd;stroke-linecap:square;stroke-miterlimit:3" viewBox="0 0 45.35 56.69"><defs><linearGradient id="a" x1="0" x2="50.704" y1="60.838" y2="60.838" gradientTransform="scale(.8944 1.11806)" gradientUnits="userSpaceOnUse"><stop offset="0" stop-color="#0078d4"/><stop offset="1" stop-color="#5ea0ef"/></linearGradient><linearGradient id="b" x1="0" x2="24.252" y1="112.879" y2="112.879" gradientTransform="scale(1.0996 .90942)" gradientUnits="userSpaceOnUse"><stop offset="0" stop-color="#ffbd02"/><stop offset="1" stop-color="#ffd400"/></linearGradient></defs><g transform="translate(-34 -34.004)"><title>Page-1</title><g transform="translate(34 -34.016)"><title>SIM.18796</title><title>Sheet.18797</title><title>Sheet.18798</title><path d="M25.14 68.02H1.89A1.894 1.933-180 0 0 0 69.95v52.82a1.894 1.933-180 0 0 1.89 1.94h41.57a1.894 1.933-180 0 0 1.89-1.93V88.57a1.781 1.819-180 0 0-.52-1.29L26.4 68.54a1.788 1.825-180 0 0-1.26-.52" style="fill:url(#a);stroke:none;stroke-width:34;stroke-linecap:butt"/><g transform="translate(9.412 -7.526)"><title>Sheet.18799</title><path d="M0 102.654h26.667v22.055H0z" style="fill:url(#b);stroke:none;stroke-width:34;stroke-linecap:butt"/></g><g transform="translate(8.342 -6.577)"><title>Sheet.18800</title><path d="M28.64 101.98a1.513 1.545-180 0 0-.24-.57 1.541 1.573-180 0 0-.19-.24 1.516 1.548-180 0 0-.5-.35 1.56 1.592-180 0 0-.63-.12H1.58A1.582 1.615-180 0 0 0 102.31v20.78a1.582 1.615-180 0 0 1.58 1.62h25.51a1.56 1.592-180 0 0 1.12-.48 1.604 1.637-180 0 0 .46-1.14V102.3a1.529 1.56-180 0 0-.03-.32m-27.06.32h13.18v10.4H1.58Zm0 20.79v-8.89h13.18v8.88zm25.51 0H16.34V102.3h10.75z" style="fill:#005ba1;stroke:none;stroke-width:34;stroke-linecap:butt"/></g></g></g></svg>