<svg xmlns="http://www.w3.org/2000/svg" xml:space="preserve" width="75.586" height="75.586" style="font-size:12px;overflow:visible;color-interpolation-filters:sRGB;fill-rule:evenodd;stroke-linecap:square;stroke-miterlimit:3" viewBox="0 0 56.69 56.69"><defs><linearGradient id="a" x1="0" x2="56.69" y1="68.02" y2="68.02" gradientUnits="userSpaceOnUse"><stop offset=".16" stop-color="#6f4bb2"/><stop offset=".32" stop-color="#7450b5"/><stop offset=".51" stop-color="#825dbf"/><stop offset=".72" stop-color="#9a72ce"/><stop offset=".94" stop-color="#bb90e4"/><stop offset="1" stop-color="#c69aeb"/></linearGradient></defs><g transform="translate(-34 -34.004)"><title>Page-1</title><g transform="translate(34 -34.016)"><title>Traffic Manager profile.18791</title><title>Sheet.18792</title><title>Sheet.18793</title><path d="M39.32 68.02H17.37a1.87 1.87-180 0 0-1.33.56L.57 84.06A1.87 1.87-180 0 0 0 85.39v21.94a1.87 1.87-180 0 0 .57 1.34l15.47 15.47a1.87 1.87-180 0 0 1.33.57h21.95a1.87 1.87-180 0 0 1.33-.57l15.48-15.47a1.87 1.87-180 0 0 .56-1.34V85.39a1.87 1.87-180 0 0-.56-1.33L40.65 68.58a1.87 1.87-180 0 0-1.33-.56" style="fill:url(#a);stroke:none;stroke-width:34;stroke-linecap:butt"/><g transform="translate(9.771 -28.547)"><title>Sheet.18794</title><path d="m8.57 120.37-.23.24L5 123.94a.467.467-180 0 0 .333.767l12.677.003a.467.467-180 0 0 .467-.467l.003-12.503a.557.557-180 0 0-1.1-.167l-3.34 3.327-.23.24a.5.5 0 0 1-.667 0L4.57 106.7 0 111.3l8.57 8.41a.5.5 0 0 1 0 .667z" style="fill:#f2f2f2;stroke:none;stroke-width:34;stroke-linecap:butt"/></g><g transform="translate(4.135 -4.135)"><title>Sheet.18795</title><path d="M48.16 90.19 34.52 76.55a.93.93-180 0 0-.667-.267l-19.283.007a.93.93-180 0 0-.667.267L.27 90.19a.93.93-180 0 0-.267.667L0 110.14a1 1-180 0 0 .27.66l13.64 13.64a.93.93-180 0 0 .667.267l19.273.003a.93.93-180 0 0 .667-.267L48.16 110.8a1 1-180 0 0 .26-.66V90.86a.93.93-180 0 0-.267-.667zm-1.2 18.18L36.45 97.86l2.53-2.56a.534.534-180 0 0 0-.8.53.53-180 0 0-.367 0l-9.033-.24a.567.567-180 0 0-.567.534l.237 9.036a.534.534-180 0 0 .567.534.43.43-180 0 0 .4 0l2.833-2.804 11.17 11.01-8.47 8.47-11.54-11.51 2.67-2.36a.534.534-180 0 0 0-.8.53.53-180 0 0-.367-.167l-8.973-.403a.567.567-180 0 0-.567.534l.237 9.036a.534.534-180 0 0 .567.534.57.57-180 0 0 .4-.167l2.703-2.767 10.27 10.27H14.77L1.43 109.9V91.06l4.21-4.17 4.56-4.6 4.57-4.57h18.88l13.34 13.34z" style="fill:#f2f2f2;stroke:none;stroke-width:34;stroke-linecap:butt"/></g></g></g></svg>