<svg xmlns="http://www.w3.org/2000/svg" xml:space="preserve" width="75.587" height="75.982" style="font-size:12px;overflow:visible;color-interpolation-filters:sRGB;fill-rule:evenodd;stroke-linecap:square;stroke-miterlimit:3" viewBox="0 0 56.69 56.986"><defs><linearGradient id="a" x1="0" x2="48.27" y1="98.599" y2="98.599" gradientTransform="scale(1.17444 .85147)" gradientUnits="userSpaceOnUse"><stop offset="0" stop-color="#198ab3"/><stop offset=".11" stop-color="#22a5cb"/><stop offset=".23" stop-color="#29bade"/><stop offset=".37" stop-color="#2ec9eb"/><stop offset=".53" stop-color="#31d1f3"/><stop offset=".78" stop-color="#32d4f5"/></linearGradient></defs><g transform="translate(-34.011 -34.01)"><title>Page-1</title><g transform="translate(34.011 -34.327)"><title>Virtual WAN.18731</title><title>g37</title><g transform="translate(0 -15.616)"><title>path19</title><path d="M56.69 112.14a12.853 13.084-180 0 0-11-12.56 16.244 16.536-180 0 0-16.68-15.62 16.711 17.011-180 0 0-15.67 10.86A15.65 15.932-180 0 0 0 109.76a15.38 15.657-180 0 0 16.01 15.28h28.01a12.673 12.9-180 0 0 12.67-12.9" style="fill:url(#a);stroke:none;stroke-width:34.01110077;stroke-linecap:butt"/></g><g transform="translate(13.673)"><title>circle21</title><ellipse cx="14.674" cy="110.1" rx="14.674" ry="14.937" style="fill:#f2f2f2;stroke:none;stroke-width:34.01110077;stroke-linecap:butt"/></g><g transform="translate(15.34 -1.697)"><title>path23</title><path d="M25.35 102.29A15.34 15.616-180 0 0 4 99.24a15.21 15.484-180 1 0 18.68 24.44 15.197 15.47-180 0 0 2.67-21.39M0 110.78a15.697 15.98 0 0 1 1.33-5.43H5a25.919 26.384-180 0 0-.66 5.43zm7-5.43h5.01v5.43H6.34a25.919 26.384 0 0 1 .66-5.43m7.01 0h5a25.919 26.384 0 0 1 .67 5.43h-5.67zm-1.67 7.13v5.43H7l-1-5.09zm1.67 0h6a33.252 33.85 0 0 1-.67 5.43h-5.33zm8 0h4.34a15.697 15.98 0 0 1-1.34 5.43h-3.67a25.919 26.384-180 0 0 .67-5.43m0-1.7a33.252 33.85-180 0 0-.67-5.43h3.67a13.983 14.234 0 0 1 1.34 5.43zm1.67-7.47h-3a15.007 15.277-180 0 0-2-4.07 14.767 15.032 0 0 1 5 4.07m-5 0h-4.67v-4.75a7.24 7.37 0 0 1 4.67 4.75m-6.34-4.75v5.09H7.67a7.063 7.19 0 0 1 4.67-5.09M5 100.93a18.615 18.95 0 0 1 2.67-1.69 10.338 10.524-180 0 0-2 4.41h-3A9.004 9.166 0 0 1 5 100.93m-5 11.89h4.34a33.252 33.85-180 0 0 .66 5.43H1.33A17.838 18.159 0 0 1 0 112.82m2.67 7.13h3l2 4.07a11.642 11.851 0 0 1-5-4.07m5 0h4.34v5.09a8.114 8.26 0 0 1-4.34-5.09m6.34 5.09v-5.09h4.33a6.563 6.68 0 0 1-4.33 5.09m7.33-2.72a8.744 8.901 0 0 1-3 1.7 11.269 11.471-180 0 0 2-4.07h3a4.482 4.563 0 0 1-2 2.37" style="fill:#0078d4;stroke:none;stroke-width:34.01110077;stroke-linecap:butt"/></g><g transform="translate(8.004 -20.03)"><title>path25</title><path d="M7.34 125.04A13.423 13.664 0 0 1 0 115.19a12.159 12.377 0 0 1 5-9.84l2-1.7 1.67 2.04-2 1.69a8.367 8.518-180 0 0-4 7.47 10.108 10.29-180 0 0 6 7.81z" style="fill:#e6e6e6;stroke:none;stroke-width:34.01110077;stroke-linecap:butt"/></g><g transform="translate(12.339 -36.664)"><title>circle27</title><ellipse cx="3.668" cy="121.303" rx="3.668" ry="3.734" style="fill:#f2f2f2;stroke:none;stroke-width:34.01110077;stroke-linecap:butt"/></g><g transform="translate(39.352 -20.03)"><title>path29</title><path d="M1.33 125.04 0 122.66a10.868 11.064-180 0 0 6-7.81 9.164 9.329-180 0 0-4-7.47l-2-1.35 1.67-2.04 2 1.36a10.241 10.425 0 0 1 5 9.84 13.423 13.664 0 0 1-7.34 9.85" style="fill:#e6e6e6;stroke:none;stroke-width:34.01110077;stroke-linecap:butt"/></g><g transform="translate(36.684 -36.664)"><title>circle31</title><ellipse cx="3.668" cy="121.303" rx="3.668" ry="3.734" style="fill:#f2f2f2;stroke:none;stroke-width:34.01110077;stroke-linecap:butt"/></g><g transform="translate(12.339 -17.313)"><title>circle33</title><ellipse cx="3.668" cy="121.303" rx="3.668" ry="3.734" style="fill:#ce74b6;stroke:none;stroke-width:34.01110077;stroke-linecap:butt"/></g><g transform="translate(36.684 -17.313)"><title>circle35</title><ellipse cx="3.668" cy="121.303" rx="3.668" ry="3.734" style="fill:#ce74b6;stroke:none;stroke-width:34.01110077;stroke-linecap:butt"/></g></g></g></svg>