<svg xmlns="http://www.w3.org/2000/svg" xml:space="preserve" width="75.587" height="72.744" style="font-size:12px;overflow:visible;color-interpolation-filters:sRGB;fill-rule:evenodd;stroke-linecap:square;stroke-miterlimit:3" viewBox="0 0 56.69 54.558"><defs><linearGradient id="a" x1="0" x2="47.657" y1="95.441" y2="95.441" gradientTransform="scale(1.18955 .84065)" gradientUnits="userSpaceOnUse"><stop offset="0" stop-color="#0078d4"/><stop offset=".82" stop-color="#5ea0ef"/></linearGradient><linearGradient id="b" x1="-.705" x2="29.972" y1="91.306" y2="91.306" gradientTransform="scale(1.00205 .99796)" gradientUnits="userSpaceOnUse"><stop offset="0" stop-color="#6f4bb2"/><stop offset=".19" stop-color="#7854b8"/><stop offset=".51" stop-color="#926bc9"/><stop offset=".91" stop-color="#bb90e4"/><stop offset="1" stop-color="#c69aeb"/></linearGradient></defs><g transform="translate(-32.41 -32.408)"><title>Page-1</title><g transform="translate(32.41 -34.016)"><title>Virtual WAN Gateway.18742</title><g transform="translate(0 -13.809)"><title>path22</title><path d="M56.69 107.72a12.756 12.704-180 0 0-11.05-12.2A16.063 15.998-180 0 0 29.1 80.24a16.472 16.405-180 0 0-15.75 10.7A15.181 15.12-180 0 0 0 105.49a15.433 15.37-180 0 0 15.97 14.78h27.24a2.457 2.447-180 0 0 .7 0 12.882 12.83-180 0 0 12.78-12.55" style="fill:url(#a);stroke:none;stroke-width:32.40950012;stroke-linecap:butt"/></g><g transform="translate(17.968)"><title>f5bcc86d-e9e9-4a14-9536-944056d</title><path d="M10.38 120.29a14.677 14.617 0 1 1 14.68-14.62 14.677 14.617 0 0 1-14.68 14.62" style="fill:#fff;stroke:none;stroke-width:32.40950012;stroke-linecap:butt"/></g><g transform="translate(13.746 -.753)"><title>path25</title><path d="M14.6 91.12a15.37 15.307-180 0 0-8.79 27.82 15.37 15.307-180 1 0 8.79-27.82m13.98 15.31a11.874 11.826 0 0 1 0 1.82 16.756 16.688-180 0 0-2.45-1.01 2.898 2.886-180 0 0-4.1-2.32 16.756 16.688-180 0 0-7.87-6.27 3.15 3.137-180 0 0-.79-1.51 15.276 15.213 0 0 1 6.05-3.83 14.047 13.99 0 0 1 9.16 13.12m-5.63 11.16a13.764 13.708 0 0 1-7.28 2.7 15.055 14.994 0 0 1-4.91-5.43 2.772 2.76-180 0 0 .91-1.28 2.835 2.823-180 0 0-.22-2.42 15.748 15.684 0 0 1 8.79-3.13 2.898 2.886-180 0 0 1.86 2.25 3.339 3.325-180 0 0 .72.16 15.748 15.684 0 0 1 .13 7.15m-12.82-15.68a2.898 2.886-180 0 0 3.68-1.73 15.087 15.025 0 0 1 7.09 5.62 3.59 3.576-180 0 0-.38.69 17.228 17.158-180 0 0-10.11 3.64l-.44-.22a2.33 2.321-180 0 0-.88-.19 15.244 15.182 0 0 1 1.04-7.94zm-2.4 13.42h.26a2.646 2.635-180 0 0 1.48 0 16.189 16.123-180 0 0 3.87 4.96 13.921 13.865 0 0 1-6.9-2.54 16.126 16.06 0 0 1 1.29-2.54zm6.87-22.86a15.433 15.37 0 0 1 2.43.22 16.284 16.217-180 0 0-5.01 3.67 2.898 2.886-180 0 0-3.15 1.19h-.82a17.354 17.284-180 0 0-4.76.69 14.11 14.053 0 0 1 11.31-5.77M.62 106.43a13.89 13.833 0 0 1 1.51-6.28 15.56 15.496 0 0 1 6.3-1.19 3.15 3.137-180 0 0 .69 2.04 16.756 16.688-180 0 0-1.42 9.13 2.898 2.886-180 0 0-1.45 1.6 2.96 2.949-180 0 0 .35 2.66 17.386 17.315-180 0 0-1.32 2.51 13.89 13.833 0 0 1-4.66-10.47m24 9.72v-2.01a16.945 16.876-180 0 0-.35-4.01 2.772 2.76-180 0 0 1.48-1.45 16.535 16.468 0 0 1 2.42 1.04 13.764 13.708 0 0 1-3.55 6.43" style="fill:url(#b);stroke:none;stroke-width:32.40950012;stroke-linecap:butt"/></g></g></g></svg>