<svg xmlns="http://www.w3.org/2000/svg" xml:space="preserve" width="75.608" height="64.251" style="font-size:12px;overflow:visible;color-interpolation-filters:sRGB;fill-rule:evenodd;stroke-linecap:square;stroke-miterlimit:3" viewBox="0 0 56.706 48.188"><defs><linearGradient id="a" x1="-.523" x2="14.561" y1="222.825" y2="222.825" gradientTransform="scale(2.02937 .49276)" gradientUnits="userSpaceOnUse"><stop offset="0" stop-color="#5e9624"/><stop offset=".24" stop-color="#6fb02a"/><stop offset=".5" stop-color="#7cc52f"/><stop offset=".755" stop-color="#83d232"/><stop offset="1" stop-color="#86d633"/></linearGradient><linearGradient id="b" x1="0" x2="25.353" y1="89.845" y2="89.845" gradientTransform="scale(.9918 1.00826)" gradientUnits="userSpaceOnUse"><stop offset="0" stop-color="#005ba1"/><stop offset=".125" stop-color="#0f66ae"/><stop offset=".515" stop-color="#3a86d1"/><stop offset=".82" stop-color="#5499e7"/><stop offset="1" stop-color="#5ea0ef"/></linearGradient></defs><g transform="translate(-33.936 -33.945)"><title>Page-1</title><g transform="translate(33.944 -34.016)"><title>Virtual Network Peering.18760</title><title>g18</title><g transform="translate(14.216 -28.323)"><title>path2</title><path d="M29.55 113.5a3.646 3.706 0 1 1-3.67-3.7 3.646 3.706 0 0 1 3.67 3.7m-15.32-3.68a3.646 3.706-180 1 0 3.65 3.7 3.646 3.706-180 0 0-3.65-3.7m-11.65 0a3.646 3.706-180 1 0 3.65 3.71 3.646 3.706-180 0 0-3.65-3.69z" style="fill:url(#a);stroke:none;stroke-width:33.94430161;stroke-linecap:butt"/></g><g transform="translate(.005 -13.685)"><title>path4</title><path d="m19.46 113.73-2.09 2.14a.947.963 0 0 1-1.341 0L.56 100.18a1.895 1.926 0 0 1 0-2.72l2.08-2.13 16.82 17.04a.947.963 0 0 1 0 1.363z" style="fill:#50e6ff;stroke:none;stroke-width:33.94430161;stroke-linecap:butt"/></g><g transform="translate(0 -27.576)"><title>path6</title><path d="m17.07 95.82 2.09 2.12a.947.963 0 0 1 0 1.363L2.64 116.15l-2.09-2.11a1.895 1.926 0 0 1 0-2.73l15.18-15.48a.947.963 0 0 1 1.338 0z" style="fill:#1490df;stroke:none;stroke-width:33.94430161;stroke-linecap:butt"/></g><g transform="translate(36.938 -13.68)"><title>path8</title><path d="m17.09 95.32 2.09 2.14a1.895 1.926 0 0 1 0 2.72L3.71 115.87a.947.963 0 0 1-1.338 0L.28 113.73a.947.963 0 0 1 0-1.36z" style="fill:#50e6ff;stroke:none;stroke-width:33.94430161;stroke-linecap:butt"/></g><g transform="translate(37.24 -27.576)"><title>path10</title><path d="m18.9 114.02-2.1 2.13L.28 99.31a.947.963 0 0 1 0-1.363l2.09-2.127a.947.963 0 0 1 1.341 0L18.9 111.3a1.895 1.926 0 0 1 0 2.73z" style="fill:#1490df;stroke:none;stroke-width:33.94430161;stroke-linecap:butt"/></g><g transform="translate(29.642)"><title>circle12</title><ellipse cx="12.572" cy="103.368" rx="12.572" ry="12.781" style="fill:url(#b);stroke:none;stroke-width:33.94430161;stroke-linecap:butt"/></g><g transform="translate(32.747 -10.007)"><title>path14</title><path d="M8.23 106.68H4.5a4.67 4.748-180 0 0-.73 9.4 4.97 5.053 0 0 1 .06-1.76 2.932 2.98 0 0 1 .67-5.91h3.72a2.952 3.001 0 0 1 0 6H7.19a2.205 2.242-180 0 0-.21.95 2.125 2.16-180 0 0 .15.79h1.09a4.67 4.748-180 0 0 .2-9.47z" style="fill:#fff;stroke:none;stroke-width:33.94430161;stroke-linecap:butt"/></g><g transform="translate(38.505 -6.067)"><title>path16</title><path d="M8.79 106.75a5.718 5.812 0 0 1 .05.72 4.767 4.846 0 0 1-.1 1.04 2.929 2.977 0 0 1-.67 5.9H4.33a2.952 3.001 0 0 1 0-6h1.03a2.185 2.221-180 0 0 .06-1.73H4.34a4.67 4.748-180 0 0 0 9.47h3.73a4.67 4.748-180 0 0 .73-9.41z" style="fill:#fff;stroke:none;stroke-width:33.94430161;stroke-linecap:butt"/></g></g></g></svg>