<svg xmlns="http://www.w3.org/2000/svg" xml:space="preserve" width="75.6" height="45.348" style="font-size:12px;overflow:visible;color-interpolation-filters:sRGB;fill-rule:evenodd;stroke-linecap:square;stroke-miterlimit:3" viewBox="0 0 56.7 34.011"><defs><linearGradient id="a" x1="-.521" x2="14.463" y1="195.743" y2="195.743" gradientTransform="scale(2.04388 .48927)" gradientUnits="userSpaceOnUse"><stop offset="0" stop-color="#5e9624"/><stop offset=".24" stop-color="#6fb02a"/><stop offset=".5" stop-color="#7cc52f"/><stop offset=".755" stop-color="#83d232"/><stop offset="1" stop-color="#86d633"/></linearGradient></defs><g transform="translate(-33.996 -34)"><title>Page-1</title><g transform="translate(34 -34.016)"><title>Virtual Network.18753</title><title>Sheet.18754</title><g transform="translate(14.21 -14.423)"><title>Sheet.18755</title><path d="M29.56 99.42a3.648 3.656 0 1 1-3.65-3.65 3.645 3.652 0 0 1 3.65 3.65m-15.33-3.63a3.648 3.656-180 1 0 3.65 3.65 3.645 3.652-180 0 0-3.65-3.65m-11.65 0a3.648 3.656-180 1 0 3.65 3.66 3.648 3.656-180 0 0-3.65-3.65Z" style="fill:url(#a);stroke:none;stroke-width:34;stroke-linecap:butt"/></g><g transform="translate(.013)"><title>Sheet.18756</title><path d="m19.45 99.66-2.09 2.09a.945.947 0 0 1-1.336 0L.55 86.3a1.89 1.894 0 0 1 0-2.68l2.09-2.1 16.81 16.79a.945.947 0 0 1 0 1.342z" style="fill:#50e6ff;stroke:none;stroke-width:34;stroke-linecap:butt"/></g><g transform="translate(0 -13.678)"><title>Sheet.18757</title><path d="m17.06 81.98 2.11 2.11a.945.947 0 0 1 0 1.342L2.65 102.03l-2.1-2.09a1.89 1.894 0 0 1 0-2.68L15.74 82a.945.947 0 0 1 1.339 0z" style="fill:#1490df;stroke:none;stroke-width:34;stroke-linecap:butt"/></g><g transform="translate(36.934 -.006)"><title>Sheet.18758</title><path d="m17.09 81.52 2.09 2.1a1.89 1.894 0 0 1 0 2.68L3.7 101.75a.945.947 0 0 1-1.336 0L.28 99.65a.945.947 0 0 1 0-1.338z" style="fill:#50e6ff;stroke:none;stroke-width:34;stroke-linecap:butt"/></g><g transform="translate(37.236 -13.687)"><title>Sheet.18759</title><path d="m18.89 99.94-2.09 2.09L.28 85.43a.945.947 0 0 1 0-1.338l2.11-2.112a.945.947 0 0 1 1.336 0L18.91 97.24a1.89 1.894 0 0 1-.01 2.68z" style="fill:#1490df;stroke:none;stroke-width:34;stroke-linecap:butt"/></g></g></g></svg>