<svg xmlns="http://www.w3.org/2000/svg" xml:space="preserve" width="75.605" height="64.244" style="font-size:12px;overflow:visible;color-interpolation-filters:sRGB;fill-rule:evenodd;stroke-linecap:square;stroke-miterlimit:3" viewBox="0 0 56.704 48.183"><defs><linearGradient id="a" x1="-.52" x2="14.429" y1="225.292" y2="225.292" gradientTransform="scale(2.04867 .48812)" gradientUnits="userSpaceOnUse"><stop offset="0" stop-color="#5e9624"/><stop offset=".24" stop-color="#6fb02a"/><stop offset=".5" stop-color="#7cc52f"/><stop offset=".755" stop-color="#83d232"/><stop offset="1" stop-color="#86d633"/></linearGradient></defs><g transform="translate(-33.992 -34)"><title>Page-1</title><g transform="translate(34 -34.016)"><title>Virtual Network Firewall.18776</title><g transform="translate(0 -14.286)"><title>g12</title><g transform="translate(14.21 -14.375)"><title>path2</title><path d="M29.56 113.6a3.648 3.643 0 1 1-3.65-3.63 3.645 3.64 0 0 1 3.65 3.63m-15.33-3.62a3.648 3.643-180 1 0 3.65 3.64 3.645 3.64-180 0 0-3.65-3.64m-11.65 0a3.648 3.643-180 1 0 3.65 3.65A3.648 3.643-180 0 0 2.58 110Z" style="fill:url(#a);stroke:none;stroke-width:34;stroke-linecap:butt"/></g><g transform="translate(.013)"><title>path4</title><path d="m19.45 113.84-2.09 2.09a.945.944 0 0 1-1.336 0L.55 100.52a1.89 1.888 0 0 1 0-2.66l2.09-2.1 16.81 16.74a.945.944 0 0 1 0 1.337z" style="fill:#50e6ff;stroke:none;stroke-width:34;stroke-linecap:butt"/></g><g transform="translate(0 -13.632)"><title>path6</title><path d="m17.06 96.22 2.11 2.1a.945.944 0 0 1 0 1.337L2.65 116.2l-2.1-2.08a1.89 1.888 0 0 1 0-2.68l15.19-15.21a.945.944 0 0 1 1.339 0z" style="fill:#1490df;stroke:none;stroke-width:34;stroke-linecap:butt"/></g><g transform="translate(36.934 -.006)"><title>path8</title><path d="m17.09 95.76 2.09 2.09a1.89 1.888 0 0 1 0 2.67L3.7 115.93a.945.944 0 0 1-1.336 0l-2.084-2.1a.945.944 0 0 1 0-1.334z" style="fill:#50e6ff;stroke:none;stroke-width:34;stroke-linecap:butt"/></g><g transform="translate(37.236 -13.642)"><title>path10</title><path d="m18.89 114.12-2.09 2.08L.28 99.66a.945.944 0 0 1 0-1.334l2.11-2.106a.945.944 0 0 1 1.336 0l15.184 15.21a1.89 1.888 0 0 1-.01 2.67z" style="fill:#1490df;stroke:none;stroke-width:34;stroke-linecap:butt"/></g></g><g transform="translate(30.446)"><title>path10-7</title><path d="M16.75 92.58c-5.92-.65-6.91-3.2-6.91-3.2S8.51 92.73 0 92.73v13.74c0 1.66.92 3.22 2.2 4.58 2.91 3.08 7.64 5.15 7.64 5.15s9.85-4.3 9.85-9.73V92.73c-1.1 0-2.07-.06-2.94-.15" style="fill:#57a300;stroke:none;stroke-width:9.65909004;stroke-linecap:butt"/></g><g transform="translate(30.446 -5.236)"><title>path12</title><path d="m12.16 103.53 4.43-5.62c-5.86-.65-6.84-3.17-6.84-3.17S8.43 98.06 0 98.06v13.61c0 1.65.92 3.19 2.18 4.53l3.28-4.15z" style="fill:#b8d432;fill-opacity:.4;stroke:none;stroke-width:9.65909004;stroke-linecap:butt"/></g><g transform="translate(35.815 -8.031)"><title>path14</title><path d="M8.5 109.95h-.45v-1.8a3.58 3.576-180 0 0-7.16 0v1.8H.45a.453.452-180 0 0-.448.456L0 115.75c0 .25.2.45.45.45H8.5a.453.452-180 0 0 .448-.456l.002-5.344a.455.454-180 0 0-.45-.457zm-4.03-3.59c.99 0 1.79.8 1.79 1.79v1.8H2.68v-1.8c0-.99.81-1.79 1.79-1.79" style="fill:#fff;stroke:none;stroke-width:9.65909004;stroke-linecap:butt"/></g></g></g></svg>