<svg xmlns="http://www.w3.org/2000/svg" xml:space="preserve" width="75.602" height="56.699" style="font-size:12px;overflow:visible;color-interpolation-filters:sRGB;fill-rule:evenodd;stroke-linecap:square;stroke-miterlimit:3" viewBox="0 0 56.701 42.524"><defs><linearGradient id="a" x1="1.507" x2="10.516" y1="98.482" y2="98.482" gradientTransform="scale(.9861 1.0141)" gradientUnits="userSpaceOnUse"><stop offset="0" stop-color="#5e9624"/><stop offset=".24" stop-color="#6fb02a"/><stop offset=".5" stop-color="#7cc52f"/><stop offset=".755" stop-color="#83d232"/><stop offset="1" stop-color="#86d633"/></linearGradient></defs><g transform="translate(-33.994 -33.993)"><title>Page-1</title><g transform="translate(34 -34.016)"><title>Virtual Subnet.18746</title><title>g12</title><g transform="translate(22.22 -15.04)"><title>path2</title><path d="M5.93 99.87c-3.96 0-5.93 4.92-3.13 7.79 2.8 2.88 7.58.83 7.57-3.23 0-2.52-1.99-4.56-4.44-4.56" style="fill:url(#a);stroke:none;stroke-width:34;stroke-linecap:butt"/></g><g transform="translate(.015)"><title>path4</title><path d="m23.67 107.57-2.55 2.62a1.15 1.182 0 0 1-1.62 0L.67 90.9a2.3 2.364 0 0 1 0-3.35l2.55-2.62 20.44 20.96a1.15 1.182 0 0 1 0 1.68z" style="fill:#50e6ff;stroke:none;stroke-width:34;stroke-linecap:butt"/></g><g transform="translate(0 -17.074)"><title>path6</title><path d="m20.76 85.5 2.57 2.63a1.15 1.182 0 0 1 0 1.68l-20.1 20.73-2.56-2.62a2.3 2.364 0 0 1 0-3.35l18.48-19.05a1.15 1.182 0 0 1 1.62 0z" style="fill:#1490df;stroke:none;stroke-width:34;stroke-linecap:butt"/></g><g transform="translate(32.655 -.065)"><title>path8</title><path d="m20.79 84.93 2.54 2.62a2.3 2.364 0 0 1 0 3.34l-18.82 19.3a1.15 1.182 0 0 1-1.63 0l-2.54-2.62a1.15 1.182 0 0 1 0-1.68z" style="fill:#50e6ff;stroke:none;stroke-width:34;stroke-linecap:butt"/></g><g transform="translate(33.023 -17.143)"><title>path10</title><path d="m22.98 107.92-2.54 2.62L.34 89.81a1.15 1.182 0 0 1 0-1.67L2.9 85.5a1.15 1.182 0 0 1 1.63 0L23 104.55a2.3 2.364 0 0 1-.01 3.35z" style="fill:#1490df;stroke:none;stroke-width:34;stroke-linecap:butt"/></g></g></g></svg>