<svg xmlns="http://www.w3.org/2000/svg" xml:space="preserve" width="56.687" height="75.588" style="font-size:12px;overflow:visible;color-interpolation-filters:sRGB;fill-rule:evenodd;stroke-linecap:square;stroke-miterlimit:3" viewBox="0 0 42.515 56.691"><defs><linearGradient id="a" x1="0" x2="49.062" y1="58.865" y2="58.865" gradientTransform="scale(.86543 1.1555)" gradientUnits="userSpaceOnUse"><stop offset=".22" stop-color="#32d4f5"/><stop offset=".47" stop-color="#31d1f3"/><stop offset=".63" stop-color="#2ec9eb"/><stop offset=".77" stop-color="#29bade"/><stop offset=".89" stop-color="#22a5cb"/><stop offset="1" stop-color="#198ab3"/><stop offset="1" stop-color="#198ab3"/></linearGradient></defs><g transform="translate(-34 -34.003)"><title>Page-1</title><g transform="translate(34 -34.016)"><title>Virtual Network Gateway.18770</title><title>Icon-networking-63</title><title>Sheet.18772</title><path d="M40.26 95.25h-3.13v-9.68a18.218 18.249-180 0 0-4.68-12.31 15.02 15.045-180 0 0-11.47-5.24 15.02 15.045-180 0 0-11.6 5.24A17.967 17.997-180 0 0 4.7 85.57v9.68H2.16A2.195 2.199-180 0 0 0 97.42v25.12a2.195 2.199-180 0 0 2.16 2.17h38.1a2.226 2.23-180 0 0 2.2-2.17V97.42a2.226 2.23-180 0 0-2.2-2.17m-10.57 0H12.26v-9.83a9.971 9.988 0 0 1 2.73-6.76 7.87 7.884 0 0 1 5.89-2.7 7.965 7.978 0 0 1 5.93 2.7 10.003 10.02 0 0 1 1 1.36 9.407 9.423 0 0 1 1.92 5.37z" style="fill:url(#a);stroke:none;stroke-width:34;stroke-linecap:butt"/><g transform="translate(.815 -.66)"><title>Sheet.18773</title><path d="M39.54 95.91H1.38a2.07 2.073-180 0 0-1.38.53l40.92 28.27a2.1 2.104-180 0 0 .78-1.63V97.95a2.226 2.23-180 0 0-2.16-2.04" style="fill:#50e6ff;stroke:none;stroke-width:34;stroke-linecap:butt"/></g><g transform="translate(.063 -.66)"><title>Sheet.18774</title><path d="M2.19 95.91h38.13a2.195 2.199 0 0 1 1.42.53L.78 124.71a2.195 2.199 0 0 1-.78-1.63V97.95a2.258 2.261 0 0 1 2.19-2.04" style="fill:#fff;fill-opacity:.2;stroke:none;stroke-width:34;stroke-linecap:butt"/></g><g transform="translate(5.393 -2.386)"><title>Sheet.18775</title><path d="m12.1 103.7 3.77-3.77a.22.22 0 0 1 .282 0l3.728 3.77a.188.188 0 0 1 0 .314l-2.19-.004a.19.19-180 0 0-.188.189l-.002 4.841a.19.19 0 0 1-.188.188l-2.482-.008a.157.157 0 0 1-.188-.188l-.002-4.832a.22.22-180 0 0-.22-.188l-2.19-.002a.188.188 0 0 1-.125-.314zm7.75 17.21-3.73 3.74a.188.188 0 0 1-.282 0l-3.738-3.74a.188.188 0 0 1 0-.314l2.2-.006a.22.22-180 0 0 .22-.189v-4.861a.19.19 0 0 1 .188-.188l2.322-.002a.19.19 0 0 1 .188.188l-.008 4.872a.19.19-180 0 0 .188.188l2.202-.008a.2.201 0 0 1 .25.314zm-14.74-4.87v-2.2a.19.19-180 0 0-.188-.188L.19 113.65a.19.19 0 0 1-.188-.188L0 111.23a.188.188 0 0 1 .188-.283l4.732.003a.19.19-180 0 0 .188-.188l.002-2.202a.22.22 0 0 1 .345-.157l3.735 3.777a.19.19 0 0 1 0 .251L5.46 116.2a.22.22 0 0 1-.345-.157zm21.73-7.48v2.2a.19.19-180 0 0 .188.188l4.832.002s.22 0 .22.19v2.32a.22.22 0 0 1-.22.188l-4.83.002a.19.19-180 0 0-.188.188l-.002 2.202a.188.188 0 0 1-.314.157L22.8 112.43v-.25l3.73-3.77s.31-.03.31.15" style="fill:#fff;stroke:none;stroke-width:34;stroke-linecap:butt"/></g></g></g></svg>