<svg xmlns="http://www.w3.org/2000/svg" xml:space="preserve" width="75.59" height="75.59" style="font-size:12px;overflow:visible;color-interpolation-filters:sRGB;fill-rule:evenodd;stroke-linecap:square;stroke-miterlimit:3" viewBox="0 0 56.693 56.693"><g transform="translate(-7.67 -7.67)"><title>Page-1</title><g transform="translate(7.67 -34.016)"><title>Admin Consent.14714</title><title>g8</title><title>circle4</title><circle cx="28.346" cy="70.033" r="28.346" style="fill:#015cda;stroke:none;stroke-width:7.67024994"/><g transform="translate(10.892 -8.872)"><title>path6</title><path d="M16.82 61.84h-.19c-3.97 0-7.64 1.4-10.62 3.6L0 59.43v15.83h15.82l-5.97-5.98a11.2 11.2 0 0 1 6.97-2.34c5.94 0 10.86 4.18 11.9 9.64h5.22a17.29 17.29-180 0 0-17.12-14.74m17.9 20.67H19.09l.08.04h-.08l5.78 5.79c-1.96 1.37-4.3 2.11-6.96 2.11-5.36 0-9.92-3.63-11.48-8.51H.95A17.32 17.32-180 0 0 17.9 95.55h.19c3.91 0 7.54-1.35 10.49-3.5l6.33 6.33V82.51Z" style="fill:#fff;stroke:none;stroke-width:7.67024994"/></g></g></g></svg>