<svg xmlns="http://www.w3.org/2000/svg" xmlns:xlink="http://www.w3.org/1999/xlink" xml:space="preserve" width="75.592" height="75.586" style="font-size:12px;overflow:visible;color-interpolation-filters:sRGB;fill-rule:evenodd;stroke-linecap:square;stroke-miterlimit:3" viewBox="0 0 56.694 56.69"><defs><linearGradient id="a" x1="0" x2="1" y1="0" y2="0" gradientTransform="rotate(-90 .5 .5)"><stop offset="0" stop-color="#76bc2d"/><stop offset=".6" stop-color="#81ce31"/><stop offset=".82" stop-color="#86d633"/></linearGradient><linearGradient xlink:href="#a" id="b" x1="0" x2="15.319" y1="110.947" y2="110.947" gradientTransform="scale(1.01248 .98767)" gradientUnits="userSpaceOnUse"/><linearGradient xlink:href="#a" id="c" x1="0" x2="15.319" y1="110.947" y2="110.947" gradientTransform="scale(1.01248 .98767)" gradientUnits="userSpaceOnUse"/><linearGradient xlink:href="#a" id="d" x1="0" x2="15.319" y1="110.947" y2="110.947" gradientTransform="scale(1.01248 .98767)" gradientUnits="userSpaceOnUse"/></defs><g transform="translate(-34 -34.004)"><title>Page-1</title><g transform="translate(34 -34.016)"><title>Authentication Context.14706</title><title>MsPortalFx.base.images-46</title><g transform="translate(5.39 -14.866)"><title>Sheet.14708</title><path d="M43.98 107.66H26.35a.946.923 0 0 1-.946-.923l.006-6.557h-4.74v6.56a.95.926 0 0 1-.946.923L1.9 107.66a1.896 1.849-180 0 0-1.9 1.85v8.51h4.73v-4.73a.95.926 0 0 1 .95-.923l14.99.003v12.34h4.74v-12.32h14.78a.946.923 0 0 1 .946.923l.004 4.817h4.75v-8.62a1.896 1.849-180 0 0-1.91-1.85" style="fill:#50e6ff;stroke:none;stroke-width:34;stroke-linecap:butt"/></g><g transform="translate(18.751 -38.17)"><title>Sheet.14709</title><path d="M0 123.03a1.718 1.676-180 0 0 1.72 1.68h15.56a1.718 1.676-180 0 0 1.71-1.68v-15.17a1.718 1.676-180 0 0-1.71-1.67H1.72A1.718 1.676-180 0 0 0 107.86Z" style="fill:#0078d4;stroke:none;stroke-width:34;stroke-linecap:butt"/></g><g transform="translate(22.398 -41.726)"><title>Sheet.14710</title><path d="M0 123.68a1.06 1.033-180 0 0 1.06 1.03h9.58a1.06 1.033-180 0 0 1.06-1.03v-9.35a1.06 1.033-180 0 0-1.06-1.03H1.06A1.06 1.033-180 0 0 0 114.33Z" style="fill:#fff;stroke:none;stroke-width:34;stroke-linecap:butt"/></g><g transform="translate(0 -6.397)"><title>Sheet.14711</title><path d="M0 123.34a1.405 1.37-180 0 0 1.4 1.37h12.7a1.405 1.37-180 0 0 1.41-1.37v-12.39a1.405 1.37-180 0 0-1.41-1.37H1.4a1.405 1.37-180 0 0-1.4 1.37Z" style="fill:url(#b);stroke:none;stroke-width:34;stroke-linecap:butt"/></g><g transform="translate(20.673)"><title>Sheet.14712</title><path d="M0 123.34a1.405 1.37-180 0 0 1.4 1.37h12.7a1.405 1.37-180 0 0 1.41-1.37v-12.39a1.405 1.37-180 0 0-1.41-1.37H1.4a1.405 1.37-180 0 0-1.4 1.37Z" style="fill:url(#c);stroke:none;stroke-width:34;stroke-linecap:butt"/></g><g transform="translate(41.184 -6.296)"><title>Sheet.14713</title><path d="M0 123.34a1.405 1.37-180 0 0 1.4 1.37h12.7a1.405 1.37-180 0 0 1.41-1.37v-12.39a1.405 1.37-180 0 0-1.41-1.37H1.4a1.405 1.37-180 0 0-1.4 1.37Z" style="fill:url(#d);stroke:none;stroke-width:34;stroke-linecap:butt"/></g></g></g></svg>