<svg xmlns="http://www.w3.org/2000/svg" xml:space="preserve" width="75.622" height="60.472" style="font-size:12px;overflow:visible;color-interpolation-filters:sRGB;fill-rule:evenodd;stroke-linecap:square;stroke-miterlimit:3" viewBox="0 0 56.716 45.354"><defs><linearGradient id="a" x1="-.014" x2="32.429" y1="114.74" y2="114.74" gradientTransform="scale(1.29825 .77026)" gradientUnits="userSpaceOnUse"><stop offset=".22" stop-color="#32d4f5"/><stop offset="1" stop-color="#198ab3"/></linearGradient><linearGradient id="b" x1="0" x2="23.351" y1="91.208" y2="91.208" gradientTransform="scale(1.01049 .98962)" gradientUnits="userSpaceOnUse"><stop offset=".22" stop-color="#32d4f5"/><stop offset="1" stop-color="#198ab3"/></linearGradient></defs><g transform="translate(-34 -34)"><title>Page-1</title><g transform="translate(34.018 -34.016)"><title>Azure AD Group.14627</title><title>Icon-identity-223</title><g transform="translate(28.535 -7.518)"><title>Sheet.14629</title><path d="M25.64 113.37a2.485 2.434-180 0 0 2.52-2.43.88.863-180 0 0-.063-.4c-.977-7.71-5.477-13.99-14.037-13.99-8.55 0-13.18 5.42-14.06 13.99a2.548 2.496-180 0 0 2.27 2.71h23.37z" style="fill:#0078d4;stroke:none;stroke-width:34;stroke-linecap:butt"/></g><g transform="translate(38.351 -12.787)"><title>Sheet.14630</title><path d="M4.28 103.76A7.677 7.518 0 0 1 0 102.52l4.25 10.85 4.18-10.75a7.991 7.826 0 0 1-4.15 1.14" style="fill:#fff;fill-opacity:.8;stroke:none;stroke-width:34;stroke-linecap:butt"/></g><g transform="translate(34.733 -22.4)"><title>Sheet.14631</title><ellipse cx="7.897" cy="105.636" rx="7.897" ry="7.734" style="fill:#0078d4;stroke:none;stroke-width:34;stroke-linecap:butt"/></g><title>Sheet.14632</title><path d="M38.35 113.37a3.744 3.667-180 0 0 3.74-3.67 2.076 2.034-180 0 0 0-.43c-1.47-11.52-8.17-20.89-20.95-20.89-12.77 0-19.76 7.95-21.14 20.8a3.775 3.697-180 0 0 3.37 4.04h34.92z" style="fill:url(#a);stroke:none;stroke-width:34;stroke-linecap:butt"/><g transform="translate(15.007 -7.919)"><title>Sheet.14633</title><path d="M6.29 99.04A11.704 11.462 0 0 1 0 97.19l6.29 16.18 6.29-16.05a11.987 11.74 0 0 1-6.29 1.72" style="fill:#fff;fill-opacity:.8;stroke:none;stroke-width:34;stroke-linecap:butt"/></g><g transform="translate(9.407 -22.246)"><title>Sheet.14634</title><ellipse cx="11.798" cy="101.816" rx="11.798" ry="11.554" style="fill:url(#b);stroke:none;stroke-width:34;stroke-linecap:butt"/></g></g></g></svg>