<svg xmlns="http://www.w3.org/2000/svg" xml:space="preserve" width="75.594" height="71.806" style="font-size:12px;overflow:visible;color-interpolation-filters:sRGB;fill-rule:evenodd;stroke-linecap:square;stroke-miterlimit:3" viewBox="0 0 56.696 53.855"><defs><linearGradient id="a" x1="0" x2="31.901" y1="57.99" y2="57.99" gradientTransform="scale(.7376 1.35576)" gradientUnits="userSpaceOnUse"><stop offset="0" stop-color="#1988d9"/><stop offset=".9" stop-color="#54aef0"/></linearGradient></defs><g transform="translate(-34 -34)"><title>Page-1</title><g transform="translate(34 -34.016)"><title>Azure AD B2C.14657</title><title>Icon-identity-228</title><g transform="translate(0 -1.189)"><title>path4</title><path d="m3.18 99.38 24.95 16.48 25.38-16.54 3.18 3.76-28.56 18.79L0 103.11Z" style="fill:#50e6ff;stroke:none;stroke-width:34;stroke-linecap:butt"/></g><g transform="translate(5.07 -10.605)"><title>path6</title><path d="m0 106.67 23.06-28.05 23.52 28.09-23.52 15.16Z" style="fill:#fff;stroke:none;stroke-width:34;stroke-linecap:butt"/></g><g transform="translate(5.07 -10.605)"><title>path8</title><path d="M23.06 78.62v43.25L0 106.67Z" style="fill:#50e6ff;stroke:none;stroke-width:34;stroke-linecap:butt"/></g><g transform="translate(28.126 -10.605)"><title>path10</title><path d="M0 78.62v43.25l23.53-15.16z" style="fill:url(#a);stroke:none;stroke-width:34;stroke-linecap:butt"/></g><g transform="translate(28.126 -10.605)"><title>path12</title><path d="m0 100.95 23.53 5.76L0 121.87Z" style="fill:#53b1e0;stroke:none;stroke-width:34;stroke-linecap:butt"/></g><g transform="translate(5.07 -10.605)"><title>path14</title><path d="M23.06 121.87 0 106.67l23.06-5.72Z" style="fill:#9cebff;stroke:none;stroke-width:34;stroke-linecap:butt"/></g><g transform="translate(28.126 -1.189)"><title>path16</title><path d="m0 121.87 28.57-18.79-3.18-3.76L0 115.86Z" style="fill:#5ea0ef;stroke:none;stroke-width:34;stroke-linecap:butt"/></g><g transform="translate(25.197)"><title>path24</title><path d="M21.04 121.87a2.047 2.089-180 0 0 2.08-2.12v-.25c-.82-6.59-4.51-11.99-11.56-11.99-7.06 0-10.87 4.56-11.56 12.02a2.047 2.089-180 0 0 1.83 2.31h19.24z" style="fill:#a67af4;stroke:none;stroke-width:34;stroke-linecap:butt"/></g><g transform="translate(33.354 -4.435)"><title>path26</title><path d="M3.5 113.52a6.3 6.427 0 0 1-3.5-1.06l3.46 9.41 3.47-9.22a6.3 6.427 0 0 1-3.43.87" style="fill:#fff;fill-opacity:.8;stroke:none;stroke-width:34;stroke-linecap:butt"/></g><g transform="translate(30.33 -12.79)"><title>circle28</title><ellipse cx="6.488" cy="115.254" rx="6.488" ry="6.62" style="fill:#a67af4;stroke:none;stroke-width:34;stroke-linecap:butt"/></g></g></g></svg>