<svg xmlns="http://www.w3.org/2000/svg" xml:space="preserve" width="68.066" height="75.593" style="font-size:12px;overflow:visible;color-interpolation-filters:sRGB;fill-rule:evenodd;stroke-linecap:square;stroke-miterlimit:3" viewBox="0 0 51.05 56.695"><defs><linearGradient id="a" x1="-.021" x2="39.895" y1="119.581" y2="119.581" gradientTransform="scale(1.27894 .7819)" gradientUnits="userSpaceOnUse"><stop offset=".22" stop-color="#32d4f5"/><stop offset="1" stop-color="#198ab3"/></linearGradient><linearGradient id="b" x1="0" x2="28.72" y1="95.424" y2="95.424" gradientTransform="scale(.99547 1.00455)" gradientUnits="userSpaceOnUse"><stop offset=".22" stop-color="#32d4f5"/><stop offset="1" stop-color="#198ab3"/></linearGradient></defs><g transform="translate(-34 -34)"><title>Page-1</title><g transform="translate(34.026 -34.016)"><title>Azure AD User.14572</title><title>Icon-identity-230</title><title>Sheet.14574</title><path d="M46.47 124.71a4.526 4.567-180 0 0 4.53-4.57 1.467 1.48-180 0 0 0-.53c-1.81-14.4-9.89-26.11-25.5-26.11S1.59 103.42 0 119.64a4.557 4.598-180 0 0 4.09 5.07z" style="fill:url(#a);stroke:none;stroke-width:34;stroke-linecap:butt"/><g transform="translate(17.76 -9.89)"><title>Sheet.14575</title><path d="M7.74 106.79a14.326 14.457 0 0 1-7.74-2.3l7.74 20.22 7.62-20.1a14.139 14.268 0 0 1-7.62 2.18" style="fill:#fff;fill-opacity:.8;stroke:none;stroke-width:34;stroke-linecap:butt"/></g><g transform="translate(11.236 -27.843)"><title>Sheet.14576</title><ellipse cx="14.295" cy="110.283" rx="14.295" ry="14.425" style="fill:url(#b);stroke:none;stroke-width:34;stroke-linecap:butt"/></g></g></g></svg>