<svg xmlns="http://www.w3.org/2000/svg" xml:space="preserve" width="71.061" height="80.214" style="font-size:12px;overflow:visible;color-interpolation-filters:sRGB;fill-rule:evenodd;stroke-linecap:square;stroke-miterlimit:3" viewBox="0 0 53.296 60.161"><defs><linearGradient id="a" x1="0" x2="42.544" y1="46.009" y2="46.009" gradientTransform="scale(.9073 1.10216)" gradientUnits="userSpaceOnUse"><stop offset="0" stop-color="#773adc"/><stop offset=".4" stop-color="#8d58e7"/><stop offset="1" stop-color="#a67af4"/></linearGradient><linearGradient id="b" x1="0" x2="27.554" y1="116.147" y2="116.147" gradientTransform="scale(1.4218 .70333)" gradientUnits="userSpaceOnUse"><stop offset="0" stop-color="#fea11b"/><stop offset=".7" stop-color="#ffd70f"/></linearGradient></defs><g transform="translate(-6.894 -6.893)"><title>Page-1</title><g transform="translate(6.894 -34.016)"><title>Azure AD Privileged Identity Management.14599</title><title>g14</title><g transform="translate(0 -4.204)"><title>path2</title><path d="M37.04 50.71h-13.8v4.7a2.222 2.216 0 0 1-2.23 2.22h-3.35a2.222 2.216 0 0 1-2.22-2.22v-4.68H1.58A1.575 1.57-180 0 0 0 52.3v43.73a1.575 1.57-180 0 0 1.58 1.57h11.35v-3.97a1.602 1.597 0 0 1 1.59-1.59h2.14v-3.07a1.606 1.6 0 0 1 1.61-1.6h3.87a1.602 1.597 0 0 1 1.6 1.6v3.07h9.5a10.901 10.868 0 0 1 5.36-6.18V52.29a1.575 1.57-180 0 0-1.56-1.58" style="fill:url(#a);stroke:none;stroke-width:6.89427996"/></g><g transform="translate(10.415 -19.834)"><title>path4</title><path d="M17.77 95.85a9.527 9.497-180 0 0-6.21-8.57 4.92 4.906 0 0 1-5.34-.06A8.8 8.772-180 0 0 0 95.86a1.592 1.587-180 0 0 1.42 1.74 1.203 1.2-180 0 0 .16 0h14.61a1.582 1.577-180 0 0 1.59-1.57 1.824 1.818-180 0 0-.01-.18" style="fill:#fff;fill-opacity:.8;stroke:none;stroke-width:6.89427996"/></g><g transform="translate(16.717 -23.235)"><title>path6</title><path d="M2.68 91.43A4.951 4.936 0 0 1 0 90.64l2.68 6.96 2.66-6.91a4.978 4.963 0 0 1-2.66.74" style="fill:#fff;fill-opacity:.9;stroke:none;stroke-width:6.89427996"/></g><g transform="translate(14.374 -29.4)"><title>circle8</title><ellipse cx="4.988" cy="92.63" rx="4.988" ry="4.973" style="fill:#fff;fill-opacity:.8;stroke:none;stroke-width:6.89427996"/></g><g transform="translate(16.7 -45.451)"><title>rect10</title><path d="M0 96.66a.949.946-180 0 0 .949.946L4.32 97.6a.949.946-180 0 0 .949-.946l.001-9.344a.949.946-180 0 0-.949-.946L.95 86.36a.949.946-180 0 0-.949.946z" style="fill:#773adc;stroke:none;stroke-width:6.89427996"/></g><g transform="translate(14.119)"><title>path12</title><path d="M20.02 93.71a9.721 9.691-180 1 0 10.1-12c-.23 0-.45-.02-.67-.02a9.721 9.691-180 0 0-9.43 7.35H8.8a.389.388 0 0 1-.389-.388L8.41 84.77a.389.388-180 0 0-.389-.391l-3.871.001a.389.388-180 0 0-.389.391L3.76 88.65a.389.388 0 0 1-.392.388L.39 89.04a.389.388-180 0 0-.389.388L0 93.31a.389.388-180 0 0 .389.391zm9.43-7.41a5.595 5.577 0 0 1 .67.04 5.095 5.08 0 0 1-.67 10.12 4.978 4.963 0 0 1-.67-.05 5.092 5.076 0 0 1 .67-10.11" style="fill:url(#b);stroke:none;stroke-width:6.89427996"/></g></g></g></svg>