<svg xmlns="http://www.w3.org/2000/svg" xml:space="preserve" width="75.63" height="75.731" style="font-size:12px;overflow:visible;color-interpolation-filters:sRGB;fill-rule:evenodd;stroke-linecap:square;stroke-miterlimit:3" viewBox="0 0 56.723 56.798"><defs><linearGradient id="a" x1="0" x2="46.803" y1="46.336" y2="46.336" gradientTransform="scale(.84803 1.1792)" gradientUnits="userSpaceOnUse"><stop offset=".5" stop-color="#b796f9"/><stop offset=".9" stop-color="#a67af4"/></linearGradient><linearGradient id="b" x1="-.007" x2="15.372" y1="126.906" y2="126.906" gradientTransform="scale(1.29549 .7719)" gradientUnits="userSpaceOnUse"><stop offset="0" stop-color="#a67af4"/><stop offset=".24" stop-color="#9065db"/><stop offset=".75" stop-color="#653eab"/><stop offset="1" stop-color="#552f99"/></linearGradient><linearGradient id="c" x1="-.174" x2="10.93" y1="99.307" y2="99.307" gradientTransform="scale(1.00526 .99477)" gradientUnits="userSpaceOnUse"><stop offset="0" stop-color="#a67af4"/><stop offset=".24" stop-color="#9065db"/><stop offset=".75" stop-color="#653eab"/><stop offset="1" stop-color="#552f99"/></linearGradient><linearGradient id="d" x1="-.028" x2="28.56" y1="82.37" y2="82.37" gradientTransform="scale(1.0093 .99078)" gradientUnits="userSpaceOnUse"><stop offset="0" stop-color="#76bc2d"/><stop offset=".31" stop-color="#7ac22e"/><stop offset=".72" stop-color="#84d332"/><stop offset=".785" stop-color="#86d633"/></linearGradient></defs><g transform="translate(-19.125 -19.121)"><title>Page-1</title><g transform="translate(19.125 -34.016)"><title>Azure AD Verifiable Credential.14563</title><title>Sheet.14564</title><g transform="translate(0 -1.503)"><title>Sheet.14565</title><path d="M37.77 54.64H1.92c-1.06 0-1.92.86-1.92 1.9v51.39c0 1.05.86 1.9 1.92 1.9h35.85a1.92 1.9-180 0 0 1.92-1.9V56.54c0-1.04-.86-1.9-1.92-1.9" style="fill:url(#a);stroke:none;stroke-width:19.125;stroke-linecap:butt"/></g><g transform="translate(8.434 -11.322)"><title>Sheet.14566</title><path d="M1 109.83h20.82c.56 0 1-.44 1-.99v-2.04a1.004.994-180 0 0-1.004-.994L1 105.81a1.004.994-180 0 0-1.004.994L0 108.84c0 .55.45.99 1 .99m0-7.81h20.82c.56 0 1-.44 1-.99v-2.04a1.004.994-180 0 0-1.004-.994L1 98a1.004.994-180 0 0-1.004.994L0 101.03c0 .55.45.99 1 .99" style="fill:#773adc;stroke:none;stroke-width:19.125;stroke-linecap:butt"/></g><g transform="translate(9.89 -27.724)"><title>Sheet.14567</title><path d="M18.14 109.83a1.71 1.692-180 0 0 1.77-1.68 1.112 1.1-180 0 0 0-.2c-.7-5.52-3.87-9.99-9.91-9.99s-9.34 3.8-10 9.94a1.785 1.766-180 0 0 1.6 1.93z" style="fill:url(#b);stroke:none;stroke-width:19.125;stroke-linecap:butt"/></g><g transform="translate(17.007 -31.436)"><title>Sheet.14568</title><path d="M2.95 102.99a5.54 5.483 0 0 1-2.95-.88l2.95 7.72 2.99-7.67a5.677 5.618 0 0 1-2.99.83" style="fill:#f2f2f2;stroke:none;stroke-width:19.125;stroke-linecap:butt"/></g><g transform="translate(14.343 -38.282)"><title>Sheet.14569</title><path d="M5.58 109.83a5.58 5.523-180 0 0 0-11.04 5.58 5.523-180 1 0 0 11.04" style="fill:url(#c);stroke:none;stroke-width:19.125;stroke-linecap:butt"/></g><g transform="translate(27.897)"><title>Sheet.14570</title><path d="m15.83 82.03 1.64 1.05c.42.27.91.41 1.42.42h1.96a2.624 2.597 0 0 1 2.39 1.51l.82 1.77c.21.45.54.84.96 1.1l1.64 1.05a2.624 2.597 0 0 1 1.18 2.55l-.28 1.93c-.07.49 0 .99.21 1.44l.82 1.77a2.624 2.597 0 0 1-.41 2.78l-1.28 1.46a2.585 2.558-180 0 0-.61 1.33l-.28 1.93a2.624 2.597 0 0 1-1.86 2.12l-1.88.55c-.49.13-.92.41-1.25.78l-1.28 1.47a2.622 2.595 0 0 1-2.72.79l-1.88-.55a2.626 2.598-180 0 0-1.48 0l-1.88.55a2.624 2.597 0 0 1-2.72-.79l-1.29-1.47a2.606 2.579-180 0 0-1.24-.79l-1.89-.54a2.626 2.598 0 0 1-1.85-2.12l-.28-1.93a2.586 2.56-180 0 0-.62-1.33L.61 99.4a2.624 2.597 0 0 1-.4-2.78l.81-1.77c.21-.45.28-.95.21-1.44l-.28-1.93a2.626 2.598 0 0 1 1.18-2.55l1.64-1.05c.42-.26.76-.65.97-1.1l.82-1.77a2.624 2.597 0 0 1 2.38-1.51h1.97c.5 0 .99-.15 1.42-.42l1.64-1.05a2.624 2.597 0 0 1 2.86 0" style="fill:url(#d);stroke:none;stroke-width:19.125;stroke-linecap:butt"/></g><g transform="translate(32.147 -4.056)"><title>Sheet.14571</title><path d="M9.84 90.35a9.843 9.74-180 1 0 0 19.48 9.843 9.74-180 0 0 0-19.48" style="fill:#b4ec36;stroke:none;stroke-width:19.125;stroke-linecap:butt"/></g></g></g></svg>