<svg xmlns="http://www.w3.org/2000/svg" xml:space="preserve" width="75.949" height="75.596" style="font-size:12px;overflow:visible;color-interpolation-filters:sRGB;fill-rule:evenodd;stroke-linecap:square;stroke-miterlimit:3" viewBox="0 0 56.962 56.697"><g transform="translate(-5.67 -5.668)"><title>Page-1</title><g transform="translate(5.67 -34.016)"><title>Azure-Active-Directory-Risky-Sign-in</title><title>g16</title><g transform="translate(0 -16.565)"><title>path10</title><path d="m28.52 81.52-9.49-8.92h7.55l12.79 11.89-12.59 11.89h-7.75l9.49-8.92H1.7c-.97 0-1.7-1.09-1.7-2.06v-2.46c0-.96.73-1.43 1.7-1.43z" style="fill:#57a300;stroke:none;stroke-width:.48942399;stroke-linecap:butt"/></g><g transform="translate(3.771 -.216)"><title>path12</title><path d="M1.53 54.93a4.703 4.665-180 0 0 6.65-.1l.11-.1a19.016 18.861 0 0 1 26.89.28l.24.24a18.92 18.767 0 0 1 5.29 14.45 4.84 4.8 0 0 1 2.15 1.93l.01.02.01.02 4.81 8.29a28.481 28.25-180 0 0-5.76-31.82 28.843 28.609-180 0 0-20.25-8.24 28.536 28.304-180 0 0-20.25 8.24c-.03.03-.07.06-.1.1a4.703 4.665-180 0 0 .1 6.59c.03.04.07.07.1.1m20.8 39.4a4.902 4.862 0 0 1 .68-2.35l2.98-5.28a18.957 18.803 0 0 1-17.81-5.26 5.199 5.156-180 0 0-.1-.09 4.703 4.665-180 0 0-6.65.09l-.1.1a4.703 4.665-180 0 0 .1 6.6 28.844 28.61-180 0 0 20.25 8.24c.36 0 .72-.01 1.08-.02a4.579 4.542 0 0 1-.43-2.03" style="fill:#0072c6;stroke:none;stroke-width:.48942399;stroke-linecap:butt"/></g><g transform="translate(28.718)"><title>path14</title><path d="m27.85 92.94-5.99-10-5.98-10.32a2.227 2.21-180 0 0-1.89-1.17 2.227 2.21-180 0 0-1.89 1.18l-5.99 9.68L.12 92.94a2.21 2.192-180 0 0 1.89 3.44h23.95a2.21 2.192-180 0 0 1.89-3.44M14.3 78.87h1.58l-.63 9.07h-2.52l-.32-9.07zm-.31 13.75a1.89 1.875 0 0 1-1.89-1.87 1.89 1.875 0 0 1 1.89-1.88 1.89 1.875 0 0 1 1.89 1.88 1.89 1.875 0 0 1-1.89 1.87" style="fill:#ff8c00;stroke:none;stroke-width:.48942399;stroke-linecap:butt"/></g></g></g></svg>