<svg xmlns="http://www.w3.org/2000/svg" xml:space="preserve" width="68.212" height="75.589" style="font-size:12px;overflow:visible;color-interpolation-filters:sRGB;fill-rule:evenodd;stroke-linecap:square;stroke-miterlimit:3" viewBox="0 0 51.159 56.692"><g transform="translate(-12.24 -12.242)"><title>Page-1</title><g transform="translate(10.889 -34.016)"><title>Azure AD Identity Secure Score.14607</title><title>Sheet.14608</title><g transform="translate(0 -28.346)"><title>Sheet.14609</title><path d="M47.26 80.51H6.6c-4.26 0-6.6 4.72-4.42 8.27 2.18 3.54 4.64 10.41 4.64 10.41.83 2.25 3.63 3.76 6.11 3.76h27.99c2.49 0 5.29-1.51 6.11-3.76 0 0 2.47-6.87 4.65-10.41 2.18-3.55-.16-8.27-4.42-8.27m1.43 6.4c-2.34 3.81-4.85 10.78-4.96 11.08-.31.84-1.2 1.42-2.22 1.42H12.35c-1.02 0-1.92-.58-2.23-1.44-.1-.28-2.61-7.25-4.95-11.06a1.933 1.95 0 0 1-.06-1.99c.22-.4.65-.87 1.49-.87h40.66c.84 0 1.27.47 1.49.87.13.23.51 1.07-.06 1.99" style="fill:#ff8c00;stroke:none;stroke-width:12.23999977;stroke-linecap:butt"/></g><g transform="translate(29.27 -28.346)"><title>Sheet.14610</title><path d="M17.99 80.51H0v3.54h17.99c.83 0 1.27.47 1.49.87.13.23.51 1.07-.06 1.99-2.35 3.81-4.86 10.78-4.96 11.08-.31.84-1.2 1.42-2.22 1.42H0v3.54h11.65c2.49 0 5.29-1.51 6.11-3.76 0 0 2.47-6.87 4.65-10.41 2.18-3.55-.16-8.27-4.42-8.27" style="fill:#dd5900;fill-opacity:.6;stroke:none;stroke-width:12.23999977;stroke-linecap:butt"/></g><g transform="translate(22.245 -10.63)"><title>Sheet.14611</title><path d="M0 89.956h9.366v12.992H0z" style="fill:#fcd116;stroke:none;stroke-width:12.23999977;stroke-linecap:butt"/></g><g transform="translate(26.928 -10.63)"><title>Sheet.14612</title><path d="M0 89.956h4.683v12.992H0z" style="fill:#dd5900;fill-opacity:.4;stroke:none;stroke-width:12.23999977;stroke-linecap:butt"/></g><g transform="translate(11.49)"><title>Sheet.14613</title><path d="m30.58 101.48-2.17-7.64c-.7-1.63-1.29-2.7-3.16-2.7H5.63c-1.87 0-2.47 1.07-3.16 2.7L.3 101.48c-.3.7.25 1.47 1.06 1.47h28.15c.81 0 1.37-.77 1.07-1.47" style="fill:#ff8c00;stroke:none;stroke-width:12.23999977;stroke-linecap:butt"/></g><g transform="translate(26.928)"><title>Sheet.14614</title><path d="m15.14 101.48-2.17-7.64c-.69-1.63-1.29-2.7-3.16-2.7H0v11.81h14.08c.8 0 1.36-.77 1.06-1.47" style="fill:#dd5900;fill-opacity:.6;stroke:none;stroke-width:12.23999977;stroke-linecap:butt"/></g><g transform="translate(22.245 -18.898)"><title>Sheet.14615</title><path d="M0 101.64c1.43.83 3.02 1.31 4.68 1.31 1.67 0 3.26-.48 4.69-1.3v-3.43H0Z" style="fill:#dd5900;fill-opacity:.4;stroke:none;stroke-width:12.23999977;stroke-linecap:butt"/></g><g transform="translate(10.242 -21.26)"><title>Sheet.14616</title><path d="M31.27 67.52H2.02C0 67.52.11 69.86.58 70.4c.48.54 3.91 4.88 3.91 20.41 0 6.66 5.63 12.14 12.15 12.14 6.59 0 12.16-5.49 12.16-12.14 0-15.53 3.3-19.8 3.9-20.41.6-.6.71-2.88-1.43-2.88" style="fill:#fcd116;stroke:none;stroke-width:12.23999977;stroke-linecap:butt"/></g><g transform="translate(26.928 -21.262)"><title>Sheet.14617</title><path d="M0 102.95c6.56-.03 12.11-5.5 12.11-12.14 0-15.53 3.31-19.8 3.91-20.4.59-.61.71-2.89-1.44-2.89H0Z" style="fill:#dd5900;fill-opacity:.3;stroke:none;stroke-width:12.23999977;stroke-linecap:butt"/></g></g></g></svg>