<svg xmlns="http://www.w3.org/2000/svg" xml:space="preserve" width="61.531" height="75.592" style="font-size:12px;overflow:visible;color-interpolation-filters:sRGB;fill-rule:evenodd;stroke-linecap:square;stroke-miterlimit:3" viewBox="0 0 46.148 56.694"><g transform="translate(-4.536 -5.67)"><title>Page-1</title><g transform="translate(4.535 -34.016)"><title>Azure Token.14543</title><g transform="translate(17.592 -12.043)"><title>Sheet.14544</title><path d="M17.6 62.92v22.27L0 96.38v-22.3z" style="fill:#773adc;stroke:none;stroke-width:.75;stroke-linecap:butt"/></g><g transform="translate(.03 -34.314)"><title>Sheet.14545</title><path d="M35.16 85.19 17.57 96.38 0 85.19 17.57 74Z" style="fill:#b796f9;stroke:none;stroke-width:.75;stroke-linecap:butt"/></g><g transform="translate(0 -12.043)"><title>Sheet.14546</title><path d="M17.59 74.11v22.27L0 85.19V62.92l17.6 11.19z" style="fill:#a67af4;stroke:none;stroke-width:.75;stroke-linecap:butt"/></g><g transform="translate(11.99 -5.334)"><title>Sheet.14547</title><path d="M18.47 86.44c0 .1-.02.21-.04.32s-.04.17-.06.25l-.08.31c-.02.1-.05.15-.09.24l-.14.32a4.199 4.566 0 0 1-.23.42l-.05.07a4.483 4.875 0 0 1-.29.41l-.06.08-.39.41a3.016 3.28 0 0 1-.29.26l-.26.22-.34.24-.35.25a9.727 10.578 0 0 1-.88.48l-.29.12-.73.3-.29.09-.48.15-.36.11-.52.12-.35.07-1.05.16c-.11 0-.22.02-.33.04l-.62.04H8.63l-.47-.02-.87-.11-.41-.06-.49-.1-.38-.09-.59-.15-.31-.09-1-.37-.47-.21-.23-.12-.68-.38A4.632 5.038 0 0 1 0 86.08v4.48a4.632 5.038-180 0 0 2.73 4.14l.68.38c.07.04.16.08.24.12l.41.19.05.02 1.07.39c.08.03.16.05.24.07l.58.15.15.04.24.05.49.09.19.03c.08 0 .15.02.22.04l.46.05c.08 0 .15.02.22.03h.21l.47.03h1.33c.21-.01.42-.03.63-.05h.33l1.05-.16h.05l.29-.06.52-.12.36-.11.48-.15.1-.03c.06-.02.11-.04.16-.06l.73-.3.3-.12.88-.48.11-.08c.09-.05.16-.11.24-.17l.33-.24.26-.22.29-.26.06-.05q.18-.18.33-.36l.06-.08.18-.22a1.991 2.165-180 0 0 .12-.19l.05-.06.2-.36.03-.07a3.16 3.436-180 0 0 .14-.32l.08-.18.01-.07a2.957 3.216-180 0 0 .08-.3l.05-.2v-.06a3.192 3.47-180 0 0 .04-.31c.01-.11.02-.14.02-.21v-4.61l-.04.32z" style="fill:#32bedd;stroke:none;stroke-width:.75;stroke-linecap:butt"/></g><g transform="translate(11.071 -9.786)"><title>Sheet.14548</title><path d="M16.68 86.43c3.62 2.28 3.64 5.97.04 8.24a14.42 15.683 0 0 1-13.08 0C.01 92.39 0 88.7 3.6 86.43a14.406 15.667 0 0 1 13.08 0" style="fill:#50e6ff;stroke:none;stroke-width:.75;stroke-linecap:butt"/></g><g transform="translate(26.81)"><title>Sheet.14549</title><path d="M18.51 86.44c0 .1-.02.21-.03.32-.02.1-.04.17-.06.25l-.08.3c-.03.1-.06.16-.1.25l-.13.32c-.05.1-.15.31-.23.42l-.05.07-.29.41-.06.08-.39.41a4.275 4.649 0 0 1-.29.26l-.26.22c-.09.07-.22.16-.33.24l-.35.24a9.013 9.801 0 0 1-.88.48l-.3.13-.72.3-.27.1-.47.14-.37.11-.51.12-.35.07-1.05.16-.33.04-.63.04H8.65c-.16 0-.31 0-.47-.03-.15-.03-.29-.02-.43-.04l-.46-.06-.41-.06-.49-.1-.38-.08-.59-.15-.31-.1-1-.36-.47-.22-.23-.11-.68-.38A4.63 5.034 0 0 1 0 86.09v4.47a4.632 5.038-180 0 0 2.73 4.14l.68.38.23.11.42.2.05.02c.32.14.65.26 1 .36l.08.03.23.07.59.16c.05 0 .1.03.15.04l.23.04.49.1c.07 0 .13.03.2.03l.22.03.46.06.22.02h.2c.16 0 .31.02.47.03h1.33c.21 0 .42-.03.63-.05.08 0 .17 0 .25-.02h.08l1.05-.15h.05l.3-.08.51-.11.36-.11.48-.15.1-.03.16-.06.73-.31.29-.12a9.727 10.578-180 0 0 .88-.48l.12-.07c.08-.05.15-.12.23-.17l.33-.24.26-.23.3-.25.05-.06a4.486 4.878-180 0 0 .34-.36l.06-.08.17-.22.13-.19.04-.06.21-.32.03-.08c.05-.1.09-.2.14-.31l.08-.19v-.06c.02-.1.05-.2.07-.3l.06-.21v-.05c.02-.11.03-.21.03-.32.01-.11.02-.14.02-.21v-4.54c.02.08.01.18 0 .28z" style="fill:#32bedd;stroke:none;stroke-width:.75;stroke-linecap:butt"/></g><g transform="translate(25.899 -4.435)"><title>Sheet.14550</title><path d="M16.68 86.43a4.003 4.353 0 0 1 .04 8.24 14.409 15.67 0 0 1-13.08 0C.02 92.39 0 88.7 3.6 86.43a14.412 15.673 0 0 1 13.08 0" style="fill:#50e6ff;stroke:none;stroke-width:.75;stroke-linecap:butt"/></g><g transform="translate(26.765 -9.753)"><title>Sheet.14551</title><path d="M18.57 86.15c0 .09-.01.19-.02.29l-.03.32c-.02.1-.04.17-.06.25l-.08.3c-.03.1-.06.16-.09.25l-.14.32c-.05.1-.14.31-.23.42l-.04.07-.3.41-.06.08a6.032 6.56 0 0 1-.38.41 4.275 4.649 0 0 1-.3.26l-.26.22-.33.24-.35.25a9.343 10.161 0 0 1-.88.48l-.29.12-.74.3-.29.1-.48.15-.36.1-.51.12-.35.08-1.06.16-.33.03-.62.04H8.66c-.16 0-.32 0-.47-.03-.16-.03-.29-.02-.43-.04l-.46-.05-.41-.07-.49-.09-.38-.09-.59-.16-.31-.09c-.34-.11-.68-.23-1-.36l-.47-.22-.24-.11-.68-.38A4.635 5.04 0 0 1 0 86.09v4.47a4.635 5.04-180 0 0 2.73 4.14l.68.39.24.11.41.19.05.02 1 .37.08.03.23.06.59.15c.05 0 .1.04.15.05l.23.04.49.1c.07 0 .13.03.2.03l.22.03.46.06.22.02h.2c.16 0 .31.02.47.03h1.33c.21 0 .42-.03.63-.05.08 0 .17 0 .25-.02h.08l1.05-.15h.05l.3-.08.51-.11.36-.11.48-.15.1-.03c.06-.02.11-.05.16-.06l.73-.3.3-.13a9.37 10.19-180 0 0 .88-.48l.11-.07.24-.18.33-.23.26-.23.29-.25.06-.06a5.124 5.572-180 0 0 .34-.36l.05-.08.18-.23.13-.18.04-.06a3.455 3.757-180 0 0 .2-.35l.04-.08c.05-.1.09-.21.13-.32l.08-.18v-.06a3.016 3.28-180 0 0 .08-.31l.06-.2v-.05c.02-.11.02-.21.03-.32 0-.1.02-.14.02-.2v-.09z" style="fill:#32bedd;stroke:none;stroke-width:.75;stroke-linecap:butt"/></g><g transform="rotate(-89.838 15.731 65.931)"><title>Sheet.14552</title><ellipse cx="5.358" cy="86.319" rx="5.358" ry="10.059" style="fill:#50e6ff;stroke:none;stroke-width:.75;stroke-linecap:butt"/></g></g></g></svg>