<svg xmlns="http://www.w3.org/2000/svg" xml:space="preserve" width="75.591" height="71.809" style="font-size:12px;overflow:visible;color-interpolation-filters:sRGB;fill-rule:evenodd;stroke-linecap:square;stroke-miterlimit:3" viewBox="0 0 56.693 53.857"><defs><linearGradient id="a" x1="0" x2="31.863" y1="57.983" y2="57.983" gradientTransform="scale(.73722 1.35644)" gradientUnits="userSpaceOnUse"><stop offset="0" stop-color="#1988d9"/><stop offset=".9" stop-color="#54aef0"/></linearGradient><linearGradient id="b" x1="0" x2="25.36" y1="111.696" y2="111.696" gradientTransform="scale(1.1246 .8892)" gradientUnits="userSpaceOnUse"><stop offset=".1" stop-color="#54aef0"/><stop offset=".29" stop-color="#4fabee"/><stop offset=".51" stop-color="#41a2e9"/><stop offset=".74" stop-color="#2a93e0"/><stop offset=".88" stop-color="#1988d9"/></linearGradient></defs><g transform="translate(-34 -33.998)"><title>Page-1</title><g transform="translate(34 -34.016)"><title>Azure AD Connect Health.14646</title><title>Icon-identity-224</title><g transform="translate(0 -1.221)"><title>Sheet.14648</title><path d="m3.21 99.38 24.87 16.52 25.34-16.58 3.18 3.79-28.52 18.76L0 103.11Z" style="fill:#50e6ff;stroke:none;stroke-width:34;stroke-linecap:butt"/></g><g transform="translate(5.062 -10.637)"><title>Sheet.14649</title><path d="m0 106.67 23.02-28.02 23.49 28.06-23.49 15.16Z" style="fill:#fff;stroke:none;stroke-width:34;stroke-linecap:butt"/></g><g transform="translate(5.062 -10.637)"><title>Sheet.14650</title><path d="M23.02 78.65v43.22L0 106.67Z" style="fill:#50e6ff;stroke:none;stroke-width:34;stroke-linecap:butt"/></g><g transform="translate(28.08 -10.637)"><title>Sheet.14651</title><path d="M0 78.65v43.22l23.49-15.16z" style="fill:url(#a);stroke:none;stroke-width:34;stroke-linecap:butt"/></g><g transform="translate(28.08 -10.637)"><title>Sheet.14652</title><path d="m0 100.99 23.49 5.72L0 121.87Z" style="fill:#53b1e0;stroke:none;stroke-width:34;stroke-linecap:butt"/></g><g transform="translate(5.062 -10.637)"><title>Sheet.14653</title><path d="M23.02 121.87 0 106.67l23.02-5.68Z" style="fill:#9cebff;stroke:none;stroke-width:34;stroke-linecap:butt"/></g><g transform="translate(28.08 -1.221)"><title>Sheet.14654</title><path d="m0 121.87 28.52-18.76-3.18-3.79L0 115.9Z" style="fill:url(#b);stroke:none;stroke-width:34;stroke-linecap:butt"/></g><g transform="translate(28.394)"><title>Sheet.14655</title><path d="M14.21 121.87c13.77-10.09 14.09-15.84 14.09-17.64 0-2.57-.25-9.25-6.82-9.64a7.138 7.295-180 0 0-7.33 4.89 7.106 7.263-180 0 0-7.23-5.02c-6.57.48-6.92 7.2-6.92 9.77 0 1.8.41 7.55 14.06 17.55z" style="fill:#f04049"/><path d="M14.21 121.87c13.77-10.09 14.09-15.84 14.09-17.64 0-2.57-.25-9.25-6.82-9.64a7.138 7.295-180 0 0-7.33 4.89 7.106 7.263-180 0 0-7.23-5.02c-6.57.48-6.92 7.2-6.92 9.77 0 1.8.41 7.55 14.06 17.55" style="stroke:none;stroke-width:34;stroke-linecap:butt"/></g><g transform="translate(30.563 -6.702)"><title>Sheet.14656</title><path d="M26.13 109.91h-6.29a.535.546-180 0 0-.44.257l-1.98 3.433a.252.257 0 0 1-.44 0l-2.99-5.53a.503.514-180 0 0-.943 0l-2.637 8.36a.252.257 0 0 1-.472 0l-2.388-5.62a.503.514-180 0 0-.912 0l-3.148 5.84a.503.514 0 0 1-.472.29H0a22.42 22.912-180 0 0 1.51 2.09h2.61a.535.546-180 0 0 .44-.29l2.23-4.24 3.15 7.04a.503.514-180 0 0 .943 0l3.137-9.42 2.68 5.34a.503.514-180 0 0 .88 0l3.14-5.21a.535.546 0 0 1 .44-.257l4.97-.003Z" style="fill:#fff"/><path d="M26.13 109.91h-6.29a.535.546-180 0 0-.44.257l-1.98 3.433a.252.257 0 0 1-.44 0l-2.99-5.53a.503.514-180 0 0-.943 0l-2.637 8.36a.252.257 0 0 1-.472 0l-2.388-5.62a.503.514-180 0 0-.912 0l-3.148 5.84a.503.514 0 0 1-.472.29H0a22.42 22.912-180 0 0 1.51 2.09h2.61a.535.546-180 0 0 .44-.29l2.23-4.24 3.15 7.04a.503.514-180 0 0 .943 0l3.137-9.42 2.68 5.34a.503.514-180 0 0 .88 0l3.14-5.21a.535.546 0 0 1 .44-.257l4.97-.003" style="stroke:none;stroke-width:34;stroke-linecap:butt"/></g></g></g></svg>