<svg xmlns="http://www.w3.org/2000/svg" xml:space="preserve" width="60.932" height="74.939" style="font-size:12px;overflow:visible;color-interpolation-filters:sRGB;fill-rule:evenodd;stroke-linecap:square;stroke-miterlimit:3" viewBox="0 0 45.699 56.204"><defs><linearGradient id="a" x1="0" x2="39.441" y1="64.272" y2="64.272" gradientTransform="scale(.83491 1.19773)" gradientUnits="userSpaceOnUse"><stop offset=".5" stop-color="#b796f9"/><stop offset=".9" stop-color="#a67af4"/></linearGradient><linearGradient id="b" x1="-.006" x2="12.961" y1="145.414" y2="145.414" gradientTransform="scale(1.275 .78431)" gradientUnits="userSpaceOnUse"><stop offset="0" stop-color="#a67af4"/><stop offset=".24" stop-color="#9065db"/><stop offset=".75" stop-color="#653eab"/><stop offset="1" stop-color="#552f99"/></linearGradient><linearGradient id="c" x1="0" x2="9.361" y1="113.583" y2="113.583" gradientTransform="scale(.9897 1.01042)" gradientUnits="userSpaceOnUse"><stop offset="0" stop-color="#a67af4"/><stop offset=".24" stop-color="#9065db"/><stop offset=".75" stop-color="#653eab"/><stop offset="1" stop-color="#552f99"/></linearGradient></defs><g transform="translate(-34 -34)"><title>Page-1</title><g transform="translate(34 -34.016)"><title>Azure AD Verifiable Credentials.14553</title><title>Sheet.14554</title><g transform="rotate(90 34.142 102.157)"><title>Sheet.14555</title><path d="M0 122.6a1.594 1.628-180 0 0 1.59 1.62h43.09a1.594 1.628-180 0 0 1.6-1.62V92.23a1.594 1.628-180 0 0-1.6-1.63H1.59A1.594 1.628-180 0 0 0 92.23Z" style="fill:#59285f;stroke:none;stroke-width:34;stroke-linecap:butt"/></g><g transform="rotate(90 28.662 101.427)"><title>Sheet.14556</title><path d="M0 122.6a1.594 1.628-180 0 0 1.59 1.62h43.09a1.594 1.628-180 0 0 1.6-1.62V92.23a1.594 1.628-180 0 0-1.6-1.63H1.59A1.594 1.628-180 0 0 0 92.23Z" style="fill:#a33a85;stroke:none;stroke-width:34;stroke-linecap:butt"/></g><title>Sheet.14557</title><path d="M0 122.6a1.594 1.628-180 0 0 1.59 1.62h29.75a1.594 1.628-180 0 0 1.59-1.62v-44a1.594 1.628-180 0 0-1.59-1.62H1.59A1.594 1.628-180 0 0 0 78.6Z" style="fill:url(#a);stroke:none;stroke-width:34;stroke-linecap:butt"/><g transform="rotate(180 12.97 118.3)"><title>Sheet.14558</title><path d="M0 123.37a.833.85-180 0 0 .833.85H18.1a.833.85-180 0 0 .833-.85l.007-1.74a.833.85-180 0 0-.833-.85H.83a.833.85-180 0 0-.833.85z" style="fill:#773adc;stroke:none;stroke-width:34;stroke-linecap:butt"/></g><g transform="rotate(180 12.97 114.957)"><title>Sheet.14559</title><path d="M0 123.37a.833.85-180 0 0 .833.85H18.1a.833.85-180 0 0 .833-.85l.007-1.74a.833.85-180 0 0-.833-.85H.83a.833.85-180 0 0-.833.85z" style="fill:#773adc;stroke:none;stroke-width:34;stroke-linecap:butt"/></g><g transform="translate(8.21 -22.432)"><title>Sheet.14560</title><path d="M15.05 124.21a1.418 1.447-180 0 0 1.47-1.44.768.784-180 0 0 0-.177 8.376 8.551-180 0 0-8.22-8.543c-5.01 0-7.76 3.25-8.3 8.51a1.483 1.514-180 0 0 1.32 1.66h13.72z" style="fill:url(#b);stroke:none;stroke-width:34;stroke-linecap:butt"/></g><g transform="translate(14.099 -25.623)"><title>Sheet.14561</title><path d="M2.47 118.36A4.606 4.702 0 0 1 0 117.6l2.47 6.62 2.47-6.57a4.7 4.8 0 0 1-2.47.71" style="fill:#f2f2f2;stroke:none;stroke-width:34;stroke-linecap:butt"/></g><g transform="translate(11.9 -31.486)"><title>Sheet.14562</title><ellipse cx="4.632" cy="119.495" rx="4.632" ry="4.729" style="fill:url(#c);stroke:none;stroke-width:34;stroke-linecap:butt"/></g></g></g></svg>