<svg xmlns="http://www.w3.org/2000/svg" xml:space="preserve" width="75.595" height="68.036" style="font-size:12px;overflow:visible;color-interpolation-filters:sRGB;fill-rule:evenodd;stroke-linecap:square;stroke-miterlimit:3" viewBox="0 0 56.696 51.027"><defs><linearGradient id="a" x1="0" x2="31.399" y1="57.807" y2="57.807" gradientTransform="scale(.74938 1.33443)" gradientUnits="userSpaceOnUse"><stop offset="0" stop-color="#1988d9"/><stop offset=".9" stop-color="#54aef0"/></linearGradient><linearGradient id="b" x1="0" x2="24.997" y1="111.061" y2="111.061" gradientTransform="scale(1.14296 .87492)" gradientUnits="userSpaceOnUse"><stop offset=".1" stop-color="#54aef0"/><stop offset=".29" stop-color="#4fabee"/><stop offset=".51" stop-color="#41a2e9"/><stop offset=".74" stop-color="#2a93e0"/><stop offset=".88" stop-color="#1988d9"/></linearGradient></defs><g transform="translate(-34 -33.997)"><title>Page-1</title><g transform="translate(34 -34.016)"><title>Azure Active Directory.14697</title><title>Sheet.14698</title><title>Sheet.14699</title><path d="m3.18 97.23 24.95 16.02 25.38-16.08 3.18 3.68-28.56 18.19L0 100.85Z" style="fill:#50e6ff;stroke:none;stroke-width:34;stroke-linecap:butt"/><g transform="translate(5.07 -9.127)"><title>Sheet.14700</title><path d="m0 104.31 23.06-27.17 23.52 27.2-23.52 14.7z" style="fill:#fff;stroke:none;stroke-width:34;stroke-linecap:butt"/></g><g transform="translate(5.07 -9.127)"><title>Sheet.14701</title><path d="M23.06 77.14v41.9L0 104.31Z" style="fill:#50e6ff;stroke:none;stroke-width:34;stroke-linecap:butt"/></g><g transform="translate(28.126 -9.127)"><title>Sheet.14702</title><path d="M0 77.14v41.9l23.53-14.7z" style="fill:url(#a);stroke:none;stroke-width:34;stroke-linecap:butt"/></g><g transform="translate(28.126 -9.127)"><title>Sheet.14703</title><path d="m0 98.79 23.53 5.55L0 119.04Z" style="fill:#53b1e0;stroke:none;stroke-width:34;stroke-linecap:butt"/></g><g transform="translate(5.07 -9.127)"><title>Sheet.14704</title><path d="M23.06 119.04 0 104.31l23.06-5.52Z" style="fill:#9cebff;stroke:none;stroke-width:34;stroke-linecap:butt"/></g><g transform="translate(28.126)"><title>Sheet.14705</title><path d="m0 119.04 28.57-18.19-3.18-3.68L0 113.25Z" style="fill:url(#b);stroke:none;stroke-width:34;stroke-linecap:butt"/></g></g></g></svg>