<svg xmlns="http://www.w3.org/2000/svg" xmlns:xlink="http://www.w3.org/1999/xlink" xml:space="preserve" width="76.019" height="71.808" style="font-size:12px;overflow:visible;color-interpolation-filters:sRGB;fill-rule:evenodd;stroke-linecap:square;stroke-miterlimit:3" viewBox="0 0 57.014 53.856"><defs><linearGradient id="a" x1="0" x2="1" y1="0" y2="0" gradientTransform="rotate(90 .5 .5)"><stop offset=".1" stop-color="#54aef0"/><stop offset="1" stop-color="#1988d9"/></linearGradient><linearGradient xlink:href="#a" id="b" x1="-.014" x2="37.765" y1="117.61" y2="117.61" gradientTransform="scale(1.27505 .78428)" gradientUnits="userSpaceOnUse"/><linearGradient xlink:href="#a" id="c" x1="0" x2="27.198" y1="93.515" y2="93.515" gradientTransform="scale(.99048 1.00962)" gradientUnits="userSpaceOnUse"/></defs><g transform="translate(-34 -34)"><title>Page-1</title><g transform="translate(34.018 -34.016)"><title>Azure AD Risky user.14581</title><g transform="translate(0 -.01)"><title>Artboard 1</title><title>path4</title><path d="M43.87 121.87a4.244 4.326-180 0 0 4.27-4.28 2.551 2.6-180 0 0 0-.52c-1.66-13.84-9.33-24.83-23.75-24.83S1.63 101.68 0 117.1a4.309 4.392-180 0 0 3.83 4.77z" style="fill:url(#b);stroke:none;stroke-width:34;stroke-linecap:butt"/><g transform="translate(16.964 -9.372)"><title>path6</title><path d="M7.23 104.86A13.371 13.63 0 0 1 0 102.65l7.12 19.22 7.2-19.09a13.571 13.834 0 0 1-7.09 2.08" style="fill:#fff;fill-opacity:.8;stroke:none;stroke-width:34;stroke-linecap:butt"/></g><g transform="translate(10.721 -26.388)"><title>circle8</title><ellipse cx="13.47" cy="108.144" rx="13.47" ry="13.73" style="fill:url(#c);stroke:none;stroke-width:34;stroke-linecap:butt"/></g></g><g transform="translate(25.244)"><title>path7</title><path d="m31.31 118.27-6.73-10.47-6.73-10.79a2.504 2.313 0 0 0-2.13-1.23 2.505 2.314 0 0 0-2.12 1.23l-6.73 10.14-6.73 11.12a2.484 2.295 0 0 0 2.12 3.6h26.92a2.484 2.295 0 0 0 2.13-3.6m-15.23-14.72h1.77l-.71 9.49h-2.83l-.36-9.49zm-.36 14.39a2.125 1.963-180 0 1-2.12-1.96 2.125 1.963-180 0 1 2.12-1.96 2.125 1.963-180 0 1 2.13 1.96 2.125 1.963-180 0 1-2.13 1.96" style="fill:#ff8c00;stroke:none;stroke-width:6.36065006;stroke-linecap:butt"/></g><g transform="translate(38.775 -3.758)"><title>path877</title><ellipse cx="2.174" cy="119.658" rx="2.174" ry="2.216" style="fill:#fff"/></g><g transform="translate(39.197 -8.836)"><title>path881</title><path d="m0 112.39.35 9.48h2.84l.71-9.48z" style="fill:#fff;stroke:none;stroke-width:34;stroke-linecap:butt"/></g></g></g></svg>