<svg xmlns="http://www.w3.org/2000/svg" xmlns:xlink="http://www.w3.org/1999/xlink" xml:space="preserve" width="71.829" height="75.589" style="font-size:12px;overflow:visible;color-interpolation-filters:sRGB;fill-rule:evenodd;stroke-linecap:square;stroke-miterlimit:3" viewBox="0 0 53.872 56.692"><defs><linearGradient id="a" x1="0" x2="1" y1="0" y2="0" gradientTransform="rotate(90 .5 .5)"><stop offset=".1" stop-color="#54aef0"/><stop offset="1" stop-color="#1988d9"/></linearGradient><linearGradient id="d" x1="0" x2="23.657" y1="89.683" y2="89.683" gradientTransform="scale(.90883 1.10032)" gradientUnits="userSpaceOnUse"><stop offset="0" stop-color="#ffd70f"/><stop offset=".12" stop-color="#fc1"/><stop offset=".44" stop-color="#feb517"/><stop offset=".75" stop-color="#fea61a"/><stop offset="1" stop-color="#fea11b"/></linearGradient><linearGradient xlink:href="#a" id="b" x1="-.014" x2="36.959" y1="124.36" y2="124.36" gradientTransform="scale(1.29366 .773)" gradientUnits="userSpaceOnUse"/><linearGradient xlink:href="#a" id="c" x1="0" x2="26.608" y1="98.735" y2="98.735" gradientTransform="scale(1.00509 .99494)" gradientUnits="userSpaceOnUse"/></defs><g transform="translate(-34 -34)"><title>Page-1</title><g transform="translate(34.018 -34.016)"><title>Azure AD Identity Protection.14618</title><title>Artboard 1</title><g transform="translate(0 -4.779)"><title>Sheet.14620</title><path d="M43.55 124.71a4.214 4.171-180 0 0 4.25-4.14 2.533 2.507-180 0 0 0-.5c-1.66-13.33-9.27-23.94-23.58-23.94-14.32 0-22.6 9.11-24.22 23.98a4.278 4.234-180 0 0 3.81 4.6z" style="fill:url(#b);stroke:none;stroke-width:34;stroke-linecap:butt"/></g><g transform="translate(16.841 -13.815)"><title>Sheet.14621</title><path d="M7.17 108.3A13.274 13.14 0 0 1 0 106.17l7.07 18.54 7.14-18.41a13.473 13.337 0 0 1-7.04 2" style="fill:#fff;fill-opacity:.8;stroke:none;stroke-width:34;stroke-linecap:butt"/></g><g transform="translate(10.644 -30.22)"><title>Sheet.14622</title><ellipse cx="13.372" cy="111.472" rx="13.372" ry="13.237" style="fill:url(#c);stroke:none;stroke-width:34;stroke-linecap:butt"/></g><g transform="translate(30.284)"><title>Sheet.14623</title><path d="M23.57 109.55c0 7.69-8.93 14.43-11.37 15.1a1.506 1.49 0 0 1-.83 0C8.94 123.98 0 117.21 0 109.55v-9.24a.7.694 0 0 1 .61-.767.674.667 0 0 1 .165 0C8.03 99.29 6.47 96.21 11.65 96.21s3.63 3.08 10.88 3.34a.7.694 0 0 1 .778.6.674.667 0 0 1 0 .164z" style="fill:#dfa500;stroke:none;stroke-width:34;stroke-linecap:butt"/></g><g transform="translate(31.325 -1.058)"><title>Sheet.14624</title><path d="M10.62 111.63V98.68c4.92 0 3.36 2.69 10.1 2.95a.829.82 0 0 1 .775.77l.005 8.98Zm0 0H0c.52 6.67 8.55 11.79 10.36 12.82l.52.26z" style="fill:url(#d);stroke:none;stroke-width:34;stroke-linecap:butt"/></g><g transform="translate(31.325 -14.135)"><title>Sheet.14625</title><path d="M.52 114.81c6.73-.26 5.18-3.05 10.1-3.05v12.95H0v-9.27c0-.51.26-.63.52-.63" style="fill:#ffd400;stroke:none;stroke-width:34;stroke-linecap:butt"/></g><g transform="translate(41.941 -1.058)"><title>Sheet.14626</title><path d="M10.88 111.38 0 111.63l.26 13.08c1.81-1.29 9.84-6.67 10.62-13.33" style="fill:#ffd400;stroke:none;stroke-width:34;stroke-linecap:butt"/></g></g></g></svg>