<svg xmlns="http://www.w3.org/2000/svg" xml:space="preserve" width="75.595" height="71.805" style="font-size:12px;overflow:visible;color-interpolation-filters:sRGB;fill-rule:evenodd;stroke-linecap:square;stroke-miterlimit:3" viewBox="0 0 56.696 53.854"><defs><linearGradient id="a" x1="0" x2="31.905" y1="54.679" y2="54.679" gradientTransform="scale(.73751 1.35591)" gradientUnits="userSpaceOnUse"><stop offset="0" stop-color="#1988d9"/><stop offset=".9" stop-color="#54aef0"/></linearGradient></defs><g transform="translate(-29.527 -29.53)"><title>Page-1</title><g transform="translate(29.527 -34.016)"><title>Azure AD B2B.14669</title><title>layer1</title><g transform="translate(0 -1.175)"><title>path4</title><path d="m3.18 94.9 24.95 16.49 25.38-16.55 3.18 3.76-28.56 18.8L0 98.63Z" style="fill:#50e6ff;stroke:none;stroke-width:29.52709961;stroke-linecap:butt"/></g><g transform="translate(5.07 -10.593)"><title>path6</title><path d="m0 102.2 23.06-28.06 23.52 28.09-23.52 15.17Z" style="fill:#fff;stroke:none;stroke-width:29.52709961;stroke-linecap:butt"/></g><g transform="translate(5.07 -10.593)"><title>path8</title><path d="M23.06 74.14v43.26L0 102.2Z" style="fill:#50e6ff;stroke:none;stroke-width:29.52709961;stroke-linecap:butt"/></g><g transform="translate(28.126 -10.593)"><title>path10</title><path d="M0 74.14v43.26l23.53-15.17Z" style="fill:url(#a);stroke:none;stroke-width:29.52709961;stroke-linecap:butt"/></g><g transform="translate(28.126 -10.593)"><title>path12</title><path d="m0 96.48 23.53 5.75L0 117.4Z" style="fill:#53b1e0;stroke:none;stroke-width:29.52709961;stroke-linecap:butt"/></g><g transform="translate(5.07 -10.593)"><title>path14</title><path d="M23.06 117.4 0 102.2l23.06-5.72Z" style="fill:#9cebff;stroke:none;stroke-width:29.52709961;stroke-linecap:butt"/></g><g transform="translate(28.126 -1.175)"><title>path16</title><path d="m0 117.4 28.57-18.8-3.18-3.76L0 111.39Z" style="fill:#5ea0ef;stroke:none;stroke-width:29.52709961;stroke-linecap:butt"/></g><g transform="translate(41.461 -5.686)"><title>path18-6</title><path d="M12.35 117.25a1.373 1.213-90 0 0 1.22-1.38 7.803 6.894-90 0 0-6.76-7.8c-4.22 0-6.4 2.96-6.81 7.8a1.404 1.24-90 0 0 1.08 1.53h11.27z" style="fill:#773adc;stroke:none;stroke-width:27.2241993;stroke-linecap:butt"/></g><g transform="translate(46.204 -8.682)"><title>path20-8</title><path d="M2.07 112.06a4.213 3.723 90 0 1-2.07-.68l2.04 6.02 2.01-5.99a4.307 3.805 90 0 1-1.98.65" style="fill:#fff;fill-opacity:.8;stroke:none;stroke-width:27.2241993;stroke-linecap:butt"/></g><g transform="translate(44.467 -14.019)"><title>circle22-3</title><ellipse cx="3.805" cy="113.094" rx="3.805" ry="4.307" style="fill:#773adc;stroke:none;stroke-width:27.2241993;stroke-linecap:butt"/></g><g transform="translate(25.138)"><title>path24</title><path d="M21.04 117.4a2.047 2.09-180 0 0 2.08-2.12v-.26c-.82-6.59-4.51-11.99-11.56-11.99C4.5 103.03.69 107.6 0 115.05a2.047 2.09-180 0 0 1.83 2.32h19.24z" style="fill:#a67af4;stroke:none;stroke-width:29.52709961;stroke-linecap:butt"/></g><g transform="translate(33.295 -4.436)"><title>path26</title><path d="M3.5 109.04a6.3 6.429 0 0 1-3.5-1.06l3.46 9.42 3.47-9.22a6.3 6.429 0 0 1-3.43.86" style="fill:#fff;fill-opacity:.8;stroke:none;stroke-width:29.52709961;stroke-linecap:butt"/></g><g transform="translate(30.272 -12.793)"><title>circle28</title><ellipse cx="6.488" cy="110.78" rx="6.488" ry="6.622" style="fill:#a67af4;stroke:none;stroke-width:29.52709961;stroke-linecap:butt"/></g></g></g></svg>