<svg xmlns="http://www.w3.org/2000/svg" xml:space="preserve" width="75.586" height="60.59" style="font-size:12px;overflow:visible;color-interpolation-filters:sRGB;fill-rule:evenodd;stroke-linecap:square;stroke-miterlimit:3" viewBox="0 0 56.69 45.442"><defs><linearGradient id="a" x1="0" x2="46.017" y1="57.358" y2="57.358" gradientTransform="scale(1.23195 .81172)" gradientUnits="userSpaceOnUse"><stop offset=".09" stop-color="#5ea0ef"/><stop offset="1" stop-color="#0078d4"/></linearGradient></defs><g transform="translate(-5.67 -4.533)"><title>Page-1</title><g transform="translate(5.67 -34.016)"><title>Collection.14536</title><title>g14</title><g transform="translate(0 -8.01)"><title>path2</title><path d="M1.73 46.56H55a1.665 1.553 0 0 1 1.69 1.43v34.49A1.631 1.522 0 0 1 55 83.91H1.73A1.665 1.553 0 0 1 0 82.48V48.05a1.665 1.553 0 0 1 1.73-1.49" style="fill:url(#a);stroke:none;stroke-width:.75000101"/></g><g transform="translate(6.273 -30.434)"><title>path4</title><path d="M.3 73.75h9.55a.466.435 0 0 1 .466.435l.004 9.315a.433.404 0 0 1-.433.404L.47 83.91a.466.435 0 0 1-.466-.435L0 74.15a.466.435 0 0 1 .333-.404z" style="fill:#fff;stroke:none;stroke-width:.75000101"/></g><g transform="translate(6.273 -15.428)"><title>path8</title><path d="M.3 73.75h9.55a.466.435 0 0 1 .466.435l.004 9.315a.433.404 0 0 1-.433.404L.47 83.91a.466.435 0 0 1-.466-.435L0 74.15a.466.435 0 0 1 .333-.404Zm16.81-15.01h9.59a.466.435 0 0 1 .466.435L27.16 68.5a.433.404 0 0 1-.433.404L17.31 68.9a.466.435 0 0 1-.466-.435l-.004-9.325a.433.404 0 0 1 .3-.404z" style="fill:#fff;stroke:none;stroke-width:.75000101"/></g><g transform="translate(23.117 -15.428)"><title>path10</title><path d="M.27 73.75h9.58a.5.466 0 0 1 .466.435l.004 9.315a.433.404 0 0 1-.433.404L.47 83.91a.466.435 0 0 1-.466-.435L0 74.15a.433.404 0 0 1 .3-.404Zm17.64-15.01h9.59a.466.435 0 0 1 .466.435L27.96 68.5a.433.404 0 0 1-.433.404L18.08 68.9a.466.435 0 0 1-.466-.435l-.004-9.325a.433.404 0 0 1 .3-.404z" style="fill:#83b9f9;stroke:none;stroke-width:.75000101"/></g><g transform="translate(37.152)"><title>path6</title><path d="m.73 59.2 8.86 4.79 8.89 4.75a.533.497 0 0 1 0 .839l-5.93 3.111 4.23 6.77a2.93 2.734 0 0 1-1.07 3.7l-.86.46a2.896 2.703 0 0 1-3.96-.96l-4.23-6.84-5.89 3.11a.5.466 0 0 1-.766-.435L0 59.64a.533.497 0 0 1 .732-.435z" style="fill:#50e6ff;stroke:none;stroke-width:.75000101"/></g></g></g></svg>