<svg xmlns="http://www.w3.org/2000/svg" xml:space="preserve" width="56.693" height="75.59" style="font-size:12px;overflow:visible;color-interpolation-filters:sRGB;fill-rule:evenodd;stroke-linecap:square;stroke-miterlimit:3" viewBox="0 0 42.52 56.693"><g transform="translate(-5.4 -5.67)"><title>Page-1</title><g transform="translate(5.4 -34.016)"><title>Contact Profile.14491</title><title>Page-1</title><title>Sheet.14493</title><g transform="translate(5.409 -5.356)"><title>path2</title><title>Sheet.14495</title><path d="M0 45.041h37.111v51.336H0z" style="fill:#0078d4;stroke:none;stroke-width:4.49998999;stroke-linecap:butt"/></g><g transform="translate(6.787 -6.85)"><title>path2-3</title><title>Sheet.14497</title><path d="M0 48.11h34.412v48.269H0z" style="fill:#50e6ff;stroke:none;stroke-width:4.20164013;stroke-linecap:butt"/></g><g transform="translate(0 -.012)"><title>path4</title><title>Sheet.14499</title><path d="M0 45.228h37.111v51.15H0z" style="fill:#0078d4;stroke:none;stroke-width:4.49998999;stroke-linecap:butt"/></g><g transform="translate(1.465 -1.62)"><title>path4-7</title><title>Sheet.14501</title><path d="M0 48.329h34.012v48.049H0z" style="fill:#fff;stroke:none;stroke-width:4.17531013;stroke-linecap:butt"/></g><g transform="translate(.001)"><title>rect9672</title><title>Sheet.14503</title><path d="M0 84.566h11.83v11.812H0z" style="fill:#fff;stroke:none;stroke-width:.0937497;stroke-linecap:butt"/></g><g transform="translate(0 -.025)"><title>path10-1</title><title>Sheet.14505</title><path d="M11.83 84.57H0l11.83 11.81z" style="fill:#0078d4;stroke:none;stroke-width:5.39986992;stroke-linecap:butt"/></g><g transform="translate(2.797 -2.664)"><title>path10</title><title>Sheet.14507</title><path d="M7.87 88.42H0l7.87 7.96z" style="fill:#50e6ff;stroke:none;stroke-width:4.49998999;stroke-linecap:butt"/></g><g transform="translate(4.8 -43.714)"><title>rect10630</title><title>Sheet.14509</title><path d="M0 94.742h28.839v1.636H0z" style="fill:#0078d4;stroke:none;stroke-width:.100783;stroke-linecap:butt"/></g><g transform="translate(4.8 -40.299)"><title>rect10630-1</title><title>Sheet.14511</title><path d="M0 94.742h21.661v1.636H0z" style="fill:#0078d4;stroke:none;stroke-width:.0873431;stroke-linecap:butt"/></g><g transform="translate(15.615 -33.353)"><title>rect10630-6</title><title>Sheet.14513</title><path d="M0 94.742h17.81v1.636H0z" style="fill:#0078d4;stroke:none;stroke-width:.0829557;stroke-linecap:butt"/></g><g transform="translate(15.615 -29.899)"><title>rect10630-1-0</title><title>Sheet.14515</title><path d="M0 94.742h13.377v1.636H0z" style="fill:#0078d4;stroke:none;stroke-width:.0718935;stroke-linecap:butt"/></g><g transform="translate(11.832 -1.62)"><title>rect14672</title><title>Sheet.14517</title><path d="M0 95.052h23.633v1.326H0z" style="fill:#50e6ff;stroke:none;stroke-width:.0937497;stroke-linecap:butt"/></g><g transform="translate(5.802 -29.899)"><title>Sheet.14518</title><title>rect12325</title><title>Sheet.14520</title><path d="M0 91.298h5.152v5.08H0z" style="fill:#0078d4;stroke:none;stroke-width:.0937497;stroke-linecap:butt"/><g transform="translate(.98 -.94)"><title>rect13174</title><title>Sheet.14522</title><path d="M0 93.178h3.246v3.2H0z" style="fill:#50e6ff;stroke:none;stroke-width:.0937497;stroke-linecap:butt"/></g></g><g transform="translate(15.615 -21.494)"><title>rect10630-6.24</title><title>Sheet.14524</title><path d="M0 94.742h17.81v1.636H0z" style="fill:#0078d4;stroke:none;stroke-width:.0829557;stroke-linecap:butt"/></g><g transform="translate(15.615 -18.04)"><title>rect10630-1-0.25</title><title>Sheet.14526</title><path d="M0 94.742h13.377v1.636H0z" style="fill:#0078d4;stroke:none;stroke-width:.0718935;stroke-linecap:butt"/></g><g transform="translate(5.802 -18.04)"><title>Sheet.14527</title><title>rect12325</title><title>Sheet.14529</title><path d="M0 91.298h5.152v5.08H0z" style="fill:#0078d4;stroke:none;stroke-width:.0937497;stroke-linecap:butt"/><g transform="translate(.98 -.94)"><title>rect13174</title><title>Sheet.14531</title><path d="M0 93.178h3.246v3.2H0z" style="fill:#50e6ff;stroke:none;stroke-width:.0937497;stroke-linecap:butt"/></g></g><g transform="translate(15.615 -10.205)"><title>rect10630-6.29</title><title>Sheet.14533</title><path d="M0 94.742h17.81v1.636H0z" style="fill:#0078d4;stroke:none;stroke-width:.0829557;stroke-linecap:butt"/></g><g transform="translate(15.615 -6.751)"><title>rect10630-1-0.30</title><title>Sheet.14535</title><path d="M0 94.742h13.377v1.636H0z" style="fill:#0078d4;stroke:none;stroke-width:.0718935;stroke-linecap:butt"/></g></g></g></svg>