<svg xmlns="http://www.w3.org/2000/svg" xml:space="preserve" width="71.805" height="75.591" style="font-size:12px;overflow:visible;color-interpolation-filters:sRGB;fill-rule:evenodd;stroke-linecap:square;stroke-miterlimit:3" viewBox="0 0 53.854 56.693"><g transform="translate(-38.25 -38.247)"><title>Page-1</title><g transform="translate(38.25 -38.25)"><title>Cross-tenant Synchronisation.14477</title><title>Sheet.14478</title><g transform="translate(21.54 -8.056)"><title>Sheet.14479</title><path d="M4.58 101.68a4.583 4.536-180 0 0 0-9.07 4.582 4.535-180 0 0 0 9.07m.34 31.51a4.583 4.536-180 0 0 0-9.07 4.583 4.536-180 0 0 0 9.07" style="fill:#57a300;stroke:none;stroke-width:38.25;stroke-linecap:butt"/></g><g transform="translate(0 -10.321)"><title>Sheet.14480</title><path d="M14.89 133.19h-2.17A12.758 12.627 0 0 1 0 120.61v-10.99a13.296 13.16 0 0 1 12.6-12.59h3.44a2.062 2.04 0 0 1 0 4.08h-3.32a8.853 8.762-180 0 0-8.49 8.39v10.99a8.449 8.362-180 0 0 8.49 8.4h2.17a2.057 2.036 0 0 1 2.06 2.04 2.114 2.092 0 0 1-2.06 2.26" style="fill:#59b4d9;stroke:none;stroke-width:38.25;stroke-linecap:butt"/></g><g transform="translate(34.594 -10.318)"><title>Sheet.14481</title><path d="M6.53 133.19H2.06a2.063 2.042 0 1 1 0-4.08h4.47a8.449 8.362-180 0 0 8.48-8.39v-11a8.446 8.359-180 0 0-8.48-8.39H3.21a2.062 2.04 0 1 1 0-4.08h3.32a12.758 12.627 0 0 1 12.73 12.59v10.99a12.637 12.507 0 0 1-12.73 12.36" style="fill:#804998;stroke:none;stroke-width:38.25;stroke-linecap:butt"/></g><g transform="translate(16.361 -31.523)"><title>Sheet.14482</title><path d="M9.54 133.19a12.764 12.633 0 0 1-8.94-3.62 2.107 2.086 0 1 1 2.98-2.95 8.425 8.339-180 0 0 11.91-11.79 8.516 8.429-180 0 0-5.95-2.5 8.321 8.236-180 0 0-5.96 2.5 2.148 2.126 0 0 1-2.98 0 2.148 2.126 0 0 1 0-2.95 12.334 12.207 0 0 1 8.94-3.86 12.842 12.71 0 0 1 8.93 3.63 12.791 12.66 0 0 1 0 17.8 12.216 12.09 0 0 1-8.93 3.74" style="fill:#68217a;stroke:none;stroke-width:38.25;stroke-linecap:butt"/></g><g transform="translate(14.621)"><title>Sheet.14483</title><path d="M11.73 133.19a12.657 12.527 0 0 1-8.93-21.43 12.562 12.433 0 0 1 8.93-3.63 12.842 12.71 0 0 1 8.94 3.63 2.107 2.086 0 0 1-2.98 2.95 8.483 8.396-180 1 0 0 11.79 2.107 2.086 0 0 1 2.98 2.95 12.286 12.16 0 0 1-8.94 3.74" style="fill:#0072c6;stroke:none;stroke-width:38.25;stroke-linecap:butt"/></g></g></g></svg>