<svg xmlns="http://www.w3.org/2000/svg" xml:space="preserve" width="68.03" height="75.6" style="font-size:12px;overflow:visible;color-interpolation-filters:sRGB;fill-rule:evenodd;stroke-linecap:square;stroke-miterlimit:3" viewBox="0 0 51.022 56.7"><g transform="translate(-33.288 -33.284)"><title>Page-1</title><g transform="translate(33.288 -34.016)"><title>External Identitiy.14465</title><title> organizationalRelationships</title><g transform="translate(30.642 -12.555)"><title>Sheet.14467</title><path d="M20.38 121.63a2.292 2.341 0 0 1-2.31 2.37H2.31A2.292 2.341 0 0 1 0 121.63v-26.5a2.292 2.341 0 0 1 2.31-2.36h15.66a2.292 2.341 0 0 1 2.32 2.36v26.5z" style="fill:#59b4d9;stroke:none;stroke-width:33.2879982;stroke-linecap:butt"/></g><g transform="translate(34.347 -22.017)"><title>Sheet.14468</title><path d="M0 106.96h5.56v6.63H0Zm7.41 0h5.56v6.63H7.41ZM0 117.37h5.56V124H0Zm7.41 0h5.56V124H7.41Z" style="fill:#fff;stroke:none;stroke-width:33.2879982;stroke-linecap:butt"/></g><g transform="translate(0 -12.555)"><title>Sheet.14469</title><path d="M20.38 121.63a2.292 2.341 0 0 1-2.31 2.37H2.32A2.292 2.341 0 0 1 0 121.63v-26.5a2.292 2.341 0 0 1 2.32-2.36h15.65a2.292 2.341 0 0 1 2.32 2.36z" style="fill:#0072c6"/><path d="M20.38 121.63a2.292 2.341 0 0 1-2.31 2.37H2.32A2.292 2.341 0 0 1 0 121.63v-26.5a2.292 2.341 0 0 1 2.32-2.36h15.65a2.292 2.341 0 0 1 2.32 2.36" style="stroke:none;stroke-width:33.2879982;stroke-linecap:butt"/></g><g transform="translate(3.705 -22.017)"><title>Sheet.14470</title><path d="M0 106.96h5.56v6.63H0Zm7.41 0h5.56v6.63H7.41ZM0 117.37h5.56V124H0Zm7.41 0h5.56V124H7.41Z" style="fill:#59b4d9;stroke:none;stroke-width:33.2879982;stroke-linecap:butt"/></g><g transform="translate(14.068)"><title>Sheet.14471</title><path d="M11.91 124a11.49 11.735-180 0 0 11.41-10.62H19.9a8.018 8.19 0 0 1-7.93 7.18 7.707 7.872 0 0 1-6.19-3.14l3.77-4.09H0v10.37l3.44-3.74a10.99 11.225-180 0 0 8.47 4.04m-.5-53.26a7.699 7.863 0 0 1 6.18 3.15l-3.76 4.08h9.54V67.6l-3.44 3.74a11.01 11.245-180 0 0-8.47-4.04A11.487 11.733-180 0 0 .06 77.97h3.41a8.015 8.186 0 0 1 7.94-7.23" style="fill:#ff8c00;stroke:none;stroke-width:33.2879982;stroke-linecap:butt"/></g></g></g></svg>