<svg xmlns="http://www.w3.org/2000/svg" xml:space="preserve" width="75.586" height="52.906" style="font-size:12px;overflow:visible;color-interpolation-filters:sRGB;fill-rule:evenodd;stroke-linecap:square;stroke-miterlimit:3" viewBox="0 0 56.69 39.68"><defs><linearGradient id="a" x1="0" x2="12.338" y1="95.77" y2="95.77" gradientTransform="scale(1.00378 .99624)" gradientUnits="userSpaceOnUse"><stop offset="0" stop-color="#198ab3"/><stop offset=".16" stop-color="#1f9ac2"/><stop offset=".5" stop-color="#29bade"/><stop offset=".8" stop-color="#30cdef"/><stop offset="1" stop-color="#32d4f5"/></linearGradient></defs><g transform="translate(-34 -34.004)"><title>Page-1</title><g transform="translate(34 -34.016)"><title>Guest Assignment.14455</title><title>Sheet.14456</title><title>Sheet.14457</title><path d="M0 105.8a1.921 1.9-180 0 0 1.92 1.9h52.85a1.921 1.9-180 0 0 1.92-1.9V69.91a1.921 1.9-180 0 0-1.92-1.89H1.92A1.921 1.9-180 0 0 0 69.91Z" style="fill:#1490df;stroke:none;stroke-width:34;stroke-linecap:butt"/><g transform="translate(3.266 -3.686)"><title>Sheet.14458</title><path d="M0 106.75a.96.95-180 0 0 .96.95h48.16a.96.95-180 0 0 .96-.95V75.72a.96.95-180 0 0-.96-.95H.96a.96.95-180 0 0-.96.95z" style="fill:#fff;stroke:none;stroke-width:34;stroke-linecap:butt"/></g><g transform="translate(13.19 -13.92)"><title>Sheet.14459</title><ellipse cx="6.192" cy="101.555" rx="6.192" ry="6.146" style="fill:url(#a);stroke:none;stroke-width:34;stroke-linecap:butt"/></g><g transform="translate(33.698 -26.66)"><title>Sheet.14460</title><ellipse cx="3.027" cy="104.687" rx="3.027" ry="3.014" style="fill:#32bedd;stroke:none;stroke-width:34;stroke-linecap:butt"/></g><g transform="translate(33.698 -16.818)"><title>Sheet.14461</title><ellipse cx="3.027" cy="104.687" rx="3.027" ry="3.014" style="fill:#32bedd;stroke:none;stroke-width:34;stroke-linecap:butt"/></g><g transform="translate(33.698 -6.999)"><title>Sheet.14462</title><ellipse cx="3.027" cy="104.687" rx="3.027" ry="3.014" style="fill:#32bedd;stroke:none;stroke-width:34;stroke-linecap:butt"/></g><g transform="translate(26.79 -21.622)"><title>Sheet.14463</title><ellipse cx="3.027" cy="104.687" rx="3.027" ry="3.014" style="fill:#50e6ff;stroke:none;stroke-width:34;stroke-linecap:butt"/></g><g transform="translate(26.79 -11.778)"><title>Sheet.14464</title><ellipse cx="3.027" cy="104.687" rx="3.027" ry="3.014" style="fill:#50e6ff;stroke:none;stroke-width:34;stroke-linecap:butt"/></g></g></g></svg>