<svg xmlns="http://www.w3.org/2000/svg" xml:space="preserve" width="68.059" height="75.588" style="font-size:12px;overflow:visible;color-interpolation-filters:sRGB;fill-rule:evenodd;stroke-linecap:square;stroke-miterlimit:3" viewBox="0 0 51.045 56.691"><defs><linearGradient id="a" x1="-.019" x2="36.97" y1="117.276" y2="117.276" gradientTransform="scale(1.26675 .78942)" gradientUnits="userSpaceOnUse"><stop offset=".22" stop-color="#32d4f5"/><stop offset="1" stop-color="#198ab3"/></linearGradient><linearGradient id="b" x1="0" x2="26.611" y1="93.471" y2="93.471" gradientTransform="scale(.98605 1.01415)" gradientUnits="userSpaceOnUse"><stop offset=".22" stop-color="#32d4f5"/><stop offset="1" stop-color="#198ab3"/></linearGradient></defs><g transform="translate(-31.074 -31.074)"><title>Page-1</title><g transform="translate(31.098 -34.016)"><title>Identity and Access.14446</title><g transform="translate(0 -3.66)"><title>Icon-identity-230</title><title>path4</title><path d="M42.65 121.78a4.154 4.272-180 0 0 4.16-4.27 1.346 1.385-180 0 0 0-.5c-1.66-13.47-9.08-24.43-23.41-24.43-14.32 0-21.94 9.29-23.4 24.46a4.182 4.302-180 0 0 3.75 4.74z" style="fill:url(#a);stroke:none;stroke-width:31.0734005;stroke-linecap:butt"/><g transform="translate(16.3 -9.251)"><title>path6-1</title><path d="M7.1 105.02a13.149 13.523 0 0 1-7.1-2.15l7.1 18.91 6.99-18.8a12.977 13.347 0 0 1-6.99 2.04" style="fill:#fff;fill-opacity:.8;stroke:none;stroke-width:31.0734005;stroke-linecap:butt"/></g><g transform="translate(10.313 -26.045)"><title>circle8</title><ellipse cx="13.12" cy="108.288" rx="13.12" ry="13.494" style="fill:url(#b);stroke:none;stroke-width:31.0734005;stroke-linecap:butt"/></g></g><g transform="translate(30.74)"><title> Dashboard_Identityaccess-pathf</title><title>path8</title><path d="M19.24 101.26a3.986 3.986 0 0 0 0-5.37v.01l-6.49-6.68c-.68-.66-1.6-1.07-2.61-1.07s-1.93.41-2.61 1.07L1.04 95.9C.4 96.59 0 97.54 0 98.58s.4 1.98 1.05 2.68h-.01l5.6 5.75v11.24l3.44 3.53 2.93-3.02 1.79-1.83-1.86-1.82 1.79-1.83-1.66-1.69 1.84-1.89-1.78-1.83v-.51zm-9.03-10.47a2.159 2.22 0 1 1-2.16 2.3v-.02c0-1.24.96-2.24 2.15-2.28z" style="fill:#fbd118;stroke:none;stroke-width:19.91049957;stroke-linecap:butt"/><g transform="translate(8.298 -2.749)"><title>path10</title><path d="m0 120.48 1.4 1.3v-10.72l-1.4-.65Z" style="fill:#f78c1e;fill-opacity:.4;stroke:none;stroke-width:19.91049957;stroke-linecap:butt"/></g><g transform="translate(3.85 -19.754)"><title>path12</title><path d="M0 117.09h12.2v1.82H0Zm0 2.86h12.2v1.83H0Z" style="fill:#fff;fill-opacity:.5;stroke:none;stroke-width:19.91049957;stroke-linecap:butt"/></g></g></g></g></svg>