<svg xmlns="http://www.w3.org/2000/svg" xml:space="preserve" width="76.291" height="76.268" style="font-size:12px;overflow:visible;color-interpolation-filters:sRGB;fill-rule:evenodd;stroke-linecap:square;stroke-miterlimit:3" viewBox="0 0 57.218 57.202"><defs><linearGradient id="a" x1="-.012" x2="22.587" y1="143.629" y2="143.629" gradientTransform="scale(1.287 .777)" gradientUnits="userSpaceOnUse"><stop offset="0" stop-color="#a67af4"/><stop offset="1" stop-color="#552f99"/></linearGradient><linearGradient id="b" x1="0" x2="16.249" y1="113.224" y2="113.224" gradientTransform="scale(1.0024 .9976)" gradientUnits="userSpaceOnUse"><stop offset="0" stop-color="#a67af4"/><stop offset="1" stop-color="#552f99"/></linearGradient></defs><g transform="translate(-35.983 -35.982)"><title>Page-1</title><g transform="translate(36.244 -36.237)"><title>Identity Governance.14433</title><title>path4</title><path d="M5 110.13a25.012 24.892 0 0 1 3.41-24.42 6.61 6.58 0 0 1-2.38-2.81 28.896 28.758-180 0 0-3.99 29.16A10.564 10.513 0 0 1 5 110.13m12.92-35.98a10.7 10.649 0 0 1 2.11 3.05 25.557 25.435 0 0 1 8.32-1.46 24.978 24.858 0 0 1 14.75 4.72 7.326 7.291 0 0 1 1.88-2.34l.4-.31a28.76 28.623-180 0 0-27.46-3.66m33.77 17.36a24.944 24.824 0 0 1-3.41 24.39 6.815 6.783 0 0 1 1.47 1.35 6.61 6.58 0 0 1 .92 1.46 28.896 28.758-180 0 0 3.98-29.17 10.666 10.615 0 0 1-2.96 1.97m-15.03 33.03a24.705 24.587 0 0 1-8.31 1.33 24.944 24.824 0 0 1-14.76-4.72 6.986 6.952 0 0 1-1.87 2.34l-.41.31a28.896 28.758-180 0 0 27.57 3.69 10.666 10.615 0 0 1-2.22-2.95" style="fill:#0078d4;stroke:none;stroke-width:35.97980118;stroke-linecap:butt"/><g transform="translate(5.107 -40.516)"><title>path6</title><path d="M10.22 117.14a7.122 7.088 0 1 1-10.22 0 7.122 7.088 0 0 1 10.22 0" style="fill:#32bedd;stroke:none;stroke-width:35.97980118;stroke-linecap:butt"/></g><g transform="translate(6.84 -44.04)"><title>path8</title><path d="M5.9 128.13a3.408 3.391-180 0 0 0-4.92 3.408 3.391-180 0 0-4.84 0 3.408 3.391-180 0 0 0 4.92 3.408 3.391-180 0 0 4.91 0z" style="fill:#fff"/><path d="M5.9 128.13a3.408 3.391-180 0 0 0-4.92 3.408 3.391-180 0 0-4.84 0 3.408 3.391-180 0 0 0 4.92 3.408 3.391-180 0 0 4.91 0" style="stroke:none;stroke-width:35.97980118;stroke-linecap:butt"/></g><g transform="translate(40.514 -42.366)"><title>path10</title><path d="M2.08 118.99a7.122 7.088 0 1 1 0 10.17 7.122 7.088 0 0 1 0-10z" style="fill:#32bedd;stroke:none;stroke-width:35.97980118;stroke-linecap:butt"/></g><g transform="translate(44.332 -45.079)"><title>path12</title><path d="M5.75 124.25a3.408 3.391-180 1 0 0 4.91 3.408 3.391-180 0 0 0-4.91" style="fill:#fff;stroke:none;stroke-width:35.97980118;stroke-linecap:butt"/></g><g transform="translate(41.364 -2.028)"><title>path14</title><path d="M0 127.01a7.122 7.088 0 1 1 10.22 0 7.122 7.088 0 0 1-10.22 0" style="fill:#32bedd;stroke:none;stroke-width:35.97980118;stroke-linecap:butt"/></g><g transform="translate(42.893 -5.685)"><title>path16</title><path d="M1.06 123.21a3.408 3.391-180 0 0 0 4.92 3.408 3.391-180 0 0 4.91 0 3.408 3.391-180 0 0 0-4.92 3.408 3.391-180 0 0-4.91 0" style="fill:#fff;stroke:none;stroke-width:35.97980118;stroke-linecap:butt"/></g><g transform="translate(1.935 -4.18)"><title>path18</title><path d="M12.17 129.16a7.122 7.088 0 1 1 0-10 7.122 7.088 0 0 1 0 10" style="fill:#32bedd;stroke:none;stroke-width:35.97980118;stroke-linecap:butt"/></g><g transform="translate(5.545 -6.723)"><title>path20</title><path d="M1.06 129.16a3.408 3.391-180 1 0 0-4.91 3.408 3.391-180 0 0 0 4.91" style="fill:#fff;stroke:none;stroke-width:35.97980118;stroke-linecap:butt"/></g><g transform="translate(13.83 -15.066)"><title>path22</title><path d="M26.48 129.16a2.59 2.577-180 0 0 2.59-2.57v-.31c-.92-8.07-5.66-14.68-14.55-14.68-8.9 0-13.63 5.59-14.52 14.71a2.59 2.577-180 0 0 2.32 2.85z" style="fill:url(#a);stroke:none;stroke-width:35.97980118;stroke-linecap:butt"/></g><g transform="translate(23.917 -20.628)"><title>path24</title><path d="M4.43 119.09A8.212 8.173 0 0 1 0 117.8l4.43 11.36 4.33-11.12a8.076 8.037 0 0 1-4.33 1.05" style="fill:#fff;fill-opacity:.8;stroke:none;stroke-width:35.97980118;stroke-linecap:butt"/></g><g transform="translate(20.236 -30.7)"><title>circle26</title><ellipse cx="8.144" cy="121.058" rx="8.144" ry="8.105" style="fill:url(#b);stroke:none;stroke-width:35.97980118;stroke-linecap:butt"/></g></g></g></svg>