<svg xmlns="http://www.w3.org/2000/svg" xml:space="preserve" width="56.693" height="75.593" style="font-size:12px;overflow:visible;color-interpolation-filters:sRGB;fill-rule:evenodd;stroke-linecap:square;stroke-miterlimit:3" viewBox="0 0 42.52 56.695"><g transform="translate(-12.24 -12.24)"><title>Page-1</title><g transform="translate(12.24 -34.016)"><title>Identity.14429</title><title>Sheet.14430</title><title>Sheet.14431</title><path d="M36.31 53.06c-12.64-1.36-15.05-6.8-15.05-6.8S18.39 53.4 0 53.4v29.03c0 3.51 2.3 6.8 5.06 9.63 6.2 6.47 16.43 10.89 16.43 10.89s21.03-9.07 21.03-20.52V53.4c-2.3 0-4.37-.11-6.21-.34" style="fill:#7fb900;stroke:none;stroke-width:12.23999977;stroke-linecap:butt"/><g transform="translate(0 -10.885)"><title>Sheet.14432</title><path d="m26.89 75.96 9.54-12.02c-12.64-1.36-15.06-6.8-15.06-6.8S18.39 64.28 0 64.28v29.03c0 3.52 2.3 6.8 5.06 9.64l7.24-8.85Z" style="fill:#b7d332;fill-opacity:.4;stroke:none;stroke-width:12.23999977;stroke-linecap:butt"/></g></g></g></svg>