<svg xmlns="http://www.w3.org/2000/svg" xml:space="preserve" width="55.86" height="74.77" style="font-size:12px;overflow:visible;color-interpolation-filters:sRGB;fill-rule:evenodd;stroke-linecap:square;stroke-miterlimit:3" viewBox="0 0 41.895 56.078"><defs><linearGradient id="a" x1="0" x2="13.9" y1="59.148" y2="59.148" gradientTransform="scale(.74532 1.34171)" gradientUnits="userSpaceOnUse"><stop offset="0" stop-color="#1988d9"/><stop offset=".9" stop-color="#54aef0"/></linearGradient><linearGradient id="b" x1="0" x2="11.069" y1="100.317" y2="100.317" gradientTransform="scale(1.13648 .87991)" gradientUnits="userSpaceOnUse"><stop offset=".1" stop-color="#54aef0"/><stop offset=".29" stop-color="#4fabee"/><stop offset=".51" stop-color="#41a2e9"/><stop offset=".74" stop-color="#2a93e0"/><stop offset=".88" stop-color="#1988d9"/></linearGradient></defs><g transform="translate(-7.92 -7.917)"><title>Page-1</title><g transform="translate(7.297 -34.016)"><title>Managed Identity.14416</title><title> MSI_2</title><title>path6</title><path d="M17.25 90.13c-1.34-.96-1.52-1.42-.82-2.26l7.42-8.49v-5.87l9.69-9.68a6.38 6.38 0 0 0 0-9.02L22.53 43.8c-2.49-2.49-6.53-2.49-9.03 0L2.49 54.81a6.38 6.38 0 0 0 0 9.02l10.46 10.45v.88l-2.98 2.98 2.95 2.95-2.95 2.94 2.95 2.95-2.95 2.95 2.98 2.97v.04l5.07 5.07 3.83-4.67zm-2.86-40.04c0-3.23 3.91-4.85 6.19-2.56 2.28 2.28.67 6.18-2.56 6.18-2 0-3.63-1.62-3.63-3.62" style="fill:#fcd116;stroke:none;stroke-width:7.92000008;stroke-linecap:butt"/><g transform="translate(7.911 -32.907)"><title>path8</title><path d="M0 90.11h20.92v3.01H0ZM0 95h20.92v3.01H0Z" style="fill:#fff;fill-opacity:.5;stroke:none;stroke-width:7.92000008;stroke-linecap:butt"/></g><g transform="translate(18.852 -13.652)"><title>path22</title><path d="M2.28 95.73v-7.61L0 89.24v8.77z" style="fill:#ff8c00;fill-opacity:.4;stroke:none;stroke-width:7.92000008;stroke-linecap:butt"/></g><g transform="translate(17.548 -1.237)"><title>g16</title><title>path2</title><path d="m1.4 88.3 10.99 7.13 11.18-7.16 1.4 1.64-12.58 8.1L0 89.91Z" style="fill:#50e6ff;stroke:none;stroke-width:18.64030075;stroke-linecap:butt"/><g transform="translate(2.234 -4.063)"><title>path4</title><path d="m0 91.45 10.16-12.09 10.36 12.1-10.36 6.55Z" style="fill:#fff;stroke:none;stroke-width:18.64030075;stroke-linecap:butt"/></g><g transform="translate(2.234 -4.063)"><title>path6-5</title><path d="M10.16 79.36v18.65L0 91.45Z" style="fill:#50e6ff;stroke:none;stroke-width:18.64030075;stroke-linecap:butt"/></g><g transform="translate(12.389 -4.063)"><title>path8-1</title><path d="M0 79.36v18.65l10.36-6.55Z" style="fill:url(#a);stroke:none;stroke-width:18.64030075;stroke-linecap:butt"/></g><g transform="translate(12.389 -4.063)"><title>path10-1</title><path d="m0 88.99 10.36 2.47L0 98.01Z" style="fill:#53b1e0;stroke:none;stroke-width:18.64030075;stroke-linecap:butt"/></g><g transform="translate(2.234 -4.063)"><title>path12-6</title><path d="M10.16 98.01 0 91.45l10.16-2.46Z" style="fill:#9cebff;stroke:none;stroke-width:18.64030075;stroke-linecap:butt"/></g><g transform="translate(12.389)"><title>path14-3</title><path d="m0 98.01 12.58-8.1-1.4-1.64L0 95.43Z" style="fill:url(#b);stroke:none;stroke-width:18.64030075;stroke-linecap:butt"/></g></g></g></g></svg>