<svg xmlns="http://www.w3.org/2000/svg" xml:space="preserve" width="75.585" height="60.466" style="font-size:12px;overflow:visible;color-interpolation-filters:sRGB;fill-rule:evenodd;stroke-linecap:square;stroke-miterlimit:3" viewBox="0 0 56.689 45.35"><defs><linearGradient id="a" x1="0" x2="42.819" y1="90.727" y2="90.727" gradientTransform="scale(1.17797 .84892)" gradientUnits="userSpaceOnUse"><stop offset="0" stop-color="#76bc2d"/><stop offset=".6" stop-color="#81ce31"/><stop offset=".82" stop-color="#86d633"/></linearGradient><linearGradient id="b" x1="0" x2="45.852" y1="68.773" y2="68.773" gradientTransform="scale(1.01107 .98905)" gradientUnits="userSpaceOnUse"><stop offset=".225" stop-color="#32d4f5"/><stop offset=".475" stop-color="#31d1f3"/><stop offset=".89" stop-color="#22a5cb"/><stop offset="1" stop-color="#198ab3"/><stop offset="1" stop-color="#198ab3"/></linearGradient></defs><g transform="translate(-34 -34.004)"><title>Page-1</title><g transform="translate(34 -34.016)"><title>Terms of use.14399</title><title>Page-1</title><title>Sheet.14401</title><g transform="translate(6.25 -7.871)"><title>Sheet.14402</title><title>Sheet.14403</title><path d="M17.39 105.04 4.09 92.03 0 96.26l17.39 17.11 33.05-32.01-4.08-4.34Z" style="fill:url(#a);stroke:none;stroke-width:33.99980164;stroke-linecap:butt"/></g><title>Sheet.14404</title><title>Sheet.14405</title><path d="M26.13 107.82a3.495 3.495 0 0 1-4.89 0L3.87 90.81c-1.37-1.34-1.37-3.34-.12-4.67l4.21-4.34c.68-.66 1.47-1 2.49-1 .91 0 1.83.34 2.39 1l10.91 10.68 22.26-21.57c-.57-1.67-2.27-2.89-4.08-2.89H4.43c-2.5 0-4.43 2-4.43 4.34v36.68c0 2.33 1.93 4.33 4.43 4.33h37.5c2.38 0 4.43-1.89 4.43-4.33V88.36Z" style="fill:url(#b);stroke:none;stroke-width:33.99980164;stroke-linecap:butt"/></g></g></svg>