<svg xmlns="http://www.w3.org/2000/svg" xml:space="preserve" width="75.617" height="64.246" style="font-size:12px;overflow:visible;color-interpolation-filters:sRGB;fill-rule:evenodd;stroke-linecap:square;stroke-miterlimit:3" viewBox="0 0 56.713 48.184"><defs><linearGradient id="a" x1="-.016" x2="33.817" y1="114.298" y2="114.298" gradientTransform="scale(1.27479 .78444)" gradientUnits="userSpaceOnUse"><stop offset=".225" stop-color="#32d4f5"/><stop offset=".475" stop-color="#31d1f3"/><stop offset=".89" stop-color="#22a5cb"/><stop offset="1" stop-color="#198ab3"/><stop offset="1" stop-color="#198ab3"/></linearGradient><linearGradient id="b" x1="0" x2="24.37" y1="90.983" y2="90.983" gradientTransform="scale(.99267 1.00739)" gradientUnits="userSpaceOnUse"><stop offset=".225" stop-color="#32d4f5"/><stop offset=".475" stop-color="#31d1f3"/><stop offset=".89" stop-color="#22a5cb"/><stop offset="1" stop-color="#198ab3"/><stop offset="1" stop-color="#198ab3"/></linearGradient></defs><g transform="translate(-34 -34)"><title>Page-1</title><g transform="translate(34.02 -34.016)"><title>User Setting.14393</title><title>g10</title><g transform="translate(17.573 -5.738)"><title>path2</title><path d="M39.12 98.49v-4.53l-.63-.23-4.77-1.61-1.27-3.09 2.43-5.24-3.13-3.18-.63.32-4.47 2.3-3.05-1.28-1.95-5.48h-4.44l-.23.64-1.58 4.85-3.05 1.28-5.06-2.46-3.13 3.18.31.64 2.27 4.53-1.26 3.09L0 94.21v4.52l.63.23 4.77 1.61 1.27 3.09-2.45 5.23 3.13 3.18.63-.32 4.46-2.31 3.05 1.29 1.96 5.47h4.46l.24-.64 1.56-4.84 3.05-1.28 5.17 2.46 3.13-3.18-.32-.64-2.27-4.53 1.27-3.09zm-19.56 6.57a8.586 8.713 0 1 1 8.58-8.71 8.576 8.704 0 0 1-8.58 8.71" style="fill:#0078d4;stroke:none;stroke-width:34;stroke-linecap:butt"/></g><title>path4</title><path d="M39.26 116.2a3.838 3.895-180 0 0 3.85-3.87 4.464 4.53-180 0 0-.03-.47c-1.51-12.24-8.38-22.2-21.5-22.2C8.23 89.66 1.34 98.1 0 111.89a3.854 3.911-180 0 0 3.44 4.29 3.159 3.206-180 0 0 .39.02z" style="fill:url(#a);stroke:none;stroke-width:34;stroke-linecap:butt"/><g transform="translate(15.235 -8.412)"><title>path6</title><path d="M6.55 100.97A12.03 12.208 0 0 1 0 99.02l6.48 17.18 6.44-17.07a12.035 12.214 0 0 1-6.37 1.84" style="fill:#fff;fill-opacity:.8;stroke:none;stroke-width:34;stroke-linecap:butt"/></g><g transform="translate(9.6 -23.64)"><title>circle8</title><ellipse cx="12.095" cy="103.93" rx="12.095" ry="12.275" style="fill:url(#b);stroke:none;stroke-width:34;stroke-linecap:butt"/></g></g></g></svg>