<svg xmlns="http://www.w3.org/2000/svg" xmlns:xlink="http://www.w3.org/1999/xlink" xml:space="preserve" width="75.586" height="75.597" style="font-size:12px;overflow:visible;color-interpolation-filters:sRGB;fill-rule:evenodd;stroke-linecap:square;stroke-miterlimit:3" viewBox="0 0 56.69 56.698"><defs><linearGradient id="a" x1="0" x2="1" y1="0" y2="0" gradientTransform="rotate(-90.92 .5 .5)"><stop offset="0" stop-color="#5e9624"/><stop offset=".18" stop-color="#629c25"/><stop offset=".44" stop-color="#6dae2a"/><stop offset=".73" stop-color="#7fcb30"/><stop offset=".82" stop-color="#86d633"/></linearGradient><linearGradient id="d" x1="0" x2="4.169" y1="122.984" y2="122.984" gradientTransform="scale(1.31928 .75799)" gradientUnits="userSpaceOnUse"><stop offset="0" stop-color="#5e9624"/><stop offset=".18" stop-color="#629c25"/><stop offset=".44" stop-color="#6dae2a"/><stop offset=".73" stop-color="#7fcb30"/><stop offset=".82" stop-color="#86d633"/></linearGradient><linearGradient id="e" x1="0" x2="36.893" y1="60.419" y2="60.419" gradientTransform="scale(1.00967 .99042)" gradientUnits="userSpaceOnUse"><stop offset="0" stop-color="#5e9624"/><stop offset=".18" stop-color="#629c25"/><stop offset=".44" stop-color="#6dae2a"/><stop offset=".73" stop-color="#7fcb30"/><stop offset=".82" stop-color="#86d633"/></linearGradient><linearGradient id="f" x1="0" x2="8.107" y1="173.283" y2="173.283" gradientTransform="scale(1.88352 .53092)" gradientUnits="userSpaceOnUse"><stop offset="0" stop-color="#5e9624"/><stop offset=".18" stop-color="#629c25"/><stop offset=".44" stop-color="#6dae2a"/><stop offset=".73" stop-color="#7fcb30"/><stop offset=".82" stop-color="#86d633"/></linearGradient><linearGradient xlink:href="#a" id="b" x1="0" x2="56.69" y1="39.69" y2="39.69" gradientUnits="userSpaceOnUse"/><linearGradient xlink:href="#a" id="c" x1="0" x2="2.036" y1="94.342" y2="94.342" gradientUnits="userSpaceOnUse"/></defs><g transform="translate(-5.67 -5.667)"><title>Page-1</title><g transform="translate(5.67 -34.016)"><title>Work Account.14373</title><title>Microsoft_organization_account_</title><title>path2</title><path d="m34.61 39.69-7.84 5.59-7.13 1.43 7.13-1.43.71 3.67 11.91-2.45c1.73-.4 3.46.82 3.87 2.55l9.16 44.99c.2.81 0 1.83-.41 2.34H13.94L5.9 56.68c-.4-1.73.82-3.46 2.55-3.87l12.01-2.44-.71-3.56-5.2-7.12H0v56.69h56.69V39.69Z" style="fill:url(#b);stroke:none;stroke-width:.812473;stroke-linecap:butt"/><g transform="translate(22.698 -46.82)"><title>circle4</title><circle cx="1.018" cy="95.36" r="1.018" style="fill:url(#c);stroke:none;stroke-width:.812473;stroke-linecap:butt"/></g><g transform="translate(20.357 -53.538)"><title>polygon6</title><path d="M5.5 93.22H0l2.75 3.16z" style="fill:url(#d);stroke:none;stroke-width:.812473;stroke-linecap:butt"/></g><g transform="translate(9.67 -6.514)"><title>path8</title><path d="M31.25 59.84 0 66.15l6.11 30.23 5.8-1.22-2.85-13.95 5.9-1.22 5.29 4.89 2.96-6.52 5.9-1.22 2.75 13.84 5.39-1.12zm-12.42 17.5c-3.05.62-6.11-1.32-6.72-4.47-.61-3.06 1.43-6.11 4.48-6.72s6.11 1.32 6.72 4.48c.61 3.15-1.43 6.1-4.48 6.71" style="fill:url(#e);stroke:none;stroke-width:.812473;stroke-linecap:butt"/></g><g transform="translate(17.1 -40.713)"><title>path10</title><path d="M0 95.67c.1.5.51.71.92.61l13.74-2.75c.4-.1.61-.51.61-.82v-.1c-.1-.41-.51-.61-.82-.61l-3.25.71.2 1.02-7.13 1.43-.2-1.02-3.26.71c-.61 0-.81.41-.81.82" style="fill:url(#f);stroke:none;stroke-width:.812473;stroke-linecap:butt"/></g></g></g></svg>