<svg xmlns="http://www.w3.org/2000/svg" viewBox="0 0 512 512"><path d="M0 0h512v512H0z" style="fill:none"/><path d="M447.5 123.7 261.5 55c-3.6-1.3-7.5-1.3-11.1 0l-40.7 15-145.2 53.5c-6.3 2.3-10.5 8.3-10.5 15s4.2 12.7 10.5 15l145.1 53.4 40.8 15c1.8.6 3.7 1 5.5 1s3.7-.3 5.5-1l185.9-68.2c6.3-2.3 10.5-8.3 10.5-15s-4.2-12.7-10.5-15ZM256 189.9l-139.6-51.4L256 87.1l139.7 51.6-139.6 51.2Zm191.5 198.9L261.6 457c-1.8.6-3.6 1-5.5 1s-3.7-.3-5.5-1l-40.8-15-145.1-53.4c-8.3-3-12.5-12.2-9.5-20.5s12.2-12.5 20.5-9.5L256.1 425l180.4-66.2c8.3-3 17.5 1.2 20.5 9.5s-1.2 17.5-9.5 20.5"/><path d="m447.5 310.4-185.9 68.2c-1.8.6-3.6 1-5.5 1s-3.7-.3-5.5-1l-40.8-15-145.1-53.4c-8.3-3-12.5-12.2-9.5-20.5s12.2-12.5 20.5-9.5l180.4 66.4 180.4-66.2c8.3-3 17.5 1.2 20.5 9.5s-1.2 17.5-9.5 20.5"/><path d="m447.5 232.1-185.9 68.2c-1.8.7-3.6 1-5.5 1s-3.7-.3-5.5-1l-40.8-15-145.1-53.4c-8.3-3.1-12.5-12.2-9.5-20.5s12.2-12.5 20.5-9.5l180.4 66.4 180.4-66.2c8.3-3 17.5 1.2 20.5 9.5s-1.2 17.5-9.5 20.5"/><path d="M458 138.7c0 6.7-4.2 12.7-10.5 15l-186 68.2c-1.8.7-3.6 1-5.5 1s-3.7-.3-5.5-1l-40.8-15 46.4-17 139.6-51.2L256 87.1 209.8 70l40.7-15c3.6-1.3 7.5-1.3 11.1 0l186 68.7c6.3 2.3 10.5 8.3 10.5 15Z" style="fill:#ea4335"/><path d="M447.5 388.8 261.6 457c-1.8.6-3.6 1-5.5 1s-3.7-.3-5.5-1l-40.8-15 46.4-17 180.4-66.2c8.3-3 17.5 1.2 20.5 9.5s-1.2 17.5-9.5 20.5Zm0-78.4-185.9 68.2c-1.8.6-3.6 1-5.5 1s-3.7-.3-5.5-1l-40.8-15 46.4-17 180.4-66.2c8.3-3 17.5 1.2 20.5 9.5s-1.2 17.5-9.5 20.5Zm0-78.3-185.9 68.2c-1.8.7-3.6 1-5.5 1s-3.7-.3-5.5-1l-40.8-15 46.4-17 180.4-66.2c8.3-3 17.5 1.2 20.5 9.5s-1.2 17.5-9.5 20.5Zm-145.1-25.2-186-68.5-51.8-15c-6.3 2.3-10.5 8.3-10.5 15s4.2 12.7 10.5 15l145.1 53.4 40.8 15c1.8.6 3.7 1 5.5 1s3.7-.3 5.5-1l40.9-15Z"/></svg>