<svg xmlns="http://www.w3.org/2000/svg" viewBox="0 0 512 512"><path d="M0 0h512v512H0z" style="fill:none"/><path d="M256 490c-44.2 0-85.9-11.3-117.6-31.8-33.8-21.9-52.4-51.7-52.4-84V256h32v118.2c0 21 13.4 41.3 37.8 57.1C182.3 448.5 217.9 458 256 458s73.7-9.5 100.2-26.7c24.4-15.8 37.8-36.1 37.8-57.1h32c0 32.3-18.6 62.1-52.4 84C342 478.7 300.2 490 256 490"/><path d="M256 381c-44.2 0-85.9-11.3-117.6-31.8-33.8-21.9-52.4-51.7-52.4-84V137.9h32v127.3c0 21 13.4 41.3 37.8 57.1C182.3 339.5 217.9 349 256 349s73.7-9.5 100.2-26.7c24.4-15.8 37.8-36.1 37.8-57.1h32c0 32.3-18.6 62.1-52.4 84C342 369.7 300.2 381 256 381"/><path d="M256 490v-32c38.1 0 73.7-9.5 100.2-26.7 24.4-15.8 37.8-36.1 37.8-57.2V256h32v118.1c0 32.3-18.6 62.1-52.4 84.1C342 478.7 300.2 490 256 490"/><path d="M256 381v-32c38.1 0 73.7-9.5 100.2-26.7 24.4-15.8 37.8-36.1 37.8-57.2V137.9h32v127.2c0 32.3-18.6 62.1-52.4 84.1C342 369.7 300.2 381 256 381"/><path d="M256 253.6c-44.2 0-85.9-11.3-117.6-31.8-33.8-21.9-52.4-51.7-52.4-84s18.6-62.1 52.4-84C170 33.3 211.8 22 256 22s86 11.3 117.6 31.8c33.8 21.9 52.4 51.7 52.4 84s-18.6 62.1-52.4 84c-31.6 20.5-73.4 31.8-117.6 31.8M256 54c-38.1 0-73.7 9.5-100.2 26.7-24.4 15.8-37.8 36.1-37.8 57.1s13.4 41.3 37.8 57.1c26.5 17.2 62.1 26.7 100.2 26.7s73.7-9.5 100.2-26.7c24.4-15.8 37.8-36.1 37.8-57.1s-13.4-41.3-37.8-57.1C329.7 63.5 294.1 54 256 54"/><path d="M256 253.8v-32c38.1 0 73.7-9.5 100.2-26.7 24.4-15.8 37.8-36.2 37.8-57.2s-13.4-41.4-37.8-57.2C329.7 63.5 294.1 54 256 54V22c44.2 0 86 11.3 117.6 31.8 33.8 21.9 52.4 51.8 52.4 84.1S407.4 200 373.6 222c-31.6 20.5-73.4 31.8-117.6 31.8"/></svg>